<?xml version="1.0" encoding="UTF-8" standalone="no"?>
<!DOCTYPE svg PUBLIC "-//W3C//DTD SVG 1.1//EN"
 "http://www.w3.org/Graphics/SVG/1.1/DTD/svg11.dtd">
<!-- Generated by graphviz version 2.43.0 (0)
 -->
<!-- Title: tracktion_engine::EditItem Pages: 1 -->
<svg width="807pt" height="1547pt"
 viewBox="0.00 0.00 807.00 1547.00" xmlns="http://www.w3.org/2000/svg" xmlns:xlink="http://www.w3.org/1999/xlink">
<g id="graph0" class="graph" transform="scale(1 1) rotate(0) translate(4 1543)">
<title>tracktion_engine::EditItem</title>
<!-- Node1 -->
<g id="node1" class="node">
<title>Node1</title>
<g id="a_node1"><a xlink:title="Base class for objects that live inside an edit &#45; e.g.">
<polygon fill="#bfbfbf" stroke="black" points="0,-530 0,-549 146,-549 146,-530 0,-530"/>
<text text-anchor="middle" x="73" y="-537" font-family="Helvetica,sans-Serif" font-size="10.00">tracktion_engine::EditItem</text>
</a>
</g>
</g>
<!-- Node2 -->
<g id="node2" class="node">
<title>Node2</title>
<g id="a_node2"><a xlink:href="classtracktion__engine_1_1AutomatableEditItem.html" target="_top" xlink:title="Base class for elements that have some kind of automatable parameters.">
<polygon fill="none" stroke="black" points="182,-989.5 182,-1019.5 349,-1019.5 349,-989.5 182,-989.5"/>
<text text-anchor="start" x="190" y="-1007.5" font-family="Helvetica,sans-Serif" font-size="10.00">tracktion_engine::Automatable</text>
<text text-anchor="middle" x="265.5" y="-996.5" font-family="Helvetica,sans-Serif" font-size="10.00">EditItem</text>
</a>
</g>
</g>
<!-- Node1&#45;&gt;Node2 -->
<g id="edge1" class="edge">
<title>Node1&#45;&gt;Node2</title>
<path fill="none" stroke="midnightblue" d="M81.83,-558.61C113.23,-635.27 229.78,-919.76 258.21,-989.16"/>
<polygon fill="midnightblue" stroke="midnightblue" points="85.01,-557.14 77.98,-549.21 78.53,-559.79 85.01,-557.14"/>
</g>
<!-- Node39 -->
<g id="node39" class="node">
<title>Node39</title>
<g id="a_node39"><a xlink:href="classtracktion__engine_1_1Track.html" target="_top" xlink:title="Base class for tracks which contain clips and plugins and can be added to Edit[s].">
<polygon fill="none" stroke="black" points="200.5,-530 200.5,-549 330.5,-549 330.5,-530 200.5,-530"/>
<text text-anchor="middle" x="265.5" y="-537" font-family="Helvetica,sans-Serif" font-size="10.00">tracktion_engine::Track</text>
</a>
</g>
</g>
<!-- Node1&#45;&gt;Node39 -->
<g id="edge38" class="edge">
<title>Node1&#45;&gt;Node39</title>
<path fill="none" stroke="midnightblue" d="M156.14,-539.5C170.88,-539.5 186.05,-539.5 200.2,-539.5"/>
<polygon fill="midnightblue" stroke="midnightblue" points="156.02,-536 146.02,-539.5 156.02,-543 156.02,-536"/>
</g>
<!-- Node49 -->
<g id="node45" class="node">
<title>Node49</title>
<g id="a_node45"><a xlink:href="classtracktion__engine_1_1TrackItem.html" target="_top" xlink:title="Base class for EditItems that live in a Track, e.g.">
<polygon fill="none" stroke="black" points="189.5,-361 189.5,-380 341.5,-380 341.5,-361 189.5,-361"/>
<text text-anchor="middle" x="265.5" y="-368" font-family="Helvetica,sans-Serif" font-size="10.00">tracktion_engine::TrackItem</text>
</a>
</g>
</g>
<!-- Node1&#45;&gt;Node49 -->
<g id="edge44" class="edge">
<title>Node1&#45;&gt;Node49</title>
<path fill="none" stroke="midnightblue" d="M92.3,-523.27C131.32,-488.65 221.75,-408.42 253.36,-380.39"/>
<polygon fill="midnightblue" stroke="midnightblue" points="89.95,-520.68 84.79,-529.93 94.59,-525.91 89.95,-520.68"/>
</g>
<!-- Node3 -->
<g id="node3" class="node">
<title>Node3</title>
<g id="a_node3"><a xlink:href="classtracktion__engine_1_1MacroParameterList.html" target="_top" xlink:title=" ">
<polygon fill="none" stroke="black" points="385,-1390 385,-1409 587,-1409 587,-1390 385,-1390"/>
<text text-anchor="middle" x="486" y="-1397" font-family="Helvetica,sans-Serif" font-size="10.00">tracktion_engine::MacroParameterList</text>
</a>
</g>
</g>
<!-- Node2&#45;&gt;Node3 -->
<g id="edge2" class="edge">
<title>Node2&#45;&gt;Node3</title>
<path fill="none" stroke="midnightblue" d="M266.22,-1029.76C266.93,-1097.81 278.88,-1286.17 385,-1380.5 389.23,-1384.26 393.96,-1387.37 399,-1389.95"/>
<polygon fill="midnightblue" stroke="midnightblue" points="269.72,-1029.54 266.19,-1019.55 262.72,-1029.56 269.72,-1029.54"/>
</g>
<!-- Node4 -->
<g id="node4" class="node">
<title>Node4</title>
<g id="a_node4"><a xlink:href="structtracktion__engine_1_1Modifier.html" target="_top" xlink:title="Bass class for parameter Modifiers.">
<polygon fill="none" stroke="black" points="414,-1352 414,-1371 558,-1371 558,-1352 414,-1352"/>
<text text-anchor="middle" x="486" y="-1359" font-family="Helvetica,sans-Serif" font-size="10.00">tracktion_engine::Modifier</text>
</a>
</g>
</g>
<!-- Node2&#45;&gt;Node4 -->
<g id="edge3" class="edge">
<title>Node2&#45;&gt;Node4</title>
<path fill="none" stroke="midnightblue" d="M281.21,-1028.54C324.57,-1099.37 450.59,-1305.28 479.18,-1352"/>
<polygon fill="midnightblue" stroke="midnightblue" points="284.09,-1026.54 275.89,-1019.84 278.12,-1030.2 284.09,-1026.54"/>
</g>
<!-- Node11 -->
<g id="node11" class="node">
<title>Node11</title>
<g id="a_node11"><a xlink:href="classtracktion__engine_1_1Plugin.html" target="_top" xlink:title=" ">
<polygon fill="none" stroke="black" points="419,-662 419,-681 553,-681 553,-662 419,-662"/>
<text text-anchor="middle" x="486" y="-669" font-family="Helvetica,sans-Serif" font-size="10.00">tracktion_engine::Plugin</text>
</a>
</g>
</g>
<!-- Node2&#45;&gt;Node11 -->
<g id="edge10" class="edge">
<title>Node2&#45;&gt;Node11</title>
<path fill="none" stroke="midnightblue" d="M282.1,-980.72C325.99,-913.83 449.21,-726.04 478.63,-681.2"/>
<polygon fill="midnightblue" stroke="midnightblue" points="279.02,-979.05 276.46,-989.33 284.87,-982.89 279.02,-979.05"/>
</g>
<!-- Node5 -->
<g id="node5" class="node">
<title>Node5</title>
<g id="a_node5"><a xlink:href="classtracktion__engine_1_1BreakpointOscillatorModifier.html" target="_top" xlink:title=" ">
<polygon fill="none" stroke="black" points="632,-1508.5 632,-1538.5 790,-1538.5 790,-1508.5 632,-1508.5"/>
<text text-anchor="start" x="640" y="-1526.5" font-family="Helvetica,sans-Serif" font-size="10.00">tracktion_engine::Breakpoint</text>
<text text-anchor="middle" x="711" y="-1515.5" font-family="Helvetica,sans-Serif" font-size="10.00">OscillatorModifier</text>
</a>
</g>
</g>
<!-- Node4&#45;&gt;Node5 -->
<g id="edge4" class="edge">
<title>Node4&#45;&gt;Node5</title>
<path fill="none" stroke="midnightblue" d="M567.93,-1368.6C574.89,-1371.58 581.4,-1375.46 587,-1380.5 628.09,-1417.45 583.45,-1460.91 623,-1499.5 626.48,-1502.89 630.39,-1505.81 634.57,-1508.33"/>
<polygon fill="midnightblue" stroke="midnightblue" points="568.8,-1365.19 558.21,-1365.07 566.42,-1371.77 568.8,-1365.19"/>
</g>
<!-- Node6 -->
<g id="node6" class="node">
<title>Node6</title>
<g id="a_node6"><a xlink:href="classtracktion__engine_1_1EnvelopeFollowerModifier.html" target="_top" xlink:title=" ">
<polygon fill="none" stroke="black" points="636.5,-1459.5 636.5,-1489.5 785.5,-1489.5 785.5,-1459.5 636.5,-1459.5"/>
<text text-anchor="start" x="644.5" y="-1477.5" font-family="Helvetica,sans-Serif" font-size="10.00">tracktion_engine::Envelope</text>
<text text-anchor="middle" x="711" y="-1466.5" font-family="Helvetica,sans-Serif" font-size="10.00">FollowerModifier</text>
</a>
</g>
</g>
<!-- Node4&#45;&gt;Node6 -->
<g id="edge5" class="edge">
<title>Node4&#45;&gt;Node6</title>
<path fill="none" stroke="midnightblue" d="M567.69,-1370C574.59,-1372.71 581.15,-1376.15 587,-1380.5 614.77,-1401.12 596.21,-1427.62 623,-1449.5 627.75,-1453.38 633.07,-1456.65 638.67,-1459.42"/>
<polygon fill="midnightblue" stroke="midnightblue" points="568.72,-1366.66 558.13,-1366.74 566.46,-1373.28 568.72,-1366.66"/>
</g>
<!-- Node7 -->
<g id="node7" class="node">
<title>Node7</title>
<g id="a_node7"><a xlink:href="classtracktion__engine_1_1LFOModifier.html" target="_top" xlink:title=" ">
<polygon fill="none" stroke="black" points="629.5,-1421 629.5,-1440 792.5,-1440 792.5,-1421 629.5,-1421"/>
<text text-anchor="middle" x="711" y="-1428" font-family="Helvetica,sans-Serif" font-size="10.00">tracktion_engine::LFOModifier</text>
</a>
</g>
</g>
<!-- Node4&#45;&gt;Node7 -->
<g id="edge6" class="edge">
<title>Node4&#45;&gt;Node7</title>
<path fill="none" stroke="midnightblue" d="M567.91,-1373.03C574.51,-1375.12 580.96,-1377.59 587,-1380.5 606.02,-1389.67 604.11,-1402.07 623,-1411.5 630.75,-1415.37 639.27,-1418.45 647.85,-1420.91"/>
<polygon fill="midnightblue" stroke="midnightblue" points="568.73,-1369.62 558.15,-1370.23 566.8,-1376.35 568.73,-1369.62"/>
</g>
<!-- Node8 -->
<g id="node8" class="node">
<title>Node8</title>
<g id="a_node8"><a xlink:href="classtracktion__engine_1_1MIDITrackerModifier.html" target="_top" xlink:title=" ">
<polygon fill="none" stroke="black" points="630.5,-1371.5 630.5,-1401.5 791.5,-1401.5 791.5,-1371.5 630.5,-1371.5"/>
<text text-anchor="start" x="638.5" y="-1389.5" font-family="Helvetica,sans-Serif" font-size="10.00">tracktion_engine::MIDITracker</text>
<text text-anchor="middle" x="711" y="-1378.5" font-family="Helvetica,sans-Serif" font-size="10.00">Modifier</text>
</a>
</g>
</g>
<!-- Node4&#45;&gt;Node8 -->
<g id="edge7" class="edge">
<title>Node4&#45;&gt;Node8</title>
<path fill="none" stroke="midnightblue" d="M568.27,-1370.61C588.47,-1372.88 610.09,-1375.3 630.22,-1377.56"/>
<polygon fill="midnightblue" stroke="midnightblue" points="568.5,-1367.11 558.17,-1369.48 567.72,-1374.07 568.5,-1367.11"/>
</g>
<!-- Node9 -->
<g id="node9" class="node">
<title>Node9</title>
<g id="a_node9"><a xlink:href="classtracktion__engine_1_1RandomModifier.html" target="_top" xlink:title=" ">
<polygon fill="none" stroke="black" points="638.5,-1322.5 638.5,-1352.5 783.5,-1352.5 783.5,-1322.5 638.5,-1322.5"/>
<text text-anchor="start" x="646.5" y="-1340.5" font-family="Helvetica,sans-Serif" font-size="10.00">tracktion_engine::Random</text>
<text text-anchor="middle" x="711" y="-1329.5" font-family="Helvetica,sans-Serif" font-size="10.00">Modifier</text>
</a>
</g>
</g>
<!-- Node4&#45;&gt;Node9 -->
<g id="edge8" class="edge">
<title>Node4&#45;&gt;Node9</title>
<path fill="none" stroke="midnightblue" d="M568.23,-1352.76C591.19,-1350.29 616,-1347.62 638.36,-1345.21"/>
<polygon fill="midnightblue" stroke="midnightblue" points="567.74,-1349.29 558.17,-1353.84 568.49,-1356.25 567.74,-1349.29"/>
</g>
<!-- Node10 -->
<g id="node10" class="node">
<title>Node10</title>
<g id="a_node10"><a xlink:href="classtracktion__engine_1_1StepModifier.html" target="_top" xlink:title=" ">
<polygon fill="none" stroke="black" points="628,-1284 628,-1303 794,-1303 794,-1284 628,-1284"/>
<text text-anchor="middle" x="711" y="-1291" font-family="Helvetica,sans-Serif" font-size="10.00">tracktion_engine::StepModifier</text>
</a>
</g>
</g>
<!-- Node4&#45;&gt;Node10 -->
<g id="edge9" class="edge">
<title>Node4&#45;&gt;Node10</title>
<path fill="none" stroke="midnightblue" d="M520.77,-1348.38C548.08,-1338.06 587.66,-1323.76 623,-1313.5 636.25,-1309.65 650.8,-1306.06 664.15,-1303.02"/>
<polygon fill="midnightblue" stroke="midnightblue" points="519.4,-1345.16 511.3,-1351.98 521.89,-1351.7 519.4,-1345.16"/>
</g>
<!-- Node12 -->
<g id="node12" class="node">
<title>Node12</title>
<g id="a_node12"><a xlink:href="classtracktion__engine_1_1AirWindowsPlugin.html" target="_top" xlink:title=" ">
<polygon fill="none" stroke="black" points="630,-1234.5 630,-1264.5 792,-1264.5 792,-1234.5 630,-1234.5"/>
<text text-anchor="start" x="638" y="-1252.5" font-family="Helvetica,sans-Serif" font-size="10.00">tracktion_engine::AirWindows</text>
<text text-anchor="middle" x="711" y="-1241.5" font-family="Helvetica,sans-Serif" font-size="10.00">Plugin</text>
</a>
</g>
</g>
<!-- Node11&#45;&gt;Node12 -->
<g id="edge11" class="edge">
<title>Node11&#45;&gt;Node12</title>
<path fill="none" stroke="midnightblue" d="M489.2,-691.37C499.48,-780.89 545.63,-1145.9 623,-1225.5 626.28,-1228.87 629.98,-1231.78 633.96,-1234.29"/>
<polygon fill="midnightblue" stroke="midnightblue" points="492.65,-690.77 488.05,-681.23 485.7,-691.56 492.65,-690.77"/>
</g>
<!-- Node13 -->
<g id="node13" class="node">
<title>Node13</title>
<g id="a_node13"><a xlink:href="classtracktion__engine_1_1AuxReturnPlugin.html" target="_top" xlink:title=" ">
<polygon fill="none" stroke="black" points="633.5,-1185.5 633.5,-1215.5 788.5,-1215.5 788.5,-1185.5 633.5,-1185.5"/>
<text text-anchor="start" x="641.5" y="-1203.5" font-family="Helvetica,sans-Serif" font-size="10.00">tracktion_engine::AuxReturn</text>
<text text-anchor="middle" x="711" y="-1192.5" font-family="Helvetica,sans-Serif" font-size="10.00">Plugin</text>
</a>
</g>
</g>
<!-- Node11&#45;&gt;Node13 -->
<g id="edge12" class="edge">
<title>Node11&#45;&gt;Node13</title>
<path fill="none" stroke="midnightblue" d="M489.68,-691.2C501.51,-775.5 551.71,-1104.77 623,-1176.5 626.42,-1179.95 630.29,-1182.91 634.45,-1185.45"/>
<polygon fill="midnightblue" stroke="midnightblue" points="493.13,-690.61 488.29,-681.18 486.19,-691.57 493.13,-690.61"/>
</g>
<!-- Node14 -->
<g id="node14" class="node">
<title>Node14</title>
<g id="a_node14"><a xlink:href="classtracktion__engine_1_1AuxSendPlugin.html" target="_top" xlink:title=" ">
<polygon fill="none" stroke="black" points="637.5,-1136.5 637.5,-1166.5 784.5,-1166.5 784.5,-1136.5 637.5,-1136.5"/>
<text text-anchor="start" x="645.5" y="-1154.5" font-family="Helvetica,sans-Serif" font-size="10.00">tracktion_engine::AuxSend</text>
<text text-anchor="middle" x="711" y="-1143.5" font-family="Helvetica,sans-Serif" font-size="10.00">Plugin</text>
</a>
</g>
</g>
<!-- Node11&#45;&gt;Node14 -->
<g id="edge13" class="edge">
<title>Node11&#45;&gt;Node14</title>
<path fill="none" stroke="midnightblue" d="M486.59,-691.36C486.27,-761.8 494.98,-1002.1 623,-1127.5 627.25,-1131.67 632.16,-1135.12 637.43,-1137.99"/>
<polygon fill="midnightblue" stroke="midnightblue" points="490.09,-691.27 486.71,-681.23 483.09,-691.19 490.09,-691.27"/>
</g>
<!-- Node15 -->
<g id="node15" class="node">
<title>Node15</title>
<g id="a_node15"><a xlink:href="classtracktion__engine_1_1ChorusPlugin.html" target="_top" xlink:title=" ">
<polygon fill="none" stroke="black" points="642,-1087.5 642,-1117.5 780,-1117.5 780,-1087.5 642,-1087.5"/>
<text text-anchor="start" x="650" y="-1105.5" font-family="Helvetica,sans-Serif" font-size="10.00">tracktion_engine::Chorus</text>
<text text-anchor="middle" x="711" y="-1094.5" font-family="Helvetica,sans-Serif" font-size="10.00">Plugin</text>
</a>
</g>
</g>
<!-- Node11&#45;&gt;Node15 -->
<g id="edge14" class="edge">
<title>Node11&#45;&gt;Node15</title>
<path fill="none" stroke="midnightblue" d="M487.42,-691.35C489.9,-756.89 506.97,-968.5 623,-1078.5 628.46,-1083.67 634.93,-1087.75 641.84,-1090.96"/>
<polygon fill="midnightblue" stroke="midnightblue" points="490.91,-691.06 487.11,-681.17 483.91,-691.28 490.91,-691.06"/>
</g>
<!-- Node16 -->
<g id="node16" class="node">
<title>Node16</title>
<g id="a_node16"><a xlink:href="classtracktion__engine_1_1CompressorPlugin.html" target="_top" xlink:title=" ">
<polygon fill="none" stroke="black" points="629.5,-1038.5 629.5,-1068.5 792.5,-1068.5 792.5,-1038.5 629.5,-1038.5"/>
<text text-anchor="start" x="637.5" y="-1056.5" font-family="Helvetica,sans-Serif" font-size="10.00">tracktion_engine::Compressor</text>
<text text-anchor="middle" x="711" y="-1045.5" font-family="Helvetica,sans-Serif" font-size="10.00">Plugin</text>
</a>
</g>
</g>
<!-- Node11&#45;&gt;Node16 -->
<g id="edge15" class="edge">
<title>Node11&#45;&gt;Node16</title>
<path fill="none" stroke="midnightblue" d="M488.51,-691.21C494.18,-751.23 519.56,-933.42 623,-1028.5 627.17,-1032.33 631.88,-1035.57 636.91,-1038.33"/>
<polygon fill="midnightblue" stroke="midnightblue" points="491.99,-690.85 487.64,-681.18 485.02,-691.45 491.99,-690.85"/>
</g>
<!-- Node17 -->
<g id="node17" class="node">
<title>Node17</title>
<g id="a_node17"><a xlink:href="classtracktion__engine_1_1DelayPlugin.html" target="_top" xlink:title=" ">
<polygon fill="none" stroke="black" points="629.5,-1000 629.5,-1019 792.5,-1019 792.5,-1000 629.5,-1000"/>
<text text-anchor="middle" x="711" y="-1007" font-family="Helvetica,sans-Serif" font-size="10.00">tracktion_engine::DelayPlugin</text>
</a>
</g>
</g>
<!-- Node11&#45;&gt;Node17 -->
<g id="edge16" class="edge">
<title>Node11&#45;&gt;Node17</title>
<path fill="none" stroke="midnightblue" d="M489.21,-691.24C496.6,-747.55 525.81,-910.05 623,-990.5 627.64,-994.34 632.89,-997.46 638.45,-999.98"/>
<polygon fill="midnightblue" stroke="midnightblue" points="492.66,-690.68 487.97,-681.18 485.72,-691.53 492.66,-690.68"/>
</g>
<!-- Node18 -->
<g id="node18" class="node">
<title>Node18</title>
<g id="a_node18"><a xlink:href="classtracktion__engine_1_1EqualiserPlugin.html" target="_top" xlink:title=" ">
<polygon fill="none" stroke="black" points="636.5,-950.5 636.5,-980.5 785.5,-980.5 785.5,-950.5 636.5,-950.5"/>
<text text-anchor="start" x="644.5" y="-968.5" font-family="Helvetica,sans-Serif" font-size="10.00">tracktion_engine::Equaliser</text>
<text text-anchor="middle" x="711" y="-957.5" font-family="Helvetica,sans-Serif" font-size="10.00">Plugin</text>
</a>
</g>
</g>
<!-- Node11&#45;&gt;Node18 -->
<g id="edge17" class="edge">
<title>Node11&#45;&gt;Node18</title>
<path fill="none" stroke="midnightblue" d="M491.06,-690.92C502.47,-740.59 539.6,-873.13 623,-941.5 627.24,-944.98 631.95,-947.95 636.92,-950.5"/>
<polygon fill="midnightblue" stroke="midnightblue" points="494.47,-690.15 488.9,-681.14 487.64,-691.66 494.47,-690.15"/>
</g>
<!-- Node19 -->
<g id="node19" class="node">
<title>Node19</title>
<g id="a_node19"><a xlink:href="classtracktion__engine_1_1ExternalPlugin.html" target="_top" xlink:title=" ">
<polygon fill="none" stroke="black" points="638.5,-901.5 638.5,-931.5 783.5,-931.5 783.5,-901.5 638.5,-901.5"/>
<text text-anchor="start" x="646.5" y="-919.5" font-family="Helvetica,sans-Serif" font-size="10.00">tracktion_engine::External</text>
<text text-anchor="middle" x="711" y="-908.5" font-family="Helvetica,sans-Serif" font-size="10.00">Plugin</text>
</a>
</g>
</g>
<!-- Node11&#45;&gt;Node19 -->
<g id="edge18" class="edge">
<title>Node11&#45;&gt;Node19</title>
<path fill="none" stroke="midnightblue" d="M493.32,-690.8C508.45,-733.89 550.94,-838.38 623,-892.5 627.64,-895.98 632.75,-898.96 638.1,-901.5"/>
<polygon fill="midnightblue" stroke="midnightblue" points="496.6,-689.57 490.06,-681.24 489.98,-691.83 496.6,-689.57"/>
</g>
<!-- Node20 -->
<g id="node20" class="node">
<title>Node20</title>
<g id="a_node20"><a xlink:href="classtracktion__engine_1_1FourOscPlugin.html" target="_top" xlink:title=" ">
<polygon fill="none" stroke="black" points="639.5,-852.5 639.5,-882.5 782.5,-882.5 782.5,-852.5 639.5,-852.5"/>
<text text-anchor="start" x="647.5" y="-870.5" font-family="Helvetica,sans-Serif" font-size="10.00">tracktion_engine::FourOsc</text>
<text text-anchor="middle" x="711" y="-859.5" font-family="Helvetica,sans-Serif" font-size="10.00">Plugin</text>
</a>
</g>
</g>
<!-- Node11&#45;&gt;Node20 -->
<g id="edge19" class="edge">
<title>Node11&#45;&gt;Node20</title>
<path fill="none" stroke="midnightblue" d="M496.54,-690.27C515.58,-725.79 561.78,-802.91 623,-843.5 628.22,-846.96 633.94,-849.93 639.86,-852.47"/>
<polygon fill="midnightblue" stroke="midnightblue" points="499.45,-688.28 491.71,-681.04 493.25,-691.53 499.45,-688.28"/>
</g>
<!-- Node21 -->
<g id="node21" class="node">
<title>Node21</title>
<g id="a_node21"><a xlink:href="classtracktion__engine_1_1FreezePointPlugin.html" target="_top" xlink:title=" ">
<polygon fill="none" stroke="black" points="642.5,-803.5 642.5,-833.5 779.5,-833.5 779.5,-803.5 642.5,-803.5"/>
<text text-anchor="start" x="650.5" y="-821.5" font-family="Helvetica,sans-Serif" font-size="10.00">tracktion_engine::Freeze</text>
<text text-anchor="middle" x="711" y="-810.5" font-family="Helvetica,sans-Serif" font-size="10.00">PointPlugin</text>
</a>
</g>
</g>
<!-- Node11&#45;&gt;Node21 -->
<g id="edge20" class="edge">
<title>Node11&#45;&gt;Node21</title>
<path fill="none" stroke="midnightblue" d="M501.35,-688.88C524.29,-715.56 571.89,-766.43 623,-794.5 629.18,-797.89 635.88,-800.84 642.71,-803.38"/>
<polygon fill="midnightblue" stroke="midnightblue" points="503.92,-686.51 494.79,-681.13 498.58,-691.03 503.92,-686.51"/>
</g>
<!-- Node22 -->
<g id="node22" class="node">
<title>Node22</title>
<g id="a_node22"><a xlink:href="classtracktion__engine_1_1ImpulseResponsePlugin.html" target="_top" xlink:title="ImpulseResponsePlugin that loads an impulse response and applies it the audio stream.">
<polygon fill="none" stroke="black" points="639.5,-754.5 639.5,-784.5 782.5,-784.5 782.5,-754.5 639.5,-754.5"/>
<text text-anchor="start" x="647.5" y="-772.5" font-family="Helvetica,sans-Serif" font-size="10.00">tracktion_engine::Impulse</text>
<text text-anchor="middle" x="711" y="-761.5" font-family="Helvetica,sans-Serif" font-size="10.00">ResponsePlugin</text>
</a>
</g>
</g>
<!-- Node11&#45;&gt;Node22 -->
<g id="edge21" class="edge">
<title>Node11&#45;&gt;Node22</title>
<path fill="none" stroke="midnightblue" d="M510.51,-686.46C537,-702.8 581.75,-728.85 623,-745.5 631.14,-748.79 639.88,-751.78 648.57,-754.46"/>
<polygon fill="midnightblue" stroke="midnightblue" points="512.28,-683.44 501.94,-681.12 508.58,-689.38 512.28,-683.44"/>
</g>
<!-- Node23 -->
<g id="node23" class="node">
<title>Node23</title>
<g id="a_node23"><a xlink:href="classtracktion__engine_1_1InsertPlugin.html" target="_top" xlink:title=" ">
<polygon fill="none" stroke="black" points="645,-705.5 645,-735.5 777,-735.5 777,-705.5 645,-705.5"/>
<text text-anchor="start" x="653" y="-723.5" font-family="Helvetica,sans-Serif" font-size="10.00">tracktion_engine::Insert</text>
<text text-anchor="middle" x="711" y="-712.5" font-family="Helvetica,sans-Serif" font-size="10.00">Plugin</text>
</a>
</g>
</g>
<!-- Node11&#45;&gt;Node23 -->
<g id="edge22" class="edge">
<title>Node11&#45;&gt;Node23</title>
<path fill="none" stroke="midnightblue" d="M540.14,-683.18C571.55,-690.08 611.58,-698.87 644.88,-706.19"/>
<polygon fill="midnightblue" stroke="midnightblue" points="540.78,-679.73 530.26,-681.01 539.28,-686.57 540.78,-679.73"/>
</g>
<!-- Node24 -->
<g id="node24" class="node">
<title>Node24</title>
<g id="a_node24"><a xlink:href="classtracktion__engine_1_1LatencyPlugin.html" target="_top" xlink:title="A test plugin that introduces latency to the incomming signal.">
<polygon fill="none" stroke="black" points="639.5,-656.5 639.5,-686.5 782.5,-686.5 782.5,-656.5 639.5,-656.5"/>
<text text-anchor="start" x="647.5" y="-674.5" font-family="Helvetica,sans-Serif" font-size="10.00">tracktion_engine::Latency</text>
<text text-anchor="middle" x="711" y="-663.5" font-family="Helvetica,sans-Serif" font-size="10.00">Plugin</text>
</a>
</g>
</g>
<!-- Node11&#45;&gt;Node24 -->
<g id="edge23" class="edge">
<title>Node11&#45;&gt;Node24</title>
<path fill="none" stroke="midnightblue" d="M563.02,-671.5C587.66,-671.5 614.87,-671.5 639.11,-671.5"/>
<polygon fill="midnightblue" stroke="midnightblue" points="563,-668 553,-671.5 563,-675 563,-668"/>
</g>
<!-- Node25 -->
<g id="node25" class="node">
<title>Node25</title>
<g id="a_node25"><a xlink:href="classtracktion__engine_1_1LevelMeterPlugin.html" target="_top" xlink:title=" ">
<polygon fill="none" stroke="black" points="631.5,-607.5 631.5,-637.5 790.5,-637.5 790.5,-607.5 631.5,-607.5"/>
<text text-anchor="start" x="639.5" y="-625.5" font-family="Helvetica,sans-Serif" font-size="10.00">tracktion_engine::LevelMeter</text>
<text text-anchor="middle" x="711" y="-614.5" font-family="Helvetica,sans-Serif" font-size="10.00">Plugin</text>
</a>
</g>
</g>
<!-- Node11&#45;&gt;Node25 -->
<g id="edge24" class="edge">
<title>Node11&#45;&gt;Node25</title>
<path fill="none" stroke="midnightblue" d="M549.6,-660.12C562.02,-657.72 574.94,-655.11 587,-652.5 607.94,-647.96 630.78,-642.53 651.02,-637.54"/>
<polygon fill="midnightblue" stroke="midnightblue" points="548.94,-656.68 539.78,-662 550.26,-663.56 548.94,-656.68"/>
</g>
<!-- Node26 -->
<g id="node26" class="node">
<title>Node26</title>
<g id="a_node26"><a xlink:href="classtracktion__engine_1_1LowPassPlugin.html" target="_top" xlink:title=" ">
<polygon fill="none" stroke="black" points="638,-558.5 638,-588.5 784,-588.5 784,-558.5 638,-558.5"/>
<text text-anchor="start" x="646" y="-576.5" font-family="Helvetica,sans-Serif" font-size="10.00">tracktion_engine::LowPass</text>
<text text-anchor="middle" x="711" y="-565.5" font-family="Helvetica,sans-Serif" font-size="10.00">Plugin</text>
</a>
</g>
</g>
<!-- Node11&#45;&gt;Node26 -->
<g id="edge25" class="edge">
<title>Node11&#45;&gt;Node26</title>
<path fill="none" stroke="midnightblue" d="M562.86,-663.83C571.41,-661.05 579.67,-657.36 587,-652.5 611.04,-636.57 599.72,-615.52 623,-598.5 628.33,-594.6 634.25,-591.31 640.43,-588.54"/>
<polygon fill="midnightblue" stroke="midnightblue" points="561.77,-660.51 553.11,-666.62 563.69,-667.24 561.77,-660.51"/>
</g>
<!-- Node27 -->
<g id="node27" class="node">
<title>Node27</title>
<g id="a_node27"><a xlink:href="classtracktion__engine_1_1MidiModifierPlugin.html" target="_top" xlink:title=" ">
<polygon fill="none" stroke="black" points="628.5,-509.5 628.5,-539.5 793.5,-539.5 793.5,-509.5 628.5,-509.5"/>
<text text-anchor="start" x="636.5" y="-527.5" font-family="Helvetica,sans-Serif" font-size="10.00">tracktion_engine::MidiModifier</text>
<text text-anchor="middle" x="711" y="-516.5" font-family="Helvetica,sans-Serif" font-size="10.00">Plugin</text>
</a>
</g>
</g>
<!-- Node11&#45;&gt;Node27 -->
<g id="edge26" class="edge">
<title>Node11&#45;&gt;Node27</title>
<path fill="none" stroke="midnightblue" d="M562.78,-666.05C571.62,-662.93 579.97,-658.56 587,-652.5 623.74,-620.85 587.76,-582.81 623,-549.5 627.11,-545.61 631.79,-542.33 636.79,-539.55"/>
<polygon fill="midnightblue" stroke="midnightblue" points="561.61,-662.75 553.04,-668.97 563.62,-669.45 561.61,-662.75"/>
</g>
<!-- Node28 -->
<g id="node28" class="node">
<title>Node28</title>
<g id="a_node28"><a xlink:href="classtracktion__engine_1_1MidiPatchBayPlugin.html" target="_top" xlink:title=" ">
<polygon fill="none" stroke="black" points="635,-460.5 635,-490.5 787,-490.5 787,-460.5 635,-460.5"/>
<text text-anchor="start" x="643" y="-478.5" font-family="Helvetica,sans-Serif" font-size="10.00">tracktion_engine::MidiPatch</text>
<text text-anchor="middle" x="711" y="-467.5" font-family="Helvetica,sans-Serif" font-size="10.00">BayPlugin</text>
</a>
</g>
</g>
<!-- Node11&#45;&gt;Node28 -->
<g id="edge27" class="edge">
<title>Node11&#45;&gt;Node28</title>
<path fill="none" stroke="midnightblue" d="M563.03,-666.86C571.9,-663.62 580.2,-659 587,-652.5 637.18,-604.52 575.08,-550.74 623,-500.5 626.69,-496.63 630.93,-493.35 635.52,-490.57"/>
<polygon fill="midnightblue" stroke="midnightblue" points="561.75,-663.59 553.21,-669.86 563.79,-670.29 561.75,-663.59"/>
</g>
<!-- Node29 -->
<g id="node29" class="node">
<title>Node29</title>
<g id="a_node29"><a xlink:href="classtracktion__engine_1_1PatchBayPlugin.html" target="_top" xlink:title=" ">
<polygon fill="none" stroke="black" points="636.5,-411.5 636.5,-441.5 785.5,-441.5 785.5,-411.5 636.5,-411.5"/>
<text text-anchor="start" x="644.5" y="-429.5" font-family="Helvetica,sans-Serif" font-size="10.00">tracktion_engine::PatchBay</text>
<text text-anchor="middle" x="711" y="-418.5" font-family="Helvetica,sans-Serif" font-size="10.00">Plugin</text>
</a>
</g>
</g>
<!-- Node11&#45;&gt;Node29 -->
<g id="edge28" class="edge">
<title>Node11&#45;&gt;Node29</title>
<path fill="none" stroke="midnightblue" d="M562.72,-667.45C571.79,-664.15 580.22,-659.35 587,-652.5 650.83,-587.99 562.2,-518.88 623,-451.5 626.9,-447.18 631.48,-443.59 636.48,-440.61"/>
<polygon fill="midnightblue" stroke="midnightblue" points="561.63,-664.12 553.07,-670.38 563.66,-670.82 561.63,-664.12"/>
</g>
<!-- Node30 -->
<g id="node30" class="node">
<title>Node30</title>
<g id="a_node30"><a xlink:href="classtracktion__engine_1_1PhaserPlugin.html" target="_top" xlink:title=" ">
<polygon fill="none" stroke="black" points="642.5,-362.5 642.5,-392.5 779.5,-392.5 779.5,-362.5 642.5,-362.5"/>
<text text-anchor="start" x="650.5" y="-380.5" font-family="Helvetica,sans-Serif" font-size="10.00">tracktion_engine::Phaser</text>
<text text-anchor="middle" x="711" y="-369.5" font-family="Helvetica,sans-Serif" font-size="10.00">Plugin</text>
</a>
</g>
</g>
<!-- Node11&#45;&gt;Node30 -->
<g id="edge29" class="edge">
<title>Node11&#45;&gt;Node30</title>
<path fill="none" stroke="midnightblue" d="M562.75,-667.73C571.86,-664.39 580.29,-659.51 587,-652.5 664.58,-571.37 549.23,-487.12 623,-402.5 628.27,-396.46 634.89,-391.83 642.11,-388.3"/>
<polygon fill="midnightblue" stroke="midnightblue" points="561.61,-664.42 553.06,-670.68 563.65,-671.12 561.61,-664.42"/>
</g>
<!-- Node31 -->
<g id="node31" class="node">
<title>Node31</title>
<g id="a_node31"><a xlink:href="classtracktion__engine_1_1PitchShiftPlugin.html" target="_top" xlink:title=" ">
<polygon fill="none" stroke="black" points="636,-313.5 636,-343.5 786,-343.5 786,-313.5 636,-313.5"/>
<text text-anchor="start" x="644" y="-331.5" font-family="Helvetica,sans-Serif" font-size="10.00">tracktion_engine::PitchShift</text>
<text text-anchor="middle" x="711" y="-320.5" font-family="Helvetica,sans-Serif" font-size="10.00">Plugin</text>
</a>
</g>
</g>
<!-- Node11&#45;&gt;Node31 -->
<g id="edge30" class="edge">
<title>Node11&#45;&gt;Node31</title>
<path fill="none" stroke="midnightblue" d="M562.9,-667.87C571.99,-664.52 580.37,-659.59 587,-652.5 678.38,-554.69 536.22,-455.41 623,-353.5 626.67,-349.19 631.02,-345.6 635.8,-342.61"/>
<polygon fill="midnightblue" stroke="midnightblue" points="561.77,-664.56 553.23,-670.83 563.81,-671.26 561.77,-664.56"/>
</g>
<!-- Node32 -->
<g id="node32" class="node">
<title>Node32</title>
<g id="a_node32"><a xlink:href="classtracktion__engine_1_1RackInstance.html" target="_top" xlink:title=" ">
<polygon fill="none" stroke="black" points="626,-275 626,-294 796,-294 796,-275 626,-275"/>
<text text-anchor="middle" x="711" y="-282" font-family="Helvetica,sans-Serif" font-size="10.00">tracktion_engine::RackInstance</text>
</a>
</g>
</g>
<!-- Node11&#45;&gt;Node32 -->
<g id="edge31" class="edge">
<title>Node11&#45;&gt;Node32</title>
<path fill="none" stroke="midnightblue" d="M562.83,-668.05C571.97,-664.67 580.39,-659.7 587,-652.5 692.48,-537.65 519.1,-419.77 623,-303.5 626.3,-299.81 630.13,-296.75 634.31,-294.21"/>
<polygon fill="midnightblue" stroke="midnightblue" points="561.64,-664.75 553.09,-671.01 563.68,-671.45 561.64,-664.75"/>
</g>
<!-- Node33 -->
<g id="node33" class="node">
<title>Node33</title>
<g id="a_node33"><a xlink:href="classtracktion__engine_1_1ReverbPlugin.html" target="_top" xlink:title=" ">
<polygon fill="none" stroke="black" points="641.5,-225.5 641.5,-255.5 780.5,-255.5 780.5,-225.5 641.5,-225.5"/>
<text text-anchor="start" x="649.5" y="-243.5" font-family="Helvetica,sans-Serif" font-size="10.00">tracktion_engine::Reverb</text>
<text text-anchor="middle" x="711" y="-232.5" font-family="Helvetica,sans-Serif" font-size="10.00">Plugin</text>
</a>
</g>
</g>
<!-- Node11&#45;&gt;Node33 -->
<g id="edge32" class="edge">
<title>Node11&#45;&gt;Node33</title>
<path fill="none" stroke="midnightblue" d="M562.9,-668.11C572.03,-664.72 580.43,-659.73 587,-652.5 645.1,-588.6 567.9,-332.01 623,-265.5 628.01,-259.45 634.39,-254.81 641.4,-251.26"/>
<polygon fill="midnightblue" stroke="midnightblue" points="561.71,-664.81 553.17,-671.08 563.75,-671.51 561.71,-664.81"/>
</g>
<!-- Node34 -->
<g id="node34" class="node">
<title>Node34</title>
<g id="a_node34"><a xlink:href="classtracktion__engine_1_1SamplerPlugin.html" target="_top" xlink:title=" ">
<polygon fill="none" stroke="black" points="638.5,-176.5 638.5,-206.5 783.5,-206.5 783.5,-176.5 638.5,-176.5"/>
<text text-anchor="start" x="646.5" y="-194.5" font-family="Helvetica,sans-Serif" font-size="10.00">tracktion_engine::Sampler</text>
<text text-anchor="middle" x="711" y="-183.5" font-family="Helvetica,sans-Serif" font-size="10.00">Plugin</text>
</a>
</g>
</g>
<!-- Node11&#45;&gt;Node34 -->
<g id="edge33" class="edge">
<title>Node11&#45;&gt;Node34</title>
<path fill="none" stroke="midnightblue" d="M562.97,-668.17C572.09,-664.78 580.46,-659.76 587,-652.5 652.17,-580.06 560.83,-290.53 623,-215.5 627.3,-210.31 632.61,-206.19 638.47,-202.92"/>
<polygon fill="midnightblue" stroke="midnightblue" points="561.78,-664.87 553.24,-671.15 563.83,-671.57 561.78,-664.87"/>
</g>
<!-- Node35 -->
<g id="node35" class="node">
<title>Node35</title>
<g id="a_node35"><a xlink:href="classtracktion__engine_1_1TextPlugin.html" target="_top" xlink:title=" ">
<polygon fill="none" stroke="black" points="633.5,-138 633.5,-157 788.5,-157 788.5,-138 633.5,-138"/>
<text text-anchor="middle" x="711" y="-145" font-family="Helvetica,sans-Serif" font-size="10.00">tracktion_engine::TextPlugin</text>
</a>
</g>
</g>
<!-- Node11&#45;&gt;Node35 -->
<g id="edge34" class="edge">
<title>Node11&#45;&gt;Node35</title>
<path fill="none" stroke="midnightblue" d="M562.84,-668.29C572.02,-664.89 580.45,-659.84 587,-652.5 659.1,-571.69 552.01,-248.28 623,-166.5 626.24,-162.76 630.03,-159.66 634.19,-157.1"/>
<polygon fill="midnightblue" stroke="midnightblue" points="561.6,-665.01 553.05,-671.27 563.63,-671.71 561.6,-665.01"/>
</g>
<!-- Node36 -->
<g id="node36" class="node">
<title>Node36</title>
<g id="a_node36"><a xlink:href="classtracktion__engine_1_1ToneGeneratorPlugin.html" target="_top" xlink:title=" ">
<polygon fill="none" stroke="black" points="623,-88.5 623,-118.5 799,-118.5 799,-88.5 623,-88.5"/>
<text text-anchor="start" x="631" y="-106.5" font-family="Helvetica,sans-Serif" font-size="10.00">tracktion_engine::ToneGenerator</text>
<text text-anchor="middle" x="711" y="-95.5" font-family="Helvetica,sans-Serif" font-size="10.00">Plugin</text>
</a>
</g>
</g>
<!-- Node11&#45;&gt;Node36 -->
<g id="edge35" class="edge">
<title>Node11&#45;&gt;Node36</title>
<path fill="none" stroke="midnightblue" d="M562.88,-668.32C572.05,-664.91 580.47,-659.86 587,-652.5 664.47,-565.2 549.63,-219.27 623,-128.5 626.06,-124.71 629.66,-121.47 633.62,-118.71"/>
<polygon fill="midnightblue" stroke="midnightblue" points="561.63,-665.04 553.09,-671.3 563.67,-671.74 561.63,-665.04"/>
</g>
<!-- Node37 -->
<g id="node37" class="node">
<title>Node37</title>
<g id="a_node37"><a xlink:href="classtracktion__engine_1_1VCAPlugin.html" target="_top" xlink:title="The VCA plugin sits on a folder track to control the overall level of all the volume/pan plugins in i...">
<polygon fill="none" stroke="black" points="633.5,-50 633.5,-69 788.5,-69 788.5,-50 633.5,-50"/>
<text text-anchor="middle" x="711" y="-57" font-family="Helvetica,sans-Serif" font-size="10.00">tracktion_engine::VCAPlugin</text>
</a>
</g>
</g>
<!-- Node11&#45;&gt;Node37 -->
<g id="edge36" class="edge">
<title>Node11&#45;&gt;Node37</title>
<path fill="none" stroke="midnightblue" d="M562.92,-668.36C572.09,-664.94 580.49,-659.88 587,-652.5 671.55,-556.65 539.77,-175.49 623,-78.5 626.22,-74.75 630,-71.63 634.14,-69.06"/>
<polygon fill="midnightblue" stroke="midnightblue" points="561.67,-665.08 553.13,-671.34 563.72,-671.77 561.67,-665.08"/>
</g>
<!-- Node38 -->
<g id="node38" class="node">
<title>Node38</title>
<g id="a_node38"><a xlink:href="classtracktion__engine_1_1VolumeAndPanPlugin.html" target="_top" xlink:title="The built&#45;in Tracktion volume/pan plugin.">
<polygon fill="none" stroke="black" points="640.5,-0.5 640.5,-30.5 781.5,-30.5 781.5,-0.5 640.5,-0.5"/>
<text text-anchor="start" x="648.5" y="-18.5" font-family="Helvetica,sans-Serif" font-size="10.00">tracktion_engine::Volume</text>
<text text-anchor="middle" x="711" y="-7.5" font-family="Helvetica,sans-Serif" font-size="10.00">AndPanPlugin</text>
</a>
</g>
</g>
<!-- Node11&#45;&gt;Node38 -->
<g id="edge37" class="edge">
<title>Node11&#45;&gt;Node38</title>
<path fill="none" stroke="midnightblue" d="M562.94,-668.38C572.11,-664.96 580.51,-659.89 587,-652.5 676.92,-550.16 537.88,-146.87 623,-40.5 627.71,-34.61 633.72,-30.05 640.36,-26.53"/>
<polygon fill="midnightblue" stroke="midnightblue" points="561.7,-665.1 553.16,-671.37 563.75,-671.79 561.7,-665.1"/>
</g>
<!-- Node40 -->
<g id="node40" class="node">
<title>Node40</title>
<g id="a_node40"><a xlink:href="classtracktion__engine_1_1AutomationTrack.html" target="_top" xlink:title=" ">
<polygon fill="none" stroke="black" points="405.5,-612.5 405.5,-642.5 566.5,-642.5 566.5,-612.5 405.5,-612.5"/>
<text text-anchor="start" x="413.5" y="-630.5" font-family="Helvetica,sans-Serif" font-size="10.00">tracktion_engine::Automation</text>
<text text-anchor="middle" x="486" y="-619.5" font-family="Helvetica,sans-Serif" font-size="10.00">Track</text>
</a>
</g>
</g>
<!-- Node39&#45;&gt;Node40 -->
<g id="edge39" class="edge">
<title>Node39&#45;&gt;Node40</title>
<path fill="none" stroke="midnightblue" d="M290.49,-554.51C313.87,-568.57 350.78,-589.35 385,-602.5 394.69,-606.22 405.12,-609.54 415.46,-612.45"/>
<polygon fill="midnightblue" stroke="midnightblue" points="292.01,-551.33 281.65,-549.11 288.36,-557.3 292.01,-551.33"/>
</g>
<!-- Node41 -->
<g id="node41" class="node">
<title>Node41</title>
<g id="a_node41"><a xlink:href="classtracktion__engine_1_1ClipTrack.html" target="_top" xlink:title=" ">
<polygon fill="none" stroke="red" points="411.5,-574 411.5,-593 560.5,-593 560.5,-574 411.5,-574"/>
<text text-anchor="middle" x="486" y="-581" font-family="Helvetica,sans-Serif" font-size="10.00">tracktion_engine::ClipTrack</text>
</a>
</g>
</g>
<!-- Node39&#45;&gt;Node41 -->
<g id="edge40" class="edge">
<title>Node39&#45;&gt;Node41</title>
<path fill="none" stroke="midnightblue" d="M320.59,-551.15C340.79,-555.44 363.92,-560.28 385,-564.5 400.85,-567.68 418.15,-571.01 433.83,-573.98"/>
<polygon fill="midnightblue" stroke="midnightblue" points="321.14,-547.69 310.63,-549.03 319.68,-554.54 321.14,-547.69"/>
</g>
<!-- Node46 -->
<g id="node42" class="node">
<title>Node46</title>
<g id="a_node42"><a xlink:href="classtracktion__engine_1_1FolderTrack.html" target="_top" xlink:title=" ">
<polygon fill="none" stroke="black" points="419,-524.5 419,-554.5 553,-554.5 553,-524.5 419,-524.5"/>
<text text-anchor="start" x="427" y="-542.5" font-family="Helvetica,sans-Serif" font-size="10.00">tracktion_engine::Folder</text>
<text text-anchor="middle" x="486" y="-531.5" font-family="Helvetica,sans-Serif" font-size="10.00">Track</text>
</a>
</g>
</g>
<!-- Node39&#45;&gt;Node46 -->
<g id="edge41" class="edge">
<title>Node39&#45;&gt;Node46</title>
<path fill="none" stroke="midnightblue" d="M340.84,-539.5C366.07,-539.5 394.08,-539.5 418.64,-539.5"/>
<polygon fill="midnightblue" stroke="midnightblue" points="340.58,-536 330.58,-539.5 340.58,-543 340.58,-536"/>
</g>
<!-- Node47 -->
<g id="node43" class="node">
<title>Node47</title>
<g id="a_node43"><a xlink:href="classtracktion__engine_1_1MasterTrack.html" target="_top" xlink:title="A track to represent the master plugins.">
<polygon fill="none" stroke="black" points="417,-475.5 417,-505.5 555,-505.5 555,-475.5 417,-475.5"/>
<text text-anchor="start" x="425" y="-493.5" font-family="Helvetica,sans-Serif" font-size="10.00">tracktion_engine::Master</text>
<text text-anchor="middle" x="486" y="-482.5" font-family="Helvetica,sans-Serif" font-size="10.00">Track</text>
</a>
</g>
</g>
<!-- Node39&#45;&gt;Node47 -->
<g id="edge42" class="edge">
<title>Node39&#45;&gt;Node47</title>
<path fill="none" stroke="midnightblue" d="M319.03,-527.72C348.68,-521.07 386.03,-512.69 417.79,-505.57"/>
<polygon fill="midnightblue" stroke="midnightblue" points="317.88,-524.39 308.89,-529.99 319.41,-531.22 317.88,-524.39"/>
</g>
<!-- Node48 -->
<g id="node44" class="node">
<title>Node48</title>
<g id="a_node44"><a xlink:href="classtracktion__engine_1_1TempoTrack.html" target="_top" xlink:title="A track to represent the &quot;global&quot; items such as tempo, key changes etc.">
<polygon fill="none" stroke="black" points="405,-437 405,-456 567,-456 567,-437 405,-437"/>
<text text-anchor="middle" x="486" y="-444" font-family="Helvetica,sans-Serif" font-size="10.00">tracktion_engine::TempoTrack</text>
</a>
</g>
</g>
<!-- Node39&#45;&gt;Node48 -->
<g id="edge43" class="edge">
<title>Node39&#45;&gt;Node48</title>
<path fill="none" stroke="midnightblue" d="M287.04,-523.67C309.77,-506.95 348.08,-481.02 385,-466.5 396.04,-462.16 408.15,-458.72 420.01,-456.01"/>
<polygon fill="midnightblue" stroke="midnightblue" points="284.76,-521.01 278.85,-529.8 288.96,-526.61 284.76,-521.01"/>
</g>
<!-- Node50 -->
<g id="node46" class="node">
<title>Node50</title>
<g id="a_node46"><a xlink:href="classtracktion__engine_1_1Clip.html" target="_top" xlink:title="A clip in an edit.">
<polygon fill="none" stroke="red" points="424.5,-399 424.5,-418 547.5,-418 547.5,-399 424.5,-399"/>
<text text-anchor="middle" x="486" y="-406" font-family="Helvetica,sans-Serif" font-size="10.00">tracktion_engine::Clip</text>
</a>
</g>
</g>
<!-- Node49&#45;&gt;Node50 -->
<g id="edge45" class="edge">
<title>Node49&#45;&gt;Node50</title>
<path fill="none" stroke="midnightblue" d="M331.34,-381.78C362.77,-387.24 400.12,-393.74 430.12,-398.96"/>
<polygon fill="midnightblue" stroke="midnightblue" points="331.81,-378.31 321.35,-380.04 330.61,-385.2 331.81,-378.31"/>
</g>
<!-- Node59 -->
<g id="node47" class="node">
<title>Node59</title>
<g id="a_node47"><a xlink:href="classtracktion__engine_1_1CollectionClip.html" target="_top" xlink:title=" ">
<polygon fill="none" stroke="black" points="400,-361 400,-380 572,-380 572,-361 400,-361"/>
<text text-anchor="middle" x="486" y="-368" font-family="Helvetica,sans-Serif" font-size="10.00">tracktion_engine::CollectionClip</text>
</a>
</g>
</g>
<!-- Node49&#45;&gt;Node59 -->
<g id="edge46" class="edge">
<title>Node49&#45;&gt;Node59</title>
<path fill="none" stroke="midnightblue" d="M351.94,-370.5C367.7,-370.5 384.16,-370.5 399.92,-370.5"/>
<polygon fill="midnightblue" stroke="midnightblue" points="351.7,-367 341.7,-370.5 351.7,-374 351.7,-367"/>
</g>
<!-- Node60 -->
<g id="node48" class="node">
<title>Node60</title>
<g id="a_node48"><a xlink:href="classtracktion__engine_1_1PitchSetting.html" target="_top" xlink:title=" ">
<polygon fill="none" stroke="black" points="404.5,-323 404.5,-342 567.5,-342 567.5,-323 404.5,-323"/>
<text text-anchor="middle" x="486" y="-330" font-family="Helvetica,sans-Serif" font-size="10.00">tracktion_engine::PitchSetting</text>
</a>
</g>
</g>
<!-- Node49&#45;&gt;Node60 -->
<g id="edge47" class="edge">
<title>Node49&#45;&gt;Node60</title>
<path fill="none" stroke="midnightblue" d="M331.34,-359.22C362.77,-353.76 400.12,-347.26 430.12,-342.04"/>
<polygon fill="midnightblue" stroke="midnightblue" points="330.61,-355.8 321.35,-360.96 331.81,-362.69 330.61,-355.8"/>
</g>
<!-- Node61 -->
<g id="node49" class="node">
<title>Node61</title>
<g id="a_node49"><a xlink:href="classtracktion__engine_1_1TimeSigSetting.html" target="_top" xlink:title=" ">
<polygon fill="none" stroke="black" points="414,-273.5 414,-303.5 558,-303.5 558,-273.5 414,-273.5"/>
<text text-anchor="start" x="422" y="-291.5" font-family="Helvetica,sans-Serif" font-size="10.00">tracktion_engine::TimeSig</text>
<text text-anchor="middle" x="486" y="-280.5" font-family="Helvetica,sans-Serif" font-size="10.00">Setting</text>
</a>
</g>
</g>
<!-- Node49&#45;&gt;Node61 -->
<g id="edge48" class="edge">
<title>Node49&#45;&gt;Node61</title>
<path fill="none" stroke="midnightblue" d="M292.69,-355.99C316.27,-343.39 352.16,-325.36 385,-313.5 395.18,-309.82 406.14,-306.49 416.93,-303.54"/>
<polygon fill="midnightblue" stroke="midnightblue" points="290.82,-353.02 283.69,-360.86 294.15,-359.18 290.82,-353.02"/>
</g>
</g>
</svg>
