<?xml version="1.0" encoding="UTF-8" standalone="no"?>
<!DOCTYPE svg PUBLIC "-//W3C//DTD SVG 1.1//EN"
 "http://www.w3.org/Graphics/SVG/1.1/DTD/svg11.dtd">
<!-- Generated by graphviz version 2.43.0 (0)
 -->
<!-- Title: tracktion::engine::HostedMidiInputDeviceNode Pages: 1 -->
<svg width="325pt" height="135pt"
 viewBox="0.00 0.00 325.00 134.50" xmlns="http://www.w3.org/2000/svg" xmlns:xlink="http://www.w3.org/1999/xlink">
<g id="graph0" class="graph" transform="scale(1 1) rotate(0) translate(4 130.5)">
<title>tracktion::engine::HostedMidiInputDeviceNode</title>
<!-- Node1 -->
<g id="Node000001" class="node">
<title>Node1</title>
<g id="a_Node000001"><a xlink:title="A Node that intercepts MIDI from a plugin callback and inserts it in to the playback graph.">
<polygon fill="#999999" stroke="#666666" points="317,-84 161,-84 161,-54 317,-54 317,-84"/>
<text text-anchor="start" x="169" y="-72" font-family="Helvetica,sans-Serif" font-size="10.00">tracktion::engine::</text>
<text text-anchor="middle" x="239" y="-61" font-family="Helvetica,sans-Serif" font-size="10.00">HostedMidiInputDeviceNode</text>
</a>
</g>
</g>
<!-- Node2 -->
<g id="Node000002" class="node">
<title>Node2</title>
<g id="a_Node000002"><a xlink:href="classtracktion_1_1graph_1_1Node.html" target="_top" xlink:title="Main graph Node processor class.">
<polygon fill="white" stroke="#666666" points="125,-126.5 0,-126.5 0,-107.5 125,-107.5 125,-126.5"/>
<text text-anchor="middle" x="62.5" y="-114.5" font-family="Helvetica,sans-Serif" font-size="10.00">tracktion::graph::Node</text>
</a>
</g>
</g>
<!-- Node2&#45;&gt;Node1 -->
<g id="edge1_Node000001_Node000002" class="edge">
<title>Node2&#45;&gt;Node1</title>
<g id="a_edge1_Node000001_Node000002"><a xlink:title=" ">
<path fill="none" stroke="#63b8ff" d="M108.18,-104.71C131.04,-98.42 159.08,-90.71 183.24,-84.06"/>
<polygon fill="#63b8ff" stroke="#63b8ff" points="107.11,-101.37 98.39,-107.4 108.96,-108.12 107.11,-101.37"/>
</a>
</g>
</g>
<!-- Node3 -->
<g id="Node000003" class="node">
<title>Node3</title>
<g id="a_Node000003"><a xlink:href="structtracktion_1_1engine_1_1InputDeviceInstance_1_1Consumer.html" target="_top" xlink:title="Base class for classes that want to listen to an InputDevice and get a callback for each block of inp...">
<polygon fill="white" stroke="#666666" points="120.5,-89.5 4.5,-89.5 4.5,-48.5 120.5,-48.5 120.5,-89.5"/>
<text text-anchor="start" x="12.5" y="-77.5" font-family="Helvetica,sans-Serif" font-size="10.00">tracktion::engine::</text>
<text text-anchor="start" x="12.5" y="-66.5" font-family="Helvetica,sans-Serif" font-size="10.00">InputDeviceInstance</text>
<text text-anchor="middle" x="62.5" y="-55.5" font-family="Helvetica,sans-Serif" font-size="10.00">::Consumer</text>
</a>
</g>
</g>
<!-- Node3&#45;&gt;Node1 -->
<g id="edge2_Node000001_Node000003" class="edge">
<title>Node3&#45;&gt;Node1</title>
<g id="a_edge2_Node000001_Node000003"><a xlink:title=" ">
<path fill="none" stroke="#63b8ff" d="M130.73,-69C140.56,-69 150.75,-69 160.76,-69"/>
<polygon fill="#63b8ff" stroke="#63b8ff" points="130.64,-65.5 120.64,-69 130.64,-72.5 130.64,-65.5"/>
</a>
</g>
</g>
<!-- Node4 -->
<g id="Node000004" class="node">
<title>Node4</title>
<g id="a_Node000004"><a xlink:href="classtracktion_1_1engine_1_1TracktionEngineNode.html" target="_top" xlink:title="Base class for Nodes that provides information about the current process call.">
<polygon fill="white" stroke="#666666" points="122,-30 3,-30 3,0 122,0 122,-30"/>
<text text-anchor="start" x="11" y="-18" font-family="Helvetica,sans-Serif" font-size="10.00">tracktion::engine::</text>
<text text-anchor="middle" x="62.5" y="-7" font-family="Helvetica,sans-Serif" font-size="10.00">TracktionEngineNode</text>
</a>
</g>
</g>
<!-- Node4&#45;&gt;Node1 -->
<g id="edge3_Node000001_Node000004" class="edge">
<title>Node4&#45;&gt;Node1</title>
<g id="a_edge3_Node000001_Node000004"><a xlink:title=" ">
<path fill="none" stroke="#8b1a1a" d="M121.95,-33.09C143.84,-39.86 168.44,-47.48 189.35,-53.95"/>
<polygon fill="#8b1a1a" stroke="#8b1a1a" points="122.7,-29.65 112.11,-30.04 120.63,-36.34 122.7,-29.65"/>
</a>
</g>
</g>
</g>
</svg>
