<?xml version="1.0" encoding="UTF-8" standalone="no"?>
<!DOCTYPE svg PUBLIC "-//W3C//DTD SVG 1.1//EN"
 "http://www.w3.org/Graphics/SVG/1.1/DTD/svg11.dtd">
<!-- Generated by graphviz version 2.40.1 (20161225.0304)
 -->
<!-- Title: tracktion_engine::SingleInputAudioNode Pages: 1 -->
<svg width="512pt" height="607pt"
 viewBox="0.00 0.00 512.00 607.00" xmlns="http://www.w3.org/2000/svg" xmlns:xlink="http://www.w3.org/1999/xlink">
<g id="graph0" class="graph" transform="scale(1 1) rotate(0) translate(4 603)">
<title>tracktion_engine::SingleInputAudioNode</title>
<!-- Node0 -->
<g id="node1" class="node">
<title>Node0</title>
<polygon fill="#bfbfbf" stroke="#000000" points="178,-294.5 178,-324.5 299,-324.5 299,-294.5 178,-294.5"/>
<text text-anchor="start" x="186" y="-312.5" font-family="Helvetica,sans-Serif" font-size="10.00" fill="#000000">tracktion_engine::Single</text>
<text text-anchor="middle" x="238.5" y="-301.5" font-family="Helvetica,sans-Serif" font-size="10.00" fill="#000000">InputAudioNode</text>
</g>
<!-- Node2 -->
<g id="node3" class="node">
<title>Node2</title>
<g id="a_node3"><a xlink:href="classtracktion__engine_1_1BufferingAudioNode.html" target="_top" xlink:title="AudioNode that buffers its input at a larger buffer size than the calling AudioNode to reduce the amm...">
<polygon fill="none" stroke="#000000" points="353,-568.5 353,-598.5 486,-598.5 486,-568.5 353,-568.5"/>
<text text-anchor="start" x="361" y="-586.5" font-family="Helvetica,sans-Serif" font-size="10.00" fill="#000000">tracktion_engine::Buffering</text>
<text text-anchor="middle" x="419.5" y="-575.5" font-family="Helvetica,sans-Serif" font-size="10.00" fill="#000000">AudioNode</text>
</a>
</g>
</g>
<!-- Node0&#45;&gt;Node2 -->
<g id="edge2" class="edge">
<title>Node0&#45;&gt;Node2</title>
<path fill="none" stroke="#191970" d="M240.9823,-334.6051C247.2811,-384.6307 268.4435,-497.1937 335,-558.5 340.1762,-563.2679 346.2205,-567.1295 352.6537,-570.2565"/>
<polygon fill="#191970" stroke="#191970" points="244.4562,-334.1766 239.8238,-324.6482 237.5031,-334.9857 244.4562,-334.1766"/>
</g>
<!-- Node3 -->
<g id="node4" class="node">
<title>Node3</title>
<g id="a_node4"><a xlink:href="classtracktion__engine_1_1ClickMutingNode.html" target="_top" xlink:title="An AudioNode mutes an input click audio node within a given range or if disabled in the Edit...">
<polygon fill="none" stroke="#000000" points="335,-530 335,-549 504,-549 504,-530 335,-530"/>
<text text-anchor="middle" x="419.5" y="-537" font-family="Helvetica,sans-Serif" font-size="10.00" fill="#000000">tracktion_engine::ClickMutingNode</text>
</a>
</g>
</g>
<!-- Node0&#45;&gt;Node3 -->
<g id="edge3" class="edge">
<title>Node0&#45;&gt;Node3</title>
<path fill="none" stroke="#191970" d="M242.5411,-334.511C251.1168,-379.11 275.4653,-472.2075 335,-520.5 339.671,-524.289 344.9454,-527.3578 350.5204,-529.8389"/>
<polygon fill="#191970" stroke="#191970" points="245.9578,-333.7362 240.7306,-324.5206 239.0699,-334.9844 245.9578,-333.7362"/>
</g>
<!-- Node4 -->
<g id="node5" class="node">
<title>Node4</title>
<g id="a_node5"><a xlink:href="classtracktion__engine_1_1FadeInOutAudioNode.html" target="_top" xlink:title="An AudioNode that fades its input node in/out at given times. ">
<polygon fill="none" stroke="#000000" points="357.5,-480.5 357.5,-510.5 481.5,-510.5 481.5,-480.5 357.5,-480.5"/>
<text text-anchor="start" x="365.5" y="-498.5" font-family="Helvetica,sans-Serif" font-size="10.00" fill="#000000">tracktion_engine::FadeIn</text>
<text text-anchor="middle" x="419.5" y="-487.5" font-family="Helvetica,sans-Serif" font-size="10.00" fill="#000000">OutAudioNode</text>
</a>
</g>
</g>
<!-- Node0&#45;&gt;Node4 -->
<g id="edge4" class="edge">
<title>Node0&#45;&gt;Node4</title>
<path fill="none" stroke="#191970" d="M246.5652,-334.2378C259.481,-369.9391 288.2193,-435.5556 335,-471.5 341.6511,-476.6104 349.3446,-480.6328 357.3257,-483.7987"/>
<polygon fill="#191970" stroke="#191970" points="249.8003,-332.8854 243.2007,-324.5971 243.1912,-335.192 249.8003,-332.8854"/>
</g>
<!-- Node5 -->
<g id="node6" class="node">
<title>Node5</title>
<g id="a_node6"><a xlink:href="classtracktion__engine_1_1HissingAudioNode.html" target="_top" xlink:title="An AudioNode that adds the &#39;unregistered&#39; hiss noise to the output. ">
<polygon fill="none" stroke="#000000" points="356,-431.5 356,-461.5 483,-461.5 483,-431.5 356,-431.5"/>
<text text-anchor="start" x="364" y="-449.5" font-family="Helvetica,sans-Serif" font-size="10.00" fill="#000000">tracktion_engine::Hissing</text>
<text text-anchor="middle" x="419.5" y="-438.5" font-family="Helvetica,sans-Serif" font-size="10.00" fill="#000000">AudioNode</text>
</a>
</g>
</g>
<!-- Node0&#45;&gt;Node5 -->
<g id="edge5" class="edge">
<title>Node0&#45;&gt;Node5</title>
<path fill="none" stroke="#191970" d="M252.9009,-333.5816C269.5243,-359.332 299.2221,-399.549 335,-422.5 341.4182,-426.6171 348.5526,-430.0416 355.8788,-432.8868"/>
<polygon fill="#191970" stroke="#191970" points="255.6687,-331.4082 247.3809,-324.8079 249.7437,-335.1359 255.6687,-331.4082"/>
</g>
<!-- Node6 -->
<g id="node7" class="node">
<title>Node6</title>
<g id="a_node7"><a xlink:href="classtracktion__engine_1_1LevelMeasuringAudioNode.html" target="_top" xlink:title="Applies a SharedLevelMeter to the audio passing through this node. ">
<polygon fill="none" stroke="#000000" points="338.5,-382.5 338.5,-412.5 500.5,-412.5 500.5,-382.5 338.5,-382.5"/>
<text text-anchor="start" x="346.5" y="-400.5" font-family="Helvetica,sans-Serif" font-size="10.00" fill="#000000">tracktion_engine::LevelMeasuring</text>
<text text-anchor="middle" x="419.5" y="-389.5" font-family="Helvetica,sans-Serif" font-size="10.00" fill="#000000">AudioNode</text>
</a>
</g>
</g>
<!-- Node0&#45;&gt;Node6 -->
<g id="edge6" class="edge">
<title>Node0&#45;&gt;Node6</title>
<path fill="none" stroke="#191970" d="M266.1429,-330.6628C284.7854,-344.1322 310.3853,-361.1213 335,-372.5 343.0543,-376.2233 351.7964,-379.5427 360.5013,-382.4502"/>
<polygon fill="#191970" stroke="#191970" points="267.9721,-327.6637 257.8407,-324.5645 263.8281,-333.3053 267.9721,-327.6637"/>
</g>
<!-- Node7 -->
<g id="node8" class="node">
<title>Node7</title>
<g id="a_node8"><a xlink:href="structtracktion__engine_1_1MuteAudioNode.html" target="_top" xlink:title="tracktion_engine::MuteAudioNode">
<polygon fill="none" stroke="#000000" points="337.5,-344 337.5,-363 501.5,-363 501.5,-344 337.5,-344"/>
<text text-anchor="middle" x="419.5" y="-351" font-family="Helvetica,sans-Serif" font-size="10.00" fill="#000000">tracktion_engine::MuteAudioNode</text>
</a>
</g>
</g>
<!-- Node0&#45;&gt;Node7 -->
<g id="edge7" class="edge">
<title>Node0&#45;&gt;Node7</title>
<path fill="none" stroke="#191970" d="M305.2012,-327.0794C315.1763,-329.6215 325.3487,-332.1654 335,-334.5 348.1534,-337.6817 362.5022,-340.9746 375.5802,-343.9073"/>
<polygon fill="#191970" stroke="#191970" points="305.8744,-323.6389 295.3184,-324.5458 304.1359,-330.4196 305.8744,-323.6389"/>
</g>
<!-- Node8 -->
<g id="node9" class="node">
<title>Node8</title>
<g id="a_node9"><a xlink:href="classtracktion__engine_1_1PlayHeadAudioNode.html" target="_top" xlink:title="An AudioNode that synchronises its input node with the playback position. ">
<polygon fill="none" stroke="#000000" points="351,-294.5 351,-324.5 488,-324.5 488,-294.5 351,-294.5"/>
<text text-anchor="start" x="359" y="-312.5" font-family="Helvetica,sans-Serif" font-size="10.00" fill="#000000">tracktion_engine::PlayHead</text>
<text text-anchor="middle" x="419.5" y="-301.5" font-family="Helvetica,sans-Serif" font-size="10.00" fill="#000000">AudioNode</text>
</a>
</g>
</g>
<!-- Node0&#45;&gt;Node8 -->
<g id="edge8" class="edge">
<title>Node0&#45;&gt;Node8</title>
<path fill="none" stroke="#191970" d="M309.3341,-309.5C323.0085,-309.5 337.3122,-309.5 350.9134,-309.5"/>
<polygon fill="#191970" stroke="#191970" points="309.0221,-306.0001 299.022,-309.5 309.022,-313.0001 309.0221,-306.0001"/>
</g>
<!-- Node9 -->
<g id="node10" class="node">
<title>Node9</title>
<g id="a_node10"><a xlink:href="classtracktion__engine_1_1SidechainReceiveAudioNode.html" target="_top" xlink:title="tracktion_engine::Sidechain\lReceiveAudioNode">
<polygon fill="none" stroke="#000000" points="351,-245.5 351,-275.5 488,-275.5 488,-245.5 351,-245.5"/>
<text text-anchor="start" x="359" y="-263.5" font-family="Helvetica,sans-Serif" font-size="10.00" fill="#000000">tracktion_engine::Sidechain</text>
<text text-anchor="middle" x="419.5" y="-252.5" font-family="Helvetica,sans-Serif" font-size="10.00" fill="#000000">ReceiveAudioNode</text>
</a>
</g>
</g>
<!-- Node0&#45;&gt;Node9 -->
<g id="edge9" class="edge">
<title>Node0&#45;&gt;Node9</title>
<path fill="none" stroke="#191970" d="M304.0607,-291.7515C323.6775,-286.4409 344.99,-280.6712 363.9013,-275.5516"/>
<polygon fill="#191970" stroke="#191970" points="303.0208,-288.407 294.2829,-294.3986 304.85,-295.1638 303.0208,-288.407"/>
</g>
<!-- Node10 -->
<g id="node11" class="node">
<title>Node10</title>
<g id="a_node11"><a xlink:href="classtracktion__engine_1_1SidechainReceiveWrapperAudioNode.html" target="_top" xlink:title="tracktion_engine::Sidechain\lReceiveWrapperAudioNode">
<polygon fill="none" stroke="#000000" points="351,-196.5 351,-226.5 488,-226.5 488,-196.5 351,-196.5"/>
<text text-anchor="start" x="359" y="-214.5" font-family="Helvetica,sans-Serif" font-size="10.00" fill="#000000">tracktion_engine::Sidechain</text>
<text text-anchor="middle" x="419.5" y="-203.5" font-family="Helvetica,sans-Serif" font-size="10.00" fill="#000000">ReceiveWrapperAudioNode</text>
</a>
</g>
</g>
<!-- Node0&#45;&gt;Node10 -->
<g id="edge10" class="edge">
<title>Node0&#45;&gt;Node10</title>
<path fill="none" stroke="#191970" d="M261.9182,-287.4419C280.4686,-271.0353 307.7191,-249.2024 335,-235.5 341.6777,-232.146 348.8949,-229.1966 356.2003,-226.62"/>
<polygon fill="#191970" stroke="#191970" points="259.3667,-285.0298 254.2826,-294.3251 264.0536,-290.2291 259.3667,-285.0298"/>
</g>
<!-- Node11 -->
<g id="node12" class="node">
<title>Node11</title>
<g id="a_node12"><a xlink:href="classtracktion__engine_1_1SidechainSendAudioNode.html" target="_top" xlink:title="tracktion_engine::Sidechain\lSendAudioNode">
<polygon fill="none" stroke="#000000" points="351,-147.5 351,-177.5 488,-177.5 488,-147.5 351,-147.5"/>
<text text-anchor="start" x="359" y="-165.5" font-family="Helvetica,sans-Serif" font-size="10.00" fill="#000000">tracktion_engine::Sidechain</text>
<text text-anchor="middle" x="419.5" y="-154.5" font-family="Helvetica,sans-Serif" font-size="10.00" fill="#000000">SendAudioNode</text>
</a>
</g>
</g>
<!-- Node0&#45;&gt;Node11 -->
<g id="edge11" class="edge">
<title>Node0&#45;&gt;Node11</title>
<path fill="none" stroke="#191970" d="M251.3988,-284.9839C267.351,-257.0348 297.1008,-211.9383 335,-186.5 340.065,-183.1003 345.6102,-180.1771 351.3618,-177.6645"/>
<polygon fill="#191970" stroke="#191970" points="248.1348,-283.6525 246.341,-294.0944 254.255,-287.0502 248.1348,-283.6525"/>
</g>
<!-- Node12 -->
<g id="node13" class="node">
<title>Node12</title>
<g id="a_node13"><a xlink:href="classtracktion__engine_1_1SpeedRampAudioNode.html" target="_top" xlink:title="An AudioNode that speeds up and slows down its input node in/out at given times. ">
<polygon fill="none" stroke="#000000" points="345.5,-98.5 345.5,-128.5 493.5,-128.5 493.5,-98.5 345.5,-98.5"/>
<text text-anchor="start" x="353.5" y="-116.5" font-family="Helvetica,sans-Serif" font-size="10.00" fill="#000000">tracktion_engine::SpeedRamp</text>
<text text-anchor="middle" x="419.5" y="-105.5" font-family="Helvetica,sans-Serif" font-size="10.00" fill="#000000">AudioNode</text>
</a>
</g>
</g>
<!-- Node0&#45;&gt;Node12 -->
<g id="edge12" class="edge">
<title>Node0&#45;&gt;Node12</title>
<path fill="none" stroke="#191970" d="M245.6038,-284.8725C257.6946,-247.3848 285.8641,-176.2783 335,-137.5 339.3097,-134.0988 344.0783,-131.1795 349.0915,-128.674"/>
<polygon fill="#191970" stroke="#191970" points="242.2374,-283.9115 242.6159,-294.4996 248.9229,-285.9865 242.2374,-283.9115"/>
</g>
<!-- Node13 -->
<g id="node14" class="node">
<title>Node13</title>
<g id="a_node14"><a xlink:href="classtracktion__engine_1_1TimedMutingAudioNode.html" target="_top" xlink:title="tracktion_engine::TimedMuting\lAudioNode">
<polygon fill="none" stroke="#000000" points="344.5,-49.5 344.5,-79.5 494.5,-79.5 494.5,-49.5 344.5,-49.5"/>
<text text-anchor="start" x="352.5" y="-67.5" font-family="Helvetica,sans-Serif" font-size="10.00" fill="#000000">tracktion_engine::TimedMuting</text>
<text text-anchor="middle" x="419.5" y="-56.5" font-family="Helvetica,sans-Serif" font-size="10.00" fill="#000000">AudioNode</text>
</a>
</g>
</g>
<!-- Node0&#45;&gt;Node13 -->
<g id="edge13" class="edge">
<title>Node0&#45;&gt;Node13</title>
<path fill="none" stroke="#191970" d="M242.3333,-284.2913C250.6546,-238.4098 274.7176,-141.15 335,-88.5 338.9053,-85.0891 343.2638,-82.1609 347.8862,-79.6474"/>
<polygon fill="#191970" stroke="#191970" points="238.8599,-283.8393 240.625,-294.286 245.7599,-285.0187 238.8599,-283.8393"/>
</g>
<!-- Node14 -->
<g id="node15" class="node">
<title>Node14</title>
<g id="a_node15"><a xlink:href="classtracktion__engine_1_1TrackMutingAudioNode.html" target="_top" xlink:title="An AudioNode that handles muting/soloing of its input node, according to the audibility of a track...">
<polygon fill="none" stroke="#000000" points="345.5,-.5 345.5,-30.5 493.5,-30.5 493.5,-.5 345.5,-.5"/>
<text text-anchor="start" x="353.5" y="-18.5" font-family="Helvetica,sans-Serif" font-size="10.00" fill="#000000">tracktion_engine::TrackMuting</text>
<text text-anchor="middle" x="419.5" y="-7.5" font-family="Helvetica,sans-Serif" font-size="10.00" fill="#000000">AudioNode</text>
</a>
</g>
</g>
<!-- Node0&#45;&gt;Node14 -->
<g id="edge14" class="edge">
<title>Node0&#45;&gt;Node14</title>
<path fill="none" stroke="#191970" d="M240.0709,-284.1321C244.7618,-230.8421 263.2248,-106.6525 335,-39.5 338.675,-36.0617 342.8066,-33.111 347.2161,-30.5794"/>
<polygon fill="#191970" stroke="#191970" points="236.5598,-284.1378 239.2648,-294.3814 243.5382,-284.6867 236.5598,-284.1378"/>
</g>
<!-- Node1 -->
<g id="node2" class="node">
<title>Node1</title>
<g id="a_node2"><a xlink:href="classtracktion__engine_1_1AudioNode.html" target="_top" xlink:title="Base class for nodes in an audio playback graph. ">
<polygon fill="none" stroke="#000000" points="0,-300 0,-319 142,-319 142,-300 0,-300"/>
<text text-anchor="middle" x="71" y="-307" font-family="Helvetica,sans-Serif" font-size="10.00" fill="#000000">tracktion_engine::AudioNode</text>
</a>
</g>
</g>
<!-- Node1&#45;&gt;Node0 -->
<g id="edge1" class="edge">
<title>Node1&#45;&gt;Node0</title>
<path fill="none" stroke="#191970" d="M152.1778,-309.5C160.8513,-309.5 169.5616,-309.5 177.9362,-309.5"/>
<polygon fill="#191970" stroke="#191970" points="152.0351,-306.0001 142.0351,-309.5 152.035,-313.0001 152.0351,-306.0001"/>
</g>
</g>
</svg>
