<?xml version="1.0" encoding="UTF-8" standalone="no"?>
<!DOCTYPE svg PUBLIC "-//W3C//DTD SVG 1.1//EN"
 "http://www.w3.org/Graphics/SVG/1.1/DTD/svg11.dtd">
<!-- Generated by graphviz version 2.43.0 (0)
 -->
<!-- Title: tracktion::engine::PitchSetting Pages: 1 -->
<svg width="335pt" height="173pt"
 viewBox="0.00 0.00 335.00 173.00" xmlns="http://www.w3.org/2000/svg" xmlns:xlink="http://www.w3.org/1999/xlink">
<g id="graph0" class="graph" transform="scale(1 1) rotate(0) translate(4 169)">
<title>tracktion::engine::PitchSetting</title>
<!-- Node1 -->
<g id="node1" class="node">
<title>Node1</title>
<g id="a_node1"><a xlink:title=" ">
<polygon fill="#bfbfbf" stroke="black" points="132,-0.5 132,-30.5 237,-30.5 237,-0.5 132,-0.5"/>
<text text-anchor="start" x="140" y="-18.5" font-family="Helvetica,sans-Serif" font-size="10.00">tracktion::engine::</text>
<text text-anchor="middle" x="184.5" y="-7.5" font-family="Helvetica,sans-Serif" font-size="10.00">PitchSetting</text>
</a>
</g>
</g>
<!-- Node2 -->
<g id="node2" class="node">
<title>Node2</title>
<g id="a_node2"><a xlink:href="classtracktion_1_1engine_1_1TrackItem.html" target="_top" xlink:title="Base class for EditItems that live in a Track, e.g.">
<polygon fill="none" stroke="black" points="61,-67.5 61,-97.5 166,-97.5 166,-67.5 61,-67.5"/>
<text text-anchor="start" x="69" y="-85.5" font-family="Helvetica,sans-Serif" font-size="10.00">tracktion::engine::</text>
<text text-anchor="middle" x="113.5" y="-74.5" font-family="Helvetica,sans-Serif" font-size="10.00">TrackItem</text>
</a>
</g>
</g>
<!-- Node2&#45;&gt;Node1 -->
<g id="edge1" class="edge">
<title>Node2&#45;&gt;Node1</title>
<path fill="none" stroke="midnightblue" d="M136.33,-60.6C147.05,-50.78 159.55,-39.34 169.12,-30.58"/>
<polygon fill="midnightblue" stroke="midnightblue" points="133.92,-58.06 128.91,-67.4 138.65,-63.22 133.92,-58.06"/>
</g>
<!-- Node3 -->
<g id="node3" class="node">
<title>Node3</title>
<g id="a_node3"><a xlink:href="classtracktion_1_1engine_1_1EditItem.html" target="_top" xlink:title="Base class for objects that live inside an edit &#45; e.g.">
<polygon fill="none" stroke="black" points="0,-134.5 0,-164.5 105,-164.5 105,-134.5 0,-134.5"/>
<text text-anchor="start" x="8" y="-152.5" font-family="Helvetica,sans-Serif" font-size="10.00">tracktion::engine::</text>
<text text-anchor="middle" x="52.5" y="-141.5" font-family="Helvetica,sans-Serif" font-size="10.00">EditItem</text>
</a>
</g>
</g>
<!-- Node3&#45;&gt;Node2 -->
<g id="edge2" class="edge">
<title>Node3&#45;&gt;Node2</title>
<path fill="none" stroke="midnightblue" d="M72.65,-127.02C81.74,-117.34 92.22,-106.17 100.29,-97.58"/>
<polygon fill="midnightblue" stroke="midnightblue" points="70.03,-124.71 65.74,-134.4 75.13,-129.5 70.03,-124.71"/>
</g>
<!-- Node4 -->
<g id="node4" class="node">
<title>Node4</title>
<g id="a_node4"><a xlink:href="classtracktion_1_1engine_1_1Selectable.html" target="_top" xlink:title="Base class for things that can be selected, and whose properties can appear in the properties panel.">
<polygon fill="none" stroke="black" points="123,-134.5 123,-164.5 228,-164.5 228,-134.5 123,-134.5"/>
<text text-anchor="start" x="131" y="-152.5" font-family="Helvetica,sans-Serif" font-size="10.00">tracktion::engine::</text>
<text text-anchor="middle" x="175.5" y="-141.5" font-family="Helvetica,sans-Serif" font-size="10.00">Selectable</text>
</a>
</g>
</g>
<!-- Node4&#45;&gt;Node2 -->
<g id="edge3" class="edge">
<title>Node4&#45;&gt;Node2</title>
<path fill="none" stroke="midnightblue" d="M155.02,-127.02C145.78,-117.34 135.13,-106.17 126.93,-97.58"/>
<polygon fill="midnightblue" stroke="midnightblue" points="152.61,-129.58 162.05,-134.4 157.68,-124.74 152.61,-129.58"/>
</g>
<!-- Node5 -->
<g id="node5" class="node">
<title>Node5</title>
<g id="a_node5"><a xlink:href="structtracktion_1_1engine_1_1ValueTreeAllEventListener.html" target="_top" xlink:title=" ">
<polygon fill="none" stroke="black" points="184,-67.5 184,-97.5 327,-97.5 327,-67.5 184,-67.5"/>
<text text-anchor="start" x="192" y="-85.5" font-family="Helvetica,sans-Serif" font-size="10.00">tracktion::engine::</text>
<text text-anchor="middle" x="255.5" y="-74.5" font-family="Helvetica,sans-Serif" font-size="10.00">ValueTreeAllEventListener</text>
</a>
</g>
</g>
<!-- Node5&#45;&gt;Node1 -->
<g id="edge4" class="edge">
<title>Node5&#45;&gt;Node1</title>
<path fill="none" stroke="#8b1a1a" d="M232.67,-60.6C221.95,-50.78 209.45,-39.34 199.88,-30.58"/>
<polygon fill="#8b1a1a" stroke="#8b1a1a" points="230.35,-63.22 240.09,-67.4 235.08,-58.06 230.35,-63.22"/>
</g>
</g>
</svg>
