<?xml version="1.0" encoding="UTF-8" standalone="no"?>
<!DOCTYPE svg PUBLIC "-//W3C//DTD SVG 1.1//EN"
 "http://www.w3.org/Graphics/SVG/1.1/DTD/svg11.dtd">
<!-- Generated by graphviz version 2.43.0 (0)
 -->
<!-- Title: tracktion_engine::ClipTrack Pages: 1 -->
<svg width="738pt" height="165pt"
 viewBox="0.00 0.00 738.00 165.00" xmlns="http://www.w3.org/2000/svg" xmlns:xlink="http://www.w3.org/1999/xlink">
<g id="graph0" class="graph" transform="scale(1 1) rotate(0) translate(4 161)">
<title>tracktion_engine::ClipTrack</title>
<!-- Node1 -->
<g id="node1" class="node">
<title>Node1</title>
<g id="a_node1"><a xlink:title=" ">
<polygon fill="#bfbfbf" stroke="black" points="387,-69 387,-88 536,-88 536,-69 387,-69"/>
<text text-anchor="middle" x="461.5" y="-76" font-family="Helvetica,sans-Serif" font-size="10.00">tracktion_engine::ClipTrack</text>
</a>
</g>
</g>
<!-- Node6 -->
<g id="node6" class="node">
<title>Node6</title>
<g id="a_node6"><a xlink:href="classtracktion__engine_1_1ArrangerTrack.html" target="_top" xlink:title="A track similar to the MarkerTrack but can be used to move sections of an Edit around.">
<polygon fill="none" stroke="black" points="578,-126.5 578,-156.5 724,-156.5 724,-126.5 578,-126.5"/>
<text text-anchor="start" x="586" y="-144.5" font-family="Helvetica,sans-Serif" font-size="10.00">tracktion_engine::Arranger</text>
<text text-anchor="middle" x="651" y="-133.5" font-family="Helvetica,sans-Serif" font-size="10.00">Track</text>
</a>
</g>
</g>
<!-- Node1&#45;&gt;Node6 -->
<g id="edge5" class="edge">
<title>Node1&#45;&gt;Node6</title>
<path fill="none" stroke="midnightblue" d="M499.04,-91.43C520.29,-98.88 547.61,-108.36 572,-116.5 581.85,-119.79 592.42,-123.23 602.51,-126.48"/>
<polygon fill="midnightblue" stroke="midnightblue" points="500.03,-88.06 489.44,-88.05 497.71,-94.67 500.03,-88.06"/>
</g>
<!-- Node7 -->
<g id="node7" class="node">
<title>Node7</title>
<g id="a_node7"><a xlink:href="classtracktion__engine_1_1AudioTrack.html" target="_top" xlink:title=" ">
<polygon fill="none" stroke="black" points="572,-88 572,-107 730,-107 730,-88 572,-88"/>
<text text-anchor="middle" x="651" y="-95" font-family="Helvetica,sans-Serif" font-size="10.00">tracktion_engine::AudioTrack</text>
</a>
</g>
</g>
<!-- Node1&#45;&gt;Node7 -->
<g id="edge6" class="edge">
<title>Node1&#45;&gt;Node7</title>
<path fill="none" stroke="midnightblue" d="M546.02,-86.96C554.56,-87.83 563.22,-88.71 571.7,-89.57"/>
<polygon fill="midnightblue" stroke="midnightblue" points="546.37,-83.48 536.07,-85.95 545.66,-90.45 546.37,-83.48"/>
</g>
<!-- Node8 -->
<g id="node8" class="node">
<title>Node8</title>
<g id="a_node8"><a xlink:href="classtracktion__engine_1_1ChordTrack.html" target="_top" xlink:title=" ">
<polygon fill="none" stroke="black" points="572,-50 572,-69 730,-69 730,-50 572,-50"/>
<text text-anchor="middle" x="651" y="-57" font-family="Helvetica,sans-Serif" font-size="10.00">tracktion_engine::ChordTrack</text>
</a>
</g>
</g>
<!-- Node1&#45;&gt;Node8 -->
<g id="edge7" class="edge">
<title>Node1&#45;&gt;Node8</title>
<path fill="none" stroke="midnightblue" d="M546.02,-70.04C554.56,-69.17 563.22,-68.29 571.7,-67.43"/>
<polygon fill="midnightblue" stroke="midnightblue" points="545.66,-66.55 536.07,-71.05 546.37,-73.52 545.66,-66.55"/>
</g>
<!-- Node9 -->
<g id="node9" class="node">
<title>Node9</title>
<g id="a_node9"><a xlink:href="classtracktion__engine_1_1MarkerTrack.html" target="_top" xlink:title=" ">
<polygon fill="none" stroke="black" points="582,-0.5 582,-30.5 720,-30.5 720,-0.5 582,-0.5"/>
<text text-anchor="start" x="590" y="-18.5" font-family="Helvetica,sans-Serif" font-size="10.00">tracktion_engine::Marker</text>
<text text-anchor="middle" x="651" y="-7.5" font-family="Helvetica,sans-Serif" font-size="10.00">Track</text>
</a>
</g>
</g>
<!-- Node1&#45;&gt;Node9 -->
<g id="edge8" class="edge">
<title>Node1&#45;&gt;Node9</title>
<path fill="none" stroke="midnightblue" d="M499.04,-65.57C520.29,-58.12 547.61,-48.64 572,-40.5 581.85,-37.21 592.42,-33.77 602.51,-30.52"/>
<polygon fill="midnightblue" stroke="midnightblue" points="497.71,-62.33 489.44,-68.95 500.03,-68.94 497.71,-62.33"/>
</g>
<!-- Node2 -->
<g id="node2" class="node">
<title>Node2</title>
<g id="a_node2"><a xlink:href="classtracktion__engine_1_1Track.html" target="_top" xlink:title="Base class for tracks which contain clips and plugins and can be added to Edit[s].">
<polygon fill="none" stroke="black" points="221,-69 221,-88 351,-88 351,-69 221,-69"/>
<text text-anchor="middle" x="286" y="-76" font-family="Helvetica,sans-Serif" font-size="10.00">tracktion_engine::Track</text>
</a>
</g>
</g>
<!-- Node2&#45;&gt;Node1 -->
<g id="edge1" class="edge">
<title>Node2&#45;&gt;Node1</title>
<path fill="none" stroke="midnightblue" d="M361.37,-78.5C369.86,-78.5 378.51,-78.5 386.99,-78.5"/>
<polygon fill="midnightblue" stroke="midnightblue" points="361.11,-75 351.11,-78.5 361.11,-82 361.11,-75"/>
</g>
<!-- Node3 -->
<g id="node3" class="node">
<title>Node3</title>
<g id="a_node3"><a xlink:href="classtracktion__engine_1_1EditItem.html" target="_top" xlink:title="Base class for objects that live inside an edit &#45; e.g.">
<polygon fill="none" stroke="black" points="19.5,-107 19.5,-126 165.5,-126 165.5,-107 19.5,-107"/>
<text text-anchor="middle" x="92.5" y="-114" font-family="Helvetica,sans-Serif" font-size="10.00">tracktion_engine::EditItem</text>
</a>
</g>
</g>
<!-- Node3&#45;&gt;Node2 -->
<g id="edge2" class="edge">
<title>Node3&#45;&gt;Node2</title>
<path fill="none" stroke="midnightblue" d="M151.65,-104.96C178.96,-99.54 211.13,-93.16 237.02,-88.02"/>
<polygon fill="midnightblue" stroke="midnightblue" points="150.95,-101.53 141.82,-106.91 152.31,-108.4 150.95,-101.53"/>
</g>
<!-- Node4 -->
<g id="node4" class="node">
<title>Node4</title>
<g id="a_node4"><a xlink:href="classtracktion__engine_1_1Selectable.html" target="_top" xlink:title="Base class for things that can be selected, and whose properties can appear in the properties panel.">
<polygon fill="none" stroke="black" points="15,-69 15,-88 170,-88 170,-69 15,-69"/>
<text text-anchor="middle" x="92.5" y="-76" font-family="Helvetica,sans-Serif" font-size="10.00">tracktion_engine::Selectable</text>
</a>
</g>
</g>
<!-- Node4&#45;&gt;Node2 -->
<g id="edge3" class="edge">
<title>Node4&#45;&gt;Node2</title>
<path fill="none" stroke="midnightblue" d="M180.38,-78.5C194.03,-78.5 207.91,-78.5 220.92,-78.5"/>
<polygon fill="midnightblue" stroke="midnightblue" points="180.01,-75 170.01,-78.5 180.01,-82 180.01,-75"/>
</g>
<!-- Node5 -->
<g id="node5" class="node">
<title>Node5</title>
<g id="a_node5"><a xlink:href="classtracktion__engine_1_1MacroParameterElement.html" target="_top" xlink:title="Base class for elements which can contain macro parameters.">
<polygon fill="none" stroke="black" points="0,-19.5 0,-49.5 185,-49.5 185,-19.5 0,-19.5"/>
<text text-anchor="start" x="8" y="-37.5" font-family="Helvetica,sans-Serif" font-size="10.00">tracktion_engine::MacroParameter</text>
<text text-anchor="middle" x="92.5" y="-26.5" font-family="Helvetica,sans-Serif" font-size="10.00">Element</text>
</a>
</g>
</g>
<!-- Node5&#45;&gt;Node2 -->
<g id="edge4" class="edge">
<title>Node5&#45;&gt;Node2</title>
<path fill="none" stroke="midnightblue" d="M168.88,-51.82C194.32,-57.66 221.78,-63.97 243.6,-68.99"/>
<polygon fill="midnightblue" stroke="midnightblue" points="169.4,-48.35 158.87,-49.52 167.83,-55.17 169.4,-48.35"/>
</g>
</g>
</svg>
