<?xml version="1.0" encoding="UTF-8" standalone="no"?>
<!DOCTYPE svg PUBLIC "-//W3C//DTD SVG 1.1//EN"
 "http://www.w3.org/Graphics/SVG/1.1/DTD/svg11.dtd">
<!-- Generated by graphviz version 2.43.0 (0)
 -->
<!-- Title: tracktion::engine::EditItem Pages: 1 -->
<svg width="622pt" height="1607pt"
 viewBox="0.00 0.00 622.00 1607.00" xmlns="http://www.w3.org/2000/svg" xmlns:xlink="http://www.w3.org/1999/xlink">
<g id="graph0" class="graph" transform="scale(1 1) rotate(0) translate(4 1603)">
<title>tracktion::engine::EditItem</title>
<!-- Node1 -->
<g id="node1" class="node">
<title>Node1</title>
<g id="a_node1"><a xlink:title="Base class for objects that live inside an edit &#45; e.g.">
<polygon fill="#bfbfbf" stroke="black" points="0,-539.5 0,-569.5 105,-569.5 105,-539.5 0,-539.5"/>
<text text-anchor="start" x="8" y="-557.5" font-family="Helvetica,sans-Serif" font-size="10.00">tracktion::engine::</text>
<text text-anchor="middle" x="52.5" y="-546.5" font-family="Helvetica,sans-Serif" font-size="10.00">EditItem</text>
</a>
</g>
</g>
<!-- Node2 -->
<g id="node2" class="node">
<title>Node2</title>
<g id="a_node2"><a xlink:href="classtracktion_1_1engine_1_1AutomatableEditItem.html" target="_top" xlink:title="Base class for elements that have some kind of automatable parameters.">
<polygon fill="none" stroke="black" points="141,-1029.5 141,-1059.5 262,-1059.5 262,-1029.5 141,-1029.5"/>
<text text-anchor="start" x="149" y="-1047.5" font-family="Helvetica,sans-Serif" font-size="10.00">tracktion::engine::</text>
<text text-anchor="middle" x="201.5" y="-1036.5" font-family="Helvetica,sans-Serif" font-size="10.00">AutomatableEditItem</text>
</a>
</g>
</g>
<!-- Node1&#45;&gt;Node2 -->
<g id="edge1" class="edge">
<title>Node1&#45;&gt;Node2</title>
<path fill="none" stroke="midnightblue" d="M60.95,-579.33C87.22,-666.89 175.06,-959.69 195.99,-1029.48"/>
<polygon fill="midnightblue" stroke="midnightblue" points="64.29,-578.27 58.06,-569.7 57.58,-580.29 64.29,-578.27"/>
</g>
<!-- Node39 -->
<g id="node39" class="node">
<title>Node39</title>
<g id="a_node39"><a xlink:href="classtracktion_1_1engine_1_1Track.html" target="_top" xlink:title="Base class for tracks which contain clips and plugins and can be added to Edit[s].">
<polygon fill="none" stroke="black" points="149,-539.5 149,-569.5 254,-569.5 254,-539.5 149,-539.5"/>
<text text-anchor="start" x="157" y="-557.5" font-family="Helvetica,sans-Serif" font-size="10.00">tracktion::engine::</text>
<text text-anchor="middle" x="201.5" y="-546.5" font-family="Helvetica,sans-Serif" font-size="10.00">Track</text>
</a>
</g>
</g>
<!-- Node1&#45;&gt;Node39 -->
<g id="edge38" class="edge">
<title>Node1&#45;&gt;Node39</title>
<path fill="none" stroke="midnightblue" d="M115.37,-554.5C126.45,-554.5 137.89,-554.5 148.65,-554.5"/>
<polygon fill="midnightblue" stroke="midnightblue" points="115.33,-551 105.33,-554.5 115.33,-558 115.33,-551"/>
</g>
<!-- Node49 -->
<g id="node45" class="node">
<title>Node49</title>
<g id="a_node45"><a xlink:href="classtracktion_1_1engine_1_1TrackItem.html" target="_top" xlink:title="Base class for EditItems that live in a Track, e.g.">
<polygon fill="none" stroke="black" points="149,-353.5 149,-383.5 254,-383.5 254,-353.5 149,-353.5"/>
<text text-anchor="start" x="157" y="-371.5" font-family="Helvetica,sans-Serif" font-size="10.00">tracktion::engine::</text>
<text text-anchor="middle" x="201.5" y="-360.5" font-family="Helvetica,sans-Serif" font-size="10.00">TrackItem</text>
</a>
</g>
</g>
<!-- Node1&#45;&gt;Node49 -->
<g id="edge44" class="edge">
<title>Node1&#45;&gt;Node49</title>
<path fill="none" stroke="midnightblue" d="M71.93,-531.19C102.49,-492.51 162.86,-416.13 188.51,-383.67"/>
<polygon fill="midnightblue" stroke="midnightblue" points="68.98,-529.26 65.53,-539.28 74.48,-533.6 68.98,-529.26"/>
</g>
<!-- Node3 -->
<g id="node3" class="node">
<title>Node3</title>
<g id="a_node3"><a xlink:href="classtracktion_1_1engine_1_1MacroParameterList.html" target="_top" xlink:title=" ">
<polygon fill="none" stroke="black" points="303,-1445.5 303,-1475.5 417,-1475.5 417,-1445.5 303,-1445.5"/>
<text text-anchor="start" x="311" y="-1463.5" font-family="Helvetica,sans-Serif" font-size="10.00">tracktion::engine::</text>
<text text-anchor="middle" x="360" y="-1452.5" font-family="Helvetica,sans-Serif" font-size="10.00">MacroParameterList</text>
</a>
</g>
</g>
<!-- Node2&#45;&gt;Node3 -->
<g id="edge2" class="edge">
<title>Node2&#45;&gt;Node3</title>
<path fill="none" stroke="midnightblue" d="M205.66,-1070.22C215.7,-1148.28 249.17,-1380.54 298,-1436.5 300.99,-1439.93 304.54,-1442.87 308.39,-1445.4"/>
<polygon fill="midnightblue" stroke="midnightblue" points="209.07,-1069.35 204.35,-1059.86 202.13,-1070.23 209.07,-1069.35"/>
</g>
<!-- Node4 -->
<g id="node4" class="node">
<title>Node4</title>
<g id="a_node4"><a xlink:href="structtracktion_1_1engine_1_1Modifier.html" target="_top" xlink:title="Bass class for parameter Modifiers.">
<polygon fill="none" stroke="black" points="307.5,-1396.5 307.5,-1426.5 412.5,-1426.5 412.5,-1396.5 307.5,-1396.5"/>
<text text-anchor="start" x="315.5" y="-1414.5" font-family="Helvetica,sans-Serif" font-size="10.00">tracktion::engine::</text>
<text text-anchor="middle" x="360" y="-1403.5" font-family="Helvetica,sans-Serif" font-size="10.00">Modifier</text>
</a>
</g>
</g>
<!-- Node2&#45;&gt;Node4 -->
<g id="edge3" class="edge">
<title>Node2&#45;&gt;Node4</title>
<path fill="none" stroke="midnightblue" d="M213.03,-1069.2C243,-1139.48 328.14,-1339.13 352.45,-1396.13"/>
<polygon fill="midnightblue" stroke="midnightblue" points="216.17,-1067.63 209.03,-1059.8 209.73,-1070.37 216.17,-1067.63"/>
</g>
<!-- Node11 -->
<g id="node11" class="node">
<title>Node11</title>
<g id="a_node11"><a xlink:href="classtracktion_1_1engine_1_1Plugin.html" target="_top" xlink:title=" ">
<polygon fill="none" stroke="black" points="307.5,-686.5 307.5,-716.5 412.5,-716.5 412.5,-686.5 307.5,-686.5"/>
<text text-anchor="start" x="315.5" y="-704.5" font-family="Helvetica,sans-Serif" font-size="10.00">tracktion::engine::</text>
<text text-anchor="middle" x="360" y="-693.5" font-family="Helvetica,sans-Serif" font-size="10.00">Plugin</text>
</a>
</g>
</g>
<!-- Node2&#45;&gt;Node11 -->
<g id="edge10" class="edge">
<title>Node2&#45;&gt;Node11</title>
<path fill="none" stroke="midnightblue" d="M213.67,-1020.01C244.07,-953.39 327.64,-770.24 352.15,-716.51"/>
<polygon fill="midnightblue" stroke="midnightblue" points="210.39,-1018.77 209.43,-1029.32 216.76,-1021.67 210.39,-1018.77"/>
</g>
<!-- Node5 -->
<g id="node5" class="node">
<title>Node5</title>
<g id="a_node5"><a xlink:href="classtracktion_1_1engine_1_1BreakpointOscillatorModifier.html" target="_top" xlink:title=" ">
<polygon fill="none" stroke="black" points="458,-1568.5 458,-1598.5 614,-1598.5 614,-1568.5 458,-1568.5"/>
<text text-anchor="start" x="466" y="-1586.5" font-family="Helvetica,sans-Serif" font-size="10.00">tracktion::engine::</text>
<text text-anchor="middle" x="536" y="-1575.5" font-family="Helvetica,sans-Serif" font-size="10.00">BreakpointOscillatorModifier</text>
</a>
</g>
</g>
<!-- Node4&#45;&gt;Node5 -->
<g id="edge4" class="edge">
<title>Node4&#45;&gt;Node5</title>
<path fill="none" stroke="midnightblue" d="M418.22,-1432.75C419.55,-1433.94 420.82,-1435.18 422,-1436.5 460.12,-1478.82 418.08,-1518.87 458,-1559.5 461.34,-1562.9 465.15,-1565.81 469.24,-1568.32"/>
<polygon fill="midnightblue" stroke="midnightblue" points="420.1,-1429.79 409.98,-1426.66 415.94,-1435.42 420.1,-1429.79"/>
</g>
<!-- Node6 -->
<g id="node6" class="node">
<title>Node6</title>
<g id="a_node6"><a xlink:href="classtracktion_1_1engine_1_1EnvelopeFollowerModifier.html" target="_top" xlink:title=" ">
<polygon fill="none" stroke="black" points="464.5,-1519.5 464.5,-1549.5 607.5,-1549.5 607.5,-1519.5 464.5,-1519.5"/>
<text text-anchor="start" x="472.5" y="-1537.5" font-family="Helvetica,sans-Serif" font-size="10.00">tracktion::engine::</text>
<text text-anchor="middle" x="536" y="-1526.5" font-family="Helvetica,sans-Serif" font-size="10.00">EnvelopeFollowerModifier</text>
</a>
</g>
</g>
<!-- Node4&#45;&gt;Node6 -->
<g id="edge5" class="edge">
<title>Node4&#45;&gt;Node6</title>
<path fill="none" stroke="midnightblue" d="M416.71,-1432.09C418.57,-1433.47 420.34,-1434.94 422,-1436.5 448.67,-1461.52 430.27,-1486.66 458,-1510.5 462.03,-1513.97 466.57,-1516.94 471.36,-1519.48"/>
<polygon fill="midnightblue" stroke="midnightblue" points="418.43,-1429.04 408.13,-1426.58 414.65,-1434.93 418.43,-1429.04"/>
</g>
<!-- Node7 -->
<g id="node7" class="node">
<title>Node7</title>
<g id="a_node7"><a xlink:href="classtracktion_1_1engine_1_1LFOModifier.html" target="_top" xlink:title=" ">
<polygon fill="none" stroke="black" points="483.5,-1470.5 483.5,-1500.5 588.5,-1500.5 588.5,-1470.5 483.5,-1470.5"/>
<text text-anchor="start" x="491.5" y="-1488.5" font-family="Helvetica,sans-Serif" font-size="10.00">tracktion::engine::</text>
<text text-anchor="middle" x="536" y="-1477.5" font-family="Helvetica,sans-Serif" font-size="10.00">LFOModifier</text>
</a>
</g>
</g>
<!-- Node4&#45;&gt;Node7 -->
<g id="edge6" class="edge">
<title>Node4&#45;&gt;Node7</title>
<path fill="none" stroke="midnightblue" d="M410.52,-1430.71C414.45,-1432.56 418.32,-1434.5 422,-1436.5 439.11,-1445.8 440.5,-1452.95 458,-1461.5 465.93,-1465.37 474.61,-1468.79 483.21,-1471.75"/>
<polygon fill="midnightblue" stroke="midnightblue" points="411.84,-1427.47 401.28,-1426.55 408.96,-1433.85 411.84,-1427.47"/>
</g>
<!-- Node8 -->
<g id="node8" class="node">
<title>Node8</title>
<g id="a_node8"><a xlink:href="classtracktion_1_1engine_1_1MIDITrackerModifier.html" target="_top" xlink:title=" ">
<polygon fill="none" stroke="black" points="479.5,-1421.5 479.5,-1451.5 592.5,-1451.5 592.5,-1421.5 479.5,-1421.5"/>
<text text-anchor="start" x="487.5" y="-1439.5" font-family="Helvetica,sans-Serif" font-size="10.00">tracktion::engine::</text>
<text text-anchor="middle" x="536" y="-1428.5" font-family="Helvetica,sans-Serif" font-size="10.00">MIDITrackerModifier</text>
</a>
</g>
</g>
<!-- Node4&#45;&gt;Node8 -->
<g id="edge7" class="edge">
<title>Node4&#45;&gt;Node8</title>
<path fill="none" stroke="midnightblue" d="M422.77,-1420.37C441.17,-1423.02 461.22,-1425.9 479.22,-1428.49"/>
<polygon fill="midnightblue" stroke="midnightblue" points="423.13,-1416.89 412.73,-1418.93 422.14,-1423.82 423.13,-1416.89"/>
</g>
<!-- Node9 -->
<g id="node9" class="node">
<title>Node9</title>
<g id="a_node9"><a xlink:href="classtracktion_1_1engine_1_1RandomModifier.html" target="_top" xlink:title=" ">
<polygon fill="none" stroke="black" points="483.5,-1372.5 483.5,-1402.5 588.5,-1402.5 588.5,-1372.5 483.5,-1372.5"/>
<text text-anchor="start" x="491.5" y="-1390.5" font-family="Helvetica,sans-Serif" font-size="10.00">tracktion::engine::</text>
<text text-anchor="middle" x="536" y="-1379.5" font-family="Helvetica,sans-Serif" font-size="10.00">RandomModifier</text>
</a>
</g>
</g>
<!-- Node4&#45;&gt;Node9 -->
<g id="edge8" class="edge">
<title>Node4&#45;&gt;Node9</title>
<path fill="none" stroke="midnightblue" d="M422.9,-1402.96C442.73,-1400.23 464.46,-1397.23 483.46,-1394.61"/>
<polygon fill="midnightblue" stroke="midnightblue" points="422.16,-1399.53 412.73,-1404.36 423.12,-1406.46 422.16,-1399.53"/>
</g>
<!-- Node10 -->
<g id="node10" class="node">
<title>Node10</title>
<g id="a_node10"><a xlink:href="classtracktion_1_1engine_1_1StepModifier.html" target="_top" xlink:title=" ">
<polygon fill="none" stroke="black" points="483.5,-1323.5 483.5,-1353.5 588.5,-1353.5 588.5,-1323.5 483.5,-1323.5"/>
<text text-anchor="start" x="491.5" y="-1341.5" font-family="Helvetica,sans-Serif" font-size="10.00">tracktion::engine::</text>
<text text-anchor="middle" x="536" y="-1330.5" font-family="Helvetica,sans-Serif" font-size="10.00">StepModifier</text>
</a>
</g>
</g>
<!-- Node4&#45;&gt;Node10 -->
<g id="edge9" class="edge">
<title>Node4&#45;&gt;Node10</title>
<path fill="none" stroke="midnightblue" d="M397.88,-1391.67C415.76,-1382.47 437.7,-1371.77 458,-1363.5 466.59,-1360 475.87,-1356.65 484.91,-1353.59"/>
<polygon fill="midnightblue" stroke="midnightblue" points="396.2,-1388.6 388.94,-1396.32 399.43,-1394.81 396.2,-1388.6"/>
</g>
<!-- Node12 -->
<g id="node12" class="node">
<title>Node12</title>
<g id="a_node12"><a xlink:href="classtracktion_1_1engine_1_1AirWindowsPlugin.html" target="_top" xlink:title=" ">
<polygon fill="none" stroke="black" points="483.5,-1274.5 483.5,-1304.5 588.5,-1304.5 588.5,-1274.5 483.5,-1274.5"/>
<text text-anchor="start" x="491.5" y="-1292.5" font-family="Helvetica,sans-Serif" font-size="10.00">tracktion::engine::</text>
<text text-anchor="middle" x="536" y="-1281.5" font-family="Helvetica,sans-Serif" font-size="10.00">AirWindowsPlugin</text>
</a>
</g>
</g>
<!-- Node11&#45;&gt;Node12 -->
<g id="edge11" class="edge">
<title>Node11&#45;&gt;Node12</title>
<path fill="none" stroke="midnightblue" d="M361.94,-726.92C366.1,-825.79 385.97,-1183.29 458,-1265.5 464.64,-1273.08 473.64,-1278.3 483.14,-1281.88"/>
<polygon fill="midnightblue" stroke="midnightblue" points="365.43,-726.52 361.53,-716.67 358.43,-726.8 365.43,-726.52"/>
</g>
<!-- Node13 -->
<g id="node13" class="node">
<title>Node13</title>
<g id="a_node13"><a xlink:href="classtracktion_1_1engine_1_1AuxReturnPlugin.html" target="_top" xlink:title=" ">
<polygon fill="none" stroke="black" points="483.5,-1225.5 483.5,-1255.5 588.5,-1255.5 588.5,-1225.5 483.5,-1225.5"/>
<text text-anchor="start" x="491.5" y="-1243.5" font-family="Helvetica,sans-Serif" font-size="10.00">tracktion::engine::</text>
<text text-anchor="middle" x="536" y="-1232.5" font-family="Helvetica,sans-Serif" font-size="10.00">AuxReturnPlugin</text>
</a>
</g>
</g>
<!-- Node11&#45;&gt;Node13 -->
<g id="edge12" class="edge">
<title>Node11&#45;&gt;Node13</title>
<path fill="none" stroke="midnightblue" d="M362.39,-726.8C368,-819.95 391.95,-1142.3 458,-1216.5 464.7,-1224.03 473.73,-1229.22 483.24,-1232.8"/>
<polygon fill="midnightblue" stroke="midnightblue" points="365.87,-726.38 361.79,-716.61 358.88,-726.79 365.87,-726.38"/>
</g>
<!-- Node14 -->
<g id="node14" class="node">
<title>Node14</title>
<g id="a_node14"><a xlink:href="classtracktion_1_1engine_1_1AuxSendPlugin.html" target="_top" xlink:title=" ">
<polygon fill="none" stroke="black" points="483.5,-1176.5 483.5,-1206.5 588.5,-1206.5 588.5,-1176.5 483.5,-1176.5"/>
<text text-anchor="start" x="491.5" y="-1194.5" font-family="Helvetica,sans-Serif" font-size="10.00">tracktion::engine::</text>
<text text-anchor="middle" x="536" y="-1183.5" font-family="Helvetica,sans-Serif" font-size="10.00">AuxSendPlugin</text>
</a>
</g>
</g>
<!-- Node11&#45;&gt;Node14 -->
<g id="edge13" class="edge">
<title>Node11&#45;&gt;Node14</title>
<path fill="none" stroke="midnightblue" d="M362.95,-726.93C370.14,-814.43 397.95,-1101.33 458,-1167.5 464.78,-1174.97 473.83,-1180.13 483.35,-1183.7"/>
<polygon fill="midnightblue" stroke="midnightblue" points="366.42,-726.52 362.14,-716.83 359.45,-727.08 366.42,-726.52"/>
</g>
<!-- Node15 -->
<g id="node15" class="node">
<title>Node15</title>
<g id="a_node15"><a xlink:href="classtracktion_1_1engine_1_1ChorusPlugin.html" target="_top" xlink:title=" ">
<polygon fill="none" stroke="black" points="483.5,-1127.5 483.5,-1157.5 588.5,-1157.5 588.5,-1127.5 483.5,-1127.5"/>
<text text-anchor="start" x="491.5" y="-1145.5" font-family="Helvetica,sans-Serif" font-size="10.00">tracktion::engine::</text>
<text text-anchor="middle" x="536" y="-1134.5" font-family="Helvetica,sans-Serif" font-size="10.00">ChorusPlugin</text>
</a>
</g>
</g>
<!-- Node11&#45;&gt;Node15 -->
<g id="edge14" class="edge">
<title>Node11&#45;&gt;Node15</title>
<path fill="none" stroke="midnightblue" d="M363.61,-726.86C372.47,-808.13 403.89,-1060.25 458,-1118.5 464.86,-1125.89 473.95,-1131.02 483.48,-1134.57"/>
<polygon fill="midnightblue" stroke="midnightblue" points="367.06,-726.13 362.51,-716.56 360.09,-726.87 367.06,-726.13"/>
</g>
<!-- Node16 -->
<g id="node16" class="node">
<title>Node16</title>
<g id="a_node16"><a xlink:href="classtracktion_1_1engine_1_1CompressorPlugin.html" target="_top" xlink:title=" ">
<polygon fill="none" stroke="black" points="483.5,-1078.5 483.5,-1108.5 588.5,-1108.5 588.5,-1078.5 483.5,-1078.5"/>
<text text-anchor="start" x="491.5" y="-1096.5" font-family="Helvetica,sans-Serif" font-size="10.00">tracktion::engine::</text>
<text text-anchor="middle" x="536" y="-1085.5" font-family="Helvetica,sans-Serif" font-size="10.00">CompressorPlugin</text>
</a>
</g>
</g>
<!-- Node11&#45;&gt;Node16 -->
<g id="edge15" class="edge">
<title>Node11&#45;&gt;Node16</title>
<path fill="none" stroke="midnightblue" d="M364.45,-726.82C375.13,-801.55 409.79,-1019.1 458,-1069.5 464.87,-1076.68 473.85,-1081.73 483.25,-1085.27"/>
<polygon fill="midnightblue" stroke="midnightblue" points="367.91,-726.28 363.05,-716.87 360.98,-727.26 367.91,-726.28"/>
</g>
<!-- Node17 -->
<g id="node17" class="node">
<title>Node17</title>
<g id="a_node17"><a xlink:href="classtracktion_1_1engine_1_1DelayPlugin.html" target="_top" xlink:title=" ">
<polygon fill="none" stroke="black" points="483.5,-1029.5 483.5,-1059.5 588.5,-1059.5 588.5,-1029.5 483.5,-1029.5"/>
<text text-anchor="start" x="491.5" y="-1047.5" font-family="Helvetica,sans-Serif" font-size="10.00">tracktion::engine::</text>
<text text-anchor="middle" x="536" y="-1036.5" font-family="Helvetica,sans-Serif" font-size="10.00">DelayPlugin</text>
</a>
</g>
</g>
<!-- Node11&#45;&gt;Node17 -->
<g id="edge16" class="edge">
<title>Node11&#45;&gt;Node17</title>
<path fill="none" stroke="midnightblue" d="M361.12,-726.66C362.8,-786.28 375.44,-937.37 458,-1020.5 465.01,-1027.55 474.05,-1032.54 483.46,-1036.07"/>
<polygon fill="midnightblue" stroke="midnightblue" points="364.62,-726.56 360.92,-716.63 357.62,-726.7 364.62,-726.56"/>
</g>
<!-- Node18 -->
<g id="node18" class="node">
<title>Node18</title>
<g id="a_node18"><a xlink:href="classtracktion_1_1engine_1_1EqualiserPlugin.html" target="_top" xlink:title=" ">
<polygon fill="none" stroke="black" points="483.5,-980.5 483.5,-1010.5 588.5,-1010.5 588.5,-980.5 483.5,-980.5"/>
<text text-anchor="start" x="491.5" y="-998.5" font-family="Helvetica,sans-Serif" font-size="10.00">tracktion::engine::</text>
<text text-anchor="middle" x="536" y="-987.5" font-family="Helvetica,sans-Serif" font-size="10.00">EqualiserPlugin</text>
</a>
</g>
</g>
<!-- Node11&#45;&gt;Node18 -->
<g id="edge17" class="edge">
<title>Node11&#45;&gt;Node18</title>
<path fill="none" stroke="midnightblue" d="M362.76,-726.73C367.81,-779.75 386.99,-903.46 458,-971.5 465.08,-978.28 474.04,-983.15 483.33,-986.64"/>
<polygon fill="midnightblue" stroke="midnightblue" points="366.22,-726.2 361.88,-716.53 359.25,-726.8 366.22,-726.2"/>
</g>
<!-- Node19 -->
<g id="node19" class="node">
<title>Node19</title>
<g id="a_node19"><a xlink:href="classtracktion_1_1engine_1_1ExternalPlugin.html" target="_top" xlink:title=" ">
<polygon fill="none" stroke="black" points="483.5,-931.5 483.5,-961.5 588.5,-961.5 588.5,-931.5 483.5,-931.5"/>
<text text-anchor="start" x="491.5" y="-949.5" font-family="Helvetica,sans-Serif" font-size="10.00">tracktion::engine::</text>
<text text-anchor="middle" x="536" y="-938.5" font-family="Helvetica,sans-Serif" font-size="10.00">ExternalPlugin</text>
</a>
</g>
</g>
<!-- Node11&#45;&gt;Node19 -->
<g id="edge18" class="edge">
<title>Node11&#45;&gt;Node19</title>
<path fill="none" stroke="midnightblue" d="M365.02,-726.56C373.67,-772.21 398.29,-869.1 458,-922.5 465.2,-928.94 474.12,-933.65 483.29,-937.1"/>
<polygon fill="midnightblue" stroke="midnightblue" points="368.45,-725.85 363.24,-716.62 361.56,-727.08 368.45,-725.85"/>
</g>
<!-- Node20 -->
<g id="node20" class="node">
<title>Node20</title>
<g id="a_node20"><a xlink:href="classtracktion_1_1engine_1_1FourOscPlugin.html" target="_top" xlink:title=" ">
<polygon fill="none" stroke="black" points="483.5,-882.5 483.5,-912.5 588.5,-912.5 588.5,-882.5 483.5,-882.5"/>
<text text-anchor="start" x="491.5" y="-900.5" font-family="Helvetica,sans-Serif" font-size="10.00">tracktion::engine::</text>
<text text-anchor="middle" x="536" y="-889.5" font-family="Helvetica,sans-Serif" font-size="10.00">FourOscPlugin</text>
</a>
</g>
</g>
<!-- Node11&#45;&gt;Node20 -->
<g id="edge19" class="edge">
<title>Node11&#45;&gt;Node20</title>
<path fill="none" stroke="midnightblue" d="M368.39,-726.26C380.81,-763.62 409.38,-834.2 458,-873.5 465.41,-879.49 474.31,-883.98 483.39,-887.36"/>
<polygon fill="midnightblue" stroke="midnightblue" points="371.7,-725.11 365.32,-716.65 365.03,-727.25 371.7,-725.11"/>
</g>
<!-- Node21 -->
<g id="node21" class="node">
<title>Node21</title>
<g id="a_node21"><a xlink:href="classtracktion_1_1engine_1_1FreezePointPlugin.html" target="_top" xlink:title=" ">
<polygon fill="none" stroke="black" points="483.5,-833.5 483.5,-863.5 588.5,-863.5 588.5,-833.5 483.5,-833.5"/>
<text text-anchor="start" x="491.5" y="-851.5" font-family="Helvetica,sans-Serif" font-size="10.00">tracktion::engine::</text>
<text text-anchor="middle" x="536" y="-840.5" font-family="Helvetica,sans-Serif" font-size="10.00">FreezePointPlugin</text>
</a>
</g>
</g>
<!-- Node11&#45;&gt;Node21 -->
<g id="edge20" class="edge">
<title>Node11&#45;&gt;Node21</title>
<path fill="none" stroke="midnightblue" d="M374.11,-725.85C390.29,-753.63 420.32,-798.58 458,-824.5 465.61,-829.74 474.42,-833.87 483.3,-837.12"/>
<polygon fill="midnightblue" stroke="midnightblue" points="376.96,-723.76 368.98,-716.79 370.87,-727.22 376.96,-723.76"/>
</g>
<!-- Node22 -->
<g id="node22" class="node">
<title>Node22</title>
<g id="a_node22"><a xlink:href="classtracktion_1_1engine_1_1ImpulseResponsePlugin.html" target="_top" xlink:title="ImpulseResponsePlugin that loads an impulse response and applies it the audio stream.">
<polygon fill="none" stroke="black" points="469.5,-784.5 469.5,-814.5 602.5,-814.5 602.5,-784.5 469.5,-784.5"/>
<text text-anchor="start" x="477.5" y="-802.5" font-family="Helvetica,sans-Serif" font-size="10.00">tracktion::engine::</text>
<text text-anchor="middle" x="536" y="-791.5" font-family="Helvetica,sans-Serif" font-size="10.00">ImpulseResponsePlugin</text>
</a>
</g>
</g>
<!-- Node11&#45;&gt;Node22 -->
<g id="edge21" class="edge">
<title>Node11&#45;&gt;Node22</title>
<path fill="none" stroke="midnightblue" d="M384.66,-723.36C403.37,-739.65 430.79,-761.44 458,-775.5 464.47,-778.84 471.49,-781.82 478.56,-784.44"/>
<polygon fill="midnightblue" stroke="midnightblue" points="386.76,-720.54 376.95,-716.52 382.11,-725.78 386.76,-720.54"/>
</g>
<!-- Node23 -->
<g id="node23" class="node">
<title>Node23</title>
<g id="a_node23"><a xlink:href="classtracktion_1_1engine_1_1InsertPlugin.html" target="_top" xlink:title=" ">
<polygon fill="none" stroke="black" points="483.5,-735.5 483.5,-765.5 588.5,-765.5 588.5,-735.5 483.5,-735.5"/>
<text text-anchor="start" x="491.5" y="-753.5" font-family="Helvetica,sans-Serif" font-size="10.00">tracktion::engine::</text>
<text text-anchor="middle" x="536" y="-742.5" font-family="Helvetica,sans-Serif" font-size="10.00">InsertPlugin</text>
</a>
</g>
</g>
<!-- Node11&#45;&gt;Node23 -->
<g id="edge22" class="edge">
<title>Node11&#45;&gt;Node23</title>
<path fill="none" stroke="midnightblue" d="M422.63,-718.86C442.53,-724.46 464.37,-730.61 483.46,-735.99"/>
<polygon fill="midnightblue" stroke="midnightblue" points="423.31,-715.41 412.73,-716.07 421.41,-722.15 423.31,-715.41"/>
</g>
<!-- Node24 -->
<g id="node24" class="node">
<title>Node24</title>
<g id="a_node24"><a xlink:href="classtracktion_1_1engine_1_1LatencyPlugin.html" target="_top" xlink:title="A test plugin that introduces latency to the incomming signal.">
<polygon fill="none" stroke="black" points="483.5,-686.5 483.5,-716.5 588.5,-716.5 588.5,-686.5 483.5,-686.5"/>
<text text-anchor="start" x="491.5" y="-704.5" font-family="Helvetica,sans-Serif" font-size="10.00">tracktion::engine::</text>
<text text-anchor="middle" x="536" y="-693.5" font-family="Helvetica,sans-Serif" font-size="10.00">LatencyPlugin</text>
</a>
</g>
</g>
<!-- Node11&#45;&gt;Node24 -->
<g id="edge23" class="edge">
<title>Node11&#45;&gt;Node24</title>
<path fill="none" stroke="midnightblue" d="M422.9,-701.5C442.73,-701.5 464.46,-701.5 483.46,-701.5"/>
<polygon fill="midnightblue" stroke="midnightblue" points="422.73,-698 412.73,-701.5 422.73,-705 422.73,-698"/>
</g>
<!-- Node25 -->
<g id="node25" class="node">
<title>Node25</title>
<g id="a_node25"><a xlink:href="classtracktion_1_1engine_1_1LevelMeterPlugin.html" target="_top" xlink:title=" ">
<polygon fill="none" stroke="black" points="483.5,-637.5 483.5,-667.5 588.5,-667.5 588.5,-637.5 483.5,-637.5"/>
<text text-anchor="start" x="491.5" y="-655.5" font-family="Helvetica,sans-Serif" font-size="10.00">tracktion::engine::</text>
<text text-anchor="middle" x="536" y="-644.5" font-family="Helvetica,sans-Serif" font-size="10.00">LevelMeterPlugin</text>
</a>
</g>
</g>
<!-- Node11&#45;&gt;Node25 -->
<g id="edge24" class="edge">
<title>Node11&#45;&gt;Node25</title>
<path fill="none" stroke="midnightblue" d="M422.63,-684.14C442.53,-678.54 464.37,-672.39 483.46,-667.01"/>
<polygon fill="midnightblue" stroke="midnightblue" points="421.41,-680.85 412.73,-686.93 423.31,-687.59 421.41,-680.85"/>
</g>
<!-- Node26 -->
<g id="node26" class="node">
<title>Node26</title>
<g id="a_node26"><a xlink:href="classtracktion_1_1engine_1_1LowPassPlugin.html" target="_top" xlink:title=" ">
<polygon fill="none" stroke="black" points="483.5,-588.5 483.5,-618.5 588.5,-618.5 588.5,-588.5 483.5,-588.5"/>
<text text-anchor="start" x="491.5" y="-606.5" font-family="Helvetica,sans-Serif" font-size="10.00">tracktion::engine::</text>
<text text-anchor="middle" x="536" y="-595.5" font-family="Helvetica,sans-Serif" font-size="10.00">LowPassPlugin</text>
</a>
</g>
</g>
<!-- Node11&#45;&gt;Node26 -->
<g id="edge25" class="edge">
<title>Node11&#45;&gt;Node26</title>
<path fill="none" stroke="midnightblue" d="M416.37,-681.44C418.32,-680.19 420.2,-678.88 422,-677.5 443.41,-661.02 436.09,-644.32 458,-628.5 465.52,-623.07 474.28,-618.78 483.14,-615.4"/>
<polygon fill="midnightblue" stroke="midnightblue" points="414.46,-678.5 407.48,-686.47 417.91,-684.59 414.46,-678.5"/>
</g>
<!-- Node27 -->
<g id="node27" class="node">
<title>Node27</title>
<g id="a_node27"><a xlink:href="classtracktion_1_1engine_1_1MidiModifierPlugin.html" target="_top" xlink:title=" ">
<polygon fill="none" stroke="black" points="482.5,-539.5 482.5,-569.5 589.5,-569.5 589.5,-539.5 482.5,-539.5"/>
<text text-anchor="start" x="490.5" y="-557.5" font-family="Helvetica,sans-Serif" font-size="10.00">tracktion::engine::</text>
<text text-anchor="middle" x="536" y="-546.5" font-family="Helvetica,sans-Serif" font-size="10.00">MidiModifierPlugin</text>
</a>
</g>
</g>
<!-- Node11&#45;&gt;Node27 -->
<g id="edge26" class="edge">
<title>Node11&#45;&gt;Node27</title>
<path fill="none" stroke="midnightblue" d="M419.06,-680.27C420.08,-679.39 421.06,-678.46 422,-677.5 454.43,-644.32 424.57,-611.68 458,-579.5 464.78,-572.97 473.29,-568.14 482.16,-564.58"/>
<polygon fill="midnightblue" stroke="midnightblue" points="416.65,-677.69 410.61,-686.39 420.76,-683.36 416.65,-677.69"/>
</g>
<!-- Node28 -->
<g id="node28" class="node">
<title>Node28</title>
<g id="a_node28"><a xlink:href="classtracktion_1_1engine_1_1MidiPatchBayPlugin.html" target="_top" xlink:title=" ">
<polygon fill="none" stroke="black" points="479.5,-490.5 479.5,-520.5 592.5,-520.5 592.5,-490.5 479.5,-490.5"/>
<text text-anchor="start" x="487.5" y="-508.5" font-family="Helvetica,sans-Serif" font-size="10.00">tracktion::engine::</text>
<text text-anchor="middle" x="536" y="-497.5" font-family="Helvetica,sans-Serif" font-size="10.00">MidiPatchBayPlugin</text>
</a>
</g>
</g>
<!-- Node11&#45;&gt;Node28 -->
<g id="edge27" class="edge">
<title>Node11&#45;&gt;Node28</title>
<path fill="none" stroke="midnightblue" d="M419.65,-679.98C420.47,-679.18 421.25,-678.36 422,-677.5 466.25,-626.84 412.22,-579.78 458,-530.5 463.83,-524.22 471.26,-519.51 479.19,-515.98"/>
<polygon fill="midnightblue" stroke="midnightblue" points="417.24,-677.43 411.6,-686.4 421.6,-682.9 417.24,-677.43"/>
</g>
<!-- Node29 -->
<g id="node29" class="node">
<title>Node29</title>
<g id="a_node29"><a xlink:href="classtracktion_1_1engine_1_1PatchBayPlugin.html" target="_top" xlink:title=" ">
<polygon fill="none" stroke="black" points="483.5,-441.5 483.5,-471.5 588.5,-471.5 588.5,-441.5 483.5,-441.5"/>
<text text-anchor="start" x="491.5" y="-459.5" font-family="Helvetica,sans-Serif" font-size="10.00">tracktion::engine::</text>
<text text-anchor="middle" x="536" y="-448.5" font-family="Helvetica,sans-Serif" font-size="10.00">PatchBayPlugin</text>
</a>
</g>
</g>
<!-- Node11&#45;&gt;Node29 -->
<g id="edge28" class="edge">
<title>Node11&#45;&gt;Node29</title>
<path fill="none" stroke="midnightblue" d="M419.78,-679.98C420.55,-679.18 421.29,-678.36 422,-677.5 478.3,-609.12 399.65,-548.13 458,-481.5 464.67,-473.89 473.67,-468.58 483.18,-464.88"/>
<polygon fill="midnightblue" stroke="midnightblue" points="417.54,-677.29 412.1,-686.39 422.02,-682.67 417.54,-677.29"/>
</g>
<!-- Node30 -->
<g id="node30" class="node">
<title>Node30</title>
<g id="a_node30"><a xlink:href="classtracktion_1_1engine_1_1PhaserPlugin.html" target="_top" xlink:title=" ">
<polygon fill="none" stroke="black" points="483.5,-392.5 483.5,-422.5 588.5,-422.5 588.5,-392.5 483.5,-392.5"/>
<text text-anchor="start" x="491.5" y="-410.5" font-family="Helvetica,sans-Serif" font-size="10.00">tracktion::engine::</text>
<text text-anchor="middle" x="536" y="-399.5" font-family="Helvetica,sans-Serif" font-size="10.00">PhaserPlugin</text>
</a>
</g>
</g>
<!-- Node11&#45;&gt;Node30 -->
<g id="edge29" class="edge">
<title>Node11&#45;&gt;Node30</title>
<path fill="none" stroke="midnightblue" d="M420.11,-679.71C420.77,-679 421.4,-678.26 422,-677.5 490.42,-591.3 386.98,-516.58 458,-432.5 464.62,-424.66 473.73,-419.26 483.36,-415.54"/>
<polygon fill="midnightblue" stroke="midnightblue" points="417.53,-677.32 412.24,-686.49 422.1,-682.62 417.53,-677.32"/>
</g>
<!-- Node31 -->
<g id="node31" class="node">
<title>Node31</title>
<g id="a_node31"><a xlink:href="classtracktion_1_1engine_1_1PitchShiftPlugin.html" target="_top" xlink:title=" ">
<polygon fill="none" stroke="black" points="483.5,-343.5 483.5,-373.5 588.5,-373.5 588.5,-343.5 483.5,-343.5"/>
<text text-anchor="start" x="491.5" y="-361.5" font-family="Helvetica,sans-Serif" font-size="10.00">tracktion::engine::</text>
<text text-anchor="middle" x="536" y="-350.5" font-family="Helvetica,sans-Serif" font-size="10.00">PitchShiftPlugin</text>
</a>
</g>
</g>
<!-- Node11&#45;&gt;Node31 -->
<g id="edge30" class="edge">
<title>Node11&#45;&gt;Node31</title>
<path fill="none" stroke="midnightblue" d="M420.18,-679.67C420.81,-678.97 421.42,-678.25 422,-677.5 502.6,-573.41 374.27,-485.08 458,-383.5 464.53,-375.58 473.59,-370.15 483.22,-366.42"/>
<polygon fill="midnightblue" stroke="midnightblue" points="417.78,-677.12 412.61,-686.37 422.42,-682.37 417.78,-677.12"/>
</g>
<!-- Node32 -->
<g id="node32" class="node">
<title>Node32</title>
<g id="a_node32"><a xlink:href="classtracktion_1_1engine_1_1RackInstance.html" target="_top" xlink:title=" ">
<polygon fill="none" stroke="black" points="483.5,-294.5 483.5,-324.5 588.5,-324.5 588.5,-294.5 483.5,-294.5"/>
<text text-anchor="start" x="491.5" y="-312.5" font-family="Helvetica,sans-Serif" font-size="10.00">tracktion::engine::</text>
<text text-anchor="middle" x="536" y="-301.5" font-family="Helvetica,sans-Serif" font-size="10.00">RackInstance</text>
</a>
</g>
</g>
<!-- Node11&#45;&gt;Node32 -->
<g id="edge31" class="edge">
<title>Node11&#45;&gt;Node32</title>
<path fill="none" stroke="midnightblue" d="M420.2,-679.69C420.83,-678.98 421.43,-678.25 422,-677.5 514.8,-555.5 361.53,-453.62 458,-334.5 464.46,-326.53 473.49,-321.07 483.11,-317.34"/>
<polygon fill="midnightblue" stroke="midnightblue" points="417.8,-677.14 412.67,-686.42 422.46,-682.37 417.8,-677.14"/>
</g>
<!-- Node33 -->
<g id="node33" class="node">
<title>Node33</title>
<g id="a_node33"><a xlink:href="classtracktion_1_1engine_1_1ReverbPlugin.html" target="_top" xlink:title=" ">
<polygon fill="none" stroke="black" points="483.5,-245.5 483.5,-275.5 588.5,-275.5 588.5,-245.5 483.5,-245.5"/>
<text text-anchor="start" x="491.5" y="-263.5" font-family="Helvetica,sans-Serif" font-size="10.00">tracktion::engine::</text>
<text text-anchor="middle" x="536" y="-252.5" font-family="Helvetica,sans-Serif" font-size="10.00">ReverbPlugin</text>
</a>
</g>
</g>
<!-- Node11&#45;&gt;Node33 -->
<g id="edge32" class="edge">
<title>Node11&#45;&gt;Node33</title>
<path fill="none" stroke="midnightblue" d="M420.22,-679.7C420.84,-678.99 421.43,-678.26 422,-677.5 474.63,-607.35 402.86,-352.69 458,-284.5 464.52,-276.44 473.7,-271.04 483.46,-267.43"/>
<polygon fill="midnightblue" stroke="midnightblue" points="417.81,-677.16 412.72,-686.45 422.49,-682.36 417.81,-677.16"/>
</g>
<!-- Node34 -->
<g id="node34" class="node">
<title>Node34</title>
<g id="a_node34"><a xlink:href="classtracktion_1_1engine_1_1SamplerPlugin.html" target="_top" xlink:title=" ">
<polygon fill="none" stroke="black" points="483.5,-196.5 483.5,-226.5 588.5,-226.5 588.5,-196.5 483.5,-196.5"/>
<text text-anchor="start" x="491.5" y="-214.5" font-family="Helvetica,sans-Serif" font-size="10.00">tracktion::engine::</text>
<text text-anchor="middle" x="536" y="-203.5" font-family="Helvetica,sans-Serif" font-size="10.00">SamplerPlugin</text>
</a>
</g>
</g>
<!-- Node11&#45;&gt;Node34 -->
<g id="edge33" class="edge">
<title>Node11&#45;&gt;Node34</title>
<path fill="none" stroke="midnightblue" d="M420.23,-679.71C420.84,-679 421.44,-678.26 422,-677.5 480.74,-598.37 396.42,-312.44 458,-235.5 464.47,-227.41 473.64,-221.99 483.4,-218.38"/>
<polygon fill="midnightblue" stroke="midnightblue" points="417.81,-677.17 412.76,-686.48 422.52,-682.36 417.81,-677.17"/>
</g>
<!-- Node35 -->
<g id="node35" class="node">
<title>Node35</title>
<g id="a_node35"><a xlink:href="classtracktion_1_1engine_1_1TextPlugin.html" target="_top" xlink:title=" ">
<polygon fill="none" stroke="black" points="483.5,-147.5 483.5,-177.5 588.5,-177.5 588.5,-147.5 483.5,-147.5"/>
<text text-anchor="start" x="491.5" y="-165.5" font-family="Helvetica,sans-Serif" font-size="10.00">tracktion::engine::</text>
<text text-anchor="middle" x="536" y="-154.5" font-family="Helvetica,sans-Serif" font-size="10.00">TextPlugin</text>
</a>
</g>
</g>
<!-- Node11&#45;&gt;Node35 -->
<g id="edge34" class="edge">
<title>Node11&#45;&gt;Node35</title>
<path fill="none" stroke="midnightblue" d="M420.19,-679.77C420.82,-679.04 421.42,-678.28 422,-677.5 486.86,-589.39 389.98,-272.19 458,-186.5 464.44,-178.38 473.59,-172.95 483.35,-169.34"/>
<polygon fill="midnightblue" stroke="midnightblue" points="417.59,-677.4 412.51,-686.71 422.28,-682.6 417.59,-677.4"/>
</g>
<!-- Node36 -->
<g id="node36" class="node">
<title>Node36</title>
<g id="a_node36"><a xlink:href="classtracktion_1_1engine_1_1ToneGeneratorPlugin.html" target="_top" xlink:title=" ">
<polygon fill="none" stroke="black" points="477,-98.5 477,-128.5 595,-128.5 595,-98.5 477,-98.5"/>
<text text-anchor="start" x="485" y="-116.5" font-family="Helvetica,sans-Serif" font-size="10.00">tracktion::engine::</text>
<text text-anchor="middle" x="536" y="-105.5" font-family="Helvetica,sans-Serif" font-size="10.00">ToneGeneratorPlugin</text>
</a>
</g>
</g>
<!-- Node11&#45;&gt;Node36 -->
<g id="edge35" class="edge">
<title>Node11&#45;&gt;Node36</title>
<path fill="none" stroke="midnightblue" d="M420.19,-679.78C420.82,-679.04 421.43,-678.28 422,-677.5 492.98,-580.41 383.54,-231.95 458,-137.5 462.94,-131.23 469.5,-126.57 476.71,-123.1"/>
<polygon fill="midnightblue" stroke="midnightblue" points="417.59,-677.41 412.54,-686.72 422.3,-682.6 417.59,-677.41"/>
</g>
<!-- Node37 -->
<g id="node37" class="node">
<title>Node37</title>
<g id="a_node37"><a xlink:href="classtracktion_1_1engine_1_1VCAPlugin.html" target="_top" xlink:title="The VCA plugin sits on a folder track to control the overall level of all the volume/pan plugins in i...">
<polygon fill="none" stroke="black" points="483.5,-49.5 483.5,-79.5 588.5,-79.5 588.5,-49.5 483.5,-49.5"/>
<text text-anchor="start" x="491.5" y="-67.5" font-family="Helvetica,sans-Serif" font-size="10.00">tracktion::engine::</text>
<text text-anchor="middle" x="536" y="-56.5" font-family="Helvetica,sans-Serif" font-size="10.00">VCAPlugin</text>
</a>
</g>
</g>
<!-- Node11&#45;&gt;Node37 -->
<g id="edge36" class="edge">
<title>Node11&#45;&gt;Node37</title>
<path fill="none" stroke="midnightblue" d="M420.2,-679.78C420.83,-679.05 421.43,-678.29 422,-677.5 499.1,-571.43 377.1,-191.7 458,-88.5 464.39,-80.35 473.52,-74.9 483.28,-71.28"/>
<polygon fill="midnightblue" stroke="midnightblue" points="417.6,-677.42 412.56,-686.74 422.31,-682.59 417.6,-677.42"/>
</g>
<!-- Node38 -->
<g id="node38" class="node">
<title>Node38</title>
<g id="a_node38"><a xlink:href="classtracktion_1_1engine_1_1VolumeAndPanPlugin.html" target="_top" xlink:title="The built&#45;in Tracktion volume/pan plugin.">
<polygon fill="none" stroke="black" points="476.5,-0.5 476.5,-30.5 595.5,-30.5 595.5,-0.5 476.5,-0.5"/>
<text text-anchor="start" x="484.5" y="-18.5" font-family="Helvetica,sans-Serif" font-size="10.00">tracktion::engine::</text>
<text text-anchor="middle" x="536" y="-7.5" font-family="Helvetica,sans-Serif" font-size="10.00">VolumeAndPanPlugin</text>
</a>
</g>
</g>
<!-- Node11&#45;&gt;Node38 -->
<g id="edge37" class="edge">
<title>Node11&#45;&gt;Node38</title>
<path fill="none" stroke="midnightblue" d="M420.21,-679.78C420.83,-679.05 421.43,-678.29 422,-677.5 505.22,-562.44 370.65,-151.46 458,-39.5 462.82,-33.32 469.22,-28.69 476.27,-25.24"/>
<polygon fill="midnightblue" stroke="midnightblue" points="417.6,-677.42 412.58,-686.75 422.32,-682.59 417.6,-677.42"/>
</g>
<!-- Node40 -->
<g id="node40" class="node">
<title>Node40</title>
<g id="a_node40"><a xlink:href="classtracktion_1_1engine_1_1AutomationTrack.html" target="_top" xlink:title=" ">
<polygon fill="none" stroke="black" points="307.5,-637.5 307.5,-667.5 412.5,-667.5 412.5,-637.5 307.5,-637.5"/>
<text text-anchor="start" x="315.5" y="-655.5" font-family="Helvetica,sans-Serif" font-size="10.00">tracktion::engine::</text>
<text text-anchor="middle" x="360" y="-644.5" font-family="Helvetica,sans-Serif" font-size="10.00">AutomationTrack</text>
</a>
</g>
</g>
<!-- Node39&#45;&gt;Node40 -->
<g id="edge39" class="edge">
<title>Node39&#45;&gt;Node40</title>
<path fill="none" stroke="midnightblue" d="M226.71,-576.41C245.24,-592.36 271.95,-613.69 298,-628.5 303.74,-631.76 310.01,-634.78 316.27,-637.49"/>
<polygon fill="midnightblue" stroke="midnightblue" points="228.88,-573.66 219.05,-569.71 224.28,-578.93 228.88,-573.66"/>
</g>
<!-- Node41 -->
<g id="node41" class="node">
<title>Node41</title>
<g id="a_node41"><a xlink:href="classtracktion_1_1engine_1_1ClipTrack.html" target="_top" xlink:title=" ">
<polygon fill="none" stroke="red" points="307.5,-588.5 307.5,-618.5 412.5,-618.5 412.5,-588.5 307.5,-588.5"/>
<text text-anchor="start" x="315.5" y="-606.5" font-family="Helvetica,sans-Serif" font-size="10.00">tracktion::engine::</text>
<text text-anchor="middle" x="360" y="-595.5" font-family="Helvetica,sans-Serif" font-size="10.00">ClipTrack</text>
</a>
</g>
</g>
<!-- Node39&#45;&gt;Node41 -->
<g id="edge40" class="edge">
<title>Node39&#45;&gt;Node41</title>
<path fill="none" stroke="midnightblue" d="M260.35,-572.61C276.99,-577.82 294.95,-583.45 310.93,-588.45"/>
<polygon fill="midnightblue" stroke="midnightblue" points="261.32,-569.25 250.73,-569.6 259.23,-575.93 261.32,-569.25"/>
</g>
<!-- Node46 -->
<g id="node42" class="node">
<title>Node46</title>
<g id="a_node42"><a xlink:href="classtracktion_1_1engine_1_1FolderTrack.html" target="_top" xlink:title=" ">
<polygon fill="none" stroke="black" points="307.5,-539.5 307.5,-569.5 412.5,-569.5 412.5,-539.5 307.5,-539.5"/>
<text text-anchor="start" x="315.5" y="-557.5" font-family="Helvetica,sans-Serif" font-size="10.00">tracktion::engine::</text>
<text text-anchor="middle" x="360" y="-546.5" font-family="Helvetica,sans-Serif" font-size="10.00">FolderTrack</text>
</a>
</g>
</g>
<!-- Node39&#45;&gt;Node46 -->
<g id="edge41" class="edge">
<title>Node39&#45;&gt;Node46</title>
<path fill="none" stroke="midnightblue" d="M264.38,-554.5C278.63,-554.5 293.62,-554.5 307.38,-554.5"/>
<polygon fill="midnightblue" stroke="midnightblue" points="264.18,-551 254.18,-554.5 264.18,-558 264.18,-551"/>
</g>
<!-- Node47 -->
<g id="node43" class="node">
<title>Node47</title>
<g id="a_node43"><a xlink:href="classtracktion_1_1engine_1_1MasterTrack.html" target="_top" xlink:title="A track to represent the master plugins.">
<polygon fill="none" stroke="black" points="307.5,-490.5 307.5,-520.5 412.5,-520.5 412.5,-490.5 307.5,-490.5"/>
<text text-anchor="start" x="315.5" y="-508.5" font-family="Helvetica,sans-Serif" font-size="10.00">tracktion::engine::</text>
<text text-anchor="middle" x="360" y="-497.5" font-family="Helvetica,sans-Serif" font-size="10.00">MasterTrack</text>
</a>
</g>
</g>
<!-- Node39&#45;&gt;Node47 -->
<g id="edge42" class="edge">
<title>Node39&#45;&gt;Node47</title>
<path fill="none" stroke="midnightblue" d="M260.35,-536.39C276.99,-531.18 294.95,-525.55 310.93,-520.55"/>
<polygon fill="midnightblue" stroke="midnightblue" points="259.23,-533.07 250.73,-539.4 261.32,-539.75 259.23,-533.07"/>
</g>
<!-- Node48 -->
<g id="node44" class="node">
<title>Node48</title>
<g id="a_node44"><a xlink:href="classtracktion_1_1engine_1_1TempoTrack.html" target="_top" xlink:title="A track to represent the &quot;global&quot; items such as tempo, key changes etc.">
<polygon fill="none" stroke="black" points="307.5,-441.5 307.5,-471.5 412.5,-471.5 412.5,-441.5 307.5,-441.5"/>
<text text-anchor="start" x="315.5" y="-459.5" font-family="Helvetica,sans-Serif" font-size="10.00">tracktion::engine::</text>
<text text-anchor="middle" x="360" y="-448.5" font-family="Helvetica,sans-Serif" font-size="10.00">TempoTrack</text>
</a>
</g>
</g>
<!-- Node39&#45;&gt;Node48 -->
<g id="edge43" class="edge">
<title>Node39&#45;&gt;Node48</title>
<path fill="none" stroke="midnightblue" d="M227.16,-532.73C245.73,-517.09 272.3,-496.24 298,-481.5 304.25,-477.91 311.12,-474.58 317.93,-471.59"/>
<polygon fill="midnightblue" stroke="midnightblue" points="224.8,-530.14 219.47,-539.3 229.35,-535.47 224.8,-530.14"/>
</g>
<!-- Node50 -->
<g id="node46" class="node">
<title>Node50</title>
<g id="a_node46"><a xlink:href="classtracktion_1_1engine_1_1Clip.html" target="_top" xlink:title="A clip in an edit.">
<polygon fill="none" stroke="red" points="298,-403 298,-422 422,-422 422,-403 298,-403"/>
<text text-anchor="middle" x="360" y="-410" font-family="Helvetica,sans-Serif" font-size="10.00">tracktion::engine::Clip</text>
</a>
</g>
</g>
<!-- Node49&#45;&gt;Node50 -->
<g id="edge45" class="edge">
<title>Node49&#45;&gt;Node50</title>
<path fill="none" stroke="midnightblue" d="M263.92,-385.77C284.74,-391.62 307.24,-397.95 325.12,-402.97"/>
<polygon fill="midnightblue" stroke="midnightblue" points="264.75,-382.37 254.18,-383.03 262.86,-389.11 264.75,-382.37"/>
</g>
<!-- Node59 -->
<g id="node47" class="node">
<title>Node59</title>
<g id="a_node47"><a xlink:href="classtracktion_1_1engine_1_1CollectionClip.html" target="_top" xlink:title=" ">
<polygon fill="none" stroke="black" points="307.5,-353.5 307.5,-383.5 412.5,-383.5 412.5,-353.5 307.5,-353.5"/>
<text text-anchor="start" x="315.5" y="-371.5" font-family="Helvetica,sans-Serif" font-size="10.00">tracktion::engine::</text>
<text text-anchor="middle" x="360" y="-360.5" font-family="Helvetica,sans-Serif" font-size="10.00">CollectionClip</text>
</a>
</g>
</g>
<!-- Node49&#45;&gt;Node59 -->
<g id="edge46" class="edge">
<title>Node49&#45;&gt;Node59</title>
<path fill="none" stroke="midnightblue" d="M264.38,-368.5C278.63,-368.5 293.62,-368.5 307.38,-368.5"/>
<polygon fill="midnightblue" stroke="midnightblue" points="264.18,-365 254.18,-368.5 264.18,-372 264.18,-365"/>
</g>
<!-- Node60 -->
<g id="node48" class="node">
<title>Node60</title>
<g id="a_node48"><a xlink:href="classtracktion_1_1engine_1_1PitchSetting.html" target="_top" xlink:title=" ">
<polygon fill="none" stroke="black" points="307.5,-304.5 307.5,-334.5 412.5,-334.5 412.5,-304.5 307.5,-304.5"/>
<text text-anchor="start" x="315.5" y="-322.5" font-family="Helvetica,sans-Serif" font-size="10.00">tracktion::engine::</text>
<text text-anchor="middle" x="360" y="-311.5" font-family="Helvetica,sans-Serif" font-size="10.00">PitchSetting</text>
</a>
</g>
</g>
<!-- Node49&#45;&gt;Node60 -->
<g id="edge47" class="edge">
<title>Node49&#45;&gt;Node60</title>
<path fill="none" stroke="midnightblue" d="M260.35,-350.39C276.99,-345.18 294.95,-339.55 310.93,-334.55"/>
<polygon fill="midnightblue" stroke="midnightblue" points="259.23,-347.07 250.73,-353.4 261.32,-353.75 259.23,-347.07"/>
</g>
<!-- Node61 -->
<g id="node49" class="node">
<title>Node61</title>
<g id="a_node49"><a xlink:href="classtracktion_1_1engine_1_1TimeSigSetting.html" target="_top" xlink:title=" ">
<polygon fill="none" stroke="black" points="307.5,-255.5 307.5,-285.5 412.5,-285.5 412.5,-255.5 307.5,-255.5"/>
<text text-anchor="start" x="315.5" y="-273.5" font-family="Helvetica,sans-Serif" font-size="10.00">tracktion::engine::</text>
<text text-anchor="middle" x="360" y="-262.5" font-family="Helvetica,sans-Serif" font-size="10.00">TimeSigSetting</text>
</a>
</g>
</g>
<!-- Node49&#45;&gt;Node61 -->
<g id="edge48" class="edge">
<title>Node49&#45;&gt;Node61</title>
<path fill="none" stroke="midnightblue" d="M226.71,-346.59C245.24,-330.64 271.95,-309.31 298,-294.5 303.74,-291.24 310.01,-288.22 316.27,-285.51"/>
<polygon fill="midnightblue" stroke="midnightblue" points="224.28,-344.07 219.05,-353.29 228.88,-349.34 224.28,-344.07"/>
</g>
</g>
</svg>
