<?xml version="1.0" encoding="UTF-8" standalone="no"?>
<!DOCTYPE svg PUBLIC "-//W3C//DTD SVG 1.1//EN"
 "http://www.w3.org/Graphics/SVG/1.1/DTD/svg11.dtd">
<!-- Generated by graphviz version 2.43.0 (0)
 -->
<!-- Title: tracktion::engine::MacroParameterList Pages: 1 -->
<svg width="129pt" height="173pt"
 viewBox="0.00 0.00 129.00 173.00" xmlns="http://www.w3.org/2000/svg" xmlns:xlink="http://www.w3.org/1999/xlink">
<g id="graph0" class="graph" transform="scale(1 1) rotate(0) translate(4 169)">
<title>tracktion::engine::MacroParameterList</title>
<!-- Node1 -->
<g id="node1" class="node">
<title>Node1</title>
<g id="a_node1"><a xlink:title=" ">
<polygon fill="#bfbfbf" stroke="black" points="3.5,-0.5 3.5,-30.5 117.5,-30.5 117.5,-0.5 3.5,-0.5"/>
<text text-anchor="start" x="11.5" y="-18.5" font-family="Helvetica,sans-Serif" font-size="10.00">tracktion::engine::</text>
<text text-anchor="middle" x="60.5" y="-7.5" font-family="Helvetica,sans-Serif" font-size="10.00">MacroParameterList</text>
</a>
</g>
</g>
<!-- Node2 -->
<g id="node2" class="node">
<title>Node2</title>
<g id="a_node2"><a xlink:href="classtracktion_1_1engine_1_1AutomatableEditItem.html" target="_top" xlink:title="Base class for elements that have some kind of automatable parameters.">
<polygon fill="none" stroke="black" points="0,-67.5 0,-97.5 121,-97.5 121,-67.5 0,-67.5"/>
<text text-anchor="start" x="8" y="-85.5" font-family="Helvetica,sans-Serif" font-size="10.00">tracktion::engine::</text>
<text text-anchor="middle" x="60.5" y="-74.5" font-family="Helvetica,sans-Serif" font-size="10.00">AutomatableEditItem</text>
</a>
</g>
</g>
<!-- Node2&#45;&gt;Node1 -->
<g id="edge1" class="edge">
<title>Node2&#45;&gt;Node1</title>
<path fill="none" stroke="midnightblue" d="M60.5,-57.11C60.5,-48.15 60.5,-38.32 60.5,-30.58"/>
<polygon fill="midnightblue" stroke="midnightblue" points="57,-57.4 60.5,-67.4 64,-57.4 57,-57.4"/>
</g>
<!-- Node3 -->
<g id="node3" class="node">
<title>Node3</title>
<g id="a_node3"><a xlink:href="classtracktion_1_1engine_1_1EditItem.html" target="_top" xlink:title="Base class for objects that live inside an edit &#45; e.g.">
<polygon fill="none" stroke="black" points="8,-134.5 8,-164.5 113,-164.5 113,-134.5 8,-134.5"/>
<text text-anchor="start" x="16" y="-152.5" font-family="Helvetica,sans-Serif" font-size="10.00">tracktion::engine::</text>
<text text-anchor="middle" x="60.5" y="-141.5" font-family="Helvetica,sans-Serif" font-size="10.00">EditItem</text>
</a>
</g>
</g>
<!-- Node3&#45;&gt;Node2 -->
<g id="edge2" class="edge">
<title>Node3&#45;&gt;Node2</title>
<path fill="none" stroke="midnightblue" d="M60.5,-124.11C60.5,-115.15 60.5,-105.32 60.5,-97.58"/>
<polygon fill="midnightblue" stroke="midnightblue" points="57,-124.4 60.5,-134.4 64,-124.4 57,-124.4"/>
</g>
</g>
</svg>
