<?xml version="1.0" encoding="UTF-8" standalone="no"?>
<!DOCTYPE svg PUBLIC "-//W3C//DTD SVG 1.1//EN"
 "http://www.w3.org/Graphics/SVG/1.1/DTD/svg11.dtd">
<!-- Generated by graphviz version 2.43.0 (0)
 -->
<!-- Title: tracktion::engine::SingleInputAudioNode Pages: 1 -->
<svg width="444pt" height="182pt"
 viewBox="0.00 0.00 444.00 182.00" xmlns="http://www.w3.org/2000/svg" xmlns:xlink="http://www.w3.org/1999/xlink">
<g id="graph0" class="graph" transform="scale(1 1) rotate(0) translate(4 178)">
<title>tracktion::engine::SingleInputAudioNode</title>
<!-- Node1 -->
<g id="Node000001" class="node">
<title>Node1</title>
<g id="a_Node000001"><a xlink:title=" ">
<polygon fill="#999999" stroke="#666666" points="266,-102 141,-102 141,-72 266,-72 266,-102"/>
<text text-anchor="start" x="149" y="-90" font-family="Helvetica,sans-Serif" font-size="10.00">tracktion::engine::</text>
<text text-anchor="middle" x="203.5" y="-79" font-family="Helvetica,sans-Serif" font-size="10.00">SingleInputAudioNode</text>
</a>
</g>
</g>
<!-- Node3 -->
<g id="Node000003" class="node">
<title>Node3</title>
<g id="a_Node000003"><a xlink:href="classtracktion_1_1engine_1_1FadeInOutAudioNode.html" target="_top" xlink:title="An AudioNode that fades its input node in/out at given times.">
<polygon fill="white" stroke="#666666" points="428.5,-174 309.5,-174 309.5,-144 428.5,-144 428.5,-174"/>
<text text-anchor="start" x="317.5" y="-162" font-family="Helvetica,sans-Serif" font-size="10.00">tracktion::engine::</text>
<text text-anchor="middle" x="369" y="-151" font-family="Helvetica,sans-Serif" font-size="10.00">FadeInOutAudioNode</text>
</a>
</g>
</g>
<!-- Node1&#45;&gt;Node3 -->
<g id="edge2_Node000001_Node000003" class="edge">
<title>Node1&#45;&gt;Node3</title>
<g id="a_edge2_Node000001_Node000003"><a xlink:title=" ">
<path fill="none" stroke="#63b8ff" d="M242.11,-106.71C260.03,-115.79 281.9,-126.43 302,-135 309.18,-138.06 316.89,-141.09 324.42,-143.92"/>
<polygon fill="#63b8ff" stroke="#63b8ff" points="243.62,-103.55 233.13,-102.12 240.44,-109.78 243.62,-103.55"/>
</a>
</g>
</g>
<!-- Node4 -->
<g id="Node000004" class="node">
<title>Node4</title>
<g id="a_Node000004"><a xlink:href="structtracktion_1_1engine_1_1MuteAudioNode.html" target="_top" xlink:title=" ">
<polygon fill="white" stroke="#666666" points="421.5,-126 316.5,-126 316.5,-96 421.5,-96 421.5,-126"/>
<text text-anchor="start" x="324.5" y="-114" font-family="Helvetica,sans-Serif" font-size="10.00">tracktion::engine::</text>
<text text-anchor="middle" x="369" y="-103" font-family="Helvetica,sans-Serif" font-size="10.00">MuteAudioNode</text>
</a>
</g>
</g>
<!-- Node1&#45;&gt;Node4 -->
<g id="edge3_Node000001_Node000004" class="edge">
<title>Node1&#45;&gt;Node4</title>
<g id="a_edge3_Node000001_Node000004"><a xlink:title=" ">
<path fill="none" stroke="#63b8ff" d="M276.52,-97.57C289.98,-99.55 303.81,-101.58 316.5,-103.44"/>
<polygon fill="#63b8ff" stroke="#63b8ff" points="276.71,-94.06 266.31,-96.07 275.7,-100.99 276.71,-94.06"/>
</a>
</g>
</g>
<!-- Node5 -->
<g id="Node000005" class="node">
<title>Node5</title>
<g id="a_Node000005"><a xlink:href="classtracktion_1_1engine_1_1SpeedRampAudioNode.html" target="_top" xlink:title="An AudioNode that speeds up and slows down its input node in/out at given times.">
<polygon fill="white" stroke="#666666" points="433,-78 305,-78 305,-48 433,-48 433,-78"/>
<text text-anchor="start" x="313" y="-66" font-family="Helvetica,sans-Serif" font-size="10.00">tracktion::engine::</text>
<text text-anchor="middle" x="369" y="-55" font-family="Helvetica,sans-Serif" font-size="10.00">SpeedRampAudioNode</text>
</a>
</g>
</g>
<!-- Node1&#45;&gt;Node5 -->
<g id="edge4_Node000001_Node000005" class="edge">
<title>Node1&#45;&gt;Node5</title>
<g id="a_edge4_Node000001_Node000005"><a xlink:title=" ">
<path fill="none" stroke="#63b8ff" d="M276.45,-76.44C285.87,-75.06 295.47,-73.65 304.74,-72.29"/>
<polygon fill="#63b8ff" stroke="#63b8ff" points="275.7,-73.01 266.31,-77.93 276.71,-79.94 275.7,-73.01"/>
</a>
</g>
</g>
<!-- Node6 -->
<g id="Node000006" class="node">
<title>Node6</title>
<g id="a_Node000006"><a xlink:href="classtracktion_1_1engine_1_1TimedMutingAudioNode.html" target="_top" xlink:title=" ">
<polygon fill="white" stroke="#666666" points="436,-30 302,-30 302,0 436,0 436,-30"/>
<text text-anchor="start" x="310" y="-18" font-family="Helvetica,sans-Serif" font-size="10.00">tracktion::engine::</text>
<text text-anchor="middle" x="369" y="-7" font-family="Helvetica,sans-Serif" font-size="10.00">TimedMutingAudioNode</text>
</a>
</g>
</g>
<!-- Node1&#45;&gt;Node6 -->
<g id="edge5_Node000001_Node000006" class="edge">
<title>Node1&#45;&gt;Node6</title>
<g id="a_edge5_Node000001_Node000006"><a xlink:title=" ">
<path fill="none" stroke="#63b8ff" d="M242.11,-67.29C260.03,-58.21 281.9,-47.57 302,-39 309.18,-35.94 316.89,-32.91 324.42,-30.08"/>
<polygon fill="#63b8ff" stroke="#63b8ff" points="240.44,-64.22 233.13,-71.88 243.62,-70.45 240.44,-64.22"/>
</a>
</g>
</g>
<!-- Node2 -->
<g id="Node000002" class="node">
<title>Node2</title>
<g id="a_Node000002"><a xlink:href="classtracktion_1_1engine_1_1AudioNode.html" target="_top" xlink:title="Base class for nodes in an audio playback graph.">
<polygon fill="white" stroke="#666666" points="105,-102 0,-102 0,-72 105,-72 105,-102"/>
<text text-anchor="start" x="8" y="-90" font-family="Helvetica,sans-Serif" font-size="10.00">tracktion::engine::</text>
<text text-anchor="middle" x="52.5" y="-79" font-family="Helvetica,sans-Serif" font-size="10.00">AudioNode</text>
</a>
</g>
</g>
<!-- Node2&#45;&gt;Node1 -->
<g id="edge1_Node000001_Node000002" class="edge">
<title>Node2&#45;&gt;Node1</title>
<g id="a_edge1_Node000001_Node000002"><a xlink:title=" ">
<path fill="none" stroke="#63b8ff" d="M115.35,-87C123.79,-87 132.46,-87 140.9,-87"/>
<polygon fill="#63b8ff" stroke="#63b8ff" points="115.19,-83.5 105.19,-87 115.19,-90.5 115.19,-83.5"/>
</a>
</g>
</g>
</g>
</svg>
