<?xml version="1.0" encoding="UTF-8" standalone="no"?>
<!DOCTYPE svg PUBLIC "-//W3C//DTD SVG 1.1//EN"
 "http://www.w3.org/Graphics/SVG/1.1/DTD/svg11.dtd">
<!-- Generated by graphviz version 2.40.1 (20161225.0304)
 -->
<!-- Title: tracktion_engine::TempoTrack Pages: 1 -->
<svg width="514pt" height="116pt"
 viewBox="0.00 0.00 514.00 115.50" xmlns="http://www.w3.org/2000/svg" xmlns:xlink="http://www.w3.org/1999/xlink">
<g id="graph0" class="graph" transform="scale(1 1) rotate(0) translate(4 111.5)">
<title>tracktion_engine::TempoTrack</title>
<!-- Node0 -->
<g id="node1" class="node">
<title>Node0</title>
<polygon fill="#bfbfbf" stroke="#000000" points="357,-50 357,-69 506,-69 506,-50 357,-50"/>
<text text-anchor="middle" x="431.5" y="-57" font-family="Helvetica,sans-Serif" font-size="10.00" fill="#000000">tracktion_engine::TempoTrack</text>
</g>
<!-- Node1 -->
<g id="node2" class="node">
<title>Node1</title>
<g id="a_node2"><a xlink:href="classtracktion__engine_1_1Track.html" target="_top" xlink:title="tracktion_engine::Track">
<polygon fill="none" stroke="#000000" points="202,-50 202,-69 321,-69 321,-50 202,-50"/>
<text text-anchor="middle" x="261.5" y="-57" font-family="Helvetica,sans-Serif" font-size="10.00" fill="#000000">tracktion_engine::Track</text>
</a>
</g>
</g>
<!-- Node1&#45;&gt;Node0 -->
<g id="edge1" class="edge">
<title>Node1&#45;&gt;Node0</title>
<path fill="none" stroke="#191970" d="M331.5282,-59.5C339.9024,-59.5 348.4768,-59.5 356.9123,-59.5"/>
<polygon fill="#191970" stroke="#191970" points="331.4357,-56.0001 321.4356,-59.5 331.4356,-63.0001 331.4357,-56.0001"/>
</g>
<!-- Node2 -->
<g id="node3" class="node">
<title>Node2</title>
<g id="a_node3"><a xlink:href="classtracktion__engine_1_1EditItem.html" target="_top" xlink:title="Base class for objects that live inside an edit &#45; e.g. ">
<polygon fill="none" stroke="#000000" points="17.5,-88 17.5,-107 148.5,-107 148.5,-88 17.5,-88"/>
<text text-anchor="middle" x="83" y="-95" font-family="Helvetica,sans-Serif" font-size="10.00" fill="#000000">tracktion_engine::EditItem</text>
</a>
</g>
</g>
<!-- Node2&#45;&gt;Node1 -->
<g id="edge2" class="edge">
<title>Node2&#45;&gt;Node1</title>
<path fill="none" stroke="#191970" d="M137.8699,-85.819C163.1836,-80.4301 192.8529,-74.1139 216.7808,-69.0201"/>
<polygon fill="#191970" stroke="#191970" points="137.0951,-82.4054 128.0431,-87.911 138.5527,-89.252 137.0951,-82.4054"/>
</g>
<!-- Node3 -->
<g id="node4" class="node">
<title>Node3</title>
<g id="a_node4"><a xlink:href="classtracktion__engine_1_1Selectable.html" target="_top" xlink:title="Base class for things that can be selected, and whose properties can appear in the properties panel...">
<polygon fill="none" stroke="#000000" points="13,-50 13,-69 153,-69 153,-50 13,-50"/>
<text text-anchor="middle" x="83" y="-57" font-family="Helvetica,sans-Serif" font-size="10.00" fill="#000000">tracktion_engine::Selectable</text>
</a>
</g>
</g>
<!-- Node3&#45;&gt;Node1 -->
<g id="edge3" class="edge">
<title>Node3&#45;&gt;Node1</title>
<path fill="none" stroke="#191970" d="M163.33,-59.5C176.2598,-59.5 189.4419,-59.5 201.7761,-59.5"/>
<polygon fill="#191970" stroke="#191970" points="163.0356,-56.0001 153.0356,-59.5 163.0356,-63.0001 163.0356,-56.0001"/>
</g>
<!-- Node4 -->
<g id="node5" class="node">
<title>Node4</title>
<g id="a_node5"><a xlink:href="classtracktion__engine_1_1MacroParameterElement.html" target="_top" xlink:title="Base class for elements which can contain macro parameters. ">
<polygon fill="none" stroke="#000000" points="0,-.5 0,-30.5 166,-30.5 166,-.5 0,-.5"/>
<text text-anchor="start" x="8" y="-18.5" font-family="Helvetica,sans-Serif" font-size="10.00" fill="#000000">tracktion_engine::MacroParameter</text>
<text text-anchor="middle" x="83" y="-7.5" font-family="Helvetica,sans-Serif" font-size="10.00" fill="#000000">Element</text>
</a>
</g>
</g>
<!-- Node4&#45;&gt;Node1 -->
<g id="edge4" class="edge">
<title>Node4&#45;&gt;Node1</title>
<path fill="none" stroke="#191970" d="M153.8891,-32.9741C177.4278,-38.7763 202.7475,-45.0176 222.9098,-49.9876"/>
<polygon fill="#191970" stroke="#191970" points="154.4774,-29.5144 143.9303,-30.5192 152.802,-36.3109 154.4774,-29.5144"/>
</g>
</g>
</svg>
