<?xml version="1.0" encoding="UTF-8" standalone="no"?>
<!DOCTYPE svg PUBLIC "-//W3C//DTD SVG 1.1//EN"
 "http://www.w3.org/Graphics/SVG/1.1/DTD/svg11.dtd">
<!-- Generated by graphviz version 2.43.0 (0)
 -->
<!-- Title: tracktion::engine::Plugin Pages: 1 -->
<svg width="602pt" height="1313pt"
 viewBox="0.00 0.00 602.00 1313.00" xmlns="http://www.w3.org/2000/svg" xmlns:xlink="http://www.w3.org/1999/xlink">
<g id="graph0" class="graph" transform="scale(1 1) rotate(0) translate(4 1309)">
<title>tracktion::engine::Plugin</title>
<!-- Node1 -->
<g id="node1" class="node">
<title>Node1</title>
<g id="a_node1"><a xlink:title=" ">
<polygon fill="#bfbfbf" stroke="black" points="320,-637.5 320,-667.5 425,-667.5 425,-637.5 320,-637.5"/>
<text text-anchor="start" x="328" y="-655.5" font-family="Helvetica,sans-Serif" font-size="10.00">tracktion::engine::</text>
<text text-anchor="middle" x="372.5" y="-644.5" font-family="Helvetica,sans-Serif" font-size="10.00">Plugin</text>
</a>
</g>
</g>
<!-- Node8 -->
<g id="node8" class="node">
<title>Node8</title>
<g id="a_node8"><a xlink:href="classtracktion_1_1engine_1_1AirWindowsPlugin.html" target="_top" xlink:title=" ">
<polygon fill="none" stroke="black" points="475,-1274.5 475,-1304.5 580,-1304.5 580,-1274.5 475,-1274.5"/>
<text text-anchor="start" x="483" y="-1292.5" font-family="Helvetica,sans-Serif" font-size="10.00">tracktion::engine::</text>
<text text-anchor="middle" x="527.5" y="-1281.5" font-family="Helvetica,sans-Serif" font-size="10.00">AirWindowsPlugin</text>
</a>
</g>
</g>
<!-- Node1&#45;&gt;Node8 -->
<g id="edge7" class="edge">
<title>Node1&#45;&gt;Node8</title>
<path fill="none" stroke="midnightblue" d="M373.76,-677.95C375.31,-781.89 386.1,-1173 461,-1265.5 464.81,-1270.21 469.63,-1273.99 474.92,-1277.03"/>
<polygon fill="midnightblue" stroke="midnightblue" points="377.26,-677.72 373.62,-667.76 370.26,-677.81 377.26,-677.72"/>
</g>
<!-- Node9 -->
<g id="node9" class="node">
<title>Node9</title>
<g id="a_node9"><a xlink:href="classtracktion_1_1engine_1_1AuxReturnPlugin.html" target="_top" xlink:title=" ">
<polygon fill="none" stroke="black" points="475,-1225.5 475,-1255.5 580,-1255.5 580,-1225.5 475,-1225.5"/>
<text text-anchor="start" x="483" y="-1243.5" font-family="Helvetica,sans-Serif" font-size="10.00">tracktion::engine::</text>
<text text-anchor="middle" x="527.5" y="-1232.5" font-family="Helvetica,sans-Serif" font-size="10.00">AuxReturnPlugin</text>
</a>
</g>
</g>
<!-- Node1&#45;&gt;Node9 -->
<g id="edge8" class="edge">
<title>Node1&#45;&gt;Node9</title>
<path fill="none" stroke="midnightblue" d="M374.1,-677.8C376.94,-776.2 391.89,-1132.2 461,-1216.5 464.84,-1221.18 469.68,-1224.95 474.98,-1227.99"/>
<polygon fill="midnightblue" stroke="midnightblue" points="377.6,-677.5 373.83,-667.6 370.6,-677.69 377.6,-677.5"/>
</g>
<!-- Node10 -->
<g id="node10" class="node">
<title>Node10</title>
<g id="a_node10"><a xlink:href="classtracktion_1_1engine_1_1AuxSendPlugin.html" target="_top" xlink:title=" ">
<polygon fill="none" stroke="black" points="475,-1176.5 475,-1206.5 580,-1206.5 580,-1176.5 475,-1176.5"/>
<text text-anchor="start" x="483" y="-1194.5" font-family="Helvetica,sans-Serif" font-size="10.00">tracktion::engine::</text>
<text text-anchor="middle" x="527.5" y="-1183.5" font-family="Helvetica,sans-Serif" font-size="10.00">AuxSendPlugin</text>
</a>
</g>
</g>
<!-- Node1&#45;&gt;Node10 -->
<g id="edge9" class="edge">
<title>Node1&#45;&gt;Node10</title>
<path fill="none" stroke="midnightblue" d="M374.51,-677.67C378.71,-770.39 397.67,-1091.38 461,-1167.5 464.8,-1172.06 469.54,-1175.76 474.72,-1178.75"/>
<polygon fill="midnightblue" stroke="midnightblue" points="378,-677.37 374.07,-667.53 371.01,-677.67 378,-677.37"/>
</g>
<!-- Node11 -->
<g id="node11" class="node">
<title>Node11</title>
<g id="a_node11"><a xlink:href="classtracktion_1_1engine_1_1ChorusPlugin.html" target="_top" xlink:title=" ">
<polygon fill="none" stroke="black" points="475,-1127.5 475,-1157.5 580,-1157.5 580,-1127.5 475,-1127.5"/>
<text text-anchor="start" x="483" y="-1145.5" font-family="Helvetica,sans-Serif" font-size="10.00">tracktion::engine::</text>
<text text-anchor="middle" x="527.5" y="-1134.5" font-family="Helvetica,sans-Serif" font-size="10.00">ChorusPlugin</text>
</a>
</g>
</g>
<!-- Node1&#45;&gt;Node11 -->
<g id="edge10" class="edge">
<title>Node1&#45;&gt;Node11</title>
<path fill="none" stroke="midnightblue" d="M375.01,-677.8C380.7,-764.88 403.49,-1050.57 461,-1118.5 464.83,-1123.03 469.6,-1126.7 474.8,-1129.68"/>
<polygon fill="midnightblue" stroke="midnightblue" points="378.5,-677.51 374.38,-667.75 371.52,-677.95 378.5,-677.51"/>
</g>
<!-- Node12 -->
<g id="node12" class="node">
<title>Node12</title>
<g id="a_node12"><a xlink:href="classtracktion_1_1engine_1_1CompressorPlugin.html" target="_top" xlink:title=" ">
<polygon fill="none" stroke="black" points="475,-1078.5 475,-1108.5 580,-1108.5 580,-1078.5 475,-1078.5"/>
<text text-anchor="start" x="483" y="-1096.5" font-family="Helvetica,sans-Serif" font-size="10.00">tracktion::engine::</text>
<text text-anchor="middle" x="527.5" y="-1085.5" font-family="Helvetica,sans-Serif" font-size="10.00">CompressorPlugin</text>
</a>
</g>
</g>
<!-- Node1&#45;&gt;Node12 -->
<g id="edge11" class="edge">
<title>Node1&#45;&gt;Node12</title>
<path fill="none" stroke="midnightblue" d="M375.67,-678.27C383,-759.73 409.35,-1009.79 461,-1069.5 464.88,-1073.99 469.68,-1077.64 474.9,-1080.6"/>
<polygon fill="midnightblue" stroke="midnightblue" points="379.12,-677.59 374.76,-667.93 372.15,-678.2 379.12,-677.59"/>
</g>
<!-- Node13 -->
<g id="node13" class="node">
<title>Node13</title>
<g id="a_node13"><a xlink:href="classtracktion_1_1engine_1_1DelayPlugin.html" target="_top" xlink:title=" ">
<polygon fill="none" stroke="black" points="475,-1029.5 475,-1059.5 580,-1059.5 580,-1029.5 475,-1029.5"/>
<text text-anchor="start" x="483" y="-1047.5" font-family="Helvetica,sans-Serif" font-size="10.00">tracktion::engine::</text>
<text text-anchor="middle" x="527.5" y="-1036.5" font-family="Helvetica,sans-Serif" font-size="10.00">DelayPlugin</text>
</a>
</g>
</g>
<!-- Node1&#45;&gt;Node13 -->
<g id="edge12" class="edge">
<title>Node1&#45;&gt;Node13</title>
<path fill="none" stroke="midnightblue" d="M376.43,-678.15C385.47,-752.94 415.05,-968.79 461,-1020.5 464.86,-1024.85 469.58,-1028.4 474.69,-1031.32"/>
<polygon fill="midnightblue" stroke="midnightblue" points="379.86,-677.31 375.21,-667.79 372.91,-678.13 379.86,-677.31"/>
</g>
<!-- Node14 -->
<g id="node14" class="node">
<title>Node14</title>
<g id="a_node14"><a xlink:href="classtracktion_1_1engine_1_1EqualiserPlugin.html" target="_top" xlink:title=" ">
<polygon fill="none" stroke="black" points="475,-980.5 475,-1010.5 580,-1010.5 580,-980.5 475,-980.5"/>
<text text-anchor="start" x="483" y="-998.5" font-family="Helvetica,sans-Serif" font-size="10.00">tracktion::engine::</text>
<text text-anchor="middle" x="527.5" y="-987.5" font-family="Helvetica,sans-Serif" font-size="10.00">EqualiserPlugin</text>
</a>
</g>
</g>
<!-- Node1&#45;&gt;Node14 -->
<g id="edge13" class="edge">
<title>Node1&#45;&gt;Node14</title>
<path fill="none" stroke="midnightblue" d="M373.06,-678.13C373.43,-737.58 382.66,-886.33 461,-971.5 464.94,-975.78 469.7,-979.3 474.84,-982.19"/>
<polygon fill="midnightblue" stroke="midnightblue" points="376.56,-677.79 373.08,-667.78 369.56,-677.78 376.56,-677.79"/>
</g>
<!-- Node15 -->
<g id="node15" class="node">
<title>Node15</title>
<g id="a_node15"><a xlink:href="classtracktion_1_1engine_1_1ExternalPlugin.html" target="_top" xlink:title=" ">
<polygon fill="none" stroke="black" points="475,-931.5 475,-961.5 580,-961.5 580,-931.5 475,-931.5"/>
<text text-anchor="start" x="483" y="-949.5" font-family="Helvetica,sans-Serif" font-size="10.00">tracktion::engine::</text>
<text text-anchor="middle" x="527.5" y="-938.5" font-family="Helvetica,sans-Serif" font-size="10.00">ExternalPlugin</text>
</a>
</g>
</g>
<!-- Node1&#45;&gt;Node15 -->
<g id="edge14" class="edge">
<title>Node1&#45;&gt;Node15</title>
<path fill="none" stroke="midnightblue" d="M374.57,-677.78C378.15,-730.39 393.67,-852.58 461,-922.5 464.95,-926.6 469.65,-930 474.71,-932.83"/>
<polygon fill="midnightblue" stroke="midnightblue" points="378.06,-677.43 373.98,-667.65 371.07,-677.84 378.06,-677.43"/>
</g>
<!-- Node16 -->
<g id="node16" class="node">
<title>Node16</title>
<g id="a_node16"><a xlink:href="classtracktion_1_1engine_1_1FourOscPlugin.html" target="_top" xlink:title=" ">
<polygon fill="none" stroke="black" points="475,-882.5 475,-912.5 580,-912.5 580,-882.5 475,-882.5"/>
<text text-anchor="start" x="483" y="-900.5" font-family="Helvetica,sans-Serif" font-size="10.00">tracktion::engine::</text>
<text text-anchor="middle" x="527.5" y="-889.5" font-family="Helvetica,sans-Serif" font-size="10.00">FourOscPlugin</text>
</a>
</g>
</g>
<!-- Node1&#45;&gt;Node16 -->
<g id="edge15" class="edge">
<title>Node1&#45;&gt;Node16</title>
<path fill="none" stroke="midnightblue" d="M376.72,-677.86C383.78,-723.24 404.76,-818.69 461,-873.5 465.08,-877.47 469.86,-880.8 474.96,-883.57"/>
<polygon fill="midnightblue" stroke="midnightblue" points="380.14,-677.1 375.24,-667.71 373.22,-678.11 380.14,-677.1"/>
</g>
<!-- Node17 -->
<g id="node17" class="node">
<title>Node17</title>
<g id="a_node17"><a xlink:href="classtracktion_1_1engine_1_1FreezePointPlugin.html" target="_top" xlink:title=" ">
<polygon fill="none" stroke="black" points="475,-833.5 475,-863.5 580,-863.5 580,-833.5 475,-833.5"/>
<text text-anchor="start" x="483" y="-851.5" font-family="Helvetica,sans-Serif" font-size="10.00">tracktion::engine::</text>
<text text-anchor="middle" x="527.5" y="-840.5" font-family="Helvetica,sans-Serif" font-size="10.00">FreezePointPlugin</text>
</a>
</g>
</g>
<!-- Node1&#45;&gt;Node17 -->
<g id="edge16" class="edge">
<title>Node1&#45;&gt;Node17</title>
<path fill="none" stroke="midnightblue" d="M379.93,-677.7C390.65,-714.84 415.61,-784.23 461,-824.5 465.17,-828.2 469.95,-831.34 475,-834.01"/>
<polygon fill="midnightblue" stroke="midnightblue" points="383.2,-676.41 377.16,-667.7 376.46,-678.27 383.2,-676.41"/>
</g>
<!-- Node18 -->
<g id="node18" class="node">
<title>Node18</title>
<g id="a_node18"><a xlink:href="classtracktion_1_1engine_1_1ImpulseResponsePlugin.html" target="_top" xlink:title="ImpulseResponsePlugin that loads an impulse response and applies it the audio stream.">
<polygon fill="none" stroke="black" points="461,-784.5 461,-814.5 594,-814.5 594,-784.5 461,-784.5"/>
<text text-anchor="start" x="469" y="-802.5" font-family="Helvetica,sans-Serif" font-size="10.00">tracktion::engine::</text>
<text text-anchor="middle" x="527.5" y="-791.5" font-family="Helvetica,sans-Serif" font-size="10.00">ImpulseResponsePlugin</text>
</a>
</g>
</g>
<!-- Node1&#45;&gt;Node18 -->
<g id="edge17" class="edge">
<title>Node1&#45;&gt;Node18</title>
<path fill="none" stroke="midnightblue" d="M384.96,-676.56C399.2,-704.07 425.96,-748.76 461,-775.5 465.43,-778.88 470.38,-781.82 475.52,-784.37"/>
<polygon fill="midnightblue" stroke="midnightblue" points="388.07,-674.96 380.45,-667.6 381.82,-678.1 388.07,-674.96"/>
</g>
<!-- Node19 -->
<g id="node19" class="node">
<title>Node19</title>
<g id="a_node19"><a xlink:href="classtracktion_1_1engine_1_1InsertPlugin.html" target="_top" xlink:title=" ">
<polygon fill="none" stroke="black" points="475,-735.5 475,-765.5 580,-765.5 580,-735.5 475,-735.5"/>
<text text-anchor="start" x="483" y="-753.5" font-family="Helvetica,sans-Serif" font-size="10.00">tracktion::engine::</text>
<text text-anchor="middle" x="527.5" y="-742.5" font-family="Helvetica,sans-Serif" font-size="10.00">InsertPlugin</text>
</a>
</g>
</g>
<!-- Node1&#45;&gt;Node19 -->
<g id="edge18" class="edge">
<title>Node1&#45;&gt;Node19</title>
<path fill="none" stroke="midnightblue" d="M395.64,-675.08C412.4,-691.15 436.61,-712.32 461,-726.5 466.65,-729.79 472.84,-732.76 479.07,-735.39"/>
<polygon fill="midnightblue" stroke="midnightblue" points="397.65,-672.14 388.05,-667.65 392.75,-677.14 397.65,-672.14"/>
</g>
<!-- Node20 -->
<g id="node20" class="node">
<title>Node20</title>
<g id="a_node20"><a xlink:href="classtracktion_1_1engine_1_1LatencyPlugin.html" target="_top" xlink:title="A test plugin that introduces latency to the incomming signal.">
<polygon fill="none" stroke="black" points="475,-686.5 475,-716.5 580,-716.5 580,-686.5 475,-686.5"/>
<text text-anchor="start" x="483" y="-704.5" font-family="Helvetica,sans-Serif" font-size="10.00">tracktion::engine::</text>
<text text-anchor="middle" x="527.5" y="-693.5" font-family="Helvetica,sans-Serif" font-size="10.00">LatencyPlugin</text>
</a>
</g>
</g>
<!-- Node1&#45;&gt;Node20 -->
<g id="edge19" class="edge">
<title>Node1&#45;&gt;Node20</title>
<path fill="none" stroke="midnightblue" d="M430.51,-670.76C446.65,-675.93 464.03,-681.49 479.5,-686.45"/>
<polygon fill="midnightblue" stroke="midnightblue" points="431.24,-667.32 420.65,-667.6 429.11,-673.98 431.24,-667.32"/>
</g>
<!-- Node21 -->
<g id="node21" class="node">
<title>Node21</title>
<g id="a_node21"><a xlink:href="classtracktion_1_1engine_1_1LevelMeterPlugin.html" target="_top" xlink:title=" ">
<polygon fill="none" stroke="black" points="475,-637.5 475,-667.5 580,-667.5 580,-637.5 475,-637.5"/>
<text text-anchor="start" x="483" y="-655.5" font-family="Helvetica,sans-Serif" font-size="10.00">tracktion::engine::</text>
<text text-anchor="middle" x="527.5" y="-644.5" font-family="Helvetica,sans-Serif" font-size="10.00">LevelMeterPlugin</text>
</a>
</g>
</g>
<!-- Node1&#45;&gt;Node21 -->
<g id="edge20" class="edge">
<title>Node1&#45;&gt;Node21</title>
<path fill="none" stroke="midnightblue" d="M435.58,-652.5C448.59,-652.5 462.17,-652.5 474.75,-652.5"/>
<polygon fill="midnightblue" stroke="midnightblue" points="435.3,-649 425.3,-652.5 435.3,-656 435.3,-649"/>
</g>
<!-- Node22 -->
<g id="node22" class="node">
<title>Node22</title>
<g id="a_node22"><a xlink:href="classtracktion_1_1engine_1_1LowPassPlugin.html" target="_top" xlink:title=" ">
<polygon fill="none" stroke="black" points="475,-588.5 475,-618.5 580,-618.5 580,-588.5 475,-588.5"/>
<text text-anchor="start" x="483" y="-606.5" font-family="Helvetica,sans-Serif" font-size="10.00">tracktion::engine::</text>
<text text-anchor="middle" x="527.5" y="-595.5" font-family="Helvetica,sans-Serif" font-size="10.00">LowPassPlugin</text>
</a>
</g>
</g>
<!-- Node1&#45;&gt;Node22 -->
<g id="edge21" class="edge">
<title>Node1&#45;&gt;Node22</title>
<path fill="none" stroke="midnightblue" d="M430.51,-634.24C446.65,-629.07 464.03,-623.51 479.5,-618.55"/>
<polygon fill="midnightblue" stroke="midnightblue" points="429.11,-631.02 420.65,-637.4 431.24,-637.68 429.11,-631.02"/>
</g>
<!-- Node23 -->
<g id="node23" class="node">
<title>Node23</title>
<g id="a_node23"><a xlink:href="classtracktion_1_1engine_1_1MidiModifierPlugin.html" target="_top" xlink:title=" ">
<polygon fill="none" stroke="black" points="474,-539.5 474,-569.5 581,-569.5 581,-539.5 474,-539.5"/>
<text text-anchor="start" x="482" y="-557.5" font-family="Helvetica,sans-Serif" font-size="10.00">tracktion::engine::</text>
<text text-anchor="middle" x="527.5" y="-546.5" font-family="Helvetica,sans-Serif" font-size="10.00">MidiModifierPlugin</text>
</a>
</g>
</g>
<!-- Node1&#45;&gt;Node23 -->
<g id="edge22" class="edge">
<title>Node1&#45;&gt;Node23</title>
<path fill="none" stroke="midnightblue" d="M395.64,-629.92C412.4,-613.85 436.61,-592.68 461,-578.5 466.65,-575.21 472.84,-572.24 479.07,-569.61"/>
<polygon fill="midnightblue" stroke="midnightblue" points="392.75,-627.86 388.05,-637.35 397.65,-632.86 392.75,-627.86"/>
</g>
<!-- Node24 -->
<g id="node24" class="node">
<title>Node24</title>
<g id="a_node24"><a xlink:href="classtracktion_1_1engine_1_1MidiPatchBayPlugin.html" target="_top" xlink:title=" ">
<polygon fill="none" stroke="black" points="471,-490.5 471,-520.5 584,-520.5 584,-490.5 471,-490.5"/>
<text text-anchor="start" x="479" y="-508.5" font-family="Helvetica,sans-Serif" font-size="10.00">tracktion::engine::</text>
<text text-anchor="middle" x="527.5" y="-497.5" font-family="Helvetica,sans-Serif" font-size="10.00">MidiPatchBayPlugin</text>
</a>
</g>
</g>
<!-- Node1&#45;&gt;Node24 -->
<g id="edge23" class="edge">
<title>Node1&#45;&gt;Node24</title>
<path fill="none" stroke="midnightblue" d="M384.96,-628.44C399.2,-600.93 425.96,-556.24 461,-529.5 465.43,-526.12 470.38,-523.18 475.52,-520.63"/>
<polygon fill="midnightblue" stroke="midnightblue" points="381.82,-626.9 380.45,-637.4 388.07,-630.04 381.82,-626.9"/>
</g>
<!-- Node25 -->
<g id="node25" class="node">
<title>Node25</title>
<g id="a_node25"><a xlink:href="classtracktion_1_1engine_1_1PatchBayPlugin.html" target="_top" xlink:title=" ">
<polygon fill="none" stroke="black" points="475,-441.5 475,-471.5 580,-471.5 580,-441.5 475,-441.5"/>
<text text-anchor="start" x="483" y="-459.5" font-family="Helvetica,sans-Serif" font-size="10.00">tracktion::engine::</text>
<text text-anchor="middle" x="527.5" y="-448.5" font-family="Helvetica,sans-Serif" font-size="10.00">PatchBayPlugin</text>
</a>
</g>
</g>
<!-- Node1&#45;&gt;Node25 -->
<g id="edge24" class="edge">
<title>Node1&#45;&gt;Node25</title>
<path fill="none" stroke="midnightblue" d="M379.93,-627.3C390.65,-590.16 415.61,-520.77 461,-480.5 465.17,-476.8 469.95,-473.66 475,-470.99"/>
<polygon fill="midnightblue" stroke="midnightblue" points="376.46,-626.73 377.16,-637.3 383.2,-628.59 376.46,-626.73"/>
</g>
<!-- Node26 -->
<g id="node26" class="node">
<title>Node26</title>
<g id="a_node26"><a xlink:href="classtracktion_1_1engine_1_1PhaserPlugin.html" target="_top" xlink:title=" ">
<polygon fill="none" stroke="black" points="475,-392.5 475,-422.5 580,-422.5 580,-392.5 475,-392.5"/>
<text text-anchor="start" x="483" y="-410.5" font-family="Helvetica,sans-Serif" font-size="10.00">tracktion::engine::</text>
<text text-anchor="middle" x="527.5" y="-399.5" font-family="Helvetica,sans-Serif" font-size="10.00">PhaserPlugin</text>
</a>
</g>
</g>
<!-- Node1&#45;&gt;Node26 -->
<g id="edge25" class="edge">
<title>Node1&#45;&gt;Node26</title>
<path fill="none" stroke="midnightblue" d="M376.72,-627.14C383.78,-581.76 404.76,-486.31 461,-431.5 465.08,-427.53 469.86,-424.2 474.96,-421.43"/>
<polygon fill="midnightblue" stroke="midnightblue" points="373.22,-626.89 375.24,-637.29 380.14,-627.9 373.22,-626.89"/>
</g>
<!-- Node27 -->
<g id="node27" class="node">
<title>Node27</title>
<g id="a_node27"><a xlink:href="classtracktion_1_1engine_1_1PitchShiftPlugin.html" target="_top" xlink:title=" ">
<polygon fill="none" stroke="black" points="475,-343.5 475,-373.5 580,-373.5 580,-343.5 475,-343.5"/>
<text text-anchor="start" x="483" y="-361.5" font-family="Helvetica,sans-Serif" font-size="10.00">tracktion::engine::</text>
<text text-anchor="middle" x="527.5" y="-350.5" font-family="Helvetica,sans-Serif" font-size="10.00">PitchShiftPlugin</text>
</a>
</g>
</g>
<!-- Node1&#45;&gt;Node27 -->
<g id="edge26" class="edge">
<title>Node1&#45;&gt;Node27</title>
<path fill="none" stroke="midnightblue" d="M374.57,-627.22C378.15,-574.61 393.67,-452.42 461,-382.5 464.95,-378.4 469.65,-375 474.71,-372.17"/>
<polygon fill="midnightblue" stroke="midnightblue" points="371.07,-627.16 373.98,-637.35 378.06,-627.57 371.07,-627.16"/>
</g>
<!-- Node28 -->
<g id="node28" class="node">
<title>Node28</title>
<g id="a_node28"><a xlink:href="classtracktion_1_1engine_1_1RackInstance.html" target="_top" xlink:title=" ">
<polygon fill="none" stroke="black" points="475,-294.5 475,-324.5 580,-324.5 580,-294.5 475,-294.5"/>
<text text-anchor="start" x="483" y="-312.5" font-family="Helvetica,sans-Serif" font-size="10.00">tracktion::engine::</text>
<text text-anchor="middle" x="527.5" y="-301.5" font-family="Helvetica,sans-Serif" font-size="10.00">RackInstance</text>
</a>
</g>
</g>
<!-- Node1&#45;&gt;Node28 -->
<g id="edge27" class="edge">
<title>Node1&#45;&gt;Node28</title>
<path fill="none" stroke="midnightblue" d="M373.06,-626.87C373.43,-567.42 382.66,-418.67 461,-333.5 464.94,-329.22 469.7,-325.7 474.84,-322.81"/>
<polygon fill="midnightblue" stroke="midnightblue" points="369.56,-627.22 373.08,-637.22 376.56,-627.21 369.56,-627.22"/>
</g>
<!-- Node29 -->
<g id="node29" class="node">
<title>Node29</title>
<g id="a_node29"><a xlink:href="classtracktion_1_1engine_1_1ReverbPlugin.html" target="_top" xlink:title=" ">
<polygon fill="none" stroke="black" points="475,-245.5 475,-275.5 580,-275.5 580,-245.5 475,-245.5"/>
<text text-anchor="start" x="483" y="-263.5" font-family="Helvetica,sans-Serif" font-size="10.00">tracktion::engine::</text>
<text text-anchor="middle" x="527.5" y="-252.5" font-family="Helvetica,sans-Serif" font-size="10.00">ReverbPlugin</text>
</a>
</g>
</g>
<!-- Node1&#45;&gt;Node29 -->
<g id="edge28" class="edge">
<title>Node1&#45;&gt;Node29</title>
<path fill="none" stroke="midnightblue" d="M376.43,-626.85C385.47,-552.06 415.05,-336.21 461,-284.5 464.86,-280.15 469.58,-276.6 474.69,-273.68"/>
<polygon fill="midnightblue" stroke="midnightblue" points="372.91,-626.87 375.21,-637.21 379.86,-627.69 372.91,-626.87"/>
</g>
<!-- Node30 -->
<g id="node30" class="node">
<title>Node30</title>
<g id="a_node30"><a xlink:href="classtracktion_1_1engine_1_1SamplerPlugin.html" target="_top" xlink:title=" ">
<polygon fill="none" stroke="black" points="475,-196.5 475,-226.5 580,-226.5 580,-196.5 475,-196.5"/>
<text text-anchor="start" x="483" y="-214.5" font-family="Helvetica,sans-Serif" font-size="10.00">tracktion::engine::</text>
<text text-anchor="middle" x="527.5" y="-203.5" font-family="Helvetica,sans-Serif" font-size="10.00">SamplerPlugin</text>
</a>
</g>
</g>
<!-- Node1&#45;&gt;Node30 -->
<g id="edge29" class="edge">
<title>Node1&#45;&gt;Node30</title>
<path fill="none" stroke="midnightblue" d="M375.67,-626.73C383,-545.27 409.35,-295.21 461,-235.5 464.88,-231.01 469.68,-227.36 474.9,-224.4"/>
<polygon fill="midnightblue" stroke="midnightblue" points="372.15,-626.8 374.76,-637.07 379.12,-627.41 372.15,-626.8"/>
</g>
<!-- Node31 -->
<g id="node31" class="node">
<title>Node31</title>
<g id="a_node31"><a xlink:href="classtracktion_1_1engine_1_1TextPlugin.html" target="_top" xlink:title=" ">
<polygon fill="none" stroke="black" points="475,-147.5 475,-177.5 580,-177.5 580,-147.5 475,-147.5"/>
<text text-anchor="start" x="483" y="-165.5" font-family="Helvetica,sans-Serif" font-size="10.00">tracktion::engine::</text>
<text text-anchor="middle" x="527.5" y="-154.5" font-family="Helvetica,sans-Serif" font-size="10.00">TextPlugin</text>
</a>
</g>
</g>
<!-- Node1&#45;&gt;Node31 -->
<g id="edge30" class="edge">
<title>Node1&#45;&gt;Node31</title>
<path fill="none" stroke="midnightblue" d="M375.01,-627.2C380.7,-540.12 403.49,-254.43 461,-186.5 464.83,-181.97 469.6,-178.3 474.8,-175.32"/>
<polygon fill="midnightblue" stroke="midnightblue" points="371.52,-627.05 374.38,-637.25 378.5,-627.49 371.52,-627.05"/>
</g>
<!-- Node32 -->
<g id="node32" class="node">
<title>Node32</title>
<g id="a_node32"><a xlink:href="classtracktion_1_1engine_1_1ToneGeneratorPlugin.html" target="_top" xlink:title=" ">
<polygon fill="none" stroke="black" points="468.5,-98.5 468.5,-128.5 586.5,-128.5 586.5,-98.5 468.5,-98.5"/>
<text text-anchor="start" x="476.5" y="-116.5" font-family="Helvetica,sans-Serif" font-size="10.00">tracktion::engine::</text>
<text text-anchor="middle" x="527.5" y="-105.5" font-family="Helvetica,sans-Serif" font-size="10.00">ToneGeneratorPlugin</text>
</a>
</g>
</g>
<!-- Node1&#45;&gt;Node32 -->
<g id="edge31" class="edge">
<title>Node1&#45;&gt;Node32</title>
<path fill="none" stroke="midnightblue" d="M374.51,-627.33C378.71,-534.61 397.67,-213.62 461,-137.5 463.87,-134.06 467.27,-131.1 471,-128.58"/>
<polygon fill="midnightblue" stroke="midnightblue" points="371.01,-627.33 374.07,-637.47 378,-627.63 371.01,-627.33"/>
</g>
<!-- Node33 -->
<g id="node33" class="node">
<title>Node33</title>
<g id="a_node33"><a xlink:href="classtracktion_1_1engine_1_1VCAPlugin.html" target="_top" xlink:title="The VCA plugin sits on a folder track to control the overall level of all the volume/pan plugins in i...">
<polygon fill="none" stroke="black" points="475,-49.5 475,-79.5 580,-79.5 580,-49.5 475,-49.5"/>
<text text-anchor="start" x="483" y="-67.5" font-family="Helvetica,sans-Serif" font-size="10.00">tracktion::engine::</text>
<text text-anchor="middle" x="527.5" y="-56.5" font-family="Helvetica,sans-Serif" font-size="10.00">VCAPlugin</text>
</a>
</g>
</g>
<!-- Node1&#45;&gt;Node33 -->
<g id="edge32" class="edge">
<title>Node1&#45;&gt;Node33</title>
<path fill="none" stroke="midnightblue" d="M374.1,-627.2C376.94,-528.8 391.89,-172.8 461,-88.5 464.84,-83.82 469.68,-80.05 474.98,-77.01"/>
<polygon fill="midnightblue" stroke="midnightblue" points="370.6,-627.31 373.83,-637.4 377.6,-627.5 370.6,-627.31"/>
</g>
<!-- Node34 -->
<g id="node34" class="node">
<title>Node34</title>
<g id="a_node34"><a xlink:href="classtracktion_1_1engine_1_1VolumeAndPanPlugin.html" target="_top" xlink:title="The built&#45;in Tracktion volume/pan plugin.">
<polygon fill="none" stroke="black" points="468,-0.5 468,-30.5 587,-30.5 587,-0.5 468,-0.5"/>
<text text-anchor="start" x="476" y="-18.5" font-family="Helvetica,sans-Serif" font-size="10.00">tracktion::engine::</text>
<text text-anchor="middle" x="527.5" y="-7.5" font-family="Helvetica,sans-Serif" font-size="10.00">VolumeAndPanPlugin</text>
</a>
</g>
</g>
<!-- Node1&#45;&gt;Node34 -->
<g id="edge33" class="edge">
<title>Node1&#45;&gt;Node34</title>
<path fill="none" stroke="midnightblue" d="M373.76,-627.05C375.31,-523.11 386.1,-132 461,-39.5 463.74,-36.11 467.01,-33.2 470.6,-30.7"/>
<polygon fill="midnightblue" stroke="midnightblue" points="370.26,-627.19 373.62,-637.24 377.26,-627.28 370.26,-627.19"/>
</g>
<!-- Node2 -->
<g id="node2" class="node">
<title>Node2</title>
<g id="a_node2"><a xlink:href="classtracktion_1_1engine_1_1Selectable.html" target="_top" xlink:title="Base class for things that can be selected, and whose properties can appear in the properties panel.">
<polygon fill="none" stroke="black" points="160,-735.5 160,-765.5 265,-765.5 265,-735.5 160,-735.5"/>
<text text-anchor="start" x="168" y="-753.5" font-family="Helvetica,sans-Serif" font-size="10.00">tracktion::engine::</text>
<text text-anchor="middle" x="212.5" y="-742.5" font-family="Helvetica,sans-Serif" font-size="10.00">Selectable</text>
</a>
</g>
</g>
<!-- Node2&#45;&gt;Node1 -->
<g id="edge1" class="edge">
<title>Node2&#45;&gt;Node1</title>
<path fill="none" stroke="midnightblue" d="M274.59,-731.34C277.82,-729.82 280.98,-728.21 284,-726.5 312.57,-710.33 340.66,-684.26 357.02,-667.77"/>
<polygon fill="midnightblue" stroke="midnightblue" points="273.08,-728.18 265.31,-735.38 275.88,-734.6 273.08,-728.18"/>
</g>
<!-- Node3 -->
<g id="node3" class="node">
<title>Node3</title>
<g id="a_node3"><a xlink:href="classtracktion_1_1engine_1_1Exportable.html" target="_top" xlink:title="An interface for objects within an edit that can be exported.">
<polygon fill="none" stroke="black" points="160,-686.5 160,-716.5 265,-716.5 265,-686.5 160,-686.5"/>
<text text-anchor="start" x="168" y="-704.5" font-family="Helvetica,sans-Serif" font-size="10.00">tracktion::engine::</text>
<text text-anchor="middle" x="212.5" y="-693.5" font-family="Helvetica,sans-Serif" font-size="10.00">Exportable</text>
</a>
</g>
</g>
<!-- Node3&#45;&gt;Node1 -->
<g id="edge2" class="edge">
<title>Node3&#45;&gt;Node1</title>
<path fill="none" stroke="midnightblue" d="M271.9,-683.39C288.7,-678.18 306.83,-672.55 322.97,-667.55"/>
<polygon fill="midnightblue" stroke="midnightblue" points="270.71,-680.09 262.19,-686.4 272.78,-686.78 270.71,-680.09"/>
</g>
<!-- Node4 -->
<g id="node4" class="node">
<title>Node4</title>
<g id="a_node4"><a xlink:href="classtracktion_1_1engine_1_1AutomatableEditItem.html" target="_top" xlink:title="Base class for elements that have some kind of automatable parameters.">
<polygon fill="none" stroke="black" points="152,-637.5 152,-667.5 273,-667.5 273,-637.5 152,-637.5"/>
<text text-anchor="start" x="160" y="-655.5" font-family="Helvetica,sans-Serif" font-size="10.00">tracktion::engine::</text>
<text text-anchor="middle" x="212.5" y="-644.5" font-family="Helvetica,sans-Serif" font-size="10.00">AutomatableEditItem</text>
</a>
</g>
</g>
<!-- Node4&#45;&gt;Node1 -->
<g id="edge3" class="edge">
<title>Node4&#45;&gt;Node1</title>
<path fill="none" stroke="midnightblue" d="M283.45,-652.5C295.72,-652.5 308.3,-652.5 319.96,-652.5"/>
<polygon fill="midnightblue" stroke="midnightblue" points="283.23,-649 273.23,-652.5 283.23,-656 283.23,-649"/>
</g>
<!-- Node5 -->
<g id="node5" class="node">
<title>Node5</title>
<g id="a_node5"><a xlink:href="classtracktion_1_1engine_1_1EditItem.html" target="_top" xlink:title="Base class for objects that live inside an edit &#45; e.g.">
<polygon fill="none" stroke="black" points="0,-637.5 0,-667.5 105,-667.5 105,-637.5 0,-637.5"/>
<text text-anchor="start" x="8" y="-655.5" font-family="Helvetica,sans-Serif" font-size="10.00">tracktion::engine::</text>
<text text-anchor="middle" x="52.5" y="-644.5" font-family="Helvetica,sans-Serif" font-size="10.00">EditItem</text>
</a>
</g>
</g>
<!-- Node5&#45;&gt;Node4 -->
<g id="edge4" class="edge">
<title>Node5&#45;&gt;Node4</title>
<path fill="none" stroke="midnightblue" d="M115.59,-652.5C127.56,-652.5 140.08,-652.5 151.97,-652.5"/>
<polygon fill="midnightblue" stroke="midnightblue" points="115.24,-649 105.24,-652.5 115.24,-656 115.24,-649"/>
</g>
<!-- Node6 -->
<g id="node6" class="node">
<title>Node6</title>
<g id="a_node6"><a xlink:href="classtracktion_1_1engine_1_1MacroParameterElement.html" target="_top" xlink:title="Base class for elements which can contain macro parameters.">
<polygon fill="none" stroke="black" points="144,-588.5 144,-618.5 281,-618.5 281,-588.5 144,-588.5"/>
<text text-anchor="start" x="152" y="-606.5" font-family="Helvetica,sans-Serif" font-size="10.00">tracktion::engine::</text>
<text text-anchor="middle" x="212.5" y="-595.5" font-family="Helvetica,sans-Serif" font-size="10.00">MacroParameterElement</text>
</a>
</g>
</g>
<!-- Node6&#45;&gt;Node1 -->
<g id="edge5" class="edge">
<title>Node6&#45;&gt;Node1</title>
<path fill="none" stroke="midnightblue" d="M271.9,-621.61C288.7,-626.82 306.83,-632.45 322.97,-637.45"/>
<polygon fill="midnightblue" stroke="midnightblue" points="272.78,-618.22 262.19,-618.6 270.71,-624.91 272.78,-618.22"/>
</g>
<!-- Node7 -->
<g id="node7" class="node">
<title>Node7</title>
<g id="a_node7"><a xlink:href="structtracktion_1_1engine_1_1ValueTreeAllEventListener.html" target="_top" xlink:title=" ">
<polygon fill="none" stroke="black" points="141,-539.5 141,-569.5 284,-569.5 284,-539.5 141,-539.5"/>
<text text-anchor="start" x="149" y="-557.5" font-family="Helvetica,sans-Serif" font-size="10.00">tracktion::engine::</text>
<text text-anchor="middle" x="212.5" y="-546.5" font-family="Helvetica,sans-Serif" font-size="10.00">ValueTreeAllEventListener</text>
</a>
</g>
</g>
<!-- Node7&#45;&gt;Node1 -->
<g id="edge6" class="edge">
<title>Node7&#45;&gt;Node1</title>
<path fill="none" stroke="darkgreen" d="M274.59,-573.66C277.82,-575.18 280.98,-576.79 284,-578.5 312.57,-594.67 340.66,-620.74 357.02,-637.23"/>
<polygon fill="darkgreen" stroke="darkgreen" points="275.88,-570.4 265.31,-569.62 273.08,-576.82 275.88,-570.4"/>
</g>
</g>
</svg>
