<?xml version="1.0" encoding="UTF-8" standalone="no"?>
<!DOCTYPE svg PUBLIC "-//W3C//DTD SVG 1.1//EN"
 "http://www.w3.org/Graphics/SVG/1.1/DTD/svg11.dtd">
<!-- Generated by graphviz version 2.43.0 (0)
 -->
<!-- Title: tracktion::engine::AutomatableParameter Pages: 1 -->
<svg width="503pt" height="284pt"
 viewBox="0.00 0.00 503.00 284.00" xmlns="http://www.w3.org/2000/svg" xmlns:xlink="http://www.w3.org/1999/xlink">
<g id="graph0" class="graph" transform="scale(1 1) rotate(0) translate(4 280)">
<title>tracktion::engine::AutomatableParameter</title>
<!-- Node1 -->
<g id="node1" class="node">
<title>Node1</title>
<g id="a_node1"><a xlink:title=" ">
<polygon fill="#bfbfbf" stroke="black" points="141,-122.5 141,-152.5 271,-152.5 271,-122.5 141,-122.5"/>
<text text-anchor="start" x="149" y="-140.5" font-family="Helvetica,sans-Serif" font-size="10.00">tracktion::engine::</text>
<text text-anchor="middle" x="206" y="-129.5" font-family="Helvetica,sans-Serif" font-size="10.00">AutomatableParameter</text>
</a>
</g>
</g>
<!-- Node3 -->
<g id="node3" class="node">
<title>Node3</title>
<g id="a_node3"><a xlink:href="classtracktion_1_1engine_1_1AirWindowsAutomatableParameter.html" target="_top" xlink:title=" ">
<polygon fill="none" stroke="black" points="307,-245.5 307,-275.5 495,-275.5 495,-245.5 307,-245.5"/>
<text text-anchor="start" x="315" y="-263.5" font-family="Helvetica,sans-Serif" font-size="10.00">tracktion::engine::</text>
<text text-anchor="middle" x="401" y="-252.5" font-family="Helvetica,sans-Serif" font-size="10.00">AirWindowsAutomatableParameter</text>
</a>
</g>
</g>
<!-- Node1&#45;&gt;Node3 -->
<g id="edge2" class="edge">
<title>Node1&#45;&gt;Node3</title>
<path fill="none" stroke="midnightblue" d="M224.43,-160.85C242.59,-183.52 273.09,-217.25 307,-236.5 313.09,-239.96 319.68,-242.93 326.46,-245.48"/>
<polygon fill="midnightblue" stroke="midnightblue" points="227.02,-158.47 218.1,-152.75 221.51,-162.79 227.02,-158.47"/>
</g>
<!-- Node4 -->
<g id="node4" class="node">
<title>Node4</title>
<g id="a_node4"><a xlink:href="structtracktion_1_1engine_1_1DiscreteLabelledParameter.html" target="_top" xlink:title=" ">
<polygon fill="none" stroke="black" points="326.5,-196.5 326.5,-226.5 475.5,-226.5 475.5,-196.5 326.5,-196.5"/>
<text text-anchor="start" x="334.5" y="-214.5" font-family="Helvetica,sans-Serif" font-size="10.00">tracktion::engine::</text>
<text text-anchor="middle" x="401" y="-203.5" font-family="Helvetica,sans-Serif" font-size="10.00">DiscreteLabelledParameter</text>
</a>
</g>
</g>
<!-- Node1&#45;&gt;Node4 -->
<g id="edge3" class="edge">
<title>Node1&#45;&gt;Node4</title>
<path fill="none" stroke="midnightblue" d="M242.27,-157.43C261.06,-167.45 284.82,-179.2 307,-187.5 315.75,-190.77 325.12,-193.76 334.42,-196.44"/>
<polygon fill="midnightblue" stroke="midnightblue" points="243.93,-154.35 233.47,-152.67 240.6,-160.5 243.93,-154.35"/>
</g>
<!-- Node5 -->
<g id="node5" class="node">
<title>Node5</title>
<g id="a_node5"><a xlink:href="classtracktion_1_1engine_1_1ExternalAutomatableParameter.html" target="_top" xlink:title=" ">
<polygon fill="none" stroke="black" points="316,-147.5 316,-177.5 486,-177.5 486,-147.5 316,-147.5"/>
<text text-anchor="start" x="324" y="-165.5" font-family="Helvetica,sans-Serif" font-size="10.00">tracktion::engine::</text>
<text text-anchor="middle" x="401" y="-154.5" font-family="Helvetica,sans-Serif" font-size="10.00">ExternalAutomatableParameter</text>
</a>
</g>
</g>
<!-- Node1&#45;&gt;Node5 -->
<g id="edge4" class="edge">
<title>Node1&#45;&gt;Node5</title>
<path fill="none" stroke="midnightblue" d="M281.45,-147.14C292.68,-148.6 304.33,-150.11 315.76,-151.59"/>
<polygon fill="midnightblue" stroke="midnightblue" points="281.63,-143.64 271.27,-145.82 280.73,-150.58 281.63,-143.64"/>
</g>
<!-- Node6 -->
<g id="node6" class="node">
<title>Node6</title>
<g id="a_node6"><a xlink:href="classtracktion_1_1engine_1_1MacroParameter.html" target="_top" xlink:title="A MacroParameter is an AutomatableParameter which is a collection of Mappings.">
<polygon fill="none" stroke="black" points="348.5,-98.5 348.5,-128.5 453.5,-128.5 453.5,-98.5 348.5,-98.5"/>
<text text-anchor="start" x="356.5" y="-116.5" font-family="Helvetica,sans-Serif" font-size="10.00">tracktion::engine::</text>
<text text-anchor="middle" x="401" y="-105.5" font-family="Helvetica,sans-Serif" font-size="10.00">MacroParameter</text>
</a>
</g>
</g>
<!-- Node1&#45;&gt;Node6 -->
<g id="edge5" class="edge">
<title>Node1&#45;&gt;Node6</title>
<path fill="none" stroke="midnightblue" d="M281.38,-128.25C303.69,-125.48 327.67,-122.49 348.19,-119.94"/>
<polygon fill="midnightblue" stroke="midnightblue" points="280.76,-124.8 271.27,-129.51 281.62,-131.75 280.76,-124.8"/>
</g>
<!-- Node7 -->
<g id="node7" class="node">
<title>Node7</title>
<g id="a_node7"><a xlink:href="structtracktion_1_1engine_1_1PluginWetDryAutomatableParam.html" target="_top" xlink:title="specialised AutomatableParameter for wet/dry.">
<polygon fill="none" stroke="black" points="313,-49.5 313,-79.5 489,-79.5 489,-49.5 313,-49.5"/>
<text text-anchor="start" x="321" y="-67.5" font-family="Helvetica,sans-Serif" font-size="10.00">tracktion::engine::</text>
<text text-anchor="middle" x="401" y="-56.5" font-family="Helvetica,sans-Serif" font-size="10.00">PluginWetDryAutomatableParam</text>
</a>
</g>
</g>
<!-- Node1&#45;&gt;Node7 -->
<g id="edge6" class="edge">
<title>Node1&#45;&gt;Node7</title>
<path fill="none" stroke="midnightblue" d="M242.97,-117.67C261.67,-107.93 285.13,-96.59 307,-88.5 315.76,-85.26 325.14,-82.29 334.44,-79.63"/>
<polygon fill="midnightblue" stroke="midnightblue" points="241.14,-114.68 233.93,-122.44 244.41,-120.87 241.14,-114.68"/>
</g>
<!-- Node8 -->
<g id="node8" class="node">
<title>Node8</title>
<g id="a_node8"><a xlink:href="structtracktion_1_1engine_1_1SuffixedParameter.html" target="_top" xlink:title=" ">
<polygon fill="none" stroke="black" points="348,-0.5 348,-30.5 454,-30.5 454,-0.5 348,-0.5"/>
<text text-anchor="start" x="356" y="-18.5" font-family="Helvetica,sans-Serif" font-size="10.00">tracktion::engine::</text>
<text text-anchor="middle" x="401" y="-7.5" font-family="Helvetica,sans-Serif" font-size="10.00">SuffixedParameter</text>
</a>
</g>
</g>
<!-- Node1&#45;&gt;Node8 -->
<g id="edge7" class="edge">
<title>Node1&#45;&gt;Node8</title>
<path fill="none" stroke="midnightblue" d="M224.49,-114.39C242.69,-91.96 273.21,-58.57 307,-39.5 319.49,-32.45 334.08,-27.43 347.96,-23.87"/>
<polygon fill="midnightblue" stroke="midnightblue" points="221.6,-112.39 218.13,-122.4 227.09,-116.74 221.6,-112.39"/>
</g>
<!-- Node2 -->
<g id="node2" class="node">
<title>Node2</title>
<g id="a_node2"><a xlink:href="classtracktion_1_1engine_1_1Selectable.html" target="_top" xlink:title="Base class for things that can be selected, and whose properties can appear in the properties panel.">
<polygon fill="none" stroke="black" points="0,-122.5 0,-152.5 105,-152.5 105,-122.5 0,-122.5"/>
<text text-anchor="start" x="8" y="-140.5" font-family="Helvetica,sans-Serif" font-size="10.00">tracktion::engine::</text>
<text text-anchor="middle" x="52.5" y="-129.5" font-family="Helvetica,sans-Serif" font-size="10.00">Selectable</text>
</a>
</g>
</g>
<!-- Node2&#45;&gt;Node1 -->
<g id="edge1" class="edge">
<title>Node2&#45;&gt;Node1</title>
<path fill="none" stroke="midnightblue" d="M115.35,-137.5C123.78,-137.5 132.45,-137.5 140.92,-137.5"/>
<polygon fill="midnightblue" stroke="midnightblue" points="115.21,-134 105.21,-137.5 115.21,-141 115.21,-134"/>
</g>
</g>
</svg>
