<?xml version="1.0" encoding="UTF-8" standalone="no"?>
<!DOCTYPE svg PUBLIC "-//W3C//DTD SVG 1.1//EN"
 "http://www.w3.org/Graphics/SVG/1.1/DTD/svg11.dtd">
<!-- Generated by graphviz version 2.40.1 (20161225.0304)
 -->
<!-- Title: tracktion_engine::AutomatableParameter Pages: 1 -->
<svg width="535pt" height="225pt"
 viewBox="0.00 0.00 535.00 225.00" xmlns="http://www.w3.org/2000/svg" xmlns:xlink="http://www.w3.org/1999/xlink">
<g id="graph0" class="graph" transform="scale(1 1) rotate(0) translate(4 221)">
<title>tracktion_engine::AutomatableParameter</title>
<!-- Node0 -->
<g id="node1" class="node">
<title>Node0</title>
<polygon fill="#bfbfbf" stroke="#000000" points="176,-93.5 176,-123.5 325,-123.5 325,-93.5 176,-93.5"/>
<text text-anchor="start" x="184" y="-111.5" font-family="Helvetica,sans-Serif" font-size="10.00" fill="#000000">tracktion_engine::Automatable</text>
<text text-anchor="middle" x="250.5" y="-100.5" font-family="Helvetica,sans-Serif" font-size="10.00" fill="#000000">Parameter</text>
</g>
<!-- Node2 -->
<g id="node3" class="node">
<title>Node2</title>
<g id="a_node3"><a xlink:href="structtracktion__engine_1_1DiscreteLabelledParameter.html" target="_top" xlink:title="tracktion_engine::Discrete\lLabelledParameter">
<polygon fill="none" stroke="#000000" points="378.5,-186.5 378.5,-216.5 509.5,-216.5 509.5,-186.5 378.5,-186.5"/>
<text text-anchor="start" x="386.5" y="-204.5" font-family="Helvetica,sans-Serif" font-size="10.00" fill="#000000">tracktion_engine::Discrete</text>
<text text-anchor="middle" x="444" y="-193.5" font-family="Helvetica,sans-Serif" font-size="10.00" fill="#000000">LabelledParameter</text>
</a>
</g>
</g>
<!-- Node0&#45;&gt;Node2 -->
<g id="edge2" class="edge">
<title>Node0&#45;&gt;Node2</title>
<path fill="none" stroke="#191970" d="M279.1002,-129.453C300.7162,-144.5044 331.5939,-164.3738 361,-177.5 368.3966,-180.8017 376.3658,-183.7783 384.3369,-186.4201"/>
<polygon fill="#191970" stroke="#191970" points="280.9088,-126.4455 270.7211,-123.5364 276.8711,-132.1637 280.9088,-126.4455"/>
</g>
<!-- Node3 -->
<g id="node4" class="node">
<title>Node3</title>
<g id="a_node4"><a xlink:href="classtracktion__engine_1_1ExternalAutomatableParameter.html" target="_top" xlink:title="tracktion_engine::External\lAutomatableParameter">
<polygon fill="none" stroke="#000000" points="379,-137.5 379,-167.5 509,-167.5 509,-137.5 379,-137.5"/>
<text text-anchor="start" x="387" y="-155.5" font-family="Helvetica,sans-Serif" font-size="10.00" fill="#000000">tracktion_engine::External</text>
<text text-anchor="middle" x="444" y="-144.5" font-family="Helvetica,sans-Serif" font-size="10.00" fill="#000000">AutomatableParameter</text>
</a>
</g>
</g>
<!-- Node0&#45;&gt;Node3 -->
<g id="edge3" class="edge">
<title>Node0&#45;&gt;Node3</title>
<path fill="none" stroke="#191970" d="M326.6078,-125.8062C343.9005,-129.7384 362.116,-133.8804 378.9027,-137.6975"/>
<polygon fill="#191970" stroke="#191970" points="327.0777,-122.3237 316.5505,-123.5192 325.5255,-129.1495 327.0777,-122.3237"/>
</g>
<!-- Node4 -->
<g id="node5" class="node">
<title>Node4</title>
<g id="a_node5"><a xlink:href="classtracktion__engine_1_1MacroParameter.html" target="_top" xlink:title="A MacroParameter is an AutomatableParameter which is a collection of Mappings. ">
<polygon fill="none" stroke="#000000" points="361,-99 361,-118 527,-118 527,-99 361,-99"/>
<text text-anchor="middle" x="444" y="-106" font-family="Helvetica,sans-Serif" font-size="10.00" fill="#000000">tracktion_engine::MacroParameter</text>
</a>
</g>
</g>
<!-- Node0&#45;&gt;Node4 -->
<g id="edge4" class="edge">
<title>Node0&#45;&gt;Node4</title>
<path fill="none" stroke="#191970" d="M335.2883,-108.5C343.759,-108.5 352.3539,-108.5 360.8079,-108.5"/>
<polygon fill="#191970" stroke="#191970" points="335.0354,-105.0001 325.0354,-108.5 335.0353,-112.0001 335.0354,-105.0001"/>
</g>
<!-- Node5 -->
<g id="node6" class="node">
<title>Node5</title>
<g id="a_node6"><a xlink:href="structtracktion__engine_1_1PluginWetDryAutomatableParam.html" target="_top" xlink:title="specialised AutomatableParameter for wet/dry. ">
<polygon fill="none" stroke="#000000" points="377,-49.5 377,-79.5 511,-79.5 511,-49.5 377,-49.5"/>
<text text-anchor="start" x="385" y="-67.5" font-family="Helvetica,sans-Serif" font-size="10.00" fill="#000000">tracktion_engine::Plugin</text>
<text text-anchor="middle" x="444" y="-56.5" font-family="Helvetica,sans-Serif" font-size="10.00" fill="#000000">WetDryAutomatableParam</text>
</a>
</g>
</g>
<!-- Node0&#45;&gt;Node5 -->
<g id="edge5" class="edge">
<title>Node0&#45;&gt;Node5</title>
<path fill="none" stroke="#191970" d="M326.4418,-91.2316C343.4467,-87.3648 361.3519,-83.2934 377.9188,-79.5262"/>
<polygon fill="#191970" stroke="#191970" points="325.5255,-87.8505 316.5505,-93.4808 327.0777,-94.6763 325.5255,-87.8505"/>
</g>
<!-- Node6 -->
<g id="node7" class="node">
<title>Node6</title>
<g id="a_node7"><a xlink:href="structtracktion__engine_1_1SuffixedParameter.html" target="_top" xlink:title="tracktion_engine::Suffixed\lParameter">
<polygon fill="none" stroke="#000000" points="379,-.5 379,-30.5 509,-30.5 509,-.5 379,-.5"/>
<text text-anchor="start" x="387" y="-18.5" font-family="Helvetica,sans-Serif" font-size="10.00" fill="#000000">tracktion_engine::Suffixed</text>
<text text-anchor="middle" x="444" y="-7.5" font-family="Helvetica,sans-Serif" font-size="10.00" fill="#000000">Parameter</text>
</a>
</g>
</g>
<!-- Node0&#45;&gt;Node6 -->
<g id="edge6" class="edge">
<title>Node0&#45;&gt;Node6</title>
<path fill="none" stroke="#191970" d="M279.1002,-87.547C300.7162,-72.4956 331.5939,-52.6262 361,-39.5 368.3966,-36.1983 376.3658,-33.2217 384.3369,-30.5799"/>
<polygon fill="#191970" stroke="#191970" points="276.8711,-84.8363 270.7211,-93.4636 280.9088,-90.5545 276.8711,-84.8363"/>
</g>
<!-- Node1 -->
<g id="node2" class="node">
<title>Node1</title>
<g id="a_node2"><a xlink:href="classtracktion__engine_1_1Selectable.html" target="_top" xlink:title="Base class for things that can be selected, and whose properties can appear in the properties panel...">
<polygon fill="none" stroke="#000000" points="0,-99 0,-118 140,-118 140,-99 0,-99"/>
<text text-anchor="middle" x="70" y="-106" font-family="Helvetica,sans-Serif" font-size="10.00" fill="#000000">tracktion_engine::Selectable</text>
</a>
</g>
</g>
<!-- Node1&#45;&gt;Node0 -->
<g id="edge1" class="edge">
<title>Node1&#45;&gt;Node0</title>
<path fill="none" stroke="#191970" d="M150.284,-108.5C158.7433,-108.5 167.3209,-108.5 175.7146,-108.5"/>
<polygon fill="#191970" stroke="#191970" points="150.0444,-105.0001 140.0444,-108.5 150.0443,-112.0001 150.0444,-105.0001"/>
</g>
</g>
</svg>
