<?xml version="1.0" encoding="UTF-8" standalone="no"?>
<!DOCTYPE svg PUBLIC "-//W3C//DTD SVG 1.1//EN"
 "http://www.w3.org/Graphics/SVG/1.1/DTD/svg11.dtd">
<!-- Generated by graphviz version 2.40.1 (20161225.0304)
 -->
<!-- Title: tracktion_engine::InputDevice Pages: 1 -->
<svg width="674pt" height="112pt"
 viewBox="0.00 0.00 674.00 112.00" xmlns="http://www.w3.org/2000/svg" xmlns:xlink="http://www.w3.org/1999/xlink">
<g id="graph0" class="graph" transform="scale(1 1) rotate(0) translate(4 108)">
<title>tracktion_engine::InputDevice</title>
<!-- Node0 -->
<g id="node1" class="node">
<title>Node0</title>
<polygon fill="#bfbfbf" stroke="#000000" points="176,-30 176,-49 322,-49 322,-30 176,-30"/>
<text text-anchor="middle" x="249" y="-37" font-family="Helvetica,sans-Serif" font-size="10.00" fill="#000000">tracktion_engine::InputDevice</text>
</g>
<!-- Node2 -->
<g id="node3" class="node">
<title>Node2</title>
<g id="a_node3"><a xlink:href="classtracktion__engine_1_1MidiInputDevice.html" target="_top" xlink:title="tracktion_engine::MidiInput\lDevice">
<polygon fill="none" stroke="#000000" points="361.5,-49.5 361.5,-79.5 495.5,-79.5 495.5,-49.5 361.5,-49.5"/>
<text text-anchor="start" x="369.5" y="-67.5" font-family="Helvetica,sans-Serif" font-size="10.00" fill="#000000">tracktion_engine::MidiInput</text>
<text text-anchor="middle" x="428.5" y="-56.5" font-family="Helvetica,sans-Serif" font-size="10.00" fill="#000000">Device</text>
</a>
</g>
</g>
<!-- Node0&#45;&gt;Node2 -->
<g id="edge2" class="edge">
<title>Node0&#45;&gt;Node2</title>
<path fill="none" stroke="#191970" d="M327.5817,-50.4445C338.7921,-52.0059 350.2387,-53.6001 361.207,-55.1277"/>
<polygon fill="#191970" stroke="#191970" points="327.7605,-46.9357 317.3733,-49.0227 326.7949,-53.8688 327.7605,-46.9357"/>
</g>
<!-- Node5 -->
<g id="node6" class="node">
<title>Node5</title>
<g id="a_node6"><a xlink:href="classtracktion__engine_1_1WaveInputDevice.html" target="_top" xlink:title="A (virtual) audio input device. ">
<polygon fill="none" stroke="#000000" points="358,-.5 358,-30.5 499,-30.5 499,-.5 358,-.5"/>
<text text-anchor="start" x="366" y="-18.5" font-family="Helvetica,sans-Serif" font-size="10.00" fill="#000000">tracktion_engine::WaveInput</text>
<text text-anchor="middle" x="428.5" y="-7.5" font-family="Helvetica,sans-Serif" font-size="10.00" fill="#000000">Device</text>
</a>
</g>
</g>
<!-- Node0&#45;&gt;Node5 -->
<g id="edge5" class="edge">
<title>Node0&#45;&gt;Node5</title>
<path fill="none" stroke="#191970" d="M330.193,-28.6441C339.4633,-27.4046 348.8564,-26.1487 357.972,-24.9299"/>
<polygon fill="#191970" stroke="#191970" points="329.6489,-25.1856 320.201,-29.9801 330.5766,-32.1239 329.6489,-25.1856"/>
</g>
<!-- Node1 -->
<g id="node2" class="node">
<title>Node1</title>
<g id="a_node2"><a xlink:href="classtracktion__engine_1_1Selectable.html" target="_top" xlink:title="Base class for things that can be selected, and whose properties can appear in the properties panel...">
<polygon fill="none" stroke="#000000" points="0,-30 0,-49 140,-49 140,-30 0,-30"/>
<text text-anchor="middle" x="70" y="-37" font-family="Helvetica,sans-Serif" font-size="10.00" fill="#000000">tracktion_engine::Selectable</text>
</a>
</g>
</g>
<!-- Node1&#45;&gt;Node0 -->
<g id="edge1" class="edge">
<title>Node1&#45;&gt;Node0</title>
<path fill="none" stroke="#191970" d="M150.4336,-39.5C158.858,-39.5 167.3906,-39.5 175.7288,-39.5"/>
<polygon fill="#191970" stroke="#191970" points="150.2318,-36.0001 140.2318,-39.5 150.2318,-43.0001 150.2318,-36.0001"/>
</g>
<!-- Node3 -->
<g id="node4" class="node">
<title>Node3</title>
<g id="a_node4"><a xlink:href="classtracktion__engine_1_1PhysicalMidiInputDevice.html" target="_top" xlink:title="tracktion_engine::Physical\lMidiInputDevice">
<polygon fill="none" stroke="#000000" points="535,-73.5 535,-103.5 666,-103.5 666,-73.5 535,-73.5"/>
<text text-anchor="start" x="543" y="-91.5" font-family="Helvetica,sans-Serif" font-size="10.00" fill="#000000">tracktion_engine::Physical</text>
<text text-anchor="middle" x="600.5" y="-80.5" font-family="Helvetica,sans-Serif" font-size="10.00" fill="#000000">MidiInputDevice</text>
</a>
</g>
</g>
<!-- Node2&#45;&gt;Node3 -->
<g id="edge3" class="edge">
<title>Node2&#45;&gt;Node3</title>
<path fill="none" stroke="#191970" d="M505.9788,-75.311C515.6388,-76.6589 525.4435,-78.027 534.8991,-79.3464"/>
<polygon fill="#191970" stroke="#191970" points="506.3731,-71.8322 495.9853,-73.9166 505.4056,-78.765 506.3731,-71.8322"/>
</g>
<!-- Node4 -->
<g id="node5" class="node">
<title>Node4</title>
<g id="a_node5"><a xlink:href="classtracktion__engine_1_1VirtualMidiInputDevice.html" target="_top" xlink:title="tracktion_engine::Virtual\lMidiInputDevice">
<polygon fill="none" stroke="#000000" points="539.5,-24.5 539.5,-54.5 661.5,-54.5 661.5,-24.5 539.5,-24.5"/>
<text text-anchor="start" x="547.5" y="-42.5" font-family="Helvetica,sans-Serif" font-size="10.00" fill="#000000">tracktion_engine::Virtual</text>
<text text-anchor="middle" x="600.5" y="-31.5" font-family="Helvetica,sans-Serif" font-size="10.00" fill="#000000">MidiInputDevice</text>
</a>
</g>
</g>
<!-- Node2&#45;&gt;Node4 -->
<g id="edge4" class="edge">
<title>Node2&#45;&gt;Node4</title>
<path fill="none" stroke="#191970" d="M506.1403,-53.2151C517.2795,-51.596 528.6075,-49.9495 539.3674,-48.3856"/>
<polygon fill="#191970" stroke="#191970" points="505.3778,-49.789 495.9853,-54.6911 506.3848,-56.7162 505.3778,-49.789"/>
</g>
</g>
</svg>
