<?xml version="1.0" encoding="UTF-8" standalone="no"?>
<!DOCTYPE svg PUBLIC "-//W3C//DTD SVG 1.1//EN"
 "http://www.w3.org/Graphics/SVG/1.1/DTD/svg11.dtd">
<!-- Generated by graphviz version 2.43.0 (0)
 -->
<!-- Title: tracktion::engine::TrackItem Pages: 1 -->
<svg width="696pt" height="303pt"
 viewBox="0.00 0.00 696.00 303.00" xmlns="http://www.w3.org/2000/svg" xmlns:xlink="http://www.w3.org/1999/xlink">
<g id="graph0" class="graph" transform="scale(1 1) rotate(0) translate(4 299)">
<title>tracktion::engine::TrackItem</title>
<!-- Node1 -->
<g id="node1" class="node">
<title>Node1</title>
<g id="a_node1"><a xlink:title="Base class for EditItems that live in a Track, e.g.">
<polygon fill="#bfbfbf" stroke="black" points="141,-73.5 141,-103.5 246,-103.5 246,-73.5 141,-73.5"/>
<text text-anchor="start" x="149" y="-91.5" font-family="Helvetica,sans-Serif" font-size="10.00">tracktion::engine::</text>
<text text-anchor="middle" x="193.5" y="-80.5" font-family="Helvetica,sans-Serif" font-size="10.00">TrackItem</text>
</a>
</g>
</g>
<!-- Node4 -->
<g id="node4" class="node">
<title>Node4</title>
<g id="a_node4"><a xlink:href="classtracktion_1_1engine_1_1Clip.html" target="_top" xlink:title="A clip in an edit.">
<polygon fill="none" stroke="black" points="282,-148 282,-167 406,-167 406,-148 282,-148"/>
<text text-anchor="middle" x="344" y="-155" font-family="Helvetica,sans-Serif" font-size="10.00">tracktion::engine::Clip</text>
</a>
</g>
</g>
<!-- Node1&#45;&gt;Node4 -->
<g id="edge3" class="edge">
<title>Node1&#45;&gt;Node4</title>
<path fill="none" stroke="midnightblue" d="M227.37,-108.9C243.46,-118.37 263.34,-129.31 282,-137.5 290.88,-141.4 300.77,-144.96 309.95,-147.96"/>
<polygon fill="midnightblue" stroke="midnightblue" points="228.75,-105.65 218.37,-103.53 225.16,-111.66 228.75,-105.65"/>
</g>
<!-- Node14 -->
<g id="node14" class="node">
<title>Node14</title>
<g id="a_node14"><a xlink:href="classtracktion_1_1engine_1_1CollectionClip.html" target="_top" xlink:title=" ">
<polygon fill="none" stroke="black" points="291.5,-98.5 291.5,-128.5 396.5,-128.5 396.5,-98.5 291.5,-98.5"/>
<text text-anchor="start" x="299.5" y="-116.5" font-family="Helvetica,sans-Serif" font-size="10.00">tracktion::engine::</text>
<text text-anchor="middle" x="344" y="-105.5" font-family="Helvetica,sans-Serif" font-size="10.00">CollectionClip</text>
</a>
</g>
</g>
<!-- Node1&#45;&gt;Node14 -->
<g id="edge13" class="edge">
<title>Node1&#45;&gt;Node14</title>
<path fill="none" stroke="midnightblue" d="M256.16,-98.88C267.85,-100.85 279.97,-102.89 291.32,-104.8"/>
<polygon fill="midnightblue" stroke="midnightblue" points="256.46,-95.38 246.02,-97.17 255.3,-102.29 256.46,-95.38"/>
</g>
<!-- Node15 -->
<g id="node15" class="node">
<title>Node15</title>
<g id="a_node15"><a xlink:href="classtracktion_1_1engine_1_1PitchSetting.html" target="_top" xlink:title=" ">
<polygon fill="none" stroke="black" points="291.5,-49.5 291.5,-79.5 396.5,-79.5 396.5,-49.5 291.5,-49.5"/>
<text text-anchor="start" x="299.5" y="-67.5" font-family="Helvetica,sans-Serif" font-size="10.00">tracktion::engine::</text>
<text text-anchor="middle" x="344" y="-56.5" font-family="Helvetica,sans-Serif" font-size="10.00">PitchSetting</text>
</a>
</g>
</g>
<!-- Node1&#45;&gt;Node15 -->
<g id="edge14" class="edge">
<title>Node1&#45;&gt;Node15</title>
<path fill="none" stroke="midnightblue" d="M256.16,-78.54C267.85,-76.65 279.97,-74.69 291.32,-72.85"/>
<polygon fill="midnightblue" stroke="midnightblue" points="255.33,-75.12 246.02,-80.17 256.45,-82.03 255.33,-75.12"/>
</g>
<!-- Node16 -->
<g id="node16" class="node">
<title>Node16</title>
<g id="a_node16"><a xlink:href="classtracktion_1_1engine_1_1TimeSigSetting.html" target="_top" xlink:title=" ">
<polygon fill="none" stroke="black" points="291.5,-0.5 291.5,-30.5 396.5,-30.5 396.5,-0.5 291.5,-0.5"/>
<text text-anchor="start" x="299.5" y="-18.5" font-family="Helvetica,sans-Serif" font-size="10.00">tracktion::engine::</text>
<text text-anchor="middle" x="344" y="-7.5" font-family="Helvetica,sans-Serif" font-size="10.00">TimeSigSetting</text>
</a>
</g>
</g>
<!-- Node1&#45;&gt;Node16 -->
<g id="edge15" class="edge">
<title>Node1&#45;&gt;Node16</title>
<path fill="none" stroke="midnightblue" d="M228.28,-68.17C244.29,-58.9 263.85,-48.1 282,-39.5 288.48,-36.43 295.46,-33.42 302.31,-30.62"/>
<polygon fill="midnightblue" stroke="midnightblue" points="226.16,-65.36 219.3,-73.43 229.69,-71.4 226.16,-65.36"/>
</g>
<!-- Node2 -->
<g id="node2" class="node">
<title>Node2</title>
<g id="a_node2"><a xlink:href="classtracktion_1_1engine_1_1EditItem.html" target="_top" xlink:title="Base class for objects that live inside an edit &#45; e.g.">
<polygon fill="none" stroke="black" points="0,-98.5 0,-128.5 105,-128.5 105,-98.5 0,-98.5"/>
<text text-anchor="start" x="8" y="-116.5" font-family="Helvetica,sans-Serif" font-size="10.00">tracktion::engine::</text>
<text text-anchor="middle" x="52.5" y="-105.5" font-family="Helvetica,sans-Serif" font-size="10.00">EditItem</text>
</a>
</g>
</g>
<!-- Node2&#45;&gt;Node1 -->
<g id="edge1" class="edge">
<title>Node2&#45;&gt;Node1</title>
<path fill="none" stroke="midnightblue" d="M115.16,-102.41C123.69,-100.88 132.38,-99.31 140.7,-97.82"/>
<polygon fill="midnightblue" stroke="midnightblue" points="114.48,-98.98 105.26,-104.19 115.72,-105.87 114.48,-98.98"/>
</g>
<!-- Node3 -->
<g id="node3" class="node">
<title>Node3</title>
<g id="a_node3"><a xlink:href="classtracktion_1_1engine_1_1Selectable.html" target="_top" xlink:title="Base class for things that can be selected, and whose properties can appear in the properties panel.">
<polygon fill="none" stroke="black" points="0,-49.5 0,-79.5 105,-79.5 105,-49.5 0,-49.5"/>
<text text-anchor="start" x="8" y="-67.5" font-family="Helvetica,sans-Serif" font-size="10.00">tracktion::engine::</text>
<text text-anchor="middle" x="52.5" y="-56.5" font-family="Helvetica,sans-Serif" font-size="10.00">Selectable</text>
</a>
</g>
</g>
<!-- Node3&#45;&gt;Node1 -->
<g id="edge2" class="edge">
<title>Node3&#45;&gt;Node1</title>
<path fill="none" stroke="midnightblue" d="M115.16,-75.15C123.69,-76.62 132.38,-78.12 140.7,-79.56"/>
<polygon fill="midnightblue" stroke="midnightblue" points="115.71,-71.69 105.26,-73.44 114.52,-78.59 115.71,-71.69"/>
</g>
<!-- Node5 -->
<g id="node5" class="node">
<title>Node5</title>
<g id="a_node5"><a xlink:href="classtracktion_1_1engine_1_1ArrangerClip.html" target="_top" xlink:title=" ">
<polygon fill="none" stroke="black" points="442,-264.5 442,-294.5 547,-294.5 547,-264.5 442,-264.5"/>
<text text-anchor="start" x="450" y="-282.5" font-family="Helvetica,sans-Serif" font-size="10.00">tracktion::engine::</text>
<text text-anchor="middle" x="494.5" y="-271.5" font-family="Helvetica,sans-Serif" font-size="10.00">ArrangerClip</text>
</a>
</g>
</g>
<!-- Node4&#45;&gt;Node5 -->
<g id="edge4" class="edge">
<title>Node4&#45;&gt;Node5</title>
<path fill="none" stroke="midnightblue" d="M359.06,-175.13C376.68,-196.33 408.62,-232.01 442,-255.5 446.6,-258.74 451.7,-261.72 456.86,-264.41"/>
<polygon fill="midnightblue" stroke="midnightblue" points="361.67,-172.79 352.63,-167.26 356.25,-177.22 361.67,-172.79"/>
</g>
<!-- Node6 -->
<g id="node6" class="node">
<title>Node6</title>
<g id="a_node6"><a xlink:href="classtracktion_1_1engine_1_1AudioClipBase.html" target="_top" xlink:title="Base class for Clips that produce some kind of audio e.g.">
<polygon fill="none" stroke="black" points="442,-215.5 442,-245.5 547,-245.5 547,-215.5 442,-215.5"/>
<text text-anchor="start" x="450" y="-233.5" font-family="Helvetica,sans-Serif" font-size="10.00">tracktion::engine::</text>
<text text-anchor="middle" x="494.5" y="-222.5" font-family="Helvetica,sans-Serif" font-size="10.00">AudioClipBase</text>
</a>
</g>
</g>
<!-- Node4&#45;&gt;Node6 -->
<g id="edge5" class="edge">
<title>Node4&#45;&gt;Node6</title>
<path fill="none" stroke="midnightblue" d="M372.65,-171.76C392,-181.67 418.48,-195.08 442,-206.5 448.03,-209.43 454.5,-212.5 460.73,-215.42"/>
<polygon fill="midnightblue" stroke="midnightblue" points="374,-168.52 363.51,-167.07 370.81,-174.75 374,-168.52"/>
</g>
<!-- Node10 -->
<g id="node10" class="node">
<title>Node10</title>
<g id="a_node10"><a xlink:href="classtracktion_1_1engine_1_1ChordClip.html" target="_top" xlink:title=" ">
<polygon fill="none" stroke="black" points="442,-166.5 442,-196.5 547,-196.5 547,-166.5 442,-166.5"/>
<text text-anchor="start" x="450" y="-184.5" font-family="Helvetica,sans-Serif" font-size="10.00">tracktion::engine::</text>
<text text-anchor="middle" x="494.5" y="-173.5" font-family="Helvetica,sans-Serif" font-size="10.00">ChordClip</text>
</a>
</g>
</g>
<!-- Node4&#45;&gt;Node10 -->
<g id="edge9" class="edge">
<title>Node4&#45;&gt;Node10</title>
<path fill="none" stroke="midnightblue" d="M414.14,-168.67C423.44,-170.18 432.85,-171.7 441.78,-173.14"/>
<polygon fill="midnightblue" stroke="midnightblue" points="414.55,-165.19 404.12,-167.05 413.43,-172.11 414.55,-165.19"/>
</g>
<!-- Node11 -->
<g id="node11" class="node">
<title>Node11</title>
<g id="a_node11"><a xlink:href="classtracktion_1_1engine_1_1MarkerClip.html" target="_top" xlink:title=" ">
<polygon fill="none" stroke="black" points="442,-117.5 442,-147.5 547,-147.5 547,-117.5 442,-117.5"/>
<text text-anchor="start" x="450" y="-135.5" font-family="Helvetica,sans-Serif" font-size="10.00">tracktion::engine::</text>
<text text-anchor="middle" x="494.5" y="-124.5" font-family="Helvetica,sans-Serif" font-size="10.00">MarkerClip</text>
</a>
</g>
</g>
<!-- Node4&#45;&gt;Node11 -->
<g id="edge10" class="edge">
<title>Node4&#45;&gt;Node11</title>
<path fill="none" stroke="midnightblue" d="M411.65,-146.28C421.82,-144.57 432.18,-142.82 441.97,-141.18"/>
<polygon fill="midnightblue" stroke="midnightblue" points="410.85,-142.87 401.57,-147.98 412.01,-149.77 410.85,-142.87"/>
</g>
<!-- Node12 -->
<g id="node12" class="node">
<title>Node12</title>
<g id="a_node12"><a xlink:href="classtracktion_1_1engine_1_1MidiClip.html" target="_top" xlink:title=" ">
<polygon fill="none" stroke="black" points="442,-68.5 442,-98.5 547,-98.5 547,-68.5 442,-68.5"/>
<text text-anchor="start" x="450" y="-86.5" font-family="Helvetica,sans-Serif" font-size="10.00">tracktion::engine::</text>
<text text-anchor="middle" x="494.5" y="-75.5" font-family="Helvetica,sans-Serif" font-size="10.00">MidiClip</text>
</a>
</g>
</g>
<!-- Node4&#45;&gt;Node12 -->
<g id="edge11" class="edge">
<title>Node4&#45;&gt;Node12</title>
<path fill="none" stroke="midnightblue" d="M391.45,-144.34C396.48,-142.31 401.43,-140.03 406,-137.5 424.22,-127.41 424.41,-118.66 442,-107.5 447,-104.33 452.48,-101.33 457.95,-98.59"/>
<polygon fill="midnightblue" stroke="midnightblue" points="389.91,-141.18 381.75,-147.94 392.35,-147.74 389.91,-141.18"/>
</g>
<!-- Node13 -->
<g id="node13" class="node">
<title>Node13</title>
<g id="a_node13"><a xlink:href="classtracktion_1_1engine_1_1StepClip.html" target="_top" xlink:title=" ">
<polygon fill="none" stroke="black" points="442,-19.5 442,-49.5 547,-49.5 547,-19.5 442,-19.5"/>
<text text-anchor="start" x="450" y="-37.5" font-family="Helvetica,sans-Serif" font-size="10.00">tracktion::engine::</text>
<text text-anchor="middle" x="494.5" y="-26.5" font-family="Helvetica,sans-Serif" font-size="10.00">StepClip</text>
</a>
</g>
</g>
<!-- Node4&#45;&gt;Node13 -->
<g id="edge12" class="edge">
<title>Node4&#45;&gt;Node13</title>
<path fill="none" stroke="midnightblue" d="M398,-143.38C400.85,-141.65 403.55,-139.69 406,-137.5 434.75,-111.77 414.83,-85.9 442,-58.5 445.33,-55.14 449.23,-52.19 453.36,-49.63"/>
<polygon fill="midnightblue" stroke="midnightblue" points="396.36,-140.3 389.07,-147.99 399.56,-146.52 396.36,-140.3"/>
</g>
<!-- Node7 -->
<g id="node7" class="node">
<title>Node7</title>
<g id="a_node7"><a xlink:href="classtracktion_1_1engine_1_1ContainerClip.html" target="_top" xlink:title="A clip that can contain multiple other clips and mix their output together.">
<polygon fill="none" stroke="black" points="583,-264.5 583,-294.5 688,-294.5 688,-264.5 583,-264.5"/>
<text text-anchor="start" x="591" y="-282.5" font-family="Helvetica,sans-Serif" font-size="10.00">tracktion::engine::</text>
<text text-anchor="middle" x="635.5" y="-271.5" font-family="Helvetica,sans-Serif" font-size="10.00">ContainerClip</text>
</a>
</g>
</g>
<!-- Node6&#45;&gt;Node7 -->
<g id="edge6" class="edge">
<title>Node6&#45;&gt;Node7</title>
<path fill="none" stroke="midnightblue" d="M548.08,-249.04C562.44,-254.1 577.82,-259.52 591.56,-264.36"/>
<polygon fill="midnightblue" stroke="midnightblue" points="548.93,-245.63 538.34,-245.6 546.61,-252.23 548.93,-245.63"/>
</g>
<!-- Node8 -->
<g id="node8" class="node">
<title>Node8</title>
<g id="a_node8"><a xlink:href="classtracktion_1_1engine_1_1EditClip.html" target="_top" xlink:title="This is the main source of an Edit clip and is responsible for managing its properties.">
<polygon fill="none" stroke="black" points="583,-215.5 583,-245.5 688,-245.5 688,-215.5 583,-215.5"/>
<text text-anchor="start" x="591" y="-233.5" font-family="Helvetica,sans-Serif" font-size="10.00">tracktion::engine::</text>
<text text-anchor="middle" x="635.5" y="-222.5" font-family="Helvetica,sans-Serif" font-size="10.00">EditClip</text>
</a>
</g>
</g>
<!-- Node6&#45;&gt;Node8 -->
<g id="edge7" class="edge">
<title>Node6&#45;&gt;Node8</title>
<path fill="none" stroke="midnightblue" d="M557.44,-230.5C565.88,-230.5 574.47,-230.5 582.7,-230.5"/>
<polygon fill="midnightblue" stroke="midnightblue" points="557.26,-227 547.26,-230.5 557.26,-234 557.26,-227"/>
</g>
<!-- Node9 -->
<g id="node9" class="node">
<title>Node9</title>
<g id="a_node9"><a xlink:href="classtracktion_1_1engine_1_1WaveAudioClip.html" target="_top" xlink:title="An audio clip that uses an audio file as its source.">
<polygon fill="none" stroke="black" points="583,-166.5 583,-196.5 688,-196.5 688,-166.5 583,-166.5"/>
<text text-anchor="start" x="591" y="-184.5" font-family="Helvetica,sans-Serif" font-size="10.00">tracktion::engine::</text>
<text text-anchor="middle" x="635.5" y="-173.5" font-family="Helvetica,sans-Serif" font-size="10.00">WaveAudioClip</text>
</a>
</g>
</g>
<!-- Node6&#45;&gt;Node9 -->
<g id="edge8" class="edge">
<title>Node6&#45;&gt;Node9</title>
<path fill="none" stroke="midnightblue" d="M548.08,-211.96C562.44,-206.9 577.82,-201.48 591.56,-196.64"/>
<polygon fill="midnightblue" stroke="midnightblue" points="546.61,-208.77 538.34,-215.4 548.93,-215.37 546.61,-208.77"/>
</g>
</g>
</svg>
