<?xml version="1.0" encoding="UTF-8" standalone="no"?>
<!DOCTYPE svg PUBLIC "-//W3C//DTD SVG 1.1//EN"
 "http://www.w3.org/Graphics/SVG/1.1/DTD/svg11.dtd">
<!-- Generated by graphviz version 2.40.1 (20161225.0304)
 -->
<!-- Title: tracktion_engine::PitchSetting Pages: 1 -->
<svg width="376pt" height="151pt"
 viewBox="0.00 0.00 375.50 151.00" xmlns="http://www.w3.org/2000/svg" xmlns:xlink="http://www.w3.org/1999/xlink">
<g id="graph0" class="graph" transform="scale(1 1) rotate(0) translate(4 147)">
<title>tracktion_engine::PitchSetting</title>
<!-- Node0 -->
<g id="node1" class="node">
<title>Node0</title>
<polygon fill="#bfbfbf" stroke="#000000" points="147,-.5 147,-19.5 294,-19.5 294,-.5 147,-.5"/>
<text text-anchor="middle" x="220.5" y="-7.5" font-family="Helvetica,sans-Serif" font-size="10.00" fill="#000000">tracktion_engine::PitchSetting</text>
</g>
<!-- Node1 -->
<g id="node2" class="node">
<title>Node1</title>
<g id="a_node2"><a xlink:href="classtracktion__engine_1_1TrackItem.html" target="_top" xlink:title="Base class for EditItems that live in a track, e.g. ">
<polygon fill="none" stroke="#000000" points="73.5,-62 73.5,-81 211.5,-81 211.5,-62 73.5,-62"/>
<text text-anchor="middle" x="142.5" y="-69" font-family="Helvetica,sans-Serif" font-size="10.00" fill="#000000">tracktion_engine::TrackItem</text>
</a>
</g>
</g>
<!-- Node1&#45;&gt;Node0 -->
<g id="edge1" class="edge">
<title>Node1&#45;&gt;Node0</title>
<path fill="none" stroke="#191970" d="M162.6036,-55.6491C177.0965,-44.222 196.1806,-29.1749 208.3981,-19.5419"/>
<polygon fill="#191970" stroke="#191970" points="160.3732,-52.9506 154.6875,-61.8906 164.7073,-58.4475 160.3732,-52.9506"/>
</g>
<!-- Node2 -->
<g id="node3" class="node">
<title>Node2</title>
<g id="a_node3"><a xlink:href="classtracktion__engine_1_1EditItem.html" target="_top" xlink:title="Base class for objects that live inside an edit &#45; e.g. ">
<polygon fill="none" stroke="#000000" points="0,-123.5 0,-142.5 131,-142.5 131,-123.5 0,-123.5"/>
<text text-anchor="middle" x="65.5" y="-130.5" font-family="Helvetica,sans-Serif" font-size="10.00" fill="#000000">tracktion_engine::EditItem</text>
</a>
</g>
</g>
<!-- Node2&#45;&gt;Node1 -->
<g id="edge2" class="edge">
<title>Node2&#45;&gt;Node1</title>
<path fill="none" stroke="#191970" d="M85.3458,-117.1491C99.653,-105.722 118.4924,-90.6749 130.5532,-81.0419"/>
<polygon fill="#191970" stroke="#191970" points="83.1606,-114.415 77.5313,-123.3906 87.5292,-119.8846 83.1606,-114.415"/>
</g>
<!-- Node3 -->
<g id="node4" class="node">
<title>Node3</title>
<g id="a_node4"><a xlink:href="classtracktion__engine_1_1Selectable.html" target="_top" xlink:title="Base class for things that can be selected, and whose properties can appear in the properties panel...">
<polygon fill="none" stroke="#000000" points="149.5,-123.5 149.5,-142.5 289.5,-142.5 289.5,-123.5 149.5,-123.5"/>
<text text-anchor="middle" x="219.5" y="-130.5" font-family="Helvetica,sans-Serif" font-size="10.00" fill="#000000">tracktion_engine::Selectable</text>
</a>
</g>
</g>
<!-- Node3&#45;&gt;Node1 -->
<g id="edge3" class="edge">
<title>Node3&#45;&gt;Node1</title>
<path fill="none" stroke="#191970" d="M199.6542,-117.1491C185.347,-105.722 166.5076,-90.6749 154.4468,-81.0419"/>
<polygon fill="#191970" stroke="#191970" points="197.4708,-119.8846 207.4688,-123.3906 201.8394,-114.415 197.4708,-119.8846"/>
</g>
<!-- Node4 -->
<g id="node5" class="node">
<title>Node4</title>
<g id="a_node5"><a xlink:href="structtracktion__engine_1_1ValueTreeAllEventListener.html" target="_top" xlink:title="tracktion_engine::ValueTree\lAllEventListener">
<polygon fill="none" stroke="#000000" points="229.5,-56.5 229.5,-86.5 367.5,-86.5 367.5,-56.5 229.5,-56.5"/>
<text text-anchor="start" x="237.5" y="-74.5" font-family="Helvetica,sans-Serif" font-size="10.00" fill="#000000">tracktion_engine::ValueTree</text>
<text text-anchor="middle" x="298.5" y="-63.5" font-family="Helvetica,sans-Serif" font-size="10.00" fill="#000000">AllEventListener</text>
</a>
</g>
</g>
<!-- Node4&#45;&gt;Node0 -->
<g id="edge4" class="edge">
<title>Node4&#45;&gt;Node0</title>
<path fill="none" stroke="#8b1a1a" d="M271.0314,-49.8421C258.0584,-39.6133 243.2148,-27.9097 232.9888,-19.8469"/>
<polygon fill="#8b1a1a" stroke="#8b1a1a" points="269.1993,-52.8546 279.2191,-56.2977 273.5334,-47.3577 269.1993,-52.8546"/>
</g>
</g>
</svg>
