<?xml version="1.0" encoding="UTF-8" standalone="no"?>
<!DOCTYPE svg PUBLIC "-//W3C//DTD SVG 1.1//EN"
 "http://www.w3.org/Graphics/SVG/1.1/DTD/svg11.dtd">
<!-- Generated by graphviz version 2.40.1 (20161225.0304)
 -->
<!-- Title: tracktion_engine::OutputDevice Pages: 1 -->
<svg width="316pt" height="229pt"
 viewBox="0.00 0.00 316.00 229.00" xmlns="http://www.w3.org/2000/svg" xmlns:xlink="http://www.w3.org/1999/xlink">
<g id="graph0" class="graph" transform="scale(1 1) rotate(0) translate(4 225)">
<title>tracktion_engine::OutputDevice</title>
<!-- Node0 -->
<g id="node1" class="node">
<title>Node0</title>
<polygon fill="#bfbfbf" stroke="#000000" points="90,-134.5 90,-164.5 213,-164.5 213,-134.5 90,-134.5"/>
<text text-anchor="start" x="98" y="-152.5" font-family="Helvetica,sans-Serif" font-size="10.00" fill="#000000">tracktion_engine::Output</text>
<text text-anchor="middle" x="151.5" y="-141.5" font-family="Helvetica,sans-Serif" font-size="10.00" fill="#000000">Device</text>
</g>
<!-- Node2 -->
<g id="node3" class="node">
<title>Node2</title>
<g id="a_node3"><a xlink:href="classtracktion__engine_1_1MidiOutputDevice.html" target="_top" xlink:title="tracktion_engine::MidiOutput\lDevice">
<polygon fill="none" stroke="#000000" points="0,-67.5 0,-97.5 141,-97.5 141,-67.5 0,-67.5"/>
<text text-anchor="start" x="8" y="-85.5" font-family="Helvetica,sans-Serif" font-size="10.00" fill="#000000">tracktion_engine::MidiOutput</text>
<text text-anchor="middle" x="70.5" y="-74.5" font-family="Helvetica,sans-Serif" font-size="10.00" fill="#000000">Device</text>
</a>
</g>
</g>
<!-- Node0&#45;&gt;Node2 -->
<g id="edge2" class="edge">
<title>Node0&#45;&gt;Node2</title>
<path fill="none" stroke="#191970" d="M125.2425,-127.7808C113.3433,-117.9383 99.5644,-106.541 88.8074,-97.6432"/>
<polygon fill="#191970" stroke="#191970" points="123.1835,-130.6198 133.1198,-134.2967 127.6451,-125.2259 123.1835,-130.6198"/>
</g>
<!-- Node4 -->
<g id="node5" class="node">
<title>Node4</title>
<g id="a_node5"><a xlink:href="classtracktion__engine_1_1WaveOutputDevice.html" target="_top" xlink:title="A (virtual) audio output device. ">
<polygon fill="none" stroke="#000000" points="159,-67.5 159,-97.5 308,-97.5 308,-67.5 159,-67.5"/>
<text text-anchor="start" x="167" y="-85.5" font-family="Helvetica,sans-Serif" font-size="10.00" fill="#000000">tracktion_engine::WaveOutput</text>
<text text-anchor="middle" x="233.5" y="-74.5" font-family="Helvetica,sans-Serif" font-size="10.00" fill="#000000">Device</text>
</a>
</g>
</g>
<!-- Node0&#45;&gt;Node4 -->
<g id="edge4" class="edge">
<title>Node0&#45;&gt;Node4</title>
<path fill="none" stroke="#191970" d="M178.0817,-127.7808C190.1278,-117.9383 204.0767,-106.541 214.9666,-97.6432"/>
<polygon fill="#191970" stroke="#191970" points="175.6363,-125.2591 170.1071,-134.2967 180.0654,-130.6797 175.6363,-125.2591"/>
</g>
<!-- Node1 -->
<g id="node2" class="node">
<title>Node1</title>
<g id="a_node2"><a xlink:href="classtracktion__engine_1_1Selectable.html" target="_top" xlink:title="Base class for things that can be selected, and whose properties can appear in the properties panel...">
<polygon fill="none" stroke="#000000" points="81.5,-201.5 81.5,-220.5 221.5,-220.5 221.5,-201.5 81.5,-201.5"/>
<text text-anchor="middle" x="151.5" y="-208.5" font-family="Helvetica,sans-Serif" font-size="10.00" fill="#000000">tracktion_engine::Selectable</text>
</a>
</g>
</g>
<!-- Node1&#45;&gt;Node0 -->
<g id="edge1" class="edge">
<title>Node1&#45;&gt;Node0</title>
<path fill="none" stroke="#191970" d="M151.5,-191.3693C151.5,-182.681 151.5,-172.6241 151.5,-164.5446"/>
<polygon fill="#191970" stroke="#191970" points="148.0001,-191.3906 151.5,-201.3906 155.0001,-191.3907 148.0001,-191.3906"/>
</g>
<!-- Node3 -->
<g id="node4" class="node">
<title>Node3</title>
<g id="a_node4"><a xlink:href="classtracktion__engine_1_1SoftwareMidiOutputDevice.html" target="_top" xlink:title="Create a software midi port on macOS. ">
<polygon fill="none" stroke="#000000" points="4,-.5 4,-30.5 137,-30.5 137,-.5 4,-.5"/>
<text text-anchor="start" x="12" y="-18.5" font-family="Helvetica,sans-Serif" font-size="10.00" fill="#000000">tracktion_engine::Software</text>
<text text-anchor="middle" x="70.5" y="-7.5" font-family="Helvetica,sans-Serif" font-size="10.00" fill="#000000">MidiOutputDevice</text>
</a>
</g>
</g>
<!-- Node2&#45;&gt;Node3 -->
<g id="edge3" class="edge">
<title>Node2&#45;&gt;Node3</title>
<path fill="none" stroke="#191970" d="M70.5,-57.0249C70.5,-48.128 70.5,-38.4287 70.5,-30.6432"/>
<polygon fill="#191970" stroke="#191970" points="67.0001,-57.2966 70.5,-67.2967 74.0001,-57.2967 67.0001,-57.2966"/>
</g>
</g>
</svg>
