<?xml version="1.0" encoding="UTF-8" standalone="no"?>
<!DOCTYPE svg PUBLIC "-//W3C//DTD SVG 1.1//EN"
 "http://www.w3.org/Graphics/SVG/1.1/DTD/svg11.dtd">
<!-- Generated by graphviz version 2.40.1 (20161225.0304)
 -->
<!-- Title: tracktion_engine::ControlSurface Pages: 1 -->
<svg width="494pt" height="350pt"
 viewBox="0.00 0.00 494.00 350.00" xmlns="http://www.w3.org/2000/svg" xmlns:xlink="http://www.w3.org/1999/xlink">
<g id="graph0" class="graph" transform="scale(1 1) rotate(0) translate(4 346)">
<title>tracktion_engine::ControlSurface</title>
<!-- Node0 -->
<g id="node1" class="node">
<title>Node0</title>
<polygon fill="#bfbfbf" stroke="#000000" points="176,-161.5 176,-191.5 301,-191.5 301,-161.5 176,-161.5"/>
<text text-anchor="start" x="184" y="-179.5" font-family="Helvetica,sans-Serif" font-size="10.00" fill="#000000">tracktion_engine::Control</text>
<text text-anchor="middle" x="238.5" y="-168.5" font-family="Helvetica,sans-Serif" font-size="10.00" fill="#000000">Surface</text>
</g>
<!-- Node2 -->
<g id="node3" class="node">
<title>Node2</title>
<g id="a_node3"><a xlink:href="classtracktion__engine_1_1AlphaTrackControlSurface.html" target="_top" xlink:title="tracktion_engine::AlphaTrack\lControlSurface">
<polygon fill="none" stroke="#000000" points="340,-311.5 340,-341.5 483,-341.5 483,-311.5 340,-311.5"/>
<text text-anchor="start" x="348" y="-329.5" font-family="Helvetica,sans-Serif" font-size="10.00" fill="#000000">tracktion_engine::AlphaTrack</text>
<text text-anchor="middle" x="411.5" y="-318.5" font-family="Helvetica,sans-Serif" font-size="10.00" fill="#000000">ControlSurface</text>
</a>
</g>
</g>
<!-- Node0&#45;&gt;Node2 -->
<g id="edge2" class="edge">
<title>Node0&#45;&gt;Node2</title>
<path fill="none" stroke="#191970" d="M251.3323,-200.5548C267.6303,-228.8899 298.3409,-275.5111 337,-302.5 341.9025,-305.9226 347.3205,-308.8776 352.9321,-311.4247"/>
<polygon fill="#191970" stroke="#191970" points="254.3114,-198.7113 246.3671,-191.7013 248.2059,-202.1353 254.3114,-198.7113"/>
</g>
<!-- Node3 -->
<g id="node4" class="node">
<title>Node3</title>
<g id="a_node4"><a xlink:href="classtracktion__engine_1_1CustomControlSurface.html" target="_top" xlink:title="tracktion_engine::Custom\lControlSurface">
<polygon fill="none" stroke="#000000" points="347.5,-262.5 347.5,-292.5 475.5,-292.5 475.5,-262.5 347.5,-262.5"/>
<text text-anchor="start" x="355.5" y="-280.5" font-family="Helvetica,sans-Serif" font-size="10.00" fill="#000000">tracktion_engine::Custom</text>
<text text-anchor="middle" x="411.5" y="-269.5" font-family="Helvetica,sans-Serif" font-size="10.00" fill="#000000">ControlSurface</text>
</a>
</g>
</g>
<!-- Node0&#45;&gt;Node3 -->
<g id="edge3" class="edge">
<title>Node0&#45;&gt;Node3</title>
<path fill="none" stroke="#191970" d="M261.9731,-198.2667C281.0085,-214.9766 309.1588,-237.6332 337,-252.5 343.98,-256.2272 351.6214,-259.5488 359.2661,-262.4573"/>
<polygon fill="#191970" stroke="#191970" points="264.1922,-195.5561 254.4005,-191.5095 259.5316,-200.779 264.1922,-195.5561"/>
</g>
<!-- Node4 -->
<g id="node5" class="node">
<title>Node4</title>
<g id="a_node5"><a xlink:href="classtracktion__engine_1_1MackieC4.html" target="_top" xlink:title="tracktion_engine::MackieC4">
<polygon fill="none" stroke="#000000" points="342.5,-224 342.5,-243 480.5,-243 480.5,-224 342.5,-224"/>
<text text-anchor="middle" x="411.5" y="-231" font-family="Helvetica,sans-Serif" font-size="10.00" fill="#000000">tracktion_engine::MackieC4</text>
</a>
</g>
</g>
<!-- Node0&#45;&gt;Node4 -->
<g id="edge4" class="edge">
<title>Node0&#45;&gt;Node4</title>
<path fill="none" stroke="#191970" d="M284.0458,-195.3656C300.5713,-201.8655 319.4841,-208.9094 337,-214.5 347.6815,-217.9092 359.3743,-221.1268 370.2649,-223.9114"/>
<polygon fill="#191970" stroke="#191970" points="285.2058,-192.0603 274.6202,-191.6165 282.6186,-198.5647 285.2058,-192.0603"/>
</g>
<!-- Node5 -->
<g id="node6" class="node">
<title>Node5</title>
<g id="a_node6"><a xlink:href="classtracktion__engine_1_1MackieMCU.html" target="_top" xlink:title="tracktion_engine::MackieMCU">
<polygon fill="none" stroke="#000000" points="337,-186 337,-205 486,-205 486,-186 337,-186"/>
<text text-anchor="middle" x="411.5" y="-193" font-family="Helvetica,sans-Serif" font-size="10.00" fill="#000000">tracktion_engine::MackieMCU</text>
</a>
</g>
</g>
<!-- Node0&#45;&gt;Node5 -->
<g id="edge5" class="edge">
<title>Node0&#45;&gt;Node5</title>
<path fill="none" stroke="#191970" d="M311.5451,-184.5223C319.912,-185.4412 328.4511,-186.379 336.8389,-187.3002"/>
<polygon fill="#191970" stroke="#191970" points="311.7687,-181.0259 301.4464,-183.4132 311.0045,-187.9841 311.7687,-181.0259"/>
</g>
<!-- Node6 -->
<g id="node7" class="node">
<title>Node6</title>
<g id="a_node7"><a xlink:href="classtracktion__engine_1_1MackieXT.html" target="_top" xlink:title="tracktion_engine::MackieXT">
<polygon fill="none" stroke="#000000" points="342.5,-148 342.5,-167 480.5,-167 480.5,-148 342.5,-148"/>
<text text-anchor="middle" x="411.5" y="-155" font-family="Helvetica,sans-Serif" font-size="10.00" fill="#000000">tracktion_engine::MackieXT</text>
</a>
</g>
</g>
<!-- Node0&#45;&gt;Node6 -->
<g id="edge6" class="edge">
<title>Node0&#45;&gt;Node6</title>
<path fill="none" stroke="#191970" d="M311.5752,-168.4744C321.8117,-167.3502 332.3053,-166.1977 342.4636,-165.082"/>
<polygon fill="#191970" stroke="#191970" points="311.0045,-165.0159 301.4464,-169.5868 311.7687,-171.9741 311.0045,-165.0159"/>
</g>
<!-- Node7 -->
<g id="node8" class="node">
<title>Node7</title>
<g id="a_node8"><a xlink:href="classtracktion__engine_1_1NovationRemoteSl.html" target="_top" xlink:title="tracktion_engine::Novation\lRemoteSl">
<polygon fill="none" stroke="#000000" points="345,-98.5 345,-128.5 478,-128.5 478,-98.5 345,-98.5"/>
<text text-anchor="start" x="353" y="-116.5" font-family="Helvetica,sans-Serif" font-size="10.00" fill="#000000">tracktion_engine::Novation</text>
<text text-anchor="middle" x="411.5" y="-105.5" font-family="Helvetica,sans-Serif" font-size="10.00" fill="#000000">RemoteSl</text>
</a>
</g>
</g>
<!-- Node0&#45;&gt;Node7 -->
<g id="edge7" class="edge">
<title>Node0&#45;&gt;Node7</title>
<path fill="none" stroke="#191970" d="M285.9902,-157.6889C302.1229,-151.4295 320.2931,-144.5225 337,-138.5 346.2408,-135.1689 356.1767,-131.734 365.6858,-128.5172"/>
<polygon fill="#191970" stroke="#191970" points="284.2864,-154.5964 276.2399,-161.4888 286.8283,-161.1186 284.2864,-154.5964"/>
</g>
<!-- Node8 -->
<g id="node9" class="node">
<title>Node8</title>
<g id="a_node9"><a xlink:href="classtracktion__engine_1_1RemoteSLCompact.html" target="_top" xlink:title="tracktion_engine::Remote\lSLCompact">
<polygon fill="none" stroke="#000000" points="347.5,-49.5 347.5,-79.5 475.5,-79.5 475.5,-49.5 347.5,-49.5"/>
<text text-anchor="start" x="355.5" y="-67.5" font-family="Helvetica,sans-Serif" font-size="10.00" fill="#000000">tracktion_engine::Remote</text>
<text text-anchor="middle" x="411.5" y="-56.5" font-family="Helvetica,sans-Serif" font-size="10.00" fill="#000000">SLCompact</text>
</a>
</g>
</g>
<!-- Node0&#45;&gt;Node8 -->
<g id="edge8" class="edge">
<title>Node0&#45;&gt;Node8</title>
<path fill="none" stroke="#191970" d="M258.5,-153.9342C277.0887,-134.1944 306.4385,-106.0147 337,-88.5 342.8949,-85.1217 349.329,-82.1475 355.8669,-79.5484"/>
<polygon fill="#191970" stroke="#191970" points="255.9054,-151.5848 251.6886,-161.3043 261.0462,-156.3359 255.9054,-151.5848"/>
</g>
<!-- Node9 -->
<g id="node10" class="node">
<title>Node9</title>
<g id="a_node10"><a xlink:href="classtracktion__engine_1_1TranzportControlSurface.html" target="_top" xlink:title="tracktion_engine::Tranzport\lControlSurface">
<polygon fill="none" stroke="#000000" points="344,-.5 344,-30.5 479,-30.5 479,-.5 344,-.5"/>
<text text-anchor="start" x="352" y="-18.5" font-family="Helvetica,sans-Serif" font-size="10.00" fill="#000000">tracktion_engine::Tranzport</text>
<text text-anchor="middle" x="411.5" y="-7.5" font-family="Helvetica,sans-Serif" font-size="10.00" fill="#000000">ControlSurface</text>
</a>
</g>
</g>
<!-- Node0&#45;&gt;Node9 -->
<g id="edge9" class="edge">
<title>Node0&#45;&gt;Node9</title>
<path fill="none" stroke="#191970" d="M249.8632,-152.1772C265.3664,-121.5643 295.9774,-69.3818 337,-39.5 341.7229,-36.0597 346.9612,-33.098 352.4083,-30.5512"/>
<polygon fill="#191970" stroke="#191970" points="246.647,-150.7858 245.3664,-161.303 252.9261,-153.8798 246.647,-150.7858"/>
</g>
<!-- Node1 -->
<g id="node2" class="node">
<title>Node1</title>
<g id="a_node2"><a xlink:href="classtracktion__engine_1_1Selectable.html" target="_top" xlink:title="Base class for things that can be selected, and whose properties can appear in the properties panel...">
<polygon fill="none" stroke="#000000" points="0,-167 0,-186 140,-186 140,-167 0,-167"/>
<text text-anchor="middle" x="70" y="-174" font-family="Helvetica,sans-Serif" font-size="10.00" fill="#000000">tracktion_engine::Selectable</text>
</a>
</g>
</g>
<!-- Node1&#45;&gt;Node0 -->
<g id="edge1" class="edge">
<title>Node1&#45;&gt;Node0</title>
<path fill="none" stroke="#191970" d="M150.7184,-176.5C159.1475,-176.5 167.6239,-176.5 175.8092,-176.5"/>
<polygon fill="#191970" stroke="#191970" points="150.4829,-173.0001 140.4829,-176.5 150.4828,-180.0001 150.4829,-173.0001"/>
</g>
</g>
</svg>
