<?xml version="1.0" encoding="UTF-8" standalone="no"?>
<!DOCTYPE svg PUBLIC "-//W3C//DTD SVG 1.1//EN"
 "http://www.w3.org/Graphics/SVG/1.1/DTD/svg11.dtd">
<!-- Generated by graphviz version 2.43.0 (0)
 -->
<!-- Title: tracktion_graph::Node Pages: 1 -->
<svg width="585pt" height="1831pt"
 viewBox="0.00 0.00 585.00 1831.00" xmlns="http://www.w3.org/2000/svg" xmlns:xlink="http://www.w3.org/1999/xlink">
<g id="graph0" class="graph" transform="scale(1 1) rotate(0) translate(4 1827)">
<title>tracktion_graph::Node</title>
<!-- Node1 -->
<g id="node1" class="node">
<title>Node1</title>
<g id="a_node1"><a xlink:title="Main graph Node processor class.">
<polygon fill="#bfbfbf" stroke="black" points="0,-862.5 0,-881.5 125,-881.5 125,-862.5 0,-862.5"/>
<text text-anchor="middle" x="62.5" y="-869.5" font-family="Helvetica,sans-Serif" font-size="10.00">tracktion_graph::Node</text>
</a>
</g>
</g>
<!-- Node2 -->
<g id="node2" class="node">
<title>Node2</title>
<g id="a_node2"><a xlink:href="classtracktion__engine_1_1ClickNode.html" target="_top" xlink:title="Adds audio and MIDI clicks to the input buffers.">
<polygon fill="none" stroke="black" points="187.5,-1803.5 187.5,-1822.5 341.5,-1822.5 341.5,-1803.5 187.5,-1803.5"/>
<text text-anchor="middle" x="264.5" y="-1810.5" font-family="Helvetica,sans-Serif" font-size="10.00">tracktion_engine::ClickNode</text>
</a>
</g>
</g>
<!-- Node1&#45;&gt;Node2 -->
<g id="edge1" class="edge">
<title>Node1&#45;&gt;Node2</title>
<path fill="none" stroke="midnightblue" d="M64.19,-891.76C68.86,-1019.47 97.41,-1725.25 161,-1794 168.19,-1801.77 177.45,-1806.98 187.45,-1810.4"/>
<polygon fill="midnightblue" stroke="midnightblue" points="67.68,-891.39 63.83,-881.52 60.69,-891.64 67.68,-891.39"/>
</g>
<!-- Node3 -->
<g id="node3" class="node">
<title>Node3</title>
<g id="a_node3"><a xlink:href="classtracktion__engine_1_1CombiningNode.html" target="_top" xlink:title="An Node that mixes a sequence of clips of other nodes.">
<polygon fill="none" stroke="black" points="173.5,-1765.5 173.5,-1784.5 355.5,-1784.5 355.5,-1765.5 173.5,-1765.5"/>
<text text-anchor="middle" x="264.5" y="-1772.5" font-family="Helvetica,sans-Serif" font-size="10.00">tracktion_engine::CombiningNode</text>
</a>
</g>
</g>
<!-- Node1&#45;&gt;Node3 -->
<g id="edge2" class="edge">
<title>Node1&#45;&gt;Node3</title>
<path fill="none" stroke="midnightblue" d="M64.29,-891.72C69.43,-1016.23 99.98,-1690.32 161,-1756 164.57,-1759.84 168.65,-1763.06 173.07,-1765.75"/>
<polygon fill="midnightblue" stroke="midnightblue" points="67.78,-891.55 63.88,-881.7 60.79,-891.83 67.78,-891.55"/>
</g>
<!-- Node4 -->
<g id="node4" class="node">
<title>Node4</title>
<g id="a_node4"><a xlink:href="classtracktion__engine_1_1FadeInOutNode.html" target="_top" xlink:title="A Node that fades in and out given time regions.">
<polygon fill="none" stroke="black" points="196.5,-1716 196.5,-1746 332.5,-1746 332.5,-1716 196.5,-1716"/>
<text text-anchor="start" x="204.5" y="-1734" font-family="Helvetica,sans-Serif" font-size="10.00">tracktion_engine::FadeIn</text>
<text text-anchor="middle" x="264.5" y="-1723" font-family="Helvetica,sans-Serif" font-size="10.00">OutNode</text>
</a>
</g>
</g>
<!-- Node1&#45;&gt;Node4 -->
<g id="edge3" class="edge">
<title>Node1&#45;&gt;Node4</title>
<path fill="none" stroke="midnightblue" d="M64.46,-891.7C70.5,-1011.94 104.76,-1643.96 161,-1707 170.25,-1717.36 183.04,-1723.69 196.45,-1727.46"/>
<polygon fill="midnightblue" stroke="midnightblue" points="67.96,-891.51 63.96,-881.7 60.96,-891.86 67.96,-891.51"/>
</g>
<!-- Node5 -->
<g id="node5" class="node">
<title>Node5</title>
<g id="a_node5"><a xlink:href="classtracktion__engine_1_1HostedMidiInputDeviceNode.html" target="_top" xlink:title="A Node that intercepts MIDI from a plugin callback and inserts it in to the playback graph.">
<polygon fill="none" stroke="black" points="195,-1667 195,-1697 334,-1697 334,-1667 195,-1667"/>
<text text-anchor="start" x="203" y="-1685" font-family="Helvetica,sans-Serif" font-size="10.00">tracktion_engine::Hosted</text>
<text text-anchor="middle" x="264.5" y="-1674" font-family="Helvetica,sans-Serif" font-size="10.00">MidiInputDeviceNode</text>
</a>
</g>
</g>
<!-- Node1&#45;&gt;Node5 -->
<g id="edge4" class="edge">
<title>Node1&#45;&gt;Node5</title>
<path fill="none" stroke="midnightblue" d="M64.63,-891.97C71.38,-1008.63 108.02,-1599.05 161,-1658 169.92,-1667.92 182.08,-1674.14 194.92,-1677.95"/>
<polygon fill="midnightblue" stroke="midnightblue" points="68.1,-891.45 64.04,-881.66 61.11,-891.85 68.1,-891.45"/>
</g>
<!-- Node6 -->
<g id="node6" class="node">
<title>Node6</title>
<g id="a_node6"><a xlink:href="classtracktion__engine_1_1InsertReturnNode.html" target="_top" xlink:title="The return node hooks into the input device and fills the insert&#39;s return buffer with data from the i...">
<polygon fill="none" stroke="black" points="198.5,-1618 198.5,-1648 330.5,-1648 330.5,-1618 198.5,-1618"/>
<text text-anchor="start" x="206.5" y="-1636" font-family="Helvetica,sans-Serif" font-size="10.00">tracktion_engine::Insert</text>
<text text-anchor="middle" x="264.5" y="-1625" font-family="Helvetica,sans-Serif" font-size="10.00">ReturnNode</text>
</a>
</g>
</g>
<!-- Node1&#45;&gt;Node6 -->
<g id="edge5" class="edge">
<title>Node1&#45;&gt;Node6</title>
<path fill="none" stroke="midnightblue" d="M63.21,-891.99C62.05,-998.64 62.02,-1499.76 161,-1609 170.76,-1619.77 184.34,-1626.16 198.43,-1629.86"/>
<polygon fill="midnightblue" stroke="midnightblue" points="66.71,-891.75 63.33,-881.7 59.71,-891.66 66.71,-891.75"/>
</g>
<!-- Node7 -->
<g id="node7" class="node">
<title>Node7</title>
<g id="a_node7"><a xlink:href="classtracktion__engine_1_1InsertSendNode.html" target="_top" xlink:title="The send node picks up audio/MIDI data from the InsertPlugin and then its output will be sent to the ...">
<polygon fill="none" stroke="black" points="198.5,-1569 198.5,-1599 330.5,-1599 330.5,-1569 198.5,-1569"/>
<text text-anchor="start" x="206.5" y="-1587" font-family="Helvetica,sans-Serif" font-size="10.00">tracktion_engine::Insert</text>
<text text-anchor="middle" x="264.5" y="-1576" font-family="Helvetica,sans-Serif" font-size="10.00">SendNode</text>
</a>
</g>
</g>
<!-- Node1&#45;&gt;Node7 -->
<g id="edge6" class="edge">
<title>Node1&#45;&gt;Node7</title>
<path fill="none" stroke="midnightblue" d="M63.41,-891.62C63.37,-993.2 68.3,-1458.64 161,-1560 170.81,-1570.72 184.41,-1577.1 198.5,-1580.8"/>
<polygon fill="midnightblue" stroke="midnightblue" points="66.91,-891.54 63.44,-881.54 59.91,-891.53 66.91,-891.54"/>
</g>
<!-- Node8 -->
<g id="node8" class="node">
<title>Node8</title>
<g id="a_node8"><a xlink:href="classtracktion__engine_1_1InsertSendReturnDependencyNode.html" target="_top" xlink:title="This is a bit confusing but is required to ensure the following set of dependencies in the graph: Ins...">
<polygon fill="none" stroke="black" points="185,-1520 185,-1550 344,-1550 344,-1520 185,-1520"/>
<text text-anchor="start" x="193" y="-1538" font-family="Helvetica,sans-Serif" font-size="10.00">tracktion_engine::Insert</text>
<text text-anchor="middle" x="264.5" y="-1527" font-family="Helvetica,sans-Serif" font-size="10.00">SendReturnDependencyNode</text>
</a>
</g>
</g>
<!-- Node1&#45;&gt;Node8 -->
<g id="edge7" class="edge">
<title>Node1&#45;&gt;Node8</title>
<path fill="none" stroke="midnightblue" d="M63.65,-892.04C64.81,-990.03 74.81,-1417.75 161,-1511 167.58,-1518.11 175.82,-1523.31 184.76,-1527.08"/>
<polygon fill="midnightblue" stroke="midnightblue" points="67.15,-891.73 63.55,-881.77 60.15,-891.8 67.15,-891.73"/>
</g>
<!-- Node9 -->
<g id="node9" class="node">
<title>Node9</title>
<g id="a_node9"><a xlink:href="classtracktion__engine_1_1LevelMeasurerProcessingNode.html" target="_top" xlink:title="A Node that introduces latency to balance the latency at the root Node and its position in the graph.">
<polygon fill="none" stroke="black" points="176.5,-1471 176.5,-1501 352.5,-1501 352.5,-1471 176.5,-1471"/>
<text text-anchor="start" x="184.5" y="-1489" font-family="Helvetica,sans-Serif" font-size="10.00">tracktion_engine::LevelMeasurer</text>
<text text-anchor="middle" x="264.5" y="-1478" font-family="Helvetica,sans-Serif" font-size="10.00">ProcessingNode</text>
</a>
</g>
</g>
<!-- Node1&#45;&gt;Node9 -->
<g id="edge8" class="edge">
<title>Node1&#45;&gt;Node9</title>
<path fill="none" stroke="midnightblue" d="M63.95,-891.92C66.46,-984.92 81.67,-1375.47 161,-1461 165.48,-1465.83 170.73,-1469.8 176.45,-1473.06"/>
<polygon fill="midnightblue" stroke="midnightblue" points="67.45,-891.79 63.7,-881.88 60.45,-891.96 67.45,-891.79"/>
</g>
<!-- Node10 -->
<g id="node10" class="node">
<title>Node10</title>
<g id="a_node10"><a xlink:href="classtracktion__engine_1_1LevelMeasuringNode.html" target="_top" xlink:title="A Node that passes its incomming audio and MIDI through a LevelMeasurer.">
<polygon fill="none" stroke="black" points="161,-1432.5 161,-1451.5 368,-1451.5 368,-1432.5 161,-1432.5"/>
<text text-anchor="middle" x="264.5" y="-1439.5" font-family="Helvetica,sans-Serif" font-size="10.00">tracktion_engine::LevelMeasuringNode</text>
</a>
</g>
</g>
<!-- Node1&#45;&gt;Node10 -->
<g id="edge9" class="edge">
<title>Node1&#45;&gt;Node10</title>
<path fill="none" stroke="midnightblue" d="M64.09,-891.85C67.17,-981.26 84.32,-1345.69 161,-1423 164.7,-1426.73 168.87,-1429.85 173.37,-1432.47"/>
<polygon fill="midnightblue" stroke="midnightblue" points="67.58,-891.6 63.76,-881.72 60.59,-891.83 67.58,-891.6"/>
</g>
<!-- Node11 -->
<g id="node11" class="node">
<title>Node11</title>
<g id="a_node11"><a xlink:href="classtracktion__engine_1_1LiveMidiInjectingNode.html" target="_top" xlink:title="A Node that injects MIDI message in to the stream, for keyboard key entry, note previews and MIDI ste...">
<polygon fill="none" stroke="black" points="191.5,-1383 191.5,-1413 337.5,-1413 337.5,-1383 191.5,-1383"/>
<text text-anchor="start" x="199.5" y="-1401" font-family="Helvetica,sans-Serif" font-size="10.00">tracktion_engine::LiveMidi</text>
<text text-anchor="middle" x="264.5" y="-1390" font-family="Helvetica,sans-Serif" font-size="10.00">InjectingNode</text>
</a>
</g>
</g>
<!-- Node1&#45;&gt;Node11 -->
<g id="edge10" class="edge">
<title>Node1&#45;&gt;Node11</title>
<path fill="none" stroke="midnightblue" d="M64.55,-891.85C69.41,-976.06 92.49,-1302.83 161,-1374 169.3,-1382.62 180.07,-1388.41 191.49,-1392.24"/>
<polygon fill="midnightblue" stroke="midnightblue" points="68.03,-891.41 63.98,-881.62 61.04,-891.8 68.03,-891.41"/>
</g>
<!-- Node12 -->
<g id="node12" class="node">
<title>Node12</title>
<g id="a_node12"><a xlink:href="classtracktion__engine_1_1LiveMidiOutputNode.html" target="_top" xlink:title="A Node that calls the listeners of an AudioTrack with any incomming MIDI.">
<polygon fill="none" stroke="black" points="191.5,-1334 191.5,-1364 337.5,-1364 337.5,-1334 191.5,-1334"/>
<text text-anchor="start" x="199.5" y="-1352" font-family="Helvetica,sans-Serif" font-size="10.00">tracktion_engine::LiveMidi</text>
<text text-anchor="middle" x="264.5" y="-1341" font-family="Helvetica,sans-Serif" font-size="10.00">OutputNode</text>
</a>
</g>
</g>
<!-- Node1&#45;&gt;Node12 -->
<g id="edge11" class="edge">
<title>Node1&#45;&gt;Node12</title>
<path fill="none" stroke="midnightblue" d="M65.03,-891.85C71.51,-970.69 99.22,-1260.54 161,-1324 169.31,-1332.53 180,-1338.34 191.34,-1342.26"/>
<polygon fill="midnightblue" stroke="midnightblue" points="68.51,-891.49 64.23,-881.8 61.53,-892.04 68.51,-891.49"/>
</g>
<!-- Node13 -->
<g id="node13" class="node">
<title>Node13</title>
<g id="a_node13"><a xlink:href="classtracktion__engine_1_1MelodyneNode.html" target="_top" xlink:title="Plays back a Melodyne plugin.">
<polygon fill="none" stroke="black" points="175.5,-1295.5 175.5,-1314.5 353.5,-1314.5 353.5,-1295.5 175.5,-1295.5"/>
<text text-anchor="middle" x="264.5" y="-1302.5" font-family="Helvetica,sans-Serif" font-size="10.00">tracktion_engine::MelodyneNode</text>
</a>
</g>
</g>
<!-- Node1&#45;&gt;Node13 -->
<g id="edge12" class="edge">
<title>Node1&#45;&gt;Node13</title>
<path fill="none" stroke="midnightblue" d="M65.37,-892.16C72.78,-967.39 102.53,-1230.27 161,-1286 165.19,-1290 169.94,-1293.29 175.03,-1295.99"/>
<polygon fill="midnightblue" stroke="midnightblue" points="68.82,-891.38 64.38,-881.76 61.85,-892.05 68.82,-891.38"/>
</g>
<!-- Node14 -->
<g id="node14" class="node">
<title>Node14</title>
<g id="a_node14"><a xlink:href="classtracktion__engine_1_1MidiInputDeviceNode.html" target="_top" xlink:title="A Node that intercepts incoming live MIDI and inserts it in to the playback graph.">
<polygon fill="none" stroke="black" points="189.5,-1246 189.5,-1276 339.5,-1276 339.5,-1246 189.5,-1246"/>
<text text-anchor="start" x="197.5" y="-1264" font-family="Helvetica,sans-Serif" font-size="10.00">tracktion_engine::MidiInput</text>
<text text-anchor="middle" x="264.5" y="-1253" font-family="Helvetica,sans-Serif" font-size="10.00">DeviceNode</text>
</a>
</g>
</g>
<!-- Node1&#45;&gt;Node14 -->
<g id="edge13" class="edge">
<title>Node1&#45;&gt;Node14</title>
<path fill="none" stroke="midnightblue" d="M66.13,-891.81C75.65,-960.43 110.37,-1186.49 161,-1236 168.92,-1243.75 178.83,-1249.23 189.33,-1253.08"/>
<polygon fill="midnightblue" stroke="midnightblue" points="69.55,-890.98 64.74,-881.55 62.62,-891.93 69.55,-890.98"/>
</g>
<!-- Node15 -->
<g id="node15" class="node">
<title>Node15</title>
<g id="a_node15"><a xlink:href="classtracktion__engine_1_1MidiNode.html" target="_top" xlink:title="A Node that plays MIDI data from a MidiMessageSequence, at a specific MIDI channel.">
<polygon fill="none" stroke="black" points="189,-1207.5 189,-1226.5 340,-1226.5 340,-1207.5 189,-1207.5"/>
<text text-anchor="middle" x="264.5" y="-1214.5" font-family="Helvetica,sans-Serif" font-size="10.00">tracktion_engine::MidiNode</text>
</a>
</g>
</g>
<!-- Node1&#45;&gt;Node15 -->
<g id="edge14" class="edge">
<title>Node1&#45;&gt;Node15</title>
<path fill="none" stroke="midnightblue" d="M62.87,-891.74C62.22,-948.79 68.69,-1115.1 161,-1198 168.94,-1205.13 178.67,-1209.99 188.94,-1213.24"/>
<polygon fill="midnightblue" stroke="midnightblue" points="66.38,-891.64 63.08,-881.57 59.38,-891.49 66.38,-891.64"/>
</g>
<!-- Node16 -->
<g id="node16" class="node">
<title>Node16</title>
<g id="a_node16"><a xlink:href="classtracktion__engine_1_1MidiOutputDeviceInstanceInjectingNode.html" target="_top" xlink:title="A Node that injects the MIDI buffer of its input to the MidiOutputDevice.">
<polygon fill="none" stroke="black" points="185,-1158 185,-1188 344,-1188 344,-1158 185,-1158"/>
<text text-anchor="start" x="193" y="-1176" font-family="Helvetica,sans-Serif" font-size="10.00">tracktion_engine::MidiOutput</text>
<text text-anchor="middle" x="264.5" y="-1165" font-family="Helvetica,sans-Serif" font-size="10.00">DeviceInstanceInjectingNode</text>
</a>
</g>
</g>
<!-- Node1&#45;&gt;Node16 -->
<g id="edge15" class="edge">
<title>Node1&#45;&gt;Node16</title>
<path fill="none" stroke="midnightblue" d="M64.34,-891.81C67.62,-942.52 83.55,-1077.95 161,-1148 167.93,-1154.27 176.16,-1159.03 184.91,-1162.64"/>
<polygon fill="midnightblue" stroke="midnightblue" points="67.82,-891.37 63.79,-881.57 60.84,-891.75 67.82,-891.37"/>
</g>
<!-- Node17 -->
<g id="node17" class="node">
<title>Node17</title>
<g id="a_node17"><a xlink:href="classtracktion__engine_1_1ModifierNode.html" target="_top" xlink:title="Node for processing a Modifier.">
<polygon fill="none" stroke="black" points="179.5,-1119.5 179.5,-1138.5 349.5,-1138.5 349.5,-1119.5 179.5,-1119.5"/>
<text text-anchor="middle" x="264.5" y="-1126.5" font-family="Helvetica,sans-Serif" font-size="10.00">tracktion_engine::ModifierNode</text>
</a>
</g>
</g>
<!-- Node1&#45;&gt;Node17 -->
<g id="edge16" class="edge">
<title>Node1&#45;&gt;Node17</title>
<path fill="none" stroke="midnightblue" d="M65.35,-891.78C70.79,-937.94 91.05,-1053.13 161,-1110 166.55,-1114.51 172.82,-1118.08 179.47,-1120.89"/>
<polygon fill="midnightblue" stroke="midnightblue" points="68.81,-891.18 64.27,-881.61 61.85,-891.93 68.81,-891.18"/>
</g>
<!-- Node18 -->
<g id="node18" class="node">
<title>Node18</title>
<g id="a_node18"><a xlink:href="classtracktion__engine_1_1PlayHeadPositionNode.html" target="_top" xlink:title="A Node that calculates a position to show visually what time is currently being processed by the grap...">
<polygon fill="none" stroke="black" points="189,-1070 189,-1100 340,-1100 340,-1070 189,-1070"/>
<text text-anchor="start" x="197" y="-1088" font-family="Helvetica,sans-Serif" font-size="10.00">tracktion_engine::PlayHead</text>
<text text-anchor="middle" x="264.5" y="-1077" font-family="Helvetica,sans-Serif" font-size="10.00">PositionNode</text>
</a>
</g>
</g>
<!-- Node1&#45;&gt;Node18 -->
<g id="edge17" class="edge">
<title>Node1&#45;&gt;Node18</title>
<path fill="none" stroke="midnightblue" d="M67.9,-891.53C77.62,-930.01 104.68,-1015.77 161,-1060 169.21,-1066.45 178.85,-1071.27 188.87,-1074.86"/>
<polygon fill="midnightblue" stroke="midnightblue" points="71.25,-890.5 65.52,-881.6 64.45,-892.14 71.25,-890.5"/>
</g>
<!-- Node19 -->
<g id="node19" class="node">
<title>Node19</title>
<g id="a_node19"><a xlink:href="classtracktion__engine_1_1PluginNode.html" target="_top" xlink:title="Node for processing a plugin.">
<polygon fill="none" stroke="black" points="184.5,-1031.5 184.5,-1050.5 344.5,-1050.5 344.5,-1031.5 184.5,-1031.5"/>
<text text-anchor="middle" x="264.5" y="-1038.5" font-family="Helvetica,sans-Serif" font-size="10.00">tracktion_engine::PluginNode</text>
</a>
</g>
</g>
<!-- Node1&#45;&gt;Node19 -->
<g id="edge18" class="edge">
<title>Node1&#45;&gt;Node19</title>
<path fill="none" stroke="midnightblue" d="M70.25,-891.38C82.69,-924.03 112.5,-989.61 161,-1022 168.07,-1026.72 176,-1030.35 184.24,-1033.13"/>
<polygon fill="midnightblue" stroke="midnightblue" points="73.42,-889.85 66.69,-881.67 66.84,-892.26 73.42,-889.85"/>
</g>
<!-- Node20 -->
<g id="node20" class="node">
<title>Node20</title>
<g id="a_node20"><a xlink:href="classtracktion__engine_1_1RackInstanceNode.html" target="_top" xlink:title="Sends an input Node to a Rack bus handling the channel mapping and channel gain levels.">
<polygon fill="none" stroke="black" points="167,-993.5 167,-1012.5 362,-1012.5 362,-993.5 167,-993.5"/>
<text text-anchor="middle" x="264.5" y="-1000.5" font-family="Helvetica,sans-Serif" font-size="10.00">tracktion_engine::RackInstanceNode</text>
</a>
</g>
</g>
<!-- Node1&#45;&gt;Node20 -->
<g id="edge19" class="edge">
<title>Node1&#45;&gt;Node20</title>
<path fill="none" stroke="midnightblue" d="M73.98,-890.42C89.5,-915.87 121.1,-961.21 161,-984 167.76,-987.86 175.14,-990.96 182.74,-993.44"/>
<polygon fill="midnightblue" stroke="midnightblue" points="76.94,-888.55 68.84,-881.73 70.92,-892.12 76.94,-888.55"/>
</g>
<!-- Node21 -->
<g id="node21" class="node">
<title>Node21</title>
<g id="a_node21"><a xlink:href="classtracktion__engine_1_1RackReturnNode.html" target="_top" xlink:title="Sends an input Node to a Rack bus handling the channel mapping and channel gain levels.">
<polygon fill="none" stroke="black" points="171.5,-955.5 171.5,-974.5 357.5,-974.5 357.5,-955.5 171.5,-955.5"/>
<text text-anchor="middle" x="264.5" y="-962.5" font-family="Helvetica,sans-Serif" font-size="10.00">tracktion_engine::RackReturnNode</text>
</a>
</g>
</g>
<!-- Node1&#45;&gt;Node21 -->
<g id="edge20" class="edge">
<title>Node1&#45;&gt;Node21</title>
<path fill="none" stroke="midnightblue" d="M80.49,-888.92C98.77,-906.09 129.48,-932.07 161,-946 169.86,-949.92 179.49,-953.02 189.18,-955.49"/>
<polygon fill="midnightblue" stroke="midnightblue" points="82.64,-886.14 73.01,-881.73 77.79,-891.18 82.64,-886.14"/>
</g>
<!-- Node22 -->
<g id="node22" class="node">
<title>Node22</title>
<g id="a_node22"><a xlink:href="classtracktion__engine_1_1SharedLevelMeasuringNode.html" target="_top" xlink:title="Applies a SharedLevelMeter to the audio passing through this node.">
<polygon fill="none" stroke="black" points="195.5,-906 195.5,-936 333.5,-936 333.5,-906 195.5,-906"/>
<text text-anchor="start" x="203.5" y="-924" font-family="Helvetica,sans-Serif" font-size="10.00">tracktion_engine::Shared</text>
<text text-anchor="middle" x="264.5" y="-913" font-family="Helvetica,sans-Serif" font-size="10.00">LevelMeasuringNode</text>
</a>
</g>
</g>
<!-- Node1&#45;&gt;Node22 -->
<g id="edge21" class="edge">
<title>Node1&#45;&gt;Node22</title>
<path fill="none" stroke="midnightblue" d="M109.8,-884.08C125.98,-888.25 144.27,-892.9 161,-897 173.07,-899.96 185.96,-903.04 198.38,-905.97"/>
<polygon fill="midnightblue" stroke="midnightblue" points="110.59,-880.67 100.03,-881.56 108.84,-887.45 110.59,-880.67"/>
</g>
<!-- Node23 -->
<g id="node23" class="node">
<title>Node23</title>
<g id="a_node23"><a xlink:href="classtracktion__engine_1_1SpeedRampWaveNode.html" target="_top" xlink:title="An Node that plays back a wave file.">
<polygon fill="none" stroke="black" points="183,-857 183,-887 346,-887 346,-857 183,-857"/>
<text text-anchor="start" x="191" y="-875" font-family="Helvetica,sans-Serif" font-size="10.00">tracktion_engine::SpeedRamp</text>
<text text-anchor="middle" x="264.5" y="-864" font-family="Helvetica,sans-Serif" font-size="10.00">WaveNode</text>
</a>
</g>
</g>
<!-- Node1&#45;&gt;Node23 -->
<g id="edge22" class="edge">
<title>Node1&#45;&gt;Node23</title>
<path fill="none" stroke="midnightblue" d="M135.15,-872C150.64,-872 167.11,-872 182.91,-872"/>
<polygon fill="midnightblue" stroke="midnightblue" points="135.14,-868.5 125.14,-872 135.14,-875.5 135.14,-868.5"/>
</g>
<!-- Node24 -->
<g id="node24" class="node">
<title>Node24</title>
<g id="a_node24"><a xlink:href="classtracktion__engine_1_1TimedMutingNode.html" target="_top" xlink:title="A Node that mutes its input at specific time ranges.">
<polygon fill="none" stroke="black" points="167.5,-818.5 167.5,-837.5 361.5,-837.5 361.5,-818.5 167.5,-818.5"/>
<text text-anchor="middle" x="264.5" y="-825.5" font-family="Helvetica,sans-Serif" font-size="10.00">tracktion_engine::TimedMutingNode</text>
</a>
</g>
</g>
<!-- Node1&#45;&gt;Node24 -->
<g id="edge23" class="edge">
<title>Node1&#45;&gt;Node24</title>
<path fill="none" stroke="midnightblue" d="M110.15,-860.03C126.22,-856.03 144.36,-851.67 161,-848 177.55,-844.35 195.69,-840.7 212.04,-837.53"/>
<polygon fill="midnightblue" stroke="midnightblue" points="109.29,-856.63 100.44,-862.46 110.99,-863.43 109.29,-856.63"/>
</g>
<!-- Node25 -->
<g id="node25" class="node">
<title>Node25</title>
<g id="a_node25"><a xlink:href="classtracktion__engine_1_1TimeStretchingWaveNode.html" target="_top" xlink:title="Node that reads from a file node and timestretches its output.">
<polygon fill="none" stroke="black" points="175,-769 175,-799 354,-799 354,-769 175,-769"/>
<text text-anchor="start" x="183" y="-787" font-family="Helvetica,sans-Serif" font-size="10.00">tracktion_engine::TimeStretching</text>
<text text-anchor="middle" x="264.5" y="-776" font-family="Helvetica,sans-Serif" font-size="10.00">WaveNode</text>
</a>
</g>
</g>
<!-- Node1&#45;&gt;Node25 -->
<g id="edge24" class="edge">
<title>Node1&#45;&gt;Node25</title>
<path fill="none" stroke="midnightblue" d="M83.51,-856.19C102.47,-841.94 132.24,-821.38 161,-809 169.83,-805.2 179.35,-801.9 188.91,-799.07"/>
<polygon fill="midnightblue" stroke="midnightblue" points="81.18,-853.57 75.37,-862.43 85.43,-859.13 81.18,-853.57"/>
</g>
<!-- Node26 -->
<g id="node26" class="node">
<title>Node26</title>
<g id="a_node26"><a xlink:href="classtracktion__engine_1_1TrackMidiInputDeviceNode.html" target="_top" xlink:title="A Node that takes MIDI from the output of a track and sends it to its corresponding InputDevice.">
<polygon fill="none" stroke="black" points="189,-720 189,-750 340,-750 340,-720 189,-720"/>
<text text-anchor="start" x="197" y="-738" font-family="Helvetica,sans-Serif" font-size="10.00">tracktion_engine::TrackMidi</text>
<text text-anchor="middle" x="264.5" y="-727" font-family="Helvetica,sans-Serif" font-size="10.00">InputDeviceNode</text>
</a>
</g>
</g>
<!-- Node1&#45;&gt;Node26 -->
<g id="edge25" class="edge">
<title>Node1&#45;&gt;Node26</title>
<path fill="none" stroke="midnightblue" d="M74.16,-853.89C89.9,-828.8 121.75,-783.89 161,-760 169.53,-754.81 179.07,-750.7 188.81,-747.43"/>
<polygon fill="midnightblue" stroke="midnightblue" points="71.16,-852.08 68.94,-862.44 77.14,-855.73 71.16,-852.08"/>
</g>
<!-- Node27 -->
<g id="node27" class="node">
<title>Node27</title>
<g id="a_node27"><a xlink:href="classtracktion__engine_1_1TrackMutingNode.html" target="_top" xlink:title="A Node that handles muting/soloing of its input node, according to the audibility of a track.">
<polygon fill="none" stroke="black" points="170,-681.5 170,-700.5 359,-700.5 359,-681.5 170,-681.5"/>
<text text-anchor="middle" x="264.5" y="-688.5" font-family="Helvetica,sans-Serif" font-size="10.00">tracktion_engine::TrackMutingNode</text>
</a>
</g>
</g>
<!-- Node1&#45;&gt;Node27 -->
<g id="edge26" class="edge">
<title>Node1&#45;&gt;Node27</title>
<path fill="none" stroke="midnightblue" d="M69.38,-852.72C80.92,-818.31 109.99,-746.62 161,-711 167.17,-706.69 174.03,-703.26 181.2,-700.52"/>
<polygon fill="midnightblue" stroke="midnightblue" points="65.97,-851.89 66.24,-862.48 72.63,-854.03 65.97,-851.89"/>
</g>
<!-- Node28 -->
<g id="node28" class="node">
<title>Node28</title>
<g id="a_node28"><a xlink:href="classtracktion__engine_1_1TrackWaveInputDeviceNode.html" target="_top" xlink:title="A Node that takes audio from the output of a track and sends it to its corresponding InputDevice.">
<polygon fill="none" stroke="black" points="186,-632 186,-662 343,-662 343,-632 186,-632"/>
<text text-anchor="start" x="194" y="-650" font-family="Helvetica,sans-Serif" font-size="10.00">tracktion_engine::TrackWave</text>
<text text-anchor="middle" x="264.5" y="-639" font-family="Helvetica,sans-Serif" font-size="10.00">InputDeviceNode</text>
</a>
</g>
</g>
<!-- Node1&#45;&gt;Node28 -->
<g id="edge27" class="edge">
<title>Node1&#45;&gt;Node28</title>
<path fill="none" stroke="midnightblue" d="M67.27,-852.34C76.07,-811.99 101.89,-719.63 161,-672 168.35,-666.08 176.88,-661.53 185.84,-658.04"/>
<polygon fill="midnightblue" stroke="midnightblue" points="63.82,-851.76 65.23,-862.26 70.67,-853.18 63.82,-851.76"/>
</g>
<!-- Node29 -->
<g id="node29" class="node">
<title>Node29</title>
<g id="a_node29"><a xlink:href="classtracktion__engine_1_1WaveInputDeviceNode.html" target="_top" xlink:title="A Node that intercepts incoming live audio and inserts it in to the playback graph.">
<polygon fill="none" stroke="black" points="186.5,-583 186.5,-613 342.5,-613 342.5,-583 186.5,-583"/>
<text text-anchor="start" x="194.5" y="-601" font-family="Helvetica,sans-Serif" font-size="10.00">tracktion_engine::WaveInput</text>
<text text-anchor="middle" x="264.5" y="-590" font-family="Helvetica,sans-Serif" font-size="10.00">DeviceNode</text>
</a>
</g>
</g>
<!-- Node1&#45;&gt;Node29 -->
<g id="edge28" class="edge">
<title>Node1&#45;&gt;Node29</title>
<path fill="none" stroke="midnightblue" d="M65.2,-852.22C70.36,-804.99 90.13,-684.96 161,-623 168.38,-616.55 177.15,-611.7 186.41,-608.07"/>
<polygon fill="midnightblue" stroke="midnightblue" points="61.7,-852.05 64.2,-862.35 68.67,-852.74 61.7,-852.05"/>
</g>
<!-- Node30 -->
<g id="node30" class="node">
<title>Node30</title>
<g id="a_node30"><a xlink:href="classtracktion__engine_1_1WaveNode.html" target="_top" xlink:title="An Node that plays back a wave file.">
<polygon fill="none" stroke="black" points="186,-544.5 186,-563.5 343,-563.5 343,-544.5 186,-544.5"/>
<text text-anchor="middle" x="264.5" y="-551.5" font-family="Helvetica,sans-Serif" font-size="10.00">tracktion_engine::WaveNode</text>
</a>
</g>
</g>
<!-- Node1&#45;&gt;Node30 -->
<g id="edge29" class="edge">
<title>Node1&#45;&gt;Node30</title>
<path fill="none" stroke="midnightblue" d="M63.55,-852.22C64.84,-798.49 76.25,-648.88 161,-574 168.2,-567.64 176.81,-563.05 185.95,-559.78"/>
<polygon fill="midnightblue" stroke="midnightblue" points="60.05,-852.38 63.41,-862.43 67.05,-852.48 60.05,-852.38"/>
</g>
<!-- Node31 -->
<g id="node31" class="node">
<title>Node31</title>
<g id="a_node31"><a xlink:href="classtracktion__graph_1_1BasicSummingNode.html" target="_top" xlink:title=" ">
<polygon fill="none" stroke="black" points="166,-506.5 166,-525.5 363,-525.5 363,-506.5 166,-506.5"/>
<text text-anchor="middle" x="264.5" y="-513.5" font-family="Helvetica,sans-Serif" font-size="10.00">tracktion_graph::BasicSummingNode</text>
</a>
</g>
</g>
<!-- Node1&#45;&gt;Node31 -->
<g id="edge30" class="edge">
<title>Node1&#45;&gt;Node31</title>
<path fill="none" stroke="midnightblue" d="M66.46,-852.3C76.66,-786.95 112.46,-578.98 161,-535 165.16,-531.23 169.81,-528.1 174.78,-525.5"/>
<polygon fill="midnightblue" stroke="midnightblue" points="62.95,-852.05 64.9,-862.46 69.87,-853.11 62.95,-852.05"/>
</g>
<!-- Node32 -->
<g id="node32" class="node">
<title>Node32</title>
<g id="a_node32"><a xlink:href="classtracktion__graph_1_1ChannelRemappingNode.html" target="_top" xlink:title="Maps channels from one to another.">
<polygon fill="none" stroke="black" points="195,-457 195,-487 334,-487 334,-457 195,-457"/>
<text text-anchor="start" x="203" y="-475" font-family="Helvetica,sans-Serif" font-size="10.00">tracktion_graph::Channel</text>
<text text-anchor="middle" x="264.5" y="-464" font-family="Helvetica,sans-Serif" font-size="10.00">RemappingNode</text>
</a>
</g>
</g>
<!-- Node1&#45;&gt;Node32 -->
<g id="edge31" class="edge">
<title>Node1&#45;&gt;Node32</title>
<path fill="none" stroke="midnightblue" d="M65.99,-852.03C75.12,-781.89 109.02,-548.2 161,-497 170.27,-487.87 182.28,-481.89 194.8,-478"/>
<polygon fill="midnightblue" stroke="midnightblue" points="62.49,-851.81 64.69,-862.17 69.43,-852.69 62.49,-851.81"/>
</g>
<!-- Node33 -->
<g id="node33" class="node">
<title>Node33</title>
<g id="a_node33"><a xlink:href="classtracktion__graph_1_1ConnectedNode.html" target="_top" xlink:title="An Node which sums together the multiple inputs adding additional latency to provide a coherent outpu...">
<polygon fill="none" stroke="black" points="176.5,-418.5 176.5,-437.5 352.5,-437.5 352.5,-418.5 176.5,-418.5"/>
<text text-anchor="middle" x="264.5" y="-425.5" font-family="Helvetica,sans-Serif" font-size="10.00">tracktion_graph::ConnectedNode</text>
</a>
</g>
</g>
<!-- Node1&#45;&gt;Node33 -->
<g id="edge32" class="edge">
<title>Node1&#45;&gt;Node33</title>
<path fill="none" stroke="midnightblue" d="M65.23,-852.34C72.27,-776.69 101.35,-505.69 161,-448 165.56,-443.59 170.79,-440.01 176.42,-437.12"/>
<polygon fill="midnightblue" stroke="midnightblue" points="61.73,-852.12 64.31,-862.39 68.7,-852.75 61.73,-852.12"/>
</g>
<!-- Node34 -->
<g id="node34" class="node">
<title>Node34</title>
<g id="a_node34"><a xlink:href="classtracktion__graph_1_1ForwardingNode.html" target="_top" xlink:title="Takes a non&#45;owning input node and simply forwards its outputs on.">
<polygon fill="none" stroke="black" points="175,-380.5 175,-399.5 354,-399.5 354,-380.5 175,-380.5"/>
<text text-anchor="middle" x="264.5" y="-387.5" font-family="Helvetica,sans-Serif" font-size="10.00">tracktion_graph::ForwardingNode</text>
</a>
</g>
</g>
<!-- Node1&#45;&gt;Node34 -->
<g id="edge33" class="edge">
<title>Node1&#45;&gt;Node34</title>
<path fill="none" stroke="midnightblue" d="M64.82,-852.09C70.55,-771.73 96.01,-472.44 161,-409 165.14,-404.95 169.85,-401.62 174.92,-398.89"/>
<polygon fill="midnightblue" stroke="midnightblue" points="61.31,-852.09 64.11,-862.31 68.29,-852.57 61.31,-852.09"/>
</g>
<!-- Node35 -->
<g id="node35" class="node">
<title>Node35</title>
<g id="a_node35"><a xlink:href="classtracktion__graph_1_1FunctionNode.html" target="_top" xlink:title=" ">
<polygon fill="none" stroke="black" points="181.5,-342.5 181.5,-361.5 347.5,-361.5 347.5,-342.5 181.5,-342.5"/>
<text text-anchor="middle" x="264.5" y="-349.5" font-family="Helvetica,sans-Serif" font-size="10.00">tracktion_graph::FunctionNode</text>
</a>
</g>
</g>
<!-- Node1&#45;&gt;Node35 -->
<g id="edge34" class="edge">
<title>Node1&#45;&gt;Node35</title>
<path fill="none" stroke="midnightblue" d="M64.47,-852.11C69.02,-767.72 90.97,-440.41 161,-371 166.78,-365.27 173.7,-360.96 181.18,-357.76"/>
<polygon fill="midnightblue" stroke="midnightblue" points="60.96,-852.19 63.94,-862.35 67.96,-852.55 60.96,-852.19"/>
</g>
<!-- Node36 -->
<g id="node36" class="node">
<title>Node36</title>
<g id="a_node36"><a xlink:href="classtracktion__graph_1_1GainNode.html" target="_top" xlink:title=" ">
<polygon fill="none" stroke="black" points="191,-304.5 191,-323.5 338,-323.5 338,-304.5 191,-304.5"/>
<text text-anchor="middle" x="264.5" y="-311.5" font-family="Helvetica,sans-Serif" font-size="10.00">tracktion_graph::GainNode</text>
</a>
</g>
</g>
<!-- Node1&#45;&gt;Node36 -->
<g id="edge35" class="edge">
<title>Node1&#45;&gt;Node36</title>
<path fill="none" stroke="midnightblue" d="M64.17,-852.31C67.57,-764.37 85.87,-408.46 161,-333 169.17,-324.79 179.67,-319.5 190.81,-316.18"/>
<polygon fill="midnightblue" stroke="midnightblue" points="60.67,-852.37 63.8,-862.49 67.66,-852.62 60.67,-852.37"/>
</g>
<!-- Node37 -->
<g id="node37" class="node">
<title>Node37</title>
<g id="a_node37"><a xlink:href="classtracktion__graph_1_1LatencyNode.html" target="_top" xlink:title=" ">
<polygon fill="none" stroke="black" points="183,-266.5 183,-285.5 346,-285.5 346,-266.5 183,-266.5"/>
<text text-anchor="middle" x="264.5" y="-273.5" font-family="Helvetica,sans-Serif" font-size="10.00">tracktion_graph::LatencyNode</text>
</a>
</g>
</g>
<!-- Node1&#45;&gt;Node37 -->
<g id="edge36" class="edge">
<title>Node1&#45;&gt;Node37</title>
<path fill="none" stroke="midnightblue" d="M63.92,-852.1C66.28,-760.04 80.87,-376.41 161,-295 167.16,-288.74 174.66,-284.18 182.78,-280.88"/>
<polygon fill="midnightblue" stroke="midnightblue" points="60.42,-852.19 63.68,-862.27 67.41,-852.36 60.42,-852.19"/>
</g>
<!-- Node38 -->
<g id="node38" class="node">
<title>Node38</title>
<g id="a_node38"><a xlink:href="classtracktion__graph_1_1MidiNode.html" target="_top" xlink:title="Plays back a MIDI sequence.">
<polygon fill="none" stroke="black" points="191.5,-228.5 191.5,-247.5 337.5,-247.5 337.5,-228.5 191.5,-228.5"/>
<text text-anchor="middle" x="264.5" y="-235.5" font-family="Helvetica,sans-Serif" font-size="10.00">tracktion_graph::MidiNode</text>
</a>
</g>
</g>
<!-- Node1&#45;&gt;Node38 -->
<g id="edge37" class="edge">
<title>Node1&#45;&gt;Node38</title>
<path fill="none" stroke="midnightblue" d="M63.69,-852.02C65.05,-756.16 75.82,-344.43 161,-257 169.27,-248.51 180.02,-243.12 191.44,-239.8"/>
<polygon fill="midnightblue" stroke="midnightblue" points="60.19,-852.06 63.57,-862.1 67.19,-852.14 60.19,-852.06"/>
</g>
<!-- Node39 -->
<g id="node39" class="node">
<title>Node39</title>
<g id="a_node39"><a xlink:href="classtracktion__graph_1_1ReturnNode.html" target="_top" xlink:title=" ">
<polygon fill="none" stroke="black" points="186,-190.5 186,-209.5 343,-209.5 343,-190.5 186,-190.5"/>
<text text-anchor="middle" x="264.5" y="-197.5" font-family="Helvetica,sans-Serif" font-size="10.00">tracktion_graph::ReturnNode</text>
</a>
</g>
</g>
<!-- Node1&#45;&gt;Node39 -->
<g id="edge38" class="edge">
<title>Node1&#45;&gt;Node39</title>
<path fill="none" stroke="midnightblue" d="M63.49,-852.38C63.86,-753.68 70.63,-312.6 161,-219 167.91,-211.84 176.59,-206.88 185.95,-203.5"/>
<polygon fill="midnightblue" stroke="midnightblue" points="59.99,-852.44 63.47,-862.45 66.99,-852.45 59.99,-852.44"/>
</g>
<!-- Node40 -->
<g id="node40" class="node">
<title>Node40</title>
<g id="a_node40"><a xlink:href="classtracktion__graph_1_1SendNode.html" target="_top" xlink:title=" ">
<polygon fill="none" stroke="black" points="190,-152.5 190,-171.5 339,-171.5 339,-152.5 190,-152.5"/>
<text text-anchor="middle" x="264.5" y="-159.5" font-family="Helvetica,sans-Serif" font-size="10.00">tracktion_graph::SendNode</text>
</a>
</g>
</g>
<!-- Node1&#45;&gt;Node40 -->
<g id="edge39" class="edge">
<title>Node1&#45;&gt;Node40</title>
<path fill="none" stroke="midnightblue" d="M63.31,-852.22C62.77,-749.79 65.58,-280.62 161,-181 168.82,-172.83 178.94,-167.52 189.76,-164.15"/>
<polygon fill="midnightblue" stroke="midnightblue" points="59.81,-852.41 63.39,-862.38 66.81,-852.36 59.81,-852.41"/>
</g>
<!-- Node42 -->
<g id="node42" class="node">
<title>Node42</title>
<g id="a_node42"><a xlink:href="classtracktion__graph_1_1SilentNode.html" target="_top" xlink:title="Just a simple audio node that doesn&#39;t take any input so can be used as a stub.">
<polygon fill="none" stroke="black" points="188.5,-114.5 188.5,-133.5 340.5,-133.5 340.5,-114.5 188.5,-114.5"/>
<text text-anchor="middle" x="264.5" y="-121.5" font-family="Helvetica,sans-Serif" font-size="10.00">tracktion_graph::SilentNode</text>
</a>
</g>
</g>
<!-- Node1&#45;&gt;Node42 -->
<g id="edge41" class="edge">
<title>Node1&#45;&gt;Node42</title>
<path fill="none" stroke="midnightblue" d="M63.15,-852.14C61.72,-746.23 60.5,-248.69 161,-143 168.48,-135.13 178.09,-129.91 188.41,-126.52"/>
<polygon fill="midnightblue" stroke="midnightblue" points="59.66,-852.42 63.31,-862.36 66.66,-852.31 59.66,-852.42"/>
</g>
<!-- Node43 -->
<g id="node43" class="node">
<title>Node43</title>
<g id="a_node43"><a xlink:href="classtracktion__graph_1_1SinkNode.html" target="_top" xlink:title="Blocks audio and MIDI input from reaching the outputs.">
<polygon fill="none" stroke="black" points="191.5,-76.5 191.5,-95.5 337.5,-95.5 337.5,-76.5 191.5,-76.5"/>
<text text-anchor="middle" x="264.5" y="-83.5" font-family="Helvetica,sans-Serif" font-size="10.00">tracktion_graph::SinkNode</text>
</a>
</g>
</g>
<!-- Node1&#45;&gt;Node43 -->
<g id="edge42" class="edge">
<title>Node1&#45;&gt;Node43</title>
<path fill="none" stroke="midnightblue" d="M64.64,-852.12C71.43,-737.21 107.92,-161.19 161,-105 169.2,-96.32 179.99,-90.85 191.48,-87.51"/>
<polygon fill="midnightblue" stroke="midnightblue" points="61.14,-852.1 64.05,-862.29 68.13,-852.51 61.14,-852.1"/>
</g>
<!-- Node44 -->
<g id="node44" class="node">
<title>Node44</title>
<g id="a_node44"><a xlink:href="classtracktion__graph_1_1SinNode.html" target="_top" xlink:title=" ">
<polygon fill="none" stroke="black" points="194.5,-38.5 194.5,-57.5 334.5,-57.5 334.5,-38.5 194.5,-38.5"/>
<text text-anchor="middle" x="264.5" y="-45.5" font-family="Helvetica,sans-Serif" font-size="10.00">tracktion_graph::SinNode</text>
</a>
</g>
</g>
<!-- Node1&#45;&gt;Node44 -->
<g id="edge43" class="edge">
<title>Node1&#45;&gt;Node44</title>
<path fill="none" stroke="midnightblue" d="M64.51,-852.25C70.73,-734.32 105.33,-126.28 161,-67 169.86,-57.57 181.76,-51.92 194.32,-48.68"/>
<polygon fill="midnightblue" stroke="midnightblue" points="61.01,-852.19 63.98,-862.36 68,-852.56 61.01,-852.19"/>
</g>
<!-- Node45 -->
<g id="node45" class="node">
<title>Node45</title>
<g id="a_node45"><a xlink:href="classtracktion__graph_1_1SummingNode.html" target="_top" xlink:title="An Node which sums together the multiple inputs adding additional latency to provide a coherent outpu...">
<polygon fill="none" stroke="black" points="179,-0.5 179,-19.5 350,-19.5 350,-0.5 179,-0.5"/>
<text text-anchor="middle" x="264.5" y="-7.5" font-family="Helvetica,sans-Serif" font-size="10.00">tracktion_graph::SummingNode</text>
</a>
</g>
</g>
<!-- Node1&#45;&gt;Node45 -->
<g id="edge44" class="edge">
<title>Node1&#45;&gt;Node45</title>
<path fill="none" stroke="midnightblue" d="M64.39,-852.46C70.05,-731.8 102.73,-91.39 161,-29 166.07,-23.58 172.14,-19.4 178.76,-16.22"/>
<polygon fill="midnightblue" stroke="midnightblue" points="60.89,-852.32 63.93,-862.47 67.88,-852.65 60.89,-852.32"/>
</g>
<!-- Node41 -->
<g id="node41" class="node">
<title>Node41</title>
<g id="a_node41"><a xlink:href="classtracktion__engine_1_1AuxSendNode.html" target="_top" xlink:title="Node for an aux send.">
<polygon fill="none" stroke="black" points="404,-152.5 404,-171.5 577,-171.5 577,-152.5 404,-152.5"/>
<text text-anchor="middle" x="490.5" y="-159.5" font-family="Helvetica,sans-Serif" font-size="10.00">tracktion_engine::AuxSendNode</text>
</a>
</g>
</g>
<!-- Node40&#45;&gt;Node41 -->
<g id="edge40" class="edge">
<title>Node40&#45;&gt;Node41</title>
<path fill="none" stroke="midnightblue" d="M349.47,-162C367.21,-162 385.94,-162 403.75,-162"/>
<polygon fill="midnightblue" stroke="midnightblue" points="349.16,-158.5 339.16,-162 349.16,-165.5 349.16,-158.5"/>
</g>
</g>
</svg>
