<?xml version="1.0" encoding="UTF-8" standalone="no"?>
<!DOCTYPE svg PUBLIC "-//W3C//DTD SVG 1.1//EN"
 "http://www.w3.org/Graphics/SVG/1.1/DTD/svg11.dtd">
<!-- Generated by graphviz version 2.43.0 (0)
 -->
<!-- Title: tracktion_engine::Plugin Pages: 1 -->
<svg width="757pt" height="1224pt"
 viewBox="0.00 0.00 757.00 1224.00" xmlns="http://www.w3.org/2000/svg" xmlns:xlink="http://www.w3.org/1999/xlink">
<g id="graph0" class="graph" transform="scale(1 1) rotate(0) translate(4 1220)">
<title>tracktion_engine::Plugin</title>
<!-- Node1 -->
<g id="node1" class="node">
<title>Node1</title>
<g id="a_node1"><a xlink:title=" ">
<polygon fill="#bfbfbf" stroke="black" points="403,-588 403,-607 537,-607 537,-588 403,-588"/>
<text text-anchor="middle" x="470" y="-595" font-family="Helvetica,sans-Serif" font-size="10.00">tracktion_engine::Plugin</text>
</a>
</g>
</g>
<!-- Node8 -->
<g id="node8" class="node">
<title>Node8</title>
<g id="a_node8"><a xlink:href="classtracktion__engine_1_1AirWindowsPlugin.html" target="_top" xlink:title=" ">
<polygon fill="none" stroke="black" points="580,-1185.5 580,-1215.5 742,-1215.5 742,-1185.5 580,-1185.5"/>
<text text-anchor="start" x="588" y="-1203.5" font-family="Helvetica,sans-Serif" font-size="10.00">tracktion_engine::AirWindows</text>
<text text-anchor="middle" x="661" y="-1192.5" font-family="Helvetica,sans-Serif" font-size="10.00">Plugin</text>
</a>
</g>
</g>
<!-- Node1&#45;&gt;Node8 -->
<g id="edge7" class="edge">
<title>Node1&#45;&gt;Node8</title>
<path fill="none" stroke="midnightblue" d="M471.73,-617.32C475.52,-709.06 495.78,-1091.59 573,-1176.5 576.06,-1179.86 579.54,-1182.77 583.31,-1185.28"/>
<polygon fill="midnightblue" stroke="midnightblue" points="475.22,-617.05 471.33,-607.19 468.23,-617.32 475.22,-617.05"/>
</g>
<!-- Node9 -->
<g id="node9" class="node">
<title>Node9</title>
<g id="a_node9"><a xlink:href="classtracktion__engine_1_1AuxReturnPlugin.html" target="_top" xlink:title=" ">
<polygon fill="none" stroke="black" points="583.5,-1136.5 583.5,-1166.5 738.5,-1166.5 738.5,-1136.5 583.5,-1136.5"/>
<text text-anchor="start" x="591.5" y="-1154.5" font-family="Helvetica,sans-Serif" font-size="10.00">tracktion_engine::AuxReturn</text>
<text text-anchor="middle" x="661" y="-1143.5" font-family="Helvetica,sans-Serif" font-size="10.00">Plugin</text>
</a>
</g>
</g>
<!-- Node1&#45;&gt;Node9 -->
<g id="edge8" class="edge">
<title>Node1&#45;&gt;Node9</title>
<path fill="none" stroke="midnightblue" d="M472.08,-617.28C477.22,-704.1 501.95,-1050.6 573,-1127.5 576.19,-1130.95 579.83,-1133.93 583.76,-1136.48"/>
<polygon fill="midnightblue" stroke="midnightblue" points="475.57,-616.98 471.5,-607.2 468.58,-617.38 475.57,-616.98"/>
</g>
<!-- Node10 -->
<g id="node10" class="node">
<title>Node10</title>
<g id="a_node10"><a xlink:href="classtracktion__engine_1_1AuxSendPlugin.html" target="_top" xlink:title=" ">
<polygon fill="none" stroke="black" points="587.5,-1087.5 587.5,-1117.5 734.5,-1117.5 734.5,-1087.5 587.5,-1087.5"/>
<text text-anchor="start" x="595.5" y="-1105.5" font-family="Helvetica,sans-Serif" font-size="10.00">tracktion_engine::AuxSend</text>
<text text-anchor="middle" x="661" y="-1094.5" font-family="Helvetica,sans-Serif" font-size="10.00">Plugin</text>
</a>
</g>
</g>
<!-- Node1&#45;&gt;Node10 -->
<g id="edge9" class="edge">
<title>Node1&#45;&gt;Node10</title>
<path fill="none" stroke="midnightblue" d="M472.52,-617.49C479.15,-699.57 508.16,-1009.64 573,-1078.5 577.19,-1082.95 582.12,-1086.6 587.47,-1089.59"/>
<polygon fill="midnightblue" stroke="midnightblue" points="475.97,-616.78 471.7,-607.09 468.99,-617.33 475.97,-616.78"/>
</g>
<!-- Node11 -->
<g id="node11" class="node">
<title>Node11</title>
<g id="a_node11"><a xlink:href="classtracktion__engine_1_1ChorusPlugin.html" target="_top" xlink:title=" ">
<polygon fill="none" stroke="black" points="592,-1038.5 592,-1068.5 730,-1068.5 730,-1038.5 592,-1038.5"/>
<text text-anchor="start" x="600" y="-1056.5" font-family="Helvetica,sans-Serif" font-size="10.00">tracktion_engine::Chorus</text>
<text text-anchor="middle" x="661" y="-1045.5" font-family="Helvetica,sans-Serif" font-size="10.00">Plugin</text>
</a>
</g>
</g>
<!-- Node1&#45;&gt;Node11 -->
<g id="edge10" class="edge">
<title>Node1&#45;&gt;Node11</title>
<path fill="none" stroke="midnightblue" d="M473.03,-617.4C481.21,-693.99 514.26,-968.53 573,-1029.5 578.33,-1035.03 584.8,-1039.32 591.79,-1042.65"/>
<polygon fill="midnightblue" stroke="midnightblue" points="476.48,-616.8 471.96,-607.22 469.52,-617.53 476.48,-616.8"/>
</g>
<!-- Node12 -->
<g id="node12" class="node">
<title>Node12</title>
<g id="a_node12"><a xlink:href="classtracktion__engine_1_1CompressorPlugin.html" target="_top" xlink:title=" ">
<polygon fill="none" stroke="black" points="579.5,-989.5 579.5,-1019.5 742.5,-1019.5 742.5,-989.5 579.5,-989.5"/>
<text text-anchor="start" x="587.5" y="-1007.5" font-family="Helvetica,sans-Serif" font-size="10.00">tracktion_engine::Compressor</text>
<text text-anchor="middle" x="661" y="-996.5" font-family="Helvetica,sans-Serif" font-size="10.00">Plugin</text>
</a>
</g>
</g>
<!-- Node1&#45;&gt;Node12 -->
<g id="edge11" class="edge">
<title>Node1&#45;&gt;Node12</title>
<path fill="none" stroke="midnightblue" d="M473.69,-617.31C483.68,-687.96 520.74,-926.24 573,-979.5 576.74,-983.31 581.03,-986.56 585.64,-989.31"/>
<polygon fill="midnightblue" stroke="midnightblue" points="477.12,-616.55 472.28,-607.13 470.19,-617.51 477.12,-616.55"/>
</g>
<!-- Node13 -->
<g id="node13" class="node">
<title>Node13</title>
<g id="a_node13"><a xlink:href="classtracktion__engine_1_1DelayPlugin.html" target="_top" xlink:title=" ">
<polygon fill="none" stroke="black" points="579.5,-951 579.5,-970 742.5,-970 742.5,-951 579.5,-951"/>
<text text-anchor="middle" x="661" y="-958" font-family="Helvetica,sans-Serif" font-size="10.00">tracktion_engine::DelayPlugin</text>
</a>
</g>
</g>
<!-- Node1&#45;&gt;Node13 -->
<g id="edge12" class="edge">
<title>Node1&#45;&gt;Node13</title>
<path fill="none" stroke="midnightblue" d="M470.42,-617.41C469.86,-676.46 476.75,-852.05 573,-941.5 577.08,-945.29 581.73,-948.39 586.71,-950.92"/>
<polygon fill="midnightblue" stroke="midnightblue" points="473.92,-617.28 470.61,-607.21 466.93,-617.15 473.92,-617.28"/>
</g>
<!-- Node14 -->
<g id="node14" class="node">
<title>Node14</title>
<g id="a_node14"><a xlink:href="classtracktion__engine_1_1EqualiserPlugin.html" target="_top" xlink:title=" ">
<polygon fill="none" stroke="black" points="586.5,-901.5 586.5,-931.5 735.5,-931.5 735.5,-901.5 586.5,-901.5"/>
<text text-anchor="start" x="594.5" y="-919.5" font-family="Helvetica,sans-Serif" font-size="10.00">tracktion_engine::Equaliser</text>
<text text-anchor="middle" x="661" y="-908.5" font-family="Helvetica,sans-Serif" font-size="10.00">Plugin</text>
</a>
</g>
</g>
<!-- Node1&#45;&gt;Node14 -->
<g id="edge13" class="edge">
<title>Node1&#45;&gt;Node14</title>
<path fill="none" stroke="midnightblue" d="M471.78,-617.13C474.95,-669.83 491.08,-815.64 573,-892.5 577,-896.25 581.53,-899.43 586.38,-902.11"/>
<polygon fill="midnightblue" stroke="midnightblue" points="475.27,-616.9 471.27,-607.09 468.28,-617.26 475.27,-616.9"/>
</g>
<!-- Node15 -->
<g id="node15" class="node">
<title>Node15</title>
<g id="a_node15"><a xlink:href="classtracktion__engine_1_1ExternalPlugin.html" target="_top" xlink:title=" ">
<polygon fill="none" stroke="black" points="588.5,-852.5 588.5,-882.5 733.5,-882.5 733.5,-852.5 588.5,-852.5"/>
<text text-anchor="start" x="596.5" y="-870.5" font-family="Helvetica,sans-Serif" font-size="10.00">tracktion_engine::External</text>
<text text-anchor="middle" x="661" y="-859.5" font-family="Helvetica,sans-Serif" font-size="10.00">Plugin</text>
</a>
</g>
</g>
<!-- Node1&#45;&gt;Node15 -->
<g id="edge14" class="edge">
<title>Node1&#45;&gt;Node15</title>
<path fill="none" stroke="midnightblue" d="M473.33,-617.25C479.89,-663.88 502.89,-781.58 573,-843.5 577.58,-847.55 582.78,-850.91 588.31,-853.72"/>
<polygon fill="midnightblue" stroke="midnightblue" points="476.78,-616.69 472.02,-607.23 469.84,-617.6 476.78,-616.69"/>
</g>
<!-- Node16 -->
<g id="node16" class="node">
<title>Node16</title>
<g id="a_node16"><a xlink:href="classtracktion__engine_1_1FourOscPlugin.html" target="_top" xlink:title=" ">
<polygon fill="none" stroke="black" points="589.5,-803.5 589.5,-833.5 732.5,-833.5 732.5,-803.5 589.5,-803.5"/>
<text text-anchor="start" x="597.5" y="-821.5" font-family="Helvetica,sans-Serif" font-size="10.00">tracktion_engine::FourOsc</text>
<text text-anchor="middle" x="661" y="-810.5" font-family="Helvetica,sans-Serif" font-size="10.00">Plugin</text>
</a>
</g>
</g>
<!-- Node1&#45;&gt;Node16 -->
<g id="edge15" class="edge">
<title>Node1&#45;&gt;Node16</title>
<path fill="none" stroke="midnightblue" d="M475.44,-616.74C485.57,-656.26 514.2,-746.84 573,-794.5 577.87,-798.45 583.34,-801.75 589.11,-804.5"/>
<polygon fill="midnightblue" stroke="midnightblue" points="478.84,-615.91 473.06,-607.03 472.04,-617.57 478.84,-615.91"/>
</g>
<!-- Node17 -->
<g id="node17" class="node">
<title>Node17</title>
<g id="a_node17"><a xlink:href="classtracktion__engine_1_1FreezePointPlugin.html" target="_top" xlink:title=" ">
<polygon fill="none" stroke="black" points="592.5,-754.5 592.5,-784.5 729.5,-784.5 729.5,-754.5 592.5,-754.5"/>
<text text-anchor="start" x="600.5" y="-772.5" font-family="Helvetica,sans-Serif" font-size="10.00">tracktion_engine::Freeze</text>
<text text-anchor="middle" x="661" y="-761.5" font-family="Helvetica,sans-Serif" font-size="10.00">PointPlugin</text>
</a>
</g>
</g>
<!-- Node1&#45;&gt;Node17 -->
<g id="edge16" class="edge">
<title>Node1&#45;&gt;Node17</title>
<path fill="none" stroke="midnightblue" d="M478.9,-616.65C492.98,-648.38 525.48,-711.7 573,-745.5 578.87,-749.68 585.44,-753.13 592.27,-755.98"/>
<polygon fill="midnightblue" stroke="midnightblue" points="482,-615 474.83,-607.19 475.57,-617.76 482,-615"/>
</g>
<!-- Node18 -->
<g id="node18" class="node">
<title>Node18</title>
<g id="a_node18"><a xlink:href="classtracktion__engine_1_1InsertPlugin.html" target="_top" xlink:title=" ">
<polygon fill="none" stroke="black" points="595,-705.5 595,-735.5 727,-735.5 727,-705.5 595,-705.5"/>
<text text-anchor="start" x="603" y="-723.5" font-family="Helvetica,sans-Serif" font-size="10.00">tracktion_engine::Insert</text>
<text text-anchor="middle" x="661" y="-712.5" font-family="Helvetica,sans-Serif" font-size="10.00">Plugin</text>
</a>
</g>
</g>
<!-- Node1&#45;&gt;Node18 -->
<g id="edge17" class="edge">
<title>Node1&#45;&gt;Node18</title>
<path fill="none" stroke="midnightblue" d="M484.25,-614.93C502.04,-637.14 535.75,-675.18 573,-696.5 579.8,-700.39 587.26,-703.68 594.87,-706.45"/>
<polygon fill="midnightblue" stroke="midnightblue" points="486.96,-612.72 478.03,-607 481.45,-617.03 486.96,-612.72"/>
</g>
<!-- Node19 -->
<g id="node19" class="node">
<title>Node19</title>
<g id="a_node19"><a xlink:href="classtracktion__engine_1_1LatencyPlugin.html" target="_top" xlink:title="A test plugin that introduces latency to the incomming signal.">
<polygon fill="none" stroke="black" points="589.5,-656.5 589.5,-686.5 732.5,-686.5 732.5,-656.5 589.5,-656.5"/>
<text text-anchor="start" x="597.5" y="-674.5" font-family="Helvetica,sans-Serif" font-size="10.00">tracktion_engine::Latency</text>
<text text-anchor="middle" x="661" y="-663.5" font-family="Helvetica,sans-Serif" font-size="10.00">Plugin</text>
</a>
</g>
</g>
<!-- Node1&#45;&gt;Node19 -->
<g id="edge18" class="edge">
<title>Node1&#45;&gt;Node19</title>
<path fill="none" stroke="midnightblue" d="M497.17,-612.02C517.42,-622.83 546.42,-637.42 573,-647.5 581.5,-650.72 590.61,-653.72 599.62,-656.42"/>
<polygon fill="midnightblue" stroke="midnightblue" points="498.71,-608.87 488.25,-607.19 495.38,-615.03 498.71,-608.87"/>
</g>
<!-- Node20 -->
<g id="node20" class="node">
<title>Node20</title>
<g id="a_node20"><a xlink:href="classtracktion__engine_1_1LevelMeterPlugin.html" target="_top" xlink:title=" ">
<polygon fill="none" stroke="black" points="581.5,-607.5 581.5,-637.5 740.5,-637.5 740.5,-607.5 581.5,-607.5"/>
<text text-anchor="start" x="589.5" y="-625.5" font-family="Helvetica,sans-Serif" font-size="10.00">tracktion_engine::LevelMeter</text>
<text text-anchor="middle" x="661" y="-614.5" font-family="Helvetica,sans-Serif" font-size="10.00">Plugin</text>
</a>
</g>
</g>
<!-- Node1&#45;&gt;Node20 -->
<g id="edge19" class="edge">
<title>Node1&#45;&gt;Node20</title>
<path fill="none" stroke="midnightblue" d="M547.27,-607.59C558.47,-609.07 570.03,-610.6 581.28,-612.09"/>
<polygon fill="midnightblue" stroke="midnightblue" points="547.48,-604.09 537.1,-606.24 546.56,-611.02 547.48,-604.09"/>
</g>
<!-- Node21 -->
<g id="node21" class="node">
<title>Node21</title>
<g id="a_node21"><a xlink:href="classtracktion__engine_1_1LowPassPlugin.html" target="_top" xlink:title=" ">
<polygon fill="none" stroke="black" points="588,-558.5 588,-588.5 734,-588.5 734,-558.5 588,-558.5"/>
<text text-anchor="start" x="596" y="-576.5" font-family="Helvetica,sans-Serif" font-size="10.00">tracktion_engine::LowPass</text>
<text text-anchor="middle" x="661" y="-565.5" font-family="Helvetica,sans-Serif" font-size="10.00">Plugin</text>
</a>
</g>
</g>
<!-- Node1&#45;&gt;Node21 -->
<g id="edge20" class="edge">
<title>Node1&#45;&gt;Node21</title>
<path fill="none" stroke="midnightblue" d="M547.23,-587.82C560.63,-586.12 574.53,-584.35 587.81,-582.67"/>
<polygon fill="midnightblue" stroke="midnightblue" points="546.58,-584.37 537.1,-589.11 547.46,-591.32 546.58,-584.37"/>
</g>
<!-- Node22 -->
<g id="node22" class="node">
<title>Node22</title>
<g id="a_node22"><a xlink:href="classtracktion__engine_1_1MidiModifierPlugin.html" target="_top" xlink:title=" ">
<polygon fill="none" stroke="black" points="578.5,-509.5 578.5,-539.5 743.5,-539.5 743.5,-509.5 578.5,-509.5"/>
<text text-anchor="start" x="586.5" y="-527.5" font-family="Helvetica,sans-Serif" font-size="10.00">tracktion_engine::MidiModifier</text>
<text text-anchor="middle" x="661" y="-516.5" font-family="Helvetica,sans-Serif" font-size="10.00">Plugin</text>
</a>
</g>
</g>
<!-- Node1&#45;&gt;Node22 -->
<g id="edge21" class="edge">
<title>Node1&#45;&gt;Node22</title>
<path fill="none" stroke="midnightblue" d="M497.57,-583.12C517.83,-572.55 546.64,-558.38 573,-548.5 581.66,-545.26 590.94,-542.23 600.11,-539.5"/>
<polygon fill="midnightblue" stroke="midnightblue" points="495.84,-580.07 488.63,-587.83 499.11,-586.26 495.84,-580.07"/>
</g>
<!-- Node23 -->
<g id="node23" class="node">
<title>Node23</title>
<g id="a_node23"><a xlink:href="classtracktion__engine_1_1MidiPatchBayPlugin.html" target="_top" xlink:title=" ">
<polygon fill="none" stroke="black" points="585,-460.5 585,-490.5 737,-490.5 737,-460.5 585,-460.5"/>
<text text-anchor="start" x="593" y="-478.5" font-family="Helvetica,sans-Serif" font-size="10.00">tracktion_engine::MidiPatch</text>
<text text-anchor="middle" x="661" y="-467.5" font-family="Helvetica,sans-Serif" font-size="10.00">BayPlugin</text>
</a>
</g>
</g>
<!-- Node1&#45;&gt;Node23 -->
<g id="edge22" class="edge">
<title>Node1&#45;&gt;Node23</title>
<path fill="none" stroke="midnightblue" d="M484.56,-579.91C502.46,-557.89 536.07,-520.51 573,-499.5 578.99,-496.09 585.49,-493.14 592.15,-490.6"/>
<polygon fill="midnightblue" stroke="midnightblue" points="481.77,-577.79 478.29,-587.8 487.25,-582.15 481.77,-577.79"/>
</g>
<!-- Node24 -->
<g id="node24" class="node">
<title>Node24</title>
<g id="a_node24"><a xlink:href="classtracktion__engine_1_1PatchBayPlugin.html" target="_top" xlink:title=" ">
<polygon fill="none" stroke="black" points="586.5,-411.5 586.5,-441.5 735.5,-441.5 735.5,-411.5 586.5,-411.5"/>
<text text-anchor="start" x="594.5" y="-429.5" font-family="Helvetica,sans-Serif" font-size="10.00">tracktion_engine::PatchBay</text>
<text text-anchor="middle" x="661" y="-418.5" font-family="Helvetica,sans-Serif" font-size="10.00">Plugin</text>
</a>
</g>
</g>
<!-- Node1&#45;&gt;Node24 -->
<g id="edge23" class="edge">
<title>Node1&#45;&gt;Node24</title>
<path fill="none" stroke="midnightblue" d="M478.94,-578.48C493.07,-546.96 525.64,-484.07 573,-450.5 577.86,-447.06 583.19,-444.11 588.75,-441.58"/>
<polygon fill="midnightblue" stroke="midnightblue" points="475.63,-577.31 474.85,-587.88 482.05,-580.1 475.63,-577.31"/>
</g>
<!-- Node25 -->
<g id="node25" class="node">
<title>Node25</title>
<g id="a_node25"><a xlink:href="classtracktion__engine_1_1PhaserPlugin.html" target="_top" xlink:title=" ">
<polygon fill="none" stroke="black" points="592.5,-362.5 592.5,-392.5 729.5,-392.5 729.5,-362.5 592.5,-362.5"/>
<text text-anchor="start" x="600.5" y="-380.5" font-family="Helvetica,sans-Serif" font-size="10.00">tracktion_engine::Phaser</text>
<text text-anchor="middle" x="661" y="-369.5" font-family="Helvetica,sans-Serif" font-size="10.00">Plugin</text>
</a>
</g>
</g>
<!-- Node1&#45;&gt;Node25 -->
<g id="edge24" class="edge">
<title>Node1&#45;&gt;Node25</title>
<path fill="none" stroke="midnightblue" d="M475.61,-577.8C485.92,-538.2 514.66,-448.69 573,-401.5 578.73,-396.87 585.28,-393.13 592.17,-390.11"/>
<polygon fill="midnightblue" stroke="midnightblue" points="472.2,-577.02 473.18,-587.57 478.99,-578.71 472.2,-577.02"/>
</g>
<!-- Node26 -->
<g id="node26" class="node">
<title>Node26</title>
<g id="a_node26"><a xlink:href="classtracktion__engine_1_1PitchShiftPlugin.html" target="_top" xlink:title=" ">
<polygon fill="none" stroke="black" points="586,-313.5 586,-343.5 736,-343.5 736,-313.5 586,-313.5"/>
<text text-anchor="start" x="594" y="-331.5" font-family="Helvetica,sans-Serif" font-size="10.00">tracktion_engine::PitchShift</text>
<text text-anchor="middle" x="661" y="-320.5" font-family="Helvetica,sans-Serif" font-size="10.00">Plugin</text>
</a>
</g>
</g>
<!-- Node1&#45;&gt;Node26 -->
<g id="edge25" class="edge">
<title>Node1&#45;&gt;Node26</title>
<path fill="none" stroke="midnightblue" d="M473.35,-577.83C479.97,-531.38 503.09,-414.16 573,-352.5 576.88,-349.08 581.2,-346.14 585.79,-343.62"/>
<polygon fill="midnightblue" stroke="midnightblue" points="469.87,-577.44 472.03,-587.81 476.81,-578.35 469.87,-577.44"/>
</g>
<!-- Node27 -->
<g id="node27" class="node">
<title>Node27</title>
<g id="a_node27"><a xlink:href="classtracktion__engine_1_1RackInstance.html" target="_top" xlink:title=" ">
<polygon fill="none" stroke="black" points="576,-275 576,-294 746,-294 746,-275 576,-275"/>
<text text-anchor="middle" x="661" y="-282" font-family="Helvetica,sans-Serif" font-size="10.00">tracktion_engine::RackInstance</text>
</a>
</g>
</g>
<!-- Node1&#45;&gt;Node27 -->
<g id="edge26" class="edge">
<title>Node1&#45;&gt;Node27</title>
<path fill="none" stroke="midnightblue" d="M471.58,-577.69C474.25,-524.55 489.24,-377.84 573,-303.5 577.28,-299.7 582.14,-296.61 587.32,-294.09"/>
<polygon fill="midnightblue" stroke="midnightblue" points="468.07,-577.68 471.16,-587.81 475.07,-577.96 468.07,-577.68"/>
</g>
<!-- Node28 -->
<g id="node28" class="node">
<title>Node28</title>
<g id="a_node28"><a xlink:href="classtracktion__engine_1_1ReverbPlugin.html" target="_top" xlink:title=" ">
<polygon fill="none" stroke="black" points="591.5,-225.5 591.5,-255.5 730.5,-255.5 730.5,-225.5 591.5,-225.5"/>
<text text-anchor="start" x="599.5" y="-243.5" font-family="Helvetica,sans-Serif" font-size="10.00">tracktion_engine::Reverb</text>
<text text-anchor="middle" x="661" y="-232.5" font-family="Helvetica,sans-Serif" font-size="10.00">Plugin</text>
</a>
</g>
</g>
<!-- Node1&#45;&gt;Node28 -->
<g id="edge27" class="edge">
<title>Node1&#45;&gt;Node28</title>
<path fill="none" stroke="midnightblue" d="M470.94,-577.81C471.89,-520.84 482.64,-354.23 573,-265.5 578.27,-260.33 584.54,-256.21 591.26,-252.93"/>
<polygon fill="midnightblue" stroke="midnightblue" points="467.44,-577.94 470.87,-587.96 474.44,-577.99 467.44,-577.94"/>
</g>
<!-- Node29 -->
<g id="node29" class="node">
<title>Node29</title>
<g id="a_node29"><a xlink:href="classtracktion__engine_1_1SamplerPlugin.html" target="_top" xlink:title=" ">
<polygon fill="none" stroke="black" points="588.5,-176.5 588.5,-206.5 733.5,-206.5 733.5,-176.5 588.5,-176.5"/>
<text text-anchor="start" x="596.5" y="-194.5" font-family="Helvetica,sans-Serif" font-size="10.00">tracktion_engine::Sampler</text>
<text text-anchor="middle" x="661" y="-183.5" font-family="Helvetica,sans-Serif" font-size="10.00">Plugin</text>
</a>
</g>
</g>
<!-- Node1&#45;&gt;Node29 -->
<g id="edge28" class="edge">
<title>Node1&#45;&gt;Node29</title>
<path fill="none" stroke="midnightblue" d="M473.67,-577.68C483.6,-506.96 520.46,-268.48 573,-215.5 577.41,-211.05 582.57,-207.4 588.13,-204.42"/>
<polygon fill="midnightblue" stroke="midnightblue" points="470.17,-577.48 472.27,-587.87 477.1,-578.44 470.17,-577.48"/>
</g>
<!-- Node30 -->
<g id="node30" class="node">
<title>Node30</title>
<g id="a_node30"><a xlink:href="classtracktion__engine_1_1TextPlugin.html" target="_top" xlink:title=" ">
<polygon fill="none" stroke="black" points="583.5,-138 583.5,-157 738.5,-157 738.5,-138 583.5,-138"/>
<text text-anchor="middle" x="661" y="-145" font-family="Helvetica,sans-Serif" font-size="10.00">tracktion_engine::TextPlugin</text>
</a>
</g>
</g>
<!-- Node1&#45;&gt;Node30 -->
<g id="edge29" class="edge">
<title>Node1&#45;&gt;Node30</title>
<path fill="none" stroke="midnightblue" d="M472.93,-577.55C480.78,-500.78 512.75,-225.71 573,-166.5 576.86,-162.71 581.29,-159.6 586.06,-157.05"/>
<polygon fill="midnightblue" stroke="midnightblue" points="469.43,-577.45 471.92,-587.75 476.39,-578.15 469.43,-577.45"/>
</g>
<!-- Node31 -->
<g id="node31" class="node">
<title>Node31</title>
<g id="a_node31"><a xlink:href="classtracktion__engine_1_1ToneGeneratorPlugin.html" target="_top" xlink:title=" ">
<polygon fill="none" stroke="black" points="573,-88.5 573,-118.5 749,-118.5 749,-88.5 573,-88.5"/>
<text text-anchor="start" x="581" y="-106.5" font-family="Helvetica,sans-Serif" font-size="10.00">tracktion_engine::ToneGenerator</text>
<text text-anchor="middle" x="661" y="-95.5" font-family="Helvetica,sans-Serif" font-size="10.00">Plugin</text>
</a>
</g>
</g>
<!-- Node1&#45;&gt;Node31 -->
<g id="edge30" class="edge">
<title>Node1&#45;&gt;Node31</title>
<path fill="none" stroke="midnightblue" d="M472.66,-577.5C479.74,-496.74 510.03,-195.75 573,-128.5 576.54,-124.71 580.62,-121.49 585.03,-118.74"/>
<polygon fill="midnightblue" stroke="midnightblue" points="469.14,-577.51 471.78,-587.77 476.12,-578.1 469.14,-577.51"/>
</g>
<!-- Node32 -->
<g id="node32" class="node">
<title>Node32</title>
<g id="a_node32"><a xlink:href="classtracktion__engine_1_1VCAPlugin.html" target="_top" xlink:title="The VCA plugin sits on a folder track to control the overall level of all the volume/pan plugins in i...">
<polygon fill="none" stroke="black" points="583.5,-50 583.5,-69 738.5,-69 738.5,-50 583.5,-50"/>
<text text-anchor="middle" x="661" y="-57" font-family="Helvetica,sans-Serif" font-size="10.00">tracktion_engine::VCAPlugin</text>
</a>
</g>
</g>
<!-- Node1&#45;&gt;Node32 -->
<g id="edge31" class="edge">
<title>Node1&#45;&gt;Node32</title>
<path fill="none" stroke="midnightblue" d="M472.06,-577.77C477.08,-491.91 501.29,-151.73 573,-78.5 576.68,-74.74 580.91,-71.65 585.49,-69.11"/>
<polygon fill="midnightblue" stroke="midnightblue" points="468.56,-577.77 471.49,-587.95 475.54,-578.17 468.56,-577.77"/>
</g>
<!-- Node33 -->
<g id="node33" class="node">
<title>Node33</title>
<g id="a_node33"><a xlink:href="classtracktion__engine_1_1VolumeAndPanPlugin.html" target="_top" xlink:title="The built&#45;in Tracktion volume/pan plugin.">
<polygon fill="none" stroke="black" points="590.5,-0.5 590.5,-30.5 731.5,-30.5 731.5,-0.5 590.5,-0.5"/>
<text text-anchor="start" x="598.5" y="-18.5" font-family="Helvetica,sans-Serif" font-size="10.00">tracktion_engine::Volume</text>
<text text-anchor="middle" x="661" y="-7.5" font-family="Helvetica,sans-Serif" font-size="10.00">AndPanPlugin</text>
</a>
</g>
</g>
<!-- Node1&#45;&gt;Node33 -->
<g id="edge32" class="edge">
<title>Node1&#45;&gt;Node33</title>
<path fill="none" stroke="midnightblue" d="M471.91,-577.6C476.39,-487.92 499.02,-122.17 573,-40.5 577.85,-35.14 583.77,-30.9 590.22,-27.55"/>
<polygon fill="midnightblue" stroke="midnightblue" points="468.4,-577.6 471.42,-587.75 475.4,-577.93 468.4,-577.6"/>
</g>
<!-- Node2 -->
<g id="node2" class="node">
<title>Node2</title>
<g id="a_node2"><a xlink:href="classtracktion__engine_1_1Selectable.html" target="_top" xlink:title="Base class for things that can be selected, and whose properties can appear in the properties panel.">
<polygon fill="none" stroke="black" points="197,-670 197,-689 352,-689 352,-670 197,-670"/>
<text text-anchor="middle" x="274.5" y="-677" font-family="Helvetica,sans-Serif" font-size="10.00">tracktion_engine::Selectable</text>
</a>
</g>
</g>
<!-- Node2&#45;&gt;Node1 -->
<g id="edge1" class="edge">
<title>Node2&#45;&gt;Node1</title>
<path fill="none" stroke="midnightblue" d="M346.18,-667.43C353.31,-665.44 360.37,-663.14 367,-660.5 401.81,-646.64 438.09,-621.12 456.57,-607.2"/>
<polygon fill="midnightblue" stroke="midnightblue" points="345.23,-664.06 336.42,-669.95 346.98,-670.83 345.23,-664.06"/>
</g>
<!-- Node3 -->
<g id="node3" class="node">
<title>Node3</title>
<g id="a_node3"><a xlink:href="classtracktion__engine_1_1Exportable.html" target="_top" xlink:title="An interface for objects within an edit that can be exported.">
<polygon fill="none" stroke="black" points="196,-632 196,-651 353,-651 353,-632 196,-632"/>
<text text-anchor="middle" x="274.5" y="-639" font-family="Helvetica,sans-Serif" font-size="10.00">tracktion_engine::Exportable</text>
</a>
</g>
</g>
<!-- Node3&#45;&gt;Node1 -->
<g id="edge2" class="edge">
<title>Node3&#45;&gt;Node1</title>
<path fill="none" stroke="midnightblue" d="M332.87,-629.91C344.19,-627.53 355.98,-624.99 367,-622.5 388.34,-617.67 412.09,-611.88 431.29,-607.08"/>
<polygon fill="midnightblue" stroke="midnightblue" points="332.13,-626.49 323.06,-631.96 333.56,-633.34 332.13,-626.49"/>
</g>
<!-- Node4 -->
<g id="node4" class="node">
<title>Node4</title>
<g id="a_node4"><a xlink:href="classtracktion__engine_1_1AutomatableEditItem.html" target="_top" xlink:title="Base class for elements that have some kind of automatable parameters.">
<polygon fill="none" stroke="black" points="191,-582.5 191,-612.5 358,-612.5 358,-582.5 191,-582.5"/>
<text text-anchor="start" x="199" y="-600.5" font-family="Helvetica,sans-Serif" font-size="10.00">tracktion_engine::Automatable</text>
<text text-anchor="middle" x="274.5" y="-589.5" font-family="Helvetica,sans-Serif" font-size="10.00">EditItem</text>
</a>
</g>
</g>
<!-- Node4&#45;&gt;Node1 -->
<g id="edge3" class="edge">
<title>Node4&#45;&gt;Node1</title>
<path fill="none" stroke="midnightblue" d="M368.3,-597.5C379.92,-597.5 391.62,-597.5 402.72,-597.5"/>
<polygon fill="midnightblue" stroke="midnightblue" points="368.12,-594 358.12,-597.5 368.12,-601 368.12,-594"/>
</g>
<!-- Node5 -->
<g id="node5" class="node">
<title>Node5</title>
<g id="a_node5"><a xlink:href="classtracktion__engine_1_1EditItem.html" target="_top" xlink:title="Base class for objects that live inside an edit &#45; e.g.">
<polygon fill="none" stroke="black" points="0,-588 0,-607 146,-607 146,-588 0,-588"/>
<text text-anchor="middle" x="73" y="-595" font-family="Helvetica,sans-Serif" font-size="10.00">tracktion_engine::EditItem</text>
</a>
</g>
</g>
<!-- Node5&#45;&gt;Node4 -->
<g id="edge4" class="edge">
<title>Node5&#45;&gt;Node4</title>
<path fill="none" stroke="midnightblue" d="M156.35,-597.5C167.7,-597.5 179.37,-597.5 190.74,-597.5"/>
<polygon fill="midnightblue" stroke="midnightblue" points="156.02,-594 146.02,-597.5 156.02,-601 156.02,-594"/>
</g>
<!-- Node6 -->
<g id="node6" class="node">
<title>Node6</title>
<g id="a_node6"><a xlink:href="classtracktion__engine_1_1MacroParameterElement.html" target="_top" xlink:title="Base class for elements which can contain macro parameters.">
<polygon fill="none" stroke="black" points="182,-533.5 182,-563.5 367,-563.5 367,-533.5 182,-533.5"/>
<text text-anchor="start" x="190" y="-551.5" font-family="Helvetica,sans-Serif" font-size="10.00">tracktion_engine::MacroParameter</text>
<text text-anchor="middle" x="274.5" y="-540.5" font-family="Helvetica,sans-Serif" font-size="10.00">Element</text>
</a>
</g>
</g>
<!-- Node6&#45;&gt;Node1 -->
<g id="edge5" class="edge">
<title>Node6&#45;&gt;Node1</title>
<path fill="none" stroke="midnightblue" d="M344.63,-566C373.86,-573.41 406.76,-581.74 431.37,-587.97"/>
<polygon fill="midnightblue" stroke="midnightblue" points="345.42,-562.6 334.87,-563.53 343.71,-569.38 345.42,-562.6"/>
</g>
<!-- Node7 -->
<g id="node7" class="node">
<title>Node7</title>
<g id="a_node7"><a xlink:href="structtracktion__engine_1_1ValueTreeAllEventListener.html" target="_top" xlink:title=" ">
<polygon fill="none" stroke="black" points="198.5,-484.5 198.5,-514.5 350.5,-514.5 350.5,-484.5 198.5,-484.5"/>
<text text-anchor="start" x="206.5" y="-502.5" font-family="Helvetica,sans-Serif" font-size="10.00">tracktion_engine::ValueTree</text>
<text text-anchor="middle" x="274.5" y="-491.5" font-family="Helvetica,sans-Serif" font-size="10.00">AllEventListener</text>
</a>
</g>
</g>
<!-- Node7&#45;&gt;Node1 -->
<g id="edge6" class="edge">
<title>Node7&#45;&gt;Node1</title>
<path fill="none" stroke="darkgreen" d="M354.18,-518.07C358.58,-519.74 362.88,-521.55 367,-523.5 403.78,-540.91 440.96,-572.08 458.54,-587.83"/>
<polygon fill="darkgreen" stroke="darkgreen" points="355.04,-514.66 344.44,-514.61 352.7,-521.25 355.04,-514.66"/>
</g>
</g>
</svg>
