<?xml version="1.0" encoding="UTF-8" standalone="no"?>
<!DOCTYPE svg PUBLIC "-//W3C//DTD SVG 1.1//EN"
 "http://www.w3.org/Graphics/SVG/1.1/DTD/svg11.dtd">
<!-- Generated by graphviz version 2.43.0 (0)
 -->
<!-- Title: tracktion::engine::ExternalController Pages: 1 -->
<svg width="279pt" height="100pt"
 viewBox="0.00 0.00 279.00 99.50" xmlns="http://www.w3.org/2000/svg" xmlns:xlink="http://www.w3.org/1999/xlink">
<g id="graph0" class="graph" transform="scale(1 1) rotate(0) translate(4 95.5)">
<title>tracktion::engine::ExternalController</title>
<!-- Node1 -->
<g id="node1" class="node">
<title>Node1</title>
<g id="a_node1"><a xlink:title="Acts as a holder for a ControlSurface object.">
<polygon fill="#bfbfbf" stroke="black" points="166,-33 166,-63 271,-63 271,-33 166,-33"/>
<text text-anchor="start" x="174" y="-51" font-family="Helvetica,sans-Serif" font-size="10.00">tracktion::engine::</text>
<text text-anchor="middle" x="218.5" y="-40" font-family="Helvetica,sans-Serif" font-size="10.00">ExternalController</text>
</a>
</g>
</g>
<!-- Node2 -->
<g id="node2" class="node">
<title>Node2</title>
<g id="a_node2"><a xlink:href="classtracktion_1_1engine_1_1SelectableListener.html" target="_top" xlink:title=" ">
<polygon fill="none" stroke="black" points="11.5,-61 11.5,-91 118.5,-91 118.5,-61 11.5,-61"/>
<text text-anchor="start" x="19.5" y="-79" font-family="Helvetica,sans-Serif" font-size="10.00">tracktion::engine::</text>
<text text-anchor="middle" x="65" y="-68" font-family="Helvetica,sans-Serif" font-size="10.00">SelectableListener</text>
</a>
</g>
</g>
<!-- Node2&#45;&gt;Node1 -->
<g id="edge1" class="edge">
<title>Node2&#45;&gt;Node1</title>
<path fill="none" stroke="#8b1a1a" d="M128.4,-64.47C140.84,-62.17 153.77,-59.78 165.8,-57.56"/>
<polygon fill="#8b1a1a" stroke="#8b1a1a" points="127.76,-61.03 118.56,-66.29 129.03,-67.91 127.76,-61.03"/>
</g>
<!-- Node3 -->
<g id="node3" class="node">
<title>Node3</title>
<g id="a_node3"><a xlink:href="structtracktion_1_1engine_1_1AutomatableParameter_1_1Listener.html" target="_top" xlink:title=" ">
<polygon fill="none" stroke="black" points="0,-0.5 0,-41.5 130,-41.5 130,-0.5 0,-0.5"/>
<text text-anchor="start" x="8" y="-29.5" font-family="Helvetica,sans-Serif" font-size="10.00">tracktion::engine::</text>
<text text-anchor="start" x="8" y="-18.5" font-family="Helvetica,sans-Serif" font-size="10.00">AutomatableParameter</text>
<text text-anchor="middle" x="65" y="-7.5" font-family="Helvetica,sans-Serif" font-size="10.00">::Listener</text>
</a>
</g>
</g>
<!-- Node3&#45;&gt;Node1 -->
<g id="edge2" class="edge">
<title>Node3&#45;&gt;Node1</title>
<path fill="none" stroke="#8b1a1a" d="M140.25,-34.23C148.8,-35.76 157.37,-37.28 165.54,-38.74"/>
<polygon fill="#8b1a1a" stroke="#8b1a1a" points="140.71,-30.76 130.25,-32.45 139.48,-37.65 140.71,-30.76"/>
</g>
</g>
</svg>
