<?xml version="1.0" encoding="UTF-8" standalone="no"?>
<!DOCTYPE svg PUBLIC "-//W3C//DTD SVG 1.1//EN"
 "http://www.w3.org/Graphics/SVG/1.1/DTD/svg11.dtd">
<!-- Generated by graphviz version 2.43.0 (0)
 -->
<!-- Title: tracktion::engine::EditItem Pages: 1 -->
<svg width="622pt" height="1478pt"
 viewBox="0.00 0.00 622.00 1478.00" xmlns="http://www.w3.org/2000/svg" xmlns:xlink="http://www.w3.org/1999/xlink">
<g id="graph0" class="graph" transform="scale(1 1) rotate(0) translate(4 1474)">
<title>tracktion::engine::EditItem</title>
<!-- Node1 -->
<g id="Node000001" class="node">
<title>Node1</title>
<g id="a_Node000001"><a xlink:title="Base class for objects that live inside an edit &#45; e.g.">
<polygon fill="#999999" stroke="#666666" points="105,-558 0,-558 0,-528 105,-528 105,-558"/>
<text text-anchor="start" x="8" y="-546" font-family="Helvetica,sans-Serif" font-size="10.00">tracktion::engine::</text>
<text text-anchor="middle" x="52.5" y="-535" font-family="Helvetica,sans-Serif" font-size="10.00">EditItem</text>
</a>
</g>
</g>
<!-- Node2 -->
<g id="Node000002" class="node">
<title>Node2</title>
<g id="a_Node000002"><a xlink:href="classtracktion_1_1engine_1_1AutomatableEditItem.html" target="_top" xlink:title="Base class for elements that have some kind of automatable parameters.">
<polygon fill="white" stroke="#666666" points="262,-966 141,-966 141,-936 262,-936 262,-966"/>
<text text-anchor="start" x="149" y="-954" font-family="Helvetica,sans-Serif" font-size="10.00">tracktion::engine::</text>
<text text-anchor="middle" x="201.5" y="-943" font-family="Helvetica,sans-Serif" font-size="10.00">AutomatableEditItem</text>
</a>
</g>
</g>
<!-- Node1&#45;&gt;Node2 -->
<g id="edge1_Node000001_Node000002" class="edge">
<title>Node1&#45;&gt;Node2</title>
<g id="a_edge1_Node000001_Node000002"><a xlink:title=" ">
<path fill="none" stroke="#63b8ff" d="M62.41,-567.72C89.9,-644.04 172.94,-874.51 195.04,-935.86"/>
<polygon fill="#63b8ff" stroke="#63b8ff" points="65.59,-566.23 58.91,-558 59,-568.6 65.59,-566.23"/>
</a>
</g>
</g>
<!-- Node39 -->
<g id="Node000039" class="node">
<title>Node39</title>
<g id="a_Node000039"><a xlink:href="classtracktion_1_1engine_1_1ClipSlot.html" target="_top" xlink:title="Represents a slot on a track that a Clip can live in to be played as a launched clip.">
<polygon fill="white" stroke="#666666" points="254,-606 149,-606 149,-576 254,-576 254,-606"/>
<text text-anchor="start" x="157" y="-594" font-family="Helvetica,sans-Serif" font-size="10.00">tracktion::engine::</text>
<text text-anchor="middle" x="201.5" y="-583" font-family="Helvetica,sans-Serif" font-size="10.00">ClipSlot</text>
</a>
</g>
</g>
<!-- Node1&#45;&gt;Node39 -->
<g id="edge36_Node000001_Node000039" class="edge">
<title>Node1&#45;&gt;Node39</title>
<g id="a_edge36_Node000001_Node000039"><a xlink:title=" ">
<path fill="none" stroke="#63b8ff" d="M109.26,-561.21C124.21,-566.09 140.2,-571.31 154.56,-576"/>
<polygon fill="#63b8ff" stroke="#63b8ff" points="110.2,-557.83 99.61,-558.06 108.03,-564.49 110.2,-557.83"/>
</a>
</g>
</g>
<!-- Node40 -->
<g id="Node000040" class="node">
<title>Node40</title>
<g id="a_Node000040"><a xlink:href="classtracktion_1_1engine_1_1RackType.html" target="_top" xlink:title=" ">
<polygon fill="white" stroke="#666666" points="254,-558 149,-558 149,-528 254,-528 254,-558"/>
<text text-anchor="start" x="157" y="-546" font-family="Helvetica,sans-Serif" font-size="10.00">tracktion::engine::</text>
<text text-anchor="middle" x="201.5" y="-535" font-family="Helvetica,sans-Serif" font-size="10.00">RackType</text>
</a>
</g>
</g>
<!-- Node1&#45;&gt;Node40 -->
<g id="edge37_Node000001_Node000040" class="edge">
<title>Node1&#45;&gt;Node40</title>
<g id="a_edge37_Node000001_Node000040"><a xlink:title=" ">
<path fill="none" stroke="#63b8ff" d="M115.37,-543C126.45,-543 137.89,-543 148.65,-543"/>
<polygon fill="#63b8ff" stroke="#63b8ff" points="115.33,-539.5 105.33,-543 115.33,-546.5 115.33,-539.5"/>
</a>
</g>
</g>
<!-- Node41 -->
<g id="Node000041" class="node">
<title>Node41</title>
<g id="a_Node000041"><a xlink:href="classtracktion_1_1engine_1_1Track.html" target="_top" xlink:title="Base class for tracks which contain clips and plugins and can be added to Edit[s].">
<polygon fill="white" stroke="#666666" points="254,-510 149,-510 149,-480 254,-480 254,-510"/>
<text text-anchor="start" x="157" y="-498" font-family="Helvetica,sans-Serif" font-size="10.00">tracktion::engine::</text>
<text text-anchor="middle" x="201.5" y="-487" font-family="Helvetica,sans-Serif" font-size="10.00">Track</text>
</a>
</g>
</g>
<!-- Node1&#45;&gt;Node41 -->
<g id="edge38_Node000001_Node000041" class="edge">
<title>Node1&#45;&gt;Node41</title>
<g id="a_edge38_Node000001_Node000041"><a xlink:title=" ">
<path fill="none" stroke="#63b8ff" d="M109.26,-524.79C124.21,-519.91 140.2,-514.69 154.56,-510"/>
<polygon fill="#63b8ff" stroke="#63b8ff" points="108.03,-521.51 99.61,-527.94 110.2,-528.17 108.03,-521.51"/>
</a>
</g>
</g>
<!-- Node51 -->
<g id="Node000051" class="node">
<title>Node51</title>
<g id="a_Node000051"><a xlink:href="classtracktion_1_1engine_1_1TrackItem.html" target="_top" xlink:title="Base class for EditItems that live in a Track, e.g.">
<polygon fill="white" stroke="#666666" points="254,-328 149,-328 149,-298 254,-298 254,-328"/>
<text text-anchor="start" x="157" y="-316" font-family="Helvetica,sans-Serif" font-size="10.00">tracktion::engine::</text>
<text text-anchor="middle" x="201.5" y="-305" font-family="Helvetica,sans-Serif" font-size="10.00">TrackItem</text>
</a>
</g>
</g>
<!-- Node1&#45;&gt;Node51 -->
<g id="edge44_Node000001_Node000051" class="edge">
<title>Node1&#45;&gt;Node51</title>
<g id="a_edge44_Node000001_Node000051"><a xlink:title=" ">
<path fill="none" stroke="#63b8ff" d="M68.68,-519.26C98.89,-471.98 165.81,-367.28 190.82,-328.15"/>
<polygon fill="#63b8ff" stroke="#63b8ff" points="65.58,-517.6 63.15,-527.91 71.48,-521.37 65.58,-517.6"/>
</a>
</g>
</g>
<!-- Node3 -->
<g id="Node000003" class="node">
<title>Node3</title>
<g id="a_Node000003"><a xlink:href="classtracktion_1_1engine_1_1MacroParameterList.html" target="_top" xlink:title=" ">
<polygon fill="white" stroke="#666666" points="417,-1350 303,-1350 303,-1320 417,-1320 417,-1350"/>
<text text-anchor="start" x="311" y="-1338" font-family="Helvetica,sans-Serif" font-size="10.00">tracktion::engine::</text>
<text text-anchor="middle" x="360" y="-1327" font-family="Helvetica,sans-Serif" font-size="10.00">MacroParameterList</text>
</a>
</g>
</g>
<!-- Node2&#45;&gt;Node3 -->
<g id="edge2_Node000002_Node000003" class="edge">
<title>Node2&#45;&gt;Node3</title>
<g id="a_edge2_Node000002_Node000003"><a xlink:title=" ">
<path fill="none" stroke="#63b8ff" d="M201.86,-976.26C201.62,-1040.49 209.78,-1211.95 298,-1311 301.03,-1314.4 304.6,-1317.32 308.47,-1319.83"/>
<polygon fill="#63b8ff" stroke="#63b8ff" points="205.36,-976.26 201.98,-966.22 198.36,-976.18 205.36,-976.26"/>
</a>
</g>
</g>
<!-- Node4 -->
<g id="Node000004" class="node">
<title>Node4</title>
<g id="a_Node000004"><a xlink:href="structtracktion_1_1engine_1_1Modifier.html" target="_top" xlink:title="Bass class for parameter Modifiers.">
<polygon fill="white" stroke="#666666" points="412.5,-1302 307.5,-1302 307.5,-1272 412.5,-1272 412.5,-1302"/>
<text text-anchor="start" x="315.5" y="-1290" font-family="Helvetica,sans-Serif" font-size="10.00">tracktion::engine::</text>
<text text-anchor="middle" x="360" y="-1279" font-family="Helvetica,sans-Serif" font-size="10.00">Modifier</text>
</a>
</g>
</g>
<!-- Node2&#45;&gt;Node4 -->
<g id="edge3_Node000002_Node000004" class="edge">
<title>Node2&#45;&gt;Node4</title>
<g id="a_edge3_Node000002_Node000004"><a xlink:title=" ">
<path fill="none" stroke="#63b8ff" d="M213.9,-975.48C244.43,-1041.02 327.37,-1219.08 352.01,-1271.98"/>
<polygon fill="#63b8ff" stroke="#63b8ff" points="217.03,-973.9 209.63,-966.31 210.68,-976.85 217.03,-973.9"/>
</a>
</g>
</g>
<!-- Node11 -->
<g id="Node000011" class="node">
<title>Node11</title>
<g id="a_Node000011"><a xlink:href="classtracktion_1_1engine_1_1Plugin.html" target="_top" xlink:title=" ">
<polygon fill="#fff0f0" stroke="red" points="412.5,-654 307.5,-654 307.5,-624 412.5,-624 412.5,-654"/>
<text text-anchor="start" x="315.5" y="-642" font-family="Helvetica,sans-Serif" font-size="10.00">tracktion::engine::</text>
<text text-anchor="middle" x="360" y="-631" font-family="Helvetica,sans-Serif" font-size="10.00">Plugin</text>
</a>
</g>
</g>
<!-- Node2&#45;&gt;Node11 -->
<g id="edge10_Node000002_Node000011" class="edge">
<title>Node2&#45;&gt;Node11</title>
<g id="a_edge10_Node000002_Node000011"><a xlink:title=" ">
<path fill="none" stroke="#63b8ff" d="M214.54,-927C245.29,-865.69 326.09,-704.61 351.34,-654.26"/>
<polygon fill="#63b8ff" stroke="#63b8ff" points="211.4,-925.44 210.05,-935.95 217.66,-928.58 211.4,-925.44"/>
</a>
</g>
</g>
<!-- Node5 -->
<g id="Node000005" class="node">
<title>Node5</title>
<g id="a_Node000005"><a xlink:href="classtracktion_1_1engine_1_1BreakpointOscillatorModifier.html" target="_top" xlink:title=" ">
<polygon fill="white" stroke="#666666" points="614,-1470 458,-1470 458,-1440 614,-1440 614,-1470"/>
<text text-anchor="start" x="466" y="-1458" font-family="Helvetica,sans-Serif" font-size="10.00">tracktion::engine::</text>
<text text-anchor="middle" x="536" y="-1447" font-family="Helvetica,sans-Serif" font-size="10.00">BreakpointOscillatorModifier</text>
</a>
</g>
</g>
<!-- Node4&#45;&gt;Node5 -->
<g id="edge4_Node000004_Node000005" class="edge">
<title>Node4&#45;&gt;Node5</title>
<g id="a_edge4_Node000004_Node000005"><a xlink:title=" ">
<path fill="none" stroke="#63b8ff" d="M419.21,-1308.22C420.18,-1309.11 421.11,-1310.03 422,-1311 459.7,-1351.98 418.84,-1391.42 458,-1431 461.35,-1434.38 465.17,-1437.29 469.27,-1439.79"/>
<polygon fill="#63b8ff" stroke="#63b8ff" points="421.21,-1305.34 411.12,-1302.08 416.98,-1310.92 421.21,-1305.34"/>
</a>
</g>
</g>
<!-- Node6 -->
<g id="Node000006" class="node">
<title>Node6</title>
<g id="a_Node000006"><a xlink:href="classtracktion_1_1engine_1_1EnvelopeFollowerModifier.html" target="_top" xlink:title=" ">
<polygon fill="white" stroke="#666666" points="607.5,-1422 464.5,-1422 464.5,-1392 607.5,-1392 607.5,-1422"/>
<text text-anchor="start" x="472.5" y="-1410" font-family="Helvetica,sans-Serif" font-size="10.00">tracktion::engine::</text>
<text text-anchor="middle" x="536" y="-1399" font-family="Helvetica,sans-Serif" font-size="10.00">EnvelopeFollowerModifier</text>
</a>
</g>
</g>
<!-- Node4&#45;&gt;Node6 -->
<g id="edge5_Node000004_Node000006" class="edge">
<title>Node4&#45;&gt;Node6</title>
<g id="a_edge5_Node000004_Node000006"><a xlink:title=" ">
<path fill="none" stroke="#63b8ff" d="M418.01,-1307.67C419.4,-1308.73 420.73,-1309.84 422,-1311 448.4,-1335.15 430.74,-1359.82 458,-1383 462.05,-1386.45 466.6,-1389.4 471.4,-1391.93"/>
<polygon fill="#63b8ff" stroke="#63b8ff" points="419.89,-1304.72 409.61,-1302.16 416.05,-1310.57 419.89,-1304.72"/>
</a>
</g>
</g>
<!-- Node7 -->
<g id="Node000007" class="node">
<title>Node7</title>
<g id="a_Node000007"><a xlink:href="classtracktion_1_1engine_1_1LFOModifier.html" target="_top" xlink:title=" ">
<polygon fill="white" stroke="#666666" points="588.5,-1374 483.5,-1374 483.5,-1344 588.5,-1344 588.5,-1374"/>
<text text-anchor="start" x="491.5" y="-1362" font-family="Helvetica,sans-Serif" font-size="10.00">tracktion::engine::</text>
<text text-anchor="middle" x="536" y="-1351" font-family="Helvetica,sans-Serif" font-size="10.00">LFOModifier</text>
</a>
</g>
</g>
<!-- Node4&#45;&gt;Node7 -->
<g id="edge6_Node000004_Node000007" class="edge">
<title>Node4&#45;&gt;Node7</title>
<g id="a_edge6_Node000004_Node000007"><a xlink:title=" ">
<path fill="none" stroke="#63b8ff" d="M412.31,-1306.25C415.62,-1307.78 418.88,-1309.37 422,-1311 439.04,-1319.9 440.64,-1326.72 458,-1335 465.96,-1338.8 474.67,-1342.18 483.27,-1345.12"/>
<polygon fill="#63b8ff" stroke="#63b8ff" points="413.44,-1302.93 402.88,-1302.1 410.62,-1309.33 413.44,-1302.93"/>
</a>
</g>
</g>
<!-- Node8 -->
<g id="Node000008" class="node">
<title>Node8</title>
<g id="a_Node000008"><a xlink:href="classtracktion_1_1engine_1_1MIDITrackerModifier.html" target="_top" xlink:title=" ">
<polygon fill="white" stroke="#666666" points="592.5,-1326 479.5,-1326 479.5,-1296 592.5,-1296 592.5,-1326"/>
<text text-anchor="start" x="487.5" y="-1314" font-family="Helvetica,sans-Serif" font-size="10.00">tracktion::engine::</text>
<text text-anchor="middle" x="536" y="-1303" font-family="Helvetica,sans-Serif" font-size="10.00">MIDITrackerModifier</text>
</a>
</g>
</g>
<!-- Node4&#45;&gt;Node8 -->
<g id="edge7_Node000004_Node000008" class="edge">
<title>Node4&#45;&gt;Node8</title>
<g id="a_edge7_Node000004_Node000008"><a xlink:title=" ">
<path fill="none" stroke="#63b8ff" d="M422.77,-1295.52C441.17,-1298.06 461.22,-1300.82 479.22,-1303.31"/>
<polygon fill="#63b8ff" stroke="#63b8ff" points="423.12,-1292.04 412.73,-1294.14 422.16,-1298.97 423.12,-1292.04"/>
</a>
</g>
</g>
<!-- Node9 -->
<g id="Node000009" class="node">
<title>Node9</title>
<g id="a_Node000009"><a xlink:href="classtracktion_1_1engine_1_1RandomModifier.html" target="_top" xlink:title=" ">
<polygon fill="white" stroke="#666666" points="588.5,-1278 483.5,-1278 483.5,-1248 588.5,-1248 588.5,-1278"/>
<text text-anchor="start" x="491.5" y="-1266" font-family="Helvetica,sans-Serif" font-size="10.00">tracktion::engine::</text>
<text text-anchor="middle" x="536" y="-1255" font-family="Helvetica,sans-Serif" font-size="10.00">RandomModifier</text>
</a>
</g>
</g>
<!-- Node4&#45;&gt;Node9 -->
<g id="edge8_Node000004_Node000009" class="edge">
<title>Node4&#45;&gt;Node9</title>
<g id="a_edge8_Node000004_Node000009"><a xlink:title=" ">
<path fill="none" stroke="#63b8ff" d="M422.9,-1278.46C442.73,-1275.73 464.46,-1272.73 483.46,-1270.11"/>
<polygon fill="#63b8ff" stroke="#63b8ff" points="422.16,-1275.03 412.73,-1279.86 423.12,-1281.96 422.16,-1275.03"/>
</a>
</g>
</g>
<!-- Node10 -->
<g id="Node000010" class="node">
<title>Node10</title>
<g id="a_Node000010"><a xlink:href="classtracktion_1_1engine_1_1StepModifier.html" target="_top" xlink:title=" ">
<polygon fill="white" stroke="#666666" points="588.5,-1230 483.5,-1230 483.5,-1200 588.5,-1200 588.5,-1230"/>
<text text-anchor="start" x="491.5" y="-1218" font-family="Helvetica,sans-Serif" font-size="10.00">tracktion::engine::</text>
<text text-anchor="middle" x="536" y="-1207" font-family="Helvetica,sans-Serif" font-size="10.00">StepModifier</text>
</a>
</g>
</g>
<!-- Node4&#45;&gt;Node10 -->
<g id="edge9_Node000004_Node000010" class="edge">
<title>Node4&#45;&gt;Node10</title>
<g id="a_edge9_Node000004_Node000010"><a xlink:title=" ">
<path fill="none" stroke="#63b8ff" d="M397.45,-1267.26C415.38,-1257.99 437.5,-1247.21 458,-1239 466.06,-1235.77 474.73,-1232.7 483.25,-1229.9"/>
<polygon fill="#63b8ff" stroke="#63b8ff" points="395.73,-1264.21 388.48,-1271.95 398.97,-1270.42 395.73,-1264.21"/>
</a>
</g>
</g>
<!-- Node12 -->
<g id="Node000012" class="node">
<title>Node12</title>
<g id="a_Node000012"><a xlink:href="classtracktion_1_1engine_1_1AirWindowsPlugin.html" target="_top" xlink:title=" ">
<polygon fill="white" stroke="#666666" points="588.5,-1182 483.5,-1182 483.5,-1152 588.5,-1152 588.5,-1182"/>
<text text-anchor="start" x="491.5" y="-1170" font-family="Helvetica,sans-Serif" font-size="10.00">tracktion::engine::</text>
<text text-anchor="middle" x="536" y="-1159" font-family="Helvetica,sans-Serif" font-size="10.00">AirWindowsPlugin</text>
</a>
</g>
</g>
<!-- Node11&#45;&gt;Node12 -->
<g id="edge11_Node000011_Node000012" class="edge">
<title>Node11&#45;&gt;Node12</title>
<g id="a_edge11_Node000011_Node000012"><a xlink:title=" ">
<path fill="none" stroke="#63b8ff" d="M362.49,-664.06C368.41,-755.64 393.23,-1070.54 458,-1143 464.72,-1150.52 473.75,-1155.7 483.26,-1159.28"/>
<polygon fill="#63b8ff" stroke="#63b8ff" points="365.98,-663.8 361.86,-654.03 358.99,-664.23 365.98,-663.8"/>
</a>
</g>
</g>
<!-- Node13 -->
<g id="Node000013" class="node">
<title>Node13</title>
<g id="a_Node000013"><a xlink:href="classtracktion_1_1engine_1_1AuxReturnPlugin.html" target="_top" xlink:title=" ">
<polygon fill="white" stroke="#666666" points="588.5,-1134 483.5,-1134 483.5,-1104 588.5,-1104 588.5,-1134"/>
<text text-anchor="start" x="491.5" y="-1122" font-family="Helvetica,sans-Serif" font-size="10.00">tracktion::engine::</text>
<text text-anchor="middle" x="536" y="-1111" font-family="Helvetica,sans-Serif" font-size="10.00">AuxReturnPlugin</text>
</a>
</g>
</g>
<!-- Node11&#45;&gt;Node13 -->
<g id="edge12_Node000011_Node000013" class="edge">
<title>Node11&#45;&gt;Node13</title>
<g id="a_edge12_Node000011_Node000013"><a xlink:title=" ">
<path fill="none" stroke="#63b8ff" d="M363.05,-664.15C370.53,-750.1 399.11,-1030.39 458,-1095 464.79,-1102.45 473.85,-1107.61 483.37,-1111.17"/>
<polygon fill="#63b8ff" stroke="#63b8ff" points="366.52,-663.67 362.18,-654 359.55,-664.26 366.52,-663.67"/>
</a>
</g>
</g>
<!-- Node14 -->
<g id="Node000014" class="node">
<title>Node14</title>
<g id="a_Node000014"><a xlink:href="classtracktion_1_1engine_1_1AuxSendPlugin.html" target="_top" xlink:title=" ">
<polygon fill="white" stroke="#666666" points="588.5,-1086 483.5,-1086 483.5,-1056 588.5,-1056 588.5,-1086"/>
<text text-anchor="start" x="491.5" y="-1074" font-family="Helvetica,sans-Serif" font-size="10.00">tracktion::engine::</text>
<text text-anchor="middle" x="536" y="-1063" font-family="Helvetica,sans-Serif" font-size="10.00">AuxSendPlugin</text>
</a>
</g>
</g>
<!-- Node11&#45;&gt;Node14 -->
<g id="edge13_Node000011_Node000014" class="edge">
<title>Node11&#45;&gt;Node14</title>
<g id="a_edge13_Node000011_Node000014"><a xlink:title=" ">
<path fill="none" stroke="#63b8ff" d="M363.75,-664.35C372.94,-744.45 404.97,-990.2 458,-1047 464.78,-1054.27 473.73,-1059.35 483.11,-1062.9"/>
<polygon fill="#63b8ff" stroke="#63b8ff" points="367.2,-663.73 362.61,-654.18 360.25,-664.51 367.2,-663.73"/>
</a>
</g>
</g>
<!-- Node15 -->
<g id="Node000015" class="node">
<title>Node15</title>
<g id="a_Node000015"><a xlink:href="classtracktion_1_1engine_1_1ChorusPlugin.html" target="_top" xlink:title=" ">
<polygon fill="white" stroke="#666666" points="588.5,-1038 483.5,-1038 483.5,-1008 588.5,-1008 588.5,-1038"/>
<text text-anchor="start" x="491.5" y="-1026" font-family="Helvetica,sans-Serif" font-size="10.00">tracktion::engine::</text>
<text text-anchor="middle" x="536" y="-1015" font-family="Helvetica,sans-Serif" font-size="10.00">ChorusPlugin</text>
</a>
</g>
</g>
<!-- Node11&#45;&gt;Node15 -->
<g id="edge14_Node000011_Node000015" class="edge">
<title>Node11&#45;&gt;Node15</title>
<g id="a_edge14_Node000011_Node000015"><a xlink:title=" ">
<path fill="none" stroke="#63b8ff" d="M364.6,-664.23C375.57,-737.77 410.73,-949.85 458,-999 464.89,-1006.17 473.88,-1011.2 483.28,-1014.74"/>
<polygon fill="#63b8ff" stroke="#63b8ff" points="368.02,-663.42 363.1,-654.04 361.09,-664.44 368.02,-663.42"/>
</a>
</g>
</g>
<!-- Node16 -->
<g id="Node000016" class="node">
<title>Node16</title>
<g id="a_Node000016"><a xlink:href="classtracktion_1_1engine_1_1CompressorPlugin.html" target="_top" xlink:title=" ">
<polygon fill="white" stroke="#666666" points="588.5,-990 483.5,-990 483.5,-960 588.5,-960 588.5,-990"/>
<text text-anchor="start" x="491.5" y="-978" font-family="Helvetica,sans-Serif" font-size="10.00">tracktion::engine::</text>
<text text-anchor="middle" x="536" y="-967" font-family="Helvetica,sans-Serif" font-size="10.00">CompressorPlugin</text>
</a>
</g>
</g>
<!-- Node11&#45;&gt;Node16 -->
<g id="edge15_Node000011_Node000016" class="edge">
<title>Node11&#45;&gt;Node16</title>
<g id="a_edge15_Node000011_Node000016"><a xlink:title=" ">
<path fill="none" stroke="#63b8ff" d="M361.33,-664.4C363.5,-723.26 377.2,-870.14 458,-951 465.03,-958.03 474.08,-963.01 483.49,-966.53"/>
<polygon fill="#63b8ff" stroke="#63b8ff" points="364.82,-664.05 361.04,-654.15 357.83,-664.25 364.82,-664.05"/>
</a>
</g>
</g>
<!-- Node17 -->
<g id="Node000017" class="node">
<title>Node17</title>
<g id="a_Node000017"><a xlink:href="classtracktion_1_1engine_1_1DelayPlugin.html" target="_top" xlink:title=" ">
<polygon fill="white" stroke="#666666" points="588.5,-942 483.5,-942 483.5,-912 588.5,-912 588.5,-942"/>
<text text-anchor="start" x="491.5" y="-930" font-family="Helvetica,sans-Serif" font-size="10.00">tracktion::engine::</text>
<text text-anchor="middle" x="536" y="-919" font-family="Helvetica,sans-Serif" font-size="10.00">DelayPlugin</text>
</a>
</g>
</g>
<!-- Node11&#45;&gt;Node17 -->
<g id="edge16_Node000011_Node000017" class="edge">
<title>Node11&#45;&gt;Node17</title>
<g id="a_edge16_Node000011_Node000017"><a xlink:title=" ">
<path fill="none" stroke="#63b8ff" d="M362.98,-664.05C368.44,-716.12 388.31,-836.71 458,-903 465.1,-909.76 474.08,-914.61 483.37,-918.1"/>
<polygon fill="#63b8ff" stroke="#63b8ff" points="366.45,-663.64 362.02,-654.02 359.49,-664.31 366.45,-663.64"/>
</a>
</g>
</g>
<!-- Node18 -->
<g id="Node000018" class="node">
<title>Node18</title>
<g id="a_Node000018"><a xlink:href="classtracktion_1_1engine_1_1EqualiserPlugin.html" target="_top" xlink:title=" ">
<polygon fill="white" stroke="#666666" points="588.5,-894 483.5,-894 483.5,-864 588.5,-864 588.5,-894"/>
<text text-anchor="start" x="491.5" y="-882" font-family="Helvetica,sans-Serif" font-size="10.00">tracktion::engine::</text>
<text text-anchor="middle" x="536" y="-871" font-family="Helvetica,sans-Serif" font-size="10.00">EqualiserPlugin</text>
</a>
</g>
</g>
<!-- Node11&#45;&gt;Node18 -->
<g id="edge17_Node000011_Node000018" class="edge">
<title>Node11&#45;&gt;Node18</title>
<g id="a_edge17_Node000011_Node000018"><a xlink:title=" ">
<path fill="none" stroke="#63b8ff" d="M365.32,-664.12C374.35,-708.99 399.47,-803.1 458,-855 465.23,-861.41 474.15,-866.11 483.34,-869.55"/>
<polygon fill="#63b8ff" stroke="#63b8ff" points="368.72,-663.24 363.4,-654.07 361.84,-664.55 368.72,-663.24"/>
</a>
</g>
</g>
<!-- Node19 -->
<g id="Node000019" class="node">
<title>Node19</title>
<g id="a_Node000019"><a xlink:href="classtracktion_1_1engine_1_1ExternalPlugin.html" target="_top" xlink:title=" ">
<polygon fill="white" stroke="#666666" points="588.5,-846 483.5,-846 483.5,-816 588.5,-816 588.5,-846"/>
<text text-anchor="start" x="491.5" y="-834" font-family="Helvetica,sans-Serif" font-size="10.00">tracktion::engine::</text>
<text text-anchor="middle" x="536" y="-823" font-family="Helvetica,sans-Serif" font-size="10.00">ExternalPlugin</text>
</a>
</g>
</g>
<!-- Node11&#45;&gt;Node19 -->
<g id="edge18_Node000011_Node000019" class="edge">
<title>Node11&#45;&gt;Node19</title>
<g id="a_edge18_Node000011_Node000019"><a xlink:title=" ">
<path fill="none" stroke="#63b8ff" d="M368.82,-663.93C381.58,-700.62 410.36,-768.9 458,-807 465.44,-812.95 474.35,-817.43 483.44,-820.8"/>
<polygon fill="#63b8ff" stroke="#63b8ff" points="372,-662.42 365.5,-654.05 365.36,-664.64 372,-662.42"/>
</a>
</g>
</g>
<!-- Node20 -->
<g id="Node000020" class="node">
<title>Node20</title>
<g id="a_Node000020"><a xlink:href="classtracktion_1_1engine_1_1FourOscPlugin.html" target="_top" xlink:title=" ">
<polygon fill="white" stroke="#666666" points="588.5,-798 483.5,-798 483.5,-768 588.5,-768 588.5,-798"/>
<text text-anchor="start" x="491.5" y="-786" font-family="Helvetica,sans-Serif" font-size="10.00">tracktion::engine::</text>
<text text-anchor="middle" x="536" y="-775" font-family="Helvetica,sans-Serif" font-size="10.00">FourOscPlugin</text>
</a>
</g>
</g>
<!-- Node11&#45;&gt;Node20 -->
<g id="edge19_Node000011_Node000020" class="edge">
<title>Node11&#45;&gt;Node20</title>
<g id="a_edge19_Node000011_Node000020"><a xlink:title=" ">
<path fill="none" stroke="#63b8ff" d="M374.52,-663.18C390.89,-690.31 420.93,-733.82 458,-759 465.65,-764.19 474.47,-768.3 483.35,-771.54"/>
<polygon fill="#63b8ff" stroke="#63b8ff" points="377.4,-661.17 369.31,-654.32 371.36,-664.71 377.4,-661.17"/>
</a>
</g>
</g>
<!-- Node21 -->
<g id="Node000021" class="node">
<title>Node21</title>
<g id="a_Node000021"><a xlink:href="classtracktion_1_1engine_1_1FreezePointPlugin.html" target="_top" xlink:title=" ">
<polygon fill="white" stroke="#666666" points="588.5,-750 483.5,-750 483.5,-720 588.5,-720 588.5,-750"/>
<text text-anchor="start" x="491.5" y="-738" font-family="Helvetica,sans-Serif" font-size="10.00">tracktion::engine::</text>
<text text-anchor="middle" x="536" y="-727" font-family="Helvetica,sans-Serif" font-size="10.00">FreezePointPlugin</text>
</a>
</g>
</g>
<!-- Node11&#45;&gt;Node21 -->
<g id="edge20_Node000011_Node000021" class="edge">
<title>Node11&#45;&gt;Node21</title>
<g id="a_edge20_Node000011_Node000021"><a xlink:title=" ">
<path fill="none" stroke="#63b8ff" d="M385.44,-660.8C404.19,-676.58 431.29,-697.42 458,-711 465.86,-715 474.52,-718.48 483.1,-721.46"/>
<polygon fill="#63b8ff" stroke="#63b8ff" points="387.57,-658.02 377.7,-654.17 383.02,-663.34 387.57,-658.02"/>
</a>
</g>
</g>
<!-- Node22 -->
<g id="Node000022" class="node">
<title>Node22</title>
<g id="a_Node000022"><a xlink:href="classtracktion_1_1engine_1_1ImpulseResponsePlugin.html" target="_top" xlink:title="ImpulseResponsePlugin that loads an impulse response and applies it the audio stream.">
<polygon fill="white" stroke="#666666" points="602.5,-702 469.5,-702 469.5,-672 602.5,-672 602.5,-702"/>
<text text-anchor="start" x="477.5" y="-690" font-family="Helvetica,sans-Serif" font-size="10.00">tracktion::engine::</text>
<text text-anchor="middle" x="536" y="-679" font-family="Helvetica,sans-Serif" font-size="10.00">ImpulseResponsePlugin</text>
</a>
</g>
</g>
<!-- Node11&#45;&gt;Node22 -->
<g id="edge21_Node000011_Node000022" class="edge">
<title>Node11&#45;&gt;Node22</title>
<g id="a_edge21_Node000011_Node000022"><a xlink:title=" ">
<path fill="none" stroke="#63b8ff" d="M422.44,-655.95C441.35,-661.17 462.03,-666.87 480.44,-671.95"/>
<polygon fill="#63b8ff" stroke="#63b8ff" points="423.31,-652.56 412.73,-653.27 421.44,-659.3 423.31,-652.56"/>
</a>
</g>
</g>
<!-- Node23 -->
<g id="Node000023" class="node">
<title>Node23</title>
<g id="a_Node000023"><a xlink:href="classtracktion_1_1engine_1_1InsertPlugin.html" target="_top" xlink:title=" ">
<polygon fill="white" stroke="#666666" points="588.5,-654 483.5,-654 483.5,-624 588.5,-624 588.5,-654"/>
<text text-anchor="start" x="491.5" y="-642" font-family="Helvetica,sans-Serif" font-size="10.00">tracktion::engine::</text>
<text text-anchor="middle" x="536" y="-631" font-family="Helvetica,sans-Serif" font-size="10.00">InsertPlugin</text>
</a>
</g>
</g>
<!-- Node11&#45;&gt;Node23 -->
<g id="edge22_Node000011_Node000023" class="edge">
<title>Node11&#45;&gt;Node23</title>
<g id="a_edge22_Node000011_Node000023"><a xlink:title=" ">
<path fill="none" stroke="#63b8ff" d="M422.9,-639C442.73,-639 464.46,-639 483.46,-639"/>
<polygon fill="#63b8ff" stroke="#63b8ff" points="422.73,-635.5 412.73,-639 422.73,-642.5 422.73,-635.5"/>
</a>
</g>
</g>
<!-- Node24 -->
<g id="Node000024" class="node">
<title>Node24</title>
<g id="a_Node000024"><a xlink:href="classtracktion_1_1engine_1_1LatencyPlugin.html" target="_top" xlink:title="A test plugin that introduces latency to the incoming signal.">
<polygon fill="white" stroke="#666666" points="588.5,-606 483.5,-606 483.5,-576 588.5,-576 588.5,-606"/>
<text text-anchor="start" x="491.5" y="-594" font-family="Helvetica,sans-Serif" font-size="10.00">tracktion::engine::</text>
<text text-anchor="middle" x="536" y="-583" font-family="Helvetica,sans-Serif" font-size="10.00">LatencyPlugin</text>
</a>
</g>
</g>
<!-- Node11&#45;&gt;Node24 -->
<g id="edge23_Node000011_Node000024" class="edge">
<title>Node11&#45;&gt;Node24</title>
<g id="a_edge23_Node000011_Node000024"><a xlink:title=" ">
<path fill="none" stroke="#63b8ff" d="M422.63,-622C442.53,-616.51 464.37,-610.48 483.46,-605.22"/>
<polygon fill="#63b8ff" stroke="#63b8ff" points="421.44,-618.7 412.73,-624.73 423.31,-625.44 421.44,-618.7"/>
</a>
</g>
</g>
<!-- Node25 -->
<g id="Node000025" class="node">
<title>Node25</title>
<g id="a_Node000025"><a xlink:href="classtracktion_1_1engine_1_1LevelMeterPlugin.html" target="_top" xlink:title=" ">
<polygon fill="white" stroke="#666666" points="588.5,-558 483.5,-558 483.5,-528 588.5,-528 588.5,-558"/>
<text text-anchor="start" x="491.5" y="-546" font-family="Helvetica,sans-Serif" font-size="10.00">tracktion::engine::</text>
<text text-anchor="middle" x="536" y="-535" font-family="Helvetica,sans-Serif" font-size="10.00">LevelMeterPlugin</text>
</a>
</g>
</g>
<!-- Node11&#45;&gt;Node25 -->
<g id="edge24_Node000011_Node000025" class="edge">
<title>Node11&#45;&gt;Node25</title>
<g id="a_edge24_Node000011_Node000025"><a xlink:title=" ">
<path fill="none" stroke="#63b8ff" d="M416.35,-618.92C418.31,-617.68 420.2,-616.37 422,-615 443.21,-598.84 436.22,-582.38 458,-567 465.55,-561.67 474.32,-557.49 483.19,-554.23"/>
<polygon fill="#63b8ff" stroke="#63b8ff" points="414.45,-615.97 407.45,-623.93 417.88,-622.07 414.45,-615.97"/>
</a>
</g>
</g>
<!-- Node26 -->
<g id="Node000026" class="node">
<title>Node26</title>
<g id="a_Node000026"><a xlink:href="classtracktion_1_1engine_1_1LowPassPlugin.html" target="_top" xlink:title=" ">
<polygon fill="white" stroke="#666666" points="588.5,-510 483.5,-510 483.5,-480 588.5,-480 588.5,-510"/>
<text text-anchor="start" x="491.5" y="-498" font-family="Helvetica,sans-Serif" font-size="10.00">tracktion::engine::</text>
<text text-anchor="middle" x="536" y="-487" font-family="Helvetica,sans-Serif" font-size="10.00">LowPassPlugin</text>
</a>
</g>
</g>
<!-- Node11&#45;&gt;Node26 -->
<g id="edge25_Node000011_Node000026" class="edge">
<title>Node11&#45;&gt;Node26</title>
<g id="a_edge25_Node000011_Node000026"><a xlink:title=" ">
<path fill="none" stroke="#63b8ff" d="M419.05,-617.76C420.07,-616.88 421.06,-615.96 422,-615 453.96,-582.52 424.88,-550.3 458,-519 465.12,-512.27 474.11,-507.42 483.41,-503.94"/>
<polygon fill="#63b8ff" stroke="#63b8ff" points="416.65,-615.18 410.58,-623.87 420.74,-620.86 416.65,-615.18"/>
</a>
</g>
</g>
<!-- Node27 -->
<g id="Node000027" class="node">
<title>Node27</title>
<g id="a_Node000027"><a xlink:href="classtracktion_1_1engine_1_1MidiModifierPlugin.html" target="_top" xlink:title=" ">
<polygon fill="white" stroke="#666666" points="589.5,-462 482.5,-462 482.5,-432 589.5,-432 589.5,-462"/>
<text text-anchor="start" x="490.5" y="-450" font-family="Helvetica,sans-Serif" font-size="10.00">tracktion::engine::</text>
<text text-anchor="middle" x="536" y="-439" font-family="Helvetica,sans-Serif" font-size="10.00">MidiModifierPlugin</text>
</a>
</g>
</g>
<!-- Node11&#45;&gt;Node27 -->
<g id="edge26_Node000011_Node000027" class="edge">
<title>Node11&#45;&gt;Node27</title>
<g id="a_edge26_Node000011_Node000027"><a xlink:title=" ">
<path fill="none" stroke="#63b8ff" d="M419.65,-617.48C420.46,-616.68 421.25,-615.86 422,-615 465.52,-565.42 412.7,-518.96 458,-471 464.63,-463.98 473.29,-458.99 482.39,-455.47"/>
<polygon fill="#63b8ff" stroke="#63b8ff" points="417.24,-614.92 411.58,-623.88 421.59,-620.4 417.24,-614.92"/>
</a>
</g>
</g>
<!-- Node28 -->
<g id="Node000028" class="node">
<title>Node28</title>
<g id="a_Node000028"><a xlink:href="classtracktion_1_1engine_1_1MidiPatchBayPlugin.html" target="_top" xlink:title=" ">
<polygon fill="white" stroke="#666666" points="592.5,-414 479.5,-414 479.5,-384 592.5,-384 592.5,-414"/>
<text text-anchor="start" x="487.5" y="-402" font-family="Helvetica,sans-Serif" font-size="10.00">tracktion::engine::</text>
<text text-anchor="middle" x="536" y="-391" font-family="Helvetica,sans-Serif" font-size="10.00">MidiPatchBayPlugin</text>
</a>
</g>
</g>
<!-- Node11&#45;&gt;Node28 -->
<g id="edge27_Node000011_Node000028" class="edge">
<title>Node11&#45;&gt;Node28</title>
<g id="a_edge27_Node000011_Node000028"><a xlink:title=" ">
<path fill="none" stroke="#63b8ff" d="M419.78,-617.48C420.55,-616.68 421.29,-615.86 422,-615 477.31,-548.08 400.3,-487.87 458,-423 463.77,-416.51 471.26,-411.76 479.3,-408.28"/>
<polygon fill="#63b8ff" stroke="#63b8ff" points="417.54,-614.79 412.09,-623.88 422.01,-620.17 417.54,-614.79"/>
</a>
</g>
</g>
<!-- Node29 -->
<g id="Node000029" class="node">
<title>Node29</title>
<g id="a_Node000029"><a xlink:href="classtracktion_1_1engine_1_1PatchBayPlugin.html" target="_top" xlink:title=" ">
<polygon fill="white" stroke="#666666" points="588.5,-366 483.5,-366 483.5,-336 588.5,-336 588.5,-366"/>
<text text-anchor="start" x="491.5" y="-354" font-family="Helvetica,sans-Serif" font-size="10.00">tracktion::engine::</text>
<text text-anchor="middle" x="536" y="-343" font-family="Helvetica,sans-Serif" font-size="10.00">PatchBayPlugin</text>
</a>
</g>
</g>
<!-- Node11&#45;&gt;Node29 -->
<g id="edge28_Node000011_Node000029" class="edge">
<title>Node11&#45;&gt;Node29</title>
<g id="a_edge28_Node000011_Node000029"><a xlink:title=" ">
<path fill="none" stroke="#63b8ff" d="M420.11,-617.21C420.76,-616.5 421.4,-615.76 422,-615 489.18,-530.62 387.79,-456.88 458,-375 464.65,-367.24 473.77,-361.95 483.41,-358.36"/>
<polygon fill="#63b8ff" stroke="#63b8ff" points="417.52,-614.81 412.22,-623.99 422.09,-620.12 417.52,-614.81"/>
</a>
</g>
</g>
<!-- Node30 -->
<g id="Node000030" class="node">
<title>Node30</title>
<g id="a_Node000030"><a xlink:href="classtracktion_1_1engine_1_1PhaserPlugin.html" target="_top" xlink:title=" ">
<polygon fill="white" stroke="#666666" points="588.5,-318 483.5,-318 483.5,-288 588.5,-288 588.5,-318"/>
<text text-anchor="start" x="491.5" y="-306" font-family="Helvetica,sans-Serif" font-size="10.00">tracktion::engine::</text>
<text text-anchor="middle" x="536" y="-295" font-family="Helvetica,sans-Serif" font-size="10.00">PhaserPlugin</text>
</a>
</g>
</g>
<!-- Node11&#45;&gt;Node30 -->
<g id="edge29_Node000011_Node000030" class="edge">
<title>Node11&#45;&gt;Node30</title>
<g id="a_edge29_Node000011_Node000030"><a xlink:title=" ">
<path fill="none" stroke="#63b8ff" d="M420.18,-617.17C420.81,-616.47 421.42,-615.75 422,-615 501.11,-513.11 375.24,-425.95 458,-327 464.56,-319.16 473.64,-313.84 483.27,-310.24"/>
<polygon fill="#63b8ff" stroke="#63b8ff" points="417.78,-614.62 412.6,-623.86 422.41,-619.87 417.78,-614.62"/>
</a>
</g>
</g>
<!-- Node31 -->
<g id="Node000031" class="node">
<title>Node31</title>
<g id="a_Node000031"><a xlink:href="classtracktion_1_1engine_1_1PitchShiftPlugin.html" target="_top" xlink:title=" ">
<polygon fill="white" stroke="#666666" points="588.5,-270 483.5,-270 483.5,-240 588.5,-240 588.5,-270"/>
<text text-anchor="start" x="491.5" y="-258" font-family="Helvetica,sans-Serif" font-size="10.00">tracktion::engine::</text>
<text text-anchor="middle" x="536" y="-247" font-family="Helvetica,sans-Serif" font-size="10.00">PitchShiftPlugin</text>
</a>
</g>
</g>
<!-- Node11&#45;&gt;Node31 -->
<g id="edge30_Node000011_Node000031" class="edge">
<title>Node11&#45;&gt;Node31</title>
<g id="a_edge30_Node000011_Node000031"><a xlink:title=" ">
<path fill="none" stroke="#63b8ff" d="M420.2,-617.19C420.83,-616.48 421.43,-615.75 422,-615 513.05,-495.56 362.67,-395.05 458,-279 464.49,-271.1 473.54,-265.76 483.16,-262.15"/>
<polygon fill="#63b8ff" stroke="#63b8ff" points="417.8,-614.64 412.66,-623.91 422.46,-619.87 417.8,-614.64"/>
</a>
</g>
</g>
<!-- Node32 -->
<g id="Node000032" class="node">
<title>Node32</title>
<g id="a_Node000032"><a xlink:href="classtracktion_1_1engine_1_1RackInstance.html" target="_top" xlink:title=" ">
<polygon fill="white" stroke="#666666" points="588.5,-222 483.5,-222 483.5,-192 588.5,-192 588.5,-222"/>
<text text-anchor="start" x="491.5" y="-210" font-family="Helvetica,sans-Serif" font-size="10.00">tracktion::engine::</text>
<text text-anchor="middle" x="536" y="-199" font-family="Helvetica,sans-Serif" font-size="10.00">RackInstance</text>
</a>
</g>
</g>
<!-- Node11&#45;&gt;Node32 -->
<g id="edge31_Node000011_Node000032" class="edge">
<title>Node11&#45;&gt;Node32</title>
<g id="a_edge31_Node000011_Node000032"><a xlink:title=" ">
<path fill="none" stroke="#63b8ff" d="M420.21,-617.2C420.84,-616.49 421.43,-615.76 422,-615 473.51,-546.5 404.04,-297.59 458,-231 464.52,-222.95 473.71,-217.55 483.47,-213.94"/>
<polygon fill="#63b8ff" stroke="#63b8ff" points="417.8,-614.66 412.71,-623.95 422.49,-619.86 417.8,-614.66"/>
</a>
</g>
</g>
<!-- Node33 -->
<g id="Node000033" class="node">
<title>Node33</title>
<g id="a_Node000033"><a xlink:href="classtracktion_1_1engine_1_1ReverbPlugin.html" target="_top" xlink:title=" ">
<polygon fill="white" stroke="#666666" points="588.5,-174 483.5,-174 483.5,-144 588.5,-144 588.5,-174"/>
<text text-anchor="start" x="491.5" y="-162" font-family="Helvetica,sans-Serif" font-size="10.00">tracktion::engine::</text>
<text text-anchor="middle" x="536" y="-151" font-family="Helvetica,sans-Serif" font-size="10.00">ReverbPlugin</text>
</a>
</g>
</g>
<!-- Node11&#45;&gt;Node33 -->
<g id="edge32_Node000011_Node000033" class="edge">
<title>Node11&#45;&gt;Node33</title>
<g id="a_edge32_Node000011_Node000033"><a xlink:title=" ">
<path fill="none" stroke="#63b8ff" d="M420.23,-617.21C420.84,-616.49 421.44,-615.76 422,-615 479.49,-537.71 397.73,-258.15 458,-183 464.48,-174.92 473.65,-169.5 483.41,-165.89"/>
<polygon fill="#63b8ff" stroke="#63b8ff" points="417.81,-614.67 412.75,-623.98 422.51,-619.86 417.81,-614.67"/>
</a>
</g>
</g>
<!-- Node34 -->
<g id="Node000034" class="node">
<title>Node34</title>
<g id="a_Node000034"><a xlink:href="classtracktion_1_1engine_1_1SamplerPlugin.html" target="_top" xlink:title=" ">
<polygon fill="white" stroke="#666666" points="588.5,-126 483.5,-126 483.5,-96 588.5,-96 588.5,-126"/>
<text text-anchor="start" x="491.5" y="-114" font-family="Helvetica,sans-Serif" font-size="10.00">tracktion::engine::</text>
<text text-anchor="middle" x="536" y="-103" font-family="Helvetica,sans-Serif" font-size="10.00">SamplerPlugin</text>
</a>
</g>
</g>
<!-- Node11&#45;&gt;Node34 -->
<g id="edge33_Node000011_Node000034" class="edge">
<title>Node11&#45;&gt;Node34</title>
<g id="a_edge33_Node000011_Node000034"><a xlink:title=" ">
<path fill="none" stroke="#63b8ff" d="M420.19,-617.27C420.82,-616.54 421.42,-615.78 422,-615 485.49,-528.91 391.43,-218.73 458,-135 464.45,-126.89 473.6,-121.46 483.36,-117.85"/>
<polygon fill="#63b8ff" stroke="#63b8ff" points="417.58,-614.9 412.51,-624.2 422.27,-620.1 417.58,-614.9"/>
</a>
</g>
</g>
<!-- Node35 -->
<g id="Node000035" class="node">
<title>Node35</title>
<g id="a_Node000035"><a xlink:href="classtracktion_1_1engine_1_1TextPlugin.html" target="_top" xlink:title=" ">
<polygon fill="white" stroke="#666666" points="588.5,-78 483.5,-78 483.5,-48 588.5,-48 588.5,-78"/>
<text text-anchor="start" x="491.5" y="-66" font-family="Helvetica,sans-Serif" font-size="10.00">tracktion::engine::</text>
<text text-anchor="middle" x="536" y="-55" font-family="Helvetica,sans-Serif" font-size="10.00">TextPlugin</text>
</a>
</g>
</g>
<!-- Node11&#45;&gt;Node35 -->
<g id="edge34_Node000011_Node000035" class="edge">
<title>Node11&#45;&gt;Node35</title>
<g id="a_edge34_Node000011_Node000035"><a xlink:title=" ">
<path fill="none" stroke="#63b8ff" d="M420.19,-617.27C420.82,-616.54 421.43,-615.78 422,-615 491.48,-520.11 385.12,-179.3 458,-87 464.42,-78.87 473.56,-73.43 483.32,-69.81"/>
<polygon fill="#63b8ff" stroke="#63b8ff" points="417.59,-614.91 412.53,-624.22 422.29,-620.1 417.59,-614.91"/>
</a>
</g>
</g>
<!-- Node36 -->
<g id="Node000036" class="node">
<title>Node36</title>
<g id="a_Node000036"><a xlink:href="classtracktion_1_1engine_1_1ToneGeneratorPlugin.html" target="_top" xlink:title=" ">
<polygon fill="white" stroke="#666666" points="595,-30 477,-30 477,0 595,0 595,-30"/>
<text text-anchor="start" x="485" y="-18" font-family="Helvetica,sans-Serif" font-size="10.00">tracktion::engine::</text>
<text text-anchor="middle" x="536" y="-7" font-family="Helvetica,sans-Serif" font-size="10.00">ToneGeneratorPlugin</text>
</a>
</g>
</g>
<!-- Node11&#45;&gt;Node36 -->
<g id="edge35_Node000011_Node000036" class="edge">
<title>Node11&#45;&gt;Node36</title>
<g id="a_edge35_Node000011_Node000036"><a xlink:title=" ">
<path fill="none" stroke="#63b8ff" d="M420.2,-617.28C420.83,-616.54 421.43,-615.78 422,-615 497.47,-511.31 378.81,-139.88 458,-39 462.93,-32.72 469.48,-28.05 476.69,-24.58"/>
<polygon fill="#63b8ff" stroke="#63b8ff" points="417.59,-614.92 412.55,-624.24 422.31,-620.09 417.59,-614.92"/>
</a>
</g>
</g>
<!-- Node42 -->
<g id="Node000042" class="node">
<title>Node42</title>
<g id="a_Node000042"><a xlink:href="classtracktion_1_1engine_1_1AutomationTrack.html" target="_top" xlink:title=" ">
<polygon fill="white" stroke="#666666" points="412.5,-606 307.5,-606 307.5,-576 412.5,-576 412.5,-606"/>
<text text-anchor="start" x="315.5" y="-594" font-family="Helvetica,sans-Serif" font-size="10.00">tracktion::engine::</text>
<text text-anchor="middle" x="360" y="-583" font-family="Helvetica,sans-Serif" font-size="10.00">AutomationTrack</text>
</a>
</g>
</g>
<!-- Node41&#45;&gt;Node42 -->
<g id="edge39_Node000041_Node000042" class="edge">
<title>Node41&#45;&gt;Node42</title>
<g id="a_edge39_Node000041_Node000042"><a xlink:title=" ">
<path fill="none" stroke="#63b8ff" d="M256.37,-515.06C258.32,-516.31 260.21,-517.62 262,-519 283.14,-535.25 276.79,-550.84 298,-567 302.44,-570.38 307.41,-573.34 312.55,-575.93"/>
<polygon fill="#63b8ff" stroke="#63b8ff" points="257.92,-511.92 247.5,-510.02 254.46,-518 257.92,-511.92"/>
</a>
</g>
</g>
<!-- Node43 -->
<g id="Node000043" class="node">
<title>Node43</title>
<g id="a_Node000043"><a xlink:href="classtracktion_1_1engine_1_1ClipTrack.html" target="_top" xlink:title=" ">
<polygon fill="#fff0f0" stroke="red" points="412.5,-558 307.5,-558 307.5,-528 412.5,-528 412.5,-558"/>
<text text-anchor="start" x="315.5" y="-546" font-family="Helvetica,sans-Serif" font-size="10.00">tracktion::engine::</text>
<text text-anchor="middle" x="360" y="-535" font-family="Helvetica,sans-Serif" font-size="10.00">ClipTrack</text>
</a>
</g>
</g>
<!-- Node41&#45;&gt;Node43 -->
<g id="edge40_Node000041_Node000043" class="edge">
<title>Node41&#45;&gt;Node43</title>
<g id="a_edge40_Node000041_Node000043"><a xlink:title=" ">
<path fill="none" stroke="#63b8ff" d="M261.4,-513.07C277.45,-517.99 294.66,-523.27 310.09,-528"/>
<polygon fill="#63b8ff" stroke="#63b8ff" points="262.17,-509.64 251.59,-510.06 260.12,-516.33 262.17,-509.64"/>
</a>
</g>
</g>
<!-- Node48 -->
<g id="Node000048" class="node">
<title>Node48</title>
<g id="a_Node000048"><a xlink:href="classtracktion_1_1engine_1_1FolderTrack.html" target="_top" xlink:title=" ">
<polygon fill="white" stroke="#666666" points="412.5,-510 307.5,-510 307.5,-480 412.5,-480 412.5,-510"/>
<text text-anchor="start" x="315.5" y="-498" font-family="Helvetica,sans-Serif" font-size="10.00">tracktion::engine::</text>
<text text-anchor="middle" x="360" y="-487" font-family="Helvetica,sans-Serif" font-size="10.00">FolderTrack</text>
</a>
</g>
</g>
<!-- Node41&#45;&gt;Node48 -->
<g id="edge41_Node000041_Node000048" class="edge">
<title>Node41&#45;&gt;Node48</title>
<g id="a_edge41_Node000041_Node000048"><a xlink:title=" ">
<path fill="none" stroke="#63b8ff" d="M264.38,-495C278.63,-495 293.62,-495 307.38,-495"/>
<polygon fill="#63b8ff" stroke="#63b8ff" points="264.18,-491.5 254.18,-495 264.18,-498.5 264.18,-491.5"/>
</a>
</g>
</g>
<!-- Node49 -->
<g id="Node000049" class="node">
<title>Node49</title>
<g id="a_Node000049"><a xlink:href="classtracktion_1_1engine_1_1MasterTrack.html" target="_top" xlink:title="A track to represent the master plugins.">
<polygon fill="white" stroke="#666666" points="412.5,-462 307.5,-462 307.5,-432 412.5,-432 412.5,-462"/>
<text text-anchor="start" x="315.5" y="-450" font-family="Helvetica,sans-Serif" font-size="10.00">tracktion::engine::</text>
<text text-anchor="middle" x="360" y="-439" font-family="Helvetica,sans-Serif" font-size="10.00">MasterTrack</text>
</a>
</g>
</g>
<!-- Node41&#45;&gt;Node49 -->
<g id="edge42_Node000041_Node000049" class="edge">
<title>Node41&#45;&gt;Node49</title>
<g id="a_edge42_Node000041_Node000049"><a xlink:title=" ">
<path fill="none" stroke="#63b8ff" d="M261.4,-476.93C277.45,-472.01 294.66,-466.73 310.09,-462"/>
<polygon fill="#63b8ff" stroke="#63b8ff" points="260.12,-473.67 251.59,-479.94 262.17,-480.36 260.12,-473.67"/>
</a>
</g>
</g>
<!-- Node50 -->
<g id="Node000050" class="node">
<title>Node50</title>
<g id="a_Node000050"><a xlink:href="classtracktion_1_1engine_1_1TempoTrack.html" target="_top" xlink:title="A track to represent the &quot;global&quot; items such as tempo, key changes etc.">
<polygon fill="white" stroke="#666666" points="412.5,-414 307.5,-414 307.5,-384 412.5,-384 412.5,-414"/>
<text text-anchor="start" x="315.5" y="-402" font-family="Helvetica,sans-Serif" font-size="10.00">tracktion::engine::</text>
<text text-anchor="middle" x="360" y="-391" font-family="Helvetica,sans-Serif" font-size="10.00">TempoTrack</text>
</a>
</g>
</g>
<!-- Node41&#45;&gt;Node50 -->
<g id="edge43_Node000041_Node000050" class="edge">
<title>Node41&#45;&gt;Node50</title>
<g id="a_edge43_Node000041_Node000050"><a xlink:title=" ">
<path fill="none" stroke="#63b8ff" d="M227.15,-473.45C245.71,-457.98 272.28,-437.4 298,-423 303.76,-419.78 310.04,-416.78 316.31,-414.08"/>
<polygon fill="#63b8ff" stroke="#63b8ff" points="224.84,-470.82 219.46,-479.94 229.36,-476.16 224.84,-470.82"/>
</a>
</g>
</g>
<!-- Node52 -->
<g id="Node000052" class="node">
<title>Node52</title>
<g id="a_Node000052"><a xlink:href="classtracktion_1_1engine_1_1Clip.html" target="_top" xlink:title="A clip in an edit.">
<polygon fill="#fff0f0" stroke="red" points="422,-365.5 298,-365.5 298,-346.5 422,-346.5 422,-365.5"/>
<text text-anchor="middle" x="360" y="-353.5" font-family="Helvetica,sans-Serif" font-size="10.00">tracktion::engine::Clip</text>
</a>
</g>
</g>
<!-- Node51&#45;&gt;Node52 -->
<g id="edge45_Node000051_Node000052" class="edge">
<title>Node51&#45;&gt;Node52</title>
<g id="a_edge45_Node000051_Node000052"><a xlink:title=" ">
<path fill="none" stroke="#63b8ff" d="M264.05,-329.91C284.47,-335.52 306.48,-341.57 324.16,-346.43"/>
<polygon fill="#63b8ff" stroke="#63b8ff" points="264.75,-326.47 254.18,-327.2 262.89,-333.22 264.75,-326.47"/>
</a>
</g>
</g>
<!-- Node62 -->
<g id="Node000062" class="node">
<title>Node62</title>
<g id="a_Node000062"><a xlink:href="classtracktion_1_1engine_1_1CollectionClip.html" target="_top" xlink:title=" ">
<polygon fill="white" stroke="#666666" points="412.5,-328 307.5,-328 307.5,-298 412.5,-298 412.5,-328"/>
<text text-anchor="start" x="315.5" y="-316" font-family="Helvetica,sans-Serif" font-size="10.00">tracktion::engine::</text>
<text text-anchor="middle" x="360" y="-305" font-family="Helvetica,sans-Serif" font-size="10.00">CollectionClip</text>
</a>
</g>
</g>
<!-- Node51&#45;&gt;Node62 -->
<g id="edge46_Node000051_Node000062" class="edge">
<title>Node51&#45;&gt;Node62</title>
<g id="a_edge46_Node000051_Node000062"><a xlink:title=" ">
<path fill="none" stroke="#63b8ff" d="M264.38,-313C278.63,-313 293.62,-313 307.38,-313"/>
<polygon fill="#63b8ff" stroke="#63b8ff" points="264.18,-309.5 254.18,-313 264.18,-316.5 264.18,-309.5"/>
</a>
</g>
</g>
<!-- Node63 -->
<g id="Node000063" class="node">
<title>Node63</title>
<g id="a_Node000063"><a xlink:href="classtracktion_1_1engine_1_1PitchSetting.html" target="_top" xlink:title=" ">
<polygon fill="white" stroke="#666666" points="412.5,-280 307.5,-280 307.5,-250 412.5,-250 412.5,-280"/>
<text text-anchor="start" x="315.5" y="-268" font-family="Helvetica,sans-Serif" font-size="10.00">tracktion::engine::</text>
<text text-anchor="middle" x="360" y="-257" font-family="Helvetica,sans-Serif" font-size="10.00">PitchSetting</text>
</a>
</g>
</g>
<!-- Node51&#45;&gt;Node63 -->
<g id="edge47_Node000051_Node000063" class="edge">
<title>Node51&#45;&gt;Node63</title>
<g id="a_edge47_Node000051_Node000063"><a xlink:title=" ">
<path fill="none" stroke="#63b8ff" d="M261.4,-294.93C277.45,-290.01 294.66,-284.73 310.09,-280"/>
<polygon fill="#63b8ff" stroke="#63b8ff" points="260.12,-291.67 251.59,-297.94 262.17,-298.36 260.12,-291.67"/>
</a>
</g>
</g>
<!-- Node64 -->
<g id="Node000064" class="node">
<title>Node64</title>
<g id="a_Node000064"><a xlink:href="classtracktion_1_1engine_1_1TimeSigSetting.html" target="_top" xlink:title=" ">
<polygon fill="white" stroke="#666666" points="412.5,-232 307.5,-232 307.5,-202 412.5,-202 412.5,-232"/>
<text text-anchor="start" x="315.5" y="-220" font-family="Helvetica,sans-Serif" font-size="10.00">tracktion::engine::</text>
<text text-anchor="middle" x="360" y="-209" font-family="Helvetica,sans-Serif" font-size="10.00">TimeSigSetting</text>
</a>
</g>
</g>
<!-- Node51&#45;&gt;Node64 -->
<g id="edge48_Node000051_Node000064" class="edge">
<title>Node51&#45;&gt;Node64</title>
<g id="a_edge48_Node000051_Node000064"><a xlink:title=" ">
<path fill="none" stroke="#63b8ff" d="M227.15,-291.45C245.71,-275.98 272.28,-255.4 298,-241 303.76,-237.78 310.04,-234.78 316.31,-232.08"/>
<polygon fill="#63b8ff" stroke="#63b8ff" points="224.84,-288.82 219.46,-297.94 229.36,-294.16 224.84,-288.82"/>
</a>
</g>
</g>
</g>
</svg>
