<?xml version="1.0" encoding="UTF-8" standalone="no"?>
<!DOCTYPE svg PUBLIC "-//W3C//DTD SVG 1.1//EN"
 "http://www.w3.org/Graphics/SVG/1.1/DTD/svg11.dtd">
<!-- Generated by graphviz version 2.43.0 (0)
 -->
<!-- Title: tracktion_engine::MackieMCU Pages: 1 -->
<svg width="171pt" height="151pt"
 viewBox="0.00 0.00 171.00 151.00" xmlns="http://www.w3.org/2000/svg" xmlns:xlink="http://www.w3.org/1999/xlink">
<g id="graph0" class="graph" transform="scale(1 1) rotate(0) translate(4 147)">
<title>tracktion_engine::MackieMCU</title>
<!-- Node1 -->
<g id="node1" class="node">
<title>Node1</title>
<g id="a_node1"><a xlink:title=" ">
<polygon fill="#bfbfbf" stroke="black" points="0,-0.5 0,-19.5 163,-19.5 163,-0.5 0,-0.5"/>
<text text-anchor="middle" x="81.5" y="-7.5" font-family="Helvetica,sans-Serif" font-size="10.00">tracktion_engine::MackieMCU</text>
</a>
</g>
</g>
<!-- Node2 -->
<g id="node2" class="node">
<title>Node2</title>
<g id="a_node2"><a xlink:href="classtracktion__engine_1_1ControlSurface.html" target="_top" xlink:title="Base class for types of control surface.">
<polygon fill="none" stroke="black" points="11.5,-56.5 11.5,-86.5 151.5,-86.5 151.5,-56.5 11.5,-56.5"/>
<text text-anchor="start" x="19.5" y="-74.5" font-family="Helvetica,sans-Serif" font-size="10.00">tracktion_engine::Control</text>
<text text-anchor="middle" x="81.5" y="-63.5" font-family="Helvetica,sans-Serif" font-size="10.00">Surface</text>
</a>
</g>
</g>
<!-- Node2&#45;&gt;Node1 -->
<g id="edge1" class="edge">
<title>Node2&#45;&gt;Node1</title>
<path fill="none" stroke="midnightblue" d="M81.5,-46.29C81.5,-36.86 81.5,-26.65 81.5,-19.66"/>
<polygon fill="midnightblue" stroke="midnightblue" points="78,-46.4 81.5,-56.4 85,-46.4 78,-46.4"/>
</g>
<!-- Node3 -->
<g id="node3" class="node">
<title>Node3</title>
<g id="a_node3"><a xlink:href="classtracktion__engine_1_1Selectable.html" target="_top" xlink:title="Base class for things that can be selected, and whose properties can appear in the properties panel.">
<polygon fill="none" stroke="black" points="4,-123.5 4,-142.5 159,-142.5 159,-123.5 4,-123.5"/>
<text text-anchor="middle" x="81.5" y="-130.5" font-family="Helvetica,sans-Serif" font-size="10.00">tracktion_engine::Selectable</text>
</a>
</g>
</g>
<!-- Node3&#45;&gt;Node2 -->
<g id="edge2" class="edge">
<title>Node3&#45;&gt;Node2</title>
<path fill="none" stroke="midnightblue" d="M81.5,-113.23C81.5,-104.59 81.5,-94.5 81.5,-86.52"/>
<polygon fill="midnightblue" stroke="midnightblue" points="78,-113.48 81.5,-123.48 85,-113.48 78,-113.48"/>
</g>
</g>
</svg>
