<?xml version="1.0" encoding="UTF-8" standalone="no"?>
<!DOCTYPE svg PUBLIC "-//W3C//DTD SVG 1.1//EN"
 "http://www.w3.org/Graphics/SVG/1.1/DTD/svg11.dtd">
<!-- Generated by graphviz version 2.43.0 (0)
 -->
<!-- Title: tracktion::engine::MacroParameter Pages: 1 -->
<svg width="420pt" height="98pt"
 viewBox="0.00 0.00 420.00 97.50" xmlns="http://www.w3.org/2000/svg" xmlns:xlink="http://www.w3.org/1999/xlink">
<g id="graph0" class="graph" transform="scale(1 1) rotate(0) translate(4 93.5)">
<title>tracktion::engine::MacroParameter</title>
<!-- Node1 -->
<g id="Node000001" class="node">
<title>Node1</title>
<g id="a_Node000001"><a xlink:title="A MacroParameter is an AutomatableParameter which is a collection of Mappings.">
<polygon fill="#999999" stroke="#666666" points="412,-62.5 307,-62.5 307,-32.5 412,-32.5 412,-62.5"/>
<text text-anchor="start" x="315" y="-50.5" font-family="Helvetica,sans-Serif" font-size="10.00">tracktion::engine::</text>
<text text-anchor="middle" x="359.5" y="-39.5" font-family="Helvetica,sans-Serif" font-size="10.00">MacroParameter</text>
</a>
</g>
</g>
<!-- Node2 -->
<g id="Node000002" class="node">
<title>Node2</title>
<g id="a_Node000002"><a xlink:href="classtracktion_1_1engine_1_1AutomatableParameter.html" target="_top" xlink:title=" ">
<polygon fill="white" stroke="#666666" points="271,-89.5 141,-89.5 141,-59.5 271,-59.5 271,-89.5"/>
<text text-anchor="start" x="149" y="-77.5" font-family="Helvetica,sans-Serif" font-size="10.00">tracktion::engine::</text>
<text text-anchor="middle" x="206" y="-66.5" font-family="Helvetica,sans-Serif" font-size="10.00">AutomatableParameter</text>
</a>
</g>
</g>
<!-- Node2&#45;&gt;Node1 -->
<g id="edge1_Node000001_Node000002" class="edge">
<title>Node2&#45;&gt;Node1</title>
<g id="a_edge1_Node000001_Node000002"><a xlink:title=" ">
<path fill="none" stroke="#63b8ff" d="M281.25,-61.27C289.8,-59.74 298.37,-58.22 306.54,-56.76"/>
<polygon fill="#63b8ff" stroke="#63b8ff" points="280.48,-57.85 271.25,-63.05 281.71,-64.74 280.48,-57.85"/>
</a>
</g>
</g>
<!-- Node3 -->
<g id="Node000003" class="node">
<title>Node3</title>
<g id="a_Node000003"><a xlink:href="classtracktion_1_1engine_1_1Selectable.html" target="_top" xlink:title="Base class for things that can be selected, and whose properties can appear in the properties panel.">
<polygon fill="white" stroke="#666666" points="105,-89.5 0,-89.5 0,-59.5 105,-59.5 105,-89.5"/>
<text text-anchor="start" x="8" y="-77.5" font-family="Helvetica,sans-Serif" font-size="10.00">tracktion::engine::</text>
<text text-anchor="middle" x="52.5" y="-66.5" font-family="Helvetica,sans-Serif" font-size="10.00">Selectable</text>
</a>
</g>
</g>
<!-- Node3&#45;&gt;Node2 -->
<g id="edge2_Node000002_Node000003" class="edge">
<title>Node3&#45;&gt;Node2</title>
<g id="a_edge2_Node000002_Node000003"><a xlink:title=" ">
<path fill="none" stroke="#63b8ff" d="M115.35,-74.5C123.78,-74.5 132.45,-74.5 140.92,-74.5"/>
<polygon fill="#63b8ff" stroke="#63b8ff" points="115.21,-71 105.21,-74.5 115.21,-78 115.21,-71"/>
</a>
</g>
</g>
<!-- Node4 -->
<g id="Node000004" class="node">
<title>Node4</title>
<g id="a_Node000004"><a xlink:href="structtracktion_1_1engine_1_1AutomatableParameter_1_1ModifierSource.html" target="_top" xlink:title="Base class for things that can be used to modify parameters.">
<polygon fill="white" stroke="#666666" points="271,-41 141,-41 141,0 271,0 271,-41"/>
<text text-anchor="start" x="149" y="-29" font-family="Helvetica,sans-Serif" font-size="10.00">tracktion::engine::</text>
<text text-anchor="start" x="149" y="-18" font-family="Helvetica,sans-Serif" font-size="10.00">AutomatableParameter</text>
<text text-anchor="middle" x="206" y="-7" font-family="Helvetica,sans-Serif" font-size="10.00">::ModifierSource</text>
</a>
</g>
</g>
<!-- Node4&#45;&gt;Node1 -->
<g id="edge3_Node000001_Node000004" class="edge">
<title>Node4&#45;&gt;Node1</title>
<g id="a_edge3_Node000001_Node000004"><a xlink:title=" ">
<path fill="none" stroke="#63b8ff" d="M281.25,-33.73C289.8,-35.26 298.37,-36.78 306.54,-38.24"/>
<polygon fill="#63b8ff" stroke="#63b8ff" points="281.71,-30.26 271.25,-31.95 280.48,-37.15 281.71,-30.26"/>
</a>
</g>
</g>
</g>
</svg>
