<?xml version="1.0" encoding="UTF-8" standalone="no"?>
<!DOCTYPE svg PUBLIC "-//W3C//DTD SVG 1.1//EN"
 "http://www.w3.org/Graphics/SVG/1.1/DTD/svg11.dtd">
<!-- Generated by graphviz version 2.43.0 (0)
 -->
<!-- Title: tracktion_engine::AutomatableParameter Pages: 1 -->
<svg width="587pt" height="225pt"
 viewBox="0.00 0.00 587.00 225.00" xmlns="http://www.w3.org/2000/svg" xmlns:xlink="http://www.w3.org/1999/xlink">
<g id="graph0" class="graph" transform="scale(1 1) rotate(0) translate(4 221)">
<title>tracktion_engine::AutomatableParameter</title>
<!-- Node1 -->
<g id="node1" class="node">
<title>Node1</title>
<g id="a_node1"><a xlink:title=" ">
<polygon fill="#bfbfbf" stroke="black" points="191,-93.5 191,-123.5 358,-123.5 358,-93.5 191,-93.5"/>
<text text-anchor="start" x="199" y="-111.5" font-family="Helvetica,sans-Serif" font-size="10.00">tracktion_engine::Automatable</text>
<text text-anchor="middle" x="274.5" y="-100.5" font-family="Helvetica,sans-Serif" font-size="10.00">Parameter</text>
</a>
</g>
</g>
<!-- Node3 -->
<g id="node3" class="node">
<title>Node3</title>
<g id="a_node3"><a xlink:href="structtracktion__engine_1_1DiscreteLabelledParameter.html" target="_top" xlink:title=" ">
<polygon fill="none" stroke="black" points="414,-186.5 414,-216.5 559,-216.5 559,-186.5 414,-186.5"/>
<text text-anchor="start" x="422" y="-204.5" font-family="Helvetica,sans-Serif" font-size="10.00">tracktion_engine::Discrete</text>
<text text-anchor="middle" x="486.5" y="-193.5" font-family="Helvetica,sans-Serif" font-size="10.00">LabelledParameter</text>
</a>
</g>
</g>
<!-- Node1&#45;&gt;Node3 -->
<g id="edge2" class="edge">
<title>Node1&#45;&gt;Node3</title>
<path fill="none" stroke="midnightblue" d="M305.68,-129.16C328.95,-144.31 362.4,-164.44 394,-177.5 402.04,-180.82 410.68,-183.8 419.32,-186.43"/>
<polygon fill="midnightblue" stroke="midnightblue" points="307.56,-126.2 297.28,-123.62 303.7,-132.05 307.56,-126.2"/>
</g>
<!-- Node4 -->
<g id="node4" class="node">
<title>Node4</title>
<g id="a_node4"><a xlink:href="classtracktion__engine_1_1ExternalAutomatableParameter.html" target="_top" xlink:title=" ">
<polygon fill="none" stroke="black" points="414,-137.5 414,-167.5 559,-167.5 559,-137.5 414,-137.5"/>
<text text-anchor="start" x="422" y="-155.5" font-family="Helvetica,sans-Serif" font-size="10.00">tracktion_engine::External</text>
<text text-anchor="middle" x="486.5" y="-144.5" font-family="Helvetica,sans-Serif" font-size="10.00">AutomatableParameter</text>
</a>
</g>
</g>
<!-- Node1&#45;&gt;Node4 -->
<g id="edge3" class="edge">
<title>Node1&#45;&gt;Node4</title>
<path fill="none" stroke="midnightblue" d="M357.14,-125.61C375.83,-129.52 395.55,-133.65 413.78,-137.47"/>
<polygon fill="midnightblue" stroke="midnightblue" points="357.69,-122.14 347.18,-123.52 356.25,-129 357.69,-122.14"/>
</g>
<!-- Node5 -->
<g id="node5" class="node">
<title>Node5</title>
<g id="a_node5"><a xlink:href="classtracktion__engine_1_1MacroParameter.html" target="_top" xlink:title="A MacroParameter is an AutomatableParameter which is a collection of Mappings.">
<polygon fill="none" stroke="black" points="394,-99 394,-118 579,-118 579,-99 394,-99"/>
<text text-anchor="middle" x="486.5" y="-106" font-family="Helvetica,sans-Serif" font-size="10.00">tracktion_engine::MacroParameter</text>
</a>
</g>
</g>
<!-- Node1&#45;&gt;Node5 -->
<g id="edge4" class="edge">
<title>Node1&#45;&gt;Node5</title>
<path fill="none" stroke="midnightblue" d="M368.43,-108.5C376.88,-108.5 385.43,-108.5 393.86,-108.5"/>
<polygon fill="midnightblue" stroke="midnightblue" points="368.2,-105 358.2,-108.5 368.2,-112 368.2,-105"/>
</g>
<!-- Node6 -->
<g id="node6" class="node">
<title>Node6</title>
<g id="a_node6"><a xlink:href="structtracktion__engine_1_1PluginWetDryAutomatableParam.html" target="_top" xlink:title="specialised AutomatableParameter for wet/dry.">
<polygon fill="none" stroke="black" points="413.5,-49.5 413.5,-79.5 559.5,-79.5 559.5,-49.5 413.5,-49.5"/>
<text text-anchor="start" x="421.5" y="-67.5" font-family="Helvetica,sans-Serif" font-size="10.00">tracktion_engine::Plugin</text>
<text text-anchor="middle" x="486.5" y="-56.5" font-family="Helvetica,sans-Serif" font-size="10.00">WetDryAutomatableParam</text>
</a>
</g>
</g>
<!-- Node1&#45;&gt;Node6 -->
<g id="edge5" class="edge">
<title>Node1&#45;&gt;Node6</title>
<path fill="none" stroke="midnightblue" d="M357.14,-91.39C375.83,-87.48 395.55,-83.35 413.78,-79.53"/>
<polygon fill="midnightblue" stroke="midnightblue" points="356.25,-88 347.18,-93.48 357.69,-94.86 356.25,-88"/>
</g>
<!-- Node7 -->
<g id="node7" class="node">
<title>Node7</title>
<g id="a_node7"><a xlink:href="structtracktion__engine_1_1SuffixedParameter.html" target="_top" xlink:title=" ">
<polygon fill="none" stroke="black" points="415,-0.5 415,-30.5 558,-30.5 558,-0.5 415,-0.5"/>
<text text-anchor="start" x="423" y="-18.5" font-family="Helvetica,sans-Serif" font-size="10.00">tracktion_engine::Suffixed</text>
<text text-anchor="middle" x="486.5" y="-7.5" font-family="Helvetica,sans-Serif" font-size="10.00">Parameter</text>
</a>
</g>
</g>
<!-- Node1&#45;&gt;Node7 -->
<g id="edge6" class="edge">
<title>Node1&#45;&gt;Node7</title>
<path fill="none" stroke="midnightblue" d="M305.68,-87.84C328.95,-72.69 362.4,-52.56 394,-39.5 402.04,-36.18 410.68,-33.2 419.32,-30.57"/>
<polygon fill="midnightblue" stroke="midnightblue" points="303.7,-84.95 297.28,-93.38 307.56,-90.8 303.7,-84.95"/>
</g>
<!-- Node2 -->
<g id="node2" class="node">
<title>Node2</title>
<g id="a_node2"><a xlink:href="classtracktion__engine_1_1Selectable.html" target="_top" xlink:title="Base class for things that can be selected, and whose properties can appear in the properties panel.">
<polygon fill="none" stroke="black" points="0,-99 0,-118 155,-118 155,-99 0,-99"/>
<text text-anchor="middle" x="77.5" y="-106" font-family="Helvetica,sans-Serif" font-size="10.00">tracktion_engine::Selectable</text>
</a>
</g>
</g>
<!-- Node2&#45;&gt;Node1 -->
<g id="edge1" class="edge">
<title>Node2&#45;&gt;Node1</title>
<path fill="none" stroke="midnightblue" d="M165.28,-108.5C173.75,-108.5 182.34,-108.5 190.77,-108.5"/>
<polygon fill="midnightblue" stroke="midnightblue" points="165.01,-105 155.01,-108.5 165.01,-112 165.01,-105"/>
</g>
</g>
</svg>
