<?xml version="1.0" encoding="UTF-8" standalone="no"?>
<!DOCTYPE svg PUBLIC "-//W3C//DTD SVG 1.1//EN"
 "http://www.w3.org/Graphics/SVG/1.1/DTD/svg11.dtd">
<!-- Generated by graphviz version 2.43.0 (0)
 -->
<!-- Title: tracktion::engine::ControlSurface Pages: 1 -->
<svg width="578pt" height="326pt"
 viewBox="0.00 0.00 578.00 326.00" xmlns="http://www.w3.org/2000/svg" xmlns:xlink="http://www.w3.org/1999/xlink">
<g id="graph0" class="graph" transform="scale(1 1) rotate(0) translate(4 322)">
<title>tracktion::engine::ControlSurface</title>
<!-- Node1 -->
<g id="Node000001" class="node">
<title>Node1</title>
<g id="a_Node000001"><a xlink:title="Base class for types of control surface.">
<polygon fill="#999999" stroke="#666666" points="246,-174 141,-174 141,-144 246,-144 246,-174"/>
<text text-anchor="start" x="149" y="-162" font-family="Helvetica,sans-Serif" font-size="10.00">tracktion::engine::</text>
<text text-anchor="middle" x="193.5" y="-151" font-family="Helvetica,sans-Serif" font-size="10.00">ControlSurface</text>
</a>
</g>
</g>
<!-- Node3 -->
<g id="Node000003" class="node">
<title>Node3</title>
<g id="a_Node000003"><a xlink:href="classtracktion_1_1engine_1_1AlphaTrackControlSurface.html" target="_top" xlink:title=" ">
<polygon fill="white" stroke="#666666" points="424,-318 282,-318 282,-288 424,-288 424,-318"/>
<text text-anchor="start" x="290" y="-306" font-family="Helvetica,sans-Serif" font-size="10.00">tracktion::engine::</text>
<text text-anchor="middle" x="353" y="-295" font-family="Helvetica,sans-Serif" font-size="10.00">AlphaTrackControlSurface</text>
</a>
</g>
</g>
<!-- Node1&#45;&gt;Node3 -->
<g id="edge2_Node000001_Node000003" class="edge">
<title>Node1&#45;&gt;Node3</title>
<g id="a_edge2_Node000001_Node000003"><a xlink:title=" ">
<path fill="none" stroke="#63b8ff" d="M206.43,-183.38C220.82,-210.4 247.44,-253.51 282,-279 286.65,-282.43 291.83,-285.4 297.21,-287.96"/>
<polygon fill="#63b8ff" stroke="#63b8ff" points="209.39,-181.49 201.69,-174.22 203.17,-184.71 209.39,-181.49"/>
</a>
</g>
</g>
<!-- Node4 -->
<g id="Node000004" class="node">
<title>Node4</title>
<g id="a_Node000004"><a xlink:href="classtracktion_1_1engine_1_1CustomControlSurface.html" target="_top" xlink:title=" ">
<polygon fill="white" stroke="#666666" points="416,-270 290,-270 290,-240 416,-240 416,-270"/>
<text text-anchor="start" x="298" y="-258" font-family="Helvetica,sans-Serif" font-size="10.00">tracktion::engine::</text>
<text text-anchor="middle" x="353" y="-247" font-family="Helvetica,sans-Serif" font-size="10.00">CustomControlSurface</text>
</a>
</g>
</g>
<!-- Node1&#45;&gt;Node4 -->
<g id="edge3_Node000001_Node000004" class="edge">
<title>Node1&#45;&gt;Node4</title>
<g id="a_edge3_Node000001_Node000004"><a xlink:title=" ">
<path fill="none" stroke="#63b8ff" d="M216.97,-181.37C233.72,-197.02 257.79,-217.48 282,-231 287.94,-234.32 294.43,-237.29 300.97,-239.92"/>
<polygon fill="#63b8ff" stroke="#63b8ff" points="219.02,-178.48 209.37,-174.12 214.19,-183.55 219.02,-178.48"/>
</a>
</g>
</g>
<!-- Node5 -->
<g id="Node000005" class="node">
<title>Node5</title>
<g id="a_Node000005"><a xlink:href="classtracktion_1_1engine_1_1MackieC4.html" target="_top" xlink:title=" ">
<polygon fill="white" stroke="#666666" points="405.5,-222 300.5,-222 300.5,-192 405.5,-192 405.5,-222"/>
<text text-anchor="start" x="308.5" y="-210" font-family="Helvetica,sans-Serif" font-size="10.00">tracktion::engine::</text>
<text text-anchor="middle" x="353" y="-199" font-family="Helvetica,sans-Serif" font-size="10.00">MackieC4</text>
</a>
</g>
</g>
<!-- Node1&#45;&gt;Node5 -->
<g id="edge4_Node000001_Node000005" class="edge">
<title>Node1&#45;&gt;Node5</title>
<g id="a_edge4_Node000001_Node000005"><a xlink:title=" ">
<path fill="none" stroke="#63b8ff" d="M253.78,-177.07C269.93,-181.99 287.25,-187.27 302.77,-192"/>
<polygon fill="#63b8ff" stroke="#63b8ff" points="254.49,-173.62 243.9,-174.06 252.45,-180.32 254.49,-173.62"/>
</a>
</g>
</g>
<!-- Node6 -->
<g id="Node000006" class="node">
<title>Node6</title>
<g id="a_Node000006"><a xlink:href="classtracktion_1_1engine_1_1MackieMCU.html" target="_top" xlink:title=" ">
<polygon fill="white" stroke="#666666" points="405.5,-174 300.5,-174 300.5,-144 405.5,-144 405.5,-174"/>
<text text-anchor="start" x="308.5" y="-162" font-family="Helvetica,sans-Serif" font-size="10.00">tracktion::engine::</text>
<text text-anchor="middle" x="353" y="-151" font-family="Helvetica,sans-Serif" font-size="10.00">MackieMCU</text>
</a>
</g>
</g>
<!-- Node1&#45;&gt;Node6 -->
<g id="edge5_Node000001_Node000006" class="edge">
<title>Node1&#45;&gt;Node6</title>
<g id="a_edge5_Node000001_Node000006"><a xlink:title=" ">
<path fill="none" stroke="#63b8ff" d="M256.47,-159C270.99,-159 286.3,-159 300.31,-159"/>
<polygon fill="#63b8ff" stroke="#63b8ff" points="256.07,-155.5 246.07,-159 256.07,-162.5 256.07,-155.5"/>
</a>
</g>
</g>
<!-- Node8 -->
<g id="Node000008" class="node">
<title>Node8</title>
<g id="a_Node000008"><a xlink:href="classtracktion_1_1engine_1_1MackieXT.html" target="_top" xlink:title=" ">
<polygon fill="white" stroke="#666666" points="405.5,-126 300.5,-126 300.5,-96 405.5,-96 405.5,-126"/>
<text text-anchor="start" x="308.5" y="-114" font-family="Helvetica,sans-Serif" font-size="10.00">tracktion::engine::</text>
<text text-anchor="middle" x="353" y="-103" font-family="Helvetica,sans-Serif" font-size="10.00">MackieXT</text>
</a>
</g>
</g>
<!-- Node1&#45;&gt;Node8 -->
<g id="edge7_Node000001_Node000008" class="edge">
<title>Node1&#45;&gt;Node8</title>
<g id="a_edge7_Node000001_Node000008"><a xlink:title=" ">
<path fill="none" stroke="#63b8ff" d="M253.78,-140.93C269.93,-136.01 287.25,-130.73 302.77,-126"/>
<polygon fill="#63b8ff" stroke="#63b8ff" points="252.45,-137.68 243.9,-143.94 254.49,-144.38 252.45,-137.68"/>
</a>
</g>
</g>
<!-- Node9 -->
<g id="Node000009" class="node">
<title>Node9</title>
<g id="a_Node000009"><a xlink:href="classtracktion_1_1engine_1_1NovationRemoteSl.html" target="_top" xlink:title=" ">
<polygon fill="white" stroke="#666666" points="407,-78 299,-78 299,-48 407,-48 407,-78"/>
<text text-anchor="start" x="307" y="-66" font-family="Helvetica,sans-Serif" font-size="10.00">tracktion::engine::</text>
<text text-anchor="middle" x="353" y="-55" font-family="Helvetica,sans-Serif" font-size="10.00">NovationRemoteSl</text>
</a>
</g>
</g>
<!-- Node1&#45;&gt;Node9 -->
<g id="edge8_Node000001_Node000009" class="edge">
<title>Node1&#45;&gt;Node9</title>
<g id="a_edge8_Node000001_Node000009"><a xlink:title=" ">
<path fill="none" stroke="#63b8ff" d="M216.97,-136.63C233.72,-120.98 257.79,-100.52 282,-87 287.94,-83.68 294.43,-80.71 300.97,-78.08"/>
<polygon fill="#63b8ff" stroke="#63b8ff" points="214.19,-134.45 209.37,-143.88 219.02,-139.52 214.19,-134.45"/>
</a>
</g>
</g>
<!-- Node11 -->
<g id="Node000011" class="node">
<title>Node11</title>
<g id="a_Node000011"><a xlink:href="classtracktion_1_1engine_1_1TranzportControlSurface.html" target="_top" xlink:title=" ">
<polygon fill="white" stroke="#666666" points="420,-30 286,-30 286,0 420,0 420,-30"/>
<text text-anchor="start" x="294" y="-18" font-family="Helvetica,sans-Serif" font-size="10.00">tracktion::engine::</text>
<text text-anchor="middle" x="353" y="-7" font-family="Helvetica,sans-Serif" font-size="10.00">TranzportControlSurface</text>
</a>
</g>
</g>
<!-- Node1&#45;&gt;Node11 -->
<g id="edge10_Node000001_Node000011" class="edge">
<title>Node1&#45;&gt;Node11</title>
<g id="a_edge10_Node000001_Node000011"><a xlink:title=" ">
<path fill="none" stroke="#63b8ff" d="M206.43,-134.62C220.82,-107.6 247.44,-64.49 282,-39 286.65,-35.57 291.83,-32.6 297.21,-30.04"/>
<polygon fill="#63b8ff" stroke="#63b8ff" points="203.17,-133.29 201.69,-143.78 209.39,-136.51 203.17,-133.29"/>
</a>
</g>
</g>
<!-- Node2 -->
<g id="Node000002" class="node">
<title>Node2</title>
<g id="a_Node000002"><a xlink:href="classtracktion_1_1engine_1_1Selectable.html" target="_top" xlink:title="Base class for things that can be selected, and whose properties can appear in the properties panel.">
<polygon fill="white" stroke="#666666" points="105,-174 0,-174 0,-144 105,-144 105,-174"/>
<text text-anchor="start" x="8" y="-162" font-family="Helvetica,sans-Serif" font-size="10.00">tracktion::engine::</text>
<text text-anchor="middle" x="52.5" y="-151" font-family="Helvetica,sans-Serif" font-size="10.00">Selectable</text>
</a>
</g>
</g>
<!-- Node2&#45;&gt;Node1 -->
<g id="edge1_Node000001_Node000002" class="edge">
<title>Node2&#45;&gt;Node1</title>
<g id="a_edge1_Node000001_Node000002"><a xlink:title=" ">
<path fill="none" stroke="#63b8ff" d="M115.44,-159C123.88,-159 132.47,-159 140.7,-159"/>
<polygon fill="#63b8ff" stroke="#63b8ff" points="115.26,-155.5 105.26,-159 115.26,-162.5 115.26,-155.5"/>
</a>
</g>
</g>
<!-- Node7 -->
<g id="Node000007" class="node">
<title>Node7</title>
<g id="a_Node000007"><a xlink:href="classtracktion_1_1engine_1_1IconProG2.html" target="_top" xlink:title=" ">
<polygon fill="white" stroke="#666666" points="567.5,-174 462.5,-174 462.5,-144 567.5,-144 567.5,-174"/>
<text text-anchor="start" x="470.5" y="-162" font-family="Helvetica,sans-Serif" font-size="10.00">tracktion::engine::</text>
<text text-anchor="middle" x="515" y="-151" font-family="Helvetica,sans-Serif" font-size="10.00">IconProG2</text>
</a>
</g>
</g>
<!-- Node6&#45;&gt;Node7 -->
<g id="edge6_Node000006_Node000007" class="edge">
<title>Node6&#45;&gt;Node7</title>
<g id="a_edge6_Node000006_Node000007"><a xlink:title=" ">
<path fill="none" stroke="#63b8ff" d="M415.94,-159C431.27,-159 447.53,-159 462.32,-159"/>
<polygon fill="#63b8ff" stroke="#63b8ff" points="415.51,-155.5 405.51,-159 415.51,-162.5 415.51,-155.5"/>
</a>
</g>
</g>
<!-- Node10 -->
<g id="Node000010" class="node">
<title>Node10</title>
<g id="a_Node000010"><a xlink:href="classtracktion_1_1engine_1_1RemoteSLCompact.html" target="_top" xlink:title=" ">
<polygon fill="white" stroke="#666666" points="570,-78 460,-78 460,-48 570,-48 570,-78"/>
<text text-anchor="start" x="468" y="-66" font-family="Helvetica,sans-Serif" font-size="10.00">tracktion::engine::</text>
<text text-anchor="middle" x="515" y="-55" font-family="Helvetica,sans-Serif" font-size="10.00">RemoteSLCompact</text>
</a>
</g>
</g>
<!-- Node9&#45;&gt;Node10 -->
<g id="edge9_Node000009_Node000010" class="edge">
<title>Node9&#45;&gt;Node10</title>
<g id="a_edge9_Node000009_Node000010"><a xlink:title=" ">
<path fill="none" stroke="#63b8ff" d="M417.36,-63C431.43,-63 446.21,-63 459.86,-63"/>
<polygon fill="#63b8ff" stroke="#63b8ff" points="417.28,-59.5 407.28,-63 417.28,-66.5 417.28,-59.5"/>
</a>
</g>
</g>
</g>
</svg>
