<?xml version="1.0" encoding="UTF-8" standalone="no"?>
<!DOCTYPE svg PUBLIC "-//W3C//DTD SVG 1.1//EN"
 "http://www.w3.org/Graphics/SVG/1.1/DTD/svg11.dtd">
<!-- Generated by graphviz version 2.40.1 (20161225.0304)
 -->
<!-- Title: tracktion_engine::AutomatableEditItem Pages: 1 -->
<svg width="736pt" height="1498pt"
 viewBox="0.00 0.00 736.00 1498.00" xmlns="http://www.w3.org/2000/svg" xmlns:xlink="http://www.w3.org/1999/xlink">
<g id="graph0" class="graph" transform="scale(1 1) rotate(0) translate(4 1494)">
<title>tracktion_engine::AutomatableEditItem</title>
<!-- Node0 -->
<g id="node1" class="node">
<title>Node0</title>
<polygon fill="#bfbfbf" stroke="#000000" points="167,-1322.5 167,-1352.5 316,-1352.5 316,-1322.5 167,-1322.5"/>
<text text-anchor="start" x="175" y="-1340.5" font-family="Helvetica,sans-Serif" font-size="10.00" fill="#000000">tracktion_engine::Automatable</text>
<text text-anchor="middle" x="241.5" y="-1329.5" font-family="Helvetica,sans-Serif" font-size="10.00" fill="#000000">EditItem</text>
</g>
<!-- Node2 -->
<g id="node3" class="node">
<title>Node2</title>
<g id="a_node3"><a xlink:href="classtracktion__engine_1_1MacroParameterList.html" target="_top" xlink:title="tracktion_engine::MacroParameterList">
<polygon fill="none" stroke="#000000" points="352,-1366 352,-1385 534,-1385 534,-1366 352,-1366"/>
<text text-anchor="middle" x="443" y="-1373" font-family="Helvetica,sans-Serif" font-size="10.00" fill="#000000">tracktion_engine::MacroParameterList</text>
</a>
</g>
</g>
<!-- Node0&#45;&gt;Node2 -->
<g id="edge2" class="edge">
<title>Node0&#45;&gt;Node2</title>
<path fill="none" stroke="#191970" d="M326.1799,-1353.4694C348.7568,-1357.7271 372.4388,-1362.1932 392.5324,-1365.9825"/>
<polygon fill="#191970" stroke="#191970" points="326.7202,-1350.0097 316.2448,-1351.5958 325.423,-1356.8884 326.7202,-1350.0097"/>
</g>
<!-- Node3 -->
<g id="node4" class="node">
<title>Node3</title>
<g id="a_node4"><a xlink:href="structtracktion__engine_1_1Modifier.html" target="_top" xlink:title="tracktion_engine::Modifier">
<polygon fill="none" stroke="#000000" points="379,-1328 379,-1347 507,-1347 507,-1328 379,-1328"/>
<text text-anchor="middle" x="443" y="-1335" font-family="Helvetica,sans-Serif" font-size="10.00" fill="#000000">tracktion_engine::Modifier</text>
</a>
</g>
</g>
<!-- Node0&#45;&gt;Node3 -->
<g id="edge3" class="edge">
<title>Node0&#45;&gt;Node3</title>
<path fill="none" stroke="#191970" d="M326.4971,-1337.5C344.0667,-1337.5 362.2916,-1337.5 378.963,-1337.5"/>
<polygon fill="#191970" stroke="#191970" points="326.2448,-1334.0001 316.2448,-1337.5 326.2448,-1341.0001 326.2448,-1334.0001"/>
</g>
<!-- Node10 -->
<g id="node11" class="node">
<title>Node10</title>
<g id="a_node11"><a xlink:href="classtracktion__engine_1_1Plugin.html" target="_top" xlink:title="tracktion_engine::Plugin">
<polygon fill="none" stroke="#000000" points="382.5,-613 382.5,-632 503.5,-632 503.5,-613 382.5,-613"/>
<text text-anchor="middle" x="443" y="-620" font-family="Helvetica,sans-Serif" font-size="10.00" fill="#000000">tracktion_engine::Plugin</text>
</a>
</g>
</g>
<!-- Node0&#45;&gt;Node10 -->
<g id="edge10" class="edge">
<title>Node0&#45;&gt;Node10</title>
<path fill="none" stroke="#191970" d="M248.571,-1312.4095C281.4722,-1195.6632 418.8782,-708.0935 440.2114,-632.3951"/>
<polygon fill="#191970" stroke="#191970" points="245.1456,-1311.6609 245.8018,-1322.2354 251.8832,-1313.5597 245.1456,-1311.6609"/>
</g>
<!-- Node1 -->
<g id="node2" class="node">
<title>Node1</title>
<g id="a_node2"><a xlink:href="classtracktion__engine_1_1EditItem.html" target="_top" xlink:title="Base class for objects that live inside an edit &#45; e.g. ">
<polygon fill="none" stroke="#000000" points="0,-1328 0,-1347 131,-1347 131,-1328 0,-1328"/>
<text text-anchor="middle" x="65.5" y="-1335" font-family="Helvetica,sans-Serif" font-size="10.00" fill="#000000">tracktion_engine::EditItem</text>
</a>
</g>
</g>
<!-- Node1&#45;&gt;Node0 -->
<g id="edge1" class="edge">
<title>Node1&#45;&gt;Node0</title>
<path fill="none" stroke="#191970" d="M141.2406,-1337.5C149.6868,-1337.5 158.2866,-1337.5 166.7206,-1337.5"/>
<polygon fill="#191970" stroke="#191970" points="141.0359,-1334.0001 131.0359,-1337.5 141.0359,-1341.0001 141.0359,-1334.0001"/>
</g>
<!-- Node4 -->
<g id="node5" class="node">
<title>Node4</title>
<g id="a_node5"><a xlink:href="classtracktion__engine_1_1BreakpointOscillatorModifier.html" target="_top" xlink:title="tracktion_engine::Breakpoint\lOscillatorModifier">
<polygon fill="none" stroke="#000000" points="579,-1459.5 579,-1489.5 719,-1489.5 719,-1459.5 579,-1459.5"/>
<text text-anchor="start" x="587" y="-1477.5" font-family="Helvetica,sans-Serif" font-size="10.00" fill="#000000">tracktion_engine::Breakpoint</text>
<text text-anchor="middle" x="649" y="-1466.5" font-family="Helvetica,sans-Serif" font-size="10.00" fill="#000000">OscillatorModifier</text>
</a>
</g>
</g>
<!-- Node3&#45;&gt;Node4 -->
<g id="edge4" class="edge">
<title>Node3&#45;&gt;Node4</title>
<path fill="none" stroke="#191970" d="M517.2251,-1346.1773C523.2917,-1348.8582 529.0006,-1352.2424 534,-1356.5 568.0593,-1385.506 537.2664,-1420.0059 570,-1450.5 573.6709,-1453.9197 577.8147,-1456.853 582.2335,-1459.3689"/>
<polygon fill="#191970" stroke="#191970" points="518.0403,-1342.7454 507.4479,-1342.519 515.5872,-1349.3015 518.0403,-1342.7454"/>
</g>
<!-- Node5 -->
<g id="node6" class="node">
<title>Node5</title>
<g id="a_node6"><a xlink:href="classtracktion__engine_1_1EnvelopeFollowerModifier.html" target="_top" xlink:title="tracktion_engine::Envelope\lFollowerModifier">
<polygon fill="none" stroke="#000000" points="582,-1410.5 582,-1440.5 716,-1440.5 716,-1410.5 582,-1410.5"/>
<text text-anchor="start" x="590" y="-1428.5" font-family="Helvetica,sans-Serif" font-size="10.00" fill="#000000">tracktion_engine::Envelope</text>
<text text-anchor="middle" x="649" y="-1417.5" font-family="Helvetica,sans-Serif" font-size="10.00" fill="#000000">FollowerModifier</text>
</a>
</g>
</g>
<!-- Node3&#45;&gt;Node5 -->
<g id="edge5" class="edge">
<title>Node3&#45;&gt;Node5</title>
<path fill="none" stroke="#191970" d="M516.8395,-1348.3212C522.85,-1350.5621 528.6578,-1353.258 534,-1356.5 555.6006,-1369.6086 549.0862,-1386.3214 570,-1400.5 575.7155,-1404.3748 582.065,-1407.6755 588.6098,-1410.4811"/>
<polygon fill="#191970" stroke="#191970" points="517.8587,-1344.9719 507.2655,-1345.1612 515.6646,-1351.6192 517.8587,-1344.9719"/>
</g>
<!-- Node6 -->
<g id="node7" class="node">
<title>Node6</title>
<g id="a_node7"><a xlink:href="classtracktion__engine_1_1LFOModifier.html" target="_top" xlink:title="tracktion_engine::LFOModifier">
<polygon fill="none" stroke="#000000" points="575.5,-1372 575.5,-1391 722.5,-1391 722.5,-1372 575.5,-1372"/>
<text text-anchor="middle" x="649" y="-1379" font-family="Helvetica,sans-Serif" font-size="10.00" fill="#000000">tracktion_engine::LFOModifier</text>
</a>
</g>
</g>
<!-- Node3&#45;&gt;Node6 -->
<g id="edge6" class="edge">
<title>Node3&#45;&gt;Node6</title>
<path fill="none" stroke="#191970" d="M499.2494,-1349.1689C510.7495,-1351.5758 522.7681,-1354.1066 534,-1356.5 557.6798,-1361.5459 584.0781,-1367.2771 605.6043,-1371.978"/>
<polygon fill="#191970" stroke="#191970" points="499.814,-1345.7114 489.3095,-1347.0922 498.3824,-1352.5634 499.814,-1345.7114"/>
</g>
<!-- Node7 -->
<g id="node8" class="node">
<title>Node7</title>
<g id="a_node8"><a xlink:href="classtracktion__engine_1_1MIDITrackerModifier.html" target="_top" xlink:title="tracktion_engine::MIDITracker\lModifier">
<polygon fill="none" stroke="#000000" points="574.5,-1322.5 574.5,-1352.5 723.5,-1352.5 723.5,-1322.5 574.5,-1322.5"/>
<text text-anchor="start" x="582.5" y="-1340.5" font-family="Helvetica,sans-Serif" font-size="10.00" fill="#000000">tracktion_engine::MIDITracker</text>
<text text-anchor="middle" x="649" y="-1329.5" font-family="Helvetica,sans-Serif" font-size="10.00" fill="#000000">Modifier</text>
</a>
</g>
</g>
<!-- Node3&#45;&gt;Node7 -->
<g id="edge7" class="edge">
<title>Node3&#45;&gt;Node7</title>
<path fill="none" stroke="#191970" d="M517.1891,-1337.5C535.7197,-1337.5 555.6033,-1337.5 574.165,-1337.5"/>
<polygon fill="#191970" stroke="#191970" points="517.0505,-1334.0001 507.0505,-1337.5 517.0504,-1341.0001 517.0505,-1334.0001"/>
</g>
<!-- Node8 -->
<g id="node9" class="node">
<title>Node8</title>
<g id="a_node9"><a xlink:href="classtracktion__engine_1_1RandomModifier.html" target="_top" xlink:title="tracktion_engine::Random\lModifier">
<polygon fill="none" stroke="#000000" points="583.5,-1273.5 583.5,-1303.5 714.5,-1303.5 714.5,-1273.5 583.5,-1273.5"/>
<text text-anchor="start" x="591.5" y="-1291.5" font-family="Helvetica,sans-Serif" font-size="10.00" fill="#000000">tracktion_engine::Random</text>
<text text-anchor="middle" x="649" y="-1280.5" font-family="Helvetica,sans-Serif" font-size="10.00" fill="#000000">Modifier</text>
</a>
</g>
</g>
<!-- Node3&#45;&gt;Node8 -->
<g id="edge8" class="edge">
<title>Node3&#45;&gt;Node8</title>
<path fill="none" stroke="#191970" d="M493.1412,-1325.5732C521.0363,-1318.938 556.027,-1310.6149 585.7834,-1303.537"/>
<polygon fill="#191970" stroke="#191970" points="492.1265,-1322.2168 483.2079,-1327.936 493.7464,-1329.0268 492.1265,-1322.2168"/>
</g>
<!-- Node9 -->
<g id="node10" class="node">
<title>Node9</title>
<g id="a_node10"><a xlink:href="classtracktion__engine_1_1StepModifier.html" target="_top" xlink:title="tracktion_engine::StepModifier">
<polygon fill="none" stroke="#000000" points="574.5,-1235 574.5,-1254 723.5,-1254 723.5,-1235 574.5,-1235"/>
<text text-anchor="middle" x="649" y="-1242" font-family="Helvetica,sans-Serif" font-size="10.00" fill="#000000">tracktion_engine::StepModifier</text>
</a>
</g>
</g>
<!-- Node3&#45;&gt;Node9 -->
<g id="edge9" class="edge">
<title>Node3&#45;&gt;Node9</title>
<path fill="none" stroke="#191970" d="M464.9532,-1322.0219C489.498,-1305.3722 530.943,-1279.1816 570,-1263.5 579.2943,-1259.7683 589.5099,-1256.645 599.4207,-1254.0797"/>
<polygon fill="#191970" stroke="#191970" points="462.6705,-1319.3439 456.4139,-1327.8941 466.6369,-1325.1118 462.6705,-1319.3439"/>
</g>
<!-- Node11 -->
<g id="node12" class="node">
<title>Node11</title>
<g id="a_node12"><a xlink:href="classtracktion__engine_1_1AirWindowsPlugin.html" target="_top" xlink:title="tracktion_engine::AirWindows\lPlugin">
<polygon fill="none" stroke="#000000" points="576,-1185.5 576,-1215.5 722,-1215.5 722,-1185.5 576,-1185.5"/>
<text text-anchor="start" x="584" y="-1203.5" font-family="Helvetica,sans-Serif" font-size="10.00" fill="#000000">tracktion_engine::AirWindows</text>
<text text-anchor="middle" x="649" y="-1192.5" font-family="Helvetica,sans-Serif" font-size="10.00" fill="#000000">Plugin</text>
</a>
</g>
</g>
<!-- Node10&#45;&gt;Node11 -->
<g id="edge11" class="edge">
<title>Node10&#45;&gt;Node11</title>
<path fill="none" stroke="#191970" d="M444.9296,-642.2527C454.0016,-731.272 495.1412,-1094.3391 570,-1175.5 573.5112,-1179.3068 577.5971,-1182.5373 582.0267,-1185.2784"/>
<polygon fill="#191970" stroke="#191970" points="448.3994,-641.7751 443.9213,-632.1732 441.4341,-642.4719 448.3994,-641.7751"/>
</g>
<!-- Node12 -->
<g id="node13" class="node">
<title>Node12</title>
<g id="a_node13"><a xlink:href="classtracktion__engine_1_1AuxReturnPlugin.html" target="_top" xlink:title="tracktion_engine::AuxReturn\lPlugin">
<polygon fill="none" stroke="#000000" points="579,-1136.5 579,-1166.5 719,-1166.5 719,-1136.5 579,-1136.5"/>
<text text-anchor="start" x="587" y="-1154.5" font-family="Helvetica,sans-Serif" font-size="10.00" fill="#000000">tracktion_engine::AuxReturn</text>
<text text-anchor="middle" x="649" y="-1143.5" font-family="Helvetica,sans-Serif" font-size="10.00" fill="#000000">Plugin</text>
</a>
</g>
</g>
<!-- Node10&#45;&gt;Node12 -->
<g id="edge12" class="edge">
<title>Node10&#45;&gt;Node12</title>
<path fill="none" stroke="#191970" d="M445.3816,-642.084C455.9421,-725.8859 501.0832,-1053.3454 570,-1126.5 573.6498,-1130.3743 577.8949,-1133.6508 582.4868,-1136.4216"/>
<polygon fill="#191970" stroke="#191970" points="448.8502,-641.6138 444.1456,-632.1208 441.9035,-642.4756 448.8502,-641.6138"/>
</g>
<!-- Node13 -->
<g id="node14" class="node">
<title>Node13</title>
<g id="a_node14"><a xlink:href="classtracktion__engine_1_1AuxSendPlugin.html" target="_top" xlink:title="tracktion_engine::AuxSend\lPlugin">
<polygon fill="none" stroke="#000000" points="582,-1087.5 582,-1117.5 716,-1117.5 716,-1087.5 582,-1087.5"/>
<text text-anchor="start" x="590" y="-1105.5" font-family="Helvetica,sans-Serif" font-size="10.00" fill="#000000">tracktion_engine::AuxSend</text>
<text text-anchor="middle" x="649" y="-1094.5" font-family="Helvetica,sans-Serif" font-size="10.00" fill="#000000">Plugin</text>
</a>
</g>
</g>
<!-- Node10&#45;&gt;Node13 -->
<g id="edge13" class="edge">
<title>Node10&#45;&gt;Node13</title>
<path fill="none" stroke="#191970" d="M445.9998,-642.4111C458.2892,-721.5169 507.1276,-1012.4338 570,-1077.5 573.6986,-1081.3277 577.9784,-1084.5712 582.594,-1087.3193"/>
<polygon fill="#191970" stroke="#191970" points="449.4291,-641.683 444.4544,-632.3287 442.5099,-642.7436 449.4291,-641.683"/>
</g>
<!-- Node14 -->
<g id="node15" class="node">
<title>Node14</title>
<g id="a_node15"><a xlink:href="classtracktion__engine_1_1ChorusPlugin.html" target="_top" xlink:title="tracktion_engine::Chorus\lPlugin">
<polygon fill="none" stroke="#000000" points="586.5,-1038.5 586.5,-1068.5 711.5,-1068.5 711.5,-1038.5 586.5,-1038.5"/>
<text text-anchor="start" x="594.5" y="-1056.5" font-family="Helvetica,sans-Serif" font-size="10.00" fill="#000000">tracktion_engine::Chorus</text>
<text text-anchor="middle" x="649" y="-1045.5" font-family="Helvetica,sans-Serif" font-size="10.00" fill="#000000">Plugin</text>
</a>
</g>
</g>
<!-- Node10&#45;&gt;Node14 -->
<g id="edge14" class="edge">
<title>Node10&#45;&gt;Node14</title>
<path fill="none" stroke="#191970" d="M446.7452,-642.5863C460.8808,-716.4108 513.0882,-971.399 570,-1028.5 574.6714,-1033.187 580.2148,-1036.9967 586.1659,-1040.0932"/>
<polygon fill="#191970" stroke="#191970" points="450.1068,-641.5263 444.8086,-632.3514 443.2289,-642.8278 450.1068,-641.5263"/>
</g>
<!-- Node15 -->
<g id="node16" class="node">
<title>Node15</title>
<g id="a_node16"><a xlink:href="classtracktion__engine_1_1CompressorPlugin.html" target="_top" xlink:title="tracktion_engine::Compressor\lPlugin">
<polygon fill="none" stroke="#000000" points="575.5,-989.5 575.5,-1019.5 722.5,-1019.5 722.5,-989.5 575.5,-989.5"/>
<text text-anchor="start" x="583.5" y="-1007.5" font-family="Helvetica,sans-Serif" font-size="10.00" fill="#000000">tracktion_engine::Compressor</text>
<text text-anchor="middle" x="649" y="-996.5" font-family="Helvetica,sans-Serif" font-size="10.00" fill="#000000">Plugin</text>
</a>
</g>
</g>
<!-- Node10&#45;&gt;Node15 -->
<g id="edge15" class="edge">
<title>Node10&#45;&gt;Node15</title>
<path fill="none" stroke="#191970" d="M444.1099,-642.4316C448.5324,-702.3919 469.9412,-882.9121 570,-979.5 574.0365,-983.3965 578.6767,-986.686 583.6428,-989.4631"/>
<polygon fill="#191970" stroke="#191970" points="447.5799,-641.8574 443.4336,-632.1076 440.5949,-642.315 447.5799,-641.8574"/>
</g>
<!-- Node16 -->
<g id="node17" class="node">
<title>Node16</title>
<g id="a_node17"><a xlink:href="classtracktion__engine_1_1DelayPlugin.html" target="_top" xlink:title="tracktion_engine::DelayPlugin">
<polygon fill="none" stroke="#000000" points="576,-951 576,-970 722,-970 722,-951 576,-951"/>
<text text-anchor="middle" x="649" y="-958" font-family="Helvetica,sans-Serif" font-size="10.00" fill="#000000">tracktion_engine::DelayPlugin</text>
</a>
</g>
</g>
<!-- Node10&#45;&gt;Node16 -->
<g id="edge16" class="edge">
<title>Node10&#45;&gt;Node16</title>
<path fill="none" stroke="#191970" d="M444.8087,-642.3413C451.0045,-698.2937 476.4849,-858.5812 570,-940.5 574.8954,-944.7884 580.5822,-948.1813 586.618,-950.8622"/>
<polygon fill="#191970" stroke="#191970" points="448.256,-641.6453 443.7617,-632.051 441.292,-642.3539 448.256,-641.6453"/>
</g>
<!-- Node17 -->
<g id="node18" class="node">
<title>Node17</title>
<g id="a_node18"><a xlink:href="classtracktion__engine_1_1EqualiserPlugin.html" target="_top" xlink:title="tracktion_engine::Equaliser\lPlugin">
<polygon fill="none" stroke="#000000" points="582,-901.5 582,-931.5 716,-931.5 716,-901.5 582,-901.5"/>
<text text-anchor="start" x="590" y="-919.5" font-family="Helvetica,sans-Serif" font-size="10.00" fill="#000000">tracktion_engine::Equaliser</text>
<text text-anchor="middle" x="649" y="-908.5" font-family="Helvetica,sans-Serif" font-size="10.00" fill="#000000">Plugin</text>
</a>
</g>
</g>
<!-- Node10&#45;&gt;Node17 -->
<g id="edge17" class="edge">
<title>Node10&#45;&gt;Node17</title>
<path fill="none" stroke="#191970" d="M446.6852,-642.2952C456.9368,-691.8026 490.4413,-821.9896 570,-891.5 574.4416,-895.3807 579.4869,-898.6596 584.8286,-901.4299"/>
<polygon fill="#191970" stroke="#191970" points="450.0747,-641.393 444.702,-632.2615 443.2075,-642.7504 450.0747,-641.393"/>
</g>
<!-- Node18 -->
<g id="node19" class="node">
<title>Node18</title>
<g id="a_node19"><a xlink:href="classtracktion__engine_1_1ExternalPlugin.html" target="_top" xlink:title="tracktion_engine::External\lPlugin">
<polygon fill="none" stroke="#000000" points="584,-852.5 584,-882.5 714,-882.5 714,-852.5 584,-852.5"/>
<text text-anchor="start" x="592" y="-870.5" font-family="Helvetica,sans-Serif" font-size="10.00" fill="#000000">tracktion_engine::External</text>
<text text-anchor="middle" x="649" y="-859.5" font-family="Helvetica,sans-Serif" font-size="10.00" fill="#000000">Plugin</text>
</a>
</g>
</g>
<!-- Node10&#45;&gt;Node18 -->
<g id="edge18" class="edge">
<title>Node10&#45;&gt;Node18</title>
<path fill="none" stroke="#191970" d="M448.7799,-641.7864C462.5503,-684.4411 501.3718,-787.3574 570,-842.5 574.8221,-846.3745 580.2531,-849.6528 585.9525,-852.4258"/>
<polygon fill="#191970" stroke="#191970" points="452.073,-640.5898 445.7502,-632.0884 445.3915,-642.6772 452.073,-640.5898"/>
</g>
<!-- Node19 -->
<g id="node20" class="node">
<title>Node19</title>
<g id="a_node20"><a xlink:href="classtracktion__engine_1_1FourOscPlugin.html" target="_top" xlink:title="tracktion_engine::FourOsc\lPlugin">
<polygon fill="none" stroke="#000000" points="583.5,-803.5 583.5,-833.5 714.5,-833.5 714.5,-803.5 583.5,-803.5"/>
<text text-anchor="start" x="591.5" y="-821.5" font-family="Helvetica,sans-Serif" font-size="10.00" fill="#000000">tracktion_engine::FourOsc</text>
<text text-anchor="middle" x="649" y="-810.5" font-family="Helvetica,sans-Serif" font-size="10.00" fill="#000000">Plugin</text>
</a>
</g>
</g>
<!-- Node10&#45;&gt;Node19 -->
<g id="edge19" class="edge">
<title>Node10&#45;&gt;Node19</title>
<path fill="none" stroke="#191970" d="M451.9911,-641.4683C469.6347,-676.6737 512.1696,-752.2809 570,-793.5 575.3887,-797.3408 581.3915,-800.6086 587.6138,-803.3851"/>
<polygon fill="#191970" stroke="#191970" points="455.042,-639.7398 447.5031,-632.2956 448.7542,-642.8163 455.042,-639.7398"/>
</g>
<!-- Node20 -->
<g id="node21" class="node">
<title>Node20</title>
<g id="a_node21"><a xlink:href="classtracktion__engine_1_1FreezePointPlugin.html" target="_top" xlink:title="tracktion_engine::Freeze\lPointPlugin">
<polygon fill="none" stroke="#000000" points="587,-754.5 587,-784.5 711,-784.5 711,-754.5 587,-754.5"/>
<text text-anchor="start" x="595" y="-772.5" font-family="Helvetica,sans-Serif" font-size="10.00" fill="#000000">tracktion_engine::Freeze</text>
<text text-anchor="middle" x="649" y="-761.5" font-family="Helvetica,sans-Serif" font-size="10.00" fill="#000000">PointPlugin</text>
</a>
</g>
</g>
<!-- Node10&#45;&gt;Node20 -->
<g id="edge20" class="edge">
<title>Node10&#45;&gt;Node20</title>
<path fill="none" stroke="#191970" d="M456.8902,-640.2907C478.4,-666.6923 522.2921,-716.1675 570,-744.5 576.4318,-748.3197 583.5102,-751.6191 590.7072,-754.4521"/>
<polygon fill="#191970" stroke="#191970" points="459.4628,-637.9039 450.4804,-632.2855 453.9986,-642.2792 459.4628,-637.9039"/>
</g>
<!-- Node21 -->
<g id="node22" class="node">
<title>Node21</title>
<g id="a_node22"><a xlink:href="classtracktion__engine_1_1InsertPlugin.html" target="_top" xlink:title="tracktion_engine::Insert\lPlugin">
<polygon fill="none" stroke="#000000" points="589.5,-705.5 589.5,-735.5 708.5,-735.5 708.5,-705.5 589.5,-705.5"/>
<text text-anchor="start" x="597.5" y="-723.5" font-family="Helvetica,sans-Serif" font-size="10.00" fill="#000000">tracktion_engine::Insert</text>
<text text-anchor="middle" x="649" y="-712.5" font-family="Helvetica,sans-Serif" font-size="10.00" fill="#000000">Plugin</text>
</a>
</g>
</g>
<!-- Node10&#45;&gt;Node21 -->
<g id="edge21" class="edge">
<title>Node10&#45;&gt;Node21</title>
<path fill="none" stroke="#191970" d="M466.0076,-637.753C490.861,-653.7388 532.0137,-678.8051 570,-695.5 578.1653,-699.0886 587.0093,-702.4054 595.7242,-705.3715"/>
<polygon fill="#191970" stroke="#191970" points="467.613,-634.6221 457.3209,-632.1072 463.7983,-640.4914 467.613,-634.6221"/>
</g>
<!-- Node22 -->
<g id="node23" class="node">
<title>Node22</title>
<g id="a_node23"><a xlink:href="classtracktion__engine_1_1LatencyPlugin.html" target="_top" xlink:title="A test plugin that introduces latency to the incomming signal. ">
<polygon fill="none" stroke="#000000" points="585,-656.5 585,-686.5 713,-686.5 713,-656.5 585,-656.5"/>
<text text-anchor="start" x="593" y="-674.5" font-family="Helvetica,sans-Serif" font-size="10.00" fill="#000000">tracktion_engine::Latency</text>
<text text-anchor="middle" x="649" y="-663.5" font-family="Helvetica,sans-Serif" font-size="10.00" fill="#000000">Plugin</text>
</a>
</g>
</g>
<!-- Node10&#45;&gt;Node22 -->
<g id="edge22" class="edge">
<title>Node10&#45;&gt;Node22</title>
<path fill="none" stroke="#191970" d="M493.1412,-634.4268C521.0363,-641.062 556.027,-649.3851 585.7834,-656.463"/>
<polygon fill="#191970" stroke="#191970" points="493.7464,-630.9732 483.2079,-632.064 492.1265,-637.7832 493.7464,-630.9732"/>
</g>
<!-- Node23 -->
<g id="node24" class="node">
<title>Node23</title>
<g id="a_node24"><a xlink:href="classtracktion__engine_1_1LevelMeterPlugin.html" target="_top" xlink:title="tracktion_engine::LevelMeter\lPlugin">
<polygon fill="none" stroke="#000000" points="578,-607.5 578,-637.5 720,-637.5 720,-607.5 578,-607.5"/>
<text text-anchor="start" x="586" y="-625.5" font-family="Helvetica,sans-Serif" font-size="10.00" fill="#000000">tracktion_engine::LevelMeter</text>
<text text-anchor="middle" x="649" y="-614.5" font-family="Helvetica,sans-Serif" font-size="10.00" fill="#000000">Plugin</text>
</a>
</g>
</g>
<!-- Node10&#45;&gt;Node23 -->
<g id="edge23" class="edge">
<title>Node10&#45;&gt;Node23</title>
<path fill="none" stroke="#191970" d="M513.6959,-622.5C534.4252,-622.5 557.0969,-622.5 577.8541,-622.5"/>
<polygon fill="#191970" stroke="#191970" points="513.6926,-619.0001 503.6926,-622.5 513.6926,-626.0001 513.6926,-619.0001"/>
</g>
<!-- Node24 -->
<g id="node25" class="node">
<title>Node24</title>
<g id="a_node25"><a xlink:href="classtracktion__engine_1_1LowPassPlugin.html" target="_top" xlink:title="tracktion_engine::LowPass\lPlugin">
<polygon fill="none" stroke="#000000" points="582,-558.5 582,-588.5 716,-588.5 716,-558.5 582,-558.5"/>
<text text-anchor="start" x="590" y="-576.5" font-family="Helvetica,sans-Serif" font-size="10.00" fill="#000000">tracktion_engine::LowPass</text>
<text text-anchor="middle" x="649" y="-565.5" font-family="Helvetica,sans-Serif" font-size="10.00" fill="#000000">Plugin</text>
</a>
</g>
</g>
<!-- Node10&#45;&gt;Node24 -->
<g id="edge24" class="edge">
<title>Node10&#45;&gt;Node24</title>
<path fill="none" stroke="#191970" d="M493.1412,-610.5732C521.0363,-603.938 556.027,-595.6149 585.7834,-588.537"/>
<polygon fill="#191970" stroke="#191970" points="492.1265,-607.2168 483.2079,-612.936 493.7464,-614.0268 492.1265,-607.2168"/>
</g>
<!-- Node25 -->
<g id="node26" class="node">
<title>Node25</title>
<g id="a_node26"><a xlink:href="classtracktion__engine_1_1MidiModifierPlugin.html" target="_top" xlink:title="tracktion_engine::MidiModifier\lPlugin">
<polygon fill="none" stroke="#000000" points="576,-509.5 576,-539.5 722,-539.5 722,-509.5 576,-509.5"/>
<text text-anchor="start" x="584" y="-527.5" font-family="Helvetica,sans-Serif" font-size="10.00" fill="#000000">tracktion_engine::MidiModifier</text>
<text text-anchor="middle" x="649" y="-516.5" font-family="Helvetica,sans-Serif" font-size="10.00" fill="#000000">Plugin</text>
</a>
</g>
</g>
<!-- Node10&#45;&gt;Node25 -->
<g id="edge25" class="edge">
<title>Node10&#45;&gt;Node25</title>
<path fill="none" stroke="#191970" d="M465.5349,-607.1928C490.2857,-590.908 531.6292,-565.2347 570,-548.5 577.4892,-545.2337 585.5599,-542.2321 593.5818,-539.5393"/>
<polygon fill="#191970" stroke="#191970" points="463.2892,-604.483 456.9022,-612.9362 467.1666,-610.311 463.2892,-604.483"/>
</g>
<!-- Node26 -->
<g id="node27" class="node">
<title>Node26</title>
<g id="a_node27"><a xlink:href="classtracktion__engine_1_1MidiPatchBayPlugin.html" target="_top" xlink:title="tracktion_engine::MidiPatch\lBayPlugin">
<polygon fill="none" stroke="#000000" points="580.5,-460.5 580.5,-490.5 717.5,-490.5 717.5,-460.5 580.5,-460.5"/>
<text text-anchor="start" x="588.5" y="-478.5" font-family="Helvetica,sans-Serif" font-size="10.00" fill="#000000">tracktion_engine::MidiPatch</text>
<text text-anchor="middle" x="649" y="-467.5" font-family="Helvetica,sans-Serif" font-size="10.00" fill="#000000">BayPlugin</text>
</a>
</g>
</g>
<!-- Node10&#45;&gt;Node26 -->
<g id="edge26" class="edge">
<title>Node10&#45;&gt;Node26</title>
<path fill="none" stroke="#191970" d="M456.4991,-604.8824C477.7956,-578.2666 521.7605,-527.905 570,-499.5 575.8054,-496.0816 582.142,-493.1094 588.619,-490.5348"/>
<polygon fill="#191970" stroke="#191970" points="453.5999,-602.9071 450.1724,-612.9323 459.1035,-607.2327 453.5999,-602.9071"/>
</g>
<!-- Node27 -->
<g id="node28" class="node">
<title>Node27</title>
<g id="a_node28"><a xlink:href="classtracktion__engine_1_1PatchBayPlugin.html" target="_top" xlink:title="tracktion_engine::PatchBay\lPlugin">
<polygon fill="none" stroke="#000000" points="580.5,-411.5 580.5,-441.5 717.5,-441.5 717.5,-411.5 580.5,-411.5"/>
<text text-anchor="start" x="588.5" y="-429.5" font-family="Helvetica,sans-Serif" font-size="10.00" fill="#000000">tracktion_engine::PatchBay</text>
<text text-anchor="middle" x="649" y="-418.5" font-family="Helvetica,sans-Serif" font-size="10.00" fill="#000000">Plugin</text>
</a>
</g>
</g>
<!-- Node10&#45;&gt;Node27 -->
<g id="edge27" class="edge">
<title>Node10&#45;&gt;Node27</title>
<path fill="none" stroke="#191970" d="M451.9165,-603.3571C469.4355,-567.8395 511.7708,-491.62 570,-450.5 574.8007,-447.1099 580.09,-444.1901 585.5883,-441.6768"/>
<polygon fill="#191970" stroke="#191970" points="448.645,-602.0838 447.4624,-612.6125 454.9527,-605.1193 448.645,-602.0838"/>
</g>
<!-- Node28 -->
<g id="node29" class="node">
<title>Node28</title>
<g id="a_node29"><a xlink:href="classtracktion__engine_1_1PhaserPlugin.html" target="_top" xlink:title="tracktion_engine::Phaser\lPlugin">
<polygon fill="none" stroke="#000000" points="586.5,-362.5 586.5,-392.5 711.5,-392.5 711.5,-362.5 586.5,-362.5"/>
<text text-anchor="start" x="594.5" y="-380.5" font-family="Helvetica,sans-Serif" font-size="10.00" fill="#000000">tracktion_engine::Phaser</text>
<text text-anchor="middle" x="649" y="-369.5" font-family="Helvetica,sans-Serif" font-size="10.00" fill="#000000">Plugin</text>
</a>
</g>
</g>
<!-- Node10&#45;&gt;Node28 -->
<g id="edge28" class="edge">
<title>Node10&#45;&gt;Node28</title>
<path fill="none" stroke="#191970" d="M448.7074,-603.0687C462.3308,-560.1042 500.8733,-456.5 570,-401.5 574.9355,-397.5731 580.5081,-394.2872 586.3531,-391.5378"/>
<polygon fill="#191970" stroke="#191970" points="445.2972,-602.2515 445.7124,-612.8382 451.9898,-604.3033 445.2972,-602.2515"/>
</g>
<!-- Node29 -->
<g id="node30" class="node">
<title>Node29</title>
<g id="a_node30"><a xlink:href="classtracktion__engine_1_1PitchShiftPlugin.html" target="_top" xlink:title="tracktion_engine::PitchShift\lPlugin">
<polygon fill="none" stroke="#000000" points="580.5,-313.5 580.5,-343.5 717.5,-343.5 717.5,-313.5 580.5,-313.5"/>
<text text-anchor="start" x="588.5" y="-331.5" font-family="Helvetica,sans-Serif" font-size="10.00" fill="#000000">tracktion_engine::PitchShift</text>
<text text-anchor="middle" x="649" y="-320.5" font-family="Helvetica,sans-Serif" font-size="10.00" fill="#000000">Plugin</text>
</a>
</g>
</g>
<!-- Node10&#45;&gt;Node29 -->
<g id="edge29" class="edge">
<title>Node10&#45;&gt;Node29</title>
<path fill="none" stroke="#191970" d="M446.5451,-602.9142C456.5482,-553.3524 489.666,-421.9744 570,-352.5 574.0116,-349.0307 578.5138,-346.0629 583.2811,-343.5241"/>
<polygon fill="#191970" stroke="#191970" points="443.0688,-602.4577 444.6168,-612.9388 449.9428,-603.7799 443.0688,-602.4577"/>
</g>
<!-- Node30 -->
<g id="node31" class="node">
<title>Node30</title>
<g id="a_node31"><a xlink:href="classtracktion__engine_1_1RackInstance.html" target="_top" xlink:title="tracktion_engine::RackInstance">
<polygon fill="none" stroke="#000000" points="571.5,-275 571.5,-294 726.5,-294 726.5,-275 571.5,-275"/>
<text text-anchor="middle" x="649" y="-282" font-family="Helvetica,sans-Serif" font-size="10.00" fill="#000000">tracktion_engine::RackInstance</text>
</a>
</g>
</g>
<!-- Node10&#45;&gt;Node30 -->
<g id="edge30" class="edge">
<title>Node10&#45;&gt;Node30</title>
<path fill="none" stroke="#191970" d="M444.701,-602.8933C450.6445,-546.9428 475.5898,-385.3019 570,-303.5 574.4777,-299.6203 579.6125,-296.5022 585.0684,-294.0003"/>
<polygon fill="#191970" stroke="#191970" points="441.2132,-602.5993 443.7267,-612.8916 448.1802,-603.2782 441.2132,-602.5993"/>
</g>
<!-- Node31 -->
<g id="node32" class="node">
<title>Node31</title>
<g id="a_node32"><a xlink:href="classtracktion__engine_1_1ReverbPlugin.html" target="_top" xlink:title="tracktion_engine::Reverb\lPlugin">
<polygon fill="none" stroke="#000000" points="586.5,-225.5 586.5,-255.5 711.5,-255.5 711.5,-225.5 586.5,-225.5"/>
<text text-anchor="start" x="594.5" y="-243.5" font-family="Helvetica,sans-Serif" font-size="10.00" fill="#000000">tracktion_engine::Reverb</text>
<text text-anchor="middle" x="649" y="-232.5" font-family="Helvetica,sans-Serif" font-size="10.00" fill="#000000">Plugin</text>
</a>
</g>
</g>
<!-- Node10&#45;&gt;Node31 -->
<g id="edge31" class="edge">
<title>Node10&#45;&gt;Node31</title>
<path fill="none" stroke="#191970" d="M444.1099,-602.5684C448.5324,-542.6081 469.9412,-362.0879 570,-265.5 574.7611,-260.9041 580.3618,-257.1527 586.3468,-254.0906"/>
<polygon fill="#191970" stroke="#191970" points="440.5949,-602.685 443.4336,-612.8924 447.5799,-603.1426 440.5949,-602.685"/>
</g>
<!-- Node32 -->
<g id="node33" class="node">
<title>Node32</title>
<g id="a_node33"><a xlink:href="classtracktion__engine_1_1SamplerPlugin.html" target="_top" xlink:title="tracktion_engine::Sampler\lPlugin">
<polygon fill="none" stroke="#000000" points="584,-176.5 584,-206.5 714,-206.5 714,-176.5 584,-176.5"/>
<text text-anchor="start" x="592" y="-194.5" font-family="Helvetica,sans-Serif" font-size="10.00" fill="#000000">tracktion_engine::Sampler</text>
<text text-anchor="middle" x="649" y="-183.5" font-family="Helvetica,sans-Serif" font-size="10.00" fill="#000000">Plugin</text>
</a>
</g>
</g>
<!-- Node10&#45;&gt;Node32 -->
<g id="edge32" class="edge">
<title>Node10&#45;&gt;Node32</title>
<path fill="none" stroke="#191970" d="M446.6258,-602.8238C460.5264,-529.3762 512.5263,-272.5426 570,-215.5 574.0696,-211.461 578.7961,-208.0982 583.8749,-205.2989"/>
<polygon fill="#191970" stroke="#191970" points="443.1247,-602.5055 444.727,-612.9785 450.0055,-603.7922 443.1247,-602.5055"/>
</g>
<!-- Node33 -->
<g id="node34" class="node">
<title>Node33</title>
<g id="a_node34"><a xlink:href="classtracktion__engine_1_1TextPlugin.html" target="_top" xlink:title="tracktion_engine::TextPlugin">
<polygon fill="none" stroke="#000000" points="579,-138 579,-157 719,-157 719,-138 579,-138"/>
<text text-anchor="middle" x="649" y="-145" font-family="Helvetica,sans-Serif" font-size="10.00" fill="#000000">tracktion_engine::TextPlugin</text>
</a>
</g>
</g>
<!-- Node10&#45;&gt;Node33 -->
<g id="edge33" class="edge">
<title>Node10&#45;&gt;Node33</title>
<path fill="none" stroke="#191970" d="M445.7885,-602.9303C457.4318,-523.9112 504.6189,-229.5939 570,-166.5 573.9588,-162.6797 578.5448,-159.5825 583.4752,-157.0766"/>
<polygon fill="#191970" stroke="#191970" points="442.3036,-602.5744 444.3306,-612.9735 449.231,-603.58 442.3036,-602.5744"/>
</g>
<!-- Node34 -->
<g id="node35" class="node">
<title>Node34</title>
<g id="a_node35"><a xlink:href="classtracktion__engine_1_1ToneGeneratorPlugin.html" target="_top" xlink:title="tracktion_engine::ToneGenerator\lPlugin">
<polygon fill="none" stroke="#000000" points="570,-88.5 570,-118.5 728,-118.5 728,-88.5 570,-88.5"/>
<text text-anchor="start" x="578" y="-106.5" font-family="Helvetica,sans-Serif" font-size="10.00" fill="#000000">tracktion_engine::ToneGenerator</text>
<text text-anchor="middle" x="649" y="-95.5" font-family="Helvetica,sans-Serif" font-size="10.00" fill="#000000">Plugin</text>
</a>
</g>
</g>
<!-- Node10&#45;&gt;Node34 -->
<g id="edge34" class="edge">
<title>Node10&#45;&gt;Node34</title>
<path fill="none" stroke="#191970" d="M445.5415,-602.5136C456.5224,-519.1163 502.411,-199.9017 570,-128.5 573.6591,-124.6345 577.9107,-121.3641 582.5072,-118.5976"/>
<polygon fill="#191970" stroke="#191970" points="442.0401,-602.2988 444.2251,-612.6659 448.982,-603.199 442.0401,-602.2988"/>
</g>
<!-- Node35 -->
<g id="node36" class="node">
<title>Node35</title>
<g id="a_node36"><a xlink:href="classtracktion__engine_1_1VCAPlugin.html" target="_top" xlink:title="The VCA plugin sits on a folder track to control the overall level of all the volume/pan plugins in i...">
<polygon fill="none" stroke="#000000" points="578,-50 578,-69 720,-69 720,-50 578,-50"/>
<text text-anchor="middle" x="649" y="-57" font-family="Helvetica,sans-Serif" font-size="10.00" fill="#000000">tracktion_engine::VCAPlugin</text>
</a>
</g>
</g>
<!-- Node10&#45;&gt;Node35 -->
<g id="edge35" class="edge">
<title>Node10&#45;&gt;Node35</title>
<path fill="none" stroke="#191970" d="M444.8484,-602.9428C453.5662,-514.8227 493.39,-155.6231 570,-78.5 573.7777,-74.697 578.1746,-71.6043 582.9236,-69.095"/>
<polygon fill="#191970" stroke="#191970" points="441.3624,-602.6303 443.8808,-612.9214 448.3297,-603.3059 441.3624,-602.6303"/>
</g>
<!-- Node36 -->
<g id="node37" class="node">
<title>Node36</title>
<g id="a_node37"><a xlink:href="classtracktion__engine_1_1VolumeAndPanPlugin.html" target="_top" xlink:title="The built&#45;in Tracktion volume/pan plugin. ">
<polygon fill="none" stroke="#000000" points="585.5,-.5 585.5,-30.5 712.5,-30.5 712.5,-.5 585.5,-.5"/>
<text text-anchor="start" x="593.5" y="-18.5" font-family="Helvetica,sans-Serif" font-size="10.00" fill="#000000">tracktion_engine::Volume</text>
<text text-anchor="middle" x="649" y="-7.5" font-family="Helvetica,sans-Serif" font-size="10.00" fill="#000000">AndPanPlugin</text>
</a>
</g>
</g>
<!-- Node10&#45;&gt;Node36 -->
<g id="edge36" class="edge">
<title>Node10&#45;&gt;Node36</title>
<path fill="none" stroke="#191970" d="M444.6993,-602.6002C452.945,-510.4938 491.6262,-126.4063 570,-40.5 574.363,-35.7177 579.6332,-31.8441 585.3568,-28.7077"/>
<polygon fill="#191970" stroke="#191970" points="441.1945,-602.5023 443.8075,-612.7699 448.1677,-603.1138 441.1945,-602.5023"/>
</g>
</g>
</svg>
