<?xml version="1.0" encoding="UTF-8" standalone="no"?>
<!DOCTYPE svg PUBLIC "-//W3C//DTD SVG 1.1//EN"
 "http://www.w3.org/Graphics/SVG/1.1/DTD/svg11.dtd">
<!-- Generated by graphviz version 2.43.0 (0)
 -->
<!-- Title: tracktion::engine::ArrangerClip Pages: 1 -->
<svg width="297pt" height="229pt"
 viewBox="0.00 0.00 297.00 229.00" xmlns="http://www.w3.org/2000/svg" xmlns:xlink="http://www.w3.org/1999/xlink">
<g id="graph0" class="graph" transform="scale(1 1) rotate(0) translate(4 225)">
<title>tracktion::engine::ArrangerClip</title>
<!-- Node1 -->
<g id="node1" class="node">
<title>Node1</title>
<g id="a_node1"><a xlink:title=" ">
<polygon fill="#bfbfbf" stroke="black" points="122,-0.5 122,-30.5 227,-30.5 227,-0.5 122,-0.5"/>
<text text-anchor="start" x="130" y="-18.5" font-family="Helvetica,sans-Serif" font-size="10.00">tracktion::engine::</text>
<text text-anchor="middle" x="174.5" y="-7.5" font-family="Helvetica,sans-Serif" font-size="10.00">ArrangerClip</text>
</a>
</g>
</g>
<!-- Node2 -->
<g id="node2" class="node">
<title>Node2</title>
<g id="a_node2"><a xlink:href="classtracktion_1_1engine_1_1Clip.html" target="_top" xlink:title="A clip in an edit.">
<polygon fill="none" stroke="black" points="112.5,-67.5 112.5,-86.5 236.5,-86.5 236.5,-67.5 112.5,-67.5"/>
<text text-anchor="middle" x="174.5" y="-74.5" font-family="Helvetica,sans-Serif" font-size="10.00">tracktion::engine::Clip</text>
</a>
</g>
</g>
<!-- Node2&#45;&gt;Node1 -->
<g id="edge1" class="edge">
<title>Node2&#45;&gt;Node1</title>
<path fill="none" stroke="midnightblue" d="M174.5,-57.23C174.5,-48.59 174.5,-38.5 174.5,-30.52"/>
<polygon fill="midnightblue" stroke="midnightblue" points="171,-57.48 174.5,-67.48 178,-57.48 171,-57.48"/>
</g>
<!-- Node3 -->
<g id="node3" class="node">
<title>Node3</title>
<g id="a_node3"><a xlink:href="classtracktion_1_1engine_1_1TrackItem.html" target="_top" xlink:title="Base class for EditItems that live in a Track, e.g.">
<polygon fill="none" stroke="black" points="61,-123.5 61,-153.5 166,-153.5 166,-123.5 61,-123.5"/>
<text text-anchor="start" x="69" y="-141.5" font-family="Helvetica,sans-Serif" font-size="10.00">tracktion::engine::</text>
<text text-anchor="middle" x="113.5" y="-130.5" font-family="Helvetica,sans-Serif" font-size="10.00">TrackItem</text>
</a>
</g>
</g>
<!-- Node3&#45;&gt;Node2 -->
<g id="edge2" class="edge">
<title>Node3&#45;&gt;Node2</title>
<path fill="none" stroke="midnightblue" d="M135.23,-116.3C145.7,-106.09 157.68,-94.41 165.62,-86.66"/>
<polygon fill="midnightblue" stroke="midnightblue" points="132.67,-113.91 127.96,-123.4 137.56,-118.92 132.67,-113.91"/>
</g>
<!-- Node4 -->
<g id="node4" class="node">
<title>Node4</title>
<g id="a_node4"><a xlink:href="classtracktion_1_1engine_1_1EditItem.html" target="_top" xlink:title="Base class for objects that live inside an edit &#45; e.g.">
<polygon fill="none" stroke="black" points="0,-190.5 0,-220.5 105,-220.5 105,-190.5 0,-190.5"/>
<text text-anchor="start" x="8" y="-208.5" font-family="Helvetica,sans-Serif" font-size="10.00">tracktion::engine::</text>
<text text-anchor="middle" x="52.5" y="-197.5" font-family="Helvetica,sans-Serif" font-size="10.00">EditItem</text>
</a>
</g>
</g>
<!-- Node4&#45;&gt;Node3 -->
<g id="edge3" class="edge">
<title>Node4&#45;&gt;Node3</title>
<path fill="none" stroke="midnightblue" d="M72.65,-183.02C81.74,-173.34 92.22,-162.17 100.29,-153.58"/>
<polygon fill="midnightblue" stroke="midnightblue" points="70.03,-180.71 65.74,-190.4 75.13,-185.5 70.03,-180.71"/>
</g>
<!-- Node5 -->
<g id="node5" class="node">
<title>Node5</title>
<g id="a_node5"><a xlink:href="classtracktion_1_1engine_1_1Selectable.html" target="_top" xlink:title="Base class for things that can be selected, and whose properties can appear in the properties panel.">
<polygon fill="none" stroke="black" points="123,-190.5 123,-220.5 228,-220.5 228,-190.5 123,-190.5"/>
<text text-anchor="start" x="131" y="-208.5" font-family="Helvetica,sans-Serif" font-size="10.00">tracktion::engine::</text>
<text text-anchor="middle" x="175.5" y="-197.5" font-family="Helvetica,sans-Serif" font-size="10.00">Selectable</text>
</a>
</g>
</g>
<!-- Node5&#45;&gt;Node3 -->
<g id="edge4" class="edge">
<title>Node5&#45;&gt;Node3</title>
<path fill="none" stroke="midnightblue" d="M155.02,-183.02C145.78,-173.34 135.13,-162.17 126.93,-153.58"/>
<polygon fill="midnightblue" stroke="midnightblue" points="152.61,-185.58 162.05,-190.4 157.68,-180.74 152.61,-185.58"/>
</g>
<!-- Node6 -->
<g id="node6" class="node">
<title>Node6</title>
<g id="a_node6"><a xlink:href="classtracktion_1_1engine_1_1Exportable.html" target="_top" xlink:title="An interface for objects within an edit that can be exported.">
<polygon fill="none" stroke="black" points="184,-123.5 184,-153.5 289,-153.5 289,-123.5 184,-123.5"/>
<text text-anchor="start" x="192" y="-141.5" font-family="Helvetica,sans-Serif" font-size="10.00">tracktion::engine::</text>
<text text-anchor="middle" x="236.5" y="-130.5" font-family="Helvetica,sans-Serif" font-size="10.00">Exportable</text>
</a>
</g>
</g>
<!-- Node6&#45;&gt;Node2 -->
<g id="edge5" class="edge">
<title>Node6&#45;&gt;Node2</title>
<path fill="none" stroke="midnightblue" d="M214.41,-116.3C203.77,-106.09 191.6,-94.41 183.52,-86.66"/>
<polygon fill="midnightblue" stroke="midnightblue" points="212.17,-119 221.81,-123.4 217.02,-113.95 212.17,-119"/>
</g>
</g>
</svg>
