<?xml version="1.0" encoding="UTF-8" standalone="no"?>
<!DOCTYPE svg PUBLIC "-//W3C//DTD SVG 1.1//EN"
 "http://www.w3.org/Graphics/SVG/1.1/DTD/svg11.dtd">
<!-- Generated by graphviz version 2.43.0 (0)
 -->
<!-- Title: tracktion::engine::Selectable Pages: 1 -->
<svg width="546pt" height="1605pt"
 viewBox="0.00 0.00 546.00 1605.00" xmlns="http://www.w3.org/2000/svg" xmlns:xlink="http://www.w3.org/1999/xlink">
<g id="graph0" class="graph" transform="scale(1 1) rotate(0) translate(4 1601)">
<title>tracktion::engine::Selectable</title>
<!-- Node1 -->
<g id="Node000001" class="node">
<title>Node1</title>
<g id="a_Node000001"><a xlink:title="Base class for things that can be selected, and whose properties can appear in the properties panel.">
<polygon fill="#999999" stroke="#666666" points="105,-582 0,-582 0,-552 105,-552 105,-582"/>
<text text-anchor="start" x="8" y="-570" font-family="Helvetica,sans-Serif" font-size="10.00">tracktion::engine::</text>
<text text-anchor="middle" x="52.5" y="-559" font-family="Helvetica,sans-Serif" font-size="10.00">Selectable</text>
</a>
</g>
</g>
<!-- Node2 -->
<g id="Node000002" class="node">
<title>Node2</title>
<g id="a_Node000002"><a xlink:href="classtracktion_1_1engine_1_1AutomatableParameter.html" target="_top" xlink:title=" ">
<polygon fill="white" stroke="#666666" points="292.5,-1501 162.5,-1501 162.5,-1471 292.5,-1471 292.5,-1501"/>
<text text-anchor="start" x="170.5" y="-1489" font-family="Helvetica,sans-Serif" font-size="10.00">tracktion::engine::</text>
<text text-anchor="middle" x="227.5" y="-1478" font-family="Helvetica,sans-Serif" font-size="10.00">AutomatableParameter</text>
</a>
</g>
</g>
<!-- Node1&#45;&gt;Node2 -->
<g id="edge1_Node000001_Node000002" class="edge">
<title>Node1&#45;&gt;Node2</title>
<g id="a_edge1_Node000001_Node000002"><a xlink:title=" ">
<path fill="none" stroke="#63b8ff" d="M54.34,-592.14C57.88,-684.14 74.68,-1010.65 141,-1270 161.03,-1348.34 202.13,-1436.46 219.01,-1470.99"/>
<polygon fill="#63b8ff" stroke="#63b8ff" points="57.83,-591.97 53.97,-582.1 50.84,-592.22 57.83,-591.97"/>
</a>
</g>
</g>
<!-- Node7 -->
<g id="Node000007" class="node">
<title>Node7</title>
<g id="a_Node000007"><a xlink:href="classtracktion_1_1engine_1_1ClipSlot.html" target="_top" xlink:title="Represents a slot on a track that a Clip can live in to be played as a launched clip.">
<polygon fill="white" stroke="#666666" points="280,-1261 175,-1261 175,-1231 280,-1231 280,-1261"/>
<text text-anchor="start" x="183" y="-1249" font-family="Helvetica,sans-Serif" font-size="10.00">tracktion::engine::</text>
<text text-anchor="middle" x="227.5" y="-1238" font-family="Helvetica,sans-Serif" font-size="10.00">ClipSlot</text>
</a>
</g>
</g>
<!-- Node1&#45;&gt;Node7 -->
<g id="edge6_Node000001_Node000007" class="edge">
<title>Node1&#45;&gt;Node7</title>
<g id="a_edge6_Node000001_Node000007"><a xlink:title=" ">
<path fill="none" stroke="#63b8ff" d="M53.31,-592.25C52.99,-700.66 57.19,-1125.47 141,-1222 149.69,-1232.01 162.19,-1238.01 174.96,-1241.55"/>
<polygon fill="#63b8ff" stroke="#63b8ff" points="56.81,-592.25 53.35,-582.23 49.81,-592.21 56.81,-592.25"/>
</a>
</g>
</g>
<!-- Node8 -->
<g id="Node000008" class="node">
<title>Node8</title>
<g id="a_Node000008"><a xlink:href="classtracktion_1_1engine_1_1ControlSurface.html" target="_top" xlink:title="Base class for types of control surface.">
<polygon fill="white" stroke="#666666" points="280,-1213 175,-1213 175,-1183 280,-1183 280,-1213"/>
<text text-anchor="start" x="183" y="-1201" font-family="Helvetica,sans-Serif" font-size="10.00">tracktion::engine::</text>
<text text-anchor="middle" x="227.5" y="-1190" font-family="Helvetica,sans-Serif" font-size="10.00">ControlSurface</text>
</a>
</g>
</g>
<!-- Node1&#45;&gt;Node8 -->
<g id="edge7_Node000001_Node000008" class="edge">
<title>Node1&#45;&gt;Node8</title>
<g id="a_edge7_Node000001_Node000008"><a xlink:title=" ">
<path fill="none" stroke="#63b8ff" d="M54.77,-592.61C59.14,-666.82 77,-887.43 141,-1057 159.7,-1106.55 196.02,-1158.12 214.73,-1182.91"/>
<polygon fill="#63b8ff" stroke="#63b8ff" points="58.25,-592.16 54.2,-582.37 51.26,-592.55 58.25,-592.16"/>
</a>
</g>
</g>
<!-- Node18 -->
<g id="Node000018" class="node">
<title>Node18</title>
<g id="a_Node000018"><a xlink:href="classtracktion_1_1engine_1_1CurveEditorPoint.html" target="_top" xlink:title=" ">
<polygon fill="white" stroke="#666666" points="280,-1048 175,-1048 175,-1018 280,-1018 280,-1048"/>
<text text-anchor="start" x="183" y="-1036" font-family="Helvetica,sans-Serif" font-size="10.00">tracktion::engine::</text>
<text text-anchor="middle" x="227.5" y="-1025" font-family="Helvetica,sans-Serif" font-size="10.00">CurveEditorPoint</text>
</a>
</g>
</g>
<!-- Node1&#45;&gt;Node18 -->
<g id="edge15_Node000001_Node000018" class="edge">
<title>Node1&#45;&gt;Node18</title>
<g id="a_edge15_Node000001_Node000018"><a xlink:title=" ">
<path fill="none" stroke="#63b8ff" d="M55.97,-592.74C64.23,-674.14 93.06,-924.36 141,-988 150.99,-1001.26 166.04,-1011 180.74,-1017.95"/>
<polygon fill="#63b8ff" stroke="#63b8ff" points="59.42,-592.02 54.95,-582.41 52.45,-592.71 59.42,-592.02"/>
</a>
</g>
</g>
<!-- Node20 -->
<g id="Node000020" class="node">
<title>Node20</title>
<g id="a_Node000020"><a xlink:href="classtracktion_1_1engine_1_1Edit.html" target="_top" xlink:title="The Tracktion Edit class!">
<polygon fill="white" stroke="#666666" points="289.5,-978.5 165.5,-978.5 165.5,-959.5 289.5,-959.5 289.5,-978.5"/>
<text text-anchor="middle" x="227.5" y="-966.5" font-family="Helvetica,sans-Serif" font-size="10.00">tracktion::engine::Edit</text>
</a>
</g>
</g>
<!-- Node1&#45;&gt;Node20 -->
<g id="edge17_Node000001_Node000020" class="edge">
<title>Node1&#45;&gt;Node20</title>
<g id="a_edge17_Node000001_Node000020"><a xlink:title=" ">
<path fill="none" stroke="#63b8ff" d="M55.81,-592.46C63.35,-669.67 89.71,-899.01 141,-950 147.69,-956.65 156.15,-961.19 165.13,-964.25"/>
<polygon fill="#63b8ff" stroke="#63b8ff" points="59.27,-591.83 54.84,-582.21 52.3,-592.5 59.27,-591.83"/>
</a>
</g>
</g>
<!-- Node21 -->
<g id="Node000021" class="node">
<title>Node21</title>
<g id="a_Node000021"><a xlink:href="classtracktion_1_1engine_1_1InputDevice.html" target="_top" xlink:title="Represents an input device.">
<polygon fill="white" stroke="#666666" points="280,-941 175,-941 175,-911 280,-911 280,-941"/>
<text text-anchor="start" x="183" y="-929" font-family="Helvetica,sans-Serif" font-size="10.00">tracktion::engine::</text>
<text text-anchor="middle" x="227.5" y="-918" font-family="Helvetica,sans-Serif" font-size="10.00">InputDevice</text>
</a>
</g>
</g>
<!-- Node1&#45;&gt;Node21 -->
<g id="edge18_Node000001_Node000021" class="edge">
<title>Node1&#45;&gt;Node21</title>
<g id="a_edge18_Node000001_Node000021"><a xlink:title=" ">
<path fill="none" stroke="#63b8ff" d="M54.94,-592.16C59.27,-647.58 76.21,-782.25 141,-870 154.07,-887.7 174.54,-901.39 192.17,-910.81"/>
<polygon fill="#63b8ff" stroke="#63b8ff" points="58.43,-591.89 54.23,-582.17 51.45,-592.39 58.43,-591.89"/>
</a>
</g>
</g>
<!-- Node26 -->
<g id="Node000026" class="node">
<title>Node26</title>
<g id="a_Node000026"><a xlink:href="structtracktion_1_1engine_1_1InputDeviceInstance_1_1Destination.html" target="_top" xlink:title=" ">
<polygon fill="white" stroke="#666666" points="285.5,-860.5 169.5,-860.5 169.5,-819.5 285.5,-819.5 285.5,-860.5"/>
<text text-anchor="start" x="177.5" y="-848.5" font-family="Helvetica,sans-Serif" font-size="10.00">tracktion::engine::</text>
<text text-anchor="start" x="177.5" y="-837.5" font-family="Helvetica,sans-Serif" font-size="10.00">InputDeviceInstance</text>
<text text-anchor="middle" x="227.5" y="-826.5" font-family="Helvetica,sans-Serif" font-size="10.00">::Destination</text>
</a>
</g>
</g>
<!-- Node1&#45;&gt;Node26 -->
<g id="edge21_Node000001_Node000026" class="edge">
<title>Node1&#45;&gt;Node26</title>
<g id="a_edge21_Node000001_Node000026"><a xlink:title=" ">
<path fill="none" stroke="#63b8ff" d="M55.9,-592.38C61.76,-640.56 81.06,-745.92 141,-807 148.91,-815.06 159.01,-821.19 169.48,-825.84"/>
<polygon fill="#63b8ff" stroke="#63b8ff" points="59.35,-591.75 54.76,-582.2 52.4,-592.53 59.35,-591.75"/>
</a>
</g>
</g>
<!-- Node30 -->
<g id="Node000030" class="node">
<title>Node30</title>
<g id="a_Node000030"><a xlink:href="structtracktion_1_1engine_1_1MakeMonoEffect.html" target="_top" xlink:title=" ">
<polygon fill="white" stroke="#666666" points="280,-798 175,-798 175,-768 280,-768 280,-798"/>
<text text-anchor="start" x="183" y="-786" font-family="Helvetica,sans-Serif" font-size="10.00">tracktion::engine::</text>
<text text-anchor="middle" x="227.5" y="-775" font-family="Helvetica,sans-Serif" font-size="10.00">MakeMonoEffect</text>
</a>
</g>
</g>
<!-- Node1&#45;&gt;Node30 -->
<g id="edge25_Node000001_Node000030" class="edge">
<title>Node1&#45;&gt;Node30</title>
<g id="a_edge25_Node000001_Node000030"><a xlink:title=" ">
<path fill="none" stroke="#63b8ff" d="M57.9,-592.04C66.43,-633.1 89.16,-714.59 141,-759 150.48,-767.13 162.53,-772.51 174.56,-776.08"/>
<polygon fill="#63b8ff" stroke="#63b8ff" points="61.3,-591.2 55.94,-582.06 54.43,-592.55 61.3,-591.2"/>
</a>
</g>
</g>
<!-- Node31 -->
<g id="Node000031" class="node">
<title>Node31</title>
<g id="a_Node000031"><a xlink:href="structtracktion_1_1engine_1_1Modifier.html" target="_top" xlink:title="Bass class for parameter Modifiers.">
<polygon fill="white" stroke="#666666" points="280,-750 175,-750 175,-720 280,-720 280,-750"/>
<text text-anchor="start" x="183" y="-738" font-family="Helvetica,sans-Serif" font-size="10.00">tracktion::engine::</text>
<text text-anchor="middle" x="227.5" y="-727" font-family="Helvetica,sans-Serif" font-size="10.00">Modifier</text>
</a>
</g>
</g>
<!-- Node1&#45;&gt;Node31 -->
<g id="edge26_Node000001_Node000031" class="edge">
<title>Node1&#45;&gt;Node31</title>
<g id="a_edge26_Node000001_Node000031"><a xlink:title=" ">
<path fill="none" stroke="#63b8ff" d="M61.98,-591.8C74.29,-624.09 100.21,-680.04 141,-711 150.82,-718.46 162.86,-723.6 174.76,-727.14"/>
<polygon fill="#63b8ff" stroke="#63b8ff" points="65.19,-590.39 58.46,-582.21 58.62,-592.8 65.19,-590.39"/>
</a>
</g>
</g>
<!-- Node38 -->
<g id="Node000038" class="node">
<title>Node38</title>
<g id="a_Node000038"><a xlink:href="structtracktion_1_1engine_1_1NormaliseEffect.html" target="_top" xlink:title=" ">
<polygon fill="white" stroke="#666666" points="280,-702 175,-702 175,-672 280,-672 280,-702"/>
<text text-anchor="start" x="183" y="-690" font-family="Helvetica,sans-Serif" font-size="10.00">tracktion::engine::</text>
<text text-anchor="middle" x="227.5" y="-679" font-family="Helvetica,sans-Serif" font-size="10.00">NormaliseEffect</text>
</a>
</g>
</g>
<!-- Node1&#45;&gt;Node38 -->
<g id="edge33_Node000001_Node000038" class="edge">
<title>Node1&#45;&gt;Node38</title>
<g id="a_edge33_Node000001_Node000038"><a xlink:title=" ">
<path fill="none" stroke="#63b8ff" d="M69.02,-590.49C84.68,-612.39 110.8,-644.38 141,-663 151.24,-669.31 163.17,-674.01 174.82,-677.48"/>
<polygon fill="#63b8ff" stroke="#63b8ff" points="71.75,-588.29 63.16,-582.08 66,-592.29 71.75,-588.29"/>
</a>
</g>
</g>
<!-- Node39 -->
<g id="Node000039" class="node">
<title>Node39</title>
<g id="a_Node000039"><a xlink:href="classtracktion_1_1engine_1_1OutputDevice.html" target="_top" xlink:title="Base class for audio or midi output devices, to which a track&#39;s output can be sent.">
<polygon fill="#fff0f0" stroke="red" points="280,-654 175,-654 175,-624 280,-624 280,-654"/>
<text text-anchor="start" x="183" y="-642" font-family="Helvetica,sans-Serif" font-size="10.00">tracktion::engine::</text>
<text text-anchor="middle" x="227.5" y="-631" font-family="Helvetica,sans-Serif" font-size="10.00">OutputDevice</text>
</a>
</g>
</g>
<!-- Node1&#45;&gt;Node39 -->
<g id="edge34_Node000001_Node000039" class="edge">
<title>Node1&#45;&gt;Node39</title>
<g id="a_edge34_Node000001_Node000039"><a xlink:title=" ">
<path fill="none" stroke="#63b8ff" d="M86.61,-587.5C102.62,-596.8 122.36,-607.39 141,-615 151.7,-619.37 163.48,-623.24 174.77,-626.53"/>
<polygon fill="#63b8ff" stroke="#63b8ff" points="88.04,-584.28 77.65,-582.21 84.48,-590.31 88.04,-584.28"/>
</a>
</g>
</g>
<!-- Node43 -->
<g id="Node000043" class="node">
<title>Node43</title>
<g id="a_Node000043"><a xlink:href="classtracktion_1_1engine_1_1Plugin.html" target="_top" xlink:title=" ">
<polygon fill="#fff0f0" stroke="red" points="280,-606 175,-606 175,-576 280,-576 280,-606"/>
<text text-anchor="start" x="183" y="-594" font-family="Helvetica,sans-Serif" font-size="10.00">tracktion::engine::</text>
<text text-anchor="middle" x="227.5" y="-583" font-family="Helvetica,sans-Serif" font-size="10.00">Plugin</text>
</a>
</g>
</g>
<!-- Node1&#45;&gt;Node43 -->
<g id="edge36_Node000001_Node000043" class="edge">
<title>Node1&#45;&gt;Node43</title>
<g id="a_edge36_Node000001_Node000043"><a xlink:title=" ">
<path fill="none" stroke="#63b8ff" d="M115.41,-575.59C134.91,-578.29 156.23,-581.25 174.93,-583.85"/>
<polygon fill="#63b8ff" stroke="#63b8ff" points="115.79,-572.11 105.41,-574.2 114.83,-579.04 115.79,-572.11"/>
</a>
</g>
</g>
<!-- Node71 -->
<g id="Node000071" class="node">
<title>Node71</title>
<g id="a_Node000071"><a xlink:href="classtracktion_1_1engine_1_1Project.html" target="_top" xlink:title="A tracktion project.">
<polygon fill="white" stroke="#666666" points="280,-558 175,-558 175,-528 280,-528 280,-558"/>
<text text-anchor="start" x="183" y="-546" font-family="Helvetica,sans-Serif" font-size="10.00">tracktion::engine::</text>
<text text-anchor="middle" x="227.5" y="-535" font-family="Helvetica,sans-Serif" font-size="10.00">Project</text>
</a>
</g>
</g>
<!-- Node1&#45;&gt;Node71 -->
<g id="edge37_Node000001_Node000071" class="edge">
<title>Node1&#45;&gt;Node71</title>
<g id="a_edge37_Node000001_Node000071"><a xlink:title=" ">
<path fill="none" stroke="#63b8ff" d="M115.41,-558.41C134.91,-555.71 156.23,-552.75 174.93,-550.15"/>
<polygon fill="#63b8ff" stroke="#63b8ff" points="114.83,-554.96 105.41,-559.8 115.79,-561.89 114.83,-554.96"/>
</a>
</g>
</g>
<!-- Node72 -->
<g id="Node000072" class="node">
<title>Node72</title>
<g id="a_Node000072"><a xlink:href="classtracktion_1_1engine_1_1ProjectItem.html" target="_top" xlink:title="Represents a file&#45;based resource that is used in a project.">
<polygon fill="white" stroke="#666666" points="280,-510 175,-510 175,-480 280,-480 280,-510"/>
<text text-anchor="start" x="183" y="-498" font-family="Helvetica,sans-Serif" font-size="10.00">tracktion::engine::</text>
<text text-anchor="middle" x="227.5" y="-487" font-family="Helvetica,sans-Serif" font-size="10.00">ProjectItem</text>
</a>
</g>
</g>
<!-- Node1&#45;&gt;Node72 -->
<g id="edge38_Node000001_Node000072" class="edge">
<title>Node1&#45;&gt;Node72</title>
<g id="a_edge38_Node000001_Node000072"><a xlink:title=" ">
<path fill="none" stroke="#63b8ff" d="M86.61,-546.5C102.62,-537.2 122.36,-526.61 141,-519 151.7,-514.63 163.48,-510.76 174.77,-507.47"/>
<polygon fill="#63b8ff" stroke="#63b8ff" points="84.48,-543.69 77.65,-551.79 88.04,-549.72 84.48,-543.69"/>
</a>
</g>
</g>
<!-- Node73 -->
<g id="Node000073" class="node">
<title>Node73</title>
<g id="a_Node000073"><a xlink:href="classtracktion_1_1engine_1_1RackType.html" target="_top" xlink:title=" ">
<polygon fill="white" stroke="#666666" points="280,-462 175,-462 175,-432 280,-432 280,-462"/>
<text text-anchor="start" x="183" y="-450" font-family="Helvetica,sans-Serif" font-size="10.00">tracktion::engine::</text>
<text text-anchor="middle" x="227.5" y="-439" font-family="Helvetica,sans-Serif" font-size="10.00">RackType</text>
</a>
</g>
</g>
<!-- Node1&#45;&gt;Node73 -->
<g id="edge39_Node000001_Node000073" class="edge">
<title>Node1&#45;&gt;Node73</title>
<g id="a_edge39_Node000001_Node000073"><a xlink:title=" ">
<path fill="none" stroke="#63b8ff" d="M69.02,-543.51C84.68,-521.61 110.8,-489.62 141,-471 151.24,-464.69 163.17,-459.99 174.82,-456.52"/>
<polygon fill="#63b8ff" stroke="#63b8ff" points="66,-541.71 63.16,-551.92 71.75,-545.71 66,-541.71"/>
</a>
</g>
</g>
<!-- Node74 -->
<g id="Node000074" class="node">
<title>Node74</title>
<g id="a_Node000074"><a xlink:href="classtracktion_1_1engine_1_1Scene.html" target="_top" xlink:title="A Scene is a collection of ClipSlots across tracks.">
<polygon fill="white" stroke="#666666" points="280,-414 175,-414 175,-384 280,-384 280,-414"/>
<text text-anchor="start" x="183" y="-402" font-family="Helvetica,sans-Serif" font-size="10.00">tracktion::engine::</text>
<text text-anchor="middle" x="227.5" y="-391" font-family="Helvetica,sans-Serif" font-size="10.00">Scene</text>
</a>
</g>
</g>
<!-- Node1&#45;&gt;Node74 -->
<g id="edge40_Node000001_Node000074" class="edge">
<title>Node1&#45;&gt;Node74</title>
<g id="a_edge40_Node000001_Node000074"><a xlink:title=" ">
<path fill="none" stroke="#63b8ff" d="M61.98,-542.2C74.29,-509.91 100.21,-453.96 141,-423 150.82,-415.54 162.86,-410.4 174.76,-406.86"/>
<polygon fill="#63b8ff" stroke="#63b8ff" points="58.62,-541.2 58.46,-551.79 65.19,-543.61 58.62,-541.2"/>
</a>
</g>
</g>
<!-- Node75 -->
<g id="Node000075" class="node">
<title>Node75</title>
<g id="a_Node000075"><a xlink:href="classtracktion_1_1engine_1_1SelectedMidiEvents.html" target="_top" xlink:title="Represents a set of selected MIDI notes.">
<polygon fill="white" stroke="#666666" points="284,-366 171,-366 171,-336 284,-336 284,-366"/>
<text text-anchor="start" x="179" y="-354" font-family="Helvetica,sans-Serif" font-size="10.00">tracktion::engine::</text>
<text text-anchor="middle" x="227.5" y="-343" font-family="Helvetica,sans-Serif" font-size="10.00">SelectedMidiEvents</text>
</a>
</g>
</g>
<!-- Node1&#45;&gt;Node75 -->
<g id="edge41_Node000001_Node000075" class="edge">
<title>Node1&#45;&gt;Node75</title>
<g id="a_edge41_Node000001_Node000075"><a xlink:title=" ">
<path fill="none" stroke="#63b8ff" d="M57.9,-541.96C66.43,-500.9 89.16,-419.41 141,-375 149.55,-367.68 160.17,-362.58 170.99,-359.03"/>
<polygon fill="#63b8ff" stroke="#63b8ff" points="54.43,-541.45 55.94,-551.94 61.3,-542.8 54.43,-541.45"/>
</a>
</g>
</g>
<!-- Node76 -->
<g id="Node000076" class="node">
<title>Node76</title>
<g id="a_Node000076"><a xlink:href="structtracktion_1_1engine_1_1StepClip_1_1Channel.html" target="_top" xlink:title=" ">
<polygon fill="white" stroke="#666666" points="280,-318 175,-318 175,-288 280,-288 280,-318"/>
<text text-anchor="start" x="183" y="-306" font-family="Helvetica,sans-Serif" font-size="10.00">tracktion::engine::</text>
<text text-anchor="middle" x="227.5" y="-295" font-family="Helvetica,sans-Serif" font-size="10.00">StepClip::Channel</text>
</a>
</g>
</g>
<!-- Node1&#45;&gt;Node76 -->
<g id="edge42_Node000001_Node000076" class="edge">
<title>Node1&#45;&gt;Node76</title>
<g id="a_edge42_Node000001_Node000076"><a xlink:title=" ">
<path fill="none" stroke="#63b8ff" d="M55.32,-541.76C60.21,-492.98 77.95,-385.44 141,-327 150.39,-318.3 162.67,-312.72 174.99,-309.15"/>
<polygon fill="#63b8ff" stroke="#63b8ff" points="51.83,-541.5 54.41,-551.77 58.8,-542.13 51.83,-541.5"/>
</a>
</g>
</g>
<!-- Node77 -->
<g id="Node000077" class="node">
<title>Node77</title>
<g id="a_Node000077"><a xlink:href="structtracktion_1_1engine_1_1StepClip_1_1PatternInstance.html" target="_top" xlink:title=" ">
<polygon fill="white" stroke="#666666" points="297,-270 158,-270 158,-240 297,-240 297,-270"/>
<text text-anchor="start" x="166" y="-258" font-family="Helvetica,sans-Serif" font-size="10.00">tracktion::engine::</text>
<text text-anchor="middle" x="227.5" y="-247" font-family="Helvetica,sans-Serif" font-size="10.00">StepClip::PatternInstance</text>
</a>
</g>
</g>
<!-- Node1&#45;&gt;Node77 -->
<g id="edge43_Node000001_Node000077" class="edge">
<title>Node1&#45;&gt;Node77</title>
<g id="a_edge43_Node000001_Node000077"><a xlink:title=" ">
<path fill="none" stroke="#63b8ff" d="M53.51,-541.92C54.96,-486.35 66.43,-352 141,-279 145.85,-274.25 151.55,-270.43 157.68,-267.35"/>
<polygon fill="#63b8ff" stroke="#63b8ff" points="50.01,-541.89 53.34,-551.94 57.01,-542 50.01,-541.89"/>
</a>
</g>
</g>
<!-- Node78 -->
<g id="Node000078" class="node">
<title>Node78</title>
<g id="a_Node000078"><a xlink:href="structtracktion_1_1engine_1_1StepVolumeEffect.html" target="_top" xlink:title=" ">
<polygon fill="white" stroke="#666666" points="280,-222 175,-222 175,-192 280,-192 280,-222"/>
<text text-anchor="start" x="183" y="-210" font-family="Helvetica,sans-Serif" font-size="10.00">tracktion::engine::</text>
<text text-anchor="middle" x="227.5" y="-199" font-family="Helvetica,sans-Serif" font-size="10.00">StepVolumeEffect</text>
</a>
</g>
</g>
<!-- Node1&#45;&gt;Node78 -->
<g id="edge44_Node000001_Node000078" class="edge">
<title>Node1&#45;&gt;Node78</title>
<g id="a_edge44_Node000001_Node000078"><a xlink:title=" ">
<path fill="none" stroke="#63b8ff" d="M56.83,-541.56C66.53,-471.14 96.92,-275.92 141,-231 150.07,-221.76 162.39,-215.99 174.86,-212.43"/>
<polygon fill="#63b8ff" stroke="#63b8ff" points="53.32,-541.36 55.45,-551.74 60.26,-542.3 53.32,-541.36"/>
</a>
</g>
</g>
<!-- Node79 -->
<g id="Node000079" class="node">
<title>Node79</title>
<g id="a_Node000079"><a xlink:href="classtracktion_1_1engine_1_1TempoSequence.html" target="_top" xlink:title="Holds a list of TempoSetting objects, to form a sequence of tempo changes.">
<polygon fill="white" stroke="#666666" points="280,-174 175,-174 175,-144 280,-144 280,-174"/>
<text text-anchor="start" x="183" y="-162" font-family="Helvetica,sans-Serif" font-size="10.00">tracktion::engine::</text>
<text text-anchor="middle" x="227.5" y="-151" font-family="Helvetica,sans-Serif" font-size="10.00">TempoSequence</text>
</a>
</g>
</g>
<!-- Node1&#45;&gt;Node79 -->
<g id="edge45_Node000001_Node000079" class="edge">
<title>Node1&#45;&gt;Node79</title>
<g id="a_edge45_Node000001_Node000079"><a xlink:title=" ">
<path fill="none" stroke="#63b8ff" d="M55.93,-541.6C63.8,-464.54 91.02,-235.52 141,-183 149.93,-173.62 162.2,-167.81 174.67,-164.24"/>
<polygon fill="#63b8ff" stroke="#63b8ff" points="52.42,-541.53 54.91,-551.82 59.39,-542.22 52.42,-541.53"/>
</a>
</g>
</g>
<!-- Node80 -->
<g id="Node000080" class="node">
<title>Node80</title>
<g id="a_Node000080"><a xlink:href="classtracktion_1_1engine_1_1Track.html" target="_top" xlink:title="Base class for tracks which contain clips and plugins and can be added to Edit[s].">
<polygon fill="#fff0f0" stroke="red" points="280,-126 175,-126 175,-96 280,-96 280,-126"/>
<text text-anchor="start" x="183" y="-114" font-family="Helvetica,sans-Serif" font-size="10.00">tracktion::engine::</text>
<text text-anchor="middle" x="227.5" y="-103" font-family="Helvetica,sans-Serif" font-size="10.00">Track</text>
</a>
</g>
</g>
<!-- Node1&#45;&gt;Node80 -->
<g id="edge46_Node000001_Node000080" class="edge">
<title>Node1&#45;&gt;Node80</title>
<g id="a_edge46_Node000001_Node000080"><a xlink:title=" ">
<path fill="none" stroke="#63b8ff" d="M55.22,-541.78C61.38,-458.65 85.06,-195.23 141,-135 149.92,-125.4 162.34,-119.53 174.96,-115.97"/>
<polygon fill="#63b8ff" stroke="#63b8ff" points="51.72,-541.62 54.49,-551.85 58.7,-542.12 51.72,-541.62"/>
</a>
</g>
</g>
<!-- Node90 -->
<g id="Node000090" class="node">
<title>Node90</title>
<g id="a_Node000090"><a xlink:href="structtracktion_1_1engine_1_1TrackCompManager_1_1TrackComp.html" target="_top" xlink:title=" ">
<polygon fill="white" stroke="#666666" points="314,-78 141,-78 141,-48 314,-48 314,-78"/>
<text text-anchor="start" x="149" y="-66" font-family="Helvetica,sans-Serif" font-size="10.00">tracktion::engine::</text>
<text text-anchor="middle" x="227.5" y="-55" font-family="Helvetica,sans-Serif" font-size="10.00">TrackCompManager::TrackComp</text>
</a>
</g>
</g>
<!-- Node1&#45;&gt;Node90 -->
<g id="edge47_Node000001_Node000090" class="edge">
<title>Node1&#45;&gt;Node90</title>
<g id="a_edge47_Node000001_Node000090"><a xlink:title=" ">
<path fill="none" stroke="#63b8ff" d="M54.67,-541.64C59.28,-452.46 79.13,-154.93 141,-87 144.11,-83.58 147.67,-80.63 151.53,-78.09"/>
<polygon fill="#63b8ff" stroke="#63b8ff" points="51.17,-541.52 54.17,-551.69 58.16,-541.87 51.17,-541.52"/>
</a>
</g>
</g>
<!-- Node91 -->
<g id="Node000091" class="node">
<title>Node91</title>
<g id="a_Node000091"><a xlink:href="classtracktion_1_1engine_1_1TrackItem.html" target="_top" xlink:title="Base class for EditItems that live in a Track, e.g.">
<polygon fill="#fff0f0" stroke="red" points="280,-30 175,-30 175,0 280,0 280,-30"/>
<text text-anchor="start" x="183" y="-18" font-family="Helvetica,sans-Serif" font-size="10.00">tracktion::engine::</text>
<text text-anchor="middle" x="227.5" y="-7" font-family="Helvetica,sans-Serif" font-size="10.00">TrackItem</text>
</a>
</g>
</g>
<!-- Node1&#45;&gt;Node91 -->
<g id="edge48_Node000001_Node000091" class="edge">
<title>Node1&#45;&gt;Node91</title>
<g id="a_edge48_Node000001_Node000091"><a xlink:title=" ">
<path fill="none" stroke="#63b8ff" d="M54.21,-541.63C57.36,-446.81 73.15,-114.71 141,-39 149.75,-29.24 162.11,-23.32 174.73,-19.76"/>
<polygon fill="#63b8ff" stroke="#63b8ff" points="50.7,-541.65 53.89,-551.75 57.7,-541.87 50.7,-541.65"/>
</a>
</g>
</g>
<!-- Node3 -->
<g id="Node000003" class="node">
<title>Node3</title>
<g id="a_Node000003"><a xlink:href="classtracktion_1_1engine_1_1AirWindowsAutomatableParameter.html" target="_top" xlink:title=" ">
<polygon fill="white" stroke="#666666" points="538,-1597 350,-1597 350,-1567 538,-1567 538,-1597"/>
<text text-anchor="start" x="358" y="-1585" font-family="Helvetica,sans-Serif" font-size="10.00">tracktion::engine::</text>
<text text-anchor="middle" x="444" y="-1574" font-family="Helvetica,sans-Serif" font-size="10.00">AirWindowsAutomatableParameter</text>
</a>
</g>
</g>
<!-- Node2&#45;&gt;Node3 -->
<g id="edge2_Node000002_Node000003" class="edge">
<title>Node2&#45;&gt;Node3</title>
<g id="a_edge2_Node000002_Node000003"><a xlink:title=" ">
<path fill="none" stroke="#63b8ff" d="M258.49,-1507.04C282.35,-1522.95 317.07,-1544.32 350,-1558 358.01,-1561.33 366.6,-1564.29 375.21,-1566.91"/>
<polygon fill="#63b8ff" stroke="#63b8ff" points="260.15,-1503.94 249.91,-1501.24 256.23,-1509.74 260.15,-1503.94"/>
</a>
</g>
</g>
<!-- Node4 -->
<g id="Node000004" class="node">
<title>Node4</title>
<g id="a_Node000004"><a xlink:href="classtracktion_1_1engine_1_1ExternalAutomatableParameter.html" target="_top" xlink:title=" ">
<polygon fill="white" stroke="#666666" points="529,-1549 359,-1549 359,-1519 529,-1519 529,-1549"/>
<text text-anchor="start" x="367" y="-1537" font-family="Helvetica,sans-Serif" font-size="10.00">tracktion::engine::</text>
<text text-anchor="middle" x="444" y="-1526" font-family="Helvetica,sans-Serif" font-size="10.00">ExternalAutomatableParameter</text>
</a>
</g>
</g>
<!-- Node2&#45;&gt;Node4 -->
<g id="edge3_Node000002_Node000004" class="edge">
<title>Node2&#45;&gt;Node4</title>
<g id="a_edge3_Node000002_Node000004"><a xlink:title=" ">
<path fill="none" stroke="#63b8ff" d="M302.61,-1502.58C326.41,-1507.91 352.64,-1513.78 375.91,-1518.99"/>
<polygon fill="#63b8ff" stroke="#63b8ff" points="303.09,-1499.1 292.57,-1500.34 301.56,-1505.94 303.09,-1499.1"/>
</a>
</g>
</g>
<!-- Node5 -->
<g id="Node000005" class="node">
<title>Node5</title>
<g id="a_Node000005"><a xlink:href="classtracktion_1_1engine_1_1MacroParameter.html" target="_top" xlink:title="A MacroParameter is an AutomatableParameter which is a collection of Mappings.">
<polygon fill="white" stroke="#666666" points="496.5,-1501 391.5,-1501 391.5,-1471 496.5,-1471 496.5,-1501"/>
<text text-anchor="start" x="399.5" y="-1489" font-family="Helvetica,sans-Serif" font-size="10.00">tracktion::engine::</text>
<text text-anchor="middle" x="444" y="-1478" font-family="Helvetica,sans-Serif" font-size="10.00">MacroParameter</text>
</a>
</g>
</g>
<!-- Node2&#45;&gt;Node5 -->
<g id="edge4_Node000002_Node000005" class="edge">
<title>Node2&#45;&gt;Node5</title>
<g id="a_edge4_Node000002_Node000005"><a xlink:title=" ">
<path fill="none" stroke="#63b8ff" d="M302.75,-1486C332.01,-1486 364.91,-1486 391.49,-1486"/>
<polygon fill="#63b8ff" stroke="#63b8ff" points="302.57,-1482.5 292.57,-1486 302.57,-1489.5 302.57,-1482.5"/>
</a>
</g>
</g>
<!-- Node6 -->
<g id="Node000006" class="node">
<title>Node6</title>
<g id="a_Node000006"><a xlink:href="structtracktion_1_1engine_1_1PluginWetDryAutomatableParam.html" target="_top" xlink:title="specialised AutomatableParameter for wet/dry.">
<polygon fill="white" stroke="#666666" points="532,-1453 356,-1453 356,-1423 532,-1423 532,-1453"/>
<text text-anchor="start" x="364" y="-1441" font-family="Helvetica,sans-Serif" font-size="10.00">tracktion::engine::</text>
<text text-anchor="middle" x="444" y="-1430" font-family="Helvetica,sans-Serif" font-size="10.00">PluginWetDryAutomatableParam</text>
</a>
</g>
</g>
<!-- Node2&#45;&gt;Node6 -->
<g id="edge5_Node000002_Node000006" class="edge">
<title>Node2&#45;&gt;Node6</title>
<g id="a_edge5_Node000002_Node000006"><a xlink:title=" ">
<path fill="none" stroke="#63b8ff" d="M302.61,-1469.42C326.41,-1464.09 352.64,-1458.22 375.91,-1453.01"/>
<polygon fill="#63b8ff" stroke="#63b8ff" points="301.56,-1466.06 292.57,-1471.66 303.09,-1472.9 301.56,-1466.06"/>
</a>
</g>
</g>
<!-- Node9 -->
<g id="Node000009" class="node">
<title>Node9</title>
<g id="a_Node000009"><a xlink:href="classtracktion_1_1engine_1_1AlphaTrackControlSurface.html" target="_top" xlink:title=" ">
<polygon fill="white" stroke="#666666" points="515,-1405 373,-1405 373,-1375 515,-1375 515,-1405"/>
<text text-anchor="start" x="381" y="-1393" font-family="Helvetica,sans-Serif" font-size="10.00">tracktion::engine::</text>
<text text-anchor="middle" x="444" y="-1382" font-family="Helvetica,sans-Serif" font-size="10.00">AlphaTrackControlSurface</text>
</a>
</g>
</g>
<!-- Node8&#45;&gt;Node9 -->
<g id="edge8_Node000008_Node000009" class="edge">
<title>Node8&#45;&gt;Node9</title>
<g id="a_edge8_Node000008_Node000009"><a xlink:title=" ">
<path fill="none" stroke="#63b8ff" d="M289.76,-1206.59C298.79,-1210.15 307.3,-1215.11 314,-1222 359.97,-1269.31 303.53,-1319.18 350,-1366 356.46,-1372.51 364.44,-1377.33 372.98,-1380.89"/>
<polygon fill="#63b8ff" stroke="#63b8ff" points="290.8,-1203.25 280.2,-1203.37 288.56,-1209.88 290.8,-1203.25"/>
</a>
</g>
</g>
<!-- Node10 -->
<g id="Node000010" class="node">
<title>Node10</title>
<g id="a_Node000010"><a xlink:href="classtracktion_1_1engine_1_1CustomControlSurface.html" target="_top" xlink:title=" ">
<polygon fill="white" stroke="#666666" points="507,-1357 381,-1357 381,-1327 507,-1327 507,-1357"/>
<text text-anchor="start" x="389" y="-1345" font-family="Helvetica,sans-Serif" font-size="10.00">tracktion::engine::</text>
<text text-anchor="middle" x="444" y="-1334" font-family="Helvetica,sans-Serif" font-size="10.00">CustomControlSurface</text>
</a>
</g>
</g>
<!-- Node8&#45;&gt;Node10 -->
<g id="edge9_Node000008_Node000010" class="edge">
<title>Node8&#45;&gt;Node10</title>
<g id="a_edge9_Node000008_Node000010"><a xlink:title=" ">
<path fill="none" stroke="#63b8ff" d="M290.03,-1207.62C298.81,-1211.07 307.16,-1215.72 314,-1222 347.56,-1252.82 316.11,-1287.53 350,-1318 358.68,-1325.8 369.57,-1331.13 380.8,-1334.76"/>
<polygon fill="#63b8ff" stroke="#63b8ff" points="290.99,-1204.25 280.4,-1204.34 288.73,-1210.88 290.99,-1204.25"/>
</a>
</g>
</g>
<!-- Node11 -->
<g id="Node000011" class="node">
<title>Node11</title>
<g id="a_Node000011"><a xlink:href="classtracktion_1_1engine_1_1MackieC4.html" target="_top" xlink:title=" ">
<polygon fill="white" stroke="#666666" points="496.5,-1309 391.5,-1309 391.5,-1279 496.5,-1279 496.5,-1309"/>
<text text-anchor="start" x="399.5" y="-1297" font-family="Helvetica,sans-Serif" font-size="10.00">tracktion::engine::</text>
<text text-anchor="middle" x="444" y="-1286" font-family="Helvetica,sans-Serif" font-size="10.00">MackieC4</text>
</a>
</g>
</g>
<!-- Node8&#45;&gt;Node11 -->
<g id="edge10_Node000008_Node000011" class="edge">
<title>Node8&#45;&gt;Node11</title>
<g id="a_edge10_Node000008_Node000011"><a xlink:title=" ">
<path fill="none" stroke="#63b8ff" d="M289.85,-1209.89C298.37,-1213.04 306.7,-1217 314,-1222 336,-1237.07 327.84,-1255.17 350,-1270 362.19,-1278.16 376.99,-1283.55 391.17,-1287.1"/>
<polygon fill="#63b8ff" stroke="#63b8ff" points="290.78,-1206.51 280.19,-1206.68 288.57,-1213.16 290.78,-1206.51"/>
</a>
</g>
</g>
<!-- Node12 -->
<g id="Node000012" class="node">
<title>Node12</title>
<g id="a_Node000012"><a xlink:href="classtracktion_1_1engine_1_1MackieMCU.html" target="_top" xlink:title=" ">
<polygon fill="#fff0f0" stroke="red" points="496.5,-1261 391.5,-1261 391.5,-1231 496.5,-1231 496.5,-1261"/>
<text text-anchor="start" x="399.5" y="-1249" font-family="Helvetica,sans-Serif" font-size="10.00">tracktion::engine::</text>
<text text-anchor="middle" x="444" y="-1238" font-family="Helvetica,sans-Serif" font-size="10.00">MackieMCU</text>
</a>
</g>
</g>
<!-- Node8&#45;&gt;Node12 -->
<g id="edge11_Node000008_Node000012" class="edge">
<title>Node8&#45;&gt;Node12</title>
<g id="a_edge11_Node000008_Node000012"><a xlink:title=" ">
<path fill="none" stroke="#63b8ff" d="M290.3,-1211.83C322.34,-1219 361.01,-1227.65 391.43,-1234.46"/>
<polygon fill="#63b8ff" stroke="#63b8ff" points="290.67,-1208.33 280.15,-1209.56 289.15,-1215.16 290.67,-1208.33"/>
</a>
</g>
</g>
<!-- Node14 -->
<g id="Node000014" class="node">
<title>Node14</title>
<g id="a_Node000014"><a xlink:href="classtracktion_1_1engine_1_1MackieXT.html" target="_top" xlink:title=" ">
<polygon fill="white" stroke="#666666" points="496.5,-1213 391.5,-1213 391.5,-1183 496.5,-1183 496.5,-1213"/>
<text text-anchor="start" x="399.5" y="-1201" font-family="Helvetica,sans-Serif" font-size="10.00">tracktion::engine::</text>
<text text-anchor="middle" x="444" y="-1190" font-family="Helvetica,sans-Serif" font-size="10.00">MackieXT</text>
</a>
</g>
</g>
<!-- Node8&#45;&gt;Node14 -->
<g id="edge12_Node000008_Node000014" class="edge">
<title>Node8&#45;&gt;Node14</title>
<g id="a_edge12_Node000008_Node000014"><a xlink:title=" ">
<path fill="none" stroke="#63b8ff" d="M290.3,-1198C322.34,-1198 361.01,-1198 391.43,-1198"/>
<polygon fill="#63b8ff" stroke="#63b8ff" points="290.15,-1194.5 280.15,-1198 290.15,-1201.5 290.15,-1194.5"/>
</a>
</g>
</g>
<!-- Node15 -->
<g id="Node000015" class="node">
<title>Node15</title>
<g id="a_Node000015"><a xlink:href="classtracktion_1_1engine_1_1NovationRemoteSl.html" target="_top" xlink:title=" ">
<polygon fill="#fff0f0" stroke="red" points="498,-1165 390,-1165 390,-1135 498,-1135 498,-1165"/>
<text text-anchor="start" x="398" y="-1153" font-family="Helvetica,sans-Serif" font-size="10.00">tracktion::engine::</text>
<text text-anchor="middle" x="444" y="-1142" font-family="Helvetica,sans-Serif" font-size="10.00">NovationRemoteSl</text>
</a>
</g>
</g>
<!-- Node8&#45;&gt;Node15 -->
<g id="edge13_Node000008_Node000015" class="edge">
<title>Node8&#45;&gt;Node15</title>
<g id="a_edge13_Node000008_Node000015"><a xlink:title=" ">
<path fill="none" stroke="#63b8ff" d="M290.15,-1184.2C321.69,-1177.15 359.71,-1168.64 389.93,-1161.88"/>
<polygon fill="#63b8ff" stroke="#63b8ff" points="289.15,-1180.84 280.15,-1186.44 290.67,-1187.67 289.15,-1180.84"/>
</a>
</g>
</g>
<!-- Node17 -->
<g id="Node000017" class="node">
<title>Node17</title>
<g id="a_Node000017"><a xlink:href="classtracktion_1_1engine_1_1TranzportControlSurface.html" target="_top" xlink:title=" ">
<polygon fill="white" stroke="#666666" points="511,-1117 377,-1117 377,-1087 511,-1087 511,-1117"/>
<text text-anchor="start" x="385" y="-1105" font-family="Helvetica,sans-Serif" font-size="10.00">tracktion::engine::</text>
<text text-anchor="middle" x="444" y="-1094" font-family="Helvetica,sans-Serif" font-size="10.00">TranzportControlSurface</text>
</a>
</g>
</g>
<!-- Node8&#45;&gt;Node17 -->
<g id="edge14_Node000008_Node000017" class="edge">
<title>Node8&#45;&gt;Node17</title>
<g id="a_edge14_Node000008_Node000017"><a xlink:title=" ">
<path fill="none" stroke="#63b8ff" d="M258.49,-1176.96C282.35,-1161.05 317.07,-1139.68 350,-1126 358.47,-1122.48 367.59,-1119.37 376.7,-1116.65"/>
<polygon fill="#63b8ff" stroke="#63b8ff" points="256.23,-1174.26 249.91,-1182.76 260.15,-1180.06 256.23,-1174.26"/>
</a>
</g>
</g>
<!-- Node19 -->
<g id="Node000019" class="node">
<title>Node19</title>
<g id="a_Node000019"><a xlink:href="classtracktion_1_1engine_1_1TempoSetting.html" target="_top" xlink:title="A tempo value, as used in a TempoSequence.">
<polygon fill="white" stroke="#666666" points="496.5,-1069 391.5,-1069 391.5,-1039 496.5,-1039 496.5,-1069"/>
<text text-anchor="start" x="399.5" y="-1057" font-family="Helvetica,sans-Serif" font-size="10.00">tracktion::engine::</text>
<text text-anchor="middle" x="444" y="-1046" font-family="Helvetica,sans-Serif" font-size="10.00">TempoSetting</text>
</a>
</g>
</g>
<!-- Node18&#45;&gt;Node19 -->
<g id="edge16_Node000018_Node000019" class="edge">
<title>Node18&#45;&gt;Node19</title>
<g id="a_edge16_Node000018_Node000019"><a xlink:title=" ">
<path fill="none" stroke="#63b8ff" d="M290.3,-1039.05C322.34,-1042.19 361.01,-1045.97 391.43,-1048.95"/>
<polygon fill="#63b8ff" stroke="#63b8ff" points="290.44,-1035.55 280.15,-1038.06 289.76,-1042.51 290.44,-1035.55"/>
</a>
</g>
</g>
<!-- Node22 -->
<g id="Node000022" class="node">
<title>Node22</title>
<g id="a_Node000022"><a xlink:href="classtracktion_1_1engine_1_1MidiInputDevice.html" target="_top" xlink:title=" ">
<polygon fill="#fff0f0" stroke="red" points="496.5,-1021 391.5,-1021 391.5,-991 496.5,-991 496.5,-1021"/>
<text text-anchor="start" x="399.5" y="-1009" font-family="Helvetica,sans-Serif" font-size="10.00">tracktion::engine::</text>
<text text-anchor="middle" x="444" y="-998" font-family="Helvetica,sans-Serif" font-size="10.00">MidiInputDevice</text>
</a>
</g>
</g>
<!-- Node21&#45;&gt;Node22 -->
<g id="edge19_Node000021_Node000022" class="edge">
<title>Node21&#45;&gt;Node22</title>
<g id="a_edge19_Node000021_Node000022"><a xlink:title=" ">
<path fill="none" stroke="#63b8ff" d="M289.61,-940.37C298.03,-943.35 306.4,-946.87 314,-951 332.55,-961.08 331.29,-972.22 350,-982 362.71,-988.64 377.37,-993.53 391.25,-997.1"/>
<polygon fill="#63b8ff" stroke="#63b8ff" points="290.69,-937.05 280.1,-937.24 288.5,-943.69 290.69,-937.05"/>
</a>
</g>
</g>
<!-- Node25 -->
<g id="Node000025" class="node">
<title>Node25</title>
<g id="a_Node000025"><a xlink:href="classtracktion_1_1engine_1_1WaveInputDevice.html" target="_top" xlink:title="A (virtual) audio input device.">
<polygon fill="white" stroke="#666666" points="496.5,-973 391.5,-973 391.5,-943 496.5,-943 496.5,-973"/>
<text text-anchor="start" x="399.5" y="-961" font-family="Helvetica,sans-Serif" font-size="10.00">tracktion::engine::</text>
<text text-anchor="middle" x="444" y="-950" font-family="Helvetica,sans-Serif" font-size="10.00">WaveInputDevice</text>
</a>
</g>
</g>
<!-- Node21&#45;&gt;Node25 -->
<g id="edge20_Node000021_Node000025" class="edge">
<title>Node21&#45;&gt;Node25</title>
<g id="a_edge20_Node000021_Node000025"><a xlink:title=" ">
<path fill="none" stroke="#63b8ff" d="M290.3,-935.22C322.34,-940 361.01,-945.77 391.43,-950.31"/>
<polygon fill="#63b8ff" stroke="#63b8ff" points="290.56,-931.72 280.15,-933.71 289.53,-938.64 290.56,-931.72"/>
</a>
</g>
</g>
<!-- Node27 -->
<g id="Node000027" class="node">
<title>Node27</title>
<g id="a_Node000027"><a xlink:href="structtracktion_1_1engine_1_1InputDeviceInstance_1_1MidiInputDestination.html" target="_top" xlink:title=" ">
<polygon fill="white" stroke="#666666" points="506.5,-924.5 381.5,-924.5 381.5,-883.5 506.5,-883.5 506.5,-924.5"/>
<text text-anchor="start" x="389.5" y="-912.5" font-family="Helvetica,sans-Serif" font-size="10.00">tracktion::engine::</text>
<text text-anchor="start" x="389.5" y="-901.5" font-family="Helvetica,sans-Serif" font-size="10.00">InputDeviceInstance</text>
<text text-anchor="middle" x="444" y="-890.5" font-family="Helvetica,sans-Serif" font-size="10.00">::MidiInputDestination</text>
</a>
</g>
</g>
<!-- Node26&#45;&gt;Node27 -->
<g id="edge22_Node000026_Node000027" class="edge">
<title>Node26&#45;&gt;Node27</title>
<g id="a_edge22_Node000026_Node000027"><a xlink:title=" ">
<path fill="none" stroke="#63b8ff" d="M295.61,-860.02C323.06,-868.21 354.6,-877.62 381.45,-885.63"/>
<polygon fill="#63b8ff" stroke="#63b8ff" points="296.28,-856.57 285.7,-857.07 294.28,-863.28 296.28,-856.57"/>
</a>
</g>
</g>
<!-- Node28 -->
<g id="Node000028" class="node">
<title>Node28</title>
<g id="a_Node000028"><a xlink:href="structtracktion_1_1engine_1_1InputDeviceInstance_1_1VirtualMidiInputDestination.html" target="_top" xlink:title=" ">
<polygon fill="white" stroke="#666666" points="522.5,-865.5 365.5,-865.5 365.5,-824.5 522.5,-824.5 522.5,-865.5"/>
<text text-anchor="start" x="373.5" y="-853.5" font-family="Helvetica,sans-Serif" font-size="10.00">tracktion::engine::</text>
<text text-anchor="start" x="373.5" y="-842.5" font-family="Helvetica,sans-Serif" font-size="10.00">InputDeviceInstance</text>
<text text-anchor="middle" x="444" y="-831.5" font-family="Helvetica,sans-Serif" font-size="10.00">::VirtualMidiInputDestination</text>
</a>
</g>
</g>
<!-- Node26&#45;&gt;Node28 -->
<g id="edge23_Node000026_Node000028" class="edge">
<title>Node26&#45;&gt;Node28</title>
<g id="a_edge23_Node000026_Node000028"><a xlink:title=" ">
<path fill="none" stroke="#63b8ff" d="M295.96,-841.57C318.01,-842.09 342.67,-842.66 365.4,-843.19"/>
<polygon fill="#63b8ff" stroke="#63b8ff" points="295.78,-838.07 285.7,-841.33 295.62,-845.07 295.78,-838.07"/>
</a>
</g>
</g>
<!-- Node29 -->
<g id="Node000029" class="node">
<title>Node29</title>
<g id="a_Node000029"><a xlink:href="structtracktion_1_1engine_1_1InputDeviceInstance_1_1WaveInputDestination.html" target="_top" xlink:title=" ">
<polygon fill="white" stroke="#666666" points="509.5,-806.5 378.5,-806.5 378.5,-765.5 509.5,-765.5 509.5,-806.5"/>
<text text-anchor="start" x="386.5" y="-794.5" font-family="Helvetica,sans-Serif" font-size="10.00">tracktion::engine::</text>
<text text-anchor="start" x="386.5" y="-783.5" font-family="Helvetica,sans-Serif" font-size="10.00">InputDeviceInstance</text>
<text text-anchor="middle" x="444" y="-772.5" font-family="Helvetica,sans-Serif" font-size="10.00">::WaveInputDestination</text>
</a>
</g>
</g>
<!-- Node26&#45;&gt;Node29 -->
<g id="edge24_Node000026_Node000029" class="edge">
<title>Node26&#45;&gt;Node29</title>
<g id="a_edge24_Node000026_Node000029"><a xlink:title=" ">
<path fill="none" stroke="#63b8ff" d="M295.62,-823.1C322.03,-816.45 352.23,-808.85 378.39,-802.27"/>
<polygon fill="#63b8ff" stroke="#63b8ff" points="294.54,-819.76 285.7,-825.6 296.25,-826.55 294.54,-819.76"/>
</a>
</g>
</g>
<!-- Node32 -->
<g id="Node000032" class="node">
<title>Node32</title>
<g id="a_Node000032"><a xlink:href="classtracktion_1_1engine_1_1BreakpointOscillatorModifier.html" target="_top" xlink:title=" ">
<polygon fill="white" stroke="#666666" points="522,-747 366,-747 366,-717 522,-717 522,-747"/>
<text text-anchor="start" x="374" y="-735" font-family="Helvetica,sans-Serif" font-size="10.00">tracktion::engine::</text>
<text text-anchor="middle" x="444" y="-724" font-family="Helvetica,sans-Serif" font-size="10.00">BreakpointOscillatorModifier</text>
</a>
</g>
</g>
<!-- Node31&#45;&gt;Node32 -->
<g id="edge27_Node000031_Node000032" class="edge">
<title>Node31&#45;&gt;Node32</title>
<g id="a_edge27_Node000031_Node000032"><a xlink:title=" ">
<path fill="none" stroke="#63b8ff" d="M290.35,-734.13C313.89,-733.81 341.01,-733.43 365.8,-733.08"/>
<polygon fill="#63b8ff" stroke="#63b8ff" points="290.1,-730.64 280.15,-734.28 290.2,-737.64 290.1,-730.64"/>
</a>
</g>
</g>
<!-- Node33 -->
<g id="Node000033" class="node">
<title>Node33</title>
<g id="a_Node000033"><a xlink:href="classtracktion_1_1engine_1_1EnvelopeFollowerModifier.html" target="_top" xlink:title=" ">
<polygon fill="white" stroke="#666666" points="515.5,-699 372.5,-699 372.5,-669 515.5,-669 515.5,-699"/>
<text text-anchor="start" x="380.5" y="-687" font-family="Helvetica,sans-Serif" font-size="10.00">tracktion::engine::</text>
<text text-anchor="middle" x="444" y="-676" font-family="Helvetica,sans-Serif" font-size="10.00">EnvelopeFollowerModifier</text>
</a>
</g>
</g>
<!-- Node31&#45;&gt;Node33 -->
<g id="edge28_Node000031_Node000033" class="edge">
<title>Node31&#45;&gt;Node33</title>
<g id="a_edge28_Node000031_Node000033"><a xlink:title=" ">
<path fill="none" stroke="#63b8ff" d="M290.22,-720.33C318.23,-713.67 351.32,-705.8 379.54,-699.09"/>
<polygon fill="#63b8ff" stroke="#63b8ff" points="289.07,-717 280.15,-722.72 290.69,-723.81 289.07,-717"/>
</a>
</g>
</g>
<!-- Node34 -->
<g id="Node000034" class="node">
<title>Node34</title>
<g id="a_Node000034"><a xlink:href="classtracktion_1_1engine_1_1LFOModifier.html" target="_top" xlink:title=" ">
<polygon fill="white" stroke="#666666" points="496.5,-651 391.5,-651 391.5,-621 496.5,-621 496.5,-651"/>
<text text-anchor="start" x="399.5" y="-639" font-family="Helvetica,sans-Serif" font-size="10.00">tracktion::engine::</text>
<text text-anchor="middle" x="444" y="-628" font-family="Helvetica,sans-Serif" font-size="10.00">LFOModifier</text>
</a>
</g>
</g>
<!-- Node31&#45;&gt;Node34 -->
<g id="edge29_Node000031_Node000034" class="edge">
<title>Node31&#45;&gt;Node34</title>
<g id="a_edge29_Node000031_Node000034"><a xlink:title=" ">
<path fill="none" stroke="#63b8ff" d="M289.98,-723.3C298.49,-720.13 306.77,-716.1 314,-711 336.66,-694.99 327.17,-675.77 350,-660 362.21,-651.57 377.17,-646.1 391.5,-642.55"/>
<polygon fill="#63b8ff" stroke="#63b8ff" points="288.7,-720.03 280.33,-726.52 290.92,-726.67 288.7,-720.03"/>
</a>
</g>
</g>
<!-- Node35 -->
<g id="Node000035" class="node">
<title>Node35</title>
<g id="a_Node000035"><a xlink:href="classtracktion_1_1engine_1_1MIDITrackerModifier.html" target="_top" xlink:title=" ">
<polygon fill="white" stroke="#666666" points="500.5,-603 387.5,-603 387.5,-573 500.5,-573 500.5,-603"/>
<text text-anchor="start" x="395.5" y="-591" font-family="Helvetica,sans-Serif" font-size="10.00">tracktion::engine::</text>
<text text-anchor="middle" x="444" y="-580" font-family="Helvetica,sans-Serif" font-size="10.00">MIDITrackerModifier</text>
</a>
</g>
</g>
<!-- Node31&#45;&gt;Node35 -->
<g id="edge30_Node000031_Node000035" class="edge">
<title>Node31&#45;&gt;Node35</title>
<g id="a_edge30_Node000031_Node000035"><a xlink:title=" ">
<path fill="none" stroke="#63b8ff" d="M289.77,-725.56C298.65,-722.1 307.11,-717.39 314,-711 348.33,-679.16 315.34,-643.48 350,-612 360.25,-602.7 373.62,-596.9 387.03,-593.32"/>
<polygon fill="#63b8ff" stroke="#63b8ff" points="288.37,-722.34 280.01,-728.86 290.61,-728.97 288.37,-722.34"/>
</a>
</g>
</g>
<!-- Node36 -->
<g id="Node000036" class="node">
<title>Node36</title>
<g id="a_Node000036"><a xlink:href="classtracktion_1_1engine_1_1RandomModifier.html" target="_top" xlink:title=" ">
<polygon fill="white" stroke="#666666" points="496.5,-555 391.5,-555 391.5,-525 496.5,-525 496.5,-555"/>
<text text-anchor="start" x="399.5" y="-543" font-family="Helvetica,sans-Serif" font-size="10.00">tracktion::engine::</text>
<text text-anchor="middle" x="444" y="-532" font-family="Helvetica,sans-Serif" font-size="10.00">RandomModifier</text>
</a>
</g>
</g>
<!-- Node31&#45;&gt;Node36 -->
<g id="edge31_Node000031_Node000036" class="edge">
<title>Node31&#45;&gt;Node36</title>
<g id="a_edge31_Node000031_Node000036"><a xlink:title=" ">
<path fill="none" stroke="#63b8ff" d="M289.79,-726.44C298.82,-722.88 307.32,-717.91 314,-711 360.76,-662.65 302.73,-611.86 350,-564 360.9,-552.97 376.15,-546.78 391.16,-543.38"/>
<polygon fill="#63b8ff" stroke="#63b8ff" points="288.59,-723.15 280.23,-729.66 290.83,-729.78 288.59,-723.15"/>
</a>
</g>
</g>
<!-- Node37 -->
<g id="Node000037" class="node">
<title>Node37</title>
<g id="a_Node000037"><a xlink:href="classtracktion_1_1engine_1_1StepModifier.html" target="_top" xlink:title=" ">
<polygon fill="white" stroke="#666666" points="496.5,-507 391.5,-507 391.5,-477 496.5,-477 496.5,-507"/>
<text text-anchor="start" x="399.5" y="-495" font-family="Helvetica,sans-Serif" font-size="10.00">tracktion::engine::</text>
<text text-anchor="middle" x="444" y="-484" font-family="Helvetica,sans-Serif" font-size="10.00">StepModifier</text>
</a>
</g>
</g>
<!-- Node31&#45;&gt;Node37 -->
<g id="edge32_Node000031_Node000037" class="edge">
<title>Node31&#45;&gt;Node37</title>
<g id="a_edge32_Node000031_Node000037"><a xlink:title=" ">
<path fill="none" stroke="#63b8ff" d="M289.81,-726.89C298.93,-723.28 307.44,-718.18 314,-711 373.42,-645.91 289.9,-580.46 350,-516 360.69,-504.54 376.07,-498.25 391.25,-494.9"/>
<polygon fill="#63b8ff" stroke="#63b8ff" points="288.52,-723.63 280.16,-730.14 290.75,-730.27 288.52,-723.63"/>
</a>
</g>
</g>
<!-- Node40 -->
<g id="Node000040" class="node">
<title>Node40</title>
<g id="a_Node000040"><a xlink:href="classtracktion_1_1engine_1_1MidiOutputDevice.html" target="_top" xlink:title=" ">
<polygon fill="#fff0f0" stroke="red" points="496.5,-459 391.5,-459 391.5,-429 496.5,-429 496.5,-459"/>
<text text-anchor="start" x="399.5" y="-447" font-family="Helvetica,sans-Serif" font-size="10.00">tracktion::engine::</text>
<text text-anchor="middle" x="444" y="-436" font-family="Helvetica,sans-Serif" font-size="10.00">MidiOutputDevice</text>
</a>
</g>
</g>
<!-- Node39&#45;&gt;Node40 -->
<g id="edge35_Node000039_Node000040" class="edge">
<title>Node39&#45;&gt;Node40</title>
<g id="a_edge35_Node000039_Node000040"><a xlink:title=" ">
<path fill="none" stroke="#63b8ff" d="M289.79,-630.44C298.82,-626.88 307.32,-621.91 314,-615 360.76,-566.65 302.73,-515.86 350,-468 360.9,-456.97 376.15,-450.78 391.16,-447.38"/>
<polygon fill="#63b8ff" stroke="#63b8ff" points="288.59,-627.15 280.23,-633.66 290.83,-633.78 288.59,-627.15"/>
</a>
</g>
</g>
</g>
</svg>
