<?xml version="1.0" encoding="UTF-8" standalone="no"?>
<!DOCTYPE svg PUBLIC "-//W3C//DTD SVG 1.1//EN"
 "http://www.w3.org/Graphics/SVG/1.1/DTD/svg11.dtd">
<!-- Generated by graphviz version 2.40.1 (20161225.0304)
 -->
<!-- Title: tracktion_engine::CompManager Pages: 1 -->
<svg width="310pt" height="95pt"
 viewBox="0.00 0.00 310.00 95.00" xmlns="http://www.w3.org/2000/svg" xmlns:xlink="http://www.w3.org/1999/xlink">
<g id="graph0" class="graph" transform="scale(1 1) rotate(0) translate(4 91)">
<title>tracktion_engine::CompManager</title>
<!-- Node0 -->
<g id="node1" class="node">
<title>Node0</title>
<polygon fill="#bfbfbf" stroke="#000000" points="70,-67.5 70,-86.5 228,-86.5 228,-67.5 70,-67.5"/>
<text text-anchor="middle" x="149" y="-74.5" font-family="Helvetica,sans-Serif" font-size="10.00" fill="#000000">tracktion_engine::CompManager</text>
</g>
<!-- Node1 -->
<g id="node2" class="node">
<title>Node1</title>
<g id="a_node2"><a xlink:href="classtracktion__engine_1_1MidiCompManager.html" target="_top" xlink:title="tracktion_engine::MidiComp\lManager">
<polygon fill="none" stroke="#000000" points="0,-.5 0,-30.5 138,-30.5 138,-.5 0,-.5"/>
<text text-anchor="start" x="8" y="-18.5" font-family="Helvetica,sans-Serif" font-size="10.00" fill="#000000">tracktion_engine::MidiComp</text>
<text text-anchor="middle" x="69" y="-7.5" font-family="Helvetica,sans-Serif" font-size="10.00" fill="#000000">Manager</text>
</a>
</g>
</g>
<!-- Node0&#45;&gt;Node1 -->
<g id="edge1" class="edge">
<title>Node0&#45;&gt;Node1</title>
<path fill="none" stroke="#191970" d="M128.237,-61.0385C115.9952,-51.6276 100.5982,-39.7911 88.5702,-30.5446"/>
<polygon fill="#191970" stroke="#191970" points="126.4387,-64.0707 136.5,-67.3906 130.7051,-58.521 126.4387,-64.0707"/>
</g>
<!-- Node2 -->
<g id="node3" class="node">
<title>Node2</title>
<g id="a_node3"><a xlink:href="classtracktion__engine_1_1WaveCompManager.html" target="_top" xlink:title="tracktion_engine::WaveComp\lManager">
<polygon fill="none" stroke="#000000" points="156,-.5 156,-30.5 302,-30.5 302,-.5 156,-.5"/>
<text text-anchor="start" x="164" y="-18.5" font-family="Helvetica,sans-Serif" font-size="10.00" fill="#000000">tracktion_engine::WaveComp</text>
<text text-anchor="middle" x="229" y="-7.5" font-family="Helvetica,sans-Serif" font-size="10.00" fill="#000000">Manager</text>
</a>
</g>
</g>
<!-- Node0&#45;&gt;Node2 -->
<g id="edge2" class="edge">
<title>Node0&#45;&gt;Node2</title>
<path fill="none" stroke="#191970" d="M169.763,-61.0385C182.0048,-51.6276 197.4018,-39.7911 209.4298,-30.5446"/>
<polygon fill="#191970" stroke="#191970" points="167.2949,-58.521 161.5,-67.3906 171.5613,-64.0707 167.2949,-58.521"/>
</g>
</g>
</svg>
