<?xml version="1.0" encoding="UTF-8" standalone="no"?>
<!DOCTYPE svg PUBLIC "-//W3C//DTD SVG 1.1//EN"
 "http://www.w3.org/Graphics/SVG/1.1/DTD/svg11.dtd">
<!-- Generated by graphviz version 2.43.0 (0)
 -->
<!-- Title: tracktion::engine::TracktionEngineNode Pages: 1 -->
<svg width="310pt" height="529pt"
 viewBox="0.00 0.00 310.00 529.00" xmlns="http://www.w3.org/2000/svg" xmlns:xlink="http://www.w3.org/1999/xlink">
<g id="graph0" class="graph" transform="scale(1 1) rotate(0) translate(4 525)">
<title>tracktion::engine::TracktionEngineNode</title>
<!-- Node1 -->
<g id="node1" class="node">
<title>Node1</title>
<g id="a_node1"><a xlink:title="Base class for Nodes that provides information about the current process call.">
<polygon fill="#bfbfbf" stroke="black" points="0,-245.5 0,-275.5 119,-275.5 119,-245.5 0,-245.5"/>
<text text-anchor="start" x="8" y="-263.5" font-family="Helvetica,sans-Serif" font-size="10.00">tracktion::engine::</text>
<text text-anchor="middle" x="59.5" y="-252.5" font-family="Helvetica,sans-Serif" font-size="10.00">TracktionEngineNode</text>
</a>
</g>
</g>
<!-- Node2 -->
<g id="node2" class="node">
<title>Node2</title>
<g id="a_node2"><a xlink:href="classtracktion_1_1engine_1_1CombiningNode.html" target="_top" xlink:title="An Node that mixes a sequence of clips of other nodes.">
<polygon fill="none" stroke="black" points="176,-490.5 176,-520.5 281,-520.5 281,-490.5 176,-490.5"/>
<text text-anchor="start" x="184" y="-508.5" font-family="Helvetica,sans-Serif" font-size="10.00">tracktion::engine::</text>
<text text-anchor="middle" x="228.5" y="-497.5" font-family="Helvetica,sans-Serif" font-size="10.00">CombiningNode</text>
</a>
</g>
</g>
<!-- Node1&#45;&gt;Node2 -->
<g id="edge1" class="edge">
<title>Node1&#45;&gt;Node2</title>
<path fill="none" stroke="midnightblue" d="M64.31,-285.45C72.55,-330.92 96.26,-427.52 155,-481.5 160.96,-486.97 168.19,-491.2 175.75,-494.46"/>
<polygon fill="midnightblue" stroke="midnightblue" points="67.75,-284.82 62.62,-275.55 60.85,-286 67.75,-284.82"/>
</g>
<!-- Node3 -->
<g id="node3" class="node">
<title>Node3</title>
<g id="a_node3"><a xlink:href="classtracktion_1_1engine_1_1FadeInOutNode.html" target="_top" xlink:title="A Node that fades in and out given time regions.">
<polygon fill="none" stroke="black" points="176,-441.5 176,-471.5 281,-471.5 281,-441.5 176,-441.5"/>
<text text-anchor="start" x="184" y="-459.5" font-family="Helvetica,sans-Serif" font-size="10.00">tracktion::engine::</text>
<text text-anchor="middle" x="228.5" y="-448.5" font-family="Helvetica,sans-Serif" font-size="10.00">FadeInOutNode</text>
</a>
</g>
</g>
<!-- Node1&#45;&gt;Node3 -->
<g id="edge2" class="edge">
<title>Node1&#45;&gt;Node3</title>
<path fill="none" stroke="midnightblue" d="M67.61,-285.15C79.57,-322.36 107.24,-392.76 155,-432.5 161.11,-437.59 168.35,-441.61 175.83,-444.79"/>
<polygon fill="midnightblue" stroke="midnightblue" points="70.94,-284.1 64.64,-275.58 64.26,-286.17 70.94,-284.1"/>
</g>
<!-- Node4 -->
<g id="node4" class="node">
<title>Node4</title>
<g id="a_node4"><a xlink:href="classtracktion_1_1engine_1_1LoopingMidiNode.html" target="_top" xlink:title="A Node that plays MIDI data from a MidiMessageSequence, at a specific MIDI channel.">
<polygon fill="none" stroke="black" points="176,-392.5 176,-422.5 281,-422.5 281,-392.5 176,-392.5"/>
<text text-anchor="start" x="184" y="-410.5" font-family="Helvetica,sans-Serif" font-size="10.00">tracktion::engine::</text>
<text text-anchor="middle" x="228.5" y="-399.5" font-family="Helvetica,sans-Serif" font-size="10.00">LoopingMidiNode</text>
</a>
</g>
</g>
<!-- Node1&#45;&gt;Node4 -->
<g id="edge3" class="edge">
<title>Node1&#45;&gt;Node4</title>
<path fill="none" stroke="midnightblue" d="M73.2,-284.74C88.89,-312.42 118.08,-357.27 155,-383.5 161.27,-387.95 168.42,-391.62 175.73,-394.63"/>
<polygon fill="midnightblue" stroke="midnightblue" points="76.12,-282.78 68.22,-275.72 69.99,-286.17 76.12,-282.78"/>
</g>
<!-- Node5 -->
<g id="node5" class="node">
<title>Node5</title>
<g id="a_node5"><a xlink:href="classtracktion_1_1engine_1_1MidiCombiningNode.html" target="_top" xlink:title="A Node that mixes a sequence of clips of other nodes.">
<polygon fill="none" stroke="black" points="170.5,-343.5 170.5,-373.5 286.5,-373.5 286.5,-343.5 170.5,-343.5"/>
<text text-anchor="start" x="178.5" y="-361.5" font-family="Helvetica,sans-Serif" font-size="10.00">tracktion::engine::</text>
<text text-anchor="middle" x="228.5" y="-350.5" font-family="Helvetica,sans-Serif" font-size="10.00">MidiCombiningNode</text>
</a>
</g>
</g>
<!-- Node1&#45;&gt;Node5 -->
<g id="edge4" class="edge">
<title>Node1&#45;&gt;Node5</title>
<path fill="none" stroke="midnightblue" d="M84.1,-282.77C102.3,-298.96 128.72,-320.42 155,-334.5 161.19,-337.82 167.93,-340.79 174.72,-343.42"/>
<polygon fill="midnightblue" stroke="midnightblue" points="86.11,-279.87 76.35,-275.75 81.41,-285.05 86.11,-279.87"/>
</g>
<!-- Node6 -->
<g id="node6" class="node">
<title>Node6</title>
<g id="a_node6"><a xlink:href="classtracktion_1_1engine_1_1MidiNode.html" target="_top" xlink:title="A Node that plays MIDI data from a MidiMessageSequence, at a specific MIDI channel.">
<polygon fill="none" stroke="black" points="176,-294.5 176,-324.5 281,-324.5 281,-294.5 176,-294.5"/>
<text text-anchor="start" x="184" y="-312.5" font-family="Helvetica,sans-Serif" font-size="10.00">tracktion::engine::</text>
<text text-anchor="middle" x="228.5" y="-301.5" font-family="Helvetica,sans-Serif" font-size="10.00">MidiNode</text>
</a>
</g>
</g>
<!-- Node1&#45;&gt;Node6 -->
<g id="edge5" class="edge">
<title>Node1&#45;&gt;Node6</title>
<path fill="none" stroke="midnightblue" d="M121.73,-278.47C139.63,-283.72 158.99,-289.4 176.2,-294.45"/>
<polygon fill="midnightblue" stroke="midnightblue" points="122.55,-275.06 111.97,-275.6 120.58,-281.78 122.55,-275.06"/>
</g>
<!-- Node7 -->
<g id="node7" class="node">
<title>Node7</title>
<g id="a_node7"><a xlink:href="classtracktion_1_1engine_1_1PlayHeadPositionNode.html" target="_top" xlink:title="A Node that calculates a position to show visually what time is currently being processed by the grap...">
<polygon fill="none" stroke="black" points="164.5,-245.5 164.5,-275.5 292.5,-275.5 292.5,-245.5 164.5,-245.5"/>
<text text-anchor="start" x="172.5" y="-263.5" font-family="Helvetica,sans-Serif" font-size="10.00">tracktion::engine::</text>
<text text-anchor="middle" x="228.5" y="-252.5" font-family="Helvetica,sans-Serif" font-size="10.00">PlayHeadPositionNode</text>
</a>
</g>
</g>
<!-- Node1&#45;&gt;Node7 -->
<g id="edge6" class="edge">
<title>Node1&#45;&gt;Node7</title>
<path fill="none" stroke="midnightblue" d="M129.42,-260.5C140.98,-260.5 152.93,-260.5 164.34,-260.5"/>
<polygon fill="midnightblue" stroke="midnightblue" points="129.38,-257 119.38,-260.5 129.38,-264 129.38,-257"/>
</g>
<!-- Node8 -->
<g id="node8" class="node">
<title>Node8</title>
<g id="a_node8"><a xlink:href="classtracktion_1_1engine_1_1PluginNode.html" target="_top" xlink:title="Node for processing a plugin.">
<polygon fill="none" stroke="black" points="176,-196.5 176,-226.5 281,-226.5 281,-196.5 176,-196.5"/>
<text text-anchor="start" x="184" y="-214.5" font-family="Helvetica,sans-Serif" font-size="10.00">tracktion::engine::</text>
<text text-anchor="middle" x="228.5" y="-203.5" font-family="Helvetica,sans-Serif" font-size="10.00">PluginNode</text>
</a>
</g>
</g>
<!-- Node1&#45;&gt;Node8 -->
<g id="edge7" class="edge">
<title>Node1&#45;&gt;Node8</title>
<path fill="none" stroke="midnightblue" d="M121.73,-242.53C139.63,-237.28 158.99,-231.6 176.2,-226.55"/>
<polygon fill="midnightblue" stroke="midnightblue" points="120.58,-239.22 111.97,-245.4 122.55,-245.94 120.58,-239.22"/>
</g>
<!-- Node9 -->
<g id="node9" class="node">
<title>Node9</title>
<g id="a_node9"><a xlink:href="classtracktion_1_1engine_1_1SpeedRampWaveNode.html" target="_top" xlink:title="An Node that plays back a wave file.">
<polygon fill="none" stroke="black" points="164.5,-147.5 164.5,-177.5 292.5,-177.5 292.5,-147.5 164.5,-147.5"/>
<text text-anchor="start" x="172.5" y="-165.5" font-family="Helvetica,sans-Serif" font-size="10.00">tracktion::engine::</text>
<text text-anchor="middle" x="228.5" y="-154.5" font-family="Helvetica,sans-Serif" font-size="10.00">SpeedRampWaveNode</text>
</a>
</g>
</g>
<!-- Node1&#45;&gt;Node9 -->
<g id="edge8" class="edge">
<title>Node1&#45;&gt;Node9</title>
<path fill="none" stroke="midnightblue" d="M84.53,-238.36C102.77,-222.48 129.05,-201.5 155,-187.5 161.91,-183.77 169.49,-180.43 177.06,-177.5"/>
<polygon fill="midnightblue" stroke="midnightblue" points="81.92,-236 76.75,-245.25 86.56,-241.24 81.92,-236"/>
</g>
<!-- Node10 -->
<g id="node10" class="node">
<title>Node10</title>
<g id="a_node10"><a xlink:href="classtracktion_1_1engine_1_1TrackMidiInputDeviceNode.html" target="_top" xlink:title="A Node that takes MIDI from the output of a track and sends it to its corresponding InputDevice.">
<polygon fill="none" stroke="black" points="155,-98.5 155,-128.5 302,-128.5 302,-98.5 155,-98.5"/>
<text text-anchor="start" x="163" y="-116.5" font-family="Helvetica,sans-Serif" font-size="10.00">tracktion::engine::</text>
<text text-anchor="middle" x="228.5" y="-105.5" font-family="Helvetica,sans-Serif" font-size="10.00">TrackMidiInputDeviceNode</text>
</a>
</g>
</g>
<!-- Node1&#45;&gt;Node10 -->
<g id="edge9" class="edge">
<title>Node1&#45;&gt;Node10</title>
<path fill="none" stroke="#8b1a1a" d="M73.31,-236.54C89.09,-209.16 118.38,-164.75 155,-138.5 160.3,-134.7 166.23,-131.44 172.35,-128.65"/>
<polygon fill="#8b1a1a" stroke="#8b1a1a" points="70.14,-235.03 68.3,-245.46 76.25,-238.46 70.14,-235.03"/>
</g>
<!-- Node11 -->
<g id="node11" class="node">
<title>Node11</title>
<g id="a_node11"><a xlink:href="classtracktion_1_1engine_1_1WaveNode.html" target="_top" xlink:title="An Node that plays back a wave file.">
<polygon fill="none" stroke="black" points="176,-49.5 176,-79.5 281,-79.5 281,-49.5 176,-49.5"/>
<text text-anchor="start" x="184" y="-67.5" font-family="Helvetica,sans-Serif" font-size="10.00">tracktion::engine::</text>
<text text-anchor="middle" x="228.5" y="-56.5" font-family="Helvetica,sans-Serif" font-size="10.00">WaveNode</text>
</a>
</g>
</g>
<!-- Node1&#45;&gt;Node11 -->
<g id="edge10" class="edge">
<title>Node1&#45;&gt;Node11</title>
<path fill="none" stroke="midnightblue" d="M67.95,-235.32C80.19,-198.22 107.97,-129.03 155,-89.5 161.12,-84.36 168.35,-80.26 175.83,-76.98"/>
<polygon fill="midnightblue" stroke="midnightblue" points="64.47,-234.71 64.78,-245.3 71.15,-236.83 64.47,-234.71"/>
</g>
<!-- Node12 -->
<g id="node12" class="node">
<title>Node12</title>
<g id="a_node12"><a xlink:href="classtracktion_1_1engine_1_1WaveNodeRealTime.html" target="_top" xlink:title="An Node that plays back a wave file.">
<polygon fill="none" stroke="black" points="170.5,-0.5 170.5,-30.5 286.5,-30.5 286.5,-0.5 170.5,-0.5"/>
<text text-anchor="start" x="178.5" y="-18.5" font-family="Helvetica,sans-Serif" font-size="10.00">tracktion::engine::</text>
<text text-anchor="middle" x="228.5" y="-7.5" font-family="Helvetica,sans-Serif" font-size="10.00">WaveNodeRealTime</text>
</a>
</g>
</g>
<!-- Node1&#45;&gt;Node12 -->
<g id="edge11" class="edge">
<title>Node1&#45;&gt;Node12</title>
<path fill="none" stroke="midnightblue" d="M64.47,-235.4C72.93,-190.11 96.92,-94.46 155,-40.5 159.49,-36.33 164.7,-32.85 170.24,-29.95"/>
<polygon fill="midnightblue" stroke="midnightblue" points="61.02,-234.81 62.73,-245.27 67.91,-236.03 61.02,-234.81"/>
</g>
</g>
</svg>
