<?xml version="1.0" encoding="UTF-8" standalone="no"?>
<!DOCTYPE svg PUBLIC "-//W3C//DTD SVG 1.1//EN"
 "http://www.w3.org/Graphics/SVG/1.1/DTD/svg11.dtd">
<!-- Generated by graphviz version 2.40.1 (20161225.0304)
 -->
<!-- Title: tracktion_engine::WarpTimeRenderJob Pages: 1 -->
<svg width="147pt" height="173pt"
 viewBox="0.00 0.00 147.00 173.00" xmlns="http://www.w3.org/2000/svg" xmlns:xlink="http://www.w3.org/1999/xlink">
<g id="graph0" class="graph" transform="scale(1 1) rotate(0) translate(4 169)">
<title>tracktion_engine::WarpTimeRenderJob</title>
<!-- Node0 -->
<g id="node1" class="node">
<title>Node0</title>
<polygon fill="#bfbfbf" stroke="#000000" points="0,-.5 0,-30.5 139,-30.5 139,-.5 0,-.5"/>
<text text-anchor="start" x="8" y="-18.5" font-family="Helvetica,sans-Serif" font-size="10.00" fill="#000000">tracktion_engine::WarpTime</text>
<text text-anchor="middle" x="69.5" y="-7.5" font-family="Helvetica,sans-Serif" font-size="10.00" fill="#000000">RenderJob</text>
</g>
<!-- Node1 -->
<g id="node2" class="node">
<title>Node1</title>
<g id="a_node2"><a xlink:href="classtracktion__engine_1_1RenderManager_1_1Job.html" target="_top" xlink:title="The base class that all generator jobs derive from. ">
<polygon fill="none" stroke="#000000" points="7,-67.5 7,-97.5 132,-97.5 132,-67.5 7,-67.5"/>
<text text-anchor="start" x="15" y="-85.5" font-family="Helvetica,sans-Serif" font-size="10.00" fill="#000000">tracktion_engine::Render</text>
<text text-anchor="middle" x="69.5" y="-74.5" font-family="Helvetica,sans-Serif" font-size="10.00" fill="#000000">Manager::Job</text>
</a>
</g>
</g>
<!-- Node1&#45;&gt;Node0 -->
<g id="edge1" class="edge">
<title>Node1&#45;&gt;Node0</title>
<path fill="none" stroke="#191970" d="M69.5,-57.0249C69.5,-48.128 69.5,-38.4287 69.5,-30.6432"/>
<polygon fill="#191970" stroke="#191970" points="66.0001,-57.2966 69.5,-67.2967 73.0001,-57.2967 66.0001,-57.2966"/>
</g>
<!-- Node2 -->
<g id="node3" class="node">
<title>Node2</title>
<g id="a_node3"><a xlink:href="classtracktion__engine_1_1ThreadPoolJobWithProgress.html" target="_top" xlink:title="tracktion_engine::Thread\lPoolJobWithProgress">
<polygon fill="none" stroke="#000000" points="7.5,-134.5 7.5,-164.5 131.5,-164.5 131.5,-134.5 7.5,-134.5"/>
<text text-anchor="start" x="15.5" y="-152.5" font-family="Helvetica,sans-Serif" font-size="10.00" fill="#000000">tracktion_engine::Thread</text>
<text text-anchor="middle" x="69.5" y="-141.5" font-family="Helvetica,sans-Serif" font-size="10.00" fill="#000000">PoolJobWithProgress</text>
</a>
</g>
</g>
<!-- Node2&#45;&gt;Node1 -->
<g id="edge2" class="edge">
<title>Node2&#45;&gt;Node1</title>
<path fill="none" stroke="#191970" d="M69.5,-124.0249C69.5,-115.128 69.5,-105.4287 69.5,-97.6432"/>
<polygon fill="#191970" stroke="#191970" points="66.0001,-124.2966 69.5,-134.2967 73.0001,-124.2967 66.0001,-124.2966"/>
</g>
</g>
</svg>
