<?xml version="1.0" encoding="UTF-8" standalone="no"?>
<!DOCTYPE svg PUBLIC "-//W3C//DTD SVG 1.1//EN"
 "http://www.w3.org/Graphics/SVG/1.1/DTD/svg11.dtd">
<!-- Generated by graphviz version 2.40.1 (20161225.0304)
 -->
<!-- Title: tracktion_engine::MacroParameter Pages: 1 -->
<svg width="535pt" height="88pt"
 viewBox="0.00 0.00 535.00 88.00" xmlns="http://www.w3.org/2000/svg" xmlns:xlink="http://www.w3.org/1999/xlink">
<g id="graph0" class="graph" transform="scale(1 1) rotate(0) translate(4 84)">
<title>tracktion_engine::MacroParameter</title>
<!-- Node0 -->
<g id="node1" class="node">
<title>Node0</title>
<polygon fill="#bfbfbf" stroke="#000000" points="361,-30 361,-49 527,-49 527,-30 361,-30"/>
<text text-anchor="middle" x="444" y="-37" font-family="Helvetica,sans-Serif" font-size="10.00" fill="#000000">tracktion_engine::MacroParameter</text>
</g>
<!-- Node1 -->
<g id="node2" class="node">
<title>Node1</title>
<g id="a_node2"><a xlink:href="classtracktion__engine_1_1AutomatableParameter.html" target="_top" xlink:title="tracktion_engine::Automatable\lParameter">
<polygon fill="none" stroke="#000000" points="176,-49.5 176,-79.5 325,-79.5 325,-49.5 176,-49.5"/>
<text text-anchor="start" x="184" y="-67.5" font-family="Helvetica,sans-Serif" font-size="10.00" fill="#000000">tracktion_engine::Automatable</text>
<text text-anchor="middle" x="250.5" y="-56.5" font-family="Helvetica,sans-Serif" font-size="10.00" fill="#000000">Parameter</text>
</a>
</g>
</g>
<!-- Node1&#45;&gt;Node0 -->
<g id="edge1" class="edge">
<title>Node1&#45;&gt;Node0</title>
<path fill="none" stroke="#191970" d="M335.2629,-53.5487C346.9912,-52.0334 358.9582,-50.4873 370.4601,-49.0013"/>
<polygon fill="#191970" stroke="#191970" points="334.5044,-50.1175 325.0354,-54.8701 335.4014,-57.0598 334.5044,-50.1175"/>
</g>
<!-- Node2 -->
<g id="node3" class="node">
<title>Node2</title>
<g id="a_node3"><a xlink:href="classtracktion__engine_1_1Selectable.html" target="_top" xlink:title="Base class for things that can be selected, and whose properties can appear in the properties panel...">
<polygon fill="none" stroke="#000000" points="0,-55 0,-74 140,-74 140,-55 0,-55"/>
<text text-anchor="middle" x="70" y="-62" font-family="Helvetica,sans-Serif" font-size="10.00" fill="#000000">tracktion_engine::Selectable</text>
</a>
</g>
</g>
<!-- Node2&#45;&gt;Node1 -->
<g id="edge2" class="edge">
<title>Node2&#45;&gt;Node1</title>
<path fill="none" stroke="#191970" d="M150.284,-64.5C158.7433,-64.5 167.3209,-64.5 175.7146,-64.5"/>
<polygon fill="#191970" stroke="#191970" points="150.0444,-61.0001 140.0444,-64.5 150.0443,-68.0001 150.0444,-61.0001"/>
</g>
<!-- Node3 -->
<g id="node4" class="node">
<title>Node3</title>
<g id="a_node4"><a xlink:href="structtracktion__engine_1_1AutomatableParameter_1_1ModifierSource.html" target="_top" xlink:title="Base class for things that can be used to modify parameters. ">
<polygon fill="none" stroke="#000000" points="176,-.5 176,-30.5 325,-30.5 325,-.5 176,-.5"/>
<text text-anchor="start" x="184" y="-18.5" font-family="Helvetica,sans-Serif" font-size="10.00" fill="#000000">tracktion_engine::Automatable</text>
<text text-anchor="middle" x="250.5" y="-7.5" font-family="Helvetica,sans-Serif" font-size="10.00" fill="#000000">Parameter::ModifierSource</text>
</a>
</g>
</g>
<!-- Node3&#45;&gt;Node0 -->
<g id="edge3" class="edge">
<title>Node3&#45;&gt;Node0</title>
<path fill="none" stroke="#191970" d="M335.1868,-26.0038C345.8564,-27.3271 356.7248,-28.6752 367.262,-29.9821"/>
<polygon fill="#191970" stroke="#191970" points="335.3902,-22.5023 325.0354,-24.7447 334.5285,-29.449 335.3902,-22.5023"/>
</g>
</g>
</svg>
