<?xml version="1.0" encoding="UTF-8" standalone="no"?>
<!DOCTYPE svg PUBLIC "-//W3C//DTD SVG 1.1//EN"
 "http://www.w3.org/Graphics/SVG/1.1/DTD/svg11.dtd">
<!-- Generated by graphviz version 2.43.0 (0)
 -->
<!-- Title: tracktion::engine::MacroParameterElement Pages: 1 -->
<svg width="458pt" height="1313pt"
 viewBox="0.00 0.00 458.00 1313.00" xmlns="http://www.w3.org/2000/svg" xmlns:xlink="http://www.w3.org/1999/xlink">
<g id="graph0" class="graph" transform="scale(1 1) rotate(0) translate(4 1309)">
<title>tracktion::engine::MacroParameterElement</title>
<!-- Node1 -->
<g id="node1" class="node">
<title>Node1</title>
<g id="a_node1"><a xlink:title="Base class for elements which can contain macro parameters.">
<polygon fill="#bfbfbf" stroke="black" points="0,-661.5 0,-691.5 137,-691.5 137,-661.5 0,-661.5"/>
<text text-anchor="start" x="8" y="-679.5" font-family="Helvetica,sans-Serif" font-size="10.00">tracktion::engine::</text>
<text text-anchor="middle" x="68.5" y="-668.5" font-family="Helvetica,sans-Serif" font-size="10.00">MacroParameterElement</text>
</a>
</g>
</g>
<!-- Node2 -->
<g id="node2" class="node">
<title>Node2</title>
<g id="a_node2"><a xlink:href="classtracktion_1_1engine_1_1AudioTrack.html" target="_top" xlink:title=" ">
<polygon fill="none" stroke="black" points="174.5,-735.5 174.5,-765.5 279.5,-765.5 279.5,-735.5 174.5,-735.5"/>
<text text-anchor="start" x="182.5" y="-753.5" font-family="Helvetica,sans-Serif" font-size="10.00">tracktion::engine::</text>
<text text-anchor="middle" x="227" y="-742.5" font-family="Helvetica,sans-Serif" font-size="10.00">AudioTrack</text>
</a>
</g>
</g>
<!-- Node1&#45;&gt;Node2 -->
<g id="edge1" class="edge">
<title>Node1&#45;&gt;Node2</title>
<path fill="none" stroke="midnightblue" d="M109.26,-695.99C128.47,-705.34 151.87,-716.62 173,-726.5 179.22,-729.41 185.88,-732.47 192.3,-735.39"/>
<polygon fill="midnightblue" stroke="midnightblue" points="110.72,-692.81 100.2,-691.58 107.66,-699.1 110.72,-692.81"/>
</g>
<!-- Node3 -->
<g id="node3" class="node">
<title>Node3</title>
<g id="a_node3"><a xlink:href="structtracktion_1_1engine_1_1Edit_1_1GlobalMacros.html" target="_top" xlink:title="Holds the global Macros for the Edit.">
<polygon fill="none" stroke="black" points="173,-686.5 173,-716.5 281,-716.5 281,-686.5 173,-686.5"/>
<text text-anchor="start" x="181" y="-704.5" font-family="Helvetica,sans-Serif" font-size="10.00">tracktion::engine::</text>
<text text-anchor="middle" x="227" y="-693.5" font-family="Helvetica,sans-Serif" font-size="10.00">Edit::GlobalMacros</text>
</a>
</g>
</g>
<!-- Node1&#45;&gt;Node3 -->
<g id="edge2" class="edge">
<title>Node1&#45;&gt;Node3</title>
<path fill="none" stroke="midnightblue" d="M147.32,-688.93C155.94,-690.31 164.57,-691.69 172.78,-693"/>
<polygon fill="midnightblue" stroke="midnightblue" points="147.66,-685.44 137.23,-687.32 146.56,-692.35 147.66,-685.44"/>
</g>
<!-- Node4 -->
<g id="node4" class="node">
<title>Node4</title>
<g id="a_node4"><a xlink:href="classtracktion_1_1engine_1_1Plugin.html" target="_top" xlink:title=" ">
<polygon fill="none" stroke="black" points="174.5,-637.5 174.5,-667.5 279.5,-667.5 279.5,-637.5 174.5,-637.5"/>
<text text-anchor="start" x="182.5" y="-655.5" font-family="Helvetica,sans-Serif" font-size="10.00">tracktion::engine::</text>
<text text-anchor="middle" x="227" y="-644.5" font-family="Helvetica,sans-Serif" font-size="10.00">Plugin</text>
</a>
</g>
</g>
<!-- Node1&#45;&gt;Node4 -->
<g id="edge3" class="edge">
<title>Node1&#45;&gt;Node4</title>
<path fill="none" stroke="midnightblue" d="M147.16,-664.59C156.33,-663.18 165.52,-661.78 174.21,-660.44"/>
<polygon fill="midnightblue" stroke="midnightblue" points="146.59,-661.14 137.23,-666.11 147.65,-668.06 146.59,-661.14"/>
</g>
<!-- Node32 -->
<g id="node32" class="node">
<title>Node32</title>
<g id="a_node32"><a xlink:href="classtracktion_1_1engine_1_1RackType.html" target="_top" xlink:title=" ">
<polygon fill="none" stroke="black" points="174.5,-588.5 174.5,-618.5 279.5,-618.5 279.5,-588.5 174.5,-588.5"/>
<text text-anchor="start" x="182.5" y="-606.5" font-family="Helvetica,sans-Serif" font-size="10.00">tracktion::engine::</text>
<text text-anchor="middle" x="227" y="-595.5" font-family="Helvetica,sans-Serif" font-size="10.00">RackType</text>
</a>
</g>
</g>
<!-- Node1&#45;&gt;Node32 -->
<g id="edge31" class="edge">
<title>Node1&#45;&gt;Node32</title>
<path fill="none" stroke="midnightblue" d="M111.11,-657.09C136.96,-645.03 169.7,-629.76 193.61,-618.61"/>
<polygon fill="midnightblue" stroke="midnightblue" points="109.51,-653.98 101.93,-661.37 112.47,-660.32 109.51,-653.98"/>
</g>
<!-- Node5 -->
<g id="node5" class="node">
<title>Node5</title>
<g id="a_node5"><a xlink:href="classtracktion_1_1engine_1_1AirWindowsPlugin.html" target="_top" xlink:title=" ">
<polygon fill="none" stroke="black" points="331,-1274.5 331,-1304.5 436,-1304.5 436,-1274.5 331,-1274.5"/>
<text text-anchor="start" x="339" y="-1292.5" font-family="Helvetica,sans-Serif" font-size="10.00">tracktion::engine::</text>
<text text-anchor="middle" x="383.5" y="-1281.5" font-family="Helvetica,sans-Serif" font-size="10.00">AirWindowsPlugin</text>
</a>
</g>
</g>
<!-- Node4&#45;&gt;Node5 -->
<g id="edge4" class="edge">
<title>Node4&#45;&gt;Node5</title>
<path fill="none" stroke="midnightblue" d="M278.61,-674.37C279.46,-675.37 280.26,-676.41 281,-677.5 354.44,-785.87 238.78,-1160.52 317,-1265.5 320.69,-1270.45 325.51,-1274.38 330.86,-1277.51"/>
<polygon fill="midnightblue" stroke="midnightblue" points="280.91,-671.73 271.18,-667.55 276.18,-676.89 280.91,-671.73"/>
</g>
<!-- Node6 -->
<g id="node6" class="node">
<title>Node6</title>
<g id="a_node6"><a xlink:href="classtracktion_1_1engine_1_1AuxReturnPlugin.html" target="_top" xlink:title=" ">
<polygon fill="none" stroke="black" points="331,-1225.5 331,-1255.5 436,-1255.5 436,-1225.5 331,-1225.5"/>
<text text-anchor="start" x="339" y="-1243.5" font-family="Helvetica,sans-Serif" font-size="10.00">tracktion::engine::</text>
<text text-anchor="middle" x="383.5" y="-1232.5" font-family="Helvetica,sans-Serif" font-size="10.00">AuxReturnPlugin</text>
</a>
</g>
</g>
<!-- Node4&#45;&gt;Node6 -->
<g id="edge5" class="edge">
<title>Node4&#45;&gt;Node6</title>
<path fill="none" stroke="midnightblue" d="M278.6,-674.37C279.46,-675.37 280.26,-676.41 281,-677.5 348.62,-776.69 245.01,-1120.44 317,-1216.5 320.7,-1221.44 325.53,-1225.37 330.89,-1228.49"/>
<polygon fill="midnightblue" stroke="midnightblue" points="280.9,-671.73 271.16,-667.56 276.17,-676.9 280.9,-671.73"/>
</g>
<!-- Node7 -->
<g id="node7" class="node">
<title>Node7</title>
<g id="a_node7"><a xlink:href="classtracktion_1_1engine_1_1AuxSendPlugin.html" target="_top" xlink:title=" ">
<polygon fill="none" stroke="black" points="331,-1176.5 331,-1206.5 436,-1206.5 436,-1176.5 331,-1176.5"/>
<text text-anchor="start" x="339" y="-1194.5" font-family="Helvetica,sans-Serif" font-size="10.00">tracktion::engine::</text>
<text text-anchor="middle" x="383.5" y="-1183.5" font-family="Helvetica,sans-Serif" font-size="10.00">AuxSendPlugin</text>
</a>
</g>
</g>
<!-- Node4&#45;&gt;Node7 -->
<g id="edge6" class="edge">
<title>Node4&#45;&gt;Node7</title>
<path fill="none" stroke="midnightblue" d="M278.59,-674.38C279.45,-675.38 280.25,-676.41 281,-677.5 342.8,-767.51 251.23,-1080.35 317,-1167.5 320.72,-1172.43 325.56,-1176.35 330.92,-1179.46"/>
<polygon fill="midnightblue" stroke="midnightblue" points="280.88,-671.73 271.13,-667.58 276.17,-676.9 280.88,-671.73"/>
</g>
<!-- Node8 -->
<g id="node8" class="node">
<title>Node8</title>
<g id="a_node8"><a xlink:href="classtracktion_1_1engine_1_1ChorusPlugin.html" target="_top" xlink:title=" ">
<polygon fill="none" stroke="black" points="331,-1127.5 331,-1157.5 436,-1157.5 436,-1127.5 331,-1127.5"/>
<text text-anchor="start" x="339" y="-1145.5" font-family="Helvetica,sans-Serif" font-size="10.00">tracktion::engine::</text>
<text text-anchor="middle" x="383.5" y="-1134.5" font-family="Helvetica,sans-Serif" font-size="10.00">ChorusPlugin</text>
</a>
</g>
</g>
<!-- Node4&#45;&gt;Node8 -->
<g id="edge7" class="edge">
<title>Node4&#45;&gt;Node8</title>
<path fill="none" stroke="midnightblue" d="M278.58,-674.39C279.44,-675.38 280.25,-676.42 281,-677.5 336.98,-758.33 257.45,-1040.25 317,-1118.5 320.74,-1123.42 325.59,-1127.32 330.96,-1130.43"/>
<polygon fill="midnightblue" stroke="midnightblue" points="280.86,-671.73 271.1,-667.6 276.16,-676.91 280.86,-671.73"/>
</g>
<!-- Node9 -->
<g id="node9" class="node">
<title>Node9</title>
<g id="a_node9"><a xlink:href="classtracktion_1_1engine_1_1CompressorPlugin.html" target="_top" xlink:title=" ">
<polygon fill="none" stroke="black" points="331,-1078.5 331,-1108.5 436,-1108.5 436,-1078.5 331,-1078.5"/>
<text text-anchor="start" x="339" y="-1096.5" font-family="Helvetica,sans-Serif" font-size="10.00">tracktion::engine::</text>
<text text-anchor="middle" x="383.5" y="-1085.5" font-family="Helvetica,sans-Serif" font-size="10.00">CompressorPlugin</text>
</a>
</g>
</g>
<!-- Node4&#45;&gt;Node9 -->
<g id="edge8" class="edge">
<title>Node4&#45;&gt;Node9</title>
<path fill="none" stroke="midnightblue" d="M278.57,-674.4C279.43,-675.39 280.25,-676.42 281,-677.5 331.17,-749.16 263.67,-1000.16 317,-1069.5 320.69,-1074.3 325.44,-1078.14 330.69,-1081.21"/>
<polygon fill="midnightblue" stroke="midnightblue" points="280.83,-671.73 271.06,-667.63 276.14,-676.93 280.83,-671.73"/>
</g>
<!-- Node10 -->
<g id="node10" class="node">
<title>Node10</title>
<g id="a_node10"><a xlink:href="classtracktion_1_1engine_1_1DelayPlugin.html" target="_top" xlink:title=" ">
<polygon fill="none" stroke="black" points="331,-1029.5 331,-1059.5 436,-1059.5 436,-1029.5 331,-1029.5"/>
<text text-anchor="start" x="339" y="-1047.5" font-family="Helvetica,sans-Serif" font-size="10.00">tracktion::engine::</text>
<text text-anchor="middle" x="383.5" y="-1036.5" font-family="Helvetica,sans-Serif" font-size="10.00">DelayPlugin</text>
</a>
</g>
</g>
<!-- Node4&#45;&gt;Node10 -->
<g id="edge9" class="edge">
<title>Node4&#45;&gt;Node10</title>
<path fill="none" stroke="midnightblue" d="M278.55,-674.41C279.42,-675.4 280.24,-676.43 281,-677.5 369.73,-802.49 222.77,-899.6 317,-1020.5 320.72,-1025.28 325.49,-1029.1 330.75,-1032.17"/>
<polygon fill="midnightblue" stroke="midnightblue" points="280.8,-671.73 271.01,-667.66 276.13,-676.94 280.8,-671.73"/>
</g>
<!-- Node11 -->
<g id="node11" class="node">
<title>Node11</title>
<g id="a_node11"><a xlink:href="classtracktion_1_1engine_1_1EqualiserPlugin.html" target="_top" xlink:title=" ">
<polygon fill="none" stroke="black" points="331,-980.5 331,-1010.5 436,-1010.5 436,-980.5 331,-980.5"/>
<text text-anchor="start" x="339" y="-998.5" font-family="Helvetica,sans-Serif" font-size="10.00">tracktion::engine::</text>
<text text-anchor="middle" x="383.5" y="-987.5" font-family="Helvetica,sans-Serif" font-size="10.00">EqualiserPlugin</text>
</a>
</g>
</g>
<!-- Node4&#45;&gt;Node11 -->
<g id="edge10" class="edge">
<title>Node4&#45;&gt;Node11</title>
<path fill="none" stroke="midnightblue" d="M278.52,-674.43C279.4,-675.41 280.23,-676.43 281,-677.5 358.12,-784.18 235.18,-868.37 317,-971.5 320.76,-976.24 325.56,-980.05 330.83,-983.1"/>
<polygon fill="midnightblue" stroke="midnightblue" points="280.75,-671.73 270.95,-667.71 276.11,-676.97 280.75,-671.73"/>
</g>
<!-- Node12 -->
<g id="node12" class="node">
<title>Node12</title>
<g id="a_node12"><a xlink:href="classtracktion_1_1engine_1_1ExternalPlugin.html" target="_top" xlink:title=" ">
<polygon fill="none" stroke="black" points="331,-931.5 331,-961.5 436,-961.5 436,-931.5 331,-931.5"/>
<text text-anchor="start" x="339" y="-949.5" font-family="Helvetica,sans-Serif" font-size="10.00">tracktion::engine::</text>
<text text-anchor="middle" x="383.5" y="-938.5" font-family="Helvetica,sans-Serif" font-size="10.00">ExternalPlugin</text>
</a>
</g>
</g>
<!-- Node4&#45;&gt;Node12 -->
<g id="edge11" class="edge">
<title>Node4&#45;&gt;Node12</title>
<path fill="none" stroke="midnightblue" d="M278.43,-674.39C279.34,-675.38 280.2,-676.42 281,-677.5 346.55,-765.91 247.56,-837.11 317,-922.5 320.82,-927.2 325.65,-930.98 330.94,-934.02"/>
<polygon fill="midnightblue" stroke="midnightblue" points="280.45,-671.51 270.6,-667.6 275.86,-676.8 280.45,-671.51"/>
</g>
<!-- Node13 -->
<g id="node13" class="node">
<title>Node13</title>
<g id="a_node13"><a xlink:href="classtracktion_1_1engine_1_1FourOscPlugin.html" target="_top" xlink:title=" ">
<polygon fill="none" stroke="black" points="331,-882.5 331,-912.5 436,-912.5 436,-882.5 331,-882.5"/>
<text text-anchor="start" x="339" y="-900.5" font-family="Helvetica,sans-Serif" font-size="10.00">tracktion::engine::</text>
<text text-anchor="middle" x="383.5" y="-889.5" font-family="Helvetica,sans-Serif" font-size="10.00">FourOscPlugin</text>
</a>
</g>
</g>
<!-- Node4&#45;&gt;Node13 -->
<g id="edge12" class="edge">
<title>Node4&#45;&gt;Node13</title>
<path fill="none" stroke="midnightblue" d="M278,-674.04C279.07,-675.14 280.07,-676.29 281,-677.5 335.01,-747.69 259.9,-805.79 317,-873.5 320.83,-878.04 325.59,-881.72 330.78,-884.7"/>
<polygon fill="midnightblue" stroke="midnightblue" points="280.13,-671.25 270.21,-667.53 275.64,-676.63 280.13,-671.25"/>
</g>
<!-- Node14 -->
<g id="node14" class="node">
<title>Node14</title>
<g id="a_node14"><a xlink:href="classtracktion_1_1engine_1_1FreezePointPlugin.html" target="_top" xlink:title=" ">
<polygon fill="none" stroke="black" points="331,-833.5 331,-863.5 436,-863.5 436,-833.5 331,-833.5"/>
<text text-anchor="start" x="339" y="-851.5" font-family="Helvetica,sans-Serif" font-size="10.00">tracktion::engine::</text>
<text text-anchor="middle" x="383.5" y="-840.5" font-family="Helvetica,sans-Serif" font-size="10.00">FreezePointPlugin</text>
</a>
</g>
</g>
<!-- Node4&#45;&gt;Node14 -->
<g id="edge13" class="edge">
<title>Node4&#45;&gt;Node14</title>
<path fill="none" stroke="midnightblue" d="M277.84,-674.04C278.96,-675.14 280.01,-676.29 281,-677.5 323.56,-729.59 272.15,-774.37 317,-824.5 320.88,-828.83 325.6,-832.38 330.72,-835.29"/>
<polygon fill="midnightblue" stroke="midnightblue" points="279.72,-671.06 269.73,-667.53 275.34,-676.52 279.72,-671.06"/>
</g>
<!-- Node15 -->
<g id="node15" class="node">
<title>Node15</title>
<g id="a_node15"><a xlink:href="classtracktion_1_1engine_1_1ImpulseResponsePlugin.html" target="_top" xlink:title="ImpulseResponsePlugin that loads an impulse response and applies it the audio stream.">
<polygon fill="none" stroke="black" points="317,-784.5 317,-814.5 450,-814.5 450,-784.5 317,-784.5"/>
<text text-anchor="start" x="325" y="-802.5" font-family="Helvetica,sans-Serif" font-size="10.00">tracktion::engine::</text>
<text text-anchor="middle" x="383.5" y="-791.5" font-family="Helvetica,sans-Serif" font-size="10.00">ImpulseResponsePlugin</text>
</a>
</g>
</g>
<!-- Node4&#45;&gt;Node15 -->
<g id="edge14" class="edge">
<title>Node4&#45;&gt;Node15</title>
<path fill="none" stroke="midnightblue" d="M277.15,-673.74C278.51,-674.93 279.8,-676.18 281,-677.5 312.32,-711.73 284.18,-742.7 317,-775.5 320.43,-778.92 324.38,-781.86 328.62,-784.39"/>
<polygon fill="midnightblue" stroke="midnightblue" points="278.91,-670.69 268.79,-667.55 274.75,-676.31 278.91,-670.69"/>
</g>
<!-- Node16 -->
<g id="node16" class="node">
<title>Node16</title>
<g id="a_node16"><a xlink:href="classtracktion_1_1engine_1_1InsertPlugin.html" target="_top" xlink:title=" ">
<polygon fill="none" stroke="black" points="331,-735.5 331,-765.5 436,-765.5 436,-735.5 331,-735.5"/>
<text text-anchor="start" x="339" y="-753.5" font-family="Helvetica,sans-Serif" font-size="10.00">tracktion::engine::</text>
<text text-anchor="middle" x="383.5" y="-742.5" font-family="Helvetica,sans-Serif" font-size="10.00">InsertPlugin</text>
</a>
</g>
</g>
<!-- Node4&#45;&gt;Node16 -->
<g id="edge15" class="edge">
<title>Node4&#45;&gt;Node16</title>
<path fill="none" stroke="midnightblue" d="M274.8,-672.89C276.96,-674.35 279.04,-675.89 281,-677.5 301.86,-694.68 295.39,-710.27 317,-726.5 321.55,-729.92 326.64,-732.89 331.91,-735.47"/>
<polygon fill="midnightblue" stroke="midnightblue" points="276.54,-669.85 266.17,-667.65 272.9,-675.83 276.54,-669.85"/>
</g>
<!-- Node17 -->
<g id="node17" class="node">
<title>Node17</title>
<g id="a_node17"><a xlink:href="classtracktion_1_1engine_1_1LatencyPlugin.html" target="_top" xlink:title="A test plugin that introduces latency to the incoming signal.">
<polygon fill="none" stroke="black" points="331,-686.5 331,-716.5 436,-716.5 436,-686.5 331,-686.5"/>
<text text-anchor="start" x="339" y="-704.5" font-family="Helvetica,sans-Serif" font-size="10.00">tracktion::engine::</text>
<text text-anchor="middle" x="383.5" y="-693.5" font-family="Helvetica,sans-Serif" font-size="10.00">LatencyPlugin</text>
</a>
</g>
</g>
<!-- Node4&#45;&gt;Node17 -->
<g id="edge16" class="edge">
<title>Node4&#45;&gt;Node17</title>
<path fill="none" stroke="midnightblue" d="M285.57,-670.76C301.87,-675.93 319.41,-681.49 335.04,-686.45"/>
<polygon fill="midnightblue" stroke="midnightblue" points="286.21,-667.29 275.62,-667.6 284.09,-673.96 286.21,-667.29"/>
</g>
<!-- Node18 -->
<g id="node18" class="node">
<title>Node18</title>
<g id="a_node18"><a xlink:href="classtracktion_1_1engine_1_1LevelMeterPlugin.html" target="_top" xlink:title=" ">
<polygon fill="none" stroke="black" points="331,-637.5 331,-667.5 436,-667.5 436,-637.5 331,-637.5"/>
<text text-anchor="start" x="339" y="-655.5" font-family="Helvetica,sans-Serif" font-size="10.00">tracktion::engine::</text>
<text text-anchor="middle" x="383.5" y="-644.5" font-family="Helvetica,sans-Serif" font-size="10.00">LevelMeterPlugin</text>
</a>
</g>
</g>
<!-- Node4&#45;&gt;Node18 -->
<g id="edge17" class="edge">
<title>Node4&#45;&gt;Node18</title>
<path fill="none" stroke="midnightblue" d="M290.05,-652.5C303.55,-652.5 317.71,-652.5 330.76,-652.5"/>
<polygon fill="midnightblue" stroke="midnightblue" points="289.88,-649 279.88,-652.5 289.88,-656 289.88,-649"/>
</g>
<!-- Node19 -->
<g id="node19" class="node">
<title>Node19</title>
<g id="a_node19"><a xlink:href="classtracktion_1_1engine_1_1LowPassPlugin.html" target="_top" xlink:title=" ">
<polygon fill="none" stroke="black" points="331,-588.5 331,-618.5 436,-618.5 436,-588.5 331,-588.5"/>
<text text-anchor="start" x="339" y="-606.5" font-family="Helvetica,sans-Serif" font-size="10.00">tracktion::engine::</text>
<text text-anchor="middle" x="383.5" y="-595.5" font-family="Helvetica,sans-Serif" font-size="10.00">LowPassPlugin</text>
</a>
</g>
</g>
<!-- Node4&#45;&gt;Node19 -->
<g id="edge18" class="edge">
<title>Node4&#45;&gt;Node19</title>
<path fill="none" stroke="midnightblue" d="M285.57,-634.24C301.87,-629.07 319.41,-623.51 335.04,-618.55"/>
<polygon fill="midnightblue" stroke="midnightblue" points="284.09,-631.04 275.62,-637.4 286.21,-637.71 284.09,-631.04"/>
</g>
<!-- Node20 -->
<g id="node20" class="node">
<title>Node20</title>
<g id="a_node20"><a xlink:href="classtracktion_1_1engine_1_1MidiModifierPlugin.html" target="_top" xlink:title=" ">
<polygon fill="none" stroke="black" points="330,-539.5 330,-569.5 437,-569.5 437,-539.5 330,-539.5"/>
<text text-anchor="start" x="338" y="-557.5" font-family="Helvetica,sans-Serif" font-size="10.00">tracktion::engine::</text>
<text text-anchor="middle" x="383.5" y="-546.5" font-family="Helvetica,sans-Serif" font-size="10.00">MidiModifierPlugin</text>
</a>
</g>
</g>
<!-- Node4&#45;&gt;Node20 -->
<g id="edge19" class="edge">
<title>Node4&#45;&gt;Node20</title>
<path fill="none" stroke="midnightblue" d="M276.21,-632.07C277.87,-630.93 279.47,-629.74 281,-628.5 301.99,-611.48 295.5,-595.87 317,-579.5 322.04,-575.67 327.73,-572.36 333.6,-569.52"/>
<polygon fill="midnightblue" stroke="midnightblue" points="274.26,-629.16 267.56,-637.37 277.91,-635.13 274.26,-629.16"/>
</g>
<!-- Node21 -->
<g id="node21" class="node">
<title>Node21</title>
<g id="a_node21"><a xlink:href="classtracktion_1_1engine_1_1MidiPatchBayPlugin.html" target="_top" xlink:title=" ">
<polygon fill="none" stroke="black" points="327,-490.5 327,-520.5 440,-520.5 440,-490.5 327,-490.5"/>
<text text-anchor="start" x="335" y="-508.5" font-family="Helvetica,sans-Serif" font-size="10.00">tracktion::engine::</text>
<text text-anchor="middle" x="383.5" y="-497.5" font-family="Helvetica,sans-Serif" font-size="10.00">MidiPatchBayPlugin</text>
</a>
</g>
</g>
<!-- Node4&#45;&gt;Node21 -->
<g id="edge20" class="edge">
<title>Node4&#45;&gt;Node21</title>
<path fill="none" stroke="midnightblue" d="M278.2,-631.27C279.18,-630.38 280.11,-629.46 281,-628.5 312.59,-594.51 284.4,-563.52 317,-530.5 320.85,-526.6 325.37,-523.3 330.2,-520.51"/>
<polygon fill="midnightblue" stroke="midnightblue" points="275.95,-628.58 270.1,-637.42 280.18,-634.16 275.95,-628.58"/>
</g>
<!-- Node22 -->
<g id="node22" class="node">
<title>Node22</title>
<g id="a_node22"><a xlink:href="classtracktion_1_1engine_1_1PatchBayPlugin.html" target="_top" xlink:title=" ">
<polygon fill="none" stroke="black" points="331,-441.5 331,-471.5 436,-471.5 436,-441.5 331,-441.5"/>
<text text-anchor="start" x="339" y="-459.5" font-family="Helvetica,sans-Serif" font-size="10.00">tracktion::engine::</text>
<text text-anchor="middle" x="383.5" y="-448.5" font-family="Helvetica,sans-Serif" font-size="10.00">PatchBayPlugin</text>
</a>
</g>
</g>
<!-- Node4&#45;&gt;Node22 -->
<g id="edge21" class="edge">
<title>Node4&#45;&gt;Node22</title>
<path fill="none" stroke="midnightblue" d="M278.76,-630.98C279.54,-630.18 280.29,-629.35 281,-628.5 323.97,-576.75 272.49,-531.93 317,-481.5 320.87,-477.12 325.59,-473.5 330.7,-470.52"/>
<polygon fill="midnightblue" stroke="midnightblue" points="276.46,-628.34 271,-637.42 280.93,-633.73 276.46,-628.34"/>
</g>
<!-- Node23 -->
<g id="node23" class="node">
<title>Node23</title>
<g id="a_node23"><a xlink:href="classtracktion_1_1engine_1_1PhaserPlugin.html" target="_top" xlink:title=" ">
<polygon fill="none" stroke="black" points="331,-392.5 331,-422.5 436,-422.5 436,-392.5 331,-392.5"/>
<text text-anchor="start" x="339" y="-410.5" font-family="Helvetica,sans-Serif" font-size="10.00">tracktion::engine::</text>
<text text-anchor="middle" x="383.5" y="-399.5" font-family="Helvetica,sans-Serif" font-size="10.00">PhaserPlugin</text>
</a>
</g>
</g>
<!-- Node4&#45;&gt;Node23 -->
<g id="edge22" class="edge">
<title>Node4&#45;&gt;Node23</title>
<path fill="none" stroke="midnightblue" d="M279.16,-630.68C279.8,-629.97 280.41,-629.25 281,-628.5 335.56,-558.73 260.36,-500.59 317,-432.5 320.81,-427.92 325.57,-424.17 330.76,-421.11"/>
<polygon fill="midnightblue" stroke="midnightblue" points="276.69,-628.19 271.46,-637.41 281.29,-633.46 276.69,-628.19"/>
</g>
<!-- Node24 -->
<g id="node24" class="node">
<title>Node24</title>
<g id="a_node24"><a xlink:href="classtracktion_1_1engine_1_1PitchShiftPlugin.html" target="_top" xlink:title=" ">
<polygon fill="none" stroke="black" points="331,-343.5 331,-373.5 436,-373.5 436,-343.5 331,-343.5"/>
<text text-anchor="start" x="339" y="-361.5" font-family="Helvetica,sans-Serif" font-size="10.00">tracktion::engine::</text>
<text text-anchor="middle" x="383.5" y="-350.5" font-family="Helvetica,sans-Serif" font-size="10.00">PitchShiftPlugin</text>
</a>
</g>
</g>
<!-- Node4&#45;&gt;Node24 -->
<g id="edge23" class="edge">
<title>Node4&#45;&gt;Node24</title>
<path fill="none" stroke="midnightblue" d="M279.5,-630.36C280.02,-629.75 280.52,-629.14 281,-628.5 347.23,-540.6 248.14,-469.35 317,-383.5 320.81,-378.75 325.63,-374.91 330.92,-371.79"/>
<polygon fill="midnightblue" stroke="midnightblue" points="276.88,-628.01 271.84,-637.33 281.59,-633.19 276.88,-628.01"/>
</g>
<!-- Node25 -->
<g id="node25" class="node">
<title>Node25</title>
<g id="a_node25"><a xlink:href="classtracktion_1_1engine_1_1RackInstance.html" target="_top" xlink:title=" ">
<polygon fill="none" stroke="black" points="331,-294.5 331,-324.5 436,-324.5 436,-294.5 331,-294.5"/>
<text text-anchor="start" x="339" y="-312.5" font-family="Helvetica,sans-Serif" font-size="10.00">tracktion::engine::</text>
<text text-anchor="middle" x="383.5" y="-301.5" font-family="Helvetica,sans-Serif" font-size="10.00">RackInstance</text>
</a>
</g>
</g>
<!-- Node4&#45;&gt;Node25 -->
<g id="edge24" class="edge">
<title>Node4&#45;&gt;Node25</title>
<path fill="none" stroke="midnightblue" d="M279.53,-630.37C280.04,-629.77 280.53,-629.14 281,-628.5 358.95,-522.42 235.87,-438.17 317,-334.5 320.75,-329.71 325.53,-325.83 330.81,-322.7"/>
<polygon fill="midnightblue" stroke="midnightblue" points="276.9,-628.04 271.92,-637.39 281.64,-633.18 276.9,-628.04"/>
</g>
<!-- Node26 -->
<g id="node26" class="node">
<title>Node26</title>
<g id="a_node26"><a xlink:href="classtracktion_1_1engine_1_1ReverbPlugin.html" target="_top" xlink:title=" ">
<polygon fill="none" stroke="black" points="331,-245.5 331,-275.5 436,-275.5 436,-245.5 331,-245.5"/>
<text text-anchor="start" x="339" y="-263.5" font-family="Helvetica,sans-Serif" font-size="10.00">tracktion::engine::</text>
<text text-anchor="middle" x="383.5" y="-252.5" font-family="Helvetica,sans-Serif" font-size="10.00">ReverbPlugin</text>
</a>
</g>
</g>
<!-- Node4&#45;&gt;Node26 -->
<g id="edge25" class="edge">
<title>Node4&#45;&gt;Node26</title>
<path fill="none" stroke="midnightblue" d="M279.54,-630.38C280.05,-629.77 280.53,-629.15 281,-628.5 370.69,-504.2 223.58,-407.02 317,-285.5 320.71,-280.68 325.47,-276.78 330.72,-273.64"/>
<polygon fill="midnightblue" stroke="midnightblue" points="276.91,-628.06 271.98,-637.44 281.68,-633.17 276.91,-628.06"/>
</g>
<!-- Node27 -->
<g id="node27" class="node">
<title>Node27</title>
<g id="a_node27"><a xlink:href="classtracktion_1_1engine_1_1SamplerPlugin.html" target="_top" xlink:title=" ">
<polygon fill="none" stroke="black" points="331,-196.5 331,-226.5 436,-226.5 436,-196.5 331,-196.5"/>
<text text-anchor="start" x="339" y="-214.5" font-family="Helvetica,sans-Serif" font-size="10.00">tracktion::engine::</text>
<text text-anchor="middle" x="383.5" y="-203.5" font-family="Helvetica,sans-Serif" font-size="10.00">SamplerPlugin</text>
</a>
</g>
</g>
<!-- Node4&#45;&gt;Node27 -->
<g id="edge26" class="edge">
<title>Node4&#45;&gt;Node27</title>
<path fill="none" stroke="midnightblue" d="M279.55,-630.39C280.06,-629.78 280.54,-629.15 281,-628.5 382.45,-485.96 211.28,-375.9 317,-236.5 320.75,-231.55 325.61,-227.59 330.98,-224.4"/>
<polygon fill="midnightblue" stroke="midnightblue" points="276.91,-628.07 272.03,-637.47 281.71,-633.17 276.91,-628.07"/>
</g>
<!-- Node28 -->
<g id="node28" class="node">
<title>Node28</title>
<g id="a_node28"><a xlink:href="classtracktion_1_1engine_1_1TextPlugin.html" target="_top" xlink:title=" ">
<polygon fill="none" stroke="black" points="331,-147.5 331,-177.5 436,-177.5 436,-147.5 331,-147.5"/>
<text text-anchor="start" x="339" y="-165.5" font-family="Helvetica,sans-Serif" font-size="10.00">tracktion::engine::</text>
<text text-anchor="middle" x="383.5" y="-154.5" font-family="Helvetica,sans-Serif" font-size="10.00">TextPlugin</text>
</a>
</g>
</g>
<!-- Node4&#45;&gt;Node28 -->
<g id="edge27" class="edge">
<title>Node4&#45;&gt;Node28</title>
<path fill="none" stroke="midnightblue" d="M279.56,-630.4C280.06,-629.78 280.54,-629.15 281,-628.5 337.61,-548.11 257.98,-266.14 317,-187.5 320.73,-182.54 325.57,-178.56 330.93,-175.37"/>
<polygon fill="midnightblue" stroke="midnightblue" points="276.92,-628.08 272.07,-637.5 281.74,-633.16 276.92,-628.08"/>
</g>
<!-- Node29 -->
<g id="node29" class="node">
<title>Node29</title>
<g id="a_node29"><a xlink:href="classtracktion_1_1engine_1_1ToneGeneratorPlugin.html" target="_top" xlink:title=" ">
<polygon fill="none" stroke="black" points="324.5,-98.5 324.5,-128.5 442.5,-128.5 442.5,-98.5 324.5,-98.5"/>
<text text-anchor="start" x="332.5" y="-116.5" font-family="Helvetica,sans-Serif" font-size="10.00">tracktion::engine::</text>
<text text-anchor="middle" x="383.5" y="-105.5" font-family="Helvetica,sans-Serif" font-size="10.00">ToneGeneratorPlugin</text>
</a>
</g>
</g>
<!-- Node4&#45;&gt;Node29 -->
<g id="edge28" class="edge">
<title>Node4&#45;&gt;Node29</title>
<path fill="none" stroke="midnightblue" d="M279.87,-630.02C280.26,-629.52 280.64,-629.02 281,-628.5 343.5,-538.98 251.82,-226.09 317,-138.5 319.91,-134.59 323.5,-131.3 327.51,-128.52"/>
<polygon fill="midnightblue" stroke="midnightblue" points="277.29,-627.66 272.58,-637.15 282.18,-632.66 277.29,-627.66"/>
</g>
<!-- Node30 -->
<g id="node30" class="node">
<title>Node30</title>
<g id="a_node30"><a xlink:href="classtracktion_1_1engine_1_1VCAPlugin.html" target="_top" xlink:title="The VCA plugin sits on a folder track to control the overall level of all the volume/pan plugins in i...">
<polygon fill="none" stroke="black" points="331,-49.5 331,-79.5 436,-79.5 436,-49.5 331,-49.5"/>
<text text-anchor="start" x="339" y="-67.5" font-family="Helvetica,sans-Serif" font-size="10.00">tracktion::engine::</text>
<text text-anchor="middle" x="383.5" y="-56.5" font-family="Helvetica,sans-Serif" font-size="10.00">VCAPlugin</text>
</a>
</g>
</g>
<!-- Node4&#45;&gt;Node30 -->
<g id="edge29" class="edge">
<title>Node4&#45;&gt;Node30</title>
<path fill="none" stroke="midnightblue" d="M279.88,-630.02C280.27,-629.53 280.64,-629.02 281,-628.5 349.39,-529.84 245.65,-186.04 317,-89.5 320.69,-84.51 325.51,-80.51 330.86,-77.31"/>
<polygon fill="midnightblue" stroke="midnightblue" points="277.29,-627.66 272.61,-637.17 282.19,-632.66 277.29,-627.66"/>
</g>
<!-- Node31 -->
<g id="node31" class="node">
<title>Node31</title>
<g id="a_node31"><a xlink:href="classtracktion_1_1engine_1_1VolumeAndPanPlugin.html" target="_top" xlink:title="The built&#45;in Tracktion volume/pan plugin.">
<polygon fill="none" stroke="black" points="324,-0.5 324,-30.5 443,-30.5 443,-0.5 324,-0.5"/>
<text text-anchor="start" x="332" y="-18.5" font-family="Helvetica,sans-Serif" font-size="10.00">tracktion::engine::</text>
<text text-anchor="middle" x="383.5" y="-7.5" font-family="Helvetica,sans-Serif" font-size="10.00">VolumeAndPanPlugin</text>
</a>
</g>
</g>
<!-- Node4&#45;&gt;Node31 -->
<g id="edge30" class="edge">
<title>Node4&#45;&gt;Node31</title>
<path fill="none" stroke="midnightblue" d="M279.88,-630.03C280.27,-629.53 280.64,-629.02 281,-628.5 355.28,-520.7 239.49,-146 317,-40.5 319.81,-36.67 323.29,-33.43 327.16,-30.69"/>
<polygon fill="midnightblue" stroke="midnightblue" points="277.29,-627.67 272.63,-637.18 282.21,-632.65 277.29,-627.67"/>
</g>
</g>
</svg>
