<?xml version="1.0" encoding="UTF-8" standalone="no"?>
<!DOCTYPE svg PUBLIC "-//W3C//DTD SVG 1.1//EN"
 "http://www.w3.org/Graphics/SVG/1.1/DTD/svg11.dtd">
<!-- Generated by graphviz version 2.43.0 (0)
 -->
<!-- Title: tracktion::engine::Selectable Pages: 1 -->
<svg width="546pt" height="1713pt"
 viewBox="0.00 0.00 546.00 1713.00" xmlns="http://www.w3.org/2000/svg" xmlns:xlink="http://www.w3.org/1999/xlink">
<g id="graph0" class="graph" transform="scale(1 1) rotate(0) translate(4 1709)">
<title>tracktion::engine::Selectable</title>
<!-- Node1 -->
<g id="node1" class="node">
<title>Node1</title>
<g id="a_node1"><a xlink:title="Base class for things that can be selected, and whose properties can appear in the properties panel.">
<polygon fill="#bfbfbf" stroke="black" points="0,-563.5 0,-593.5 105,-593.5 105,-563.5 0,-563.5"/>
<text text-anchor="start" x="8" y="-581.5" font-family="Helvetica,sans-Serif" font-size="10.00">tracktion::engine::</text>
<text text-anchor="middle" x="52.5" y="-570.5" font-family="Helvetica,sans-Serif" font-size="10.00">Selectable</text>
</a>
</g>
</g>
<!-- Node2 -->
<g id="node2" class="node">
<title>Node2</title>
<g id="a_node2"><a xlink:href="classtracktion_1_1engine_1_1AutomatableParameter.html" target="_top" xlink:title=" ">
<polygon fill="none" stroke="black" points="162.5,-1527.5 162.5,-1557.5 292.5,-1557.5 292.5,-1527.5 162.5,-1527.5"/>
<text text-anchor="start" x="170.5" y="-1545.5" font-family="Helvetica,sans-Serif" font-size="10.00">tracktion::engine::</text>
<text text-anchor="middle" x="227.5" y="-1534.5" font-family="Helvetica,sans-Serif" font-size="10.00">AutomatableParameter</text>
</a>
</g>
</g>
<!-- Node1&#45;&gt;Node2 -->
<g id="edge1" class="edge">
<title>Node1&#45;&gt;Node2</title>
<path fill="none" stroke="midnightblue" d="M55.03,-604.09C60.87,-695.74 84.33,-1015.82 141,-1273.5 162.74,-1372.33 205.04,-1486.75 220.58,-1527.3"/>
<polygon fill="midnightblue" stroke="midnightblue" points="58.51,-603.6 54.39,-593.84 51.52,-604.04 58.51,-603.6"/>
</g>
<!-- Node9 -->
<g id="node9" class="node">
<title>Node9</title>
<g id="a_node9"><a xlink:href="classtracktion_1_1engine_1_1ClipSlot.html" target="_top" xlink:title="Represents a slot on a track that a Clip can live in to be played as a launched clip.">
<polygon fill="none" stroke="black" points="175,-1233.5 175,-1263.5 280,-1263.5 280,-1233.5 175,-1233.5"/>
<text text-anchor="start" x="183" y="-1251.5" font-family="Helvetica,sans-Serif" font-size="10.00">tracktion::engine::</text>
<text text-anchor="middle" x="227.5" y="-1240.5" font-family="Helvetica,sans-Serif" font-size="10.00">ClipSlot</text>
</a>
</g>
</g>
<!-- Node1&#45;&gt;Node9 -->
<g id="edge8" class="edge">
<title>Node1&#45;&gt;Node9</title>
<path fill="none" stroke="midnightblue" d="M53.36,-603.73C53.27,-711.19 58.32,-1129.45 141,-1224.5 149.7,-1234.5 162.21,-1240.5 174.98,-1244.04"/>
<polygon fill="midnightblue" stroke="midnightblue" points="56.86,-603.53 53.38,-593.52 49.86,-603.51 56.86,-603.53"/>
</g>
<!-- Node10 -->
<g id="node10" class="node">
<title>Node10</title>
<g id="a_node10"><a xlink:href="classtracktion_1_1engine_1_1ControlSurface.html" target="_top" xlink:title="Base class for types of control surface.">
<polygon fill="none" stroke="black" points="175,-1184.5 175,-1214.5 280,-1214.5 280,-1184.5 175,-1184.5"/>
<text text-anchor="start" x="183" y="-1202.5" font-family="Helvetica,sans-Serif" font-size="10.00">tracktion::engine::</text>
<text text-anchor="middle" x="227.5" y="-1191.5" font-family="Helvetica,sans-Serif" font-size="10.00">ControlSurface</text>
</a>
</g>
</g>
<!-- Node1&#45;&gt;Node10 -->
<g id="edge9" class="edge">
<title>Node1&#45;&gt;Node10</title>
<path fill="none" stroke="midnightblue" d="M54.9,-603.53C59.61,-676.04 78.32,-891.65 141,-1057.5 159.82,-1107.3 196.09,-1159.28 214.76,-1184.28"/>
<polygon fill="midnightblue" stroke="midnightblue" points="58.39,-603.28 54.28,-593.52 51.4,-603.72 58.39,-603.28"/>
</g>
<!-- Node20 -->
<g id="node18" class="node">
<title>Node20</title>
<g id="a_node18"><a xlink:href="classtracktion_1_1engine_1_1CurveEditorPoint.html" target="_top" xlink:title=" ">
<polygon fill="none" stroke="black" points="175,-1017.5 175,-1047.5 280,-1047.5 280,-1017.5 175,-1017.5"/>
<text text-anchor="start" x="183" y="-1035.5" font-family="Helvetica,sans-Serif" font-size="10.00">tracktion::engine::</text>
<text text-anchor="middle" x="227.5" y="-1024.5" font-family="Helvetica,sans-Serif" font-size="10.00">CurveEditorPoint</text>
</a>
</g>
</g>
<!-- Node1&#45;&gt;Node20 -->
<g id="edge17" class="edge">
<title>Node1&#45;&gt;Node20</title>
<path fill="none" stroke="midnightblue" d="M56.13,-604.04C64.74,-683.69 94.29,-925.87 141,-987.5 151.03,-1000.73 166.09,-1010.46 180.79,-1017.42"/>
<polygon fill="midnightblue" stroke="midnightblue" points="59.59,-603.49 55.05,-593.92 52.63,-604.23 59.59,-603.49"/>
</g>
<!-- Node22 -->
<g id="node20" class="node">
<title>Node22</title>
<g id="a_node20"><a xlink:href="classtracktion_1_1engine_1_1Edit.html" target="_top" xlink:title="The Tracktion Edit class!">
<polygon fill="none" stroke="black" points="165.5,-959 165.5,-978 289.5,-978 289.5,-959 165.5,-959"/>
<text text-anchor="middle" x="227.5" y="-966" font-family="Helvetica,sans-Serif" font-size="10.00">tracktion::engine::Edit</text>
</a>
</g>
</g>
<!-- Node1&#45;&gt;Node22 -->
<g id="edge19" class="edge">
<title>Node1&#45;&gt;Node22</title>
<path fill="none" stroke="midnightblue" d="M55.99,-603.68C63.94,-678.98 91.17,-900.31 141,-949.5 147.71,-956.12 156.18,-960.65 165.17,-963.71"/>
<polygon fill="midnightblue" stroke="midnightblue" points="59.46,-603.25 54.95,-593.66 52.5,-603.97 59.46,-603.25"/>
</g>
<!-- Node23 -->
<g id="node21" class="node">
<title>Node23</title>
<g id="a_node21"><a xlink:href="classtracktion_1_1engine_1_1InputDevice.html" target="_top" xlink:title="Represents an input device.">
<polygon fill="none" stroke="black" points="175,-909.5 175,-939.5 280,-939.5 280,-909.5 175,-909.5"/>
<text text-anchor="start" x="183" y="-927.5" font-family="Helvetica,sans-Serif" font-size="10.00">tracktion::engine::</text>
<text text-anchor="middle" x="227.5" y="-916.5" font-family="Helvetica,sans-Serif" font-size="10.00">InputDevice</text>
</a>
</g>
</g>
<!-- Node1&#45;&gt;Node23 -->
<g id="edge20" class="edge">
<title>Node1&#45;&gt;Node23</title>
<path fill="none" stroke="midnightblue" d="M53.93,-603.81C56.21,-660.72 69.26,-800.33 141,-884.5 150.25,-895.35 163.09,-903.45 176,-909.41"/>
<polygon fill="midnightblue" stroke="midnightblue" points="57.42,-603.46 53.61,-593.58 50.43,-603.68 57.42,-603.46"/>
</g>
<!-- Node28 -->
<g id="node24" class="node">
<title>Node28</title>
<g id="a_node24"><a xlink:href="structtracktion_1_1engine_1_1InputDeviceInstance_1_1Destination.html" target="_top" xlink:title=" ">
<polygon fill="none" stroke="black" points="169.5,-834 169.5,-875 285.5,-875 285.5,-834 169.5,-834"/>
<text text-anchor="start" x="177.5" y="-863" font-family="Helvetica,sans-Serif" font-size="10.00">tracktion::engine::</text>
<text text-anchor="start" x="177.5" y="-852" font-family="Helvetica,sans-Serif" font-size="10.00">InputDeviceInstance</text>
<text text-anchor="middle" x="227.5" y="-841" font-family="Helvetica,sans-Serif" font-size="10.00">::Destination</text>
</a>
</g>
</g>
<!-- Node1&#45;&gt;Node28 -->
<g id="edge23" class="edge">
<title>Node1&#45;&gt;Node28</title>
<path fill="none" stroke="midnightblue" d="M55.42,-603.65C60.51,-652.83 78.59,-762.35 141,-824.5 148.91,-832.38 159.02,-838.2 169.48,-842.49"/>
<polygon fill="midnightblue" stroke="midnightblue" points="58.9,-603.2 54.48,-593.57 51.93,-603.85 58.9,-603.2"/>
</g>
<!-- Node32 -->
<g id="node28" class="node">
<title>Node32</title>
<g id="a_node28"><a xlink:href="structtracktion_1_1engine_1_1MakeMonoEffect.html" target="_top" xlink:title=" ">
<polygon fill="none" stroke="black" points="175,-784.5 175,-814.5 280,-814.5 280,-784.5 175,-784.5"/>
<text text-anchor="start" x="183" y="-802.5" font-family="Helvetica,sans-Serif" font-size="10.00">tracktion::engine::</text>
<text text-anchor="middle" x="227.5" y="-791.5" font-family="Helvetica,sans-Serif" font-size="10.00">MakeMonoEffect</text>
</a>
</g>
</g>
<!-- Node1&#45;&gt;Node32 -->
<g id="edge27" class="edge">
<title>Node1&#45;&gt;Node32</title>
<path fill="none" stroke="midnightblue" d="M57.58,-603.6C65.73,-645.52 88.02,-729.66 141,-775.5 150.56,-783.77 162.77,-789.21 174.95,-792.77"/>
<polygon fill="midnightblue" stroke="midnightblue" points="61.01,-602.88 55.76,-593.67 54.12,-604.14 61.01,-602.88"/>
</g>
<!-- Node33 -->
<g id="node29" class="node">
<title>Node33</title>
<g id="a_node29"><a xlink:href="structtracktion_1_1engine_1_1Modifier.html" target="_top" xlink:title="Bass class for parameter Modifiers.">
<polygon fill="none" stroke="red" points="175,-735.5 175,-765.5 280,-765.5 280,-735.5 175,-735.5"/>
<text text-anchor="start" x="183" y="-753.5" font-family="Helvetica,sans-Serif" font-size="10.00">tracktion::engine::</text>
<text text-anchor="middle" x="227.5" y="-742.5" font-family="Helvetica,sans-Serif" font-size="10.00">Modifier</text>
</a>
</g>
</g>
<!-- Node1&#45;&gt;Node33 -->
<g id="edge28" class="edge">
<title>Node1&#45;&gt;Node33</title>
<path fill="none" stroke="midnightblue" d="M61.6,-603.47C73.62,-636.57 99.36,-694.5 141,-726.5 150.78,-734.02 162.8,-739.18 174.7,-742.72"/>
<polygon fill="midnightblue" stroke="midnightblue" points="64.78,-601.95 58.18,-593.66 58.17,-604.26 64.78,-601.95"/>
</g>
<!-- Node40 -->
<g id="node35" class="node">
<title>Node40</title>
<g id="a_node35"><a xlink:href="structtracktion_1_1engine_1_1NormaliseEffect.html" target="_top" xlink:title=" ">
<polygon fill="none" stroke="black" points="175,-686.5 175,-716.5 280,-716.5 280,-686.5 175,-686.5"/>
<text text-anchor="start" x="183" y="-704.5" font-family="Helvetica,sans-Serif" font-size="10.00">tracktion::engine::</text>
<text text-anchor="middle" x="227.5" y="-693.5" font-family="Helvetica,sans-Serif" font-size="10.00">NormaliseEffect</text>
</a>
</g>
</g>
<!-- Node1&#45;&gt;Node40 -->
<g id="edge34" class="edge">
<title>Node1&#45;&gt;Node40</title>
<path fill="none" stroke="midnightblue" d="M68.39,-602.06C83.86,-624.66 110.12,-658.13 141,-677.5 151.19,-683.89 163.1,-688.62 174.75,-692.1"/>
<polygon fill="midnightblue" stroke="midnightblue" points="71.27,-600.07 62.81,-593.69 65.44,-603.96 71.27,-600.07"/>
</g>
<!-- Node41 -->
<g id="node36" class="node">
<title>Node41</title>
<g id="a_node36"><a xlink:href="classtracktion_1_1engine_1_1OutputDevice.html" target="_top" xlink:title="Base class for audio or midi output devices, to which a track&#39;s output can be sent.">
<polygon fill="none" stroke="red" points="175,-637.5 175,-667.5 280,-667.5 280,-637.5 175,-637.5"/>
<text text-anchor="start" x="183" y="-655.5" font-family="Helvetica,sans-Serif" font-size="10.00">tracktion::engine::</text>
<text text-anchor="middle" x="227.5" y="-644.5" font-family="Helvetica,sans-Serif" font-size="10.00">OutputDevice</text>
</a>
</g>
</g>
<!-- Node1&#45;&gt;Node41 -->
<g id="edge35" class="edge">
<title>Node1&#45;&gt;Node41</title>
<path fill="none" stroke="midnightblue" d="M85.02,-599.02C101.26,-608.94 121.66,-620.41 141,-628.5 151.67,-632.96 163.42,-636.87 174.71,-640.17"/>
<polygon fill="midnightblue" stroke="midnightblue" points="86.81,-596.01 76.47,-593.71 83.11,-601.96 86.81,-596.01"/>
</g>
<!-- Node45 -->
<g id="node37" class="node">
<title>Node45</title>
<g id="a_node37"><a xlink:href="classtracktion_1_1engine_1_1Plugin.html" target="_top" xlink:title=" ">
<polygon fill="none" stroke="red" points="175,-588.5 175,-618.5 280,-618.5 280,-588.5 175,-588.5"/>
<text text-anchor="start" x="183" y="-606.5" font-family="Helvetica,sans-Serif" font-size="10.00">tracktion::engine::</text>
<text text-anchor="middle" x="227.5" y="-595.5" font-family="Helvetica,sans-Serif" font-size="10.00">Plugin</text>
</a>
</g>
</g>
<!-- Node1&#45;&gt;Node45 -->
<g id="edge36" class="edge">
<title>Node1&#45;&gt;Node45</title>
<path fill="none" stroke="midnightblue" d="M115.41,-587.45C134.91,-590.26 156.23,-593.35 174.93,-596.05"/>
<polygon fill="midnightblue" stroke="midnightblue" points="115.8,-583.97 105.41,-586 114.8,-590.9 115.8,-583.97"/>
</g>
<!-- Node73 -->
<g id="node38" class="node">
<title>Node73</title>
<g id="a_node38"><a xlink:href="classtracktion_1_1engine_1_1Project.html" target="_top" xlink:title="A tracktion project.">
<polygon fill="none" stroke="black" points="175,-539.5 175,-569.5 280,-569.5 280,-539.5 175,-539.5"/>
<text text-anchor="start" x="183" y="-557.5" font-family="Helvetica,sans-Serif" font-size="10.00">tracktion::engine::</text>
<text text-anchor="middle" x="227.5" y="-546.5" font-family="Helvetica,sans-Serif" font-size="10.00">Project</text>
</a>
</g>
</g>
<!-- Node1&#45;&gt;Node73 -->
<g id="edge37" class="edge">
<title>Node1&#45;&gt;Node73</title>
<path fill="none" stroke="midnightblue" d="M115.41,-569.91C134.91,-567.21 156.23,-564.25 174.93,-561.65"/>
<polygon fill="midnightblue" stroke="midnightblue" points="114.83,-566.46 105.41,-571.3 115.79,-573.39 114.83,-566.46"/>
</g>
<!-- Node74 -->
<g id="node39" class="node">
<title>Node74</title>
<g id="a_node39"><a xlink:href="classtracktion_1_1engine_1_1ProjectItem.html" target="_top" xlink:title="Represents a file&#45;based resource that is used in a project.">
<polygon fill="none" stroke="black" points="175,-490.5 175,-520.5 280,-520.5 280,-490.5 175,-490.5"/>
<text text-anchor="start" x="183" y="-508.5" font-family="Helvetica,sans-Serif" font-size="10.00">tracktion::engine::</text>
<text text-anchor="middle" x="227.5" y="-497.5" font-family="Helvetica,sans-Serif" font-size="10.00">ProjectItem</text>
</a>
</g>
</g>
<!-- Node1&#45;&gt;Node74 -->
<g id="edge38" class="edge">
<title>Node1&#45;&gt;Node74</title>
<path fill="none" stroke="midnightblue" d="M85.87,-557.95C101.99,-548.35 122.04,-537.34 141,-529.5 151.69,-525.08 163.45,-521.19 174.74,-517.9"/>
<polygon fill="midnightblue" stroke="midnightblue" points="83.61,-555.22 76.87,-563.4 87.24,-561.21 83.61,-555.22"/>
</g>
<!-- Node75 -->
<g id="node40" class="node">
<title>Node75</title>
<g id="a_node40"><a xlink:href="classtracktion_1_1engine_1_1RackType.html" target="_top" xlink:title=" ">
<polygon fill="none" stroke="black" points="175,-441.5 175,-471.5 280,-471.5 280,-441.5 175,-441.5"/>
<text text-anchor="start" x="183" y="-459.5" font-family="Helvetica,sans-Serif" font-size="10.00">tracktion::engine::</text>
<text text-anchor="middle" x="227.5" y="-448.5" font-family="Helvetica,sans-Serif" font-size="10.00">RackType</text>
</a>
</g>
</g>
<!-- Node1&#45;&gt;Node75 -->
<g id="edge39" class="edge">
<title>Node1&#45;&gt;Node75</title>
<path fill="none" stroke="midnightblue" d="M68.65,-554.88C84.19,-532.52 110.39,-499.6 141,-480.5 151.2,-474.13 163.13,-469.42 174.77,-465.94"/>
<polygon fill="midnightblue" stroke="midnightblue" points="65.55,-553.22 62.85,-563.46 71.35,-557.14 65.55,-553.22"/>
</g>
<!-- Node76 -->
<g id="node41" class="node">
<title>Node76</title>
<g id="a_node41"><a xlink:href="classtracktion_1_1engine_1_1Scene.html" target="_top" xlink:title="A Scene is a collection of ClipSlots across tracks.">
<polygon fill="none" stroke="black" points="175,-392.5 175,-422.5 280,-422.5 280,-392.5 175,-392.5"/>
<text text-anchor="start" x="183" y="-410.5" font-family="Helvetica,sans-Serif" font-size="10.00">tracktion::engine::</text>
<text text-anchor="middle" x="227.5" y="-399.5" font-family="Helvetica,sans-Serif" font-size="10.00">Scene</text>
</a>
</g>
</g>
<!-- Node1&#45;&gt;Node76 -->
<g id="edge40" class="edge">
<title>Node1&#45;&gt;Node76</title>
<path fill="none" stroke="midnightblue" d="M61.65,-553.7C73.72,-520.82 99.52,-463.28 141,-431.5 150.79,-424 162.81,-418.84 174.71,-415.3"/>
<polygon fill="midnightblue" stroke="midnightblue" points="58.24,-552.84 58.21,-563.44 64.84,-555.17 58.24,-552.84"/>
</g>
<!-- Node77 -->
<g id="node42" class="node">
<title>Node77</title>
<g id="a_node42"><a xlink:href="classtracktion_1_1engine_1_1SelectedMidiEvents.html" target="_top" xlink:title="Represents a set of selected MIDI notes.">
<polygon fill="none" stroke="black" points="171,-343.5 171,-373.5 284,-373.5 284,-343.5 171,-343.5"/>
<text text-anchor="start" x="179" y="-361.5" font-family="Helvetica,sans-Serif" font-size="10.00">tracktion::engine::</text>
<text text-anchor="middle" x="227.5" y="-350.5" font-family="Helvetica,sans-Serif" font-size="10.00">SelectedMidiEvents</text>
</a>
</g>
</g>
<!-- Node1&#45;&gt;Node77 -->
<g id="edge41" class="edge">
<title>Node1&#45;&gt;Node77</title>
<path fill="none" stroke="midnightblue" d="M57.62,-553.52C65.83,-511.82 88.2,-428.09 141,-382.5 149.52,-375.14 160.13,-370.03 170.95,-366.48"/>
<polygon fill="midnightblue" stroke="midnightblue" points="54.17,-552.93 55.79,-563.4 61.05,-554.21 54.17,-552.93"/>
</g>
<!-- Node78 -->
<g id="node43" class="node">
<title>Node78</title>
<g id="a_node43"><a xlink:href="structtracktion_1_1engine_1_1StepClip_1_1Channel.html" target="_top" xlink:title=" ">
<polygon fill="none" stroke="black" points="175,-294.5 175,-324.5 280,-324.5 280,-294.5 175,-294.5"/>
<text text-anchor="start" x="183" y="-312.5" font-family="Helvetica,sans-Serif" font-size="10.00">tracktion::engine::</text>
<text text-anchor="middle" x="227.5" y="-301.5" font-family="Helvetica,sans-Serif" font-size="10.00">StepClip::Channel</text>
</a>
</g>
</g>
<!-- Node1&#45;&gt;Node78 -->
<g id="edge42" class="edge">
<title>Node1&#45;&gt;Node78</title>
<path fill="none" stroke="midnightblue" d="M55.12,-553.1C59.66,-503.5 76.83,-393.37 141,-333.5 150.36,-324.77 162.63,-319.18 174.95,-315.61"/>
<polygon fill="midnightblue" stroke="midnightblue" points="51.61,-553.02 54.29,-563.27 58.59,-553.59 51.61,-553.02"/>
</g>
<!-- Node79 -->
<g id="node44" class="node">
<title>Node79</title>
<g id="a_node44"><a xlink:href="structtracktion_1_1engine_1_1StepClip_1_1PatternInstance.html" target="_top" xlink:title=" ">
<polygon fill="none" stroke="black" points="158,-245.5 158,-275.5 297,-275.5 297,-245.5 158,-245.5"/>
<text text-anchor="start" x="166" y="-263.5" font-family="Helvetica,sans-Serif" font-size="10.00">tracktion::engine::</text>
<text text-anchor="middle" x="227.5" y="-252.5" font-family="Helvetica,sans-Serif" font-size="10.00">StepClip::PatternInstance</text>
</a>
</g>
</g>
<!-- Node1&#45;&gt;Node79 -->
<g id="edge43" class="edge">
<title>Node1&#45;&gt;Node79</title>
<path fill="none" stroke="midnightblue" d="M53.33,-553.31C54.37,-496.85 65.04,-359.28 141,-284.5 145.83,-279.74 151.53,-275.91 157.65,-272.83"/>
<polygon fill="midnightblue" stroke="midnightblue" points="49.83,-553.44 53.23,-563.48 56.83,-553.51 49.83,-553.44"/>
</g>
<!-- Node80 -->
<g id="node45" class="node">
<title>Node80</title>
<g id="a_node45"><a xlink:href="structtracktion_1_1engine_1_1StepVolumeEffect.html" target="_top" xlink:title=" ">
<polygon fill="none" stroke="black" points="175,-196.5 175,-226.5 280,-226.5 280,-196.5 175,-196.5"/>
<text text-anchor="start" x="183" y="-214.5" font-family="Helvetica,sans-Serif" font-size="10.00">tracktion::engine::</text>
<text text-anchor="middle" x="227.5" y="-203.5" font-family="Helvetica,sans-Serif" font-size="10.00">StepVolumeEffect</text>
</a>
</g>
</g>
<!-- Node1&#45;&gt;Node80 -->
<g id="edge44" class="edge">
<title>Node1&#45;&gt;Node80</title>
<path fill="none" stroke="midnightblue" d="M56.69,-553.02C66.12,-481.57 96.07,-281.52 141,-235.5 150.05,-226.23 162.36,-220.46 174.83,-216.9"/>
<polygon fill="midnightblue" stroke="midnightblue" points="53.16,-552.97 55.35,-563.34 60.11,-553.87 53.16,-552.97"/>
</g>
<!-- Node81 -->
<g id="node46" class="node">
<title>Node81</title>
<g id="a_node46"><a xlink:href="classtracktion_1_1engine_1_1TempoSequence.html" target="_top" xlink:title="Holds a list of TempoSetting objects, to form a sequence of tempo changes.">
<polygon fill="none" stroke="black" points="175,-147.5 175,-177.5 280,-177.5 280,-147.5 175,-147.5"/>
<text text-anchor="start" x="183" y="-165.5" font-family="Helvetica,sans-Serif" font-size="10.00">tracktion::engine::</text>
<text text-anchor="middle" x="227.5" y="-154.5" font-family="Helvetica,sans-Serif" font-size="10.00">TempoSequence</text>
</a>
</g>
</g>
<!-- Node1&#45;&gt;Node81 -->
<g id="edge45" class="edge">
<title>Node1&#45;&gt;Node81</title>
<path fill="none" stroke="midnightblue" d="M55.8,-553.1C63.38,-474.98 90.03,-240.3 141,-186.5 149.91,-177.1 162.17,-171.28 174.64,-167.71"/>
<polygon fill="midnightblue" stroke="midnightblue" points="52.28,-553.17 54.82,-563.45 59.25,-553.83 52.28,-553.17"/>
</g>
<!-- Node82 -->
<g id="node47" class="node">
<title>Node82</title>
<g id="a_node47"><a xlink:href="classtracktion_1_1engine_1_1Track.html" target="_top" xlink:title="Base class for tracks which contain clips and plugins and can be added to Edit[s].">
<polygon fill="none" stroke="red" points="175,-98.5 175,-128.5 280,-128.5 280,-98.5 175,-98.5"/>
<text text-anchor="start" x="183" y="-116.5" font-family="Helvetica,sans-Serif" font-size="10.00">tracktion::engine::</text>
<text text-anchor="middle" x="227.5" y="-105.5" font-family="Helvetica,sans-Serif" font-size="10.00">Track</text>
</a>
</g>
</g>
<!-- Node1&#45;&gt;Node82 -->
<g id="edge46" class="edge">
<title>Node1&#45;&gt;Node82</title>
<path fill="none" stroke="midnightblue" d="M55.12,-553.01C61.02,-468.47 84,-199.12 141,-137.5 149.9,-127.88 162.31,-122 174.93,-118.44"/>
<polygon fill="midnightblue" stroke="midnightblue" points="51.63,-552.82 54.45,-563.03 58.61,-553.29 51.63,-552.82"/>
</g>
<!-- Node92 -->
<g id="node48" class="node">
<title>Node92</title>
<g id="a_node48"><a xlink:href="structtracktion_1_1engine_1_1TrackCompManager_1_1TrackComp.html" target="_top" xlink:title=" ">
<polygon fill="none" stroke="black" points="141,-49.5 141,-79.5 314,-79.5 314,-49.5 141,-49.5"/>
<text text-anchor="start" x="149" y="-67.5" font-family="Helvetica,sans-Serif" font-size="10.00">tracktion::engine::</text>
<text text-anchor="middle" x="227.5" y="-56.5" font-family="Helvetica,sans-Serif" font-size="10.00">TrackCompManager::TrackComp</text>
</a>
</g>
</g>
<!-- Node1&#45;&gt;Node92 -->
<g id="edge47" class="edge">
<title>Node1&#45;&gt;Node92</title>
<path fill="none" stroke="midnightblue" d="M54.56,-553.22C58.86,-462.94 77.87,-158.07 141,-88.5 144.11,-85.07 147.66,-82.12 151.51,-79.58"/>
<polygon fill="midnightblue" stroke="midnightblue" points="51.06,-553.22 54.1,-563.37 58.05,-553.54 51.06,-553.22"/>
</g>
<!-- Node93 -->
<g id="node49" class="node">
<title>Node93</title>
<g id="a_node49"><a xlink:href="classtracktion_1_1engine_1_1TrackItem.html" target="_top" xlink:title="Base class for EditItems that live in a Track, e.g.">
<polygon fill="none" stroke="red" points="175,-0.5 175,-30.5 280,-30.5 280,-0.5 175,-0.5"/>
<text text-anchor="start" x="183" y="-18.5" font-family="Helvetica,sans-Serif" font-size="10.00">tracktion::engine::</text>
<text text-anchor="middle" x="227.5" y="-7.5" font-family="Helvetica,sans-Serif" font-size="10.00">TrackItem</text>
</a>
</g>
</g>
<!-- Node1&#45;&gt;Node93 -->
<g id="edge48" class="edge">
<title>Node1&#45;&gt;Node93</title>
<path fill="none" stroke="midnightblue" d="M54.11,-553.25C56.93,-457.32 71.75,-117.03 141,-39.5 149.73,-29.73 162.09,-23.8 174.7,-20.24"/>
<polygon fill="midnightblue" stroke="midnightblue" points="50.6,-553.37 53.83,-563.46 57.6,-553.56 50.6,-553.37"/>
</g>
<!-- Node3 -->
<g id="node3" class="node">
<title>Node3</title>
<g id="a_node3"><a xlink:href="classtracktion_1_1engine_1_1AirWindowsAutomatableParameter.html" target="_top" xlink:title=" ">
<polygon fill="none" stroke="black" points="350,-1674.5 350,-1704.5 538,-1704.5 538,-1674.5 350,-1674.5"/>
<text text-anchor="start" x="358" y="-1692.5" font-family="Helvetica,sans-Serif" font-size="10.00">tracktion::engine::</text>
<text text-anchor="middle" x="444" y="-1681.5" font-family="Helvetica,sans-Serif" font-size="10.00">AirWindowsAutomatableParameter</text>
</a>
</g>
</g>
<!-- Node2&#45;&gt;Node3 -->
<g id="edge2" class="edge">
<title>Node2&#45;&gt;Node3</title>
<path fill="none" stroke="midnightblue" d="M245.24,-1565.93C266.45,-1593.87 305.63,-1639.97 350,-1665.5 355.93,-1668.91 362.34,-1671.84 368.93,-1674.36"/>
<polygon fill="midnightblue" stroke="midnightblue" points="247.78,-1563.48 239.01,-1557.55 242.17,-1567.66 247.78,-1563.48"/>
</g>
<!-- Node4 -->
<g id="node4" class="node">
<title>Node4</title>
<g id="a_node4"><a xlink:href="structtracktion_1_1engine_1_1DiscreteLabelledParameter.html" target="_top" xlink:title=" ">
<polygon fill="none" stroke="black" points="369.5,-1625.5 369.5,-1655.5 518.5,-1655.5 518.5,-1625.5 369.5,-1625.5"/>
<text text-anchor="start" x="377.5" y="-1643.5" font-family="Helvetica,sans-Serif" font-size="10.00">tracktion::engine::</text>
<text text-anchor="middle" x="444" y="-1632.5" font-family="Helvetica,sans-Serif" font-size="10.00">DiscreteLabelledParameter</text>
</a>
</g>
</g>
<!-- Node2&#45;&gt;Node4 -->
<g id="edge3" class="edge">
<title>Node2&#45;&gt;Node4</title>
<path fill="none" stroke="midnightblue" d="M257.23,-1563.35C281.06,-1579.81 316.36,-1602.29 350,-1616.5 357.99,-1619.88 366.57,-1622.87 375.17,-1625.5"/>
<polygon fill="midnightblue" stroke="midnightblue" points="259.19,-1560.46 248.99,-1557.59 255.18,-1566.19 259.19,-1560.46"/>
</g>
<!-- Node5 -->
<g id="node5" class="node">
<title>Node5</title>
<g id="a_node5"><a xlink:href="classtracktion_1_1engine_1_1ExternalAutomatableParameter.html" target="_top" xlink:title=" ">
<polygon fill="none" stroke="black" points="359,-1576.5 359,-1606.5 529,-1606.5 529,-1576.5 359,-1576.5"/>
<text text-anchor="start" x="367" y="-1594.5" font-family="Helvetica,sans-Serif" font-size="10.00">tracktion::engine::</text>
<text text-anchor="middle" x="444" y="-1583.5" font-family="Helvetica,sans-Serif" font-size="10.00">ExternalAutomatableParameter</text>
</a>
</g>
</g>
<!-- Node2&#45;&gt;Node5 -->
<g id="edge4" class="edge">
<title>Node2&#45;&gt;Node5</title>
<path fill="none" stroke="midnightblue" d="M302.43,-1559.39C326.67,-1564.92 353.42,-1571.04 377.03,-1576.43"/>
<polygon fill="midnightblue" stroke="midnightblue" points="303.09,-1555.95 292.57,-1557.14 301.54,-1562.77 303.09,-1555.95"/>
</g>
<!-- Node6 -->
<g id="node6" class="node">
<title>Node6</title>
<g id="a_node6"><a xlink:href="classtracktion_1_1engine_1_1MacroParameter.html" target="_top" xlink:title="A MacroParameter is an AutomatableParameter which is a collection of Mappings.">
<polygon fill="none" stroke="black" points="391.5,-1527.5 391.5,-1557.5 496.5,-1557.5 496.5,-1527.5 391.5,-1527.5"/>
<text text-anchor="start" x="399.5" y="-1545.5" font-family="Helvetica,sans-Serif" font-size="10.00">tracktion::engine::</text>
<text text-anchor="middle" x="444" y="-1534.5" font-family="Helvetica,sans-Serif" font-size="10.00">MacroParameter</text>
</a>
</g>
</g>
<!-- Node2&#45;&gt;Node6 -->
<g id="edge5" class="edge">
<title>Node2&#45;&gt;Node6</title>
<path fill="none" stroke="midnightblue" d="M302.75,-1542.5C332.01,-1542.5 364.91,-1542.5 391.49,-1542.5"/>
<polygon fill="midnightblue" stroke="midnightblue" points="302.57,-1539 292.57,-1542.5 302.57,-1546 302.57,-1539"/>
</g>
<!-- Node7 -->
<g id="node7" class="node">
<title>Node7</title>
<g id="a_node7"><a xlink:href="structtracktion_1_1engine_1_1PluginWetDryAutomatableParam.html" target="_top" xlink:title="specialised AutomatableParameter for wet/dry.">
<polygon fill="none" stroke="black" points="356,-1478.5 356,-1508.5 532,-1508.5 532,-1478.5 356,-1478.5"/>
<text text-anchor="start" x="364" y="-1496.5" font-family="Helvetica,sans-Serif" font-size="10.00">tracktion::engine::</text>
<text text-anchor="middle" x="444" y="-1485.5" font-family="Helvetica,sans-Serif" font-size="10.00">PluginWetDryAutomatableParam</text>
</a>
</g>
</g>
<!-- Node2&#45;&gt;Node7 -->
<g id="edge6" class="edge">
<title>Node2&#45;&gt;Node7</title>
<path fill="none" stroke="midnightblue" d="M302.43,-1525.61C326.67,-1520.08 353.42,-1513.96 377.03,-1508.57"/>
<polygon fill="midnightblue" stroke="midnightblue" points="301.54,-1522.23 292.57,-1527.86 303.09,-1529.05 301.54,-1522.23"/>
</g>
<!-- Node8 -->
<g id="node8" class="node">
<title>Node8</title>
<g id="a_node8"><a xlink:href="structtracktion_1_1engine_1_1SuffixedParameter.html" target="_top" xlink:title=" ">
<polygon fill="none" stroke="black" points="391,-1429.5 391,-1459.5 497,-1459.5 497,-1429.5 391,-1429.5"/>
<text text-anchor="start" x="399" y="-1447.5" font-family="Helvetica,sans-Serif" font-size="10.00">tracktion::engine::</text>
<text text-anchor="middle" x="444" y="-1436.5" font-family="Helvetica,sans-Serif" font-size="10.00">SuffixedParameter</text>
</a>
</g>
</g>
<!-- Node2&#45;&gt;Node8 -->
<g id="edge7" class="edge">
<title>Node2&#45;&gt;Node8</title>
<path fill="none" stroke="midnightblue" d="M257.74,-1521.75C281.61,-1505.6 316.72,-1483.64 350,-1469.5 362.93,-1464.01 377.38,-1459.43 390.97,-1455.75"/>
<polygon fill="midnightblue" stroke="midnightblue" points="255.75,-1518.87 249.48,-1527.4 259.71,-1524.64 255.75,-1518.87"/>
</g>
<!-- Node11 -->
<g id="node11" class="node">
<title>Node11</title>
<g id="a_node11"><a xlink:href="classtracktion_1_1engine_1_1AlphaTrackControlSurface.html" target="_top" xlink:title=" ">
<polygon fill="none" stroke="black" points="373,-1380.5 373,-1410.5 515,-1410.5 515,-1380.5 373,-1380.5"/>
<text text-anchor="start" x="381" y="-1398.5" font-family="Helvetica,sans-Serif" font-size="10.00">tracktion::engine::</text>
<text text-anchor="middle" x="444" y="-1387.5" font-family="Helvetica,sans-Serif" font-size="10.00">AlphaTrackControlSurface</text>
</a>
</g>
</g>
<!-- Node10&#45;&gt;Node11 -->
<g id="edge10" class="edge">
<title>Node10&#45;&gt;Node11</title>
<path fill="none" stroke="midnightblue" d="M289.82,-1208.81C298.85,-1212.48 307.33,-1217.53 314,-1224.5 360.5,-1273.1 302.73,-1323.64 350,-1371.5 356.44,-1378.03 364.41,-1382.85 372.95,-1386.41"/>
<polygon fill="midnightblue" stroke="midnightblue" points="290.86,-1205.47 280.26,-1205.48 288.55,-1212.08 290.86,-1205.47"/>
</g>
<!-- Node12 -->
<g id="node12" class="node">
<title>Node12</title>
<g id="a_node12"><a xlink:href="classtracktion_1_1engine_1_1CustomControlSurface.html" target="_top" xlink:title=" ">
<polygon fill="none" stroke="black" points="381,-1331.5 381,-1361.5 507,-1361.5 507,-1331.5 381,-1331.5"/>
<text text-anchor="start" x="389" y="-1349.5" font-family="Helvetica,sans-Serif" font-size="10.00">tracktion::engine::</text>
<text text-anchor="middle" x="444" y="-1338.5" font-family="Helvetica,sans-Serif" font-size="10.00">CustomControlSurface</text>
</a>
</g>
</g>
<!-- Node10&#45;&gt;Node12 -->
<g id="edge11" class="edge">
<title>Node10&#45;&gt;Node12</title>
<path fill="none" stroke="midnightblue" d="M289.49,-1209.6C298.48,-1213.17 307.04,-1217.99 314,-1224.5 347.9,-1256.18 315.6,-1291.36 350,-1322.5 358.65,-1330.33 369.53,-1335.68 380.76,-1339.31"/>
<polygon fill="midnightblue" stroke="midnightblue" points="290.61,-1206.29 280.02,-1206.31 288.32,-1212.9 290.61,-1206.29"/>
</g>
<!-- Node13 -->
<g id="node13" class="node">
<title>Node13</title>
<g id="a_node13"><a xlink:href="classtracktion_1_1engine_1_1MackieC4.html" target="_top" xlink:title=" ">
<polygon fill="none" stroke="black" points="391.5,-1282.5 391.5,-1312.5 496.5,-1312.5 496.5,-1282.5 391.5,-1282.5"/>
<text text-anchor="start" x="399.5" y="-1300.5" font-family="Helvetica,sans-Serif" font-size="10.00">tracktion::engine::</text>
<text text-anchor="middle" x="444" y="-1289.5" font-family="Helvetica,sans-Serif" font-size="10.00">MackieC4</text>
</a>
</g>
</g>
<!-- Node10&#45;&gt;Node13 -->
<g id="edge12" class="edge">
<title>Node10&#45;&gt;Node13</title>
<path fill="none" stroke="midnightblue" d="M289.9,-1212.1C298.42,-1215.34 306.73,-1219.41 314,-1224.5 336.14,-1240 327.62,-1258.36 350,-1273.5 362.15,-1281.72 376.94,-1287.13 391.11,-1290.68"/>
<polygon fill="midnightblue" stroke="midnightblue" points="290.84,-1208.72 280.25,-1208.78 288.56,-1215.34 290.84,-1208.72"/>
</g>
<!-- Node14 -->
<g id="node14" class="node">
<title>Node14</title>
<g id="a_node14"><a xlink:href="classtracktion_1_1engine_1_1MackieMCU.html" target="_top" xlink:title=" ">
<polygon fill="none" stroke="red" points="391.5,-1233.5 391.5,-1263.5 496.5,-1263.5 496.5,-1233.5 391.5,-1233.5"/>
<text text-anchor="start" x="399.5" y="-1251.5" font-family="Helvetica,sans-Serif" font-size="10.00">tracktion::engine::</text>
<text text-anchor="middle" x="444" y="-1240.5" font-family="Helvetica,sans-Serif" font-size="10.00">MackieMCU</text>
</a>
</g>
</g>
<!-- Node10&#45;&gt;Node14 -->
<g id="edge13" class="edge">
<title>Node10&#45;&gt;Node14</title>
<path fill="none" stroke="midnightblue" d="M290.3,-1213.62C322.34,-1220.94 361.01,-1229.77 391.43,-1236.72"/>
<polygon fill="midnightblue" stroke="midnightblue" points="290.68,-1210.11 280.15,-1211.3 289.12,-1216.94 290.68,-1210.11"/>
</g>
<!-- Node16 -->
<g id="node15" class="node">
<title>Node16</title>
<g id="a_node15"><a xlink:href="classtracktion_1_1engine_1_1MackieXT.html" target="_top" xlink:title=" ">
<polygon fill="none" stroke="black" points="391.5,-1184.5 391.5,-1214.5 496.5,-1214.5 496.5,-1184.5 391.5,-1184.5"/>
<text text-anchor="start" x="399.5" y="-1202.5" font-family="Helvetica,sans-Serif" font-size="10.00">tracktion::engine::</text>
<text text-anchor="middle" x="444" y="-1191.5" font-family="Helvetica,sans-Serif" font-size="10.00">MackieXT</text>
</a>
</g>
</g>
<!-- Node10&#45;&gt;Node16 -->
<g id="edge14" class="edge">
<title>Node10&#45;&gt;Node16</title>
<path fill="none" stroke="midnightblue" d="M290.3,-1199.5C322.34,-1199.5 361.01,-1199.5 391.43,-1199.5"/>
<polygon fill="midnightblue" stroke="midnightblue" points="290.15,-1196 280.15,-1199.5 290.15,-1203 290.15,-1196"/>
</g>
<!-- Node17 -->
<g id="node16" class="node">
<title>Node17</title>
<g id="a_node16"><a xlink:href="classtracktion_1_1engine_1_1NovationRemoteSl.html" target="_top" xlink:title=" ">
<polygon fill="none" stroke="red" points="390,-1135.5 390,-1165.5 498,-1165.5 498,-1135.5 390,-1135.5"/>
<text text-anchor="start" x="398" y="-1153.5" font-family="Helvetica,sans-Serif" font-size="10.00">tracktion::engine::</text>
<text text-anchor="middle" x="444" y="-1142.5" font-family="Helvetica,sans-Serif" font-size="10.00">NovationRemoteSl</text>
</a>
</g>
</g>
<!-- Node10&#45;&gt;Node17 -->
<g id="edge15" class="edge">
<title>Node10&#45;&gt;Node17</title>
<path fill="none" stroke="midnightblue" d="M290.15,-1185.42C321.69,-1178.21 359.71,-1169.53 389.93,-1162.62"/>
<polygon fill="midnightblue" stroke="midnightblue" points="289.12,-1182.06 280.15,-1187.7 290.68,-1188.89 289.12,-1182.06"/>
</g>
<!-- Node19 -->
<g id="node17" class="node">
<title>Node19</title>
<g id="a_node17"><a xlink:href="classtracktion_1_1engine_1_1TranzportControlSurface.html" target="_top" xlink:title=" ">
<polygon fill="none" stroke="black" points="377,-1086.5 377,-1116.5 511,-1116.5 511,-1086.5 377,-1086.5"/>
<text text-anchor="start" x="385" y="-1104.5" font-family="Helvetica,sans-Serif" font-size="10.00">tracktion::engine::</text>
<text text-anchor="middle" x="444" y="-1093.5" font-family="Helvetica,sans-Serif" font-size="10.00">TranzportControlSurface</text>
</a>
</g>
</g>
<!-- Node10&#45;&gt;Node19 -->
<g id="edge16" class="edge">
<title>Node10&#45;&gt;Node19</title>
<path fill="none" stroke="midnightblue" d="M257.74,-1178.75C281.61,-1162.6 316.72,-1140.64 350,-1126.5 358.77,-1122.77 368.25,-1119.47 377.68,-1116.58"/>
<polygon fill="midnightblue" stroke="midnightblue" points="255.75,-1175.87 249.48,-1184.4 259.71,-1181.64 255.75,-1175.87"/>
</g>
<!-- Node21 -->
<g id="node19" class="node">
<title>Node21</title>
<g id="a_node19"><a xlink:href="classtracktion_1_1engine_1_1TempoSetting.html" target="_top" xlink:title="A tempo value, as used in a TempoSequence.">
<polygon fill="none" stroke="black" points="391.5,-1037.5 391.5,-1067.5 496.5,-1067.5 496.5,-1037.5 391.5,-1037.5"/>
<text text-anchor="start" x="399.5" y="-1055.5" font-family="Helvetica,sans-Serif" font-size="10.00">tracktion::engine::</text>
<text text-anchor="middle" x="444" y="-1044.5" font-family="Helvetica,sans-Serif" font-size="10.00">TempoSetting</text>
</a>
</g>
</g>
<!-- Node20&#45;&gt;Node21 -->
<g id="edge18" class="edge">
<title>Node20&#45;&gt;Node21</title>
<path fill="none" stroke="midnightblue" d="M290.3,-1038.26C322.34,-1041.25 361.01,-1044.86 391.43,-1047.69"/>
<polygon fill="midnightblue" stroke="midnightblue" points="290.43,-1034.76 280.15,-1037.32 289.78,-1041.73 290.43,-1034.76"/>
</g>
<!-- Node24 -->
<g id="node22" class="node">
<title>Node24</title>
<g id="a_node22"><a xlink:href="classtracktion_1_1engine_1_1MidiInputDevice.html" target="_top" xlink:title=" ">
<polygon fill="none" stroke="red" points="391.5,-988.5 391.5,-1018.5 496.5,-1018.5 496.5,-988.5 391.5,-988.5"/>
<text text-anchor="start" x="399.5" y="-1006.5" font-family="Helvetica,sans-Serif" font-size="10.00">tracktion::engine::</text>
<text text-anchor="middle" x="444" y="-995.5" font-family="Helvetica,sans-Serif" font-size="10.00">MidiInputDevice</text>
</a>
</g>
</g>
<!-- Node23&#45;&gt;Node24 -->
<g id="edge21" class="edge">
<title>Node23&#45;&gt;Node24</title>
<path fill="none" stroke="midnightblue" d="M289.55,-938.99C297.98,-941.95 306.36,-945.43 314,-949.5 332.38,-959.29 331.47,-970 350,-979.5 362.76,-986.04 377.44,-990.9 391.32,-994.46"/>
<polygon fill="midnightblue" stroke="midnightblue" points="290.63,-935.66 280.03,-935.86 288.44,-942.31 290.63,-935.66"/>
</g>
<!-- Node27 -->
<g id="node23" class="node">
<title>Node27</title>
<g id="a_node23"><a xlink:href="classtracktion_1_1engine_1_1WaveInputDevice.html" target="_top" xlink:title="A (virtual) audio input device.">
<polygon fill="none" stroke="black" points="391.5,-939.5 391.5,-969.5 496.5,-969.5 496.5,-939.5 391.5,-939.5"/>
<text text-anchor="start" x="399.5" y="-957.5" font-family="Helvetica,sans-Serif" font-size="10.00">tracktion::engine::</text>
<text text-anchor="middle" x="444" y="-946.5" font-family="Helvetica,sans-Serif" font-size="10.00">WaveInputDevice</text>
</a>
</g>
</g>
<!-- Node23&#45;&gt;Node27 -->
<g id="edge22" class="edge">
<title>Node23&#45;&gt;Node27</title>
<path fill="none" stroke="midnightblue" d="M290.3,-933.14C322.34,-937.62 361.01,-943.03 391.43,-947.29"/>
<polygon fill="midnightblue" stroke="midnightblue" points="290.54,-929.64 280.15,-931.72 289.57,-936.58 290.54,-929.64"/>
</g>
<!-- Node29 -->
<g id="node25" class="node">
<title>Node29</title>
<g id="a_node25"><a xlink:href="structtracktion_1_1engine_1_1InputDeviceInstance_1_1MidiInputDestination.html" target="_top" xlink:title=" ">
<polygon fill="none" stroke="black" points="381.5,-879 381.5,-920 506.5,-920 506.5,-879 381.5,-879"/>
<text text-anchor="start" x="389.5" y="-908" font-family="Helvetica,sans-Serif" font-size="10.00">tracktion::engine::</text>
<text text-anchor="start" x="389.5" y="-897" font-family="Helvetica,sans-Serif" font-size="10.00">InputDeviceInstance</text>
<text text-anchor="middle" x="444" y="-886" font-family="Helvetica,sans-Serif" font-size="10.00">::MidiInputDestination</text>
</a>
</g>
</g>
<!-- Node28&#45;&gt;Node29 -->
<g id="edge24" class="edge">
<title>Node28&#45;&gt;Node29</title>
<path fill="none" stroke="midnightblue" d="M295.61,-868.58C323.06,-874.34 354.6,-880.95 381.45,-886.59"/>
<polygon fill="midnightblue" stroke="midnightblue" points="296.21,-865.13 285.7,-866.5 294.77,-871.98 296.21,-865.13"/>
</g>
<!-- Node30 -->
<g id="node26" class="node">
<title>Node30</title>
<g id="a_node26"><a xlink:href="structtracktion_1_1engine_1_1InputDeviceInstance_1_1VirtualMidiInputDestination.html" target="_top" xlink:title=" ">
<polygon fill="none" stroke="black" points="365.5,-819 365.5,-860 522.5,-860 522.5,-819 365.5,-819"/>
<text text-anchor="start" x="373.5" y="-848" font-family="Helvetica,sans-Serif" font-size="10.00">tracktion::engine::</text>
<text text-anchor="start" x="373.5" y="-837" font-family="Helvetica,sans-Serif" font-size="10.00">InputDeviceInstance</text>
<text text-anchor="middle" x="444" y="-826" font-family="Helvetica,sans-Serif" font-size="10.00">::VirtualMidiInputDestination</text>
</a>
</g>
</g>
<!-- Node28&#45;&gt;Node30 -->
<g id="edge25" class="edge">
<title>Node28&#45;&gt;Node30</title>
<path fill="none" stroke="midnightblue" d="M295.96,-849.78C318.01,-848.24 342.67,-846.52 365.4,-844.93"/>
<polygon fill="midnightblue" stroke="midnightblue" points="295.43,-846.31 285.7,-850.5 295.92,-853.29 295.43,-846.31"/>
</g>
<!-- Node31 -->
<g id="node27" class="node">
<title>Node31</title>
<g id="a_node27"><a xlink:href="structtracktion_1_1engine_1_1InputDeviceInstance_1_1WaveInputDestination.html" target="_top" xlink:title=" ">
<polygon fill="none" stroke="black" points="378.5,-759 378.5,-800 509.5,-800 509.5,-759 378.5,-759"/>
<text text-anchor="start" x="386.5" y="-788" font-family="Helvetica,sans-Serif" font-size="10.00">tracktion::engine::</text>
<text text-anchor="start" x="386.5" y="-777" font-family="Helvetica,sans-Serif" font-size="10.00">InputDeviceInstance</text>
<text text-anchor="middle" x="444" y="-766" font-family="Helvetica,sans-Serif" font-size="10.00">::WaveInputDestination</text>
</a>
</g>
</g>
<!-- Node28&#45;&gt;Node31 -->
<g id="edge26" class="edge">
<title>Node28&#45;&gt;Node31</title>
<path fill="none" stroke="midnightblue" d="M295.52,-831.4C301.79,-829.11 308.02,-826.79 314,-824.5 330.18,-818.29 333.74,-815.5 350,-809.5 359.15,-806.12 368.88,-802.75 378.48,-799.55"/>
<polygon fill="midnightblue" stroke="midnightblue" points="293.91,-828.26 285.69,-834.94 296.29,-834.84 293.91,-828.26"/>
</g>
<!-- Node34 -->
<g id="node30" class="node">
<title>Node34</title>
<g id="a_node30"><a xlink:href="classtracktion_1_1engine_1_1BreakpointOscillatorModifier.html" target="_top" xlink:title=" ">
<polygon fill="none" stroke="black" points="366,-709.5 366,-739.5 522,-739.5 522,-709.5 366,-709.5"/>
<text text-anchor="start" x="374" y="-727.5" font-family="Helvetica,sans-Serif" font-size="10.00">tracktion::engine::</text>
<text text-anchor="middle" x="444" y="-716.5" font-family="Helvetica,sans-Serif" font-size="10.00">BreakpointOscillatorModifier</text>
</a>
</g>
</g>
<!-- Node33&#45;&gt;Node34 -->
<g id="edge29" class="edge">
<title>Node33&#45;&gt;Node34</title>
<path fill="none" stroke="midnightblue" d="M290.35,-743C313.89,-740.15 341.01,-736.86 365.8,-733.86"/>
<polygon fill="midnightblue" stroke="midnightblue" points="289.66,-739.56 280.15,-744.24 290.5,-746.51 289.66,-739.56"/>
</g>
<!-- Node35 -->
<g id="node31" class="node">
<title>Node35</title>
<g id="a_node31"><a xlink:href="classtracktion_1_1engine_1_1EnvelopeFollowerModifier.html" target="_top" xlink:title=" ">
<polygon fill="none" stroke="black" points="372.5,-660.5 372.5,-690.5 515.5,-690.5 515.5,-660.5 372.5,-660.5"/>
<text text-anchor="start" x="380.5" y="-678.5" font-family="Helvetica,sans-Serif" font-size="10.00">tracktion::engine::</text>
<text text-anchor="middle" x="444" y="-667.5" font-family="Helvetica,sans-Serif" font-size="10.00">EnvelopeFollowerModifier</text>
</a>
</g>
</g>
<!-- Node33&#45;&gt;Node35 -->
<g id="edge30" class="edge">
<title>Node33&#45;&gt;Node35</title>
<path fill="none" stroke="midnightblue" d="M289.9,-736.11C298.17,-733.35 306.42,-730.16 314,-726.5 331.78,-717.92 332.18,-708.98 350,-700.5 358,-696.69 366.68,-693.39 375.4,-690.55"/>
<polygon fill="midnightblue" stroke="midnightblue" points="288.71,-732.81 280.22,-739.14 290.81,-739.49 288.71,-732.81"/>
</g>
<!-- Node36 -->
<g id="node32" class="node">
<title>Node36</title>
<g id="a_node32"><a xlink:href="classtracktion_1_1engine_1_1LFOModifier.html" target="_top" xlink:title=" ">
<polygon fill="none" stroke="black" points="391.5,-611.5 391.5,-641.5 496.5,-641.5 496.5,-611.5 391.5,-611.5"/>
<text text-anchor="start" x="399.5" y="-629.5" font-family="Helvetica,sans-Serif" font-size="10.00">tracktion::engine::</text>
<text text-anchor="middle" x="444" y="-618.5" font-family="Helvetica,sans-Serif" font-size="10.00">LFOModifier</text>
</a>
</g>
</g>
<!-- Node33&#45;&gt;Node36 -->
<g id="edge31" class="edge">
<title>Node33&#45;&gt;Node36</title>
<path fill="none" stroke="midnightblue" d="M289.88,-740.21C298.6,-736.85 306.98,-732.4 314,-726.5 342.32,-702.72 321.55,-675.12 350,-651.5 361.71,-641.78 376.84,-635.81 391.49,-632.16"/>
<polygon fill="midnightblue" stroke="midnightblue" points="288.68,-736.92 280.33,-743.45 290.92,-743.55 288.68,-736.92"/>
</g>
<!-- Node37 -->
<g id="node33" class="node">
<title>Node37</title>
<g id="a_node33"><a xlink:href="classtracktion_1_1engine_1_1MIDITrackerModifier.html" target="_top" xlink:title=" ">
<polygon fill="none" stroke="black" points="387.5,-562.5 387.5,-592.5 500.5,-592.5 500.5,-562.5 387.5,-562.5"/>
<text text-anchor="start" x="395.5" y="-580.5" font-family="Helvetica,sans-Serif" font-size="10.00">tracktion::engine::</text>
<text text-anchor="middle" x="444" y="-569.5" font-family="Helvetica,sans-Serif" font-size="10.00">MIDITrackerModifier</text>
</a>
</g>
</g>
<!-- Node33&#45;&gt;Node37 -->
<g id="edge32" class="edge">
<title>Node33&#45;&gt;Node37</title>
<path fill="none" stroke="midnightblue" d="M290.14,-741.45C298.98,-737.94 307.33,-733.12 314,-726.5 354.76,-686.1 309.02,-642.67 350,-602.5 360.03,-592.67 373.49,-586.6 387.05,-582.88"/>
<polygon fill="midnightblue" stroke="midnightblue" points="288.75,-738.23 280.41,-744.77 291.01,-744.86 288.75,-738.23"/>
</g>
<!-- Node38 -->
<g id="node34" class="node">
<title>Node38</title>
<g id="a_node34"><a xlink:href="classtracktion_1_1engine_1_1RandomModifier.html" target="_top" xlink:title=" ">
<polygon fill="none" stroke="black" points="391.5,-513.5 391.5,-543.5 496.5,-543.5 496.5,-513.5 391.5,-513.5"/>
<text text-anchor="start" x="399.5" y="-531.5" font-family="Helvetica,sans-Serif" font-size="10.00">tracktion::engine::</text>
<text text-anchor="middle" x="444" y="-520.5" font-family="Helvetica,sans-Serif" font-size="10.00">RandomModifier</text>
</a>
</g>
</g>
<!-- Node33&#45;&gt;Node38 -->
<g id="edge33" class="edge">
<title>Node33&#45;&gt;Node38</title>
<path fill="none" stroke="midnightblue" d="M289.68,-742.27C298.81,-738.68 307.37,-733.61 314,-726.5 367.86,-668.75 295.53,-609.68 350,-552.5 360.81,-541.15 376.22,-534.9 391.4,-531.53"/>
<polygon fill="midnightblue" stroke="midnightblue" points="288.39,-739.01 280.02,-745.51 290.61,-745.65 288.39,-739.01"/>
</g>
</g>
</svg>
