<?xml version="1.0" encoding="UTF-8" standalone="no"?>
<!DOCTYPE svg PUBLIC "-//W3C//DTD SVG 1.1//EN"
 "http://www.w3.org/Graphics/SVG/1.1/DTD/svg11.dtd">
<!-- Generated by graphviz version 2.43.0 (0)
 -->
<!-- Title: tracktion::engine::WaveNodeRealTime Pages: 1 -->
<svg width="342pt" height="124pt"
 viewBox="0.00 0.00 342.00 123.50" xmlns="http://www.w3.org/2000/svg" xmlns:xlink="http://www.w3.org/1999/xlink">
<g id="graph0" class="graph" transform="scale(1 1) rotate(0) translate(4 119.5)">
<title>tracktion::engine::WaveNodeRealTime</title>
<!-- Node1 -->
<g id="Node000001" class="node">
<title>Node1</title>
<g id="a_Node000001"><a xlink:title="An Node that plays back a wave file.">
<polygon fill="#999999" stroke="#666666" points="334,-78 218,-78 218,-48 334,-48 334,-78"/>
<text text-anchor="start" x="226" y="-66" font-family="Helvetica,sans-Serif" font-size="10.00">tracktion::engine::</text>
<text text-anchor="middle" x="276" y="-55" font-family="Helvetica,sans-Serif" font-size="10.00">WaveNodeRealTime</text>
</a>
</g>
</g>
<!-- Node2 -->
<g id="Node000002" class="node">
<title>Node2</title>
<g id="a_Node000002"><a xlink:href="classtracktion_1_1graph_1_1Node.html" target="_top" xlink:title="Main graph Node processor class.">
<polygon fill="white" stroke="#666666" points="153.5,-115.5 28.5,-115.5 28.5,-96.5 153.5,-96.5 153.5,-115.5"/>
<text text-anchor="middle" x="91" y="-103.5" font-family="Helvetica,sans-Serif" font-size="10.00">tracktion::graph::Node</text>
</a>
</g>
</g>
<!-- Node2&#45;&gt;Node1 -->
<g id="edge1_Node000001_Node000002" class="edge">
<title>Node2&#45;&gt;Node1</title>
<g id="a_edge1_Node000001_Node000002"><a xlink:title=" ">
<path fill="none" stroke="#63b8ff" d="M149.15,-94.33C160.07,-91.99 171.41,-89.48 182,-87 193.69,-84.26 206.16,-81.16 218.05,-78.13"/>
<polygon fill="#63b8ff" stroke="#63b8ff" points="148.32,-90.93 139.26,-96.43 149.77,-97.78 148.32,-90.93"/>
</a>
</g>
</g>
<!-- Node3 -->
<g id="Node000003" class="node">
<title>Node3</title>
<g id="a_Node000003"><a xlink:href="classtracktion_1_1engine_1_1TracktionEngineNode.html" target="_top" xlink:title="Base class for Nodes that provides information about the current process call.">
<polygon fill="white" stroke="#666666" points="150.5,-78 31.5,-78 31.5,-48 150.5,-48 150.5,-78"/>
<text text-anchor="start" x="39.5" y="-66" font-family="Helvetica,sans-Serif" font-size="10.00">tracktion::engine::</text>
<text text-anchor="middle" x="91" y="-55" font-family="Helvetica,sans-Serif" font-size="10.00">TracktionEngineNode</text>
</a>
</g>
</g>
<!-- Node3&#45;&gt;Node1 -->
<g id="edge2_Node000001_Node000003" class="edge">
<title>Node3&#45;&gt;Node1</title>
<g id="a_edge2_Node000001_Node000003"><a xlink:title=" ">
<path fill="none" stroke="#63b8ff" d="M160.67,-63C179.54,-63 199.79,-63 217.92,-63"/>
<polygon fill="#63b8ff" stroke="#63b8ff" points="160.66,-59.5 150.66,-63 160.66,-66.5 160.66,-59.5"/>
</a>
</g>
</g>
<!-- Node4 -->
<g id="Node000004" class="node">
<title>Node4</title>
<g id="a_Node000004"><a xlink:href="classtracktion_1_1engine_1_1DynamicallyOffsettableNodeBase.html" target="_top" xlink:title=" ">
<polygon fill="white" stroke="#666666" points="182,-30 0,-30 0,0 182,0 182,-30"/>
<text text-anchor="start" x="8" y="-18" font-family="Helvetica,sans-Serif" font-size="10.00">tracktion::engine::</text>
<text text-anchor="middle" x="91" y="-7" font-family="Helvetica,sans-Serif" font-size="10.00">DynamicallyOffsettableNodeBase</text>
</a>
</g>
</g>
<!-- Node4&#45;&gt;Node1 -->
<g id="edge3_Node000001_Node000004" class="edge">
<title>Node4&#45;&gt;Node1</title>
<g id="a_edge3_Node000001_Node000004"><a xlink:title=" ">
<path fill="none" stroke="#63b8ff" d="M159.29,-32.65C178.5,-37.69 199.25,-43.13 217.8,-48"/>
<polygon fill="#63b8ff" stroke="#63b8ff" points="159.96,-29.21 149.4,-30.06 158.19,-35.98 159.96,-29.21"/>
</a>
</g>
</g>
</g>
</svg>
