<?xml version="1.0" encoding="UTF-8" standalone="no"?>
<!DOCTYPE svg PUBLIC "-//W3C//DTD SVG 1.1//EN"
 "http://www.w3.org/Graphics/SVG/1.1/DTD/svg11.dtd">
<!-- Generated by graphviz version 2.43.0 (0)
 -->
<!-- Title: tracktion_engine::OutputDevice Pages: 1 -->
<svg width="348pt" height="229pt"
 viewBox="0.00 0.00 348.00 229.00" xmlns="http://www.w3.org/2000/svg" xmlns:xlink="http://www.w3.org/1999/xlink">
<g id="graph0" class="graph" transform="scale(1 1) rotate(0) translate(4 225)">
<title>tracktion_engine::OutputDevice</title>
<!-- Node1 -->
<g id="node1" class="node">
<title>Node1</title>
<g id="a_node1"><a xlink:title="Base class for audio or midi output devices, to which a track&#39;s output can be sent.">
<polygon fill="#bfbfbf" stroke="black" points="99.5,-134.5 99.5,-164.5 236.5,-164.5 236.5,-134.5 99.5,-134.5"/>
<text text-anchor="start" x="107.5" y="-152.5" font-family="Helvetica,sans-Serif" font-size="10.00">tracktion_engine::Output</text>
<text text-anchor="middle" x="168" y="-141.5" font-family="Helvetica,sans-Serif" font-size="10.00">Device</text>
</a>
</g>
</g>
<!-- Node3 -->
<g id="node3" class="node">
<title>Node3</title>
<g id="a_node3"><a xlink:href="classtracktion__engine_1_1MidiOutputDevice.html" target="_top" xlink:title=" ">
<polygon fill="none" stroke="black" points="0,-67.5 0,-97.5 158,-97.5 158,-67.5 0,-67.5"/>
<text text-anchor="start" x="8" y="-85.5" font-family="Helvetica,sans-Serif" font-size="10.00">tracktion_engine::MidiOutput</text>
<text text-anchor="middle" x="79" y="-74.5" font-family="Helvetica,sans-Serif" font-size="10.00">Device</text>
</a>
</g>
</g>
<!-- Node1&#45;&gt;Node3 -->
<g id="edge2" class="edge">
<title>Node1&#45;&gt;Node3</title>
<path fill="none" stroke="midnightblue" d="M140.55,-128.45C126.86,-118.45 110.63,-106.6 98.27,-97.58"/>
<polygon fill="midnightblue" stroke="midnightblue" points="138.55,-131.32 148.69,-134.4 142.68,-125.67 138.55,-131.32"/>
</g>
<!-- Node5 -->
<g id="node5" class="node">
<title>Node5</title>
<g id="a_node5"><a xlink:href="classtracktion__engine_1_1WaveOutputDevice.html" target="_top" xlink:title="A (virtual) audio output device.">
<polygon fill="none" stroke="black" points="176,-67.5 176,-97.5 340,-97.5 340,-67.5 176,-67.5"/>
<text text-anchor="start" x="184" y="-85.5" font-family="Helvetica,sans-Serif" font-size="10.00">tracktion_engine::WaveOutput</text>
<text text-anchor="middle" x="258" y="-74.5" font-family="Helvetica,sans-Serif" font-size="10.00">Device</text>
</a>
</g>
</g>
<!-- Node1&#45;&gt;Node5 -->
<g id="edge4" class="edge">
<title>Node1&#45;&gt;Node5</title>
<path fill="none" stroke="midnightblue" d="M195.76,-128.45C209.61,-118.45 226.02,-106.6 238.51,-97.58"/>
<polygon fill="midnightblue" stroke="midnightblue" points="193.59,-125.7 187.53,-134.4 197.68,-131.38 193.59,-125.7"/>
</g>
<!-- Node2 -->
<g id="node2" class="node">
<title>Node2</title>
<g id="a_node2"><a xlink:href="classtracktion__engine_1_1Selectable.html" target="_top" xlink:title="Base class for things that can be selected, and whose properties can appear in the properties panel.">
<polygon fill="none" stroke="black" points="90.5,-201.5 90.5,-220.5 245.5,-220.5 245.5,-201.5 90.5,-201.5"/>
<text text-anchor="middle" x="168" y="-208.5" font-family="Helvetica,sans-Serif" font-size="10.00">tracktion_engine::Selectable</text>
</a>
</g>
</g>
<!-- Node2&#45;&gt;Node1 -->
<g id="edge1" class="edge">
<title>Node2&#45;&gt;Node1</title>
<path fill="none" stroke="midnightblue" d="M168,-191.23C168,-182.59 168,-172.5 168,-164.52"/>
<polygon fill="midnightblue" stroke="midnightblue" points="164.5,-191.48 168,-201.48 171.5,-191.48 164.5,-191.48"/>
</g>
<!-- Node4 -->
<g id="node4" class="node">
<title>Node4</title>
<g id="a_node4"><a xlink:href="classtracktion__engine_1_1SoftwareMidiOutputDevice.html" target="_top" xlink:title="Create a software midi port on macOS.">
<polygon fill="none" stroke="black" points="5.5,-0.5 5.5,-30.5 152.5,-30.5 152.5,-0.5 5.5,-0.5"/>
<text text-anchor="start" x="13.5" y="-18.5" font-family="Helvetica,sans-Serif" font-size="10.00">tracktion_engine::Software</text>
<text text-anchor="middle" x="79" y="-7.5" font-family="Helvetica,sans-Serif" font-size="10.00">MidiOutputDevice</text>
</a>
</g>
</g>
<!-- Node3&#45;&gt;Node4 -->
<g id="edge3" class="edge">
<title>Node3&#45;&gt;Node4</title>
<path fill="none" stroke="midnightblue" d="M79,-57.11C79,-48.15 79,-38.32 79,-30.58"/>
<polygon fill="midnightblue" stroke="midnightblue" points="75.5,-57.4 79,-67.4 82.5,-57.4 75.5,-57.4"/>
</g>
</g>
</svg>
