<?xml version="1.0" encoding="UTF-8" standalone="no"?>
<!DOCTYPE svg PUBLIC "-//W3C//DTD SVG 1.1//EN"
 "http://www.w3.org/Graphics/SVG/1.1/DTD/svg11.dtd">
<!-- Generated by graphviz version 2.40.1 (20161225.0304)
 -->
<!-- Title: tracktion_engine::MacroParameterList Pages: 1 -->
<svg width="190pt" height="151pt"
 viewBox="0.00 0.00 190.00 151.00" xmlns="http://www.w3.org/2000/svg" xmlns:xlink="http://www.w3.org/1999/xlink">
<g id="graph0" class="graph" transform="scale(1 1) rotate(0) translate(4 147)">
<title>tracktion_engine::MacroParameterList</title>
<!-- Node0 -->
<g id="node1" class="node">
<title>Node0</title>
<polygon fill="#bfbfbf" stroke="#000000" points="0,-.5 0,-19.5 182,-19.5 182,-.5 0,-.5"/>
<text text-anchor="middle" x="91" y="-7.5" font-family="Helvetica,sans-Serif" font-size="10.00" fill="#000000">tracktion_engine::MacroParameterList</text>
</g>
<!-- Node1 -->
<g id="node2" class="node">
<title>Node1</title>
<g id="a_node2"><a xlink:href="classtracktion__engine_1_1AutomatableEditItem.html" target="_top" xlink:title="Base class for elements that have some kind of automatable parameters. ">
<polygon fill="none" stroke="#000000" points="16.5,-56.5 16.5,-86.5 165.5,-86.5 165.5,-56.5 16.5,-56.5"/>
<text text-anchor="start" x="24.5" y="-74.5" font-family="Helvetica,sans-Serif" font-size="10.00" fill="#000000">tracktion_engine::Automatable</text>
<text text-anchor="middle" x="91" y="-63.5" font-family="Helvetica,sans-Serif" font-size="10.00" fill="#000000">EditItem</text>
</a>
</g>
</g>
<!-- Node1&#45;&gt;Node0 -->
<g id="edge1" class="edge">
<title>Node1&#45;&gt;Node0</title>
<path fill="none" stroke="#191970" d="M91,-46.2849C91,-36.9858 91,-26.9883 91,-19.8469"/>
<polygon fill="#191970" stroke="#191970" points="87.5001,-46.2977 91,-56.2977 94.5001,-46.2978 87.5001,-46.2977"/>
</g>
<!-- Node2 -->
<g id="node3" class="node">
<title>Node2</title>
<g id="a_node3"><a xlink:href="classtracktion__engine_1_1EditItem.html" target="_top" xlink:title="Base class for objects that live inside an edit &#45; e.g. ">
<polygon fill="none" stroke="#000000" points="25.5,-123.5 25.5,-142.5 156.5,-142.5 156.5,-123.5 25.5,-123.5"/>
<text text-anchor="middle" x="91" y="-130.5" font-family="Helvetica,sans-Serif" font-size="10.00" fill="#000000">tracktion_engine::EditItem</text>
</a>
</g>
</g>
<!-- Node2&#45;&gt;Node1 -->
<g id="edge2" class="edge">
<title>Node2&#45;&gt;Node1</title>
<path fill="none" stroke="#191970" d="M91,-113.3693C91,-104.681 91,-94.6241 91,-86.5446"/>
<polygon fill="#191970" stroke="#191970" points="87.5001,-113.3906 91,-123.3906 94.5001,-113.3907 87.5001,-113.3906"/>
</g>
</g>
</svg>
