<?xml version="1.0" encoding="UTF-8" standalone="no"?>
<!DOCTYPE svg PUBLIC "-//W3C//DTD SVG 1.1//EN"
 "http://www.w3.org/Graphics/SVG/1.1/DTD/svg11.dtd">
<!-- Generated by graphviz version 2.40.1 (20161225.0304)
 -->
<!-- Title: tracktion_engine::ThreadPoolJobWithProgress Pages: 1 -->
<svg width="506pt" height="225pt"
 viewBox="0.00 0.00 506.00 225.00" xmlns="http://www.w3.org/2000/svg" xmlns:xlink="http://www.w3.org/1999/xlink">
<g id="graph0" class="graph" transform="scale(1 1) rotate(0) translate(4 221)">
<title>tracktion_engine::ThreadPoolJobWithProgress</title>
<!-- Node0 -->
<g id="node1" class="node">
<title>Node0</title>
<polygon fill="#bfbfbf" stroke="#000000" points="0,-120.5 0,-150.5 124,-150.5 124,-120.5 0,-120.5"/>
<text text-anchor="start" x="8" y="-138.5" font-family="Helvetica,sans-Serif" font-size="10.00" fill="#000000">tracktion_engine::Thread</text>
<text text-anchor="middle" x="62" y="-127.5" font-family="Helvetica,sans-Serif" font-size="10.00" fill="#000000">PoolJobWithProgress</text>
</g>
<!-- Node1 -->
<g id="node2" class="node">
<title>Node1</title>
<g id="a_node2"><a xlink:href="structtracktion__engine_1_1AudioProxyGenerator_1_1GeneratorJob.html" target="_top" xlink:title="tracktion_engine::AudioProxy\lGenerator::GeneratorJob">
<polygon fill="none" stroke="#000000" points="160,-186.5 160,-216.5 304,-216.5 304,-186.5 160,-186.5"/>
<text text-anchor="start" x="168" y="-204.5" font-family="Helvetica,sans-Serif" font-size="10.00" fill="#000000">tracktion_engine::AudioProxy</text>
<text text-anchor="middle" x="232" y="-193.5" font-family="Helvetica,sans-Serif" font-size="10.00" fill="#000000">Generator::GeneratorJob</text>
</a>
</g>
</g>
<!-- Node0&#45;&gt;Node1 -->
<g id="edge1" class="edge">
<title>Node0&#45;&gt;Node1</title>
<path fill="none" stroke="#191970" d="M106.2474,-154.6965C122.9944,-161.781 142.2877,-169.7273 160,-176.5 168.7752,-179.8554 178.221,-183.2726 187.2906,-186.4592"/>
<polygon fill="#191970" stroke="#191970" points="107.2845,-151.3342 96.7124,-150.6401 104.5442,-157.7755 107.2845,-151.3342"/>
</g>
<!-- Node2 -->
<g id="node3" class="node">
<title>Node2</title>
<g id="a_node3"><a xlink:href="classtracktion__engine_1_1ExportJob.html" target="_top" xlink:title="tracktion_engine::ExportJob">
<polygon fill="none" stroke="#000000" points="163,-148 163,-167 301,-167 301,-148 163,-148"/>
<text text-anchor="middle" x="232" y="-155" font-family="Helvetica,sans-Serif" font-size="10.00" fill="#000000">tracktion_engine::ExportJob</text>
</a>
</g>
</g>
<!-- Node0&#45;&gt;Node2 -->
<g id="edge2" class="edge">
<title>Node0&#45;&gt;Node2</title>
<path fill="none" stroke="#191970" d="M134.4313,-144.8735C143.8309,-146.0899 153.4401,-147.3334 162.7855,-148.5428"/>
<polygon fill="#191970" stroke="#191970" points="134.7029,-141.3795 124.3364,-143.5671 133.8045,-148.3216 134.7029,-141.3795"/>
</g>
<!-- Node3 -->
<g id="node4" class="node">
<title>Node3</title>
<g id="a_node4"><a xlink:href="classtracktion__engine_1_1Renderer_1_1RenderTask.html" target="_top" xlink:title="Task that actually performs the render operation in blocks. ">
<polygon fill="none" stroke="#000000" points="165,-98.5 165,-128.5 299,-128.5 299,-98.5 165,-98.5"/>
<text text-anchor="start" x="173" y="-116.5" font-family="Helvetica,sans-Serif" font-size="10.00" fill="#000000">tracktion_engine::Renderer</text>
<text text-anchor="middle" x="232" y="-105.5" font-family="Helvetica,sans-Serif" font-size="10.00" fill="#000000">::RenderTask</text>
</a>
</g>
</g>
<!-- Node0&#45;&gt;Node3 -->
<g id="edge3" class="edge">
<title>Node0&#45;&gt;Node3</title>
<path fill="none" stroke="#191970" d="M134.3404,-126.1383C144.4476,-124.8303 154.799,-123.4907 164.8058,-122.1957"/>
<polygon fill="#191970" stroke="#191970" points="133.8045,-122.6784 124.3364,-127.4329 134.7029,-129.6205 133.8045,-122.6784"/>
</g>
<!-- Node4 -->
<g id="node5" class="node">
<title>Node4</title>
<g id="a_node5"><a xlink:href="classtracktion__engine_1_1RenderManager_1_1Job.html" target="_top" xlink:title="The base class that all generator jobs derive from. ">
<polygon fill="none" stroke="#000000" points="169.5,-49.5 169.5,-79.5 294.5,-79.5 294.5,-49.5 169.5,-49.5"/>
<text text-anchor="start" x="177.5" y="-67.5" font-family="Helvetica,sans-Serif" font-size="10.00" fill="#000000">tracktion_engine::Render</text>
<text text-anchor="middle" x="232" y="-56.5" font-family="Helvetica,sans-Serif" font-size="10.00" fill="#000000">Manager::Job</text>
</a>
</g>
</g>
<!-- Node0&#45;&gt;Node4 -->
<g id="edge4" class="edge">
<title>Node0&#45;&gt;Node4</title>
<path fill="none" stroke="#191970" d="M101.5289,-115.7923C119.2249,-107.2704 140.4646,-97.451 160,-89.5 168.4565,-86.0582 177.5851,-82.6555 186.409,-79.521"/>
<polygon fill="#191970" stroke="#191970" points="99.5623,-112.8564 92.0957,-120.3731 102.6201,-119.1532 99.5623,-112.8564"/>
</g>
<!-- Node5 -->
<g id="node6" class="node">
<title>Node5</title>
<g id="a_node6"><a xlink:href="classtracktion__engine_1_1EditRenderJob.html" target="_top" xlink:title="tracktion_engine::EditRenderJob">
<polygon fill="none" stroke="#000000" points="340,-99 340,-118 498,-118 498,-99 340,-99"/>
<text text-anchor="middle" x="419" y="-106" font-family="Helvetica,sans-Serif" font-size="10.00" fill="#000000">tracktion_engine::EditRenderJob</text>
</a>
</g>
</g>
<!-- Node4&#45;&gt;Node5 -->
<g id="edge5" class="edge">
<title>Node4&#45;&gt;Node5</title>
<path fill="none" stroke="#191970" d="M304.4211,-81.5403C329.5944,-87.4634 356.9182,-93.8925 378.5673,-98.9864"/>
<polygon fill="#191970" stroke="#191970" points="305.0641,-78.096 294.5283,-79.2125 303.4608,-84.91 305.0641,-78.096"/>
</g>
<!-- Node6 -->
<g id="node7" class="node">
<title>Node6</title>
<g id="a_node7"><a xlink:href="classtracktion__engine_1_1ReverseRenderJob.html" target="_top" xlink:title="tracktion_engine::Reverse\lRenderJob">
<polygon fill="none" stroke="#000000" points="353.5,-49.5 353.5,-79.5 484.5,-79.5 484.5,-49.5 353.5,-49.5"/>
<text text-anchor="start" x="361.5" y="-67.5" font-family="Helvetica,sans-Serif" font-size="10.00" fill="#000000">tracktion_engine::Reverse</text>
<text text-anchor="middle" x="419" y="-56.5" font-family="Helvetica,sans-Serif" font-size="10.00" fill="#000000">RenderJob</text>
</a>
</g>
</g>
<!-- Node4&#45;&gt;Node6 -->
<g id="edge6" class="edge">
<title>Node4&#45;&gt;Node6</title>
<path fill="none" stroke="#191970" d="M304.8796,-64.5C320.8486,-64.5 337.662,-64.5 353.3286,-64.5"/>
<polygon fill="#191970" stroke="#191970" points="304.5283,-61.0001 294.5283,-64.5 304.5282,-68.0001 304.5283,-61.0001"/>
</g>
<!-- Node7 -->
<g id="node8" class="node">
<title>Node7</title>
<g id="a_node8"><a xlink:href="classtracktion__engine_1_1WarpTimeRenderJob.html" target="_top" xlink:title="tracktion_engine::WarpTime\lRenderJob">
<polygon fill="none" stroke="#000000" points="349.5,-.5 349.5,-30.5 488.5,-30.5 488.5,-.5 349.5,-.5"/>
<text text-anchor="start" x="357.5" y="-18.5" font-family="Helvetica,sans-Serif" font-size="10.00" fill="#000000">tracktion_engine::WarpTime</text>
<text text-anchor="middle" x="419" y="-7.5" font-family="Helvetica,sans-Serif" font-size="10.00" fill="#000000">RenderJob</text>
</a>
</g>
</g>
<!-- Node4&#45;&gt;Node7 -->
<g id="edge7" class="edge">
<title>Node4&#45;&gt;Node7</title>
<path fill="none" stroke="#191970" d="M299.2547,-46.8771C319.7133,-41.5163 341.9962,-35.6775 361.7315,-30.5062"/>
<polygon fill="#191970" stroke="#191970" points="298.1632,-43.5449 289.377,-49.4654 299.9376,-50.3163 298.1632,-43.5449"/>
</g>
</g>
</svg>
