<?xml version="1.0" encoding="UTF-8" standalone="no"?>
<!DOCTYPE svg PUBLIC "-//W3C//DTD SVG 1.1//EN"
 "http://www.w3.org/Graphics/SVG/1.1/DTD/svg11.dtd">
<!-- Generated by graphviz version 2.43.0 (0)
 -->
<!-- Title: tracktion_engine::Track Pages: 1 -->
<svg width="751pt" height="185pt"
 viewBox="0.00 0.00 751.00 184.50" xmlns="http://www.w3.org/2000/svg" xmlns:xlink="http://www.w3.org/1999/xlink">
<g id="graph0" class="graph" transform="scale(1 1) rotate(0) translate(4 180.5)">
<title>tracktion_engine::Track</title>
<!-- Node1 -->
<g id="node1" class="node">
<title>Node1</title>
<g id="a_node1"><a xlink:title="Base class for tracks which contain clips and plugins and can be added to Edit[s].">
<polygon fill="#bfbfbf" stroke="black" points="221,-66.5 221,-85.5 351,-85.5 351,-66.5 221,-66.5"/>
<text text-anchor="middle" x="286" y="-73.5" font-family="Helvetica,sans-Serif" font-size="10.00">tracktion_engine::Track</text>
</a>
</g>
</g>
<!-- Node5 -->
<g id="node5" class="node">
<title>Node5</title>
<g id="a_node5"><a xlink:href="classtracktion__engine_1_1AutomationTrack.html" target="_top" xlink:title=" ">
<polygon fill="none" stroke="black" points="387.5,-127 387.5,-157 548.5,-157 548.5,-127 387.5,-127"/>
<text text-anchor="start" x="395.5" y="-145" font-family="Helvetica,sans-Serif" font-size="10.00">tracktion_engine::Automation</text>
<text text-anchor="middle" x="468" y="-134" font-family="Helvetica,sans-Serif" font-size="10.00">Track</text>
</a>
</g>
</g>
<!-- Node1&#45;&gt;Node5 -->
<g id="edge4" class="edge">
<title>Node1&#45;&gt;Node5</title>
<path fill="none" stroke="midnightblue" d="M317.99,-89.51C337.61,-97.87 363.59,-108.56 387,-117 396.45,-120.4 406.61,-123.79 416.42,-126.92"/>
<polygon fill="midnightblue" stroke="midnightblue" points="319.21,-86.23 308.64,-85.5 316.45,-92.66 319.21,-86.23"/>
</g>
<!-- Node6 -->
<g id="node6" class="node">
<title>Node6</title>
<g id="a_node6"><a xlink:href="classtracktion__engine_1_1ClipTrack.html" target="_top" xlink:title=" ">
<polygon fill="none" stroke="black" points="393.5,-88.5 393.5,-107.5 542.5,-107.5 542.5,-88.5 393.5,-88.5"/>
<text text-anchor="middle" x="468" y="-95.5" font-family="Helvetica,sans-Serif" font-size="10.00">tracktion_engine::ClipTrack</text>
</a>
</g>
</g>
<!-- Node1&#45;&gt;Node6 -->
<g id="edge5" class="edge">
<title>Node1&#45;&gt;Node6</title>
<path fill="none" stroke="midnightblue" d="M361.26,-85.08C371.84,-86.37 382.72,-87.7 393.29,-88.99"/>
<polygon fill="midnightblue" stroke="midnightblue" points="361.57,-81.59 351.22,-83.85 360.72,-88.54 361.57,-81.59"/>
</g>
<!-- Node11 -->
<g id="node11" class="node">
<title>Node11</title>
<g id="a_node11"><a xlink:href="classtracktion__engine_1_1FolderTrack.html" target="_top" xlink:title=" ">
<polygon fill="none" stroke="black" points="401,-39 401,-69 535,-69 535,-39 401,-39"/>
<text text-anchor="start" x="409" y="-57" font-family="Helvetica,sans-Serif" font-size="10.00">tracktion_engine::Folder</text>
<text text-anchor="middle" x="468" y="-46" font-family="Helvetica,sans-Serif" font-size="10.00">Track</text>
</a>
</g>
</g>
<!-- Node1&#45;&gt;Node11 -->
<g id="edge10" class="edge">
<title>Node1&#45;&gt;Node11</title>
<path fill="none" stroke="midnightblue" d="M361.2,-66.93C374.38,-65.32 388.04,-63.65 400.98,-62.07"/>
<polygon fill="midnightblue" stroke="midnightblue" points="360.72,-63.46 351.22,-68.15 361.57,-70.41 360.72,-63.46"/>
</g>
<!-- Node12 -->
<g id="node12" class="node">
<title>Node12</title>
<g id="a_node12"><a xlink:href="classtracktion__engine_1_1TempoTrack.html" target="_top" xlink:title=" ">
<polygon fill="none" stroke="black" points="387,-0.5 387,-19.5 549,-19.5 549,-0.5 387,-0.5"/>
<text text-anchor="middle" x="468" y="-7.5" font-family="Helvetica,sans-Serif" font-size="10.00">tracktion_engine::TempoTrack</text>
</a>
</g>
</g>
<!-- Node1&#45;&gt;Node12 -->
<g id="edge11" class="edge">
<title>Node1&#45;&gt;Node12</title>
<path fill="none" stroke="midnightblue" d="M314.05,-61.89C333.85,-51.97 361.59,-38.93 387,-30 398.35,-26.01 410.86,-22.49 422.55,-19.55"/>
<polygon fill="midnightblue" stroke="midnightblue" points="312.34,-58.83 305.01,-66.47 315.51,-65.07 312.34,-58.83"/>
</g>
<!-- Node2 -->
<g id="node2" class="node">
<title>Node2</title>
<g id="a_node2"><a xlink:href="classtracktion__engine_1_1EditItem.html" target="_top" xlink:title="Base class for objects that live inside an edit &#45; e.g.">
<polygon fill="none" stroke="black" points="19.5,-104.5 19.5,-123.5 165.5,-123.5 165.5,-104.5 19.5,-104.5"/>
<text text-anchor="middle" x="92.5" y="-111.5" font-family="Helvetica,sans-Serif" font-size="10.00">tracktion_engine::EditItem</text>
</a>
</g>
</g>
<!-- Node2&#45;&gt;Node1 -->
<g id="edge1" class="edge">
<title>Node2&#45;&gt;Node1</title>
<path fill="none" stroke="midnightblue" d="M151.65,-102.46C178.96,-97.04 211.13,-90.66 237.02,-85.52"/>
<polygon fill="midnightblue" stroke="midnightblue" points="150.95,-99.03 141.82,-104.41 152.31,-105.9 150.95,-99.03"/>
</g>
<!-- Node3 -->
<g id="node3" class="node">
<title>Node3</title>
<g id="a_node3"><a xlink:href="classtracktion__engine_1_1Selectable.html" target="_top" xlink:title="Base class for things that can be selected, and whose properties can appear in the properties panel.">
<polygon fill="none" stroke="black" points="15,-66.5 15,-85.5 170,-85.5 170,-66.5 15,-66.5"/>
<text text-anchor="middle" x="92.5" y="-73.5" font-family="Helvetica,sans-Serif" font-size="10.00">tracktion_engine::Selectable</text>
</a>
</g>
</g>
<!-- Node3&#45;&gt;Node1 -->
<g id="edge2" class="edge">
<title>Node3&#45;&gt;Node1</title>
<path fill="none" stroke="midnightblue" d="M180.38,-76C194.03,-76 207.91,-76 220.92,-76"/>
<polygon fill="midnightblue" stroke="midnightblue" points="180.01,-72.5 170.01,-76 180.01,-79.5 180.01,-72.5"/>
</g>
<!-- Node4 -->
<g id="node4" class="node">
<title>Node4</title>
<g id="a_node4"><a xlink:href="classtracktion__engine_1_1MacroParameterElement.html" target="_top" xlink:title="Base class for elements which can contain macro parameters.">
<polygon fill="none" stroke="black" points="0,-17 0,-47 185,-47 185,-17 0,-17"/>
<text text-anchor="start" x="8" y="-35" font-family="Helvetica,sans-Serif" font-size="10.00">tracktion_engine::MacroParameter</text>
<text text-anchor="middle" x="92.5" y="-24" font-family="Helvetica,sans-Serif" font-size="10.00">Element</text>
</a>
</g>
</g>
<!-- Node4&#45;&gt;Node1 -->
<g id="edge3" class="edge">
<title>Node4&#45;&gt;Node1</title>
<path fill="none" stroke="midnightblue" d="M168.88,-49.32C194.32,-55.16 221.78,-61.47 243.6,-66.49"/>
<polygon fill="midnightblue" stroke="midnightblue" points="169.4,-45.85 158.87,-47.02 167.83,-52.67 169.4,-45.85"/>
</g>
<!-- Node7 -->
<g id="node7" class="node">
<title>Node7</title>
<g id="a_node7"><a xlink:href="classtracktion__engine_1_1ArrangerTrack.html" target="_top" xlink:title="A track similar to the MarkerTrack but can be used to move sections of an Edit around.">
<polygon fill="none" stroke="black" points="591,-146 591,-176 737,-176 737,-146 591,-146"/>
<text text-anchor="start" x="599" y="-164" font-family="Helvetica,sans-Serif" font-size="10.00">tracktion_engine::Arranger</text>
<text text-anchor="middle" x="664" y="-153" font-family="Helvetica,sans-Serif" font-size="10.00">Track</text>
</a>
</g>
</g>
<!-- Node6&#45;&gt;Node7 -->
<g id="edge6" class="edge">
<title>Node6&#45;&gt;Node7</title>
<path fill="none" stroke="midnightblue" d="M524.16,-110.1C532.58,-112.43 541.09,-115.07 549,-118 565.78,-124.21 568.43,-129.25 585,-136 593.69,-139.54 603.09,-142.92 612.24,-145.98"/>
<polygon fill="midnightblue" stroke="midnightblue" points="524.94,-106.69 514.37,-107.51 523.15,-113.46 524.94,-106.69"/>
</g>
<!-- Node8 -->
<g id="node8" class="node">
<title>Node8</title>
<g id="a_node8"><a xlink:href="classtracktion__engine_1_1AudioTrack.html" target="_top" xlink:title=" ">
<polygon fill="none" stroke="black" points="585,-107.5 585,-126.5 743,-126.5 743,-107.5 585,-107.5"/>
<text text-anchor="middle" x="664" y="-114.5" font-family="Helvetica,sans-Serif" font-size="10.00">tracktion_engine::AudioTrack</text>
</a>
</g>
</g>
<!-- Node6&#45;&gt;Node8 -->
<g id="edge7" class="edge">
<title>Node6&#45;&gt;Node8</title>
<path fill="none" stroke="midnightblue" d="M552.77,-106.2C563.44,-107.25 574.33,-108.32 584.91,-109.35"/>
<polygon fill="midnightblue" stroke="midnightblue" points="552.91,-102.7 542.62,-105.21 552.23,-109.67 552.91,-102.7"/>
</g>
<!-- Node9 -->
<g id="node9" class="node">
<title>Node9</title>
<g id="a_node9"><a xlink:href="classtracktion__engine_1_1ChordTrack.html" target="_top" xlink:title=" ">
<polygon fill="none" stroke="black" points="585,-69.5 585,-88.5 743,-88.5 743,-69.5 585,-69.5"/>
<text text-anchor="middle" x="664" y="-76.5" font-family="Helvetica,sans-Serif" font-size="10.00">tracktion_engine::ChordTrack</text>
</a>
</g>
</g>
<!-- Node6&#45;&gt;Node9 -->
<g id="edge8" class="edge">
<title>Node6&#45;&gt;Node9</title>
<path fill="none" stroke="midnightblue" d="M552.77,-89.8C563.44,-88.75 574.33,-87.68 584.91,-86.65"/>
<polygon fill="midnightblue" stroke="midnightblue" points="552.23,-86.33 542.62,-90.79 552.91,-93.3 552.23,-86.33"/>
</g>
<!-- Node10 -->
<g id="node10" class="node">
<title>Node10</title>
<g id="a_node10"><a xlink:href="classtracktion__engine_1_1MarkerTrack.html" target="_top" xlink:title=" ">
<polygon fill="none" stroke="black" points="595,-20 595,-50 733,-50 733,-20 595,-20"/>
<text text-anchor="start" x="603" y="-38" font-family="Helvetica,sans-Serif" font-size="10.00">tracktion_engine::Marker</text>
<text text-anchor="middle" x="664" y="-27" font-family="Helvetica,sans-Serif" font-size="10.00">Track</text>
</a>
</g>
</g>
<!-- Node6&#45;&gt;Node10 -->
<g id="edge9" class="edge">
<title>Node6&#45;&gt;Node10</title>
<path fill="none" stroke="midnightblue" d="M527.68,-85.87C534.95,-83.84 542.2,-81.55 549,-79 565.94,-72.64 568.32,-67.01 585,-60 593.52,-56.42 602.74,-53.04 611.76,-50"/>
<polygon fill="midnightblue" stroke="midnightblue" points="526.59,-82.54 517.82,-88.48 528.38,-89.31 526.59,-82.54"/>
</g>
</g>
</svg>
