<?xml version="1.0" encoding="UTF-8" standalone="no"?>
<!DOCTYPE svg PUBLIC "-//W3C//DTD SVG 1.1//EN"
 "http://www.w3.org/Graphics/SVG/1.1/DTD/svg11.dtd">
<!-- Generated by graphviz version 2.43.0 (0)
 -->
<!-- Title: engine::Clip Pages: 1 -->
<svg width="696pt" height="212pt"
 viewBox="0.00 0.00 696.00 212.00" xmlns="http://www.w3.org/2000/svg" xmlns:xlink="http://www.w3.org/1999/xlink">
<g id="graph0" class="graph" transform="scale(1 1) rotate(0) translate(4 208)">
<title>engine::Clip</title>
<!-- Node1 -->
<g id="Node000001" class="node">
<title>Node1</title>
<g id="a_Node000001"><a xlink:title="A clip in an edit.">
<polygon fill="#999999" stroke="#666666" points="361,-111 287,-111 287,-92 361,-92 361,-111"/>
<text text-anchor="middle" x="324" y="-99" font-family="Helvetica,sans-Serif" font-size="10.00">engine::Clip</text>
</a>
</g>
</g>
<!-- Node6 -->
<g id="Node000006" class="node">
<title>Node6</title>
<g id="a_Node000006"><a xlink:href="classengine_1_1ArrangerClip.html" target="_top" xlink:title=" ">
<polygon fill="white" stroke="#666666" points="518,-204 402,-204 402,-185 518,-185 518,-204"/>
<text text-anchor="middle" x="460" y="-192" font-family="Helvetica,sans-Serif" font-size="10.00">engine::ArrangerClip</text>
</a>
</g>
</g>
<!-- Node1&#45;&gt;Node6 -->
<g id="edge5_Node000001_Node000006" class="edge">
<title>Node1&#45;&gt;Node6</title>
<g id="a_edge5_Node000001_Node000006"><a xlink:title=" ">
<path fill="none" stroke="#63b8ff" d="M337.54,-119.17C350.55,-136.23 372.41,-161.62 397,-176.5 402.56,-179.87 408.79,-182.63 415.09,-184.89"/>
<polygon fill="#63b8ff" stroke="#63b8ff" points="340.34,-117.06 331.58,-111.1 334.71,-121.22 340.34,-117.06"/>
</a>
</g>
</g>
<!-- Node7 -->
<g id="Node000007" class="node">
<title>Node7</title>
<g id="a_Node000007"><a xlink:href="classengine_1_1AudioClipBase.html" target="_top" xlink:title="Base class for Clips that produce some kind of audio e.g.">
<polygon fill="white" stroke="#666666" points="523,-167 397,-167 397,-148 523,-148 523,-167"/>
<text text-anchor="middle" x="460" y="-155" font-family="Helvetica,sans-Serif" font-size="10.00">engine::AudioClipBase</text>
</a>
</g>
</g>
<!-- Node1&#45;&gt;Node7 -->
<g id="edge6_Node000001_Node000007" class="edge">
<title>Node1&#45;&gt;Node7</title>
<g id="a_edge6_Node000001_Node000007"><a xlink:title=" ">
<path fill="none" stroke="#63b8ff" d="M350.24,-115.87C363.83,-123.24 381.03,-132.01 397,-138.5 405.55,-141.98 414.99,-145.17 423.86,-147.92"/>
<polygon fill="#63b8ff" stroke="#63b8ff" points="351.93,-112.8 341.48,-111.03 348.55,-118.93 351.93,-112.8"/>
</a>
</g>
</g>
<!-- Node11 -->
<g id="Node000011" class="node">
<title>Node11</title>
<g id="a_Node000011"><a xlink:href="classengine_1_1ChordClip.html" target="_top" xlink:title=" ">
<polygon fill="white" stroke="#666666" points="511.5,-130 408.5,-130 408.5,-111 511.5,-111 511.5,-130"/>
<text text-anchor="middle" x="460" y="-118" font-family="Helvetica,sans-Serif" font-size="10.00">engine::ChordClip</text>
</a>
</g>
</g>
<!-- Node1&#45;&gt;Node11 -->
<g id="edge10_Node000001_Node000011" class="edge">
<title>Node1&#45;&gt;Node11</title>
<g id="a_edge10_Node000001_Node000011"><a xlink:title=" ">
<path fill="none" stroke="#63b8ff" d="M371.45,-108.09C383.37,-109.78 396.25,-111.6 408.37,-113.32"/>
<polygon fill="#63b8ff" stroke="#63b8ff" points="371.65,-104.58 361.26,-106.64 370.67,-111.51 371.65,-104.58"/>
</a>
</g>
</g>
<!-- Node12 -->
<g id="Node000012" class="node">
<title>Node12</title>
<g id="a_Node000012"><a xlink:href="classengine_1_1MarkerClip.html" target="_top" xlink:title=" ">
<polygon fill="white" stroke="#666666" points="514,-93 406,-93 406,-74 514,-74 514,-93"/>
<text text-anchor="middle" x="460" y="-81" font-family="Helvetica,sans-Serif" font-size="10.00">engine::MarkerClip</text>
</a>
</g>
</g>
<!-- Node1&#45;&gt;Node12 -->
<g id="edge11_Node000001_Node000012" class="edge">
<title>Node1&#45;&gt;Node12</title>
<g id="a_edge11_Node000001_Node000012"><a xlink:title=" ">
<path fill="none" stroke="#63b8ff" d="M371.23,-95.29C382.39,-93.79 394.4,-92.18 405.85,-90.64"/>
<polygon fill="#63b8ff" stroke="#63b8ff" points="370.71,-91.83 361.26,-96.63 371.64,-98.77 370.71,-91.83"/>
</a>
</g>
</g>
<!-- Node13 -->
<g id="Node000013" class="node">
<title>Node13</title>
<g id="a_Node000013"><a xlink:href="classengine_1_1MidiClip.html" target="_top" xlink:title=" ">
<polygon fill="white" stroke="#666666" points="507.5,-56 412.5,-56 412.5,-37 507.5,-37 507.5,-56"/>
<text text-anchor="middle" x="460" y="-44" font-family="Helvetica,sans-Serif" font-size="10.00">engine::MidiClip</text>
</a>
</g>
</g>
<!-- Node1&#45;&gt;Node13 -->
<g id="edge12_Node000001_Node000013" class="edge">
<title>Node1&#45;&gt;Node13</title>
<g id="a_edge12_Node000001_Node000013"><a xlink:title=" ">
<path fill="none" stroke="#63b8ff" d="M350.21,-87.03C363.78,-79.64 380.98,-70.87 397,-64.5 404.92,-61.35 413.59,-58.49 421.89,-56.01"/>
<polygon fill="#63b8ff" stroke="#63b8ff" points="348.5,-83.98 341.45,-91.89 351.89,-90.1 348.5,-83.98"/>
</a>
</g>
</g>
<!-- Node14 -->
<g id="Node000014" class="node">
<title>Node14</title>
<g id="a_Node000014"><a xlink:href="classengine_1_1StepClip.html" target="_top" xlink:title=" ">
<polygon fill="white" stroke="#666666" points="508,-19 412,-19 412,0 508,0 508,-19"/>
<text text-anchor="middle" x="460" y="-7" font-family="Helvetica,sans-Serif" font-size="10.00">engine::StepClip</text>
</a>
</g>
</g>
<!-- Node1&#45;&gt;Node14 -->
<g id="edge13_Node000001_Node000014" class="edge">
<title>Node1&#45;&gt;Node14</title>
<g id="a_edge13_Node000001_Node000014"><a xlink:title=" ">
<path fill="none" stroke="#63b8ff" d="M338.17,-83.34C351.28,-66.52 372.88,-41.98 397,-27.5 402.67,-24.1 409.02,-21.3 415.43,-19.02"/>
<polygon fill="#63b8ff" stroke="#63b8ff" points="335.03,-81.69 331.79,-91.78 340.61,-85.91 335.03,-81.69"/>
</a>
</g>
</g>
<!-- Node2 -->
<g id="Node000002" class="node">
<title>Node2</title>
<g id="a_Node000002"><a xlink:href="classengine_1_1TrackItem.html" target="_top" xlink:title="Base class for EditItems that live in a Track, e.g.">
<polygon fill="white" stroke="#666666" points="249,-130 145,-130 145,-111 249,-111 249,-130"/>
<text text-anchor="middle" x="197" y="-118" font-family="Helvetica,sans-Serif" font-size="10.00">engine::TrackItem</text>
</a>
</g>
</g>
<!-- Node2&#45;&gt;Node1 -->
<g id="edge1_Node000001_Node000002" class="edge">
<title>Node2&#45;&gt;Node1</title>
<g id="a_edge1_Node000001_Node000002"><a xlink:title=" ">
<path fill="none" stroke="#63b8ff" d="M259.1,-111.21C268.64,-109.76 278.23,-108.3 286.97,-106.98"/>
<polygon fill="#63b8ff" stroke="#63b8ff" points="258.56,-107.75 249.2,-112.72 259.62,-114.67 258.56,-107.75"/>
</a>
</g>
</g>
<!-- Node3 -->
<g id="Node000003" class="node">
<title>Node3</title>
<g id="a_Node000003"><a xlink:href="classengine_1_1EditItem.html" target="_top" xlink:title="Base class for objects that live inside an edit &#45; e.g.">
<polygon fill="white" stroke="#666666" points="102,-148 5,-148 5,-129 102,-129 102,-148"/>
<text text-anchor="middle" x="53.5" y="-136" font-family="Helvetica,sans-Serif" font-size="10.00">engine::EditItem</text>
</a>
</g>
</g>
<!-- Node3&#45;&gt;Node2 -->
<g id="edge2_Node000002_Node000003" class="edge">
<title>Node3&#45;&gt;Node2</title>
<g id="a_edge2_Node000002_Node000003"><a xlink:title=" ">
<path fill="none" stroke="#63b8ff" d="M112.24,-131.15C123.09,-129.78 134.35,-128.34 144.97,-126.99"/>
<polygon fill="#63b8ff" stroke="#63b8ff" points="111.49,-127.72 102.01,-132.46 112.37,-134.67 111.49,-127.72"/>
</a>
</g>
</g>
<!-- Node4 -->
<g id="Node000004" class="node">
<title>Node4</title>
<g id="a_Node000004"><a xlink:href="classengine_1_1Selectable.html" target="_top" xlink:title="Base class for things that can be selected, and whose properties can appear in the properties panel.">
<polygon fill="white" stroke="#666666" points="107,-111 0,-111 0,-92 107,-92 107,-111"/>
<text text-anchor="middle" x="53.5" y="-99" font-family="Helvetica,sans-Serif" font-size="10.00">engine::Selectable</text>
</a>
</g>
</g>
<!-- Node4&#45;&gt;Node2 -->
<g id="edge3_Node000002_Node000004" class="edge">
<title>Node4&#45;&gt;Node2</title>
<g id="a_edge3_Node000002_Node000004"><a xlink:title=" ">
<path fill="none" stroke="#63b8ff" d="M117.39,-109.94C126.51,-111.17 135.82,-112.42 144.68,-113.61"/>
<polygon fill="#63b8ff" stroke="#63b8ff" points="117.57,-106.44 107.19,-108.57 116.63,-113.37 117.57,-106.44"/>
</a>
</g>
</g>
<!-- Node5 -->
<g id="Node000005" class="node">
<title>Node5</title>
<g id="a_Node000005"><a xlink:href="classengine_1_1Exportable.html" target="_top" xlink:title="An interface for objects within an edit that can be exported.">
<polygon fill="white" stroke="#666666" points="251,-93 143,-93 143,-74 251,-74 251,-93"/>
<text text-anchor="middle" x="197" y="-81" font-family="Helvetica,sans-Serif" font-size="10.00">engine::Exportable</text>
</a>
</g>
</g>
<!-- Node5&#45;&gt;Node1 -->
<g id="edge4_Node000001_Node000005" class="edge">
<title>Node5&#45;&gt;Node1</title>
<g id="a_edge4_Node000001_Node000005"><a xlink:title=" ">
<path fill="none" stroke="#63b8ff" d="M261.02,-92.57C269.91,-93.85 278.78,-95.13 286.93,-96.31"/>
<polygon fill="#63b8ff" stroke="#63b8ff" points="261.41,-89.09 251.01,-91.13 260.41,-96.02 261.41,-89.09"/>
</a>
</g>
</g>
<!-- Node8 -->
<g id="Node000008" class="node">
<title>Node8</title>
<g id="a_Node000008"><a xlink:href="classengine_1_1ContainerClip.html" target="_top" xlink:title="A clip that can contain multiple other clips and mix their output together.">
<polygon fill="white" stroke="#666666" points="684.5,-204 562.5,-204 562.5,-185 684.5,-185 684.5,-204"/>
<text text-anchor="middle" x="623.5" y="-192" font-family="Helvetica,sans-Serif" font-size="10.00">engine::ContainerClip</text>
</a>
</g>
</g>
<!-- Node7&#45;&gt;Node8 -->
<g id="edge7_Node000007_Node000008" class="edge">
<title>Node7&#45;&gt;Node8</title>
<g id="a_edge7_Node000007_Node000008"><a xlink:title=" ">
<path fill="none" stroke="#63b8ff" d="M512.45,-169.29C534.5,-174.34 559.92,-180.16 580.77,-184.94"/>
<polygon fill="#63b8ff" stroke="#63b8ff" points="513.12,-165.85 502.59,-167.03 511.56,-172.67 513.12,-165.85"/>
</a>
</g>
</g>
<!-- Node9 -->
<g id="Node000009" class="node">
<title>Node9</title>
<g id="a_Node000009"><a xlink:href="classengine_1_1EditClip.html" target="_top" xlink:title="This is the main source of an Edit clip and is responsible for managing its properties.">
<polygon fill="white" stroke="#666666" points="670,-167 577,-167 577,-148 670,-148 670,-167"/>
<text text-anchor="middle" x="623.5" y="-155" font-family="Helvetica,sans-Serif" font-size="10.00">engine::EditClip</text>
</a>
</g>
</g>
<!-- Node7&#45;&gt;Node9 -->
<g id="edge8_Node000007_Node000009" class="edge">
<title>Node7&#45;&gt;Node9</title>
<g id="a_edge8_Node000007_Node000009"><a xlink:title=" ">
<path fill="none" stroke="#63b8ff" d="M533.53,-157.5C548.23,-157.5 563.3,-157.5 576.75,-157.5"/>
<polygon fill="#63b8ff" stroke="#63b8ff" points="533.44,-154 523.44,-157.5 533.44,-161 533.44,-154"/>
</a>
</g>
</g>
<!-- Node10 -->
<g id="Node000010" class="node">
<title>Node10</title>
<g id="a_Node000010"><a xlink:href="classengine_1_1WaveAudioClip.html" target="_top" xlink:title="An audio clip that uses an audio file as its source.">
<polygon fill="white" stroke="#666666" points="688,-130 559,-130 559,-111 688,-111 688,-130"/>
<text text-anchor="middle" x="623.5" y="-118" font-family="Helvetica,sans-Serif" font-size="10.00">engine::WaveAudioClip</text>
</a>
</g>
</g>
<!-- Node7&#45;&gt;Node10 -->
<g id="edge9_Node000007_Node000010" class="edge">
<title>Node7&#45;&gt;Node10</title>
<g id="a_edge9_Node000007_Node000010"><a xlink:title=" ">
<path fill="none" stroke="#63b8ff" d="M512.45,-145.71C534.5,-140.66 559.92,-134.84 580.77,-130.06"/>
<polygon fill="#63b8ff" stroke="#63b8ff" points="511.56,-142.33 502.59,-147.97 513.12,-149.15 511.56,-142.33"/>
</a>
</g>
</g>
</g>
</svg>
