<?xml version="1.0" encoding="UTF-8" standalone="no"?>
<!DOCTYPE svg PUBLIC "-//W3C//DTD SVG 1.1//EN"
 "http://www.w3.org/Graphics/SVG/1.1/DTD/svg11.dtd">
<!-- Generated by graphviz version 2.40.1 (20161225.0304)
 -->
<!-- Title: tracktion_engine::Exportable Pages: 1 -->
<svg width="696pt" height="1453pt"
 viewBox="0.00 0.00 696.00 1452.50" xmlns="http://www.w3.org/2000/svg" xmlns:xlink="http://www.w3.org/1999/xlink">
<g id="graph0" class="graph" transform="scale(1 1) rotate(0) translate(4 1448.5)">
<title>tracktion_engine::Exportable</title>
<!-- Node0 -->
<g id="node1" class="node">
<title>Node0</title>
<polygon fill="#bfbfbf" stroke="#000000" points="0,-962 0,-981 140,-981 140,-962 0,-962"/>
<text text-anchor="middle" x="70" y="-969" font-family="Helvetica,sans-Serif" font-size="10.00" fill="#000000">tracktion_engine::Exportable</text>
</g>
<!-- Node1 -->
<g id="node2" class="node">
<title>Node1</title>
<g id="a_node2"><a xlink:href="classtracktion__engine_1_1Clip.html" target="_top" xlink:title="A clip in an edit. ">
<polygon fill="none" stroke="#000000" points="181,-1311 181,-1330 292,-1330 292,-1311 181,-1311"/>
<text text-anchor="middle" x="236.5" y="-1318" font-family="Helvetica,sans-Serif" font-size="10.00" fill="#000000">tracktion_engine::Clip</text>
</a>
</g>
</g>
<!-- Node0&#45;&gt;Node1 -->
<g id="edge1" class="edge">
<title>Node0&#45;&gt;Node1</title>
<path fill="none" stroke="#191970" d="M79.0947,-990.5634C109.8108,-1054.9472 209.0524,-1262.9671 231.8165,-1310.6829"/>
<polygon fill="#191970" stroke="#191970" points="82.0918,-988.7169 74.6269,-981.1985 75.7739,-991.7311 82.0918,-988.7169"/>
</g>
<!-- Node10 -->
<g id="node11" class="node">
<title>Node10</title>
<g id="a_node11"><a xlink:href="classtracktion__engine_1_1Plugin.html" target="_top" xlink:title="tracktion_engine::Plugin">
<polygon fill="none" stroke="#000000" points="176,-613 176,-632 297,-632 297,-613 176,-613"/>
<text text-anchor="middle" x="236.5" y="-620" font-family="Helvetica,sans-Serif" font-size="10.00" fill="#000000">tracktion_engine::Plugin</text>
</a>
</g>
</g>
<!-- Node0&#45;&gt;Node10 -->
<g id="edge10" class="edge">
<title>Node0&#45;&gt;Node10</title>
<path fill="none" stroke="#191970" d="M79.0947,-952.4366C109.8108,-888.0528 209.0524,-680.0329 231.8165,-632.3171"/>
<polygon fill="#191970" stroke="#191970" points="75.7739,-951.2689 74.6269,-961.8015 82.0918,-954.2831 75.7739,-951.2689"/>
</g>
<!-- Node2 -->
<g id="node3" class="node">
<title>Node2</title>
<g id="a_node3"><a xlink:href="classtracktion__engine_1_1ArrangerClip.html" target="_top" xlink:title="tracktion_engine::ArrangerClip">
<polygon fill="none" stroke="#000000" points="338,-1425 338,-1444 486,-1444 486,-1425 338,-1425"/>
<text text-anchor="middle" x="412" y="-1432" font-family="Helvetica,sans-Serif" font-size="10.00" fill="#000000">tracktion_engine::ArrangerClip</text>
</a>
</g>
</g>
<!-- Node1&#45;&gt;Node2 -->
<g id="edge2" class="edge">
<title>Node1&#45;&gt;Node2</title>
<path fill="none" stroke="#191970" d="M249.3541,-1338.0331C266.1404,-1359.6236 297.5916,-1395.8428 333,-1415.5 340.03,-1419.4027 347.8459,-1422.5095 355.7493,-1424.9812"/>
<polygon fill="#191970" stroke="#191970" points="252.1107,-1335.8758 243.2788,-1330.0236 246.5336,-1340.1061 252.1107,-1335.8758"/>
</g>
<!-- Node3 -->
<g id="node4" class="node">
<title>Node3</title>
<g id="a_node4"><a xlink:href="classtracktion__engine_1_1AudioClipBase.html" target="_top" xlink:title="Base class for Clips that produce some kind of audio e.g. ">
<polygon fill="none" stroke="#000000" points="333,-1387 333,-1406 491,-1406 491,-1387 333,-1387"/>
<text text-anchor="middle" x="412" y="-1394" font-family="Helvetica,sans-Serif" font-size="10.00" fill="#000000">tracktion_engine::AudioClipBase</text>
</a>
</g>
</g>
<!-- Node1&#45;&gt;Node3 -->
<g id="edge3" class="edge">
<title>Node1&#45;&gt;Node3</title>
<path fill="none" stroke="#191970" d="M258.3709,-1335.9902C277.318,-1348.766 305.8769,-1366.5161 333,-1377.5 342.2832,-1381.2594 352.4938,-1384.3949 362.4033,-1386.9635"/>
<polygon fill="#191970" stroke="#191970" points="260.1155,-1332.9426 249.89,-1330.1695 256.1543,-1338.7141 260.1155,-1332.9426"/>
</g>
<!-- Node6 -->
<g id="node7" class="node">
<title>Node6</title>
<g id="a_node7"><a xlink:href="classtracktion__engine_1_1ChordClip.html" target="_top" xlink:title="tracktion_engine::ChordClip">
<polygon fill="none" stroke="#000000" points="343.5,-1349 343.5,-1368 480.5,-1368 480.5,-1349 343.5,-1349"/>
<text text-anchor="middle" x="412" y="-1356" font-family="Helvetica,sans-Serif" font-size="10.00" fill="#000000">tracktion_engine::ChordClip</text>
</a>
</g>
</g>
<!-- Node1&#45;&gt;Node6 -->
<g id="edge6" class="edge">
<title>Node1&#45;&gt;Node6</title>
<path fill="none" stroke="#191970" d="M290.7783,-1332.2526C315.594,-1337.6258 344.6108,-1343.9086 368.0324,-1348.9799"/>
<polygon fill="#191970" stroke="#191970" points="291.3003,-1328.7846 280.7861,-1330.089 289.8189,-1335.626 291.3003,-1328.7846"/>
</g>
<!-- Node7 -->
<g id="node8" class="node">
<title>Node7</title>
<g id="a_node8"><a xlink:href="classtracktion__engine_1_1MarkerClip.html" target="_top" xlink:title="tracktion_engine::MarkerClip">
<polygon fill="none" stroke="#000000" points="341.5,-1311 341.5,-1330 482.5,-1330 482.5,-1311 341.5,-1311"/>
<text text-anchor="middle" x="412" y="-1318" font-family="Helvetica,sans-Serif" font-size="10.00" fill="#000000">tracktion_engine::MarkerClip</text>
</a>
</g>
</g>
<!-- Node1&#45;&gt;Node7 -->
<g id="edge7" class="edge">
<title>Node1&#45;&gt;Node7</title>
<path fill="none" stroke="#191970" d="M302.1325,-1320.5C314.9383,-1320.5 328.4164,-1320.5 341.376,-1320.5"/>
<polygon fill="#191970" stroke="#191970" points="302.0293,-1317.0001 292.0293,-1320.5 302.0293,-1324.0001 302.0293,-1317.0001"/>
</g>
<!-- Node8 -->
<g id="node9" class="node">
<title>Node8</title>
<g id="a_node9"><a xlink:href="classtracktion__engine_1_1MidiClip.html" target="_top" xlink:title="tracktion_engine::MidiClip">
<polygon fill="none" stroke="#000000" points="347.5,-1273 347.5,-1292 476.5,-1292 476.5,-1273 347.5,-1273"/>
<text text-anchor="middle" x="412" y="-1280" font-family="Helvetica,sans-Serif" font-size="10.00" fill="#000000">tracktion_engine::MidiClip</text>
</a>
</g>
</g>
<!-- Node1&#45;&gt;Node8 -->
<g id="edge8" class="edge">
<title>Node1&#45;&gt;Node8</title>
<path fill="none" stroke="#191970" d="M290.7783,-1308.7474C315.594,-1303.3742 344.6108,-1297.0914 368.0324,-1292.0201"/>
<polygon fill="#191970" stroke="#191970" points="289.8189,-1305.374 280.7861,-1310.911 291.3003,-1312.2154 289.8189,-1305.374"/>
</g>
<!-- Node9 -->
<g id="node10" class="node">
<title>Node9</title>
<g id="a_node10"><a xlink:href="classtracktion__engine_1_1StepClip.html" target="_top" xlink:title="tracktion_engine::StepClip">
<polygon fill="none" stroke="#000000" points="346.5,-1235 346.5,-1254 477.5,-1254 477.5,-1235 346.5,-1235"/>
<text text-anchor="middle" x="412" y="-1242" font-family="Helvetica,sans-Serif" font-size="10.00" fill="#000000">tracktion_engine::StepClip</text>
</a>
</g>
</g>
<!-- Node1&#45;&gt;Node9 -->
<g id="edge9" class="edge">
<title>Node1&#45;&gt;Node9</title>
<path fill="none" stroke="#191970" d="M258.3709,-1305.0098C277.318,-1292.234 305.8769,-1274.4839 333,-1263.5 342.2832,-1259.7406 352.4938,-1256.6051 362.4033,-1254.0365"/>
<polygon fill="#191970" stroke="#191970" points="256.1543,-1302.2859 249.89,-1310.8305 260.1155,-1308.0574 256.1543,-1302.2859"/>
</g>
<!-- Node4 -->
<g id="node5" class="node">
<title>Node4</title>
<g id="a_node5"><a xlink:href="classtracktion__engine_1_1EditClip.html" target="_top" xlink:title="This is the main source of an Edit clip and is responsible for managing its properties and creating a...">
<polygon fill="none" stroke="#000000" points="543.5,-1406 543.5,-1425 671.5,-1425 671.5,-1406 543.5,-1406"/>
<text text-anchor="middle" x="607.5" y="-1413" font-family="Helvetica,sans-Serif" font-size="10.00" fill="#000000">tracktion_engine::EditClip</text>
</a>
</g>
</g>
<!-- Node3&#45;&gt;Node4 -->
<g id="edge4" class="edge">
<title>Node3&#45;&gt;Node4</title>
<path fill="none" stroke="#191970" d="M501.4818,-1405.1964C515.6335,-1406.5718 530.018,-1407.9698 543.4374,-1409.274"/>
<polygon fill="#191970" stroke="#191970" points="501.5272,-1401.6844 491.2355,-1404.2006 500.85,-1408.6516 501.5272,-1401.6844"/>
</g>
<!-- Node5 -->
<g id="node6" class="node">
<title>Node5</title>
<g id="a_node6"><a xlink:href="classtracktion__engine_1_1WaveAudioClip.html" target="_top" xlink:title="tracktion_engine::WaveAudioClip">
<polygon fill="none" stroke="#000000" points="527,-1368 527,-1387 688,-1387 688,-1368 527,-1368"/>
<text text-anchor="middle" x="607.5" y="-1375" font-family="Helvetica,sans-Serif" font-size="10.00" fill="#000000">tracktion_engine::WaveAudioClip</text>
</a>
</g>
</g>
<!-- Node3&#45;&gt;Node5 -->
<g id="edge5" class="edge">
<title>Node3&#45;&gt;Node5</title>
<path fill="none" stroke="#191970" d="M501.2205,-1387.829C509.7741,-1386.9977 518.4154,-1386.1578 526.8799,-1385.3352"/>
<polygon fill="#191970" stroke="#191970" points="500.85,-1384.3484 491.2355,-1388.7994 501.5272,-1391.3156 500.85,-1384.3484"/>
</g>
<!-- Node11 -->
<g id="node12" class="node">
<title>Node11</title>
<g id="a_node12"><a xlink:href="classtracktion__engine_1_1AirWindowsPlugin.html" target="_top" xlink:title="tracktion_engine::AirWindows\lPlugin">
<polygon fill="none" stroke="#000000" points="339,-1185.5 339,-1215.5 485,-1215.5 485,-1185.5 339,-1185.5"/>
<text text-anchor="start" x="347" y="-1203.5" font-family="Helvetica,sans-Serif" font-size="10.00" fill="#000000">tracktion_engine::AirWindows</text>
<text text-anchor="middle" x="412" y="-1192.5" font-family="Helvetica,sans-Serif" font-size="10.00" fill="#000000">Plugin</text>
</a>
</g>
</g>
<!-- Node10&#45;&gt;Node11 -->
<g id="edge11" class="edge">
<title>Node10&#45;&gt;Node11</title>
<path fill="none" stroke="#191970" d="M237.2694,-642.2031C241.1228,-731.006 261.0907,-1093.2695 333,-1175.5 336.4091,-1179.3985 340.4217,-1182.6949 344.8006,-1185.4815"/>
<polygon fill="#191970" stroke="#191970" points="240.7638,-641.9949 236.8525,-632.1485 233.7698,-642.2849 240.7638,-641.9949"/>
</g>
<!-- Node12 -->
<g id="node13" class="node">
<title>Node12</title>
<g id="a_node13"><a xlink:href="classtracktion__engine_1_1AuxReturnPlugin.html" target="_top" xlink:title="tracktion_engine::AuxReturn\lPlugin">
<polygon fill="none" stroke="#000000" points="342,-1136.5 342,-1166.5 482,-1166.5 482,-1136.5 342,-1136.5"/>
<text text-anchor="start" x="350" y="-1154.5" font-family="Helvetica,sans-Serif" font-size="10.00" fill="#000000">tracktion_engine::AuxReturn</text>
<text text-anchor="middle" x="412" y="-1143.5" font-family="Helvetica,sans-Serif" font-size="10.00" fill="#000000">Plugin</text>
</a>
</g>
</g>
<!-- Node10&#45;&gt;Node12 -->
<g id="edge12" class="edge">
<title>Node10&#45;&gt;Node12</title>
<path fill="none" stroke="#191970" d="M237.6395,-642.2902C242.8609,-726.2927 267.1361,-1052.4185 333,-1126.5 336.441,-1130.3704 340.4765,-1133.6466 344.8712,-1136.4192"/>
<polygon fill="#191970" stroke="#191970" points="241.1205,-641.8674 237.0269,-632.0954 234.1331,-642.2874 241.1205,-641.8674"/>
</g>
<!-- Node13 -->
<g id="node14" class="node">
<title>Node13</title>
<g id="a_node14"><a xlink:href="classtracktion__engine_1_1AuxSendPlugin.html" target="_top" xlink:title="tracktion_engine::AuxSend\lPlugin">
<polygon fill="none" stroke="#000000" points="345,-1087.5 345,-1117.5 479,-1117.5 479,-1087.5 345,-1087.5"/>
<text text-anchor="start" x="353" y="-1105.5" font-family="Helvetica,sans-Serif" font-size="10.00" fill="#000000">tracktion_engine::AuxSend</text>
<text text-anchor="middle" x="412" y="-1094.5" font-family="Helvetica,sans-Serif" font-size="10.00" fill="#000000">Plugin</text>
</a>
</g>
</g>
<!-- Node10&#45;&gt;Node13 -->
<g id="edge13" class="edge">
<title>Node10&#45;&gt;Node13</title>
<path fill="none" stroke="#191970" d="M238.0885,-642.3583C244.7821,-721.2622 273.1504,-1011.5113 333,-1077.5 336.4792,-1081.3361 340.5421,-1084.5876 344.9558,-1087.3432"/>
<polygon fill="#191970" stroke="#191970" points="241.5692,-641.9797 237.257,-632.3021 234.593,-642.5566 241.5692,-641.9797"/>
</g>
<!-- Node14 -->
<g id="node15" class="node">
<title>Node14</title>
<g id="a_node15"><a xlink:href="classtracktion__engine_1_1ChorusPlugin.html" target="_top" xlink:title="tracktion_engine::Chorus\lPlugin">
<polygon fill="none" stroke="#000000" points="349.5,-1038.5 349.5,-1068.5 474.5,-1068.5 474.5,-1038.5 349.5,-1038.5"/>
<text text-anchor="start" x="357.5" y="-1056.5" font-family="Helvetica,sans-Serif" font-size="10.00" fill="#000000">tracktion_engine::Chorus</text>
<text text-anchor="middle" x="412" y="-1045.5" font-family="Helvetica,sans-Serif" font-size="10.00" fill="#000000">Plugin</text>
</a>
</g>
</g>
<!-- Node10&#45;&gt;Node14 -->
<g id="edge14" class="edge">
<title>Node10&#45;&gt;Node14</title>
<path fill="none" stroke="#191970" d="M238.6571,-642.5324C246.9672,-716.1669 279.1593,-970.5706 333,-1028.5 337.603,-1033.4525 343.1786,-1037.4292 349.2146,-1040.6214"/>
<polygon fill="#191970" stroke="#191970" points="242.1063,-641.8793 237.5288,-632.3244 235.1487,-642.6484 242.1063,-641.8793"/>
</g>
<!-- Node15 -->
<g id="node16" class="node">
<title>Node15</title>
<g id="a_node16"><a xlink:href="classtracktion__engine_1_1CompressorPlugin.html" target="_top" xlink:title="tracktion_engine::Compressor\lPlugin">
<polygon fill="none" stroke="#000000" points="338.5,-989.5 338.5,-1019.5 485.5,-1019.5 485.5,-989.5 338.5,-989.5"/>
<text text-anchor="start" x="346.5" y="-1007.5" font-family="Helvetica,sans-Serif" font-size="10.00" fill="#000000">tracktion_engine::Compressor</text>
<text text-anchor="middle" x="412" y="-996.5" font-family="Helvetica,sans-Serif" font-size="10.00" fill="#000000">Plugin</text>
</a>
</g>
</g>
<!-- Node10&#45;&gt;Node15 -->
<g id="edge15" class="edge">
<title>Node10&#45;&gt;Node15</title>
<path fill="none" stroke="#191970" d="M239.3171,-642.2535C249.3058,-709.6946 285.021,-929.438 333,-979.5 336.6829,-983.3428 340.9515,-986.597 345.5595,-989.3525"/>
<polygon fill="#191970" stroke="#191970" points="242.7489,-641.5316 237.8444,-632.1404 235.822,-642.5404 242.7489,-641.5316"/>
</g>
<!-- Node16 -->
<g id="node17" class="node">
<title>Node16</title>
<g id="a_node17"><a xlink:href="classtracktion__engine_1_1DelayPlugin.html" target="_top" xlink:title="tracktion_engine::DelayPlugin">
<polygon fill="none" stroke="#000000" points="339,-951 339,-970 485,-970 485,-951 339,-951"/>
<text text-anchor="middle" x="412" y="-958" font-family="Helvetica,sans-Serif" font-size="10.00" fill="#000000">tracktion_engine::DelayPlugin</text>
</a>
</g>
</g>
<!-- Node10&#45;&gt;Node16 -->
<g id="edge16" class="edge">
<title>Node10&#45;&gt;Node16</title>
<path fill="none" stroke="#191970" d="M239.8808,-642.1919C251.0183,-704.843 288.4043,-897.9386 333,-940.5 337.5033,-944.7979 342.7924,-948.2092 348.464,-950.9118"/>
<polygon fill="#191970" stroke="#191970" points="243.2822,-641.3243 238.1108,-632.0773 236.387,-642.5309 243.2822,-641.3243"/>
</g>
<!-- Node17 -->
<g id="node18" class="node">
<title>Node17</title>
<g id="a_node18"><a xlink:href="classtracktion__engine_1_1EqualiserPlugin.html" target="_top" xlink:title="tracktion_engine::Equaliser\lPlugin">
<polygon fill="none" stroke="#000000" points="345,-901.5 345,-931.5 479,-931.5 479,-901.5 345,-901.5"/>
<text text-anchor="start" x="353" y="-919.5" font-family="Helvetica,sans-Serif" font-size="10.00" fill="#000000">tracktion_engine::Equaliser</text>
<text text-anchor="middle" x="412" y="-908.5" font-family="Helvetica,sans-Serif" font-size="10.00" fill="#000000">Plugin</text>
</a>
</g>
</g>
<!-- Node10&#45;&gt;Node17 -->
<g id="edge17" class="edge">
<title>Node10&#45;&gt;Node17</title>
<path fill="none" stroke="#191970" d="M237.7664,-642.1882C242.0004,-691.4476 259.8825,-821.1061 333,-891.5 337.0417,-895.3912 341.6855,-898.677 346.654,-901.4515"/>
<polygon fill="#191970" stroke="#191970" points="241.2555,-641.9116 237.0057,-632.2065 234.2758,-642.4436 241.2555,-641.9116"/>
</g>
<!-- Node18 -->
<g id="node19" class="node">
<title>Node18</title>
<g id="a_node19"><a xlink:href="classtracktion__engine_1_1ExternalPlugin.html" target="_top" xlink:title="tracktion_engine::External\lPlugin">
<polygon fill="none" stroke="#000000" points="347,-852.5 347,-882.5 477,-882.5 477,-852.5 347,-852.5"/>
<text text-anchor="start" x="355" y="-870.5" font-family="Helvetica,sans-Serif" font-size="10.00" fill="#000000">tracktion_engine::External</text>
<text text-anchor="middle" x="412" y="-859.5" font-family="Helvetica,sans-Serif" font-size="10.00" fill="#000000">Plugin</text>
</a>
</g>
</g>
<!-- Node10&#45;&gt;Node18 -->
<g id="edge18" class="edge">
<title>Node10&#45;&gt;Node18</title>
<path fill="none" stroke="#191970" d="M239.5166,-641.9851C247.1473,-684.6562 271.1992,-786.975 333,-842.5 337.2804,-846.3457 342.1519,-849.6 347.3252,-852.3538"/>
<polygon fill="#191970" stroke="#191970" points="242.9562,-641.3332 237.8491,-632.0505 236.0528,-642.492 242.9562,-641.3332"/>
</g>
<!-- Node19 -->
<g id="node20" class="node">
<title>Node19</title>
<g id="a_node20"><a xlink:href="classtracktion__engine_1_1FourOscPlugin.html" target="_top" xlink:title="tracktion_engine::FourOsc\lPlugin">
<polygon fill="none" stroke="#000000" points="346.5,-803.5 346.5,-833.5 477.5,-833.5 477.5,-803.5 346.5,-803.5"/>
<text text-anchor="start" x="354.5" y="-821.5" font-family="Helvetica,sans-Serif" font-size="10.00" fill="#000000">tracktion_engine::FourOsc</text>
<text text-anchor="middle" x="412" y="-810.5" font-family="Helvetica,sans-Serif" font-size="10.00" fill="#000000">Plugin</text>
</a>
</g>
</g>
<!-- Node10&#45;&gt;Node19 -->
<g id="edge19" class="edge">
<title>Node10&#45;&gt;Node19</title>
<path fill="none" stroke="#191970" d="M242.1877,-641.9173C253.5441,-677.3051 282.3869,-752.4242 333,-793.5 337.8031,-797.398 343.2215,-800.6919 348.9131,-803.4746"/>
<polygon fill="#191970" stroke="#191970" points="245.5111,-640.8169 239.22,-632.2922 238.8218,-642.8795 245.5111,-640.8169"/>
</g>
<!-- Node20 -->
<g id="node21" class="node">
<title>Node20</title>
<g id="a_node21"><a xlink:href="classtracktion__engine_1_1FreezePointPlugin.html" target="_top" xlink:title="tracktion_engine::Freeze\lPointPlugin">
<polygon fill="none" stroke="#000000" points="350,-754.5 350,-784.5 474,-784.5 474,-754.5 350,-754.5"/>
<text text-anchor="start" x="358" y="-772.5" font-family="Helvetica,sans-Serif" font-size="10.00" fill="#000000">tracktion_engine::Freeze</text>
<text text-anchor="middle" x="412" y="-761.5" font-family="Helvetica,sans-Serif" font-size="10.00" fill="#000000">PointPlugin</text>
</a>
</g>
</g>
<!-- Node10&#45;&gt;Node20 -->
<g id="edge20" class="edge">
<title>Node10&#45;&gt;Node20</title>
<path fill="none" stroke="#191970" d="M246.3858,-641.0715C261.5355,-667.7903 292.9907,-716.8907 333,-744.5 338.5649,-748.3402 344.7492,-751.6129 351.138,-754.3972"/>
<polygon fill="#191970" stroke="#191970" points="249.2876,-639.0855 241.394,-632.0186 243.1577,-642.4656 249.2876,-639.0855"/>
</g>
<!-- Node21 -->
<g id="node22" class="node">
<title>Node21</title>
<g id="a_node22"><a xlink:href="classtracktion__engine_1_1InsertPlugin.html" target="_top" xlink:title="tracktion_engine::Insert\lPlugin">
<polygon fill="none" stroke="#000000" points="352.5,-705.5 352.5,-735.5 471.5,-735.5 471.5,-705.5 352.5,-705.5"/>
<text text-anchor="start" x="360.5" y="-723.5" font-family="Helvetica,sans-Serif" font-size="10.00" fill="#000000">tracktion_engine::Insert</text>
<text text-anchor="middle" x="412" y="-712.5" font-family="Helvetica,sans-Serif" font-size="10.00" fill="#000000">Plugin</text>
</a>
</g>
</g>
<!-- Node10&#45;&gt;Node21 -->
<g id="edge21" class="edge">
<title>Node10&#45;&gt;Node21</title>
<path fill="none" stroke="#191970" d="M254.288,-638.9554C272.7483,-655.2769 303.0612,-680.0253 333,-695.5 340.2843,-699.2651 348.2413,-702.5929 356.2103,-705.4916"/>
<polygon fill="#191970" stroke="#191970" points="256.4588,-636.2004 246.6842,-632.1129 251.7764,-641.4038 256.4588,-636.2004"/>
</g>
<!-- Node22 -->
<g id="node23" class="node">
<title>Node22</title>
<g id="a_node23"><a xlink:href="classtracktion__engine_1_1LatencyPlugin.html" target="_top" xlink:title="A test plugin that introduces latency to the incomming signal. ">
<polygon fill="none" stroke="#000000" points="348,-656.5 348,-686.5 476,-686.5 476,-656.5 348,-656.5"/>
<text text-anchor="start" x="356" y="-674.5" font-family="Helvetica,sans-Serif" font-size="10.00" fill="#000000">tracktion_engine::Latency</text>
<text text-anchor="middle" x="412" y="-663.5" font-family="Helvetica,sans-Serif" font-size="10.00" fill="#000000">Plugin</text>
</a>
</g>
</g>
<!-- Node10&#45;&gt;Node22 -->
<g id="edge22" class="edge">
<title>Node10&#45;&gt;Node22</title>
<path fill="none" stroke="#191970" d="M280.4737,-634.7776C304.027,-641.3537 333.2372,-649.5092 358.1431,-656.463"/>
<polygon fill="#191970" stroke="#191970" points="281.3277,-631.3822 270.7548,-632.064 279.4452,-638.1243 281.3277,-631.3822"/>
</g>
<!-- Node23 -->
<g id="node24" class="node">
<title>Node23</title>
<g id="a_node24"><a xlink:href="classtracktion__engine_1_1LevelMeterPlugin.html" target="_top" xlink:title="tracktion_engine::LevelMeter\lPlugin">
<polygon fill="none" stroke="#000000" points="341,-607.5 341,-637.5 483,-637.5 483,-607.5 341,-607.5"/>
<text text-anchor="start" x="349" y="-625.5" font-family="Helvetica,sans-Serif" font-size="10.00" fill="#000000">tracktion_engine::LevelMeter</text>
<text text-anchor="middle" x="412" y="-614.5" font-family="Helvetica,sans-Serif" font-size="10.00" fill="#000000">Plugin</text>
</a>
</g>
</g>
<!-- Node10&#45;&gt;Node23 -->
<g id="edge23" class="edge">
<title>Node10&#45;&gt;Node23</title>
<path fill="none" stroke="#191970" d="M307.4201,-622.5C318.4794,-622.5 329.9094,-622.5 340.9712,-622.5"/>
<polygon fill="#191970" stroke="#191970" points="307.3889,-619.0001 297.3888,-622.5 307.3888,-626.0001 307.3889,-619.0001"/>
</g>
<!-- Node24 -->
<g id="node25" class="node">
<title>Node24</title>
<g id="a_node25"><a xlink:href="classtracktion__engine_1_1LowPassPlugin.html" target="_top" xlink:title="tracktion_engine::LowPass\lPlugin">
<polygon fill="none" stroke="#000000" points="345,-558.5 345,-588.5 479,-588.5 479,-558.5 345,-558.5"/>
<text text-anchor="start" x="353" y="-576.5" font-family="Helvetica,sans-Serif" font-size="10.00" fill="#000000">tracktion_engine::LowPass</text>
<text text-anchor="middle" x="412" y="-565.5" font-family="Helvetica,sans-Serif" font-size="10.00" fill="#000000">Plugin</text>
</a>
</g>
</g>
<!-- Node10&#45;&gt;Node24 -->
<g id="edge24" class="edge">
<title>Node10&#45;&gt;Node24</title>
<path fill="none" stroke="#191970" d="M280.4737,-610.2224C304.027,-603.6463 333.2372,-595.4908 358.1431,-588.537"/>
<polygon fill="#191970" stroke="#191970" points="279.4452,-606.8757 270.7548,-612.936 281.3277,-613.6178 279.4452,-606.8757"/>
</g>
<!-- Node25 -->
<g id="node26" class="node">
<title>Node25</title>
<g id="a_node26"><a xlink:href="classtracktion__engine_1_1MidiModifierPlugin.html" target="_top" xlink:title="tracktion_engine::MidiModifier\lPlugin">
<polygon fill="none" stroke="#000000" points="339,-509.5 339,-539.5 485,-539.5 485,-509.5 339,-509.5"/>
<text text-anchor="start" x="347" y="-527.5" font-family="Helvetica,sans-Serif" font-size="10.00" fill="#000000">tracktion_engine::MidiModifier</text>
<text text-anchor="middle" x="412" y="-516.5" font-family="Helvetica,sans-Serif" font-size="10.00" fill="#000000">Plugin</text>
</a>
</g>
</g>
<!-- Node10&#45;&gt;Node25 -->
<g id="edge25" class="edge">
<title>Node10&#45;&gt;Node25</title>
<path fill="none" stroke="#191970" d="M253.9118,-606.0002C272.2803,-589.3897 302.7097,-564.0608 333,-548.5 339.5026,-545.1595 346.5497,-542.1974 353.6662,-539.5956"/>
<polygon fill="#191970" stroke="#191970" points="251.3486,-603.6027 246.3648,-612.9522 256.0912,-608.7513 251.3486,-603.6027"/>
</g>
<!-- Node26 -->
<g id="node27" class="node">
<title>Node26</title>
<g id="a_node27"><a xlink:href="classtracktion__engine_1_1MidiPatchBayPlugin.html" target="_top" xlink:title="tracktion_engine::MidiPatch\lBayPlugin">
<polygon fill="none" stroke="#000000" points="343.5,-460.5 343.5,-490.5 480.5,-490.5 480.5,-460.5 343.5,-460.5"/>
<text text-anchor="start" x="351.5" y="-478.5" font-family="Helvetica,sans-Serif" font-size="10.00" fill="#000000">tracktion_engine::MidiPatch</text>
<text text-anchor="middle" x="412" y="-467.5" font-family="Helvetica,sans-Serif" font-size="10.00" fill="#000000">BayPlugin</text>
</a>
</g>
</g>
<!-- Node10&#45;&gt;Node26 -->
<g id="edge26" class="edge">
<title>Node10&#45;&gt;Node26</title>
<path fill="none" stroke="#191970" d="M246.1067,-604.0687C261.0774,-577.1337 292.5062,-527.2177 333,-499.5 337.968,-496.0994 343.4323,-493.1687 349.0963,-490.6451"/>
<polygon fill="#191970" stroke="#191970" points="243.0262,-602.4073 241.3495,-612.8687 249.184,-605.7362 243.0262,-602.4073"/>
</g>
<!-- Node27 -->
<g id="node28" class="node">
<title>Node27</title>
<g id="a_node28"><a xlink:href="classtracktion__engine_1_1PatchBayPlugin.html" target="_top" xlink:title="tracktion_engine::PatchBay\lPlugin">
<polygon fill="none" stroke="#000000" points="343.5,-411.5 343.5,-441.5 480.5,-441.5 480.5,-411.5 343.5,-411.5"/>
<text text-anchor="start" x="351.5" y="-429.5" font-family="Helvetica,sans-Serif" font-size="10.00" fill="#000000">tracktion_engine::PatchBay</text>
<text text-anchor="middle" x="412" y="-418.5" font-family="Helvetica,sans-Serif" font-size="10.00" fill="#000000">Plugin</text>
</a>
</g>
</g>
<!-- Node10&#45;&gt;Node27 -->
<g id="edge27" class="edge">
<title>Node10&#45;&gt;Node27</title>
<path fill="none" stroke="#191970" d="M242.1088,-602.9137C253.3361,-567.2284 281.976,-491.5275 333,-450.5 337.2449,-447.0867 341.9703,-444.158 346.94,-441.6451"/>
<polygon fill="#191970" stroke="#191970" points="238.7177,-602.0362 239.1779,-612.6211 245.4189,-604.0595 238.7177,-602.0362"/>
</g>
<!-- Node28 -->
<g id="node29" class="node">
<title>Node28</title>
<g id="a_node29"><a xlink:href="classtracktion__engine_1_1PhaserPlugin.html" target="_top" xlink:title="tracktion_engine::Phaser\lPlugin">
<polygon fill="none" stroke="#000000" points="349.5,-362.5 349.5,-392.5 474.5,-392.5 474.5,-362.5 349.5,-362.5"/>
<text text-anchor="start" x="357.5" y="-380.5" font-family="Helvetica,sans-Serif" font-size="10.00" fill="#000000">tracktion_engine::Phaser</text>
<text text-anchor="middle" x="412" y="-369.5" font-family="Helvetica,sans-Serif" font-size="10.00" fill="#000000">Plugin</text>
</a>
</g>
</g>
<!-- Node10&#45;&gt;Node28 -->
<g id="edge28" class="edge">
<title>Node10&#45;&gt;Node28</title>
<path fill="none" stroke="#191970" d="M239.4412,-602.8749C246.9208,-559.9069 270.6889,-456.9296 333,-401.5 337.8195,-397.2128 343.3856,-393.6912 349.287,-390.7986"/>
<polygon fill="#191970" stroke="#191970" points="235.9649,-602.4468 237.8103,-612.8797 242.8737,-603.5731 235.9649,-602.4468"/>
</g>
<!-- Node29 -->
<g id="node30" class="node">
<title>Node29</title>
<g id="a_node30"><a xlink:href="classtracktion__engine_1_1PitchShiftPlugin.html" target="_top" xlink:title="tracktion_engine::PitchShift\lPlugin">
<polygon fill="none" stroke="#000000" points="343.5,-313.5 343.5,-343.5 480.5,-343.5 480.5,-313.5 343.5,-313.5"/>
<text text-anchor="start" x="351.5" y="-331.5" font-family="Helvetica,sans-Serif" font-size="10.00" fill="#000000">tracktion_engine::PitchShift</text>
<text text-anchor="middle" x="412" y="-320.5" font-family="Helvetica,sans-Serif" font-size="10.00" fill="#000000">Plugin</text>
</a>
</g>
</g>
<!-- Node10&#45;&gt;Node29 -->
<g id="edge29" class="edge">
<title>Node10&#45;&gt;Node29</title>
<path fill="none" stroke="#191970" d="M237.691,-602.7123C241.7513,-553.172 259.2648,-422.7556 333,-352.5 336.6322,-349.0392 340.7479,-346.0761 345.147,-343.5393"/>
<polygon fill="#191970" stroke="#191970" points="234.178,-602.7697 236.9519,-612.995 241.1599,-603.2717 234.178,-602.7697"/>
</g>
<!-- Node30 -->
<g id="node31" class="node">
<title>Node30</title>
<g id="a_node31"><a xlink:href="classtracktion__engine_1_1RackInstance.html" target="_top" xlink:title="tracktion_engine::RackInstance">
<polygon fill="none" stroke="#000000" points="334.5,-275 334.5,-294 489.5,-294 489.5,-275 334.5,-275"/>
<text text-anchor="middle" x="412" y="-282" font-family="Helvetica,sans-Serif" font-size="10.00" fill="#000000">tracktion_engine::RackInstance</text>
</a>
</g>
</g>
<!-- Node10&#45;&gt;Node30 -->
<g id="edge30" class="edge">
<title>Node10&#45;&gt;Node30</title>
<path fill="none" stroke="#191970" d="M239.851,-602.7249C250.8981,-539.8123 288.0405,-345.936 333,-303.5 337.0008,-299.7238 341.6161,-296.6571 346.5658,-294.1715"/>
<polygon fill="#191970" stroke="#191970" points="236.3498,-602.4321 238.0959,-612.882 243.2476,-603.624 236.3498,-602.4321"/>
</g>
<!-- Node31 -->
<g id="node32" class="node">
<title>Node31</title>
<g id="a_node32"><a xlink:href="classtracktion__engine_1_1ReverbPlugin.html" target="_top" xlink:title="tracktion_engine::Reverb\lPlugin">
<polygon fill="none" stroke="#000000" points="349.5,-225.5 349.5,-255.5 474.5,-255.5 474.5,-225.5 349.5,-225.5"/>
<text text-anchor="start" x="357.5" y="-243.5" font-family="Helvetica,sans-Serif" font-size="10.00" fill="#000000">tracktion_engine::Reverb</text>
<text text-anchor="middle" x="412" y="-232.5" font-family="Helvetica,sans-Serif" font-size="10.00" fill="#000000">Plugin</text>
</a>
</g>
</g>
<!-- Node10&#45;&gt;Node31 -->
<g id="edge31" class="edge">
<title>Node10&#45;&gt;Node31</title>
<path fill="none" stroke="#191970" d="M239.3171,-602.7465C249.3058,-535.3054 285.021,-315.562 333,-265.5 337.6783,-260.6186 343.3016,-256.6869 349.3652,-253.5208"/>
<polygon fill="#191970" stroke="#191970" points="235.822,-602.4596 237.8444,-612.8596 242.7489,-603.4684 235.822,-602.4596"/>
</g>
<!-- Node32 -->
<g id="node33" class="node">
<title>Node32</title>
<g id="a_node33"><a xlink:href="classtracktion__engine_1_1SamplerPlugin.html" target="_top" xlink:title="tracktion_engine::Sampler\lPlugin">
<polygon fill="none" stroke="#000000" points="347,-176.5 347,-206.5 477,-206.5 477,-176.5 347,-176.5"/>
<text text-anchor="start" x="355" y="-194.5" font-family="Helvetica,sans-Serif" font-size="10.00" fill="#000000">tracktion_engine::Sampler</text>
<text text-anchor="middle" x="412" y="-183.5" font-family="Helvetica,sans-Serif" font-size="10.00" fill="#000000">Plugin</text>
</a>
</g>
</g>
<!-- Node10&#45;&gt;Node32 -->
<g id="edge32" class="edge">
<title>Node10&#45;&gt;Node32</title>
<path fill="none" stroke="#191970" d="M238.6282,-602.3984C246.8365,-528.5125 278.7154,-273.2669 333,-215.5 337.0246,-211.2172 341.7864,-207.6907 346.9461,-204.788"/>
<polygon fill="#191970" stroke="#191970" points="235.116,-602.3216 237.5143,-612.6414 242.075,-603.0785 235.116,-602.3216"/>
</g>
<!-- Node33 -->
<g id="node34" class="node">
<title>Node33</title>
<g id="a_node34"><a xlink:href="classtracktion__engine_1_1TextPlugin.html" target="_top" xlink:title="tracktion_engine::TextPlugin">
<polygon fill="none" stroke="#000000" points="342,-138 342,-157 482,-157 482,-138 342,-138"/>
<text text-anchor="middle" x="412" y="-145" font-family="Helvetica,sans-Serif" font-size="10.00" fill="#000000">tracktion_engine::TextPlugin</text>
</a>
</g>
</g>
<!-- Node10&#45;&gt;Node33 -->
<g id="edge33" class="edge">
<title>Node10&#45;&gt;Node33</title>
<path fill="none" stroke="#191970" d="M237.951,-602.4753C244.1182,-522.9281 270.7467,-230.4878 333,-166.5 336.738,-162.6579 341.1069,-159.5378 345.8371,-157.01"/>
<polygon fill="#191970" stroke="#191970" points="234.4483,-602.3799 237.1877,-612.6145 241.4286,-602.9054 234.4483,-602.3799"/>
</g>
<!-- Node34 -->
<g id="node35" class="node">
<title>Node34</title>
<g id="a_node35"><a xlink:href="classtracktion__engine_1_1ToneGeneratorPlugin.html" target="_top" xlink:title="tracktion_engine::ToneGenerator\lPlugin">
<polygon fill="none" stroke="#000000" points="333,-88.5 333,-118.5 491,-118.5 491,-88.5 333,-88.5"/>
<text text-anchor="start" x="341" y="-106.5" font-family="Helvetica,sans-Serif" font-size="10.00" fill="#000000">tracktion_engine::ToneGenerator</text>
<text text-anchor="middle" x="412" y="-95.5" font-family="Helvetica,sans-Serif" font-size="10.00" fill="#000000">Plugin</text>
</a>
</g>
</g>
<!-- Node10&#45;&gt;Node34 -->
<g id="edge34" class="edge">
<title>Node10&#45;&gt;Node34</title>
<path fill="none" stroke="#191970" d="M237.7326,-602.5656C243.2628,-519.3778 268.3996,-200.8876 333,-128.5 336.4483,-124.6361 340.4889,-121.3645 344.8872,-118.5951"/>
<polygon fill="#191970" stroke="#191970" points="234.2305,-602.4876 237.0803,-612.692 241.216,-602.9377 234.2305,-602.4876"/>
</g>
<!-- Node35 -->
<g id="node36" class="node">
<title>Node35</title>
<g id="a_node36"><a xlink:href="classtracktion__engine_1_1VCAPlugin.html" target="_top" xlink:title="The VCA plugin sits on a folder track to control the overall level of all the volume/pan plugins in i...">
<polygon fill="none" stroke="#000000" points="341,-50 341,-69 483,-69 483,-50 341,-50"/>
<text text-anchor="middle" x="412" y="-57" font-family="Helvetica,sans-Serif" font-size="10.00" fill="#000000">tracktion_engine::VCAPlugin</text>
</a>
</g>
</g>
<!-- Node10&#45;&gt;Node35 -->
<g id="edge35" class="edge">
<title>Node10&#45;&gt;Node35</title>
<path fill="none" stroke="#191970" d="M237.1975,-602.7271C240.718,-514.3816 259.3849,-156.7061 333,-78.5 336.5774,-74.6995 340.771,-71.6007 345.3279,-69.0801"/>
<polygon fill="#191970" stroke="#191970" points="233.6915,-602.8232 236.8113,-612.9483 240.6865,-603.0876 233.6915,-602.8232"/>
</g>
<!-- Node36 -->
<g id="node37" class="node">
<title>Node36</title>
<g id="a_node37"><a xlink:href="classtracktion__engine_1_1VolumeAndPanPlugin.html" target="_top" xlink:title="The built&#45;in Tracktion volume/pan plugin. ">
<polygon fill="none" stroke="#000000" points="348.5,-.5 348.5,-30.5 475.5,-30.5 475.5,-.5 348.5,-.5"/>
<text text-anchor="start" x="356.5" y="-18.5" font-family="Helvetica,sans-Serif" font-size="10.00" fill="#000000">tracktion_engine::Volume</text>
<text text-anchor="middle" x="412" y="-7.5" font-family="Helvetica,sans-Serif" font-size="10.00" fill="#000000">AndPanPlugin</text>
</a>
</g>
</g>
<!-- Node10&#45;&gt;Node36 -->
<g id="edge36" class="edge">
<title>Node10&#45;&gt;Node36</title>
<path fill="none" stroke="#191970" d="M237.0867,-602.6492C240.1933,-510.7623 257.5568,-127.5109 333,-40.5 337.335,-35.5003 342.6629,-31.4901 348.4868,-28.2754"/>
<polygon fill="#191970" stroke="#191970" points="233.5838,-602.6876 236.763,-612.7942 240.5803,-602.911 233.5838,-602.6876"/>
</g>
</g>
</svg>
