<?xml version="1.0" encoding="UTF-8" standalone="no"?>
<!DOCTYPE svg PUBLIC "-//W3C//DTD SVG 1.1//EN"
 "http://www.w3.org/Graphics/SVG/1.1/DTD/svg11.dtd">
<!-- Generated by graphviz version 2.43.0 (0)
 -->
<!-- Title: tracktion_engine::AutomatableEditItem Pages: 1 -->
<svg width="807pt" height="1498pt"
 viewBox="0.00 0.00 807.00 1498.00" xmlns="http://www.w3.org/2000/svg" xmlns:xlink="http://www.w3.org/1999/xlink">
<g id="graph0" class="graph" transform="scale(1 1) rotate(0) translate(4 1494)">
<title>tracktion_engine::AutomatableEditItem</title>
<!-- Node1 -->
<g id="node1" class="node">
<title>Node1</title>
<g id="a_node1"><a xlink:title="Base class for elements that have some kind of automatable parameters.">
<polygon fill="#bfbfbf" stroke="black" points="182,-1322.5 182,-1352.5 349,-1352.5 349,-1322.5 182,-1322.5"/>
<text text-anchor="start" x="190" y="-1340.5" font-family="Helvetica,sans-Serif" font-size="10.00">tracktion_engine::Automatable</text>
<text text-anchor="middle" x="265.5" y="-1329.5" font-family="Helvetica,sans-Serif" font-size="10.00">EditItem</text>
</a>
</g>
</g>
<!-- Node3 -->
<g id="node3" class="node">
<title>Node3</title>
<g id="a_node3"><a xlink:href="classtracktion__engine_1_1MacroParameterList.html" target="_top" xlink:title=" ">
<polygon fill="none" stroke="black" points="385,-1366 385,-1385 587,-1385 587,-1366 385,-1366"/>
<text text-anchor="middle" x="486" y="-1373" font-family="Helvetica,sans-Serif" font-size="10.00">tracktion_engine::MacroParameterList</text>
</a>
</g>
</g>
<!-- Node1&#45;&gt;Node3 -->
<g id="edge2" class="edge">
<title>Node1&#45;&gt;Node3</title>
<path fill="none" stroke="midnightblue" d="M359.03,-1353.59C383.22,-1357.8 408.54,-1362.2 430.07,-1365.95"/>
<polygon fill="midnightblue" stroke="midnightblue" points="359.56,-1350.13 349.11,-1351.87 358.36,-1357.03 359.56,-1350.13"/>
</g>
<!-- Node4 -->
<g id="node4" class="node">
<title>Node4</title>
<g id="a_node4"><a xlink:href="structtracktion__engine_1_1Modifier.html" target="_top" xlink:title=" ">
<polygon fill="none" stroke="black" points="414,-1328 414,-1347 558,-1347 558,-1328 414,-1328"/>
<text text-anchor="middle" x="486" y="-1335" font-family="Helvetica,sans-Serif" font-size="10.00">tracktion_engine::Modifier</text>
</a>
</g>
</g>
<!-- Node1&#45;&gt;Node4 -->
<g id="edge3" class="edge">
<title>Node1&#45;&gt;Node4</title>
<path fill="none" stroke="midnightblue" d="M359.17,-1337.5C377.42,-1337.5 396.3,-1337.5 413.72,-1337.5"/>
<polygon fill="midnightblue" stroke="midnightblue" points="359.11,-1334 349.11,-1337.5 359.11,-1341 359.11,-1334"/>
</g>
<!-- Node11 -->
<g id="node11" class="node">
<title>Node11</title>
<g id="a_node11"><a xlink:href="classtracktion__engine_1_1Plugin.html" target="_top" xlink:title=" ">
<polygon fill="none" stroke="black" points="419,-613 419,-632 553,-632 553,-613 419,-613"/>
<text text-anchor="middle" x="486" y="-620" font-family="Helvetica,sans-Serif" font-size="10.00">tracktion_engine::Plugin</text>
</a>
</g>
</g>
<!-- Node1&#45;&gt;Node11 -->
<g id="edge10" class="edge">
<title>Node1&#45;&gt;Node11</title>
<path fill="none" stroke="midnightblue" d="M274.17,-1312.41C309.84,-1195.66 458.84,-708.09 481.98,-632.4"/>
<polygon fill="midnightblue" stroke="midnightblue" points="270.74,-1311.65 271.16,-1322.24 277.43,-1313.69 270.74,-1311.65"/>
</g>
<!-- Node2 -->
<g id="node2" class="node">
<title>Node2</title>
<g id="a_node2"><a xlink:href="classtracktion__engine_1_1EditItem.html" target="_top" xlink:title="Base class for objects that live inside an edit &#45; e.g.">
<polygon fill="none" stroke="black" points="0,-1328 0,-1347 146,-1347 146,-1328 0,-1328"/>
<text text-anchor="middle" x="73" y="-1335" font-family="Helvetica,sans-Serif" font-size="10.00">tracktion_engine::EditItem</text>
</a>
</g>
</g>
<!-- Node2&#45;&gt;Node1 -->
<g id="edge1" class="edge">
<title>Node2&#45;&gt;Node1</title>
<path fill="none" stroke="midnightblue" d="M156.27,-1337.5C164.74,-1337.5 173.36,-1337.5 181.83,-1337.5"/>
<polygon fill="midnightblue" stroke="midnightblue" points="156.02,-1334 146.02,-1337.5 156.02,-1341 156.02,-1334"/>
</g>
<!-- Node5 -->
<g id="node5" class="node">
<title>Node5</title>
<g id="a_node5"><a xlink:href="classtracktion__engine_1_1BreakpointOscillatorModifier.html" target="_top" xlink:title=" ">
<polygon fill="none" stroke="black" points="632,-1459.5 632,-1489.5 790,-1489.5 790,-1459.5 632,-1459.5"/>
<text text-anchor="start" x="640" y="-1477.5" font-family="Helvetica,sans-Serif" font-size="10.00">tracktion_engine::Breakpoint</text>
<text text-anchor="middle" x="711" y="-1466.5" font-family="Helvetica,sans-Serif" font-size="10.00">OscillatorModifier</text>
</a>
</g>
</g>
<!-- Node4&#45;&gt;Node5 -->
<g id="edge4" class="edge">
<title>Node4&#45;&gt;Node5</title>
<path fill="none" stroke="midnightblue" d="M567.73,-1345.1C574.7,-1347.98 581.27,-1351.71 587,-1356.5 621.32,-1385.2 589.88,-1420.43 623,-1450.5 626.71,-1453.87 630.86,-1456.77 635.27,-1459.27"/>
<polygon fill="midnightblue" stroke="midnightblue" points="568.62,-1341.7 558.02,-1341.66 566.28,-1348.3 568.62,-1341.7"/>
</g>
<!-- Node6 -->
<g id="node6" class="node">
<title>Node6</title>
<g id="a_node6"><a xlink:href="classtracktion__engine_1_1EnvelopeFollowerModifier.html" target="_top" xlink:title=" ">
<polygon fill="none" stroke="black" points="636.5,-1410.5 636.5,-1440.5 785.5,-1440.5 785.5,-1410.5 636.5,-1410.5"/>
<text text-anchor="start" x="644.5" y="-1428.5" font-family="Helvetica,sans-Serif" font-size="10.00">tracktion_engine::Envelope</text>
<text text-anchor="middle" x="711" y="-1417.5" font-family="Helvetica,sans-Serif" font-size="10.00">FollowerModifier</text>
</a>
</g>
</g>
<!-- Node4&#45;&gt;Node6 -->
<g id="edge5" class="edge">
<title>Node4&#45;&gt;Node6</title>
<path fill="none" stroke="midnightblue" d="M567.99,-1347.72C574.65,-1350.09 581.08,-1352.98 587,-1356.5 608.72,-1369.41 601.9,-1386.6 623,-1400.5 628.91,-1404.39 635.42,-1407.68 642.16,-1410.47"/>
<polygon fill="midnightblue" stroke="midnightblue" points="568.71,-1344.28 558.12,-1344.62 566.6,-1350.96 568.71,-1344.28"/>
</g>
<!-- Node7 -->
<g id="node7" class="node">
<title>Node7</title>
<g id="a_node7"><a xlink:href="classtracktion__engine_1_1LFOModifier.html" target="_top" xlink:title=" ">
<polygon fill="none" stroke="black" points="629.5,-1372 629.5,-1391 792.5,-1391 792.5,-1372 629.5,-1372"/>
<text text-anchor="middle" x="711" y="-1379" font-family="Helvetica,sans-Serif" font-size="10.00">tracktion_engine::LFOModifier</text>
</a>
</g>
</g>
<!-- Node4&#45;&gt;Node7 -->
<g id="edge6" class="edge">
<title>Node4&#45;&gt;Node7</title>
<path fill="none" stroke="midnightblue" d="M548.05,-1348.97C560.92,-1351.43 574.41,-1354.03 587,-1356.5 612.44,-1361.5 640.81,-1367.26 663.89,-1371.98"/>
<polygon fill="midnightblue" stroke="midnightblue" points="548.37,-1345.47 537.9,-1347.04 547.07,-1352.35 548.37,-1345.47"/>
</g>
<!-- Node8 -->
<g id="node8" class="node">
<title>Node8</title>
<g id="a_node8"><a xlink:href="classtracktion__engine_1_1MIDITrackerModifier.html" target="_top" xlink:title=" ">
<polygon fill="none" stroke="black" points="630.5,-1322.5 630.5,-1352.5 791.5,-1352.5 791.5,-1322.5 630.5,-1322.5"/>
<text text-anchor="start" x="638.5" y="-1340.5" font-family="Helvetica,sans-Serif" font-size="10.00">tracktion_engine::MIDITracker</text>
<text text-anchor="middle" x="711" y="-1329.5" font-family="Helvetica,sans-Serif" font-size="10.00">Modifier</text>
</a>
</g>
</g>
<!-- Node4&#45;&gt;Node8 -->
<g id="edge7" class="edge">
<title>Node4&#45;&gt;Node8</title>
<path fill="none" stroke="midnightblue" d="M568.27,-1337.5C588.47,-1337.5 610.09,-1337.5 630.22,-1337.5"/>
<polygon fill="midnightblue" stroke="midnightblue" points="568.17,-1334 558.17,-1337.5 568.17,-1341 568.17,-1334"/>
</g>
<!-- Node9 -->
<g id="node9" class="node">
<title>Node9</title>
<g id="a_node9"><a xlink:href="classtracktion__engine_1_1RandomModifier.html" target="_top" xlink:title=" ">
<polygon fill="none" stroke="black" points="638.5,-1273.5 638.5,-1303.5 783.5,-1303.5 783.5,-1273.5 638.5,-1273.5"/>
<text text-anchor="start" x="646.5" y="-1291.5" font-family="Helvetica,sans-Serif" font-size="10.00">tracktion_engine::Random</text>
<text text-anchor="middle" x="711" y="-1280.5" font-family="Helvetica,sans-Serif" font-size="10.00">Modifier</text>
</a>
</g>
</g>
<!-- Node4&#45;&gt;Node9 -->
<g id="edge8" class="edge">
<title>Node4&#45;&gt;Node9</title>
<path fill="none" stroke="midnightblue" d="M540.22,-1325.81C570.54,-1319.14 608.85,-1310.73 641.41,-1303.57"/>
<polygon fill="midnightblue" stroke="midnightblue" points="539.28,-1322.43 530.26,-1327.99 540.78,-1329.27 539.28,-1322.43"/>
</g>
<!-- Node10 -->
<g id="node10" class="node">
<title>Node10</title>
<g id="a_node10"><a xlink:href="classtracktion__engine_1_1StepModifier.html" target="_top" xlink:title=" ">
<polygon fill="none" stroke="black" points="628,-1235 628,-1254 794,-1254 794,-1235 628,-1235"/>
<text text-anchor="middle" x="711" y="-1242" font-family="Helvetica,sans-Serif" font-size="10.00">tracktion_engine::StepModifier</text>
</a>
</g>
</g>
<!-- Node4&#45;&gt;Node10 -->
<g id="edge9" class="edge">
<title>Node4&#45;&gt;Node10</title>
<path fill="none" stroke="midnightblue" d="M509.92,-1322.38C536.21,-1305.69 581.09,-1279.12 623,-1263.5 633.14,-1259.72 644.24,-1256.59 655.02,-1254.03"/>
<polygon fill="midnightblue" stroke="midnightblue" points="507.95,-1319.49 501.44,-1327.84 511.74,-1325.38 507.95,-1319.49"/>
</g>
<!-- Node12 -->
<g id="node12" class="node">
<title>Node12</title>
<g id="a_node12"><a xlink:href="classtracktion__engine_1_1AirWindowsPlugin.html" target="_top" xlink:title=" ">
<polygon fill="none" stroke="black" points="630,-1185.5 630,-1215.5 792,-1215.5 792,-1185.5 630,-1185.5"/>
<text text-anchor="start" x="638" y="-1203.5" font-family="Helvetica,sans-Serif" font-size="10.00">tracktion_engine::AirWindows</text>
<text text-anchor="middle" x="711" y="-1192.5" font-family="Helvetica,sans-Serif" font-size="10.00">Plugin</text>
</a>
</g>
</g>
<!-- Node11&#45;&gt;Node12 -->
<g id="edge11" class="edge">
<title>Node11&#45;&gt;Node12</title>
<path fill="none" stroke="midnightblue" d="M489.22,-642.31C499.61,-731.6 546.17,-1095.64 623,-1175.5 626.7,-1179.35 630.96,-1182.62 635.55,-1185.39"/>
<polygon fill="midnightblue" stroke="midnightblue" points="492.68,-641.74 488.06,-632.2 485.72,-642.54 492.68,-641.74"/>
</g>
<!-- Node13 -->
<g id="node13" class="node">
<title>Node13</title>
<g id="a_node13"><a xlink:href="classtracktion__engine_1_1AuxReturnPlugin.html" target="_top" xlink:title=" ">
<polygon fill="none" stroke="black" points="633.5,-1136.5 633.5,-1166.5 788.5,-1166.5 788.5,-1136.5 633.5,-1136.5"/>
<text text-anchor="start" x="641.5" y="-1154.5" font-family="Helvetica,sans-Serif" font-size="10.00">tracktion_engine::AuxReturn</text>
<text text-anchor="middle" x="711" y="-1143.5" font-family="Helvetica,sans-Serif" font-size="10.00">Plugin</text>
</a>
</g>
</g>
<!-- Node11&#45;&gt;Node13 -->
<g id="edge12" class="edge">
<title>Node11&#45;&gt;Node13</title>
<path fill="none" stroke="midnightblue" d="M489.7,-642.14C501.64,-726.2 552.2,-1054.54 623,-1126.5 626.75,-1130.31 631.03,-1133.55 635.65,-1136.3"/>
<polygon fill="midnightblue" stroke="midnightblue" points="493.16,-641.57 488.3,-632.15 486.22,-642.54 493.16,-641.57"/>
</g>
<!-- Node14 -->
<g id="node14" class="node">
<title>Node14</title>
<g id="a_node14"><a xlink:href="classtracktion__engine_1_1AuxSendPlugin.html" target="_top" xlink:title=" ">
<polygon fill="none" stroke="black" points="637.5,-1087.5 637.5,-1117.5 784.5,-1117.5 784.5,-1087.5 637.5,-1087.5"/>
<text text-anchor="start" x="645.5" y="-1105.5" font-family="Helvetica,sans-Serif" font-size="10.00">tracktion_engine::AuxSend</text>
<text text-anchor="middle" x="711" y="-1094.5" font-family="Helvetica,sans-Serif" font-size="10.00">Plugin</text>
</a>
</g>
</g>
<!-- Node11&#45;&gt;Node14 -->
<g id="edge13" class="edge">
<title>Node11&#45;&gt;Node14</title>
<path fill="none" stroke="midnightblue" d="M486.65,-642.27C486.54,-712.4 495.87,-951.71 623,-1077.5 627.25,-1081.7 632.15,-1085.2 637.42,-1088.13"/>
<polygon fill="midnightblue" stroke="midnightblue" points="490.15,-642.22 486.74,-632.18 483.15,-642.15 490.15,-642.22"/>
</g>
<!-- Node15 -->
<g id="node15" class="node">
<title>Node15</title>
<g id="a_node15"><a xlink:href="classtracktion__engine_1_1ChorusPlugin.html" target="_top" xlink:title=" ">
<polygon fill="none" stroke="black" points="642,-1038.5 642,-1068.5 780,-1068.5 780,-1038.5 642,-1038.5"/>
<text text-anchor="start" x="650" y="-1056.5" font-family="Helvetica,sans-Serif" font-size="10.00">tracktion_engine::Chorus</text>
<text text-anchor="middle" x="711" y="-1045.5" font-family="Helvetica,sans-Serif" font-size="10.00">Plugin</text>
</a>
</g>
</g>
<!-- Node11&#45;&gt;Node15 -->
<g id="edge14" class="edge">
<title>Node11&#45;&gt;Node15</title>
<path fill="none" stroke="midnightblue" d="M487.48,-642.25C490.16,-707.49 507.77,-918.17 623,-1028.5 628.45,-1033.72 634.91,-1037.86 641.82,-1041.14"/>
<polygon fill="midnightblue" stroke="midnightblue" points="490.97,-642 487.14,-632.13 483.98,-642.24 490.97,-642"/>
</g>
<!-- Node16 -->
<g id="node16" class="node">
<title>Node16</title>
<g id="a_node16"><a xlink:href="classtracktion__engine_1_1CompressorPlugin.html" target="_top" xlink:title=" ">
<polygon fill="none" stroke="black" points="629.5,-989.5 629.5,-1019.5 792.5,-1019.5 792.5,-989.5 629.5,-989.5"/>
<text text-anchor="start" x="637.5" y="-1007.5" font-family="Helvetica,sans-Serif" font-size="10.00">tracktion_engine::Compressor</text>
<text text-anchor="middle" x="711" y="-996.5" font-family="Helvetica,sans-Serif" font-size="10.00">Plugin</text>
</a>
</g>
</g>
<!-- Node11&#45;&gt;Node16 -->
<g id="edge15" class="edge">
<title>Node11&#45;&gt;Node16</title>
<path fill="none" stroke="midnightblue" d="M488.51,-642.21C494.18,-702.23 519.56,-884.42 623,-979.5 627.17,-983.33 631.88,-986.57 636.91,-989.33"/>
<polygon fill="midnightblue" stroke="midnightblue" points="491.99,-641.85 487.64,-632.18 485.02,-642.45 491.99,-641.85"/>
</g>
<!-- Node17 -->
<g id="node17" class="node">
<title>Node17</title>
<g id="a_node17"><a xlink:href="classtracktion__engine_1_1DelayPlugin.html" target="_top" xlink:title=" ">
<polygon fill="none" stroke="black" points="629.5,-951 629.5,-970 792.5,-970 792.5,-951 629.5,-951"/>
<text text-anchor="middle" x="711" y="-958" font-family="Helvetica,sans-Serif" font-size="10.00">tracktion_engine::DelayPlugin</text>
</a>
</g>
</g>
<!-- Node11&#45;&gt;Node17 -->
<g id="edge16" class="edge">
<title>Node11&#45;&gt;Node17</title>
<path fill="none" stroke="midnightblue" d="M489.27,-642.13C496.84,-698.12 526.46,-859.79 623,-940.5 628.11,-944.77 633.96,-948.18 640.16,-950.88"/>
<polygon fill="midnightblue" stroke="midnightblue" points="492.73,-641.6 488.01,-632.12 485.79,-642.48 492.73,-641.6"/>
</g>
<!-- Node18 -->
<g id="node18" class="node">
<title>Node18</title>
<g id="a_node18"><a xlink:href="classtracktion__engine_1_1EqualiserPlugin.html" target="_top" xlink:title=" ">
<polygon fill="none" stroke="black" points="636.5,-901.5 636.5,-931.5 785.5,-931.5 785.5,-901.5 636.5,-901.5"/>
<text text-anchor="start" x="644.5" y="-919.5" font-family="Helvetica,sans-Serif" font-size="10.00">tracktion_engine::Equaliser</text>
<text text-anchor="middle" x="711" y="-908.5" font-family="Helvetica,sans-Serif" font-size="10.00">Plugin</text>
</a>
</g>
</g>
<!-- Node11&#45;&gt;Node18 -->
<g id="edge17" class="edge">
<title>Node11&#45;&gt;Node18</title>
<path fill="none" stroke="midnightblue" d="M491.2,-642.11C502.85,-691.72 540.34,-823.1 623,-891.5 627.72,-895.41 633.02,-898.7 638.62,-901.49"/>
<polygon fill="midnightblue" stroke="midnightblue" points="494.55,-641.06 488.93,-632.08 487.72,-642.6 494.55,-641.06"/>
</g>
<!-- Node19 -->
<g id="node19" class="node">
<title>Node19</title>
<g id="a_node19"><a xlink:href="classtracktion__engine_1_1ExternalPlugin.html" target="_top" xlink:title=" ">
<polygon fill="none" stroke="black" points="638.5,-852.5 638.5,-882.5 783.5,-882.5 783.5,-852.5 638.5,-852.5"/>
<text text-anchor="start" x="646.5" y="-870.5" font-family="Helvetica,sans-Serif" font-size="10.00">tracktion_engine::External</text>
<text text-anchor="middle" x="711" y="-859.5" font-family="Helvetica,sans-Serif" font-size="10.00">Plugin</text>
</a>
</g>
</g>
<!-- Node11&#45;&gt;Node19 -->
<g id="edge18" class="edge">
<title>Node11&#45;&gt;Node19</title>
<path fill="none" stroke="midnightblue" d="M493.39,-641.66C508.66,-684.44 551.41,-788.25 623,-842.5 628.14,-846.39 633.86,-849.68 639.85,-852.45"/>
<polygon fill="midnightblue" stroke="midnightblue" points="496.68,-640.47 490.1,-632.16 490.07,-642.76 496.68,-640.47"/>
</g>
<!-- Node20 -->
<g id="node20" class="node">
<title>Node20</title>
<g id="a_node20"><a xlink:href="classtracktion__engine_1_1FourOscPlugin.html" target="_top" xlink:title=" ">
<polygon fill="none" stroke="black" points="639.5,-803.5 639.5,-833.5 782.5,-833.5 782.5,-803.5 639.5,-803.5"/>
<text text-anchor="start" x="647.5" y="-821.5" font-family="Helvetica,sans-Serif" font-size="10.00">tracktion_engine::FourOsc</text>
<text text-anchor="middle" x="711" y="-810.5" font-family="Helvetica,sans-Serif" font-size="10.00">Plugin</text>
</a>
</g>
</g>
<!-- Node11&#45;&gt;Node20 -->
<g id="edge19" class="edge">
<title>Node11&#45;&gt;Node20</title>
<path fill="none" stroke="midnightblue" d="M496.89,-641.6C516.21,-677.04 562.44,-753.01 623,-793.5 628.75,-797.34 635.09,-800.6 641.65,-803.37"/>
<polygon fill="midnightblue" stroke="midnightblue" points="499.75,-639.55 491.96,-632.37 493.58,-642.84 499.75,-639.55"/>
</g>
<!-- Node21 -->
<g id="node21" class="node">
<title>Node21</title>
<g id="a_node21"><a xlink:href="classtracktion__engine_1_1FreezePointPlugin.html" target="_top" xlink:title=" ">
<polygon fill="none" stroke="black" points="642.5,-754.5 642.5,-784.5 779.5,-784.5 779.5,-754.5 642.5,-754.5"/>
<text text-anchor="start" x="650.5" y="-772.5" font-family="Helvetica,sans-Serif" font-size="10.00">tracktion_engine::Freeze</text>
<text text-anchor="middle" x="711" y="-761.5" font-family="Helvetica,sans-Serif" font-size="10.00">PointPlugin</text>
</a>
</g>
</g>
<!-- Node11&#45;&gt;Node21 -->
<g id="edge20" class="edge">
<title>Node11&#45;&gt;Node21</title>
<path fill="none" stroke="midnightblue" d="M501.41,-639.67C524.45,-666.03 572.17,-716.36 623,-744.5 629.87,-748.31 637.38,-751.58 645.01,-754.38"/>
<polygon fill="midnightblue" stroke="midnightblue" points="504,-637.31 494.83,-632.01 498.7,-641.88 504,-637.31"/>
</g>
<!-- Node22 -->
<g id="node22" class="node">
<title>Node22</title>
<g id="a_node22"><a xlink:href="classtracktion__engine_1_1InsertPlugin.html" target="_top" xlink:title=" ">
<polygon fill="none" stroke="black" points="645,-705.5 645,-735.5 777,-735.5 777,-705.5 645,-705.5"/>
<text text-anchor="start" x="653" y="-723.5" font-family="Helvetica,sans-Serif" font-size="10.00">tracktion_engine::Insert</text>
<text text-anchor="middle" x="711" y="-712.5" font-family="Helvetica,sans-Serif" font-size="10.00">Plugin</text>
</a>
</g>
</g>
<!-- Node11&#45;&gt;Node22 -->
<g id="edge21" class="edge">
<title>Node11&#45;&gt;Node22</title>
<path fill="none" stroke="midnightblue" d="M511.01,-637.42C537.6,-653.46 582.14,-678.89 623,-695.5 631.88,-699.11 641.47,-702.42 650.92,-705.37"/>
<polygon fill="midnightblue" stroke="midnightblue" points="512.74,-634.38 502.38,-632.17 509.1,-640.36 512.74,-634.38"/>
</g>
<!-- Node23 -->
<g id="node23" class="node">
<title>Node23</title>
<g id="a_node23"><a xlink:href="classtracktion__engine_1_1LatencyPlugin.html" target="_top" xlink:title="A test plugin that introduces latency to the incomming signal.">
<polygon fill="none" stroke="black" points="639.5,-656.5 639.5,-686.5 782.5,-686.5 782.5,-656.5 639.5,-656.5"/>
<text text-anchor="start" x="647.5" y="-674.5" font-family="Helvetica,sans-Serif" font-size="10.00">tracktion_engine::Latency</text>
<text text-anchor="middle" x="711" y="-663.5" font-family="Helvetica,sans-Serif" font-size="10.00">Plugin</text>
</a>
</g>
</g>
<!-- Node11&#45;&gt;Node23 -->
<g id="edge22" class="edge">
<title>Node11&#45;&gt;Node23</title>
<path fill="none" stroke="midnightblue" d="M540.22,-634.19C570.54,-640.86 608.85,-649.27 641.41,-656.43"/>
<polygon fill="midnightblue" stroke="midnightblue" points="540.78,-630.73 530.26,-632.01 539.28,-637.57 540.78,-630.73"/>
</g>
<!-- Node24 -->
<g id="node24" class="node">
<title>Node24</title>
<g id="a_node24"><a xlink:href="classtracktion__engine_1_1LevelMeterPlugin.html" target="_top" xlink:title=" ">
<polygon fill="none" stroke="black" points="631.5,-607.5 631.5,-637.5 790.5,-637.5 790.5,-607.5 631.5,-607.5"/>
<text text-anchor="start" x="639.5" y="-625.5" font-family="Helvetica,sans-Serif" font-size="10.00">tracktion_engine::LevelMeter</text>
<text text-anchor="middle" x="711" y="-614.5" font-family="Helvetica,sans-Serif" font-size="10.00">Plugin</text>
</a>
</g>
</g>
<!-- Node11&#45;&gt;Node24 -->
<g id="edge23" class="edge">
<title>Node11&#45;&gt;Node24</title>
<path fill="none" stroke="midnightblue" d="M563.25,-622.5C585.16,-622.5 609.1,-622.5 631.17,-622.5"/>
<polygon fill="midnightblue" stroke="midnightblue" points="563,-619 553,-622.5 563,-626 563,-619"/>
</g>
<!-- Node25 -->
<g id="node25" class="node">
<title>Node25</title>
<g id="a_node25"><a xlink:href="classtracktion__engine_1_1LowPassPlugin.html" target="_top" xlink:title=" ">
<polygon fill="none" stroke="black" points="638,-558.5 638,-588.5 784,-588.5 784,-558.5 638,-558.5"/>
<text text-anchor="start" x="646" y="-576.5" font-family="Helvetica,sans-Serif" font-size="10.00">tracktion_engine::LowPass</text>
<text text-anchor="middle" x="711" y="-565.5" font-family="Helvetica,sans-Serif" font-size="10.00">Plugin</text>
</a>
</g>
</g>
<!-- Node11&#45;&gt;Node25 -->
<g id="edge24" class="edge">
<title>Node11&#45;&gt;Node25</title>
<path fill="none" stroke="midnightblue" d="M540.22,-610.81C570.54,-604.14 608.85,-595.73 641.41,-588.57"/>
<polygon fill="midnightblue" stroke="midnightblue" points="539.28,-607.43 530.26,-612.99 540.78,-614.27 539.28,-607.43"/>
</g>
<!-- Node26 -->
<g id="node26" class="node">
<title>Node26</title>
<g id="a_node26"><a xlink:href="classtracktion__engine_1_1MidiModifierPlugin.html" target="_top" xlink:title=" ">
<polygon fill="none" stroke="black" points="628.5,-509.5 628.5,-539.5 793.5,-539.5 793.5,-509.5 628.5,-509.5"/>
<text text-anchor="start" x="636.5" y="-527.5" font-family="Helvetica,sans-Serif" font-size="10.00">tracktion_engine::MidiModifier</text>
<text text-anchor="middle" x="711" y="-516.5" font-family="Helvetica,sans-Serif" font-size="10.00">Plugin</text>
</a>
</g>
</g>
<!-- Node11&#45;&gt;Node26 -->
<g id="edge25" class="edge">
<title>Node11&#45;&gt;Node26</title>
<path fill="none" stroke="midnightblue" d="M510.51,-607.54C537,-591.2 581.75,-565.15 623,-548.5 631.14,-545.21 639.88,-542.22 648.57,-539.54"/>
<polygon fill="midnightblue" stroke="midnightblue" points="508.58,-604.62 501.94,-612.88 512.28,-610.56 508.58,-604.62"/>
</g>
<!-- Node27 -->
<g id="node27" class="node">
<title>Node27</title>
<g id="a_node27"><a xlink:href="classtracktion__engine_1_1MidiPatchBayPlugin.html" target="_top" xlink:title=" ">
<polygon fill="none" stroke="black" points="635,-460.5 635,-490.5 787,-490.5 787,-460.5 635,-460.5"/>
<text text-anchor="start" x="643" y="-478.5" font-family="Helvetica,sans-Serif" font-size="10.00">tracktion_engine::MidiPatch</text>
<text text-anchor="middle" x="711" y="-467.5" font-family="Helvetica,sans-Serif" font-size="10.00">BayPlugin</text>
</a>
</g>
</g>
<!-- Node11&#45;&gt;Node27 -->
<g id="edge26" class="edge">
<title>Node11&#45;&gt;Node27</title>
<path fill="none" stroke="midnightblue" d="M501.35,-605.12C524.29,-578.44 571.89,-527.57 623,-499.5 629.18,-496.11 635.88,-493.16 642.71,-490.62"/>
<polygon fill="midnightblue" stroke="midnightblue" points="498.58,-602.97 494.79,-612.87 503.92,-607.49 498.58,-602.97"/>
</g>
<!-- Node28 -->
<g id="node28" class="node">
<title>Node28</title>
<g id="a_node28"><a xlink:href="classtracktion__engine_1_1PatchBayPlugin.html" target="_top" xlink:title=" ">
<polygon fill="none" stroke="black" points="636.5,-411.5 636.5,-441.5 785.5,-441.5 785.5,-411.5 636.5,-411.5"/>
<text text-anchor="start" x="644.5" y="-429.5" font-family="Helvetica,sans-Serif" font-size="10.00">tracktion_engine::PatchBay</text>
<text text-anchor="middle" x="711" y="-418.5" font-family="Helvetica,sans-Serif" font-size="10.00">Plugin</text>
</a>
</g>
</g>
<!-- Node11&#45;&gt;Node28 -->
<g id="edge27" class="edge">
<title>Node11&#45;&gt;Node28</title>
<path fill="none" stroke="midnightblue" d="M496.54,-603.73C515.58,-568.21 561.78,-491.09 623,-450.5 628.22,-447.04 633.94,-444.07 639.86,-441.53"/>
<polygon fill="midnightblue" stroke="midnightblue" points="493.25,-602.47 491.71,-612.96 499.45,-605.72 493.25,-602.47"/>
</g>
<!-- Node29 -->
<g id="node29" class="node">
<title>Node29</title>
<g id="a_node29"><a xlink:href="classtracktion__engine_1_1PhaserPlugin.html" target="_top" xlink:title=" ">
<polygon fill="none" stroke="black" points="642.5,-362.5 642.5,-392.5 779.5,-392.5 779.5,-362.5 642.5,-362.5"/>
<text text-anchor="start" x="650.5" y="-380.5" font-family="Helvetica,sans-Serif" font-size="10.00">tracktion_engine::Phaser</text>
<text text-anchor="middle" x="711" y="-369.5" font-family="Helvetica,sans-Serif" font-size="10.00">Plugin</text>
</a>
</g>
</g>
<!-- Node11&#45;&gt;Node29 -->
<g id="edge28" class="edge">
<title>Node11&#45;&gt;Node29</title>
<path fill="none" stroke="midnightblue" d="M493.32,-603.2C508.45,-560.11 550.94,-455.62 623,-401.5 628.89,-397.08 635.55,-393.47 642.49,-390.53"/>
<polygon fill="midnightblue" stroke="midnightblue" points="489.98,-602.17 490.06,-612.76 496.6,-604.43 489.98,-602.17"/>
</g>
<!-- Node30 -->
<g id="node30" class="node">
<title>Node30</title>
<g id="a_node30"><a xlink:href="classtracktion__engine_1_1PitchShiftPlugin.html" target="_top" xlink:title=" ">
<polygon fill="none" stroke="black" points="636,-313.5 636,-343.5 786,-343.5 786,-313.5 636,-313.5"/>
<text text-anchor="start" x="644" y="-331.5" font-family="Helvetica,sans-Serif" font-size="10.00">tracktion_engine::PitchShift</text>
<text text-anchor="middle" x="711" y="-320.5" font-family="Helvetica,sans-Serif" font-size="10.00">Plugin</text>
</a>
</g>
</g>
<!-- Node11&#45;&gt;Node30 -->
<g id="edge29" class="edge">
<title>Node11&#45;&gt;Node30</title>
<path fill="none" stroke="midnightblue" d="M491.06,-603.08C502.47,-553.41 539.6,-420.87 623,-352.5 627.24,-349.02 631.95,-346.05 636.92,-343.5"/>
<polygon fill="midnightblue" stroke="midnightblue" points="487.64,-602.34 488.9,-612.86 494.47,-603.85 487.64,-602.34"/>
</g>
<!-- Node31 -->
<g id="node31" class="node">
<title>Node31</title>
<g id="a_node31"><a xlink:href="classtracktion__engine_1_1RackInstance.html" target="_top" xlink:title=" ">
<polygon fill="none" stroke="black" points="626,-275 626,-294 796,-294 796,-275 626,-275"/>
<text text-anchor="middle" x="711" y="-282" font-family="Helvetica,sans-Serif" font-size="10.00">tracktion_engine::RackInstance</text>
</a>
</g>
</g>
<!-- Node11&#45;&gt;Node31 -->
<g id="edge30" class="edge">
<title>Node11&#45;&gt;Node31</title>
<path fill="none" stroke="midnightblue" d="M489.21,-602.76C496.6,-546.45 525.81,-383.95 623,-303.5 627.64,-299.66 632.89,-296.54 638.45,-294.02"/>
<polygon fill="midnightblue" stroke="midnightblue" points="485.72,-602.47 487.97,-612.82 492.66,-603.32 485.72,-602.47"/>
</g>
<!-- Node32 -->
<g id="node32" class="node">
<title>Node32</title>
<g id="a_node32"><a xlink:href="classtracktion__engine_1_1ReverbPlugin.html" target="_top" xlink:title=" ">
<polygon fill="none" stroke="black" points="641.5,-225.5 641.5,-255.5 780.5,-255.5 780.5,-225.5 641.5,-225.5"/>
<text text-anchor="start" x="649.5" y="-243.5" font-family="Helvetica,sans-Serif" font-size="10.00">tracktion_engine::Reverb</text>
<text text-anchor="middle" x="711" y="-232.5" font-family="Helvetica,sans-Serif" font-size="10.00">Plugin</text>
</a>
</g>
</g>
<!-- Node11&#45;&gt;Node32 -->
<g id="edge31" class="edge">
<title>Node11&#45;&gt;Node32</title>
<path fill="none" stroke="midnightblue" d="M488.51,-602.79C494.18,-542.77 519.56,-360.58 623,-265.5 628.32,-260.61 634.54,-256.67 641.16,-253.49"/>
<polygon fill="midnightblue" stroke="midnightblue" points="485.02,-602.55 487.64,-612.82 491.99,-603.15 485.02,-602.55"/>
</g>
<!-- Node33 -->
<g id="node33" class="node">
<title>Node33</title>
<g id="a_node33"><a xlink:href="classtracktion__engine_1_1SamplerPlugin.html" target="_top" xlink:title=" ">
<polygon fill="none" stroke="black" points="638.5,-176.5 638.5,-206.5 783.5,-206.5 783.5,-176.5 638.5,-176.5"/>
<text text-anchor="start" x="646.5" y="-194.5" font-family="Helvetica,sans-Serif" font-size="10.00">tracktion_engine::Sampler</text>
<text text-anchor="middle" x="711" y="-183.5" font-family="Helvetica,sans-Serif" font-size="10.00">Plugin</text>
</a>
</g>
</g>
<!-- Node11&#45;&gt;Node33 -->
<g id="edge32" class="edge">
<title>Node11&#45;&gt;Node33</title>
<path fill="none" stroke="midnightblue" d="M487.42,-602.65C489.9,-537.11 506.97,-325.5 623,-215.5 627.55,-211.19 632.8,-207.64 638.42,-204.72"/>
<polygon fill="midnightblue" stroke="midnightblue" points="483.91,-602.72 487.11,-612.83 490.91,-602.94 483.91,-602.72"/>
</g>
<!-- Node34 -->
<g id="node34" class="node">
<title>Node34</title>
<g id="a_node34"><a xlink:href="classtracktion__engine_1_1TextPlugin.html" target="_top" xlink:title=" ">
<polygon fill="none" stroke="black" points="633.5,-138 633.5,-157 788.5,-157 788.5,-138 633.5,-138"/>
<text text-anchor="middle" x="711" y="-145" font-family="Helvetica,sans-Serif" font-size="10.00">tracktion_engine::TextPlugin</text>
</a>
</g>
</g>
<!-- Node11&#45;&gt;Node34 -->
<g id="edge33" class="edge">
<title>Node11&#45;&gt;Node34</title>
<path fill="none" stroke="midnightblue" d="M486.36,-602.85C485.22,-532.19 491.34,-288.66 623,-166.5 627.08,-162.71 631.73,-159.62 636.72,-157.09"/>
<polygon fill="midnightblue" stroke="midnightblue" points="482.87,-603.08 486.6,-613 489.87,-602.92 482.87,-603.08"/>
</g>
<!-- Node35 -->
<g id="node35" class="node">
<title>Node35</title>
<g id="a_node35"><a xlink:href="classtracktion__engine_1_1ToneGeneratorPlugin.html" target="_top" xlink:title=" ">
<polygon fill="none" stroke="black" points="623,-88.5 623,-118.5 799,-118.5 799,-88.5 623,-88.5"/>
<text text-anchor="start" x="631" y="-106.5" font-family="Helvetica,sans-Serif" font-size="10.00">tracktion_engine::ToneGenerator</text>
<text text-anchor="middle" x="711" y="-95.5" font-family="Helvetica,sans-Serif" font-size="10.00">Plugin</text>
</a>
</g>
</g>
<!-- Node11&#45;&gt;Node35 -->
<g id="edge34" class="edge">
<title>Node11&#45;&gt;Node35</title>
<path fill="none" stroke="midnightblue" d="M489.84,-602.71C502.15,-519.46 553.48,-198.8 623,-128.5 626.76,-124.7 631.05,-121.47 635.67,-118.72"/>
<polygon fill="midnightblue" stroke="midnightblue" points="486.37,-602.23 488.39,-612.63 493.3,-603.25 486.37,-602.23"/>
</g>
<!-- Node36 -->
<g id="node36" class="node">
<title>Node36</title>
<g id="a_node36"><a xlink:href="classtracktion__engine_1_1VCAPlugin.html" target="_top" xlink:title="The VCA plugin sits on a folder track to control the overall level of all the volume/pan plugins in i...">
<polygon fill="none" stroke="black" points="633.5,-50 633.5,-69 788.5,-69 788.5,-50 633.5,-50"/>
<text text-anchor="middle" x="711" y="-57" font-family="Helvetica,sans-Serif" font-size="10.00">tracktion_engine::VCAPlugin</text>
</a>
</g>
</g>
<!-- Node11&#45;&gt;Node36 -->
<g id="edge35" class="edge">
<title>Node11&#45;&gt;Node36</title>
<path fill="none" stroke="midnightblue" d="M489.15,-602.89C499.24,-514.54 544.69,-154.49 623,-78.5 626.88,-74.73 631.33,-71.64 636.12,-69.11"/>
<polygon fill="midnightblue" stroke="midnightblue" points="485.67,-602.57 488.03,-612.9 492.62,-603.35 485.67,-602.57"/>
</g>
<!-- Node37 -->
<g id="node37" class="node">
<title>Node37</title>
<g id="a_node37"><a xlink:href="classtracktion__engine_1_1VolumeAndPanPlugin.html" target="_top" xlink:title="The built&#45;in Tracktion volume/pan plugin.">
<polygon fill="none" stroke="black" points="640.5,-0.5 640.5,-30.5 781.5,-30.5 781.5,-0.5 640.5,-0.5"/>
<text text-anchor="start" x="648.5" y="-18.5" font-family="Helvetica,sans-Serif" font-size="10.00">tracktion_engine::Volume</text>
<text text-anchor="middle" x="711" y="-7.5" font-family="Helvetica,sans-Serif" font-size="10.00">AndPanPlugin</text>
</a>
</g>
</g>
<!-- Node11&#45;&gt;Node37 -->
<g id="edge36" class="edge">
<title>Node11&#45;&gt;Node37</title>
<path fill="none" stroke="midnightblue" d="M488.98,-602.54C498.51,-510.16 542.6,-125.05 623,-40.5 627.98,-35.26 633.98,-31.1 640.47,-27.79"/>
<polygon fill="midnightblue" stroke="midnightblue" points="485.47,-602.44 487.94,-612.74 492.43,-603.14 485.47,-602.44"/>
</g>
</g>
</svg>
