<?xml version="1.0" encoding="UTF-8" standalone="no"?>
<!DOCTYPE svg PUBLIC "-//W3C//DTD SVG 1.1//EN"
 "http://www.w3.org/Graphics/SVG/1.1/DTD/svg11.dtd">
<!-- Generated by graphviz version 2.40.1 (20161225.0304)
 -->
<!-- Title: tracktion_engine::Clip Pages: 1 -->
<svg width="862pt" height="218pt"
 viewBox="0.00 0.00 862.00 218.00" xmlns="http://www.w3.org/2000/svg" xmlns:xlink="http://www.w3.org/1999/xlink">
<g id="graph0" class="graph" transform="scale(1 1) rotate(0) translate(4 214)">
<title>tracktion_engine::Clip</title>
<!-- Node0 -->
<g id="node1" class="node">
<title>Node0</title>
<polygon fill="#bfbfbf" stroke="#000000" points="352,-95.5 352,-114.5 463,-114.5 463,-95.5 352,-95.5"/>
<text text-anchor="middle" x="407.5" y="-102.5" font-family="Helvetica,sans-Serif" font-size="10.00" fill="#000000">tracktion_engine::Clip</text>
</g>
<!-- Node5 -->
<g id="node6" class="node">
<title>Node5</title>
<g id="a_node6"><a xlink:href="classtracktion__engine_1_1ArrangerClip.html" target="_top" xlink:title="tracktion_engine::ArrangerClip">
<polygon fill="none" stroke="#000000" points="504,-190.5 504,-209.5 652,-209.5 652,-190.5 504,-190.5"/>
<text text-anchor="middle" x="578" y="-197.5" font-family="Helvetica,sans-Serif" font-size="10.00" fill="#000000">tracktion_engine::ArrangerClip</text>
</a>
</g>
</g>
<!-- Node0&#45;&gt;Node5 -->
<g id="edge5" class="edge">
<title>Node0&#45;&gt;Node5</title>
<path fill="none" stroke="#191970" d="M423.029,-121.8216C440.0297,-139.2211 468.9016,-165.9159 499,-181 506.6929,-184.8553 515.2051,-187.9522 523.7094,-190.433"/>
<polygon fill="#191970" stroke="#191970" points="425.5289,-119.3715 416.0914,-114.5564 420.4662,-124.2058 425.5289,-119.3715"/>
</g>
<!-- Node6 -->
<g id="node7" class="node">
<title>Node6</title>
<g id="a_node7"><a xlink:href="classtracktion__engine_1_1AudioClipBase.html" target="_top" xlink:title="Base class for Clips that produce some kind of audio e.g. ">
<polygon fill="none" stroke="#000000" points="499,-152.5 499,-171.5 657,-171.5 657,-152.5 499,-152.5"/>
<text text-anchor="middle" x="578" y="-159.5" font-family="Helvetica,sans-Serif" font-size="10.00" fill="#000000">tracktion_engine::AudioClipBase</text>
</a>
</g>
</g>
<!-- Node0&#45;&gt;Node6 -->
<g id="edge6" class="edge">
<title>Node0&#45;&gt;Node6</title>
<path fill="none" stroke="#191970" d="M437.0977,-118.6873C454.7989,-126.5198 477.8861,-136.1241 499,-143 509.8646,-146.5381 521.7628,-149.7394 532.953,-152.4628"/>
<polygon fill="#191970" stroke="#191970" points="438.4212,-115.4451 427.8645,-114.5468 435.5569,-121.8323 438.4212,-115.4451"/>
</g>
<!-- Node9 -->
<g id="node10" class="node">
<title>Node9</title>
<g id="a_node10"><a xlink:href="classtracktion__engine_1_1ChordClip.html" target="_top" xlink:title="tracktion_engine::ChordClip">
<polygon fill="none" stroke="#000000" points="509.5,-114.5 509.5,-133.5 646.5,-133.5 646.5,-114.5 509.5,-114.5"/>
<text text-anchor="middle" x="578" y="-121.5" font-family="Helvetica,sans-Serif" font-size="10.00" fill="#000000">tracktion_engine::ChordClip</text>
</a>
</g>
</g>
<!-- Node0&#45;&gt;Node9 -->
<g id="edge9" class="edge">
<title>Node0&#45;&gt;Node9</title>
<path fill="none" stroke="#191970" d="M473.4757,-112.3521C485.2005,-113.6587 497.4386,-115.0225 509.2385,-116.3374"/>
<polygon fill="#191970" stroke="#191970" points="473.6542,-108.8504 463.3281,-111.2213 472.8789,-115.8074 473.6542,-108.8504"/>
</g>
<!-- Node10 -->
<g id="node11" class="node">
<title>Node10</title>
<g id="a_node11"><a xlink:href="classtracktion__engine_1_1MarkerClip.html" target="_top" xlink:title="tracktion_engine::MarkerClip">
<polygon fill="none" stroke="#000000" points="507.5,-76.5 507.5,-95.5 648.5,-95.5 648.5,-76.5 507.5,-76.5"/>
<text text-anchor="middle" x="578" y="-83.5" font-family="Helvetica,sans-Serif" font-size="10.00" fill="#000000">tracktion_engine::MarkerClip</text>
</a>
</g>
</g>
<!-- Node0&#45;&gt;Node10 -->
<g id="edge10" class="edge">
<title>Node0&#45;&gt;Node10</title>
<path fill="none" stroke="#191970" d="M473.4074,-97.6555C484.5507,-96.4137 496.1595,-95.1201 507.4165,-93.8656"/>
<polygon fill="#191970" stroke="#191970" points="472.8789,-94.1926 463.3281,-98.7787 473.6542,-101.1496 472.8789,-94.1926"/>
</g>
<!-- Node11 -->
<g id="node12" class="node">
<title>Node11</title>
<g id="a_node12"><a xlink:href="classtracktion__engine_1_1MidiClip.html" target="_top" xlink:title="tracktion_engine::MidiClip">
<polygon fill="none" stroke="#000000" points="513.5,-38.5 513.5,-57.5 642.5,-57.5 642.5,-38.5 513.5,-38.5"/>
<text text-anchor="middle" x="578" y="-45.5" font-family="Helvetica,sans-Serif" font-size="10.00" fill="#000000">tracktion_engine::MidiClip</text>
</a>
</g>
</g>
<!-- Node0&#45;&gt;Node11 -->
<g id="edge11" class="edge">
<title>Node0&#45;&gt;Node11</title>
<path fill="none" stroke="#191970" d="M437.0977,-91.3127C454.7989,-83.4802 477.8861,-73.8759 499,-67 509.8646,-63.4619 521.7628,-60.2606 532.953,-57.5372"/>
<polygon fill="#191970" stroke="#191970" points="435.5569,-88.1677 427.8645,-95.4532 438.4212,-94.5549 435.5569,-88.1677"/>
</g>
<!-- Node12 -->
<g id="node13" class="node">
<title>Node12</title>
<g id="a_node13"><a xlink:href="classtracktion__engine_1_1StepClip.html" target="_top" xlink:title="tracktion_engine::StepClip">
<polygon fill="none" stroke="#000000" points="512.5,-.5 512.5,-19.5 643.5,-19.5 643.5,-.5 512.5,-.5"/>
<text text-anchor="middle" x="578" y="-7.5" font-family="Helvetica,sans-Serif" font-size="10.00" fill="#000000">tracktion_engine::StepClip</text>
</a>
</g>
</g>
<!-- Node0&#45;&gt;Node12 -->
<g id="edge12" class="edge">
<title>Node0&#45;&gt;Node12</title>
<path fill="none" stroke="#191970" d="M423.029,-88.1784C440.0297,-70.7789 468.9016,-44.0841 499,-29 506.6929,-25.1447 515.2051,-22.0478 523.7094,-19.567"/>
<polygon fill="#191970" stroke="#191970" points="420.4662,-85.7942 416.0914,-95.4436 425.5289,-90.6285 420.4662,-85.7942"/>
</g>
<!-- Node1 -->
<g id="node2" class="node">
<title>Node1</title>
<g id="a_node2"><a xlink:href="classtracktion__engine_1_1TrackItem.html" target="_top" xlink:title="Base class for EditItems that live in a track, e.g. ">
<polygon fill="none" stroke="#000000" points="177,-114.5 177,-133.5 315,-133.5 315,-114.5 177,-114.5"/>
<text text-anchor="middle" x="246" y="-121.5" font-family="Helvetica,sans-Serif" font-size="10.00" fill="#000000">tracktion_engine::TrackItem</text>
</a>
</g>
</g>
<!-- Node1&#45;&gt;Node0 -->
<g id="edge1" class="edge">
<title>Node1&#45;&gt;Node0</title>
<path fill="none" stroke="#191970" d="M325.4414,-114.654C334.339,-113.6072 343.2577,-112.5579 351.7654,-111.557"/>
<polygon fill="#191970" stroke="#191970" points="324.9503,-111.1875 315.4278,-115.832 325.7683,-118.1396 324.9503,-111.1875"/>
</g>
<!-- Node2 -->
<g id="node3" class="node">
<title>Node2</title>
<g id="a_node3"><a xlink:href="classtracktion__engine_1_1EditItem.html" target="_top" xlink:title="Base class for objects that live inside an edit &#45; e.g. ">
<polygon fill="none" stroke="#000000" points="4.5,-133.5 4.5,-152.5 135.5,-152.5 135.5,-133.5 4.5,-133.5"/>
<text text-anchor="middle" x="70" y="-140.5" font-family="Helvetica,sans-Serif" font-size="10.00" fill="#000000">tracktion_engine::EditItem</text>
</a>
</g>
</g>
<!-- Node2&#45;&gt;Node1 -->
<g id="edge2" class="edge">
<title>Node2&#45;&gt;Node1</title>
<path fill="none" stroke="#191970" d="M145.7711,-134.8202C156.1044,-133.7046 166.6671,-132.5643 176.8743,-131.4624"/>
<polygon fill="#191970" stroke="#191970" points="145.1024,-131.3719 135.5359,-135.9251 145.8538,-138.3315 145.1024,-131.3719"/>
</g>
<!-- Node3 -->
<g id="node4" class="node">
<title>Node3</title>
<g id="a_node4"><a xlink:href="classtracktion__engine_1_1Selectable.html" target="_top" xlink:title="Base class for things that can be selected, and whose properties can appear in the properties panel...">
<polygon fill="none" stroke="#000000" points="0,-95.5 0,-114.5 140,-114.5 140,-95.5 0,-95.5"/>
<text text-anchor="middle" x="70" y="-102.5" font-family="Helvetica,sans-Serif" font-size="10.00" fill="#000000">tracktion_engine::Selectable</text>
</a>
</g>
</g>
<!-- Node3&#45;&gt;Node1 -->
<g id="edge3" class="edge">
<title>Node3&#45;&gt;Node1</title>
<path fill="none" stroke="#191970" d="M150.0596,-113.6428C158.9701,-114.6047 167.99,-115.5785 176.75,-116.5241"/>
<polygon fill="#191970" stroke="#191970" points="150.3835,-110.1575 140.0656,-112.5639 149.6321,-117.1171 150.3835,-110.1575"/>
</g>
<!-- Node4 -->
<g id="node5" class="node">
<title>Node4</title>
<g id="a_node5"><a xlink:href="classtracktion__engine_1_1Exportable.html" target="_top" xlink:title="An interface for objects within an edit that can be exported. ">
<polygon fill="none" stroke="#000000" points="176,-76.5 176,-95.5 316,-95.5 316,-76.5 176,-76.5"/>
<text text-anchor="middle" x="246" y="-83.5" font-family="Helvetica,sans-Serif" font-size="10.00" fill="#000000">tracktion_engine::Exportable</text>
</a>
</g>
</g>
<!-- Node4&#45;&gt;Node0 -->
<g id="edge4" class="edge">
<title>Node4&#45;&gt;Node0</title>
<path fill="none" stroke="#191970" d="M326.4564,-95.4655C335.0733,-96.4792 343.6946,-97.4935 351.9279,-98.4621"/>
<polygon fill="#191970" stroke="#191970" points="326.7069,-91.9709 316.3664,-94.2784 325.889,-98.9229 326.7069,-91.9709"/>
</g>
<!-- Node7 -->
<g id="node8" class="node">
<title>Node7</title>
<g id="a_node8"><a xlink:href="classtracktion__engine_1_1EditClip.html" target="_top" xlink:title="This is the main source of an Edit clip and is responsible for managing its properties and creating a...">
<polygon fill="none" stroke="#000000" points="709.5,-171.5 709.5,-190.5 837.5,-190.5 837.5,-171.5 709.5,-171.5"/>
<text text-anchor="middle" x="773.5" y="-178.5" font-family="Helvetica,sans-Serif" font-size="10.00" fill="#000000">tracktion_engine::EditClip</text>
</a>
</g>
</g>
<!-- Node6&#45;&gt;Node7 -->
<g id="edge7" class="edge">
<title>Node6&#45;&gt;Node7</title>
<path fill="none" stroke="#191970" d="M667.4818,-170.6964C681.6335,-172.0718 696.018,-173.4698 709.4374,-174.774"/>
<polygon fill="#191970" stroke="#191970" points="667.5272,-167.1844 657.2355,-169.7006 666.85,-174.1516 667.5272,-167.1844"/>
</g>
<!-- Node8 -->
<g id="node9" class="node">
<title>Node8</title>
<g id="a_node9"><a xlink:href="classtracktion__engine_1_1WaveAudioClip.html" target="_top" xlink:title="tracktion_engine::WaveAudioClip">
<polygon fill="none" stroke="#000000" points="693,-133.5 693,-152.5 854,-152.5 854,-133.5 693,-133.5"/>
<text text-anchor="middle" x="773.5" y="-140.5" font-family="Helvetica,sans-Serif" font-size="10.00" fill="#000000">tracktion_engine::WaveAudioClip</text>
</a>
</g>
</g>
<!-- Node6&#45;&gt;Node8 -->
<g id="edge8" class="edge">
<title>Node6&#45;&gt;Node8</title>
<path fill="none" stroke="#191970" d="M667.2205,-153.329C675.7741,-152.4977 684.4154,-151.6578 692.8799,-150.8352"/>
<polygon fill="#191970" stroke="#191970" points="666.85,-149.8484 657.2355,-154.2994 667.5272,-156.8156 666.85,-149.8484"/>
</g>
</g>
</svg>
