<?xml version="1.0" encoding="UTF-8" standalone="no"?>
<!DOCTYPE svg PUBLIC "-//W3C//DTD SVG 1.1//EN"
 "http://www.w3.org/Graphics/SVG/1.1/DTD/svg11.dtd">
<!-- Generated by graphviz version 2.43.0 (0)
 -->
<!-- Title: tracktion_engine::SingleInputAudioNode Pages: 1 -->
<svg width="560pt" height="607pt"
 viewBox="0.00 0.00 560.00 607.00" xmlns="http://www.w3.org/2000/svg" xmlns:xlink="http://www.w3.org/1999/xlink">
<g id="graph0" class="graph" transform="scale(1 1) rotate(0) translate(4 603)">
<title>tracktion_engine::SingleInputAudioNode</title>
<!-- Node1 -->
<g id="node1" class="node">
<title>Node1</title>
<g id="a_node1"><a xlink:title=" ">
<polygon fill="#bfbfbf" stroke="black" points="194,-294.5 194,-324.5 328,-324.5 328,-294.5 194,-294.5"/>
<text text-anchor="start" x="202" y="-312.5" font-family="Helvetica,sans-Serif" font-size="10.00">tracktion_engine::Single</text>
<text text-anchor="middle" x="261" y="-301.5" font-family="Helvetica,sans-Serif" font-size="10.00">InputAudioNode</text>
</a>
</g>
</g>
<!-- Node3 -->
<g id="node3" class="node">
<title>Node3</title>
<g id="a_node3"><a xlink:href="classtracktion__engine_1_1BufferingAudioNode.html" target="_top" xlink:title="AudioNode that buffers its input at a larger buffer size than the calling AudioNode to reduce the amm...">
<polygon fill="none" stroke="black" points="383.5,-568.5 383.5,-598.5 532.5,-598.5 532.5,-568.5 383.5,-568.5"/>
<text text-anchor="start" x="391.5" y="-586.5" font-family="Helvetica,sans-Serif" font-size="10.00">tracktion_engine::Buffering</text>
<text text-anchor="middle" x="458" y="-575.5" font-family="Helvetica,sans-Serif" font-size="10.00">AudioNode</text>
</a>
</g>
</g>
<!-- Node1&#45;&gt;Node3 -->
<g id="edge2" class="edge">
<title>Node1&#45;&gt;Node3</title>
<path fill="none" stroke="midnightblue" d="M264.95,-334.78C272.2,-385.12 295.59,-498.22 364,-558.5 369.64,-563.47 376.18,-567.47 383.11,-570.68"/>
<polygon fill="midnightblue" stroke="midnightblue" points="268.41,-334.2 263.61,-324.76 261.47,-335.13 268.41,-334.2"/>
</g>
<!-- Node4 -->
<g id="node4" class="node">
<title>Node4</title>
<g id="a_node4"><a xlink:href="classtracktion__engine_1_1ClickMutingNode.html" target="_top" xlink:title="An AudioNode mutes an input click audio node within a given range or if disabled in the Edit.">
<polygon fill="none" stroke="black" points="364,-530 364,-549 552,-549 552,-530 364,-530"/>
<text text-anchor="middle" x="458" y="-537" font-family="Helvetica,sans-Serif" font-size="10.00">tracktion_engine::ClickMutingNode</text>
</a>
</g>
</g>
<!-- Node1&#45;&gt;Node4 -->
<g id="edge3" class="edge">
<title>Node1&#45;&gt;Node4</title>
<path fill="none" stroke="midnightblue" d="M266.63,-334.66C276.26,-379.5 302.88,-472.96 364,-520.5 368.94,-524.34 374.47,-527.47 380.29,-530"/>
<polygon fill="midnightblue" stroke="midnightblue" points="270.01,-333.71 264.58,-324.61 263.15,-335.11 270.01,-333.71"/>
</g>
<!-- Node5 -->
<g id="node5" class="node">
<title>Node5</title>
<g id="a_node5"><a xlink:href="classtracktion__engine_1_1FadeInOutAudioNode.html" target="_top" xlink:title="An AudioNode that fades its input node in/out at given times.">
<polygon fill="none" stroke="black" points="390,-480.5 390,-510.5 526,-510.5 526,-480.5 390,-480.5"/>
<text text-anchor="start" x="398" y="-498.5" font-family="Helvetica,sans-Serif" font-size="10.00">tracktion_engine::FadeIn</text>
<text text-anchor="middle" x="458" y="-487.5" font-family="Helvetica,sans-Serif" font-size="10.00">OutAudioNode</text>
</a>
</g>
</g>
<!-- Node1&#45;&gt;Node5 -->
<g id="edge4" class="edge">
<title>Node1&#45;&gt;Node5</title>
<path fill="none" stroke="midnightblue" d="M270.81,-334.4C284.81,-370.31 315.63,-436.18 364,-471.5 371.68,-477.11 380.54,-481.4 389.69,-484.7"/>
<polygon fill="midnightblue" stroke="midnightblue" points="273.95,-332.82 267.15,-324.7 267.4,-335.29 273.95,-332.82"/>
</g>
<!-- Node6 -->
<g id="node6" class="node">
<title>Node6</title>
<g id="a_node6"><a xlink:href="classtracktion__engine_1_1HissingAudioNode.html" target="_top" xlink:title="An AudioNode that adds the &#39;unregistered&#39; hiss noise to the output.">
<polygon fill="none" stroke="black" points="388,-431.5 388,-461.5 528,-461.5 528,-431.5 388,-431.5"/>
<text text-anchor="start" x="396" y="-449.5" font-family="Helvetica,sans-Serif" font-size="10.00">tracktion_engine::Hissing</text>
<text text-anchor="middle" x="458" y="-438.5" font-family="Helvetica,sans-Serif" font-size="10.00">AudioNode</text>
</a>
</g>
</g>
<!-- Node1&#45;&gt;Node6 -->
<g id="edge5" class="edge">
<title>Node1&#45;&gt;Node6</title>
<path fill="none" stroke="midnightblue" d="M276.92,-332.97C294.58,-358.82 326.39,-399.72 364,-422.5 371.27,-426.91 379.34,-430.51 387.6,-433.45"/>
<polygon fill="midnightblue" stroke="midnightblue" points="279.74,-330.89 271.28,-324.51 273.91,-334.78 279.74,-330.89"/>
</g>
<!-- Node7 -->
<g id="node7" class="node">
<title>Node7</title>
<g id="a_node7"><a xlink:href="classtracktion__engine_1_1LevelMeasuringAudioNode.html" target="_top" xlink:title="Applies a SharedLevelMeter to the audio passing through this node.">
<polygon fill="none" stroke="black" points="367,-382.5 367,-412.5 549,-412.5 549,-382.5 367,-382.5"/>
<text text-anchor="start" x="375" y="-400.5" font-family="Helvetica,sans-Serif" font-size="10.00">tracktion_engine::LevelMeasuring</text>
<text text-anchor="middle" x="458" y="-389.5" font-family="Helvetica,sans-Serif" font-size="10.00">AudioNode</text>
</a>
</g>
</g>
<!-- Node1&#45;&gt;Node7 -->
<g id="edge6" class="edge">
<title>Node1&#45;&gt;Node7</title>
<path fill="none" stroke="midnightblue" d="M290.77,-330.42C310.55,-344 337.87,-361.21 364,-372.5 372.59,-376.21 381.88,-379.5 391.14,-382.37"/>
<polygon fill="midnightblue" stroke="midnightblue" points="292.71,-327.51 282.51,-324.66 288.71,-333.25 292.71,-327.51"/>
</g>
<!-- Node8 -->
<g id="node8" class="node">
<title>Node8</title>
<g id="a_node8"><a xlink:href="structtracktion__engine_1_1MuteAudioNode.html" target="_top" xlink:title=" ">
<polygon fill="none" stroke="black" points="367,-344 367,-363 549,-363 549,-344 367,-344"/>
<text text-anchor="middle" x="458" y="-351" font-family="Helvetica,sans-Serif" font-size="10.00">tracktion_engine::MuteAudioNode</text>
</a>
</g>
</g>
<!-- Node1&#45;&gt;Node8 -->
<g id="edge7" class="edge">
<title>Node1&#45;&gt;Node8</title>
<path fill="none" stroke="midnightblue" d="M331.62,-326.95C342.45,-329.55 353.51,-332.14 364,-334.5 378.47,-337.75 394.26,-341.06 408.66,-343.99"/>
<polygon fill="midnightblue" stroke="midnightblue" points="332.32,-323.51 321.78,-324.56 330.67,-330.32 332.32,-323.51"/>
</g>
<!-- Node9 -->
<g id="node9" class="node">
<title>Node9</title>
<g id="a_node9"><a xlink:href="classtracktion__engine_1_1PlayHeadAudioNode.html" target="_top" xlink:title="An AudioNode that synchronises its input node with the playback position.">
<polygon fill="none" stroke="black" points="382.5,-294.5 382.5,-324.5 533.5,-324.5 533.5,-294.5 382.5,-294.5"/>
<text text-anchor="start" x="390.5" y="-312.5" font-family="Helvetica,sans-Serif" font-size="10.00">tracktion_engine::PlayHead</text>
<text text-anchor="middle" x="458" y="-301.5" font-family="Helvetica,sans-Serif" font-size="10.00">AudioNode</text>
</a>
</g>
</g>
<!-- Node1&#45;&gt;Node9 -->
<g id="edge8" class="edge">
<title>Node1&#45;&gt;Node9</title>
<path fill="none" stroke="midnightblue" d="M338.4,-309.5C352.84,-309.5 367.93,-309.5 382.32,-309.5"/>
<polygon fill="midnightblue" stroke="midnightblue" points="338.02,-306 328.02,-309.5 338.02,-313 338.02,-306"/>
</g>
<!-- Node10 -->
<g id="node10" class="node">
<title>Node10</title>
<g id="a_node10"><a xlink:href="classtracktion__engine_1_1SidechainReceiveAudioNode.html" target="_top" xlink:title=" ">
<polygon fill="none" stroke="black" points="382,-245.5 382,-275.5 534,-275.5 534,-245.5 382,-245.5"/>
<text text-anchor="start" x="390" y="-263.5" font-family="Helvetica,sans-Serif" font-size="10.00">tracktion_engine::Sidechain</text>
<text text-anchor="middle" x="458" y="-252.5" font-family="Helvetica,sans-Serif" font-size="10.00">ReceiveAudioNode</text>
</a>
</g>
</g>
<!-- Node1&#45;&gt;Node10 -->
<g id="edge9" class="edge">
<title>Node1&#45;&gt;Node10</title>
<path fill="none" stroke="midnightblue" d="M331.55,-292.02C353.04,-286.62 376.51,-280.72 397.28,-275.51"/>
<polygon fill="midnightblue" stroke="midnightblue" points="330.68,-288.63 321.83,-294.47 332.38,-295.42 330.68,-288.63"/>
</g>
<!-- Node11 -->
<g id="node11" class="node">
<title>Node11</title>
<g id="a_node11"><a xlink:href="classtracktion__engine_1_1SidechainReceiveWrapperAudioNode.html" target="_top" xlink:title=" ">
<polygon fill="none" stroke="black" points="382,-196.5 382,-226.5 534,-226.5 534,-196.5 382,-196.5"/>
<text text-anchor="start" x="390" y="-214.5" font-family="Helvetica,sans-Serif" font-size="10.00">tracktion_engine::Sidechain</text>
<text text-anchor="middle" x="458" y="-203.5" font-family="Helvetica,sans-Serif" font-size="10.00">ReceiveWrapperAudioNode</text>
</a>
</g>
</g>
<!-- Node1&#45;&gt;Node11 -->
<g id="edge10" class="edge">
<title>Node1&#45;&gt;Node11</title>
<path fill="none" stroke="midnightblue" d="M286.61,-287.54C306.29,-271.04 335.25,-249.04 364,-235.5 371.24,-232.09 379.04,-229.12 386.92,-226.53"/>
<polygon fill="midnightblue" stroke="midnightblue" points="284.1,-285.07 278.77,-294.23 288.65,-290.4 284.1,-285.07"/>
</g>
<!-- Node12 -->
<g id="node12" class="node">
<title>Node12</title>
<g id="a_node12"><a xlink:href="classtracktion__engine_1_1SidechainSendAudioNode.html" target="_top" xlink:title=" ">
<polygon fill="none" stroke="black" points="382,-147.5 382,-177.5 534,-177.5 534,-147.5 382,-147.5"/>
<text text-anchor="start" x="390" y="-165.5" font-family="Helvetica,sans-Serif" font-size="10.00">tracktion_engine::Sidechain</text>
<text text-anchor="middle" x="458" y="-154.5" font-family="Helvetica,sans-Serif" font-size="10.00">SendAudioNode</text>
</a>
</g>
</g>
<!-- Node1&#45;&gt;Node12 -->
<g id="edge11" class="edge">
<title>Node1&#45;&gt;Node12</title>
<path fill="none" stroke="midnightblue" d="M275.38,-285.64C292.34,-257.61 324.23,-211.74 364,-186.5 369.49,-183.02 375.47,-180.04 381.65,-177.49"/>
<polygon fill="midnightblue" stroke="midnightblue" points="272.27,-284.02 270.21,-294.41 278.3,-287.57 272.27,-284.02"/>
</g>
<!-- Node13 -->
<g id="node13" class="node">
<title>Node13</title>
<g id="a_node13"><a xlink:href="classtracktion__engine_1_1SpeedRampAudioNode.html" target="_top" xlink:title="An AudioNode that speeds up and slows down its input node in/out at given times.">
<polygon fill="none" stroke="black" points="376.5,-98.5 376.5,-128.5 539.5,-128.5 539.5,-98.5 376.5,-98.5"/>
<text text-anchor="start" x="384.5" y="-116.5" font-family="Helvetica,sans-Serif" font-size="10.00">tracktion_engine::SpeedRamp</text>
<text text-anchor="middle" x="458" y="-105.5" font-family="Helvetica,sans-Serif" font-size="10.00">AudioNode</text>
</a>
</g>
</g>
<!-- Node1&#45;&gt;Node13 -->
<g id="edge12" class="edge">
<title>Node1&#45;&gt;Node13</title>
<path fill="none" stroke="midnightblue" d="M269.8,-284.71C282.97,-247 313.25,-175.61 364,-137.5 368.53,-134.1 373.5,-131.17 378.71,-128.66"/>
<polygon fill="midnightblue" stroke="midnightblue" points="266.41,-283.8 266.54,-294.39 273.05,-286.03 266.41,-283.8"/>
</g>
<!-- Node14 -->
<g id="node14" class="node">
<title>Node14</title>
<g id="a_node14"><a xlink:href="classtracktion__engine_1_1TimedMutingAudioNode.html" target="_top" xlink:title=" ">
<polygon fill="none" stroke="black" points="373.5,-49.5 373.5,-79.5 542.5,-79.5 542.5,-49.5 373.5,-49.5"/>
<text text-anchor="start" x="381.5" y="-67.5" font-family="Helvetica,sans-Serif" font-size="10.00">tracktion_engine::TimedMuting</text>
<text text-anchor="middle" x="458" y="-56.5" font-family="Helvetica,sans-Serif" font-size="10.00">AudioNode</text>
</a>
</g>
</g>
<!-- Node1&#45;&gt;Node14 -->
<g id="edge13" class="edge">
<title>Node1&#45;&gt;Node14</title>
<path fill="none" stroke="midnightblue" d="M266.31,-284.46C275.58,-238.43 301.83,-140.39 364,-88.5 368.1,-85.08 372.62,-82.14 377.41,-79.62"/>
<polygon fill="midnightblue" stroke="midnightblue" points="262.84,-283.99 264.4,-294.47 269.71,-285.3 262.84,-283.99"/>
</g>
<!-- Node15 -->
<g id="node15" class="node">
<title>Node15</title>
<g id="a_node15"><a xlink:href="classtracktion__engine_1_1TrackMutingAudioNode.html" target="_top" xlink:title="An AudioNode that handles muting/soloing of its input node, according to the audibility of a track.">
<polygon fill="none" stroke="black" points="376,-0.5 376,-30.5 540,-30.5 540,-0.5 376,-0.5"/>
<text text-anchor="start" x="384" y="-18.5" font-family="Helvetica,sans-Serif" font-size="10.00">tracktion_engine::TrackMuting</text>
<text text-anchor="middle" x="458" y="-7.5" font-family="Helvetica,sans-Serif" font-size="10.00">AudioNode</text>
</a>
</g>
</g>
<!-- Node1&#45;&gt;Node15 -->
<g id="edge14" class="edge">
<title>Node1&#45;&gt;Node15</title>
<path fill="none" stroke="midnightblue" d="M263.97,-284.3C269.54,-230.86 290.19,-105.7 364,-39.5 367.85,-36.05 372.13,-33.08 376.68,-30.53"/>
<polygon fill="midnightblue" stroke="midnightblue" points="260.49,-283.99 263.02,-294.28 267.45,-284.65 260.49,-283.99"/>
</g>
<!-- Node2 -->
<g id="node2" class="node">
<title>Node2</title>
<g id="a_node2"><a xlink:href="classtracktion__engine_1_1AudioNode.html" target="_top" xlink:title="Base class for nodes in an audio playback graph.">
<polygon fill="none" stroke="black" points="0,-300 0,-319 158,-319 158,-300 0,-300"/>
<text text-anchor="middle" x="79" y="-307" font-family="Helvetica,sans-Serif" font-size="10.00">tracktion_engine::AudioNode</text>
</a>
</g>
</g>
<!-- Node2&#45;&gt;Node1 -->
<g id="edge1" class="edge">
<title>Node2&#45;&gt;Node1</title>
<path fill="none" stroke="midnightblue" d="M168.22,-309.5C176.81,-309.5 185.42,-309.5 193.74,-309.5"/>
<polygon fill="midnightblue" stroke="midnightblue" points="168.17,-306 158.17,-309.5 168.17,-313 168.17,-306"/>
</g>
</g>
</svg>
