<?xml version="1.0" encoding="UTF-8" standalone="no"?>
<!DOCTYPE svg PUBLIC "-//W3C//DTD SVG 1.1//EN"
 "http://www.w3.org/Graphics/SVG/1.1/DTD/svg11.dtd">
<!-- Generated by graphviz version 2.40.1 (20161225.0304)
 -->
<!-- Title: tracktion_engine::AudioClipBase Pages: 1 -->
<svg width="459pt" height="263pt"
 viewBox="0.00 0.00 459.00 263.00" xmlns="http://www.w3.org/2000/svg" xmlns:xlink="http://www.w3.org/1999/xlink">
<g id="graph0" class="graph" transform="scale(1 1) rotate(0) translate(4 259)">
<title>tracktion_engine::AudioClipBase</title>
<!-- Node0 -->
<g id="node1" class="node">
<title>Node0</title>
<polygon fill="#bfbfbf" stroke="#000000" points="209.5,-56.5 209.5,-75.5 367.5,-75.5 367.5,-56.5 209.5,-56.5"/>
<text text-anchor="middle" x="288.5" y="-63.5" font-family="Helvetica,sans-Serif" font-size="10.00" fill="#000000">tracktion_engine::AudioClipBase</text>
</g>
<!-- Node7 -->
<g id="node8" class="node">
<title>Node7</title>
<g id="a_node8"><a xlink:href="classtracktion__engine_1_1EditClip.html" target="_top" xlink:title="This is the main source of an Edit clip and is responsible for managing its properties and creating a...">
<polygon fill="none" stroke="#000000" points="143.5,-.5 143.5,-19.5 271.5,-19.5 271.5,-.5 143.5,-.5"/>
<text text-anchor="middle" x="207.5" y="-7.5" font-family="Helvetica,sans-Serif" font-size="10.00" fill="#000000">tracktion_engine::EditClip</text>
</a>
</g>
</g>
<!-- Node0&#45;&gt;Node7 -->
<g id="edge7" class="edge">
<title>Node0&#45;&gt;Node7</title>
<path fill="none" stroke="#191970" d="M266.066,-50.49C251.7746,-40.6096 233.7084,-28.1194 221.4474,-19.6427"/>
<polygon fill="#191970" stroke="#191970" points="264.1749,-53.4376 274.3909,-56.2455 268.1557,-47.6797 264.1749,-53.4376"/>
</g>
<!-- Node8 -->
<g id="node9" class="node">
<title>Node8</title>
<g id="a_node9"><a xlink:href="classtracktion__engine_1_1WaveAudioClip.html" target="_top" xlink:title="tracktion_engine::WaveAudioClip">
<polygon fill="none" stroke="#000000" points="290,-.5 290,-19.5 451,-19.5 451,-.5 290,-.5"/>
<text text-anchor="middle" x="370.5" y="-7.5" font-family="Helvetica,sans-Serif" font-size="10.00" fill="#000000">tracktion_engine::WaveAudioClip</text>
</a>
</g>
</g>
<!-- Node0&#45;&gt;Node8 -->
<g id="edge8" class="edge">
<title>Node0&#45;&gt;Node8</title>
<path fill="none" stroke="#191970" d="M311.211,-50.49C325.6788,-40.6096 343.968,-28.1194 356.3804,-19.6427"/>
<polygon fill="#191970" stroke="#191970" points="309.0675,-47.7156 302.7833,-56.2455 313.0152,-53.4962 309.0675,-47.7156"/>
</g>
<!-- Node1 -->
<g id="node2" class="node">
<title>Node1</title>
<g id="a_node2"><a xlink:href="classtracktion__engine_1_1Clip.html" target="_top" xlink:title="A clip in an edit. ">
<polygon fill="none" stroke="#000000" points="165,-118 165,-137 276,-137 276,-118 165,-118"/>
<text text-anchor="middle" x="220.5" y="-125" font-family="Helvetica,sans-Serif" font-size="10.00" fill="#000000">tracktion_engine::Clip</text>
</a>
</g>
</g>
<!-- Node1&#45;&gt;Node0 -->
<g id="edge1" class="edge">
<title>Node1&#45;&gt;Node0</title>
<path fill="none" stroke="#191970" d="M238.6906,-111.0482C251.15,-99.7798 267.253,-85.216 277.7252,-75.7449"/>
<polygon fill="#191970" stroke="#191970" points="236.194,-108.5871 231.125,-117.8906 240.8894,-113.7787 236.194,-108.5871"/>
</g>
<!-- Node2 -->
<g id="node3" class="node">
<title>Node2</title>
<g id="a_node3"><a xlink:href="classtracktion__engine_1_1TrackItem.html" target="_top" xlink:title="Base class for EditItems that live in a track, e.g. ">
<polygon fill="none" stroke="#000000" points="73.5,-179.5 73.5,-198.5 211.5,-198.5 211.5,-179.5 73.5,-179.5"/>
<text text-anchor="middle" x="142.5" y="-186.5" font-family="Helvetica,sans-Serif" font-size="10.00" fill="#000000">tracktion_engine::TrackItem</text>
</a>
</g>
</g>
<!-- Node2&#45;&gt;Node1 -->
<g id="edge2" class="edge">
<title>Node2&#45;&gt;Node1</title>
<path fill="none" stroke="#191970" d="M162.6036,-173.1491C177.0965,-161.722 196.1806,-146.6749 208.3981,-137.0419"/>
<polygon fill="#191970" stroke="#191970" points="160.3732,-170.4506 154.6875,-179.3906 164.7073,-175.9475 160.3732,-170.4506"/>
</g>
<!-- Node3 -->
<g id="node4" class="node">
<title>Node3</title>
<g id="a_node4"><a xlink:href="classtracktion__engine_1_1EditItem.html" target="_top" xlink:title="Base class for objects that live inside an edit &#45; e.g. ">
<polygon fill="none" stroke="#000000" points="0,-235.5 0,-254.5 131,-254.5 131,-235.5 0,-235.5"/>
<text text-anchor="middle" x="65.5" y="-242.5" font-family="Helvetica,sans-Serif" font-size="10.00" fill="#000000">tracktion_engine::EditItem</text>
</a>
</g>
</g>
<!-- Node3&#45;&gt;Node2 -->
<g id="edge3" class="edge">
<title>Node3&#45;&gt;Node2</title>
<path fill="none" stroke="#191970" d="M87.2116,-229.2097C100.7353,-219.3743 117.6958,-207.0394 129.2413,-198.6427"/>
<polygon fill="#191970" stroke="#191970" points="84.9411,-226.5332 78.9124,-235.2455 89.0584,-232.1944 84.9411,-226.5332"/>
</g>
<!-- Node4 -->
<g id="node5" class="node">
<title>Node4</title>
<g id="a_node5"><a xlink:href="classtracktion__engine_1_1Selectable.html" target="_top" xlink:title="Base class for things that can be selected, and whose properties can appear in the properties panel...">
<polygon fill="none" stroke="#000000" points="149.5,-235.5 149.5,-254.5 289.5,-254.5 289.5,-235.5 149.5,-235.5"/>
<text text-anchor="middle" x="219.5" y="-242.5" font-family="Helvetica,sans-Serif" font-size="10.00" fill="#000000">tracktion_engine::Selectable</text>
</a>
</g>
</g>
<!-- Node4&#45;&gt;Node2 -->
<g id="edge4" class="edge">
<title>Node4&#45;&gt;Node2</title>
<path fill="none" stroke="#191970" d="M197.7884,-229.2097C184.2647,-219.3743 167.3042,-207.0394 155.7587,-198.6427"/>
<polygon fill="#191970" stroke="#191970" points="195.9416,-232.1944 206.0876,-235.2455 200.0589,-226.5332 195.9416,-232.1944"/>
</g>
<!-- Node5 -->
<g id="node6" class="node">
<title>Node5</title>
<g id="a_node6"><a xlink:href="classtracktion__engine_1_1Exportable.html" target="_top" xlink:title="An interface for objects within an edit that can be exported. ">
<polygon fill="none" stroke="#000000" points="229.5,-179.5 229.5,-198.5 369.5,-198.5 369.5,-179.5 229.5,-179.5"/>
<text text-anchor="middle" x="299.5" y="-186.5" font-family="Helvetica,sans-Serif" font-size="10.00" fill="#000000">tracktion_engine::Exportable</text>
</a>
</g>
</g>
<!-- Node5&#45;&gt;Node1 -->
<g id="edge5" class="edge">
<title>Node5&#45;&gt;Node1</title>
<path fill="none" stroke="#191970" d="M279.1387,-173.1491C264.46,-161.722 245.1312,-146.6749 232.7571,-137.0419"/>
<polygon fill="#191970" stroke="#191970" points="277.1154,-176.0095 287.1563,-179.3906 281.4154,-170.4859 277.1154,-176.0095"/>
</g>
<!-- Node6 -->
<g id="node7" class="node">
<title>Node6</title>
<g id="a_node7"><a xlink:href="structtracktion__engine_1_1RenderManager_1_1Job_1_1Listener.html" target="_top" xlink:title="tracktion_engine::Render\lManager::Job::Listener">
<polygon fill="none" stroke="#000000" points="294,-112.5 294,-142.5 419,-142.5 419,-112.5 294,-112.5"/>
<text text-anchor="start" x="302" y="-130.5" font-family="Helvetica,sans-Serif" font-size="10.00" fill="#000000">tracktion_engine::Render</text>
<text text-anchor="middle" x="356.5" y="-119.5" font-family="Helvetica,sans-Serif" font-size="10.00" fill="#000000">Manager::Job::Listener</text>
</a>
</g>
</g>
<!-- Node6&#45;&gt;Node0 -->
<g id="edge6" class="edge">
<title>Node6&#45;&gt;Node0</title>
<path fill="none" stroke="#191970" d="M332.2294,-105.5494C320.9971,-95.3907 308.2177,-83.8329 299.3877,-75.8469"/>
<polygon fill="#191970" stroke="#191970" points="329.9266,-108.1858 339.691,-112.2977 334.622,-102.9942 329.9266,-108.1858"/>
</g>
</g>
</svg>
