<?xml version="1.0" encoding="UTF-8" standalone="no"?>
<!DOCTYPE svg PUBLIC "-//W3C//DTD SVG 1.1//EN"
 "http://www.w3.org/Graphics/SVG/1.1/DTD/svg11.dtd">
<!-- Generated by graphviz version 2.43.0 (0)
 -->
<!-- Title: tracktion_engine::SingleInputAudioNode Pages: 1 -->
<svg width="554pt" height="176pt"
 viewBox="0.00 0.00 554.00 176.00" xmlns="http://www.w3.org/2000/svg" xmlns:xlink="http://www.w3.org/1999/xlink">
<g id="graph0" class="graph" transform="scale(1 1) rotate(0) translate(4 172)">
<title>tracktion_engine::SingleInputAudioNode</title>
<!-- Node1 -->
<g id="node1" class="node">
<title>Node1</title>
<g id="a_node1"><a xlink:title=" ">
<polygon fill="#bfbfbf" stroke="black" points="194,-71.5 194,-101.5 328,-101.5 328,-71.5 194,-71.5"/>
<text text-anchor="start" x="202" y="-89.5" font-family="Helvetica,sans-Serif" font-size="10.00">tracktion_engine::Single</text>
<text text-anchor="middle" x="261" y="-78.5" font-family="Helvetica,sans-Serif" font-size="10.00">InputAudioNode</text>
</a>
</g>
</g>
<!-- Node3 -->
<g id="node3" class="node">
<title>Node3</title>
<g id="a_node3"><a xlink:href="classtracktion__engine_1_1FadeInOutAudioNode.html" target="_top" xlink:title="An AudioNode that fades its input node in/out at given times.">
<polygon fill="none" stroke="black" points="387,-137.5 387,-167.5 523,-167.5 523,-137.5 387,-137.5"/>
<text text-anchor="start" x="395" y="-155.5" font-family="Helvetica,sans-Serif" font-size="10.00">tracktion_engine::FadeIn</text>
<text text-anchor="middle" x="455" y="-144.5" font-family="Helvetica,sans-Serif" font-size="10.00">OutAudioNode</text>
</a>
</g>
</g>
<!-- Node1&#45;&gt;Node3 -->
<g id="edge2" class="edge">
<title>Node1&#45;&gt;Node3</title>
<path fill="none" stroke="midnightblue" d="M306.13,-105.48C323.94,-112.82 344.78,-120.99 364,-127.5 374.29,-130.99 385.36,-134.36 396.09,-137.44"/>
<polygon fill="midnightblue" stroke="midnightblue" points="307.15,-102.12 296.57,-101.51 304.46,-108.58 307.15,-102.12"/>
</g>
<!-- Node4 -->
<g id="node4" class="node">
<title>Node4</title>
<g id="a_node4"><a xlink:href="structtracktion__engine_1_1MuteAudioNode.html" target="_top" xlink:title=" ">
<polygon fill="none" stroke="black" points="364,-99 364,-118 546,-118 546,-99 364,-99"/>
<text text-anchor="middle" x="455" y="-106" font-family="Helvetica,sans-Serif" font-size="10.00">tracktion_engine::MuteAudioNode</text>
</a>
</g>
</g>
<!-- Node1&#45;&gt;Node4 -->
<g id="edge3" class="edge">
<title>Node1&#45;&gt;Node4</title>
<path fill="none" stroke="midnightblue" d="M338.23,-95.23C348.94,-96.46 360.01,-97.73 370.84,-98.97"/>
<polygon fill="midnightblue" stroke="midnightblue" points="338.41,-91.73 328.08,-94.07 337.61,-98.69 338.41,-91.73"/>
</g>
<!-- Node5 -->
<g id="node5" class="node">
<title>Node5</title>
<g id="a_node5"><a xlink:href="classtracktion__engine_1_1SpeedRampAudioNode.html" target="_top" xlink:title="An AudioNode that speeds up and slows down its input node in/out at given times.">
<polygon fill="none" stroke="black" points="373.5,-49.5 373.5,-79.5 536.5,-79.5 536.5,-49.5 373.5,-49.5"/>
<text text-anchor="start" x="381.5" y="-67.5" font-family="Helvetica,sans-Serif" font-size="10.00">tracktion_engine::SpeedRamp</text>
<text text-anchor="middle" x="455" y="-56.5" font-family="Helvetica,sans-Serif" font-size="10.00">AudioNode</text>
</a>
</g>
</g>
<!-- Node1&#45;&gt;Node5 -->
<g id="edge4" class="edge">
<title>Node1&#45;&gt;Node5</title>
<path fill="none" stroke="midnightblue" d="M338.09,-77.78C349.63,-76.46 361.57,-75.09 373.21,-73.76"/>
<polygon fill="midnightblue" stroke="midnightblue" points="337.61,-74.31 328.08,-78.93 338.41,-81.27 337.61,-74.31"/>
</g>
<!-- Node6 -->
<g id="node6" class="node">
<title>Node6</title>
<g id="a_node6"><a xlink:href="classtracktion__engine_1_1TimedMutingAudioNode.html" target="_top" xlink:title=" ">
<polygon fill="none" stroke="black" points="370.5,-0.5 370.5,-30.5 539.5,-30.5 539.5,-0.5 370.5,-0.5"/>
<text text-anchor="start" x="378.5" y="-18.5" font-family="Helvetica,sans-Serif" font-size="10.00">tracktion_engine::TimedMuting</text>
<text text-anchor="middle" x="455" y="-7.5" font-family="Helvetica,sans-Serif" font-size="10.00">AudioNode</text>
</a>
</g>
</g>
<!-- Node1&#45;&gt;Node6 -->
<g id="edge5" class="edge">
<title>Node1&#45;&gt;Node6</title>
<path fill="none" stroke="midnightblue" d="M300.48,-66.87C319.31,-57.76 342.5,-47.25 364,-39.5 372.97,-36.26 382.59,-33.24 392.08,-30.51"/>
<polygon fill="midnightblue" stroke="midnightblue" points="298.78,-63.81 291.34,-71.35 301.86,-70.09 298.78,-63.81"/>
</g>
<!-- Node2 -->
<g id="node2" class="node">
<title>Node2</title>
<g id="a_node2"><a xlink:href="classtracktion__engine_1_1AudioNode.html" target="_top" xlink:title="Base class for nodes in an audio playback graph.">
<polygon fill="none" stroke="black" points="0,-77 0,-96 158,-96 158,-77 0,-77"/>
<text text-anchor="middle" x="79" y="-84" font-family="Helvetica,sans-Serif" font-size="10.00">tracktion_engine::AudioNode</text>
</a>
</g>
</g>
<!-- Node2&#45;&gt;Node1 -->
<g id="edge1" class="edge">
<title>Node2&#45;&gt;Node1</title>
<path fill="none" stroke="midnightblue" d="M168.22,-86.5C176.81,-86.5 185.42,-86.5 193.74,-86.5"/>
<polygon fill="midnightblue" stroke="midnightblue" points="168.17,-83 158.17,-86.5 168.17,-90 168.17,-83"/>
</g>
</g>
</svg>
