<?xml version="1.0" encoding="UTF-8" standalone="no"?>
<!DOCTYPE svg PUBLIC "-//W3C//DTD SVG 1.1//EN"
 "http://www.w3.org/Graphics/SVG/1.1/DTD/svg11.dtd">
<!-- Generated by graphviz version 2.43.0 (0)
 -->
<!-- Title: engine::ArrangerClip Pages: 1 -->
<svg width="295pt" height="192pt"
 viewBox="0.00 0.00 294.50 192.00" xmlns="http://www.w3.org/2000/svg" xmlns:xlink="http://www.w3.org/1999/xlink">
<g id="graph0" class="graph" transform="scale(1 1) rotate(0) translate(4 188)">
<title>engine::ArrangerClip</title>
<!-- Node1 -->
<g id="Node000001" class="node">
<title>Node1</title>
<g id="a_Node000001"><a xlink:title=" ">
<polygon fill="#999999" stroke="#666666" points="228.5,-19 112.5,-19 112.5,0 228.5,0 228.5,-19"/>
<text text-anchor="middle" x="170.5" y="-7" font-family="Helvetica,sans-Serif" font-size="10.00">engine::ArrangerClip</text>
</a>
</g>
</g>
<!-- Node2 -->
<g id="Node000002" class="node">
<title>Node2</title>
<g id="a_Node000002"><a xlink:href="classengine_1_1Clip.html" target="_top" xlink:title="A clip in an edit.">
<polygon fill="white" stroke="#666666" points="207.5,-74 133.5,-74 133.5,-55 207.5,-55 207.5,-74"/>
<text text-anchor="middle" x="170.5" y="-62" font-family="Helvetica,sans-Serif" font-size="10.00">engine::Clip</text>
</a>
</g>
</g>
<!-- Node2&#45;&gt;Node1 -->
<g id="edge1_Node000001_Node000002" class="edge">
<title>Node2&#45;&gt;Node1</title>
<g id="a_edge1_Node000001_Node000002"><a xlink:title=" ">
<path fill="none" stroke="#63b8ff" d="M170.5,-44.66C170.5,-35.93 170.5,-25.99 170.5,-19.09"/>
<polygon fill="#63b8ff" stroke="#63b8ff" points="167,-44.75 170.5,-54.75 174,-44.75 167,-44.75"/>
</a>
</g>
</g>
<!-- Node3 -->
<g id="Node000003" class="node">
<title>Node3</title>
<g id="a_Node000003"><a xlink:href="classengine_1_1TrackItem.html" target="_top" xlink:title="Base class for EditItems that live in a Track, e.g.">
<polygon fill="white" stroke="#666666" points="160.5,-129 56.5,-129 56.5,-110 160.5,-110 160.5,-129"/>
<text text-anchor="middle" x="108.5" y="-117" font-family="Helvetica,sans-Serif" font-size="10.00">engine::TrackItem</text>
</a>
</g>
</g>
<!-- Node3&#45;&gt;Node2 -->
<g id="edge2_Node000002_Node000003" class="edge">
<title>Node3&#45;&gt;Node2</title>
<g id="a_edge2_Node000002_Node000003"><a xlink:title=" ">
<path fill="none" stroke="#63b8ff" d="M126.25,-103.32C137.31,-93.87 151.13,-82.06 160.36,-74.17"/>
<polygon fill="#63b8ff" stroke="#63b8ff" points="123.79,-100.83 118.46,-109.98 128.34,-106.15 123.79,-100.83"/>
</a>
</g>
</g>
<!-- Node4 -->
<g id="Node000004" class="node">
<title>Node4</title>
<g id="a_Node000004"><a xlink:href="classengine_1_1EditItem.html" target="_top" xlink:title="Base class for objects that live inside an edit &#45; e.g.">
<polygon fill="white" stroke="#666666" points="97,-184 0,-184 0,-165 97,-165 97,-184"/>
<text text-anchor="middle" x="48.5" y="-172" font-family="Helvetica,sans-Serif" font-size="10.00">engine::EditItem</text>
</a>
</g>
</g>
<!-- Node4&#45;&gt;Node3 -->
<g id="edge3_Node000003_Node000004" class="edge">
<title>Node4&#45;&gt;Node3</title>
<g id="a_edge3_Node000003_Node000004"><a xlink:title=" ">
<path fill="none" stroke="#63b8ff" d="M65.68,-158.32C76.38,-148.87 89.76,-137.06 98.68,-129.17"/>
<polygon fill="#63b8ff" stroke="#63b8ff" points="63.32,-155.74 58.14,-164.98 67.95,-160.99 63.32,-155.74"/>
</a>
</g>
</g>
<!-- Node5 -->
<g id="Node000005" class="node">
<title>Node5</title>
<g id="a_Node000005"><a xlink:href="classengine_1_1Selectable.html" target="_top" xlink:title="Base class for things that can be selected, and whose properties can appear in the properties panel.">
<polygon fill="white" stroke="#666666" points="222,-184 115,-184 115,-165 222,-165 222,-184"/>
<text text-anchor="middle" x="168.5" y="-172" font-family="Helvetica,sans-Serif" font-size="10.00">engine::Selectable</text>
</a>
</g>
</g>
<!-- Node5&#45;&gt;Node3 -->
<g id="edge4_Node000003_Node000005" class="edge">
<title>Node5&#45;&gt;Node3</title>
<g id="a_edge4_Node000003_Node000005"><a xlink:title=" ">
<path fill="none" stroke="#63b8ff" d="M151.32,-158.32C140.62,-148.87 127.24,-137.06 118.32,-129.17"/>
<polygon fill="#63b8ff" stroke="#63b8ff" points="149.05,-160.99 158.86,-164.98 153.68,-155.74 149.05,-160.99"/>
</a>
</g>
</g>
<!-- Node6 -->
<g id="Node000006" class="node">
<title>Node6</title>
<g id="a_Node000006"><a xlink:href="classengine_1_1Exportable.html" target="_top" xlink:title="An interface for objects within an edit that can be exported.">
<polygon fill="white" stroke="#666666" points="286.5,-129 178.5,-129 178.5,-110 286.5,-110 286.5,-129"/>
<text text-anchor="middle" x="232.5" y="-117" font-family="Helvetica,sans-Serif" font-size="10.00">engine::Exportable</text>
</a>
</g>
</g>
<!-- Node6&#45;&gt;Node2 -->
<g id="edge5_Node000002_Node000006" class="edge">
<title>Node6&#45;&gt;Node2</title>
<g id="a_edge5_Node000002_Node000006"><a xlink:title=" ">
<path fill="none" stroke="#63b8ff" d="M214.75,-103.32C203.69,-93.87 189.87,-82.06 180.64,-74.17"/>
<polygon fill="#63b8ff" stroke="#63b8ff" points="212.66,-106.15 222.54,-109.98 217.21,-100.83 212.66,-106.15"/>
</a>
</g>
</g>
</g>
</svg>
