<?xml version="1.0" encoding="UTF-8" standalone="no"?>
<!DOCTYPE svg PUBLIC "-//W3C//DTD SVG 1.1//EN"
 "http://www.w3.org/Graphics/SVG/1.1/DTD/svg11.dtd">
<!-- Generated by graphviz version 2.43.0 (0)
 -->
<!-- Title: tracktion_engine::OutputDeviceInstance Pages: 1 -->
<svg width="345pt" height="88pt"
 viewBox="0.00 0.00 345.00 88.00" xmlns="http://www.w3.org/2000/svg" xmlns:xlink="http://www.w3.org/1999/xlink">
<g id="graph0" class="graph" transform="scale(1 1) rotate(0) translate(4 84)">
<title>tracktion_engine::OutputDeviceInstance</title>
<!-- Node1 -->
<g id="node1" class="node">
<title>Node1</title>
<g id="a_node1"><a xlink:title=" ">
<polygon fill="#bfbfbf" stroke="black" points="0,-24.5 0,-54.5 137,-54.5 137,-24.5 0,-24.5"/>
<text text-anchor="start" x="8" y="-42.5" font-family="Helvetica,sans-Serif" font-size="10.00">tracktion_engine::Output</text>
<text text-anchor="middle" x="68.5" y="-31.5" font-family="Helvetica,sans-Serif" font-size="10.00">DeviceInstance</text>
</a>
</g>
</g>
<!-- Node2 -->
<g id="node2" class="node">
<title>Node2</title>
<g id="a_node2"><a xlink:href="classtracktion__engine_1_1MidiOutputDeviceInstance.html" target="_top" xlink:title=" ">
<polygon fill="none" stroke="black" points="176,-49.5 176,-79.5 334,-79.5 334,-49.5 176,-49.5"/>
<text text-anchor="start" x="184" y="-67.5" font-family="Helvetica,sans-Serif" font-size="10.00">tracktion_engine::MidiOutput</text>
<text text-anchor="middle" x="255" y="-56.5" font-family="Helvetica,sans-Serif" font-size="10.00">DeviceInstance</text>
</a>
</g>
</g>
<!-- Node1&#45;&gt;Node2 -->
<g id="edge1" class="edge">
<title>Node1&#45;&gt;Node2</title>
<path fill="none" stroke="midnightblue" d="M147.27,-50.04C156.69,-51.31 166.31,-52.62 175.73,-53.89"/>
<polygon fill="midnightblue" stroke="midnightblue" points="147.53,-46.54 137.15,-48.67 146.59,-53.48 147.53,-46.54"/>
</g>
<!-- Node3 -->
<g id="node3" class="node">
<title>Node3</title>
<g id="a_node3"><a xlink:href="classtracktion__engine_1_1WaveOutputDeviceInstance.html" target="_top" xlink:title=" ">
<polygon fill="none" stroke="black" points="173,-0.5 173,-30.5 337,-30.5 337,-0.5 173,-0.5"/>
<text text-anchor="start" x="181" y="-18.5" font-family="Helvetica,sans-Serif" font-size="10.00">tracktion_engine::WaveOutput</text>
<text text-anchor="middle" x="255" y="-7.5" font-family="Helvetica,sans-Serif" font-size="10.00">DeviceInstance</text>
</a>
</g>
</g>
<!-- Node1&#45;&gt;Node3 -->
<g id="edge2" class="edge">
<title>Node1&#45;&gt;Node3</title>
<path fill="none" stroke="midnightblue" d="M147.07,-29.41C155.61,-28.3 164.31,-27.17 172.89,-26.05"/>
<polygon fill="midnightblue" stroke="midnightblue" points="146.62,-25.94 137.15,-30.7 147.52,-32.88 146.62,-25.94"/>
</g>
</g>
</svg>
