<?xml version="1.0" encoding="UTF-8" standalone="no"?>
<!DOCTYPE svg PUBLIC "-//W3C//DTD SVG 1.1//EN"
 "http://www.w3.org/Graphics/SVG/1.1/DTD/svg11.dtd">
<!-- Generated by graphviz version 2.43.0 (0)
 -->
<!-- Title: tracktion::engine::SelectableListener Pages: 1 -->
<svg width="297pt" height="235pt"
 viewBox="0.00 0.00 297.00 235.00" xmlns="http://www.w3.org/2000/svg" xmlns:xlink="http://www.w3.org/1999/xlink">
<g id="graph0" class="graph" transform="scale(1 1) rotate(0) translate(4 231)">
<title>tracktion::engine::SelectableListener</title>
<!-- Node1 -->
<g id="node1" class="node">
<title>Node1</title>
<g id="a_node1"><a xlink:title=" ">
<polygon fill="#bfbfbf" stroke="black" points="0,-98.5 0,-128.5 107,-128.5 107,-98.5 0,-98.5"/>
<text text-anchor="start" x="8" y="-116.5" font-family="Helvetica,sans-Serif" font-size="10.00">tracktion::engine::</text>
<text text-anchor="middle" x="53.5" y="-105.5" font-family="Helvetica,sans-Serif" font-size="10.00">SelectableListener</text>
</a>
</g>
</g>
<!-- Node2 -->
<g id="node2" class="node">
<title>Node2</title>
<g id="a_node2"><a xlink:href="classtracktion_1_1engine_1_1CurveEditor.html" target="_top" xlink:title=" ">
<polygon fill="none" stroke="black" points="163.5,-196.5 163.5,-226.5 268.5,-226.5 268.5,-196.5 163.5,-196.5"/>
<text text-anchor="start" x="171.5" y="-214.5" font-family="Helvetica,sans-Serif" font-size="10.00">tracktion::engine::</text>
<text text-anchor="middle" x="216" y="-203.5" font-family="Helvetica,sans-Serif" font-size="10.00">CurveEditor</text>
</a>
</g>
</g>
<!-- Node1&#45;&gt;Node2 -->
<g id="edge1" class="edge">
<title>Node1&#45;&gt;Node2</title>
<path fill="none" stroke="midnightblue" d="M76.36,-135.84C93.28,-152.06 117.98,-173.53 143,-187.5 149.33,-191.03 156.26,-194.15 163.25,-196.88"/>
<polygon fill="midnightblue" stroke="midnightblue" points="78.76,-133.29 69.16,-128.8 73.86,-138.29 78.76,-133.29"/>
</g>
<!-- Node3 -->
<g id="node3" class="node">
<title>Node3</title>
<g id="a_node3"><a xlink:href="classtracktion_1_1engine_1_1ExternalController.html" target="_top" xlink:title="Acts as a holder for a ControlSurface object.">
<polygon fill="none" stroke="black" points="163.5,-147.5 163.5,-177.5 268.5,-177.5 268.5,-147.5 163.5,-147.5"/>
<text text-anchor="start" x="171.5" y="-165.5" font-family="Helvetica,sans-Serif" font-size="10.00">tracktion::engine::</text>
<text text-anchor="middle" x="216" y="-154.5" font-family="Helvetica,sans-Serif" font-size="10.00">ExternalController</text>
</a>
</g>
</g>
<!-- Node1&#45;&gt;Node3 -->
<g id="edge2" class="edge">
<title>Node1&#45;&gt;Node3</title>
<path fill="none" stroke="#8b1a1a" d="M113.83,-131.61C130.89,-136.82 149.31,-142.45 165.7,-147.45"/>
<polygon fill="#8b1a1a" stroke="#8b1a1a" points="114.55,-128.17 103.96,-128.6 112.51,-134.87 114.55,-128.17"/>
</g>
<!-- Node4 -->
<g id="node4" class="node">
<title>Node4</title>
<g id="a_node4"><a xlink:href="classtracktion_1_1engine_1_1LambdaSelectableListener.html" target="_top" xlink:title="A SelectableListener that safely handles listener to a Selectable and uses a lambda for its callback.">
<polygon fill="none" stroke="black" points="143,-98.5 143,-128.5 289,-128.5 289,-98.5 143,-98.5"/>
<text text-anchor="start" x="151" y="-116.5" font-family="Helvetica,sans-Serif" font-size="10.00">tracktion::engine::</text>
<text text-anchor="middle" x="216" y="-105.5" font-family="Helvetica,sans-Serif" font-size="10.00">LambdaSelectableListener</text>
</a>
</g>
</g>
<!-- Node1&#45;&gt;Node4 -->
<g id="edge3" class="edge">
<title>Node1&#45;&gt;Node4</title>
<path fill="none" stroke="midnightblue" d="M117.15,-113.5C125.56,-113.5 134.24,-113.5 142.8,-113.5"/>
<polygon fill="midnightblue" stroke="midnightblue" points="117.05,-110 107.05,-113.5 117.05,-117 117.05,-110"/>
</g>
<!-- Node5 -->
<g id="node5" class="node">
<title>Node5</title>
<g id="a_node5"><a xlink:href="classtracktion_1_1engine_1_1Selectable_1_1Listener.html" target="_top" xlink:title=" ">
<polygon fill="none" stroke="black" points="159.5,-49.5 159.5,-79.5 272.5,-79.5 272.5,-49.5 159.5,-49.5"/>
<text text-anchor="start" x="167.5" y="-67.5" font-family="Helvetica,sans-Serif" font-size="10.00">tracktion::engine::</text>
<text text-anchor="middle" x="216" y="-56.5" font-family="Helvetica,sans-Serif" font-size="10.00">Selectable::Listener</text>
</a>
</g>
</g>
<!-- Node1&#45;&gt;Node5 -->
<g id="edge4" class="edge">
<title>Node1&#45;&gt;Node5</title>
<path fill="none" stroke="midnightblue" d="M113.83,-95.39C130.89,-90.18 149.31,-84.55 165.7,-79.55"/>
<polygon fill="midnightblue" stroke="midnightblue" points="112.51,-92.13 103.96,-98.4 114.55,-98.83 112.51,-92.13"/>
</g>
<!-- Node6 -->
<g id="node6" class="node">
<title>Node6</title>
<g id="a_node6"><a xlink:href="classtracktion_1_1engine_1_1SelectionManager.html" target="_top" xlink:title="Manages a list of items that are currently selected.">
<polygon fill="none" stroke="black" points="163.5,-0.5 163.5,-30.5 268.5,-30.5 268.5,-0.5 163.5,-0.5"/>
<text text-anchor="start" x="171.5" y="-18.5" font-family="Helvetica,sans-Serif" font-size="10.00">tracktion::engine::</text>
<text text-anchor="middle" x="216" y="-7.5" font-family="Helvetica,sans-Serif" font-size="10.00">SelectionManager</text>
</a>
</g>
</g>
<!-- Node1&#45;&gt;Node6 -->
<g id="edge5" class="edge">
<title>Node1&#45;&gt;Node6</title>
<path fill="none" stroke="#8b1a1a" d="M76.46,-91.57C93.44,-75.62 118.16,-54.46 143,-40.5 149.58,-36.81 156.79,-33.52 164.04,-30.64"/>
<polygon fill="#8b1a1a" stroke="#8b1a1a" points="74.04,-89.04 69.24,-98.49 78.88,-94.1 74.04,-89.04"/>
</g>
</g>
</svg>
