<?xml version="1.0" encoding="UTF-8" standalone="no"?>
<!DOCTYPE svg PUBLIC "-//W3C//DTD SVG 1.1//EN"
 "http://www.w3.org/Graphics/SVG/1.1/DTD/svg11.dtd">
<!-- Generated by graphviz version 2.43.0 (0)
 -->
<!-- Title: tracktion_engine::TrackItem Pages: 1 -->
<svg width="984pt" height="249pt"
 viewBox="0.00 0.00 984.00 248.50" xmlns="http://www.w3.org/2000/svg" xmlns:xlink="http://www.w3.org/1999/xlink">
<g id="graph0" class="graph" transform="scale(1 1) rotate(0) translate(4 244.5)">
<title>tracktion_engine::TrackItem</title>
<!-- Node1 -->
<g id="node1" class="node">
<title>Node1</title>
<g id="a_node1"><a xlink:title="Base class for EditItems that live in a Track, e.g.">
<polygon fill="#bfbfbf" stroke="black" points="191,-69 191,-88 343,-88 343,-69 191,-69"/>
<text text-anchor="middle" x="267" y="-76" font-family="Helvetica,sans-Serif" font-size="10.00">tracktion_engine::TrackItem</text>
</a>
</g>
</g>
<!-- Node4 -->
<g id="node4" class="node">
<title>Node4</title>
<g id="a_node4"><a xlink:href="classtracktion__engine_1_1Clip.html" target="_top" xlink:title="A clip in an edit.">
<polygon fill="none" stroke="black" points="403.5,-126 403.5,-145 526.5,-145 526.5,-126 403.5,-126"/>
<text text-anchor="middle" x="465" y="-133" font-family="Helvetica,sans-Serif" font-size="10.00">tracktion_engine::Clip</text>
</a>
</g>
</g>
<!-- Node1&#45;&gt;Node4 -->
<g id="edge3" class="edge">
<title>Node1&#45;&gt;Node4</title>
<path fill="none" stroke="midnightblue" d="M302.78,-91.51C324.5,-99.36 353.16,-109.21 379,-116.5 391.22,-119.95 404.58,-123.18 417,-125.96"/>
<polygon fill="midnightblue" stroke="midnightblue" points="303.91,-88.2 293.32,-88.06 301.52,-94.77 303.91,-88.2"/>
</g>
<!-- Node13 -->
<g id="node13" class="node">
<title>Node13</title>
<g id="a_node13"><a xlink:href="classtracktion__engine_1_1CollectionClip.html" target="_top" xlink:title=" ">
<polygon fill="none" stroke="black" points="379,-88 379,-107 551,-107 551,-88 379,-88"/>
<text text-anchor="middle" x="465" y="-95" font-family="Helvetica,sans-Serif" font-size="10.00">tracktion_engine::CollectionClip</text>
</a>
</g>
</g>
<!-- Node1&#45;&gt;Node13 -->
<g id="edge12" class="edge">
<title>Node1&#45;&gt;Node13</title>
<path fill="none" stroke="midnightblue" d="M353.43,-86.78C361.86,-87.6 370.42,-88.43 378.85,-89.25"/>
<polygon fill="midnightblue" stroke="midnightblue" points="353.51,-83.27 343.22,-85.79 352.83,-90.24 353.51,-83.27"/>
</g>
<!-- Node14 -->
<g id="node14" class="node">
<title>Node14</title>
<g id="a_node14"><a xlink:href="classtracktion__engine_1_1PitchSetting.html" target="_top" xlink:title=" ">
<polygon fill="none" stroke="black" points="383.5,-50 383.5,-69 546.5,-69 546.5,-50 383.5,-50"/>
<text text-anchor="middle" x="465" y="-57" font-family="Helvetica,sans-Serif" font-size="10.00">tracktion_engine::PitchSetting</text>
</a>
</g>
</g>
<!-- Node1&#45;&gt;Node14 -->
<g id="edge13" class="edge">
<title>Node1&#45;&gt;Node14</title>
<path fill="none" stroke="midnightblue" d="M353.19,-70.24C363.24,-69.27 373.47,-68.28 383.45,-67.31"/>
<polygon fill="midnightblue" stroke="midnightblue" points="352.83,-66.76 343.22,-71.21 353.51,-73.73 352.83,-66.76"/>
</g>
<!-- Node15 -->
<g id="node15" class="node">
<title>Node15</title>
<g id="a_node15"><a xlink:href="classtracktion__engine_1_1TimeSigSetting.html" target="_top" xlink:title=" ">
<polygon fill="none" stroke="black" points="393,-0.5 393,-30.5 537,-30.5 537,-0.5 393,-0.5"/>
<text text-anchor="start" x="401" y="-18.5" font-family="Helvetica,sans-Serif" font-size="10.00">tracktion_engine::TimeSig</text>
<text text-anchor="middle" x="465" y="-7.5" font-family="Helvetica,sans-Serif" font-size="10.00">Setting</text>
</a>
</g>
</g>
<!-- Node1&#45;&gt;Node15 -->
<g id="edge14" class="edge">
<title>Node1&#45;&gt;Node15</title>
<path fill="none" stroke="midnightblue" d="M304.26,-65.64C325.88,-58.08 353.92,-48.48 379,-40.5 389.41,-37.19 400.58,-33.79 411.29,-30.61"/>
<polygon fill="midnightblue" stroke="midnightblue" points="303.08,-62.34 294.81,-68.95 305.4,-68.95 303.08,-62.34"/>
</g>
<!-- Node2 -->
<g id="node2" class="node">
<title>Node2</title>
<g id="a_node2"><a xlink:href="classtracktion__engine_1_1EditItem.html" target="_top" xlink:title="Base class for objects that live inside an edit &#45; e.g.">
<polygon fill="none" stroke="black" points="4.5,-88 4.5,-107 150.5,-107 150.5,-88 4.5,-88"/>
<text text-anchor="middle" x="77.5" y="-95" font-family="Helvetica,sans-Serif" font-size="10.00">tracktion_engine::EditItem</text>
</a>
</g>
</g>
<!-- Node2&#45;&gt;Node1 -->
<g id="edge1" class="edge">
<title>Node2&#45;&gt;Node1</title>
<path fill="none" stroke="midnightblue" d="M160.96,-89.14C170.85,-88.14 180.92,-87.12 190.71,-86.13"/>
<polygon fill="midnightblue" stroke="midnightblue" points="160.32,-85.69 150.72,-90.18 161.03,-92.66 160.32,-85.69"/>
</g>
<!-- Node3 -->
<g id="node3" class="node">
<title>Node3</title>
<g id="a_node3"><a xlink:href="classtracktion__engine_1_1Selectable.html" target="_top" xlink:title="Base class for things that can be selected, and whose properties can appear in the properties panel.">
<polygon fill="none" stroke="black" points="0,-50 0,-69 155,-69 155,-50 0,-50"/>
<text text-anchor="middle" x="77.5" y="-57" font-family="Helvetica,sans-Serif" font-size="10.00">tracktion_engine::Selectable</text>
</a>
</g>
</g>
<!-- Node3&#45;&gt;Node1 -->
<g id="edge2" class="edge">
<title>Node3&#45;&gt;Node1</title>
<path fill="none" stroke="midnightblue" d="M165.1,-68.28C173.73,-69.15 182.43,-70.03 190.92,-70.89"/>
<polygon fill="midnightblue" stroke="midnightblue" points="165.34,-64.78 155.03,-67.26 164.63,-71.75 165.34,-64.78"/>
</g>
<!-- Node5 -->
<g id="node5" class="node">
<title>Node5</title>
<g id="a_node5"><a xlink:href="classtracktion__engine_1_1ArrangerClip.html" target="_top" xlink:title=" ">
<polygon fill="none" stroke="black" points="592,-221 592,-240 757,-240 757,-221 592,-221"/>
<text text-anchor="middle" x="674.5" y="-228" font-family="Helvetica,sans-Serif" font-size="10.00">tracktion_engine::ArrangerClip</text>
</a>
</g>
</g>
<!-- Node4&#45;&gt;Node5 -->
<g id="edge4" class="edge">
<title>Node4&#45;&gt;Node5</title>
<path fill="none" stroke="midnightblue" d="M486.3,-151.35C509.41,-168.64 548.93,-195.92 587,-211.5 596.39,-215.34 606.69,-218.47 616.8,-220.99"/>
<polygon fill="midnightblue" stroke="midnightblue" points="488.36,-148.52 478.28,-145.26 484.12,-154.09 488.36,-148.52"/>
</g>
<!-- Node6 -->
<g id="node6" class="node">
<title>Node6</title>
<g id="a_node6"><a xlink:href="classtracktion__engine_1_1AudioClipBase.html" target="_top" xlink:title="Base class for Clips that produce some kind of audio e.g.">
<polygon fill="none" stroke="black" points="587,-183 587,-202 762,-202 762,-183 587,-183"/>
<text text-anchor="middle" x="674.5" y="-190" font-family="Helvetica,sans-Serif" font-size="10.00">tracktion_engine::AudioClipBase</text>
</a>
</g>
</g>
<!-- Node4&#45;&gt;Node6 -->
<g id="edge5" class="edge">
<title>Node4&#45;&gt;Node6</title>
<path fill="none" stroke="midnightblue" d="M503.83,-148.32C527.56,-156.13 558.89,-166.01 587,-173.5 599.78,-176.9 613.73,-180.16 626.63,-182.99"/>
<polygon fill="midnightblue" stroke="midnightblue" points="504.75,-144.94 494.15,-145.12 502.55,-151.58 504.75,-144.94"/>
</g>
<!-- Node9 -->
<g id="node9" class="node">
<title>Node9</title>
<g id="a_node9"><a xlink:href="classtracktion__engine_1_1ChordClip.html" target="_top" xlink:title=" ">
<polygon fill="none" stroke="black" points="598.5,-145 598.5,-164 750.5,-164 750.5,-145 598.5,-145"/>
<text text-anchor="middle" x="674.5" y="-152" font-family="Helvetica,sans-Serif" font-size="10.00">tracktion_engine::ChordClip</text>
</a>
</g>
</g>
<!-- Node4&#45;&gt;Node9 -->
<g id="edge8" class="edge">
<title>Node4&#45;&gt;Node9</title>
<path fill="none" stroke="midnightblue" d="M536.79,-141.98C556.67,-143.8 578.35,-145.79 598.47,-147.63"/>
<polygon fill="midnightblue" stroke="midnightblue" points="536.85,-138.47 526.58,-141.05 536.21,-145.44 536.85,-138.47"/>
</g>
<!-- Node10 -->
<g id="node10" class="node">
<title>Node10</title>
<g id="a_node10"><a xlink:href="classtracktion__engine_1_1MarkerClip.html" target="_top" xlink:title=" ">
<polygon fill="none" stroke="black" points="596,-107 596,-126 753,-126 753,-107 596,-107"/>
<text text-anchor="middle" x="674.5" y="-114" font-family="Helvetica,sans-Serif" font-size="10.00">tracktion_engine::MarkerClip</text>
</a>
</g>
</g>
<!-- Node4&#45;&gt;Node10 -->
<g id="edge9" class="edge">
<title>Node4&#45;&gt;Node10</title>
<path fill="none" stroke="midnightblue" d="M536.67,-129.03C555.71,-127.29 576.42,-125.39 595.83,-123.61"/>
<polygon fill="midnightblue" stroke="midnightblue" points="536.21,-125.56 526.58,-129.95 536.85,-132.53 536.21,-125.56"/>
</g>
<!-- Node11 -->
<g id="node11" class="node">
<title>Node11</title>
<g id="a_node11"><a xlink:href="classtracktion__engine_1_1MidiClip.html" target="_top" xlink:title=" ">
<polygon fill="none" stroke="black" points="602.5,-69 602.5,-88 746.5,-88 746.5,-69 602.5,-69"/>
<text text-anchor="middle" x="674.5" y="-76" font-family="Helvetica,sans-Serif" font-size="10.00">tracktion_engine::MidiClip</text>
</a>
</g>
</g>
<!-- Node4&#45;&gt;Node11 -->
<g id="edge10" class="edge">
<title>Node4&#45;&gt;Node11</title>
<path fill="none" stroke="midnightblue" d="M528.47,-123.54C536.15,-121.49 543.82,-119.14 551,-116.5 567.98,-110.25 570.01,-103.72 587,-97.5 597.25,-93.75 608.47,-90.61 619.33,-88.05"/>
<polygon fill="midnightblue" stroke="midnightblue" points="527.61,-120.15 518.78,-125.99 529.33,-126.93 527.61,-120.15"/>
</g>
<!-- Node12 -->
<g id="node12" class="node">
<title>Node12</title>
<g id="a_node12"><a xlink:href="classtracktion__engine_1_1StepClip.html" target="_top" xlink:title=" ">
<polygon fill="none" stroke="black" points="602,-31 602,-50 747,-50 747,-31 602,-31"/>
<text text-anchor="middle" x="674.5" y="-38" font-family="Helvetica,sans-Serif" font-size="10.00">tracktion_engine::StepClip</text>
</a>
</g>
</g>
<!-- Node4&#45;&gt;Node12 -->
<g id="edge11" class="edge">
<title>Node4&#45;&gt;Node12</title>
<path fill="none" stroke="midnightblue" d="M536.2,-124.63C541.43,-122.39 546.44,-119.71 551,-116.5 575.5,-99.24 562.47,-76.71 587,-59.5 592.54,-55.61 598.73,-52.5 605.18,-50.01"/>
<polygon fill="midnightblue" stroke="midnightblue" points="534.74,-121.43 526.58,-128.19 537.17,-128 534.74,-121.43"/>
</g>
<!-- Node7 -->
<g id="node7" class="node">
<title>Node7</title>
<g id="a_node7"><a xlink:href="classtracktion__engine_1_1EditClip.html" target="_top" xlink:title="This is the main source of an Edit clip and is responsible for managing its properties and creating a...">
<polygon fill="none" stroke="black" points="816,-202 816,-221 958,-221 958,-202 816,-202"/>
<text text-anchor="middle" x="887" y="-209" font-family="Helvetica,sans-Serif" font-size="10.00">tracktion_engine::EditClip</text>
</a>
</g>
</g>
<!-- Node6&#45;&gt;Node7 -->
<g id="edge6" class="edge">
<title>Node6&#45;&gt;Node7</title>
<path fill="none" stroke="midnightblue" d="M772.17,-201.23C786.9,-202.55 801.84,-203.9 815.86,-205.17"/>
<polygon fill="midnightblue" stroke="midnightblue" points="772.3,-197.72 762.03,-200.31 771.67,-204.7 772.3,-197.72"/>
</g>
<!-- Node8 -->
<g id="node8" class="node">
<title>Node8</title>
<g id="a_node8"><a xlink:href="classtracktion__engine_1_1WaveAudioClip.html" target="_top" xlink:title=" ">
<polygon fill="none" stroke="black" points="798,-164 798,-183 976,-183 976,-164 798,-164"/>
<text text-anchor="middle" x="887" y="-171" font-family="Helvetica,sans-Serif" font-size="10.00">tracktion_engine::WaveAudioClip</text>
</a>
</g>
</g>
<!-- Node6&#45;&gt;Node8 -->
<g id="edge7" class="edge">
<title>Node6&#45;&gt;Node8</title>
<path fill="none" stroke="midnightblue" d="M772.04,-183.79C780.62,-183.01 789.27,-182.23 797.76,-181.46"/>
<polygon fill="midnightblue" stroke="midnightblue" points="771.67,-180.3 762.03,-184.69 772.3,-187.28 771.67,-180.3"/>
</g>
</g>
</svg>
