<?xml version="1.0" encoding="UTF-8" standalone="no"?>
<!DOCTYPE svg PUBLIC "-//W3C//DTD SVG 1.1//EN"
 "http://www.w3.org/Graphics/SVG/1.1/DTD/svg11.dtd">
<!-- Generated by graphviz version 2.43.0 (0)
 -->
<!-- Title: tracktion_engine::MidiOutputDevice Pages: 1 -->
<svg width="166pt" height="229pt"
 viewBox="0.00 0.00 166.00 229.00" xmlns="http://www.w3.org/2000/svg" xmlns:xlink="http://www.w3.org/1999/xlink">
<g id="graph0" class="graph" transform="scale(1 1) rotate(0) translate(4 225)">
<title>tracktion_engine::MidiOutputDevice</title>
<!-- Node1 -->
<g id="node1" class="node">
<title>Node1</title>
<g id="a_node1"><a xlink:title=" ">
<polygon fill="#bfbfbf" stroke="black" points="0,-67.5 0,-97.5 158,-97.5 158,-67.5 0,-67.5"/>
<text text-anchor="start" x="8" y="-85.5" font-family="Helvetica,sans-Serif" font-size="10.00">tracktion_engine::MidiOutput</text>
<text text-anchor="middle" x="79" y="-74.5" font-family="Helvetica,sans-Serif" font-size="10.00">Device</text>
</a>
</g>
</g>
<!-- Node4 -->
<g id="node4" class="node">
<title>Node4</title>
<g id="a_node4"><a xlink:href="classtracktion__engine_1_1SoftwareMidiOutputDevice.html" target="_top" xlink:title="Create a software midi port on macOS.">
<polygon fill="none" stroke="black" points="5.5,-0.5 5.5,-30.5 152.5,-30.5 152.5,-0.5 5.5,-0.5"/>
<text text-anchor="start" x="13.5" y="-18.5" font-family="Helvetica,sans-Serif" font-size="10.00">tracktion_engine::Software</text>
<text text-anchor="middle" x="79" y="-7.5" font-family="Helvetica,sans-Serif" font-size="10.00">MidiOutputDevice</text>
</a>
</g>
</g>
<!-- Node1&#45;&gt;Node4 -->
<g id="edge3" class="edge">
<title>Node1&#45;&gt;Node4</title>
<path fill="none" stroke="midnightblue" d="M79,-57.11C79,-48.15 79,-38.32 79,-30.58"/>
<polygon fill="midnightblue" stroke="midnightblue" points="75.5,-57.4 79,-67.4 82.5,-57.4 75.5,-57.4"/>
</g>
<!-- Node2 -->
<g id="node2" class="node">
<title>Node2</title>
<g id="a_node2"><a xlink:href="classtracktion__engine_1_1OutputDevice.html" target="_top" xlink:title="Base class for audio or midi output devices, to which a track&#39;s output can be sent.">
<polygon fill="none" stroke="black" points="10.5,-134.5 10.5,-164.5 147.5,-164.5 147.5,-134.5 10.5,-134.5"/>
<text text-anchor="start" x="18.5" y="-152.5" font-family="Helvetica,sans-Serif" font-size="10.00">tracktion_engine::Output</text>
<text text-anchor="middle" x="79" y="-141.5" font-family="Helvetica,sans-Serif" font-size="10.00">Device</text>
</a>
</g>
</g>
<!-- Node2&#45;&gt;Node1 -->
<g id="edge1" class="edge">
<title>Node2&#45;&gt;Node1</title>
<path fill="none" stroke="midnightblue" d="M79,-124.11C79,-115.15 79,-105.32 79,-97.58"/>
<polygon fill="midnightblue" stroke="midnightblue" points="75.5,-124.4 79,-134.4 82.5,-124.4 75.5,-124.4"/>
</g>
<!-- Node3 -->
<g id="node3" class="node">
<title>Node3</title>
<g id="a_node3"><a xlink:href="classtracktion__engine_1_1Selectable.html" target="_top" xlink:title="Base class for things that can be selected, and whose properties can appear in the properties panel.">
<polygon fill="none" stroke="black" points="1.5,-201.5 1.5,-220.5 156.5,-220.5 156.5,-201.5 1.5,-201.5"/>
<text text-anchor="middle" x="79" y="-208.5" font-family="Helvetica,sans-Serif" font-size="10.00">tracktion_engine::Selectable</text>
</a>
</g>
</g>
<!-- Node3&#45;&gt;Node2 -->
<g id="edge2" class="edge">
<title>Node3&#45;&gt;Node2</title>
<path fill="none" stroke="midnightblue" d="M79,-191.23C79,-182.59 79,-172.5 79,-164.52"/>
<polygon fill="midnightblue" stroke="midnightblue" points="75.5,-191.48 79,-201.48 82.5,-191.48 75.5,-191.48"/>
</g>
</g>
</svg>
