<?xml version="1.0" encoding="UTF-8" standalone="no"?>
<!DOCTYPE svg PUBLIC "-//W3C//DTD SVG 1.1//EN"
 "http://www.w3.org/Graphics/SVG/1.1/DTD/svg11.dtd">
<!-- Generated by graphviz version 2.43.0 (0)
 -->
<!-- Title: tracktion::engine::TracktionEngineNode Pages: 1 -->
<svg width="339pt" height="758pt"
 viewBox="0.00 0.00 339.00 758.00" xmlns="http://www.w3.org/2000/svg" xmlns:xlink="http://www.w3.org/1999/xlink">
<g id="graph0" class="graph" transform="scale(1 1) rotate(0) translate(4 754)">
<title>tracktion::engine::TracktionEngineNode</title>
<!-- Node1 -->
<g id="Node000001" class="node">
<title>Node1</title>
<g id="a_Node000001"><a xlink:title="Base class for Nodes that provides information about the current process call.">
<polygon fill="#999999" stroke="#666666" points="119,-390 0,-390 0,-360 119,-360 119,-390"/>
<text text-anchor="start" x="8" y="-378" font-family="Helvetica,sans-Serif" font-size="10.00">tracktion::engine::</text>
<text text-anchor="middle" x="59.5" y="-367" font-family="Helvetica,sans-Serif" font-size="10.00">TracktionEngineNode</text>
</a>
</g>
</g>
<!-- Node2 -->
<g id="Node000002" class="node">
<title>Node2</title>
<g id="a_Node000002"><a xlink:href="classtracktion_1_1engine_1_1ArrangerLauncherSwitchingNode.html" target="_top" xlink:title="A Node that switches between two of its inputs based on a flag.">
<polygon fill="white" stroke="#666666" points="331,-750 155,-750 155,-720 331,-720 331,-750"/>
<text text-anchor="start" x="163" y="-738" font-family="Helvetica,sans-Serif" font-size="10.00">tracktion::engine::</text>
<text text-anchor="middle" x="243" y="-727" font-family="Helvetica,sans-Serif" font-size="10.00">ArrangerLauncherSwitchingNode</text>
</a>
</g>
</g>
<!-- Node1&#45;&gt;Node2 -->
<g id="edge1_Node000001_Node000002" class="edge">
<title>Node1&#45;&gt;Node2</title>
<g id="a_edge1_Node000001_Node000002"><a xlink:title=" ">
<path fill="none" stroke="#63b8ff" d="M59.77,-400.38C59.41,-462.59 67.47,-623.91 155,-711 158.44,-714.43 162.33,-717.37 166.5,-719.91"/>
<polygon fill="#63b8ff" stroke="#63b8ff" points="63.27,-400.33 59.9,-390.28 56.27,-400.23 63.27,-400.33"/>
</a>
</g>
</g>
<!-- Node3 -->
<g id="Node000003" class="node">
<title>Node3</title>
<g id="a_Node000003"><a xlink:href="classtracktion_1_1engine_1_1CombiningNode.html" target="_top" xlink:title="An Node that mixes a sequence of clips of other nodes.">
<polygon fill="white" stroke="#666666" points="295.5,-702 190.5,-702 190.5,-672 295.5,-672 295.5,-702"/>
<text text-anchor="start" x="198.5" y="-690" font-family="Helvetica,sans-Serif" font-size="10.00">tracktion::engine::</text>
<text text-anchor="middle" x="243" y="-679" font-family="Helvetica,sans-Serif" font-size="10.00">CombiningNode</text>
</a>
</g>
</g>
<!-- Node1&#45;&gt;Node3 -->
<g id="edge2_Node000001_Node000003" class="edge">
<title>Node1&#45;&gt;Node3</title>
<g id="a_edge2_Node000001_Node000003"><a xlink:title=" ">
<path fill="none" stroke="#63b8ff" d="M61.16,-400.15C64.04,-455.87 78.94,-590.5 155,-663 164.64,-672.19 177.47,-677.92 190.31,-681.48"/>
<polygon fill="#63b8ff" stroke="#63b8ff" points="64.66,-399.94 60.74,-390.1 57.67,-400.24 64.66,-399.94"/>
</a>
</g>
</g>
<!-- Node4 -->
<g id="Node000004" class="node">
<title>Node4</title>
<g id="a_Node000004"><a xlink:href="classtracktion_1_1engine_1_1ContainerClipNode.html" target="_top" xlink:title=" ">
<polygon fill="white" stroke="#666666" points="297,-654 189,-654 189,-624 297,-624 297,-654"/>
<text text-anchor="start" x="197" y="-642" font-family="Helvetica,sans-Serif" font-size="10.00">tracktion::engine::</text>
<text text-anchor="middle" x="243" y="-631" font-family="Helvetica,sans-Serif" font-size="10.00">ContainerClipNode</text>
</a>
</g>
</g>
<!-- Node1&#45;&gt;Node4 -->
<g id="edge3_Node000001_Node000004" class="edge">
<title>Node1&#45;&gt;Node4</title>
<g id="a_edge3_Node000001_Node000004"><a xlink:title=" ">
<path fill="none" stroke="#63b8ff" d="M63.09,-400.31C69.48,-449.21 90.46,-556.96 155,-615 164.44,-623.49 176.61,-629.01 188.85,-632.58"/>
<polygon fill="#63b8ff" stroke="#63b8ff" points="66.55,-399.78 61.88,-390.27 59.61,-400.62 66.55,-399.78"/>
</a>
</g>
</g>
<!-- Node5 -->
<g id="Node000005" class="node">
<title>Node5</title>
<g id="a_Node000005"><a xlink:href="classtracktion_1_1engine_1_1DynamicOffsetNode.html" target="_top" xlink:title=" ">
<polygon fill="white" stroke="#666666" points="300.5,-606 185.5,-606 185.5,-576 300.5,-576 300.5,-606"/>
<text text-anchor="start" x="193.5" y="-594" font-family="Helvetica,sans-Serif" font-size="10.00">tracktion::engine::</text>
<text text-anchor="middle" x="243" y="-583" font-family="Helvetica,sans-Serif" font-size="10.00">DynamicOffsetNode</text>
</a>
</g>
</g>
<!-- Node1&#45;&gt;Node5 -->
<g id="edge4_Node000001_Node000005" class="edge">
<title>Node1&#45;&gt;Node5</title>
<g id="a_edge4_Node000001_Node000005"><a xlink:title=" ">
<path fill="none" stroke="#63b8ff" d="M65.77,-399.84C75.79,-440.9 101.55,-522.77 155,-567 163.69,-574.19 174.38,-579.24 185.24,-582.77"/>
<polygon fill="#63b8ff" stroke="#63b8ff" points="69.18,-399.04 63.5,-390.1 62.36,-400.63 69.18,-399.04"/>
</a>
</g>
</g>
<!-- Node6 -->
<g id="Node000006" class="node">
<title>Node6</title>
<g id="a_Node000006"><a xlink:href="classtracktion_1_1engine_1_1FadeInOutNode.html" target="_top" xlink:title="A Node that fades in and out given time regions.">
<polygon fill="white" stroke="#666666" points="295.5,-558 190.5,-558 190.5,-528 295.5,-528 295.5,-558"/>
<text text-anchor="start" x="198.5" y="-546" font-family="Helvetica,sans-Serif" font-size="10.00">tracktion::engine::</text>
<text text-anchor="middle" x="243" y="-535" font-family="Helvetica,sans-Serif" font-size="10.00">FadeInOutNode</text>
</a>
</g>
</g>
<!-- Node1&#45;&gt;Node6 -->
<g id="edge5_Node000001_Node000006" class="edge">
<title>Node1&#45;&gt;Node6</title>
<g id="a_edge5_Node000001_Node000006"><a xlink:title=" ">
<path fill="none" stroke="#63b8ff" d="M70.18,-399.84C84.06,-432.17 112.69,-488.18 155,-519 165.38,-526.57 178.04,-531.75 190.45,-535.29"/>
<polygon fill="#63b8ff" stroke="#63b8ff" points="73.26,-398.13 66.19,-390.24 66.79,-400.81 73.26,-398.13"/>
</a>
</g>
</g>
<!-- Node7 -->
<g id="Node000007" class="node">
<title>Node7</title>
<g id="a_Node000007"><a xlink:href="classtracktion_1_1engine_1_1HostedMidiInputDeviceNode.html" target="_top" xlink:title="A Node that intercepts MIDI from a plugin callback and inserts it in to the playback graph.">
<polygon fill="white" stroke="#666666" points="321,-510 165,-510 165,-480 321,-480 321,-510"/>
<text text-anchor="start" x="173" y="-498" font-family="Helvetica,sans-Serif" font-size="10.00">tracktion::engine::</text>
<text text-anchor="middle" x="243" y="-487" font-family="Helvetica,sans-Serif" font-size="10.00">HostedMidiInputDeviceNode</text>
</a>
</g>
</g>
<!-- Node1&#45;&gt;Node7 -->
<g id="edge6_Node000001_Node000007" class="edge">
<title>Node1&#45;&gt;Node7</title>
<g id="a_edge6_Node000001_Node000007"><a xlink:title=" ">
<path fill="none" stroke="#8b1a1a" d="M77.43,-398.19C94.6,-420.09 123.14,-452.28 155,-471 160.81,-474.41 167.12,-477.36 173.6,-479.89"/>
<polygon fill="#8b1a1a" stroke="#8b1a1a" points="80.07,-395.89 71.21,-390.07 74.51,-400.14 80.07,-395.89"/>
</a>
</g>
</g>
<!-- Node8 -->
<g id="Node000008" class="node">
<title>Node8</title>
<g id="a_Node000008"><a xlink:href="classtracktion_1_1engine_1_1LoopingMidiNode.html" target="_top" xlink:title="A Node that plays MIDI data from a MidiMessageSequence, at a specific MIDI channel.">
<polygon fill="white" stroke="#666666" points="295.5,-462 190.5,-462 190.5,-432 295.5,-432 295.5,-462"/>
<text text-anchor="start" x="198.5" y="-450" font-family="Helvetica,sans-Serif" font-size="10.00">tracktion::engine::</text>
<text text-anchor="middle" x="243" y="-439" font-family="Helvetica,sans-Serif" font-size="10.00">LoopingMidiNode</text>
</a>
</g>
</g>
<!-- Node1&#45;&gt;Node8 -->
<g id="edge7_Node000001_Node000008" class="edge">
<title>Node1&#45;&gt;Node8</title>
<g id="a_edge7_Node000001_Node000008"><a xlink:title=" ">
<path fill="none" stroke="#63b8ff" d="M95.94,-395.14C113.36,-404.48 134.88,-415.2 155,-423 166.25,-427.36 178.6,-431.27 190.38,-434.6"/>
<polygon fill="#63b8ff" stroke="#63b8ff" points="97.18,-391.83 86.73,-390.12 93.84,-397.98 97.18,-391.83"/>
</a>
</g>
</g>
<!-- Node9 -->
<g id="Node000009" class="node">
<title>Node9</title>
<g id="a_Node000009"><a xlink:href="classtracktion_1_1engine_1_1MidiNode.html" target="_top" xlink:title="A Node that plays MIDI data from a MidiMessageSequence, at a specific MIDI channel.">
<polygon fill="white" stroke="#666666" points="295.5,-414 190.5,-414 190.5,-384 295.5,-384 295.5,-414"/>
<text text-anchor="start" x="198.5" y="-402" font-family="Helvetica,sans-Serif" font-size="10.00">tracktion::engine::</text>
<text text-anchor="middle" x="243" y="-391" font-family="Helvetica,sans-Serif" font-size="10.00">MidiNode</text>
</a>
</g>
</g>
<!-- Node1&#45;&gt;Node9 -->
<g id="edge8_Node000001_Node000009" class="edge">
<title>Node1&#45;&gt;Node9</title>
<g id="a_edge8_Node000001_Node000009"><a xlink:title=" ">
<path fill="none" stroke="#63b8ff" d="M129.28,-384.09C149.51,-386.77 171.28,-389.65 190.25,-392.16"/>
<polygon fill="#63b8ff" stroke="#63b8ff" points="129.55,-380.6 119.18,-382.76 128.63,-387.54 129.55,-380.6"/>
</a>
</g>
</g>
<!-- Node10 -->
<g id="Node000010" class="node">
<title>Node10</title>
<g id="a_Node000010"><a xlink:href="classtracktion_1_1engine_1_1PlayHeadPositionNode.html" target="_top" xlink:title="A Node that calculates a position to show visually what time is currently being processed by the grap...">
<polygon fill="white" stroke="#666666" points="307,-366 179,-366 179,-336 307,-336 307,-366"/>
<text text-anchor="start" x="187" y="-354" font-family="Helvetica,sans-Serif" font-size="10.00">tracktion::engine::</text>
<text text-anchor="middle" x="243" y="-343" font-family="Helvetica,sans-Serif" font-size="10.00">PlayHeadPositionNode</text>
</a>
</g>
</g>
<!-- Node1&#45;&gt;Node10 -->
<g id="edge9_Node000001_Node000010" class="edge">
<title>Node1&#45;&gt;Node10</title>
<g id="a_edge9_Node000001_Node000010"><a xlink:title=" ">
<path fill="none" stroke="#63b8ff" d="M129.17,-365.92C145.47,-363.76 162.79,-361.47 178.83,-359.35"/>
<polygon fill="#63b8ff" stroke="#63b8ff" points="128.63,-362.46 119.18,-367.24 129.55,-369.4 128.63,-362.46"/>
</a>
</g>
</g>
<!-- Node11 -->
<g id="Node000011" class="node">
<title>Node11</title>
<g id="a_Node000011"><a xlink:href="classtracktion_1_1engine_1_1PluginNode.html" target="_top" xlink:title="Node for processing a plugin.">
<polygon fill="white" stroke="#666666" points="295.5,-318 190.5,-318 190.5,-288 295.5,-288 295.5,-318"/>
<text text-anchor="start" x="198.5" y="-306" font-family="Helvetica,sans-Serif" font-size="10.00">tracktion::engine::</text>
<text text-anchor="middle" x="243" y="-295" font-family="Helvetica,sans-Serif" font-size="10.00">PluginNode</text>
</a>
</g>
</g>
<!-- Node1&#45;&gt;Node11 -->
<g id="edge10_Node000001_Node000011" class="edge">
<title>Node1&#45;&gt;Node11</title>
<g id="a_edge10_Node000001_Node000011"><a xlink:title=" ">
<path fill="none" stroke="#63b8ff" d="M95.94,-354.86C113.36,-345.52 134.88,-334.8 155,-327 166.25,-322.64 178.6,-318.73 190.38,-315.4"/>
<polygon fill="#63b8ff" stroke="#63b8ff" points="93.84,-352.02 86.73,-359.88 97.18,-358.17 93.84,-352.02"/>
</a>
</g>
</g>
<!-- Node12 -->
<g id="Node000012" class="node">
<title>Node12</title>
<g id="a_Node000012"><a xlink:href="classtracktion_1_1engine_1_1SlotControlNode.html" target="_top" xlink:title=" ">
<polygon fill="white" stroke="#666666" points="295.5,-270 190.5,-270 190.5,-240 295.5,-240 295.5,-270"/>
<text text-anchor="start" x="198.5" y="-258" font-family="Helvetica,sans-Serif" font-size="10.00">tracktion::engine::</text>
<text text-anchor="middle" x="243" y="-247" font-family="Helvetica,sans-Serif" font-size="10.00">SlotControlNode</text>
</a>
</g>
</g>
<!-- Node1&#45;&gt;Node12 -->
<g id="edge11_Node000001_Node000012" class="edge">
<title>Node1&#45;&gt;Node12</title>
<g id="a_edge11_Node000001_Node000012"><a xlink:title=" ">
<path fill="none" stroke="#63b8ff" d="M77.43,-351.81C94.6,-329.91 123.14,-297.72 155,-279 165.67,-272.73 178.04,-268.04 190.05,-264.56"/>
<polygon fill="#63b8ff" stroke="#63b8ff" points="74.51,-349.86 71.21,-359.93 80.07,-354.11 74.51,-349.86"/>
</a>
</g>
</g>
<!-- Node13 -->
<g id="Node000013" class="node">
<title>Node13</title>
<g id="a_Node000013"><a xlink:href="classtracktion_1_1engine_1_1SpeedRampWaveNode.html" target="_top" xlink:title="An Node that plays back a wave file.">
<polygon fill="white" stroke="#666666" points="307,-222 179,-222 179,-192 307,-192 307,-222"/>
<text text-anchor="start" x="187" y="-210" font-family="Helvetica,sans-Serif" font-size="10.00">tracktion::engine::</text>
<text text-anchor="middle" x="243" y="-199" font-family="Helvetica,sans-Serif" font-size="10.00">SpeedRampWaveNode</text>
</a>
</g>
</g>
<!-- Node1&#45;&gt;Node13 -->
<g id="edge12_Node000001_Node000013" class="edge">
<title>Node1&#45;&gt;Node13</title>
<g id="a_edge12_Node000001_Node000013"><a xlink:title=" ">
<path fill="none" stroke="#63b8ff" d="M70.18,-350.16C84.06,-317.83 112.69,-261.82 155,-231 162.09,-225.83 170.24,-221.78 178.65,-218.6"/>
<polygon fill="#63b8ff" stroke="#63b8ff" points="66.79,-349.19 66.19,-359.76 73.26,-351.87 66.79,-349.19"/>
</a>
</g>
</g>
<!-- Node14 -->
<g id="Node000014" class="node">
<title>Node14</title>
<g id="a_Node000014"><a xlink:href="classtracktion_1_1engine_1_1TrackMidiInputDeviceNode.html" target="_top" xlink:title="A Node that takes MIDI from the output of a track and sends it to its corresponding InputDevice.">
<polygon fill="white" stroke="#666666" points="316.5,-174 169.5,-174 169.5,-144 316.5,-144 316.5,-174"/>
<text text-anchor="start" x="177.5" y="-162" font-family="Helvetica,sans-Serif" font-size="10.00">tracktion::engine::</text>
<text text-anchor="middle" x="243" y="-151" font-family="Helvetica,sans-Serif" font-size="10.00">TrackMidiInputDeviceNode</text>
</a>
</g>
</g>
<!-- Node1&#45;&gt;Node14 -->
<g id="edge13_Node000001_Node000014" class="edge">
<title>Node1&#45;&gt;Node14</title>
<g id="a_edge13_Node000001_Node000014"><a xlink:title=" ">
<path fill="none" stroke="#8b1a1a" d="M65.77,-350.16C75.79,-309.1 101.55,-227.23 155,-183 159.35,-179.4 164.19,-176.34 169.31,-173.74"/>
<polygon fill="#8b1a1a" stroke="#8b1a1a" points="62.36,-349.37 63.5,-359.9 69.18,-350.96 62.36,-349.37"/>
</a>
</g>
</g>
<!-- Node15 -->
<g id="Node000015" class="node">
<title>Node15</title>
<g id="a_Node000015"><a xlink:href="classtracktion_1_1engine_1_1TrackWaveInputDeviceNode.html" target="_top" xlink:title="A Node that takes audio from the output of a track and sends it to its corresponding InputDevice.">
<polygon fill="white" stroke="#666666" points="319.5,-126 166.5,-126 166.5,-96 319.5,-96 319.5,-126"/>
<text text-anchor="start" x="174.5" y="-114" font-family="Helvetica,sans-Serif" font-size="10.00">tracktion::engine::</text>
<text text-anchor="middle" x="243" y="-103" font-family="Helvetica,sans-Serif" font-size="10.00">TrackWaveInputDeviceNode</text>
</a>
</g>
</g>
<!-- Node1&#45;&gt;Node15 -->
<g id="edge14_Node000001_Node000015" class="edge">
<title>Node1&#45;&gt;Node15</title>
<g id="a_edge14_Node000001_Node000015"><a xlink:title=" ">
<path fill="none" stroke="#8b1a1a" d="M63.09,-349.69C69.48,-300.79 90.46,-193.04 155,-135 158.84,-131.54 163.14,-128.58 167.72,-126.04"/>
<polygon fill="#8b1a1a" stroke="#8b1a1a" points="59.61,-349.38 61.88,-359.73 66.55,-350.22 59.61,-349.38"/>
</a>
</g>
</g>
<!-- Node16 -->
<g id="Node000016" class="node">
<title>Node16</title>
<g id="a_Node000016"><a xlink:href="classtracktion_1_1engine_1_1WaveNode.html" target="_top" xlink:title="An Node that plays back a wave file.">
<polygon fill="white" stroke="#666666" points="295.5,-78 190.5,-78 190.5,-48 295.5,-48 295.5,-78"/>
<text text-anchor="start" x="198.5" y="-66" font-family="Helvetica,sans-Serif" font-size="10.00">tracktion::engine::</text>
<text text-anchor="middle" x="243" y="-55" font-family="Helvetica,sans-Serif" font-size="10.00">WaveNode</text>
</a>
</g>
</g>
<!-- Node1&#45;&gt;Node16 -->
<g id="edge15_Node000001_Node000016" class="edge">
<title>Node1&#45;&gt;Node16</title>
<g id="a_edge15_Node000001_Node000016"><a xlink:title=" ">
<path fill="none" stroke="#63b8ff" d="M61.16,-349.85C64.04,-294.13 78.94,-159.5 155,-87 164.64,-77.81 177.47,-72.08 190.31,-68.52"/>
<polygon fill="#63b8ff" stroke="#63b8ff" points="57.67,-349.76 60.74,-359.9 64.66,-350.06 57.67,-349.76"/>
</a>
</g>
</g>
<!-- Node17 -->
<g id="Node000017" class="node">
<title>Node17</title>
<g id="a_Node000017"><a xlink:href="classtracktion_1_1engine_1_1WaveNodeRealTime.html" target="_top" xlink:title="An Node that plays back a wave file.">
<polygon fill="white" stroke="#666666" points="301,-30 185,-30 185,0 301,0 301,-30"/>
<text text-anchor="start" x="193" y="-18" font-family="Helvetica,sans-Serif" font-size="10.00">tracktion::engine::</text>
<text text-anchor="middle" x="243" y="-7" font-family="Helvetica,sans-Serif" font-size="10.00">WaveNodeRealTime</text>
</a>
</g>
</g>
<!-- Node1&#45;&gt;Node17 -->
<g id="edge16_Node000001_Node000017" class="edge">
<title>Node1&#45;&gt;Node17</title>
<g id="a_edge16_Node000001_Node000017"><a xlink:title=" ">
<path fill="none" stroke="#63b8ff" d="M59.77,-349.62C59.41,-287.41 67.47,-126.09 155,-39 163.11,-30.93 173.67,-25.51 184.62,-21.89"/>
<polygon fill="#63b8ff" stroke="#63b8ff" points="56.27,-349.77 59.9,-359.72 63.27,-349.67 56.27,-349.77"/>
</a>
</g>
</g>
</g>
</svg>
