<?xml version="1.0" encoding="UTF-8" standalone="no"?>
<!DOCTYPE svg PUBLIC "-//W3C//DTD SVG 1.1//EN"
 "http://www.w3.org/Graphics/SVG/1.1/DTD/svg11.dtd">
<!-- Generated by graphviz version 2.43.0 (0)
 -->
<!-- Title: tracktion_engine::MidiInputDeviceNode Pages: 1 -->
<svg width="314pt" height="106pt"
 viewBox="0.00 0.00 314.00 106.00" xmlns="http://www.w3.org/2000/svg" xmlns:xlink="http://www.w3.org/1999/xlink">
<g id="graph0" class="graph" transform="scale(1 1) rotate(0) translate(4 102)">
<title>tracktion_engine::MidiInputDeviceNode</title>
<!-- Node1 -->
<g id="node1" class="node">
<title>Node1</title>
<g id="a_node1"><a xlink:title="A Node that intercepts incoming live MIDI and inserts it in to the playback graph.">
<polygon fill="#bfbfbf" stroke="black" points="68.5,-0.5 68.5,-30.5 218.5,-30.5 218.5,-0.5 68.5,-0.5"/>
<text text-anchor="start" x="76.5" y="-18.5" font-family="Helvetica,sans-Serif" font-size="10.00">tracktion_engine::MidiInput</text>
<text text-anchor="middle" x="143.5" y="-7.5" font-family="Helvetica,sans-Serif" font-size="10.00">DeviceNode</text>
</a>
</g>
</g>
<!-- Node2 -->
<g id="node2" class="node">
<title>Node2</title>
<g id="a_node2"><a xlink:href="classtracktion__graph_1_1Node.html" target="_top" xlink:title="Main graph Node processor class.">
<polygon fill="none" stroke="black" points="0,-73 0,-92 125,-92 125,-73 0,-73"/>
<text text-anchor="middle" x="62.5" y="-80" font-family="Helvetica,sans-Serif" font-size="10.00">tracktion_graph::Node</text>
</a>
</g>
</g>
<!-- Node2&#45;&gt;Node1 -->
<g id="edge1" class="edge">
<title>Node2&#45;&gt;Node1</title>
<path fill="none" stroke="midnightblue" d="M81.52,-66.24C94.96,-55.45 112.84,-41.1 125.94,-30.59"/>
<polygon fill="midnightblue" stroke="midnightblue" points="79.03,-63.75 73.42,-72.73 83.41,-69.2 79.03,-63.75"/>
</g>
<!-- Node3 -->
<g id="node3" class="node">
<title>Node3</title>
<g id="a_node3"><a xlink:href="structtracktion__engine_1_1InputDeviceInstance_1_1Consumer.html" target="_top" xlink:title="Base class for classes that want to listen to an InputDevice and get a callback for each block of inp...">
<polygon fill="none" stroke="black" points="143,-67.5 143,-97.5 306,-97.5 306,-67.5 143,-67.5"/>
<text text-anchor="start" x="151" y="-85.5" font-family="Helvetica,sans-Serif" font-size="10.00">tracktion_engine::InputDevice</text>
<text text-anchor="middle" x="224.5" y="-74.5" font-family="Helvetica,sans-Serif" font-size="10.00">Instance::Consumer</text>
</a>
</g>
</g>
<!-- Node3&#45;&gt;Node1 -->
<g id="edge2" class="edge">
<title>Node3&#45;&gt;Node1</title>
<path fill="none" stroke="midnightblue" d="M198.81,-60.88C186.5,-51.01 172.07,-39.43 161.04,-30.58"/>
<polygon fill="midnightblue" stroke="midnightblue" points="196.93,-63.87 206.92,-67.4 201.32,-58.41 196.93,-63.87"/>
</g>
</g>
</svg>
