<?xml version="1.0" encoding="UTF-8" standalone="no"?>
<!DOCTYPE svg PUBLIC "-//W3C//DTD SVG 1.1//EN"
 "http://www.w3.org/Graphics/SVG/1.1/DTD/svg11.dtd">
<!-- Generated by graphviz version 2.43.0 (0)
 -->
<!-- Title: tracktion_engine::EditRenderJob Pages: 1 -->
<svg width="181pt" height="162pt"
 viewBox="0.00 0.00 181.00 162.00" xmlns="http://www.w3.org/2000/svg" xmlns:xlink="http://www.w3.org/1999/xlink">
<g id="graph0" class="graph" transform="scale(1 1) rotate(0) translate(4 158)">
<title>tracktion_engine::EditRenderJob</title>
<!-- Node1 -->
<g id="node1" class="node">
<title>Node1</title>
<g id="a_node1"><a xlink:title=" ">
<polygon fill="#bfbfbf" stroke="black" points="0,-0.5 0,-19.5 173,-19.5 173,-0.5 0,-0.5"/>
<text text-anchor="middle" x="86.5" y="-7.5" font-family="Helvetica,sans-Serif" font-size="10.00">tracktion_engine::EditRenderJob</text>
</a>
</g>
</g>
<!-- Node2 -->
<g id="node2" class="node">
<title>Node2</title>
<g id="a_node2"><a xlink:href="classtracktion__engine_1_1RenderManager_1_1Job.html" target="_top" xlink:title="The base class that all generator jobs derive from.">
<polygon fill="none" stroke="black" points="17,-56.5 17,-86.5 156,-86.5 156,-56.5 17,-56.5"/>
<text text-anchor="start" x="25" y="-74.5" font-family="Helvetica,sans-Serif" font-size="10.00">tracktion_engine::Render</text>
<text text-anchor="middle" x="86.5" y="-63.5" font-family="Helvetica,sans-Serif" font-size="10.00">Manager::Job</text>
</a>
</g>
</g>
<!-- Node2&#45;&gt;Node1 -->
<g id="edge1" class="edge">
<title>Node2&#45;&gt;Node1</title>
<path fill="none" stroke="midnightblue" d="M86.5,-46.29C86.5,-36.86 86.5,-26.65 86.5,-19.66"/>
<polygon fill="midnightblue" stroke="midnightblue" points="83,-46.4 86.5,-56.4 90,-46.4 83,-46.4"/>
</g>
<!-- Node3 -->
<g id="node3" class="node">
<title>Node3</title>
<g id="a_node3"><a xlink:href="classtracktion__engine_1_1ThreadPoolJobWithProgress.html" target="_top" xlink:title=" ">
<polygon fill="none" stroke="black" points="17.5,-123.5 17.5,-153.5 155.5,-153.5 155.5,-123.5 17.5,-123.5"/>
<text text-anchor="start" x="25.5" y="-141.5" font-family="Helvetica,sans-Serif" font-size="10.00">tracktion_engine::Thread</text>
<text text-anchor="middle" x="86.5" y="-130.5" font-family="Helvetica,sans-Serif" font-size="10.00">PoolJobWithProgress</text>
</a>
</g>
</g>
<!-- Node3&#45;&gt;Node2 -->
<g id="edge2" class="edge">
<title>Node3&#45;&gt;Node2</title>
<path fill="none" stroke="midnightblue" d="M86.5,-113.11C86.5,-104.15 86.5,-94.32 86.5,-86.58"/>
<polygon fill="midnightblue" stroke="midnightblue" points="83,-113.4 86.5,-123.4 90,-113.4 83,-113.4"/>
</g>
</g>
</svg>
