<?xml version="1.0" encoding="UTF-8" standalone="no"?>
<!DOCTYPE svg PUBLIC "-//W3C//DTD SVG 1.1//EN"
 "http://www.w3.org/Graphics/SVG/1.1/DTD/svg11.dtd">
<!-- Generated by graphviz version 2.43.0 (0)
 -->
<!-- Title: tracktion_engine::TracktionEngineNode Pages: 1 -->
<svg width="375pt" height="252pt"
 viewBox="0.00 0.00 375.00 252.00" xmlns="http://www.w3.org/2000/svg" xmlns:xlink="http://www.w3.org/1999/xlink">
<g id="graph0" class="graph" transform="scale(1 1) rotate(0) translate(4 248)">
<title>tracktion_engine::TracktionEngineNode</title>
<!-- Node1 -->
<g id="node1" class="node">
<title>Node1</title>
<g id="a_node1"><a xlink:title="Base class for Nodes that provides information about the current process call.">
<polygon fill="#bfbfbf" stroke="black" points="0,-112 0,-142 149,-142 149,-112 0,-112"/>
<text text-anchor="start" x="8" y="-130" font-family="Helvetica,sans-Serif" font-size="10.00">tracktion_engine::Tracktion</text>
<text text-anchor="middle" x="74.5" y="-119" font-family="Helvetica,sans-Serif" font-size="10.00">EngineNode</text>
</a>
</g>
</g>
<!-- Node2 -->
<g id="node2" class="node">
<title>Node2</title>
<g id="a_node2"><a xlink:href="classtracktion__engine_1_1CombiningNode.html" target="_top" xlink:title="An Node that mixes a sequence of clips of other nodes.">
<polygon fill="none" stroke="black" points="185,-224.5 185,-243.5 367,-243.5 367,-224.5 185,-224.5"/>
<text text-anchor="middle" x="276" y="-231.5" font-family="Helvetica,sans-Serif" font-size="10.00">tracktion_engine::CombiningNode</text>
</a>
</g>
</g>
<!-- Node1&#45;&gt;Node2 -->
<g id="edge1" class="edge">
<title>Node1&#45;&gt;Node2</title>
<path fill="none" stroke="midnightblue" d="M96.81,-149.31C117.45,-169.57 150.6,-198.7 185,-215 193.23,-218.9 202.25,-222 211.31,-224.47"/>
<polygon fill="midnightblue" stroke="midnightblue" points="99.08,-146.63 89.53,-142.03 94.12,-151.57 99.08,-146.63"/>
</g>
<!-- Node3 -->
<g id="node3" class="node">
<title>Node3</title>
<g id="a_node3"><a xlink:href="classtracktion__engine_1_1MidiNode.html" target="_top" xlink:title="A Node that plays MIDI data from a MidiMessageSequence, at a specific MIDI channel.">
<polygon fill="none" stroke="black" points="200.5,-186.5 200.5,-205.5 351.5,-205.5 351.5,-186.5 200.5,-186.5"/>
<text text-anchor="middle" x="276" y="-193.5" font-family="Helvetica,sans-Serif" font-size="10.00">tracktion_engine::MidiNode</text>
</a>
</g>
</g>
<!-- Node1&#45;&gt;Node3 -->
<g id="edge2" class="edge">
<title>Node1&#45;&gt;Node3</title>
<path fill="none" stroke="midnightblue" d="M113.18,-146.7C133.92,-156.91 160.39,-168.89 185,-177 196.22,-180.7 208.48,-183.84 220.23,-186.45"/>
<polygon fill="midnightblue" stroke="midnightblue" points="114.59,-143.49 104.08,-142.16 111.46,-149.76 114.59,-143.49"/>
</g>
<!-- Node4 -->
<g id="node4" class="node">
<title>Node4</title>
<g id="a_node4"><a xlink:href="classtracktion__engine_1_1PlayHeadPositionNode.html" target="_top" xlink:title="A Node that calculates a position to show visually what time is currently being processed by the grap...">
<polygon fill="none" stroke="black" points="200.5,-137 200.5,-167 351.5,-167 351.5,-137 200.5,-137"/>
<text text-anchor="start" x="208.5" y="-155" font-family="Helvetica,sans-Serif" font-size="10.00">tracktion_engine::PlayHead</text>
<text text-anchor="middle" x="276" y="-144" font-family="Helvetica,sans-Serif" font-size="10.00">PositionNode</text>
</a>
</g>
</g>
<!-- Node1&#45;&gt;Node4 -->
<g id="edge3" class="edge">
<title>Node1&#45;&gt;Node4</title>
<path fill="none" stroke="midnightblue" d="M159.48,-137.52C173.01,-139.22 186.95,-140.97 200.25,-142.63"/>
<polygon fill="midnightblue" stroke="midnightblue" points="159.58,-134.01 149.22,-136.24 158.71,-140.95 159.58,-134.01"/>
</g>
<!-- Node5 -->
<g id="node5" class="node">
<title>Node5</title>
<g id="a_node5"><a xlink:href="classtracktion__engine_1_1SpeedRampWaveNode.html" target="_top" xlink:title="An Node that plays back a wave file.">
<polygon fill="none" stroke="black" points="194.5,-88 194.5,-118 357.5,-118 357.5,-88 194.5,-88"/>
<text text-anchor="start" x="202.5" y="-106" font-family="Helvetica,sans-Serif" font-size="10.00">tracktion_engine::SpeedRamp</text>
<text text-anchor="middle" x="276" y="-95" font-family="Helvetica,sans-Serif" font-size="10.00">WaveNode</text>
</a>
</g>
</g>
<!-- Node1&#45;&gt;Node5 -->
<g id="edge4" class="edge">
<title>Node1&#45;&gt;Node5</title>
<path fill="none" stroke="midnightblue" d="M159.29,-116.92C170.85,-115.53 182.7,-114.1 194.2,-112.72"/>
<polygon fill="midnightblue" stroke="midnightblue" points="158.73,-113.46 149.22,-118.13 159.57,-120.41 158.73,-113.46"/>
</g>
<!-- Node6 -->
<g id="node6" class="node">
<title>Node6</title>
<g id="a_node6"><a xlink:href="classtracktion__engine_1_1TrackMidiInputDeviceNode.html" target="_top" xlink:title="A Node that takes MIDI from the output of a track and sends it to its corresponding InputDevice.">
<polygon fill="none" stroke="black" points="200.5,-39 200.5,-69 351.5,-69 351.5,-39 200.5,-39"/>
<text text-anchor="start" x="208.5" y="-57" font-family="Helvetica,sans-Serif" font-size="10.00">tracktion_engine::TrackMidi</text>
<text text-anchor="middle" x="276" y="-46" font-family="Helvetica,sans-Serif" font-size="10.00">InputDeviceNode</text>
</a>
</g>
</g>
<!-- Node1&#45;&gt;Node6 -->
<g id="edge5" class="edge">
<title>Node1&#45;&gt;Node6</title>
<path fill="none" stroke="#8b1a1a" d="M115.95,-107.62C136.38,-98.26 161.7,-87.29 185,-79 194.93,-75.46 205.62,-72.11 216.04,-69.08"/>
<polygon fill="#8b1a1a" stroke="#8b1a1a" points="114.25,-104.55 106.65,-111.93 117.19,-110.91 114.25,-104.55"/>
</g>
<!-- Node7 -->
<g id="node7" class="node">
<title>Node7</title>
<g id="a_node7"><a xlink:href="classtracktion__engine_1_1WaveNode.html" target="_top" xlink:title="An Node that plays back a wave file.">
<polygon fill="none" stroke="black" points="197.5,-0.5 197.5,-19.5 354.5,-19.5 354.5,-0.5 197.5,-0.5"/>
<text text-anchor="middle" x="276" y="-7.5" font-family="Helvetica,sans-Serif" font-size="10.00">tracktion_engine::WaveNode</text>
</a>
</g>
</g>
<!-- Node1&#45;&gt;Node7 -->
<g id="edge6" class="edge">
<title>Node1&#45;&gt;Node7</title>
<path fill="none" stroke="midnightblue" d="M94.76,-104.23C114.95,-81.87 148.73,-48.5 185,-30 193.55,-25.64 203.04,-22.22 212.56,-19.54"/>
<polygon fill="midnightblue" stroke="midnightblue" points="91.96,-102.11 87.96,-111.92 97.2,-106.75 91.96,-102.11"/>
</g>
</g>
</svg>
