<?xml version="1.0" encoding="UTF-8" standalone="no"?>
<!DOCTYPE svg PUBLIC "-//W3C//DTD SVG 1.1//EN"
 "http://www.w3.org/Graphics/SVG/1.1/DTD/svg11.dtd">
<!-- Generated by graphviz version 2.40.1 (20161225.0304)
 -->
<!-- Title: tracktion_engine::Plugin Pages: 1 -->
<svg width="692pt" height="1224pt"
 viewBox="0.00 0.00 692.00 1224.00" xmlns="http://www.w3.org/2000/svg" xmlns:xlink="http://www.w3.org/1999/xlink">
<g id="graph0" class="graph" transform="scale(1 1) rotate(0) translate(4 1220)">
<title>tracktion_engine::Plugin</title>
<!-- Node0 -->
<g id="node1" class="node">
<title>Node0</title>
<polygon fill="#bfbfbf" stroke="#000000" points="369,-588 369,-607 490,-607 490,-588 369,-588"/>
<text text-anchor="middle" x="429.5" y="-595" font-family="Helvetica,sans-Serif" font-size="10.00" fill="#000000">tracktion_engine::Plugin</text>
</g>
<!-- Node7 -->
<g id="node8" class="node">
<title>Node7</title>
<g id="a_node8"><a xlink:href="classtracktion__engine_1_1AirWindowsPlugin.html" target="_top" xlink:title="tracktion_engine::AirWindows\lPlugin">
<polygon fill="none" stroke="#000000" points="532,-1185.5 532,-1215.5 678,-1215.5 678,-1185.5 532,-1185.5"/>
<text text-anchor="start" x="540" y="-1203.5" font-family="Helvetica,sans-Serif" font-size="10.00" fill="#000000">tracktion_engine::AirWindows</text>
<text text-anchor="middle" x="605" y="-1192.5" font-family="Helvetica,sans-Serif" font-size="10.00" fill="#000000">Plugin</text>
</a>
</g>
</g>
<!-- Node0&#45;&gt;Node7 -->
<g id="edge7" class="edge">
<title>Node0&#45;&gt;Node7</title>
<path fill="none" stroke="#191970" d="M430.0798,-617.2686C433.1553,-708.7722 450.4006,-1090.392 526,-1176.5 529.0263,-1179.947 532.5304,-1182.9072 536.3456,-1185.4485"/>
<polygon fill="#191970" stroke="#191970" points="433.5747,-617.0498 429.7595,-607.1658 426.5783,-617.2717 433.5747,-617.0498"/>
</g>
<!-- Node8 -->
<g id="node9" class="node">
<title>Node8</title>
<g id="a_node9"><a xlink:href="classtracktion__engine_1_1AuxReturnPlugin.html" target="_top" xlink:title="tracktion_engine::AuxReturn\lPlugin">
<polygon fill="none" stroke="#000000" points="535,-1136.5 535,-1166.5 675,-1166.5 675,-1136.5 535,-1136.5"/>
<text text-anchor="start" x="543" y="-1154.5" font-family="Helvetica,sans-Serif" font-size="10.00" fill="#000000">tracktion_engine::AuxReturn</text>
<text text-anchor="middle" x="605" y="-1143.5" font-family="Helvetica,sans-Serif" font-size="10.00" fill="#000000">Plugin</text>
</a>
</g>
</g>
<!-- Node0&#45;&gt;Node8 -->
<g id="edge8" class="edge">
<title>Node0&#45;&gt;Node8</title>
<path fill="none" stroke="#191970" d="M430.4105,-617.2234C434.7962,-703.8204 456.4692,-1049.4883 526,-1127.5 529.052,-1130.9242 532.5754,-1133.8674 536.4046,-1136.3963"/>
<polygon fill="#191970" stroke="#191970" points="433.9035,-616.9917 429.9216,-607.1737 426.9118,-617.332 433.9035,-616.9917"/>
</g>
<!-- Node9 -->
<g id="node10" class="node">
<title>Node9</title>
<g id="a_node10"><a xlink:href="classtracktion__engine_1_1AuxSendPlugin.html" target="_top" xlink:title="tracktion_engine::AuxSend\lPlugin">
<polygon fill="none" stroke="#000000" points="538,-1087.5 538,-1117.5 672,-1117.5 672,-1087.5 538,-1087.5"/>
<text text-anchor="start" x="546" y="-1105.5" font-family="Helvetica,sans-Serif" font-size="10.00" fill="#000000">tracktion_engine::AuxSend</text>
<text text-anchor="middle" x="605" y="-1094.5" font-family="Helvetica,sans-Serif" font-size="10.00" fill="#000000">Plugin</text>
</a>
</g>
</g>
<!-- Node0&#45;&gt;Node9 -->
<g id="edge9" class="edge">
<title>Node0&#45;&gt;Node9</title>
<path fill="none" stroke="#191970" d="M430.8237,-617.4342C436.648,-699.2978 462.5818,-1008.6155 526,-1078.5 529.4678,-1082.3214 533.5226,-1085.5427 537.9306,-1088.257"/>
<polygon fill="#191970" stroke="#191970" points="434.2881,-616.7974 430.1082,-607.062 427.3047,-617.2792 434.2881,-616.7974"/>
</g>
<!-- Node10 -->
<g id="node11" class="node">
<title>Node10</title>
<g id="a_node11"><a xlink:href="classtracktion__engine_1_1ChorusPlugin.html" target="_top" xlink:title="tracktion_engine::Chorus\lPlugin">
<polygon fill="none" stroke="#000000" points="542.5,-1038.5 542.5,-1068.5 667.5,-1068.5 667.5,-1038.5 542.5,-1038.5"/>
<text text-anchor="start" x="550.5" y="-1056.5" font-family="Helvetica,sans-Serif" font-size="10.00" fill="#000000">tracktion_engine::Chorus</text>
<text text-anchor="middle" x="605" y="-1045.5" font-family="Helvetica,sans-Serif" font-size="10.00" fill="#000000">Plugin</text>
</a>
</g>
</g>
<!-- Node0&#45;&gt;Node10 -->
<g id="edge10" class="edge">
<title>Node0&#45;&gt;Node10</title>
<path fill="none" stroke="#191970" d="M431.3057,-617.3396C438.6405,-693.7224 468.5871,-967.6009 526,-1029.5 530.5815,-1034.4395 536.1435,-1038.3742 542.1717,-1041.5066"/>
<polygon fill="#191970" stroke="#191970" points="434.7727,-616.8226 430.3542,-607.1931 427.8032,-617.4762 434.7727,-616.8226"/>
</g>
<!-- Node11 -->
<g id="node12" class="node">
<title>Node11</title>
<g id="a_node12"><a xlink:href="classtracktion__engine_1_1CompressorPlugin.html" target="_top" xlink:title="tracktion_engine::Compressor\lPlugin">
<polygon fill="none" stroke="#000000" points="531.5,-989.5 531.5,-1019.5 678.5,-1019.5 678.5,-989.5 531.5,-989.5"/>
<text text-anchor="start" x="539.5" y="-1007.5" font-family="Helvetica,sans-Serif" font-size="10.00" fill="#000000">tracktion_engine::Compressor</text>
<text text-anchor="middle" x="605" y="-996.5" font-family="Helvetica,sans-Serif" font-size="10.00" fill="#000000">Plugin</text>
</a>
</g>
</g>
<!-- Node0&#45;&gt;Node11 -->
<g id="edge11" class="edge">
<title>Node0&#45;&gt;Node11</title>
<path fill="none" stroke="#191970" d="M431.9419,-617.2475C441.0276,-687.7016 474.9993,-925.3955 526,-979.5 529.651,-983.3732 533.8968,-986.649 538.4894,-989.4192"/>
<polygon fill="#191970" stroke="#191970" points="435.3852,-616.5778 430.6573,-607.0964 428.4406,-617.4567 435.3852,-616.5778"/>
</g>
<!-- Node12 -->
<g id="node13" class="node">
<title>Node12</title>
<g id="a_node13"><a xlink:href="classtracktion__engine_1_1DelayPlugin.html" target="_top" xlink:title="tracktion_engine::DelayPlugin">
<polygon fill="none" stroke="#000000" points="532,-951 532,-970 678,-970 678,-951 532,-951"/>
<text text-anchor="middle" x="605" y="-958" font-family="Helvetica,sans-Serif" font-size="10.00" fill="#000000">tracktion_engine::DelayPlugin</text>
</a>
</g>
</g>
<!-- Node0&#45;&gt;Node12 -->
<g id="edge12" class="edge">
<title>Node0&#45;&gt;Node12</title>
<path fill="none" stroke="#191970" d="M432.3628,-617.0949C442.377,-683.0022 477.8567,-895.1276 526,-941.5 529.9623,-945.3166 534.5509,-948.4113 539.4829,-950.9154"/>
<polygon fill="#191970" stroke="#191970" points="435.8216,-616.5584 430.883,-607.185 428.8984,-617.5923 435.8216,-616.5584"/>
</g>
<!-- Node13 -->
<g id="node14" class="node">
<title>Node13</title>
<g id="a_node14"><a xlink:href="classtracktion__engine_1_1EqualiserPlugin.html" target="_top" xlink:title="tracktion_engine::Equaliser\lPlugin">
<polygon fill="none" stroke="#000000" points="538,-901.5 538,-931.5 672,-931.5 672,-901.5 538,-901.5"/>
<text text-anchor="start" x="546" y="-919.5" font-family="Helvetica,sans-Serif" font-size="10.00" fill="#000000">tracktion_engine::Equaliser</text>
<text text-anchor="middle" x="605" y="-908.5" font-family="Helvetica,sans-Serif" font-size="10.00" fill="#000000">Plugin</text>
</a>
</g>
</g>
<!-- Node0&#45;&gt;Node13 -->
<g id="edge13" class="edge">
<title>Node0&#45;&gt;Node13</title>
<path fill="none" stroke="#191970" d="M433.4818,-617.2358C445.8479,-676.7105 485.2142,-852.5703 526,-892.5 529.4825,-895.9094 533.4335,-898.8366 537.6671,-901.3494"/>
<polygon fill="#191970" stroke="#191970" points="436.8725,-616.347 431.4342,-607.2544 430.0153,-617.7538 436.8725,-616.347"/>
</g>
<!-- Node14 -->
<g id="node15" class="node">
<title>Node14</title>
<g id="a_node15"><a xlink:href="classtracktion__engine_1_1ExternalPlugin.html" target="_top" xlink:title="tracktion_engine::External\lPlugin">
<polygon fill="none" stroke="#000000" points="540,-852.5 540,-882.5 670,-882.5 670,-852.5 540,-852.5"/>
<text text-anchor="start" x="548" y="-870.5" font-family="Helvetica,sans-Serif" font-size="10.00" fill="#000000">tracktion_engine::External</text>
<text text-anchor="middle" x="605" y="-859.5" font-family="Helvetica,sans-Serif" font-size="10.00" fill="#000000">Plugin</text>
</a>
</g>
</g>
<!-- Node0&#45;&gt;Node14 -->
<g id="edge14" class="edge">
<title>Node0&#45;&gt;Node14</title>
<path fill="none" stroke="#191970" d="M431.4577,-617.1049C437.1385,-663.4342 457.8311,-780.5077 526,-843.5 530.1058,-847.294 534.7941,-850.489 539.7921,-853.1795"/>
<polygon fill="#191970" stroke="#191970" points="434.9349,-616.7046 430.3405,-607.1578 427.9786,-617.486 434.9349,-616.7046"/>
</g>
<!-- Node15 -->
<g id="node16" class="node">
<title>Node15</title>
<g id="a_node16"><a xlink:href="classtracktion__engine_1_1FourOscPlugin.html" target="_top" xlink:title="tracktion_engine::FourOsc\lPlugin">
<polygon fill="none" stroke="#000000" points="539.5,-803.5 539.5,-833.5 670.5,-833.5 670.5,-803.5 539.5,-803.5"/>
<text text-anchor="start" x="547.5" y="-821.5" font-family="Helvetica,sans-Serif" font-size="10.00" fill="#000000">tracktion_engine::FourOsc</text>
<text text-anchor="middle" x="605" y="-810.5" font-family="Helvetica,sans-Serif" font-size="10.00" fill="#000000">Plugin</text>
</a>
</g>
</g>
<!-- Node0&#45;&gt;Node15 -->
<g id="edge15" class="edge">
<title>Node0&#45;&gt;Node15</title>
<path fill="none" stroke="#191970" d="M433.6654,-617.4098C443.0055,-657.0844 469.3897,-746.3201 526,-794.5 530.0389,-797.9374 534.5606,-800.8826 539.3411,-803.4059"/>
<polygon fill="#191970" stroke="#191970" points="437.0256,-616.3979 431.4283,-607.4024 430.1942,-617.9251 437.0256,-616.3979"/>
</g>
<!-- Node16 -->
<g id="node17" class="node">
<title>Node16</title>
<g id="a_node17"><a xlink:href="classtracktion__engine_1_1FreezePointPlugin.html" target="_top" xlink:title="tracktion_engine::Freeze\lPointPlugin">
<polygon fill="none" stroke="#000000" points="543,-754.5 543,-784.5 667,-784.5 667,-754.5 543,-754.5"/>
<text text-anchor="start" x="551" y="-772.5" font-family="Helvetica,sans-Serif" font-size="10.00" fill="#000000">tracktion_engine::Freeze</text>
<text text-anchor="middle" x="605" y="-761.5" font-family="Helvetica,sans-Serif" font-size="10.00" fill="#000000">PointPlugin</text>
</a>
</g>
</g>
<!-- Node0&#45;&gt;Node16 -->
<g id="edge16" class="edge">
<title>Node0&#45;&gt;Node16</title>
<path fill="none" stroke="#191970" d="M436.781,-616.5173C449.8218,-648.0499 480.1587,-711.0856 526,-745.5 531.1585,-749.3726 536.9445,-752.6254 542.978,-755.3565"/>
<polygon fill="#191970" stroke="#191970" points="439.9858,-615.1049 433.0241,-607.1183 433.4858,-617.703 439.9858,-615.1049"/>
</g>
<!-- Node17 -->
<g id="node18" class="node">
<title>Node17</title>
<g id="a_node18"><a xlink:href="classtracktion__engine_1_1InsertPlugin.html" target="_top" xlink:title="tracktion_engine::Insert\lPlugin">
<polygon fill="none" stroke="#000000" points="545.5,-705.5 545.5,-735.5 664.5,-735.5 664.5,-705.5 545.5,-705.5"/>
<text text-anchor="start" x="553.5" y="-723.5" font-family="Helvetica,sans-Serif" font-size="10.00" fill="#000000">tracktion_engine::Insert</text>
<text text-anchor="middle" x="605" y="-712.5" font-family="Helvetica,sans-Serif" font-size="10.00" fill="#000000">Plugin</text>
</a>
</g>
</g>
<!-- Node0&#45;&gt;Node17 -->
<g id="edge17" class="edge">
<title>Node0&#45;&gt;Node17</title>
<path fill="none" stroke="#191970" d="M442.3813,-615.4487C459.196,-637.6133 490.6766,-675.0098 526,-696.5 532.0005,-700.1506 538.5982,-703.283 545.3447,-705.9618"/>
<polygon fill="#191970" stroke="#191970" points="445.061,-613.1862 436.2948,-607.2361 439.4372,-617.3542 445.061,-613.1862"/>
</g>
<!-- Node18 -->
<g id="node19" class="node">
<title>Node18</title>
<g id="a_node19"><a xlink:href="classtracktion__engine_1_1LatencyPlugin.html" target="_top" xlink:title="A test plugin that introduces latency to the incomming signal. ">
<polygon fill="none" stroke="#000000" points="541,-656.5 541,-686.5 669,-686.5 669,-656.5 541,-656.5"/>
<text text-anchor="start" x="549" y="-674.5" font-family="Helvetica,sans-Serif" font-size="10.00" fill="#000000">tracktion_engine::Latency</text>
<text text-anchor="middle" x="605" y="-663.5" font-family="Helvetica,sans-Serif" font-size="10.00" fill="#000000">Plugin</text>
</a>
</g>
</g>
<!-- Node0&#45;&gt;Node18 -->
<g id="edge18" class="edge">
<title>Node0&#45;&gt;Node18</title>
<path fill="none" stroke="#191970" d="M454.4925,-612.0645C473.6301,-622.8158 500.9178,-637.2925 526,-647.5 533.8334,-650.6879 542.2522,-653.6811 550.5705,-656.4001"/>
<polygon fill="#191970" stroke="#191970" points="456.2208,-609.0211 445.7978,-607.121 452.7609,-615.1063 456.2208,-609.0211"/>
</g>
<!-- Node19 -->
<g id="node20" class="node">
<title>Node19</title>
<g id="a_node20"><a xlink:href="classtracktion__engine_1_1LevelMeterPlugin.html" target="_top" xlink:title="tracktion_engine::LevelMeter\lPlugin">
<polygon fill="none" stroke="#000000" points="534,-607.5 534,-637.5 676,-637.5 676,-607.5 534,-607.5"/>
<text text-anchor="start" x="542" y="-625.5" font-family="Helvetica,sans-Serif" font-size="10.00" fill="#000000">tracktion_engine::LevelMeter</text>
<text text-anchor="middle" x="605" y="-614.5" font-family="Helvetica,sans-Serif" font-size="10.00" fill="#000000">Plugin</text>
</a>
</g>
</g>
<!-- Node0&#45;&gt;Node19 -->
<g id="edge19" class="edge">
<title>Node0&#45;&gt;Node19</title>
<path fill="none" stroke="#191970" d="M500.4201,-607.6026C511.4794,-609.178 522.9094,-610.8062 533.9712,-612.3819"/>
<polygon fill="#191970" stroke="#191970" points="500.7825,-604.119 490.3888,-606.1736 499.7953,-611.049 500.7825,-604.119"/>
</g>
<!-- Node20 -->
<g id="node21" class="node">
<title>Node20</title>
<g id="a_node21"><a xlink:href="classtracktion__engine_1_1LowPassPlugin.html" target="_top" xlink:title="tracktion_engine::LowPass\lPlugin">
<polygon fill="none" stroke="#000000" points="538,-558.5 538,-588.5 672,-588.5 672,-558.5 538,-558.5"/>
<text text-anchor="start" x="546" y="-576.5" font-family="Helvetica,sans-Serif" font-size="10.00" fill="#000000">tracktion_engine::LowPass</text>
<text text-anchor="middle" x="605" y="-565.5" font-family="Helvetica,sans-Serif" font-size="10.00" fill="#000000">Plugin</text>
</a>
</g>
</g>
<!-- Node0&#45;&gt;Node20 -->
<g id="edge20" class="edge">
<title>Node0&#45;&gt;Node20</title>
<path fill="none" stroke="#191970" d="M500.6108,-587.7754C512.9338,-586.0903 525.7112,-584.3429 537.9223,-582.673"/>
<polygon fill="#191970" stroke="#191970" points="499.8224,-584.3506 490.3888,-589.1733 500.7709,-591.2861 499.8224,-584.3506"/>
</g>
<!-- Node21 -->
<g id="node22" class="node">
<title>Node21</title>
<g id="a_node22"><a xlink:href="classtracktion__engine_1_1MidiModifierPlugin.html" target="_top" xlink:title="tracktion_engine::MidiModifier\lPlugin">
<polygon fill="none" stroke="#000000" points="532,-509.5 532,-539.5 678,-539.5 678,-509.5 532,-509.5"/>
<text text-anchor="start" x="540" y="-527.5" font-family="Helvetica,sans-Serif" font-size="10.00" fill="#000000">tracktion_engine::MidiModifier</text>
<text text-anchor="middle" x="605" y="-516.5" font-family="Helvetica,sans-Serif" font-size="10.00" fill="#000000">Plugin</text>
</a>
</g>
</g>
<!-- Node0&#45;&gt;Node21 -->
<g id="edge21" class="edge">
<title>Node0&#45;&gt;Node21</title>
<path fill="none" stroke="#191970" d="M455.1359,-582.928C474.2595,-572.4447 501.2445,-558.4564 526,-548.5 533.9794,-545.2908 542.558,-542.2675 551.0167,-539.5194"/>
<polygon fill="#191970" stroke="#191970" points="453.2115,-579.9931 446.1651,-587.9051 456.6075,-586.1142 453.2115,-579.9931"/>
</g>
<!-- Node22 -->
<g id="node23" class="node">
<title>Node22</title>
<g id="a_node23"><a xlink:href="classtracktion__engine_1_1MidiPatchBayPlugin.html" target="_top" xlink:title="tracktion_engine::MidiPatch\lBayPlugin">
<polygon fill="none" stroke="#000000" points="536.5,-460.5 536.5,-490.5 673.5,-490.5 673.5,-460.5 536.5,-460.5"/>
<text text-anchor="start" x="544.5" y="-478.5" font-family="Helvetica,sans-Serif" font-size="10.00" fill="#000000">tracktion_engine::MidiPatch</text>
<text text-anchor="middle" x="605" y="-467.5" font-family="Helvetica,sans-Serif" font-size="10.00" fill="#000000">BayPlugin</text>
</a>
</g>
</g>
<!-- Node0&#45;&gt;Node22 -->
<g id="edge22" class="edge">
<title>Node0&#45;&gt;Node22</title>
<path fill="none" stroke="#191970" d="M442.4225,-579.738C459.28,-557.8028 490.805,-520.7899 526,-499.5 531.6418,-496.0872 537.8068,-493.126 544.1249,-490.5642"/>
<polygon fill="#191970" stroke="#191970" points="439.5254,-577.7674 436.3188,-587.8654 445.1227,-581.971 439.5254,-577.7674"/>
</g>
<!-- Node23 -->
<g id="node24" class="node">
<title>Node23</title>
<g id="a_node24"><a xlink:href="classtracktion__engine_1_1PatchBayPlugin.html" target="_top" xlink:title="tracktion_engine::PatchBay\lPlugin">
<polygon fill="none" stroke="#000000" points="536.5,-411.5 536.5,-441.5 673.5,-441.5 673.5,-411.5 536.5,-411.5"/>
<text text-anchor="start" x="544.5" y="-429.5" font-family="Helvetica,sans-Serif" font-size="10.00" fill="#000000">tracktion_engine::PatchBay</text>
<text text-anchor="middle" x="605" y="-418.5" font-family="Helvetica,sans-Serif" font-size="10.00" fill="#000000">Plugin</text>
</a>
</g>
</g>
<!-- Node0&#45;&gt;Node23 -->
<g id="edge23" class="edge">
<title>Node0&#45;&gt;Node23</title>
<path fill="none" stroke="#191970" d="M436.8169,-578.6109C449.9104,-547.2909 480.3227,-484.6805 526,-450.5 530.5907,-447.0648 535.6755,-444.1171 540.9879,-441.5885"/>
<polygon fill="#191970" stroke="#191970" points="433.5459,-577.3637 433.0434,-587.9466 440.0359,-579.9869 433.5459,-577.3637"/>
</g>
<!-- Node24 -->
<g id="node25" class="node">
<title>Node24</title>
<g id="a_node25"><a xlink:href="classtracktion__engine_1_1PhaserPlugin.html" target="_top" xlink:title="tracktion_engine::Phaser\lPlugin">
<polygon fill="none" stroke="#000000" points="542.5,-362.5 542.5,-392.5 667.5,-392.5 667.5,-362.5 542.5,-362.5"/>
<text text-anchor="start" x="550.5" y="-380.5" font-family="Helvetica,sans-Serif" font-size="10.00" fill="#000000">tracktion_engine::Phaser</text>
<text text-anchor="middle" x="605" y="-369.5" font-family="Helvetica,sans-Serif" font-size="10.00" fill="#000000">Plugin</text>
</a>
</g>
</g>
<!-- Node0&#45;&gt;Node24 -->
<g id="edge24" class="edge">
<title>Node0&#45;&gt;Node24</title>
<path fill="none" stroke="#191970" d="M433.6964,-577.6897C443.0926,-538.2136 469.573,-449.426 526,-401.5 530.9164,-397.3243 536.5454,-393.875 542.4846,-391.0258"/>
<polygon fill="#191970" stroke="#191970" points="430.2366,-577.1213 431.4445,-587.6471 437.0642,-578.6654 430.2366,-577.1213"/>
</g>
<!-- Node25 -->
<g id="node26" class="node">
<title>Node25</title>
<g id="a_node26"><a xlink:href="classtracktion__engine_1_1PitchShiftPlugin.html" target="_top" xlink:title="tracktion_engine::PitchShift\lPlugin">
<polygon fill="none" stroke="#000000" points="536.5,-313.5 536.5,-343.5 673.5,-343.5 673.5,-313.5 536.5,-313.5"/>
<text text-anchor="start" x="544.5" y="-331.5" font-family="Helvetica,sans-Serif" font-size="10.00" fill="#000000">tracktion_engine::PitchShift</text>
<text text-anchor="middle" x="605" y="-320.5" font-family="Helvetica,sans-Serif" font-size="10.00" fill="#000000">Plugin</text>
</a>
</g>
</g>
<!-- Node0&#45;&gt;Node25 -->
<g id="edge25" class="edge">
<title>Node0&#45;&gt;Node25</title>
<path fill="none" stroke="#191970" d="M431.5202,-577.6795C437.3091,-531.3356 458.1714,-415.0907 526,-352.5 529.687,-349.0977 533.8426,-346.1771 538.2696,-343.6701"/>
<polygon fill="#191970" stroke="#191970" points="428.0126,-577.5477 430.3539,-587.8806 434.9673,-578.343 428.0126,-577.5477"/>
</g>
<!-- Node26 -->
<g id="node27" class="node">
<title>Node26</title>
<g id="a_node27"><a xlink:href="classtracktion__engine_1_1RackInstance.html" target="_top" xlink:title="tracktion_engine::RackInstance">
<polygon fill="none" stroke="#000000" points="527.5,-275 527.5,-294 682.5,-294 682.5,-275 527.5,-275"/>
<text text-anchor="middle" x="605" y="-282" font-family="Helvetica,sans-Serif" font-size="10.00" fill="#000000">tracktion_engine::RackInstance</text>
</a>
</g>
</g>
<!-- Node0&#45;&gt;Node26 -->
<g id="edge26" class="edge">
<title>Node0&#45;&gt;Node26</title>
<path fill="none" stroke="#191970" d="M433.3882,-577.7219C445.4859,-518.1362 484.1649,-342.0716 526,-303.5 530.1484,-299.6752 534.9291,-296.5818 540.0433,-294.0846"/>
<polygon fill="#191970" stroke="#191970" points="429.9171,-577.2308 431.3866,-587.7232 436.781,-578.6045 429.9171,-577.2308"/>
</g>
<!-- Node27 -->
<g id="node28" class="node">
<title>Node27</title>
<g id="a_node28"><a xlink:href="classtracktion__engine_1_1ReverbPlugin.html" target="_top" xlink:title="tracktion_engine::Reverb\lPlugin">
<polygon fill="none" stroke="#000000" points="542.5,-225.5 542.5,-255.5 667.5,-255.5 667.5,-225.5 542.5,-225.5"/>
<text text-anchor="start" x="550.5" y="-243.5" font-family="Helvetica,sans-Serif" font-size="10.00" fill="#000000">tracktion_engine::Reverb</text>
<text text-anchor="middle" x="605" y="-232.5" font-family="Helvetica,sans-Serif" font-size="10.00" fill="#000000">Plugin</text>
</a>
</g>
</g>
<!-- Node0&#45;&gt;Node27 -->
<g id="edge27" class="edge">
<title>Node0&#45;&gt;Node27</title>
<path fill="none" stroke="#191970" d="M432.7221,-577.8879C443.628,-513.7313 480.9959,-311.5796 526,-265.5 530.7241,-260.663 536.3765,-256.7593 542.4569,-253.6095"/>
<polygon fill="#191970" stroke="#191970" points="429.2472,-577.4473 431.0479,-587.888 436.1511,-578.6032 429.2472,-577.4473"/>
</g>
<!-- Node28 -->
<g id="node29" class="node">
<title>Node28</title>
<g id="a_node29"><a xlink:href="classtracktion__engine_1_1SamplerPlugin.html" target="_top" xlink:title="tracktion_engine::Sampler\lPlugin">
<polygon fill="none" stroke="#000000" points="540,-176.5 540,-206.5 670,-206.5 670,-176.5 540,-176.5"/>
<text text-anchor="start" x="548" y="-194.5" font-family="Helvetica,sans-Serif" font-size="10.00" fill="#000000">tracktion_engine::Sampler</text>
<text text-anchor="middle" x="605" y="-183.5" font-family="Helvetica,sans-Serif" font-size="10.00" fill="#000000">Plugin</text>
</a>
</g>
</g>
<!-- Node0&#45;&gt;Node28 -->
<g id="edge28" class="edge">
<title>Node0&#45;&gt;Node28</title>
<path fill="none" stroke="#191970" d="M431.9207,-577.7323C440.9336,-507.2093 474.6878,-269.3091 526,-215.5 529.9569,-211.3505 534.606,-207.9118 539.6344,-205.0631"/>
<polygon fill="#191970" stroke="#191970" points="428.418,-577.5358 430.6467,-587.8936 435.3636,-578.4067 428.418,-577.5358"/>
</g>
<!-- Node29 -->
<g id="node30" class="node">
<title>Node29</title>
<g id="a_node30"><a xlink:href="classtracktion__engine_1_1TextPlugin.html" target="_top" xlink:title="tracktion_engine::TextPlugin">
<polygon fill="none" stroke="#000000" points="535,-138 535,-157 675,-157 675,-138 535,-138"/>
<text text-anchor="middle" x="605" y="-145" font-family="Helvetica,sans-Serif" font-size="10.00" fill="#000000">tracktion_engine::TextPlugin</text>
</a>
</g>
</g>
<!-- Node0&#45;&gt;Node29 -->
<g id="edge29" class="edge">
<title>Node0&#45;&gt;Node29</title>
<path fill="none" stroke="#191970" d="M431.2043,-577.6026C438.1636,-501.0123 466.9046,-226.534 526,-166.5 529.7604,-162.6799 534.1451,-159.5752 538.8859,-157.0577"/>
<polygon fill="#191970" stroke="#191970" points="427.6991,-577.5078 430.3036,-587.7776 434.6719,-578.1252 427.6991,-577.5078"/>
</g>
<!-- Node30 -->
<g id="node31" class="node">
<title>Node30</title>
<g id="a_node31"><a xlink:href="classtracktion__engine_1_1ToneGeneratorPlugin.html" target="_top" xlink:title="tracktion_engine::ToneGenerator\lPlugin">
<polygon fill="none" stroke="#000000" points="526,-88.5 526,-118.5 684,-118.5 684,-88.5 526,-88.5"/>
<text text-anchor="start" x="534" y="-106.5" font-family="Helvetica,sans-Serif" font-size="10.00" fill="#000000">tracktion_engine::ToneGenerator</text>
<text text-anchor="middle" x="605" y="-95.5" font-family="Helvetica,sans-Serif" font-size="10.00" fill="#000000">Plugin</text>
</a>
</g>
</g>
<!-- Node0&#45;&gt;Node30 -->
<g id="edge30" class="edge">
<title>Node0&#45;&gt;Node30</title>
<path fill="none" stroke="#191970" d="M430.9585,-577.5602C437.2345,-497.0199 464.4607,-196.7666 526,-128.5 529.4675,-124.6534 533.5221,-121.3943 537.93,-118.6334"/>
<polygon fill="#191970" stroke="#191970" points="427.4486,-577.5593 430.183,-587.7952 434.4286,-578.0883 427.4486,-577.5593"/>
</g>
<!-- Node31 -->
<g id="node32" class="node">
<title>Node31</title>
<g id="a_node32"><a xlink:href="classtracktion__engine_1_1VCAPlugin.html" target="_top" xlink:title="The VCA plugin sits on a folder track to control the overall level of all the volume/pan plugins in i...">
<polygon fill="none" stroke="#000000" points="534,-50 534,-69 676,-69 676,-50 534,-50"/>
<text text-anchor="middle" x="605" y="-57" font-family="Helvetica,sans-Serif" font-size="10.00" fill="#000000">tracktion_engine::VCAPlugin</text>
</a>
</g>
</g>
<!-- Node0&#45;&gt;Node31 -->
<g id="edge31" class="edge">
<title>Node0&#45;&gt;Node31</title>
<path fill="none" stroke="#191970" d="M430.3767,-577.8216C434.5939,-492.154 455.5767,-152.6979 526,-78.5 529.5931,-74.7143 533.7978,-71.626 538.3623,-69.1127"/>
<polygon fill="#191970" stroke="#191970" points="426.8729,-577.8221 429.8983,-587.9758 433.8651,-578.1516 426.8729,-577.8221"/>
</g>
<!-- Node32 -->
<g id="node33" class="node">
<title>Node32</title>
<g id="a_node33"><a xlink:href="classtracktion__engine_1_1VolumeAndPanPlugin.html" target="_top" xlink:title="The built&#45;in Tracktion volume/pan plugin. ">
<polygon fill="none" stroke="#000000" points="541.5,-.5 541.5,-30.5 668.5,-30.5 668.5,-.5 541.5,-.5"/>
<text text-anchor="start" x="549.5" y="-18.5" font-family="Helvetica,sans-Serif" font-size="10.00" fill="#000000">tracktion_engine::Volume</text>
<text text-anchor="middle" x="605" y="-7.5" font-family="Helvetica,sans-Serif" font-size="10.00" fill="#000000">AndPanPlugin</text>
</a>
</g>
</g>
<!-- Node0&#45;&gt;Node32 -->
<g id="edge32" class="edge">
<title>Node0&#45;&gt;Node32</title>
<path fill="none" stroke="#191970" d="M430.2483,-577.6556C434.0098,-488.2157 453.6363,-123.3519 526,-40.5 530.2585,-35.6243 535.4608,-31.6903 541.1437,-28.5175"/>
<polygon fill="#191970" stroke="#191970" points="426.7458,-577.6501 429.842,-587.7824 433.7402,-577.9308 426.7458,-577.6501"/>
</g>
<!-- Node1 -->
<g id="node2" class="node">
<title>Node1</title>
<g id="a_node2"><a xlink:href="classtracktion__engine_1_1Selectable.html" target="_top" xlink:title="Base class for things that can be selected, and whose properties can appear in the properties panel...">
<polygon fill="none" stroke="#000000" points="180,-670 180,-689 320,-689 320,-670 180,-670"/>
<text text-anchor="middle" x="250" y="-677" font-family="Helvetica,sans-Serif" font-size="10.00" fill="#000000">tracktion_engine::Selectable</text>
</a>
</g>
</g>
<!-- Node1&#45;&gt;Node0 -->
<g id="edge1" class="edge">
<title>Node1&#45;&gt;Node0</title>
<path fill="none" stroke="#191970" d="M314.4735,-667.1314C320.8322,-665.2035 327.107,-663.0034 333,-660.5 366.147,-646.4189 400.3891,-620.9931 417.799,-607.1376"/>
<polygon fill="#191970" stroke="#191970" points="313.1382,-663.8708 304.4549,-669.9413 315.0286,-670.6107 313.1382,-663.8708"/>
</g>
<!-- Node2 -->
<g id="node3" class="node">
<title>Node2</title>
<g id="a_node3"><a xlink:href="classtracktion__engine_1_1Exportable.html" target="_top" xlink:title="An interface for objects within an edit that can be exported. ">
<polygon fill="none" stroke="#000000" points="180,-632 180,-651 320,-651 320,-632 180,-632"/>
<text text-anchor="middle" x="250" y="-639" font-family="Helvetica,sans-Serif" font-size="10.00" fill="#000000">tracktion_engine::Exportable</text>
</a>
</g>
</g>
<!-- Node2&#45;&gt;Node0 -->
<g id="edge2" class="edge">
<title>Node2&#45;&gt;Node0</title>
<path fill="none" stroke="#191970" d="M302.6315,-629.6894C312.7237,-627.3576 323.1984,-624.891 333,-622.5 353.1762,-617.5782 375.6409,-611.7775 393.8153,-607.0032"/>
<polygon fill="#191970" stroke="#191970" points="301.6688,-626.3193 292.7058,-631.9687 303.2355,-633.1418 301.6688,-626.3193"/>
</g>
<!-- Node3 -->
<g id="node4" class="node">
<title>Node3</title>
<g id="a_node4"><a xlink:href="classtracktion__engine_1_1AutomatableEditItem.html" target="_top" xlink:title="Base class for elements that have some kind of automatable parameters. ">
<polygon fill="none" stroke="#000000" points="175.5,-582.5 175.5,-612.5 324.5,-612.5 324.5,-582.5 175.5,-582.5"/>
<text text-anchor="start" x="183.5" y="-600.5" font-family="Helvetica,sans-Serif" font-size="10.00" fill="#000000">tracktion_engine::Automatable</text>
<text text-anchor="middle" x="250" y="-589.5" font-family="Helvetica,sans-Serif" font-size="10.00" fill="#000000">EditItem</text>
</a>
</g>
</g>
<!-- Node3&#45;&gt;Node0 -->
<g id="edge3" class="edge">
<title>Node3&#45;&gt;Node0</title>
<path fill="none" stroke="#191970" d="M334.649,-597.5C346.1791,-597.5 357.8218,-597.5 368.8126,-597.5"/>
<polygon fill="#191970" stroke="#191970" points="334.5648,-594.0001 324.5647,-597.5 334.5647,-601.0001 334.5648,-594.0001"/>
</g>
<!-- Node4 -->
<g id="node5" class="node">
<title>Node4</title>
<g id="a_node5"><a xlink:href="classtracktion__engine_1_1EditItem.html" target="_top" xlink:title="Base class for objects that live inside an edit &#45; e.g. ">
<polygon fill="none" stroke="#000000" points="0,-588 0,-607 131,-607 131,-588 0,-588"/>
<text text-anchor="middle" x="65.5" y="-595" font-family="Helvetica,sans-Serif" font-size="10.00" fill="#000000">tracktion_engine::EditItem</text>
</a>
</g>
</g>
<!-- Node4&#45;&gt;Node3 -->
<g id="edge4" class="edge">
<title>Node4&#45;&gt;Node3</title>
<path fill="none" stroke="#191970" d="M141.2516,-597.5C152.4657,-597.5 164.016,-597.5 175.2103,-597.5"/>
<polygon fill="#191970" stroke="#191970" points="141.0673,-594.0001 131.0673,-597.5 141.0673,-601.0001 141.0673,-594.0001"/>
</g>
<!-- Node5 -->
<g id="node6" class="node">
<title>Node5</title>
<g id="a_node6"><a xlink:href="classtracktion__engine_1_1MacroParameterElement.html" target="_top" xlink:title="Base class for elements which can contain macro parameters. ">
<polygon fill="none" stroke="#000000" points="167,-533.5 167,-563.5 333,-563.5 333,-533.5 167,-533.5"/>
<text text-anchor="start" x="175" y="-551.5" font-family="Helvetica,sans-Serif" font-size="10.00" fill="#000000">tracktion_engine::MacroParameter</text>
<text text-anchor="middle" x="250" y="-540.5" font-family="Helvetica,sans-Serif" font-size="10.00" fill="#000000">Element</text>
</a>
</g>
</g>
<!-- Node5&#45;&gt;Node0 -->
<g id="edge5" class="edge">
<title>Node5&#45;&gt;Node0</title>
<path fill="none" stroke="#191970" d="M315.0712,-566.2632C341.9853,-573.6102 372.1099,-581.8336 394.6919,-587.9981"/>
<polygon fill="#191970" stroke="#191970" points="315.8893,-562.8585 305.3206,-563.6014 314.0459,-569.6114 315.8893,-562.8585"/>
</g>
<!-- Node6 -->
<g id="node7" class="node">
<title>Node6</title>
<g id="a_node7"><a xlink:href="structtracktion__engine_1_1ValueTreeAllEventListener.html" target="_top" xlink:title="tracktion_engine::ValueTree\lAllEventListener">
<polygon fill="none" stroke="#000000" points="181,-484.5 181,-514.5 319,-514.5 319,-484.5 181,-484.5"/>
<text text-anchor="start" x="189" y="-502.5" font-family="Helvetica,sans-Serif" font-size="10.00" fill="#000000">tracktion_engine::ValueTree</text>
<text text-anchor="middle" x="250" y="-491.5" font-family="Helvetica,sans-Serif" font-size="10.00" fill="#000000">AllEventListener</text>
</a>
</g>
</g>
<!-- Node6&#45;&gt;Node0 -->
<g id="edge6" class="edge">
<title>Node6&#45;&gt;Node0</title>
<path fill="none" stroke="#006400" d="M321.2641,-518.1724C325.2947,-519.8234 329.2346,-521.5975 333,-523.5 368.0493,-541.2085 403.1093,-572.2484 419.6621,-587.8994"/>
<polygon fill="#006400" stroke="#006400" points="322.3253,-514.8313 311.7344,-514.5409 319.8326,-521.3725 322.3253,-514.8313"/>
</g>
</g>
</svg>
