<?xml version="1.0" encoding="UTF-8" standalone="no"?>
<!DOCTYPE svg PUBLIC "-//W3C//DTD SVG 1.1//EN"
 "http://www.w3.org/Graphics/SVG/1.1/DTD/svg11.dtd">
<!-- Generated by graphviz version 2.43.0 (0)
 -->
<!-- Title: tracktion_engine::TimedMutingAudioNode Pages: 1 -->
<svg width="177pt" height="162pt"
 viewBox="0.00 0.00 177.00 162.00" xmlns="http://www.w3.org/2000/svg" xmlns:xlink="http://www.w3.org/1999/xlink">
<g id="graph0" class="graph" transform="scale(1 1) rotate(0) translate(4 158)">
<title>tracktion_engine::TimedMutingAudioNode</title>
<!-- Node1 -->
<g id="node1" class="node">
<title>Node1</title>
<g id="a_node1"><a xlink:title=" ">
<polygon fill="#bfbfbf" stroke="black" points="0,-0.5 0,-30.5 169,-30.5 169,-0.5 0,-0.5"/>
<text text-anchor="start" x="8" y="-18.5" font-family="Helvetica,sans-Serif" font-size="10.00">tracktion_engine::TimedMuting</text>
<text text-anchor="middle" x="84.5" y="-7.5" font-family="Helvetica,sans-Serif" font-size="10.00">AudioNode</text>
</a>
</g>
</g>
<!-- Node2 -->
<g id="node2" class="node">
<title>Node2</title>
<g id="a_node2"><a xlink:href="classtracktion__engine_1_1SingleInputAudioNode.html" target="_top" xlink:title=" ">
<polygon fill="none" stroke="black" points="17.5,-67.5 17.5,-97.5 151.5,-97.5 151.5,-67.5 17.5,-67.5"/>
<text text-anchor="start" x="25.5" y="-85.5" font-family="Helvetica,sans-Serif" font-size="10.00">tracktion_engine::Single</text>
<text text-anchor="middle" x="84.5" y="-74.5" font-family="Helvetica,sans-Serif" font-size="10.00">InputAudioNode</text>
</a>
</g>
</g>
<!-- Node2&#45;&gt;Node1 -->
<g id="edge1" class="edge">
<title>Node2&#45;&gt;Node1</title>
<path fill="none" stroke="midnightblue" d="M84.5,-57.11C84.5,-48.15 84.5,-38.32 84.5,-30.58"/>
<polygon fill="midnightblue" stroke="midnightblue" points="81,-57.4 84.5,-67.4 88,-57.4 81,-57.4"/>
</g>
<!-- Node3 -->
<g id="node3" class="node">
<title>Node3</title>
<g id="a_node3"><a xlink:href="classtracktion__engine_1_1AudioNode.html" target="_top" xlink:title="Base class for nodes in an audio playback graph.">
<polygon fill="none" stroke="black" points="5.5,-134.5 5.5,-153.5 163.5,-153.5 163.5,-134.5 5.5,-134.5"/>
<text text-anchor="middle" x="84.5" y="-141.5" font-family="Helvetica,sans-Serif" font-size="10.00">tracktion_engine::AudioNode</text>
</a>
</g>
</g>
<!-- Node3&#45;&gt;Node2 -->
<g id="edge2" class="edge">
<title>Node3&#45;&gt;Node2</title>
<path fill="none" stroke="midnightblue" d="M84.5,-124.23C84.5,-115.59 84.5,-105.5 84.5,-97.52"/>
<polygon fill="midnightblue" stroke="midnightblue" points="81,-124.48 84.5,-134.48 88,-124.48 81,-124.48"/>
</g>
</g>
</svg>
