<?xml version="1.0" encoding="UTF-8" standalone="no"?>
<!DOCTYPE svg PUBLIC "-//W3C//DTD SVG 1.1//EN"
 "http://www.w3.org/Graphics/SVG/1.1/DTD/svg11.dtd">
<!-- Generated by graphviz version 2.43.0 (0)
 -->
<!-- Title: tracktion::engine::Exportable Pages: 1 -->
<svg width="583pt" height="1574pt"
 viewBox="0.00 0.00 583.00 1574.00" xmlns="http://www.w3.org/2000/svg" xmlns:xlink="http://www.w3.org/1999/xlink">
<g id="graph0" class="graph" transform="scale(1 1) rotate(0) translate(4 1570)">
<title>tracktion::engine::Exportable</title>
<!-- Node1 -->
<g id="Node000001" class="node">
<title>Node1</title>
<g id="a_Node000001"><a xlink:title="An interface for objects within an edit that can be exported.">
<polygon fill="#999999" stroke="#666666" points="105,-1038 0,-1038 0,-1008 105,-1008 105,-1038"/>
<text text-anchor="start" x="8" y="-1026" font-family="Helvetica,sans-Serif" font-size="10.00">tracktion::engine::</text>
<text text-anchor="middle" x="52.5" y="-1015" font-family="Helvetica,sans-Serif" font-size="10.00">Exportable</text>
</a>
</g>
</g>
<!-- Node2 -->
<g id="Node000002" class="node">
<title>Node2</title>
<g id="a_Node000002"><a xlink:href="classtracktion_1_1engine_1_1Clip.html" target="_top" xlink:title="A clip in an edit.">
<polygon fill="white" stroke="#666666" points="265,-1416.5 141,-1416.5 141,-1397.5 265,-1397.5 265,-1416.5"/>
<text text-anchor="middle" x="203" y="-1404.5" font-family="Helvetica,sans-Serif" font-size="10.00">tracktion::engine::Clip</text>
</a>
</g>
</g>
<!-- Node1&#45;&gt;Node2 -->
<g id="edge1_Node000001_Node000002" class="edge">
<title>Node1&#45;&gt;Node2</title>
<g id="a_edge1_Node000001_Node000002"><a xlink:title=" ">
<path fill="none" stroke="#63b8ff" d="M63.03,-1047.65C92.16,-1122.97 179.16,-1347.93 198.26,-1397.34"/>
<polygon fill="#63b8ff" stroke="#63b8ff" points="66.19,-1046.12 59.32,-1038.05 59.66,-1048.64 66.19,-1046.12"/>
</a>
</g>
</g>
<!-- Node12 -->
<g id="Node000012" class="node">
<title>Node12</title>
<g id="a_Node000012"><a xlink:href="classtracktion_1_1engine_1_1Plugin.html" target="_top" xlink:title=" ">
<polygon fill="white" stroke="#666666" points="255.5,-678 150.5,-678 150.5,-648 255.5,-648 255.5,-678"/>
<text text-anchor="start" x="158.5" y="-666" font-family="Helvetica,sans-Serif" font-size="10.00">tracktion::engine::</text>
<text text-anchor="middle" x="203" y="-655" font-family="Helvetica,sans-Serif" font-size="10.00">Plugin</text>
</a>
</g>
</g>
<!-- Node1&#45;&gt;Node12 -->
<g id="edge11_Node000001_Node000012" class="edge">
<title>Node1&#45;&gt;Node12</title>
<g id="a_edge11_Node000001_Node000012"><a xlink:title=" ">
<path fill="none" stroke="#63b8ff" d="M63.67,-998.35C92.26,-929.03 172.76,-733.87 195.78,-678.07"/>
<polygon fill="#63b8ff" stroke="#63b8ff" points="60.27,-997.41 59.69,-1007.99 66.74,-1000.08 60.27,-997.41"/>
</a>
</g>
</g>
<!-- Node3 -->
<g id="Node000003" class="node">
<title>Node3</title>
<g id="a_Node000003"><a xlink:href="classtracktion_1_1engine_1_1ArrangerClip.html" target="_top" xlink:title=" ">
<polygon fill="white" stroke="#666666" points="420,-1566 315,-1566 315,-1536 420,-1536 420,-1566"/>
<text text-anchor="start" x="323" y="-1554" font-family="Helvetica,sans-Serif" font-size="10.00">tracktion::engine::</text>
<text text-anchor="middle" x="367.5" y="-1543" font-family="Helvetica,sans-Serif" font-size="10.00">ArrangerClip</text>
</a>
</g>
</g>
<!-- Node2&#45;&gt;Node3 -->
<g id="edge2_Node000002_Node000003" class="edge">
<title>Node2&#45;&gt;Node3</title>
<g id="a_edge2_Node000002_Node000003"><a xlink:title=" ">
<path fill="none" stroke="#63b8ff" d="M214.43,-1425.41C230.08,-1451.48 261.98,-1499.08 301,-1527 305.73,-1530.38 310.98,-1533.34 316.41,-1535.91"/>
<polygon fill="#63b8ff" stroke="#63b8ff" points="217.32,-1423.42 209.25,-1416.56 211.28,-1426.96 217.32,-1423.42"/>
</a>
</g>
</g>
<!-- Node4 -->
<g id="Node000004" class="node">
<title>Node4</title>
<g id="a_Node000004"><a xlink:href="classtracktion_1_1engine_1_1AudioClipBase.html" target="_top" xlink:title="Base class for Clips that produce some kind of audio e.g.">
<polygon fill="white" stroke="#666666" points="420,-1518 315,-1518 315,-1488 420,-1488 420,-1518"/>
<text text-anchor="start" x="323" y="-1506" font-family="Helvetica,sans-Serif" font-size="10.00">tracktion::engine::</text>
<text text-anchor="middle" x="367.5" y="-1495" font-family="Helvetica,sans-Serif" font-size="10.00">AudioClipBase</text>
</a>
</g>
</g>
<!-- Node2&#45;&gt;Node4 -->
<g id="edge3_Node000002_Node000004" class="edge">
<title>Node2&#45;&gt;Node4</title>
<g id="a_edge3_Node000002_Node000004"><a xlink:title=" ">
<path fill="none" stroke="#63b8ff" d="M222.39,-1423.19C241.13,-1439.05 271.55,-1463.11 301,-1479 307.07,-1482.28 313.69,-1485.29 320.31,-1487.98"/>
<polygon fill="#63b8ff" stroke="#63b8ff" points="224.51,-1420.4 214.64,-1416.53 219.95,-1425.71 224.51,-1420.4"/>
</a>
</g>
</g>
<!-- Node8 -->
<g id="Node000008" class="node">
<title>Node8</title>
<g id="a_Node000008"><a xlink:href="classtracktion_1_1engine_1_1ChordClip.html" target="_top" xlink:title=" ">
<polygon fill="white" stroke="#666666" points="420,-1470 315,-1470 315,-1440 420,-1440 420,-1470"/>
<text text-anchor="start" x="323" y="-1458" font-family="Helvetica,sans-Serif" font-size="10.00">tracktion::engine::</text>
<text text-anchor="middle" x="367.5" y="-1447" font-family="Helvetica,sans-Serif" font-size="10.00">ChordClip</text>
</a>
</g>
</g>
<!-- Node2&#45;&gt;Node8 -->
<g id="edge7_Node000002_Node000008" class="edge">
<title>Node2&#45;&gt;Node8</title>
<g id="a_edge7_Node000002_Node000008"><a xlink:title=" ">
<path fill="none" stroke="#63b8ff" d="M246.18,-1419.46C267.37,-1425.72 293.21,-1433.35 315.51,-1439.94"/>
<polygon fill="#63b8ff" stroke="#63b8ff" points="247.08,-1416.07 236.49,-1416.6 245.09,-1422.79 247.08,-1416.07"/>
</a>
</g>
</g>
<!-- Node9 -->
<g id="Node000009" class="node">
<title>Node9</title>
<g id="a_Node000009"><a xlink:href="classtracktion_1_1engine_1_1MarkerClip.html" target="_top" xlink:title=" ">
<polygon fill="white" stroke="#666666" points="420,-1422 315,-1422 315,-1392 420,-1392 420,-1422"/>
<text text-anchor="start" x="323" y="-1410" font-family="Helvetica,sans-Serif" font-size="10.00">tracktion::engine::</text>
<text text-anchor="middle" x="367.5" y="-1399" font-family="Helvetica,sans-Serif" font-size="10.00">MarkerClip</text>
</a>
</g>
</g>
<!-- Node2&#45;&gt;Node9 -->
<g id="edge8_Node000002_Node000009" class="edge">
<title>Node2&#45;&gt;Node9</title>
<g id="a_edge8_Node000002_Node000009"><a xlink:title=" ">
<path fill="none" stroke="#63b8ff" d="M275.46,-1407C288.7,-1407 302.29,-1407 314.79,-1407"/>
<polygon fill="#63b8ff" stroke="#63b8ff" points="275.43,-1403.5 265.43,-1407 275.43,-1410.5 275.43,-1403.5"/>
</a>
</g>
</g>
<!-- Node10 -->
<g id="Node000010" class="node">
<title>Node10</title>
<g id="a_Node000010"><a xlink:href="classtracktion_1_1engine_1_1MidiClip.html" target="_top" xlink:title=" ">
<polygon fill="white" stroke="#666666" points="420,-1374 315,-1374 315,-1344 420,-1344 420,-1374"/>
<text text-anchor="start" x="323" y="-1362" font-family="Helvetica,sans-Serif" font-size="10.00">tracktion::engine::</text>
<text text-anchor="middle" x="367.5" y="-1351" font-family="Helvetica,sans-Serif" font-size="10.00">MidiClip</text>
</a>
</g>
</g>
<!-- Node2&#45;&gt;Node10 -->
<g id="edge9_Node000002_Node000010" class="edge">
<title>Node2&#45;&gt;Node10</title>
<g id="a_edge9_Node000002_Node000010"><a xlink:title=" ">
<path fill="none" stroke="#63b8ff" d="M246.18,-1394.54C267.37,-1388.28 293.21,-1380.65 315.51,-1374.06"/>
<polygon fill="#63b8ff" stroke="#63b8ff" points="245.09,-1391.21 236.49,-1397.4 247.08,-1397.93 245.09,-1391.21"/>
</a>
</g>
</g>
<!-- Node11 -->
<g id="Node000011" class="node">
<title>Node11</title>
<g id="a_Node000011"><a xlink:href="classtracktion_1_1engine_1_1StepClip.html" target="_top" xlink:title=" ">
<polygon fill="white" stroke="#666666" points="420,-1326 315,-1326 315,-1296 420,-1296 420,-1326"/>
<text text-anchor="start" x="323" y="-1314" font-family="Helvetica,sans-Serif" font-size="10.00">tracktion::engine::</text>
<text text-anchor="middle" x="367.5" y="-1303" font-family="Helvetica,sans-Serif" font-size="10.00">StepClip</text>
</a>
</g>
</g>
<!-- Node2&#45;&gt;Node11 -->
<g id="edge10_Node000002_Node000011" class="edge">
<title>Node2&#45;&gt;Node11</title>
<g id="a_edge10_Node000002_Node000011"><a xlink:title=" ">
<path fill="none" stroke="#63b8ff" d="M222.39,-1390.81C241.13,-1374.95 271.55,-1350.89 301,-1335 307.07,-1331.72 313.69,-1328.71 320.31,-1326.02"/>
<polygon fill="#63b8ff" stroke="#63b8ff" points="219.95,-1388.29 214.64,-1397.47 224.51,-1393.6 219.95,-1388.29"/>
</a>
</g>
</g>
<!-- Node5 -->
<g id="Node000005" class="node">
<title>Node5</title>
<g id="a_Node000005"><a xlink:href="classtracktion_1_1engine_1_1ContainerClip.html" target="_top" xlink:title="A clip that can contain multiple other clips and mix their output together.">
<polygon fill="white" stroke="#666666" points="575,-1566 470,-1566 470,-1536 575,-1536 575,-1566"/>
<text text-anchor="start" x="478" y="-1554" font-family="Helvetica,sans-Serif" font-size="10.00">tracktion::engine::</text>
<text text-anchor="middle" x="522.5" y="-1543" font-family="Helvetica,sans-Serif" font-size="10.00">ContainerClip</text>
</a>
</g>
</g>
<!-- Node4&#45;&gt;Node5 -->
<g id="edge4_Node000004_Node000005" class="edge">
<title>Node4&#45;&gt;Node5</title>
<g id="a_edge4_Node000004_Node000005"><a xlink:title=" ">
<path fill="none" stroke="#63b8ff" d="M426.09,-1521.07C441.78,-1525.99 458.6,-1531.27 473.68,-1536"/>
<polygon fill="#63b8ff" stroke="#63b8ff" points="427.08,-1517.71 416.49,-1518.06 424.98,-1524.39 427.08,-1517.71"/>
</a>
</g>
</g>
<!-- Node6 -->
<g id="Node000006" class="node">
<title>Node6</title>
<g id="a_Node000006"><a xlink:href="classtracktion_1_1engine_1_1EditClip.html" target="_top" xlink:title="This is the main source of an Edit clip and is responsible for managing its properties.">
<polygon fill="white" stroke="#666666" points="575,-1518 470,-1518 470,-1488 575,-1488 575,-1518"/>
<text text-anchor="start" x="478" y="-1506" font-family="Helvetica,sans-Serif" font-size="10.00">tracktion::engine::</text>
<text text-anchor="middle" x="522.5" y="-1495" font-family="Helvetica,sans-Serif" font-size="10.00">EditClip</text>
</a>
</g>
</g>
<!-- Node4&#45;&gt;Node6 -->
<g id="edge5_Node000004_Node000006" class="edge">
<title>Node4&#45;&gt;Node6</title>
<g id="a_edge5_Node000004_Node000006"><a xlink:title=" ">
<path fill="none" stroke="#63b8ff" d="M430.58,-1503C443.59,-1503 457.17,-1503 469.75,-1503"/>
<polygon fill="#63b8ff" stroke="#63b8ff" points="430.3,-1499.5 420.3,-1503 430.3,-1506.5 430.3,-1499.5"/>
</a>
</g>
</g>
<!-- Node7 -->
<g id="Node000007" class="node">
<title>Node7</title>
<g id="a_Node000007"><a xlink:href="classtracktion_1_1engine_1_1WaveAudioClip.html" target="_top" xlink:title="An audio clip that uses an audio file as its source.">
<polygon fill="white" stroke="#666666" points="575,-1470 470,-1470 470,-1440 575,-1440 575,-1470"/>
<text text-anchor="start" x="478" y="-1458" font-family="Helvetica,sans-Serif" font-size="10.00">tracktion::engine::</text>
<text text-anchor="middle" x="522.5" y="-1447" font-family="Helvetica,sans-Serif" font-size="10.00">WaveAudioClip</text>
</a>
</g>
</g>
<!-- Node4&#45;&gt;Node7 -->
<g id="edge6_Node000004_Node000007" class="edge">
<title>Node4&#45;&gt;Node7</title>
<g id="a_edge6_Node000004_Node000007"><a xlink:title=" ">
<path fill="none" stroke="#63b8ff" d="M426.09,-1484.93C441.78,-1480.01 458.6,-1474.73 473.68,-1470"/>
<polygon fill="#63b8ff" stroke="#63b8ff" points="424.98,-1481.61 416.49,-1487.94 427.08,-1488.29 424.98,-1481.61"/>
</a>
</g>
</g>
<!-- Node13 -->
<g id="Node000013" class="node">
<title>Node13</title>
<g id="a_Node000013"><a xlink:href="classtracktion_1_1engine_1_1AirWindowsPlugin.html" target="_top" xlink:title=" ">
<polygon fill="white" stroke="#666666" points="420,-1278 315,-1278 315,-1248 420,-1248 420,-1278"/>
<text text-anchor="start" x="323" y="-1266" font-family="Helvetica,sans-Serif" font-size="10.00">tracktion::engine::</text>
<text text-anchor="middle" x="367.5" y="-1255" font-family="Helvetica,sans-Serif" font-size="10.00">AirWindowsPlugin</text>
</a>
</g>
</g>
<!-- Node12&#45;&gt;Node13 -->
<g id="edge12_Node000012_Node000013" class="edge">
<title>Node12&#45;&gt;Node13</title>
<g id="a_edge12_Node000012_Node000013"><a xlink:title=" ">
<path fill="none" stroke="#63b8ff" d="M204.96,-688.22C209.23,-787.87 229.56,-1153.01 301,-1239 304.79,-1243.56 309.53,-1247.26 314.72,-1250.25"/>
<polygon fill="#63b8ff" stroke="#63b8ff" points="208.45,-688 204.54,-678.16 201.46,-688.29 208.45,-688"/>
</a>
</g>
</g>
<!-- Node14 -->
<g id="Node000014" class="node">
<title>Node14</title>
<g id="a_Node000014"><a xlink:href="classtracktion_1_1engine_1_1AuxReturnPlugin.html" target="_top" xlink:title=" ">
<polygon fill="white" stroke="#666666" points="420,-1230 315,-1230 315,-1200 420,-1200 420,-1230"/>
<text text-anchor="start" x="323" y="-1218" font-family="Helvetica,sans-Serif" font-size="10.00">tracktion::engine::</text>
<text text-anchor="middle" x="367.5" y="-1207" font-family="Helvetica,sans-Serif" font-size="10.00">AuxReturnPlugin</text>
</a>
</g>
</g>
<!-- Node12&#45;&gt;Node14 -->
<g id="edge13_Node000012_Node000014" class="edge">
<title>Node12&#45;&gt;Node14</title>
<g id="a_edge13_Node000012_Node000014"><a xlink:title=" ">
<path fill="none" stroke="#63b8ff" d="M205.38,-688.22C211.03,-782.54 235.25,-1113.04 301,-1191 304.83,-1195.54 309.59,-1199.22 314.78,-1202.2"/>
<polygon fill="#63b8ff" stroke="#63b8ff" points="208.87,-687.94 204.8,-678.16 201.88,-688.35 208.87,-687.94"/>
</a>
</g>
</g>
<!-- Node15 -->
<g id="Node000015" class="node">
<title>Node15</title>
<g id="a_Node000015"><a xlink:href="classtracktion_1_1engine_1_1AuxSendPlugin.html" target="_top" xlink:title=" ">
<polygon fill="white" stroke="#666666" points="420,-1182 315,-1182 315,-1152 420,-1152 420,-1182"/>
<text text-anchor="start" x="323" y="-1170" font-family="Helvetica,sans-Serif" font-size="10.00">tracktion::engine::</text>
<text text-anchor="middle" x="367.5" y="-1159" font-family="Helvetica,sans-Serif" font-size="10.00">AuxSendPlugin</text>
</a>
</g>
</g>
<!-- Node12&#45;&gt;Node15 -->
<g id="edge14_Node000012_Node000015" class="edge">
<title>Node12&#45;&gt;Node15</title>
<g id="a_edge14_Node000012_Node000015"><a xlink:title=" ">
<path fill="none" stroke="#63b8ff" d="M205.89,-688.21C213.01,-776.92 240.92,-1073.03 301,-1143 304.87,-1147.5 309.65,-1151.16 314.86,-1154.13"/>
<polygon fill="#63b8ff" stroke="#63b8ff" points="209.38,-687.92 205.11,-678.23 202.4,-688.47 209.38,-687.92"/>
</a>
</g>
</g>
<!-- Node16 -->
<g id="Node000016" class="node">
<title>Node16</title>
<g id="a_Node000016"><a xlink:href="classtracktion_1_1engine_1_1ChorusPlugin.html" target="_top" xlink:title=" ">
<polygon fill="white" stroke="#666666" points="420,-1134 315,-1134 315,-1104 420,-1104 420,-1134"/>
<text text-anchor="start" x="323" y="-1122" font-family="Helvetica,sans-Serif" font-size="10.00">tracktion::engine::</text>
<text text-anchor="middle" x="367.5" y="-1111" font-family="Helvetica,sans-Serif" font-size="10.00">ChorusPlugin</text>
</a>
</g>
</g>
<!-- Node12&#45;&gt;Node16 -->
<g id="edge15_Node000012_Node000016" class="edge">
<title>Node12&#45;&gt;Node16</title>
<g id="a_edge15_Node000012_Node000016"><a xlink:title=" ">
<path fill="none" stroke="#63b8ff" d="M206.49,-688.08C215.17,-770.76 246.54,-1032.93 301,-1095 304.91,-1099.46 309.73,-1103.09 314.96,-1106.05"/>
<polygon fill="#63b8ff" stroke="#63b8ff" points="209.97,-687.66 205.46,-678.07 203,-688.37 209.97,-687.66"/>
</a>
</g>
</g>
<!-- Node17 -->
<g id="Node000017" class="node">
<title>Node17</title>
<g id="a_Node000017"><a xlink:href="classtracktion_1_1engine_1_1CompressorPlugin.html" target="_top" xlink:title=" ">
<polygon fill="white" stroke="#666666" points="420,-1086 315,-1086 315,-1056 420,-1056 420,-1086"/>
<text text-anchor="start" x="323" y="-1074" font-family="Helvetica,sans-Serif" font-size="10.00">tracktion::engine::</text>
<text text-anchor="middle" x="367.5" y="-1063" font-family="Helvetica,sans-Serif" font-size="10.00">CompressorPlugin</text>
</a>
</g>
</g>
<!-- Node12&#45;&gt;Node17 -->
<g id="edge16_Node000012_Node000017" class="edge">
<title>Node12&#45;&gt;Node17</title>
<g id="a_edge16_Node000012_Node000017"><a xlink:title=" ">
<path fill="none" stroke="#63b8ff" d="M207.28,-688.26C217.68,-764.89 252.19,-992.84 301,-1047 304.89,-1051.32 309.63,-1054.86 314.75,-1057.77"/>
<polygon fill="#63b8ff" stroke="#63b8ff" points="210.71,-687.54 205.92,-678.09 203.77,-688.46 210.71,-687.54"/>
</a>
</g>
</g>
<!-- Node18 -->
<g id="Node000018" class="node">
<title>Node18</title>
<g id="a_Node000018"><a xlink:href="classtracktion_1_1engine_1_1DelayPlugin.html" target="_top" xlink:title=" ">
<polygon fill="white" stroke="#666666" points="420,-1038 315,-1038 315,-1008 420,-1008 420,-1038"/>
<text text-anchor="start" x="323" y="-1026" font-family="Helvetica,sans-Serif" font-size="10.00">tracktion::engine::</text>
<text text-anchor="middle" x="367.5" y="-1015" font-family="Helvetica,sans-Serif" font-size="10.00">DelayPlugin</text>
</a>
</g>
</g>
<!-- Node12&#45;&gt;Node18 -->
<g id="edge17_Node000012_Node000018" class="edge">
<title>Node12&#45;&gt;Node18</title>
<g id="a_edge17_Node000012_Node000018"><a xlink:title=" ">
<path fill="none" stroke="#63b8ff" d="M203.94,-688.34C205.17,-749.86 216.82,-908.69 301,-999 304.96,-1003.25 309.74,-1006.75 314.89,-1009.64"/>
<polygon fill="#63b8ff" stroke="#63b8ff" points="207.43,-687.98 203.81,-678.02 200.43,-688.06 207.43,-687.98"/>
</a>
</g>
</g>
<!-- Node19 -->
<g id="Node000019" class="node">
<title>Node19</title>
<g id="a_Node000019"><a xlink:href="classtracktion_1_1engine_1_1EqualiserPlugin.html" target="_top" xlink:title=" ">
<polygon fill="white" stroke="#666666" points="420,-990 315,-990 315,-960 420,-960 420,-990"/>
<text text-anchor="start" x="323" y="-978" font-family="Helvetica,sans-Serif" font-size="10.00">tracktion::engine::</text>
<text text-anchor="middle" x="367.5" y="-967" font-family="Helvetica,sans-Serif" font-size="10.00">EqualiserPlugin</text>
</a>
</g>
</g>
<!-- Node12&#45;&gt;Node19 -->
<g id="edge18_Node000012_Node000019" class="edge">
<title>Node12&#45;&gt;Node19</title>
<g id="a_edge18_Node000012_Node000019"><a xlink:title=" ">
<path fill="none" stroke="#63b8ff" d="M205.4,-688.45C209.8,-743.74 227.82,-875.86 301,-951 304.97,-955.08 309.69,-958.47 314.75,-961.28"/>
<polygon fill="#63b8ff" stroke="#63b8ff" points="208.87,-687.89 204.67,-678.16 201.89,-688.39 208.87,-687.89"/>
</a>
</g>
</g>
<!-- Node20 -->
<g id="Node000020" class="node">
<title>Node20</title>
<g id="a_Node000020"><a xlink:href="classtracktion_1_1engine_1_1ExternalPlugin.html" target="_top" xlink:title=" ">
<polygon fill="white" stroke="#666666" points="420,-942 315,-942 315,-912 420,-912 420,-942"/>
<text text-anchor="start" x="323" y="-930" font-family="Helvetica,sans-Serif" font-size="10.00">tracktion::engine::</text>
<text text-anchor="middle" x="367.5" y="-919" font-family="Helvetica,sans-Serif" font-size="10.00">ExternalPlugin</text>
</a>
</g>
</g>
<!-- Node12&#45;&gt;Node20 -->
<g id="edge19_Node000012_Node000020" class="edge">
<title>Node12&#45;&gt;Node20</title>
<g id="a_edge19_Node000012_Node000020"><a xlink:title=" ">
<path fill="none" stroke="#63b8ff" d="M207.36,-688.21C215.1,-736.49 238.55,-842.57 301,-903 305.09,-906.96 309.89,-910.27 314.99,-913.04"/>
<polygon fill="#63b8ff" stroke="#63b8ff" points="210.82,-687.66 205.87,-678.29 203.9,-688.7 210.82,-687.66"/>
</a>
</g>
</g>
<!-- Node21 -->
<g id="Node000021" class="node">
<title>Node21</title>
<g id="a_Node000021"><a xlink:href="classtracktion_1_1engine_1_1FourOscPlugin.html" target="_top" xlink:title=" ">
<polygon fill="white" stroke="#666666" points="420,-894 315,-894 315,-864 420,-864 420,-894"/>
<text text-anchor="start" x="323" y="-882" font-family="Helvetica,sans-Serif" font-size="10.00">tracktion::engine::</text>
<text text-anchor="middle" x="367.5" y="-871" font-family="Helvetica,sans-Serif" font-size="10.00">FourOscPlugin</text>
</a>
</g>
</g>
<!-- Node12&#45;&gt;Node21 -->
<g id="edge20_Node000012_Node000021" class="edge">
<title>Node12&#45;&gt;Node21</title>
<g id="a_edge20_Node000012_Node000021"><a xlink:title=" ">
<path fill="none" stroke="#63b8ff" d="M210.17,-687.93C221.45,-728.49 249.14,-808.85 301,-855 305.16,-858.7 309.94,-861.85 314.99,-864.52"/>
<polygon fill="#63b8ff" stroke="#63b8ff" points="213.5,-686.82 207.54,-678.07 206.73,-688.63 213.5,-686.82"/>
</a>
</g>
</g>
<!-- Node22 -->
<g id="Node000022" class="node">
<title>Node22</title>
<g id="a_Node000022"><a xlink:href="classtracktion_1_1engine_1_1FreezePointPlugin.html" target="_top" xlink:title=" ">
<polygon fill="white" stroke="#666666" points="420,-846 315,-846 315,-816 420,-816 420,-846"/>
<text text-anchor="start" x="323" y="-834" font-family="Helvetica,sans-Serif" font-size="10.00">tracktion::engine::</text>
<text text-anchor="middle" x="367.5" y="-823" font-family="Helvetica,sans-Serif" font-size="10.00">FreezePointPlugin</text>
</a>
</g>
</g>
<!-- Node12&#45;&gt;Node22 -->
<g id="edge21_Node000012_Node000022" class="edge">
<title>Node12&#45;&gt;Node22</title>
<g id="a_edge21_Node000012_Node000022"><a xlink:title=" ">
<path fill="none" stroke="#63b8ff" d="M214.73,-687.82C229.69,-719.66 259.68,-774.62 301,-807 305.39,-810.44 310.31,-813.41 315.44,-815.98"/>
<polygon fill="#63b8ff" stroke="#63b8ff" points="217.75,-685.99 210.41,-678.35 211.38,-688.9 217.75,-685.99"/>
</a>
</g>
</g>
<!-- Node23 -->
<g id="Node000023" class="node">
<title>Node23</title>
<g id="a_Node000023"><a xlink:href="classtracktion_1_1engine_1_1ImpulseResponsePlugin.html" target="_top" xlink:title="ImpulseResponsePlugin that loads an impulse response and applies it the audio stream.">
<polygon fill="white" stroke="#666666" points="434,-798 301,-798 301,-768 434,-768 434,-798"/>
<text text-anchor="start" x="309" y="-786" font-family="Helvetica,sans-Serif" font-size="10.00">tracktion::engine::</text>
<text text-anchor="middle" x="367.5" y="-775" font-family="Helvetica,sans-Serif" font-size="10.00">ImpulseResponsePlugin</text>
</a>
</g>
</g>
<!-- Node12&#45;&gt;Node23 -->
<g id="edge22_Node000012_Node000023" class="edge">
<title>Node12&#45;&gt;Node23</title>
<g id="a_edge22_Node000012_Node000023"><a xlink:title=" ">
<path fill="none" stroke="#63b8ff" d="M222.16,-685.96C240.18,-707.41 269.57,-739.04 301,-759 306.32,-762.38 312.18,-765.37 318.14,-768"/>
<polygon fill="#63b8ff" stroke="#63b8ff" points="224.67,-683.5 215.61,-678.01 219.27,-687.95 224.67,-683.5"/>
</a>
</g>
</g>
<!-- Node24 -->
<g id="Node000024" class="node">
<title>Node24</title>
<g id="a_Node000024"><a xlink:href="classtracktion_1_1engine_1_1InsertPlugin.html" target="_top" xlink:title=" ">
<polygon fill="white" stroke="#666666" points="420,-750 315,-750 315,-720 420,-720 420,-750"/>
<text text-anchor="start" x="323" y="-738" font-family="Helvetica,sans-Serif" font-size="10.00">tracktion::engine::</text>
<text text-anchor="middle" x="367.5" y="-727" font-family="Helvetica,sans-Serif" font-size="10.00">InsertPlugin</text>
</a>
</g>
</g>
<!-- Node12&#45;&gt;Node24 -->
<g id="edge23_Node000012_Node000024" class="edge">
<title>Node12&#45;&gt;Node24</title>
<g id="a_edge23_Node000012_Node000024"><a xlink:title=" ">
<path fill="none" stroke="#63b8ff" d="M241.42,-682.7C259.25,-691.78 281,-702.42 301,-711 308.12,-714.06 315.78,-717.08 323.25,-719.91"/>
<polygon fill="#63b8ff" stroke="#63b8ff" points="242.97,-679.56 232.48,-678.11 239.78,-685.79 242.97,-679.56"/>
</a>
</g>
</g>
<!-- Node25 -->
<g id="Node000025" class="node">
<title>Node25</title>
<g id="a_Node000025"><a xlink:href="classtracktion_1_1engine_1_1LatencyPlugin.html" target="_top" xlink:title="A test plugin that introduces latency to the incoming signal.">
<polygon fill="white" stroke="#666666" points="420,-702 315,-702 315,-672 420,-672 420,-702"/>
<text text-anchor="start" x="323" y="-690" font-family="Helvetica,sans-Serif" font-size="10.00">tracktion::engine::</text>
<text text-anchor="middle" x="367.5" y="-679" font-family="Helvetica,sans-Serif" font-size="10.00">LatencyPlugin</text>
</a>
</g>
</g>
<!-- Node12&#45;&gt;Node25 -->
<g id="edge24_Node000012_Node000025" class="edge">
<title>Node12&#45;&gt;Node25</title>
<g id="a_edge24_Node000012_Node000025"><a xlink:title=" ">
<path fill="none" stroke="#63b8ff" d="M265.78,-672.12C281.97,-674.51 299.25,-677.07 314.85,-679.37"/>
<polygon fill="#63b8ff" stroke="#63b8ff" points="266.27,-668.66 255.86,-670.66 265.24,-675.58 266.27,-668.66"/>
</a>
</g>
</g>
<!-- Node26 -->
<g id="Node000026" class="node">
<title>Node26</title>
<g id="a_Node000026"><a xlink:href="classtracktion_1_1engine_1_1LevelMeterPlugin.html" target="_top" xlink:title=" ">
<polygon fill="white" stroke="#666666" points="420,-654 315,-654 315,-624 420,-624 420,-654"/>
<text text-anchor="start" x="323" y="-642" font-family="Helvetica,sans-Serif" font-size="10.00">tracktion::engine::</text>
<text text-anchor="middle" x="367.5" y="-631" font-family="Helvetica,sans-Serif" font-size="10.00">LevelMeterPlugin</text>
</a>
</g>
</g>
<!-- Node12&#45;&gt;Node26 -->
<g id="edge25_Node000012_Node000026" class="edge">
<title>Node12&#45;&gt;Node26</title>
<g id="a_edge25_Node000012_Node000026"><a xlink:title=" ">
<path fill="none" stroke="#63b8ff" d="M265.78,-653.88C281.97,-651.49 299.25,-648.93 314.85,-646.63"/>
<polygon fill="#63b8ff" stroke="#63b8ff" points="265.24,-650.42 255.86,-655.34 266.27,-657.34 265.24,-650.42"/>
</a>
</g>
</g>
<!-- Node27 -->
<g id="Node000027" class="node">
<title>Node27</title>
<g id="a_Node000027"><a xlink:href="classtracktion_1_1engine_1_1LowPassPlugin.html" target="_top" xlink:title=" ">
<polygon fill="white" stroke="#666666" points="420,-606 315,-606 315,-576 420,-576 420,-606"/>
<text text-anchor="start" x="323" y="-594" font-family="Helvetica,sans-Serif" font-size="10.00">tracktion::engine::</text>
<text text-anchor="middle" x="367.5" y="-583" font-family="Helvetica,sans-Serif" font-size="10.00">LowPassPlugin</text>
</a>
</g>
</g>
<!-- Node12&#45;&gt;Node27 -->
<g id="edge26_Node000012_Node000027" class="edge">
<title>Node12&#45;&gt;Node27</title>
<g id="a_edge26_Node000012_Node000027"><a xlink:title=" ">
<path fill="none" stroke="#63b8ff" d="M241.42,-643.3C259.25,-634.22 281,-623.58 301,-615 308.12,-611.94 315.78,-608.92 323.25,-606.09"/>
<polygon fill="#63b8ff" stroke="#63b8ff" points="239.78,-640.21 232.48,-647.89 242.97,-646.44 239.78,-640.21"/>
</a>
</g>
</g>
<!-- Node28 -->
<g id="Node000028" class="node">
<title>Node28</title>
<g id="a_Node000028"><a xlink:href="classtracktion_1_1engine_1_1MidiModifierPlugin.html" target="_top" xlink:title=" ">
<polygon fill="white" stroke="#666666" points="421,-558 314,-558 314,-528 421,-528 421,-558"/>
<text text-anchor="start" x="322" y="-546" font-family="Helvetica,sans-Serif" font-size="10.00">tracktion::engine::</text>
<text text-anchor="middle" x="367.5" y="-535" font-family="Helvetica,sans-Serif" font-size="10.00">MidiModifierPlugin</text>
</a>
</g>
</g>
<!-- Node12&#45;&gt;Node28 -->
<g id="edge27_Node000012_Node000028" class="edge">
<title>Node12&#45;&gt;Node28</title>
<g id="a_edge27_Node000012_Node000028"><a xlink:title=" ">
<path fill="none" stroke="#63b8ff" d="M222.16,-640.04C240.18,-618.59 269.57,-586.96 301,-567 306.32,-563.62 312.18,-560.63 318.14,-558"/>
<polygon fill="#63b8ff" stroke="#63b8ff" points="219.27,-638.05 215.61,-647.99 224.67,-642.5 219.27,-638.05"/>
</a>
</g>
</g>
<!-- Node29 -->
<g id="Node000029" class="node">
<title>Node29</title>
<g id="a_Node000029"><a xlink:href="classtracktion_1_1engine_1_1MidiPatchBayPlugin.html" target="_top" xlink:title=" ">
<polygon fill="white" stroke="#666666" points="424,-510 311,-510 311,-480 424,-480 424,-510"/>
<text text-anchor="start" x="319" y="-498" font-family="Helvetica,sans-Serif" font-size="10.00">tracktion::engine::</text>
<text text-anchor="middle" x="367.5" y="-487" font-family="Helvetica,sans-Serif" font-size="10.00">MidiPatchBayPlugin</text>
</a>
</g>
</g>
<!-- Node12&#45;&gt;Node29 -->
<g id="edge28_Node000012_Node000029" class="edge">
<title>Node12&#45;&gt;Node29</title>
<g id="a_edge28_Node000012_Node000029"><a xlink:title=" ">
<path fill="none" stroke="#63b8ff" d="M214.73,-638.18C229.69,-606.34 259.68,-551.38 301,-519 305.39,-515.56 310.31,-512.59 315.44,-510.02"/>
<polygon fill="#63b8ff" stroke="#63b8ff" points="211.38,-637.1 210.41,-647.65 217.75,-640.01 211.38,-637.1"/>
</a>
</g>
</g>
<!-- Node30 -->
<g id="Node000030" class="node">
<title>Node30</title>
<g id="a_Node000030"><a xlink:href="classtracktion_1_1engine_1_1PatchBayPlugin.html" target="_top" xlink:title=" ">
<polygon fill="white" stroke="#666666" points="420,-462 315,-462 315,-432 420,-432 420,-462"/>
<text text-anchor="start" x="323" y="-450" font-family="Helvetica,sans-Serif" font-size="10.00">tracktion::engine::</text>
<text text-anchor="middle" x="367.5" y="-439" font-family="Helvetica,sans-Serif" font-size="10.00">PatchBayPlugin</text>
</a>
</g>
</g>
<!-- Node12&#45;&gt;Node30 -->
<g id="edge29_Node000012_Node000030" class="edge">
<title>Node12&#45;&gt;Node30</title>
<g id="a_edge29_Node000012_Node000030"><a xlink:title=" ">
<path fill="none" stroke="#63b8ff" d="M210.17,-638.07C221.45,-597.51 249.14,-517.15 301,-471 305.16,-467.3 309.94,-464.15 314.99,-461.48"/>
<polygon fill="#63b8ff" stroke="#63b8ff" points="206.73,-637.37 207.54,-647.93 213.5,-639.18 206.73,-637.37"/>
</a>
</g>
</g>
<!-- Node31 -->
<g id="Node000031" class="node">
<title>Node31</title>
<g id="a_Node000031"><a xlink:href="classtracktion_1_1engine_1_1PhaserPlugin.html" target="_top" xlink:title=" ">
<polygon fill="white" stroke="#666666" points="420,-414 315,-414 315,-384 420,-384 420,-414"/>
<text text-anchor="start" x="323" y="-402" font-family="Helvetica,sans-Serif" font-size="10.00">tracktion::engine::</text>
<text text-anchor="middle" x="367.5" y="-391" font-family="Helvetica,sans-Serif" font-size="10.00">PhaserPlugin</text>
</a>
</g>
</g>
<!-- Node12&#45;&gt;Node31 -->
<g id="edge30_Node000012_Node000031" class="edge">
<title>Node12&#45;&gt;Node31</title>
<g id="a_edge30_Node000012_Node000031"><a xlink:title=" ">
<path fill="none" stroke="#63b8ff" d="M207.36,-637.79C215.1,-589.51 238.55,-483.43 301,-423 305.09,-419.04 309.89,-415.73 314.99,-412.96"/>
<polygon fill="#63b8ff" stroke="#63b8ff" points="203.9,-637.3 205.87,-647.71 210.82,-638.34 203.9,-637.3"/>
</a>
</g>
</g>
<!-- Node32 -->
<g id="Node000032" class="node">
<title>Node32</title>
<g id="a_Node000032"><a xlink:href="classtracktion_1_1engine_1_1PitchShiftPlugin.html" target="_top" xlink:title=" ">
<polygon fill="white" stroke="#666666" points="420,-366 315,-366 315,-336 420,-336 420,-366"/>
<text text-anchor="start" x="323" y="-354" font-family="Helvetica,sans-Serif" font-size="10.00">tracktion::engine::</text>
<text text-anchor="middle" x="367.5" y="-343" font-family="Helvetica,sans-Serif" font-size="10.00">PitchShiftPlugin</text>
</a>
</g>
</g>
<!-- Node12&#45;&gt;Node32 -->
<g id="edge31_Node000012_Node000032" class="edge">
<title>Node12&#45;&gt;Node32</title>
<g id="a_edge31_Node000012_Node000032"><a xlink:title=" ">
<path fill="none" stroke="#63b8ff" d="M205.4,-637.55C209.8,-582.26 227.82,-450.14 301,-375 304.97,-370.92 309.69,-367.53 314.75,-364.72"/>
<polygon fill="#63b8ff" stroke="#63b8ff" points="201.89,-637.61 204.67,-647.84 208.87,-638.11 201.89,-637.61"/>
</a>
</g>
</g>
<!-- Node33 -->
<g id="Node000033" class="node">
<title>Node33</title>
<g id="a_Node000033"><a xlink:href="classtracktion_1_1engine_1_1RackInstance.html" target="_top" xlink:title=" ">
<polygon fill="white" stroke="#666666" points="420,-318 315,-318 315,-288 420,-288 420,-318"/>
<text text-anchor="start" x="323" y="-306" font-family="Helvetica,sans-Serif" font-size="10.00">tracktion::engine::</text>
<text text-anchor="middle" x="367.5" y="-295" font-family="Helvetica,sans-Serif" font-size="10.00">RackInstance</text>
</a>
</g>
</g>
<!-- Node12&#45;&gt;Node33 -->
<g id="edge32_Node000012_Node000033" class="edge">
<title>Node12&#45;&gt;Node33</title>
<g id="a_edge32_Node000012_Node000033"><a xlink:title=" ">
<path fill="none" stroke="#63b8ff" d="M203.94,-637.66C205.17,-576.14 216.82,-417.31 301,-327 304.96,-322.75 309.74,-319.25 314.89,-316.36"/>
<polygon fill="#63b8ff" stroke="#63b8ff" points="200.43,-637.94 203.81,-647.98 207.43,-638.02 200.43,-637.94"/>
</a>
</g>
</g>
<!-- Node34 -->
<g id="Node000034" class="node">
<title>Node34</title>
<g id="a_Node000034"><a xlink:href="classtracktion_1_1engine_1_1ReverbPlugin.html" target="_top" xlink:title=" ">
<polygon fill="white" stroke="#666666" points="420,-270 315,-270 315,-240 420,-240 420,-270"/>
<text text-anchor="start" x="323" y="-258" font-family="Helvetica,sans-Serif" font-size="10.00">tracktion::engine::</text>
<text text-anchor="middle" x="367.5" y="-247" font-family="Helvetica,sans-Serif" font-size="10.00">ReverbPlugin</text>
</a>
</g>
</g>
<!-- Node12&#45;&gt;Node34 -->
<g id="edge33_Node000012_Node000034" class="edge">
<title>Node12&#45;&gt;Node34</title>
<g id="a_edge33_Node000012_Node000034"><a xlink:title=" ">
<path fill="none" stroke="#63b8ff" d="M207.28,-637.74C217.68,-561.11 252.19,-333.16 301,-279 304.89,-274.68 309.63,-271.14 314.75,-268.23"/>
<polygon fill="#63b8ff" stroke="#63b8ff" points="203.77,-637.54 205.92,-647.91 210.71,-638.46 203.77,-637.54"/>
</a>
</g>
</g>
<!-- Node35 -->
<g id="Node000035" class="node">
<title>Node35</title>
<g id="a_Node000035"><a xlink:href="classtracktion_1_1engine_1_1SamplerPlugin.html" target="_top" xlink:title=" ">
<polygon fill="white" stroke="#666666" points="420,-222 315,-222 315,-192 420,-192 420,-222"/>
<text text-anchor="start" x="323" y="-210" font-family="Helvetica,sans-Serif" font-size="10.00">tracktion::engine::</text>
<text text-anchor="middle" x="367.5" y="-199" font-family="Helvetica,sans-Serif" font-size="10.00">SamplerPlugin</text>
</a>
</g>
</g>
<!-- Node12&#45;&gt;Node35 -->
<g id="edge34_Node000012_Node000035" class="edge">
<title>Node12&#45;&gt;Node35</title>
<g id="a_edge34_Node000012_Node000035"><a xlink:title=" ">
<path fill="none" stroke="#63b8ff" d="M206.49,-637.92C215.17,-555.24 246.54,-293.07 301,-231 304.91,-226.54 309.73,-222.91 314.96,-219.95"/>
<polygon fill="#63b8ff" stroke="#63b8ff" points="203,-637.63 205.46,-647.93 209.97,-638.34 203,-637.63"/>
</a>
</g>
</g>
<!-- Node36 -->
<g id="Node000036" class="node">
<title>Node36</title>
<g id="a_Node000036"><a xlink:href="classtracktion_1_1engine_1_1TextPlugin.html" target="_top" xlink:title=" ">
<polygon fill="white" stroke="#666666" points="420,-174 315,-174 315,-144 420,-144 420,-174"/>
<text text-anchor="start" x="323" y="-162" font-family="Helvetica,sans-Serif" font-size="10.00">tracktion::engine::</text>
<text text-anchor="middle" x="367.5" y="-151" font-family="Helvetica,sans-Serif" font-size="10.00">TextPlugin</text>
</a>
</g>
</g>
<!-- Node12&#45;&gt;Node36 -->
<g id="edge35_Node000012_Node000036" class="edge">
<title>Node12&#45;&gt;Node36</title>
<g id="a_edge35_Node000012_Node000036"><a xlink:title=" ">
<path fill="none" stroke="#63b8ff" d="M205.89,-637.79C213.01,-549.08 240.92,-252.97 301,-183 304.87,-178.5 309.65,-174.84 314.86,-171.87"/>
<polygon fill="#63b8ff" stroke="#63b8ff" points="202.4,-637.53 205.11,-647.77 209.38,-638.08 202.4,-637.53"/>
</a>
</g>
</g>
<!-- Node37 -->
<g id="Node000037" class="node">
<title>Node37</title>
<g id="a_Node000037"><a xlink:href="classtracktion_1_1engine_1_1ToneGeneratorPlugin.html" target="_top" xlink:title=" ">
<polygon fill="white" stroke="#666666" points="426.5,-126 308.5,-126 308.5,-96 426.5,-96 426.5,-126"/>
<text text-anchor="start" x="316.5" y="-114" font-family="Helvetica,sans-Serif" font-size="10.00">tracktion::engine::</text>
<text text-anchor="middle" x="367.5" y="-103" font-family="Helvetica,sans-Serif" font-size="10.00">ToneGeneratorPlugin</text>
</a>
</g>
</g>
<!-- Node12&#45;&gt;Node37 -->
<g id="edge36_Node000012_Node000037" class="edge">
<title>Node12&#45;&gt;Node37</title>
<g id="a_edge36_Node000012_Node000037"><a xlink:title=" ">
<path fill="none" stroke="#63b8ff" d="M205.38,-637.78C211.03,-543.46 235.25,-212.96 301,-135 303.89,-131.57 307.31,-128.64 311.05,-126.12"/>
<polygon fill="#63b8ff" stroke="#63b8ff" points="201.88,-637.65 204.8,-647.84 208.87,-638.06 201.88,-637.65"/>
</a>
</g>
</g>
<!-- Node38 -->
<g id="Node000038" class="node">
<title>Node38</title>
<g id="a_Node000038"><a xlink:href="classtracktion_1_1engine_1_1VCAPlugin.html" target="_top" xlink:title="The VCA plugin sits on a folder track to control the overall level of all the volume/pan plugins in i...">
<polygon fill="white" stroke="#666666" points="420,-78 315,-78 315,-48 420,-48 420,-78"/>
<text text-anchor="start" x="323" y="-66" font-family="Helvetica,sans-Serif" font-size="10.00">tracktion::engine::</text>
<text text-anchor="middle" x="367.5" y="-55" font-family="Helvetica,sans-Serif" font-size="10.00">VCAPlugin</text>
</a>
</g>
</g>
<!-- Node12&#45;&gt;Node38 -->
<g id="edge37_Node000012_Node000038" class="edge">
<title>Node12&#45;&gt;Node38</title>
<g id="a_edge37_Node000012_Node000038"><a xlink:title=" ">
<path fill="none" stroke="#63b8ff" d="M204.96,-637.78C209.23,-538.13 229.56,-172.99 301,-87 304.79,-82.44 309.53,-78.74 314.72,-75.75"/>
<polygon fill="#63b8ff" stroke="#63b8ff" points="201.46,-637.71 204.54,-647.84 208.45,-638 201.46,-637.71"/>
</a>
</g>
</g>
<!-- Node39 -->
<g id="Node000039" class="node">
<title>Node39</title>
<g id="a_Node000039"><a xlink:href="classtracktion_1_1engine_1_1VolumeAndPanPlugin.html" target="_top" xlink:title="The built&#45;in Tracktion volume/pan plugin.">
<polygon fill="white" stroke="#666666" points="427,-30 308,-30 308,0 427,0 427,-30"/>
<text text-anchor="start" x="316" y="-18" font-family="Helvetica,sans-Serif" font-size="10.00">tracktion::engine::</text>
<text text-anchor="middle" x="367.5" y="-7" font-family="Helvetica,sans-Serif" font-size="10.00">VolumeAndPanPlugin</text>
</a>
</g>
</g>
<!-- Node12&#45;&gt;Node39 -->
<g id="edge38_Node000012_Node000039" class="edge">
<title>Node12&#45;&gt;Node39</title>
<g id="a_edge38_Node000012_Node000039"><a xlink:title=" ">
<path fill="none" stroke="#63b8ff" d="M204.6,-637.74C207.57,-532.88 223.86,-133.05 301,-39 303.84,-35.54 307.23,-32.57 310.95,-30.03"/>
<polygon fill="#63b8ff" stroke="#63b8ff" points="201.1,-637.64 204.33,-647.73 208.1,-637.83 201.1,-637.64"/>
</a>
</g>
</g>
</g>
</svg>
