<?xml version="1.0" encoding="UTF-8" standalone="no"?>
<!DOCTYPE svg PUBLIC "-//W3C//DTD SVG 1.1//EN"
 "http://www.w3.org/Graphics/SVG/1.1/DTD/svg11.dtd">
<!-- Generated by graphviz version 2.40.1 (20161225.0304)
 -->
<!-- Title: tracktion_engine::OutputDeviceInstance Pages: 1 -->
<svg width="316pt" height="88pt"
 viewBox="0.00 0.00 316.00 88.00" xmlns="http://www.w3.org/2000/svg" xmlns:xlink="http://www.w3.org/1999/xlink">
<g id="graph0" class="graph" transform="scale(1 1) rotate(0) translate(4 84)">
<title>tracktion_engine::OutputDeviceInstance</title>
<!-- Node0 -->
<g id="node1" class="node">
<title>Node0</title>
<polygon fill="#bfbfbf" stroke="#000000" points="0,-24.5 0,-54.5 123,-54.5 123,-24.5 0,-24.5"/>
<text text-anchor="start" x="8" y="-42.5" font-family="Helvetica,sans-Serif" font-size="10.00" fill="#000000">tracktion_engine::Output</text>
<text text-anchor="middle" x="61.5" y="-31.5" font-family="Helvetica,sans-Serif" font-size="10.00" fill="#000000">DeviceInstance</text>
</g>
<!-- Node1 -->
<g id="node2" class="node">
<title>Node1</title>
<g id="a_node2"><a xlink:href="classtracktion__engine_1_1MidiOutputDeviceInstance.html" target="_top" xlink:title="tracktion_engine::MidiOutput\lDeviceInstance">
<polygon fill="none" stroke="#000000" points="163,-49.5 163,-79.5 304,-79.5 304,-49.5 163,-49.5"/>
<text text-anchor="start" x="171" y="-67.5" font-family="Helvetica,sans-Serif" font-size="10.00" fill="#000000">tracktion_engine::MidiOutput</text>
<text text-anchor="middle" x="233.5" y="-56.5" font-family="Helvetica,sans-Serif" font-size="10.00" fill="#000000">DeviceInstance</text>
</a>
</g>
</g>
<!-- Node0&#45;&gt;Node1 -->
<g id="edge1" class="edge">
<title>Node0&#45;&gt;Node1</title>
<path fill="none" stroke="#191970" d="M133.2377,-49.927C143.0662,-51.3556 153.1505,-52.8213 162.9575,-54.2467"/>
<polygon fill="#191970" stroke="#191970" points="133.5096,-46.4298 123.1101,-48.455 132.5027,-53.357 133.5096,-46.4298"/>
</g>
<!-- Node2 -->
<g id="node3" class="node">
<title>Node2</title>
<g id="a_node3"><a xlink:href="classtracktion__engine_1_1WaveOutputDeviceInstance.html" target="_top" xlink:title="tracktion_engine::WaveOutput\lDeviceInstance">
<polygon fill="none" stroke="#000000" points="159,-.5 159,-30.5 308,-30.5 308,-.5 159,-.5"/>
<text text-anchor="start" x="167" y="-18.5" font-family="Helvetica,sans-Serif" font-size="10.00" fill="#000000">tracktion_engine::WaveOutput</text>
<text text-anchor="middle" x="233.5" y="-7.5" font-family="Helvetica,sans-Serif" font-size="10.00" fill="#000000">DeviceInstance</text>
</a>
</g>
</g>
<!-- Node0&#45;&gt;Node2 -->
<g id="edge2" class="edge">
<title>Node0&#45;&gt;Node2</title>
<path fill="none" stroke="#191970" d="M133.2794,-29.4843C141.7111,-28.3078 150.3304,-27.1051 158.8009,-25.9231"/>
<polygon fill="#191970" stroke="#191970" points="132.5305,-26.0548 123.1101,-30.9032 133.4979,-32.9876 132.5305,-26.0548"/>
</g>
</g>
</svg>
