<?xml version="1.0" encoding="UTF-8" standalone="no"?>
<!DOCTYPE svg PUBLIC "-//W3C//DTD SVG 1.1//EN"
 "http://www.w3.org/Graphics/SVG/1.1/DTD/svg11.dtd">
<!-- Generated by graphviz version 2.43.0 (0)
 -->
<!-- Title: tracktion::engine::ExternalController Pages: 1 -->
<svg width="279pt" height="98pt"
 viewBox="0.00 0.00 279.00 97.50" xmlns="http://www.w3.org/2000/svg" xmlns:xlink="http://www.w3.org/1999/xlink">
<g id="graph0" class="graph" transform="scale(1 1) rotate(0) translate(4 93.5)">
<title>tracktion::engine::ExternalController</title>
<!-- Node1 -->
<g id="Node000001" class="node">
<title>Node1</title>
<g id="a_Node000001"><a xlink:title="Acts as a holder for a ControlSurface object.">
<polygon fill="#999999" stroke="#666666" points="271,-62.5 166,-62.5 166,-32.5 271,-32.5 271,-62.5"/>
<text text-anchor="start" x="174" y="-50.5" font-family="Helvetica,sans-Serif" font-size="10.00">tracktion::engine::</text>
<text text-anchor="middle" x="218.5" y="-39.5" font-family="Helvetica,sans-Serif" font-size="10.00">ExternalController</text>
</a>
</g>
</g>
<!-- Node2 -->
<g id="Node000002" class="node">
<title>Node2</title>
<g id="a_Node000002"><a xlink:href="classtracktion_1_1engine_1_1SelectableListener.html" target="_top" xlink:title=" ">
<polygon fill="white" stroke="#666666" points="118.5,-89.5 11.5,-89.5 11.5,-59.5 118.5,-59.5 118.5,-89.5"/>
<text text-anchor="start" x="19.5" y="-77.5" font-family="Helvetica,sans-Serif" font-size="10.00">tracktion::engine::</text>
<text text-anchor="middle" x="65" y="-66.5" font-family="Helvetica,sans-Serif" font-size="10.00">SelectableListener</text>
</a>
</g>
</g>
<!-- Node2&#45;&gt;Node1 -->
<g id="edge1_Node000001_Node000002" class="edge">
<title>Node2&#45;&gt;Node1</title>
<g id="a_edge1_Node000001_Node000002"><a xlink:title=" ">
<path fill="none" stroke="#8b1a1a" d="M128.77,-63.31C141.09,-61.12 153.89,-58.84 165.8,-56.71"/>
<polygon fill="#8b1a1a" stroke="#8b1a1a" points="127.79,-59.93 118.56,-65.13 129.02,-66.82 127.79,-59.93"/>
</a>
</g>
</g>
<!-- Node3 -->
<g id="Node000003" class="node">
<title>Node3</title>
<g id="a_Node000003"><a xlink:href="structtracktion_1_1engine_1_1AutomatableParameter_1_1Listener.html" target="_top" xlink:title=" ">
<polygon fill="white" stroke="#666666" points="130,-41 0,-41 0,0 130,0 130,-41"/>
<text text-anchor="start" x="8" y="-29" font-family="Helvetica,sans-Serif" font-size="10.00">tracktion::engine::</text>
<text text-anchor="start" x="8" y="-18" font-family="Helvetica,sans-Serif" font-size="10.00">AutomatableParameter</text>
<text text-anchor="middle" x="65" y="-7" font-family="Helvetica,sans-Serif" font-size="10.00">::Listener</text>
</a>
</g>
</g>
<!-- Node3&#45;&gt;Node1 -->
<g id="edge2_Node000001_Node000003" class="edge">
<title>Node3&#45;&gt;Node1</title>
<g id="a_edge2_Node000001_Node000003"><a xlink:title=" ">
<path fill="none" stroke="#8b1a1a" d="M140.25,-33.73C148.8,-35.26 157.37,-36.78 165.54,-38.24"/>
<polygon fill="#8b1a1a" stroke="#8b1a1a" points="140.71,-30.26 130.25,-31.95 139.48,-37.15 140.71,-30.26"/>
</a>
</g>
</g>
</g>
</svg>
