<?xml version="1.0" encoding="UTF-8" standalone="no"?>
<!DOCTYPE svg PUBLIC "-//W3C//DTD SVG 1.1//EN"
 "http://www.w3.org/Graphics/SVG/1.1/DTD/svg11.dtd">
<!-- Generated by graphviz version 2.40.1 (20161225.0304)
 -->
<!-- Title: tracktion_graph::Node Pages: 1 -->
<svg width="336pt" height="610pt"
 viewBox="0.00 0.00 336.00 610.00" xmlns="http://www.w3.org/2000/svg" xmlns:xlink="http://www.w3.org/1999/xlink">
<g id="graph0" class="graph" transform="scale(1 1) rotate(0) translate(4 606)">
<title>tracktion_graph::Node</title>
<!-- Node0 -->
<g id="node1" class="node">
<title>Node0</title>
<polygon fill="#bfbfbf" stroke="#000000" points="0,-285.5 0,-304.5 113,-304.5 113,-285.5 0,-285.5"/>
<text text-anchor="middle" x="56.5" y="-292.5" font-family="Helvetica,sans-Serif" font-size="10.00" fill="#000000">tracktion_graph::Node</text>
</g>
<!-- Node1 -->
<g id="node2" class="node">
<title>Node1</title>
<g id="a_node2"><a xlink:href="classtracktion__engine_1_1ForwardingNode.html" target="_top" xlink:title="Takes a non&#45;owning input node and simply forwards its outputs on. ">
<polygon fill="none" stroke="#000000" points="156,-582.5 156,-601.5 321,-601.5 321,-582.5 156,-582.5"/>
<text text-anchor="middle" x="238.5" y="-589.5" font-family="Helvetica,sans-Serif" font-size="10.00" fill="#000000">tracktion_engine::ForwardingNode</text>
</a>
</g>
</g>
<!-- Node0&#45;&gt;Node1 -->
<g id="edge1" class="edge">
<title>Node0&#45;&gt;Node1</title>
<path fill="none" stroke="#191970" d="M60.3713,-314.4857C72.1171,-371.6701 109.0015,-537.2489 149,-573 153.2636,-576.8108 158.0979,-579.9256 163.2581,-582.4647"/>
<polygon fill="#191970" stroke="#191970" points="63.7776,-313.6719 58.3638,-304.5647 56.9166,-315.0602 63.7776,-313.6719"/>
</g>
<!-- Node2 -->
<g id="node3" class="node">
<title>Node2</title>
<g id="a_node3"><a xlink:href="classtracktion__engine_1_1HoldingNode.html" target="_top" xlink:title="Takes ownership of a number of nodes but doesn&#39;t do any processing. ">
<polygon fill="none" stroke="#000000" points="163.5,-544.5 163.5,-563.5 313.5,-563.5 313.5,-544.5 163.5,-544.5"/>
<text text-anchor="middle" x="238.5" y="-551.5" font-family="Helvetica,sans-Serif" font-size="10.00" fill="#000000">tracktion_engine::HoldingNode</text>
</a>
</g>
</g>
<!-- Node0&#45;&gt;Node2 -->
<g id="edge2" class="edge">
<title>Node0&#45;&gt;Node2</title>
<path fill="none" stroke="#191970" d="M57.9563,-314.7938C62.4709,-361.0057 80.4003,-476.5056 149,-535 153.4722,-538.8134 158.5212,-541.9213 163.8869,-544.4482"/>
<polygon fill="#191970" stroke="#191970" points="61.4246,-314.2755 57.0749,-304.6147 54.4507,-314.8794 61.4246,-314.2755"/>
</g>
<!-- Node3 -->
<g id="node4" class="node">
<title>Node3</title>
<g id="a_node4"><a xlink:href="classtracktion__engine_1_1InputNode.html" target="_top" xlink:title="tracktion_engine::InputNode">
<polygon fill="none" stroke="#000000" points="169,-506.5 169,-525.5 308,-525.5 308,-506.5 169,-506.5"/>
<text text-anchor="middle" x="238.5" y="-513.5" font-family="Helvetica,sans-Serif" font-size="10.00" fill="#000000">tracktion_engine::InputNode</text>
</a>
</g>
</g>
<!-- Node0&#45;&gt;Node3 -->
<g id="edge3" class="edge">
<title>Node0&#45;&gt;Node3</title>
<path fill="none" stroke="#191970" d="M59.5779,-314.9707C66.9962,-355.9401 89.8341,-449.615 149,-497 154.8272,-501.6669 161.5315,-505.2606 168.5944,-508.0179"/>
<polygon fill="#191970" stroke="#191970" points="62.9928,-314.1731 57.877,-304.8952 56.0905,-315.3383 62.9928,-314.1731"/>
</g>
<!-- Node4 -->
<g id="node5" class="node">
<title>Node4</title>
<g id="a_node5"><a xlink:href="classtracktion__engine_1_1ModifierNode.html" target="_top" xlink:title="tracktion_engine::ModifierNode">
<polygon fill="none" stroke="#000000" points="162.5,-468.5 162.5,-487.5 314.5,-487.5 314.5,-468.5 162.5,-468.5"/>
<text text-anchor="middle" x="238.5" y="-475.5" font-family="Helvetica,sans-Serif" font-size="10.00" fill="#000000">tracktion_engine::ModifierNode</text>
</a>
</g>
</g>
<!-- Node0&#45;&gt;Node4 -->
<g id="edge4" class="edge">
<title>Node0&#45;&gt;Node4</title>
<path fill="none" stroke="#191970" d="M61.7261,-314.5355C72.1202,-349.41 98.8284,-422.1713 149,-459 154.25,-462.8538 160.1141,-465.9605 166.2608,-468.4606"/>
<polygon fill="#191970" stroke="#191970" points="65.014,-313.3011 58.9156,-304.6374 58.2802,-315.2132 65.014,-313.3011"/>
</g>
<!-- Node5 -->
<g id="node6" class="node">
<title>Node5</title>
<g id="a_node6"><a xlink:href="classtracktion__engine_1_1PluginNode.html" target="_top" xlink:title="tracktion_engine::PluginNode">
<polygon fill="none" stroke="#000000" points="166.5,-430.5 166.5,-449.5 310.5,-449.5 310.5,-430.5 166.5,-430.5"/>
<text text-anchor="middle" x="238.5" y="-437.5" font-family="Helvetica,sans-Serif" font-size="10.00" fill="#000000">tracktion_engine::PluginNode</text>
</a>
</g>
</g>
<!-- Node0&#45;&gt;Node5 -->
<g id="edge5" class="edge">
<title>Node0&#45;&gt;Node5</title>
<path fill="none" stroke="#191970" d="M64.8875,-313.9268C78.3611,-342.0066 107.5803,-394.2546 149,-421 155.0049,-424.8775 161.6642,-427.9789 168.5623,-430.4572"/>
<polygon fill="#191970" stroke="#191970" points="68.023,-312.3685 60.6426,-304.7671 61.6719,-315.3119 68.023,-312.3685"/>
</g>
<!-- Node6 -->
<g id="node7" class="node">
<title>Node6</title>
<g id="a_node7"><a xlink:href="classtracktion__graph_1_1BasicSummingNode.html" target="_top" xlink:title="tracktion_graph::BasicSummingNode">
<polygon fill="none" stroke="#000000" points="149,-392.5 149,-411.5 328,-411.5 328,-392.5 149,-392.5"/>
<text text-anchor="middle" x="238.5" y="-399.5" font-family="Helvetica,sans-Serif" font-size="10.00" fill="#000000">tracktion_graph::BasicSummingNode</text>
</a>
</g>
</g>
<!-- Node0&#45;&gt;Node6 -->
<g id="edge6" class="edge">
<title>Node0&#45;&gt;Node6</title>
<path fill="none" stroke="#191970" d="M70.0613,-312.8504C86.4704,-333.1232 116.0299,-365.6326 149,-383 156.308,-386.8496 164.3399,-389.9192 172.5,-392.3669"/>
<polygon fill="#191970" stroke="#191970" points="72.6108,-310.4307 63.6721,-304.7429 67.1128,-314.7635 72.6108,-310.4307"/>
</g>
<!-- Node7 -->
<g id="node8" class="node">
<title>Node7</title>
<g id="a_node8"><a xlink:href="classtracktion__graph_1_1ChannelRemappingNode.html" target="_top" xlink:title="Maps channels from one to another. ">
<polygon fill="none" stroke="#000000" points="176,-343 176,-373 301,-373 301,-343 176,-343"/>
<text text-anchor="start" x="184" y="-361" font-family="Helvetica,sans-Serif" font-size="10.00" fill="#000000">tracktion_graph::Channel</text>
<text text-anchor="middle" x="238.5" y="-350" font-family="Helvetica,sans-Serif" font-size="10.00" fill="#000000">RemappingNode</text>
</a>
</g>
</g>
<!-- Node0&#45;&gt;Node7 -->
<g id="edge7" class="edge">
<title>Node0&#45;&gt;Node7</title>
<path fill="none" stroke="#191970" d="M87.2374,-308.6892C105.0739,-316.3641 128.0819,-325.8096 149,-333 159.2221,-336.5137 170.224,-339.9007 180.8973,-342.9865"/>
<polygon fill="#191970" stroke="#191970" points="88.4726,-305.4099 77.9063,-304.6331 85.682,-311.8296 88.4726,-305.4099"/>
</g>
<!-- Node8 -->
<g id="node9" class="node">
<title>Node8</title>
<g id="a_node9"><a xlink:href="classtracktion__graph_1_1FunctionNode.html" target="_top" xlink:title="tracktion_graph::FunctionNode">
<polygon fill="none" stroke="#000000" points="163.5,-304.5 163.5,-323.5 313.5,-323.5 313.5,-304.5 163.5,-304.5"/>
<text text-anchor="middle" x="238.5" y="-311.5" font-family="Helvetica,sans-Serif" font-size="10.00" fill="#000000">tracktion_graph::FunctionNode</text>
</a>
</g>
</g>
<!-- Node0&#45;&gt;Node8 -->
<g id="edge8" class="edge">
<title>Node0&#45;&gt;Node8</title>
<path fill="none" stroke="#191970" d="M123.3214,-301.9759C136.2981,-303.3306 149.9819,-304.7591 163.2092,-306.14"/>
<polygon fill="#191970" stroke="#191970" points="123.3977,-298.4649 113.0883,-300.9076 122.6708,-305.4271 123.3977,-298.4649"/>
</g>
<!-- Node9 -->
<g id="node10" class="node">
<title>Node9</title>
<g id="a_node10"><a xlink:href="classtracktion__graph_1_1LatencyNode.html" target="_top" xlink:title="tracktion_graph::LatencyNode">
<polygon fill="none" stroke="#000000" points="165,-266.5 165,-285.5 312,-285.5 312,-266.5 165,-266.5"/>
<text text-anchor="middle" x="238.5" y="-273.5" font-family="Helvetica,sans-Serif" font-size="10.00" fill="#000000">tracktion_graph::LatencyNode</text>
</a>
</g>
</g>
<!-- Node0&#45;&gt;Node9 -->
<g id="edge9" class="edge">
<title>Node0&#45;&gt;Node9</title>
<path fill="none" stroke="#191970" d="M123.2656,-288.03C136.7997,-286.6171 151.1052,-285.1236 164.861,-283.6876"/>
<polygon fill="#191970" stroke="#191970" points="122.6708,-284.5729 113.0883,-289.0924 123.3977,-291.5351 122.6708,-284.5729"/>
</g>
<!-- Node10 -->
<g id="node11" class="node">
<title>Node10</title>
<g id="a_node11"><a xlink:href="classtracktion__graph_1_1MidiNode.html" target="_top" xlink:title="Plays back a MIDI sequence. ">
<polygon fill="none" stroke="#000000" points="173,-228.5 173,-247.5 304,-247.5 304,-228.5 173,-228.5"/>
<text text-anchor="middle" x="238.5" y="-235.5" font-family="Helvetica,sans-Serif" font-size="10.00" fill="#000000">tracktion_graph::MidiNode</text>
</a>
</g>
</g>
<!-- Node0&#45;&gt;Node10 -->
<g id="edge10" class="edge">
<title>Node0&#45;&gt;Node10</title>
<path fill="none" stroke="#191970" d="M86.0196,-281.2731C103.9412,-273.3446 127.4453,-263.6556 149,-257 160.6866,-253.3915 173.44,-250.2348 185.5612,-247.5846"/>
<polygon fill="#191970" stroke="#191970" points="84.373,-278.1758 76.6854,-285.4662 87.2415,-284.5611 84.373,-278.1758"/>
</g>
<!-- Node11 -->
<g id="node12" class="node">
<title>Node11</title>
<g id="a_node12"><a xlink:href="classtracktion__graph_1_1ReturnNode.html" target="_top" xlink:title="tracktion_graph::ReturnNode">
<polygon fill="none" stroke="#000000" points="167.5,-190.5 167.5,-209.5 309.5,-209.5 309.5,-190.5 167.5,-190.5"/>
<text text-anchor="middle" x="238.5" y="-197.5" font-family="Helvetica,sans-Serif" font-size="10.00" fill="#000000">tracktion_graph::ReturnNode</text>
</a>
</g>
</g>
<!-- Node0&#45;&gt;Node11 -->
<g id="edge11" class="edge">
<title>Node0&#45;&gt;Node11</title>
<path fill="none" stroke="#191970" d="M72.1566,-278.0235C89.3079,-260.4945 118.4662,-233.6925 149,-219 157.0156,-215.143 165.8071,-212.0642 174.6515,-209.6078"/>
<polygon fill="#191970" stroke="#191970" points="69.5362,-275.6996 65.1593,-285.3481 74.5978,-280.5349 69.5362,-275.6996"/>
</g>
<!-- Node12 -->
<g id="node13" class="node">
<title>Node12</title>
<g id="a_node13"><a xlink:href="classtracktion__graph_1_1SendNode.html" target="_top" xlink:title="tracktion_graph::SendNode">
<polygon fill="none" stroke="#000000" points="171,-152.5 171,-171.5 306,-171.5 306,-152.5 171,-152.5"/>
<text text-anchor="middle" x="238.5" y="-159.5" font-family="Helvetica,sans-Serif" font-size="10.00" fill="#000000">tracktion_graph::SendNode</text>
</a>
</g>
</g>
<!-- Node0&#45;&gt;Node12 -->
<g id="edge12" class="edge">
<title>Node0&#45;&gt;Node12</title>
<path fill="none" stroke="#191970" d="M66.3871,-276.0535C80.8838,-250.2591 110.4239,-204.6068 149,-181 155.6389,-176.9373 163.0154,-173.7337 170.6037,-171.2093"/>
<polygon fill="#191970" stroke="#191970" points="63.1276,-274.721 61.4234,-285.1779 69.2767,-278.0662 63.1276,-274.721"/>
</g>
<!-- Node13 -->
<g id="node14" class="node">
<title>Node13</title>
<g id="a_node14"><a xlink:href="classtracktion__graph_1_1SilentNode.html" target="_top" xlink:title="Just a simple audio node that doesn&#39;t take any input so can be used as a stub. ">
<polygon fill="none" stroke="#000000" points="170,-114.5 170,-133.5 307,-133.5 307,-114.5 170,-114.5"/>
<text text-anchor="middle" x="238.5" y="-121.5" font-family="Helvetica,sans-Serif" font-size="10.00" fill="#000000">tracktion_graph::SilentNode</text>
</a>
</g>
</g>
<!-- Node0&#45;&gt;Node13 -->
<g id="edge13" class="edge">
<title>Node0&#45;&gt;Node13</title>
<path fill="none" stroke="#191970" d="M62.6247,-275.5138C74.0107,-242.6572 101.6779,-176.5448 149,-143 155.2203,-138.5907 162.2544,-135.1669 169.5786,-132.5141"/>
<polygon fill="#191970" stroke="#191970" points="59.2094,-274.6931 59.3826,-285.2865 65.8534,-276.8972 59.2094,-274.6931"/>
</g>
<!-- Node14 -->
<g id="node15" class="node">
<title>Node14</title>
<g id="a_node15"><a xlink:href="classtracktion__graph_1_1SinkNode.html" target="_top" xlink:title="Blocks audio and MIDI input from reaching the outputs. ">
<polygon fill="none" stroke="#000000" points="172.5,-76.5 172.5,-95.5 304.5,-95.5 304.5,-76.5 172.5,-76.5"/>
<text text-anchor="middle" x="238.5" y="-83.5" font-family="Helvetica,sans-Serif" font-size="10.00" fill="#000000">tracktion_graph::SinkNode</text>
</a>
</g>
</g>
<!-- Node0&#45;&gt;Node14 -->
<g id="edge14" class="edge">
<title>Node0&#45;&gt;Node14</title>
<path fill="none" stroke="#191970" d="M60.1277,-275.397C68.4214,-236.4085 92.5801,-149.1012 149,-105 155.8832,-99.6197 163.9399,-95.6742 172.3481,-92.7955"/>
<polygon fill="#191970" stroke="#191970" points="56.6884,-274.7475 58.1575,-285.24 63.5523,-276.1215 56.6884,-274.7475"/>
</g>
<!-- Node15 -->
<g id="node16" class="node">
<title>Node15</title>
<g id="a_node16"><a xlink:href="classtracktion__graph_1_1SinNode.html" target="_top" xlink:title="tracktion_graph::SinNode">
<polygon fill="none" stroke="#000000" points="175,-38.5 175,-57.5 302,-57.5 302,-38.5 175,-38.5"/>
<text text-anchor="middle" x="238.5" y="-45.5" font-family="Helvetica,sans-Serif" font-size="10.00" fill="#000000">tracktion_graph::SinNode</text>
</a>
</g>
</g>
<!-- Node0&#45;&gt;Node15 -->
<g id="edge15" class="edge">
<title>Node0&#45;&gt;Node15</title>
<path fill="none" stroke="#191970" d="M58.3965,-275.2813C63.7833,-230.75 83.3296,-122.0093 149,-67 156.4279,-60.778 165.3975,-56.4424 174.7525,-53.4474"/>
<polygon fill="#191970" stroke="#191970" points="54.9008,-275.0513 57.2905,-285.3731 61.8592,-275.8139 54.9008,-275.0513"/>
</g>
<!-- Node16 -->
<g id="node17" class="node">
<title>Node16</title>
<g id="a_node17"><a xlink:href="classtracktion__graph_1_1SummingNode.html" target="_top" xlink:title="An Node which sums together the multiple inputs adding additional latency to provide a coherent outpu...">
<polygon fill="none" stroke="#000000" points="161.5,-.5 161.5,-19.5 315.5,-19.5 315.5,-.5 161.5,-.5"/>
<text text-anchor="middle" x="238.5" y="-7.5" font-family="Helvetica,sans-Serif" font-size="10.00" fill="#000000">tracktion_graph::SummingNode</text>
</a>
</g>
</g>
<!-- Node0&#45;&gt;Node16 -->
<g id="edge16" class="edge">
<title>Node0&#45;&gt;Node16</title>
<path fill="none" stroke="#191970" d="M60.7337,-275.2622C73.0741,-219.5423 110.5743,-62.8831 149,-29 153.2891,-25.218 158.1418,-22.1239 163.3147,-19.5991"/>
<polygon fill="#191970" stroke="#191970" points="57.2628,-274.7516 58.5493,-285.268 64.1017,-276.2446 57.2628,-274.7516"/>
</g>
</g>
</svg>
