<?xml version="1.0" encoding="UTF-8" standalone="no"?>
<!DOCTYPE svg PUBLIC "-//W3C//DTD SVG 1.1//EN"
 "http://www.w3.org/Graphics/SVG/1.1/DTD/svg11.dtd">
<!-- Generated by graphviz version 2.43.0 (0)
 -->
<!-- Title: tracktion_engine::AudioNode Pages: 1 -->
<svg width="605pt" height="225pt"
 viewBox="0.00 0.00 605.00 224.50" xmlns="http://www.w3.org/2000/svg" xmlns:xlink="http://www.w3.org/1999/xlink">
<g id="graph0" class="graph" transform="scale(1 1) rotate(0) translate(4 220.5)">
<title>tracktion_engine::AudioNode</title>
<!-- Node1 -->
<g id="node1" class="node">
<title>Node1</title>
<g id="a_node1"><a xlink:title="Base class for nodes in an audio playback graph.">
<polygon fill="#bfbfbf" stroke="black" points="0,-93.5 0,-112.5 158,-112.5 158,-93.5 0,-93.5"/>
<text text-anchor="middle" x="79" y="-100.5" font-family="Helvetica,sans-Serif" font-size="10.00">tracktion_engine::AudioNode</text>
</a>
</g>
</g>
<!-- Node2 -->
<g id="node2" class="node">
<title>Node2</title>
<g id="a_node2"><a xlink:href="classtracktion__engine_1_1CombiningAudioNode.html" target="_top" xlink:title="An AudioNode that mixes a sequence of clips of other nodes.">
<polygon fill="none" stroke="black" points="208,-186 208,-216 365,-216 365,-186 208,-186"/>
<text text-anchor="start" x="216" y="-204" font-family="Helvetica,sans-Serif" font-size="10.00">tracktion_engine::Combining</text>
<text text-anchor="middle" x="286.5" y="-193" font-family="Helvetica,sans-Serif" font-size="10.00">AudioNode</text>
</a>
</g>
</g>
<!-- Node1&#45;&gt;Node2 -->
<g id="edge1" class="edge">
<title>Node1&#45;&gt;Node2</title>
<path fill="none" stroke="midnightblue" d="M100.08,-118.9C122.01,-135.55 158.72,-161.41 194,-177 201.66,-180.39 209.9,-183.37 218.18,-185.99"/>
<polygon fill="midnightblue" stroke="midnightblue" points="101.96,-115.93 91.91,-112.59 97.69,-121.47 101.96,-115.93"/>
</g>
<!-- Node3 -->
<g id="node3" class="node">
<title>Node3</title>
<g id="a_node3"><a xlink:href="classtracktion__engine_1_1PluginAudioNode.html" target="_top" xlink:title=" ">
<polygon fill="none" stroke="black" points="219.5,-137 219.5,-167 353.5,-167 353.5,-137 219.5,-137"/>
<text text-anchor="start" x="227.5" y="-155" font-family="Helvetica,sans-Serif" font-size="10.00">tracktion_engine::Plugin</text>
<text text-anchor="middle" x="286.5" y="-144" font-family="Helvetica,sans-Serif" font-size="10.00">AudioNode</text>
</a>
</g>
</g>
<!-- Node1&#45;&gt;Node3 -->
<g id="edge2" class="edge">
<title>Node1&#45;&gt;Node3</title>
<path fill="none" stroke="midnightblue" d="M130.02,-114.93C157.85,-121.56 192.75,-129.89 222.44,-136.96"/>
<polygon fill="midnightblue" stroke="midnightblue" points="130.65,-111.48 120.11,-112.56 129.03,-118.29 130.65,-111.48"/>
</g>
<!-- Node4 -->
<g id="node4" class="node">
<title>Node4</title>
<g id="a_node4"><a xlink:href="classtracktion__engine_1_1SingleInputAudioNode.html" target="_top" xlink:title=" ">
<polygon fill="none" stroke="black" points="219.5,-88 219.5,-118 353.5,-118 353.5,-88 219.5,-88"/>
<text text-anchor="start" x="227.5" y="-106" font-family="Helvetica,sans-Serif" font-size="10.00">tracktion_engine::Single</text>
<text text-anchor="middle" x="286.5" y="-95" font-family="Helvetica,sans-Serif" font-size="10.00">InputAudioNode</text>
</a>
</g>
</g>
<!-- Node1&#45;&gt;Node4 -->
<g id="edge3" class="edge">
<title>Node1&#45;&gt;Node4</title>
<path fill="none" stroke="midnightblue" d="M168.31,-103C185.48,-103 203.19,-103 219.49,-103"/>
<polygon fill="midnightblue" stroke="midnightblue" points="168.28,-99.5 158.28,-103 168.28,-106.5 168.28,-99.5"/>
</g>
<!-- Node9 -->
<g id="node9" class="node">
<title>Node9</title>
<g id="a_node9"><a xlink:href="classtracktion__engine_1_1SubSampleWaveAudioNode.html" target="_top" xlink:title=" ">
<polygon fill="none" stroke="black" points="207,-39 207,-69 366,-69 366,-39 207,-39"/>
<text text-anchor="start" x="215" y="-57" font-family="Helvetica,sans-Serif" font-size="10.00">tracktion_engine::SubSample</text>
<text text-anchor="middle" x="286.5" y="-46" font-family="Helvetica,sans-Serif" font-size="10.00">WaveAudioNode</text>
</a>
</g>
</g>
<!-- Node1&#45;&gt;Node9 -->
<g id="edge8" class="edge">
<title>Node1&#45;&gt;Node9</title>
<path fill="none" stroke="midnightblue" d="M130.02,-91.07C157.85,-84.44 192.75,-76.11 222.44,-69.04"/>
<polygon fill="midnightblue" stroke="midnightblue" points="129.03,-87.71 120.11,-93.44 130.65,-94.52 129.03,-87.71"/>
</g>
<!-- Node10 -->
<g id="node10" class="node">
<title>Node10</title>
<g id="a_node10"><a xlink:href="classtracktion__engine_1_1WaveAudioNode.html" target="_top" xlink:title="An AudioNode that plays back a wave file.">
<polygon fill="none" stroke="black" points="194,-0.5 194,-19.5 379,-19.5 379,-0.5 194,-0.5"/>
<text text-anchor="middle" x="286.5" y="-7.5" font-family="Helvetica,sans-Serif" font-size="10.00">tracktion_engine::WaveAudioNode</text>
</a>
</g>
</g>
<!-- Node1&#45;&gt;Node10 -->
<g id="edge9" class="edge">
<title>Node1&#45;&gt;Node10</title>
<path fill="none" stroke="midnightblue" d="M99.58,-87.01C121.33,-70.06 158.13,-43.75 194,-29 203.3,-25.17 213.47,-22.09 223.53,-19.6"/>
<polygon fill="midnightblue" stroke="midnightblue" points="97.15,-84.47 91.49,-93.43 101.5,-89.96 97.15,-84.47"/>
</g>
<!-- Node5 -->
<g id="node5" class="node">
<title>Node5</title>
<g id="a_node5"><a xlink:href="classtracktion__engine_1_1FadeInOutAudioNode.html" target="_top" xlink:title="An AudioNode that fades its input node in/out at given times.">
<polygon fill="none" stroke="black" points="438,-154 438,-184 574,-184 574,-154 438,-154"/>
<text text-anchor="start" x="446" y="-172" font-family="Helvetica,sans-Serif" font-size="10.00">tracktion_engine::FadeIn</text>
<text text-anchor="middle" x="506" y="-161" font-family="Helvetica,sans-Serif" font-size="10.00">OutAudioNode</text>
</a>
</g>
</g>
<!-- Node4&#45;&gt;Node5 -->
<g id="edge4" class="edge">
<title>Node4&#45;&gt;Node5</title>
<path fill="none" stroke="midnightblue" d="M357.78,-121.03C364.99,-123.23 372.17,-125.57 379,-128 395.49,-133.88 398.52,-138.09 415,-144 424.92,-147.56 435.61,-150.93 446.03,-153.96"/>
<polygon fill="midnightblue" stroke="midnightblue" points="358.53,-117.61 347.95,-118.12 356.55,-124.32 358.53,-117.61"/>
</g>
<!-- Node6 -->
<g id="node6" class="node">
<title>Node6</title>
<g id="a_node6"><a xlink:href="structtracktion__engine_1_1MuteAudioNode.html" target="_top" xlink:title=" ">
<polygon fill="none" stroke="black" points="415,-115.5 415,-134.5 597,-134.5 597,-115.5 415,-115.5"/>
<text text-anchor="middle" x="506" y="-122.5" font-family="Helvetica,sans-Serif" font-size="10.00">tracktion_engine::MuteAudioNode</text>
</a>
</g>
</g>
<!-- Node4&#45;&gt;Node6 -->
<g id="edge5" class="edge">
<title>Node4&#45;&gt;Node6</title>
<path fill="none" stroke="midnightblue" d="M363.74,-110.71C380.21,-112.38 397.77,-114.15 414.72,-115.87"/>
<polygon fill="midnightblue" stroke="midnightblue" points="363.94,-107.21 353.64,-109.69 363.24,-114.18 363.94,-107.21"/>
</g>
<!-- Node7 -->
<g id="node7" class="node">
<title>Node7</title>
<g id="a_node7"><a xlink:href="classtracktion__engine_1_1SpeedRampAudioNode.html" target="_top" xlink:title="An AudioNode that speeds up and slows down its input node in/out at given times.">
<polygon fill="none" stroke="black" points="424.5,-66 424.5,-96 587.5,-96 587.5,-66 424.5,-66"/>
<text text-anchor="start" x="432.5" y="-84" font-family="Helvetica,sans-Serif" font-size="10.00">tracktion_engine::SpeedRamp</text>
<text text-anchor="middle" x="506" y="-73" font-family="Helvetica,sans-Serif" font-size="10.00">AudioNode</text>
</a>
</g>
</g>
<!-- Node4&#45;&gt;Node7 -->
<g id="edge6" class="edge">
<title>Node4&#45;&gt;Node7</title>
<path fill="none" stroke="midnightblue" d="M363.72,-95.29C383.29,-93.31 404.41,-91.17 424.21,-89.17"/>
<polygon fill="midnightblue" stroke="midnightblue" points="363.24,-91.82 353.64,-96.31 363.94,-98.79 363.24,-91.82"/>
</g>
<!-- Node8 -->
<g id="node8" class="node">
<title>Node8</title>
<g id="a_node8"><a xlink:href="classtracktion__engine_1_1TimedMutingAudioNode.html" target="_top" xlink:title=" ">
<polygon fill="none" stroke="black" points="421.5,-17 421.5,-47 590.5,-47 590.5,-17 421.5,-17"/>
<text text-anchor="start" x="429.5" y="-35" font-family="Helvetica,sans-Serif" font-size="10.00">tracktion_engine::TimedMuting</text>
<text text-anchor="middle" x="506" y="-24" font-family="Helvetica,sans-Serif" font-size="10.00">AudioNode</text>
</a>
</g>
</g>
<!-- Node4&#45;&gt;Node8 -->
<g id="edge7" class="edge">
<title>Node4&#45;&gt;Node8</title>
<path fill="none" stroke="midnightblue" d="M361.34,-84.79C367.39,-82.7 373.34,-80.44 379,-78 396.21,-70.57 397.76,-63.38 415,-56 422.73,-52.69 431.03,-49.73 439.36,-47.13"/>
<polygon fill="midnightblue" stroke="midnightblue" points="360.21,-81.48 351.79,-87.91 362.38,-88.13 360.21,-81.48"/>
</g>
</g>
</svg>
