<?xml version="1.0" encoding="UTF-8" standalone="no"?>
<!DOCTYPE svg PUBLIC "-//W3C//DTD SVG 1.1//EN"
 "http://www.w3.org/Graphics/SVG/1.1/DTD/svg11.dtd">
<!-- Generated by graphviz version 2.43.0 (0)
 -->
<!-- Title: tracktion::engine::DynamicallyOffsettableNodeBase Pages: 1 -->
<svg width="342pt" height="182pt"
 viewBox="0.00 0.00 342.00 182.00" xmlns="http://www.w3.org/2000/svg" xmlns:xlink="http://www.w3.org/1999/xlink">
<g id="graph0" class="graph" transform="scale(1 1) rotate(0) translate(4 178)">
<title>tracktion::engine::DynamicallyOffsettableNodeBase</title>
<!-- Node1 -->
<g id="Node000001" class="node">
<title>Node1</title>
<g id="a_Node000001"><a xlink:title=" ">
<polygon fill="#999999" stroke="#666666" points="182,-102 0,-102 0,-72 182,-72 182,-102"/>
<text text-anchor="start" x="8" y="-90" font-family="Helvetica,sans-Serif" font-size="10.00">tracktion::engine::</text>
<text text-anchor="middle" x="91" y="-79" font-family="Helvetica,sans-Serif" font-size="10.00">DynamicallyOffsettableNodeBase</text>
</a>
</g>
</g>
<!-- Node2 -->
<g id="Node000002" class="node">
<title>Node2</title>
<g id="a_Node000002"><a xlink:href="classtracktion_1_1engine_1_1DynamicOffsetNode.html" target="_top" xlink:title=" ">
<polygon fill="white" stroke="#666666" points="333.5,-174 218.5,-174 218.5,-144 333.5,-144 333.5,-174"/>
<text text-anchor="start" x="226.5" y="-162" font-family="Helvetica,sans-Serif" font-size="10.00">tracktion::engine::</text>
<text text-anchor="middle" x="276" y="-151" font-family="Helvetica,sans-Serif" font-size="10.00">DynamicOffsetNode</text>
</a>
</g>
</g>
<!-- Node1&#45;&gt;Node2 -->
<g id="edge1_Node000001_Node000002" class="edge">
<title>Node1&#45;&gt;Node2</title>
<g id="a_edge1_Node000001_Node000002"><a xlink:title=" ">
<path fill="none" stroke="#63b8ff" d="M139.85,-105.83C170.04,-117.71 208.52,-132.84 236.69,-143.93"/>
<polygon fill="#63b8ff" stroke="#63b8ff" points="140.95,-102.5 130.36,-102.09 138.39,-109.01 140.95,-102.5"/>
</a>
</g>
</g>
<!-- Node3 -->
<g id="Node000003" class="node">
<title>Node3</title>
<g id="a_Node000003"><a xlink:href="classtracktion_1_1engine_1_1FadeInOutNode.html" target="_top" xlink:title="A Node that fades in and out given time regions.">
<polygon fill="white" stroke="#666666" points="328.5,-126 223.5,-126 223.5,-96 328.5,-96 328.5,-126"/>
<text text-anchor="start" x="231.5" y="-114" font-family="Helvetica,sans-Serif" font-size="10.00">tracktion::engine::</text>
<text text-anchor="middle" x="276" y="-103" font-family="Helvetica,sans-Serif" font-size="10.00">FadeInOutNode</text>
</a>
</g>
</g>
<!-- Node1&#45;&gt;Node3 -->
<g id="edge2_Node000001_Node000003" class="edge">
<title>Node1&#45;&gt;Node3</title>
<g id="a_edge2_Node000001_Node000003"><a xlink:title=" ">
<path fill="none" stroke="#63b8ff" d="M192.37,-100.16C203,-101.56 213.46,-102.93 223.18,-104.2"/>
<polygon fill="#63b8ff" stroke="#63b8ff" points="192.53,-96.65 182.16,-98.82 191.62,-103.59 192.53,-96.65"/>
</a>
</g>
</g>
<!-- Node4 -->
<g id="Node000004" class="node">
<title>Node4</title>
<g id="a_Node000004"><a xlink:href="classtracktion_1_1engine_1_1LoopingMidiNode.html" target="_top" xlink:title="A Node that plays MIDI data from a MidiMessageSequence, at a specific MIDI channel.">
<polygon fill="white" stroke="#666666" points="328.5,-78 223.5,-78 223.5,-48 328.5,-48 328.5,-78"/>
<text text-anchor="start" x="231.5" y="-66" font-family="Helvetica,sans-Serif" font-size="10.00">tracktion::engine::</text>
<text text-anchor="middle" x="276" y="-55" font-family="Helvetica,sans-Serif" font-size="10.00">LoopingMidiNode</text>
</a>
</g>
</g>
<!-- Node1&#45;&gt;Node4 -->
<g id="edge3_Node000001_Node000004" class="edge">
<title>Node1&#45;&gt;Node4</title>
<g id="a_edge3_Node000001_Node000004"><a xlink:title=" ">
<path fill="none" stroke="#63b8ff" d="M192.37,-73.84C203,-72.44 213.46,-71.07 223.18,-69.8"/>
<polygon fill="#63b8ff" stroke="#63b8ff" points="191.62,-70.41 182.16,-75.18 192.53,-77.35 191.62,-70.41"/>
</a>
</g>
</g>
<!-- Node5 -->
<g id="Node000005" class="node">
<title>Node5</title>
<g id="a_Node000005"><a xlink:href="classtracktion_1_1engine_1_1WaveNodeRealTime.html" target="_top" xlink:title="An Node that plays back a wave file.">
<polygon fill="white" stroke="#666666" points="334,-30 218,-30 218,0 334,0 334,-30"/>
<text text-anchor="start" x="226" y="-18" font-family="Helvetica,sans-Serif" font-size="10.00">tracktion::engine::</text>
<text text-anchor="middle" x="276" y="-7" font-family="Helvetica,sans-Serif" font-size="10.00">WaveNodeRealTime</text>
</a>
</g>
</g>
<!-- Node1&#45;&gt;Node5 -->
<g id="edge4_Node000001_Node000005" class="edge">
<title>Node1&#45;&gt;Node5</title>
<g id="a_edge4_Node000001_Node000005"><a xlink:title=" ">
<path fill="none" stroke="#63b8ff" d="M139.85,-68.17C170.04,-56.29 208.52,-41.16 236.69,-30.07"/>
<polygon fill="#63b8ff" stroke="#63b8ff" points="138.39,-64.99 130.36,-71.91 140.95,-71.5 138.39,-64.99"/>
</a>
</g>
</g>
</g>
</svg>
