<?xml version="1.0" encoding="UTF-8" standalone="no"?>
<!DOCTYPE svg PUBLIC "-//W3C//DTD SVG 1.1//EN"
 "http://www.w3.org/Graphics/SVG/1.1/DTD/svg11.dtd">
<!-- Generated by graphviz version 2.43.0 (0)
 -->
<!-- Title: tracktion::engine::Clip Pages: 1 -->
<svg width="696pt" height="278pt"
 viewBox="0.00 0.00 696.00 278.00" xmlns="http://www.w3.org/2000/svg" xmlns:xlink="http://www.w3.org/1999/xlink">
<g id="graph0" class="graph" transform="scale(1 1) rotate(0) translate(4 274)">
<title>tracktion::engine::Clip</title>
<!-- Node1 -->
<g id="Node000001" class="node">
<title>Node1</title>
<g id="a_Node000001"><a xlink:title="A clip in an edit.">
<polygon fill="#999999" stroke="#666666" points="406,-144.5 282,-144.5 282,-125.5 406,-125.5 406,-144.5"/>
<text text-anchor="middle" x="344" y="-132.5" font-family="Helvetica,sans-Serif" font-size="10.00">tracktion::engine::Clip</text>
</a>
</g>
</g>
<!-- Node6 -->
<g id="Node000006" class="node">
<title>Node6</title>
<g id="a_Node000006"><a xlink:href="classtracktion_1_1engine_1_1ArrangerClip.html" target="_top" xlink:title=" ">
<polygon fill="white" stroke="#666666" points="547,-270 442,-270 442,-240 547,-240 547,-270"/>
<text text-anchor="start" x="450" y="-258" font-family="Helvetica,sans-Serif" font-size="10.00">tracktion::engine::</text>
<text text-anchor="middle" x="494.5" y="-247" font-family="Helvetica,sans-Serif" font-size="10.00">ArrangerClip</text>
</a>
</g>
</g>
<!-- Node1&#45;&gt;Node6 -->
<g id="edge5_Node000001_Node000006" class="edge">
<title>Node1&#45;&gt;Node6</title>
<g id="a_edge5_Node000001_Node000006"><a xlink:title=" ">
<path fill="none" stroke="#63b8ff" d="M359.14,-152.25C376.82,-173 408.84,-207.92 442,-231 446.61,-234.21 451.73,-237.18 456.89,-239.86"/>
<polygon fill="#63b8ff" stroke="#63b8ff" points="361.78,-149.96 352.67,-144.54 356.42,-154.45 361.78,-149.96"/>
</a>
</g>
</g>
<!-- Node7 -->
<g id="Node000007" class="node">
<title>Node7</title>
<g id="a_Node000007"><a xlink:href="classtracktion_1_1engine_1_1AudioClipBase.html" target="_top" xlink:title="Base class for Clips that produce some kind of audio e.g.">
<polygon fill="white" stroke="#666666" points="547,-222 442,-222 442,-192 547,-192 547,-222"/>
<text text-anchor="start" x="450" y="-210" font-family="Helvetica,sans-Serif" font-size="10.00">tracktion::engine::</text>
<text text-anchor="middle" x="494.5" y="-199" font-family="Helvetica,sans-Serif" font-size="10.00">AudioClipBase</text>
</a>
</g>
</g>
<!-- Node1&#45;&gt;Node7 -->
<g id="edge6_Node000001_Node000007" class="edge">
<title>Node1&#45;&gt;Node7</title>
<g id="a_edge6_Node000001_Node000007"><a xlink:title=" ">
<path fill="none" stroke="#63b8ff" d="M373.04,-149.09C392.37,-158.75 418.67,-171.79 442,-183 448.05,-185.9 454.51,-188.96 460.75,-191.88"/>
<polygon fill="#63b8ff" stroke="#63b8ff" points="374.4,-145.86 363.89,-144.51 371.27,-152.12 374.4,-145.86"/>
</a>
</g>
</g>
<!-- Node11 -->
<g id="Node000011" class="node">
<title>Node11</title>
<g id="a_Node000011"><a xlink:href="classtracktion_1_1engine_1_1ChordClip.html" target="_top" xlink:title=" ">
<polygon fill="white" stroke="#666666" points="547,-174 442,-174 442,-144 547,-144 547,-174"/>
<text text-anchor="start" x="450" y="-162" font-family="Helvetica,sans-Serif" font-size="10.00">tracktion::engine::</text>
<text text-anchor="middle" x="494.5" y="-151" font-family="Helvetica,sans-Serif" font-size="10.00">ChordClip</text>
</a>
</g>
</g>
<!-- Node1&#45;&gt;Node11 -->
<g id="edge10_Node000001_Node000011" class="edge">
<title>Node1&#45;&gt;Node11</title>
<g id="a_edge10_Node000001_Node000011"><a xlink:title=" ">
<path fill="none" stroke="#63b8ff" d="M414.14,-146.17C423.44,-147.68 432.85,-149.2 441.78,-150.64"/>
<polygon fill="#63b8ff" stroke="#63b8ff" points="414.55,-142.69 404.12,-144.55 413.43,-149.61 414.55,-142.69"/>
</a>
</g>
</g>
<!-- Node12 -->
<g id="Node000012" class="node">
<title>Node12</title>
<g id="a_Node000012"><a xlink:href="classtracktion_1_1engine_1_1MarkerClip.html" target="_top" xlink:title=" ">
<polygon fill="white" stroke="#666666" points="547,-126 442,-126 442,-96 547,-96 547,-126"/>
<text text-anchor="start" x="450" y="-114" font-family="Helvetica,sans-Serif" font-size="10.00">tracktion::engine::</text>
<text text-anchor="middle" x="494.5" y="-103" font-family="Helvetica,sans-Serif" font-size="10.00">MarkerClip</text>
</a>
</g>
</g>
<!-- Node1&#45;&gt;Node12 -->
<g id="edge11_Node000001_Node000012" class="edge">
<title>Node1&#45;&gt;Node12</title>
<g id="a_edge11_Node000001_Node000012"><a xlink:title=" ">
<path fill="none" stroke="#63b8ff" d="M414.14,-123.83C423.44,-122.32 432.85,-120.8 441.78,-119.36"/>
<polygon fill="#63b8ff" stroke="#63b8ff" points="413.43,-120.39 404.12,-125.45 414.55,-127.31 413.43,-120.39"/>
</a>
</g>
</g>
<!-- Node13 -->
<g id="Node000013" class="node">
<title>Node13</title>
<g id="a_Node000013"><a xlink:href="classtracktion_1_1engine_1_1MidiClip.html" target="_top" xlink:title=" ">
<polygon fill="white" stroke="#666666" points="547,-78 442,-78 442,-48 547,-48 547,-78"/>
<text text-anchor="start" x="450" y="-66" font-family="Helvetica,sans-Serif" font-size="10.00">tracktion::engine::</text>
<text text-anchor="middle" x="494.5" y="-55" font-family="Helvetica,sans-Serif" font-size="10.00">MidiClip</text>
</a>
</g>
</g>
<!-- Node1&#45;&gt;Node13 -->
<g id="edge12_Node000001_Node000013" class="edge">
<title>Node1&#45;&gt;Node13</title>
<g id="a_edge12_Node000001_Node000013"><a xlink:title=" ">
<path fill="none" stroke="#63b8ff" d="M373.04,-120.91C392.37,-111.25 418.67,-98.21 442,-87 448.05,-84.1 454.51,-81.04 460.75,-78.12"/>
<polygon fill="#63b8ff" stroke="#63b8ff" points="371.27,-117.88 363.89,-125.49 374.4,-124.14 371.27,-117.88"/>
</a>
</g>
</g>
<!-- Node14 -->
<g id="Node000014" class="node">
<title>Node14</title>
<g id="a_Node000014"><a xlink:href="classtracktion_1_1engine_1_1StepClip.html" target="_top" xlink:title=" ">
<polygon fill="white" stroke="#666666" points="547,-30 442,-30 442,0 547,0 547,-30"/>
<text text-anchor="start" x="450" y="-18" font-family="Helvetica,sans-Serif" font-size="10.00">tracktion::engine::</text>
<text text-anchor="middle" x="494.5" y="-7" font-family="Helvetica,sans-Serif" font-size="10.00">StepClip</text>
</a>
</g>
</g>
<!-- Node1&#45;&gt;Node14 -->
<g id="edge13_Node000001_Node000014" class="edge">
<title>Node1&#45;&gt;Node14</title>
<g id="a_edge13_Node000001_Node000014"><a xlink:title=" ">
<path fill="none" stroke="#63b8ff" d="M359.14,-117.75C376.82,-97 408.84,-62.08 442,-39 446.61,-35.79 451.73,-32.82 456.89,-30.14"/>
<polygon fill="#63b8ff" stroke="#63b8ff" points="356.42,-115.55 352.67,-125.46 361.78,-120.04 356.42,-115.55"/>
</a>
</g>
</g>
<!-- Node2 -->
<g id="Node000002" class="node">
<title>Node2</title>
<g id="a_Node000002"><a xlink:href="classtracktion_1_1engine_1_1TrackItem.html" target="_top" xlink:title="Base class for EditItems that live in a Track, e.g.">
<polygon fill="white" stroke="#666666" points="246,-174 141,-174 141,-144 246,-144 246,-174"/>
<text text-anchor="start" x="149" y="-162" font-family="Helvetica,sans-Serif" font-size="10.00">tracktion::engine::</text>
<text text-anchor="middle" x="193.5" y="-151" font-family="Helvetica,sans-Serif" font-size="10.00">TrackItem</text>
</a>
</g>
</g>
<!-- Node2&#45;&gt;Node1 -->
<g id="edge1_Node000001_Node000002" class="edge">
<title>Node2&#45;&gt;Node1</title>
<g id="a_edge1_Node000001_Node000002"><a xlink:title=" ">
<path fill="none" stroke="#63b8ff" d="M256,-149.06C265.32,-147.55 274.92,-146 284.19,-144.5"/>
<polygon fill="#63b8ff" stroke="#63b8ff" points="255.33,-145.62 246.02,-150.67 256.45,-152.53 255.33,-145.62"/>
</a>
</g>
</g>
<!-- Node3 -->
<g id="Node000003" class="node">
<title>Node3</title>
<g id="a_Node000003"><a xlink:href="classtracktion_1_1engine_1_1EditItem.html" target="_top" xlink:title="Base class for objects that live inside an edit &#45; e.g.">
<polygon fill="white" stroke="#666666" points="105,-198 0,-198 0,-168 105,-168 105,-198"/>
<text text-anchor="start" x="8" y="-186" font-family="Helvetica,sans-Serif" font-size="10.00">tracktion::engine::</text>
<text text-anchor="middle" x="52.5" y="-175" font-family="Helvetica,sans-Serif" font-size="10.00">EditItem</text>
</a>
</g>
</g>
<!-- Node3&#45;&gt;Node2 -->
<g id="edge2_Node000002_Node000003" class="edge">
<title>Node3&#45;&gt;Node2</title>
<g id="a_edge2_Node000002_Node000003"><a xlink:title=" ">
<path fill="none" stroke="#63b8ff" d="M115.16,-172.35C123.69,-170.88 132.38,-169.38 140.7,-167.94"/>
<polygon fill="#63b8ff" stroke="#63b8ff" points="114.52,-168.91 105.26,-174.06 115.71,-175.81 114.52,-168.91"/>
</a>
</g>
</g>
<!-- Node4 -->
<g id="Node000004" class="node">
<title>Node4</title>
<g id="a_Node000004"><a xlink:href="classtracktion_1_1engine_1_1Selectable.html" target="_top" xlink:title="Base class for things that can be selected, and whose properties can appear in the properties panel.">
<polygon fill="white" stroke="#666666" points="105,-150 0,-150 0,-120 105,-120 105,-150"/>
<text text-anchor="start" x="8" y="-138" font-family="Helvetica,sans-Serif" font-size="10.00">tracktion::engine::</text>
<text text-anchor="middle" x="52.5" y="-127" font-family="Helvetica,sans-Serif" font-size="10.00">Selectable</text>
</a>
</g>
</g>
<!-- Node4&#45;&gt;Node2 -->
<g id="edge3_Node000002_Node000004" class="edge">
<title>Node4&#45;&gt;Node2</title>
<g id="a_edge3_Node000002_Node000004"><a xlink:title=" ">
<path fill="none" stroke="#63b8ff" d="M115.16,-145.65C123.69,-147.12 132.38,-148.62 140.7,-150.06"/>
<polygon fill="#63b8ff" stroke="#63b8ff" points="115.71,-142.19 105.26,-143.94 114.52,-149.09 115.71,-142.19"/>
</a>
</g>
</g>
<!-- Node5 -->
<g id="Node000005" class="node">
<title>Node5</title>
<g id="a_Node000005"><a xlink:href="classtracktion_1_1engine_1_1Exportable.html" target="_top" xlink:title="An interface for objects within an edit that can be exported.">
<polygon fill="white" stroke="#666666" points="246,-126 141,-126 141,-96 246,-96 246,-126"/>
<text text-anchor="start" x="149" y="-114" font-family="Helvetica,sans-Serif" font-size="10.00">tracktion::engine::</text>
<text text-anchor="middle" x="193.5" y="-103" font-family="Helvetica,sans-Serif" font-size="10.00">Exportable</text>
</a>
</g>
</g>
<!-- Node5&#45;&gt;Node1 -->
<g id="edge4_Node000001_Node000005" class="edge">
<title>Node5&#45;&gt;Node1</title>
<g id="a_edge4_Node000001_Node000005"><a xlink:title=" ">
<path fill="none" stroke="#63b8ff" d="M256,-120.94C265.32,-122.45 274.92,-124 284.19,-125.5"/>
<polygon fill="#63b8ff" stroke="#63b8ff" points="256.45,-117.47 246.02,-119.33 255.33,-124.38 256.45,-117.47"/>
</a>
</g>
</g>
<!-- Node8 -->
<g id="Node000008" class="node">
<title>Node8</title>
<g id="a_Node000008"><a xlink:href="classtracktion_1_1engine_1_1ContainerClip.html" target="_top" xlink:title="A clip that can contain multiple other clips and mix their output together.">
<polygon fill="white" stroke="#666666" points="688,-270 583,-270 583,-240 688,-240 688,-270"/>
<text text-anchor="start" x="591" y="-258" font-family="Helvetica,sans-Serif" font-size="10.00">tracktion::engine::</text>
<text text-anchor="middle" x="635.5" y="-247" font-family="Helvetica,sans-Serif" font-size="10.00">ContainerClip</text>
</a>
</g>
</g>
<!-- Node7&#45;&gt;Node8 -->
<g id="edge7_Node000007_Node000008" class="edge">
<title>Node7&#45;&gt;Node8</title>
<g id="a_edge7_Node000007_Node000008"><a xlink:title=" ">
<path fill="none" stroke="#63b8ff" d="M548.63,-225.35C562.65,-230.19 577.61,-235.36 591.06,-240"/>
<polygon fill="#63b8ff" stroke="#63b8ff" points="549.69,-222.01 539.1,-222.06 547.41,-228.63 549.69,-222.01"/>
</a>
</g>
</g>
<!-- Node9 -->
<g id="Node000009" class="node">
<title>Node9</title>
<g id="a_Node000009"><a xlink:href="classtracktion_1_1engine_1_1EditClip.html" target="_top" xlink:title="This is the main source of an Edit clip and is responsible for managing its properties.">
<polygon fill="white" stroke="#666666" points="688,-222 583,-222 583,-192 688,-192 688,-222"/>
<text text-anchor="start" x="591" y="-210" font-family="Helvetica,sans-Serif" font-size="10.00">tracktion::engine::</text>
<text text-anchor="middle" x="635.5" y="-199" font-family="Helvetica,sans-Serif" font-size="10.00">EditClip</text>
</a>
</g>
</g>
<!-- Node7&#45;&gt;Node9 -->
<g id="edge8_Node000007_Node000009" class="edge">
<title>Node7&#45;&gt;Node9</title>
<g id="a_edge8_Node000007_Node000009"><a xlink:title=" ">
<path fill="none" stroke="#63b8ff" d="M557.44,-207C565.88,-207 574.47,-207 582.7,-207"/>
<polygon fill="#63b8ff" stroke="#63b8ff" points="557.26,-203.5 547.26,-207 557.26,-210.5 557.26,-203.5"/>
</a>
</g>
</g>
<!-- Node10 -->
<g id="Node000010" class="node">
<title>Node10</title>
<g id="a_Node000010"><a xlink:href="classtracktion_1_1engine_1_1WaveAudioClip.html" target="_top" xlink:title="An audio clip that uses an audio file as its source.">
<polygon fill="white" stroke="#666666" points="688,-174 583,-174 583,-144 688,-144 688,-174"/>
<text text-anchor="start" x="591" y="-162" font-family="Helvetica,sans-Serif" font-size="10.00">tracktion::engine::</text>
<text text-anchor="middle" x="635.5" y="-151" font-family="Helvetica,sans-Serif" font-size="10.00">WaveAudioClip</text>
</a>
</g>
</g>
<!-- Node7&#45;&gt;Node10 -->
<g id="edge9_Node000007_Node000010" class="edge">
<title>Node7&#45;&gt;Node10</title>
<g id="a_edge9_Node000007_Node000010"><a xlink:title=" ">
<path fill="none" stroke="#63b8ff" d="M548.63,-188.65C562.65,-183.81 577.61,-178.64 591.06,-174"/>
<polygon fill="#63b8ff" stroke="#63b8ff" points="547.41,-185.37 539.1,-191.94 549.69,-191.99 547.41,-185.37"/>
</a>
</g>
</g>
</g>
</svg>
