<?xml version="1.0" encoding="UTF-8" standalone="no"?>
<!DOCTYPE svg PUBLIC "-//W3C//DTD SVG 1.1//EN"
 "http://www.w3.org/Graphics/SVG/1.1/DTD/svg11.dtd">
<!-- Generated by graphviz version 2.43.0 (0)
 -->
<!-- Title: tracktion::engine::Selectable Pages: 1 -->
<svg width="549pt" height="1675pt"
 viewBox="0.00 0.00 549.00 1675.00" xmlns="http://www.w3.org/2000/svg" xmlns:xlink="http://www.w3.org/1999/xlink">
<g id="graph0" class="graph" transform="scale(1 1) rotate(0) translate(4 1671)">
<title>tracktion::engine::Selectable</title>
<!-- Node1 -->
<g id="node1" class="node">
<title>Node1</title>
<g id="a_node1"><a xlink:title="Base class for things that can be selected, and whose properties can appear in the properties panel.">
<polygon fill="#bfbfbf" stroke="black" points="0,-514.5 0,-544.5 105,-544.5 105,-514.5 0,-514.5"/>
<text text-anchor="start" x="8" y="-532.5" font-family="Helvetica,sans-Serif" font-size="10.00">tracktion::engine::</text>
<text text-anchor="middle" x="52.5" y="-521.5" font-family="Helvetica,sans-Serif" font-size="10.00">Selectable</text>
</a>
</g>
</g>
<!-- Node2 -->
<g id="node2" class="node">
<title>Node2</title>
<g id="a_node2"><a xlink:href="classtracktion_1_1engine_1_1AutomatableParameter.html" target="_top" xlink:title=" ">
<polygon fill="none" stroke="black" points="162.5,-1513.5 162.5,-1543.5 292.5,-1543.5 292.5,-1513.5 162.5,-1513.5"/>
<text text-anchor="start" x="170.5" y="-1531.5" font-family="Helvetica,sans-Serif" font-size="10.00">tracktion::engine::</text>
<text text-anchor="middle" x="227.5" y="-1520.5" font-family="Helvetica,sans-Serif" font-size="10.00">AutomatableParameter</text>
</a>
</g>
</g>
<!-- Node1&#45;&gt;Node2 -->
<g id="edge1" class="edge">
<title>Node1&#45;&gt;Node2</title>
<path fill="none" stroke="midnightblue" d="M54.8,-554.83C60.02,-648.99 82,-987.39 141,-1259.5 162.44,-1358.39 204.92,-1472.77 220.55,-1513.31"/>
<polygon fill="midnightblue" stroke="midnightblue" points="58.28,-554.38 54.25,-544.58 51.3,-554.75 58.28,-554.38"/>
</g>
<!-- Node8 -->
<g id="node8" class="node">
<title>Node8</title>
<g id="a_node8"><a xlink:href="classtracktion_1_1engine_1_1ControlSurface.html" target="_top" xlink:title="Base class for types of control surface.">
<polygon fill="none" stroke="black" points="175,-1219.5 175,-1249.5 280,-1249.5 280,-1219.5 175,-1219.5"/>
<text text-anchor="start" x="183" y="-1237.5" font-family="Helvetica,sans-Serif" font-size="10.00">tracktion::engine::</text>
<text text-anchor="middle" x="227.5" y="-1226.5" font-family="Helvetica,sans-Serif" font-size="10.00">ControlSurface</text>
</a>
</g>
</g>
<!-- Node1&#45;&gt;Node8 -->
<g id="edge7" class="edge">
<title>Node1&#45;&gt;Node8</title>
<path fill="none" stroke="midnightblue" d="M55.01,-554.95C60.2,-632.64 80.39,-872.95 141,-1061.5 160.79,-1123.06 199.34,-1190.13 217.11,-1219.41"/>
<polygon fill="midnightblue" stroke="midnightblue" points="58.49,-554.45 54.36,-544.69 51.5,-554.89 58.49,-554.45"/>
</g>
<!-- Node18 -->
<g id="node16" class="node">
<title>Node18</title>
<g id="a_node16"><a xlink:href="classtracktion_1_1engine_1_1CurveEditorPoint.html" target="_top" xlink:title=" ">
<polygon fill="none" stroke="black" points="175,-1021.5 175,-1051.5 280,-1051.5 280,-1021.5 175,-1021.5"/>
<text text-anchor="start" x="183" y="-1039.5" font-family="Helvetica,sans-Serif" font-size="10.00">tracktion::engine::</text>
<text text-anchor="middle" x="227.5" y="-1028.5" font-family="Helvetica,sans-Serif" font-size="10.00">CurveEditorPoint</text>
</a>
</g>
</g>
<!-- Node1&#45;&gt;Node18 -->
<g id="edge15" class="edge">
<title>Node1&#45;&gt;Node18</title>
<path fill="none" stroke="midnightblue" d="M55.69,-554.58C63.46,-639.12 91.93,-912.25 141,-983.5 152.59,-1000.33 171.45,-1012.84 188.5,-1021.48"/>
<polygon fill="midnightblue" stroke="midnightblue" points="59.17,-554.23 54.79,-544.59 52.2,-554.86 59.17,-554.23"/>
</g>
<!-- Node20 -->
<g id="node18" class="node">
<title>Node20</title>
<g id="a_node18"><a xlink:href="classtracktion_1_1engine_1_1Edit.html" target="_top" xlink:title="The Tracktion Edit class!">
<polygon fill="none" stroke="black" points="165.5,-955 165.5,-974 289.5,-974 289.5,-955 165.5,-955"/>
<text text-anchor="middle" x="227.5" y="-962" font-family="Helvetica,sans-Serif" font-size="10.00">tracktion::engine::Edit</text>
</a>
</g>
</g>
<!-- Node1&#45;&gt;Node20 -->
<g id="edge17" class="edge">
<title>Node1&#45;&gt;Node20</title>
<path fill="none" stroke="midnightblue" d="M55.32,-554.95C61.65,-636.52 85.49,-889.36 141,-945.5 147.74,-952.31 156.33,-956.92 165.47,-960"/>
<polygon fill="midnightblue" stroke="midnightblue" points="58.78,-554.33 54.54,-544.62 51.8,-554.85 58.78,-554.33"/>
</g>
<!-- Node21 -->
<g id="node19" class="node">
<title>Node21</title>
<g id="a_node19"><a xlink:href="classtracktion_1_1engine_1_1InputDevice.html" target="_top" xlink:title="Represents an input device.">
<polygon fill="none" stroke="black" points="175,-905.5 175,-935.5 280,-935.5 280,-905.5 175,-905.5"/>
<text text-anchor="start" x="183" y="-923.5" font-family="Helvetica,sans-Serif" font-size="10.00">tracktion::engine::</text>
<text text-anchor="middle" x="227.5" y="-912.5" font-family="Helvetica,sans-Serif" font-size="10.00">InputDevice</text>
</a>
</g>
</g>
<!-- Node1&#45;&gt;Node21 -->
<g id="edge18" class="edge">
<title>Node1&#45;&gt;Node21</title>
<path fill="none" stroke="midnightblue" d="M55.19,-554.81C60.06,-611.95 78.08,-753.5 141,-850.5 156.03,-873.68 181.21,-892.93 200.36,-905.34"/>
<polygon fill="midnightblue" stroke="midnightblue" points="58.66,-554.24 54.39,-544.55 51.68,-554.79 58.66,-554.24"/>
</g>
<!-- Node26 -->
<g id="node22" class="node">
<title>Node26</title>
<g id="a_node22"><a xlink:href="structtracktion_1_1engine_1_1InputDeviceInstance_1_1InputDeviceDestination.html" target="_top" xlink:title=" ">
<polygon fill="none" stroke="black" points="159,-800 159,-841 296,-841 296,-800 159,-800"/>
<text text-anchor="start" x="167" y="-829" font-family="Helvetica,sans-Serif" font-size="10.00">tracktion::engine::</text>
<text text-anchor="start" x="167" y="-818" font-family="Helvetica,sans-Serif" font-size="10.00">InputDeviceInstance</text>
<text text-anchor="middle" x="227.5" y="-807" font-family="Helvetica,sans-Serif" font-size="10.00">::InputDeviceDestination</text>
</a>
</g>
</g>
<!-- Node1&#45;&gt;Node26 -->
<g id="edge21" class="edge">
<title>Node1&#45;&gt;Node26</title>
<path fill="none" stroke="midnightblue" d="M56.38,-554.87C63.07,-603.17 83.72,-709.39 141,-775.5 149.57,-785.39 160.85,-793.43 172.4,-799.83"/>
<polygon fill="midnightblue" stroke="midnightblue" points="59.82,-554.15 55.06,-544.69 52.88,-555.05 59.82,-554.15"/>
</g>
<!-- Node30 -->
<g id="node26" class="node">
<title>Node30</title>
<g id="a_node26"><a xlink:href="structtracktion_1_1engine_1_1MakeMonoEffect.html" target="_top" xlink:title=" ">
<polygon fill="none" stroke="black" points="175,-735.5 175,-765.5 280,-765.5 280,-735.5 175,-735.5"/>
<text text-anchor="start" x="183" y="-753.5" font-family="Helvetica,sans-Serif" font-size="10.00">tracktion::engine::</text>
<text text-anchor="middle" x="227.5" y="-742.5" font-family="Helvetica,sans-Serif" font-size="10.00">MakeMonoEffect</text>
</a>
</g>
</g>
<!-- Node1&#45;&gt;Node30 -->
<g id="edge25" class="edge">
<title>Node1&#45;&gt;Node30</title>
<path fill="none" stroke="midnightblue" d="M57.58,-554.6C65.73,-596.52 88.02,-680.66 141,-726.5 150.56,-734.77 162.77,-740.21 174.95,-743.77"/>
<polygon fill="midnightblue" stroke="midnightblue" points="61.01,-553.88 55.76,-544.67 54.12,-555.14 61.01,-553.88"/>
</g>
<!-- Node31 -->
<g id="node27" class="node">
<title>Node31</title>
<g id="a_node27"><a xlink:href="structtracktion_1_1engine_1_1Modifier.html" target="_top" xlink:title="Bass class for parameter Modifiers.">
<polygon fill="none" stroke="black" points="175,-686.5 175,-716.5 280,-716.5 280,-686.5 175,-686.5"/>
<text text-anchor="start" x="183" y="-704.5" font-family="Helvetica,sans-Serif" font-size="10.00">tracktion::engine::</text>
<text text-anchor="middle" x="227.5" y="-693.5" font-family="Helvetica,sans-Serif" font-size="10.00">Modifier</text>
</a>
</g>
</g>
<!-- Node1&#45;&gt;Node31 -->
<g id="edge26" class="edge">
<title>Node1&#45;&gt;Node31</title>
<path fill="none" stroke="midnightblue" d="M61.6,-554.47C73.62,-587.57 99.36,-645.5 141,-677.5 150.78,-685.02 162.8,-690.18 174.7,-693.72"/>
<polygon fill="midnightblue" stroke="midnightblue" points="64.78,-552.95 58.18,-544.66 58.17,-555.26 64.78,-552.95"/>
</g>
<!-- Node38 -->
<g id="node34" class="node">
<title>Node38</title>
<g id="a_node34"><a xlink:href="structtracktion_1_1engine_1_1NormaliseEffect.html" target="_top" xlink:title=" ">
<polygon fill="none" stroke="black" points="175,-637.5 175,-667.5 280,-667.5 280,-637.5 175,-637.5"/>
<text text-anchor="start" x="183" y="-655.5" font-family="Helvetica,sans-Serif" font-size="10.00">tracktion::engine::</text>
<text text-anchor="middle" x="227.5" y="-644.5" font-family="Helvetica,sans-Serif" font-size="10.00">NormaliseEffect</text>
</a>
</g>
</g>
<!-- Node1&#45;&gt;Node38 -->
<g id="edge33" class="edge">
<title>Node1&#45;&gt;Node38</title>
<path fill="none" stroke="midnightblue" d="M68.39,-553.06C83.86,-575.66 110.12,-609.13 141,-628.5 151.19,-634.89 163.1,-639.62 174.75,-643.1"/>
<polygon fill="midnightblue" stroke="midnightblue" points="71.27,-551.07 62.81,-544.69 65.44,-554.96 71.27,-551.07"/>
</g>
<!-- Node39 -->
<g id="node35" class="node">
<title>Node39</title>
<g id="a_node35"><a xlink:href="classtracktion_1_1engine_1_1OutputDevice.html" target="_top" xlink:title="Base class for audio or midi output devices, to which a track&#39;s output can be sent.">
<polygon fill="none" stroke="black" points="175,-588.5 175,-618.5 280,-618.5 280,-588.5 175,-588.5"/>
<text text-anchor="start" x="183" y="-606.5" font-family="Helvetica,sans-Serif" font-size="10.00">tracktion::engine::</text>
<text text-anchor="middle" x="227.5" y="-595.5" font-family="Helvetica,sans-Serif" font-size="10.00">OutputDevice</text>
</a>
</g>
</g>
<!-- Node1&#45;&gt;Node39 -->
<g id="edge34" class="edge">
<title>Node1&#45;&gt;Node39</title>
<path fill="none" stroke="midnightblue" d="M85.02,-550.02C101.26,-559.94 121.66,-571.41 141,-579.5 151.67,-583.96 163.42,-587.87 174.71,-591.17"/>
<polygon fill="midnightblue" stroke="midnightblue" points="86.81,-547.01 76.47,-544.71 83.11,-552.96 86.81,-547.01"/>
</g>
<!-- Node43 -->
<g id="node38" class="node">
<title>Node43</title>
<g id="a_node38"><a xlink:href="classtracktion_1_1engine_1_1Plugin.html" target="_top" xlink:title=" ">
<polygon fill="none" stroke="red" points="175,-539.5 175,-569.5 280,-569.5 280,-539.5 175,-539.5"/>
<text text-anchor="start" x="183" y="-557.5" font-family="Helvetica,sans-Serif" font-size="10.00">tracktion::engine::</text>
<text text-anchor="middle" x="227.5" y="-546.5" font-family="Helvetica,sans-Serif" font-size="10.00">Plugin</text>
</a>
</g>
</g>
<!-- Node1&#45;&gt;Node43 -->
<g id="edge37" class="edge">
<title>Node1&#45;&gt;Node43</title>
<path fill="none" stroke="midnightblue" d="M115.41,-538.45C134.91,-541.26 156.23,-544.35 174.93,-547.05"/>
<polygon fill="midnightblue" stroke="midnightblue" points="115.8,-534.97 105.41,-537 114.8,-541.9 115.8,-534.97"/>
</g>
<!-- Node71 -->
<g id="node39" class="node">
<title>Node71</title>
<g id="a_node39"><a xlink:href="classtracktion_1_1engine_1_1Project.html" target="_top" xlink:title="A tracktion project.">
<polygon fill="none" stroke="black" points="175,-490.5 175,-520.5 280,-520.5 280,-490.5 175,-490.5"/>
<text text-anchor="start" x="183" y="-508.5" font-family="Helvetica,sans-Serif" font-size="10.00">tracktion::engine::</text>
<text text-anchor="middle" x="227.5" y="-497.5" font-family="Helvetica,sans-Serif" font-size="10.00">Project</text>
</a>
</g>
</g>
<!-- Node1&#45;&gt;Node71 -->
<g id="edge38" class="edge">
<title>Node1&#45;&gt;Node71</title>
<path fill="none" stroke="midnightblue" d="M115.41,-520.91C134.91,-518.21 156.23,-515.25 174.93,-512.65"/>
<polygon fill="midnightblue" stroke="midnightblue" points="114.83,-517.46 105.41,-522.3 115.79,-524.39 114.83,-517.46"/>
</g>
<!-- Node72 -->
<g id="node40" class="node">
<title>Node72</title>
<g id="a_node40"><a xlink:href="classtracktion_1_1engine_1_1ProjectItem.html" target="_top" xlink:title="Represents a file&#45;based resource that is used in a project.">
<polygon fill="none" stroke="black" points="175,-441.5 175,-471.5 280,-471.5 280,-441.5 175,-441.5"/>
<text text-anchor="start" x="183" y="-459.5" font-family="Helvetica,sans-Serif" font-size="10.00">tracktion::engine::</text>
<text text-anchor="middle" x="227.5" y="-448.5" font-family="Helvetica,sans-Serif" font-size="10.00">ProjectItem</text>
</a>
</g>
</g>
<!-- Node1&#45;&gt;Node72 -->
<g id="edge39" class="edge">
<title>Node1&#45;&gt;Node72</title>
<path fill="none" stroke="midnightblue" d="M86.65,-509.09C102.66,-499.81 122.4,-489.21 141,-481.5 151.71,-477.06 163.49,-473.07 174.78,-469.66"/>
<polygon fill="midnightblue" stroke="midnightblue" points="84.52,-506.28 77.68,-514.37 88.08,-512.31 84.52,-506.28"/>
</g>
<!-- Node73 -->
<g id="node41" class="node">
<title>Node73</title>
<g id="a_node41"><a xlink:href="classtracktion_1_1engine_1_1RackType.html" target="_top" xlink:title=" ">
<polygon fill="none" stroke="black" points="175,-392.5 175,-422.5 280,-422.5 280,-392.5 175,-392.5"/>
<text text-anchor="start" x="183" y="-410.5" font-family="Helvetica,sans-Serif" font-size="10.00">tracktion::engine::</text>
<text text-anchor="middle" x="227.5" y="-399.5" font-family="Helvetica,sans-Serif" font-size="10.00">RackType</text>
</a>
</g>
</g>
<!-- Node1&#45;&gt;Node73 -->
<g id="edge40" class="edge">
<title>Node1&#45;&gt;Node73</title>
<path fill="none" stroke="midnightblue" d="M69.01,-505.83C84.66,-483.76 110.78,-451.47 141,-432.5 151.22,-426.09 163.14,-421.26 174.79,-417.65"/>
<polygon fill="midnightblue" stroke="midnightblue" points="65.96,-504.09 63.15,-514.31 71.72,-508.07 65.96,-504.09"/>
</g>
<!-- Node74 -->
<g id="node42" class="node">
<title>Node74</title>
<g id="a_node42"><a xlink:href="classtracktion_1_1engine_1_1SelectedMidiEvents.html" target="_top" xlink:title="Represents a set of selected MIDI notes.">
<polygon fill="none" stroke="black" points="171,-343.5 171,-373.5 284,-373.5 284,-343.5 171,-343.5"/>
<text text-anchor="start" x="179" y="-361.5" font-family="Helvetica,sans-Serif" font-size="10.00">tracktion::engine::</text>
<text text-anchor="middle" x="227.5" y="-350.5" font-family="Helvetica,sans-Serif" font-size="10.00">SelectedMidiEvents</text>
</a>
</g>
</g>
<!-- Node1&#45;&gt;Node74 -->
<g id="edge41" class="edge">
<title>Node1&#45;&gt;Node74</title>
<path fill="none" stroke="midnightblue" d="M61.65,-504.7C73.72,-471.82 99.52,-414.28 141,-382.5 149.69,-375.84 160.14,-371.03 170.7,-367.56"/>
<polygon fill="midnightblue" stroke="midnightblue" points="58.24,-503.84 58.21,-514.44 64.84,-506.17 58.24,-503.84"/>
</g>
<!-- Node75 -->
<g id="node43" class="node">
<title>Node75</title>
<g id="a_node43"><a xlink:href="structtracktion_1_1engine_1_1StepClip_1_1Channel.html" target="_top" xlink:title=" ">
<polygon fill="none" stroke="black" points="175,-294.5 175,-324.5 280,-324.5 280,-294.5 175,-294.5"/>
<text text-anchor="start" x="183" y="-312.5" font-family="Helvetica,sans-Serif" font-size="10.00">tracktion::engine::</text>
<text text-anchor="middle" x="227.5" y="-301.5" font-family="Helvetica,sans-Serif" font-size="10.00">StepClip::Channel</text>
</a>
</g>
</g>
<!-- Node1&#45;&gt;Node75 -->
<g id="edge42" class="edge">
<title>Node1&#45;&gt;Node75</title>
<path fill="none" stroke="midnightblue" d="M57.62,-504.52C65.83,-462.82 88.2,-379.09 141,-333.5 150.57,-325.24 162.78,-319.81 174.96,-316.24"/>
<polygon fill="midnightblue" stroke="midnightblue" points="54.17,-503.93 55.79,-514.4 61.05,-505.21 54.17,-503.93"/>
</g>
<!-- Node76 -->
<g id="node44" class="node">
<title>Node76</title>
<g id="a_node44"><a xlink:href="structtracktion_1_1engine_1_1StepClip_1_1PatternInstance.html" target="_top" xlink:title=" ">
<polygon fill="none" stroke="black" points="158,-245.5 158,-275.5 297,-275.5 297,-245.5 158,-245.5"/>
<text text-anchor="start" x="166" y="-263.5" font-family="Helvetica,sans-Serif" font-size="10.00">tracktion::engine::</text>
<text text-anchor="middle" x="227.5" y="-252.5" font-family="Helvetica,sans-Serif" font-size="10.00">StepClip::PatternInstance</text>
</a>
</g>
</g>
<!-- Node1&#45;&gt;Node76 -->
<g id="edge43" class="edge">
<title>Node1&#45;&gt;Node76</title>
<path fill="none" stroke="midnightblue" d="M55.12,-504.1C59.66,-454.5 76.83,-344.37 141,-284.5 145.96,-279.87 151.74,-276.13 157.91,-273.1"/>
<polygon fill="midnightblue" stroke="midnightblue" points="51.61,-504.02 54.29,-514.27 58.59,-504.59 51.61,-504.02"/>
</g>
<!-- Node77 -->
<g id="node45" class="node">
<title>Node77</title>
<g id="a_node45"><a xlink:href="structtracktion_1_1engine_1_1StepVolumeEffect.html" target="_top" xlink:title=" ">
<polygon fill="none" stroke="black" points="175,-196.5 175,-226.5 280,-226.5 280,-196.5 175,-196.5"/>
<text text-anchor="start" x="183" y="-214.5" font-family="Helvetica,sans-Serif" font-size="10.00">tracktion::engine::</text>
<text text-anchor="middle" x="227.5" y="-203.5" font-family="Helvetica,sans-Serif" font-size="10.00">StepVolumeEffect</text>
</a>
</g>
</g>
<!-- Node1&#45;&gt;Node77 -->
<g id="edge44" class="edge">
<title>Node1&#45;&gt;Node77</title>
<path fill="none" stroke="midnightblue" d="M53.33,-504.31C54.37,-447.85 65.04,-310.28 141,-235.5 150.12,-226.52 162.31,-220.84 174.63,-217.27"/>
<polygon fill="midnightblue" stroke="midnightblue" points="49.83,-504.44 53.23,-514.48 56.83,-504.51 49.83,-504.44"/>
</g>
<!-- Node78 -->
<g id="node46" class="node">
<title>Node78</title>
<g id="a_node46"><a xlink:href="classtracktion_1_1engine_1_1TempoSequence.html" target="_top" xlink:title="Holds a list of TempoSetting objects, to form a sequence of tempo changes.">
<polygon fill="none" stroke="black" points="175,-147.5 175,-177.5 280,-177.5 280,-147.5 175,-147.5"/>
<text text-anchor="start" x="183" y="-165.5" font-family="Helvetica,sans-Serif" font-size="10.00">tracktion::engine::</text>
<text text-anchor="middle" x="227.5" y="-154.5" font-family="Helvetica,sans-Serif" font-size="10.00">TempoSequence</text>
</a>
</g>
</g>
<!-- Node1&#45;&gt;Node78 -->
<g id="edge45" class="edge">
<title>Node1&#45;&gt;Node78</title>
<path fill="none" stroke="midnightblue" d="M56.69,-504.02C66.12,-432.57 96.07,-232.52 141,-186.5 150.05,-177.23 162.36,-171.46 174.83,-167.9"/>
<polygon fill="midnightblue" stroke="midnightblue" points="53.16,-503.97 55.35,-514.34 60.11,-504.87 53.16,-503.97"/>
</g>
<!-- Node79 -->
<g id="node47" class="node">
<title>Node79</title>
<g id="a_node47"><a xlink:href="classtracktion_1_1engine_1_1Track.html" target="_top" xlink:title="Base class for tracks which contain clips and plugins and can be added to Edit[s].">
<polygon fill="none" stroke="red" points="175,-98.5 175,-128.5 280,-128.5 280,-98.5 175,-98.5"/>
<text text-anchor="start" x="183" y="-116.5" font-family="Helvetica,sans-Serif" font-size="10.00">tracktion::engine::</text>
<text text-anchor="middle" x="227.5" y="-105.5" font-family="Helvetica,sans-Serif" font-size="10.00">Track</text>
</a>
</g>
</g>
<!-- Node1&#45;&gt;Node79 -->
<g id="edge46" class="edge">
<title>Node1&#45;&gt;Node79</title>
<path fill="none" stroke="midnightblue" d="M55.8,-504.1C63.38,-425.98 90.03,-191.3 141,-137.5 149.91,-128.1 162.17,-122.28 174.64,-118.71"/>
<polygon fill="midnightblue" stroke="midnightblue" points="52.28,-504.17 54.82,-514.45 59.25,-504.83 52.28,-504.17"/>
</g>
<!-- Node89 -->
<g id="node48" class="node">
<title>Node89</title>
<g id="a_node48"><a xlink:href="structtracktion_1_1engine_1_1TrackCompManager_1_1TrackComp.html" target="_top" xlink:title=" ">
<polygon fill="none" stroke="black" points="141,-49.5 141,-79.5 314,-79.5 314,-49.5 141,-49.5"/>
<text text-anchor="start" x="149" y="-67.5" font-family="Helvetica,sans-Serif" font-size="10.00">tracktion::engine::</text>
<text text-anchor="middle" x="227.5" y="-56.5" font-family="Helvetica,sans-Serif" font-size="10.00">TrackCompManager::TrackComp</text>
</a>
</g>
</g>
<!-- Node1&#45;&gt;Node89 -->
<g id="edge47" class="edge">
<title>Node1&#45;&gt;Node89</title>
<path fill="none" stroke="midnightblue" d="M55.12,-504.01C61.02,-419.47 84,-150.12 141,-88.5 144.14,-85.1 147.72,-82.18 151.59,-79.65"/>
<polygon fill="midnightblue" stroke="midnightblue" points="51.63,-503.82 54.45,-514.03 58.61,-504.29 51.63,-503.82"/>
</g>
<!-- Node90 -->
<g id="node49" class="node">
<title>Node90</title>
<g id="a_node49"><a xlink:href="classtracktion_1_1engine_1_1TrackItem.html" target="_top" xlink:title="Base class for EditItems that live in a Track, e.g.">
<polygon fill="none" stroke="red" points="175,-0.5 175,-30.5 280,-30.5 280,-0.5 175,-0.5"/>
<text text-anchor="start" x="183" y="-18.5" font-family="Helvetica,sans-Serif" font-size="10.00">tracktion::engine::</text>
<text text-anchor="middle" x="227.5" y="-7.5" font-family="Helvetica,sans-Serif" font-size="10.00">TrackItem</text>
</a>
</g>
</g>
<!-- Node1&#45;&gt;Node90 -->
<g id="edge48" class="edge">
<title>Node1&#45;&gt;Node90</title>
<path fill="none" stroke="midnightblue" d="M54.56,-504.22C58.86,-413.94 77.87,-109.07 141,-39.5 149.81,-29.8 162.19,-23.89 174.81,-20.33"/>
<polygon fill="midnightblue" stroke="midnightblue" points="51.06,-504.22 54.1,-514.37 58.05,-504.54 51.06,-504.22"/>
</g>
<!-- Node3 -->
<g id="node3" class="node">
<title>Node3</title>
<g id="a_node3"><a xlink:href="structtracktion_1_1engine_1_1DiscreteLabelledParameter.html" target="_top" xlink:title=" ">
<polygon fill="none" stroke="black" points="371,-1636.5 371,-1666.5 520,-1666.5 520,-1636.5 371,-1636.5"/>
<text text-anchor="start" x="379" y="-1654.5" font-family="Helvetica,sans-Serif" font-size="10.00">tracktion::engine::</text>
<text text-anchor="middle" x="445.5" y="-1643.5" font-family="Helvetica,sans-Serif" font-size="10.00">DiscreteLabelledParameter</text>
</a>
</g>
</g>
<!-- Node2&#45;&gt;Node3 -->
<g id="edge2" class="edge">
<title>Node2&#45;&gt;Node3</title>
<path fill="none" stroke="midnightblue" d="M249.81,-1550.84C272.56,-1573.42 310.69,-1607.72 350,-1627.5 356.8,-1630.92 364.14,-1633.89 371.6,-1636.44"/>
<polygon fill="midnightblue" stroke="midnightblue" points="252.22,-1548.31 242.7,-1543.67 247.25,-1553.24 252.22,-1548.31"/>
</g>
<!-- Node4 -->
<g id="node4" class="node">
<title>Node4</title>
<g id="a_node4"><a xlink:href="classtracktion_1_1engine_1_1ExternalAutomatableParameter.html" target="_top" xlink:title=" ">
<polygon fill="none" stroke="black" points="360.5,-1587.5 360.5,-1617.5 530.5,-1617.5 530.5,-1587.5 360.5,-1587.5"/>
<text text-anchor="start" x="368.5" y="-1605.5" font-family="Helvetica,sans-Serif" font-size="10.00">tracktion::engine::</text>
<text text-anchor="middle" x="445.5" y="-1594.5" font-family="Helvetica,sans-Serif" font-size="10.00">ExternalAutomatableParameter</text>
</a>
</g>
</g>
<!-- Node2&#45;&gt;Node4 -->
<g id="edge3" class="edge">
<title>Node2&#45;&gt;Node4</title>
<path fill="none" stroke="midnightblue" d="M270.72,-1547.6C293.84,-1557.62 323.16,-1569.62 350,-1578.5 359.64,-1581.69 369.96,-1584.7 380.1,-1587.45"/>
<polygon fill="midnightblue" stroke="midnightblue" points="272.11,-1544.39 261.54,-1543.59 269.3,-1550.8 272.11,-1544.39"/>
</g>
<!-- Node5 -->
<g id="node5" class="node">
<title>Node5</title>
<g id="a_node5"><a xlink:href="classtracktion_1_1engine_1_1MacroParameter.html" target="_top" xlink:title="A MacroParameter is an AutomatableParameter which is a collection of Mappings.">
<polygon fill="none" stroke="black" points="393,-1538.5 393,-1568.5 498,-1568.5 498,-1538.5 393,-1538.5"/>
<text text-anchor="start" x="401" y="-1556.5" font-family="Helvetica,sans-Serif" font-size="10.00">tracktion::engine::</text>
<text text-anchor="middle" x="445.5" y="-1545.5" font-family="Helvetica,sans-Serif" font-size="10.00">MacroParameter</text>
</a>
</g>
</g>
<!-- Node2&#45;&gt;Node5 -->
<g id="edge4" class="edge">
<title>Node2&#45;&gt;Node5</title>
<path fill="none" stroke="midnightblue" d="M303.02,-1537.13C332.63,-1540.55 365.97,-1544.41 392.84,-1547.52"/>
<polygon fill="midnightblue" stroke="midnightblue" points="303.06,-1533.61 292.72,-1535.93 302.25,-1540.56 303.06,-1533.61"/>
</g>
<!-- Node6 -->
<g id="node6" class="node">
<title>Node6</title>
<g id="a_node6"><a xlink:href="structtracktion_1_1engine_1_1PluginWetDryAutomatableParam.html" target="_top" xlink:title="specialised AutomatableParameter for wet/dry.">
<polygon fill="none" stroke="black" points="357.5,-1489.5 357.5,-1519.5 533.5,-1519.5 533.5,-1489.5 357.5,-1489.5"/>
<text text-anchor="start" x="365.5" y="-1507.5" font-family="Helvetica,sans-Serif" font-size="10.00">tracktion::engine::</text>
<text text-anchor="middle" x="445.5" y="-1496.5" font-family="Helvetica,sans-Serif" font-size="10.00">PluginWetDryAutomatableParam</text>
</a>
</g>
</g>
<!-- Node2&#45;&gt;Node6 -->
<g id="edge5" class="edge">
<title>Node2&#45;&gt;Node6</title>
<path fill="none" stroke="midnightblue" d="M302.88,-1520.24C320.43,-1518.29 339.28,-1516.19 357.33,-1514.19"/>
<polygon fill="midnightblue" stroke="midnightblue" points="302.27,-1516.78 292.72,-1521.36 303.05,-1523.74 302.27,-1516.78"/>
</g>
<!-- Node7 -->
<g id="node7" class="node">
<title>Node7</title>
<g id="a_node7"><a xlink:href="structtracktion_1_1engine_1_1SuffixedParameter.html" target="_top" xlink:title=" ">
<polygon fill="none" stroke="black" points="392.5,-1440.5 392.5,-1470.5 498.5,-1470.5 498.5,-1440.5 392.5,-1440.5"/>
<text text-anchor="start" x="400.5" y="-1458.5" font-family="Helvetica,sans-Serif" font-size="10.00">tracktion::engine::</text>
<text text-anchor="middle" x="445.5" y="-1447.5" font-family="Helvetica,sans-Serif" font-size="10.00">SuffixedParameter</text>
</a>
</g>
</g>
<!-- Node2&#45;&gt;Node7 -->
<g id="edge6" class="edge">
<title>Node2&#45;&gt;Node7</title>
<path fill="none" stroke="midnightblue" d="M272.87,-1509.52C295.68,-1500.13 324.08,-1489.02 350,-1480.5 363.54,-1476.05 378.37,-1471.83 392.19,-1468.17"/>
<polygon fill="midnightblue" stroke="midnightblue" points="271.35,-1506.36 263.45,-1513.42 274.03,-1512.82 271.35,-1506.36"/>
</g>
<!-- Node9 -->
<g id="node9" class="node">
<title>Node9</title>
<g id="a_node9"><a xlink:href="classtracktion_1_1engine_1_1AlphaTrackControlSurface.html" target="_top" xlink:title=" ">
<polygon fill="none" stroke="black" points="374.5,-1391.5 374.5,-1421.5 516.5,-1421.5 516.5,-1391.5 374.5,-1391.5"/>
<text text-anchor="start" x="382.5" y="-1409.5" font-family="Helvetica,sans-Serif" font-size="10.00">tracktion::engine::</text>
<text text-anchor="middle" x="445.5" y="-1398.5" font-family="Helvetica,sans-Serif" font-size="10.00">AlphaTrackControlSurface</text>
</a>
</g>
</g>
<!-- Node8&#45;&gt;Node9 -->
<g id="edge8" class="edge">
<title>Node8&#45;&gt;Node9</title>
<path fill="none" stroke="midnightblue" d="M241.72,-1258.8C261.05,-1291.95 300.2,-1350.86 350,-1382.5 357.43,-1387.22 365.74,-1391.01 374.27,-1394.06"/>
<polygon fill="midnightblue" stroke="midnightblue" points="244.58,-1256.74 236.59,-1249.78 238.5,-1260.2 244.58,-1256.74"/>
</g>
<!-- Node10 -->
<g id="node10" class="node">
<title>Node10</title>
<g id="a_node10"><a xlink:href="classtracktion_1_1engine_1_1CustomControlSurface.html" target="_top" xlink:title=" ">
<polygon fill="none" stroke="black" points="382.5,-1342.5 382.5,-1372.5 508.5,-1372.5 508.5,-1342.5 382.5,-1342.5"/>
<text text-anchor="start" x="390.5" y="-1360.5" font-family="Helvetica,sans-Serif" font-size="10.00">tracktion::engine::</text>
<text text-anchor="middle" x="445.5" y="-1349.5" font-family="Helvetica,sans-Serif" font-size="10.00">CustomControlSurface</text>
</a>
</g>
</g>
<!-- Node8&#45;&gt;Node10 -->
<g id="edge9" class="edge">
<title>Node8&#45;&gt;Node10</title>
<path fill="none" stroke="midnightblue" d="M249.81,-1256.84C272.56,-1279.42 310.69,-1313.72 350,-1333.5 359.98,-1338.52 371.09,-1342.55 382.1,-1345.76"/>
<polygon fill="midnightblue" stroke="midnightblue" points="252.22,-1254.31 242.7,-1249.67 247.25,-1259.24 252.22,-1254.31"/>
</g>
<!-- Node11 -->
<g id="node11" class="node">
<title>Node11</title>
<g id="a_node11"><a xlink:href="classtracktion_1_1engine_1_1MackieC4.html" target="_top" xlink:title=" ">
<polygon fill="none" stroke="black" points="393,-1293.5 393,-1323.5 498,-1323.5 498,-1293.5 393,-1293.5"/>
<text text-anchor="start" x="401" y="-1311.5" font-family="Helvetica,sans-Serif" font-size="10.00">tracktion::engine::</text>
<text text-anchor="middle" x="445.5" y="-1300.5" font-family="Helvetica,sans-Serif" font-size="10.00">MackieC4</text>
</a>
</g>
</g>
<!-- Node8&#45;&gt;Node11 -->
<g id="edge10" class="edge">
<title>Node8&#45;&gt;Node11</title>
<path fill="none" stroke="midnightblue" d="M270.72,-1253.6C293.84,-1263.62 323.16,-1275.62 350,-1284.5 363.66,-1289.02 378.67,-1293.18 392.62,-1296.73"/>
<polygon fill="midnightblue" stroke="midnightblue" points="272.11,-1250.39 261.54,-1249.59 269.3,-1256.8 272.11,-1250.39"/>
</g>
<!-- Node12 -->
<g id="node12" class="node">
<title>Node12</title>
<g id="a_node12"><a xlink:href="classtracktion_1_1engine_1_1MackieMCU.html" target="_top" xlink:title=" ">
<polygon fill="none" stroke="red" points="393,-1244.5 393,-1274.5 498,-1274.5 498,-1244.5 393,-1244.5"/>
<text text-anchor="start" x="401" y="-1262.5" font-family="Helvetica,sans-Serif" font-size="10.00">tracktion::engine::</text>
<text text-anchor="middle" x="445.5" y="-1251.5" font-family="Helvetica,sans-Serif" font-size="10.00">MackieMCU</text>
</a>
</g>
</g>
<!-- Node8&#45;&gt;Node12 -->
<g id="edge11" class="edge">
<title>Node8&#45;&gt;Node12</title>
<path fill="none" stroke="midnightblue" d="M290.5,-1241.68C322.89,-1245.42 362.07,-1249.96 392.81,-1253.52"/>
<polygon fill="midnightblue" stroke="midnightblue" points="290.57,-1238.16 280.24,-1240.49 289.77,-1245.11 290.57,-1238.16"/>
</g>
<!-- Node14 -->
<g id="node13" class="node">
<title>Node14</title>
<g id="a_node13"><a xlink:href="classtracktion_1_1engine_1_1MackieXT.html" target="_top" xlink:title=" ">
<polygon fill="none" stroke="black" points="393,-1195.5 393,-1225.5 498,-1225.5 498,-1195.5 393,-1195.5"/>
<text text-anchor="start" x="401" y="-1213.5" font-family="Helvetica,sans-Serif" font-size="10.00">tracktion::engine::</text>
<text text-anchor="middle" x="445.5" y="-1202.5" font-family="Helvetica,sans-Serif" font-size="10.00">MackieXT</text>
</a>
</g>
</g>
<!-- Node8&#45;&gt;Node14 -->
<g id="edge12" class="edge">
<title>Node8&#45;&gt;Node14</title>
<path fill="none" stroke="midnightblue" d="M290.5,-1227.61C322.89,-1224.01 362.07,-1219.66 392.81,-1216.24"/>
<polygon fill="midnightblue" stroke="midnightblue" points="289.79,-1224.17 280.24,-1228.75 290.56,-1231.13 289.79,-1224.17"/>
</g>
<!-- Node15 -->
<g id="node14" class="node">
<title>Node15</title>
<g id="a_node14"><a xlink:href="classtracktion_1_1engine_1_1NovationRemoteSl.html" target="_top" xlink:title=" ">
<polygon fill="none" stroke="red" points="391.5,-1146.5 391.5,-1176.5 499.5,-1176.5 499.5,-1146.5 391.5,-1146.5"/>
<text text-anchor="start" x="399.5" y="-1164.5" font-family="Helvetica,sans-Serif" font-size="10.00">tracktion::engine::</text>
<text text-anchor="middle" x="445.5" y="-1153.5" font-family="Helvetica,sans-Serif" font-size="10.00">NovationRemoteSl</text>
</a>
</g>
</g>
<!-- Node8&#45;&gt;Node15 -->
<g id="edge13" class="edge">
<title>Node8&#45;&gt;Node15</title>
<path fill="none" stroke="midnightblue" d="M272.87,-1215.52C295.68,-1206.13 324.08,-1195.02 350,-1186.5 363.22,-1182.16 377.67,-1178.03 391.2,-1174.43"/>
<polygon fill="midnightblue" stroke="midnightblue" points="271.35,-1212.36 263.45,-1219.42 274.03,-1218.82 271.35,-1212.36"/>
</g>
<!-- Node17 -->
<g id="node15" class="node">
<title>Node17</title>
<g id="a_node15"><a xlink:href="classtracktion_1_1engine_1_1TranzportControlSurface.html" target="_top" xlink:title=" ">
<polygon fill="none" stroke="black" points="378.5,-1097.5 378.5,-1127.5 512.5,-1127.5 512.5,-1097.5 378.5,-1097.5"/>
<text text-anchor="start" x="386.5" y="-1115.5" font-family="Helvetica,sans-Serif" font-size="10.00">tracktion::engine::</text>
<text text-anchor="middle" x="445.5" y="-1104.5" font-family="Helvetica,sans-Serif" font-size="10.00">TranzportControlSurface</text>
</a>
</g>
</g>
<!-- Node8&#45;&gt;Node17 -->
<g id="edge14" class="edge">
<title>Node8&#45;&gt;Node17</title>
<path fill="none" stroke="midnightblue" d="M250.32,-1212.34C273.22,-1190.29 311.22,-1157.01 350,-1137.5 358.87,-1133.04 368.62,-1129.31 378.38,-1126.21"/>
<polygon fill="midnightblue" stroke="midnightblue" points="247.85,-1209.85 243.15,-1219.35 252.75,-1214.86 247.85,-1209.85"/>
</g>
<!-- Node19 -->
<g id="node17" class="node">
<title>Node19</title>
<g id="a_node17"><a xlink:href="classtracktion_1_1engine_1_1TempoSetting.html" target="_top" xlink:title="A tempo value, as used in a TempoSequence.">
<polygon fill="none" stroke="black" points="393,-1048.5 393,-1078.5 498,-1078.5 498,-1048.5 393,-1048.5"/>
<text text-anchor="start" x="401" y="-1066.5" font-family="Helvetica,sans-Serif" font-size="10.00">tracktion::engine::</text>
<text text-anchor="middle" x="445.5" y="-1055.5" font-family="Helvetica,sans-Serif" font-size="10.00">TempoSetting</text>
</a>
</g>
</g>
<!-- Node18&#45;&gt;Node19 -->
<g id="edge16" class="edge">
<title>Node18&#45;&gt;Node19</title>
<path fill="none" stroke="midnightblue" d="M290.5,-1044.25C322.89,-1048.3 362.07,-1053.2 392.81,-1057.04"/>
<polygon fill="midnightblue" stroke="midnightblue" points="290.59,-1040.73 280.24,-1042.97 289.73,-1047.68 290.59,-1040.73"/>
</g>
<!-- Node22 -->
<g id="node20" class="node">
<title>Node22</title>
<g id="a_node20"><a xlink:href="classtracktion_1_1engine_1_1MidiInputDevice.html" target="_top" xlink:title=" ">
<polygon fill="none" stroke="red" points="393,-999.5 393,-1029.5 498,-1029.5 498,-999.5 393,-999.5"/>
<text text-anchor="start" x="401" y="-1017.5" font-family="Helvetica,sans-Serif" font-size="10.00">tracktion::engine::</text>
<text text-anchor="middle" x="445.5" y="-1006.5" font-family="Helvetica,sans-Serif" font-size="10.00">MidiInputDevice</text>
</a>
</g>
</g>
<!-- Node21&#45;&gt;Node22 -->
<g id="edge19" class="edge">
<title>Node21&#45;&gt;Node22</title>
<path fill="none" stroke="midnightblue" d="M289.72,-933.37C298.26,-936.58 306.63,-940.56 314,-945.5 335.28,-959.76 328.47,-976.63 350,-990.5 362.81,-998.75 378.29,-1004.17 392.98,-1007.72"/>
<polygon fill="midnightblue" stroke="midnightblue" points="290.64,-929.99 280.04,-930.07 288.38,-936.61 290.64,-929.99"/>
</g>
<!-- Node25 -->
<g id="node21" class="node">
<title>Node25</title>
<g id="a_node21"><a xlink:href="classtracktion_1_1engine_1_1WaveInputDevice.html" target="_top" xlink:title="A (virtual) audio input device.">
<polygon fill="none" stroke="black" points="393,-950.5 393,-980.5 498,-980.5 498,-950.5 393,-950.5"/>
<text text-anchor="start" x="401" y="-968.5" font-family="Helvetica,sans-Serif" font-size="10.00">tracktion::engine::</text>
<text text-anchor="middle" x="445.5" y="-957.5" font-family="Helvetica,sans-Serif" font-size="10.00">WaveInputDevice</text>
</a>
</g>
</g>
<!-- Node21&#45;&gt;Node25 -->
<g id="edge20" class="edge">
<title>Node21&#45;&gt;Node25</title>
<path fill="none" stroke="midnightblue" d="M290.08,-933.33C322.55,-940.09 361.94,-948.3 392.81,-954.73"/>
<polygon fill="midnightblue" stroke="midnightblue" points="290.74,-929.89 280.24,-931.28 289.31,-936.74 290.74,-929.89"/>
</g>
<!-- Node27 -->
<g id="node23" class="node">
<title>Node27</title>
<g id="a_node23"><a xlink:href="structtracktion_1_1engine_1_1InputDeviceInstance_1_1MidiInputDeviceDestination.html" target="_top" xlink:title=" ">
<polygon fill="none" stroke="black" points="366.5,-890 366.5,-931 524.5,-931 524.5,-890 366.5,-890"/>
<text text-anchor="start" x="374.5" y="-919" font-family="Helvetica,sans-Serif" font-size="10.00">tracktion::engine::</text>
<text text-anchor="start" x="374.5" y="-908" font-family="Helvetica,sans-Serif" font-size="10.00">InputDeviceInstance</text>
<text text-anchor="middle" x="445.5" y="-897" font-family="Helvetica,sans-Serif" font-size="10.00">::MidiInputDeviceDestination</text>
</a>
</g>
</g>
<!-- Node26&#45;&gt;Node27 -->
<g id="edge22" class="edge">
<title>Node26&#45;&gt;Node27</title>
<path fill="none" stroke="midnightblue" d="M275.3,-845.68C297.57,-857.12 324.78,-870.34 350,-880.5 358.22,-883.81 366.96,-887.01 375.68,-890"/>
<polygon fill="midnightblue" stroke="midnightblue" points="276.89,-842.56 266.4,-841.07 273.67,-848.78 276.89,-842.56"/>
</g>
<!-- Node28 -->
<g id="node24" class="node">
<title>Node28</title>
<g id="a_node24"><a xlink:href="structtracktion_1_1engine_1_1InputDeviceInstance_1_1VirtualMidiInputDeviceDestination.html" target="_top" xlink:title=" ">
<polygon fill="none" stroke="black" points="350,-830 350,-871 541,-871 541,-830 350,-830"/>
<text text-anchor="start" x="358" y="-859" font-family="Helvetica,sans-Serif" font-size="10.00">tracktion::engine::</text>
<text text-anchor="start" x="358" y="-848" font-family="Helvetica,sans-Serif" font-size="10.00">InputDeviceInstance</text>
<text text-anchor="middle" x="445.5" y="-837" font-family="Helvetica,sans-Serif" font-size="10.00">::VirtualMidiInputDeviceDestination</text>
</a>
</g>
</g>
<!-- Node26&#45;&gt;Node28 -->
<g id="edge23" class="edge">
<title>Node26&#45;&gt;Node28</title>
<path fill="none" stroke="midnightblue" d="M306.34,-831.31C320.41,-833.26 335.21,-835.32 349.69,-837.33"/>
<polygon fill="midnightblue" stroke="midnightblue" points="306.64,-827.82 296.25,-829.91 305.67,-834.75 306.64,-827.82"/>
</g>
<!-- Node29 -->
<g id="node25" class="node">
<title>Node29</title>
<g id="a_node25"><a xlink:href="structtracktion_1_1engine_1_1InputDeviceInstance_1_1WaveInputDeviceDestination.html" target="_top" xlink:title=" ">
<polygon fill="none" stroke="black" points="363.5,-770 363.5,-811 527.5,-811 527.5,-770 363.5,-770"/>
<text text-anchor="start" x="371.5" y="-799" font-family="Helvetica,sans-Serif" font-size="10.00">tracktion::engine::</text>
<text text-anchor="start" x="371.5" y="-788" font-family="Helvetica,sans-Serif" font-size="10.00">InputDeviceInstance</text>
<text text-anchor="middle" x="445.5" y="-777" font-family="Helvetica,sans-Serif" font-size="10.00">::WaveInputDeviceDestination</text>
</a>
</g>
</g>
<!-- Node26&#45;&gt;Node29 -->
<g id="edge24" class="edge">
<title>Node26&#45;&gt;Node29</title>
<path fill="none" stroke="midnightblue" d="M306.39,-809.68C324.9,-807.11 344.7,-804.36 363.35,-801.77"/>
<polygon fill="midnightblue" stroke="midnightblue" points="305.67,-806.25 296.25,-811.09 306.64,-813.18 305.67,-806.25"/>
</g>
<!-- Node32 -->
<g id="node28" class="node">
<title>Node32</title>
<g id="a_node28"><a xlink:href="classtracktion_1_1engine_1_1BreakpointOscillatorModifier.html" target="_top" xlink:title=" ">
<polygon fill="none" stroke="black" points="367.5,-720.5 367.5,-750.5 523.5,-750.5 523.5,-720.5 367.5,-720.5"/>
<text text-anchor="start" x="375.5" y="-738.5" font-family="Helvetica,sans-Serif" font-size="10.00">tracktion::engine::</text>
<text text-anchor="middle" x="445.5" y="-727.5" font-family="Helvetica,sans-Serif" font-size="10.00">BreakpointOscillatorModifier</text>
</a>
</g>
</g>
<!-- Node31&#45;&gt;Node32 -->
<g id="edge27" class="edge">
<title>Node31&#45;&gt;Node32</title>
<path fill="none" stroke="midnightblue" d="M290.29,-711.23C314.31,-715.01 342.1,-719.38 367.41,-723.37"/>
<polygon fill="midnightblue" stroke="midnightblue" points="290.66,-707.74 280.24,-709.64 289.57,-714.66 290.66,-707.74"/>
</g>
<!-- Node33 -->
<g id="node29" class="node">
<title>Node33</title>
<g id="a_node29"><a xlink:href="classtracktion_1_1engine_1_1EnvelopeFollowerModifier.html" target="_top" xlink:title=" ">
<polygon fill="none" stroke="black" points="374,-671.5 374,-701.5 517,-701.5 517,-671.5 374,-671.5"/>
<text text-anchor="start" x="382" y="-689.5" font-family="Helvetica,sans-Serif" font-size="10.00">tracktion::engine::</text>
<text text-anchor="middle" x="445.5" y="-678.5" font-family="Helvetica,sans-Serif" font-size="10.00">EnvelopeFollowerModifier</text>
</a>
</g>
</g>
<!-- Node31&#45;&gt;Node33 -->
<g id="edge28" class="edge">
<title>Node31&#45;&gt;Node33</title>
<path fill="none" stroke="midnightblue" d="M290.38,-697.2C316.49,-695.39 347.02,-693.27 373.99,-691.4"/>
<polygon fill="midnightblue" stroke="midnightblue" points="289.97,-693.72 280.24,-697.91 290.46,-700.71 289.97,-693.72"/>
</g>
<!-- Node34 -->
<g id="node30" class="node">
<title>Node34</title>
<g id="a_node30"><a xlink:href="classtracktion_1_1engine_1_1LFOModifier.html" target="_top" xlink:title=" ">
<polygon fill="none" stroke="black" points="393,-622.5 393,-652.5 498,-652.5 498,-622.5 393,-622.5"/>
<text text-anchor="start" x="401" y="-640.5" font-family="Helvetica,sans-Serif" font-size="10.00">tracktion::engine::</text>
<text text-anchor="middle" x="445.5" y="-629.5" font-family="Helvetica,sans-Serif" font-size="10.00">LFOModifier</text>
</a>
</g>
</g>
<!-- Node31&#45;&gt;Node34 -->
<g id="edge29" class="edge">
<title>Node31&#45;&gt;Node34</title>
<path fill="none" stroke="midnightblue" d="M290.14,-685.16C298.21,-682.74 306.34,-680.16 314,-677.5 330.37,-671.81 333.58,-668.06 350,-662.5 363.66,-657.87 378.67,-653.56 392.62,-649.87"/>
<polygon fill="midnightblue" stroke="midnightblue" points="288.97,-681.86 280.36,-688.03 290.94,-688.58 288.97,-681.86"/>
</g>
<!-- Node35 -->
<g id="node31" class="node">
<title>Node35</title>
<g id="a_node31"><a xlink:href="classtracktion_1_1engine_1_1MIDITrackerModifier.html" target="_top" xlink:title=" ">
<polygon fill="none" stroke="black" points="389,-573.5 389,-603.5 502,-603.5 502,-573.5 389,-573.5"/>
<text text-anchor="start" x="397" y="-591.5" font-family="Helvetica,sans-Serif" font-size="10.00">tracktion::engine::</text>
<text text-anchor="middle" x="445.5" y="-580.5" font-family="Helvetica,sans-Serif" font-size="10.00">MIDITrackerModifier</text>
</a>
</g>
</g>
<!-- Node31&#45;&gt;Node35 -->
<g id="edge30" class="edge">
<title>Node31&#45;&gt;Node35</title>
<path fill="none" stroke="midnightblue" d="M290.15,-690.57C298.7,-687.3 306.95,-683.04 314,-677.5 339.66,-657.34 324.19,-633.47 350,-613.5 361.14,-604.88 374.99,-599.22 388.62,-595.51"/>
<polygon fill="midnightblue" stroke="midnightblue" points="288.77,-687.35 280.42,-693.87 291.01,-693.98 288.77,-687.35"/>
</g>
<!-- Node36 -->
<g id="node32" class="node">
<title>Node36</title>
<g id="a_node32"><a xlink:href="classtracktion_1_1engine_1_1RandomModifier.html" target="_top" xlink:title=" ">
<polygon fill="none" stroke="black" points="393,-524.5 393,-554.5 498,-554.5 498,-524.5 393,-524.5"/>
<text text-anchor="start" x="401" y="-542.5" font-family="Helvetica,sans-Serif" font-size="10.00">tracktion::engine::</text>
<text text-anchor="middle" x="445.5" y="-531.5" font-family="Helvetica,sans-Serif" font-size="10.00">RandomModifier</text>
</a>
</g>
</g>
<!-- Node31&#45;&gt;Node36 -->
<g id="edge31" class="edge">
<title>Node31&#45;&gt;Node36</title>
<path fill="none" stroke="midnightblue" d="M290,-692.3C298.85,-688.81 307.24,-684.03 314,-677.5 351.91,-640.88 311.81,-600.83 350,-564.5 361.56,-553.5 377.37,-547.21 392.75,-543.65"/>
<polygon fill="midnightblue" stroke="midnightblue" points="288.6,-689.08 280.25,-695.61 290.85,-695.71 288.6,-689.08"/>
</g>
<!-- Node37 -->
<g id="node33" class="node">
<title>Node37</title>
<g id="a_node33"><a xlink:href="classtracktion_1_1engine_1_1StepModifier.html" target="_top" xlink:title=" ">
<polygon fill="none" stroke="black" points="393,-475.5 393,-505.5 498,-505.5 498,-475.5 393,-475.5"/>
<text text-anchor="start" x="401" y="-493.5" font-family="Helvetica,sans-Serif" font-size="10.00">tracktion::engine::</text>
<text text-anchor="middle" x="445.5" y="-482.5" font-family="Helvetica,sans-Serif" font-size="10.00">StepModifier</text>
</a>
</g>
</g>
<!-- Node31&#45;&gt;Node37 -->
<g id="edge32" class="edge">
<title>Node31&#45;&gt;Node37</title>
<path fill="none" stroke="midnightblue" d="M289.91,-693.06C298.93,-689.48 307.39,-684.48 314,-677.5 364.7,-623.93 298.9,-568.69 350,-515.5 361.17,-503.87 377.06,-497.43 392.64,-493.93"/>
<polygon fill="midnightblue" stroke="midnightblue" points="288.72,-689.77 280.37,-696.29 290.96,-696.4 288.72,-689.77"/>
</g>
<!-- Node40 -->
<g id="node36" class="node">
<title>Node40</title>
<g id="a_node36"><a xlink:href="classtracktion_1_1engine_1_1MidiOutputDevice.html" target="_top" xlink:title=" ">
<polygon fill="none" stroke="red" points="393,-426.5 393,-456.5 498,-456.5 498,-426.5 393,-426.5"/>
<text text-anchor="start" x="401" y="-444.5" font-family="Helvetica,sans-Serif" font-size="10.00">tracktion::engine::</text>
<text text-anchor="middle" x="445.5" y="-433.5" font-family="Helvetica,sans-Serif" font-size="10.00">MidiOutputDevice</text>
</a>
</g>
</g>
<!-- Node39&#45;&gt;Node40 -->
<g id="edge35" class="edge">
<title>Node39&#45;&gt;Node40</title>
<path fill="none" stroke="midnightblue" d="M290,-594.3C298.85,-590.81 307.24,-586.03 314,-579.5 351.91,-542.88 311.81,-502.83 350,-466.5 361.56,-455.5 377.37,-449.21 392.75,-445.65"/>
<polygon fill="midnightblue" stroke="midnightblue" points="288.6,-591.08 280.25,-597.61 290.85,-597.71 288.6,-591.08"/>
</g>
<!-- Node42 -->
<g id="node37" class="node">
<title>Node42</title>
<g id="a_node37"><a xlink:href="classtracktion_1_1engine_1_1WaveOutputDevice.html" target="_top" xlink:title="A (virtual) audio output device.">
<polygon fill="none" stroke="black" points="390.5,-377.5 390.5,-407.5 500.5,-407.5 500.5,-377.5 390.5,-377.5"/>
<text text-anchor="start" x="398.5" y="-395.5" font-family="Helvetica,sans-Serif" font-size="10.00">tracktion::engine::</text>
<text text-anchor="middle" x="445.5" y="-384.5" font-family="Helvetica,sans-Serif" font-size="10.00">WaveOutputDevice</text>
</a>
</g>
</g>
<!-- Node39&#45;&gt;Node42 -->
<g id="edge36" class="edge">
<title>Node39&#45;&gt;Node42</title>
<path fill="none" stroke="midnightblue" d="M289.92,-595.07C298.94,-591.49 307.4,-586.49 314,-579.5 364.96,-525.58 298.37,-469.78 350,-416.5 360.6,-405.56 375.43,-399.35 390.2,-395.89"/>
<polygon fill="midnightblue" stroke="midnightblue" points="288.73,-591.78 280.38,-598.3 290.97,-598.41 288.73,-591.78"/>
</g>
</g>
</svg>
