<?xml version="1.0" encoding="UTF-8" standalone="no"?>
<!DOCTYPE svg PUBLIC "-//W3C//DTD SVG 1.1//EN"
 "http://www.w3.org/Graphics/SVG/1.1/DTD/svg11.dtd">
<!-- Generated by graphviz version 2.43.0 (0)
 -->
<!-- Title: tracktion_engine::Plugin Pages: 1 -->
<svg width="757pt" height="1273pt"
 viewBox="0.00 0.00 757.00 1273.00" xmlns="http://www.w3.org/2000/svg" xmlns:xlink="http://www.w3.org/1999/xlink">
<g id="graph0" class="graph" transform="scale(1 1) rotate(0) translate(4 1269)">
<title>tracktion_engine::Plugin</title>
<!-- Node1 -->
<g id="node1" class="node">
<title>Node1</title>
<g id="a_node1"><a xlink:title=" ">
<polygon fill="#bfbfbf" stroke="black" points="403,-613 403,-632 537,-632 537,-613 403,-613"/>
<text text-anchor="middle" x="470" y="-620" font-family="Helvetica,sans-Serif" font-size="10.00">tracktion_engine::Plugin</text>
</a>
</g>
</g>
<!-- Node8 -->
<g id="node8" class="node">
<title>Node8</title>
<g id="a_node8"><a xlink:href="classtracktion__engine_1_1AirWindowsPlugin.html" target="_top" xlink:title=" ">
<polygon fill="none" stroke="black" points="580,-1234.5 580,-1264.5 742,-1264.5 742,-1234.5 580,-1234.5"/>
<text text-anchor="start" x="588" y="-1252.5" font-family="Helvetica,sans-Serif" font-size="10.00">tracktion_engine::AirWindows</text>
<text text-anchor="middle" x="661" y="-1241.5" font-family="Helvetica,sans-Serif" font-size="10.00">Plugin</text>
</a>
</g>
</g>
<!-- Node1&#45;&gt;Node8 -->
<g id="edge7" class="edge">
<title>Node1&#45;&gt;Node8</title>
<path fill="none" stroke="midnightblue" d="M471.58,-642.24C474.72,-736.13 492.73,-1136.63 573,-1225.5 576.05,-1228.87 579.52,-1231.79 583.28,-1234.31"/>
<polygon fill="midnightblue" stroke="midnightblue" points="475.07,-642.02 471.26,-632.14 468.08,-642.24 475.07,-642.02"/>
</g>
<!-- Node9 -->
<g id="node9" class="node">
<title>Node9</title>
<g id="a_node9"><a xlink:href="classtracktion__engine_1_1AuxReturnPlugin.html" target="_top" xlink:title=" ">
<polygon fill="none" stroke="black" points="583.5,-1185.5 583.5,-1215.5 738.5,-1215.5 738.5,-1185.5 583.5,-1185.5"/>
<text text-anchor="start" x="591.5" y="-1203.5" font-family="Helvetica,sans-Serif" font-size="10.00">tracktion_engine::AuxReturn</text>
<text text-anchor="middle" x="661" y="-1192.5" font-family="Helvetica,sans-Serif" font-size="10.00">Plugin</text>
</a>
</g>
</g>
<!-- Node1&#45;&gt;Node9 -->
<g id="edge8" class="edge">
<title>Node1&#45;&gt;Node9</title>
<path fill="none" stroke="midnightblue" d="M471.9,-642.31C476.37,-731.59 498.94,-1095.69 573,-1176.5 576.07,-1179.85 579.56,-1182.75 583.34,-1185.26"/>
<polygon fill="midnightblue" stroke="midnightblue" points="475.39,-642.02 471.42,-632.2 468.4,-642.36 475.39,-642.02"/>
</g>
<!-- Node10 -->
<g id="node10" class="node">
<title>Node10</title>
<g id="a_node10"><a xlink:href="classtracktion__engine_1_1AuxSendPlugin.html" target="_top" xlink:title=" ">
<polygon fill="none" stroke="black" points="587.5,-1136.5 587.5,-1166.5 734.5,-1166.5 734.5,-1136.5 587.5,-1136.5"/>
<text text-anchor="start" x="595.5" y="-1154.5" font-family="Helvetica,sans-Serif" font-size="10.00">tracktion_engine::AuxSend</text>
<text text-anchor="middle" x="661" y="-1143.5" font-family="Helvetica,sans-Serif" font-size="10.00">Plugin</text>
</a>
</g>
</g>
<!-- Node1&#45;&gt;Node10 -->
<g id="edge9" class="edge">
<title>Node1&#45;&gt;Node10</title>
<path fill="none" stroke="midnightblue" d="M472.28,-642.14C478.12,-726.2 505.06,-1054.64 573,-1127.5 577.17,-1131.97 582.08,-1135.63 587.43,-1138.63"/>
<polygon fill="midnightblue" stroke="midnightblue" points="475.77,-641.89 471.6,-632.15 468.78,-642.36 475.77,-641.89"/>
</g>
<!-- Node11 -->
<g id="node11" class="node">
<title>Node11</title>
<g id="a_node11"><a xlink:href="classtracktion__engine_1_1ChorusPlugin.html" target="_top" xlink:title=" ">
<polygon fill="none" stroke="black" points="592,-1087.5 592,-1117.5 730,-1117.5 730,-1087.5 592,-1087.5"/>
<text text-anchor="start" x="600" y="-1105.5" font-family="Helvetica,sans-Serif" font-size="10.00">tracktion_engine::Chorus</text>
<text text-anchor="middle" x="661" y="-1094.5" font-family="Helvetica,sans-Serif" font-size="10.00">Plugin</text>
</a>
</g>
</g>
<!-- Node1&#45;&gt;Node11 -->
<g id="edge10" class="edge">
<title>Node1&#45;&gt;Node11</title>
<path fill="none" stroke="midnightblue" d="M472.77,-642.48C480.18,-721.84 511.29,-1013.68 573,-1078.5 578.29,-1084.06 584.75,-1088.37 591.73,-1091.71"/>
<polygon fill="midnightblue" stroke="midnightblue" points="476.24,-642 471.84,-632.36 469.27,-642.64 476.24,-642"/>
</g>
<!-- Node12 -->
<g id="node12" class="node">
<title>Node12</title>
<g id="a_node12"><a xlink:href="classtracktion__engine_1_1CompressorPlugin.html" target="_top" xlink:title=" ">
<polygon fill="none" stroke="black" points="579.5,-1038.5 579.5,-1068.5 742.5,-1068.5 742.5,-1038.5 579.5,-1038.5"/>
<text text-anchor="start" x="587.5" y="-1056.5" font-family="Helvetica,sans-Serif" font-size="10.00">tracktion_engine::Compressor</text>
<text text-anchor="middle" x="661" y="-1045.5" font-family="Helvetica,sans-Serif" font-size="10.00">Plugin</text>
</a>
</g>
</g>
<!-- Node1&#45;&gt;Node12 -->
<g id="edge11" class="edge">
<title>Node1&#45;&gt;Node12</title>
<path fill="none" stroke="midnightblue" d="M473.39,-642.59C482.58,-716.43 517.86,-971.47 573,-1028.5 576.71,-1032.34 580.98,-1035.6 585.58,-1038.37"/>
<polygon fill="midnightblue" stroke="midnightblue" points="476.83,-641.86 472.14,-632.35 469.88,-642.7 476.83,-641.86"/>
</g>
<!-- Node13 -->
<g id="node13" class="node">
<title>Node13</title>
<g id="a_node13"><a xlink:href="classtracktion__engine_1_1DelayPlugin.html" target="_top" xlink:title=" ">
<polygon fill="none" stroke="black" points="579.5,-1000 579.5,-1019 742.5,-1019 742.5,-1000 579.5,-1000"/>
<text text-anchor="middle" x="661" y="-1007" font-family="Helvetica,sans-Serif" font-size="10.00">tracktion_engine::DelayPlugin</text>
</a>
</g>
</g>
<!-- Node1&#45;&gt;Node13 -->
<g id="edge12" class="edge">
<title>Node1&#45;&gt;Node13</title>
<path fill="none" stroke="midnightblue" d="M473.75,-642.15C483.82,-711.18 520.77,-941.08 573,-990.5 577.04,-994.33 581.67,-997.45 586.63,-1000"/>
<polygon fill="midnightblue" stroke="midnightblue" points="477.21,-641.58 472.32,-632.18 470.28,-642.57 477.21,-641.58"/>
</g>
<!-- Node14 -->
<g id="node14" class="node">
<title>Node14</title>
<g id="a_node14"><a xlink:href="classtracktion__engine_1_1EqualiserPlugin.html" target="_top" xlink:title=" ">
<polygon fill="none" stroke="black" points="586.5,-950.5 586.5,-980.5 735.5,-980.5 735.5,-950.5 586.5,-950.5"/>
<text text-anchor="start" x="594.5" y="-968.5" font-family="Helvetica,sans-Serif" font-size="10.00">tracktion_engine::Equaliser</text>
<text text-anchor="middle" x="661" y="-957.5" font-family="Helvetica,sans-Serif" font-size="10.00">Plugin</text>
</a>
</g>
</g>
<!-- Node1&#45;&gt;Node14 -->
<g id="edge13" class="edge">
<title>Node1&#45;&gt;Node14</title>
<path fill="none" stroke="midnightblue" d="M471.2,-642.57C472.87,-698.49 485.5,-857.46 573,-941.5 576.96,-945.3 581.45,-948.51 586.28,-951.22"/>
<polygon fill="midnightblue" stroke="midnightblue" points="474.69,-642.19 470.98,-632.27 467.69,-642.34 474.69,-642.19"/>
</g>
<!-- Node15 -->
<g id="node15" class="node">
<title>Node15</title>
<g id="a_node15"><a xlink:href="classtracktion__engine_1_1ExternalPlugin.html" target="_top" xlink:title=" ">
<polygon fill="none" stroke="black" points="588.5,-901.5 588.5,-931.5 733.5,-931.5 733.5,-901.5 588.5,-901.5"/>
<text text-anchor="start" x="596.5" y="-919.5" font-family="Helvetica,sans-Serif" font-size="10.00">tracktion_engine::External</text>
<text text-anchor="middle" x="661" y="-908.5" font-family="Helvetica,sans-Serif" font-size="10.00">Plugin</text>
</a>
</g>
</g>
<!-- Node1&#45;&gt;Node15 -->
<g id="edge14" class="edge">
<title>Node1&#45;&gt;Node15</title>
<path fill="none" stroke="midnightblue" d="M472.49,-642.12C477.35,-691.75 497.09,-823.27 573,-892.5 577.52,-896.62 582.67,-900.04 588.17,-902.88"/>
<polygon fill="midnightblue" stroke="midnightblue" points="475.97,-641.73 471.61,-632.08 469,-642.34 475.97,-641.73"/>
</g>
<!-- Node16 -->
<g id="node16" class="node">
<title>Node16</title>
<g id="a_node16"><a xlink:href="classtracktion__engine_1_1FourOscPlugin.html" target="_top" xlink:title=" ">
<polygon fill="none" stroke="black" points="589.5,-852.5 589.5,-882.5 732.5,-882.5 732.5,-852.5 589.5,-852.5"/>
<text text-anchor="start" x="597.5" y="-870.5" font-family="Helvetica,sans-Serif" font-size="10.00">tracktion_engine::FourOsc</text>
<text text-anchor="middle" x="661" y="-859.5" font-family="Helvetica,sans-Serif" font-size="10.00">Plugin</text>
</a>
</g>
</g>
<!-- Node1&#45;&gt;Node16 -->
<g id="edge15" class="edge">
<title>Node1&#45;&gt;Node16</title>
<path fill="none" stroke="midnightblue" d="M474.36,-642.27C482.76,-685.52 508.82,-789.03 573,-843.5 577.9,-847.66 583.46,-851.1 589.34,-853.95"/>
<polygon fill="midnightblue" stroke="midnightblue" points="477.76,-641.4 472.51,-632.19 470.87,-642.66 477.76,-641.4"/>
</g>
<!-- Node17 -->
<g id="node17" class="node">
<title>Node17</title>
<g id="a_node17"><a xlink:href="classtracktion__engine_1_1FreezePointPlugin.html" target="_top" xlink:title=" ">
<polygon fill="none" stroke="black" points="592.5,-803.5 592.5,-833.5 729.5,-833.5 729.5,-803.5 592.5,-803.5"/>
<text text-anchor="start" x="600.5" y="-821.5" font-family="Helvetica,sans-Serif" font-size="10.00">tracktion_engine::Freeze</text>
<text text-anchor="middle" x="661" y="-810.5" font-family="Helvetica,sans-Serif" font-size="10.00">PointPlugin</text>
</a>
</g>
</g>
<!-- Node1&#45;&gt;Node17 -->
<g id="edge16" class="edge">
<title>Node1&#45;&gt;Node17</title>
<path fill="none" stroke="midnightblue" d="M476.98,-641.72C489.1,-677.42 520,-754.01 573,-794.5 578.85,-798.97 585.49,-802.61 592.42,-805.57"/>
<polygon fill="midnightblue" stroke="midnightblue" points="480.25,-640.46 473.82,-632.04 473.6,-642.63 480.25,-640.46"/>
</g>
<!-- Node18 -->
<g id="node18" class="node">
<title>Node18</title>
<g id="a_node18"><a xlink:href="classtracktion__engine_1_1ImpulseResponsePlugin.html" target="_top" xlink:title="ImpulseResponsePlugin that loads an impulse response and applies it the audio stream.">
<polygon fill="none" stroke="black" points="589.5,-754.5 589.5,-784.5 732.5,-784.5 732.5,-754.5 589.5,-754.5"/>
<text text-anchor="start" x="597.5" y="-772.5" font-family="Helvetica,sans-Serif" font-size="10.00">tracktion_engine::Impulse</text>
<text text-anchor="middle" x="661" y="-761.5" font-family="Helvetica,sans-Serif" font-size="10.00">ResponsePlugin</text>
</a>
</g>
</g>
<!-- Node1&#45;&gt;Node18 -->
<g id="edge17" class="edge">
<title>Node1&#45;&gt;Node18</title>
<path fill="none" stroke="midnightblue" d="M481.33,-641.06C497.38,-668.15 530.88,-718.27 573,-745.5 578.26,-748.9 584.01,-751.83 589.95,-754.34"/>
<polygon fill="midnightblue" stroke="midnightblue" points="484.25,-639.12 476.22,-632.2 478.19,-642.61 484.25,-639.12"/>
</g>
<!-- Node19 -->
<g id="node19" class="node">
<title>Node19</title>
<g id="a_node19"><a xlink:href="classtracktion__engine_1_1InsertPlugin.html" target="_top" xlink:title=" ">
<polygon fill="none" stroke="black" points="595,-705.5 595,-735.5 727,-735.5 727,-705.5 595,-705.5"/>
<text text-anchor="start" x="603" y="-723.5" font-family="Helvetica,sans-Serif" font-size="10.00">tracktion_engine::Insert</text>
<text text-anchor="middle" x="661" y="-712.5" font-family="Helvetica,sans-Serif" font-size="10.00">Plugin</text>
</a>
</g>
</g>
<!-- Node1&#45;&gt;Node19 -->
<g id="edge18" class="edge">
<title>Node1&#45;&gt;Node19</title>
<path fill="none" stroke="midnightblue" d="M489.23,-638.88C508.69,-655.58 541.06,-681.13 573,-696.5 580.06,-699.9 587.68,-702.88 595.37,-705.49"/>
<polygon fill="midnightblue" stroke="midnightblue" points="491.32,-636.06 481.48,-632.12 486.71,-641.33 491.32,-636.06"/>
</g>
<!-- Node20 -->
<g id="node20" class="node">
<title>Node20</title>
<g id="a_node20"><a xlink:href="classtracktion__engine_1_1LatencyPlugin.html" target="_top" xlink:title="A test plugin that introduces latency to the incomming signal.">
<polygon fill="none" stroke="black" points="589.5,-656.5 589.5,-686.5 732.5,-686.5 732.5,-656.5 589.5,-656.5"/>
<text text-anchor="start" x="597.5" y="-674.5" font-family="Helvetica,sans-Serif" font-size="10.00">tracktion_engine::Latency</text>
<text text-anchor="middle" x="661" y="-663.5" font-family="Helvetica,sans-Serif" font-size="10.00">Plugin</text>
</a>
</g>
</g>
<!-- Node1&#45;&gt;Node20 -->
<g id="edge19" class="edge">
<title>Node1&#45;&gt;Node20</title>
<path fill="none" stroke="midnightblue" d="M517.68,-634.6C543.16,-641.21 574.94,-649.45 602,-656.46"/>
<polygon fill="midnightblue" stroke="midnightblue" points="518.45,-631.19 507.89,-632.06 516.69,-637.96 518.45,-631.19"/>
</g>
<!-- Node21 -->
<g id="node21" class="node">
<title>Node21</title>
<g id="a_node21"><a xlink:href="classtracktion__engine_1_1LevelMeterPlugin.html" target="_top" xlink:title=" ">
<polygon fill="none" stroke="black" points="581.5,-607.5 581.5,-637.5 740.5,-637.5 740.5,-607.5 581.5,-607.5"/>
<text text-anchor="start" x="589.5" y="-625.5" font-family="Helvetica,sans-Serif" font-size="10.00">tracktion_engine::LevelMeter</text>
<text text-anchor="middle" x="661" y="-614.5" font-family="Helvetica,sans-Serif" font-size="10.00">Plugin</text>
</a>
</g>
</g>
<!-- Node1&#45;&gt;Node21 -->
<g id="edge20" class="edge">
<title>Node1&#45;&gt;Node21</title>
<path fill="none" stroke="midnightblue" d="M547.27,-622.5C558.47,-622.5 570.03,-622.5 581.28,-622.5"/>
<polygon fill="midnightblue" stroke="midnightblue" points="547.1,-619 537.1,-622.5 547.1,-626 547.1,-619"/>
</g>
<!-- Node22 -->
<g id="node22" class="node">
<title>Node22</title>
<g id="a_node22"><a xlink:href="classtracktion__engine_1_1LowPassPlugin.html" target="_top" xlink:title=" ">
<polygon fill="none" stroke="black" points="588,-558.5 588,-588.5 734,-588.5 734,-558.5 588,-558.5"/>
<text text-anchor="start" x="596" y="-576.5" font-family="Helvetica,sans-Serif" font-size="10.00">tracktion_engine::LowPass</text>
<text text-anchor="middle" x="661" y="-565.5" font-family="Helvetica,sans-Serif" font-size="10.00">Plugin</text>
</a>
</g>
</g>
<!-- Node1&#45;&gt;Node22 -->
<g id="edge21" class="edge">
<title>Node1&#45;&gt;Node22</title>
<path fill="none" stroke="midnightblue" d="M517.68,-610.4C543.16,-603.79 574.94,-595.55 602,-588.54"/>
<polygon fill="midnightblue" stroke="midnightblue" points="516.69,-607.04 507.89,-612.94 518.45,-613.81 516.69,-607.04"/>
</g>
<!-- Node23 -->
<g id="node23" class="node">
<title>Node23</title>
<g id="a_node23"><a xlink:href="classtracktion__engine_1_1MidiModifierPlugin.html" target="_top" xlink:title=" ">
<polygon fill="none" stroke="black" points="578.5,-509.5 578.5,-539.5 743.5,-539.5 743.5,-509.5 578.5,-509.5"/>
<text text-anchor="start" x="586.5" y="-527.5" font-family="Helvetica,sans-Serif" font-size="10.00">tracktion_engine::MidiModifier</text>
<text text-anchor="middle" x="661" y="-516.5" font-family="Helvetica,sans-Serif" font-size="10.00">Plugin</text>
</a>
</g>
</g>
<!-- Node1&#45;&gt;Node23 -->
<g id="edge22" class="edge">
<title>Node1&#45;&gt;Node23</title>
<path fill="none" stroke="midnightblue" d="M489.23,-606.12C508.69,-589.42 541.06,-563.87 573,-548.5 580.06,-545.1 587.68,-542.12 595.37,-539.51"/>
<polygon fill="midnightblue" stroke="midnightblue" points="486.71,-603.67 481.48,-612.88 491.32,-608.94 486.71,-603.67"/>
</g>
<!-- Node24 -->
<g id="node24" class="node">
<title>Node24</title>
<g id="a_node24"><a xlink:href="classtracktion__engine_1_1MidiPatchBayPlugin.html" target="_top" xlink:title=" ">
<polygon fill="none" stroke="black" points="585,-460.5 585,-490.5 737,-490.5 737,-460.5 585,-460.5"/>
<text text-anchor="start" x="593" y="-478.5" font-family="Helvetica,sans-Serif" font-size="10.00">tracktion_engine::MidiPatch</text>
<text text-anchor="middle" x="661" y="-467.5" font-family="Helvetica,sans-Serif" font-size="10.00">BayPlugin</text>
</a>
</g>
</g>
<!-- Node1&#45;&gt;Node24 -->
<g id="edge23" class="edge">
<title>Node1&#45;&gt;Node24</title>
<path fill="none" stroke="midnightblue" d="M481.33,-603.94C497.38,-576.85 530.88,-526.73 573,-499.5 578.26,-496.1 584.01,-493.17 589.95,-490.66"/>
<polygon fill="midnightblue" stroke="midnightblue" points="478.19,-602.39 476.22,-612.8 484.25,-605.88 478.19,-602.39"/>
</g>
<!-- Node25 -->
<g id="node25" class="node">
<title>Node25</title>
<g id="a_node25"><a xlink:href="classtracktion__engine_1_1PatchBayPlugin.html" target="_top" xlink:title=" ">
<polygon fill="none" stroke="black" points="586.5,-411.5 586.5,-441.5 735.5,-441.5 735.5,-411.5 586.5,-411.5"/>
<text text-anchor="start" x="594.5" y="-429.5" font-family="Helvetica,sans-Serif" font-size="10.00">tracktion_engine::PatchBay</text>
<text text-anchor="middle" x="661" y="-418.5" font-family="Helvetica,sans-Serif" font-size="10.00">Plugin</text>
</a>
</g>
</g>
<!-- Node1&#45;&gt;Node25 -->
<g id="edge24" class="edge">
<title>Node1&#45;&gt;Node25</title>
<path fill="none" stroke="midnightblue" d="M476.98,-603.28C489.1,-567.58 520,-490.99 573,-450.5 577.48,-447.08 582.42,-444.14 587.61,-441.62"/>
<polygon fill="midnightblue" stroke="midnightblue" points="473.6,-602.37 473.82,-612.96 480.25,-604.54 473.6,-602.37"/>
</g>
<!-- Node26 -->
<g id="node26" class="node">
<title>Node26</title>
<g id="a_node26"><a xlink:href="classtracktion__engine_1_1PhaserPlugin.html" target="_top" xlink:title=" ">
<polygon fill="none" stroke="black" points="592.5,-362.5 592.5,-392.5 729.5,-392.5 729.5,-362.5 592.5,-362.5"/>
<text text-anchor="start" x="600.5" y="-380.5" font-family="Helvetica,sans-Serif" font-size="10.00">tracktion_engine::Phaser</text>
<text text-anchor="middle" x="661" y="-369.5" font-family="Helvetica,sans-Serif" font-size="10.00">Plugin</text>
</a>
</g>
</g>
<!-- Node1&#45;&gt;Node26 -->
<g id="edge25" class="edge">
<title>Node1&#45;&gt;Node26</title>
<path fill="none" stroke="midnightblue" d="M474.36,-602.73C482.76,-559.48 508.82,-455.97 573,-401.5 578.73,-396.63 585.38,-392.75 592.38,-389.65"/>
<polygon fill="midnightblue" stroke="midnightblue" points="470.87,-602.34 472.51,-612.81 477.76,-603.6 470.87,-602.34"/>
</g>
<!-- Node27 -->
<g id="node27" class="node">
<title>Node27</title>
<g id="a_node27"><a xlink:href="classtracktion__engine_1_1PitchShiftPlugin.html" target="_top" xlink:title=" ">
<polygon fill="none" stroke="black" points="586,-313.5 586,-343.5 736,-343.5 736,-313.5 586,-313.5"/>
<text text-anchor="start" x="594" y="-331.5" font-family="Helvetica,sans-Serif" font-size="10.00">tracktion_engine::PitchShift</text>
<text text-anchor="middle" x="661" y="-320.5" font-family="Helvetica,sans-Serif" font-size="10.00">Plugin</text>
</a>
</g>
</g>
<!-- Node1&#45;&gt;Node27 -->
<g id="edge26" class="edge">
<title>Node1&#45;&gt;Node27</title>
<path fill="none" stroke="midnightblue" d="M472.49,-602.88C477.35,-553.25 497.09,-421.73 573,-352.5 576.82,-349.02 581.1,-346.03 585.66,-343.48"/>
<polygon fill="midnightblue" stroke="midnightblue" points="469,-602.66 471.61,-612.92 475.97,-603.27 469,-602.66"/>
</g>
<!-- Node28 -->
<g id="node28" class="node">
<title>Node28</title>
<g id="a_node28"><a xlink:href="classtracktion__engine_1_1RackInstance.html" target="_top" xlink:title=" ">
<polygon fill="none" stroke="black" points="576,-275 576,-294 746,-294 746,-275 576,-275"/>
<text text-anchor="middle" x="661" y="-282" font-family="Helvetica,sans-Serif" font-size="10.00">tracktion_engine::RackInstance</text>
</a>
</g>
</g>
<!-- Node1&#45;&gt;Node28 -->
<g id="edge27" class="edge">
<title>Node1&#45;&gt;Node28</title>
<path fill="none" stroke="midnightblue" d="M470.96,-602.56C472,-546.34 483.06,-385.32 573,-303.5 577.12,-299.75 581.8,-296.69 586.8,-294.18"/>
<polygon fill="midnightblue" stroke="midnightblue" points="467.46,-602.87 470.87,-612.9 474.46,-602.93 467.46,-602.87"/>
</g>
<!-- Node29 -->
<g id="node29" class="node">
<title>Node29</title>
<g id="a_node29"><a xlink:href="classtracktion__engine_1_1ReverbPlugin.html" target="_top" xlink:title=" ">
<polygon fill="none" stroke="black" points="591.5,-225.5 591.5,-255.5 730.5,-255.5 730.5,-225.5 591.5,-225.5"/>
<text text-anchor="start" x="599.5" y="-243.5" font-family="Helvetica,sans-Serif" font-size="10.00">tracktion_engine::Reverb</text>
<text text-anchor="middle" x="661" y="-232.5" font-family="Helvetica,sans-Serif" font-size="10.00">Plugin</text>
</a>
</g>
</g>
<!-- Node1&#45;&gt;Node29 -->
<g id="edge28" class="edge">
<title>Node1&#45;&gt;Node29</title>
<path fill="none" stroke="midnightblue" d="M470.44,-602.55C469.9,-542.55 476.71,-361.93 573,-265.5 578.22,-260.27 584.45,-256.12 591.16,-252.83"/>
<polygon fill="midnightblue" stroke="midnightblue" points="466.95,-602.95 470.63,-612.89 473.95,-602.82 466.95,-602.95"/>
</g>
<!-- Node30 -->
<g id="node30" class="node">
<title>Node30</title>
<g id="a_node30"><a xlink:href="classtracktion__engine_1_1SamplerPlugin.html" target="_top" xlink:title=" ">
<polygon fill="none" stroke="black" points="588.5,-176.5 588.5,-206.5 733.5,-206.5 733.5,-176.5 588.5,-176.5"/>
<text text-anchor="start" x="596.5" y="-194.5" font-family="Helvetica,sans-Serif" font-size="10.00">tracktion_engine::Sampler</text>
<text text-anchor="middle" x="661" y="-183.5" font-family="Helvetica,sans-Serif" font-size="10.00">Plugin</text>
</a>
</g>
</g>
<!-- Node1&#45;&gt;Node30 -->
<g id="edge29" class="edge">
<title>Node1&#45;&gt;Node30</title>
<path fill="none" stroke="midnightblue" d="M473.31,-602.82C482.31,-529.37 517.32,-272.51 573,-215.5 577.49,-210.9 582.77,-207.16 588.48,-204.13"/>
<polygon fill="midnightblue" stroke="midnightblue" points="469.81,-602.63 472.09,-612.98 476.76,-603.47 469.81,-602.63"/>
</g>
<!-- Node31 -->
<g id="node31" class="node">
<title>Node31</title>
<g id="a_node31"><a xlink:href="classtracktion__engine_1_1TextPlugin.html" target="_top" xlink:title=" ">
<polygon fill="none" stroke="black" points="583.5,-138 583.5,-157 738.5,-157 738.5,-138 583.5,-138"/>
<text text-anchor="middle" x="661" y="-145" font-family="Helvetica,sans-Serif" font-size="10.00">tracktion_engine::TextPlugin</text>
</a>
</g>
</g>
<!-- Node1&#45;&gt;Node31 -->
<g id="edge30" class="edge">
<title>Node1&#45;&gt;Node31</title>
<path fill="none" stroke="midnightblue" d="M472.62,-602.94C479.57,-523.96 509.42,-229.76 573,-166.5 576.73,-162.79 581,-159.73 585.6,-157.22"/>
<polygon fill="midnightblue" stroke="midnightblue" points="469.13,-602.72 471.76,-612.98 476.1,-603.31 469.13,-602.72"/>
</g>
<!-- Node32 -->
<g id="node32" class="node">
<title>Node32</title>
<g id="a_node32"><a xlink:href="classtracktion__engine_1_1ToneGeneratorPlugin.html" target="_top" xlink:title=" ">
<polygon fill="none" stroke="black" points="573,-88.5 573,-118.5 749,-118.5 749,-88.5 573,-88.5"/>
<text text-anchor="start" x="581" y="-106.5" font-family="Helvetica,sans-Serif" font-size="10.00">tracktion_engine::ToneGenerator</text>
<text text-anchor="middle" x="661" y="-95.5" font-family="Helvetica,sans-Serif" font-size="10.00">Plugin</text>
</a>
</g>
</g>
<!-- Node1&#45;&gt;Node32 -->
<g id="edge31" class="edge">
<title>Node1&#45;&gt;Node32</title>
<path fill="none" stroke="midnightblue" d="M472.42,-602.51C478.73,-519.1 506.92,-199.82 573,-128.5 576.52,-124.7 580.59,-121.46 584.99,-118.7"/>
<polygon fill="midnightblue" stroke="midnightblue" points="468.92,-602.43 471.67,-612.66 475.9,-602.95 468.92,-602.43"/>
</g>
<!-- Node33 -->
<g id="node33" class="node">
<title>Node33</title>
<g id="a_node33"><a xlink:href="classtracktion__engine_1_1VCAPlugin.html" target="_top" xlink:title="The VCA plugin sits on a folder track to control the overall level of all the volume/pan plugins in i...">
<polygon fill="none" stroke="black" points="583.5,-50 583.5,-69 738.5,-69 738.5,-50 583.5,-50"/>
<text text-anchor="middle" x="661" y="-57" font-family="Helvetica,sans-Serif" font-size="10.00">tracktion_engine::VCAPlugin</text>
</a>
</g>
</g>
<!-- Node1&#45;&gt;Node33 -->
<g id="edge32" class="edge">
<title>Node1&#45;&gt;Node33</title>
<path fill="none" stroke="midnightblue" d="M471.87,-602.68C476.18,-514.13 498.06,-155.7 573,-78.5 576.66,-74.73 580.88,-71.62 585.46,-69.07"/>
<polygon fill="midnightblue" stroke="midnightblue" points="468.36,-602.77 471.4,-612.93 475.36,-603.1 468.36,-602.77"/>
</g>
<!-- Node34 -->
<g id="node34" class="node">
<title>Node34</title>
<g id="a_node34"><a xlink:href="classtracktion__engine_1_1VolumeAndPanPlugin.html" target="_top" xlink:title="The built&#45;in Tracktion volume/pan plugin.">
<polygon fill="none" stroke="black" points="590.5,-0.5 590.5,-30.5 731.5,-30.5 731.5,-0.5 590.5,-0.5"/>
<text text-anchor="start" x="598.5" y="-18.5" font-family="Helvetica,sans-Serif" font-size="10.00">tracktion_engine::Volume</text>
<text text-anchor="middle" x="661" y="-7.5" font-family="Helvetica,sans-Serif" font-size="10.00">AndPanPlugin</text>
</a>
</g>
</g>
<!-- Node1&#45;&gt;Node34 -->
<g id="edge33" class="edge">
<title>Node1&#45;&gt;Node34</title>
<path fill="none" stroke="midnightblue" d="M471.74,-602.59C475.54,-510.46 495.89,-126.28 573,-40.5 577.83,-35.12 583.74,-30.87 590.17,-27.52"/>
<polygon fill="midnightblue" stroke="midnightblue" points="468.23,-602.64 471.34,-612.77 475.23,-602.91 468.23,-602.64"/>
</g>
<!-- Node2 -->
<g id="node2" class="node">
<title>Node2</title>
<g id="a_node2"><a xlink:href="classtracktion__engine_1_1Selectable.html" target="_top" xlink:title="Base class for things that can be selected, and whose properties can appear in the properties panel.">
<polygon fill="none" stroke="black" points="197,-695 197,-714 352,-714 352,-695 197,-695"/>
<text text-anchor="middle" x="274.5" y="-702" font-family="Helvetica,sans-Serif" font-size="10.00">tracktion_engine::Selectable</text>
</a>
</g>
</g>
<!-- Node2&#45;&gt;Node1 -->
<g id="edge1" class="edge">
<title>Node2&#45;&gt;Node1</title>
<path fill="none" stroke="midnightblue" d="M346.18,-692.43C353.31,-690.44 360.37,-688.14 367,-685.5 401.81,-671.64 438.09,-646.12 456.57,-632.2"/>
<polygon fill="midnightblue" stroke="midnightblue" points="345.23,-689.06 336.42,-694.95 346.98,-695.83 345.23,-689.06"/>
</g>
<!-- Node3 -->
<g id="node3" class="node">
<title>Node3</title>
<g id="a_node3"><a xlink:href="classtracktion__engine_1_1Exportable.html" target="_top" xlink:title="An interface for objects within an edit that can be exported.">
<polygon fill="none" stroke="black" points="196,-657 196,-676 353,-676 353,-657 196,-657"/>
<text text-anchor="middle" x="274.5" y="-664" font-family="Helvetica,sans-Serif" font-size="10.00">tracktion_engine::Exportable</text>
</a>
</g>
</g>
<!-- Node3&#45;&gt;Node1 -->
<g id="edge2" class="edge">
<title>Node3&#45;&gt;Node1</title>
<path fill="none" stroke="midnightblue" d="M332.87,-654.91C344.19,-652.53 355.98,-649.99 367,-647.5 388.34,-642.67 412.09,-636.88 431.29,-632.08"/>
<polygon fill="midnightblue" stroke="midnightblue" points="332.13,-651.49 323.06,-656.96 333.56,-658.34 332.13,-651.49"/>
</g>
<!-- Node4 -->
<g id="node4" class="node">
<title>Node4</title>
<g id="a_node4"><a xlink:href="classtracktion__engine_1_1AutomatableEditItem.html" target="_top" xlink:title="Base class for elements that have some kind of automatable parameters.">
<polygon fill="none" stroke="black" points="191,-607.5 191,-637.5 358,-637.5 358,-607.5 191,-607.5"/>
<text text-anchor="start" x="199" y="-625.5" font-family="Helvetica,sans-Serif" font-size="10.00">tracktion_engine::Automatable</text>
<text text-anchor="middle" x="274.5" y="-614.5" font-family="Helvetica,sans-Serif" font-size="10.00">EditItem</text>
</a>
</g>
</g>
<!-- Node4&#45;&gt;Node1 -->
<g id="edge3" class="edge">
<title>Node4&#45;&gt;Node1</title>
<path fill="none" stroke="midnightblue" d="M368.3,-622.5C379.92,-622.5 391.62,-622.5 402.72,-622.5"/>
<polygon fill="midnightblue" stroke="midnightblue" points="368.12,-619 358.12,-622.5 368.12,-626 368.12,-619"/>
</g>
<!-- Node5 -->
<g id="node5" class="node">
<title>Node5</title>
<g id="a_node5"><a xlink:href="classtracktion__engine_1_1EditItem.html" target="_top" xlink:title="Base class for objects that live inside an edit &#45; e.g.">
<polygon fill="none" stroke="black" points="0,-613 0,-632 146,-632 146,-613 0,-613"/>
<text text-anchor="middle" x="73" y="-620" font-family="Helvetica,sans-Serif" font-size="10.00">tracktion_engine::EditItem</text>
</a>
</g>
</g>
<!-- Node5&#45;&gt;Node4 -->
<g id="edge4" class="edge">
<title>Node5&#45;&gt;Node4</title>
<path fill="none" stroke="midnightblue" d="M156.35,-622.5C167.7,-622.5 179.37,-622.5 190.74,-622.5"/>
<polygon fill="midnightblue" stroke="midnightblue" points="156.02,-619 146.02,-622.5 156.02,-626 156.02,-619"/>
</g>
<!-- Node6 -->
<g id="node6" class="node">
<title>Node6</title>
<g id="a_node6"><a xlink:href="classtracktion__engine_1_1MacroParameterElement.html" target="_top" xlink:title="Base class for elements which can contain macro parameters.">
<polygon fill="none" stroke="black" points="182,-558.5 182,-588.5 367,-588.5 367,-558.5 182,-558.5"/>
<text text-anchor="start" x="190" y="-576.5" font-family="Helvetica,sans-Serif" font-size="10.00">tracktion_engine::MacroParameter</text>
<text text-anchor="middle" x="274.5" y="-565.5" font-family="Helvetica,sans-Serif" font-size="10.00">Element</text>
</a>
</g>
</g>
<!-- Node6&#45;&gt;Node1 -->
<g id="edge5" class="edge">
<title>Node6&#45;&gt;Node1</title>
<path fill="none" stroke="midnightblue" d="M344.63,-591C373.86,-598.41 406.76,-606.74 431.37,-612.97"/>
<polygon fill="midnightblue" stroke="midnightblue" points="345.42,-587.6 334.87,-588.53 343.71,-594.38 345.42,-587.6"/>
</g>
<!-- Node7 -->
<g id="node7" class="node">
<title>Node7</title>
<g id="a_node7"><a xlink:href="structtracktion__engine_1_1ValueTreeAllEventListener.html" target="_top" xlink:title=" ">
<polygon fill="none" stroke="black" points="198.5,-509.5 198.5,-539.5 350.5,-539.5 350.5,-509.5 198.5,-509.5"/>
<text text-anchor="start" x="206.5" y="-527.5" font-family="Helvetica,sans-Serif" font-size="10.00">tracktion_engine::ValueTree</text>
<text text-anchor="middle" x="274.5" y="-516.5" font-family="Helvetica,sans-Serif" font-size="10.00">AllEventListener</text>
</a>
</g>
</g>
<!-- Node7&#45;&gt;Node1 -->
<g id="edge6" class="edge">
<title>Node7&#45;&gt;Node1</title>
<path fill="none" stroke="darkgreen" d="M354.18,-543.07C358.58,-544.74 362.88,-546.55 367,-548.5 403.78,-565.91 440.96,-597.08 458.54,-612.83"/>
<polygon fill="darkgreen" stroke="darkgreen" points="355.04,-539.66 344.44,-539.61 352.7,-546.25 355.04,-539.66"/>
</g>
</g>
</svg>
