<?xml version="1.0" encoding="UTF-8" standalone="no"?>
<!DOCTYPE svg PUBLIC "-//W3C//DTD SVG 1.1//EN"
 "http://www.w3.org/Graphics/SVG/1.1/DTD/svg11.dtd">
<!-- Generated by graphviz version 2.40.1 (20161225.0304)
 -->
<!-- Title: tracktion_engine::FourOscPlugin Pages: 1 -->
<svg width="702pt" height="214pt"
 viewBox="0.00 0.00 702.00 213.50" xmlns="http://www.w3.org/2000/svg" xmlns:xlink="http://www.w3.org/1999/xlink">
<g id="graph0" class="graph" transform="scale(1 1) rotate(0) translate(4 209.5)">
<title>tracktion_engine::FourOscPlugin</title>
<!-- Node0 -->
<g id="node1" class="node">
<title>Node0</title>
<polygon fill="#bfbfbf" stroke="#000000" points="563,-76.5 563,-106.5 694,-106.5 694,-76.5 563,-76.5"/>
<text text-anchor="start" x="571" y="-94.5" font-family="Helvetica,sans-Serif" font-size="10.00" fill="#000000">tracktion_engine::FourOsc</text>
<text text-anchor="middle" x="628.5" y="-83.5" font-family="Helvetica,sans-Serif" font-size="10.00" fill="#000000">Plugin</text>
</g>
<!-- Node1 -->
<g id="node2" class="node">
<title>Node1</title>
<g id="a_node2"><a xlink:href="classtracktion__engine_1_1Plugin.html" target="_top" xlink:title="tracktion_engine::Plugin">
<polygon fill="none" stroke="#000000" points="387.5,-104 387.5,-123 508.5,-123 508.5,-104 387.5,-104"/>
<text text-anchor="middle" x="448" y="-111" font-family="Helvetica,sans-Serif" font-size="10.00" fill="#000000">tracktion_engine::Plugin</text>
</a>
</g>
</g>
<!-- Node1&#45;&gt;Node0 -->
<g id="edge1" class="edge">
<title>Node1&#45;&gt;Node0</title>
<path fill="none" stroke="#191970" d="M518.5543,-104.9006C533.1188,-103.1254 548.4028,-101.2625 562.7868,-99.5094"/>
<polygon fill="#191970" stroke="#191970" points="518.1091,-101.4289 508.606,-106.1131 518.956,-108.3774 518.1091,-101.4289"/>
</g>
<!-- Node2 -->
<g id="node3" class="node">
<title>Node2</title>
<g id="a_node3"><a xlink:href="classtracktion__engine_1_1Selectable.html" target="_top" xlink:title="Base class for things that can be selected, and whose properties can appear in the properties panel...">
<polygon fill="none" stroke="#000000" points="180,-186 180,-205 320,-205 320,-186 180,-186"/>
<text text-anchor="middle" x="250" y="-193" font-family="Helvetica,sans-Serif" font-size="10.00" fill="#000000">tracktion_engine::Selectable</text>
</a>
</g>
</g>
<!-- Node2&#45;&gt;Node1 -->
<g id="edge2" class="edge">
<title>Node2&#45;&gt;Node1</title>
<path fill="none" stroke="#191970" d="M311.8435,-183.345C319.0643,-181.3392 326.2548,-179.0629 333,-176.5 371.3051,-161.9459 412.5979,-136.7123 433.7395,-123.0125"/>
<polygon fill="#191970" stroke="#191970" points="310.8066,-179.9983 302.0171,-185.9141 312.5773,-186.7707 310.8066,-179.9983"/>
</g>
<!-- Node3 -->
<g id="node4" class="node">
<title>Node3</title>
<g id="a_node4"><a xlink:href="classtracktion__engine_1_1Exportable.html" target="_top" xlink:title="An interface for objects within an edit that can be exported. ">
<polygon fill="none" stroke="#000000" points="180,-148 180,-167 320,-167 320,-148 180,-148"/>
<text text-anchor="middle" x="250" y="-155" font-family="Helvetica,sans-Serif" font-size="10.00" fill="#000000">tracktion_engine::Exportable</text>
</a>
</g>
</g>
<!-- Node3&#45;&gt;Node1 -->
<g id="edge3" class="edge">
<title>Node3&#45;&gt;Node1</title>
<path fill="none" stroke="#191970" d="M303.0284,-145.7159C334.9912,-138.6131 375.1719,-129.684 405.1208,-123.0287"/>
<polygon fill="#191970" stroke="#191970" points="301.9656,-142.3666 292.9631,-147.9527 303.4842,-149.1999 301.9656,-142.3666"/>
</g>
<!-- Node4 -->
<g id="node5" class="node">
<title>Node4</title>
<g id="a_node5"><a xlink:href="classtracktion__engine_1_1AutomatableEditItem.html" target="_top" xlink:title="Base class for elements that have some kind of automatable parameters. ">
<polygon fill="none" stroke="#000000" points="175.5,-98.5 175.5,-128.5 324.5,-128.5 324.5,-98.5 175.5,-98.5"/>
<text text-anchor="start" x="183.5" y="-116.5" font-family="Helvetica,sans-Serif" font-size="10.00" fill="#000000">tracktion_engine::Automatable</text>
<text text-anchor="middle" x="250" y="-105.5" font-family="Helvetica,sans-Serif" font-size="10.00" fill="#000000">EditItem</text>
</a>
</g>
</g>
<!-- Node4&#45;&gt;Node1 -->
<g id="edge4" class="edge">
<title>Node4&#45;&gt;Node1</title>
<path fill="none" stroke="#191970" d="M334.8762,-113.5C352.5246,-113.5 370.7843,-113.5 387.3496,-113.5"/>
<polygon fill="#191970" stroke="#191970" points="334.5732,-110.0001 324.5732,-113.5 334.5731,-117.0001 334.5732,-110.0001"/>
</g>
<!-- Node5 -->
<g id="node6" class="node">
<title>Node5</title>
<g id="a_node6"><a xlink:href="classtracktion__engine_1_1EditItem.html" target="_top" xlink:title="Base class for objects that live inside an edit &#45; e.g. ">
<polygon fill="none" stroke="#000000" points="0,-104 0,-123 131,-123 131,-104 0,-104"/>
<text text-anchor="middle" x="65.5" y="-111" font-family="Helvetica,sans-Serif" font-size="10.00" fill="#000000">tracktion_engine::EditItem</text>
</a>
</g>
</g>
<!-- Node5&#45;&gt;Node4 -->
<g id="edge5" class="edge">
<title>Node5&#45;&gt;Node4</title>
<path fill="none" stroke="#191970" d="M141.2516,-113.5C152.4657,-113.5 164.016,-113.5 175.2103,-113.5"/>
<polygon fill="#191970" stroke="#191970" points="141.0673,-110.0001 131.0673,-113.5 141.0673,-117.0001 141.0673,-110.0001"/>
</g>
<!-- Node6 -->
<g id="node7" class="node">
<title>Node6</title>
<g id="a_node7"><a xlink:href="classtracktion__engine_1_1MacroParameterElement.html" target="_top" xlink:title="Base class for elements which can contain macro parameters. ">
<polygon fill="none" stroke="#000000" points="167,-49.5 167,-79.5 333,-79.5 333,-49.5 167,-49.5"/>
<text text-anchor="start" x="175" y="-67.5" font-family="Helvetica,sans-Serif" font-size="10.00" fill="#000000">tracktion_engine::MacroParameter</text>
<text text-anchor="middle" x="250" y="-56.5" font-family="Helvetica,sans-Serif" font-size="10.00" fill="#000000">Element</text>
</a>
</g>
</g>
<!-- Node6&#45;&gt;Node1 -->
<g id="edge6" class="edge">
<title>Node6&#45;&gt;Node1</title>
<path fill="none" stroke="#191970" d="M320.7335,-82.0048C350.6427,-89.4065 384.3088,-97.738 409.4993,-103.972"/>
<polygon fill="#191970" stroke="#191970" points="321.3001,-78.5395 310.7521,-79.5346 319.6185,-85.3345 321.3001,-78.5395"/>
</g>
<!-- Node7 -->
<g id="node8" class="node">
<title>Node7</title>
<g id="a_node8"><a xlink:href="structtracktion__engine_1_1ValueTreeAllEventListener.html" target="_top" xlink:title="tracktion_engine::ValueTree\lAllEventListener">
<polygon fill="none" stroke="#000000" points="181,-.5 181,-30.5 319,-30.5 319,-.5 181,-.5"/>
<text text-anchor="start" x="189" y="-18.5" font-family="Helvetica,sans-Serif" font-size="10.00" fill="#000000">tracktion_engine::ValueTree</text>
<text text-anchor="middle" x="250" y="-7.5" font-family="Helvetica,sans-Serif" font-size="10.00" fill="#000000">AllEventListener</text>
</a>
</g>
</g>
<!-- Node7&#45;&gt;Node1 -->
<g id="edge7" class="edge">
<title>Node7&#45;&gt;Node1</title>
<path fill="none" stroke="#006400" d="M326.5468,-35.2422C328.7769,-36.5704 330.9352,-37.9877 333,-39.5 356.2707,-56.5433 345.4469,-76.8492 369,-93.5 375.1229,-97.8286 382.0966,-101.2221 389.3064,-103.8822"/>
<polygon fill="#006400" stroke="#006400" points="328.1134,-32.1116 317.6346,-30.5478 324.8511,-38.3049 328.1134,-32.1116"/>
</g>
<!-- Node8 -->
<g id="node9" class="node">
<title>Node8</title>
<g id="a_node9"><a xlink:href="structtracktion__engine_1_1LevelMeasurer_1_1Client.html" target="_top" xlink:title="tracktion_engine::LevelMeasurer\l::Client">
<polygon fill="none" stroke="#000000" points="369,-54.5 369,-84.5 527,-84.5 527,-54.5 369,-54.5"/>
<text text-anchor="start" x="377" y="-72.5" font-family="Helvetica,sans-Serif" font-size="10.00" fill="#000000">tracktion_engine::LevelMeasurer</text>
<text text-anchor="middle" x="448" y="-61.5" font-family="Helvetica,sans-Serif" font-size="10.00" fill="#000000">::Client</text>
</a>
</g>
</g>
<!-- Node8&#45;&gt;Node0 -->
<g id="edge8" class="edge">
<title>Node8&#45;&gt;Node0</title>
<path fill="none" stroke="#8b1a1a" d="M537.2835,-80.3822C545.9195,-81.4348 554.5673,-82.4888 562.9106,-83.5057"/>
<polygon fill="#8b1a1a" stroke="#8b1a1a" points="537.52,-76.8852 527.1699,-79.1495 536.673,-83.8338 537.52,-76.8852"/>
</g>
</g>
</svg>
