<?xml version="1.0" encoding="UTF-8" standalone="no"?>
<!DOCTYPE svg PUBLIC "-//W3C//DTD SVG 1.1//EN"
 "http://www.w3.org/Graphics/SVG/1.1/DTD/svg11.dtd">
<!-- Generated by graphviz version 2.43.0 (0)
 -->
<!-- Title: tracktion::graph::Node Pages: 1 -->
<svg width="523pt" height="2005pt"
 viewBox="0.00 0.00 523.00 2004.50" xmlns="http://www.w3.org/2000/svg" xmlns:xlink="http://www.w3.org/1999/xlink">
<g id="graph0" class="graph" transform="scale(1 1) rotate(0) translate(4 2000.5)">
<title>tracktion::graph::Node</title>
<!-- Node1 -->
<g id="node1" class="node">
<title>Node1</title>
<g id="a_node1"><a xlink:title="Main graph Node processor class.">
<polygon fill="#bfbfbf" stroke="black" points="0,-917.5 0,-936.5 125,-936.5 125,-917.5 0,-917.5"/>
<text text-anchor="middle" x="62.5" y="-924.5" font-family="Helvetica,sans-Serif" font-size="10.00">tracktion::graph::Node</text>
</a>
</g>
</g>
<!-- Node2 -->
<g id="node2" class="node">
<title>Node2</title>
<g id="a_node2"><a xlink:href="classtracktion_1_1engine_1_1ClickNode.html" target="_top" xlink:title="Adds audio and MIDI clicks to the input buffers.">
<polygon fill="none" stroke="black" points="215,-1966 215,-1996 320,-1996 320,-1966 215,-1966"/>
<text text-anchor="start" x="223" y="-1984" font-family="Helvetica,sans-Serif" font-size="10.00">tracktion::engine::</text>
<text text-anchor="middle" x="267.5" y="-1973" font-family="Helvetica,sans-Serif" font-size="10.00">ClickNode</text>
</a>
</g>
</g>
<!-- Node1&#45;&gt;Node2 -->
<g id="edge1" class="edge">
<title>Node1&#45;&gt;Node2</title>
<path fill="none" stroke="midnightblue" d="M64,-946.88C67.63,-1083.32 91.68,-1878.08 161,-1957 174.39,-1972.24 195.26,-1978.89 214.91,-1981.49"/>
<polygon fill="midnightblue" stroke="midnightblue" points="67.5,-946.57 63.74,-936.67 60.5,-946.75 67.5,-946.57"/>
</g>
<!-- Node3 -->
<g id="node3" class="node">
<title>Node3</title>
<g id="a_node3"><a xlink:href="classtracktion_1_1engine_1_1CombiningNode.html" target="_top" xlink:title="An Node that mixes a sequence of clips of other nodes.">
<polygon fill="none" stroke="black" points="215,-1917 215,-1947 320,-1947 320,-1917 215,-1917"/>
<text text-anchor="start" x="223" y="-1935" font-family="Helvetica,sans-Serif" font-size="10.00">tracktion::engine::</text>
<text text-anchor="middle" x="267.5" y="-1924" font-family="Helvetica,sans-Serif" font-size="10.00">CombiningNode</text>
</a>
</g>
</g>
<!-- Node1&#45;&gt;Node3 -->
<g id="edge2" class="edge">
<title>Node1&#45;&gt;Node3</title>
<path fill="none" stroke="midnightblue" d="M64.1,-946.74C68.27,-1078.99 94.9,-1833.11 161,-1908 174.42,-1923.21 195.3,-1929.86 214.95,-1932.46"/>
<polygon fill="midnightblue" stroke="midnightblue" points="67.59,-946.39 63.78,-936.5 60.59,-946.61 67.59,-946.39"/>
</g>
<!-- Node4 -->
<g id="node4" class="node">
<title>Node4</title>
<g id="a_node4"><a xlink:href="classtracktion_1_1engine_1_1HostedMidiInputDeviceNode.html" target="_top" xlink:title="A Node that intercepts MIDI from a plugin callback and inserts it in to the playback graph.">
<polygon fill="none" stroke="black" points="189.5,-1868 189.5,-1898 345.5,-1898 345.5,-1868 189.5,-1868"/>
<text text-anchor="start" x="197.5" y="-1886" font-family="Helvetica,sans-Serif" font-size="10.00">tracktion::engine::</text>
<text text-anchor="middle" x="267.5" y="-1875" font-family="Helvetica,sans-Serif" font-size="10.00">HostedMidiInputDeviceNode</text>
</a>
</g>
</g>
<!-- Node1&#45;&gt;Node4 -->
<g id="edge3" class="edge">
<title>Node1&#45;&gt;Node4</title>
<path fill="none" stroke="midnightblue" d="M64.21,-946.94C69,-1075.83 98.18,-1788.19 161,-1859 168.6,-1867.57 178.57,-1873.42 189.35,-1877.36"/>
<polygon fill="midnightblue" stroke="midnightblue" points="67.7,-946.48 63.84,-936.61 60.7,-946.73 67.7,-946.48"/>
</g>
<!-- Node5 -->
<g id="node5" class="node">
<title>Node5</title>
<g id="a_node5"><a xlink:href="classtracktion_1_1engine_1_1InsertReturnNode.html" target="_top" xlink:title="The return node hooks into the input device and fills the insert&#39;s return buffer with data from the i...">
<polygon fill="none" stroke="black" points="215,-1819 215,-1849 320,-1849 320,-1819 215,-1819"/>
<text text-anchor="start" x="223" y="-1837" font-family="Helvetica,sans-Serif" font-size="10.00">tracktion::engine::</text>
<text text-anchor="middle" x="267.5" y="-1826" font-family="Helvetica,sans-Serif" font-size="10.00">InsertReturnNode</text>
</a>
</g>
</g>
<!-- Node1&#45;&gt;Node5 -->
<g id="edge4" class="edge">
<title>Node1&#45;&gt;Node5</title>
<path fill="none" stroke="midnightblue" d="M64.32,-946.67C69.69,-1070.84 101.38,-1743.18 161,-1810 174.44,-1825.07 195.2,-1831.71 214.76,-1834.35"/>
<polygon fill="midnightblue" stroke="midnightblue" points="67.82,-946.51 63.9,-936.67 60.83,-946.81 67.82,-946.51"/>
</g>
<!-- Node6 -->
<g id="node6" class="node">
<title>Node6</title>
<g id="a_node6"><a xlink:href="classtracktion_1_1engine_1_1InsertSendNode.html" target="_top" xlink:title="The send node picks up audio/MIDI data from the InsertPlugin and then its output will be sent to the ...">
<polygon fill="none" stroke="black" points="215,-1770 215,-1800 320,-1800 320,-1770 215,-1770"/>
<text text-anchor="start" x="223" y="-1788" font-family="Helvetica,sans-Serif" font-size="10.00">tracktion::engine::</text>
<text text-anchor="middle" x="267.5" y="-1777" font-family="Helvetica,sans-Serif" font-size="10.00">InsertSendNode</text>
</a>
</g>
</g>
<!-- Node1&#45;&gt;Node6 -->
<g id="edge5" class="edge">
<title>Node1&#45;&gt;Node6</title>
<path fill="none" stroke="midnightblue" d="M64.46,-946.68C70.47,-1066.81 104.62,-1698.22 161,-1761 174.49,-1776.02 195.26,-1782.66 214.81,-1785.31"/>
<polygon fill="midnightblue" stroke="midnightblue" points="67.95,-946.5 63.96,-936.69 60.96,-946.85 67.95,-946.5"/>
</g>
<!-- Node7 -->
<g id="node7" class="node">
<title>Node7</title>
<g id="a_node7"><a xlink:href="classtracktion_1_1engine_1_1InsertSendReturnDependencyNode.html" target="_top" xlink:title="This is a bit confusing but is required to ensure the following set of dependencies in the graph: Ins...">
<polygon fill="none" stroke="black" points="174,-1721 174,-1751 361,-1751 361,-1721 174,-1721"/>
<text text-anchor="start" x="182" y="-1739" font-family="Helvetica,sans-Serif" font-size="10.00">tracktion::engine::</text>
<text text-anchor="middle" x="267.5" y="-1728" font-family="Helvetica,sans-Serif" font-size="10.00">InsertSendReturnDependencyNode</text>
</a>
</g>
</g>
<!-- Node1&#45;&gt;Node7 -->
<g id="edge6" class="edge">
<title>Node1&#45;&gt;Node7</title>
<path fill="none" stroke="midnightblue" d="M64.62,-946.94C71.35,-1063.49 107.89,-1653.29 161,-1712 164.78,-1716.18 169.12,-1719.71 173.85,-1722.68"/>
<polygon fill="midnightblue" stroke="midnightblue" points="68.1,-946.44 64.03,-936.65 61.11,-946.84 68.1,-946.44"/>
</g>
<!-- Node8 -->
<g id="node8" class="node">
<title>Node8</title>
<g id="a_node8"><a xlink:href="classtracktion_1_1engine_1_1LevelMeasurerProcessingNode.html" target="_top" xlink:title="A Node that introduces latency to balance the latency at the root Node and its position in the graph.">
<polygon fill="none" stroke="black" points="184,-1672 184,-1702 351,-1702 351,-1672 184,-1672"/>
<text text-anchor="start" x="192" y="-1690" font-family="Helvetica,sans-Serif" font-size="10.00">tracktion::engine::</text>
<text text-anchor="middle" x="267.5" y="-1679" font-family="Helvetica,sans-Serif" font-size="10.00">LevelMeasurerProcessingNode</text>
</a>
</g>
</g>
<!-- Node1&#45;&gt;Node8 -->
<g id="edge7" class="edge">
<title>Node1&#45;&gt;Node8</title>
<path fill="none" stroke="midnightblue" d="M63.2,-946.98C62,-1053.53 61.8,-1554.22 161,-1663 167.33,-1669.94 175.21,-1675.08 183.8,-1678.87"/>
<polygon fill="midnightblue" stroke="midnightblue" points="66.7,-946.74 63.33,-936.7 59.7,-946.65 66.7,-946.74"/>
</g>
<!-- Node9 -->
<g id="node9" class="node">
<title>Node9</title>
<g id="a_node9"><a xlink:href="classtracktion_1_1engine_1_1LevelMeasuringNode.html" target="_top" xlink:title="A Node that passes its incomming audio and MIDI through a LevelMeasurer.">
<polygon fill="none" stroke="black" points="208,-1623 208,-1653 327,-1653 327,-1623 208,-1623"/>
<text text-anchor="start" x="216" y="-1641" font-family="Helvetica,sans-Serif" font-size="10.00">tracktion::engine::</text>
<text text-anchor="middle" x="267.5" y="-1630" font-family="Helvetica,sans-Serif" font-size="10.00">LevelMeasuringNode</text>
</a>
</g>
</g>
<!-- Node1&#45;&gt;Node9 -->
<g id="edge8" class="edge">
<title>Node1&#45;&gt;Node9</title>
<path fill="none" stroke="midnightblue" d="M63.41,-946.6C63.33,-1048.09 68.1,-1513.08 161,-1614 173.02,-1627.06 190.54,-1633.75 207.87,-1636.99"/>
<polygon fill="midnightblue" stroke="midnightblue" points="66.91,-946.54 63.43,-936.53 59.91,-946.52 66.91,-946.54"/>
</g>
<!-- Node10 -->
<g id="node10" class="node">
<title>Node10</title>
<g id="a_node10"><a xlink:href="classtracktion_1_1engine_1_1LiveMidiInjectingNode.html" target="_top" xlink:title="A Node that injects MIDI message in to the stream, for keyboard key entry, note previews and MIDI ste...">
<polygon fill="none" stroke="black" points="205,-1574 205,-1604 330,-1604 330,-1574 205,-1574"/>
<text text-anchor="start" x="213" y="-1592" font-family="Helvetica,sans-Serif" font-size="10.00">tracktion::engine::</text>
<text text-anchor="middle" x="267.5" y="-1581" font-family="Helvetica,sans-Serif" font-size="10.00">LiveMidiInjectingNode</text>
</a>
</g>
</g>
<!-- Node1&#45;&gt;Node10 -->
<g id="edge9" class="edge">
<title>Node1&#45;&gt;Node10</title>
<path fill="none" stroke="midnightblue" d="M63.65,-947.02C64.77,-1044.91 74.64,-1472.18 161,-1565 172.39,-1577.24 188.61,-1583.87 204.93,-1587.31"/>
<polygon fill="midnightblue" stroke="midnightblue" points="67.14,-946.73 63.55,-936.76 60.14,-946.79 67.14,-946.73"/>
</g>
<!-- Node11 -->
<g id="node11" class="node">
<title>Node11</title>
<g id="a_node11"><a xlink:href="classtracktion_1_1engine_1_1LiveMidiOutputNode.html" target="_top" xlink:title="A Node that calls the listeners of an AudioTrack with any incomming MIDI.">
<polygon fill="none" stroke="black" points="209.5,-1525 209.5,-1555 325.5,-1555 325.5,-1525 209.5,-1525"/>
<text text-anchor="start" x="217.5" y="-1543" font-family="Helvetica,sans-Serif" font-size="10.00">tracktion::engine::</text>
<text text-anchor="middle" x="267.5" y="-1532" font-family="Helvetica,sans-Serif" font-size="10.00">LiveMidiOutputNode</text>
</a>
</g>
</g>
<!-- Node1&#45;&gt;Node11 -->
<g id="edge10" class="edge">
<title>Node1&#45;&gt;Node11</title>
<path fill="none" stroke="midnightblue" d="M63.92,-946.95C66.3,-1040.07 81,-1431.08 161,-1516 173.49,-1529.26 191.67,-1535.92 209.42,-1539.07"/>
<polygon fill="midnightblue" stroke="midnightblue" points="67.42,-946.81 63.68,-936.89 60.42,-946.97 67.42,-946.81"/>
</g>
<!-- Node12 -->
<g id="node12" class="node">
<title>Node12</title>
<g id="a_node12"><a xlink:href="classtracktion_1_1engine_1_1LoopingMidiNode.html" target="_top" xlink:title="A Node that plays MIDI data from a MidiMessageSequence, at a specific MIDI channel.">
<polygon fill="none" stroke="black" points="215,-1476 215,-1506 320,-1506 320,-1476 215,-1476"/>
<text text-anchor="start" x="223" y="-1494" font-family="Helvetica,sans-Serif" font-size="10.00">tracktion::engine::</text>
<text text-anchor="middle" x="267.5" y="-1483" font-family="Helvetica,sans-Serif" font-size="10.00">LoopingMidiNode</text>
</a>
</g>
</g>
<!-- Node1&#45;&gt;Node12 -->
<g id="edge11" class="edge">
<title>Node1&#45;&gt;Node12</title>
<path fill="none" stroke="midnightblue" d="M64.25,-946.95C67.97,-1035.25 87.37,-1389.98 161,-1467 174.89,-1481.53 195.6,-1488.1 215,-1490.84"/>
<polygon fill="midnightblue" stroke="midnightblue" points="67.74,-946.77 63.85,-936.92 60.75,-947.05 67.74,-946.77"/>
</g>
<!-- Node13 -->
<g id="node13" class="node">
<title>Node13</title>
<g id="a_node13"><a xlink:href="classtracktion_1_1engine_1_1MelodyneNode.html" target="_top" xlink:title="Plays back a Melodyne plugin.">
<polygon fill="none" stroke="black" points="215,-1427 215,-1457 320,-1457 320,-1427 215,-1427"/>
<text text-anchor="start" x="223" y="-1445" font-family="Helvetica,sans-Serif" font-size="10.00">tracktion::engine::</text>
<text text-anchor="middle" x="267.5" y="-1434" font-family="Helvetica,sans-Serif" font-size="10.00">MelodyneNode</text>
</a>
</g>
</g>
<!-- Node1&#45;&gt;Node13 -->
<g id="edge12" class="edge">
<title>Node1&#45;&gt;Node13</title>
<path fill="none" stroke="midnightblue" d="M64.64,-946.96C69.8,-1030.23 93.72,-1348.83 161,-1418 174.95,-1432.34 195.55,-1438.9 214.86,-1441.68"/>
<polygon fill="midnightblue" stroke="midnightblue" points="68.12,-946.6 64.03,-936.82 61.14,-947.01 68.12,-946.6"/>
</g>
<!-- Node14 -->
<g id="node14" class="node">
<title>Node14</title>
<g id="a_node14"><a xlink:href="classtracktion_1_1engine_1_1MidiInputDeviceNode.html" target="_top" xlink:title="A Node that intercepts incoming live MIDI and inserts it in to the playback graph.">
<polygon fill="none" stroke="black" points="206.5,-1378 206.5,-1408 328.5,-1408 328.5,-1378 206.5,-1378"/>
<text text-anchor="start" x="214.5" y="-1396" font-family="Helvetica,sans-Serif" font-size="10.00">tracktion::engine::</text>
<text text-anchor="middle" x="267.5" y="-1385" font-family="Helvetica,sans-Serif" font-size="10.00">MidiInputDeviceNode</text>
</a>
</g>
</g>
<!-- Node1&#45;&gt;Node14 -->
<g id="edge13" class="edge">
<title>Node1&#45;&gt;Node14</title>
<path fill="none" stroke="midnightblue" d="M65.11,-946.92C71.81,-1024.82 100.03,-1307.62 161,-1369 172.98,-1381.06 189.68,-1387.59 206.25,-1391"/>
<polygon fill="midnightblue" stroke="midnightblue" points="68.57,-946.27 64.25,-936.6 61.59,-946.85 68.57,-946.27"/>
</g>
<!-- Node15 -->
<g id="node15" class="node">
<title>Node15</title>
<g id="a_node15"><a xlink:href="classtracktion_1_1engine_1_1MidiNode.html" target="_top" xlink:title="A Node that plays MIDI data from a MidiMessageSequence, at a specific MIDI channel.">
<polygon fill="none" stroke="black" points="215,-1329 215,-1359 320,-1359 320,-1329 215,-1329"/>
<text text-anchor="start" x="223" y="-1347" font-family="Helvetica,sans-Serif" font-size="10.00">tracktion::engine::</text>
<text text-anchor="middle" x="267.5" y="-1336" font-family="Helvetica,sans-Serif" font-size="10.00">MidiNode</text>
</a>
</g>
</g>
<!-- Node1&#45;&gt;Node15 -->
<g id="edge14" class="edge">
<title>Node1&#45;&gt;Node15</title>
<path fill="none" stroke="midnightblue" d="M65.65,-946.54C73.96,-1018.36 106.21,-1266.27 161,-1320 175.22,-1333.94 195.75,-1340.45 214.93,-1343.3"/>
<polygon fill="midnightblue" stroke="midnightblue" points="69.13,-946.13 64.53,-936.59 62.17,-946.92 69.13,-946.13"/>
</g>
<!-- Node16 -->
<g id="node16" class="node">
<title>Node16</title>
<g id="a_node16"><a xlink:href="classtracktion_1_1engine_1_1MidiOutputDeviceInstanceInjectingNode.html" target="_top" xlink:title="A Node that injects the MIDI buffer of its input to the MidiOutputDevice.">
<polygon fill="none" stroke="black" points="161,-1280 161,-1310 374,-1310 374,-1280 161,-1280"/>
<text text-anchor="start" x="169" y="-1298" font-family="Helvetica,sans-Serif" font-size="10.00">tracktion::engine::</text>
<text text-anchor="middle" x="267.5" y="-1287" font-family="Helvetica,sans-Serif" font-size="10.00">MidiOutputDeviceInstanceInjectingNode</text>
</a>
</g>
</g>
<!-- Node1&#45;&gt;Node16 -->
<g id="edge15" class="edge">
<title>Node1&#45;&gt;Node16</title>
<path fill="none" stroke="midnightblue" d="M62.67,-946.85C61.36,-1005.72 66.01,-1180.87 161,-1271 164.54,-1274.36 168.45,-1277.29 172.62,-1279.83"/>
<polygon fill="midnightblue" stroke="midnightblue" points="66.17,-946.79 62.99,-936.68 59.18,-946.57 66.17,-946.79"/>
</g>
<!-- Node17 -->
<g id="node17" class="node">
<title>Node17</title>
<g id="a_node17"><a xlink:href="classtracktion_1_1engine_1_1ModifierNode.html" target="_top" xlink:title="Node for processing a Modifier.">
<polygon fill="none" stroke="black" points="215,-1231 215,-1261 320,-1261 320,-1231 215,-1231"/>
<text text-anchor="start" x="223" y="-1249" font-family="Helvetica,sans-Serif" font-size="10.00">tracktion::engine::</text>
<text text-anchor="middle" x="267.5" y="-1238" font-family="Helvetica,sans-Serif" font-size="10.00">ModifierNode</text>
</a>
</g>
</g>
<!-- Node1&#45;&gt;Node17 -->
<g id="edge16" class="edge">
<title>Node1&#45;&gt;Node17</title>
<path fill="none" stroke="midnightblue" d="M63.76,-946.81C65.58,-999.96 78.25,-1146.8 161,-1222 175.6,-1235.26 195.97,-1241.69 214.92,-1244.65"/>
<polygon fill="midnightblue" stroke="midnightblue" points="67.25,-946.6 63.51,-936.69 60.26,-946.77 67.25,-946.6"/>
</g>
<!-- Node18 -->
<g id="node18" class="node">
<title>Node18</title>
<g id="a_node18"><a xlink:href="classtracktion_1_1engine_1_1PlayHeadPositionNode.html" target="_top" xlink:title="A Node that calculates a position to show visually what time is currently being processed by the grap...">
<polygon fill="none" stroke="black" points="203.5,-1182 203.5,-1212 331.5,-1212 331.5,-1182 203.5,-1182"/>
<text text-anchor="start" x="211.5" y="-1200" font-family="Helvetica,sans-Serif" font-size="10.00">tracktion::engine::</text>
<text text-anchor="middle" x="267.5" y="-1189" font-family="Helvetica,sans-Serif" font-size="10.00">PlayHeadPositionNode</text>
</a>
</g>
</g>
<!-- Node1&#45;&gt;Node18 -->
<g id="edge17" class="edge">
<title>Node1&#45;&gt;Node18</title>
<path fill="none" stroke="midnightblue" d="M65.22,-946.61C70.41,-993.44 90.27,-1112.38 161,-1173 172.84,-1183.15 188.09,-1189.24 203.3,-1192.83"/>
<polygon fill="midnightblue" stroke="midnightblue" points="68.69,-946.18 64.21,-936.57 61.73,-946.87 68.69,-946.18"/>
</g>
<!-- Node19 -->
<g id="node19" class="node">
<title>Node19</title>
<g id="a_node19"><a xlink:href="classtracktion_1_1engine_1_1PluginNode.html" target="_top" xlink:title="Node for processing a plugin.">
<polygon fill="none" stroke="black" points="215,-1133 215,-1163 320,-1163 320,-1133 215,-1133"/>
<text text-anchor="start" x="223" y="-1151" font-family="Helvetica,sans-Serif" font-size="10.00">tracktion::engine::</text>
<text text-anchor="middle" x="267.5" y="-1140" font-family="Helvetica,sans-Serif" font-size="10.00">PluginNode</text>
</a>
</g>
</g>
<!-- Node1&#45;&gt;Node19 -->
<g id="edge18" class="edge">
<title>Node1&#45;&gt;Node19</title>
<path fill="none" stroke="midnightblue" d="M67.3,-946.44C76.17,-986.33 102.1,-1077.58 161,-1124 176.2,-1135.98 196.24,-1142.2 214.78,-1145.36"/>
<polygon fill="midnightblue" stroke="midnightblue" points="70.73,-945.7 65.24,-936.63 63.87,-947.14 70.73,-945.7"/>
</g>
<!-- Node20 -->
<g id="node20" class="node">
<title>Node20</title>
<g id="a_node20"><a xlink:href="classtracktion_1_1engine_1_1RackInstanceNode.html" target="_top" xlink:title="Sends an input Node to a Rack bus handling the channel mapping and channel gain levels.">
<polygon fill="none" stroke="black" points="214,-1084 214,-1114 321,-1114 321,-1084 214,-1084"/>
<text text-anchor="start" x="222" y="-1102" font-family="Helvetica,sans-Serif" font-size="10.00">tracktion::engine::</text>
<text text-anchor="middle" x="267.5" y="-1091" font-family="Helvetica,sans-Serif" font-size="10.00">RackInstanceNode</text>
</a>
</g>
</g>
<!-- Node1&#45;&gt;Node20 -->
<g id="edge19" class="edge">
<title>Node1&#45;&gt;Node20</title>
<path fill="none" stroke="midnightblue" d="M70.65,-946.38C83.52,-978.45 113.74,-1042.25 161,-1075 176.44,-1085.7 195.91,-1091.7 213.92,-1095.04"/>
<polygon fill="midnightblue" stroke="midnightblue" points="73.82,-944.88 66.95,-936.81 67.29,-947.4 73.82,-944.88"/>
</g>
<!-- Node21 -->
<g id="node21" class="node">
<title>Node21</title>
<g id="a_node21"><a xlink:href="classtracktion_1_1engine_1_1RackReturnNode.html" target="_top" xlink:title="Sends an input Node to a Rack bus handling the channel mapping and channel gain levels.">
<polygon fill="none" stroke="black" points="215,-1035 215,-1065 320,-1065 320,-1035 215,-1035"/>
<text text-anchor="start" x="223" y="-1053" font-family="Helvetica,sans-Serif" font-size="10.00">tracktion::engine::</text>
<text text-anchor="middle" x="267.5" y="-1042" font-family="Helvetica,sans-Serif" font-size="10.00">RackReturnNode</text>
</a>
</g>
</g>
<!-- Node1&#45;&gt;Node21 -->
<g id="edge20" class="edge">
<title>Node1&#45;&gt;Node21</title>
<path fill="none" stroke="midnightblue" d="M76.06,-945.01C92.78,-967.55 124.51,-1005.67 161,-1026 177.41,-1035.14 197.1,-1040.81 215,-1044.31"/>
<polygon fill="midnightblue" stroke="midnightblue" points="78.73,-942.72 70.03,-936.67 73.05,-946.82 78.73,-942.72"/>
</g>
<!-- Node22 -->
<g id="node22" class="node">
<title>Node22</title>
<g id="a_node22"><a xlink:href="classtracktion_1_1engine_1_1SharedLevelMeasuringNode.html" target="_top" xlink:title="Applies a SharedLevelMeter to the audio passing through this node.">
<polygon fill="none" stroke="black" points="191,-986 191,-1016 344,-1016 344,-986 191,-986"/>
<text text-anchor="start" x="199" y="-1004" font-family="Helvetica,sans-Serif" font-size="10.00">tracktion::engine::</text>
<text text-anchor="middle" x="267.5" y="-993" font-family="Helvetica,sans-Serif" font-size="10.00">SharedLevelMeasuringNode</text>
</a>
</g>
</g>
<!-- Node1&#45;&gt;Node22 -->
<g id="edge21" class="edge">
<title>Node1&#45;&gt;Node22</title>
<path fill="none" stroke="midnightblue" d="M87.88,-941.68C107.15,-952.74 135.04,-967.56 161,-977 170.53,-980.47 180.74,-983.54 190.91,-986.23"/>
<polygon fill="midnightblue" stroke="midnightblue" points="89.56,-938.61 79.16,-936.59 86.03,-944.65 89.56,-938.61"/>
</g>
<!-- Node23 -->
<g id="node23" class="node">
<title>Node23</title>
<g id="a_node23"><a xlink:href="classtracktion_1_1engine_1_1SpeedRampWaveNode.html" target="_top" xlink:title="An Node that plays back a wave file.">
<polygon fill="none" stroke="black" points="203.5,-937 203.5,-967 331.5,-967 331.5,-937 203.5,-937"/>
<text text-anchor="start" x="211.5" y="-955" font-family="Helvetica,sans-Serif" font-size="10.00">tracktion::engine::</text>
<text text-anchor="middle" x="267.5" y="-944" font-family="Helvetica,sans-Serif" font-size="10.00">SpeedRampWaveNode</text>
</a>
</g>
</g>
<!-- Node1&#45;&gt;Node23 -->
<g id="edge22" class="edge">
<title>Node1&#45;&gt;Node23</title>
<path fill="none" stroke="midnightblue" d="M135.27,-935.84C157.46,-938.57 181.74,-941.56 203.31,-944.22"/>
<polygon fill="midnightblue" stroke="midnightblue" points="135.59,-932.35 125.23,-934.6 134.73,-939.3 135.59,-932.35"/>
</g>
<!-- Node24 -->
<g id="node24" class="node">
<title>Node24</title>
<g id="a_node24"><a xlink:href="classtracktion_1_1engine_1_1TimeStretchingWaveNode.html" target="_top" xlink:title="Node that reads from a file node and timestretches its output.">
<polygon fill="none" stroke="black" points="196,-888 196,-918 339,-918 339,-888 196,-888"/>
<text text-anchor="start" x="204" y="-906" font-family="Helvetica,sans-Serif" font-size="10.00">tracktion::engine::</text>
<text text-anchor="middle" x="267.5" y="-895" font-family="Helvetica,sans-Serif" font-size="10.00">TimeStretchingWaveNode</text>
</a>
</g>
</g>
<!-- Node1&#45;&gt;Node24 -->
<g id="edge23" class="edge">
<title>Node1&#45;&gt;Node24</title>
<path fill="none" stroke="midnightblue" d="M135.34,-918.51C154.98,-916.18 176.24,-913.67 195.82,-911.36"/>
<polygon fill="midnightblue" stroke="midnightblue" points="134.75,-915.05 125.23,-919.7 135.58,-922 134.75,-915.05"/>
</g>
<!-- Node25 -->
<g id="node25" class="node">
<title>Node25</title>
<g id="a_node25"><a xlink:href="classtracktion_1_1engine_1_1TimedMutingNode.html" target="_top" xlink:title="A Node that mutes its input at specific time ranges.">
<polygon fill="none" stroke="black" points="214,-839 214,-869 321,-869 321,-839 214,-839"/>
<text text-anchor="start" x="222" y="-857" font-family="Helvetica,sans-Serif" font-size="10.00">tracktion::engine::</text>
<text text-anchor="middle" x="267.5" y="-846" font-family="Helvetica,sans-Serif" font-size="10.00">TimedMutingNode</text>
</a>
</g>
</g>
<!-- Node1&#45;&gt;Node25 -->
<g id="edge24" class="edge">
<title>Node1&#45;&gt;Node25</title>
<path fill="none" stroke="midnightblue" d="M88.67,-912.65C107.97,-902.13 135.52,-888.16 161,-879 177.83,-872.95 196.69,-867.95 213.77,-864.05"/>
<polygon fill="midnightblue" stroke="midnightblue" points="86.96,-909.59 79.91,-917.49 90.35,-915.72 86.96,-909.59"/>
</g>
<!-- Node26 -->
<g id="node26" class="node">
<title>Node26</title>
<g id="a_node26"><a xlink:href="classtracktion_1_1engine_1_1TrackMidiInputDeviceNode.html" target="_top" xlink:title="A Node that takes MIDI from the output of a track and sends it to its corresponding InputDevice.">
<polygon fill="none" stroke="black" points="194,-790 194,-820 341,-820 341,-790 194,-790"/>
<text text-anchor="start" x="202" y="-808" font-family="Helvetica,sans-Serif" font-size="10.00">tracktion::engine::</text>
<text text-anchor="middle" x="267.5" y="-797" font-family="Helvetica,sans-Serif" font-size="10.00">TrackMidiInputDeviceNode</text>
</a>
</g>
</g>
<!-- Node1&#45;&gt;Node26 -->
<g id="edge25" class="edge">
<title>Node1&#45;&gt;Node26</title>
<path fill="none" stroke="midnightblue" d="M76.43,-909.07C93.34,-887.01 125.06,-850 161,-830 171.12,-824.37 182.46,-820 193.86,-816.62"/>
<polygon fill="midnightblue" stroke="midnightblue" points="73.5,-907.16 70.32,-917.26 79.11,-911.35 73.5,-907.16"/>
</g>
<!-- Node27 -->
<g id="node27" class="node">
<title>Node27</title>
<g id="a_node27"><a xlink:href="classtracktion_1_1engine_1_1TrackMutingNode.html" target="_top" xlink:title="A Node that handles muting/soloing of its input node, according to the audibility of a track.">
<polygon fill="none" stroke="black" points="215,-741 215,-771 320,-771 320,-741 215,-741"/>
<text text-anchor="start" x="223" y="-759" font-family="Helvetica,sans-Serif" font-size="10.00">tracktion::engine::</text>
<text text-anchor="middle" x="267.5" y="-748" font-family="Helvetica,sans-Serif" font-size="10.00">TrackMutingNode</text>
</a>
</g>
</g>
<!-- Node1&#45;&gt;Node27 -->
<g id="edge26" class="edge">
<title>Node1&#45;&gt;Node27</title>
<path fill="none" stroke="midnightblue" d="M70.76,-907.92C83.79,-876.35 114.23,-813.51 161,-781 176.69,-770.1 196.52,-763.91 214.75,-760.41"/>
<polygon fill="midnightblue" stroke="midnightblue" points="67.45,-906.76 67.01,-917.34 73.96,-909.35 67.45,-906.76"/>
</g>
<!-- Node28 -->
<g id="node28" class="node">
<title>Node28</title>
<g id="a_node28"><a xlink:href="classtracktion_1_1engine_1_1TrackWaveInputDeviceNode.html" target="_top" xlink:title="A Node that takes audio from the output of a track and sends it to its corresponding InputDevice.">
<polygon fill="none" stroke="black" points="191,-692 191,-722 344,-722 344,-692 191,-692"/>
<text text-anchor="start" x="199" y="-710" font-family="Helvetica,sans-Serif" font-size="10.00">tracktion::engine::</text>
<text text-anchor="middle" x="267.5" y="-699" font-family="Helvetica,sans-Serif" font-size="10.00">TrackWaveInputDeviceNode</text>
</a>
</g>
</g>
<!-- Node1&#45;&gt;Node28 -->
<g id="edge27" class="edge">
<title>Node1&#45;&gt;Node28</title>
<path fill="none" stroke="midnightblue" d="M67.46,-907.54C76.56,-867.99 102.82,-778.09 161,-732 169.78,-725.05 180.18,-719.97 190.97,-716.28"/>
<polygon fill="midnightblue" stroke="midnightblue" points="64,-906.97 65.29,-917.49 70.84,-908.46 64,-906.97"/>
</g>
<!-- Node29 -->
<g id="node29" class="node">
<title>Node29</title>
<g id="a_node29"><a xlink:href="classtracktion_1_1engine_1_1WaveInputDeviceNode.html" target="_top" xlink:title="A Node that intercepts incoming live audio and inserts it in to the playback graph.">
<polygon fill="none" stroke="black" points="203.5,-643 203.5,-673 331.5,-673 331.5,-643 203.5,-643"/>
<text text-anchor="start" x="211.5" y="-661" font-family="Helvetica,sans-Serif" font-size="10.00">tracktion::engine::</text>
<text text-anchor="middle" x="267.5" y="-650" font-family="Helvetica,sans-Serif" font-size="10.00">WaveInputDeviceNode</text>
</a>
</g>
</g>
<!-- Node1&#45;&gt;Node29 -->
<g id="edge28" class="edge">
<title>Node1&#45;&gt;Node29</title>
<path fill="none" stroke="midnightblue" d="M65.34,-907.26C70.79,-860.68 91.11,-743.28 161,-683 172.83,-672.8 188.08,-666.58 203.29,-662.84"/>
<polygon fill="midnightblue" stroke="midnightblue" points="61.86,-906.96 64.28,-917.27 68.82,-907.7 61.86,-906.96"/>
</g>
<!-- Node30 -->
<g id="node30" class="node">
<title>Node30</title>
<g id="a_node30"><a xlink:href="classtracktion_1_1engine_1_1WaveNode.html" target="_top" xlink:title="An Node that plays back a wave file.">
<polygon fill="none" stroke="black" points="215,-594 215,-624 320,-624 320,-594 215,-594"/>
<text text-anchor="start" x="223" y="-612" font-family="Helvetica,sans-Serif" font-size="10.00">tracktion::engine::</text>
<text text-anchor="middle" x="267.5" y="-601" font-family="Helvetica,sans-Serif" font-size="10.00">WaveNode</text>
</a>
</g>
</g>
<!-- Node1&#45;&gt;Node30 -->
<g id="edge29" class="edge">
<title>Node1&#45;&gt;Node30</title>
<path fill="none" stroke="midnightblue" d="M63.84,-907.36C65.88,-854.66 79.02,-709.02 161,-634 175.58,-620.66 195.95,-614.05 214.9,-610.91"/>
<polygon fill="midnightblue" stroke="midnightblue" points="60.34,-907.3 63.55,-917.4 67.34,-907.5 60.34,-907.3"/>
</g>
<!-- Node31 -->
<g id="node31" class="node">
<title>Node31</title>
<g id="a_node31"><a xlink:href="classtracktion_1_1engine_1_1WaveNodeRealTime.html" target="_top" xlink:title="An Node that plays back a wave file.">
<polygon fill="none" stroke="black" points="209.5,-545 209.5,-575 325.5,-575 325.5,-545 209.5,-545"/>
<text text-anchor="start" x="217.5" y="-563" font-family="Helvetica,sans-Serif" font-size="10.00">tracktion::engine::</text>
<text text-anchor="middle" x="267.5" y="-552" font-family="Helvetica,sans-Serif" font-size="10.00">WaveNodeRealTime</text>
</a>
</g>
</g>
<!-- Node1&#45;&gt;Node31 -->
<g id="edge30" class="edge">
<title>Node1&#45;&gt;Node31</title>
<path fill="none" stroke="midnightblue" d="M62.75,-907.31C61.66,-848.88 66.86,-674.99 161,-585 173.99,-572.58 191.98,-565.95 209.41,-562.51"/>
<polygon fill="midnightblue" stroke="midnightblue" points="59.25,-907.49 63.03,-917.39 66.25,-907.3 59.25,-907.49"/>
</g>
<!-- Node32 -->
<g id="node32" class="node">
<title>Node32</title>
<g id="a_node32"><a xlink:href="classtracktion_1_1graph_1_1BasicSummingNode.html" target="_top" xlink:title=" ">
<polygon fill="none" stroke="black" points="168.5,-506.5 168.5,-525.5 366.5,-525.5 366.5,-506.5 168.5,-506.5"/>
<text text-anchor="middle" x="267.5" y="-513.5" font-family="Helvetica,sans-Serif" font-size="10.00">tracktion::graph::BasicSummingNode</text>
</a>
</g>
</g>
<!-- Node1&#45;&gt;Node32 -->
<g id="edge31" class="edge">
<title>Node1&#45;&gt;Node32</title>
<path fill="none" stroke="midnightblue" d="M65.61,-907.49C73.75,-835.81 105.48,-588.44 161,-536 165.34,-531.9 170.24,-528.52 175.49,-525.73"/>
<polygon fill="midnightblue" stroke="midnightblue" points="62.13,-907.1 64.5,-917.43 69.09,-907.88 62.13,-907.1"/>
</g>
<!-- Node33 -->
<g id="node33" class="node">
<title>Node33</title>
<g id="a_node33"><a xlink:href="classtracktion_1_1graph_1_1ChannelRemappingNode.html" target="_top" xlink:title="Maps channels from one to another.">
<polygon fill="none" stroke="black" points="197.5,-457 197.5,-487 337.5,-487 337.5,-457 197.5,-457"/>
<text text-anchor="start" x="205.5" y="-475" font-family="Helvetica,sans-Serif" font-size="10.00">tracktion::graph::Channel</text>
<text text-anchor="middle" x="267.5" y="-464" font-family="Helvetica,sans-Serif" font-size="10.00">RemappingNode</text>
</a>
</g>
</g>
<!-- Node1&#45;&gt;Node33 -->
<g id="edge32" class="edge">
<title>Node1&#45;&gt;Node33</title>
<path fill="none" stroke="midnightblue" d="M65.25,-907.14C72.4,-830.7 101.82,-556.75 161,-497 170.87,-487.04 183.93,-480.75 197.48,-476.86"/>
<polygon fill="midnightblue" stroke="midnightblue" points="61.75,-907.02 64.33,-917.3 68.72,-907.66 61.75,-907.02"/>
</g>
<!-- Node34 -->
<g id="node34" class="node">
<title>Node34</title>
<g id="a_node34"><a xlink:href="classtracktion_1_1graph_1_1ConnectedNode.html" target="_top" xlink:title="An Node which sums together the multiple inputs adding additional latency to provide a coherent outpu...">
<polygon fill="none" stroke="black" points="179,-418.5 179,-437.5 356,-437.5 356,-418.5 179,-418.5"/>
<text text-anchor="middle" x="267.5" y="-425.5" font-family="Helvetica,sans-Serif" font-size="10.00">tracktion::graph::ConnectedNode</text>
</a>
</g>
</g>
<!-- Node1&#45;&gt;Node34 -->
<g id="edge33" class="edge">
<title>Node1&#45;&gt;Node34</title>
<path fill="none" stroke="midnightblue" d="M64.68,-906.96C69.95,-824.67 94.06,-514.04 161,-448 166.18,-442.89 172.22,-438.88 178.76,-435.74"/>
<polygon fill="midnightblue" stroke="midnightblue" points="61.16,-907.19 64.04,-917.38 68.15,-907.62 61.16,-907.19"/>
</g>
<!-- Node35 -->
<g id="node35" class="node">
<title>Node35</title>
<g id="a_node35"><a xlink:href="classtracktion_1_1graph_1_1ForwardingNode.html" target="_top" xlink:title="Takes a non&#45;owning input node and simply forwards its outputs on.">
<polygon fill="none" stroke="black" points="178,-380.5 178,-399.5 357,-399.5 357,-380.5 178,-380.5"/>
<text text-anchor="middle" x="267.5" y="-387.5" font-family="Helvetica,sans-Serif" font-size="10.00">tracktion::graph::ForwardingNode</text>
</a>
</g>
</g>
<!-- Node1&#45;&gt;Node35 -->
<g id="edge34" class="edge">
<title>Node1&#45;&gt;Node35</title>
<path fill="none" stroke="midnightblue" d="M64.32,-907.26C68.3,-821.32 88.49,-480.94 161,-409 165.89,-404.15 171.57,-400.31 177.71,-397.28"/>
<polygon fill="midnightblue" stroke="midnightblue" points="60.81,-907.3 63.87,-917.44 67.81,-907.61 60.81,-907.3"/>
</g>
<!-- Node36 -->
<g id="node36" class="node">
<title>Node36</title>
<g id="a_node36"><a xlink:href="classtracktion_1_1graph_1_1FunctionNode.html" target="_top" xlink:title=" ">
<polygon fill="none" stroke="black" points="184,-342.5 184,-361.5 351,-361.5 351,-342.5 184,-342.5"/>
<text text-anchor="middle" x="267.5" y="-349.5" font-family="Helvetica,sans-Serif" font-size="10.00">tracktion::graph::FunctionNode</text>
</a>
</g>
</g>
<!-- Node1&#45;&gt;Node36 -->
<g id="edge35" class="edge">
<title>Node1&#45;&gt;Node36</title>
<path fill="none" stroke="midnightblue" d="M64.05,-906.97C66.97,-816.71 83.51,-448.85 161,-371 167.5,-364.47 175.43,-359.76 183.99,-356.4"/>
<polygon fill="midnightblue" stroke="midnightblue" points="60.55,-907.09 63.74,-917.19 67.54,-907.3 60.55,-907.09"/>
</g>
<!-- Node37 -->
<g id="node37" class="node">
<title>Node37</title>
<g id="a_node37"><a xlink:href="classtracktion_1_1graph_1_1GainNode.html" target="_top" xlink:title=" ">
<polygon fill="none" stroke="black" points="193.5,-304.5 193.5,-323.5 341.5,-323.5 341.5,-304.5 193.5,-304.5"/>
<text text-anchor="middle" x="267.5" y="-311.5" font-family="Helvetica,sans-Serif" font-size="10.00">tracktion::graph::GainNode</text>
</a>
</g>
</g>
<!-- Node1&#45;&gt;Node37 -->
<g id="edge36" class="edge">
<title>Node1&#45;&gt;Node37</title>
<path fill="none" stroke="midnightblue" d="M63.8,-907.4C65.64,-814.22 78.3,-416.99 161,-333 169.81,-324.05 181.31,-318.5 193.47,-315.17"/>
<polygon fill="midnightblue" stroke="midnightblue" points="60.3,-907.37 63.62,-917.43 67.3,-907.49 60.3,-907.37"/>
</g>
<!-- Node38 -->
<g id="node38" class="node">
<title>Node38</title>
<g id="a_node38"><a xlink:href="classtracktion_1_1graph_1_1LatencyNode.html" target="_top" xlink:title=" ">
<polygon fill="none" stroke="black" points="185.5,-266.5 185.5,-285.5 349.5,-285.5 349.5,-266.5 185.5,-266.5"/>
<text text-anchor="middle" x="267.5" y="-273.5" font-family="Helvetica,sans-Serif" font-size="10.00">tracktion::graph::LatencyNode</text>
</a>
</g>
</g>
<!-- Node1&#45;&gt;Node38 -->
<g id="edge37" class="edge">
<title>Node1&#45;&gt;Node38</title>
<path fill="none" stroke="midnightblue" d="M63.59,-907.09C64.46,-809.73 73.3,-384.94 161,-295 167.82,-288 176.28,-283.08 185.42,-279.67"/>
<polygon fill="midnightblue" stroke="midnightblue" points="60.09,-907.27 63.52,-917.29 67.09,-907.32 60.09,-907.27"/>
</g>
<!-- Node39 -->
<g id="node39" class="node">
<title>Node39</title>
<g id="a_node39"><a xlink:href="classtracktion_1_1graph_1_1MidiNode.html" target="_top" xlink:title="Plays back a MIDI sequence.">
<polygon fill="none" stroke="black" points="194.5,-228.5 194.5,-247.5 340.5,-247.5 340.5,-228.5 194.5,-228.5"/>
<text text-anchor="middle" x="267.5" y="-235.5" font-family="Helvetica,sans-Serif" font-size="10.00">tracktion::graph::MidiNode</text>
</a>
</g>
</g>
<!-- Node1&#45;&gt;Node39 -->
<g id="edge38" class="edge">
<title>Node1&#45;&gt;Node39</title>
<path fill="none" stroke="midnightblue" d="M63.4,-907.17C63.32,-806.5 68.17,-353.01 161,-257 169.99,-247.7 181.88,-242.05 194.42,-238.75"/>
<polygon fill="midnightblue" stroke="midnightblue" points="59.9,-907.21 63.43,-917.2 66.9,-907.19 59.9,-907.21"/>
</g>
<!-- Node40 -->
<g id="node40" class="node">
<title>Node40</title>
<g id="a_node40"><a xlink:href="classtracktion_1_1graph_1_1ReturnNode.html" target="_top" xlink:title=" ">
<polygon fill="none" stroke="black" points="188.5,-190.5 188.5,-209.5 346.5,-209.5 346.5,-190.5 188.5,-190.5"/>
<text text-anchor="middle" x="267.5" y="-197.5" font-family="Helvetica,sans-Serif" font-size="10.00">tracktion::graph::ReturnNode</text>
</a>
</g>
</g>
<!-- Node1&#45;&gt;Node40 -->
<g id="edge39" class="edge">
<title>Node1&#45;&gt;Node40</title>
<path fill="none" stroke="midnightblue" d="M63.23,-907.04C62.24,-802.73 63.09,-321.04 161,-219 168.54,-211.14 178.14,-205.89 188.47,-202.45"/>
<polygon fill="midnightblue" stroke="midnightblue" points="59.73,-907.19 63.34,-917.14 66.73,-907.11 59.73,-907.19"/>
</g>
<!-- Node41 -->
<g id="node41" class="node">
<title>Node41</title>
<g id="a_node41"><a xlink:href="classtracktion_1_1graph_1_1SendNode.html" target="_top" xlink:title=" ">
<polygon fill="none" stroke="black" points="193,-152.5 193,-171.5 342,-171.5 342,-152.5 193,-152.5"/>
<text text-anchor="middle" x="267.5" y="-159.5" font-family="Helvetica,sans-Serif" font-size="10.00">tracktion::graph::SendNode</text>
</a>
</g>
</g>
<!-- Node1&#45;&gt;Node41 -->
<g id="edge40" class="edge">
<title>Node1&#45;&gt;Node41</title>
<path fill="none" stroke="midnightblue" d="M63.08,-907.34C61.22,-800.37 57.87,-289.23 161,-181 169.6,-171.97 180.93,-166.37 192.96,-163.02"/>
<polygon fill="midnightblue" stroke="midnightblue" points="59.58,-907.45 63.27,-917.39 66.58,-907.32 59.58,-907.45"/>
</g>
<!-- Node43 -->
<g id="node43" class="node">
<title>Node43</title>
<g id="a_node43"><a xlink:href="classtracktion_1_1graph_1_1SilentNode.html" target="_top" xlink:title="Just a simple audio node that doesn&#39;t take any input so can be used as a stub.">
<polygon fill="none" stroke="black" points="191,-114.5 191,-133.5 344,-133.5 344,-114.5 191,-114.5"/>
<text text-anchor="middle" x="267.5" y="-121.5" font-family="Helvetica,sans-Serif" font-size="10.00">tracktion::graph::SilentNode</text>
</a>
</g>
</g>
<!-- Node1&#45;&gt;Node43 -->
<g id="edge42" class="edge">
<title>Node1&#45;&gt;Node43</title>
<path fill="none" stroke="midnightblue" d="M64.58,-907.04C71.1,-790.44 106.63,-200.41 161,-143 169.06,-134.49 179.55,-129.01 190.77,-125.6"/>
<polygon fill="midnightblue" stroke="midnightblue" points="61.07,-907.16 64.02,-917.34 68.06,-907.55 61.07,-907.16"/>
</g>
<!-- Node44 -->
<g id="node44" class="node">
<title>Node44</title>
<g id="a_node44"><a xlink:href="classtracktion_1_1graph_1_1SinNode.html" target="_top" xlink:title=" ">
<polygon fill="none" stroke="black" points="197.5,-76.5 197.5,-95.5 337.5,-95.5 337.5,-76.5 197.5,-76.5"/>
<text text-anchor="middle" x="267.5" y="-83.5" font-family="Helvetica,sans-Serif" font-size="10.00">tracktion::graph::SinNode</text>
</a>
</g>
</g>
<!-- Node1&#45;&gt;Node44 -->
<g id="edge43" class="edge">
<title>Node1&#45;&gt;Node44</title>
<path fill="none" stroke="midnightblue" d="M64.46,-907.21C70.41,-787.69 104.03,-165.5 161,-105 170.63,-94.77 183.76,-88.92 197.48,-85.76"/>
<polygon fill="midnightblue" stroke="midnightblue" points="60.95,-907.27 63.95,-917.43 67.94,-907.62 60.95,-907.27"/>
</g>
<!-- Node45 -->
<g id="node45" class="node">
<title>Node45</title>
<g id="a_node45"><a xlink:href="classtracktion_1_1graph_1_1SinkNode.html" target="_top" xlink:title="Blocks audio and MIDI input from reaching the outputs.">
<polygon fill="none" stroke="black" points="194.5,-38.5 194.5,-57.5 340.5,-57.5 340.5,-38.5 194.5,-38.5"/>
<text text-anchor="middle" x="267.5" y="-45.5" font-family="Helvetica,sans-Serif" font-size="10.00">tracktion::graph::SinkNode</text>
</a>
</g>
</g>
<!-- Node1&#45;&gt;Node45 -->
<g id="edge44" class="edge">
<title>Node1&#45;&gt;Node45</title>
<path fill="none" stroke="midnightblue" d="M64.36,-907.06C69.81,-783.96 101.48,-130.54 161,-67 169.91,-57.49 181.83,-51.76 194.45,-48.46"/>
<polygon fill="midnightblue" stroke="midnightblue" points="60.85,-907.14 63.91,-917.28 67.84,-907.44 60.85,-907.14"/>
</g>
<!-- Node46 -->
<g id="node46" class="node">
<title>Node46</title>
<g id="a_node46"><a xlink:href="classtracktion_1_1graph_1_1SummingNode.html" target="_top" xlink:title="An Node which sums together the multiple inputs adding additional latency to provide a coherent outpu...">
<polygon fill="none" stroke="black" points="181.5,-0.5 181.5,-19.5 353.5,-19.5 353.5,-0.5 181.5,-0.5"/>
<text text-anchor="middle" x="267.5" y="-7.5" font-family="Helvetica,sans-Serif" font-size="10.00">tracktion::graph::SummingNode</text>
</a>
</g>
</g>
<!-- Node1&#45;&gt;Node46 -->
<g id="edge45" class="edge">
<title>Node1&#45;&gt;Node46</title>
<path fill="none" stroke="midnightblue" d="M64.24,-907.36C69.17,-781.89 98.84,-95.67 161,-29 166.71,-22.87 173.67,-18.32 181.27,-14.96"/>
<polygon fill="midnightblue" stroke="midnightblue" points="60.74,-907.31 63.85,-917.44 67.74,-907.58 60.74,-907.31"/>
</g>
<!-- Node42 -->
<g id="node42" class="node">
<title>Node42</title>
<g id="a_node42"><a xlink:href="classtracktion_1_1engine_1_1AuxSendNode.html" target="_top" xlink:title="Node for an aux send.">
<polygon fill="none" stroke="black" points="410,-147 410,-177 515,-177 515,-147 410,-147"/>
<text text-anchor="start" x="418" y="-165" font-family="Helvetica,sans-Serif" font-size="10.00">tracktion::engine::</text>
<text text-anchor="middle" x="462.5" y="-154" font-family="Helvetica,sans-Serif" font-size="10.00">AuxSendNode</text>
</a>
</g>
</g>
<!-- Node41&#45;&gt;Node42 -->
<g id="edge41" class="edge">
<title>Node41&#45;&gt;Node42</title>
<path fill="none" stroke="midnightblue" d="M352.17,-162C371.75,-162 392.05,-162 409.77,-162"/>
<polygon fill="midnightblue" stroke="midnightblue" points="352.02,-158.5 342.02,-162 352.02,-165.5 352.02,-158.5"/>
</g>
</g>
</svg>
