<?xml version="1.0" encoding="UTF-8" standalone="no"?>
<!DOCTYPE svg PUBLIC "-//W3C//DTD SVG 1.1//EN"
 "http://www.w3.org/Graphics/SVG/1.1/DTD/svg11.dtd">
<!-- Generated by graphviz version 2.43.0 (0)
 -->
<!-- Title: tracktion::engine::ControlSurface Pages: 1 -->
<svg width="578pt" height="333pt"
 viewBox="0.00 0.00 578.00 333.00" xmlns="http://www.w3.org/2000/svg" xmlns:xlink="http://www.w3.org/1999/xlink">
<g id="graph0" class="graph" transform="scale(1 1) rotate(0) translate(4 329)">
<title>tracktion::engine::ControlSurface</title>
<!-- Node1 -->
<g id="node1" class="node">
<title>Node1</title>
<g id="a_node1"><a xlink:title="Base class for types of control surface.">
<polygon fill="#bfbfbf" stroke="black" points="141,-147.5 141,-177.5 246,-177.5 246,-147.5 141,-147.5"/>
<text text-anchor="start" x="149" y="-165.5" font-family="Helvetica,sans-Serif" font-size="10.00">tracktion::engine::</text>
<text text-anchor="middle" x="193.5" y="-154.5" font-family="Helvetica,sans-Serif" font-size="10.00">ControlSurface</text>
</a>
</g>
</g>
<!-- Node3 -->
<g id="node3" class="node">
<title>Node3</title>
<g id="a_node3"><a xlink:href="classtracktion_1_1engine_1_1AlphaTrackControlSurface.html" target="_top" xlink:title=" ">
<polygon fill="none" stroke="black" points="282,-294.5 282,-324.5 424,-324.5 424,-294.5 282,-294.5"/>
<text text-anchor="start" x="290" y="-312.5" font-family="Helvetica,sans-Serif" font-size="10.00">tracktion::engine::</text>
<text text-anchor="middle" x="353" y="-301.5" font-family="Helvetica,sans-Serif" font-size="10.00">AlphaTrackControlSurface</text>
</a>
</g>
</g>
<!-- Node1&#45;&gt;Node3 -->
<g id="edge2" class="edge">
<title>Node1&#45;&gt;Node3</title>
<path fill="none" stroke="midnightblue" d="M205.86,-186.69C220.01,-214.33 246.69,-259.13 282,-285.5 286.53,-288.88 291.57,-291.81 296.81,-294.34"/>
<polygon fill="midnightblue" stroke="midnightblue" points="208.97,-185.08 201.39,-177.69 202.7,-188.2 208.97,-185.08"/>
</g>
<!-- Node4 -->
<g id="node4" class="node">
<title>Node4</title>
<g id="a_node4"><a xlink:href="classtracktion_1_1engine_1_1CustomControlSurface.html" target="_top" xlink:title=" ">
<polygon fill="none" stroke="black" points="290,-245.5 290,-275.5 416,-275.5 416,-245.5 290,-245.5"/>
<text text-anchor="start" x="298" y="-263.5" font-family="Helvetica,sans-Serif" font-size="10.00">tracktion::engine::</text>
<text text-anchor="middle" x="353" y="-252.5" font-family="Helvetica,sans-Serif" font-size="10.00">CustomControlSurface</text>
</a>
</g>
</g>
<!-- Node1&#45;&gt;Node4 -->
<g id="edge3" class="edge">
<title>Node1&#45;&gt;Node4</title>
<path fill="none" stroke="midnightblue" d="M216.1,-184.79C232.82,-200.99 257.24,-222.45 282,-236.5 287.92,-239.86 294.39,-242.86 300.93,-245.5"/>
<polygon fill="midnightblue" stroke="midnightblue" points="218.56,-182.3 208.99,-177.76 213.64,-187.28 218.56,-182.3"/>
</g>
<!-- Node5 -->
<g id="node5" class="node">
<title>Node5</title>
<g id="a_node5"><a xlink:href="classtracktion_1_1engine_1_1MackieC4.html" target="_top" xlink:title=" ">
<polygon fill="none" stroke="black" points="300.5,-196.5 300.5,-226.5 405.5,-226.5 405.5,-196.5 300.5,-196.5"/>
<text text-anchor="start" x="308.5" y="-214.5" font-family="Helvetica,sans-Serif" font-size="10.00">tracktion::engine::</text>
<text text-anchor="middle" x="353" y="-203.5" font-family="Helvetica,sans-Serif" font-size="10.00">MackieC4</text>
</a>
</g>
</g>
<!-- Node1&#45;&gt;Node5 -->
<g id="edge4" class="edge">
<title>Node1&#45;&gt;Node5</title>
<path fill="none" stroke="midnightblue" d="M252.72,-180.61C269.46,-185.82 287.54,-191.45 303.62,-196.45"/>
<polygon fill="midnightblue" stroke="midnightblue" points="253.63,-177.23 243.04,-177.6 251.55,-183.91 253.63,-177.23"/>
</g>
<!-- Node6 -->
<g id="node6" class="node">
<title>Node6</title>
<g id="a_node6"><a xlink:href="classtracktion_1_1engine_1_1MackieMCU.html" target="_top" xlink:title=" ">
<polygon fill="none" stroke="black" points="300.5,-147.5 300.5,-177.5 405.5,-177.5 405.5,-147.5 300.5,-147.5"/>
<text text-anchor="start" x="308.5" y="-165.5" font-family="Helvetica,sans-Serif" font-size="10.00">tracktion::engine::</text>
<text text-anchor="middle" x="353" y="-154.5" font-family="Helvetica,sans-Serif" font-size="10.00">MackieMCU</text>
</a>
</g>
</g>
<!-- Node1&#45;&gt;Node6 -->
<g id="edge5" class="edge">
<title>Node1&#45;&gt;Node6</title>
<path fill="none" stroke="midnightblue" d="M256.47,-162.5C270.99,-162.5 286.3,-162.5 300.31,-162.5"/>
<polygon fill="midnightblue" stroke="midnightblue" points="256.07,-159 246.07,-162.5 256.07,-166 256.07,-159"/>
</g>
<!-- Node8 -->
<g id="node8" class="node">
<title>Node8</title>
<g id="a_node8"><a xlink:href="classtracktion_1_1engine_1_1MackieXT.html" target="_top" xlink:title=" ">
<polygon fill="none" stroke="black" points="300.5,-98.5 300.5,-128.5 405.5,-128.5 405.5,-98.5 300.5,-98.5"/>
<text text-anchor="start" x="308.5" y="-116.5" font-family="Helvetica,sans-Serif" font-size="10.00">tracktion::engine::</text>
<text text-anchor="middle" x="353" y="-105.5" font-family="Helvetica,sans-Serif" font-size="10.00">MackieXT</text>
</a>
</g>
</g>
<!-- Node1&#45;&gt;Node8 -->
<g id="edge7" class="edge">
<title>Node1&#45;&gt;Node8</title>
<path fill="none" stroke="midnightblue" d="M252.72,-144.39C269.46,-139.18 287.54,-133.55 303.62,-128.55"/>
<polygon fill="midnightblue" stroke="midnightblue" points="251.55,-141.09 243.04,-147.4 253.63,-147.77 251.55,-141.09"/>
</g>
<!-- Node9 -->
<g id="node9" class="node">
<title>Node9</title>
<g id="a_node9"><a xlink:href="classtracktion_1_1engine_1_1NovationRemoteSl.html" target="_top" xlink:title=" ">
<polygon fill="none" stroke="black" points="299,-49.5 299,-79.5 407,-79.5 407,-49.5 299,-49.5"/>
<text text-anchor="start" x="307" y="-67.5" font-family="Helvetica,sans-Serif" font-size="10.00">tracktion::engine::</text>
<text text-anchor="middle" x="353" y="-56.5" font-family="Helvetica,sans-Serif" font-size="10.00">NovationRemoteSl</text>
</a>
</g>
</g>
<!-- Node1&#45;&gt;Node9 -->
<g id="edge8" class="edge">
<title>Node1&#45;&gt;Node9</title>
<path fill="none" stroke="midnightblue" d="M216.1,-140.21C232.82,-124.01 257.24,-102.55 282,-88.5 287.92,-85.14 294.39,-82.14 300.93,-79.5"/>
<polygon fill="midnightblue" stroke="midnightblue" points="213.64,-137.72 208.99,-147.24 218.56,-142.7 213.64,-137.72"/>
</g>
<!-- Node11 -->
<g id="node11" class="node">
<title>Node11</title>
<g id="a_node11"><a xlink:href="classtracktion_1_1engine_1_1TranzportControlSurface.html" target="_top" xlink:title=" ">
<polygon fill="none" stroke="black" points="286,-0.5 286,-30.5 420,-30.5 420,-0.5 286,-0.5"/>
<text text-anchor="start" x="294" y="-18.5" font-family="Helvetica,sans-Serif" font-size="10.00">tracktion::engine::</text>
<text text-anchor="middle" x="353" y="-7.5" font-family="Helvetica,sans-Serif" font-size="10.00">TranzportControlSurface</text>
</a>
</g>
</g>
<!-- Node1&#45;&gt;Node11 -->
<g id="edge10" class="edge">
<title>Node1&#45;&gt;Node11</title>
<path fill="none" stroke="midnightblue" d="M205.86,-138.31C220.01,-110.67 246.69,-65.87 282,-39.5 286.53,-36.12 291.57,-33.19 296.81,-30.66"/>
<polygon fill="midnightblue" stroke="midnightblue" points="202.7,-136.8 201.39,-147.31 208.97,-139.92 202.7,-136.8"/>
</g>
<!-- Node2 -->
<g id="node2" class="node">
<title>Node2</title>
<g id="a_node2"><a xlink:href="classtracktion_1_1engine_1_1Selectable.html" target="_top" xlink:title="Base class for things that can be selected, and whose properties can appear in the properties panel.">
<polygon fill="none" stroke="black" points="0,-147.5 0,-177.5 105,-177.5 105,-147.5 0,-147.5"/>
<text text-anchor="start" x="8" y="-165.5" font-family="Helvetica,sans-Serif" font-size="10.00">tracktion::engine::</text>
<text text-anchor="middle" x="52.5" y="-154.5" font-family="Helvetica,sans-Serif" font-size="10.00">Selectable</text>
</a>
</g>
</g>
<!-- Node2&#45;&gt;Node1 -->
<g id="edge1" class="edge">
<title>Node2&#45;&gt;Node1</title>
<path fill="none" stroke="midnightblue" d="M115.44,-162.5C123.88,-162.5 132.47,-162.5 140.7,-162.5"/>
<polygon fill="midnightblue" stroke="midnightblue" points="115.26,-159 105.26,-162.5 115.26,-166 115.26,-159"/>
</g>
<!-- Node7 -->
<g id="node7" class="node">
<title>Node7</title>
<g id="a_node7"><a xlink:href="classtracktion_1_1engine_1_1IconProG2.html" target="_top" xlink:title=" ">
<polygon fill="none" stroke="black" points="462.5,-147.5 462.5,-177.5 567.5,-177.5 567.5,-147.5 462.5,-147.5"/>
<text text-anchor="start" x="470.5" y="-165.5" font-family="Helvetica,sans-Serif" font-size="10.00">tracktion::engine::</text>
<text text-anchor="middle" x="515" y="-154.5" font-family="Helvetica,sans-Serif" font-size="10.00">IconProG2</text>
</a>
</g>
</g>
<!-- Node6&#45;&gt;Node7 -->
<g id="edge6" class="edge">
<title>Node6&#45;&gt;Node7</title>
<path fill="none" stroke="midnightblue" d="M415.94,-162.5C431.27,-162.5 447.53,-162.5 462.32,-162.5"/>
<polygon fill="midnightblue" stroke="midnightblue" points="415.51,-159 405.51,-162.5 415.51,-166 415.51,-159"/>
</g>
<!-- Node10 -->
<g id="node10" class="node">
<title>Node10</title>
<g id="a_node10"><a xlink:href="classtracktion_1_1engine_1_1RemoteSLCompact.html" target="_top" xlink:title=" ">
<polygon fill="none" stroke="black" points="460,-49.5 460,-79.5 570,-79.5 570,-49.5 460,-49.5"/>
<text text-anchor="start" x="468" y="-67.5" font-family="Helvetica,sans-Serif" font-size="10.00">tracktion::engine::</text>
<text text-anchor="middle" x="515" y="-56.5" font-family="Helvetica,sans-Serif" font-size="10.00">RemoteSLCompact</text>
</a>
</g>
</g>
<!-- Node9&#45;&gt;Node10 -->
<g id="edge9" class="edge">
<title>Node9&#45;&gt;Node10</title>
<path fill="none" stroke="midnightblue" d="M417.36,-64.5C431.43,-64.5 446.21,-64.5 459.86,-64.5"/>
<polygon fill="midnightblue" stroke="midnightblue" points="417.28,-61 407.28,-64.5 417.28,-68 417.28,-61"/>
</g>
</g>
</svg>
