<?xml version="1.0" encoding="UTF-8" standalone="no"?>
<!DOCTYPE svg PUBLIC "-//W3C//DTD SVG 1.1//EN"
 "http://www.w3.org/Graphics/SVG/1.1/DTD/svg11.dtd">
<!-- Generated by graphviz version 2.43.0 (0)
 -->
<!-- Title: tracktion::graph::Node Pages: 1 -->
<svg width="523pt" height="2054pt"
 viewBox="0.00 0.00 523.00 2053.50" xmlns="http://www.w3.org/2000/svg" xmlns:xlink="http://www.w3.org/1999/xlink">
<g id="graph0" class="graph" transform="scale(1 1) rotate(0) translate(4 2049.5)">
<title>tracktion::graph::Node</title>
<!-- Node1 -->
<g id="node1" class="node">
<title>Node1</title>
<g id="a_node1"><a xlink:title="Main graph Node processor class.">
<polygon fill="#bfbfbf" stroke="black" points="0,-942.5 0,-961.5 125,-961.5 125,-942.5 0,-942.5"/>
<text text-anchor="middle" x="62.5" y="-949.5" font-family="Helvetica,sans-Serif" font-size="10.00">tracktion::graph::Node</text>
</a>
</g>
</g>
<!-- Node2 -->
<g id="node2" class="node">
<title>Node2</title>
<g id="a_node2"><a xlink:href="classtracktion_1_1engine_1_1ClickNode.html" target="_top" xlink:title="Adds audio and MIDI clicks to the input buffers.">
<polygon fill="none" stroke="black" points="215,-2015 215,-2045 320,-2045 320,-2015 215,-2015"/>
<text text-anchor="start" x="223" y="-2033" font-family="Helvetica,sans-Serif" font-size="10.00">tracktion::engine::</text>
<text text-anchor="middle" x="267.5" y="-2022" font-family="Helvetica,sans-Serif" font-size="10.00">ClickNode</text>
</a>
</g>
</g>
<!-- Node1&#45;&gt;Node2 -->
<g id="edge1" class="edge">
<title>Node1&#45;&gt;Node2</title>
<path fill="none" stroke="midnightblue" d="M63.96,-971.91C67.32,-1110.26 90.09,-1925.09 161,-2006 174.37,-2021.26 195.24,-2027.91 214.9,-2030.51"/>
<polygon fill="midnightblue" stroke="midnightblue" points="67.45,-971.49 63.71,-961.57 60.45,-971.65 67.45,-971.49"/>
</g>
<!-- Node3 -->
<g id="node3" class="node">
<title>Node3</title>
<g id="a_node3"><a xlink:href="classtracktion_1_1engine_1_1CombiningNode.html" target="_top" xlink:title="An Node that mixes a sequence of clips of other nodes.">
<polygon fill="none" stroke="black" points="215,-1966 215,-1996 320,-1996 320,-1966 215,-1966"/>
<text text-anchor="start" x="223" y="-1984" font-family="Helvetica,sans-Serif" font-size="10.00">tracktion::engine::</text>
<text text-anchor="middle" x="267.5" y="-1973" font-family="Helvetica,sans-Serif" font-size="10.00">CombiningNode</text>
</a>
</g>
</g>
<!-- Node1&#45;&gt;Node3 -->
<g id="edge2" class="edge">
<title>Node1&#45;&gt;Node3</title>
<path fill="none" stroke="midnightblue" d="M64.05,-971.82C67.96,-1106.14 93.32,-1880.13 161,-1957 174.41,-1972.23 195.28,-1978.88 214.93,-1981.48"/>
<polygon fill="midnightblue" stroke="midnightblue" points="67.55,-971.63 63.76,-961.74 60.55,-971.83 67.55,-971.63"/>
</g>
<!-- Node4 -->
<g id="node4" class="node">
<title>Node4</title>
<g id="a_node4"><a xlink:href="classtracktion_1_1engine_1_1HostedMidiInputDeviceNode.html" target="_top" xlink:title="A Node that intercepts MIDI from a plugin callback and inserts it in to the playback graph.">
<polygon fill="none" stroke="black" points="189.5,-1917 189.5,-1947 345.5,-1947 345.5,-1917 189.5,-1917"/>
<text text-anchor="start" x="197.5" y="-1935" font-family="Helvetica,sans-Serif" font-size="10.00">tracktion::engine::</text>
<text text-anchor="middle" x="267.5" y="-1924" font-family="Helvetica,sans-Serif" font-size="10.00">HostedMidiInputDeviceNode</text>
</a>
</g>
</g>
<!-- Node1&#45;&gt;Node4 -->
<g id="edge3" class="edge">
<title>Node1&#45;&gt;Node4</title>
<path fill="none" stroke="midnightblue" d="M64.15,-971.65C68.61,-1101.66 96.54,-1835.15 161,-1908 168.59,-1916.58 178.56,-1922.44 189.33,-1926.38"/>
<polygon fill="midnightblue" stroke="midnightblue" points="67.64,-971.43 63.81,-961.56 60.65,-971.67 67.64,-971.43"/>
</g>
<!-- Node5 -->
<g id="node5" class="node">
<title>Node5</title>
<g id="a_node5"><a xlink:href="classtracktion_1_1engine_1_1InsertReturnNode.html" target="_top" xlink:title="The return node hooks into the input device and fills the insert&#39;s return buffer with data from the i...">
<polygon fill="none" stroke="black" points="215,-1868 215,-1898 320,-1898 320,-1868 215,-1868"/>
<text text-anchor="start" x="223" y="-1886" font-family="Helvetica,sans-Serif" font-size="10.00">tracktion::engine::</text>
<text text-anchor="middle" x="267.5" y="-1875" font-family="Helvetica,sans-Serif" font-size="10.00">InsertReturnNode</text>
</a>
</g>
</g>
<!-- Node1&#45;&gt;Node5 -->
<g id="edge4" class="edge">
<title>Node1&#45;&gt;Node5</title>
<path fill="none" stroke="midnightblue" d="M64.27,-971.8C69.35,-1098.3 99.81,-1790.23 161,-1859 174.42,-1874.09 195.18,-1880.73 214.74,-1883.37"/>
<polygon fill="midnightblue" stroke="midnightblue" points="67.76,-971.5 63.87,-961.64 60.76,-971.77 67.76,-971.5"/>
</g>
<!-- Node6 -->
<g id="node6" class="node">
<title>Node6</title>
<g id="a_node6"><a xlink:href="classtracktion_1_1engine_1_1InsertSendNode.html" target="_top" xlink:title="The send node picks up audio/MIDI data from the InsertPlugin and then its output will be sent to the ...">
<polygon fill="none" stroke="black" points="215,-1819 215,-1849 320,-1849 320,-1819 215,-1819"/>
<text text-anchor="start" x="223" y="-1837" font-family="Helvetica,sans-Serif" font-size="10.00">tracktion::engine::</text>
<text text-anchor="middle" x="267.5" y="-1826" font-family="Helvetica,sans-Serif" font-size="10.00">InsertSendNode</text>
</a>
</g>
</g>
<!-- Node1&#45;&gt;Node6 -->
<g id="edge5" class="edge">
<title>Node1&#45;&gt;Node6</title>
<path fill="none" stroke="midnightblue" d="M64.4,-971.86C70.11,-1094.46 103.06,-1745.28 161,-1810 174.47,-1825.05 195.23,-1831.69 214.78,-1834.33"/>
<polygon fill="midnightblue" stroke="midnightblue" points="67.89,-971.51 63.93,-961.68 60.89,-971.83 67.89,-971.51"/>
</g>
<!-- Node7 -->
<g id="node7" class="node">
<title>Node7</title>
<g id="a_node7"><a xlink:href="classtracktion_1_1engine_1_1InsertSendReturnDependencyNode.html" target="_top" xlink:title="This is a bit confusing but is required to ensure the following set of dependencies in the graph: Ins...">
<polygon fill="none" stroke="black" points="174,-1770 174,-1800 361,-1800 361,-1770 174,-1770"/>
<text text-anchor="start" x="182" y="-1788" font-family="Helvetica,sans-Serif" font-size="10.00">tracktion::engine::</text>
<text text-anchor="middle" x="267.5" y="-1777" font-family="Helvetica,sans-Serif" font-size="10.00">InsertSendReturnDependencyNode</text>
</a>
</g>
</g>
<!-- Node1&#45;&gt;Node7 -->
<g id="edge6" class="edge">
<title>Node1&#45;&gt;Node7</title>
<path fill="none" stroke="midnightblue" d="M64.54,-971.82C70.91,-1090.14 106.29,-1700.3 161,-1761 164.77,-1765.19 169.11,-1768.72 173.83,-1771.7"/>
<polygon fill="midnightblue" stroke="midnightblue" points="68.02,-971.47 64,-961.67 61.03,-971.84 68.02,-971.47"/>
</g>
<!-- Node8 -->
<g id="node8" class="node">
<title>Node8</title>
<g id="a_node8"><a xlink:href="classtracktion_1_1engine_1_1LevelMeasurerProcessingNode.html" target="_top" xlink:title="A Node that introduces latency to balance the latency at the root Node and its position in the graph.">
<polygon fill="none" stroke="black" points="184,-1721 184,-1751 351,-1751 351,-1721 184,-1721"/>
<text text-anchor="start" x="192" y="-1739" font-family="Helvetica,sans-Serif" font-size="10.00">tracktion::engine::</text>
<text text-anchor="middle" x="267.5" y="-1728" font-family="Helvetica,sans-Serif" font-size="10.00">LevelMeasurerProcessingNode</text>
</a>
</g>
</g>
<!-- Node1&#45;&gt;Node8 -->
<g id="edge7" class="edge">
<title>Node1&#45;&gt;Node8</title>
<path fill="none" stroke="midnightblue" d="M63.11,-971.6C61.38,-1079.39 58.53,-1599.18 161,-1712 167.31,-1718.95 175.19,-1724.1 183.77,-1727.89"/>
<polygon fill="midnightblue" stroke="midnightblue" points="66.61,-971.56 63.29,-961.5 59.61,-971.44 66.61,-971.56"/>
</g>
<!-- Node9 -->
<g id="node9" class="node">
<title>Node9</title>
<g id="a_node9"><a xlink:href="classtracktion_1_1engine_1_1LevelMeasuringNode.html" target="_top" xlink:title="A Node that passes its incomming audio and MIDI through a LevelMeasurer.">
<polygon fill="none" stroke="black" points="208,-1672 208,-1702 327,-1702 327,-1672 208,-1672"/>
<text text-anchor="start" x="216" y="-1690" font-family="Helvetica,sans-Serif" font-size="10.00">tracktion::engine::</text>
<text text-anchor="middle" x="267.5" y="-1679" font-family="Helvetica,sans-Serif" font-size="10.00">LevelMeasuringNode</text>
</a>
</g>
</g>
<!-- Node1&#45;&gt;Node9 -->
<g id="edge8" class="edge">
<title>Node1&#45;&gt;Node9</title>
<path fill="none" stroke="midnightblue" d="M63.3,-971.96C62.67,-1076.31 65.07,-1558.29 161,-1663 172.99,-1676.09 190.51,-1682.78 207.83,-1686.02"/>
<polygon fill="midnightblue" stroke="midnightblue" points="66.8,-971.88 63.38,-961.86 59.8,-971.83 66.8,-971.88"/>
</g>
<!-- Node10 -->
<g id="node10" class="node">
<title>Node10</title>
<g id="a_node10"><a xlink:href="classtracktion_1_1engine_1_1LiveMidiInjectingNode.html" target="_top" xlink:title="A Node that injects MIDI message in to the stream, for keyboard key entry, note previews and MIDI ste...">
<polygon fill="none" stroke="black" points="205,-1623 205,-1653 330,-1653 330,-1623 205,-1623"/>
<text text-anchor="start" x="213" y="-1641" font-family="Helvetica,sans-Serif" font-size="10.00">tracktion::engine::</text>
<text text-anchor="middle" x="267.5" y="-1630" font-family="Helvetica,sans-Serif" font-size="10.00">LiveMidiInjectingNode</text>
</a>
</g>
</g>
<!-- Node1&#45;&gt;Node10 -->
<g id="edge9" class="edge">
<title>Node1&#45;&gt;Node10</title>
<path fill="none" stroke="midnightblue" d="M63.52,-971.82C64.05,-1071.52 71.44,-1517.22 161,-1614 172.35,-1626.27 188.57,-1632.91 204.88,-1636.35"/>
<polygon fill="midnightblue" stroke="midnightblue" points="67.02,-971.64 63.49,-961.65 60.02,-971.66 67.02,-971.64"/>
</g>
<!-- Node11 -->
<g id="node11" class="node">
<title>Node11</title>
<g id="a_node11"><a xlink:href="classtracktion_1_1engine_1_1LiveMidiOutputNode.html" target="_top" xlink:title="A Node that calls the listeners of an AudioTrack with any incomming MIDI.">
<polygon fill="none" stroke="black" points="209.5,-1574 209.5,-1604 325.5,-1604 325.5,-1574 209.5,-1574"/>
<text text-anchor="start" x="217.5" y="-1592" font-family="Helvetica,sans-Serif" font-size="10.00">tracktion::engine::</text>
<text text-anchor="middle" x="267.5" y="-1581" font-family="Helvetica,sans-Serif" font-size="10.00">LiveMidiOutputNode</text>
</a>
</g>
</g>
<!-- Node1&#45;&gt;Node11 -->
<g id="edge10" class="edge">
<title>Node1&#45;&gt;Node11</title>
<path fill="none" stroke="midnightblue" d="M63.78,-971.85C65.53,-1067.07 77.85,-1476.17 161,-1565 173.45,-1578.3 191.61,-1584.97 209.37,-1588.12"/>
<polygon fill="midnightblue" stroke="midnightblue" points="67.28,-971.77 63.61,-961.83 60.28,-971.89 67.28,-971.77"/>
</g>
<!-- Node12 -->
<g id="node12" class="node">
<title>Node12</title>
<g id="a_node12"><a xlink:href="classtracktion_1_1engine_1_1LoopingMidiNode.html" target="_top" xlink:title="A Node that plays MIDI data from a MidiMessageSequence, at a specific MIDI channel.">
<polygon fill="none" stroke="black" points="215,-1525 215,-1555 320,-1555 320,-1525 215,-1525"/>
<text text-anchor="start" x="223" y="-1543" font-family="Helvetica,sans-Serif" font-size="10.00">tracktion::engine::</text>
<text text-anchor="middle" x="267.5" y="-1532" font-family="Helvetica,sans-Serif" font-size="10.00">LoopingMidiNode</text>
</a>
</g>
</g>
<!-- Node1&#45;&gt;Node12 -->
<g id="edge11" class="edge">
<title>Node1&#45;&gt;Node12</title>
<path fill="none" stroke="midnightblue" d="M64.08,-971.96C67.14,-1062.67 84.26,-1435.12 161,-1516 174.83,-1530.58 195.53,-1537.16 214.94,-1539.89"/>
<polygon fill="midnightblue" stroke="midnightblue" points="67.58,-971.8 63.76,-961.91 60.58,-972.02 67.58,-971.8"/>
</g>
<!-- Node13 -->
<g id="node13" class="node">
<title>Node13</title>
<g id="a_node13"><a xlink:href="classtracktion_1_1engine_1_1MelodyneNode.html" target="_top" xlink:title="Plays back a Melodyne plugin.">
<polygon fill="none" stroke="black" points="215,-1476 215,-1506 320,-1506 320,-1476 215,-1476"/>
<text text-anchor="start" x="223" y="-1494" font-family="Helvetica,sans-Serif" font-size="10.00">tracktion::engine::</text>
<text text-anchor="middle" x="267.5" y="-1483" font-family="Helvetica,sans-Serif" font-size="10.00">MelodyneNode</text>
</a>
</g>
</g>
<!-- Node1&#45;&gt;Node13 -->
<g id="edge12" class="edge">
<title>Node1&#45;&gt;Node13</title>
<path fill="none" stroke="midnightblue" d="M64.45,-972.1C68.91,-1058.11 90.65,-1394.03 161,-1467 174.88,-1481.4 195.48,-1487.97 214.79,-1490.74"/>
<polygon fill="midnightblue" stroke="midnightblue" points="67.93,-971.69 63.94,-961.88 60.94,-972.04 67.93,-971.69"/>
</g>
<!-- Node14 -->
<g id="node14" class="node">
<title>Node14</title>
<g id="a_node14"><a xlink:href="classtracktion_1_1engine_1_1MidiCombiningNode.html" target="_top" xlink:title="A Node that mixes a sequence of clips of other nodes.">
<polygon fill="none" stroke="black" points="209.5,-1427 209.5,-1457 325.5,-1457 325.5,-1427 209.5,-1427"/>
<text text-anchor="start" x="217.5" y="-1445" font-family="Helvetica,sans-Serif" font-size="10.00">tracktion::engine::</text>
<text text-anchor="middle" x="267.5" y="-1434" font-family="Helvetica,sans-Serif" font-size="10.00">MidiCombiningNode</text>
</a>
</g>
</g>
<!-- Node1&#45;&gt;Node14 -->
<g id="edge13" class="edge">
<title>Node1&#45;&gt;Node14</title>
<path fill="none" stroke="midnightblue" d="M64.87,-971.96C70.8,-1052.56 96.95,-1352.82 161,-1418 173.71,-1430.93 191.82,-1437.52 209.47,-1440.72"/>
<polygon fill="midnightblue" stroke="midnightblue" points="68.34,-971.44 64.14,-961.72 61.36,-971.94 68.34,-971.44"/>
</g>
<!-- Node15 -->
<g id="node15" class="node">
<title>Node15</title>
<g id="a_node15"><a xlink:href="classtracktion_1_1engine_1_1MidiInputDeviceNode.html" target="_top" xlink:title="A Node that intercepts incoming live MIDI and inserts it in to the playback graph.">
<polygon fill="none" stroke="black" points="206.5,-1378 206.5,-1408 328.5,-1408 328.5,-1378 206.5,-1378"/>
<text text-anchor="start" x="214.5" y="-1396" font-family="Helvetica,sans-Serif" font-size="10.00">tracktion::engine::</text>
<text text-anchor="middle" x="267.5" y="-1385" font-family="Helvetica,sans-Serif" font-size="10.00">MidiInputDeviceNode</text>
</a>
</g>
</g>
<!-- Node1&#45;&gt;Node15 -->
<g id="edge14" class="edge">
<title>Node1&#45;&gt;Node15</title>
<path fill="none" stroke="midnightblue" d="M65.38,-971.77C72.89,-1046.65 103.2,-1311.54 161,-1369 173.06,-1380.98 189.77,-1387.49 206.35,-1390.9"/>
<polygon fill="midnightblue" stroke="midnightblue" points="68.86,-971.4 64.4,-961.79 61.89,-972.08 68.86,-971.4"/>
</g>
<!-- Node16 -->
<g id="node16" class="node">
<title>Node16</title>
<g id="a_node16"><a xlink:href="classtracktion_1_1engine_1_1MidiNode.html" target="_top" xlink:title="A Node that plays MIDI data from a MidiMessageSequence, at a specific MIDI channel.">
<polygon fill="none" stroke="black" points="215,-1329 215,-1359 320,-1359 320,-1329 215,-1329"/>
<text text-anchor="start" x="223" y="-1347" font-family="Helvetica,sans-Serif" font-size="10.00">tracktion::engine::</text>
<text text-anchor="middle" x="267.5" y="-1336" font-family="Helvetica,sans-Serif" font-size="10.00">MidiNode</text>
</a>
</g>
</g>
<!-- Node1&#45;&gt;Node16 -->
<g id="edge15" class="edge">
<title>Node1&#45;&gt;Node16</title>
<path fill="none" stroke="midnightblue" d="M66.02,-971.62C75.25,-1040.57 109.42,-1270.21 161,-1320 175.26,-1333.76 195.68,-1340.26 214.77,-1343.14"/>
<polygon fill="midnightblue" stroke="midnightblue" points="69.48,-971.12 64.71,-961.66 62.54,-972.03 69.48,-971.12"/>
</g>
<!-- Node17 -->
<g id="node17" class="node">
<title>Node17</title>
<g id="a_node17"><a xlink:href="classtracktion_1_1engine_1_1MidiOutputDeviceInstanceInjectingNode.html" target="_top" xlink:title="A Node that injects the MIDI buffer of its input to the MidiOutputDevice.">
<polygon fill="none" stroke="black" points="161,-1280 161,-1310 374,-1310 374,-1280 161,-1280"/>
<text text-anchor="start" x="169" y="-1298" font-family="Helvetica,sans-Serif" font-size="10.00">tracktion::engine::</text>
<text text-anchor="middle" x="267.5" y="-1287" font-family="Helvetica,sans-Serif" font-size="10.00">MidiOutputDeviceInstanceInjectingNode</text>
</a>
</g>
</g>
<!-- Node1&#45;&gt;Node17 -->
<g id="edge16" class="edge">
<title>Node1&#45;&gt;Node17</title>
<path fill="none" stroke="midnightblue" d="M63.19,-971.88C63.45,-1027.93 72.3,-1188.54 161,-1271 164.58,-1274.33 168.52,-1277.22 172.71,-1279.74"/>
<polygon fill="midnightblue" stroke="midnightblue" points="66.69,-971.58 63.24,-961.57 59.69,-971.55 66.69,-971.58"/>
</g>
<!-- Node18 -->
<g id="node18" class="node">
<title>Node18</title>
<g id="a_node18"><a xlink:href="classtracktion_1_1engine_1_1ModifierNode.html" target="_top" xlink:title="Node for processing a Modifier.">
<polygon fill="none" stroke="black" points="215,-1231 215,-1261 320,-1261 320,-1231 215,-1231"/>
<text text-anchor="start" x="223" y="-1249" font-family="Helvetica,sans-Serif" font-size="10.00">tracktion::engine::</text>
<text text-anchor="middle" x="267.5" y="-1238" font-family="Helvetica,sans-Serif" font-size="10.00">ModifierNode</text>
</a>
</g>
</g>
<!-- Node1&#45;&gt;Node18 -->
<g id="edge17" class="edge">
<title>Node1&#45;&gt;Node18</title>
<path fill="none" stroke="midnightblue" d="M64.45,-971.8C67.98,-1021.86 84.45,-1154.32 161,-1222 175.71,-1235 195.99,-1241.39 214.84,-1244.39"/>
<polygon fill="midnightblue" stroke="midnightblue" points="67.94,-971.44 63.84,-961.67 60.95,-971.86 67.94,-971.44"/>
</g>
<!-- Node19 -->
<g id="node19" class="node">
<title>Node19</title>
<g id="a_node19"><a xlink:href="classtracktion_1_1engine_1_1PlayHeadPositionNode.html" target="_top" xlink:title="A Node that calculates a position to show visually what time is currently being processed by the grap...">
<polygon fill="none" stroke="black" points="203.5,-1182 203.5,-1212 331.5,-1212 331.5,-1182 203.5,-1182"/>
<text text-anchor="start" x="211.5" y="-1200" font-family="Helvetica,sans-Serif" font-size="10.00">tracktion::engine::</text>
<text text-anchor="middle" x="267.5" y="-1189" font-family="Helvetica,sans-Serif" font-size="10.00">PlayHeadPositionNode</text>
</a>
</g>
</g>
<!-- Node1&#45;&gt;Node19 -->
<g id="edge18" class="edge">
<title>Node1&#45;&gt;Node19</title>
<path fill="none" stroke="midnightblue" d="M66.21,-971.69C73.27,-1015.16 96.41,-1119.75 161,-1173 172.96,-1182.86 188.16,-1188.85 203.28,-1192.46"/>
<polygon fill="midnightblue" stroke="midnightblue" points="69.67,-971.16 64.71,-961.79 62.74,-972.2 69.67,-971.16"/>
</g>
<!-- Node20 -->
<g id="node20" class="node">
<title>Node20</title>
<g id="a_node20"><a xlink:href="classtracktion_1_1engine_1_1PluginNode.html" target="_top" xlink:title="Node for processing a plugin.">
<polygon fill="none" stroke="black" points="215,-1133 215,-1163 320,-1163 320,-1133 215,-1133"/>
<text text-anchor="start" x="223" y="-1151" font-family="Helvetica,sans-Serif" font-size="10.00">tracktion::engine::</text>
<text text-anchor="middle" x="267.5" y="-1140" font-family="Helvetica,sans-Serif" font-size="10.00">PluginNode</text>
</a>
</g>
</g>
<!-- Node1&#45;&gt;Node20 -->
<g id="edge19" class="edge">
<title>Node1&#45;&gt;Node20</title>
<path fill="none" stroke="midnightblue" d="M68.8,-971.43C79.68,-1007.49 108.08,-1084.65 161,-1124 176.45,-1135.49 196.44,-1141.62 214.86,-1144.85"/>
<polygon fill="midnightblue" stroke="midnightblue" points="72.11,-970.29 65.98,-961.65 65.38,-972.23 72.11,-970.29"/>
</g>
<!-- Node21 -->
<g id="node21" class="node">
<title>Node21</title>
<g id="a_node21"><a xlink:href="classtracktion_1_1engine_1_1RackInstanceNode.html" target="_top" xlink:title="Sends an input Node to a Rack bus handling the channel mapping and channel gain levels.">
<polygon fill="none" stroke="black" points="214,-1084 214,-1114 321,-1114 321,-1084 214,-1084"/>
<text text-anchor="start" x="222" y="-1102" font-family="Helvetica,sans-Serif" font-size="10.00">tracktion::engine::</text>
<text text-anchor="middle" x="267.5" y="-1091" font-family="Helvetica,sans-Serif" font-size="10.00">RackInstanceNode</text>
</a>
</g>
</g>
<!-- Node1&#45;&gt;Node21 -->
<g id="edge20" class="edge">
<title>Node1&#45;&gt;Node21</title>
<path fill="none" stroke="midnightblue" d="M73.01,-970.81C87.88,-998.22 119.31,-1048.74 161,-1075 176.73,-1084.91 196.08,-1090.75 213.88,-1094.17"/>
<polygon fill="midnightblue" stroke="midnightblue" points="76.04,-969.06 68.29,-961.84 69.85,-972.32 76.04,-969.06"/>
</g>
<!-- Node22 -->
<g id="node22" class="node">
<title>Node22</title>
<g id="a_node22"><a xlink:href="classtracktion_1_1engine_1_1RackReturnNode.html" target="_top" xlink:title="Sends an input Node to a Rack bus handling the channel mapping and channel gain levels.">
<polygon fill="none" stroke="black" points="215,-1035 215,-1065 320,-1065 320,-1035 215,-1035"/>
<text text-anchor="start" x="223" y="-1053" font-family="Helvetica,sans-Serif" font-size="10.00">tracktion::engine::</text>
<text text-anchor="middle" x="267.5" y="-1042" font-family="Helvetica,sans-Serif" font-size="10.00">RackReturnNode</text>
</a>
</g>
</g>
<!-- Node1&#45;&gt;Node22 -->
<g id="edge21" class="edge">
<title>Node1&#45;&gt;Node22</title>
<path fill="none" stroke="midnightblue" d="M80.61,-968.67C98.98,-985.63 129.77,-1011.43 161,-1026 177.77,-1033.82 197.25,-1039.18 214.88,-1042.81"/>
<polygon fill="midnightblue" stroke="midnightblue" points="82.76,-965.88 73.08,-961.57 77.96,-970.98 82.76,-965.88"/>
</g>
<!-- Node23 -->
<g id="node23" class="node">
<title>Node23</title>
<g id="a_node23"><a xlink:href="classtracktion_1_1engine_1_1SharedLevelMeasuringNode.html" target="_top" xlink:title="Applies a SharedLevelMeter to the audio passing through this node.">
<polygon fill="none" stroke="black" points="191,-986 191,-1016 344,-1016 344,-986 191,-986"/>
<text text-anchor="start" x="199" y="-1004" font-family="Helvetica,sans-Serif" font-size="10.00">tracktion::engine::</text>
<text text-anchor="middle" x="267.5" y="-993" font-family="Helvetica,sans-Serif" font-size="10.00">SharedLevelMeasuringNode</text>
</a>
</g>
</g>
<!-- Node1&#45;&gt;Node23 -->
<g id="edge22" class="edge">
<title>Node1&#45;&gt;Node23</title>
<path fill="none" stroke="midnightblue" d="M109.78,-964.14C125.96,-968.31 144.26,-972.95 161,-977 173.32,-979.98 186.48,-983.06 199.18,-985.97"/>
<polygon fill="midnightblue" stroke="midnightblue" points="110.58,-960.73 100.02,-961.62 108.82,-967.51 110.58,-960.73"/>
</g>
<!-- Node24 -->
<g id="node24" class="node">
<title>Node24</title>
<g id="a_node24"><a xlink:href="classtracktion_1_1engine_1_1SpeedRampWaveNode.html" target="_top" xlink:title="An Node that plays back a wave file.">
<polygon fill="none" stroke="black" points="203.5,-937 203.5,-967 331.5,-967 331.5,-937 203.5,-937"/>
<text text-anchor="start" x="211.5" y="-955" font-family="Helvetica,sans-Serif" font-size="10.00">tracktion::engine::</text>
<text text-anchor="middle" x="267.5" y="-944" font-family="Helvetica,sans-Serif" font-size="10.00">SpeedRampWaveNode</text>
</a>
</g>
</g>
<!-- Node1&#45;&gt;Node24 -->
<g id="edge23" class="edge">
<title>Node1&#45;&gt;Node24</title>
<path fill="none" stroke="midnightblue" d="M135.27,-952C157.46,-952 181.74,-952 203.31,-952"/>
<polygon fill="midnightblue" stroke="midnightblue" points="135.23,-948.5 125.23,-952 135.23,-955.5 135.23,-948.5"/>
</g>
<!-- Node25 -->
<g id="node25" class="node">
<title>Node25</title>
<g id="a_node25"><a xlink:href="classtracktion_1_1engine_1_1TimedMutingNode.html" target="_top" xlink:title="A Node that mutes its input at specific time ranges.">
<polygon fill="none" stroke="black" points="214,-888 214,-918 321,-918 321,-888 214,-888"/>
<text text-anchor="start" x="222" y="-906" font-family="Helvetica,sans-Serif" font-size="10.00">tracktion::engine::</text>
<text text-anchor="middle" x="267.5" y="-895" font-family="Helvetica,sans-Serif" font-size="10.00">TimedMutingNode</text>
</a>
</g>
</g>
<!-- Node1&#45;&gt;Node25 -->
<g id="edge24" class="edge">
<title>Node1&#45;&gt;Node25</title>
<path fill="none" stroke="midnightblue" d="M111.91,-939.99C127.57,-936.14 145.01,-931.86 161,-928 178.2,-923.85 196.99,-919.37 213.89,-915.37"/>
<polygon fill="midnightblue" stroke="midnightblue" points="110.79,-936.67 101.92,-942.46 112.46,-943.46 110.79,-936.67"/>
</g>
<!-- Node26 -->
<g id="node26" class="node">
<title>Node26</title>
<g id="a_node26"><a xlink:href="classtracktion_1_1engine_1_1TimeStretchingWaveNode.html" target="_top" xlink:title="Node that reads from a file node and timestretches its output.">
<polygon fill="none" stroke="black" points="196,-839 196,-869 339,-869 339,-839 196,-839"/>
<text text-anchor="start" x="204" y="-857" font-family="Helvetica,sans-Serif" font-size="10.00">tracktion::engine::</text>
<text text-anchor="middle" x="267.5" y="-846" font-family="Helvetica,sans-Serif" font-size="10.00">TimeStretchingWaveNode</text>
</a>
</g>
</g>
<!-- Node1&#45;&gt;Node26 -->
<g id="edge25" class="edge">
<title>Node1&#45;&gt;Node26</title>
<path fill="none" stroke="midnightblue" d="M80.97,-935.36C99.44,-918.68 130.11,-893.46 161,-879 171.91,-873.89 183.96,-869.78 195.9,-866.48"/>
<polygon fill="midnightblue" stroke="midnightblue" points="78.37,-933 73.39,-942.35 83.12,-938.14 78.37,-933"/>
</g>
<!-- Node27 -->
<g id="node27" class="node">
<title>Node27</title>
<g id="a_node27"><a xlink:href="classtracktion_1_1engine_1_1TrackMidiInputDeviceNode.html" target="_top" xlink:title="A Node that takes MIDI from the output of a track and sends it to its corresponding InputDevice.">
<polygon fill="none" stroke="black" points="194,-790 194,-820 341,-820 341,-790 194,-790"/>
<text text-anchor="start" x="202" y="-808" font-family="Helvetica,sans-Serif" font-size="10.00">tracktion::engine::</text>
<text text-anchor="middle" x="267.5" y="-797" font-family="Helvetica,sans-Serif" font-size="10.00">TrackMidiInputDeviceNode</text>
</a>
</g>
</g>
<!-- Node1&#45;&gt;Node27 -->
<g id="edge26" class="edge">
<title>Node1&#45;&gt;Node27</title>
<path fill="none" stroke="midnightblue" d="M73.08,-933.39C88.04,-906.26 119.59,-856.23 161,-830 170.94,-823.7 182.31,-818.99 193.83,-815.47"/>
<polygon fill="midnightblue" stroke="midnightblue" points="69.96,-931.8 68.33,-942.26 76.13,-935.1 69.96,-931.8"/>
</g>
<!-- Node28 -->
<g id="node28" class="node">
<title>Node28</title>
<g id="a_node28"><a xlink:href="classtracktion_1_1engine_1_1TrackMutingNode.html" target="_top" xlink:title="A Node that handles muting/soloing of its input node, according to the audibility of a track.">
<polygon fill="none" stroke="black" points="215,-741 215,-771 320,-771 320,-741 215,-741"/>
<text text-anchor="start" x="223" y="-759" font-family="Helvetica,sans-Serif" font-size="10.00">tracktion::engine::</text>
<text text-anchor="middle" x="267.5" y="-748" font-family="Helvetica,sans-Serif" font-size="10.00">TrackMutingNode</text>
</a>
</g>
</g>
<!-- Node1&#45;&gt;Node28 -->
<g id="edge27" class="edge">
<title>Node1&#45;&gt;Node28</title>
<path fill="none" stroke="midnightblue" d="M68.86,-932.72C79.86,-896.95 108.44,-820.35 161,-781 176.45,-769.44 196.43,-763.13 214.85,-759.71"/>
<polygon fill="midnightblue" stroke="midnightblue" points="65.47,-931.85 66.01,-942.43 72.19,-933.82 65.47,-931.85"/>
</g>
<!-- Node29 -->
<g id="node29" class="node">
<title>Node29</title>
<g id="a_node29"><a xlink:href="classtracktion_1_1engine_1_1TrackWaveInputDeviceNode.html" target="_top" xlink:title="A Node that takes audio from the output of a track and sends it to its corresponding InputDevice.">
<polygon fill="none" stroke="black" points="191,-692 191,-722 344,-722 344,-692 191,-692"/>
<text text-anchor="start" x="199" y="-710" font-family="Helvetica,sans-Serif" font-size="10.00">tracktion::engine::</text>
<text text-anchor="middle" x="267.5" y="-699" font-family="Helvetica,sans-Serif" font-size="10.00">TrackWaveInputDeviceNode</text>
</a>
</g>
</g>
<!-- Node1&#45;&gt;Node29 -->
<g id="edge28" class="edge">
<title>Node1&#45;&gt;Node29</title>
<path fill="none" stroke="midnightblue" d="M66.32,-932.17C73.56,-888.8 96.98,-785.17 161,-732 169.69,-724.78 180.1,-719.58 190.95,-715.83"/>
<polygon fill="midnightblue" stroke="midnightblue" points="62.82,-931.85 64.74,-942.27 69.74,-932.93 62.82,-931.85"/>
</g>
<!-- Node30 -->
<g id="node30" class="node">
<title>Node30</title>
<g id="a_node30"><a xlink:href="classtracktion_1_1engine_1_1WaveInputDeviceNode.html" target="_top" xlink:title="A Node that intercepts incoming live audio and inserts it in to the playback graph.">
<polygon fill="none" stroke="black" points="203.5,-643 203.5,-673 331.5,-673 331.5,-643 203.5,-643"/>
<text text-anchor="start" x="211.5" y="-661" font-family="Helvetica,sans-Serif" font-size="10.00">tracktion::engine::</text>
<text text-anchor="middle" x="267.5" y="-650" font-family="Helvetica,sans-Serif" font-size="10.00">WaveInputDeviceNode</text>
</a>
</g>
</g>
<!-- Node1&#45;&gt;Node30 -->
<g id="edge29" class="edge">
<title>Node1&#45;&gt;Node30</title>
<path fill="none" stroke="midnightblue" d="M64.51,-932.31C68.18,-882.53 84.96,-750.76 161,-683 172.73,-672.54 188.04,-666.25 203.33,-662.51"/>
<polygon fill="midnightblue" stroke="midnightblue" points="61.01,-932.18 63.87,-942.39 68,-932.63 61.01,-932.18"/>
</g>
<!-- Node31 -->
<g id="node31" class="node">
<title>Node31</title>
<g id="a_node31"><a xlink:href="classtracktion_1_1engine_1_1WaveNode.html" target="_top" xlink:title="An Node that plays back a wave file.">
<polygon fill="none" stroke="black" points="215,-594 215,-624 320,-624 320,-594 215,-594"/>
<text text-anchor="start" x="223" y="-612" font-family="Helvetica,sans-Serif" font-size="10.00">tracktion::engine::</text>
<text text-anchor="middle" x="267.5" y="-601" font-family="Helvetica,sans-Serif" font-size="10.00">WaveNode</text>
</a>
</g>
</g>
<!-- Node1&#45;&gt;Node31 -->
<g id="edge30" class="edge">
<title>Node1&#45;&gt;Node31</title>
<path fill="none" stroke="midnightblue" d="M63.25,-932.22C63.67,-876.45 72.89,-716.58 161,-634 175.42,-620.48 195.76,-613.85 214.74,-610.73"/>
<polygon fill="midnightblue" stroke="midnightblue" points="59.75,-932.49 63.27,-942.48 66.75,-932.48 59.75,-932.49"/>
</g>
<!-- Node32 -->
<g id="node32" class="node">
<title>Node32</title>
<g id="a_node32"><a xlink:href="classtracktion_1_1engine_1_1WaveNodeRealTime.html" target="_top" xlink:title="An Node that plays back a wave file.">
<polygon fill="none" stroke="black" points="209.5,-545 209.5,-575 325.5,-575 325.5,-545 209.5,-545"/>
<text text-anchor="start" x="217.5" y="-563" font-family="Helvetica,sans-Serif" font-size="10.00">tracktion::engine::</text>
<text text-anchor="middle" x="267.5" y="-552" font-family="Helvetica,sans-Serif" font-size="10.00">WaveNodeRealTime</text>
</a>
</g>
</g>
<!-- Node1&#45;&gt;Node32 -->
<g id="edge31" class="edge">
<title>Node1&#45;&gt;Node32</title>
<path fill="none" stroke="midnightblue" d="M66.04,-932.44C75.35,-863.74 109.76,-634.87 161,-585 173.88,-572.46 191.83,-565.8 209.28,-562.37"/>
<polygon fill="midnightblue" stroke="midnightblue" points="62.57,-932 64.72,-942.37 69.51,-932.92 62.57,-932"/>
</g>
<!-- Node33 -->
<g id="node33" class="node">
<title>Node33</title>
<g id="a_node33"><a xlink:href="classtracktion_1_1graph_1_1BasicSummingNode.html" target="_top" xlink:title=" ">
<polygon fill="none" stroke="black" points="168.5,-506.5 168.5,-525.5 366.5,-525.5 366.5,-506.5 168.5,-506.5"/>
<text text-anchor="middle" x="267.5" y="-513.5" font-family="Helvetica,sans-Serif" font-size="10.00">tracktion::graph::BasicSummingNode</text>
</a>
</g>
</g>
<!-- Node1&#45;&gt;Node33 -->
<g id="edge32" class="edge">
<title>Node1&#45;&gt;Node33</title>
<path fill="none" stroke="midnightblue" d="M65.32,-932.22C72.63,-857.28 102.28,-592.25 161,-536 165.31,-531.87 170.19,-528.47 175.43,-525.66"/>
<polygon fill="midnightblue" stroke="midnightblue" points="61.83,-931.91 64.37,-942.2 68.8,-932.58 61.83,-931.91"/>
</g>
<!-- Node34 -->
<g id="node34" class="node">
<title>Node34</title>
<g id="a_node34"><a xlink:href="classtracktion_1_1graph_1_1ChannelRemappingNode.html" target="_top" xlink:title="Maps channels from one to another.">
<polygon fill="none" stroke="black" points="197.5,-457 197.5,-487 337.5,-487 337.5,-457 197.5,-457"/>
<text text-anchor="start" x="205.5" y="-475" font-family="Helvetica,sans-Serif" font-size="10.00">tracktion::graph::Channel</text>
<text text-anchor="middle" x="267.5" y="-464" font-family="Helvetica,sans-Serif" font-size="10.00">RemappingNode</text>
</a>
</g>
</g>
<!-- Node1&#45;&gt;Node34 -->
<g id="edge33" class="edge">
<title>Node1&#45;&gt;Node34</title>
<path fill="none" stroke="midnightblue" d="M65,-932.01C71.35,-852.61 98.66,-560.7 161,-497 170.81,-486.98 183.84,-480.67 197.39,-476.77"/>
<polygon fill="midnightblue" stroke="midnightblue" points="61.5,-931.89 64.21,-942.13 68.48,-932.43 61.5,-931.89"/>
</g>
<!-- Node35 -->
<g id="node35" class="node">
<title>Node35</title>
<g id="a_node35"><a xlink:href="classtracktion_1_1graph_1_1ConnectedNode.html" target="_top" xlink:title="An Node which sums together the multiple inputs adding additional latency to provide a coherent outpu...">
<polygon fill="none" stroke="black" points="179,-418.5 179,-437.5 356,-437.5 356,-418.5 179,-418.5"/>
<text text-anchor="middle" x="267.5" y="-425.5" font-family="Helvetica,sans-Serif" font-size="10.00">tracktion::graph::ConnectedNode</text>
</a>
</g>
</g>
<!-- Node1&#45;&gt;Node35 -->
<g id="edge34" class="edge">
<title>Node1&#45;&gt;Node35</title>
<path fill="none" stroke="midnightblue" d="M64.45,-932.26C68.91,-847.81 90.68,-518.06 161,-448 166.22,-442.8 172.34,-438.73 178.95,-435.57"/>
<polygon fill="midnightblue" stroke="midnightblue" points="60.95,-932.14 63.94,-942.3 67.94,-932.49 60.95,-932.14"/>
</g>
<!-- Node36 -->
<g id="node36" class="node">
<title>Node36</title>
<g id="a_node36"><a xlink:href="classtracktion_1_1graph_1_1ForwardingNode.html" target="_top" xlink:title="Takes a non&#45;owning input node and simply forwards its outputs on.">
<polygon fill="none" stroke="black" points="178,-380.5 178,-399.5 357,-399.5 357,-380.5 178,-380.5"/>
<text text-anchor="middle" x="267.5" y="-387.5" font-family="Helvetica,sans-Serif" font-size="10.00">tracktion::graph::ForwardingNode</text>
</a>
</g>
</g>
<!-- Node1&#45;&gt;Node36 -->
<g id="edge35" class="edge">
<title>Node1&#45;&gt;Node36</title>
<path fill="none" stroke="midnightblue" d="M64.14,-932.16C67.4,-843.53 85.19,-484.85 161,-409 165.87,-404.13 171.53,-400.27 177.66,-397.23"/>
<polygon fill="midnightblue" stroke="midnightblue" points="60.63,-932.3 63.78,-942.41 67.63,-932.54 60.63,-932.3"/>
</g>
<!-- Node37 -->
<g id="node37" class="node">
<title>Node37</title>
<g id="a_node37"><a xlink:href="classtracktion_1_1graph_1_1FunctionNode.html" target="_top" xlink:title=" ">
<polygon fill="none" stroke="black" points="184,-342.5 184,-361.5 351,-361.5 351,-342.5 184,-342.5"/>
<text text-anchor="middle" x="267.5" y="-349.5" font-family="Helvetica,sans-Serif" font-size="10.00">tracktion::graph::FunctionNode</text>
</a>
</g>
</g>
<!-- Node1&#45;&gt;Node37 -->
<g id="edge36" class="edge">
<title>Node1&#45;&gt;Node37</title>
<path fill="none" stroke="midnightblue" d="M63.89,-931.96C66.11,-839.22 80.17,-452.8 161,-371 167.48,-364.45 175.39,-359.72 183.95,-356.35"/>
<polygon fill="midnightblue" stroke="midnightblue" points="60.38,-932.12 63.66,-942.2 67.38,-932.28 60.38,-932.12"/>
</g>
<!-- Node38 -->
<g id="node38" class="node">
<title>Node38</title>
<g id="a_node38"><a xlink:href="classtracktion_1_1graph_1_1GainNode.html" target="_top" xlink:title=" ">
<polygon fill="none" stroke="black" points="193.5,-304.5 193.5,-323.5 341.5,-323.5 341.5,-304.5 193.5,-304.5"/>
<text text-anchor="middle" x="267.5" y="-311.5" font-family="Helvetica,sans-Serif" font-size="10.00">tracktion::graph::GainNode</text>
</a>
</g>
</g>
<!-- Node1&#45;&gt;Node38 -->
<g id="edge37" class="edge">
<title>Node1&#45;&gt;Node38</title>
<path fill="none" stroke="midnightblue" d="M63.66,-932.2C64.86,-836.28 75.01,-420.9 161,-333 169.78,-324.02 181.27,-318.45 193.42,-315.13"/>
<polygon fill="midnightblue" stroke="midnightblue" points="60.16,-932.45 63.55,-942.49 67.16,-932.53 60.16,-932.45"/>
</g>
<!-- Node39 -->
<g id="node39" class="node">
<title>Node39</title>
<g id="a_node39"><a xlink:href="classtracktion_1_1graph_1_1LatencyNode.html" target="_top" xlink:title=" ">
<polygon fill="none" stroke="black" points="185.5,-266.5 185.5,-285.5 349.5,-285.5 349.5,-266.5 185.5,-266.5"/>
<text text-anchor="middle" x="267.5" y="-273.5" font-family="Helvetica,sans-Serif" font-size="10.00">tracktion::graph::LatencyNode</text>
</a>
</g>
</g>
<!-- Node1&#45;&gt;Node39 -->
<g id="edge38" class="edge">
<title>Node1&#45;&gt;Node39</title>
<path fill="none" stroke="midnightblue" d="M63.46,-932.25C63.7,-832.91 69.89,-388.97 161,-295 167.8,-287.99 176.25,-283.05 185.38,-279.63"/>
<polygon fill="midnightblue" stroke="midnightblue" points="59.96,-932.38 63.46,-942.39 66.96,-932.39 59.96,-932.38"/>
</g>
<!-- Node40 -->
<g id="node40" class="node">
<title>Node40</title>
<g id="a_node40"><a xlink:href="classtracktion_1_1graph_1_1MidiNode.html" target="_top" xlink:title="Plays back a MIDI sequence.">
<polygon fill="none" stroke="black" points="194.5,-228.5 194.5,-247.5 340.5,-247.5 340.5,-228.5 194.5,-228.5"/>
<text text-anchor="middle" x="267.5" y="-235.5" font-family="Helvetica,sans-Serif" font-size="10.00">tracktion::graph::MidiNode</text>
</a>
</g>
</g>
<!-- Node1&#45;&gt;Node40 -->
<g id="edge39" class="edge">
<title>Node1&#45;&gt;Node40</title>
<path fill="none" stroke="midnightblue" d="M63.29,-932.1C62.6,-829.03 64.82,-356.98 161,-257 169.97,-247.68 181.84,-242.02 194.38,-238.72"/>
<polygon fill="midnightblue" stroke="midnightblue" points="59.79,-932.35 63.37,-942.32 66.79,-932.29 59.79,-932.35"/>
</g>
<!-- Node41 -->
<g id="node41" class="node">
<title>Node41</title>
<g id="a_node41"><a xlink:href="classtracktion_1_1graph_1_1ReturnNode.html" target="_top" xlink:title=" ">
<polygon fill="none" stroke="black" points="188.5,-190.5 188.5,-209.5 346.5,-209.5 346.5,-190.5 188.5,-190.5"/>
<text text-anchor="middle" x="267.5" y="-197.5" font-family="Helvetica,sans-Serif" font-size="10.00">tracktion::graph::ReturnNode</text>
</a>
</g>
</g>
<!-- Node1&#45;&gt;Node41 -->
<g id="edge40" class="edge">
<title>Node1&#45;&gt;Node41</title>
<path fill="none" stroke="midnightblue" d="M63.13,-932.03C61.56,-825.49 59.73,-325.04 161,-219 168.52,-211.13 178.11,-205.86 188.44,-202.42"/>
<polygon fill="midnightblue" stroke="midnightblue" points="59.63,-932.36 63.3,-942.3 66.63,-932.25 59.63,-932.36"/>
</g>
<!-- Node42 -->
<g id="node42" class="node">
<title>Node42</title>
<g id="a_node42"><a xlink:href="classtracktion_1_1graph_1_1SendNode.html" target="_top" xlink:title=" ">
<polygon fill="none" stroke="black" points="193,-152.5 193,-171.5 342,-171.5 342,-152.5 193,-152.5"/>
<text text-anchor="middle" x="267.5" y="-159.5" font-family="Helvetica,sans-Serif" font-size="10.00">tracktion::graph::SendNode</text>
</a>
</g>
</g>
<!-- Node1&#45;&gt;Node42 -->
<g id="edge41" class="edge">
<title>Node1&#45;&gt;Node42</title>
<path fill="none" stroke="midnightblue" d="M64.63,-932.01C71.35,-816.48 107.52,-237.36 161,-181 169.58,-171.96 180.9,-166.34 192.93,-162.99"/>
<polygon fill="midnightblue" stroke="midnightblue" points="61.12,-932.05 64.04,-942.24 68.11,-932.45 61.12,-932.05"/>
</g>
<!-- Node44 -->
<g id="node44" class="node">
<title>Node44</title>
<g id="a_node44"><a xlink:href="classtracktion_1_1graph_1_1SilentNode.html" target="_top" xlink:title="Just a simple audio node that doesn&#39;t take any input so can be used as a stub.">
<polygon fill="none" stroke="black" points="191,-114.5 191,-133.5 344,-133.5 344,-114.5 191,-114.5"/>
<text text-anchor="middle" x="267.5" y="-121.5" font-family="Helvetica,sans-Serif" font-size="10.00">tracktion::graph::SilentNode</text>
</a>
</g>
</g>
<!-- Node1&#45;&gt;Node44 -->
<g id="edge43" class="edge">
<title>Node1&#45;&gt;Node44</title>
<path fill="none" stroke="midnightblue" d="M64.5,-932.15C70.65,-813.61 104.92,-202.44 161,-143 169.05,-134.47 179.52,-128.99 190.74,-125.57"/>
<polygon fill="midnightblue" stroke="midnightblue" points="61,-932.15 63.98,-942.31 67.99,-932.5 61,-932.15"/>
</g>
<!-- Node45 -->
<g id="node45" class="node">
<title>Node45</title>
<g id="a_node45"><a xlink:href="classtracktion_1_1graph_1_1SinkNode.html" target="_top" xlink:title="Blocks audio and MIDI input from reaching the outputs.">
<polygon fill="none" stroke="black" points="194.5,-76.5 194.5,-95.5 340.5,-95.5 340.5,-76.5 194.5,-76.5"/>
<text text-anchor="middle" x="267.5" y="-83.5" font-family="Helvetica,sans-Serif" font-size="10.00">tracktion::graph::SinkNode</text>
</a>
</g>
</g>
<!-- Node1&#45;&gt;Node45 -->
<g id="edge44" class="edge">
<title>Node1&#45;&gt;Node45</title>
<path fill="none" stroke="midnightblue" d="M64.38,-932.36C69.97,-811.11 102.31,-167.54 161,-105 169.91,-95.5 181.84,-89.77 194.47,-86.47"/>
<polygon fill="midnightblue" stroke="midnightblue" points="60.88,-932.28 63.92,-942.43 67.87,-932.59 60.88,-932.28"/>
</g>
<!-- Node46 -->
<g id="node46" class="node">
<title>Node46</title>
<g id="a_node46"><a xlink:href="classtracktion_1_1graph_1_1SinNode.html" target="_top" xlink:title=" ">
<polygon fill="none" stroke="black" points="197.5,-38.5 197.5,-57.5 337.5,-57.5 337.5,-38.5 197.5,-38.5"/>
<text text-anchor="middle" x="267.5" y="-45.5" font-family="Helvetica,sans-Serif" font-size="10.00">tracktion::graph::SinNode</text>
</a>
</g>
</g>
<!-- Node1&#45;&gt;Node46 -->
<g id="edge45" class="edge">
<title>Node1&#45;&gt;Node46</title>
<path fill="none" stroke="midnightblue" d="M64.28,-932.25C69.39,-807.58 99.75,-132.6 161,-67 170.59,-56.73 183.7,-50.87 197.42,-47.7"/>
<polygon fill="midnightblue" stroke="midnightblue" points="60.78,-932.15 63.88,-942.29 67.78,-932.44 60.78,-932.15"/>
</g>
<!-- Node47 -->
<g id="node47" class="node">
<title>Node47</title>
<g id="a_node47"><a xlink:href="classtracktion_1_1graph_1_1SummingNode.html" target="_top" xlink:title="An Node which sums together the multiple inputs adding additional latency to provide a coherent outpu...">
<polygon fill="none" stroke="black" points="181.5,-0.5 181.5,-19.5 353.5,-19.5 353.5,-0.5 181.5,-0.5"/>
<text text-anchor="middle" x="267.5" y="-7.5" font-family="Helvetica,sans-Serif" font-size="10.00">tracktion::graph::SummingNode</text>
</a>
</g>
</g>
<!-- Node1&#45;&gt;Node47 -->
<g id="edge46" class="edge">
<title>Node1&#45;&gt;Node47</title>
<path fill="none" stroke="midnightblue" d="M64.19,-932.22C68.81,-804.34 97.17,-97.67 161,-29 166.7,-22.87 173.66,-18.3 181.25,-14.94"/>
<polygon fill="midnightblue" stroke="midnightblue" points="60.68,-932.35 63.82,-942.46 67.68,-932.59 60.68,-932.35"/>
</g>
<!-- Node43 -->
<g id="node43" class="node">
<title>Node43</title>
<g id="a_node43"><a xlink:href="classtracktion_1_1engine_1_1AuxSendNode.html" target="_top" xlink:title="Node for an aux send.">
<polygon fill="none" stroke="black" points="410,-147 410,-177 515,-177 515,-147 410,-147"/>
<text text-anchor="start" x="418" y="-165" font-family="Helvetica,sans-Serif" font-size="10.00">tracktion::engine::</text>
<text text-anchor="middle" x="462.5" y="-154" font-family="Helvetica,sans-Serif" font-size="10.00">AuxSendNode</text>
</a>
</g>
</g>
<!-- Node42&#45;&gt;Node43 -->
<g id="edge42" class="edge">
<title>Node42&#45;&gt;Node43</title>
<path fill="none" stroke="midnightblue" d="M352.17,-162C371.75,-162 392.05,-162 409.77,-162"/>
<polygon fill="midnightblue" stroke="midnightblue" points="352.02,-158.5 342.02,-162 352.02,-165.5 352.02,-158.5"/>
</g>
</g>
</svg>
