<?xml version="1.0" encoding="UTF-8" standalone="no"?>
<!DOCTYPE svg PUBLIC "-//W3C//DTD SVG 1.1//EN"
 "http://www.w3.org/Graphics/SVG/1.1/DTD/svg11.dtd">
<!-- Generated by graphviz version 2.43.0 (0)
 -->
<!-- Title: tracktion::engine::SoftwareMidiOutputDevice Pages: 1 -->
<svg width="155pt" height="236pt"
 viewBox="0.00 0.00 155.00 236.00" xmlns="http://www.w3.org/2000/svg" xmlns:xlink="http://www.w3.org/1999/xlink">
<g id="graph0" class="graph" transform="scale(1 1) rotate(0) translate(4 232)">
<title>tracktion::engine::SoftwareMidiOutputDevice</title>
<!-- Node1 -->
<g id="Node000001" class="node">
<title>Node1</title>
<g id="a_Node000001"><a xlink:title="Create a software midi port on macOS.">
<polygon fill="#999999" stroke="#666666" points="147,-30 0,-30 0,0 147,0 147,-30"/>
<text text-anchor="start" x="8" y="-18" font-family="Helvetica,sans-Serif" font-size="10.00">tracktion::engine::</text>
<text text-anchor="middle" x="73.5" y="-7" font-family="Helvetica,sans-Serif" font-size="10.00">SoftwareMidiOutputDevice</text>
</a>
</g>
</g>
<!-- Node2 -->
<g id="Node000002" class="node">
<title>Node2</title>
<g id="a_Node000002"><a xlink:href="classtracktion_1_1engine_1_1MidiOutputDevice.html" target="_top" xlink:title=" ">
<polygon fill="white" stroke="#666666" points="126,-96 21,-96 21,-66 126,-66 126,-96"/>
<text text-anchor="start" x="29" y="-84" font-family="Helvetica,sans-Serif" font-size="10.00">tracktion::engine::</text>
<text text-anchor="middle" x="73.5" y="-73" font-family="Helvetica,sans-Serif" font-size="10.00">MidiOutputDevice</text>
</a>
</g>
</g>
<!-- Node2&#45;&gt;Node1 -->
<g id="edge1_Node000001_Node000002" class="edge">
<title>Node2&#45;&gt;Node1</title>
<g id="a_edge1_Node000001_Node000002"><a xlink:title=" ">
<path fill="none" stroke="#63b8ff" d="M73.5,-55.54C73.5,-46.96 73.5,-37.61 73.5,-30.16"/>
<polygon fill="#63b8ff" stroke="#63b8ff" points="70,-55.8 73.5,-65.8 77,-55.8 70,-55.8"/>
</a>
</g>
</g>
<!-- Node3 -->
<g id="Node000003" class="node">
<title>Node3</title>
<g id="a_Node000003"><a xlink:href="classtracktion_1_1engine_1_1OutputDevice.html" target="_top" xlink:title="Base class for audio or midi output devices, to which a track&#39;s output can be sent.">
<polygon fill="white" stroke="#666666" points="126,-162 21,-162 21,-132 126,-132 126,-162"/>
<text text-anchor="start" x="29" y="-150" font-family="Helvetica,sans-Serif" font-size="10.00">tracktion::engine::</text>
<text text-anchor="middle" x="73.5" y="-139" font-family="Helvetica,sans-Serif" font-size="10.00">OutputDevice</text>
</a>
</g>
</g>
<!-- Node3&#45;&gt;Node2 -->
<g id="edge2_Node000002_Node000003" class="edge">
<title>Node3&#45;&gt;Node2</title>
<g id="a_edge2_Node000002_Node000003"><a xlink:title=" ">
<path fill="none" stroke="#63b8ff" d="M73.5,-121.54C73.5,-112.96 73.5,-103.61 73.5,-96.16"/>
<polygon fill="#63b8ff" stroke="#63b8ff" points="70,-121.8 73.5,-131.8 77,-121.8 70,-121.8"/>
</a>
</g>
</g>
<!-- Node4 -->
<g id="Node000004" class="node">
<title>Node4</title>
<g id="a_Node000004"><a xlink:href="classtracktion_1_1engine_1_1Selectable.html" target="_top" xlink:title="Base class for things that can be selected, and whose properties can appear in the properties panel.">
<polygon fill="white" stroke="#666666" points="126,-228 21,-228 21,-198 126,-198 126,-228"/>
<text text-anchor="start" x="29" y="-216" font-family="Helvetica,sans-Serif" font-size="10.00">tracktion::engine::</text>
<text text-anchor="middle" x="73.5" y="-205" font-family="Helvetica,sans-Serif" font-size="10.00">Selectable</text>
</a>
</g>
</g>
<!-- Node4&#45;&gt;Node3 -->
<g id="edge3_Node000003_Node000004" class="edge">
<title>Node4&#45;&gt;Node3</title>
<g id="a_edge3_Node000003_Node000004"><a xlink:title=" ">
<path fill="none" stroke="#63b8ff" d="M73.5,-187.54C73.5,-178.96 73.5,-169.61 73.5,-162.16"/>
<polygon fill="#63b8ff" stroke="#63b8ff" points="70,-187.8 73.5,-197.8 77,-187.8 70,-187.8"/>
</a>
</g>
</g>
</g>
</svg>
