<?xml version="1.0" encoding="UTF-8" standalone="no"?>
<!DOCTYPE svg PUBLIC "-//W3C//DTD SVG 1.1//EN"
 "http://www.w3.org/Graphics/SVG/1.1/DTD/svg11.dtd">
<!-- Generated by graphviz version 2.40.1 (20161225.0304)
 -->
<!-- Title: tracktion_engine::Selectable Pages: 1 -->
<svg width="575pt" height="1537pt"
 viewBox="0.00 0.00 575.00 1536.50" xmlns="http://www.w3.org/2000/svg" xmlns:xlink="http://www.w3.org/1999/xlink">
<g id="graph0" class="graph" transform="scale(1 1) rotate(0) translate(4 1532.5)">
<title>tracktion_engine::Selectable</title>
<!-- Node0 -->
<g id="node1" class="node">
<title>Node0</title>
<polygon fill="#bfbfbf" stroke="#000000" points="0,-456.5 0,-475.5 140,-475.5 140,-456.5 0,-456.5"/>
<text text-anchor="middle" x="70" y="-463.5" font-family="Helvetica,sans-Serif" font-size="10.00" fill="#000000">tracktion_engine::Selectable</text>
</g>
<!-- Node1 -->
<g id="node2" class="node">
<title>Node1</title>
<g id="a_node2"><a xlink:href="classtracktion__engine_1_1AutomatableParameter.html" target="_top" xlink:title="tracktion_engine::Automatable\lParameter">
<polygon fill="none" stroke="#000000" points="185,-1383 185,-1413 334,-1413 334,-1383 185,-1383"/>
<text text-anchor="start" x="193" y="-1401" font-family="Helvetica,sans-Serif" font-size="10.00" fill="#000000">tracktion_engine::Automatable</text>
<text text-anchor="middle" x="259.5" y="-1390" font-family="Helvetica,sans-Serif" font-size="10.00" fill="#000000">Parameter</text>
</a>
</g>
</g>
<!-- Node0&#45;&gt;Node1 -->
<g id="edge1" class="edge">
<title>Node0&#45;&gt;Node1</title>
<path fill="none" stroke="#191970" d="M72.0439,-485.7443C80.6579,-566.7545 116.3372,-881.2954 176,-1134 198.7543,-1230.3771 238.9565,-1342.5931 253.7925,-1382.751"/>
<polygon fill="#191970" stroke="#191970" points="75.4957,-485.1011 70.9697,-475.5216 68.534,-485.8327 75.4957,-485.1011"/>
</g>
<!-- Node7 -->
<g id="node8" class="node">
<title>Node7</title>
<g id="a_node8"><a xlink:href="classtracktion__engine_1_1ControlSurface.html" target="_top" xlink:title="Base class for types of control surface. ">
<polygon fill="none" stroke="#000000" points="197,-1094 197,-1124 322,-1124 322,-1094 197,-1094"/>
<text text-anchor="start" x="205" y="-1112" font-family="Helvetica,sans-Serif" font-size="10.00" fill="#000000">tracktion_engine::Control</text>
<text text-anchor="middle" x="259.5" y="-1101" font-family="Helvetica,sans-Serif" font-size="10.00" fill="#000000">Surface</text>
</a>
</g>
</g>
<!-- Node0&#45;&gt;Node7 -->
<g id="edge7" class="edge">
<title>Node0&#45;&gt;Node7</title>
<path fill="none" stroke="#191970" d="M73.03,-485.5908C83.299,-549.9865 119.3342,-760.5188 176,-927 197.8432,-991.1742 234.8576,-1063.1822 251.2571,-1093.8549"/>
<polygon fill="#191970" stroke="#191970" points="76.472,-484.9477 71.4601,-475.6132 69.557,-486.0357 76.472,-484.9477"/>
</g>
<!-- Node16 -->
<g id="node17" class="node">
<title>Node16</title>
<g id="a_node17"><a xlink:href="classtracktion__engine_1_1CurveEditorPoint.html" target="_top" xlink:title="tracktion_engine::CurveEditor\lPoint">
<polygon fill="none" stroke="#000000" points="186.5,-887 186.5,-917 332.5,-917 332.5,-887 186.5,-887"/>
<text text-anchor="start" x="194.5" y="-905" font-family="Helvetica,sans-Serif" font-size="10.00" fill="#000000">tracktion_engine::CurveEditor</text>
<text text-anchor="middle" x="259.5" y="-894" font-family="Helvetica,sans-Serif" font-size="10.00" fill="#000000">Point</text>
</a>
</g>
</g>
<!-- Node0&#45;&gt;Node16 -->
<g id="edge16" class="edge">
<title>Node0&#45;&gt;Node16</title>
<path fill="none" stroke="#191970" d="M73.3131,-485.7742C85.4512,-556.3724 129.2255,-794.9897 176,-855 186.8402,-868.9077 203.0193,-879.3561 218.2574,-886.8255"/>
<polygon fill="#191970" stroke="#191970" points="76.711,-484.8777 71.585,-475.6055 69.81,-486.0506 76.711,-484.8777"/>
</g>
<!-- Node18 -->
<g id="node19" class="node">
<title>Node18</title>
<g id="a_node19"><a xlink:href="classtracktion__engine_1_1Edit.html" target="_top" xlink:title="The Tracktion Edit class! ">
<polygon fill="none" stroke="#000000" points="204,-826.5 204,-845.5 315,-845.5 315,-826.5 204,-826.5"/>
<text text-anchor="middle" x="259.5" y="-833.5" font-family="Helvetica,sans-Serif" font-size="10.00" fill="#000000">tracktion_engine::Edit</text>
</a>
</g>
</g>
<!-- Node0&#45;&gt;Node18 -->
<g id="edge18" class="edge">
<title>Node0&#45;&gt;Node18</title>
<path fill="none" stroke="#191970" d="M73.2722,-485.5919C84.8253,-552.4563 125.7261,-770.1064 176,-817 183.719,-824.1999 193.5791,-828.8676 203.799,-831.8539"/>
<polygon fill="#191970" stroke="#191970" points="76.6938,-484.8347 71.5657,-475.5636 69.793,-486.009 76.6938,-484.8347"/>
</g>
<!-- Node19 -->
<g id="node20" class="node">
<title>Node19</title>
<g id="a_node20"><a xlink:href="classtracktion__engine_1_1InputDevice.html" target="_top" xlink:title="Represents an input device. ">
<polygon fill="none" stroke="#000000" points="186.5,-788.5 186.5,-807.5 332.5,-807.5 332.5,-788.5 186.5,-788.5"/>
<text text-anchor="middle" x="259.5" y="-795.5" font-family="Helvetica,sans-Serif" font-size="10.00" fill="#000000">tracktion_engine::InputDevice</text>
</a>
</g>
</g>
<!-- Node0&#45;&gt;Node19 -->
<g id="edge19" class="edge">
<title>Node0&#45;&gt;Node19</title>
<path fill="none" stroke="#191970" d="M72.9946,-485.7273C81.3042,-534.7452 108.6359,-664.0223 176,-746 192.0467,-765.5278 217.4475,-779.8564 236.0234,-788.4707"/>
<polygon fill="#191970" stroke="#191970" points="76.4009,-484.8658 71.352,-475.5514 69.4904,-485.9814 76.4009,-484.8658"/>
</g>
<!-- Node24 -->
<g id="node23" class="node">
<title>Node24</title>
<g id="a_node23"><a xlink:href="structtracktion__engine_1_1InputDeviceInstance_1_1InputDeviceDestination.html" target="_top" xlink:title="tracktion_engine::InputDevice\lInstance::InputDeviceDestination">
<polygon fill="none" stroke="#000000" points="178.5,-706 178.5,-736 340.5,-736 340.5,-706 178.5,-706"/>
<text text-anchor="start" x="186.5" y="-724" font-family="Helvetica,sans-Serif" font-size="10.00" fill="#000000">tracktion_engine::InputDevice</text>
<text text-anchor="middle" x="259.5" y="-713" font-family="Helvetica,sans-Serif" font-size="10.00" fill="#000000">Instance::InputDeviceDestination</text>
</a>
</g>
</g>
<!-- Node0&#45;&gt;Node24 -->
<g id="edge22" class="edge">
<title>Node0&#45;&gt;Node24</title>
<path fill="none" stroke="#191970" d="M73.8776,-485.4947C83.4519,-528.6524 112.2134,-633.0229 176,-691 182.7253,-697.1128 190.7858,-702.0014 199.2089,-705.9055"/>
<polygon fill="#191970" stroke="#191970" points="77.2967,-484.7459 71.803,-475.6867 70.4482,-486.1945 77.2967,-484.7459"/>
</g>
<!-- Node28 -->
<g id="node27" class="node">
<title>Node28</title>
<g id="a_node27"><a xlink:href="structtracktion__engine_1_1MakeMonoEffect.html" target="_top" xlink:title="tracktion_engine::MakeMono\lEffect">
<polygon fill="none" stroke="#000000" points="188.5,-651 188.5,-681 330.5,-681 330.5,-651 188.5,-651"/>
<text text-anchor="start" x="196.5" y="-669" font-family="Helvetica,sans-Serif" font-size="10.00" fill="#000000">tracktion_engine::MakeMono</text>
<text text-anchor="middle" x="259.5" y="-658" font-family="Helvetica,sans-Serif" font-size="10.00" fill="#000000">Effect</text>
</a>
</g>
</g>
<!-- Node0&#45;&gt;Node28 -->
<g id="edge26" class="edge">
<title>Node0&#45;&gt;Node28</title>
<path fill="none" stroke="#191970" d="M76.4238,-485.4476C89.3634,-521.5934 122.0268,-599.2367 176,-641 181.0265,-644.8894 186.6512,-648.1755 192.5426,-650.9516"/>
<polygon fill="#191970" stroke="#191970" points="79.6122,-483.9576 73.0396,-475.6479 72.9956,-486.2426 79.6122,-483.9576"/>
</g>
<!-- Node29 -->
<g id="node28" class="node">
<title>Node29</title>
<g id="a_node28"><a xlink:href="structtracktion__engine_1_1Modifier.html" target="_top" xlink:title="tracktion_engine::Modifier">
<polygon fill="none" stroke="#000000" points="195.5,-612.5 195.5,-631.5 323.5,-631.5 323.5,-612.5 195.5,-612.5"/>
<text text-anchor="middle" x="259.5" y="-619.5" font-family="Helvetica,sans-Serif" font-size="10.00" fill="#000000">tracktion_engine::Modifier</text>
</a>
</g>
</g>
<!-- Node0&#45;&gt;Node29 -->
<g id="edge27" class="edge">
<title>Node0&#45;&gt;Node29</title>
<path fill="none" stroke="#191970" d="M79.0959,-484.8243C94.6002,-514.8038 129.0816,-573.0583 176,-603 182.0156,-606.839 188.7109,-609.9063 195.6196,-612.3564"/>
<polygon fill="#191970" stroke="#191970" points="82.1909,-483.1883 74.5749,-475.823 75.9356,-486.3301 82.1909,-483.1883"/>
</g>
<!-- Node36 -->
<g id="node35" class="node">
<title>Node36</title>
<g id="a_node35"><a xlink:href="structtracktion__engine_1_1NormaliseEffect.html" target="_top" xlink:title="tracktion_engine::Normalise\lEffect">
<polygon fill="none" stroke="#000000" points="190.5,-563 190.5,-593 328.5,-593 328.5,-563 190.5,-563"/>
<text text-anchor="start" x="198.5" y="-581" font-family="Helvetica,sans-Serif" font-size="10.00" fill="#000000">tracktion_engine::Normalise</text>
<text text-anchor="middle" x="259.5" y="-570" font-family="Helvetica,sans-Serif" font-size="10.00" fill="#000000">Effect</text>
</a>
</g>
</g>
<!-- Node0&#45;&gt;Node36 -->
<g id="edge34" class="edge">
<title>Node0&#45;&gt;Node36</title>
<path fill="none" stroke="#191970" d="M86.1115,-483.1237C105.6195,-502.9024 140.319,-535.1338 176,-554 182.4004,-557.3842 189.3362,-560.3431 196.3817,-562.9172"/>
<polygon fill="#191970" stroke="#191970" points="88.4203,-480.4765 78.9506,-475.7252 83.3904,-485.3449 88.4203,-480.4765"/>
</g>
<!-- Node37 -->
<g id="node36" class="node">
<title>Node37</title>
<g id="a_node36"><a xlink:href="classtracktion__engine_1_1OutputDevice.html" target="_top" xlink:title="Base class for audio or midi output devices, to which a track&#39;s output can be sent. ">
<polygon fill="none" stroke="#ff0000" points="198,-514 198,-544 321,-544 321,-514 198,-514"/>
<text text-anchor="start" x="206" y="-532" font-family="Helvetica,sans-Serif" font-size="10.00" fill="#000000">tracktion_engine::Output</text>
<text text-anchor="middle" x="259.5" y="-521" font-family="Helvetica,sans-Serif" font-size="10.00" fill="#000000">Device</text>
</a>
</g>
</g>
<!-- Node0&#45;&gt;Node37 -->
<g id="edge35" class="edge">
<title>Node0&#45;&gt;Node37</title>
<path fill="none" stroke="#191970" d="M105.1482,-479.1315C125.7083,-486.6794 152.219,-496.1835 176,-504 186.2067,-507.3548 197.1747,-510.7718 207.6966,-513.9583"/>
<polygon fill="#191970" stroke="#191970" points="106.1645,-475.7759 95.5711,-475.5992 103.7422,-482.3435 106.1645,-475.7759"/>
</g>
<!-- Node41 -->
<g id="node38" class="node">
<title>Node41</title>
<g id="a_node38"><a xlink:href="classtracktion__engine_1_1Plugin.html" target="_top" xlink:title="tracktion_engine::Plugin">
<polygon fill="none" stroke="#ff0000" points="199,-475.5 199,-494.5 320,-494.5 320,-475.5 199,-475.5"/>
<text text-anchor="middle" x="259.5" y="-482.5" font-family="Helvetica,sans-Serif" font-size="10.00" fill="#000000">tracktion_engine::Plugin</text>
</a>
</g>
</g>
<!-- Node0&#45;&gt;Node41 -->
<g id="edge37" class="edge">
<title>Node0&#45;&gt;Node41</title>
<path fill="none" stroke="#191970" d="M150.0854,-474.0297C166.3961,-475.665 183.3009,-477.36 198.8029,-478.9143"/>
<polygon fill="#191970" stroke="#191970" points="150.3237,-470.5361 140.0244,-473.0209 149.6253,-477.5012 150.3237,-470.5361"/>
</g>
<!-- Node68 -->
<g id="node39" class="node">
<title>Node68</title>
<g id="a_node39"><a xlink:href="classtracktion__engine_1_1Project.html" target="_top" xlink:title="A tracktion project. ">
<polygon fill="none" stroke="#000000" points="197,-437.5 197,-456.5 322,-456.5 322,-437.5 197,-437.5"/>
<text text-anchor="middle" x="259.5" y="-444.5" font-family="Helvetica,sans-Serif" font-size="10.00" fill="#000000">tracktion_engine::Project</text>
</a>
</g>
</g>
<!-- Node0&#45;&gt;Node68 -->
<g id="edge38" class="edge">
<title>Node0&#45;&gt;Node68</title>
<path fill="none" stroke="#191970" d="M150.199,-457.9589C165.8286,-456.3919 181.9994,-454.7705 196.9552,-453.271"/>
<polygon fill="#191970" stroke="#191970" points="149.6253,-454.4988 140.0244,-458.9791 150.3237,-461.4639 149.6253,-454.4988"/>
</g>
<!-- Node69 -->
<g id="node40" class="node">
<title>Node69</title>
<g id="a_node40"><a xlink:href="classtracktion__engine_1_1ProjectItem.html" target="_top" xlink:title="Represents a file&#45;based resource that is used in a project. ">
<polygon fill="none" stroke="#000000" points="187.5,-399.5 187.5,-418.5 331.5,-418.5 331.5,-399.5 187.5,-399.5"/>
<text text-anchor="middle" x="259.5" y="-406.5" font-family="Helvetica,sans-Serif" font-size="10.00" fill="#000000">tracktion_engine::ProjectItem</text>
</a>
</g>
</g>
<!-- Node0&#45;&gt;Node69 -->
<g id="edge39" class="edge">
<title>Node0&#45;&gt;Node69</title>
<path fill="none" stroke="#191970" d="M103.7308,-452.7326C124.3908,-444.9017 151.4862,-435.1547 176,-428 187.8455,-424.5427 200.7872,-421.33 212.8692,-418.5668"/>
<polygon fill="#191970" stroke="#191970" points="102.2322,-449.5586 94.1451,-456.4032 104.7355,-456.0957 102.2322,-449.5586"/>
</g>
<!-- Node70 -->
<g id="node41" class="node">
<title>Node70</title>
<g id="a_node41"><a xlink:href="classtracktion__engine_1_1RackType.html" target="_top" xlink:title="tracktion_engine::RackType">
<polygon fill="none" stroke="#000000" points="190,-361.5 190,-380.5 329,-380.5 329,-361.5 190,-361.5"/>
<text text-anchor="middle" x="259.5" y="-368.5" font-family="Helvetica,sans-Serif" font-size="10.00" fill="#000000">tracktion_engine::RackType</text>
</a>
</g>
</g>
<!-- Node0&#45;&gt;Node70 -->
<g id="edge40" class="edge">
<title>Node0&#45;&gt;Node70</title>
<path fill="none" stroke="#191970" d="M87.9262,-449.6721C107.9499,-432.3087 142.0318,-405.2869 176,-390 184.5412,-386.1562 193.9354,-383.0535 203.2456,-380.5601"/>
<polygon fill="#191970" stroke="#191970" points="85.4214,-447.2147 80.2466,-456.4598 90.0573,-452.4597 85.4214,-447.2147"/>
</g>
<!-- Node71 -->
<g id="node42" class="node">
<title>Node71</title>
<g id="a_node42"><a xlink:href="classtracktion__engine_1_1SelectedMidiEvents.html" target="_top" xlink:title="Represents a set of selected MIDI notes. ">
<polygon fill="none" stroke="#000000" points="193.5,-312 193.5,-342 325.5,-342 325.5,-312 193.5,-312"/>
<text text-anchor="start" x="201.5" y="-330" font-family="Helvetica,sans-Serif" font-size="10.00" fill="#000000">tracktion_engine::Selected</text>
<text text-anchor="middle" x="259.5" y="-319" font-family="Helvetica,sans-Serif" font-size="10.00" fill="#000000">MidiEvents</text>
</a>
</g>
</g>
<!-- Node0&#45;&gt;Node71 -->
<g id="edge41" class="edge">
<title>Node0&#45;&gt;Node71</title>
<path fill="none" stroke="#191970" d="M82.079,-447.8722C99.7684,-422.7114 135.0961,-377.4358 176,-352 182.1682,-348.1644 188.9588,-344.8882 195.9217,-342.0965"/>
<polygon fill="#191970" stroke="#191970" points="78.9657,-446.2229 76.1881,-456.4472 84.7354,-450.1866 78.9657,-446.2229"/>
</g>
<!-- Node72 -->
<g id="node43" class="node">
<title>Node72</title>
<g id="a_node43"><a xlink:href="structtracktion__engine_1_1StepClip_1_1Channel.html" target="_top" xlink:title="tracktion_engine::StepClip\l::Channel">
<polygon fill="none" stroke="#000000" points="194,-263 194,-293 325,-293 325,-263 194,-263"/>
<text text-anchor="start" x="202" y="-281" font-family="Helvetica,sans-Serif" font-size="10.00" fill="#000000">tracktion_engine::StepClip</text>
<text text-anchor="middle" x="259.5" y="-270" font-family="Helvetica,sans-Serif" font-size="10.00" fill="#000000">::Channel</text>
</a>
</g>
</g>
<!-- Node0&#45;&gt;Node72 -->
<g id="edge42" class="edge">
<title>Node0&#45;&gt;Node72</title>
<path fill="none" stroke="#191970" d="M77.1219,-446.7427C90.8301,-412.3674 124.1893,-340.4498 176,-302 181.4506,-297.955 187.565,-294.5905 193.9415,-291.7922"/>
<polygon fill="#191970" stroke="#191970" points="73.8354,-445.5376 73.4998,-456.1271 80.3659,-448.0582 73.8354,-445.5376"/>
</g>
<!-- Node73 -->
<g id="node44" class="node">
<title>Node73</title>
<g id="a_node44"><a xlink:href="structtracktion__engine_1_1StepClip_1_1PatternInstance.html" target="_top" xlink:title="tracktion_engine::StepClip\l::PatternInstance">
<polygon fill="none" stroke="#000000" points="194,-214 194,-244 325,-244 325,-214 194,-214"/>
<text text-anchor="start" x="202" y="-232" font-family="Helvetica,sans-Serif" font-size="10.00" fill="#000000">tracktion_engine::StepClip</text>
<text text-anchor="middle" x="259.5" y="-221" font-family="Helvetica,sans-Serif" font-size="10.00" fill="#000000">::PatternInstance</text>
</a>
</g>
</g>
<!-- Node0&#45;&gt;Node73 -->
<g id="edge43" class="edge">
<title>Node0&#45;&gt;Node73</title>
<path fill="none" stroke="#191970" d="M74.1381,-446.3927C84.0319,-404.4148 113.0674,-305.4136 176,-253 181.3315,-248.5597 187.443,-244.9402 193.882,-241.9899"/>
<polygon fill="#191970" stroke="#191970" points="70.7105,-445.6824 71.9337,-456.2064 77.5403,-447.2166 70.7105,-445.6824"/>
</g>
<!-- Node74 -->
<g id="node45" class="node">
<title>Node74</title>
<g id="a_node45"><a xlink:href="structtracktion__engine_1_1StepVolumeEffect.html" target="_top" xlink:title="tracktion_engine::StepVolume\lEffect">
<polygon fill="none" stroke="#000000" points="186,-165 186,-195 333,-195 333,-165 186,-165"/>
<text text-anchor="start" x="194" y="-183" font-family="Helvetica,sans-Serif" font-size="10.00" fill="#000000">tracktion_engine::StepVolume</text>
<text text-anchor="middle" x="259.5" y="-172" font-family="Helvetica,sans-Serif" font-size="10.00" fill="#000000">Effect</text>
</a>
</g>
</g>
<!-- Node0&#45;&gt;Node74 -->
<g id="edge44" class="edge">
<title>Node0&#45;&gt;Node74</title>
<path fill="none" stroke="#191970" d="M72.1243,-446.3491C78.4405,-397.7523 101.5684,-271.0287 176,-204 179.8109,-200.5682 184.0823,-197.6246 188.6248,-195.1001"/>
<polygon fill="#191970" stroke="#191970" points="68.6275,-446.1138 70.9116,-456.4595 75.5777,-446.9475 68.6275,-446.1138"/>
</g>
<!-- Node75 -->
<g id="node46" class="node">
<title>Node75</title>
<g id="a_node46"><a xlink:href="classtracktion__engine_1_1TempoSequence.html" target="_top" xlink:title="Holds a list of TempoSetting objects, to form a sequence of tempo changes. ">
<polygon fill="none" stroke="#000000" points="176,-126.5 176,-145.5 343,-145.5 343,-126.5 176,-126.5"/>
<text text-anchor="middle" x="259.5" y="-133.5" font-family="Helvetica,sans-Serif" font-size="10.00" fill="#000000">tracktion_engine::TempoSequence</text>
</a>
</g>
</g>
<!-- Node0&#45;&gt;Node75 -->
<g id="edge45" class="edge">
<title>Node0&#45;&gt;Node75</title>
<path fill="none" stroke="#191970" d="M74.1032,-446.2645C87.3589,-384.3578 130.8042,-195.6931 176,-155 180.1985,-151.2198 184.9903,-148.1432 190.1069,-145.6447"/>
<polygon fill="#191970" stroke="#191970" points="70.629,-445.7769 71.9858,-456.2845 77.4778,-447.2242 70.629,-445.7769"/>
</g>
<!-- Node76 -->
<g id="node47" class="node">
<title>Node76</title>
<g id="a_node47"><a xlink:href="classtracktion__engine_1_1Track.html" target="_top" xlink:title="tracktion_engine::Track">
<polygon fill="none" stroke="#ff0000" points="200,-88.5 200,-107.5 319,-107.5 319,-88.5 200,-88.5"/>
<text text-anchor="middle" x="259.5" y="-95.5" font-family="Helvetica,sans-Serif" font-size="10.00" fill="#000000">tracktion_engine::Track</text>
</a>
</g>
</g>
<!-- Node0&#45;&gt;Node76 -->
<g id="edge46" class="edge">
<title>Node0&#45;&gt;Node76</title>
<path fill="none" stroke="#191970" d="M73.2887,-446.5184C84.8958,-380.0309 125.9516,-163.6091 176,-117 182.7455,-110.7181 191.1213,-106.3645 199.9421,-103.3737"/>
<polygon fill="#191970" stroke="#191970" points="69.8194,-446.0418 71.5739,-456.4903 76.7182,-447.2282 69.8194,-446.0418"/>
</g>
<!-- Node85 -->
<g id="node48" class="node">
<title>Node85</title>
<g id="a_node48"><a xlink:href="structtracktion__engine_1_1TrackCompManager_1_1TrackComp.html" target="_top" xlink:title="tracktion_engine::TrackComp\lManager::TrackComp">
<polygon fill="none" stroke="#000000" points="187,-39 187,-69 332,-69 332,-39 187,-39"/>
<text text-anchor="start" x="195" y="-57" font-family="Helvetica,sans-Serif" font-size="10.00" fill="#000000">tracktion_engine::TrackComp</text>
<text text-anchor="middle" x="259.5" y="-46" font-family="Helvetica,sans-Serif" font-size="10.00" fill="#000000">Manager::TrackComp</text>
</a>
</g>
</g>
<!-- Node0&#45;&gt;Node85 -->
<g id="edge47" class="edge">
<title>Node0&#45;&gt;Node85</title>
<path fill="none" stroke="#191970" d="M72.8947,-445.9502C83.6011,-374.4241 123.091,-133.1706 176,-79 179.8064,-75.1028 184.1935,-71.8073 188.9227,-69.0214"/>
<polygon fill="#191970" stroke="#191970" points="69.3713,-445.8529 71.3768,-456.2562 76.2966,-446.8729 69.3713,-445.8529"/>
</g>
<!-- Node86 -->
<g id="node49" class="node">
<title>Node86</title>
<g id="a_node49"><a xlink:href="classtracktion__engine_1_1TrackItem.html" target="_top" xlink:title="Base class for EditItems that live in a track, e.g. ">
<polygon fill="none" stroke="#ff0000" points="190.5,-.5 190.5,-19.5 328.5,-19.5 328.5,-.5 190.5,-.5"/>
<text text-anchor="middle" x="259.5" y="-7.5" font-family="Helvetica,sans-Serif" font-size="10.00" fill="#000000">tracktion_engine::TrackItem</text>
</a>
</g>
</g>
<!-- Node0&#45;&gt;Node86 -->
<g id="edge48" class="edge">
<title>Node0&#45;&gt;Node86</title>
<path fill="none" stroke="#191970" d="M72.1033,-445.786C80.6042,-367.9828 114.9244,-89.2125 176,-29 180.129,-24.9294 184.9378,-21.658 190.1236,-19.0369"/>
<polygon fill="#191970" stroke="#191970" points="68.5812,-445.807 70.9982,-456.1224 75.5415,-446.5512 68.5812,-445.807"/>
</g>
<!-- Node2 -->
<g id="node3" class="node">
<title>Node2</title>
<g id="a_node3"><a xlink:href="structtracktion__engine_1_1DiscreteLabelledParameter.html" target="_top" xlink:title="tracktion_engine::Discrete\lLabelledParameter">
<polygon fill="none" stroke="#000000" points="407.5,-1498 407.5,-1528 538.5,-1528 538.5,-1498 407.5,-1498"/>
<text text-anchor="start" x="415.5" y="-1516" font-family="Helvetica,sans-Serif" font-size="10.00" fill="#000000">tracktion_engine::Discrete</text>
<text text-anchor="middle" x="473" y="-1505" font-family="Helvetica,sans-Serif" font-size="10.00" fill="#000000">LabelledParameter</text>
</a>
</g>
</g>
<!-- Node1&#45;&gt;Node2 -->
<g id="edge2" class="edge">
<title>Node1&#45;&gt;Node2</title>
<path fill="none" stroke="#191970" d="M282.565,-1420.1327C305.343,-1440.8205 342.0392,-1471.1276 379,-1489 387.7947,-1493.2527 397.4294,-1496.8103 407.072,-1499.7695"/>
<polygon fill="#191970" stroke="#191970" points="284.8332,-1417.4633 275.111,-1413.2525 280.0854,-1422.607 284.8332,-1417.4633"/>
</g>
<!-- Node3 -->
<g id="node4" class="node">
<title>Node3</title>
<g id="a_node4"><a xlink:href="classtracktion__engine_1_1ExternalAutomatableParameter.html" target="_top" xlink:title="tracktion_engine::External\lAutomatableParameter">
<polygon fill="none" stroke="#000000" points="408,-1449 408,-1479 538,-1479 538,-1449 408,-1449"/>
<text text-anchor="start" x="416" y="-1467" font-family="Helvetica,sans-Serif" font-size="10.00" fill="#000000">tracktion_engine::External</text>
<text text-anchor="middle" x="473" y="-1456" font-family="Helvetica,sans-Serif" font-size="10.00" fill="#000000">AutomatableParameter</text>
</a>
</g>
</g>
<!-- Node1&#45;&gt;Node3 -->
<g id="edge3" class="edge">
<title>Node1&#45;&gt;Node3</title>
<path fill="none" stroke="#191970" d="M310.7216,-1416.4618C331.7664,-1423.8145 356.4459,-1432.141 379,-1439 390.2285,-1442.4147 402.2885,-1445.818 413.9008,-1448.9643"/>
<polygon fill="#191970" stroke="#191970" points="311.6142,-1413.0656 301.0194,-1413.0513 309.2928,-1419.6695 311.6142,-1413.0656"/>
</g>
<!-- Node4 -->
<g id="node5" class="node">
<title>Node4</title>
<g id="a_node5"><a xlink:href="classtracktion__engine_1_1MacroParameter.html" target="_top" xlink:title="A MacroParameter is an AutomatableParameter which is a collection of Mappings. ">
<polygon fill="none" stroke="#000000" points="390,-1410.5 390,-1429.5 556,-1429.5 556,-1410.5 390,-1410.5"/>
<text text-anchor="middle" x="473" y="-1417.5" font-family="Helvetica,sans-Serif" font-size="10.00" fill="#000000">tracktion_engine::MacroParameter</text>
</a>
</g>
</g>
<!-- Node1&#45;&gt;Node4 -->
<g id="edge4" class="edge">
<title>Node1&#45;&gt;Node4</title>
<path fill="none" stroke="#191970" d="M344.4446,-1406.7531C359.4435,-1408.2986 375.0423,-1409.906 389.9873,-1411.446"/>
<polygon fill="#191970" stroke="#191970" points="344.4781,-1403.2381 334.1719,-1405.6945 343.7605,-1410.2012 344.4781,-1403.2381"/>
</g>
<!-- Node5 -->
<g id="node6" class="node">
<title>Node5</title>
<g id="a_node6"><a xlink:href="structtracktion__engine_1_1PluginWetDryAutomatableParam.html" target="_top" xlink:title="specialised AutomatableParameter for wet/dry. ">
<polygon fill="none" stroke="#000000" points="406,-1361 406,-1391 540,-1391 540,-1361 406,-1361"/>
<text text-anchor="start" x="414" y="-1379" font-family="Helvetica,sans-Serif" font-size="10.00" fill="#000000">tracktion_engine::Plugin</text>
<text text-anchor="middle" x="473" y="-1368" font-family="Helvetica,sans-Serif" font-size="10.00" fill="#000000">WetDryAutomatableParam</text>
</a>
</g>
</g>
<!-- Node1&#45;&gt;Node5 -->
<g id="edge5" class="edge">
<title>Node1&#45;&gt;Node5</title>
<path fill="none" stroke="#191970" d="M344.1331,-1389.279C364.6395,-1387.166 386.2846,-1384.9355 405.8593,-1382.9185"/>
<polygon fill="#191970" stroke="#191970" points="343.7605,-1385.7988 334.1719,-1390.3055 344.4781,-1392.7619 343.7605,-1385.7988"/>
</g>
<!-- Node6 -->
<g id="node7" class="node">
<title>Node6</title>
<g id="a_node7"><a xlink:href="structtracktion__engine_1_1SuffixedParameter.html" target="_top" xlink:title="tracktion_engine::Suffixed\lParameter">
<polygon fill="none" stroke="#000000" points="408,-1312 408,-1342 538,-1342 538,-1312 408,-1312"/>
<text text-anchor="start" x="416" y="-1330" font-family="Helvetica,sans-Serif" font-size="10.00" fill="#000000">tracktion_engine::Suffixed</text>
<text text-anchor="middle" x="473" y="-1319" font-family="Helvetica,sans-Serif" font-size="10.00" fill="#000000">Parameter</text>
</a>
</g>
</g>
<!-- Node1&#45;&gt;Node6 -->
<g id="edge6" class="edge">
<title>Node1&#45;&gt;Node6</title>
<path fill="none" stroke="#191970" d="M304.9597,-1379.1777C327.0975,-1370.3527 354.2253,-1360.0371 379,-1352 389.762,-1348.5087 401.3294,-1345.1325 412.5436,-1342.0502"/>
<polygon fill="#191970" stroke="#191970" points="303.4574,-1376.0093 295.4833,-1382.9854 306.0673,-1382.5046 303.4574,-1376.0093"/>
</g>
<!-- Node8 -->
<g id="node9" class="node">
<title>Node8</title>
<g id="a_node9"><a xlink:href="classtracktion__engine_1_1AlphaTrackControlSurface.html" target="_top" xlink:title="tracktion_engine::AlphaTrack\lControlSurface">
<polygon fill="none" stroke="#000000" points="401.5,-1263 401.5,-1293 544.5,-1293 544.5,-1263 401.5,-1263"/>
<text text-anchor="start" x="409.5" y="-1281" font-family="Helvetica,sans-Serif" font-size="10.00" fill="#000000">tracktion_engine::AlphaTrack</text>
<text text-anchor="middle" x="473" y="-1270" font-family="Helvetica,sans-Serif" font-size="10.00" fill="#000000">ControlSurface</text>
</a>
</g>
</g>
<!-- Node7&#45;&gt;Node8 -->
<g id="edge8" class="edge">
<title>Node7&#45;&gt;Node8</title>
<path fill="none" stroke="#191970" d="M272.8305,-1133.2977C291.9773,-1165.8603 330.3755,-1223.1244 379,-1254 385.825,-1258.3337 393.3952,-1261.886 401.1914,-1264.7976"/>
<polygon fill="#191970" stroke="#191970" points="275.7492,-1131.3521 267.7319,-1124.4259 269.6801,-1134.8401 275.7492,-1131.3521"/>
</g>
<!-- Node9 -->
<g id="node10" class="node">
<title>Node9</title>
<g id="a_node10"><a xlink:href="classtracktion__engine_1_1CustomControlSurface.html" target="_top" xlink:title="tracktion_engine::Custom\lControlSurface">
<polygon fill="none" stroke="#000000" points="409,-1214 409,-1244 537,-1244 537,-1214 409,-1214"/>
<text text-anchor="start" x="417" y="-1232" font-family="Helvetica,sans-Serif" font-size="10.00" fill="#000000">tracktion_engine::Custom</text>
<text text-anchor="middle" x="473" y="-1221" font-family="Helvetica,sans-Serif" font-size="10.00" fill="#000000">ControlSurface</text>
</a>
</g>
</g>
<!-- Node7&#45;&gt;Node9 -->
<g id="edge9" class="edge">
<title>Node7&#45;&gt;Node9</title>
<path fill="none" stroke="#191970" d="M281.6551,-1131.3372C304.2642,-1152.9184 341.2953,-1185.0458 379,-1204 388.3543,-1208.7024 398.6912,-1212.5935 408.986,-1215.7904"/>
<polygon fill="#191970" stroke="#191970" points="283.8959,-1128.6347 274.282,-1124.1824 279.0211,-1133.6582 283.8959,-1128.6347"/>
</g>
<!-- Node10 -->
<g id="node11" class="node">
<title>Node10</title>
<g id="a_node11"><a xlink:href="classtracktion__engine_1_1MackieC4.html" target="_top" xlink:title="tracktion_engine::MackieC4">
<polygon fill="none" stroke="#000000" points="404,-1175.5 404,-1194.5 542,-1194.5 542,-1175.5 404,-1175.5"/>
<text text-anchor="middle" x="473" y="-1182.5" font-family="Helvetica,sans-Serif" font-size="10.00" fill="#000000">tracktion_engine::MackieC4</text>
</a>
</g>
</g>
<!-- Node7&#45;&gt;Node10 -->
<g id="edge10" class="edge">
<title>Node7&#45;&gt;Node10</title>
<path fill="none" stroke="#191970" d="M295.3582,-1128.9626C318.6028,-1141.177 349.8731,-1156.2747 379,-1166 390.2126,-1169.7438 402.4362,-1172.8725 414.2475,-1175.4392"/>
<polygon fill="#191970" stroke="#191970" points="296.7052,-1125.7144 286.2341,-1124.0997 293.4128,-1131.8919 296.7052,-1125.7144"/>
</g>
<!-- Node11 -->
<g id="node12" class="node">
<title>Node11</title>
<g id="a_node12"><a xlink:href="classtracktion__engine_1_1MackieMCU.html" target="_top" xlink:title="tracktion_engine::MackieMCU">
<polygon fill="none" stroke="#000000" points="398.5,-1137.5 398.5,-1156.5 547.5,-1156.5 547.5,-1137.5 398.5,-1137.5"/>
<text text-anchor="middle" x="473" y="-1144.5" font-family="Helvetica,sans-Serif" font-size="10.00" fill="#000000">tracktion_engine::MackieMCU</text>
</a>
</g>
</g>
<!-- Node7&#45;&gt;Node11 -->
<g id="edge11" class="edge">
<title>Node7&#45;&gt;Node11</title>
<path fill="none" stroke="#191970" d="M332.0703,-1121.9165C360.6932,-1127.011 392.9812,-1132.7578 419.4236,-1137.4642"/>
<polygon fill="#191970" stroke="#191970" points="332.5731,-1118.4511 322.1145,-1120.1445 331.3464,-1125.3427 332.5731,-1118.4511"/>
</g>
<!-- Node12 -->
<g id="node13" class="node">
<title>Node12</title>
<g id="a_node13"><a xlink:href="classtracktion__engine_1_1MackieXT.html" target="_top" xlink:title="tracktion_engine::MackieXT">
<polygon fill="none" stroke="#000000" points="404,-1099.5 404,-1118.5 542,-1118.5 542,-1099.5 404,-1099.5"/>
<text text-anchor="middle" x="473" y="-1106.5" font-family="Helvetica,sans-Serif" font-size="10.00" fill="#000000">tracktion_engine::MackieXT</text>
</a>
</g>
</g>
<!-- Node7&#45;&gt;Node12 -->
<g id="edge12" class="edge">
<title>Node7&#45;&gt;Node12</title>
<path fill="none" stroke="#191970" d="M332.2003,-1109C355.3071,-1109 380.7914,-1109 403.655,-1109"/>
<polygon fill="#191970" stroke="#191970" points="332.1145,-1105.5001 322.1145,-1109 332.1144,-1112.5001 332.1145,-1105.5001"/>
</g>
<!-- Node13 -->
<g id="node14" class="node">
<title>Node13</title>
<g id="a_node14"><a xlink:href="classtracktion__engine_1_1NovationRemoteSl.html" target="_top" xlink:title="tracktion_engine::Novation\lRemoteSl">
<polygon fill="none" stroke="#000000" points="406.5,-1050 406.5,-1080 539.5,-1080 539.5,-1050 406.5,-1050"/>
<text text-anchor="start" x="414.5" y="-1068" font-family="Helvetica,sans-Serif" font-size="10.00" fill="#000000">tracktion_engine::Novation</text>
<text text-anchor="middle" x="473" y="-1057" font-family="Helvetica,sans-Serif" font-size="10.00" fill="#000000">RemoteSl</text>
</a>
</g>
</g>
<!-- Node7&#45;&gt;Node13 -->
<g id="edge13" class="edge">
<title>Node7&#45;&gt;Node13</title>
<path fill="none" stroke="#191970" d="M332.2242,-1094.0123C356.2175,-1089.0676 382.7718,-1083.595 406.2929,-1078.7476"/>
<polygon fill="#191970" stroke="#191970" points="331.2021,-1090.6493 322.1145,-1096.0958 332.6151,-1097.5053 331.2021,-1090.6493"/>
</g>
<!-- Node14 -->
<g id="node15" class="node">
<title>Node14</title>
<g id="a_node15"><a xlink:href="classtracktion__engine_1_1RemoteSLCompact.html" target="_top" xlink:title="tracktion_engine::Remote\lSLCompact">
<polygon fill="none" stroke="#000000" points="409,-1001 409,-1031 537,-1031 537,-1001 409,-1001"/>
<text text-anchor="start" x="417" y="-1019" font-family="Helvetica,sans-Serif" font-size="10.00" fill="#000000">tracktion_engine::Remote</text>
<text text-anchor="middle" x="473" y="-1008" font-family="Helvetica,sans-Serif" font-size="10.00" fill="#000000">SLCompact</text>
</a>
</g>
</g>
<!-- Node7&#45;&gt;Node14 -->
<g id="edge14" class="edge">
<title>Node7&#45;&gt;Node14</title>
<path fill="none" stroke="#191970" d="M290.4484,-1088.4353C313.9376,-1073.571 347.4637,-1053.9131 379,-1041 388.4546,-1037.1287 398.6904,-1033.6909 408.8101,-1030.6979"/>
<polygon fill="#191970" stroke="#191970" points="288.4935,-1085.531 281.9624,-1093.8735 292.2704,-1091.4247 288.4935,-1085.531"/>
</g>
<!-- Node15 -->
<g id="node16" class="node">
<title>Node15</title>
<g id="a_node16"><a xlink:href="classtracktion__engine_1_1TranzportControlSurface.html" target="_top" xlink:title="tracktion_engine::Tranzport\lControlSurface">
<polygon fill="none" stroke="#000000" points="405.5,-952 405.5,-982 540.5,-982 540.5,-952 405.5,-952"/>
<text text-anchor="start" x="413.5" y="-970" font-family="Helvetica,sans-Serif" font-size="10.00" fill="#000000">tracktion_engine::Tranzport</text>
<text text-anchor="middle" x="473" y="-959" font-family="Helvetica,sans-Serif" font-size="10.00" fill="#000000">ControlSurface</text>
</a>
</g>
</g>
<!-- Node7&#45;&gt;Node15 -->
<g id="edge15" class="edge">
<title>Node7&#45;&gt;Node15</title>
<path fill="none" stroke="#191970" d="M276.8462,-1085.9316C298.0539,-1059.3514 336.4196,-1016.2322 379,-992 387.0721,-987.4062 396.0146,-983.6324 405.0808,-980.5382"/>
<polygon fill="#191970" stroke="#191970" points="273.9886,-1083.904 270.5799,-1093.9355 279.5003,-1088.2192 273.9886,-1083.904"/>
</g>
<!-- Node17 -->
<g id="node18" class="node">
<title>Node17</title>
<g id="a_node18"><a xlink:href="classtracktion__engine_1_1TempoSetting.html" target="_top" xlink:title="A tempo value, as used in a TempoSequence. ">
<polygon fill="none" stroke="#000000" points="395.5,-913.5 395.5,-932.5 550.5,-932.5 550.5,-913.5 395.5,-913.5"/>
<text text-anchor="middle" x="473" y="-920.5" font-family="Helvetica,sans-Serif" font-size="10.00" fill="#000000">tracktion_engine::TempoSetting</text>
</a>
</g>
</g>
<!-- Node16&#45;&gt;Node17 -->
<g id="edge17" class="edge">
<title>Node16&#45;&gt;Node17</title>
<path fill="none" stroke="#191970" d="M342.7268,-910.1862C359.9916,-911.8844 378.1204,-913.6676 395.1825,-915.3458"/>
<polygon fill="#191970" stroke="#191970" points="342.9705,-906.6934 332.6759,-909.1976 342.2852,-913.6598 342.9705,-906.6934"/>
</g>
<!-- Node20 -->
<g id="node21" class="node">
<title>Node20</title>
<g id="a_node21"><a xlink:href="classtracktion__engine_1_1MidiInputDevice.html" target="_top" xlink:title="tracktion_engine::MidiInput\lDevice">
<polygon fill="none" stroke="#ff0000" points="406,-864 406,-894 540,-894 540,-864 406,-864"/>
<text text-anchor="start" x="414" y="-882" font-family="Helvetica,sans-Serif" font-size="10.00" fill="#000000">tracktion_engine::MidiInput</text>
<text text-anchor="middle" x="473" y="-871" font-family="Helvetica,sans-Serif" font-size="10.00" fill="#000000">Device</text>
</a>
</g>
</g>
<!-- Node19&#45;&gt;Node20 -->
<g id="edge20" class="edge">
<title>Node19&#45;&gt;Node20</title>
<path fill="none" stroke="#191970" d="M330.497,-811.0041C334.836,-812.7561 339.0424,-814.7441 343,-817 363.2115,-828.5208 358.9414,-843.215 379,-855 387.2775,-859.8633 396.5291,-863.7507 405.9106,-866.8557"/>
<polygon fill="#191970" stroke="#191970" points="331.4261,-807.6189 320.8316,-807.5333 329.0603,-814.207 331.4261,-807.6189"/>
</g>
<!-- Node23 -->
<g id="node22" class="node">
<title>Node23</title>
<g id="a_node22"><a xlink:href="classtracktion__engine_1_1WaveInputDevice.html" target="_top" xlink:title="A (virtual) audio input device. ">
<polygon fill="none" stroke="#000000" points="402.5,-815 402.5,-845 543.5,-845 543.5,-815 402.5,-815"/>
<text text-anchor="start" x="410.5" y="-833" font-family="Helvetica,sans-Serif" font-size="10.00" fill="#000000">tracktion_engine::WaveInput</text>
<text text-anchor="middle" x="473" y="-822" font-family="Helvetica,sans-Serif" font-size="10.00" fill="#000000">Device</text>
</a>
</g>
</g>
<!-- Node19&#45;&gt;Node23 -->
<g id="edge21" class="edge">
<title>Node19&#45;&gt;Node23</title>
<path fill="none" stroke="#191970" d="M333.1056,-809.0322C355.5125,-812.3906 380.0822,-816.0732 402.2933,-819.4023"/>
<polygon fill="#191970" stroke="#191970" points="333.3873,-805.5354 322.979,-807.5144 332.3497,-812.4581 333.3873,-805.5354"/>
</g>
<!-- Node25 -->
<g id="node24" class="node">
<title>Node25</title>
<g id="a_node24"><a xlink:href="structtracktion__engine_1_1InputDeviceInstance_1_1MidiInputDeviceDestination.html" target="_top" xlink:title="tracktion_engine::InputDevice\lInstance::MidiInputDeviceDestination">
<polygon fill="none" stroke="#000000" points="383,-766 383,-796 563,-796 563,-766 383,-766"/>
<text text-anchor="start" x="391" y="-784" font-family="Helvetica,sans-Serif" font-size="10.00" fill="#000000">tracktion_engine::InputDevice</text>
<text text-anchor="middle" x="473" y="-773" font-family="Helvetica,sans-Serif" font-size="10.00" fill="#000000">Instance::MidiInputDeviceDestination</text>
</a>
</g>
</g>
<!-- Node24&#45;&gt;Node25 -->
<g id="edge23" class="edge">
<title>Node24&#45;&gt;Node25</title>
<path fill="none" stroke="#191970" d="M319.4451,-738.8752C338.4597,-744.4598 359.5854,-750.576 379,-756 390.7101,-759.2715 403.2688,-762.6803 415.2724,-765.8904"/>
<polygon fill="#191970" stroke="#191970" points="320.2959,-735.4772 309.7144,-736.0098 318.3185,-742.1921 320.2959,-735.4772"/>
</g>
<!-- Node26 -->
<g id="node25" class="node">
<title>Node26</title>
<g id="a_node25"><a xlink:href="structtracktion__engine_1_1InputDeviceInstance_1_1VirtualMidiInputDeviceDestination.html" target="_top" xlink:title="tracktion_engine::InputDevice\lInstance::VirtualMidiInputDevice\lDestination">
<polygon fill="none" stroke="#000000" points="394,-705.5 394,-746.5 552,-746.5 552,-705.5 394,-705.5"/>
<text text-anchor="start" x="402" y="-734.5" font-family="Helvetica,sans-Serif" font-size="10.00" fill="#000000">tracktion_engine::InputDevice</text>
<text text-anchor="start" x="402" y="-723.5" font-family="Helvetica,sans-Serif" font-size="10.00" fill="#000000">Instance::VirtualMidiInputDevice</text>
<text text-anchor="middle" x="473" y="-712.5" font-family="Helvetica,sans-Serif" font-size="10.00" fill="#000000">Destination</text>
</a>
</g>
</g>
<!-- Node24&#45;&gt;Node26 -->
<g id="edge24" class="edge">
<title>Node24&#45;&gt;Node26</title>
<path fill="none" stroke="#191970" d="M350.846,-723.1392C365.1395,-723.474 379.8095,-723.8176 393.8015,-724.1452"/>
<polygon fill="#191970" stroke="#191970" points="350.5989,-719.6326 340.5196,-722.8974 350.4349,-726.6307 350.5989,-719.6326"/>
</g>
<!-- Node27 -->
<g id="node26" class="node">
<title>Node27</title>
<g id="a_node26"><a xlink:href="structtracktion__engine_1_1InputDeviceInstance_1_1WaveInputDeviceDestination.html" target="_top" xlink:title="tracktion_engine::InputDevice\lInstance::WaveInputDeviceDestination">
<polygon fill="none" stroke="#000000" points="379,-656 379,-686 567,-686 567,-656 379,-656"/>
<text text-anchor="start" x="387" y="-674" font-family="Helvetica,sans-Serif" font-size="10.00" fill="#000000">tracktion_engine::InputDevice</text>
<text text-anchor="middle" x="473" y="-663" font-family="Helvetica,sans-Serif" font-size="10.00" fill="#000000">Instance::WaveInputDeviceDestination</text>
</a>
</g>
</g>
<!-- Node24&#45;&gt;Node27 -->
<g id="edge25" class="edge">
<title>Node24&#45;&gt;Node27</title>
<path fill="none" stroke="#191970" d="M333.5042,-703.6688C357.9567,-697.9422 384.9472,-691.6213 408.6195,-686.0774"/>
<polygon fill="#191970" stroke="#191970" points="332.4955,-700.3103 323.557,-705.9984 334.0917,-707.1258 332.4955,-700.3103"/>
</g>
<!-- Node30 -->
<g id="node29" class="node">
<title>Node30</title>
<g id="a_node29"><a xlink:href="classtracktion__engine_1_1BreakpointOscillatorModifier.html" target="_top" xlink:title="tracktion_engine::Breakpoint\lOscillatorModifier">
<polygon fill="none" stroke="#000000" points="403,-607 403,-637 543,-637 543,-607 403,-607"/>
<text text-anchor="start" x="411" y="-625" font-family="Helvetica,sans-Serif" font-size="10.00" fill="#000000">tracktion_engine::Breakpoint</text>
<text text-anchor="middle" x="473" y="-614" font-family="Helvetica,sans-Serif" font-size="10.00" fill="#000000">OscillatorModifier</text>
</a>
</g>
</g>
<!-- Node29&#45;&gt;Node30 -->
<g id="edge28" class="edge">
<title>Node29&#45;&gt;Node30</title>
<path fill="none" stroke="#191970" d="M333.6725,-622C356.0469,-622 380.533,-622 402.6508,-622"/>
<polygon fill="#191970" stroke="#191970" points="333.5571,-618.5001 323.557,-622 333.557,-625.5001 333.5571,-618.5001"/>
</g>
<!-- Node31 -->
<g id="node30" class="node">
<title>Node31</title>
<g id="a_node30"><a xlink:href="classtracktion__engine_1_1EnvelopeFollowerModifier.html" target="_top" xlink:title="tracktion_engine::Envelope\lFollowerModifier">
<polygon fill="none" stroke="#000000" points="406,-558 406,-588 540,-588 540,-558 406,-558"/>
<text text-anchor="start" x="414" y="-576" font-family="Helvetica,sans-Serif" font-size="10.00" fill="#000000">tracktion_engine::Envelope</text>
<text text-anchor="middle" x="473" y="-565" font-family="Helvetica,sans-Serif" font-size="10.00" fill="#000000">FollowerModifier</text>
</a>
</g>
</g>
<!-- Node29&#45;&gt;Node31 -->
<g id="edge29" class="edge">
<title>Node29&#45;&gt;Node31</title>
<path fill="none" stroke="#191970" d="M311.4077,-610.2146C321.8687,-607.8322 332.7869,-605.3404 343,-603 364.1099,-598.1625 387.1411,-592.8568 407.8743,-588.0702"/>
<polygon fill="#191970" stroke="#191970" points="310.5299,-606.8248 301.556,-612.4568 312.0834,-613.6502 310.5299,-606.8248"/>
</g>
<!-- Node32 -->
<g id="node31" class="node">
<title>Node32</title>
<g id="a_node31"><a xlink:href="classtracktion__engine_1_1LFOModifier.html" target="_top" xlink:title="tracktion_engine::LFOModifier">
<polygon fill="none" stroke="#000000" points="399.5,-519.5 399.5,-538.5 546.5,-538.5 546.5,-519.5 399.5,-519.5"/>
<text text-anchor="middle" x="473" y="-526.5" font-family="Helvetica,sans-Serif" font-size="10.00" fill="#000000">tracktion_engine::LFOModifier</text>
</a>
</g>
</g>
<!-- Node29&#45;&gt;Node32 -->
<g id="edge30" class="edge">
<title>Node29&#45;&gt;Node32</title>
<path fill="none" stroke="#191970" d="M333.0867,-608.759C336.5496,-607.0617 339.8781,-605.1508 343,-603 366.753,-586.6356 355.1322,-565.1966 379,-549 385.3508,-544.6904 392.4543,-541.2838 399.835,-538.5948"/>
<polygon fill="#191970" stroke="#191970" points="331.4873,-605.6358 323.6558,-612.7716 334.2279,-612.0771 331.4873,-605.6358"/>
</g>
<!-- Node33 -->
<g id="node32" class="node">
<title>Node33</title>
<g id="a_node32"><a xlink:href="classtracktion__engine_1_1MIDITrackerModifier.html" target="_top" xlink:title="tracktion_engine::MIDITracker\lModifier">
<polygon fill="none" stroke="#000000" points="398.5,-470 398.5,-500 547.5,-500 547.5,-470 398.5,-470"/>
<text text-anchor="start" x="406.5" y="-488" font-family="Helvetica,sans-Serif" font-size="10.00" fill="#000000">tracktion_engine::MIDITracker</text>
<text text-anchor="middle" x="473" y="-477" font-family="Helvetica,sans-Serif" font-size="10.00" fill="#000000">Modifier</text>
</a>
</g>
</g>
<!-- Node29&#45;&gt;Node33 -->
<g id="edge31" class="edge">
<title>Node29&#45;&gt;Node33</title>
<path fill="none" stroke="#191970" d="M332.9836,-609.9652C336.5525,-607.9647 339.924,-605.6578 343,-603 376.537,-574.0221 345.9931,-539.5802 379,-510 384.6591,-504.9285 391.2331,-500.8674 398.2256,-497.6183"/>
<polygon fill="#191970" stroke="#191970" points="331.3018,-606.8889 323.7621,-614.3323 334.2979,-613.2154 331.3018,-606.8889"/>
</g>
<!-- Node34 -->
<g id="node33" class="node">
<title>Node34</title>
<g id="a_node33"><a xlink:href="classtracktion__engine_1_1RandomModifier.html" target="_top" xlink:title="tracktion_engine::Random\lModifier">
<polygon fill="none" stroke="#000000" points="407.5,-421 407.5,-451 538.5,-451 538.5,-421 407.5,-421"/>
<text text-anchor="start" x="415.5" y="-439" font-family="Helvetica,sans-Serif" font-size="10.00" fill="#000000">tracktion_engine::Random</text>
<text text-anchor="middle" x="473" y="-428" font-family="Helvetica,sans-Serif" font-size="10.00" fill="#000000">Modifier</text>
</a>
</g>
</g>
<!-- Node29&#45;&gt;Node34 -->
<g id="edge32" class="edge">
<title>Node29&#45;&gt;Node34</title>
<path fill="none" stroke="#191970" d="M332.6533,-610.8353C336.3962,-608.628 339.8875,-606.037 343,-603 389.5998,-557.5306 333.2309,-507.3055 379,-461 386.8348,-453.0733 396.8778,-447.5722 407.4695,-443.7727"/>
<polygon fill="#191970" stroke="#191970" points="330.9565,-607.7692 323.523,-615.3187 334.0419,-614.0526 330.9565,-607.7692"/>
</g>
<!-- Node35 -->
<g id="node34" class="node">
<title>Node35</title>
<g id="a_node34"><a xlink:href="classtracktion__engine_1_1StepModifier.html" target="_top" xlink:title="tracktion_engine::StepModifier">
<polygon fill="none" stroke="#000000" points="398.5,-382.5 398.5,-401.5 547.5,-401.5 547.5,-382.5 398.5,-382.5"/>
<text text-anchor="middle" x="473" y="-389.5" font-family="Helvetica,sans-Serif" font-size="10.00" fill="#000000">tracktion_engine::StepModifier</text>
</a>
</g>
</g>
<!-- Node29&#45;&gt;Node35 -->
<g id="edge33" class="edge">
<title>Node29&#45;&gt;Node35</title>
<path fill="none" stroke="#191970" d="M332.8784,-611.0589C336.5656,-608.7963 339.9832,-606.132 343,-603 402.9283,-540.7849 318.6347,-473.7912 379,-412 384.4799,-406.3906 391.1161,-402.1668 398.2993,-399.0089"/>
<polygon fill="#191970" stroke="#191970" points="331.1816,-607.995 323.8468,-615.6404 334.3484,-614.2377 331.1816,-607.995"/>
</g>
<!-- Node38 -->
<g id="node37" class="node">
<title>Node38</title>
<g id="a_node37"><a xlink:href="classtracktion__engine_1_1MidiOutputDevice.html" target="_top" xlink:title="tracktion_engine::MidiOutput\lDevice">
<polygon fill="none" stroke="#ff0000" points="402.5,-333 402.5,-363 543.5,-363 543.5,-333 402.5,-333"/>
<text text-anchor="start" x="410.5" y="-351" font-family="Helvetica,sans-Serif" font-size="10.00" fill="#000000">tracktion_engine::MidiOutput</text>
<text text-anchor="middle" x="473" y="-340" font-family="Helvetica,sans-Serif" font-size="10.00" fill="#000000">Device</text>
</a>
</g>
</g>
<!-- Node37&#45;&gt;Node38 -->
<g id="edge36" class="edge">
<title>Node37&#45;&gt;Node38</title>
<path fill="none" stroke="#191970" d="M330.332,-513.8222C334.9635,-511.0696 339.2614,-507.8246 343,-504 385.2079,-460.8222 336.1287,-415.5191 379,-373 385.5944,-366.4597 393.6942,-361.5758 402.348,-357.9384"/>
<polygon fill="#191970" stroke="#191970" points="328.3998,-510.8782 321.0735,-518.5317 331.5735,-517.1174 328.3998,-510.8782"/>
</g>
</g>
</svg>
