<?xml version="1.0" encoding="UTF-8" standalone="no"?>
<!DOCTYPE svg PUBLIC "-//W3C//DTD SVG 1.1//EN"
 "http://www.w3.org/Graphics/SVG/1.1/DTD/svg11.dtd">
<!-- Generated by graphviz version 2.43.0 (0)
 -->
<!-- Title: tracktion_engine::WaveAudioClip Pages: 1 -->
<svg width="470pt" height="263pt"
 viewBox="0.00 0.00 469.50 263.00" xmlns="http://www.w3.org/2000/svg" xmlns:xlink="http://www.w3.org/1999/xlink">
<g id="graph0" class="graph" transform="scale(1 1) rotate(0) translate(4 259)">
<title>tracktion_engine::WaveAudioClip</title>
<!-- Node1 -->
<g id="node1" class="node">
<title>Node1</title>
<g id="a_node1"><a xlink:title="An audio clip that uses an audio file as its source.">
<polygon fill="#bfbfbf" stroke="black" points="228,-0.5 228,-19.5 406,-19.5 406,-0.5 228,-0.5"/>
<text text-anchor="middle" x="317" y="-7.5" font-family="Helvetica,sans-Serif" font-size="10.00">tracktion_engine::WaveAudioClip</text>
</a>
</g>
</g>
<!-- Node2 -->
<g id="node2" class="node">
<title>Node2</title>
<g id="a_node2"><a xlink:href="classtracktion__engine_1_1AudioClipBase.html" target="_top" xlink:title="Base class for Clips that produce some kind of audio e.g.">
<polygon fill="none" stroke="black" points="229.5,-56.5 229.5,-75.5 404.5,-75.5 404.5,-56.5 229.5,-56.5"/>
<text text-anchor="middle" x="317" y="-63.5" font-family="Helvetica,sans-Serif" font-size="10.00">tracktion_engine::AudioClipBase</text>
</a>
</g>
</g>
<!-- Node2&#45;&gt;Node1 -->
<g id="edge1" class="edge">
<title>Node2&#45;&gt;Node1</title>
<path fill="none" stroke="midnightblue" d="M317,-45.8C317,-36.91 317,-26.78 317,-19.75"/>
<polygon fill="midnightblue" stroke="midnightblue" points="313.5,-46.08 317,-56.08 320.5,-46.08 313.5,-46.08"/>
</g>
<!-- Node3 -->
<g id="node3" class="node">
<title>Node3</title>
<g id="a_node3"><a xlink:href="classtracktion__engine_1_1Clip.html" target="_top" xlink:title="A clip in an edit.">
<polygon fill="none" stroke="black" points="181.5,-118 181.5,-137 304.5,-137 304.5,-118 181.5,-118"/>
<text text-anchor="middle" x="243" y="-125" font-family="Helvetica,sans-Serif" font-size="10.00">tracktion_engine::Clip</text>
</a>
</g>
</g>
<!-- Node3&#45;&gt;Node2 -->
<g id="edge2" class="edge">
<title>Node3&#45;&gt;Node2</title>
<path fill="none" stroke="midnightblue" d="M261.69,-111.47C275.84,-100.09 294.78,-84.87 306.42,-75.51"/>
<polygon fill="midnightblue" stroke="midnightblue" points="259.2,-108.98 253.6,-117.98 263.59,-114.44 259.2,-108.98"/>
</g>
<!-- Node4 -->
<g id="node4" class="node">
<title>Node4</title>
<g id="a_node4"><a xlink:href="classtracktion__engine_1_1TrackItem.html" target="_top" xlink:title="Base class for EditItems that live in a Track, e.g.">
<polygon fill="none" stroke="black" points="81,-179.5 81,-198.5 233,-198.5 233,-179.5 81,-179.5"/>
<text text-anchor="middle" x="157" y="-186.5" font-family="Helvetica,sans-Serif" font-size="10.00">tracktion_engine::TrackItem</text>
</a>
</g>
</g>
<!-- Node4&#45;&gt;Node3 -->
<g id="edge3" class="edge">
<title>Node4&#45;&gt;Node3</title>
<path fill="none" stroke="midnightblue" d="M177.8,-173.61C194.34,-162.17 216.92,-146.55 230.7,-137.01"/>
<polygon fill="midnightblue" stroke="midnightblue" points="175.55,-170.91 169.32,-179.48 179.54,-176.66 175.55,-170.91"/>
</g>
<!-- Node5 -->
<g id="node5" class="node">
<title>Node5</title>
<g id="a_node5"><a xlink:href="classtracktion__engine_1_1EditItem.html" target="_top" xlink:title="Base class for objects that live inside an edit &#45; e.g.">
<polygon fill="none" stroke="black" points="0,-235.5 0,-254.5 146,-254.5 146,-235.5 0,-235.5"/>
<text text-anchor="middle" x="73" y="-242.5" font-family="Helvetica,sans-Serif" font-size="10.00">tracktion_engine::EditItem</text>
</a>
</g>
</g>
<!-- Node5&#45;&gt;Node4 -->
<g id="edge4" class="edge">
<title>Node5&#45;&gt;Node4</title>
<path fill="none" stroke="midnightblue" d="M94.93,-229.9C110.34,-220 130.45,-207.07 143.54,-198.65"/>
<polygon fill="midnightblue" stroke="midnightblue" points="93.02,-226.97 86.5,-235.32 96.8,-232.86 93.02,-226.97"/>
</g>
<!-- Node6 -->
<g id="node6" class="node">
<title>Node6</title>
<g id="a_node6"><a xlink:href="classtracktion__engine_1_1Selectable.html" target="_top" xlink:title="Base class for things that can be selected, and whose properties can appear in the properties panel.">
<polygon fill="none" stroke="black" points="164.5,-235.5 164.5,-254.5 319.5,-254.5 319.5,-235.5 164.5,-235.5"/>
<text text-anchor="middle" x="242" y="-242.5" font-family="Helvetica,sans-Serif" font-size="10.00">tracktion_engine::Selectable</text>
</a>
</g>
</g>
<!-- Node6&#45;&gt;Node4 -->
<g id="edge5" class="edge">
<title>Node6&#45;&gt;Node4</title>
<path fill="none" stroke="midnightblue" d="M219.81,-229.9C204.22,-220 183.87,-207.07 170.62,-198.65"/>
<polygon fill="midnightblue" stroke="midnightblue" points="218.03,-232.92 228.34,-235.32 221.78,-227.01 218.03,-232.92"/>
</g>
<!-- Node7 -->
<g id="node7" class="node">
<title>Node7</title>
<g id="a_node7"><a xlink:href="classtracktion__engine_1_1Exportable.html" target="_top" xlink:title="An interface for objects within an edit that can be exported.">
<polygon fill="none" stroke="black" points="251.5,-179.5 251.5,-198.5 408.5,-198.5 408.5,-179.5 251.5,-179.5"/>
<text text-anchor="middle" x="330" y="-186.5" font-family="Helvetica,sans-Serif" font-size="10.00">tracktion_engine::Exportable</text>
</a>
</g>
</g>
<!-- Node7&#45;&gt;Node3 -->
<g id="edge6" class="edge">
<title>Node7&#45;&gt;Node3</title>
<path fill="none" stroke="midnightblue" d="M308.96,-173.61C292.23,-162.17 269.39,-146.55 255.44,-137.01"/>
<polygon fill="midnightblue" stroke="midnightblue" points="307.3,-176.72 317.54,-179.48 311.26,-170.94 307.3,-176.72"/>
</g>
<!-- Node8 -->
<g id="node8" class="node">
<title>Node8</title>
<g id="a_node8"><a xlink:href="structtracktion__engine_1_1RenderManager_1_1Job_1_1Listener.html" target="_top" xlink:title=" ">
<polygon fill="none" stroke="black" points="322.5,-112.5 322.5,-142.5 461.5,-142.5 461.5,-112.5 322.5,-112.5"/>
<text text-anchor="start" x="330.5" y="-130.5" font-family="Helvetica,sans-Serif" font-size="10.00">tracktion_engine::Render</text>
<text text-anchor="middle" x="392" y="-119.5" font-family="Helvetica,sans-Serif" font-size="10.00">Manager::Job::Listener</text>
</a>
</g>
</g>
<!-- Node8&#45;&gt;Node2 -->
<g id="edge7" class="edge">
<title>Node8&#45;&gt;Node2</title>
<path fill="none" stroke="midnightblue" d="M366.03,-105.89C352.98,-95.54 337.87,-83.56 327.91,-75.66"/>
<polygon fill="midnightblue" stroke="midnightblue" points="364.22,-108.93 374.23,-112.4 368.57,-103.44 364.22,-108.93"/>
</g>
</g>
</svg>
