<?xml version="1.0" encoding="UTF-8" standalone="no"?>
<!DOCTYPE svg PUBLIC "-//W3C//DTD SVG 1.1//EN"
 "http://www.w3.org/Graphics/SVG/1.1/DTD/svg11.dtd">
<!-- Generated by graphviz version 2.43.0 (0)
 -->
<!-- Title: tracktion::engine::CurveEditor Pages: 1 -->
<svg width="351pt" height="134pt"
 viewBox="0.00 0.00 351.00 134.00" xmlns="http://www.w3.org/2000/svg" xmlns:xlink="http://www.w3.org/1999/xlink">
<g id="graph0" class="graph" transform="scale(1 1) rotate(0) translate(4 130)">
<title>tracktion::engine::CurveEditor</title>
<!-- Node1 -->
<g id="Node000001" class="node">
<title>Node1</title>
<g id="a_Node000001"><a xlink:title=" ">
<polygon fill="#999999" stroke="#666666" points="343,-78 238,-78 238,-48 343,-48 343,-78"/>
<text text-anchor="start" x="246" y="-66" font-family="Helvetica,sans-Serif" font-size="10.00">tracktion::engine::</text>
<text text-anchor="middle" x="290.5" y="-55" font-family="Helvetica,sans-Serif" font-size="10.00">CurveEditor</text>
</a>
</g>
</g>
<!-- Node2 -->
<g id="Node000002" class="node">
<title>Node2</title>
<g id="a_Node000002"><a xlink:href="classtracktion_1_1engine_1_1SelectableListener.html" target="_top" xlink:title=" ">
<polygon fill="white" stroke="#666666" points="154.5,-126 47.5,-126 47.5,-96 154.5,-96 154.5,-126"/>
<text text-anchor="start" x="55.5" y="-114" font-family="Helvetica,sans-Serif" font-size="10.00">tracktion::engine::</text>
<text text-anchor="middle" x="101" y="-103" font-family="Helvetica,sans-Serif" font-size="10.00">SelectableListener</text>
</a>
</g>
</g>
<!-- Node2&#45;&gt;Node1 -->
<g id="edge1_Node000001_Node000002" class="edge">
<title>Node2&#45;&gt;Node1</title>
<g id="a_edge1_Node000001_Node000002"><a xlink:title=" ">
<path fill="none" stroke="#63b8ff" d="M164.58,-96.31C177,-93.3 189.92,-90.1 202,-87 213.59,-84.02 226.02,-80.69 237.75,-77.49"/>
<polygon fill="#63b8ff" stroke="#63b8ff" points="163.66,-92.93 154.76,-98.67 165.3,-99.74 163.66,-92.93"/>
</a>
</g>
</g>
<!-- Node3 -->
<g id="Node000003" class="node">
<title>Node3</title>
<g id="a_Node000003"><a xlink:href="classtracktion_1_1engine_1_1MouseHoverDetector.html" target="_top" xlink:title=" ">
<polygon fill="white" stroke="#666666" points="161,-78 41,-78 41,-48 161,-48 161,-78"/>
<text text-anchor="start" x="49" y="-66" font-family="Helvetica,sans-Serif" font-size="10.00">tracktion::engine::</text>
<text text-anchor="middle" x="101" y="-55" font-family="Helvetica,sans-Serif" font-size="10.00">MouseHoverDetector</text>
</a>
</g>
</g>
<!-- Node3&#45;&gt;Node1 -->
<g id="edge2_Node000001_Node000003" class="edge">
<title>Node3&#45;&gt;Node1</title>
<g id="a_edge2_Node000001_Node000003"><a xlink:title=" ">
<path fill="none" stroke="#63b8ff" d="M171.34,-63C193.3,-63 217.18,-63 237.69,-63"/>
<polygon fill="#63b8ff" stroke="#63b8ff" points="171.07,-59.5 161.07,-63 171.07,-66.5 171.07,-59.5"/>
</a>
</g>
</g>
<!-- Node4 -->
<g id="Node000004" class="node">
<title>Node4</title>
<g id="a_Node000004"><a xlink:href="structtracktion_1_1engine_1_1TransparentToMouseInTrackItemComp.html" target="_top" xlink:title=" ">
<polygon fill="white" stroke="#666666" points="202,-30 0,-30 0,0 202,0 202,-30"/>
<text text-anchor="start" x="8" y="-18" font-family="Helvetica,sans-Serif" font-size="10.00">tracktion::engine::</text>
<text text-anchor="middle" x="101" y="-7" font-family="Helvetica,sans-Serif" font-size="10.00">TransparentToMouseInTrackItemComp</text>
</a>
</g>
</g>
<!-- Node4&#45;&gt;Node1 -->
<g id="edge3_Node000001_Node000004" class="edge">
<title>Node4&#45;&gt;Node1</title>
<g id="a_edge3_Node000001_Node000004"><a xlink:title=" ">
<path fill="none" stroke="#63b8ff" d="M175.97,-32.47C184.75,-34.63 193.58,-36.84 202,-39 213.59,-41.98 226.02,-45.31 237.75,-48.51"/>
<polygon fill="#63b8ff" stroke="#63b8ff" points="176.64,-29.03 166.09,-30.06 174.98,-35.83 176.64,-29.03"/>
</a>
</g>
</g>
</g>
</svg>
