<?xml version="1.0" encoding="UTF-8" standalone="no"?>
<!DOCTYPE svg PUBLIC "-//W3C//DTD SVG 1.1//EN"
 "http://www.w3.org/Graphics/SVG/1.1/DTD/svg11.dtd">
<!-- Generated by graphviz version 2.43.0 (0)
 -->
<!-- Title: tracktion_engine::RenderManager::Job Pages: 1 -->
<svg width="530pt" height="127pt"
 viewBox="0.00 0.00 530.00 126.50" xmlns="http://www.w3.org/2000/svg" xmlns:xlink="http://www.w3.org/1999/xlink">
<g id="graph0" class="graph" transform="scale(1 1) rotate(0) translate(4 122.5)">
<title>tracktion_engine::RenderManager::Job</title>
<!-- Node1 -->
<g id="node1" class="node">
<title>Node1</title>
<g id="a_node1"><a xlink:title="The base class that all generator jobs derive from.">
<polygon fill="#bfbfbf" stroke="black" points="174,-49.5 174,-79.5 313,-79.5 313,-49.5 174,-49.5"/>
<text text-anchor="start" x="182" y="-67.5" font-family="Helvetica,sans-Serif" font-size="10.00">tracktion_engine::Render</text>
<text text-anchor="middle" x="243.5" y="-56.5" font-family="Helvetica,sans-Serif" font-size="10.00">Manager::Job</text>
</a>
</g>
</g>
<!-- Node3 -->
<g id="node3" class="node">
<title>Node3</title>
<g id="a_node3"><a xlink:href="classtracktion__engine_1_1EditRenderJob.html" target="_top" xlink:title=" ">
<polygon fill="none" stroke="black" points="349,-99 349,-118 522,-118 522,-99 349,-99"/>
<text text-anchor="middle" x="435.5" y="-106" font-family="Helvetica,sans-Serif" font-size="10.00">tracktion_engine::EditRenderJob</text>
</a>
</g>
</g>
<!-- Node1&#45;&gt;Node3 -->
<g id="edge2" class="edge">
<title>Node1&#45;&gt;Node3</title>
<path fill="none" stroke="midnightblue" d="M316.53,-81.89C327.4,-84.47 338.49,-87.08 349,-89.5 362.63,-92.64 377.51,-95.98 390.97,-98.97"/>
<polygon fill="midnightblue" stroke="midnightblue" points="317.16,-78.45 306.63,-79.54 315.54,-85.26 317.16,-78.45"/>
</g>
<!-- Node4 -->
<g id="node4" class="node">
<title>Node4</title>
<g id="a_node4"><a xlink:href="classtracktion__engine_1_1ReverseRenderJob.html" target="_top" xlink:title=" ">
<polygon fill="none" stroke="black" points="363.5,-49.5 363.5,-79.5 507.5,-79.5 507.5,-49.5 363.5,-49.5"/>
<text text-anchor="start" x="371.5" y="-67.5" font-family="Helvetica,sans-Serif" font-size="10.00">tracktion_engine::Reverse</text>
<text text-anchor="middle" x="435.5" y="-56.5" font-family="Helvetica,sans-Serif" font-size="10.00">RenderJob</text>
</a>
</g>
</g>
<!-- Node1&#45;&gt;Node4 -->
<g id="edge3" class="edge">
<title>Node1&#45;&gt;Node4</title>
<path fill="none" stroke="midnightblue" d="M323.19,-64.5C336.53,-64.5 350.32,-64.5 363.45,-64.5"/>
<polygon fill="midnightblue" stroke="midnightblue" points="323.09,-61 313.09,-64.5 323.09,-68 323.09,-61"/>
</g>
<!-- Node5 -->
<g id="node5" class="node">
<title>Node5</title>
<g id="a_node5"><a xlink:href="classtracktion__engine_1_1WarpTimeRenderJob.html" target="_top" xlink:title=" ">
<polygon fill="none" stroke="black" points="358.5,-0.5 358.5,-30.5 512.5,-30.5 512.5,-0.5 358.5,-0.5"/>
<text text-anchor="start" x="366.5" y="-18.5" font-family="Helvetica,sans-Serif" font-size="10.00">tracktion_engine::WarpTime</text>
<text text-anchor="middle" x="435.5" y="-7.5" font-family="Helvetica,sans-Serif" font-size="10.00">RenderJob</text>
</a>
</g>
</g>
<!-- Node1&#45;&gt;Node5 -->
<g id="edge4" class="edge">
<title>Node1&#45;&gt;Node5</title>
<path fill="none" stroke="midnightblue" d="M312.55,-46.95C333.41,-41.57 356.17,-35.7 376.31,-30.51"/>
<polygon fill="midnightblue" stroke="midnightblue" points="311.61,-43.58 302.8,-49.47 313.35,-50.36 311.61,-43.58"/>
</g>
<!-- Node2 -->
<g id="node2" class="node">
<title>Node2</title>
<g id="a_node2"><a xlink:href="classtracktion__engine_1_1ThreadPoolJobWithProgress.html" target="_top" xlink:title=" ">
<polygon fill="none" stroke="black" points="0,-49.5 0,-79.5 138,-79.5 138,-49.5 0,-49.5"/>
<text text-anchor="start" x="8" y="-67.5" font-family="Helvetica,sans-Serif" font-size="10.00">tracktion_engine::Thread</text>
<text text-anchor="middle" x="69" y="-56.5" font-family="Helvetica,sans-Serif" font-size="10.00">PoolJobWithProgress</text>
</a>
</g>
</g>
<!-- Node2&#45;&gt;Node1 -->
<g id="edge1" class="edge">
<title>Node2&#45;&gt;Node1</title>
<path fill="none" stroke="midnightblue" d="M148.2,-64.5C156.8,-64.5 165.5,-64.5 173.97,-64.5"/>
<polygon fill="midnightblue" stroke="midnightblue" points="148.18,-61 138.18,-64.5 148.18,-68 148.18,-61"/>
</g>
</g>
</svg>
