<?xml version="1.0" encoding="UTF-8" standalone="no"?>
<!DOCTYPE svg PUBLIC "-//W3C//DTD SVG 1.1//EN"
 "http://www.w3.org/Graphics/SVG/1.1/DTD/svg11.dtd">
<!-- Generated by graphviz version 2.40.1 (20161225.0304)
 -->
<!-- Title: tracktion_engine::SoftwareMidiOutputDevice Pages: 1 -->
<svg width="149pt" height="229pt"
 viewBox="0.00 0.00 149.00 229.00" xmlns="http://www.w3.org/2000/svg" xmlns:xlink="http://www.w3.org/1999/xlink">
<g id="graph0" class="graph" transform="scale(1 1) rotate(0) translate(4 225)">
<title>tracktion_engine::SoftwareMidiOutputDevice</title>
<!-- Node0 -->
<g id="node1" class="node">
<title>Node0</title>
<polygon fill="#bfbfbf" stroke="#000000" points="4,-.5 4,-30.5 137,-30.5 137,-.5 4,-.5"/>
<text text-anchor="start" x="12" y="-18.5" font-family="Helvetica,sans-Serif" font-size="10.00" fill="#000000">tracktion_engine::Software</text>
<text text-anchor="middle" x="70.5" y="-7.5" font-family="Helvetica,sans-Serif" font-size="10.00" fill="#000000">MidiOutputDevice</text>
</g>
<!-- Node1 -->
<g id="node2" class="node">
<title>Node1</title>
<g id="a_node2"><a xlink:href="classtracktion__engine_1_1MidiOutputDevice.html" target="_top" xlink:title="tracktion_engine::MidiOutput\lDevice">
<polygon fill="none" stroke="#000000" points="0,-67.5 0,-97.5 141,-97.5 141,-67.5 0,-67.5"/>
<text text-anchor="start" x="8" y="-85.5" font-family="Helvetica,sans-Serif" font-size="10.00" fill="#000000">tracktion_engine::MidiOutput</text>
<text text-anchor="middle" x="70.5" y="-74.5" font-family="Helvetica,sans-Serif" font-size="10.00" fill="#000000">Device</text>
</a>
</g>
</g>
<!-- Node1&#45;&gt;Node0 -->
<g id="edge1" class="edge">
<title>Node1&#45;&gt;Node0</title>
<path fill="none" stroke="#191970" d="M70.5,-57.0249C70.5,-48.128 70.5,-38.4287 70.5,-30.6432"/>
<polygon fill="#191970" stroke="#191970" points="67.0001,-57.2966 70.5,-67.2967 74.0001,-57.2967 67.0001,-57.2966"/>
</g>
<!-- Node2 -->
<g id="node3" class="node">
<title>Node2</title>
<g id="a_node3"><a xlink:href="classtracktion__engine_1_1OutputDevice.html" target="_top" xlink:title="Base class for audio or midi output devices, to which a track&#39;s output can be sent. ">
<polygon fill="none" stroke="#000000" points="9,-134.5 9,-164.5 132,-164.5 132,-134.5 9,-134.5"/>
<text text-anchor="start" x="17" y="-152.5" font-family="Helvetica,sans-Serif" font-size="10.00" fill="#000000">tracktion_engine::Output</text>
<text text-anchor="middle" x="70.5" y="-141.5" font-family="Helvetica,sans-Serif" font-size="10.00" fill="#000000">Device</text>
</a>
</g>
</g>
<!-- Node2&#45;&gt;Node1 -->
<g id="edge2" class="edge">
<title>Node2&#45;&gt;Node1</title>
<path fill="none" stroke="#191970" d="M70.5,-124.0249C70.5,-115.128 70.5,-105.4287 70.5,-97.6432"/>
<polygon fill="#191970" stroke="#191970" points="67.0001,-124.2966 70.5,-134.2967 74.0001,-124.2967 67.0001,-124.2966"/>
</g>
<!-- Node3 -->
<g id="node4" class="node">
<title>Node3</title>
<g id="a_node4"><a xlink:href="classtracktion__engine_1_1Selectable.html" target="_top" xlink:title="Base class for things that can be selected, and whose properties can appear in the properties panel...">
<polygon fill="none" stroke="#000000" points=".5,-201.5 .5,-220.5 140.5,-220.5 140.5,-201.5 .5,-201.5"/>
<text text-anchor="middle" x="70.5" y="-208.5" font-family="Helvetica,sans-Serif" font-size="10.00" fill="#000000">tracktion_engine::Selectable</text>
</a>
</g>
</g>
<!-- Node3&#45;&gt;Node2 -->
<g id="edge3" class="edge">
<title>Node3&#45;&gt;Node2</title>
<path fill="none" stroke="#191970" d="M70.5,-191.3693C70.5,-182.681 70.5,-172.6241 70.5,-164.5446"/>
<polygon fill="#191970" stroke="#191970" points="67.0001,-191.3906 70.5,-201.3906 74.0001,-191.3907 67.0001,-191.3906"/>
</g>
</g>
</svg>
