<?xml version="1.0" encoding="UTF-8" standalone="no"?>
<!DOCTYPE svg PUBLIC "-//W3C//DTD SVG 1.1//EN"
 "http://www.w3.org/Graphics/SVG/1.1/DTD/svg11.dtd">
<!-- Generated by graphviz version 2.43.0 (0)
 -->
<!-- Title: tracktion_engine::EditItem Pages: 1 -->
<svg width="807pt" height="1793pt"
 viewBox="0.00 0.00 807.00 1793.00" xmlns="http://www.w3.org/2000/svg" xmlns:xlink="http://www.w3.org/1999/xlink">
<g id="graph0" class="graph" transform="scale(1 1) rotate(0) translate(4 1789)">
<title>tracktion_engine::EditItem</title>
<!-- Node1 -->
<g id="node1" class="node">
<title>Node1</title>
<g id="a_node1"><a xlink:title="Base class for objects that live inside an edit &#45; e.g.">
<polygon fill="#bfbfbf" stroke="black" points="0,-230 0,-249 146,-249 146,-230 0,-230"/>
<text text-anchor="middle" x="73" y="-237" font-family="Helvetica,sans-Serif" font-size="10.00">tracktion_engine::EditItem</text>
</a>
</g>
</g>
<!-- Node2 -->
<g id="node2" class="node">
<title>Node2</title>
<g id="a_node2"><a xlink:href="classtracktion__engine_1_1AutomatableEditItem.html" target="_top" xlink:title="Base class for elements that have some kind of automatable parameters.">
<polygon fill="none" stroke="black" points="182,-1235.5 182,-1265.5 349,-1265.5 349,-1235.5 182,-1235.5"/>
<text text-anchor="start" x="190" y="-1253.5" font-family="Helvetica,sans-Serif" font-size="10.00">tracktion_engine::Automatable</text>
<text text-anchor="middle" x="265.5" y="-1242.5" font-family="Helvetica,sans-Serif" font-size="10.00">EditItem</text>
</a>
</g>
</g>
<!-- Node1&#45;&gt;Node2 -->
<g id="edge1" class="edge">
<title>Node1&#45;&gt;Node2</title>
<path fill="none" stroke="midnightblue" d="M77.73,-259.28C102.23,-389.34 239.94,-1120.17 261.63,-1235.25"/>
<polygon fill="midnightblue" stroke="midnightblue" points="81.12,-258.36 75.82,-249.18 74.24,-259.66 81.12,-258.36"/>
</g>
<!-- Node38 -->
<g id="node38" class="node">
<title>Node38</title>
<g id="a_node38"><a xlink:href="classtracktion__engine_1_1Track.html" target="_top" xlink:title=" ">
<polygon fill="none" stroke="black" points="200.5,-230 200.5,-249 330.5,-249 330.5,-230 200.5,-230"/>
<text text-anchor="middle" x="265.5" y="-237" font-family="Helvetica,sans-Serif" font-size="10.00">tracktion_engine::Track</text>
</a>
</g>
</g>
<!-- Node1&#45;&gt;Node38 -->
<g id="edge37" class="edge">
<title>Node1&#45;&gt;Node38</title>
<path fill="none" stroke="midnightblue" d="M156.14,-239.5C170.88,-239.5 186.05,-239.5 200.2,-239.5"/>
<polygon fill="midnightblue" stroke="midnightblue" points="156.02,-236 146.02,-239.5 156.02,-243 156.02,-236"/>
</g>
<!-- Node47 -->
<g id="node45" class="node">
<title>Node47</title>
<g id="a_node45"><a xlink:href="classtracktion__engine_1_1TrackItem.html" target="_top" xlink:title="Base class for EditItems that live in a track, e.g.">
<polygon fill="none" stroke="black" points="189.5,-88 189.5,-107 341.5,-107 341.5,-88 189.5,-88"/>
<text text-anchor="middle" x="265.5" y="-95" font-family="Helvetica,sans-Serif" font-size="10.00">tracktion_engine::TrackItem</text>
</a>
</g>
</g>
<!-- Node1&#45;&gt;Node47 -->
<g id="edge44" class="edge">
<title>Node1&#45;&gt;Node47</title>
<path fill="none" stroke="midnightblue" d="M94.95,-223.88C134.51,-194.39 219.11,-131.33 251.51,-107.18"/>
<polygon fill="midnightblue" stroke="midnightblue" points="92.72,-221.18 86.8,-229.96 96.9,-226.79 92.72,-221.18"/>
</g>
<!-- Node3 -->
<g id="node3" class="node">
<title>Node3</title>
<g id="a_node3"><a xlink:href="classtracktion__engine_1_1MacroParameterList.html" target="_top" xlink:title=" ">
<polygon fill="none" stroke="black" points="385,-1636 385,-1655 587,-1655 587,-1636 385,-1636"/>
<text text-anchor="middle" x="486" y="-1643" font-family="Helvetica,sans-Serif" font-size="10.00">tracktion_engine::MacroParameterList</text>
</a>
</g>
</g>
<!-- Node2&#45;&gt;Node3 -->
<g id="edge2" class="edge">
<title>Node2&#45;&gt;Node3</title>
<path fill="none" stroke="midnightblue" d="M266.22,-1275.76C266.93,-1343.81 278.88,-1532.17 385,-1626.5 389.23,-1630.26 393.96,-1633.37 399,-1635.95"/>
<polygon fill="midnightblue" stroke="midnightblue" points="269.72,-1275.54 266.19,-1265.55 262.72,-1275.56 269.72,-1275.54"/>
</g>
<!-- Node4 -->
<g id="node4" class="node">
<title>Node4</title>
<g id="a_node4"><a xlink:href="structtracktion__engine_1_1Modifier.html" target="_top" xlink:title=" ">
<polygon fill="none" stroke="black" points="414,-1598 414,-1617 558,-1617 558,-1598 414,-1598"/>
<text text-anchor="middle" x="486" y="-1605" font-family="Helvetica,sans-Serif" font-size="10.00">tracktion_engine::Modifier</text>
</a>
</g>
</g>
<!-- Node2&#45;&gt;Node4 -->
<g id="edge3" class="edge">
<title>Node2&#45;&gt;Node4</title>
<path fill="none" stroke="midnightblue" d="M281.21,-1274.54C324.57,-1345.37 450.59,-1551.28 479.18,-1598"/>
<polygon fill="midnightblue" stroke="midnightblue" points="284.09,-1272.54 275.89,-1265.84 278.12,-1276.2 284.09,-1272.54"/>
</g>
<!-- Node11 -->
<g id="node11" class="node">
<title>Node11</title>
<g id="a_node11"><a xlink:href="classtracktion__engine_1_1Plugin.html" target="_top" xlink:title=" ">
<polygon fill="none" stroke="black" points="419,-908 419,-927 553,-927 553,-908 419,-908"/>
<text text-anchor="middle" x="486" y="-915" font-family="Helvetica,sans-Serif" font-size="10.00">tracktion_engine::Plugin</text>
</a>
</g>
</g>
<!-- Node2&#45;&gt;Node11 -->
<g id="edge10" class="edge">
<title>Node2&#45;&gt;Node11</title>
<path fill="none" stroke="midnightblue" d="M282.1,-1226.72C325.99,-1159.83 449.21,-972.04 478.63,-927.2"/>
<polygon fill="midnightblue" stroke="midnightblue" points="279.02,-1225.05 276.46,-1235.33 284.87,-1228.89 279.02,-1225.05"/>
</g>
<!-- Node5 -->
<g id="node5" class="node">
<title>Node5</title>
<g id="a_node5"><a xlink:href="classtracktion__engine_1_1BreakpointOscillatorModifier.html" target="_top" xlink:title=" ">
<polygon fill="none" stroke="black" points="632,-1754.5 632,-1784.5 790,-1784.5 790,-1754.5 632,-1754.5"/>
<text text-anchor="start" x="640" y="-1772.5" font-family="Helvetica,sans-Serif" font-size="10.00">tracktion_engine::Breakpoint</text>
<text text-anchor="middle" x="711" y="-1761.5" font-family="Helvetica,sans-Serif" font-size="10.00">OscillatorModifier</text>
</a>
</g>
</g>
<!-- Node4&#45;&gt;Node5 -->
<g id="edge4" class="edge">
<title>Node4&#45;&gt;Node5</title>
<path fill="none" stroke="midnightblue" d="M567.93,-1614.6C574.89,-1617.58 581.4,-1621.46 587,-1626.5 628.09,-1663.45 583.45,-1706.91 623,-1745.5 626.48,-1748.89 630.39,-1751.81 634.57,-1754.33"/>
<polygon fill="midnightblue" stroke="midnightblue" points="568.8,-1611.19 558.21,-1611.07 566.42,-1617.77 568.8,-1611.19"/>
</g>
<!-- Node6 -->
<g id="node6" class="node">
<title>Node6</title>
<g id="a_node6"><a xlink:href="classtracktion__engine_1_1EnvelopeFollowerModifier.html" target="_top" xlink:title=" ">
<polygon fill="none" stroke="black" points="636.5,-1705.5 636.5,-1735.5 785.5,-1735.5 785.5,-1705.5 636.5,-1705.5"/>
<text text-anchor="start" x="644.5" y="-1723.5" font-family="Helvetica,sans-Serif" font-size="10.00">tracktion_engine::Envelope</text>
<text text-anchor="middle" x="711" y="-1712.5" font-family="Helvetica,sans-Serif" font-size="10.00">FollowerModifier</text>
</a>
</g>
</g>
<!-- Node4&#45;&gt;Node6 -->
<g id="edge5" class="edge">
<title>Node4&#45;&gt;Node6</title>
<path fill="none" stroke="midnightblue" d="M567.69,-1616C574.59,-1618.71 581.15,-1622.15 587,-1626.5 614.77,-1647.12 596.21,-1673.62 623,-1695.5 627.75,-1699.38 633.07,-1702.65 638.67,-1705.42"/>
<polygon fill="midnightblue" stroke="midnightblue" points="568.72,-1612.66 558.13,-1612.74 566.46,-1619.28 568.72,-1612.66"/>
</g>
<!-- Node7 -->
<g id="node7" class="node">
<title>Node7</title>
<g id="a_node7"><a xlink:href="classtracktion__engine_1_1LFOModifier.html" target="_top" xlink:title=" ">
<polygon fill="none" stroke="black" points="629.5,-1667 629.5,-1686 792.5,-1686 792.5,-1667 629.5,-1667"/>
<text text-anchor="middle" x="711" y="-1674" font-family="Helvetica,sans-Serif" font-size="10.00">tracktion_engine::LFOModifier</text>
</a>
</g>
</g>
<!-- Node4&#45;&gt;Node7 -->
<g id="edge6" class="edge">
<title>Node4&#45;&gt;Node7</title>
<path fill="none" stroke="midnightblue" d="M567.91,-1619.03C574.51,-1621.12 580.96,-1623.59 587,-1626.5 606.02,-1635.67 604.11,-1648.07 623,-1657.5 630.75,-1661.37 639.27,-1664.45 647.85,-1666.91"/>
<polygon fill="midnightblue" stroke="midnightblue" points="568.73,-1615.62 558.15,-1616.23 566.8,-1622.35 568.73,-1615.62"/>
</g>
<!-- Node8 -->
<g id="node8" class="node">
<title>Node8</title>
<g id="a_node8"><a xlink:href="classtracktion__engine_1_1MIDITrackerModifier.html" target="_top" xlink:title=" ">
<polygon fill="none" stroke="black" points="630.5,-1617.5 630.5,-1647.5 791.5,-1647.5 791.5,-1617.5 630.5,-1617.5"/>
<text text-anchor="start" x="638.5" y="-1635.5" font-family="Helvetica,sans-Serif" font-size="10.00">tracktion_engine::MIDITracker</text>
<text text-anchor="middle" x="711" y="-1624.5" font-family="Helvetica,sans-Serif" font-size="10.00">Modifier</text>
</a>
</g>
</g>
<!-- Node4&#45;&gt;Node8 -->
<g id="edge7" class="edge">
<title>Node4&#45;&gt;Node8</title>
<path fill="none" stroke="midnightblue" d="M568.27,-1616.61C588.47,-1618.88 610.09,-1621.3 630.22,-1623.56"/>
<polygon fill="midnightblue" stroke="midnightblue" points="568.5,-1613.11 558.17,-1615.48 567.72,-1620.07 568.5,-1613.11"/>
</g>
<!-- Node9 -->
<g id="node9" class="node">
<title>Node9</title>
<g id="a_node9"><a xlink:href="classtracktion__engine_1_1RandomModifier.html" target="_top" xlink:title=" ">
<polygon fill="none" stroke="black" points="638.5,-1568.5 638.5,-1598.5 783.5,-1598.5 783.5,-1568.5 638.5,-1568.5"/>
<text text-anchor="start" x="646.5" y="-1586.5" font-family="Helvetica,sans-Serif" font-size="10.00">tracktion_engine::Random</text>
<text text-anchor="middle" x="711" y="-1575.5" font-family="Helvetica,sans-Serif" font-size="10.00">Modifier</text>
</a>
</g>
</g>
<!-- Node4&#45;&gt;Node9 -->
<g id="edge8" class="edge">
<title>Node4&#45;&gt;Node9</title>
<path fill="none" stroke="midnightblue" d="M568.23,-1598.76C591.19,-1596.29 616,-1593.62 638.36,-1591.21"/>
<polygon fill="midnightblue" stroke="midnightblue" points="567.74,-1595.29 558.17,-1599.84 568.49,-1602.25 567.74,-1595.29"/>
</g>
<!-- Node10 -->
<g id="node10" class="node">
<title>Node10</title>
<g id="a_node10"><a xlink:href="classtracktion__engine_1_1StepModifier.html" target="_top" xlink:title=" ">
<polygon fill="none" stroke="black" points="628,-1530 628,-1549 794,-1549 794,-1530 628,-1530"/>
<text text-anchor="middle" x="711" y="-1537" font-family="Helvetica,sans-Serif" font-size="10.00">tracktion_engine::StepModifier</text>
</a>
</g>
</g>
<!-- Node4&#45;&gt;Node10 -->
<g id="edge9" class="edge">
<title>Node4&#45;&gt;Node10</title>
<path fill="none" stroke="midnightblue" d="M520.77,-1594.38C548.08,-1584.06 587.66,-1569.76 623,-1559.5 636.25,-1555.65 650.8,-1552.06 664.15,-1549.02"/>
<polygon fill="midnightblue" stroke="midnightblue" points="519.4,-1591.16 511.3,-1597.98 521.89,-1597.7 519.4,-1591.16"/>
</g>
<!-- Node12 -->
<g id="node12" class="node">
<title>Node12</title>
<g id="a_node12"><a xlink:href="classtracktion__engine_1_1AirWindowsPlugin.html" target="_top" xlink:title=" ">
<polygon fill="none" stroke="black" points="630,-1480.5 630,-1510.5 792,-1510.5 792,-1480.5 630,-1480.5"/>
<text text-anchor="start" x="638" y="-1498.5" font-family="Helvetica,sans-Serif" font-size="10.00">tracktion_engine::AirWindows</text>
<text text-anchor="middle" x="711" y="-1487.5" font-family="Helvetica,sans-Serif" font-size="10.00">Plugin</text>
</a>
</g>
</g>
<!-- Node11&#45;&gt;Node12 -->
<g id="edge11" class="edge">
<title>Node11&#45;&gt;Node12</title>
<path fill="none" stroke="midnightblue" d="M489.2,-937.37C499.48,-1026.89 545.63,-1391.9 623,-1471.5 626.28,-1474.87 629.98,-1477.78 633.96,-1480.29"/>
<polygon fill="midnightblue" stroke="midnightblue" points="492.65,-936.77 488.05,-927.23 485.7,-937.56 492.65,-936.77"/>
</g>
<!-- Node13 -->
<g id="node13" class="node">
<title>Node13</title>
<g id="a_node13"><a xlink:href="classtracktion__engine_1_1AuxReturnPlugin.html" target="_top" xlink:title=" ">
<polygon fill="none" stroke="black" points="633.5,-1431.5 633.5,-1461.5 788.5,-1461.5 788.5,-1431.5 633.5,-1431.5"/>
<text text-anchor="start" x="641.5" y="-1449.5" font-family="Helvetica,sans-Serif" font-size="10.00">tracktion_engine::AuxReturn</text>
<text text-anchor="middle" x="711" y="-1438.5" font-family="Helvetica,sans-Serif" font-size="10.00">Plugin</text>
</a>
</g>
</g>
<!-- Node11&#45;&gt;Node13 -->
<g id="edge12" class="edge">
<title>Node11&#45;&gt;Node13</title>
<path fill="none" stroke="midnightblue" d="M489.68,-937.2C501.51,-1021.5 551.71,-1350.77 623,-1422.5 626.42,-1425.95 630.29,-1428.91 634.45,-1431.45"/>
<polygon fill="midnightblue" stroke="midnightblue" points="493.13,-936.61 488.29,-927.18 486.19,-937.57 493.13,-936.61"/>
</g>
<!-- Node14 -->
<g id="node14" class="node">
<title>Node14</title>
<g id="a_node14"><a xlink:href="classtracktion__engine_1_1AuxSendPlugin.html" target="_top" xlink:title=" ">
<polygon fill="none" stroke="black" points="637.5,-1382.5 637.5,-1412.5 784.5,-1412.5 784.5,-1382.5 637.5,-1382.5"/>
<text text-anchor="start" x="645.5" y="-1400.5" font-family="Helvetica,sans-Serif" font-size="10.00">tracktion_engine::AuxSend</text>
<text text-anchor="middle" x="711" y="-1389.5" font-family="Helvetica,sans-Serif" font-size="10.00">Plugin</text>
</a>
</g>
</g>
<!-- Node11&#45;&gt;Node14 -->
<g id="edge13" class="edge">
<title>Node11&#45;&gt;Node14</title>
<path fill="none" stroke="midnightblue" d="M486.59,-937.36C486.27,-1007.8 494.98,-1248.1 623,-1373.5 627.25,-1377.67 632.16,-1381.12 637.43,-1383.99"/>
<polygon fill="midnightblue" stroke="midnightblue" points="490.09,-937.27 486.71,-927.23 483.09,-937.19 490.09,-937.27"/>
</g>
<!-- Node15 -->
<g id="node15" class="node">
<title>Node15</title>
<g id="a_node15"><a xlink:href="classtracktion__engine_1_1ChorusPlugin.html" target="_top" xlink:title=" ">
<polygon fill="none" stroke="black" points="642,-1333.5 642,-1363.5 780,-1363.5 780,-1333.5 642,-1333.5"/>
<text text-anchor="start" x="650" y="-1351.5" font-family="Helvetica,sans-Serif" font-size="10.00">tracktion_engine::Chorus</text>
<text text-anchor="middle" x="711" y="-1340.5" font-family="Helvetica,sans-Serif" font-size="10.00">Plugin</text>
</a>
</g>
</g>
<!-- Node11&#45;&gt;Node15 -->
<g id="edge14" class="edge">
<title>Node11&#45;&gt;Node15</title>
<path fill="none" stroke="midnightblue" d="M487.42,-937.35C489.9,-1002.89 506.97,-1214.5 623,-1324.5 628.46,-1329.67 634.93,-1333.75 641.84,-1336.96"/>
<polygon fill="midnightblue" stroke="midnightblue" points="490.91,-937.06 487.11,-927.17 483.91,-937.28 490.91,-937.06"/>
</g>
<!-- Node16 -->
<g id="node16" class="node">
<title>Node16</title>
<g id="a_node16"><a xlink:href="classtracktion__engine_1_1CompressorPlugin.html" target="_top" xlink:title=" ">
<polygon fill="none" stroke="black" points="629.5,-1284.5 629.5,-1314.5 792.5,-1314.5 792.5,-1284.5 629.5,-1284.5"/>
<text text-anchor="start" x="637.5" y="-1302.5" font-family="Helvetica,sans-Serif" font-size="10.00">tracktion_engine::Compressor</text>
<text text-anchor="middle" x="711" y="-1291.5" font-family="Helvetica,sans-Serif" font-size="10.00">Plugin</text>
</a>
</g>
</g>
<!-- Node11&#45;&gt;Node16 -->
<g id="edge15" class="edge">
<title>Node11&#45;&gt;Node16</title>
<path fill="none" stroke="midnightblue" d="M488.51,-937.21C494.18,-997.23 519.56,-1179.42 623,-1274.5 627.17,-1278.33 631.88,-1281.57 636.91,-1284.33"/>
<polygon fill="midnightblue" stroke="midnightblue" points="491.99,-936.85 487.64,-927.18 485.02,-937.45 491.99,-936.85"/>
</g>
<!-- Node17 -->
<g id="node17" class="node">
<title>Node17</title>
<g id="a_node17"><a xlink:href="classtracktion__engine_1_1DelayPlugin.html" target="_top" xlink:title=" ">
<polygon fill="none" stroke="black" points="629.5,-1246 629.5,-1265 792.5,-1265 792.5,-1246 629.5,-1246"/>
<text text-anchor="middle" x="711" y="-1253" font-family="Helvetica,sans-Serif" font-size="10.00">tracktion_engine::DelayPlugin</text>
</a>
</g>
</g>
<!-- Node11&#45;&gt;Node17 -->
<g id="edge16" class="edge">
<title>Node11&#45;&gt;Node17</title>
<path fill="none" stroke="midnightblue" d="M489.21,-937.24C496.6,-993.55 525.81,-1156.05 623,-1236.5 627.64,-1240.34 632.89,-1243.46 638.45,-1245.98"/>
<polygon fill="midnightblue" stroke="midnightblue" points="492.66,-936.68 487.97,-927.18 485.72,-937.53 492.66,-936.68"/>
</g>
<!-- Node18 -->
<g id="node18" class="node">
<title>Node18</title>
<g id="a_node18"><a xlink:href="classtracktion__engine_1_1EqualiserPlugin.html" target="_top" xlink:title=" ">
<polygon fill="none" stroke="black" points="636.5,-1196.5 636.5,-1226.5 785.5,-1226.5 785.5,-1196.5 636.5,-1196.5"/>
<text text-anchor="start" x="644.5" y="-1214.5" font-family="Helvetica,sans-Serif" font-size="10.00">tracktion_engine::Equaliser</text>
<text text-anchor="middle" x="711" y="-1203.5" font-family="Helvetica,sans-Serif" font-size="10.00">Plugin</text>
</a>
</g>
</g>
<!-- Node11&#45;&gt;Node18 -->
<g id="edge17" class="edge">
<title>Node11&#45;&gt;Node18</title>
<path fill="none" stroke="midnightblue" d="M491.06,-936.92C502.47,-986.59 539.6,-1119.13 623,-1187.5 627.24,-1190.98 631.95,-1193.95 636.92,-1196.5"/>
<polygon fill="midnightblue" stroke="midnightblue" points="494.47,-936.15 488.9,-927.14 487.64,-937.66 494.47,-936.15"/>
</g>
<!-- Node19 -->
<g id="node19" class="node">
<title>Node19</title>
<g id="a_node19"><a xlink:href="classtracktion__engine_1_1ExternalPlugin.html" target="_top" xlink:title=" ">
<polygon fill="none" stroke="black" points="638.5,-1147.5 638.5,-1177.5 783.5,-1177.5 783.5,-1147.5 638.5,-1147.5"/>
<text text-anchor="start" x="646.5" y="-1165.5" font-family="Helvetica,sans-Serif" font-size="10.00">tracktion_engine::External</text>
<text text-anchor="middle" x="711" y="-1154.5" font-family="Helvetica,sans-Serif" font-size="10.00">Plugin</text>
</a>
</g>
</g>
<!-- Node11&#45;&gt;Node19 -->
<g id="edge18" class="edge">
<title>Node11&#45;&gt;Node19</title>
<path fill="none" stroke="midnightblue" d="M493.32,-936.8C508.45,-979.89 550.94,-1084.38 623,-1138.5 627.64,-1141.98 632.75,-1144.96 638.1,-1147.5"/>
<polygon fill="midnightblue" stroke="midnightblue" points="496.6,-935.57 490.06,-927.24 489.98,-937.83 496.6,-935.57"/>
</g>
<!-- Node20 -->
<g id="node20" class="node">
<title>Node20</title>
<g id="a_node20"><a xlink:href="classtracktion__engine_1_1FourOscPlugin.html" target="_top" xlink:title=" ">
<polygon fill="none" stroke="black" points="639.5,-1098.5 639.5,-1128.5 782.5,-1128.5 782.5,-1098.5 639.5,-1098.5"/>
<text text-anchor="start" x="647.5" y="-1116.5" font-family="Helvetica,sans-Serif" font-size="10.00">tracktion_engine::FourOsc</text>
<text text-anchor="middle" x="711" y="-1105.5" font-family="Helvetica,sans-Serif" font-size="10.00">Plugin</text>
</a>
</g>
</g>
<!-- Node11&#45;&gt;Node20 -->
<g id="edge19" class="edge">
<title>Node11&#45;&gt;Node20</title>
<path fill="none" stroke="midnightblue" d="M496.54,-936.27C515.58,-971.79 561.78,-1048.91 623,-1089.5 628.22,-1092.96 633.94,-1095.93 639.86,-1098.47"/>
<polygon fill="midnightblue" stroke="midnightblue" points="499.45,-934.28 491.71,-927.04 493.25,-937.53 499.45,-934.28"/>
</g>
<!-- Node21 -->
<g id="node21" class="node">
<title>Node21</title>
<g id="a_node21"><a xlink:href="classtracktion__engine_1_1FreezePointPlugin.html" target="_top" xlink:title=" ">
<polygon fill="none" stroke="black" points="642.5,-1049.5 642.5,-1079.5 779.5,-1079.5 779.5,-1049.5 642.5,-1049.5"/>
<text text-anchor="start" x="650.5" y="-1067.5" font-family="Helvetica,sans-Serif" font-size="10.00">tracktion_engine::Freeze</text>
<text text-anchor="middle" x="711" y="-1056.5" font-family="Helvetica,sans-Serif" font-size="10.00">PointPlugin</text>
</a>
</g>
</g>
<!-- Node11&#45;&gt;Node21 -->
<g id="edge20" class="edge">
<title>Node11&#45;&gt;Node21</title>
<path fill="none" stroke="midnightblue" d="M501.35,-934.88C524.29,-961.56 571.89,-1012.43 623,-1040.5 629.18,-1043.89 635.88,-1046.84 642.71,-1049.38"/>
<polygon fill="midnightblue" stroke="midnightblue" points="503.92,-932.51 494.79,-927.13 498.58,-937.03 503.92,-932.51"/>
</g>
<!-- Node22 -->
<g id="node22" class="node">
<title>Node22</title>
<g id="a_node22"><a xlink:href="classtracktion__engine_1_1InsertPlugin.html" target="_top" xlink:title=" ">
<polygon fill="none" stroke="black" points="645,-1000.5 645,-1030.5 777,-1030.5 777,-1000.5 645,-1000.5"/>
<text text-anchor="start" x="653" y="-1018.5" font-family="Helvetica,sans-Serif" font-size="10.00">tracktion_engine::Insert</text>
<text text-anchor="middle" x="711" y="-1007.5" font-family="Helvetica,sans-Serif" font-size="10.00">Plugin</text>
</a>
</g>
</g>
<!-- Node11&#45;&gt;Node22 -->
<g id="edge21" class="edge">
<title>Node11&#45;&gt;Node22</title>
<path fill="none" stroke="midnightblue" d="M510.51,-932.46C537,-948.8 581.75,-974.85 623,-991.5 631.14,-994.79 639.88,-997.78 648.57,-1000.46"/>
<polygon fill="midnightblue" stroke="midnightblue" points="512.28,-929.44 501.94,-927.12 508.58,-935.38 512.28,-929.44"/>
</g>
<!-- Node23 -->
<g id="node23" class="node">
<title>Node23</title>
<g id="a_node23"><a xlink:href="classtracktion__engine_1_1LatencyPlugin.html" target="_top" xlink:title="A test plugin that introduces latency to the incomming signal.">
<polygon fill="none" stroke="black" points="639.5,-951.5 639.5,-981.5 782.5,-981.5 782.5,-951.5 639.5,-951.5"/>
<text text-anchor="start" x="647.5" y="-969.5" font-family="Helvetica,sans-Serif" font-size="10.00">tracktion_engine::Latency</text>
<text text-anchor="middle" x="711" y="-958.5" font-family="Helvetica,sans-Serif" font-size="10.00">Plugin</text>
</a>
</g>
</g>
<!-- Node11&#45;&gt;Node23 -->
<g id="edge22" class="edge">
<title>Node11&#45;&gt;Node23</title>
<path fill="none" stroke="midnightblue" d="M540.22,-929.19C570.54,-935.86 608.85,-944.27 641.41,-951.43"/>
<polygon fill="midnightblue" stroke="midnightblue" points="540.78,-925.73 530.26,-927.01 539.28,-932.57 540.78,-925.73"/>
</g>
<!-- Node24 -->
<g id="node24" class="node">
<title>Node24</title>
<g id="a_node24"><a xlink:href="classtracktion__engine_1_1LevelMeterPlugin.html" target="_top" xlink:title=" ">
<polygon fill="none" stroke="black" points="631.5,-902.5 631.5,-932.5 790.5,-932.5 790.5,-902.5 631.5,-902.5"/>
<text text-anchor="start" x="639.5" y="-920.5" font-family="Helvetica,sans-Serif" font-size="10.00">tracktion_engine::LevelMeter</text>
<text text-anchor="middle" x="711" y="-909.5" font-family="Helvetica,sans-Serif" font-size="10.00">Plugin</text>
</a>
</g>
</g>
<!-- Node11&#45;&gt;Node24 -->
<g id="edge23" class="edge">
<title>Node11&#45;&gt;Node24</title>
<path fill="none" stroke="midnightblue" d="M563.25,-917.5C585.16,-917.5 609.1,-917.5 631.17,-917.5"/>
<polygon fill="midnightblue" stroke="midnightblue" points="563,-914 553,-917.5 563,-921 563,-914"/>
</g>
<!-- Node25 -->
<g id="node25" class="node">
<title>Node25</title>
<g id="a_node25"><a xlink:href="classtracktion__engine_1_1LowPassPlugin.html" target="_top" xlink:title=" ">
<polygon fill="none" stroke="black" points="638,-853.5 638,-883.5 784,-883.5 784,-853.5 638,-853.5"/>
<text text-anchor="start" x="646" y="-871.5" font-family="Helvetica,sans-Serif" font-size="10.00">tracktion_engine::LowPass</text>
<text text-anchor="middle" x="711" y="-860.5" font-family="Helvetica,sans-Serif" font-size="10.00">Plugin</text>
</a>
</g>
</g>
<!-- Node11&#45;&gt;Node25 -->
<g id="edge24" class="edge">
<title>Node11&#45;&gt;Node25</title>
<path fill="none" stroke="midnightblue" d="M540.22,-905.81C570.54,-899.14 608.85,-890.73 641.41,-883.57"/>
<polygon fill="midnightblue" stroke="midnightblue" points="539.28,-902.43 530.26,-907.99 540.78,-909.27 539.28,-902.43"/>
</g>
<!-- Node26 -->
<g id="node26" class="node">
<title>Node26</title>
<g id="a_node26"><a xlink:href="classtracktion__engine_1_1MidiModifierPlugin.html" target="_top" xlink:title=" ">
<polygon fill="none" stroke="black" points="628.5,-804.5 628.5,-834.5 793.5,-834.5 793.5,-804.5 628.5,-804.5"/>
<text text-anchor="start" x="636.5" y="-822.5" font-family="Helvetica,sans-Serif" font-size="10.00">tracktion_engine::MidiModifier</text>
<text text-anchor="middle" x="711" y="-811.5" font-family="Helvetica,sans-Serif" font-size="10.00">Plugin</text>
</a>
</g>
</g>
<!-- Node11&#45;&gt;Node26 -->
<g id="edge25" class="edge">
<title>Node11&#45;&gt;Node26</title>
<path fill="none" stroke="midnightblue" d="M511.01,-902.58C537.6,-886.54 582.14,-861.11 623,-844.5 631.88,-840.89 641.47,-837.58 650.92,-834.63"/>
<polygon fill="midnightblue" stroke="midnightblue" points="509.1,-899.64 502.38,-907.83 512.74,-905.62 509.1,-899.64"/>
</g>
<!-- Node27 -->
<g id="node27" class="node">
<title>Node27</title>
<g id="a_node27"><a xlink:href="classtracktion__engine_1_1MidiPatchBayPlugin.html" target="_top" xlink:title=" ">
<polygon fill="none" stroke="black" points="635,-755.5 635,-785.5 787,-785.5 787,-755.5 635,-755.5"/>
<text text-anchor="start" x="643" y="-773.5" font-family="Helvetica,sans-Serif" font-size="10.00">tracktion_engine::MidiPatch</text>
<text text-anchor="middle" x="711" y="-762.5" font-family="Helvetica,sans-Serif" font-size="10.00">BayPlugin</text>
</a>
</g>
</g>
<!-- Node11&#45;&gt;Node27 -->
<g id="edge26" class="edge">
<title>Node11&#45;&gt;Node27</title>
<path fill="none" stroke="midnightblue" d="M501.41,-900.33C524.45,-873.97 572.17,-823.64 623,-795.5 629.87,-791.69 637.38,-788.42 645.01,-785.62"/>
<polygon fill="midnightblue" stroke="midnightblue" points="498.7,-898.12 494.83,-907.99 504,-902.69 498.7,-898.12"/>
</g>
<!-- Node28 -->
<g id="node28" class="node">
<title>Node28</title>
<g id="a_node28"><a xlink:href="classtracktion__engine_1_1PatchBayPlugin.html" target="_top" xlink:title=" ">
<polygon fill="none" stroke="black" points="636.5,-706.5 636.5,-736.5 785.5,-736.5 785.5,-706.5 636.5,-706.5"/>
<text text-anchor="start" x="644.5" y="-724.5" font-family="Helvetica,sans-Serif" font-size="10.00">tracktion_engine::PatchBay</text>
<text text-anchor="middle" x="711" y="-713.5" font-family="Helvetica,sans-Serif" font-size="10.00">Plugin</text>
</a>
</g>
</g>
<!-- Node11&#45;&gt;Node28 -->
<g id="edge27" class="edge">
<title>Node11&#45;&gt;Node28</title>
<path fill="none" stroke="midnightblue" d="M496.89,-898.4C516.21,-862.96 562.44,-786.99 623,-746.5 628.75,-742.66 635.09,-739.4 641.65,-736.63"/>
<polygon fill="midnightblue" stroke="midnightblue" points="493.58,-897.16 491.96,-907.63 499.75,-900.45 493.58,-897.16"/>
</g>
<!-- Node29 -->
<g id="node29" class="node">
<title>Node29</title>
<g id="a_node29"><a xlink:href="classtracktion__engine_1_1PhaserPlugin.html" target="_top" xlink:title=" ">
<polygon fill="none" stroke="black" points="642.5,-657.5 642.5,-687.5 779.5,-687.5 779.5,-657.5 642.5,-657.5"/>
<text text-anchor="start" x="650.5" y="-675.5" font-family="Helvetica,sans-Serif" font-size="10.00">tracktion_engine::Phaser</text>
<text text-anchor="middle" x="711" y="-664.5" font-family="Helvetica,sans-Serif" font-size="10.00">Plugin</text>
</a>
</g>
</g>
<!-- Node11&#45;&gt;Node29 -->
<g id="edge28" class="edge">
<title>Node11&#45;&gt;Node29</title>
<path fill="none" stroke="midnightblue" d="M493.39,-898.34C508.66,-855.56 551.41,-751.75 623,-697.5 628.89,-693.04 635.54,-689.37 642.49,-686.36"/>
<polygon fill="midnightblue" stroke="midnightblue" points="490.07,-897.24 490.1,-907.84 496.68,-899.53 490.07,-897.24"/>
</g>
<!-- Node30 -->
<g id="node30" class="node">
<title>Node30</title>
<g id="a_node30"><a xlink:href="classtracktion__engine_1_1PitchShiftPlugin.html" target="_top" xlink:title=" ">
<polygon fill="none" stroke="black" points="636,-608.5 636,-638.5 786,-638.5 786,-608.5 636,-608.5"/>
<text text-anchor="start" x="644" y="-626.5" font-family="Helvetica,sans-Serif" font-size="10.00">tracktion_engine::PitchShift</text>
<text text-anchor="middle" x="711" y="-615.5" font-family="Helvetica,sans-Serif" font-size="10.00">Plugin</text>
</a>
</g>
</g>
<!-- Node11&#45;&gt;Node30 -->
<g id="edge29" class="edge">
<title>Node11&#45;&gt;Node30</title>
<path fill="none" stroke="midnightblue" d="M491.2,-897.89C502.85,-848.28 540.34,-716.9 623,-648.5 627.72,-644.59 633.02,-641.3 638.62,-638.51"/>
<polygon fill="midnightblue" stroke="midnightblue" points="487.72,-897.4 488.93,-907.92 494.55,-898.94 487.72,-897.4"/>
</g>
<!-- Node31 -->
<g id="node31" class="node">
<title>Node31</title>
<g id="a_node31"><a xlink:href="classtracktion__engine_1_1RackInstance.html" target="_top" xlink:title=" ">
<polygon fill="none" stroke="black" points="626,-570 626,-589 796,-589 796,-570 626,-570"/>
<text text-anchor="middle" x="711" y="-577" font-family="Helvetica,sans-Serif" font-size="10.00">tracktion_engine::RackInstance</text>
</a>
</g>
</g>
<!-- Node11&#45;&gt;Node31 -->
<g id="edge30" class="edge">
<title>Node11&#45;&gt;Node31</title>
<path fill="none" stroke="midnightblue" d="M489.27,-897.87C496.84,-841.88 526.46,-680.21 623,-599.5 628.11,-595.23 633.96,-591.82 640.16,-589.12"/>
<polygon fill="midnightblue" stroke="midnightblue" points="485.79,-897.52 488.01,-907.88 492.73,-898.4 485.79,-897.52"/>
</g>
<!-- Node32 -->
<g id="node32" class="node">
<title>Node32</title>
<g id="a_node32"><a xlink:href="classtracktion__engine_1_1ReverbPlugin.html" target="_top" xlink:title=" ">
<polygon fill="none" stroke="black" points="641.5,-520.5 641.5,-550.5 780.5,-550.5 780.5,-520.5 641.5,-520.5"/>
<text text-anchor="start" x="649.5" y="-538.5" font-family="Helvetica,sans-Serif" font-size="10.00">tracktion_engine::Reverb</text>
<text text-anchor="middle" x="711" y="-527.5" font-family="Helvetica,sans-Serif" font-size="10.00">Plugin</text>
</a>
</g>
</g>
<!-- Node11&#45;&gt;Node32 -->
<g id="edge31" class="edge">
<title>Node11&#45;&gt;Node32</title>
<path fill="none" stroke="midnightblue" d="M488.51,-897.79C494.18,-837.77 519.56,-655.58 623,-560.5 628.32,-555.61 634.54,-551.67 641.16,-548.49"/>
<polygon fill="midnightblue" stroke="midnightblue" points="485.02,-897.55 487.64,-907.82 491.99,-898.15 485.02,-897.55"/>
</g>
<!-- Node33 -->
<g id="node33" class="node">
<title>Node33</title>
<g id="a_node33"><a xlink:href="classtracktion__engine_1_1SamplerPlugin.html" target="_top" xlink:title=" ">
<polygon fill="none" stroke="black" points="638.5,-471.5 638.5,-501.5 783.5,-501.5 783.5,-471.5 638.5,-471.5"/>
<text text-anchor="start" x="646.5" y="-489.5" font-family="Helvetica,sans-Serif" font-size="10.00">tracktion_engine::Sampler</text>
<text text-anchor="middle" x="711" y="-478.5" font-family="Helvetica,sans-Serif" font-size="10.00">Plugin</text>
</a>
</g>
</g>
<!-- Node11&#45;&gt;Node33 -->
<g id="edge32" class="edge">
<title>Node11&#45;&gt;Node33</title>
<path fill="none" stroke="midnightblue" d="M487.48,-897.75C490.16,-832.51 507.77,-621.83 623,-511.5 627.54,-507.15 632.79,-503.55 638.41,-500.57"/>
<polygon fill="midnightblue" stroke="midnightblue" points="483.98,-897.76 487.14,-907.87 490.97,-898 483.98,-897.76"/>
</g>
<!-- Node34 -->
<g id="node34" class="node">
<title>Node34</title>
<g id="a_node34"><a xlink:href="classtracktion__engine_1_1TextPlugin.html" target="_top" xlink:title=" ">
<polygon fill="none" stroke="black" points="633.5,-433 633.5,-452 788.5,-452 788.5,-433 633.5,-433"/>
<text text-anchor="middle" x="711" y="-440" font-family="Helvetica,sans-Serif" font-size="10.00">tracktion_engine::TextPlugin</text>
</a>
</g>
</g>
<!-- Node11&#45;&gt;Node34 -->
<g id="edge33" class="edge">
<title>Node11&#45;&gt;Node34</title>
<path fill="none" stroke="midnightblue" d="M486.42,-897.48C485.52,-826.54 492.53,-584.82 623,-462.5 627.52,-458.26 632.76,-454.86 638.37,-452.13"/>
<polygon fill="midnightblue" stroke="midnightblue" points="482.92,-897.76 486.62,-907.69 489.92,-897.63 482.92,-897.76"/>
</g>
<!-- Node35 -->
<g id="node35" class="node">
<title>Node35</title>
<g id="a_node35"><a xlink:href="classtracktion__engine_1_1ToneGeneratorPlugin.html" target="_top" xlink:title=" ">
<polygon fill="none" stroke="black" points="623,-383.5 623,-413.5 799,-413.5 799,-383.5 623,-383.5"/>
<text text-anchor="start" x="631" y="-401.5" font-family="Helvetica,sans-Serif" font-size="10.00">tracktion_engine::ToneGenerator</text>
<text text-anchor="middle" x="711" y="-390.5" font-family="Helvetica,sans-Serif" font-size="10.00">Plugin</text>
</a>
</g>
</g>
<!-- Node11&#45;&gt;Node35 -->
<g id="edge34" class="edge">
<title>Node11&#45;&gt;Node35</title>
<path fill="none" stroke="midnightblue" d="M489.84,-897.71C502.15,-814.46 553.48,-493.8 623,-423.5 626.76,-419.7 631.05,-416.47 635.67,-413.72"/>
<polygon fill="midnightblue" stroke="midnightblue" points="486.37,-897.23 488.39,-907.63 493.3,-898.25 486.37,-897.23"/>
</g>
<!-- Node36 -->
<g id="node36" class="node">
<title>Node36</title>
<g id="a_node36"><a xlink:href="classtracktion__engine_1_1VCAPlugin.html" target="_top" xlink:title="The VCA plugin sits on a folder track to control the overall level of all the volume/pan plugins in i...">
<polygon fill="none" stroke="black" points="633.5,-345 633.5,-364 788.5,-364 788.5,-345 633.5,-345"/>
<text text-anchor="middle" x="711" y="-352" font-family="Helvetica,sans-Serif" font-size="10.00">tracktion_engine::VCAPlugin</text>
</a>
</g>
</g>
<!-- Node11&#45;&gt;Node36 -->
<g id="edge35" class="edge">
<title>Node11&#45;&gt;Node36</title>
<path fill="none" stroke="midnightblue" d="M489.18,-897.95C499.38,-809.84 545.23,-450.77 623,-374.5 627.32,-370.27 632.33,-366.86 637.74,-364.13"/>
<polygon fill="midnightblue" stroke="midnightblue" points="485.7,-897.59 488.04,-907.92 492.65,-898.38 485.7,-897.59"/>
</g>
<!-- Node37 -->
<g id="node37" class="node">
<title>Node37</title>
<g id="a_node37"><a xlink:href="classtracktion__engine_1_1VolumeAndPanPlugin.html" target="_top" xlink:title="The built&#45;in Tracktion volume/pan plugin.">
<polygon fill="none" stroke="black" points="640.5,-295.5 640.5,-325.5 781.5,-325.5 781.5,-295.5 640.5,-295.5"/>
<text text-anchor="start" x="648.5" y="-313.5" font-family="Helvetica,sans-Serif" font-size="10.00">tracktion_engine::Volume</text>
<text text-anchor="middle" x="711" y="-302.5" font-family="Helvetica,sans-Serif" font-size="10.00">AndPanPlugin</text>
</a>
</g>
</g>
<!-- Node11&#45;&gt;Node37 -->
<g id="edge36" class="edge">
<title>Node11&#45;&gt;Node37</title>
<path fill="none" stroke="midnightblue" d="M488.98,-897.54C498.51,-805.16 542.6,-420.05 623,-335.5 627.98,-330.26 633.98,-326.1 640.47,-322.79"/>
<polygon fill="midnightblue" stroke="midnightblue" points="485.47,-897.44 487.94,-907.74 492.43,-898.14 485.47,-897.44"/>
</g>
<!-- Node39 -->
<g id="node39" class="node">
<title>Node39</title>
<g id="a_node39"><a xlink:href="classtracktion__engine_1_1AutomationTrack.html" target="_top" xlink:title=" ">
<polygon fill="none" stroke="black" points="405.5,-290.5 405.5,-320.5 566.5,-320.5 566.5,-290.5 405.5,-290.5"/>
<text text-anchor="start" x="413.5" y="-308.5" font-family="Helvetica,sans-Serif" font-size="10.00">tracktion_engine::Automation</text>
<text text-anchor="middle" x="486" y="-297.5" font-family="Helvetica,sans-Serif" font-size="10.00">Track</text>
</a>
</g>
</g>
<!-- Node38&#45;&gt;Node39 -->
<g id="edge38" class="edge">
<title>Node38&#45;&gt;Node39</title>
<path fill="none" stroke="midnightblue" d="M301.69,-252.59C325.13,-261.08 356.7,-272.08 385,-280.5 396.66,-283.97 409.19,-287.36 421.29,-290.47"/>
<polygon fill="midnightblue" stroke="midnightblue" points="302.77,-249.26 292.18,-249.12 300.37,-255.83 302.77,-249.26"/>
</g>
<!-- Node40 -->
<g id="node40" class="node">
<title>Node40</title>
<g id="a_node40"><a xlink:href="classtracktion__engine_1_1ClipTrack.html" target="_top" xlink:title=" ">
<polygon fill="none" stroke="red" points="411.5,-252 411.5,-271 560.5,-271 560.5,-252 411.5,-252"/>
<text text-anchor="middle" x="486" y="-259" font-family="Helvetica,sans-Serif" font-size="10.00">tracktion_engine::ClipTrack</text>
</a>
</g>
</g>
<!-- Node38&#45;&gt;Node40 -->
<g id="edge39" class="edge">
<title>Node38&#45;&gt;Node40</title>
<path fill="none" stroke="midnightblue" d="M340.55,-246.96C363.38,-249.25 388.5,-251.78 411.31,-254.08"/>
<polygon fill="midnightblue" stroke="midnightblue" points="340.88,-243.47 330.58,-245.95 340.18,-250.44 340.88,-243.47"/>
</g>
<!-- Node45 -->
<g id="node43" class="node">
<title>Node45</title>
<g id="a_node43"><a xlink:href="classtracktion__engine_1_1FolderTrack.html" target="_top" xlink:title=" ">
<polygon fill="none" stroke="black" points="419,-202.5 419,-232.5 553,-232.5 553,-202.5 419,-202.5"/>
<text text-anchor="start" x="427" y="-220.5" font-family="Helvetica,sans-Serif" font-size="10.00">tracktion_engine::Folder</text>
<text text-anchor="middle" x="486" y="-209.5" font-family="Helvetica,sans-Serif" font-size="10.00">Track</text>
</a>
</g>
</g>
<!-- Node38&#45;&gt;Node45 -->
<g id="edge42" class="edge">
<title>Node38&#45;&gt;Node45</title>
<path fill="none" stroke="midnightblue" d="M340.84,-232.02C366.07,-229.47 394.08,-226.65 418.64,-224.18"/>
<polygon fill="midnightblue" stroke="midnightblue" points="340.18,-228.56 330.58,-233.05 340.88,-235.53 340.18,-228.56"/>
</g>
<!-- Node46 -->
<g id="node44" class="node">
<title>Node46</title>
<g id="a_node44"><a xlink:href="classtracktion__engine_1_1TempoTrack.html" target="_top" xlink:title=" ">
<polygon fill="none" stroke="black" points="405,-164 405,-183 567,-183 567,-164 405,-164"/>
<text text-anchor="middle" x="486" y="-171" font-family="Helvetica,sans-Serif" font-size="10.00">tracktion_engine::TempoTrack</text>
</a>
</g>
</g>
<!-- Node38&#45;&gt;Node46 -->
<g id="edge43" class="edge">
<title>Node38&#45;&gt;Node46</title>
<path fill="none" stroke="midnightblue" d="M297.43,-225.8C321.05,-215.75 354.6,-202.37 385,-193.5 398.94,-189.43 414.21,-185.92 428.52,-183.02"/>
<polygon fill="midnightblue" stroke="midnightblue" points="295.75,-222.71 287.95,-229.87 298.52,-229.14 295.75,-222.71"/>
</g>
<!-- Node41 -->
<g id="node41" class="node">
<title>Node41</title>
<g id="a_node41"><a xlink:href="classtracktion__engine_1_1ArrangerTrack.html" target="_top" xlink:title="A track similar to the MarkerTrack but can be used to move sections of an Edit around.">
<polygon fill="none" stroke="black" points="638,-246.5 638,-276.5 784,-276.5 784,-246.5 638,-246.5"/>
<text text-anchor="start" x="646" y="-264.5" font-family="Helvetica,sans-Serif" font-size="10.00">tracktion_engine::Arranger</text>
<text text-anchor="middle" x="711" y="-253.5" font-family="Helvetica,sans-Serif" font-size="10.00">Track</text>
</a>
</g>
</g>
<!-- Node40&#45;&gt;Node41 -->
<g id="edge40" class="edge">
<title>Node40&#45;&gt;Node41</title>
<path fill="none" stroke="midnightblue" d="M570.68,-261.5C592.81,-261.5 616.5,-261.5 637.96,-261.5"/>
<polygon fill="midnightblue" stroke="midnightblue" points="570.64,-258 560.64,-261.5 570.64,-265 570.64,-258"/>
</g>
<!-- Node42 -->
<g id="node42" class="node">
<title>Node42</title>
<g id="a_node42"><a xlink:href="classtracktion__engine_1_1AudioTrack.html" target="_top" xlink:title=" ">
<polygon fill="none" stroke="black" points="632,-208 632,-227 790,-227 790,-208 632,-208"/>
<text text-anchor="middle" x="711" y="-215" font-family="Helvetica,sans-Serif" font-size="10.00">tracktion_engine::AudioTrack</text>
</a>
</g>
</g>
<!-- Node40&#45;&gt;Node42 -->
<g id="edge41" class="edge">
<title>Node40&#45;&gt;Node42</title>
<path fill="none" stroke="midnightblue" d="M548.05,-250.03C560.92,-247.57 574.41,-244.97 587,-242.5 612.44,-237.5 640.81,-231.74 663.89,-227.02"/>
<polygon fill="midnightblue" stroke="midnightblue" points="547.07,-246.65 537.9,-251.96 548.37,-253.53 547.07,-246.65"/>
</g>
<!-- Node48 -->
<g id="node46" class="node">
<title>Node48</title>
<g id="a_node46"><a xlink:href="classtracktion__engine_1_1Clip.html" target="_top" xlink:title="A clip in an edit.">
<polygon fill="none" stroke="red" points="424.5,-126 424.5,-145 547.5,-145 547.5,-126 424.5,-126"/>
<text text-anchor="middle" x="486" y="-133" font-family="Helvetica,sans-Serif" font-size="10.00">tracktion_engine::Clip</text>
</a>
</g>
</g>
<!-- Node47&#45;&gt;Node48 -->
<g id="edge45" class="edge">
<title>Node47&#45;&gt;Node48</title>
<path fill="none" stroke="midnightblue" d="M331.34,-108.78C362.77,-114.24 400.12,-120.74 430.12,-125.96"/>
<polygon fill="midnightblue" stroke="midnightblue" points="331.81,-105.31 321.35,-107.04 330.61,-112.2 331.81,-105.31"/>
</g>
<!-- Node57 -->
<g id="node47" class="node">
<title>Node57</title>
<g id="a_node47"><a xlink:href="classtracktion__engine_1_1CollectionClip.html" target="_top" xlink:title=" ">
<polygon fill="none" stroke="black" points="400,-88 400,-107 572,-107 572,-88 400,-88"/>
<text text-anchor="middle" x="486" y="-95" font-family="Helvetica,sans-Serif" font-size="10.00">tracktion_engine::CollectionClip</text>
</a>
</g>
</g>
<!-- Node47&#45;&gt;Node57 -->
<g id="edge46" class="edge">
<title>Node47&#45;&gt;Node57</title>
<path fill="none" stroke="midnightblue" d="M351.94,-97.5C367.7,-97.5 384.16,-97.5 399.92,-97.5"/>
<polygon fill="midnightblue" stroke="midnightblue" points="351.7,-94 341.7,-97.5 351.7,-101 351.7,-94"/>
</g>
<!-- Node58 -->
<g id="node48" class="node">
<title>Node58</title>
<g id="a_node48"><a xlink:href="classtracktion__engine_1_1PitchSetting.html" target="_top" xlink:title=" ">
<polygon fill="none" stroke="black" points="404.5,-50 404.5,-69 567.5,-69 567.5,-50 404.5,-50"/>
<text text-anchor="middle" x="486" y="-57" font-family="Helvetica,sans-Serif" font-size="10.00">tracktion_engine::PitchSetting</text>
</a>
</g>
</g>
<!-- Node47&#45;&gt;Node58 -->
<g id="edge47" class="edge">
<title>Node47&#45;&gt;Node58</title>
<path fill="none" stroke="midnightblue" d="M331.34,-86.22C362.77,-80.76 400.12,-74.26 430.12,-69.04"/>
<polygon fill="midnightblue" stroke="midnightblue" points="330.61,-82.8 321.35,-87.96 331.81,-89.69 330.61,-82.8"/>
</g>
<!-- Node59 -->
<g id="node49" class="node">
<title>Node59</title>
<g id="a_node49"><a xlink:href="classtracktion__engine_1_1TimeSigSetting.html" target="_top" xlink:title=" ">
<polygon fill="none" stroke="black" points="414,-0.5 414,-30.5 558,-30.5 558,-0.5 414,-0.5"/>
<text text-anchor="start" x="422" y="-18.5" font-family="Helvetica,sans-Serif" font-size="10.00">tracktion_engine::TimeSig</text>
<text text-anchor="middle" x="486" y="-7.5" font-family="Helvetica,sans-Serif" font-size="10.00">Setting</text>
</a>
</g>
</g>
<!-- Node47&#45;&gt;Node59 -->
<g id="edge48" class="edge">
<title>Node47&#45;&gt;Node59</title>
<path fill="none" stroke="midnightblue" d="M292.69,-82.99C316.27,-70.39 352.16,-52.36 385,-40.5 395.18,-36.82 406.14,-33.49 416.93,-30.54"/>
<polygon fill="midnightblue" stroke="midnightblue" points="290.82,-80.02 283.69,-87.86 294.15,-86.18 290.82,-80.02"/>
</g>
</g>
</svg>
