<?xml version="1.0" encoding="UTF-8" standalone="no"?>
<!DOCTYPE svg PUBLIC "-//W3C//DTD SVG 1.1//EN"
 "http://www.w3.org/Graphics/SVG/1.1/DTD/svg11.dtd">
<!-- Generated by graphviz version 2.40.1 (20161225.0304)
 -->
<!-- Title: tracktion_engine::EditItem Pages: 1 -->
<svg width="736pt" height="1793pt"
 viewBox="0.00 0.00 736.00 1793.00" xmlns="http://www.w3.org/2000/svg" xmlns:xlink="http://www.w3.org/1999/xlink">
<g id="graph0" class="graph" transform="scale(1 1) rotate(0) translate(4 1789)">
<title>tracktion_engine::EditItem</title>
<!-- Node0 -->
<g id="node1" class="node">
<title>Node0</title>
<polygon fill="#bfbfbf" stroke="#000000" points="0,-230 0,-249 131,-249 131,-230 0,-230"/>
<text text-anchor="middle" x="65.5" y="-237" font-family="Helvetica,sans-Serif" font-size="10.00" fill="#000000">tracktion_engine::EditItem</text>
</g>
<!-- Node1 -->
<g id="node2" class="node">
<title>Node1</title>
<g id="a_node2"><a xlink:href="classtracktion__engine_1_1AutomatableEditItem.html" target="_top" xlink:title="Base class for elements that have some kind of automatable parameters. ">
<polygon fill="none" stroke="#000000" points="167,-1235.5 167,-1265.5 316,-1265.5 316,-1235.5 167,-1235.5"/>
<text text-anchor="start" x="175" y="-1253.5" font-family="Helvetica,sans-Serif" font-size="10.00" fill="#000000">tracktion_engine::Automatable</text>
<text text-anchor="middle" x="241.5" y="-1242.5" font-family="Helvetica,sans-Serif" font-size="10.00" fill="#000000">EditItem</text>
</a>
</g>
</g>
<!-- Node0&#45;&gt;Node1 -->
<g id="edge1" class="edge">
<title>Node0&#45;&gt;Node1</title>
<path fill="none" stroke="#191970" d="M68.9438,-259.2826C91.5847,-389.3388 218.8107,-1120.1652 238.8444,-1235.2453"/>
<polygon fill="#191970" stroke="#191970" points="72.3488,-258.4336 67.1855,-249.182 65.4525,-259.6341 72.3488,-258.4336"/>
</g>
<!-- Node37 -->
<g id="node38" class="node">
<title>Node37</title>
<g id="a_node38"><a xlink:href="classtracktion__engine_1_1Track.html" target="_top" xlink:title="tracktion_engine::Track">
<polygon fill="none" stroke="#000000" points="182,-230 182,-249 301,-249 301,-230 182,-230"/>
<text text-anchor="middle" x="241.5" y="-237" font-family="Helvetica,sans-Serif" font-size="10.00" fill="#000000">tracktion_engine::Track</text>
</a>
</g>
</g>
<!-- Node0&#45;&gt;Node37 -->
<g id="edge37" class="edge">
<title>Node0&#45;&gt;Node37</title>
<path fill="none" stroke="#191970" d="M141.2804,-239.5C154.8056,-239.5 168.7235,-239.5 181.7226,-239.5"/>
<polygon fill="#191970" stroke="#191970" points="141.0359,-236.0001 131.0359,-239.5 141.0359,-243.0001 141.0359,-236.0001"/>
</g>
<!-- Node46 -->
<g id="node45" class="node">
<title>Node46</title>
<g id="a_node45"><a xlink:href="classtracktion__engine_1_1TrackItem.html" target="_top" xlink:title="Base class for EditItems that live in a track, e.g. ">
<polygon fill="none" stroke="#000000" points="172.5,-88 172.5,-107 310.5,-107 310.5,-88 172.5,-88"/>
<text text-anchor="middle" x="241.5" y="-95" font-family="Helvetica,sans-Serif" font-size="10.00" fill="#000000">tracktion_engine::TrackItem</text>
</a>
</g>
</g>
<!-- Node0&#45;&gt;Node46 -->
<g id="edge44" class="edge">
<title>Node0&#45;&gt;Node46</title>
<path fill="none" stroke="#191970" d="M85.3015,-223.5238C121.9356,-193.9667 199.2836,-131.5609 229.2648,-107.3715"/>
<polygon fill="#191970" stroke="#191970" points="82.9062,-220.9592 77.3211,-229.9625 87.3017,-226.4072 82.9062,-220.9592"/>
</g>
<!-- Node2 -->
<g id="node3" class="node">
<title>Node2</title>
<g id="a_node3"><a xlink:href="classtracktion__engine_1_1MacroParameterList.html" target="_top" xlink:title="tracktion_engine::MacroParameterList">
<polygon fill="none" stroke="#000000" points="352,-1636 352,-1655 534,-1655 534,-1636 352,-1636"/>
<text text-anchor="middle" x="443" y="-1643" font-family="Helvetica,sans-Serif" font-size="10.00" fill="#000000">tracktion_engine::MacroParameterList</text>
</a>
</g>
</g>
<!-- Node1&#45;&gt;Node2 -->
<g id="edge2" class="edge">
<title>Node1&#45;&gt;Node2</title>
<path fill="none" stroke="#191970" d="M245.5465,-1276.1084C258.1601,-1352.692 299.106,-1577.6769 352,-1626.5 356.0322,-1630.2219 360.5985,-1633.2903 365.486,-1635.8131"/>
<polygon fill="#191970" stroke="#191970" points="248.9505,-1275.2344 243.893,-1265.9246 242.041,-1276.3563 248.9505,-1275.2344"/>
</g>
<!-- Node3 -->
<g id="node4" class="node">
<title>Node3</title>
<g id="a_node4"><a xlink:href="structtracktion__engine_1_1Modifier.html" target="_top" xlink:title="tracktion_engine::Modifier">
<polygon fill="none" stroke="#000000" points="379,-1598 379,-1617 507,-1617 507,-1598 379,-1598"/>
<text text-anchor="middle" x="443" y="-1605" font-family="Helvetica,sans-Serif" font-size="10.00" fill="#000000">tracktion_engine::Modifier</text>
</a>
</g>
</g>
<!-- Node1&#45;&gt;Node3 -->
<g id="edge3" class="edge">
<title>Node1&#45;&gt;Node3</title>
<path fill="none" stroke="#191970" d="M255.3133,-1274.9731C295.5238,-1346.2147 411.3218,-1551.3753 437.6363,-1597.9971"/>
<polygon fill="#191970" stroke="#191970" points="258.1216,-1272.828 250.1582,-1265.8398 252.0256,-1276.2688 258.1216,-1272.828"/>
</g>
<!-- Node10 -->
<g id="node11" class="node">
<title>Node10</title>
<g id="a_node11"><a xlink:href="classtracktion__engine_1_1Plugin.html" target="_top" xlink:title="tracktion_engine::Plugin">
<polygon fill="none" stroke="#000000" points="382.5,-908 382.5,-927 503.5,-927 503.5,-908 382.5,-908"/>
<text text-anchor="middle" x="443" y="-915" font-family="Helvetica,sans-Serif" font-size="10.00" fill="#000000">tracktion_engine::Plugin</text>
</a>
</g>
</g>
<!-- Node1&#45;&gt;Node10 -->
<g id="edge10" class="edge">
<title>Node1&#45;&gt;Node10</title>
<path fill="none" stroke="#191970" d="M255.8903,-1226.7186C296.3626,-1159.8338 409.9988,-972.038 437.1294,-927.2017"/>
<polygon fill="#191970" stroke="#191970" points="252.8643,-1224.9588 250.6816,-1235.3264 258.8532,-1228.5827 252.8643,-1224.9588"/>
</g>
<!-- Node4 -->
<g id="node5" class="node">
<title>Node4</title>
<g id="a_node5"><a xlink:href="classtracktion__engine_1_1BreakpointOscillatorModifier.html" target="_top" xlink:title="tracktion_engine::Breakpoint\lOscillatorModifier">
<polygon fill="none" stroke="#000000" points="579,-1754.5 579,-1784.5 719,-1784.5 719,-1754.5 579,-1754.5"/>
<text text-anchor="start" x="587" y="-1772.5" font-family="Helvetica,sans-Serif" font-size="10.00" fill="#000000">tracktion_engine::Breakpoint</text>
<text text-anchor="middle" x="649" y="-1761.5" font-family="Helvetica,sans-Serif" font-size="10.00" fill="#000000">OscillatorModifier</text>
</a>
</g>
</g>
<!-- Node3&#45;&gt;Node4 -->
<g id="edge4" class="edge">
<title>Node3&#45;&gt;Node4</title>
<path fill="none" stroke="#191970" d="M516.8296,-1615.4713C523.1018,-1618.279 528.9618,-1621.8864 534,-1626.5 574.7515,-1663.8169 530.9509,-1706.4052 570,-1745.5 573.4442,-1748.9482 577.367,-1751.9038 581.5805,-1754.4368"/>
<polygon fill="#191970" stroke="#191970" points="517.9844,-1612.1662 507.3928,-1611.9057 515.5102,-1618.7143 517.9844,-1612.1662"/>
</g>
<!-- Node5 -->
<g id="node6" class="node">
<title>Node5</title>
<g id="a_node6"><a xlink:href="classtracktion__engine_1_1EnvelopeFollowerModifier.html" target="_top" xlink:title="tracktion_engine::Envelope\lFollowerModifier">
<polygon fill="none" stroke="#000000" points="582,-1705.5 582,-1735.5 716,-1735.5 716,-1705.5 582,-1705.5"/>
<text text-anchor="start" x="590" y="-1723.5" font-family="Helvetica,sans-Serif" font-size="10.00" fill="#000000">tracktion_engine::Envelope</text>
<text text-anchor="middle" x="649" y="-1712.5" font-family="Helvetica,sans-Serif" font-size="10.00" fill="#000000">FollowerModifier</text>
</a>
</g>
</g>
<!-- Node3&#45;&gt;Node5 -->
<g id="edge5" class="edge">
<title>Node3&#45;&gt;Node5</title>
<path fill="none" stroke="#191970" d="M517.0211,-1616.9267C523.0827,-1619.4568 528.8484,-1622.601 534,-1626.5 561.5808,-1647.3745 543.5042,-1673.2645 570,-1695.5 574.6282,-1699.384 579.8641,-1702.6665 585.3839,-1705.4403"/>
<polygon fill="#191970" stroke="#191970" points="517.8922,-1613.5207 507.2977,-1613.436 515.527,-1620.109 517.8922,-1613.5207"/>
</g>
<!-- Node6 -->
<g id="node7" class="node">
<title>Node6</title>
<g id="a_node7"><a xlink:href="classtracktion__engine_1_1LFOModifier.html" target="_top" xlink:title="tracktion_engine::LFOModifier">
<polygon fill="none" stroke="#000000" points="575.5,-1667 575.5,-1686 722.5,-1686 722.5,-1667 575.5,-1667"/>
<text text-anchor="middle" x="649" y="-1674" font-family="Helvetica,sans-Serif" font-size="10.00" fill="#000000">tracktion_engine::LFOModifier</text>
</a>
</g>
</g>
<!-- Node3&#45;&gt;Node6 -->
<g id="edge6" class="edge">
<title>Node3&#45;&gt;Node6</title>
<path fill="none" stroke="#191970" d="M517.0156,-1619.598C522.8886,-1621.563 528.6223,-1623.8465 534,-1626.5 552.935,-1635.843 551.2081,-1647.8723 570,-1657.5 577.5327,-1661.3593 585.8741,-1664.4532 594.2313,-1666.9286"/>
<polygon fill="#191970" stroke="#191970" points="517.6234,-1616.1254 507.0384,-1616.5827 515.5982,-1622.8261 517.6234,-1616.1254"/>
</g>
<!-- Node7 -->
<g id="node8" class="node">
<title>Node7</title>
<g id="a_node8"><a xlink:href="classtracktion__engine_1_1MIDITrackerModifier.html" target="_top" xlink:title="tracktion_engine::MIDITracker\lModifier">
<polygon fill="none" stroke="#000000" points="574.5,-1617.5 574.5,-1647.5 723.5,-1647.5 723.5,-1617.5 574.5,-1617.5"/>
<text text-anchor="start" x="582.5" y="-1635.5" font-family="Helvetica,sans-Serif" font-size="10.00" fill="#000000">tracktion_engine::MIDITracker</text>
<text text-anchor="middle" x="649" y="-1624.5" font-family="Helvetica,sans-Serif" font-size="10.00" fill="#000000">Modifier</text>
</a>
</g>
</g>
<!-- Node3&#45;&gt;Node7 -->
<g id="edge7" class="edge">
<title>Node3&#45;&gt;Node7</title>
<path fill="none" stroke="#191970" d="M517.1891,-1616.5035C535.7197,-1618.7524 555.6033,-1621.1654 574.165,-1623.4181"/>
<polygon fill="#191970" stroke="#191970" points="517.3993,-1613.0034 507.0505,-1615.2731 516.5559,-1619.9525 517.3993,-1613.0034"/>
</g>
<!-- Node8 -->
<g id="node9" class="node">
<title>Node8</title>
<g id="a_node9"><a xlink:href="classtracktion__engine_1_1RandomModifier.html" target="_top" xlink:title="tracktion_engine::Random\lModifier">
<polygon fill="none" stroke="#000000" points="583.5,-1568.5 583.5,-1598.5 714.5,-1598.5 714.5,-1568.5 583.5,-1568.5"/>
<text text-anchor="start" x="591.5" y="-1586.5" font-family="Helvetica,sans-Serif" font-size="10.00" fill="#000000">tracktion_engine::Random</text>
<text text-anchor="middle" x="649" y="-1575.5" font-family="Helvetica,sans-Serif" font-size="10.00" fill="#000000">Modifier</text>
</a>
</g>
</g>
<!-- Node3&#45;&gt;Node8 -->
<g id="edge8" class="edge">
<title>Node3&#45;&gt;Node8</title>
<path fill="none" stroke="#191970" d="M517.1533,-1598.8608C538.7442,-1596.3453 562.1744,-1593.6156 583.2118,-1591.1646"/>
<polygon fill="#191970" stroke="#191970" points="516.5782,-1595.404 507.0505,-1600.0378 517.3884,-1602.357 516.5782,-1595.404"/>
</g>
<!-- Node9 -->
<g id="node10" class="node">
<title>Node9</title>
<g id="a_node10"><a xlink:href="classtracktion__engine_1_1StepModifier.html" target="_top" xlink:title="tracktion_engine::StepModifier">
<polygon fill="none" stroke="#000000" points="574.5,-1530 574.5,-1549 723.5,-1549 723.5,-1530 574.5,-1530"/>
<text text-anchor="middle" x="649" y="-1537" font-family="Helvetica,sans-Serif" font-size="10.00" fill="#000000">tracktion_engine::StepModifier</text>
</a>
</g>
</g>
<!-- Node3&#45;&gt;Node9 -->
<g id="edge9" class="edge">
<title>Node3&#45;&gt;Node9</title>
<path fill="none" stroke="#191970" d="M475.6503,-1593.989C501.0925,-1583.7473 537.4453,-1569.7367 570,-1559.5 582.1468,-1555.6805 595.517,-1552.0747 607.7491,-1549.0043"/>
<polygon fill="#191970" stroke="#191970" points="474.0808,-1590.8486 466.1296,-1597.8507 476.7119,-1597.3354 474.0808,-1590.8486"/>
</g>
<!-- Node11 -->
<g id="node12" class="node">
<title>Node11</title>
<g id="a_node12"><a xlink:href="classtracktion__engine_1_1AirWindowsPlugin.html" target="_top" xlink:title="tracktion_engine::AirWindows\lPlugin">
<polygon fill="none" stroke="#000000" points="576,-1480.5 576,-1510.5 722,-1510.5 722,-1480.5 576,-1480.5"/>
<text text-anchor="start" x="584" y="-1498.5" font-family="Helvetica,sans-Serif" font-size="10.00" fill="#000000">tracktion_engine::AirWindows</text>
<text text-anchor="middle" x="649" y="-1487.5" font-family="Helvetica,sans-Serif" font-size="10.00" fill="#000000">Plugin</text>
</a>
</g>
</g>
<!-- Node10&#45;&gt;Node11 -->
<g id="edge11" class="edge">
<title>Node10&#45;&gt;Node11</title>
<path fill="none" stroke="#191970" d="M444.9027,-937.3082C453.8572,-1026.5748 494.5604,-1390.6191 570,-1471.5 573.2264,-1474.9592 576.9338,-1477.9253 580.9445,-1480.4681"/>
<polygon fill="#191970" stroke="#191970" points="448.3706,-936.8096 443.9079,-927.2006 441.4042,-937.4953 448.3706,-936.8096"/>
</g>
<!-- Node12 -->
<g id="node13" class="node">
<title>Node12</title>
<g id="a_node13"><a xlink:href="classtracktion__engine_1_1AuxReturnPlugin.html" target="_top" xlink:title="tracktion_engine::AuxReturn\lPlugin">
<polygon fill="none" stroke="#000000" points="579,-1431.5 579,-1461.5 719,-1461.5 719,-1431.5 579,-1431.5"/>
<text text-anchor="start" x="587" y="-1449.5" font-family="Helvetica,sans-Serif" font-size="10.00" fill="#000000">tracktion_engine::AuxReturn</text>
<text text-anchor="middle" x="649" y="-1438.5" font-family="Helvetica,sans-Serif" font-size="10.00" fill="#000000">Plugin</text>
</a>
</g>
</g>
<!-- Node10&#45;&gt;Node12 -->
<g id="edge12" class="edge">
<title>Node10&#45;&gt;Node12</title>
<path fill="none" stroke="#191970" d="M445.3546,-937.1427C455.8036,-1021.1929 500.5497,-1349.5925 570,-1422.5 573.2626,-1425.925 576.9968,-1428.8659 581.0268,-1431.3904"/>
<polygon fill="#191970" stroke="#191970" points="448.8206,-936.6507 444.1321,-927.1498 441.8725,-937.5009 448.8206,-936.6507"/>
</g>
<!-- Node13 -->
<g id="node14" class="node">
<title>Node13</title>
<g id="a_node14"><a xlink:href="classtracktion__engine_1_1AuxSendPlugin.html" target="_top" xlink:title="tracktion_engine::AuxSend\lPlugin">
<polygon fill="none" stroke="#000000" points="582,-1382.5 582,-1412.5 716,-1412.5 716,-1382.5 582,-1382.5"/>
<text text-anchor="start" x="590" y="-1400.5" font-family="Helvetica,sans-Serif" font-size="10.00" fill="#000000">tracktion_engine::AuxSend</text>
<text text-anchor="middle" x="649" y="-1389.5" font-family="Helvetica,sans-Serif" font-size="10.00" fill="#000000">Plugin</text>
</a>
</g>
</g>
<!-- Node10&#45;&gt;Node13 -->
<g id="edge13" class="edge">
<title>Node10&#45;&gt;Node13</title>
<path fill="none" stroke="#191970" d="M445.972,-937.4753C458.1552,-1016.8332 506.6424,-1308.6479 570,-1373.5 573.5059,-1377.0886 577.5299,-1380.1446 581.8647,-1382.7465"/>
<polygon fill="#191970" stroke="#191970" points="449.3982,-936.7239 444.4405,-927.3606 442.4771,-937.7719 449.3982,-936.7239"/>
</g>
<!-- Node14 -->
<g id="node15" class="node">
<title>Node14</title>
<g id="a_node15"><a xlink:href="classtracktion__engine_1_1ChorusPlugin.html" target="_top" xlink:title="tracktion_engine::Chorus\lPlugin">
<polygon fill="none" stroke="#000000" points="586.5,-1333.5 586.5,-1363.5 711.5,-1363.5 711.5,-1333.5 586.5,-1333.5"/>
<text text-anchor="start" x="594.5" y="-1351.5" font-family="Helvetica,sans-Serif" font-size="10.00" fill="#000000">tracktion_engine::Chorus</text>
<text text-anchor="middle" x="649" y="-1340.5" font-family="Helvetica,sans-Serif" font-size="10.00" fill="#000000">Plugin</text>
</a>
</g>
</g>
<!-- Node10&#45;&gt;Node14 -->
<g id="edge14" class="edge">
<title>Node10&#45;&gt;Node14</title>
<path fill="none" stroke="#191970" d="M446.6258,-937.1762C460.5264,-1010.6238 512.5263,-1267.4574 570,-1324.5 574.68,-1329.1449 580.2288,-1332.8954 586.1832,-1335.9231"/>
<polygon fill="#191970" stroke="#191970" points="450.0055,-936.2078 444.727,-927.0215 443.1247,-937.4945 450.0055,-936.2078"/>
</g>
<!-- Node15 -->
<g id="node16" class="node">
<title>Node15</title>
<g id="a_node16"><a xlink:href="classtracktion__engine_1_1CompressorPlugin.html" target="_top" xlink:title="tracktion_engine::Compressor\lPlugin">
<polygon fill="none" stroke="#000000" points="575.5,-1284.5 575.5,-1314.5 722.5,-1314.5 722.5,-1284.5 575.5,-1284.5"/>
<text text-anchor="start" x="583.5" y="-1302.5" font-family="Helvetica,sans-Serif" font-size="10.00" fill="#000000">tracktion_engine::Compressor</text>
<text text-anchor="middle" x="649" y="-1291.5" font-family="Helvetica,sans-Serif" font-size="10.00" fill="#000000">Plugin</text>
</a>
</g>
</g>
<!-- Node10&#45;&gt;Node15 -->
<g id="edge15" class="edge">
<title>Node10&#45;&gt;Node15</title>
<path fill="none" stroke="#191970" d="M444.1099,-937.4316C448.5324,-997.3919 469.9412,-1177.9121 570,-1274.5 574.0365,-1278.3965 578.6767,-1281.686 583.6428,-1284.4631"/>
<polygon fill="#191970" stroke="#191970" points="447.5799,-936.8574 443.4336,-927.1076 440.5949,-937.315 447.5799,-936.8574"/>
</g>
<!-- Node16 -->
<g id="node17" class="node">
<title>Node16</title>
<g id="a_node17"><a xlink:href="classtracktion__engine_1_1DelayPlugin.html" target="_top" xlink:title="tracktion_engine::DelayPlugin">
<polygon fill="none" stroke="#000000" points="576,-1246 576,-1265 722,-1265 722,-1246 576,-1246"/>
<text text-anchor="middle" x="649" y="-1253" font-family="Helvetica,sans-Serif" font-size="10.00" fill="#000000">tracktion_engine::DelayPlugin</text>
</a>
</g>
</g>
<!-- Node10&#45;&gt;Node16 -->
<g id="edge16" class="edge">
<title>Node10&#45;&gt;Node16</title>
<path fill="none" stroke="#191970" d="M444.701,-937.1067C450.6445,-993.0572 475.5898,-1154.6981 570,-1236.5 574.4777,-1240.3797 579.6125,-1243.4978 585.0684,-1245.9997"/>
<polygon fill="#191970" stroke="#191970" points="448.1802,-936.7218 443.7267,-927.1084 441.2132,-937.4007 448.1802,-936.7218"/>
</g>
<!-- Node17 -->
<g id="node18" class="node">
<title>Node17</title>
<g id="a_node18"><a xlink:href="classtracktion__engine_1_1EqualiserPlugin.html" target="_top" xlink:title="tracktion_engine::Equaliser\lPlugin">
<polygon fill="none" stroke="#000000" points="582,-1196.5 582,-1226.5 716,-1226.5 716,-1196.5 582,-1196.5"/>
<text text-anchor="start" x="590" y="-1214.5" font-family="Helvetica,sans-Serif" font-size="10.00" fill="#000000">tracktion_engine::Equaliser</text>
<text text-anchor="middle" x="649" y="-1203.5" font-family="Helvetica,sans-Serif" font-size="10.00" fill="#000000">Plugin</text>
</a>
</g>
</g>
<!-- Node10&#45;&gt;Node17 -->
<g id="edge17" class="edge">
<title>Node10&#45;&gt;Node17</title>
<path fill="none" stroke="#191970" d="M446.5451,-937.0858C456.5482,-986.6476 489.666,-1118.0256 570,-1187.5 574.0116,-1190.9693 578.5138,-1193.9371 583.2811,-1196.4759"/>
<polygon fill="#191970" stroke="#191970" points="449.9428,-936.2201 444.6168,-927.0612 443.0688,-937.5423 449.9428,-936.2201"/>
</g>
<!-- Node18 -->
<g id="node19" class="node">
<title>Node18</title>
<g id="a_node19"><a xlink:href="classtracktion__engine_1_1ExternalPlugin.html" target="_top" xlink:title="tracktion_engine::External\lPlugin">
<polygon fill="none" stroke="#000000" points="584,-1147.5 584,-1177.5 714,-1177.5 714,-1147.5 584,-1147.5"/>
<text text-anchor="start" x="592" y="-1165.5" font-family="Helvetica,sans-Serif" font-size="10.00" fill="#000000">tracktion_engine::External</text>
<text text-anchor="middle" x="649" y="-1154.5" font-family="Helvetica,sans-Serif" font-size="10.00" fill="#000000">Plugin</text>
</a>
</g>
</g>
<!-- Node10&#45;&gt;Node18 -->
<g id="edge18" class="edge">
<title>Node10&#45;&gt;Node18</title>
<path fill="none" stroke="#191970" d="M448.7074,-936.9313C462.3308,-979.8958 500.8733,-1083.5 570,-1138.5 574.2624,-1141.8914 579.0001,-1144.8047 583.9781,-1147.3073"/>
<polygon fill="#191970" stroke="#191970" points="451.9898,-935.6967 445.7124,-927.1618 445.2972,-937.7485 451.9898,-935.6967"/>
</g>
<!-- Node19 -->
<g id="node20" class="node">
<title>Node19</title>
<g id="a_node20"><a xlink:href="classtracktion__engine_1_1FourOscPlugin.html" target="_top" xlink:title="tracktion_engine::FourOsc\lPlugin">
<polygon fill="none" stroke="#000000" points="583.5,-1098.5 583.5,-1128.5 714.5,-1128.5 714.5,-1098.5 583.5,-1098.5"/>
<text text-anchor="start" x="591.5" y="-1116.5" font-family="Helvetica,sans-Serif" font-size="10.00" fill="#000000">tracktion_engine::FourOsc</text>
<text text-anchor="middle" x="649" y="-1105.5" font-family="Helvetica,sans-Serif" font-size="10.00" fill="#000000">Plugin</text>
</a>
</g>
</g>
<!-- Node10&#45;&gt;Node19 -->
<g id="edge19" class="edge">
<title>Node10&#45;&gt;Node19</title>
<path fill="none" stroke="#191970" d="M451.9165,-936.6429C469.4355,-972.1605 511.7708,-1048.38 570,-1089.5 574.8007,-1092.8901 580.09,-1095.8099 585.5883,-1098.3232"/>
<polygon fill="#191970" stroke="#191970" points="454.9527,-934.8807 447.4624,-927.3875 448.645,-937.9162 454.9527,-934.8807"/>
</g>
<!-- Node20 -->
<g id="node21" class="node">
<title>Node20</title>
<g id="a_node21"><a xlink:href="classtracktion__engine_1_1FreezePointPlugin.html" target="_top" xlink:title="tracktion_engine::Freeze\lPointPlugin">
<polygon fill="none" stroke="#000000" points="587,-1049.5 587,-1079.5 711,-1079.5 711,-1049.5 587,-1049.5"/>
<text text-anchor="start" x="595" y="-1067.5" font-family="Helvetica,sans-Serif" font-size="10.00" fill="#000000">tracktion_engine::Freeze</text>
<text text-anchor="middle" x="649" y="-1056.5" font-family="Helvetica,sans-Serif" font-size="10.00" fill="#000000">PointPlugin</text>
</a>
</g>
</g>
<!-- Node10&#45;&gt;Node20 -->
<g id="edge20" class="edge">
<title>Node10&#45;&gt;Node20</title>
<path fill="none" stroke="#191970" d="M456.4991,-935.1176C477.7956,-961.7334 521.7605,-1012.095 570,-1040.5 575.8054,-1043.9184 582.142,-1046.8906 588.619,-1049.4652"/>
<polygon fill="#191970" stroke="#191970" points="459.1035,-932.7673 450.1724,-927.0677 453.5999,-937.0929 459.1035,-932.7673"/>
</g>
<!-- Node21 -->
<g id="node22" class="node">
<title>Node21</title>
<g id="a_node22"><a xlink:href="classtracktion__engine_1_1InsertPlugin.html" target="_top" xlink:title="tracktion_engine::Insert\lPlugin">
<polygon fill="none" stroke="#000000" points="589.5,-1000.5 589.5,-1030.5 708.5,-1030.5 708.5,-1000.5 589.5,-1000.5"/>
<text text-anchor="start" x="597.5" y="-1018.5" font-family="Helvetica,sans-Serif" font-size="10.00" fill="#000000">tracktion_engine::Insert</text>
<text text-anchor="middle" x="649" y="-1007.5" font-family="Helvetica,sans-Serif" font-size="10.00" fill="#000000">Plugin</text>
</a>
</g>
</g>
<!-- Node10&#45;&gt;Node21 -->
<g id="edge21" class="edge">
<title>Node10&#45;&gt;Node21</title>
<path fill="none" stroke="#191970" d="M465.5349,-932.8072C490.2857,-949.092 531.6292,-974.7653 570,-991.5 577.4892,-994.7663 585.5599,-997.7679 593.5818,-1000.4607"/>
<polygon fill="#191970" stroke="#191970" points="467.1666,-929.689 456.9022,-927.0638 463.2892,-935.517 467.1666,-929.689"/>
</g>
<!-- Node22 -->
<g id="node23" class="node">
<title>Node22</title>
<g id="a_node23"><a xlink:href="classtracktion__engine_1_1LatencyPlugin.html" target="_top" xlink:title="A test plugin that introduces latency to the incomming signal. ">
<polygon fill="none" stroke="#000000" points="585,-951.5 585,-981.5 713,-981.5 713,-951.5 585,-951.5"/>
<text text-anchor="start" x="593" y="-969.5" font-family="Helvetica,sans-Serif" font-size="10.00" fill="#000000">tracktion_engine::Latency</text>
<text text-anchor="middle" x="649" y="-958.5" font-family="Helvetica,sans-Serif" font-size="10.00" fill="#000000">Plugin</text>
</a>
</g>
</g>
<!-- Node10&#45;&gt;Node22 -->
<g id="edge22" class="edge">
<title>Node10&#45;&gt;Node22</title>
<path fill="none" stroke="#191970" d="M493.1412,-929.4268C521.0363,-936.062 556.027,-944.3851 585.7834,-951.463"/>
<polygon fill="#191970" stroke="#191970" points="493.7464,-925.9732 483.2079,-927.064 492.1265,-932.7832 493.7464,-925.9732"/>
</g>
<!-- Node23 -->
<g id="node24" class="node">
<title>Node23</title>
<g id="a_node24"><a xlink:href="classtracktion__engine_1_1LevelMeterPlugin.html" target="_top" xlink:title="tracktion_engine::LevelMeter\lPlugin">
<polygon fill="none" stroke="#000000" points="578,-902.5 578,-932.5 720,-932.5 720,-902.5 578,-902.5"/>
<text text-anchor="start" x="586" y="-920.5" font-family="Helvetica,sans-Serif" font-size="10.00" fill="#000000">tracktion_engine::LevelMeter</text>
<text text-anchor="middle" x="649" y="-909.5" font-family="Helvetica,sans-Serif" font-size="10.00" fill="#000000">Plugin</text>
</a>
</g>
</g>
<!-- Node10&#45;&gt;Node23 -->
<g id="edge23" class="edge">
<title>Node10&#45;&gt;Node23</title>
<path fill="none" stroke="#191970" d="M513.6959,-917.5C534.4252,-917.5 557.0969,-917.5 577.8541,-917.5"/>
<polygon fill="#191970" stroke="#191970" points="513.6926,-914.0001 503.6926,-917.5 513.6926,-921.0001 513.6926,-914.0001"/>
</g>
<!-- Node24 -->
<g id="node25" class="node">
<title>Node24</title>
<g id="a_node25"><a xlink:href="classtracktion__engine_1_1LowPassPlugin.html" target="_top" xlink:title="tracktion_engine::LowPass\lPlugin">
<polygon fill="none" stroke="#000000" points="582,-853.5 582,-883.5 716,-883.5 716,-853.5 582,-853.5"/>
<text text-anchor="start" x="590" y="-871.5" font-family="Helvetica,sans-Serif" font-size="10.00" fill="#000000">tracktion_engine::LowPass</text>
<text text-anchor="middle" x="649" y="-860.5" font-family="Helvetica,sans-Serif" font-size="10.00" fill="#000000">Plugin</text>
</a>
</g>
</g>
<!-- Node10&#45;&gt;Node24 -->
<g id="edge24" class="edge">
<title>Node10&#45;&gt;Node24</title>
<path fill="none" stroke="#191970" d="M493.1412,-905.5732C521.0363,-898.938 556.027,-890.6149 585.7834,-883.537"/>
<polygon fill="#191970" stroke="#191970" points="492.1265,-902.2168 483.2079,-907.936 493.7464,-909.0268 492.1265,-902.2168"/>
</g>
<!-- Node25 -->
<g id="node26" class="node">
<title>Node25</title>
<g id="a_node26"><a xlink:href="classtracktion__engine_1_1MidiModifierPlugin.html" target="_top" xlink:title="tracktion_engine::MidiModifier\lPlugin">
<polygon fill="none" stroke="#000000" points="576,-804.5 576,-834.5 722,-834.5 722,-804.5 576,-804.5"/>
<text text-anchor="start" x="584" y="-822.5" font-family="Helvetica,sans-Serif" font-size="10.00" fill="#000000">tracktion_engine::MidiModifier</text>
<text text-anchor="middle" x="649" y="-811.5" font-family="Helvetica,sans-Serif" font-size="10.00" fill="#000000">Plugin</text>
</a>
</g>
</g>
<!-- Node10&#45;&gt;Node25 -->
<g id="edge25" class="edge">
<title>Node10&#45;&gt;Node25</title>
<path fill="none" stroke="#191970" d="M466.0076,-902.247C490.861,-886.2612 532.0137,-861.1949 570,-844.5 578.1653,-840.9114 587.0093,-837.5946 595.7242,-834.6285"/>
<polygon fill="#191970" stroke="#191970" points="463.7983,-899.5086 457.3209,-907.8928 467.613,-905.3779 463.7983,-899.5086"/>
</g>
<!-- Node26 -->
<g id="node27" class="node">
<title>Node26</title>
<g id="a_node27"><a xlink:href="classtracktion__engine_1_1MidiPatchBayPlugin.html" target="_top" xlink:title="tracktion_engine::MidiPatch\lBayPlugin">
<polygon fill="none" stroke="#000000" points="580.5,-755.5 580.5,-785.5 717.5,-785.5 717.5,-755.5 580.5,-755.5"/>
<text text-anchor="start" x="588.5" y="-773.5" font-family="Helvetica,sans-Serif" font-size="10.00" fill="#000000">tracktion_engine::MidiPatch</text>
<text text-anchor="middle" x="649" y="-762.5" font-family="Helvetica,sans-Serif" font-size="10.00" fill="#000000">BayPlugin</text>
</a>
</g>
</g>
<!-- Node10&#45;&gt;Node26 -->
<g id="edge26" class="edge">
<title>Node10&#45;&gt;Node26</title>
<path fill="none" stroke="#191970" d="M456.8902,-899.7093C478.4,-873.3077 522.2921,-823.8325 570,-795.5 576.4318,-791.6803 583.5102,-788.3809 590.7072,-785.5479"/>
<polygon fill="#191970" stroke="#191970" points="453.9986,-897.7208 450.4804,-907.7145 459.4628,-902.0961 453.9986,-897.7208"/>
</g>
<!-- Node27 -->
<g id="node28" class="node">
<title>Node27</title>
<g id="a_node28"><a xlink:href="classtracktion__engine_1_1PatchBayPlugin.html" target="_top" xlink:title="tracktion_engine::PatchBay\lPlugin">
<polygon fill="none" stroke="#000000" points="580.5,-706.5 580.5,-736.5 717.5,-736.5 717.5,-706.5 580.5,-706.5"/>
<text text-anchor="start" x="588.5" y="-724.5" font-family="Helvetica,sans-Serif" font-size="10.00" fill="#000000">tracktion_engine::PatchBay</text>
<text text-anchor="middle" x="649" y="-713.5" font-family="Helvetica,sans-Serif" font-size="10.00" fill="#000000">Plugin</text>
</a>
</g>
</g>
<!-- Node10&#45;&gt;Node27 -->
<g id="edge27" class="edge">
<title>Node10&#45;&gt;Node27</title>
<path fill="none" stroke="#191970" d="M451.9911,-898.5317C469.6347,-863.3263 512.1696,-787.7191 570,-746.5 575.3887,-742.6592 581.3915,-739.3914 587.6138,-736.6149"/>
<polygon fill="#191970" stroke="#191970" points="448.7542,-897.1837 447.5031,-907.7044 455.042,-900.2602 448.7542,-897.1837"/>
</g>
<!-- Node28 -->
<g id="node29" class="node">
<title>Node28</title>
<g id="a_node29"><a xlink:href="classtracktion__engine_1_1PhaserPlugin.html" target="_top" xlink:title="tracktion_engine::Phaser\lPlugin">
<polygon fill="none" stroke="#000000" points="586.5,-657.5 586.5,-687.5 711.5,-687.5 711.5,-657.5 586.5,-657.5"/>
<text text-anchor="start" x="594.5" y="-675.5" font-family="Helvetica,sans-Serif" font-size="10.00" fill="#000000">tracktion_engine::Phaser</text>
<text text-anchor="middle" x="649" y="-664.5" font-family="Helvetica,sans-Serif" font-size="10.00" fill="#000000">Plugin</text>
</a>
</g>
</g>
<!-- Node10&#45;&gt;Node28 -->
<g id="edge28" class="edge">
<title>Node10&#45;&gt;Node28</title>
<path fill="none" stroke="#191970" d="M448.7799,-898.2136C462.5503,-855.5589 501.3718,-752.6426 570,-697.5 574.9342,-693.5354 580.506,-690.195 586.3505,-687.3816"/>
<polygon fill="#191970" stroke="#191970" points="445.3915,-897.3228 445.7502,-907.9116 452.073,-899.4102 445.3915,-897.3228"/>
</g>
<!-- Node29 -->
<g id="node30" class="node">
<title>Node29</title>
<g id="a_node30"><a xlink:href="classtracktion__engine_1_1PitchShiftPlugin.html" target="_top" xlink:title="tracktion_engine::PitchShift\lPlugin">
<polygon fill="none" stroke="#000000" points="580.5,-608.5 580.5,-638.5 717.5,-638.5 717.5,-608.5 580.5,-608.5"/>
<text text-anchor="start" x="588.5" y="-626.5" font-family="Helvetica,sans-Serif" font-size="10.00" fill="#000000">tracktion_engine::PitchShift</text>
<text text-anchor="middle" x="649" y="-615.5" font-family="Helvetica,sans-Serif" font-size="10.00" fill="#000000">Plugin</text>
</a>
</g>
</g>
<!-- Node10&#45;&gt;Node29 -->
<g id="edge29" class="edge">
<title>Node10&#45;&gt;Node29</title>
<path fill="none" stroke="#191970" d="M446.6852,-897.7048C456.9368,-848.1974 490.4413,-718.0104 570,-648.5 574.4416,-644.6193 579.4869,-641.3404 584.8286,-638.5701"/>
<polygon fill="#191970" stroke="#191970" points="443.2075,-897.2496 444.702,-907.7385 450.0747,-898.607 443.2075,-897.2496"/>
</g>
<!-- Node30 -->
<g id="node31" class="node">
<title>Node30</title>
<g id="a_node31"><a xlink:href="classtracktion__engine_1_1RackInstance.html" target="_top" xlink:title="tracktion_engine::RackInstance">
<polygon fill="none" stroke="#000000" points="571.5,-570 571.5,-589 726.5,-589 726.5,-570 571.5,-570"/>
<text text-anchor="middle" x="649" y="-577" font-family="Helvetica,sans-Serif" font-size="10.00" fill="#000000">tracktion_engine::RackInstance</text>
</a>
</g>
</g>
<!-- Node10&#45;&gt;Node30 -->
<g id="edge30" class="edge">
<title>Node10&#45;&gt;Node30</title>
<path fill="none" stroke="#191970" d="M444.8087,-897.6587C451.0045,-841.7063 476.4849,-681.4188 570,-599.5 574.8954,-595.2116 580.5822,-591.8187 586.618,-589.1378"/>
<polygon fill="#191970" stroke="#191970" points="441.292,-897.6461 443.7617,-907.949 448.256,-898.3547 441.292,-897.6461"/>
</g>
<!-- Node31 -->
<g id="node32" class="node">
<title>Node31</title>
<g id="a_node32"><a xlink:href="classtracktion__engine_1_1ReverbPlugin.html" target="_top" xlink:title="tracktion_engine::Reverb\lPlugin">
<polygon fill="none" stroke="#000000" points="586.5,-520.5 586.5,-550.5 711.5,-550.5 711.5,-520.5 586.5,-520.5"/>
<text text-anchor="start" x="594.5" y="-538.5" font-family="Helvetica,sans-Serif" font-size="10.00" fill="#000000">tracktion_engine::Reverb</text>
<text text-anchor="middle" x="649" y="-527.5" font-family="Helvetica,sans-Serif" font-size="10.00" fill="#000000">Plugin</text>
</a>
</g>
</g>
<!-- Node10&#45;&gt;Node31 -->
<g id="edge31" class="edge">
<title>Node10&#45;&gt;Node31</title>
<path fill="none" stroke="#191970" d="M444.1099,-897.5684C448.5324,-837.6081 469.9412,-657.0879 570,-560.5 574.7611,-555.9041 580.3618,-552.1527 586.3468,-549.0906"/>
<polygon fill="#191970" stroke="#191970" points="440.5949,-897.685 443.4336,-907.8924 447.5799,-898.1426 440.5949,-897.685"/>
</g>
<!-- Node32 -->
<g id="node33" class="node">
<title>Node32</title>
<g id="a_node33"><a xlink:href="classtracktion__engine_1_1SamplerPlugin.html" target="_top" xlink:title="tracktion_engine::Sampler\lPlugin">
<polygon fill="none" stroke="#000000" points="584,-471.5 584,-501.5 714,-501.5 714,-471.5 584,-471.5"/>
<text text-anchor="start" x="592" y="-489.5" font-family="Helvetica,sans-Serif" font-size="10.00" fill="#000000">tracktion_engine::Sampler</text>
<text text-anchor="middle" x="649" y="-478.5" font-family="Helvetica,sans-Serif" font-size="10.00" fill="#000000">Plugin</text>
</a>
</g>
</g>
<!-- Node10&#45;&gt;Node32 -->
<g id="edge32" class="edge">
<title>Node10&#45;&gt;Node32</title>
<path fill="none" stroke="#191970" d="M446.7452,-897.4137C460.8808,-823.5892 513.0882,-568.601 570,-511.5 574.0621,-507.4244 578.7835,-504.012 583.859,-501.1552"/>
<polygon fill="#191970" stroke="#191970" points="443.2289,-897.1722 444.8086,-907.6486 450.1068,-898.4737 443.2289,-897.1722"/>
</g>
<!-- Node33 -->
<g id="node34" class="node">
<title>Node33</title>
<g id="a_node34"><a xlink:href="classtracktion__engine_1_1TextPlugin.html" target="_top" xlink:title="tracktion_engine::TextPlugin">
<polygon fill="none" stroke="#000000" points="579,-433 579,-452 719,-452 719,-433 579,-433"/>
<text text-anchor="middle" x="649" y="-440" font-family="Helvetica,sans-Serif" font-size="10.00" fill="#000000">tracktion_engine::TextPlugin</text>
</a>
</g>
</g>
<!-- Node10&#45;&gt;Node33 -->
<g id="edge33" class="edge">
<title>Node10&#45;&gt;Node33</title>
<path fill="none" stroke="#191970" d="M445.8924,-897.4821C457.7708,-817.9673 505.2506,-525.6987 570,-462.5 574.3536,-458.2507 579.4735,-454.8646 584.9795,-452.1716"/>
<polygon fill="#191970" stroke="#191970" points="442.3942,-897.2143 444.4003,-907.6174 449.3195,-898.2338 442.3942,-897.2143"/>
</g>
<!-- Node34 -->
<g id="node35" class="node">
<title>Node34</title>
<g id="a_node35"><a xlink:href="classtracktion__engine_1_1ToneGeneratorPlugin.html" target="_top" xlink:title="tracktion_engine::ToneGenerator\lPlugin">
<polygon fill="none" stroke="#000000" points="570,-383.5 570,-413.5 728,-413.5 728,-383.5 570,-383.5"/>
<text text-anchor="start" x="578" y="-401.5" font-family="Helvetica,sans-Serif" font-size="10.00" fill="#000000">tracktion_engine::ToneGenerator</text>
<text text-anchor="middle" x="649" y="-390.5" font-family="Helvetica,sans-Serif" font-size="10.00" fill="#000000">Plugin</text>
</a>
</g>
</g>
<!-- Node10&#45;&gt;Node34 -->
<g id="edge34" class="edge">
<title>Node10&#45;&gt;Node34</title>
<path fill="none" stroke="#191970" d="M445.5415,-897.5136C456.5224,-814.1163 502.411,-494.9017 570,-423.5 573.6591,-419.6345 577.9107,-416.3641 582.5072,-413.5976"/>
<polygon fill="#191970" stroke="#191970" points="442.0401,-897.2988 444.2251,-907.6659 448.982,-898.199 442.0401,-897.2988"/>
</g>
<!-- Node35 -->
<g id="node36" class="node">
<title>Node35</title>
<g id="a_node36"><a xlink:href="classtracktion__engine_1_1VCAPlugin.html" target="_top" xlink:title="The VCA plugin sits on a folder track to control the overall level of all the volume/pan plugins in i...">
<polygon fill="none" stroke="#000000" points="578,-345 578,-364 720,-364 720,-345 578,-345"/>
<text text-anchor="middle" x="649" y="-352" font-family="Helvetica,sans-Serif" font-size="10.00" fill="#000000">tracktion_engine::VCAPlugin</text>
</a>
</g>
</g>
<!-- Node10&#45;&gt;Node35 -->
<g id="edge35" class="edge">
<title>Node10&#45;&gt;Node35</title>
<path fill="none" stroke="#191970" d="M444.9023,-897.7299C453.7921,-809.4017 494.0459,-451.8491 570,-374.5 574.1633,-370.2602 579.087,-366.8733 584.4094,-364.1735"/>
<polygon fill="#191970" stroke="#191970" points="441.3929,-897.654 443.8942,-907.9493 448.3591,-898.3413 441.3929,-897.654"/>
</g>
<!-- Node36 -->
<g id="node37" class="node">
<title>Node36</title>
<g id="a_node37"><a xlink:href="classtracktion__engine_1_1VolumeAndPanPlugin.html" target="_top" xlink:title="The built&#45;in Tracktion volume/pan plugin. ">
<polygon fill="none" stroke="#000000" points="585.5,-295.5 585.5,-325.5 712.5,-325.5 712.5,-295.5 585.5,-295.5"/>
<text text-anchor="start" x="593.5" y="-313.5" font-family="Helvetica,sans-Serif" font-size="10.00" fill="#000000">tracktion_engine::Volume</text>
<text text-anchor="middle" x="649" y="-302.5" font-family="Helvetica,sans-Serif" font-size="10.00" fill="#000000">AndPanPlugin</text>
</a>
</g>
</g>
<!-- Node10&#45;&gt;Node36 -->
<g id="edge36" class="edge">
<title>Node10&#45;&gt;Node36</title>
<path fill="none" stroke="#191970" d="M444.6993,-897.6002C452.945,-805.4938 491.6262,-421.4063 570,-335.5 574.363,-330.7177 579.6332,-326.8441 585.3568,-323.7077"/>
<polygon fill="#191970" stroke="#191970" points="441.1945,-897.5023 443.8075,-907.7699 448.1677,-898.1138 441.1945,-897.5023"/>
</g>
<!-- Node38 -->
<g id="node39" class="node">
<title>Node38</title>
<g id="a_node39"><a xlink:href="classtracktion__engine_1_1AutomationTrack.html" target="_top" xlink:title="tracktion_engine::Automation\lTrack">
<polygon fill="none" stroke="#000000" points="371.5,-290.5 371.5,-320.5 514.5,-320.5 514.5,-290.5 371.5,-290.5"/>
<text text-anchor="start" x="379.5" y="-308.5" font-family="Helvetica,sans-Serif" font-size="10.00" fill="#000000">tracktion_engine::Automation</text>
<text text-anchor="middle" x="443" y="-297.5" font-family="Helvetica,sans-Serif" font-size="10.00" fill="#000000">Track</text>
</a>
</g>
</g>
<!-- Node37&#45;&gt;Node38 -->
<g id="edge38" class="edge">
<title>Node37&#45;&gt;Node38</title>
<path fill="none" stroke="#191970" d="M274.8852,-252.7524C296.6704,-261.1848 325.8215,-272.0651 352,-280.5 362.6042,-283.9167 373.9956,-287.2823 385.0078,-290.3827"/>
<polygon fill="#191970" stroke="#191970" points="276.0196,-249.4381 265.4312,-249.0679 273.4776,-255.9603 276.0196,-249.4381"/>
</g>
<!-- Node39 -->
<g id="node40" class="node">
<title>Node39</title>
<g id="a_node40"><a xlink:href="classtracktion__engine_1_1ClipTrack.html" target="_top" xlink:title="tracktion_engine::ClipTrack">
<polygon fill="none" stroke="#ff0000" points="375,-252 375,-271 511,-271 511,-252 375,-252"/>
<text text-anchor="middle" x="443" y="-259" font-family="Helvetica,sans-Serif" font-size="10.00" fill="#000000">tracktion_engine::ClipTrack</text>
</a>
</g>
</g>
<!-- Node37&#45;&gt;Node39 -->
<g id="edge39" class="edge">
<title>Node37&#45;&gt;Node39</title>
<path fill="none" stroke="#191970" d="M311.3514,-247.1265C331.8571,-249.3653 354.2533,-251.8105 374.6633,-254.0389"/>
<polygon fill="#191970" stroke="#191970" points="311.4596,-243.6176 301.1388,-246.0114 310.6998,-250.5762 311.4596,-243.6176"/>
</g>
<!-- Node44 -->
<g id="node43" class="node">
<title>Node44</title>
<g id="a_node43"><a xlink:href="classtracktion__engine_1_1FolderTrack.html" target="_top" xlink:title="tracktion_engine::Folder\lTrack">
<polygon fill="none" stroke="#000000" points="382.5,-202.5 382.5,-232.5 503.5,-232.5 503.5,-202.5 382.5,-202.5"/>
<text text-anchor="start" x="390.5" y="-220.5" font-family="Helvetica,sans-Serif" font-size="10.00" fill="#000000">tracktion_engine::Folder</text>
<text text-anchor="middle" x="443" y="-209.5" font-family="Helvetica,sans-Serif" font-size="10.00" fill="#000000">Track</text>
</a>
</g>
</g>
<!-- Node37&#45;&gt;Node44 -->
<g id="edge42" class="edge">
<title>Node37&#45;&gt;Node44</title>
<path fill="none" stroke="#191970" d="M311.2527,-231.8843C334.4343,-229.3533 360.0416,-226.5575 382.4681,-224.1089"/>
<polygon fill="#191970" stroke="#191970" points="310.6998,-228.4238 301.1388,-232.9886 311.4596,-235.3824 310.6998,-228.4238"/>
</g>
<!-- Node45 -->
<g id="node44" class="node">
<title>Node45</title>
<g id="a_node44"><a xlink:href="classtracktion__engine_1_1TempoTrack.html" target="_top" xlink:title="tracktion_engine::TempoTrack">
<polygon fill="none" stroke="#000000" points="368.5,-164 368.5,-183 517.5,-183 517.5,-164 368.5,-164"/>
<text text-anchor="middle" x="443" y="-171" font-family="Helvetica,sans-Serif" font-size="10.00" fill="#000000">tracktion_engine::TempoTrack</text>
</a>
</g>
</g>
<!-- Node37&#45;&gt;Node45 -->
<g id="edge43" class="edge">
<title>Node37&#45;&gt;Node45</title>
<path fill="none" stroke="#191970" d="M270.5821,-225.7175C292.5632,-215.7148 323.6877,-202.426 352,-193.5 364.8045,-189.4631 378.8718,-185.9416 392.0371,-183.0255"/>
<polygon fill="#191970" stroke="#191970" points="269.0818,-222.555 261.463,-229.9174 272.0102,-228.9131 269.0818,-222.555"/>
</g>
<!-- Node40 -->
<g id="node41" class="node">
<title>Node40</title>
<g id="a_node41"><a xlink:href="classtracktion__engine_1_1ArrangerTrack.html" target="_top" xlink:title="A track similar to the MarkerTrack but can be used to move sections of an Edit around. ">
<polygon fill="none" stroke="#000000" points="583.5,-246.5 583.5,-276.5 714.5,-276.5 714.5,-246.5 583.5,-246.5"/>
<text text-anchor="start" x="591.5" y="-264.5" font-family="Helvetica,sans-Serif" font-size="10.00" fill="#000000">tracktion_engine::Arranger</text>
<text text-anchor="middle" x="649" y="-253.5" font-family="Helvetica,sans-Serif" font-size="10.00" fill="#000000">Track</text>
</a>
</g>
</g>
<!-- Node39&#45;&gt;Node40 -->
<g id="edge40" class="edge">
<title>Node39&#45;&gt;Node40</title>
<path fill="none" stroke="#191970" d="M521.2882,-261.5C541.8097,-261.5 563.7221,-261.5 583.4985,-261.5"/>
<polygon fill="#191970" stroke="#191970" points="521.0231,-258.0001 511.023,-261.5 521.023,-265.0001 521.0231,-258.0001"/>
</g>
<!-- Node41 -->
<g id="node42" class="node">
<title>Node41</title>
<g id="a_node42"><a xlink:href="classtracktion__engine_1_1AudioTrack.html" target="_top" xlink:title="tracktion_engine::AudioTrack">
<polygon fill="none" stroke="#000000" points="577.5,-208 577.5,-227 720.5,-227 720.5,-208 577.5,-208"/>
<text text-anchor="middle" x="649" y="-215" font-family="Helvetica,sans-Serif" font-size="10.00" fill="#000000">tracktion_engine::AudioTrack</text>
</a>
</g>
</g>
<!-- Node39&#45;&gt;Node41 -->
<g id="edge41" class="edge">
<title>Node39&#45;&gt;Node41</title>
<path fill="none" stroke="#191970" d="M499.2494,-249.8311C510.7495,-247.4242 522.7681,-244.8934 534,-242.5 557.6798,-237.4541 584.0781,-231.7229 605.6043,-227.022"/>
<polygon fill="#191970" stroke="#191970" points="498.3824,-246.4366 489.3095,-251.9078 499.814,-253.2886 498.3824,-246.4366"/>
</g>
<!-- Node47 -->
<g id="node46" class="node">
<title>Node47</title>
<g id="a_node46"><a xlink:href="classtracktion__engine_1_1Clip.html" target="_top" xlink:title="A clip in an edit. ">
<polygon fill="none" stroke="#ff0000" points="387.5,-126 387.5,-145 498.5,-145 498.5,-126 387.5,-126"/>
<text text-anchor="middle" x="443" y="-133" font-family="Helvetica,sans-Serif" font-size="10.00" fill="#000000">tracktion_engine::Clip</text>
</a>
</g>
</g>
<!-- Node46&#45;&gt;Node47 -->
<g id="edge45" class="edge">
<title>Node46&#45;&gt;Node47</title>
<path fill="none" stroke="#191970" d="M302.0461,-108.9181C330.8771,-114.3552 364.9625,-120.7832 392.3923,-125.9561"/>
<polygon fill="#191970" stroke="#191970" points="302.5623,-105.4539 292.0869,-107.04 301.265,-112.3326 302.5623,-105.4539"/>
</g>
<!-- Node56 -->
<g id="node47" class="node">
<title>Node56</title>
<g id="a_node47"><a xlink:href="classtracktion__engine_1_1CollectionClip.html" target="_top" xlink:title="tracktion_engine::CollectionClip">
<polygon fill="none" stroke="#000000" points="365.5,-88 365.5,-107 520.5,-107 520.5,-88 365.5,-88"/>
<text text-anchor="middle" x="443" y="-95" font-family="Helvetica,sans-Serif" font-size="10.00" fill="#000000">tracktion_engine::CollectionClip</text>
</a>
</g>
</g>
<!-- Node46&#45;&gt;Node56 -->
<g id="edge46" class="edge">
<title>Node46&#45;&gt;Node56</title>
<path fill="none" stroke="#191970" d="M320.632,-97.5C335.3488,-97.5 350.7116,-97.5 365.3825,-97.5"/>
<polygon fill="#191970" stroke="#191970" points="320.563,-94.0001 310.563,-97.5 320.5629,-101.0001 320.563,-94.0001"/>
</g>
<!-- Node57 -->
<g id="node48" class="node">
<title>Node57</title>
<g id="a_node48"><a xlink:href="classtracktion__engine_1_1PitchSetting.html" target="_top" xlink:title="tracktion_engine::PitchSetting">
<polygon fill="none" stroke="#000000" points="369.5,-50 369.5,-69 516.5,-69 516.5,-50 369.5,-50"/>
<text text-anchor="middle" x="443" y="-57" font-family="Helvetica,sans-Serif" font-size="10.00" fill="#000000">tracktion_engine::PitchSetting</text>
</a>
</g>
</g>
<!-- Node46&#45;&gt;Node57 -->
<g id="edge47" class="edge">
<title>Node46&#45;&gt;Node57</title>
<path fill="none" stroke="#191970" d="M302.0461,-86.0819C330.8771,-80.6448 364.9625,-74.2168 392.3923,-69.0439"/>
<polygon fill="#191970" stroke="#191970" points="301.265,-82.6674 292.0869,-87.96 302.5623,-89.5461 301.265,-82.6674"/>
</g>
<!-- Node58 -->
<g id="node49" class="node">
<title>Node58</title>
<g id="a_node49"><a xlink:href="classtracktion__engine_1_1TimeSigSetting.html" target="_top" xlink:title="tracktion_engine::TimeSig\lSetting">
<polygon fill="none" stroke="#000000" points="378,-.5 378,-30.5 508,-30.5 508,-.5 378,-.5"/>
<text text-anchor="start" x="386" y="-18.5" font-family="Helvetica,sans-Serif" font-size="10.00" fill="#000000">tracktion_engine::TimeSig</text>
<text text-anchor="middle" x="443" y="-7.5" font-family="Helvetica,sans-Serif" font-size="10.00" fill="#000000">Setting</text>
</a>
</g>
</g>
<!-- Node46&#45;&gt;Node58 -->
<g id="edge48" class="edge">
<title>Node46&#45;&gt;Node58</title>
<path fill="none" stroke="#191970" d="M266.1518,-82.8909C288.1015,-70.3477 321.3853,-52.4509 352,-40.5 361.31,-36.8657 371.35,-33.5439 381.2435,-30.5921"/>
<polygon fill="#191970" stroke="#191970" points="264.3842,-79.87 257.4796,-87.9059 267.8885,-85.9297 264.3842,-79.87"/>
</g>
</g>
</svg>
