<?xml version="1.0" encoding="UTF-8" standalone="no"?>
<!DOCTYPE svg PUBLIC "-//W3C//DTD SVG 1.1//EN"
 "http://www.w3.org/Graphics/SVG/1.1/DTD/svg11.dtd">
<!-- Generated by graphviz version 2.43.0 (0)
 -->
<!-- Title: tracktion::engine::AutomatableParameter Pages: 1 -->
<svg width="503pt" height="186pt"
 viewBox="0.00 0.00 503.00 186.00" xmlns="http://www.w3.org/2000/svg" xmlns:xlink="http://www.w3.org/1999/xlink">
<g id="graph0" class="graph" transform="scale(1 1) rotate(0) translate(4 182)">
<title>tracktion::engine::AutomatableParameter</title>
<!-- Node1 -->
<g id="node1" class="node">
<title>Node1</title>
<g id="a_node1"><a xlink:title=" ">
<polygon fill="#bfbfbf" stroke="black" points="141,-73.5 141,-103.5 271,-103.5 271,-73.5 141,-73.5"/>
<text text-anchor="start" x="149" y="-91.5" font-family="Helvetica,sans-Serif" font-size="10.00">tracktion::engine::</text>
<text text-anchor="middle" x="206" y="-80.5" font-family="Helvetica,sans-Serif" font-size="10.00">AutomatableParameter</text>
</a>
</g>
</g>
<!-- Node3 -->
<g id="node3" class="node">
<title>Node3</title>
<g id="a_node3"><a xlink:href="classtracktion_1_1engine_1_1AirWindowsAutomatableParameter.html" target="_top" xlink:title=" ">
<polygon fill="none" stroke="black" points="307,-147.5 307,-177.5 495,-177.5 495,-147.5 307,-147.5"/>
<text text-anchor="start" x="315" y="-165.5" font-family="Helvetica,sans-Serif" font-size="10.00">tracktion::engine::</text>
<text text-anchor="middle" x="401" y="-154.5" font-family="Helvetica,sans-Serif" font-size="10.00">AirWindowsAutomatableParameter</text>
</a>
</g>
</g>
<!-- Node1&#45;&gt;Node3 -->
<g id="edge2" class="edge">
<title>Node1&#45;&gt;Node3</title>
<path fill="none" stroke="midnightblue" d="M242.27,-108.43C261.06,-118.45 284.82,-130.2 307,-138.5 315.75,-141.77 325.12,-144.76 334.42,-147.44"/>
<polygon fill="midnightblue" stroke="midnightblue" points="243.93,-105.35 233.47,-103.67 240.6,-111.5 243.93,-105.35"/>
</g>
<!-- Node4 -->
<g id="node4" class="node">
<title>Node4</title>
<g id="a_node4"><a xlink:href="classtracktion_1_1engine_1_1ExternalAutomatableParameter.html" target="_top" xlink:title=" ">
<polygon fill="none" stroke="black" points="316,-98.5 316,-128.5 486,-128.5 486,-98.5 316,-98.5"/>
<text text-anchor="start" x="324" y="-116.5" font-family="Helvetica,sans-Serif" font-size="10.00">tracktion::engine::</text>
<text text-anchor="middle" x="401" y="-105.5" font-family="Helvetica,sans-Serif" font-size="10.00">ExternalAutomatableParameter</text>
</a>
</g>
</g>
<!-- Node1&#45;&gt;Node4 -->
<g id="edge3" class="edge">
<title>Node1&#45;&gt;Node4</title>
<path fill="none" stroke="midnightblue" d="M281.45,-98.14C292.68,-99.6 304.33,-101.11 315.76,-102.59"/>
<polygon fill="midnightblue" stroke="midnightblue" points="281.63,-94.64 271.27,-96.82 280.73,-101.58 281.63,-94.64"/>
</g>
<!-- Node5 -->
<g id="node5" class="node">
<title>Node5</title>
<g id="a_node5"><a xlink:href="classtracktion_1_1engine_1_1MacroParameter.html" target="_top" xlink:title="A MacroParameter is an AutomatableParameter which is a collection of Mappings.">
<polygon fill="none" stroke="black" points="348.5,-49.5 348.5,-79.5 453.5,-79.5 453.5,-49.5 348.5,-49.5"/>
<text text-anchor="start" x="356.5" y="-67.5" font-family="Helvetica,sans-Serif" font-size="10.00">tracktion::engine::</text>
<text text-anchor="middle" x="401" y="-56.5" font-family="Helvetica,sans-Serif" font-size="10.00">MacroParameter</text>
</a>
</g>
</g>
<!-- Node1&#45;&gt;Node5 -->
<g id="edge4" class="edge">
<title>Node1&#45;&gt;Node5</title>
<path fill="none" stroke="midnightblue" d="M281.38,-79.25C303.69,-76.48 327.67,-73.49 348.19,-70.94"/>
<polygon fill="midnightblue" stroke="midnightblue" points="280.76,-75.8 271.27,-80.51 281.62,-82.75 280.76,-75.8"/>
</g>
<!-- Node6 -->
<g id="node6" class="node">
<title>Node6</title>
<g id="a_node6"><a xlink:href="structtracktion_1_1engine_1_1PluginWetDryAutomatableParam.html" target="_top" xlink:title="specialised AutomatableParameter for wet/dry.">
<polygon fill="none" stroke="black" points="313,-0.5 313,-30.5 489,-30.5 489,-0.5 313,-0.5"/>
<text text-anchor="start" x="321" y="-18.5" font-family="Helvetica,sans-Serif" font-size="10.00">tracktion::engine::</text>
<text text-anchor="middle" x="401" y="-7.5" font-family="Helvetica,sans-Serif" font-size="10.00">PluginWetDryAutomatableParam</text>
</a>
</g>
</g>
<!-- Node1&#45;&gt;Node6 -->
<g id="edge5" class="edge">
<title>Node1&#45;&gt;Node6</title>
<path fill="none" stroke="midnightblue" d="M242.97,-68.67C261.67,-58.93 285.13,-47.59 307,-39.5 315.76,-36.26 325.14,-33.29 334.44,-30.63"/>
<polygon fill="midnightblue" stroke="midnightblue" points="241.14,-65.68 233.93,-73.44 244.41,-71.87 241.14,-65.68"/>
</g>
<!-- Node2 -->
<g id="node2" class="node">
<title>Node2</title>
<g id="a_node2"><a xlink:href="classtracktion_1_1engine_1_1Selectable.html" target="_top" xlink:title="Base class for things that can be selected, and whose properties can appear in the properties panel.">
<polygon fill="none" stroke="black" points="0,-73.5 0,-103.5 105,-103.5 105,-73.5 0,-73.5"/>
<text text-anchor="start" x="8" y="-91.5" font-family="Helvetica,sans-Serif" font-size="10.00">tracktion::engine::</text>
<text text-anchor="middle" x="52.5" y="-80.5" font-family="Helvetica,sans-Serif" font-size="10.00">Selectable</text>
</a>
</g>
</g>
<!-- Node2&#45;&gt;Node1 -->
<g id="edge1" class="edge">
<title>Node2&#45;&gt;Node1</title>
<path fill="none" stroke="midnightblue" d="M115.35,-88.5C123.78,-88.5 132.45,-88.5 140.92,-88.5"/>
<polygon fill="midnightblue" stroke="midnightblue" points="115.21,-85 105.21,-88.5 115.21,-92 115.21,-85"/>
</g>
</g>
</svg>
