<?xml version="1.0" encoding="UTF-8" standalone="no"?>
<!DOCTYPE svg PUBLIC "-//W3C//DTD SVG 1.1//EN"
 "http://www.w3.org/Graphics/SVG/1.1/DTD/svg11.dtd">
<!-- Generated by graphviz version 2.43.0 (0)
 -->
<!-- Title: tracktion::engine::ThreadPoolJobWithProgress Pages: 1 -->
<svg width="468pt" height="198pt"
 viewBox="0.00 0.00 468.00 197.50" xmlns="http://www.w3.org/2000/svg" xmlns:xlink="http://www.w3.org/1999/xlink">
<g id="graph0" class="graph" transform="scale(1 1) rotate(0) translate(4 193.5)">
<title>tracktion::engine::ThreadPoolJobWithProgress</title>
<!-- Node1 -->
<g id="node1" class="node">
<title>Node1</title>
<g id="a_node1"><a xlink:title=" ">
<polygon fill="#bfbfbf" stroke="black" points="0,-98.5 0,-128.5 151,-128.5 151,-98.5 0,-98.5"/>
<text text-anchor="start" x="8" y="-116.5" font-family="Helvetica,sans-Serif" font-size="10.00">tracktion::engine::</text>
<text text-anchor="middle" x="75.5" y="-105.5" font-family="Helvetica,sans-Serif" font-size="10.00">ThreadPoolJobWithProgress</text>
</a>
</g>
</g>
<!-- Node2 -->
<g id="node2" class="node">
<title>Node2</title>
<g id="a_node2"><a xlink:href="structtracktion_1_1engine_1_1AudioProxyGenerator_1_1GeneratorJob.html" target="_top" xlink:title=" ">
<polygon fill="none" stroke="black" points="187,-148 187,-189 308,-189 308,-148 187,-148"/>
<text text-anchor="start" x="195" y="-177" font-family="Helvetica,sans-Serif" font-size="10.00">tracktion::engine::</text>
<text text-anchor="start" x="195" y="-166" font-family="Helvetica,sans-Serif" font-size="10.00">AudioProxyGenerator</text>
<text text-anchor="middle" x="247.5" y="-155" font-family="Helvetica,sans-Serif" font-size="10.00">::GeneratorJob</text>
</a>
</g>
</g>
<!-- Node1&#45;&gt;Node2 -->
<g id="edge1" class="edge">
<title>Node1&#45;&gt;Node2</title>
<path fill="none" stroke="midnightblue" d="M132.94,-131.76C150.29,-137.37 169.44,-143.57 187,-149.25"/>
<polygon fill="midnightblue" stroke="midnightblue" points="133.55,-128.28 122.95,-128.53 131.39,-134.94 133.55,-128.28"/>
</g>
<!-- Node3 -->
<g id="node3" class="node">
<title>Node3</title>
<g id="a_node3"><a xlink:href="classtracktion_1_1engine_1_1ExportJob.html" target="_top" xlink:title=" ">
<polygon fill="none" stroke="black" points="195,-98.5 195,-128.5 300,-128.5 300,-98.5 195,-98.5"/>
<text text-anchor="start" x="203" y="-116.5" font-family="Helvetica,sans-Serif" font-size="10.00">tracktion::engine::</text>
<text text-anchor="middle" x="247.5" y="-105.5" font-family="Helvetica,sans-Serif" font-size="10.00">ExportJob</text>
</a>
</g>
</g>
<!-- Node1&#45;&gt;Node3 -->
<g id="edge2" class="edge">
<title>Node1&#45;&gt;Node3</title>
<path fill="none" stroke="midnightblue" d="M161.17,-113.5C172.71,-113.5 184.25,-113.5 194.94,-113.5"/>
<polygon fill="midnightblue" stroke="midnightblue" points="161.06,-110 151.06,-113.5 161.06,-117 161.06,-110"/>
</g>
<!-- Node4 -->
<g id="node4" class="node">
<title>Node4</title>
<g id="a_node4"><a xlink:href="classtracktion_1_1engine_1_1RenderManager_1_1Job.html" target="_top" xlink:title="The base class that all generator jobs derive from.">
<polygon fill="none" stroke="black" points="190,-49.5 190,-79.5 305,-79.5 305,-49.5 190,-49.5"/>
<text text-anchor="start" x="198" y="-67.5" font-family="Helvetica,sans-Serif" font-size="10.00">tracktion::engine::</text>
<text text-anchor="middle" x="247.5" y="-56.5" font-family="Helvetica,sans-Serif" font-size="10.00">RenderManager::Job</text>
</a>
</g>
</g>
<!-- Node1&#45;&gt;Node4 -->
<g id="edge3" class="edge">
<title>Node1&#45;&gt;Node4</title>
<path fill="none" stroke="midnightblue" d="M138.58,-95.61C156.87,-90.34 176.68,-84.62 194.28,-79.55"/>
<polygon fill="midnightblue" stroke="midnightblue" points="137.53,-92.27 128.89,-98.4 139.47,-98.99 137.53,-92.27"/>
</g>
<!-- Node5 -->
<g id="node5" class="node">
<title>Node5</title>
<g id="a_node5"><a xlink:href="classtracktion_1_1engine_1_1EditRenderJob.html" target="_top" xlink:title=" ">
<polygon fill="none" stroke="black" points="349.5,-98.5 349.5,-128.5 454.5,-128.5 454.5,-98.5 349.5,-98.5"/>
<text text-anchor="start" x="357.5" y="-116.5" font-family="Helvetica,sans-Serif" font-size="10.00">tracktion::engine::</text>
<text text-anchor="middle" x="402" y="-105.5" font-family="Helvetica,sans-Serif" font-size="10.00">EditRenderJob</text>
</a>
</g>
</g>
<!-- Node4&#45;&gt;Node5 -->
<g id="edge4" class="edge">
<title>Node4&#45;&gt;Node5</title>
<path fill="none" stroke="midnightblue" d="M305.33,-82.76C321.41,-87.93 338.73,-93.49 354.16,-98.45"/>
<polygon fill="midnightblue" stroke="midnightblue" points="306.09,-79.33 295.5,-79.6 303.95,-85.99 306.09,-79.33"/>
</g>
<!-- Node6 -->
<g id="node6" class="node">
<title>Node6</title>
<g id="a_node6"><a xlink:href="classtracktion_1_1engine_1_1ReverseRenderJob.html" target="_top" xlink:title=" ">
<polygon fill="none" stroke="black" points="349,-49.5 349,-79.5 455,-79.5 455,-49.5 349,-49.5"/>
<text text-anchor="start" x="357" y="-67.5" font-family="Helvetica,sans-Serif" font-size="10.00">tracktion::engine::</text>
<text text-anchor="middle" x="402" y="-56.5" font-family="Helvetica,sans-Serif" font-size="10.00">ReverseRenderJob</text>
</a>
</g>
</g>
<!-- Node4&#45;&gt;Node6 -->
<g id="edge5" class="edge">
<title>Node4&#45;&gt;Node6</title>
<path fill="none" stroke="midnightblue" d="M315.42,-64.5C326.57,-64.5 337.99,-64.5 348.7,-64.5"/>
<polygon fill="midnightblue" stroke="midnightblue" points="315.29,-61 305.29,-64.5 315.29,-68 315.29,-61"/>
</g>
<!-- Node7 -->
<g id="node7" class="node">
<title>Node7</title>
<g id="a_node7"><a xlink:href="classtracktion_1_1engine_1_1WarpTimeRenderJob.html" target="_top" xlink:title=" ">
<polygon fill="none" stroke="black" points="344,-0.5 344,-30.5 460,-30.5 460,-0.5 344,-0.5"/>
<text text-anchor="start" x="352" y="-18.5" font-family="Helvetica,sans-Serif" font-size="10.00">tracktion::engine::</text>
<text text-anchor="middle" x="402" y="-7.5" font-family="Helvetica,sans-Serif" font-size="10.00">WarpTimeRenderJob</text>
</a>
</g>
</g>
<!-- Node4&#45;&gt;Node7 -->
<g id="edge6" class="edge">
<title>Node4&#45;&gt;Node7</title>
<path fill="none" stroke="midnightblue" d="M305.33,-46.24C321.41,-41.07 338.73,-35.51 354.16,-30.55"/>
<polygon fill="midnightblue" stroke="midnightblue" points="303.95,-43.01 295.5,-49.4 306.09,-49.67 303.95,-43.01"/>
</g>
</g>
</svg>
