<?xml version="1.0" encoding="UTF-8" standalone="no"?>
<!DOCTYPE svg PUBLIC "-//W3C//DTD SVG 1.1//EN"
 "http://www.w3.org/Graphics/SVG/1.1/DTD/svg11.dtd">
<!-- Generated by graphviz version 2.43.0 (0)
 -->
<!-- Title: tracktion_engine::MidiInputDevice Pages: 1 -->
<svg width="729pt" height="88pt"
 viewBox="0.00 0.00 729.00 88.00" xmlns="http://www.w3.org/2000/svg" xmlns:xlink="http://www.w3.org/1999/xlink">
<g id="graph0" class="graph" transform="scale(1 1) rotate(0) translate(4 84)">
<title>tracktion_engine::MidiInputDevice</title>
<!-- Node1 -->
<g id="node1" class="node">
<title>Node1</title>
<g id="a_node1"><a xlink:title=" ">
<polygon fill="#bfbfbf" stroke="black" points="390,-24.5 390,-54.5 540,-54.5 540,-24.5 390,-24.5"/>
<text text-anchor="start" x="398" y="-42.5" font-family="Helvetica,sans-Serif" font-size="10.00">tracktion_engine::MidiInput</text>
<text text-anchor="middle" x="465" y="-31.5" font-family="Helvetica,sans-Serif" font-size="10.00">Device</text>
</a>
</g>
</g>
<!-- Node4 -->
<g id="node4" class="node">
<title>Node4</title>
<g id="a_node4"><a xlink:href="classtracktion__engine_1_1PhysicalMidiInputDevice.html" target="_top" xlink:title=" ">
<polygon fill="none" stroke="black" points="576,-49.5 576,-79.5 721,-79.5 721,-49.5 576,-49.5"/>
<text text-anchor="start" x="584" y="-67.5" font-family="Helvetica,sans-Serif" font-size="10.00">tracktion_engine::Physical</text>
<text text-anchor="middle" x="648.5" y="-56.5" font-family="Helvetica,sans-Serif" font-size="10.00">MidiInputDevice</text>
</a>
</g>
</g>
<!-- Node1&#45;&gt;Node4 -->
<g id="edge3" class="edge">
<title>Node1&#45;&gt;Node4</title>
<path fill="none" stroke="midnightblue" d="M550.17,-51.09C558.8,-52.28 567.52,-53.48 576,-54.65"/>
<polygon fill="midnightblue" stroke="midnightblue" points="550.47,-47.6 540.08,-49.7 549.51,-54.54 550.47,-47.6"/>
</g>
<!-- Node5 -->
<g id="node5" class="node">
<title>Node5</title>
<g id="a_node5"><a xlink:href="classtracktion__engine_1_1VirtualMidiInputDevice.html" target="_top" xlink:title=" ">
<polygon fill="none" stroke="black" points="580,-0.5 580,-30.5 717,-30.5 717,-0.5 580,-0.5"/>
<text text-anchor="start" x="588" y="-18.5" font-family="Helvetica,sans-Serif" font-size="10.00">tracktion_engine::Virtual</text>
<text text-anchor="middle" x="648.5" y="-7.5" font-family="Helvetica,sans-Serif" font-size="10.00">MidiInputDevice</text>
</a>
</g>
</g>
<!-- Node1&#45;&gt;Node5 -->
<g id="edge4" class="edge">
<title>Node1&#45;&gt;Node5</title>
<path fill="none" stroke="midnightblue" d="M550.01,-28.39C559.99,-27.07 570.07,-25.74 579.78,-24.45"/>
<polygon fill="midnightblue" stroke="midnightblue" points="549.54,-24.92 540.08,-29.7 550.46,-31.86 549.54,-24.92"/>
</g>
<!-- Node2 -->
<g id="node2" class="node">
<title>Node2</title>
<g id="a_node2"><a xlink:href="classtracktion__engine_1_1InputDevice.html" target="_top" xlink:title="Represents an input device.">
<polygon fill="none" stroke="black" points="191,-30 191,-49 354,-49 354,-30 191,-30"/>
<text text-anchor="middle" x="272.5" y="-37" font-family="Helvetica,sans-Serif" font-size="10.00">tracktion_engine::InputDevice</text>
</a>
</g>
</g>
<!-- Node2&#45;&gt;Node1 -->
<g id="edge1" class="edge">
<title>Node2&#45;&gt;Node1</title>
<path fill="none" stroke="midnightblue" d="M364.09,-39.5C372.72,-39.5 381.39,-39.5 389.83,-39.5"/>
<polygon fill="midnightblue" stroke="midnightblue" points="364.01,-36 354.01,-39.5 364.01,-43 364.01,-36"/>
</g>
<!-- Node3 -->
<g id="node3" class="node">
<title>Node3</title>
<g id="a_node3"><a xlink:href="classtracktion__engine_1_1Selectable.html" target="_top" xlink:title="Base class for things that can be selected, and whose properties can appear in the properties panel.">
<polygon fill="none" stroke="black" points="0,-30 0,-49 155,-49 155,-30 0,-30"/>
<text text-anchor="middle" x="77.5" y="-37" font-family="Helvetica,sans-Serif" font-size="10.00">tracktion_engine::Selectable</text>
</a>
</g>
</g>
<!-- Node3&#45;&gt;Node2 -->
<g id="edge2" class="edge">
<title>Node3&#45;&gt;Node2</title>
<path fill="none" stroke="midnightblue" d="M165.08,-39.5C173.68,-39.5 182.38,-39.5 190.92,-39.5"/>
<polygon fill="midnightblue" stroke="midnightblue" points="165.06,-36 155.06,-39.5 165.06,-43 165.06,-36"/>
</g>
</g>
</svg>
