<?xml version="1.0" encoding="UTF-8" standalone="no"?>
<!DOCTYPE svg PUBLIC "-//W3C//DTD SVG 1.1//EN"
 "http://www.w3.org/Graphics/SVG/1.1/DTD/svg11.dtd">
<!-- Generated by graphviz version 2.43.0 (0)
 -->
<!-- Title: tracktion_engine::TracktionEngineNode Pages: 1 -->
<svg width="375pt" height="203pt"
 viewBox="0.00 0.00 375.00 203.00" xmlns="http://www.w3.org/2000/svg" xmlns:xlink="http://www.w3.org/1999/xlink">
<g id="graph0" class="graph" transform="scale(1 1) rotate(0) translate(4 199)">
<title>tracktion_engine::TracktionEngineNode</title>
<!-- Node1 -->
<g id="node1" class="node">
<title>Node1</title>
<g id="a_node1"><a xlink:title="Base class for Nodes that provides information about the current process call.">
<polygon fill="#bfbfbf" stroke="black" points="0,-88 0,-118 149,-118 149,-88 0,-88"/>
<text text-anchor="start" x="8" y="-106" font-family="Helvetica,sans-Serif" font-size="10.00">tracktion_engine::Tracktion</text>
<text text-anchor="middle" x="74.5" y="-95" font-family="Helvetica,sans-Serif" font-size="10.00">EngineNode</text>
</a>
</g>
</g>
<!-- Node2 -->
<g id="node2" class="node">
<title>Node2</title>
<g id="a_node2"><a xlink:href="classtracktion__engine_1_1CombiningNode.html" target="_top" xlink:title="An AudioNode that mixes a sequence of clips of other nodes.">
<polygon fill="none" stroke="black" points="185,-175.5 185,-194.5 367,-194.5 367,-175.5 185,-175.5"/>
<text text-anchor="middle" x="276" y="-182.5" font-family="Helvetica,sans-Serif" font-size="10.00">tracktion_engine::CombiningNode</text>
</a>
</g>
</g>
<!-- Node1&#45;&gt;Node2 -->
<g id="edge1" class="edge">
<title>Node1&#45;&gt;Node2</title>
<path fill="none" stroke="midnightblue" d="M105.71,-123.85C127.01,-137.67 156.68,-155.17 185,-166 194.99,-169.82 205.92,-172.94 216.61,-175.47"/>
<polygon fill="midnightblue" stroke="midnightblue" points="107.4,-120.77 97.12,-118.19 103.54,-126.62 107.4,-120.77"/>
</g>
<!-- Node3 -->
<g id="node3" class="node">
<title>Node3</title>
<g id="a_node3"><a xlink:href="classtracktion__engine_1_1MidiNode.html" target="_top" xlink:title="A Node that plays MIDI data from a MidiMessageSequence, at a specific MIDI channel.">
<polygon fill="none" stroke="black" points="200.5,-137.5 200.5,-156.5 351.5,-156.5 351.5,-137.5 200.5,-137.5"/>
<text text-anchor="middle" x="276" y="-144.5" font-family="Helvetica,sans-Serif" font-size="10.00">tracktion_engine::MidiNode</text>
</a>
</g>
</g>
<!-- Node1&#45;&gt;Node3 -->
<g id="edge2" class="edge">
<title>Node1&#45;&gt;Node3</title>
<path fill="none" stroke="midnightblue" d="M150.63,-120.32C162.13,-122.93 173.88,-125.56 185,-128 199.35,-131.15 215.01,-134.49 229.18,-137.48"/>
<polygon fill="midnightblue" stroke="midnightblue" points="151.13,-116.85 140.6,-118.05 149.58,-123.67 151.13,-116.85"/>
</g>
<!-- Node4 -->
<g id="node4" class="node">
<title>Node4</title>
<g id="a_node4"><a xlink:href="classtracktion__engine_1_1PlayHeadPositionNode.html" target="_top" xlink:title="A Node that calculates a position to show visually what time is currently being processed by the grap...">
<polygon fill="none" stroke="black" points="200.5,-88 200.5,-118 351.5,-118 351.5,-88 200.5,-88"/>
<text text-anchor="start" x="208.5" y="-106" font-family="Helvetica,sans-Serif" font-size="10.00">tracktion_engine::PlayHead</text>
<text text-anchor="middle" x="276" y="-95" font-family="Helvetica,sans-Serif" font-size="10.00">PositionNode</text>
</a>
</g>
</g>
<!-- Node1&#45;&gt;Node4 -->
<g id="edge3" class="edge">
<title>Node1&#45;&gt;Node4</title>
<path fill="none" stroke="midnightblue" d="M159.48,-103C173.01,-103 186.95,-103 200.25,-103"/>
<polygon fill="midnightblue" stroke="midnightblue" points="159.22,-99.5 149.22,-103 159.22,-106.5 159.22,-99.5"/>
</g>
<!-- Node5 -->
<g id="node5" class="node">
<title>Node5</title>
<g id="a_node5"><a xlink:href="classtracktion__engine_1_1SpeedRampWaveNode.html" target="_top" xlink:title="An Node that plays back a wave file.">
<polygon fill="none" stroke="black" points="194.5,-39 194.5,-69 357.5,-69 357.5,-39 194.5,-39"/>
<text text-anchor="start" x="202.5" y="-57" font-family="Helvetica,sans-Serif" font-size="10.00">tracktion_engine::SpeedRamp</text>
<text text-anchor="middle" x="276" y="-46" font-family="Helvetica,sans-Serif" font-size="10.00">WaveNode</text>
</a>
</g>
</g>
<!-- Node1&#45;&gt;Node5 -->
<g id="edge4" class="edge">
<title>Node1&#45;&gt;Node5</title>
<path fill="none" stroke="midnightblue" d="M146.66,-85.52C168.64,-80.12 192.66,-74.22 213.9,-69.01"/>
<polygon fill="midnightblue" stroke="midnightblue" points="145.59,-82.18 136.71,-87.97 147.26,-88.98 145.59,-82.18"/>
</g>
<!-- Node6 -->
<g id="node6" class="node">
<title>Node6</title>
<g id="a_node6"><a xlink:href="classtracktion__engine_1_1WaveNode.html" target="_top" xlink:title="An Node that plays back a wave file.">
<polygon fill="none" stroke="black" points="197.5,-0.5 197.5,-19.5 354.5,-19.5 354.5,-0.5 197.5,-0.5"/>
<text text-anchor="middle" x="276" y="-7.5" font-family="Helvetica,sans-Serif" font-size="10.00">tracktion_engine::WaveNode</text>
</a>
</g>
</g>
<!-- Node1&#45;&gt;Node6 -->
<g id="edge5" class="edge">
<title>Node1&#45;&gt;Node6</title>
<path fill="none" stroke="midnightblue" d="M101.55,-81.58C122.78,-65.16 154.2,-43.14 185,-30 195.01,-25.73 206.05,-22.31 216.87,-19.6"/>
<polygon fill="midnightblue" stroke="midnightblue" points="99.35,-78.86 93.65,-87.8 103.67,-84.36 99.35,-78.86"/>
</g>
</g>
</svg>
