<?xml version="1.0" encoding="UTF-8" standalone="no"?>
<!DOCTYPE svg PUBLIC "-//W3C//DTD SVG 1.1//EN"
 "http://www.w3.org/Graphics/SVG/1.1/DTD/svg11.dtd">
<!-- Generated by graphviz version 2.43.0 (0)
 -->
<!-- Title: tracktion::engine::EditItem Pages: 1 -->
<svg width="622pt" height="1558pt"
 viewBox="0.00 0.00 622.00 1558.00" xmlns="http://www.w3.org/2000/svg" xmlns:xlink="http://www.w3.org/1999/xlink">
<g id="graph0" class="graph" transform="scale(1 1) rotate(0) translate(4 1554)">
<title>tracktion::engine::EditItem</title>
<!-- Node1 -->
<g id="node1" class="node">
<title>Node1</title>
<g id="a_node1"><a xlink:title="Base class for objects that live inside an edit &#45; e.g.">
<polygon fill="#bfbfbf" stroke="black" points="0,-538.5 0,-568.5 105,-568.5 105,-538.5 0,-538.5"/>
<text text-anchor="start" x="8" y="-556.5" font-family="Helvetica,sans-Serif" font-size="10.00">tracktion::engine::</text>
<text text-anchor="middle" x="52.5" y="-545.5" font-family="Helvetica,sans-Serif" font-size="10.00">EditItem</text>
</a>
</g>
</g>
<!-- Node2 -->
<g id="node2" class="node">
<title>Node2</title>
<g id="a_node2"><a xlink:href="classtracktion_1_1engine_1_1AutomatableEditItem.html" target="_top" xlink:title="Base class for elements that have some kind of automatable parameters.">
<polygon fill="none" stroke="black" points="141,-1004.5 141,-1034.5 262,-1034.5 262,-1004.5 141,-1004.5"/>
<text text-anchor="start" x="149" y="-1022.5" font-family="Helvetica,sans-Serif" font-size="10.00">tracktion::engine::</text>
<text text-anchor="middle" x="201.5" y="-1011.5" font-family="Helvetica,sans-Serif" font-size="10.00">AutomatableEditItem</text>
</a>
</g>
</g>
<!-- Node1&#45;&gt;Node2 -->
<g id="edge1" class="edge">
<title>Node1&#45;&gt;Node2</title>
<path fill="none" stroke="midnightblue" d="M61.39,-578.53C88.08,-663.12 174.45,-936.92 195.73,-1004.38"/>
<polygon fill="midnightblue" stroke="midnightblue" points="64.65,-577.22 58.31,-568.74 57.98,-579.33 64.65,-577.22"/>
</g>
<!-- Node39 -->
<g id="node38" class="node">
<title>Node39</title>
<g id="a_node38"><a xlink:href="classtracktion_1_1engine_1_1ClipSlot.html" target="_top" xlink:title="Represents a slot on a track that a Clip can live in to be played as a launched clip.">
<polygon fill="none" stroke="black" points="149,-563.5 149,-593.5 254,-593.5 254,-563.5 149,-563.5"/>
<text text-anchor="start" x="157" y="-581.5" font-family="Helvetica,sans-Serif" font-size="10.00">tracktion::engine::</text>
<text text-anchor="middle" x="201.5" y="-570.5" font-family="Helvetica,sans-Serif" font-size="10.00">ClipSlot</text>
</a>
</g>
</g>
<!-- Node1&#45;&gt;Node39 -->
<g id="edge37" class="edge">
<title>Node1&#45;&gt;Node39</title>
<path fill="none" stroke="midnightblue" d="M115.37,-564.02C126.45,-565.91 137.89,-567.85 148.65,-569.68"/>
<polygon fill="midnightblue" stroke="midnightblue" points="115.77,-560.54 105.33,-562.31 114.6,-567.44 115.77,-560.54"/>
</g>
<!-- Node40 -->
<g id="node39" class="node">
<title>Node40</title>
<g id="a_node39"><a xlink:href="classtracktion_1_1engine_1_1Track.html" target="_top" xlink:title="Base class for tracks which contain clips and plugins and can be added to Edit[s].">
<polygon fill="none" stroke="black" points="149,-514.5 149,-544.5 254,-544.5 254,-514.5 149,-514.5"/>
<text text-anchor="start" x="157" y="-532.5" font-family="Helvetica,sans-Serif" font-size="10.00">tracktion::engine::</text>
<text text-anchor="middle" x="201.5" y="-521.5" font-family="Helvetica,sans-Serif" font-size="10.00">Track</text>
</a>
</g>
</g>
<!-- Node1&#45;&gt;Node40 -->
<g id="edge38" class="edge">
<title>Node1&#45;&gt;Node40</title>
<path fill="none" stroke="midnightblue" d="M115.37,-543.4C126.45,-541.59 137.89,-539.72 148.65,-537.97"/>
<polygon fill="midnightblue" stroke="midnightblue" points="114.63,-539.97 105.33,-545.04 115.76,-546.88 114.63,-539.97"/>
</g>
<!-- Node50 -->
<g id="node45" class="node">
<title>Node50</title>
<g id="a_node45"><a xlink:href="classtracktion_1_1engine_1_1TrackItem.html" target="_top" xlink:title="Base class for EditItems that live in a Track, e.g.">
<polygon fill="none" stroke="black" points="149,-328.5 149,-358.5 254,-358.5 254,-328.5 149,-328.5"/>
<text text-anchor="start" x="157" y="-346.5" font-family="Helvetica,sans-Serif" font-size="10.00">tracktion::engine::</text>
<text text-anchor="middle" x="201.5" y="-335.5" font-family="Helvetica,sans-Serif" font-size="10.00">TrackItem</text>
</a>
</g>
</g>
<!-- Node1&#45;&gt;Node50 -->
<g id="edge44" class="edge">
<title>Node1&#45;&gt;Node50</title>
<path fill="none" stroke="midnightblue" d="M69.83,-530.17C100.17,-486.84 164.41,-395.06 189.83,-358.75"/>
<polygon fill="midnightblue" stroke="midnightblue" points="66.94,-528.2 64.07,-538.4 72.67,-532.21 66.94,-528.2"/>
</g>
<!-- Node3 -->
<g id="node3" class="node">
<title>Node3</title>
<g id="a_node3"><a xlink:href="classtracktion_1_1engine_1_1MacroParameterList.html" target="_top" xlink:title=" ">
<polygon fill="none" stroke="black" points="303,-1396.5 303,-1426.5 417,-1426.5 417,-1396.5 303,-1396.5"/>
<text text-anchor="start" x="311" y="-1414.5" font-family="Helvetica,sans-Serif" font-size="10.00">tracktion::engine::</text>
<text text-anchor="middle" x="360" y="-1403.5" font-family="Helvetica,sans-Serif" font-size="10.00">MacroParameterList</text>
</a>
</g>
</g>
<!-- Node2&#45;&gt;Node3 -->
<g id="edge2" class="edge">
<title>Node2&#45;&gt;Node3</title>
<path fill="none" stroke="midnightblue" d="M201.68,-1044.86C200.97,-1110.13 208.01,-1285.91 298,-1387.5 301.02,-1390.91 304.58,-1393.84 308.45,-1396.35"/>
<polygon fill="midnightblue" stroke="midnightblue" points="205.19,-1044.74 201.87,-1034.67 198.19,-1044.61 205.19,-1044.74"/>
</g>
<!-- Node4 -->
<g id="node4" class="node">
<title>Node4</title>
<g id="a_node4"><a xlink:href="structtracktion_1_1engine_1_1Modifier.html" target="_top" xlink:title="Bass class for parameter Modifiers.">
<polygon fill="none" stroke="black" points="307.5,-1347.5 307.5,-1377.5 412.5,-1377.5 412.5,-1347.5 307.5,-1347.5"/>
<text text-anchor="start" x="315.5" y="-1365.5" font-family="Helvetica,sans-Serif" font-size="10.00">tracktion::engine::</text>
<text text-anchor="middle" x="360" y="-1354.5" font-family="Helvetica,sans-Serif" font-size="10.00">Modifier</text>
</a>
</g>
</g>
<!-- Node2&#45;&gt;Node4 -->
<g id="edge3" class="edge">
<title>Node2&#45;&gt;Node4</title>
<path fill="none" stroke="midnightblue" d="M213.67,-1043.99C244.07,-1110.61 327.64,-1293.76 352.15,-1347.49"/>
<polygon fill="midnightblue" stroke="midnightblue" points="216.76,-1042.33 209.43,-1034.68 210.39,-1045.23 216.76,-1042.33"/>
</g>
<!-- Node11 -->
<g id="node11" class="node">
<title>Node11</title>
<g id="a_node11"><a xlink:href="classtracktion_1_1engine_1_1Plugin.html" target="_top" xlink:title=" ">
<polygon fill="none" stroke="red" points="307.5,-661.5 307.5,-691.5 412.5,-691.5 412.5,-661.5 307.5,-661.5"/>
<text text-anchor="start" x="315.5" y="-679.5" font-family="Helvetica,sans-Serif" font-size="10.00">tracktion::engine::</text>
<text text-anchor="middle" x="360" y="-668.5" font-family="Helvetica,sans-Serif" font-size="10.00">Plugin</text>
</a>
</g>
</g>
<!-- Node2&#45;&gt;Node11 -->
<g id="edge10" class="edge">
<title>Node2&#45;&gt;Node11</title>
<path fill="none" stroke="midnightblue" d="M213.67,-995.01C244.07,-928.39 327.64,-745.24 352.15,-691.51"/>
<polygon fill="midnightblue" stroke="midnightblue" points="210.39,-993.77 209.43,-1004.32 216.76,-996.67 210.39,-993.77"/>
</g>
<!-- Node5 -->
<g id="node5" class="node">
<title>Node5</title>
<g id="a_node5"><a xlink:href="classtracktion_1_1engine_1_1BreakpointOscillatorModifier.html" target="_top" xlink:title=" ">
<polygon fill="none" stroke="black" points="458,-1519.5 458,-1549.5 614,-1549.5 614,-1519.5 458,-1519.5"/>
<text text-anchor="start" x="466" y="-1537.5" font-family="Helvetica,sans-Serif" font-size="10.00">tracktion::engine::</text>
<text text-anchor="middle" x="536" y="-1526.5" font-family="Helvetica,sans-Serif" font-size="10.00">BreakpointOscillatorModifier</text>
</a>
</g>
</g>
<!-- Node4&#45;&gt;Node5 -->
<g id="edge4" class="edge">
<title>Node4&#45;&gt;Node5</title>
<path fill="none" stroke="midnightblue" d="M418.22,-1383.75C419.55,-1384.94 420.82,-1386.18 422,-1387.5 460.12,-1429.82 418.08,-1469.87 458,-1510.5 461.34,-1513.9 465.15,-1516.81 469.24,-1519.32"/>
<polygon fill="midnightblue" stroke="midnightblue" points="420.1,-1380.79 409.98,-1377.66 415.94,-1386.42 420.1,-1380.79"/>
</g>
<!-- Node6 -->
<g id="node6" class="node">
<title>Node6</title>
<g id="a_node6"><a xlink:href="classtracktion_1_1engine_1_1EnvelopeFollowerModifier.html" target="_top" xlink:title=" ">
<polygon fill="none" stroke="black" points="464.5,-1470.5 464.5,-1500.5 607.5,-1500.5 607.5,-1470.5 464.5,-1470.5"/>
<text text-anchor="start" x="472.5" y="-1488.5" font-family="Helvetica,sans-Serif" font-size="10.00">tracktion::engine::</text>
<text text-anchor="middle" x="536" y="-1477.5" font-family="Helvetica,sans-Serif" font-size="10.00">EnvelopeFollowerModifier</text>
</a>
</g>
</g>
<!-- Node4&#45;&gt;Node6 -->
<g id="edge5" class="edge">
<title>Node4&#45;&gt;Node6</title>
<path fill="none" stroke="midnightblue" d="M416.71,-1383.09C418.57,-1384.47 420.34,-1385.94 422,-1387.5 448.67,-1412.52 430.27,-1437.66 458,-1461.5 462.03,-1464.97 466.57,-1467.94 471.36,-1470.48"/>
<polygon fill="midnightblue" stroke="midnightblue" points="418.43,-1380.04 408.13,-1377.58 414.65,-1385.93 418.43,-1380.04"/>
</g>
<!-- Node7 -->
<g id="node7" class="node">
<title>Node7</title>
<g id="a_node7"><a xlink:href="classtracktion_1_1engine_1_1LFOModifier.html" target="_top" xlink:title=" ">
<polygon fill="none" stroke="black" points="483.5,-1421.5 483.5,-1451.5 588.5,-1451.5 588.5,-1421.5 483.5,-1421.5"/>
<text text-anchor="start" x="491.5" y="-1439.5" font-family="Helvetica,sans-Serif" font-size="10.00">tracktion::engine::</text>
<text text-anchor="middle" x="536" y="-1428.5" font-family="Helvetica,sans-Serif" font-size="10.00">LFOModifier</text>
</a>
</g>
</g>
<!-- Node4&#45;&gt;Node7 -->
<g id="edge6" class="edge">
<title>Node4&#45;&gt;Node7</title>
<path fill="none" stroke="midnightblue" d="M410.52,-1381.71C414.45,-1383.56 418.32,-1385.5 422,-1387.5 439.11,-1396.8 440.5,-1403.95 458,-1412.5 465.93,-1416.37 474.61,-1419.79 483.21,-1422.75"/>
<polygon fill="midnightblue" stroke="midnightblue" points="411.84,-1378.47 401.28,-1377.55 408.96,-1384.85 411.84,-1378.47"/>
</g>
<!-- Node8 -->
<g id="node8" class="node">
<title>Node8</title>
<g id="a_node8"><a xlink:href="classtracktion_1_1engine_1_1MIDITrackerModifier.html" target="_top" xlink:title=" ">
<polygon fill="none" stroke="black" points="479.5,-1372.5 479.5,-1402.5 592.5,-1402.5 592.5,-1372.5 479.5,-1372.5"/>
<text text-anchor="start" x="487.5" y="-1390.5" font-family="Helvetica,sans-Serif" font-size="10.00">tracktion::engine::</text>
<text text-anchor="middle" x="536" y="-1379.5" font-family="Helvetica,sans-Serif" font-size="10.00">MIDITrackerModifier</text>
</a>
</g>
</g>
<!-- Node4&#45;&gt;Node8 -->
<g id="edge7" class="edge">
<title>Node4&#45;&gt;Node8</title>
<path fill="none" stroke="midnightblue" d="M422.77,-1371.37C441.17,-1374.02 461.22,-1376.9 479.22,-1379.49"/>
<polygon fill="midnightblue" stroke="midnightblue" points="423.13,-1367.89 412.73,-1369.93 422.14,-1374.82 423.13,-1367.89"/>
</g>
<!-- Node9 -->
<g id="node9" class="node">
<title>Node9</title>
<g id="a_node9"><a xlink:href="classtracktion_1_1engine_1_1RandomModifier.html" target="_top" xlink:title=" ">
<polygon fill="none" stroke="black" points="483.5,-1323.5 483.5,-1353.5 588.5,-1353.5 588.5,-1323.5 483.5,-1323.5"/>
<text text-anchor="start" x="491.5" y="-1341.5" font-family="Helvetica,sans-Serif" font-size="10.00">tracktion::engine::</text>
<text text-anchor="middle" x="536" y="-1330.5" font-family="Helvetica,sans-Serif" font-size="10.00">RandomModifier</text>
</a>
</g>
</g>
<!-- Node4&#45;&gt;Node9 -->
<g id="edge8" class="edge">
<title>Node4&#45;&gt;Node9</title>
<path fill="none" stroke="midnightblue" d="M422.9,-1353.96C442.73,-1351.23 464.46,-1348.23 483.46,-1345.61"/>
<polygon fill="midnightblue" stroke="midnightblue" points="422.16,-1350.53 412.73,-1355.36 423.12,-1357.46 422.16,-1350.53"/>
</g>
<!-- Node10 -->
<g id="node10" class="node">
<title>Node10</title>
<g id="a_node10"><a xlink:href="classtracktion_1_1engine_1_1StepModifier.html" target="_top" xlink:title=" ">
<polygon fill="none" stroke="black" points="483.5,-1274.5 483.5,-1304.5 588.5,-1304.5 588.5,-1274.5 483.5,-1274.5"/>
<text text-anchor="start" x="491.5" y="-1292.5" font-family="Helvetica,sans-Serif" font-size="10.00">tracktion::engine::</text>
<text text-anchor="middle" x="536" y="-1281.5" font-family="Helvetica,sans-Serif" font-size="10.00">StepModifier</text>
</a>
</g>
</g>
<!-- Node4&#45;&gt;Node10 -->
<g id="edge9" class="edge">
<title>Node4&#45;&gt;Node10</title>
<path fill="none" stroke="midnightblue" d="M397.88,-1342.67C415.76,-1333.47 437.7,-1322.77 458,-1314.5 466.59,-1311 475.87,-1307.65 484.91,-1304.59"/>
<polygon fill="midnightblue" stroke="midnightblue" points="396.2,-1339.6 388.94,-1347.32 399.43,-1345.81 396.2,-1339.6"/>
</g>
<!-- Node12 -->
<g id="node12" class="node">
<title>Node12</title>
<g id="a_node12"><a xlink:href="classtracktion_1_1engine_1_1AirWindowsPlugin.html" target="_top" xlink:title=" ">
<polygon fill="none" stroke="black" points="483.5,-1225.5 483.5,-1255.5 588.5,-1255.5 588.5,-1225.5 483.5,-1225.5"/>
<text text-anchor="start" x="491.5" y="-1243.5" font-family="Helvetica,sans-Serif" font-size="10.00">tracktion::engine::</text>
<text text-anchor="middle" x="536" y="-1232.5" font-family="Helvetica,sans-Serif" font-size="10.00">AirWindowsPlugin</text>
</a>
</g>
</g>
<!-- Node11&#45;&gt;Node12 -->
<g id="edge11" class="edge">
<title>Node11&#45;&gt;Node12</title>
<path fill="none" stroke="midnightblue" d="M362.15,-701.76C367,-797.73 388.88,-1138.19 458,-1216.5 464.67,-1224.06 473.68,-1229.26 483.19,-1232.84"/>
<polygon fill="midnightblue" stroke="midnightblue" points="365.63,-701.36 361.65,-691.55 358.64,-701.7 365.63,-701.36"/>
</g>
<!-- Node13 -->
<g id="node13" class="node">
<title>Node13</title>
<g id="a_node13"><a xlink:href="classtracktion_1_1engine_1_1AuxReturnPlugin.html" target="_top" xlink:title=" ">
<polygon fill="none" stroke="black" points="483.5,-1176.5 483.5,-1206.5 588.5,-1206.5 588.5,-1176.5 483.5,-1176.5"/>
<text text-anchor="start" x="491.5" y="-1194.5" font-family="Helvetica,sans-Serif" font-size="10.00">tracktion::engine::</text>
<text text-anchor="middle" x="536" y="-1183.5" font-family="Helvetica,sans-Serif" font-size="10.00">AuxReturnPlugin</text>
</a>
</g>
</g>
<!-- Node11&#45;&gt;Node13 -->
<g id="edge12" class="edge">
<title>Node11&#45;&gt;Node13</title>
<path fill="none" stroke="midnightblue" d="M362.64,-701.79C369.01,-792.13 394.88,-1097.22 458,-1167.5 464.74,-1175 473.78,-1180.18 483.29,-1183.75"/>
<polygon fill="midnightblue" stroke="midnightblue" points="366.12,-701.38 361.95,-691.64 359.14,-701.86 366.12,-701.38"/>
</g>
<!-- Node14 -->
<g id="node14" class="node">
<title>Node14</title>
<g id="a_node14"><a xlink:href="classtracktion_1_1engine_1_1AuxSendPlugin.html" target="_top" xlink:title=" ">
<polygon fill="none" stroke="black" points="483.5,-1127.5 483.5,-1157.5 588.5,-1157.5 588.5,-1127.5 483.5,-1127.5"/>
<text text-anchor="start" x="491.5" y="-1145.5" font-family="Helvetica,sans-Serif" font-size="10.00">tracktion::engine::</text>
<text text-anchor="middle" x="536" y="-1134.5" font-family="Helvetica,sans-Serif" font-size="10.00">AuxSendPlugin</text>
</a>
</g>
</g>
<!-- Node11&#45;&gt;Node14 -->
<g id="edge13" class="edge">
<title>Node11&#45;&gt;Node14</title>
<path fill="none" stroke="midnightblue" d="M363.24,-701.7C371.2,-785.97 400.82,-1056.17 458,-1118.5 464.82,-1125.93 473.89,-1131.08 483.41,-1134.64"/>
<polygon fill="midnightblue" stroke="midnightblue" points="366.7,-701.14 362.29,-691.51 359.73,-701.79 366.7,-701.14"/>
</g>
<!-- Node15 -->
<g id="node15" class="node">
<title>Node15</title>
<g id="a_node15"><a xlink:href="classtracktion_1_1engine_1_1ChorusPlugin.html" target="_top" xlink:title=" ">
<polygon fill="none" stroke="black" points="483.5,-1078.5 483.5,-1108.5 588.5,-1108.5 588.5,-1078.5 483.5,-1078.5"/>
<text text-anchor="start" x="491.5" y="-1096.5" font-family="Helvetica,sans-Serif" font-size="10.00">tracktion::engine::</text>
<text text-anchor="middle" x="536" y="-1085.5" font-family="Helvetica,sans-Serif" font-size="10.00">ChorusPlugin</text>
</a>
</g>
</g>
<!-- Node11&#45;&gt;Node15 -->
<g id="edge14" class="edge">
<title>Node11&#45;&gt;Node15</title>
<path fill="none" stroke="midnightblue" d="M364.01,-701.92C373.75,-780.13 406.8,-1015.12 458,-1069.5 464.82,-1076.74 473.77,-1081.81 483.16,-1085.35"/>
<polygon fill="midnightblue" stroke="midnightblue" points="367.43,-701.06 362.74,-691.56 360.48,-701.91 367.43,-701.06"/>
</g>
<!-- Node16 -->
<g id="node16" class="node">
<title>Node16</title>
<g id="a_node16"><a xlink:href="classtracktion_1_1engine_1_1CompressorPlugin.html" target="_top" xlink:title=" ">
<polygon fill="none" stroke="black" points="483.5,-1029.5 483.5,-1059.5 588.5,-1059.5 588.5,-1029.5 483.5,-1029.5"/>
<text text-anchor="start" x="491.5" y="-1047.5" font-family="Helvetica,sans-Serif" font-size="10.00">tracktion::engine::</text>
<text text-anchor="middle" x="536" y="-1036.5" font-family="Helvetica,sans-Serif" font-size="10.00">CompressorPlugin</text>
</a>
</g>
</g>
<!-- Node11&#45;&gt;Node16 -->
<g id="edge15" class="edge">
<title>Node11&#45;&gt;Node16</title>
<path fill="none" stroke="midnightblue" d="M360.45,-701.86C360.52,-764.82 369.62,-929.67 458,-1020.5 464.93,-1027.63 473.94,-1032.64 483.35,-1036.18"/>
<polygon fill="midnightblue" stroke="midnightblue" points="363.95,-701.69 360.52,-691.67 356.95,-701.64 363.95,-701.69"/>
</g>
<!-- Node17 -->
<g id="node17" class="node">
<title>Node17</title>
<g id="a_node17"><a xlink:href="classtracktion_1_1engine_1_1DelayPlugin.html" target="_top" xlink:title=" ">
<polygon fill="none" stroke="black" points="483.5,-980.5 483.5,-1010.5 588.5,-1010.5 588.5,-980.5 483.5,-980.5"/>
<text text-anchor="start" x="491.5" y="-998.5" font-family="Helvetica,sans-Serif" font-size="10.00">tracktion::engine::</text>
<text text-anchor="middle" x="536" y="-987.5" font-family="Helvetica,sans-Serif" font-size="10.00">DelayPlugin</text>
</a>
</g>
</g>
<!-- Node11&#45;&gt;Node17 -->
<g id="edge16" class="edge">
<title>Node11&#45;&gt;Node17</title>
<path fill="none" stroke="midnightblue" d="M361.86,-701.68C365.16,-758.13 381.11,-895.79 458,-971.5 464.98,-978.38 473.91,-983.29 483.18,-986.79"/>
<polygon fill="midnightblue" stroke="midnightblue" points="365.34,-701.33 361.35,-691.51 358.35,-701.68 365.34,-701.33"/>
</g>
<!-- Node18 -->
<g id="node18" class="node">
<title>Node18</title>
<g id="a_node18"><a xlink:href="classtracktion_1_1engine_1_1EqualiserPlugin.html" target="_top" xlink:title=" ">
<polygon fill="none" stroke="black" points="483.5,-931.5 483.5,-961.5 588.5,-961.5 588.5,-931.5 483.5,-931.5"/>
<text text-anchor="start" x="491.5" y="-949.5" font-family="Helvetica,sans-Serif" font-size="10.00">tracktion::engine::</text>
<text text-anchor="middle" x="536" y="-938.5" font-family="Helvetica,sans-Serif" font-size="10.00">EqualiserPlugin</text>
</a>
</g>
</g>
<!-- Node11&#45;&gt;Node18 -->
<g id="edge17" class="edge">
<title>Node11&#45;&gt;Node18</title>
<path fill="none" stroke="midnightblue" d="M363.8,-701.9C370.62,-751.52 392.65,-861.78 458,-922.5 465.18,-929.17 474.19,-933.99 483.49,-937.47"/>
<polygon fill="midnightblue" stroke="midnightblue" points="367.24,-701.2 362.5,-691.73 360.3,-702.09 367.24,-701.2"/>
</g>
<!-- Node19 -->
<g id="node19" class="node">
<title>Node19</title>
<g id="a_node19"><a xlink:href="classtracktion_1_1engine_1_1ExternalPlugin.html" target="_top" xlink:title=" ">
<polygon fill="none" stroke="black" points="483.5,-882.5 483.5,-912.5 588.5,-912.5 588.5,-882.5 483.5,-882.5"/>
<text text-anchor="start" x="491.5" y="-900.5" font-family="Helvetica,sans-Serif" font-size="10.00">tracktion::engine::</text>
<text text-anchor="middle" x="536" y="-889.5" font-family="Helvetica,sans-Serif" font-size="10.00">ExternalPlugin</text>
</a>
</g>
</g>
<!-- Node11&#45;&gt;Node19 -->
<g id="edge18" class="edge">
<title>Node11&#45;&gt;Node19</title>
<path fill="none" stroke="midnightblue" d="M366.5,-701.48C376.98,-743.22 403.77,-827.11 458,-873.5 465.24,-879.69 474.06,-884.28 483.12,-887.7"/>
<polygon fill="midnightblue" stroke="midnightblue" points="369.87,-700.5 364.13,-691.59 363.06,-702.13 369.87,-700.5"/>
</g>
<!-- Node20 -->
<g id="node20" class="node">
<title>Node20</title>
<g id="a_node20"><a xlink:href="classtracktion_1_1engine_1_1FourOscPlugin.html" target="_top" xlink:title=" ">
<polygon fill="none" stroke="black" points="483.5,-833.5 483.5,-863.5 588.5,-863.5 588.5,-833.5 483.5,-833.5"/>
<text text-anchor="start" x="491.5" y="-851.5" font-family="Helvetica,sans-Serif" font-size="10.00">tracktion::engine::</text>
<text text-anchor="middle" x="536" y="-840.5" font-family="Helvetica,sans-Serif" font-size="10.00">FourOscPlugin</text>
</a>
</g>
</g>
<!-- Node11&#45;&gt;Node20 -->
<g id="edge19" class="edge">
<title>Node11&#45;&gt;Node20</title>
<path fill="none" stroke="midnightblue" d="M370.68,-700.88C384.93,-733.72 414.66,-791.8 458,-824.5 465.49,-830.15 474.33,-834.49 483.31,-837.81"/>
<polygon fill="midnightblue" stroke="midnightblue" points="373.86,-699.42 366.75,-691.56 367.41,-702.13 373.86,-699.42"/>
</g>
<!-- Node21 -->
<g id="node21" class="node">
<title>Node21</title>
<g id="a_node21"><a xlink:href="classtracktion_1_1engine_1_1FreezePointPlugin.html" target="_top" xlink:title=" ">
<polygon fill="none" stroke="black" points="483.5,-784.5 483.5,-814.5 588.5,-814.5 588.5,-784.5 483.5,-784.5"/>
<text text-anchor="start" x="491.5" y="-802.5" font-family="Helvetica,sans-Serif" font-size="10.00">tracktion::engine::</text>
<text text-anchor="middle" x="536" y="-791.5" font-family="Helvetica,sans-Serif" font-size="10.00">FreezePointPlugin</text>
</a>
</g>
</g>
<!-- Node11&#45;&gt;Node21 -->
<g id="edge20" class="edge">
<title>Node11&#45;&gt;Node21</title>
<path fill="none" stroke="midnightblue" d="M377.96,-699.51C395.62,-721.93 425.24,-755.46 458,-775.5 465.76,-780.25 474.55,-784.13 483.34,-787.29"/>
<polygon fill="midnightblue" stroke="midnightblue" points="380.68,-697.3 371.8,-691.52 375.14,-701.58 380.68,-697.3"/>
</g>
<!-- Node22 -->
<g id="node22" class="node">
<title>Node22</title>
<g id="a_node22"><a xlink:href="classtracktion_1_1engine_1_1ImpulseResponsePlugin.html" target="_top" xlink:title="ImpulseResponsePlugin that loads an impulse response and applies it the audio stream.">
<polygon fill="none" stroke="black" points="469.5,-735.5 469.5,-765.5 602.5,-765.5 602.5,-735.5 469.5,-735.5"/>
<text text-anchor="start" x="477.5" y="-753.5" font-family="Helvetica,sans-Serif" font-size="10.00">tracktion::engine::</text>
<text text-anchor="middle" x="536" y="-742.5" font-family="Helvetica,sans-Serif" font-size="10.00">ImpulseResponsePlugin</text>
</a>
</g>
</g>
<!-- Node11&#45;&gt;Node22 -->
<g id="edge21" class="edge">
<title>Node11&#45;&gt;Node22</title>
<path fill="none" stroke="midnightblue" d="M396.2,-696.52C414.31,-706.34 436.95,-717.87 458,-726.5 465.77,-729.69 474.13,-732.7 482.38,-735.44"/>
<polygon fill="midnightblue" stroke="midnightblue" points="397.62,-693.31 387.17,-691.57 394.26,-699.45 397.62,-693.31"/>
</g>
<!-- Node23 -->
<g id="node23" class="node">
<title>Node23</title>
<g id="a_node23"><a xlink:href="classtracktion_1_1engine_1_1InsertPlugin.html" target="_top" xlink:title=" ">
<polygon fill="none" stroke="black" points="483.5,-686.5 483.5,-716.5 588.5,-716.5 588.5,-686.5 483.5,-686.5"/>
<text text-anchor="start" x="491.5" y="-704.5" font-family="Helvetica,sans-Serif" font-size="10.00">tracktion::engine::</text>
<text text-anchor="middle" x="536" y="-693.5" font-family="Helvetica,sans-Serif" font-size="10.00">InsertPlugin</text>
</a>
</g>
</g>
<!-- Node11&#45;&gt;Node23 -->
<g id="edge22" class="edge">
<title>Node11&#45;&gt;Node23</title>
<path fill="none" stroke="midnightblue" d="M422.9,-685.39C442.73,-688.24 464.46,-691.36 483.46,-694.1"/>
<polygon fill="midnightblue" stroke="midnightblue" points="423.13,-681.89 412.73,-683.93 422.14,-688.82 423.13,-681.89"/>
</g>
<!-- Node24 -->
<g id="node24" class="node">
<title>Node24</title>
<g id="a_node24"><a xlink:href="classtracktion_1_1engine_1_1LatencyPlugin.html" target="_top" xlink:title="A test plugin that introduces latency to the incomming signal.">
<polygon fill="none" stroke="black" points="483.5,-637.5 483.5,-667.5 588.5,-667.5 588.5,-637.5 483.5,-637.5"/>
<text text-anchor="start" x="491.5" y="-655.5" font-family="Helvetica,sans-Serif" font-size="10.00">tracktion::engine::</text>
<text text-anchor="middle" x="536" y="-644.5" font-family="Helvetica,sans-Serif" font-size="10.00">LatencyPlugin</text>
</a>
</g>
</g>
<!-- Node11&#45;&gt;Node24 -->
<g id="edge23" class="edge">
<title>Node11&#45;&gt;Node24</title>
<path fill="none" stroke="midnightblue" d="M422.9,-667.96C442.73,-665.23 464.46,-662.23 483.46,-659.61"/>
<polygon fill="midnightblue" stroke="midnightblue" points="422.16,-664.53 412.73,-669.36 423.12,-671.46 422.16,-664.53"/>
</g>
<!-- Node25 -->
<g id="node25" class="node">
<title>Node25</title>
<g id="a_node25"><a xlink:href="classtracktion_1_1engine_1_1LevelMeterPlugin.html" target="_top" xlink:title=" ">
<polygon fill="none" stroke="black" points="483.5,-588.5 483.5,-618.5 588.5,-618.5 588.5,-588.5 483.5,-588.5"/>
<text text-anchor="start" x="491.5" y="-606.5" font-family="Helvetica,sans-Serif" font-size="10.00">tracktion::engine::</text>
<text text-anchor="middle" x="536" y="-595.5" font-family="Helvetica,sans-Serif" font-size="10.00">LevelMeterPlugin</text>
</a>
</g>
</g>
<!-- Node11&#45;&gt;Node25 -->
<g id="edge24" class="edge">
<title>Node11&#45;&gt;Node25</title>
<path fill="none" stroke="midnightblue" d="M412.31,-657.25C415.62,-655.72 418.88,-654.13 422,-652.5 439.04,-643.6 440.69,-636.88 458,-628.5 465.97,-624.64 474.68,-621.17 483.28,-618.12"/>
<polygon fill="midnightblue" stroke="midnightblue" points="410.62,-654.17 402.88,-661.4 413.44,-660.57 410.62,-654.17"/>
</g>
<!-- Node26 -->
<g id="node26" class="node">
<title>Node26</title>
<g id="a_node26"><a xlink:href="classtracktion_1_1engine_1_1LowPassPlugin.html" target="_top" xlink:title=" ">
<polygon fill="none" stroke="black" points="483.5,-539.5 483.5,-569.5 588.5,-569.5 588.5,-539.5 483.5,-539.5"/>
<text text-anchor="start" x="491.5" y="-557.5" font-family="Helvetica,sans-Serif" font-size="10.00">tracktion::engine::</text>
<text text-anchor="middle" x="536" y="-546.5" font-family="Helvetica,sans-Serif" font-size="10.00">LowPassPlugin</text>
</a>
</g>
</g>
<!-- Node11&#45;&gt;Node26 -->
<g id="edge25" class="edge">
<title>Node11&#45;&gt;Node26</title>
<path fill="none" stroke="midnightblue" d="M418.02,-655.84C419.4,-654.78 420.73,-653.67 422,-652.5 448.62,-628.01 430.64,-603.17 458,-579.5 465.23,-573.25 474.05,-568.55 483.11,-565.03"/>
<polygon fill="midnightblue" stroke="midnightblue" points="416.06,-652.94 409.63,-661.36 419.91,-658.78 416.06,-652.94"/>
</g>
<!-- Node27 -->
<g id="node27" class="node">
<title>Node27</title>
<g id="a_node27"><a xlink:href="classtracktion_1_1engine_1_1MidiModifierPlugin.html" target="_top" xlink:title=" ">
<polygon fill="none" stroke="black" points="482.5,-490.5 482.5,-520.5 589.5,-520.5 589.5,-490.5 482.5,-490.5"/>
<text text-anchor="start" x="490.5" y="-508.5" font-family="Helvetica,sans-Serif" font-size="10.00">tracktion::engine::</text>
<text text-anchor="middle" x="536" y="-497.5" font-family="Helvetica,sans-Serif" font-size="10.00">MidiModifierPlugin</text>
</a>
</g>
</g>
<!-- Node11&#45;&gt;Node27 -->
<g id="edge26" class="edge">
<title>Node11&#45;&gt;Node27</title>
<path fill="none" stroke="midnightblue" d="M419.22,-655.29C420.18,-654.4 421.11,-653.47 422,-652.5 460.18,-610.81 418.57,-571.01 458,-530.5 464.67,-523.65 473.22,-518.68 482.2,-515.06"/>
<polygon fill="midnightblue" stroke="midnightblue" points="416.98,-652.59 411.14,-661.43 421.22,-658.16 416.98,-652.59"/>
</g>
<!-- Node28 -->
<g id="node28" class="node">
<title>Node28</title>
<g id="a_node28"><a xlink:href="classtracktion_1_1engine_1_1MidiPatchBayPlugin.html" target="_top" xlink:title=" ">
<polygon fill="none" stroke="black" points="479.5,-441.5 479.5,-471.5 592.5,-471.5 592.5,-441.5 479.5,-441.5"/>
<text text-anchor="start" x="487.5" y="-459.5" font-family="Helvetica,sans-Serif" font-size="10.00">tracktion::engine::</text>
<text text-anchor="middle" x="536" y="-448.5" font-family="Helvetica,sans-Serif" font-size="10.00">MidiPatchBayPlugin</text>
</a>
</g>
</g>
<!-- Node11&#45;&gt;Node28 -->
<g id="edge27" class="edge">
<title>Node11&#45;&gt;Node28</title>
<path fill="none" stroke="midnightblue" d="M419.69,-655.01C420.5,-654.21 421.27,-653.37 422,-652.5 472.14,-593.18 406.08,-539.26 458,-481.5 463.83,-475.02 471.35,-470.21 479.4,-466.65"/>
<polygon fill="midnightblue" stroke="midnightblue" points="417.27,-652.47 411.72,-661.5 421.69,-657.9 417.27,-652.47"/>
</g>
<!-- Node29 -->
<g id="node29" class="node">
<title>Node29</title>
<g id="a_node29"><a xlink:href="classtracktion_1_1engine_1_1PatchBayPlugin.html" target="_top" xlink:title=" ">
<polygon fill="none" stroke="black" points="483.5,-392.5 483.5,-422.5 588.5,-422.5 588.5,-392.5 483.5,-392.5"/>
<text text-anchor="start" x="491.5" y="-410.5" font-family="Helvetica,sans-Serif" font-size="10.00">tracktion::engine::</text>
<text text-anchor="middle" x="536" y="-399.5" font-family="Helvetica,sans-Serif" font-size="10.00">PatchBayPlugin</text>
</a>
</g>
</g>
<!-- Node11&#45;&gt;Node29 -->
<g id="edge28" class="edge">
<title>Node11&#45;&gt;Node29</title>
<path fill="none" stroke="midnightblue" d="M420.09,-654.7C420.75,-653.99 421.39,-653.26 422,-652.5 484.23,-575.4 393.45,-507.67 458,-432.5 464.68,-424.72 473.82,-419.34 483.46,-415.63"/>
<polygon fill="midnightblue" stroke="midnightblue" points="417.51,-652.29 412.18,-661.45 422.06,-657.62 417.51,-652.29"/>
</g>
<!-- Node30 -->
<g id="node30" class="node">
<title>Node30</title>
<g id="a_node30"><a xlink:href="classtracktion_1_1engine_1_1PhaserPlugin.html" target="_top" xlink:title=" ">
<polygon fill="none" stroke="black" points="483.5,-343.5 483.5,-373.5 588.5,-373.5 588.5,-343.5 483.5,-343.5"/>
<text text-anchor="start" x="491.5" y="-361.5" font-family="Helvetica,sans-Serif" font-size="10.00">tracktion::engine::</text>
<text text-anchor="middle" x="536" y="-350.5" font-family="Helvetica,sans-Serif" font-size="10.00">PhaserPlugin</text>
</a>
</g>
</g>
<!-- Node11&#45;&gt;Node30 -->
<g id="edge29" class="edge">
<title>Node11&#45;&gt;Node30</title>
<path fill="none" stroke="midnightblue" d="M420.17,-654.67C420.81,-653.97 421.42,-653.24 422,-652.5 496.38,-557.54 380.76,-476.15 458,-383.5 464.57,-375.62 473.65,-370.2 483.28,-366.48"/>
<polygon fill="midnightblue" stroke="midnightblue" points="417.78,-652.11 412.57,-661.34 422.39,-657.37 417.78,-652.11"/>
</g>
<!-- Node31 -->
<g id="node31" class="node">
<title>Node31</title>
<g id="a_node31"><a xlink:href="classtracktion_1_1engine_1_1PitchShiftPlugin.html" target="_top" xlink:title=" ">
<polygon fill="none" stroke="black" points="483.5,-294.5 483.5,-324.5 588.5,-324.5 588.5,-294.5 483.5,-294.5"/>
<text text-anchor="start" x="491.5" y="-312.5" font-family="Helvetica,sans-Serif" font-size="10.00">tracktion::engine::</text>
<text text-anchor="middle" x="536" y="-301.5" font-family="Helvetica,sans-Serif" font-size="10.00">PitchShiftPlugin</text>
</a>
</g>
</g>
<!-- Node11&#45;&gt;Node31 -->
<g id="edge30" class="edge">
<title>Node11&#45;&gt;Node31</title>
<path fill="none" stroke="midnightblue" d="M420.19,-654.68C420.82,-653.98 421.42,-653.25 422,-652.5 508.57,-539.64 368.03,-444.67 458,-334.5 464.49,-326.55 473.54,-321.11 483.16,-317.38"/>
<polygon fill="midnightblue" stroke="midnightblue" points="417.79,-652.14 412.64,-661.39 422.44,-657.37 417.79,-652.14"/>
</g>
<!-- Node32 -->
<g id="node32" class="node">
<title>Node32</title>
<g id="a_node32"><a xlink:href="classtracktion_1_1engine_1_1RackInstance.html" target="_top" xlink:title=" ">
<polygon fill="none" stroke="black" points="483.5,-245.5 483.5,-275.5 588.5,-275.5 588.5,-245.5 483.5,-245.5"/>
<text text-anchor="start" x="491.5" y="-263.5" font-family="Helvetica,sans-Serif" font-size="10.00">tracktion::engine::</text>
<text text-anchor="middle" x="536" y="-252.5" font-family="Helvetica,sans-Serif" font-size="10.00">RackInstance</text>
</a>
</g>
</g>
<!-- Node11&#45;&gt;Node32 -->
<g id="edge31" class="edge">
<title>Node11&#45;&gt;Node32</title>
<path fill="none" stroke="midnightblue" d="M420.21,-654.69C420.83,-653.99 421.43,-653.25 422,-652.5 520.78,-521.72 355.29,-413.22 458,-285.5 464.52,-277.4 473.7,-271.89 483.47,-268.15"/>
<polygon fill="midnightblue" stroke="midnightblue" points="417.8,-652.15 412.7,-661.44 422.48,-657.36 417.8,-652.15"/>
</g>
<!-- Node33 -->
<g id="node33" class="node">
<title>Node33</title>
<g id="a_node33"><a xlink:href="classtracktion_1_1engine_1_1ReverbPlugin.html" target="_top" xlink:title=" ">
<polygon fill="none" stroke="black" points="483.5,-196.5 483.5,-226.5 588.5,-226.5 588.5,-196.5 483.5,-196.5"/>
<text text-anchor="start" x="491.5" y="-214.5" font-family="Helvetica,sans-Serif" font-size="10.00">tracktion::engine::</text>
<text text-anchor="middle" x="536" y="-203.5" font-family="Helvetica,sans-Serif" font-size="10.00">ReverbPlugin</text>
</a>
</g>
</g>
<!-- Node11&#45;&gt;Node33 -->
<g id="edge32" class="edge">
<title>Node11&#45;&gt;Node33</title>
<path fill="none" stroke="midnightblue" d="M420.22,-654.7C420.84,-653.99 421.43,-653.26 422,-652.5 477.62,-577.95 399.7,-307.98 458,-235.5 464.49,-227.43 473.67,-222.01 483.43,-218.4"/>
<polygon fill="midnightblue" stroke="midnightblue" points="417.81,-652.17 412.74,-661.47 422.51,-657.36 417.81,-652.17"/>
</g>
<!-- Node34 -->
<g id="node34" class="node">
<title>Node34</title>
<g id="a_node34"><a xlink:href="classtracktion_1_1engine_1_1SamplerPlugin.html" target="_top" xlink:title=" ">
<polygon fill="none" stroke="black" points="483.5,-147.5 483.5,-177.5 588.5,-177.5 588.5,-147.5 483.5,-147.5"/>
<text text-anchor="start" x="491.5" y="-165.5" font-family="Helvetica,sans-Serif" font-size="10.00">tracktion::engine::</text>
<text text-anchor="middle" x="536" y="-154.5" font-family="Helvetica,sans-Serif" font-size="10.00">SamplerPlugin</text>
</a>
</g>
</g>
<!-- Node11&#45;&gt;Node34 -->
<g id="edge33" class="edge">
<title>Node11&#45;&gt;Node34</title>
<path fill="none" stroke="midnightblue" d="M420.23,-654.71C420.85,-654 421.44,-653.26 422,-652.5 483.74,-568.98 393.27,-267.73 458,-186.5 464.46,-178.4 473.62,-172.97 483.37,-169.36"/>
<polygon fill="midnightblue" stroke="midnightblue" points="417.82,-652.18 412.77,-661.5 422.53,-657.35 417.82,-652.18"/>
</g>
<!-- Node35 -->
<g id="node35" class="node">
<title>Node35</title>
<g id="a_node35"><a xlink:href="classtracktion_1_1engine_1_1TextPlugin.html" target="_top" xlink:title=" ">
<polygon fill="none" stroke="black" points="483.5,-98.5 483.5,-128.5 588.5,-128.5 588.5,-98.5 483.5,-98.5"/>
<text text-anchor="start" x="491.5" y="-116.5" font-family="Helvetica,sans-Serif" font-size="10.00">tracktion::engine::</text>
<text text-anchor="middle" x="536" y="-105.5" font-family="Helvetica,sans-Serif" font-size="10.00">TextPlugin</text>
</a>
</g>
</g>
<!-- Node11&#45;&gt;Node35 -->
<g id="edge34" class="edge">
<title>Node11&#45;&gt;Node35</title>
<path fill="none" stroke="midnightblue" d="M420.19,-654.77C420.82,-654.04 421.43,-653.28 422,-652.5 489.85,-559.99 386.83,-227.48 458,-137.5 464.43,-129.37 473.57,-123.94 483.33,-120.32"/>
<polygon fill="midnightblue" stroke="midnightblue" points="417.59,-652.41 412.53,-661.72 422.29,-657.6 417.59,-652.41"/>
</g>
<!-- Node36 -->
<g id="node36" class="node">
<title>Node36</title>
<g id="a_node36"><a xlink:href="classtracktion_1_1engine_1_1ToneGeneratorPlugin.html" target="_top" xlink:title=" ">
<polygon fill="none" stroke="black" points="477,-49.5 477,-79.5 595,-79.5 595,-49.5 477,-49.5"/>
<text text-anchor="start" x="485" y="-67.5" font-family="Helvetica,sans-Serif" font-size="10.00">tracktion::engine::</text>
<text text-anchor="middle" x="536" y="-56.5" font-family="Helvetica,sans-Serif" font-size="10.00">ToneGeneratorPlugin</text>
</a>
</g>
</g>
<!-- Node11&#45;&gt;Node36 -->
<g id="edge35" class="edge">
<title>Node11&#45;&gt;Node36</title>
<path fill="none" stroke="midnightblue" d="M420.2,-654.78C420.83,-654.04 421.43,-653.28 422,-652.5 495.97,-551.01 380.39,-187.23 458,-88.5 462.93,-82.23 469.49,-77.55 476.69,-74.09"/>
<polygon fill="midnightblue" stroke="midnightblue" points="417.59,-652.42 412.55,-661.73 422.3,-657.59 417.59,-652.42"/>
</g>
<!-- Node37 -->
<g id="node37" class="node">
<title>Node37</title>
<g id="a_node37"><a xlink:href="classtracktion_1_1engine_1_1VCAPlugin.html" target="_top" xlink:title="The VCA plugin sits on a folder track to control the overall level of all the volume/pan plugins in i...">
<polygon fill="none" stroke="black" points="483.5,-0.5 483.5,-30.5 588.5,-30.5 588.5,-0.5 483.5,-0.5"/>
<text text-anchor="start" x="491.5" y="-18.5" font-family="Helvetica,sans-Serif" font-size="10.00">tracktion::engine::</text>
<text text-anchor="middle" x="536" y="-7.5" font-family="Helvetica,sans-Serif" font-size="10.00">VCAPlugin</text>
</a>
</g>
</g>
<!-- Node11&#45;&gt;Node37 -->
<g id="edge36" class="edge">
<title>Node11&#45;&gt;Node37</title>
<path fill="none" stroke="midnightblue" d="M420.2,-654.78C420.83,-654.05 421.43,-653.29 422,-652.5 502.1,-542.02 373.94,-146.99 458,-39.5 464.38,-31.34 473.51,-25.89 483.26,-22.27"/>
<polygon fill="midnightblue" stroke="midnightblue" points="417.6,-652.42 412.57,-661.75 422.32,-657.59 417.6,-652.42"/>
</g>
<!-- Node41 -->
<g id="node40" class="node">
<title>Node41</title>
<g id="a_node40"><a xlink:href="classtracktion_1_1engine_1_1AutomationTrack.html" target="_top" xlink:title=" ">
<polygon fill="none" stroke="black" points="307.5,-612.5 307.5,-642.5 412.5,-642.5 412.5,-612.5 307.5,-612.5"/>
<text text-anchor="start" x="315.5" y="-630.5" font-family="Helvetica,sans-Serif" font-size="10.00">tracktion::engine::</text>
<text text-anchor="middle" x="360" y="-619.5" font-family="Helvetica,sans-Serif" font-size="10.00">AutomationTrack</text>
</a>
</g>
</g>
<!-- Node40&#45;&gt;Node41 -->
<g id="edge39" class="edge">
<title>Node40&#45;&gt;Node41</title>
<path fill="none" stroke="midnightblue" d="M255.43,-549.85C257.72,-551.31 259.92,-552.86 262,-554.5 283.22,-571.23 276.59,-587.02 298,-603.5 302.42,-606.9 307.38,-609.88 312.52,-612.47"/>
<polygon fill="midnightblue" stroke="midnightblue" points="256.72,-546.55 246.3,-544.64 253.25,-552.63 256.72,-546.55"/>
</g>
<!-- Node42 -->
<g id="node41" class="node">
<title>Node42</title>
<g id="a_node41"><a xlink:href="classtracktion_1_1engine_1_1ClipTrack.html" target="_top" xlink:title=" ">
<polygon fill="none" stroke="red" points="307.5,-563.5 307.5,-593.5 412.5,-593.5 412.5,-563.5 307.5,-563.5"/>
<text text-anchor="start" x="315.5" y="-581.5" font-family="Helvetica,sans-Serif" font-size="10.00">tracktion::engine::</text>
<text text-anchor="middle" x="360" y="-570.5" font-family="Helvetica,sans-Serif" font-size="10.00">ClipTrack</text>
</a>
</g>
</g>
<!-- Node40&#45;&gt;Node42 -->
<g id="edge40" class="edge">
<title>Node40&#45;&gt;Node42</title>
<path fill="none" stroke="midnightblue" d="M260.35,-547.61C276.99,-552.82 294.95,-558.45 310.93,-563.45"/>
<polygon fill="midnightblue" stroke="midnightblue" points="261.32,-544.25 250.73,-544.6 259.23,-550.93 261.32,-544.25"/>
</g>
<!-- Node47 -->
<g id="node42" class="node">
<title>Node47</title>
<g id="a_node42"><a xlink:href="classtracktion_1_1engine_1_1FolderTrack.html" target="_top" xlink:title=" ">
<polygon fill="none" stroke="black" points="307.5,-514.5 307.5,-544.5 412.5,-544.5 412.5,-514.5 307.5,-514.5"/>
<text text-anchor="start" x="315.5" y="-532.5" font-family="Helvetica,sans-Serif" font-size="10.00">tracktion::engine::</text>
<text text-anchor="middle" x="360" y="-521.5" font-family="Helvetica,sans-Serif" font-size="10.00">FolderTrack</text>
</a>
</g>
</g>
<!-- Node40&#45;&gt;Node47 -->
<g id="edge41" class="edge">
<title>Node40&#45;&gt;Node47</title>
<path fill="none" stroke="midnightblue" d="M264.38,-529.5C278.63,-529.5 293.62,-529.5 307.38,-529.5"/>
<polygon fill="midnightblue" stroke="midnightblue" points="264.18,-526 254.18,-529.5 264.18,-533 264.18,-526"/>
</g>
<!-- Node48 -->
<g id="node43" class="node">
<title>Node48</title>
<g id="a_node43"><a xlink:href="classtracktion_1_1engine_1_1MasterTrack.html" target="_top" xlink:title="A track to represent the master plugins.">
<polygon fill="none" stroke="black" points="307.5,-465.5 307.5,-495.5 412.5,-495.5 412.5,-465.5 307.5,-465.5"/>
<text text-anchor="start" x="315.5" y="-483.5" font-family="Helvetica,sans-Serif" font-size="10.00">tracktion::engine::</text>
<text text-anchor="middle" x="360" y="-472.5" font-family="Helvetica,sans-Serif" font-size="10.00">MasterTrack</text>
</a>
</g>
</g>
<!-- Node40&#45;&gt;Node48 -->
<g id="edge42" class="edge">
<title>Node40&#45;&gt;Node48</title>
<path fill="none" stroke="midnightblue" d="M260.35,-511.39C276.99,-506.18 294.95,-500.55 310.93,-495.55"/>
<polygon fill="midnightblue" stroke="midnightblue" points="259.23,-508.07 250.73,-514.4 261.32,-514.75 259.23,-508.07"/>
</g>
<!-- Node49 -->
<g id="node44" class="node">
<title>Node49</title>
<g id="a_node44"><a xlink:href="classtracktion_1_1engine_1_1TempoTrack.html" target="_top" xlink:title="A track to represent the &quot;global&quot; items such as tempo, key changes etc.">
<polygon fill="none" stroke="black" points="307.5,-416.5 307.5,-446.5 412.5,-446.5 412.5,-416.5 307.5,-416.5"/>
<text text-anchor="start" x="315.5" y="-434.5" font-family="Helvetica,sans-Serif" font-size="10.00">tracktion::engine::</text>
<text text-anchor="middle" x="360" y="-423.5" font-family="Helvetica,sans-Serif" font-size="10.00">TempoTrack</text>
</a>
</g>
</g>
<!-- Node40&#45;&gt;Node49 -->
<g id="edge43" class="edge">
<title>Node40&#45;&gt;Node49</title>
<path fill="none" stroke="midnightblue" d="M227.16,-507.73C245.73,-492.09 272.3,-471.24 298,-456.5 304.25,-452.91 311.12,-449.58 317.93,-446.59"/>
<polygon fill="midnightblue" stroke="midnightblue" points="224.8,-505.14 219.47,-514.3 229.35,-510.47 224.8,-505.14"/>
</g>
<!-- Node51 -->
<g id="node46" class="node">
<title>Node51</title>
<g id="a_node46"><a xlink:href="classtracktion_1_1engine_1_1Clip.html" target="_top" xlink:title="A clip in an edit.">
<polygon fill="none" stroke="red" points="298,-378 298,-397 422,-397 422,-378 298,-378"/>
<text text-anchor="middle" x="360" y="-385" font-family="Helvetica,sans-Serif" font-size="10.00">tracktion::engine::Clip</text>
</a>
</g>
</g>
<!-- Node50&#45;&gt;Node51 -->
<g id="edge45" class="edge">
<title>Node50&#45;&gt;Node51</title>
<path fill="none" stroke="midnightblue" d="M263.92,-360.77C284.74,-366.62 307.24,-372.95 325.12,-377.97"/>
<polygon fill="midnightblue" stroke="midnightblue" points="264.75,-357.37 254.18,-358.03 262.86,-364.11 264.75,-357.37"/>
</g>
<!-- Node61 -->
<g id="node47" class="node">
<title>Node61</title>
<g id="a_node47"><a xlink:href="classtracktion_1_1engine_1_1CollectionClip.html" target="_top" xlink:title=" ">
<polygon fill="none" stroke="black" points="307.5,-328.5 307.5,-358.5 412.5,-358.5 412.5,-328.5 307.5,-328.5"/>
<text text-anchor="start" x="315.5" y="-346.5" font-family="Helvetica,sans-Serif" font-size="10.00">tracktion::engine::</text>
<text text-anchor="middle" x="360" y="-335.5" font-family="Helvetica,sans-Serif" font-size="10.00">CollectionClip</text>
</a>
</g>
</g>
<!-- Node50&#45;&gt;Node61 -->
<g id="edge46" class="edge">
<title>Node50&#45;&gt;Node61</title>
<path fill="none" stroke="midnightblue" d="M264.38,-343.5C278.63,-343.5 293.62,-343.5 307.38,-343.5"/>
<polygon fill="midnightblue" stroke="midnightblue" points="264.18,-340 254.18,-343.5 264.18,-347 264.18,-340"/>
</g>
<!-- Node62 -->
<g id="node48" class="node">
<title>Node62</title>
<g id="a_node48"><a xlink:href="classtracktion_1_1engine_1_1PitchSetting.html" target="_top" xlink:title=" ">
<polygon fill="none" stroke="black" points="307.5,-279.5 307.5,-309.5 412.5,-309.5 412.5,-279.5 307.5,-279.5"/>
<text text-anchor="start" x="315.5" y="-297.5" font-family="Helvetica,sans-Serif" font-size="10.00">tracktion::engine::</text>
<text text-anchor="middle" x="360" y="-286.5" font-family="Helvetica,sans-Serif" font-size="10.00">PitchSetting</text>
</a>
</g>
</g>
<!-- Node50&#45;&gt;Node62 -->
<g id="edge47" class="edge">
<title>Node50&#45;&gt;Node62</title>
<path fill="none" stroke="midnightblue" d="M260.35,-325.39C276.99,-320.18 294.95,-314.55 310.93,-309.55"/>
<polygon fill="midnightblue" stroke="midnightblue" points="259.23,-322.07 250.73,-328.4 261.32,-328.75 259.23,-322.07"/>
</g>
<!-- Node63 -->
<g id="node49" class="node">
<title>Node63</title>
<g id="a_node49"><a xlink:href="classtracktion_1_1engine_1_1TimeSigSetting.html" target="_top" xlink:title=" ">
<polygon fill="none" stroke="black" points="307.5,-230.5 307.5,-260.5 412.5,-260.5 412.5,-230.5 307.5,-230.5"/>
<text text-anchor="start" x="315.5" y="-248.5" font-family="Helvetica,sans-Serif" font-size="10.00">tracktion::engine::</text>
<text text-anchor="middle" x="360" y="-237.5" font-family="Helvetica,sans-Serif" font-size="10.00">TimeSigSetting</text>
</a>
</g>
</g>
<!-- Node50&#45;&gt;Node63 -->
<g id="edge48" class="edge">
<title>Node50&#45;&gt;Node63</title>
<path fill="none" stroke="midnightblue" d="M226.71,-321.59C245.24,-305.64 271.95,-284.31 298,-269.5 303.74,-266.24 310.01,-263.22 316.27,-260.51"/>
<polygon fill="midnightblue" stroke="midnightblue" points="224.28,-319.07 219.05,-328.29 228.88,-324.34 224.28,-319.07"/>
</g>
</g>
</svg>
