<?xml version="1.0" encoding="UTF-8" standalone="no"?>
<!DOCTYPE svg PUBLIC "-//W3C//DTD SVG 1.1//EN"
 "http://www.w3.org/Graphics/SVG/1.1/DTD/svg11.dtd">
<!-- Generated by graphviz version 2.43.0 (0)
 -->
<!-- Title: tracktion_graph::Node Pages: 1 -->
<svg width="585pt" height="1782pt"
 viewBox="0.00 0.00 585.00 1782.00" xmlns="http://www.w3.org/2000/svg" xmlns:xlink="http://www.w3.org/1999/xlink">
<g id="graph0" class="graph" transform="scale(1 1) rotate(0) translate(4 1778)">
<title>tracktion_graph::Node</title>
<!-- Node1 -->
<g id="node1" class="node">
<title>Node1</title>
<g id="a_node1"><a xlink:title="Main graph Node processor class.">
<polygon fill="#bfbfbf" stroke="black" points="0,-840.5 0,-859.5 125,-859.5 125,-840.5 0,-840.5"/>
<text text-anchor="middle" x="62.5" y="-847.5" font-family="Helvetica,sans-Serif" font-size="10.00">tracktion_graph::Node</text>
</a>
</g>
</g>
<!-- Node2 -->
<g id="node2" class="node">
<title>Node2</title>
<g id="a_node2"><a xlink:href="classtracktion__engine_1_1ClickNode.html" target="_top" xlink:title="Adds audio and MIDI clicks to the input buffers.">
<polygon fill="none" stroke="black" points="187.5,-1754.5 187.5,-1773.5 341.5,-1773.5 341.5,-1754.5 187.5,-1754.5"/>
<text text-anchor="middle" x="264.5" y="-1761.5" font-family="Helvetica,sans-Serif" font-size="10.00">tracktion_engine::ClickNode</text>
</a>
</g>
</g>
<!-- Node1&#45;&gt;Node2 -->
<g id="edge1" class="edge">
<title>Node1&#45;&gt;Node2</title>
<path fill="none" stroke="midnightblue" d="M64.25,-869.57C69.24,-994.6 99.21,-1678.41 161,-1745 168.2,-1752.76 177.46,-1757.97 187.47,-1761.38"/>
<polygon fill="midnightblue" stroke="midnightblue" points="67.75,-869.39 63.86,-859.53 60.75,-869.66 67.75,-869.39"/>
</g>
<!-- Node3 -->
<g id="node3" class="node">
<title>Node3</title>
<g id="a_node3"><a xlink:href="classtracktion__engine_1_1CombiningNode.html" target="_top" xlink:title="An AudioNode that mixes a sequence of clips of other nodes.">
<polygon fill="none" stroke="black" points="173.5,-1716.5 173.5,-1735.5 355.5,-1735.5 355.5,-1716.5 173.5,-1716.5"/>
<text text-anchor="middle" x="264.5" y="-1723.5" font-family="Helvetica,sans-Serif" font-size="10.00">tracktion_engine::CombiningNode</text>
</a>
</g>
</g>
<!-- Node1&#45;&gt;Node3 -->
<g id="edge2" class="edge">
<title>Node1&#45;&gt;Node3</title>
<path fill="none" stroke="midnightblue" d="M64.36,-869.87C69.88,-992.52 101.83,-1643.54 161,-1707 164.58,-1710.84 168.66,-1714.05 173.09,-1716.73"/>
<polygon fill="midnightblue" stroke="midnightblue" points="67.85,-869.52 63.91,-859.69 60.86,-869.83 67.85,-869.52"/>
</g>
<!-- Node4 -->
<g id="node4" class="node">
<title>Node4</title>
<g id="a_node4"><a xlink:href="classtracktion__engine_1_1FadeInOutNode.html" target="_top" xlink:title="A Node that fades in and out given time regions.">
<polygon fill="none" stroke="black" points="196.5,-1667 196.5,-1697 332.5,-1697 332.5,-1667 196.5,-1667"/>
<text text-anchor="start" x="204.5" y="-1685" font-family="Helvetica,sans-Serif" font-size="10.00">tracktion_engine::FadeIn</text>
<text text-anchor="middle" x="264.5" y="-1674" font-family="Helvetica,sans-Serif" font-size="10.00">OutNode</text>
</a>
</g>
</g>
<!-- Node1&#45;&gt;Node4 -->
<g id="edge3" class="edge">
<title>Node1&#45;&gt;Node4</title>
<path fill="none" stroke="midnightblue" d="M64.55,-869.79C70.96,-987.94 106.54,-1597.2 161,-1658 170.27,-1668.35 183.07,-1674.66 196.48,-1678.44"/>
<polygon fill="midnightblue" stroke="midnightblue" points="68.03,-869.45 64,-859.66 61.04,-869.83 68.03,-869.45"/>
</g>
<!-- Node5 -->
<g id="node5" class="node">
<title>Node5</title>
<g id="a_node5"><a xlink:href="classtracktion__engine_1_1InsertReturnNode.html" target="_top" xlink:title="The return node hooks into the input device and fills the insert&#39;s return buffer with data from the i...">
<polygon fill="none" stroke="black" points="198.5,-1618 198.5,-1648 330.5,-1648 330.5,-1618 198.5,-1618"/>
<text text-anchor="start" x="206.5" y="-1636" font-family="Helvetica,sans-Serif" font-size="10.00">tracktion_engine::Insert</text>
<text text-anchor="middle" x="264.5" y="-1625" font-family="Helvetica,sans-Serif" font-size="10.00">ReturnNode</text>
</a>
</g>
</g>
<!-- Node1&#45;&gt;Node5 -->
<g id="edge4" class="edge">
<title>Node1&#45;&gt;Node5</title>
<path fill="none" stroke="midnightblue" d="M63.12,-869.91C61.48,-978.25 59.11,-1496.13 161,-1609 170.74,-1619.79 184.31,-1626.19 198.4,-1629.89"/>
<polygon fill="midnightblue" stroke="midnightblue" points="66.62,-869.79 63.29,-859.74 59.62,-869.68 66.62,-869.79"/>
</g>
<!-- Node6 -->
<g id="node6" class="node">
<title>Node6</title>
<g id="a_node6"><a xlink:href="classtracktion__engine_1_1InsertSendNode.html" target="_top" xlink:title="The send node picks up audio/MIDI data from the InsertPlugin and then its output will be sent to the ...">
<polygon fill="none" stroke="black" points="198.5,-1569 198.5,-1599 330.5,-1599 330.5,-1569 198.5,-1569"/>
<text text-anchor="start" x="206.5" y="-1587" font-family="Helvetica,sans-Serif" font-size="10.00">tracktion_engine::Insert</text>
<text text-anchor="middle" x="264.5" y="-1576" font-family="Helvetica,sans-Serif" font-size="10.00">SendNode</text>
</a>
</g>
</g>
<!-- Node1&#45;&gt;Node6 -->
<g id="edge5" class="edge">
<title>Node1&#45;&gt;Node6</title>
<path fill="none" stroke="midnightblue" d="M63.32,-869.92C62.77,-974.07 65.52,-1455.15 161,-1560 170.78,-1570.74 184.37,-1577.13 198.47,-1580.83"/>
<polygon fill="midnightblue" stroke="midnightblue" points="66.82,-869.86 63.39,-859.84 59.82,-869.81 66.82,-869.86"/>
</g>
<!-- Node7 -->
<g id="node7" class="node">
<title>Node7</title>
<g id="a_node7"><a xlink:href="classtracktion__engine_1_1InsertSendReturnDependencyNode.html" target="_top" xlink:title="This is a bit confusing but is required to ensure the following set of dependencies in the graph: Ins...">
<polygon fill="none" stroke="black" points="185,-1520 185,-1550 344,-1550 344,-1520 185,-1520"/>
<text text-anchor="start" x="193" y="-1538" font-family="Helvetica,sans-Serif" font-size="10.00">tracktion_engine::Insert</text>
<text text-anchor="middle" x="264.5" y="-1527" font-family="Helvetica,sans-Serif" font-size="10.00">SendReturnDependencyNode</text>
</a>
</g>
</g>
<!-- Node1&#45;&gt;Node7 -->
<g id="edge6" class="edge">
<title>Node1&#45;&gt;Node7</title>
<path fill="none" stroke="midnightblue" d="M63.54,-869.78C64.14,-969.27 71.87,-1414.09 161,-1511 167.62,-1518.2 175.95,-1523.43 184.98,-1527.22"/>
<polygon fill="midnightblue" stroke="midnightblue" points="67.04,-869.61 63.5,-859.63 60.04,-869.64 67.04,-869.61"/>
</g>
<!-- Node8 -->
<g id="node8" class="node">
<title>Node8</title>
<g id="a_node8"><a xlink:href="classtracktion__engine_1_1LevelMeasurerProcessingNode.html" target="_top" xlink:title="A Node that introduces latency to balance the latency at the root Node and its position in the graph.">
<polygon fill="none" stroke="black" points="176.5,-1471 176.5,-1501 352.5,-1501 352.5,-1471 176.5,-1471"/>
<text text-anchor="start" x="184.5" y="-1489" font-family="Helvetica,sans-Serif" font-size="10.00">tracktion_engine::LevelMeasurer</text>
<text text-anchor="middle" x="264.5" y="-1478" font-family="Helvetica,sans-Serif" font-size="10.00">ProcessingNode</text>
</a>
</g>
</g>
<!-- Node1&#45;&gt;Node8 -->
<g id="edge7" class="edge">
<title>Node1&#45;&gt;Node8</title>
<path fill="none" stroke="midnightblue" d="M63.82,-870.05C65.77,-965.37 78.86,-1371.93 161,-1461 165.47,-1465.85 170.71,-1469.83 176.41,-1473.08"/>
<polygon fill="midnightblue" stroke="midnightblue" points="67.32,-869.72 63.63,-859.79 60.32,-869.85 67.32,-869.72"/>
</g>
<!-- Node9 -->
<g id="node9" class="node">
<title>Node9</title>
<g id="a_node9"><a xlink:href="classtracktion__engine_1_1LevelMeasuringNode.html" target="_top" xlink:title="A Node that passes its incomming audio and MIDI through a LevelMeasurer.">
<polygon fill="none" stroke="black" points="161,-1432.5 161,-1451.5 368,-1451.5 368,-1432.5 161,-1432.5"/>
<text text-anchor="middle" x="264.5" y="-1439.5" font-family="Helvetica,sans-Serif" font-size="10.00">tracktion_engine::LevelMeasuringNode</text>
</a>
</g>
</g>
<!-- Node1&#45;&gt;Node9 -->
<g id="edge8" class="edge">
<title>Node1&#45;&gt;Node9</title>
<path fill="none" stroke="midnightblue" d="M63.94,-869.76C66.4,-961.19 81.36,-1342.18 161,-1423 164.68,-1426.74 168.85,-1429.87 173.34,-1432.49"/>
<polygon fill="midnightblue" stroke="midnightblue" points="67.44,-869.57 63.69,-859.66 60.44,-869.75 67.44,-869.57"/>
</g>
<!-- Node10 -->
<g id="node10" class="node">
<title>Node10</title>
<g id="a_node10"><a xlink:href="classtracktion__engine_1_1LiveMidiInjectingNode.html" target="_top" xlink:title="A Node that injects MIDI message in to the stream, for keyboard key entry, note previews and MIDI ste...">
<polygon fill="none" stroke="black" points="191.5,-1383 191.5,-1413 337.5,-1413 337.5,-1383 191.5,-1383"/>
<text text-anchor="start" x="199.5" y="-1401" font-family="Helvetica,sans-Serif" font-size="10.00">tracktion_engine::LiveMidi</text>
<text text-anchor="middle" x="264.5" y="-1390" font-family="Helvetica,sans-Serif" font-size="10.00">InjectingNode</text>
</a>
</g>
</g>
<!-- Node1&#45;&gt;Node10 -->
<g id="edge9" class="edge">
<title>Node1&#45;&gt;Node10</title>
<path fill="none" stroke="midnightblue" d="M64.36,-869.61C68.56,-955.72 89.59,-1299.23 161,-1374 169.27,-1382.66 180.01,-1388.46 191.43,-1392.29"/>
<polygon fill="midnightblue" stroke="midnightblue" points="67.86,-869.45 63.9,-859.62 60.87,-869.77 67.86,-869.45"/>
</g>
<!-- Node11 -->
<g id="node11" class="node">
<title>Node11</title>
<g id="a_node11"><a xlink:href="classtracktion__engine_1_1LiveMidiOutputNode.html" target="_top" xlink:title="A Node that calls the listeners of an AudioTrack with any incomming MIDI.">
<polygon fill="none" stroke="black" points="191.5,-1334 191.5,-1364 337.5,-1364 337.5,-1334 191.5,-1334"/>
<text text-anchor="start" x="199.5" y="-1352" font-family="Helvetica,sans-Serif" font-size="10.00">tracktion_engine::LiveMidi</text>
<text text-anchor="middle" x="264.5" y="-1341" font-family="Helvetica,sans-Serif" font-size="10.00">OutputNode</text>
</a>
</g>
</g>
<!-- Node1&#45;&gt;Node11 -->
<g id="edge10" class="edge">
<title>Node1&#45;&gt;Node11</title>
<path fill="none" stroke="midnightblue" d="M64.85,-870.27C70.69,-952.13 96.52,-1257.13 161,-1324 169.26,-1332.57 179.94,-1338.4 191.27,-1342.33"/>
<polygon fill="midnightblue" stroke="midnightblue" points="68.31,-869.6 64.13,-859.87 61.32,-870.08 68.31,-869.6"/>
</g>
<!-- Node12 -->
<g id="node12" class="node">
<title>Node12</title>
<g id="a_node12"><a xlink:href="classtracktion__engine_1_1MelodyneNode.html" target="_top" xlink:title="Plays back a Melodyne plugin.">
<polygon fill="none" stroke="black" points="175.5,-1295.5 175.5,-1314.5 353.5,-1314.5 353.5,-1295.5 175.5,-1295.5"/>
<text text-anchor="middle" x="264.5" y="-1302.5" font-family="Helvetica,sans-Serif" font-size="10.00">tracktion_engine::MelodyneNode</text>
</a>
</g>
</g>
<!-- Node1&#45;&gt;Node12 -->
<g id="edge11" class="edge">
<title>Node1&#45;&gt;Node12</title>
<path fill="none" stroke="midnightblue" d="M65.08,-869.72C71.67,-946.85 99.52,-1226.73 161,-1286 165.3,-1290.14 170.19,-1293.54 175.46,-1296.3"/>
<polygon fill="midnightblue" stroke="midnightblue" points="68.55,-869.18 64.23,-859.5 61.57,-869.76 68.55,-869.18"/>
</g>
<!-- Node13 -->
<g id="node13" class="node">
<title>Node13</title>
<g id="a_node13"><a xlink:href="classtracktion__engine_1_1MidiInputDeviceNode.html" target="_top" xlink:title="A Node that intercepts incoming live MIDI and inserts it in to the playback graph.">
<polygon fill="none" stroke="black" points="189.5,-1246 189.5,-1276 339.5,-1276 339.5,-1246 189.5,-1246"/>
<text text-anchor="start" x="197.5" y="-1264" font-family="Helvetica,sans-Serif" font-size="10.00">tracktion_engine::MidiInput</text>
<text text-anchor="middle" x="264.5" y="-1253" font-family="Helvetica,sans-Serif" font-size="10.00">DeviceNode</text>
</a>
</g>
</g>
<!-- Node1&#45;&gt;Node13 -->
<g id="edge12" class="edge">
<title>Node1&#45;&gt;Node13</title>
<path fill="none" stroke="midnightblue" d="M65.84,-870.07C74.6,-941.68 107.66,-1183.09 161,-1236 168.93,-1243.87 178.91,-1249.41 189.49,-1253.28"/>
<polygon fill="midnightblue" stroke="midnightblue" points="69.27,-869.27 64.61,-859.76 62.32,-870.1 69.27,-869.27"/>
</g>
<!-- Node14 -->
<g id="node14" class="node">
<title>Node14</title>
<g id="a_node14"><a xlink:href="classtracktion__engine_1_1MidiNode.html" target="_top" xlink:title="A Node that plays MIDI data from a MidiMessageSequence, at a specific MIDI channel.">
<polygon fill="none" stroke="black" points="189,-1207.5 189,-1226.5 340,-1226.5 340,-1207.5 189,-1207.5"/>
<text text-anchor="middle" x="264.5" y="-1214.5" font-family="Helvetica,sans-Serif" font-size="10.00">tracktion_engine::MidiNode</text>
</a>
</g>
</g>
<!-- Node1&#45;&gt;Node14 -->
<g id="edge13" class="edge">
<title>Node1&#45;&gt;Node14</title>
<path fill="none" stroke="midnightblue" d="M66.23,-869.48C75.96,-935.96 110.98,-1152.28 161,-1198 168.88,-1205.2 178.58,-1210.1 188.83,-1213.36"/>
<polygon fill="midnightblue" stroke="midnightblue" points="69.69,-868.91 64.8,-859.51 62.76,-869.91 69.69,-868.91"/>
</g>
<!-- Node15 -->
<g id="node15" class="node">
<title>Node15</title>
<g id="a_node15"><a xlink:href="classtracktion__engine_1_1MidiOutputDeviceInstanceInjectingNode.html" target="_top" xlink:title="A Node that injects the MIDI buffer of its input to the MidiOutputDevice.">
<polygon fill="none" stroke="black" points="185,-1158 185,-1188 344,-1188 344,-1158 185,-1158"/>
<text text-anchor="start" x="193" y="-1176" font-family="Helvetica,sans-Serif" font-size="10.00">tracktion_engine::MidiOutput</text>
<text text-anchor="middle" x="264.5" y="-1165" font-family="Helvetica,sans-Serif" font-size="10.00">DeviceInstanceInjectingNode</text>
</a>
</g>
</g>
<!-- Node1&#45;&gt;Node15 -->
<g id="edge14" class="edge">
<title>Node1&#45;&gt;Node15</title>
<path fill="none" stroke="midnightblue" d="M63.75,-869.93C65.56,-923.44 78.2,-1071.34 161,-1148 167.85,-1154.35 176.05,-1159.16 184.77,-1162.79"/>
<polygon fill="midnightblue" stroke="midnightblue" points="67.25,-869.66 63.51,-859.75 60.25,-869.83 67.25,-869.66"/>
</g>
<!-- Node16 -->
<g id="node16" class="node">
<title>Node16</title>
<g id="a_node16"><a xlink:href="classtracktion__engine_1_1ModifierNode.html" target="_top" xlink:title="Node for processing a Modifier.">
<polygon fill="none" stroke="black" points="179.5,-1119.5 179.5,-1138.5 349.5,-1138.5 349.5,-1119.5 179.5,-1119.5"/>
<text text-anchor="middle" x="264.5" y="-1126.5" font-family="Helvetica,sans-Serif" font-size="10.00">tracktion_engine::ModifierNode</text>
</a>
</g>
</g>
<!-- Node1&#45;&gt;Node16 -->
<g id="edge15" class="edge">
<title>Node1&#45;&gt;Node16</title>
<path fill="none" stroke="midnightblue" d="M64.6,-869.91C68.45,-919.06 85.58,-1046.78 161,-1110 166.48,-1114.59 172.71,-1118.22 179.32,-1121.07"/>
<polygon fill="midnightblue" stroke="midnightblue" points="68.07,-869.41 63.91,-859.67 61.09,-869.89 68.07,-869.41"/>
</g>
<!-- Node17 -->
<g id="node17" class="node">
<title>Node17</title>
<g id="a_node17"><a xlink:href="classtracktion__engine_1_1PlayHeadPositionNode.html" target="_top" xlink:title="A Node that calculates a position to show visually what time is currently being processed by the grap...">
<polygon fill="none" stroke="black" points="189,-1070 189,-1100 340,-1100 340,-1070 189,-1070"/>
<text text-anchor="start" x="197" y="-1088" font-family="Helvetica,sans-Serif" font-size="10.00">tracktion_engine::PlayHead</text>
<text text-anchor="middle" x="264.5" y="-1077" font-family="Helvetica,sans-Serif" font-size="10.00">PositionNode</text>
</a>
</g>
</g>
<!-- Node1&#45;&gt;Node17 -->
<g id="edge16" class="edge">
<title>Node1&#45;&gt;Node17</title>
<path fill="none" stroke="midnightblue" d="M66.79,-869.76C74.84,-911.62 99.54,-1009.52 161,-1060 169.14,-1066.69 178.79,-1071.63 188.87,-1075.28"/>
<polygon fill="midnightblue" stroke="midnightblue" points="70.2,-868.96 64.98,-859.74 63.32,-870.21 70.2,-868.96"/>
</g>
<!-- Node18 -->
<g id="node18" class="node">
<title>Node18</title>
<g id="a_node18"><a xlink:href="classtracktion__engine_1_1PluginNode.html" target="_top" xlink:title="Node for processing a plugin.">
<polygon fill="none" stroke="black" points="184.5,-1031.5 184.5,-1050.5 344.5,-1050.5 344.5,-1031.5 184.5,-1031.5"/>
<text text-anchor="middle" x="264.5" y="-1038.5" font-family="Helvetica,sans-Serif" font-size="10.00">tracktion_engine::PluginNode</text>
</a>
</g>
</g>
<!-- Node1&#45;&gt;Node18 -->
<g id="edge17" class="edge">
<title>Node1&#45;&gt;Node18</title>
<path fill="none" stroke="midnightblue" d="M68.65,-869.63C79.29,-906.02 107.3,-983.73 161,-1022 168.07,-1027.04 176.1,-1030.86 184.47,-1033.74"/>
<polygon fill="midnightblue" stroke="midnightblue" points="71.95,-868.45 65.9,-859.75 65.21,-870.33 71.95,-868.45"/>
</g>
<!-- Node19 -->
<g id="node19" class="node">
<title>Node19</title>
<g id="a_node19"><a xlink:href="classtracktion__engine_1_1RackInstanceNode.html" target="_top" xlink:title="Sends an input Node to a Rack bus handling the channel mapping and channel gain levels.">
<polygon fill="none" stroke="black" points="167,-993.5 167,-1012.5 362,-1012.5 362,-993.5 167,-993.5"/>
<text text-anchor="middle" x="264.5" y="-1000.5" font-family="Helvetica,sans-Serif" font-size="10.00">tracktion_engine::RackInstanceNode</text>
</a>
</g>
</g>
<!-- Node1&#45;&gt;Node19 -->
<g id="edge18" class="edge">
<title>Node1&#45;&gt;Node19</title>
<path fill="none" stroke="midnightblue" d="M71.61,-869C85.35,-898.73 116.15,-955.72 161,-984 167.12,-987.86 173.84,-990.98 180.8,-993.49"/>
<polygon fill="midnightblue" stroke="midnightblue" points="74.74,-867.43 67.47,-859.72 68.35,-870.28 74.74,-867.43"/>
</g>
<!-- Node20 -->
<g id="node20" class="node">
<title>Node20</title>
<g id="a_node20"><a xlink:href="classtracktion__engine_1_1RackReturnNode.html" target="_top" xlink:title="Sends an input Node to a Rack bus handling the channel mapping and channel gain levels.">
<polygon fill="none" stroke="black" points="171.5,-955.5 171.5,-974.5 357.5,-974.5 357.5,-955.5 171.5,-955.5"/>
<text text-anchor="middle" x="264.5" y="-962.5" font-family="Helvetica,sans-Serif" font-size="10.00">tracktion_engine::RackReturnNode</text>
</a>
</g>
</g>
<!-- Node1&#45;&gt;Node20 -->
<g id="edge19" class="edge">
<title>Node1&#45;&gt;Node20</title>
<path fill="none" stroke="midnightblue" d="M76.07,-867.69C92.79,-889.78 124.53,-926.99 161,-946 168.46,-949.89 176.6,-952.99 184.91,-955.47"/>
<polygon fill="midnightblue" stroke="midnightblue" points="78.79,-865.48 70.04,-859.5 73.15,-869.63 78.79,-865.48"/>
</g>
<!-- Node21 -->
<g id="node21" class="node">
<title>Node21</title>
<g id="a_node21"><a xlink:href="classtracktion__engine_1_1SharedLevelMeasuringNode.html" target="_top" xlink:title="Applies a SharedLevelMeter to the audio passing through this node.">
<polygon fill="none" stroke="black" points="195.5,-906 195.5,-936 333.5,-936 333.5,-906 195.5,-906"/>
<text text-anchor="start" x="203.5" y="-924" font-family="Helvetica,sans-Serif" font-size="10.00">tracktion_engine::Shared</text>
<text text-anchor="middle" x="264.5" y="-913" font-family="Helvetica,sans-Serif" font-size="10.00">LevelMeasuringNode</text>
</a>
</g>
</g>
<!-- Node1&#45;&gt;Node21 -->
<g id="edge20" class="edge">
<title>Node1&#45;&gt;Node21</title>
<path fill="none" stroke="midnightblue" d="M89.66,-864.56C108.92,-874.78 135.99,-888.16 161,-897 171.94,-900.87 183.76,-904.29 195.35,-907.26"/>
<polygon fill="midnightblue" stroke="midnightblue" points="91.08,-861.35 80.62,-859.68 87.76,-867.51 91.08,-861.35"/>
</g>
<!-- Node22 -->
<g id="node22" class="node">
<title>Node22</title>
<g id="a_node22"><a xlink:href="classtracktion__engine_1_1SpeedRampWaveNode.html" target="_top" xlink:title="An Node that plays back a wave file.">
<polygon fill="none" stroke="black" points="183,-857 183,-887 346,-887 346,-857 183,-857"/>
<text text-anchor="start" x="191" y="-875" font-family="Helvetica,sans-Serif" font-size="10.00">tracktion_engine::SpeedRamp</text>
<text text-anchor="middle" x="264.5" y="-864" font-family="Helvetica,sans-Serif" font-size="10.00">WaveNode</text>
</a>
</g>
</g>
<!-- Node1&#45;&gt;Node22 -->
<g id="edge21" class="edge">
<title>Node1&#45;&gt;Node22</title>
<path fill="none" stroke="midnightblue" d="M135.15,-857.88C150.64,-859.58 167.11,-861.4 182.91,-863.13"/>
<polygon fill="midnightblue" stroke="midnightblue" points="135.46,-854.39 125.14,-856.78 134.7,-861.35 135.46,-854.39"/>
</g>
<!-- Node23 -->
<g id="node23" class="node">
<title>Node23</title>
<g id="a_node23"><a xlink:href="classtracktion__engine_1_1TimedMutingNode.html" target="_top" xlink:title="A Node that mutes its input at specific time ranges.">
<polygon fill="none" stroke="black" points="167.5,-818.5 167.5,-837.5 361.5,-837.5 361.5,-818.5 167.5,-818.5"/>
<text text-anchor="middle" x="264.5" y="-825.5" font-family="Helvetica,sans-Serif" font-size="10.00">tracktion_engine::TimedMutingNode</text>
</a>
</g>
</g>
<!-- Node1&#45;&gt;Node23 -->
<g id="edge22" class="edge">
<title>Node1&#45;&gt;Node23</title>
<path fill="none" stroke="midnightblue" d="M135.32,-842.1C148.86,-840.61 163.14,-839.04 177.06,-837.51"/>
<polygon fill="midnightblue" stroke="midnightblue" points="134.7,-838.65 125.14,-843.22 135.46,-845.61 134.7,-838.65"/>
</g>
<!-- Node24 -->
<g id="node24" class="node">
<title>Node24</title>
<g id="a_node24"><a xlink:href="classtracktion__engine_1_1TimeStretchingWaveNode.html" target="_top" xlink:title="Node that reads from a file node and timestretches its output.">
<polygon fill="none" stroke="black" points="175,-769 175,-799 354,-799 354,-769 175,-769"/>
<text text-anchor="start" x="183" y="-787" font-family="Helvetica,sans-Serif" font-size="10.00">tracktion_engine::TimeStretching</text>
<text text-anchor="middle" x="264.5" y="-776" font-family="Helvetica,sans-Serif" font-size="10.00">WaveNode</text>
</a>
</g>
</g>
<!-- Node1&#45;&gt;Node24 -->
<g id="edge23" class="edge">
<title>Node1&#45;&gt;Node24</title>
<path fill="none" stroke="midnightblue" d="M93.03,-836.13C112.13,-827.53 137.69,-816.69 161,-809 171.96,-805.38 183.73,-802.03 195.25,-799.04"/>
<polygon fill="midnightblue" stroke="midnightblue" points="91.33,-833.07 83.68,-840.4 94.23,-839.43 91.33,-833.07"/>
</g>
<!-- Node25 -->
<g id="node25" class="node">
<title>Node25</title>
<g id="a_node25"><a xlink:href="classtracktion__engine_1_1TrackMidiInputDeviceNode.html" target="_top" xlink:title="A Node that takes MIDI from the output of a track and sends it to its corresponding InputDevice.">
<polygon fill="none" stroke="black" points="189,-720 189,-750 340,-750 340,-720 189,-720"/>
<text text-anchor="start" x="197" y="-738" font-family="Helvetica,sans-Serif" font-size="10.00">tracktion_engine::TrackMidi</text>
<text text-anchor="middle" x="264.5" y="-727" font-family="Helvetica,sans-Serif" font-size="10.00">InputDeviceNode</text>
</a>
</g>
</g>
<!-- Node1&#45;&gt;Node25 -->
<g id="edge24" class="edge">
<title>Node1&#45;&gt;Node25</title>
<path fill="none" stroke="midnightblue" d="M77.51,-832.53C94.91,-812.03 126.54,-778.48 161,-760 169.64,-755.37 179.14,-751.58 188.77,-748.49"/>
<polygon fill="midnightblue" stroke="midnightblue" points="74.64,-830.5 70.96,-840.44 80.03,-834.97 74.64,-830.5"/>
</g>
<!-- Node26 -->
<g id="node26" class="node">
<title>Node26</title>
<g id="a_node26"><a xlink:href="classtracktion__engine_1_1TrackMutingNode.html" target="_top" xlink:title="A Node that handles muting/soloing of its input node, according to the audibility of a track.">
<polygon fill="none" stroke="black" points="170,-681.5 170,-700.5 359,-700.5 359,-681.5 170,-681.5"/>
<text text-anchor="middle" x="264.5" y="-688.5" font-family="Helvetica,sans-Serif" font-size="10.00">tracktion_engine::TrackMutingNode</text>
</a>
</g>
</g>
<!-- Node1&#45;&gt;Node26 -->
<g id="edge25" class="edge">
<title>Node1&#45;&gt;Node26</title>
<path fill="none" stroke="midnightblue" d="M71.25,-830.79C84.66,-800.17 115.22,-740.72 161,-711 167.61,-706.7 174.94,-703.29 182.55,-700.59"/>
<polygon fill="midnightblue" stroke="midnightblue" points="67.89,-829.75 67.22,-840.32 74.34,-832.47 67.89,-829.75"/>
</g>
<!-- Node27 -->
<g id="node27" class="node">
<title>Node27</title>
<g id="a_node27"><a xlink:href="classtracktion__engine_1_1TrackWaveInputDeviceNode.html" target="_top" xlink:title="A Node that takes audio from the output of a track and sends it to its corresponding InputDevice.">
<polygon fill="none" stroke="black" points="186,-632 186,-662 343,-662 343,-632 186,-632"/>
<text text-anchor="start" x="194" y="-650" font-family="Helvetica,sans-Serif" font-size="10.00">tracktion_engine::TrackWave</text>
<text text-anchor="middle" x="264.5" y="-639" font-family="Helvetica,sans-Serif" font-size="10.00">InputDeviceNode</text>
</a>
</g>
</g>
<!-- Node1&#45;&gt;Node27 -->
<g id="edge26" class="edge">
<title>Node1&#45;&gt;Node27</title>
<path fill="none" stroke="midnightblue" d="M68.5,-830.5C79.02,-793.57 107.04,-713.4 161,-672 168.41,-666.31 176.94,-661.9 185.84,-658.48"/>
<polygon fill="midnightblue" stroke="midnightblue" points="65.03,-829.92 65.79,-840.49 71.79,-831.76 65.03,-829.92"/>
</g>
<!-- Node28 -->
<g id="node28" class="node">
<title>Node28</title>
<g id="a_node28"><a xlink:href="classtracktion__engine_1_1WaveInputDeviceNode.html" target="_top" xlink:title="A Node that intercepts incoming live audio and inserts it in to the playback graph.">
<polygon fill="none" stroke="black" points="186.5,-583 186.5,-613 342.5,-613 342.5,-583 186.5,-583"/>
<text text-anchor="start" x="194.5" y="-601" font-family="Helvetica,sans-Serif" font-size="10.00">tracktion_engine::WaveInput</text>
<text text-anchor="middle" x="264.5" y="-590" font-family="Helvetica,sans-Serif" font-size="10.00">DeviceNode</text>
</a>
</g>
</g>
<!-- Node1&#45;&gt;Node28 -->
<g id="edge27" class="edge">
<title>Node1&#45;&gt;Node28</title>
<path fill="none" stroke="midnightblue" d="M66,-830.48C72.72,-786.37 95.33,-678.56 161,-623 168.41,-616.73 177.15,-611.98 186.34,-608.4"/>
<polygon fill="midnightblue" stroke="midnightblue" points="62.52,-830.08 64.59,-840.47 69.45,-831.06 62.52,-830.08"/>
</g>
<!-- Node29 -->
<g id="node29" class="node">
<title>Node29</title>
<g id="a_node29"><a xlink:href="classtracktion__engine_1_1WaveNode.html" target="_top" xlink:title="An Node that plays back a wave file.">
<polygon fill="none" stroke="black" points="186,-544.5 186,-563.5 343,-563.5 343,-544.5 186,-544.5"/>
<text text-anchor="middle" x="264.5" y="-551.5" font-family="Helvetica,sans-Serif" font-size="10.00">tracktion_engine::WaveNode</text>
</a>
</g>
</g>
<!-- Node1&#45;&gt;Node29 -->
<g id="edge28" class="edge">
<title>Node1&#45;&gt;Node29</title>
<path fill="none" stroke="midnightblue" d="M64.14,-830.3C66.92,-779.33 81.77,-642.37 161,-574 168.21,-567.78 176.77,-563.27 185.83,-560.03"/>
<polygon fill="midnightblue" stroke="midnightblue" points="60.64,-830.17 63.69,-840.32 67.63,-830.49 60.64,-830.17"/>
</g>
<!-- Node30 -->
<g id="node30" class="node">
<title>Node30</title>
<g id="a_node30"><a xlink:href="classtracktion__graph_1_1BasicSummingNode.html" target="_top" xlink:title=" ">
<polygon fill="none" stroke="black" points="166,-506.5 166,-525.5 363,-525.5 363,-506.5 166,-506.5"/>
<text text-anchor="middle" x="264.5" y="-513.5" font-family="Helvetica,sans-Serif" font-size="10.00">tracktion_graph::BasicSummingNode</text>
</a>
</g>
</g>
<!-- Node1&#45;&gt;Node30 -->
<g id="edge29" class="edge">
<title>Node1&#45;&gt;Node30</title>
<path fill="none" stroke="midnightblue" d="M63.11,-830.19C63.18,-774.34 71.55,-614.56 161,-535 165.19,-531.27 169.87,-528.17 174.86,-525.59"/>
<polygon fill="midnightblue" stroke="midnightblue" points="59.61,-830.49 63.2,-840.46 66.61,-830.43 59.61,-830.49"/>
</g>
<!-- Node31 -->
<g id="node31" class="node">
<title>Node31</title>
<g id="a_node31"><a xlink:href="classtracktion__graph_1_1ChannelRemappingNode.html" target="_top" xlink:title="Maps channels from one to another.">
<polygon fill="none" stroke="black" points="195,-457 195,-487 334,-487 334,-457 195,-457"/>
<text text-anchor="start" x="203" y="-475" font-family="Helvetica,sans-Serif" font-size="10.00">tracktion_graph::Channel</text>
<text text-anchor="middle" x="264.5" y="-464" font-family="Helvetica,sans-Serif" font-size="10.00">RemappingNode</text>
</a>
</g>
</g>
<!-- Node1&#45;&gt;Node31 -->
<g id="edge30" class="edge">
<title>Node1&#45;&gt;Node31</title>
<path fill="none" stroke="midnightblue" d="M66.29,-830.34C76.19,-763.26 111.72,-544.81 161,-497 170.33,-487.94 182.37,-481.99 194.9,-478.11"/>
<polygon fill="midnightblue" stroke="midnightblue" points="62.8,-830.01 64.83,-840.41 69.73,-831.01 62.8,-830.01"/>
</g>
<!-- Node32 -->
<g id="node32" class="node">
<title>Node32</title>
<g id="a_node32"><a xlink:href="classtracktion__graph_1_1ConnectedNode.html" target="_top" xlink:title="An Node which sums together the multiple inputs adding additional latency to provide a coherent outpu...">
<polygon fill="none" stroke="black" points="176.5,-418.5 176.5,-437.5 352.5,-437.5 352.5,-418.5 176.5,-418.5"/>
<text text-anchor="middle" x="264.5" y="-425.5" font-family="Helvetica,sans-Serif" font-size="10.00">tracktion_graph::ConnectedNode</text>
</a>
</g>
</g>
<!-- Node1&#45;&gt;Node32 -->
<g id="edge31" class="edge">
<title>Node1&#45;&gt;Node32</title>
<path fill="none" stroke="midnightblue" d="M65.53,-829.96C73.41,-756.32 104.33,-502.16 161,-448 165.59,-443.62 170.84,-440.06 176.48,-437.18"/>
<polygon fill="midnightblue" stroke="midnightblue" points="62.02,-829.86 64.47,-840.17 68.99,-830.59 62.02,-829.86"/>
</g>
<!-- Node33 -->
<g id="node33" class="node">
<title>Node33</title>
<g id="a_node33"><a xlink:href="classtracktion__graph_1_1ForwardingNode.html" target="_top" xlink:title="Takes a non&#45;owning input node and simply forwards its outputs on.">
<polygon fill="none" stroke="black" points="175,-380.5 175,-399.5 354,-399.5 354,-380.5 175,-380.5"/>
<text text-anchor="middle" x="264.5" y="-387.5" font-family="Helvetica,sans-Serif" font-size="10.00">tracktion_graph::ForwardingNode</text>
</a>
</g>
</g>
<!-- Node1&#45;&gt;Node33 -->
<g id="edge32" class="edge">
<title>Node1&#45;&gt;Node33</title>
<path fill="none" stroke="midnightblue" d="M65.04,-830.05C71.5,-752.05 98.92,-468.99 161,-409 165.16,-404.98 169.89,-401.66 174.97,-398.94"/>
<polygon fill="midnightblue" stroke="midnightblue" points="61.53,-830.14 64.21,-840.39 68.5,-830.7 61.53,-830.14"/>
</g>
<!-- Node34 -->
<g id="node34" class="node">
<title>Node34</title>
<g id="a_node34"><a xlink:href="classtracktion__graph_1_1FunctionNode.html" target="_top" xlink:title=" ">
<polygon fill="none" stroke="black" points="181.5,-342.5 181.5,-361.5 347.5,-361.5 347.5,-342.5 181.5,-342.5"/>
<text text-anchor="middle" x="264.5" y="-349.5" font-family="Helvetica,sans-Serif" font-size="10.00">tracktion_graph::FunctionNode</text>
</a>
</g>
</g>
<!-- Node1&#45;&gt;Node34 -->
<g id="edge33" class="edge">
<title>Node1&#45;&gt;Node34</title>
<path fill="none" stroke="midnightblue" d="M64.68,-829.95C69.92,-747.63 93.93,-436.9 161,-371 166.81,-365.29 173.74,-361 181.23,-357.81"/>
<polygon fill="midnightblue" stroke="midnightblue" points="61.15,-830.18 64.04,-840.38 68.14,-830.61 61.15,-830.18"/>
</g>
<!-- Node35 -->
<g id="node35" class="node">
<title>Node35</title>
<g id="a_node35"><a xlink:href="classtracktion__graph_1_1GainNode.html" target="_top" xlink:title=" ">
<polygon fill="none" stroke="black" points="191,-304.5 191,-323.5 338,-323.5 338,-304.5 191,-304.5"/>
<text text-anchor="middle" x="264.5" y="-311.5" font-family="Helvetica,sans-Serif" font-size="10.00">tracktion_graph::GainNode</text>
</a>
</g>
</g>
<!-- Node1&#45;&gt;Node35 -->
<g id="edge34" class="edge">
<title>Node1&#45;&gt;Node35</title>
<path fill="none" stroke="midnightblue" d="M64.33,-830.3C68.38,-744.57 88.8,-404.98 161,-333 169.2,-324.82 179.71,-319.55 190.86,-316.23"/>
<polygon fill="midnightblue" stroke="midnightblue" points="60.83,-830.32 63.88,-840.47 67.82,-830.63 60.83,-830.32"/>
</g>
<!-- Node36 -->
<g id="node36" class="node">
<title>Node36</title>
<g id="a_node36"><a xlink:href="classtracktion__graph_1_1LatencyNode.html" target="_top" xlink:title=" ">
<polygon fill="none" stroke="black" points="183,-266.5 183,-285.5 346,-285.5 346,-266.5 183,-266.5"/>
<text text-anchor="middle" x="264.5" y="-273.5" font-family="Helvetica,sans-Serif" font-size="10.00">tracktion_graph::LatencyNode</text>
</a>
</g>
</g>
<!-- Node1&#45;&gt;Node36 -->
<g id="edge35" class="edge">
<title>Node1&#45;&gt;Node36</title>
<path fill="none" stroke="midnightblue" d="M64.07,-830.01C67.05,-739.95 83.83,-372.9 161,-295 167.18,-288.76 174.69,-284.21 182.82,-280.92"/>
<polygon fill="midnightblue" stroke="midnightblue" points="60.56,-830.11 63.75,-840.21 67.56,-830.32 60.56,-830.11"/>
</g>
<!-- Node37 -->
<g id="node37" class="node">
<title>Node37</title>
<g id="a_node37"><a xlink:href="classtracktion__graph_1_1MidiNode.html" target="_top" xlink:title="Plays back a MIDI sequence.">
<polygon fill="none" stroke="black" points="191.5,-228.5 191.5,-247.5 337.5,-247.5 337.5,-228.5 191.5,-228.5"/>
<text text-anchor="middle" x="264.5" y="-235.5" font-family="Helvetica,sans-Serif" font-size="10.00">tracktion_graph::MidiNode</text>
</a>
</g>
</g>
<!-- Node1&#45;&gt;Node37 -->
<g id="edge36" class="edge">
<title>Node1&#45;&gt;Node37</title>
<path fill="none" stroke="midnightblue" d="M63.81,-830.44C65.72,-737.46 78.64,-341.06 161,-257 169.3,-248.53 180.06,-243.15 191.48,-239.84"/>
<polygon fill="midnightblue" stroke="midnightblue" points="60.31,-830.39 63.63,-840.45 67.31,-830.52 60.31,-830.39"/>
</g>
<!-- Node38 -->
<g id="node38" class="node">
<title>Node38</title>
<g id="a_node38"><a xlink:href="classtracktion__graph_1_1ReturnNode.html" target="_top" xlink:title=" ">
<polygon fill="none" stroke="black" points="186,-190.5 186,-209.5 343,-209.5 343,-190.5 186,-190.5"/>
<text text-anchor="middle" x="264.5" y="-197.5" font-family="Helvetica,sans-Serif" font-size="10.00">tracktion_graph::ReturnNode</text>
</a>
</g>
</g>
<!-- Node1&#45;&gt;Node38 -->
<g id="edge37" class="edge">
<title>Node1&#45;&gt;Node38</title>
<path fill="none" stroke="midnightblue" d="M63.61,-830.13C64.54,-732.97 73.65,-309.01 161,-219 167.93,-211.86 176.62,-206.91 185.98,-203.53"/>
<polygon fill="midnightblue" stroke="midnightblue" points="60.1,-830.28 63.53,-840.31 67.1,-830.34 60.1,-830.28"/>
</g>
<!-- Node39 -->
<g id="node39" class="node">
<title>Node39</title>
<g id="a_node39"><a xlink:href="classtracktion__graph_1_1SendNode.html" target="_top" xlink:title=" ">
<polygon fill="none" stroke="black" points="190,-152.5 190,-171.5 339,-171.5 339,-152.5 190,-152.5"/>
<text text-anchor="middle" x="264.5" y="-159.5" font-family="Helvetica,sans-Serif" font-size="10.00">tracktion_graph::SendNode</text>
</a>
</g>
</g>
<!-- Node1&#45;&gt;Node39 -->
<g id="edge38" class="edge">
<title>Node1&#45;&gt;Node39</title>
<path fill="none" stroke="midnightblue" d="M63.41,-830.21C63.4,-729.73 68.54,-277.1 161,-181 168.84,-172.85 178.97,-167.55 189.79,-164.18"/>
<polygon fill="midnightblue" stroke="midnightblue" points="59.91,-830.22 63.43,-840.22 66.91,-830.21 59.91,-830.22"/>
</g>
<!-- Node41 -->
<g id="node41" class="node">
<title>Node41</title>
<g id="a_node41"><a xlink:href="classtracktion__graph_1_1SilentNode.html" target="_top" xlink:title="Just a simple audio node that doesn&#39;t take any input so can be used as a stub.">
<polygon fill="none" stroke="black" points="188.5,-114.5 188.5,-133.5 340.5,-133.5 340.5,-114.5 188.5,-114.5"/>
<text text-anchor="middle" x="264.5" y="-121.5" font-family="Helvetica,sans-Serif" font-size="10.00">tracktion_graph::SilentNode</text>
</a>
</g>
</g>
<!-- Node1&#45;&gt;Node41 -->
<g id="edge40" class="edge">
<title>Node1&#45;&gt;Node41</title>
<path fill="none" stroke="midnightblue" d="M63.24,-830.08C62.32,-725.96 63.48,-245.14 161,-143 168.5,-135.15 178.11,-129.93 188.44,-126.55"/>
<polygon fill="midnightblue" stroke="midnightblue" points="59.74,-830.2 63.35,-840.16 66.74,-830.13 59.74,-830.2"/>
</g>
<!-- Node42 -->
<g id="node42" class="node">
<title>Node42</title>
<g id="a_node42"><a xlink:href="classtracktion__graph_1_1SinkNode.html" target="_top" xlink:title="Blocks audio and MIDI input from reaching the outputs.">
<polygon fill="none" stroke="black" points="191.5,-76.5 191.5,-95.5 337.5,-95.5 337.5,-76.5 191.5,-76.5"/>
<text text-anchor="middle" x="264.5" y="-83.5" font-family="Helvetica,sans-Serif" font-size="10.00">tracktion_graph::SinkNode</text>
</a>
</g>
</g>
<!-- Node1&#45;&gt;Node42 -->
<g id="edge41" class="edge">
<title>Node1&#45;&gt;Node42</title>
<path fill="none" stroke="midnightblue" d="M63.09,-830.38C61.3,-723.6 58.27,-213.34 161,-105 169.16,-96.4 179.85,-90.95 191.25,-87.61"/>
<polygon fill="midnightblue" stroke="midnightblue" points="59.59,-830.47 63.28,-840.4 66.59,-830.34 59.59,-830.47"/>
</g>
<!-- Node43 -->
<g id="node43" class="node">
<title>Node43</title>
<g id="a_node43"><a xlink:href="classtracktion__graph_1_1SinNode.html" target="_top" xlink:title=" ">
<polygon fill="none" stroke="black" points="194.5,-38.5 194.5,-57.5 334.5,-57.5 334.5,-38.5 194.5,-38.5"/>
<text text-anchor="middle" x="264.5" y="-45.5" font-family="Helvetica,sans-Serif" font-size="10.00">tracktion_graph::SinNode</text>
</a>
</g>
</g>
<!-- Node1&#45;&gt;Node43 -->
<g id="edge42" class="edge">
<title>Node1&#45;&gt;Node43</title>
<path fill="none" stroke="midnightblue" d="M64.59,-830.07C71.15,-713.64 106.84,-124.47 161,-67 169.87,-57.58 181.79,-51.94 194.35,-48.71"/>
<polygon fill="midnightblue" stroke="midnightblue" points="61.08,-830.18 64.02,-840.36 68.07,-830.57 61.08,-830.18"/>
</g>
<!-- Node44 -->
<g id="node44" class="node">
<title>Node44</title>
<g id="a_node44"><a xlink:href="classtracktion__graph_1_1SummingNode.html" target="_top" xlink:title="An Node which sums together the multiple inputs adding additional latency to provide a coherent outpu...">
<polygon fill="none" stroke="black" points="179,-0.5 179,-19.5 350,-19.5 350,-0.5 179,-0.5"/>
<text text-anchor="middle" x="264.5" y="-7.5" font-family="Helvetica,sans-Serif" font-size="10.00">tracktion_graph::SummingNode</text>
</a>
</g>
</g>
<!-- Node1&#45;&gt;Node44 -->
<g id="edge43" class="edge">
<title>Node1&#45;&gt;Node44</title>
<path fill="none" stroke="midnightblue" d="M64.46,-830.23C70.46,-710.89 104.25,-89.57 161,-29 166.07,-23.59 172.15,-19.42 178.78,-16.24"/>
<polygon fill="midnightblue" stroke="midnightblue" points="60.96,-830.29 63.96,-840.45 67.95,-830.63 60.96,-830.29"/>
</g>
<!-- Node40 -->
<g id="node40" class="node">
<title>Node40</title>
<g id="a_node40"><a xlink:href="classtracktion__engine_1_1AuxSendNode.html" target="_top" xlink:title="Node for an aux send.">
<polygon fill="none" stroke="black" points="404,-152.5 404,-171.5 577,-171.5 577,-152.5 404,-152.5"/>
<text text-anchor="middle" x="490.5" y="-159.5" font-family="Helvetica,sans-Serif" font-size="10.00">tracktion_engine::AuxSendNode</text>
</a>
</g>
</g>
<!-- Node39&#45;&gt;Node40 -->
<g id="edge39" class="edge">
<title>Node39&#45;&gt;Node40</title>
<path fill="none" stroke="midnightblue" d="M349.47,-162C367.21,-162 385.94,-162 403.75,-162"/>
<polygon fill="midnightblue" stroke="midnightblue" points="349.16,-158.5 339.16,-162 349.16,-165.5 349.16,-158.5"/>
</g>
</g>
</svg>
