<?xml version="1.0" encoding="UTF-8" standalone="no"?>
<!DOCTYPE svg PUBLIC "-//W3C//DTD SVG 1.1//EN"
 "http://www.w3.org/Graphics/SVG/1.1/DTD/svg11.dtd">
<!-- Generated by graphviz version 2.43.0 (0)
 -->
<!-- Title: tracktion::engine::PhysicalMidiInputDevice Pages: 1 -->
<svg width="145pt" height="240pt"
 viewBox="0.00 0.00 145.00 240.00" xmlns="http://www.w3.org/2000/svg" xmlns:xlink="http://www.w3.org/1999/xlink">
<g id="graph0" class="graph" transform="scale(1 1) rotate(0) translate(4 236)">
<title>tracktion::engine::PhysicalMidiInputDevice</title>
<!-- Node1 -->
<g id="node1" class="node">
<title>Node1</title>
<g id="a_node1"><a xlink:title=" ">
<polygon fill="#bfbfbf" stroke="black" points="0,-0.5 0,-30.5 137,-30.5 137,-0.5 0,-0.5"/>
<text text-anchor="start" x="8" y="-18.5" font-family="Helvetica,sans-Serif" font-size="10.00">tracktion::engine::</text>
<text text-anchor="middle" x="68.5" y="-7.5" font-family="Helvetica,sans-Serif" font-size="10.00">PhysicalMidiInputDevice</text>
</a>
</g>
</g>
<!-- Node2 -->
<g id="node2" class="node">
<title>Node2</title>
<g id="a_node2"><a xlink:href="classtracktion_1_1engine_1_1MidiInputDevice.html" target="_top" xlink:title=" ">
<polygon fill="none" stroke="black" points="16,-67.5 16,-97.5 121,-97.5 121,-67.5 16,-67.5"/>
<text text-anchor="start" x="24" y="-85.5" font-family="Helvetica,sans-Serif" font-size="10.00">tracktion::engine::</text>
<text text-anchor="middle" x="68.5" y="-74.5" font-family="Helvetica,sans-Serif" font-size="10.00">MidiInputDevice</text>
</a>
</g>
</g>
<!-- Node2&#45;&gt;Node1 -->
<g id="edge1" class="edge">
<title>Node2&#45;&gt;Node1</title>
<path fill="none" stroke="midnightblue" d="M68.5,-57.11C68.5,-48.15 68.5,-38.32 68.5,-30.58"/>
<polygon fill="midnightblue" stroke="midnightblue" points="65,-57.4 68.5,-67.4 72,-57.4 65,-57.4"/>
</g>
<!-- Node3 -->
<g id="node3" class="node">
<title>Node3</title>
<g id="a_node3"><a xlink:href="classtracktion_1_1engine_1_1InputDevice.html" target="_top" xlink:title="Represents an input device.">
<polygon fill="none" stroke="black" points="16,-134.5 16,-164.5 121,-164.5 121,-134.5 16,-134.5"/>
<text text-anchor="start" x="24" y="-152.5" font-family="Helvetica,sans-Serif" font-size="10.00">tracktion::engine::</text>
<text text-anchor="middle" x="68.5" y="-141.5" font-family="Helvetica,sans-Serif" font-size="10.00">InputDevice</text>
</a>
</g>
</g>
<!-- Node3&#45;&gt;Node2 -->
<g id="edge2" class="edge">
<title>Node3&#45;&gt;Node2</title>
<path fill="none" stroke="midnightblue" d="M68.5,-124.11C68.5,-115.15 68.5,-105.32 68.5,-97.58"/>
<polygon fill="midnightblue" stroke="midnightblue" points="65,-124.4 68.5,-134.4 72,-124.4 65,-124.4"/>
</g>
<!-- Node4 -->
<g id="node4" class="node">
<title>Node4</title>
<g id="a_node4"><a xlink:href="classtracktion_1_1engine_1_1Selectable.html" target="_top" xlink:title="Base class for things that can be selected, and whose properties can appear in the properties panel.">
<polygon fill="none" stroke="black" points="16,-201.5 16,-231.5 121,-231.5 121,-201.5 16,-201.5"/>
<text text-anchor="start" x="24" y="-219.5" font-family="Helvetica,sans-Serif" font-size="10.00">tracktion::engine::</text>
<text text-anchor="middle" x="68.5" y="-208.5" font-family="Helvetica,sans-Serif" font-size="10.00">Selectable</text>
</a>
</g>
</g>
<!-- Node4&#45;&gt;Node3 -->
<g id="edge3" class="edge">
<title>Node4&#45;&gt;Node3</title>
<path fill="none" stroke="midnightblue" d="M68.5,-191.11C68.5,-182.15 68.5,-172.32 68.5,-164.58"/>
<polygon fill="midnightblue" stroke="midnightblue" points="65,-191.4 68.5,-201.4 72,-191.4 65,-191.4"/>
</g>
</g>
</svg>
