<?xml version="1.0" encoding="UTF-8" standalone="no"?>
<!DOCTYPE svg PUBLIC "-//W3C//DTD SVG 1.1//EN"
 "http://www.w3.org/Graphics/SVG/1.1/DTD/svg11.dtd">
<!-- Generated by graphviz version 2.43.0 (0)
 -->
<!-- Title: tracktion::graph::Node Pages: 1 -->
<svg width="523pt" height="2105pt"
 viewBox="0.00 0.00 523.00 2104.50" xmlns="http://www.w3.org/2000/svg" xmlns:xlink="http://www.w3.org/1999/xlink">
<g id="graph0" class="graph" transform="scale(1 1) rotate(0) translate(4 2100.5)">
<title>tracktion::graph::Node</title>
<!-- Node1 -->
<g id="Node000001" class="node">
<title>Node1</title>
<g id="a_Node000001"><a xlink:title="Main graph Node processor class.">
<polygon fill="#999999" stroke="#666666" points="125,-987 0,-987 0,-968 125,-968 125,-987"/>
<text text-anchor="middle" x="62.5" y="-975" font-family="Helvetica,sans-Serif" font-size="10.00">tracktion::graph::Node</text>
</a>
</g>
</g>
<!-- Node2 -->
<g id="Node000002" class="node">
<title>Node2</title>
<g id="a_Node000002"><a xlink:href="classtracktion_1_1engine_1_1ArrangerLauncherSwitchingNode.html" target="_top" xlink:title="A Node that switches between two of its inputs based on a flag.">
<polygon fill="white" stroke="#666666" points="355.5,-2096.5 179.5,-2096.5 179.5,-2066.5 355.5,-2066.5 355.5,-2096.5"/>
<text text-anchor="start" x="187.5" y="-2084.5" font-family="Helvetica,sans-Serif" font-size="10.00">tracktion::engine::</text>
<text text-anchor="middle" x="267.5" y="-2073.5" font-family="Helvetica,sans-Serif" font-size="10.00">ArrangerLauncherSwitchingNode</text>
</a>
</g>
</g>
<!-- Node1&#45;&gt;Node2 -->
<g id="edge1_Node000001_Node000002" class="edge">
<title>Node1&#45;&gt;Node2</title>
<g id="a_edge1_Node000001_Node000002"><a xlink:title=" ">
<path fill="none" stroke="#63b8ff" d="M63.91,-997.48C67,-1137.98 88.37,-1974.45 161,-2057.5 166.19,-2063.44 172.52,-2068.07 179.48,-2071.68"/>
<polygon fill="#63b8ff" stroke="#63b8ff" points="67.41,-997.23 63.7,-987.31 60.41,-997.38 67.41,-997.23"/>
</a>
</g>
</g>
<!-- Node3 -->
<g id="Node000003" class="node">
<title>Node3</title>
<g id="a_Node000003"><a xlink:href="classtracktion_1_1engine_1_1ClickNode.html" target="_top" xlink:title="Adds audio and MIDI clicks to the input buffers.">
<polygon fill="white" stroke="#666666" points="320,-2048.5 215,-2048.5 215,-2018.5 320,-2018.5 320,-2048.5"/>
<text text-anchor="start" x="223" y="-2036.5" font-family="Helvetica,sans-Serif" font-size="10.00">tracktion::engine::</text>
<text text-anchor="middle" x="267.5" y="-2025.5" font-family="Helvetica,sans-Serif" font-size="10.00">ClickNode</text>
</a>
</g>
</g>
<!-- Node1&#45;&gt;Node3 -->
<g id="edge2_Node000001_Node000003" class="edge">
<title>Node1&#45;&gt;Node3</title>
<g id="a_edge2_Node000001_Node000003"><a xlink:title=" ">
<path fill="none" stroke="#63b8ff" d="M64,-997.42C67.61,-1134.12 91.55,-1930.42 161,-2009.5 174.39,-2024.74 195.26,-2031.4 214.91,-2033.99"/>
<polygon fill="#63b8ff" stroke="#63b8ff" points="67.49,-997.09 63.74,-987.18 60.5,-997.27 67.49,-997.09"/>
</a>
</g>
</g>
<!-- Node4 -->
<g id="Node000004" class="node">
<title>Node4</title>
<g id="a_Node000004"><a xlink:href="classtracktion_1_1engine_1_1CombiningNode.html" target="_top" xlink:title="An Node that mixes a sequence of clips of other nodes.">
<polygon fill="white" stroke="#666666" points="320,-2000.5 215,-2000.5 215,-1970.5 320,-1970.5 320,-2000.5"/>
<text text-anchor="start" x="223" y="-1988.5" font-family="Helvetica,sans-Serif" font-size="10.00">tracktion::engine::</text>
<text text-anchor="middle" x="267.5" y="-1977.5" font-family="Helvetica,sans-Serif" font-size="10.00">CombiningNode</text>
</a>
</g>
</g>
<!-- Node1&#45;&gt;Node4 -->
<g id="edge3_Node000001_Node000004" class="edge">
<title>Node1&#45;&gt;Node4</title>
<g id="a_edge3_Node000001_Node000004"><a xlink:title=" ">
<path fill="none" stroke="#63b8ff" d="M64.09,-997.3C68.24,-1129.96 94.71,-1886.37 161,-1961.5 174.42,-1976.71 195.3,-1983.36 214.94,-1985.96"/>
<polygon fill="#63b8ff" stroke="#63b8ff" points="67.58,-996.92 63.78,-987.03 60.59,-997.14 67.58,-996.92"/>
</a>
</g>
</g>
<!-- Node5 -->
<g id="Node000005" class="node">
<title>Node5</title>
<g id="a_Node000005"><a xlink:href="classtracktion_1_1engine_1_1ContainerClipNode.html" target="_top" xlink:title=" ">
<polygon fill="white" stroke="#666666" points="321.5,-1952.5 213.5,-1952.5 213.5,-1922.5 321.5,-1922.5 321.5,-1952.5"/>
<text text-anchor="start" x="221.5" y="-1940.5" font-family="Helvetica,sans-Serif" font-size="10.00">tracktion::engine::</text>
<text text-anchor="middle" x="267.5" y="-1929.5" font-family="Helvetica,sans-Serif" font-size="10.00">ContainerClipNode</text>
</a>
</g>
</g>
<!-- Node1&#45;&gt;Node5 -->
<g id="edge4_Node000001_Node000005" class="edge">
<title>Node1&#45;&gt;Node5</title>
<g id="a_edge4_Node000001_Node000005"><a xlink:title=" ">
<path fill="none" stroke="#63b8ff" d="M64.21,-997.52C68.95,-1126.97 97.93,-1842.38 161,-1913.5 174.09,-1928.26 194.19,-1934.95 213.34,-1937.7"/>
<polygon fill="#63b8ff" stroke="#63b8ff" points="67.69,-997.02 63.83,-987.15 60.7,-997.27 67.69,-997.02"/>
</a>
</g>
</g>
<!-- Node6 -->
<g id="Node000006" class="node">
<title>Node6</title>
<g id="a_Node000006"><a xlink:href="classtracktion_1_1engine_1_1DynamicOffsetNode.html" target="_top" xlink:title=" ">
<polygon fill="white" stroke="#666666" points="325,-1904.5 210,-1904.5 210,-1874.5 325,-1874.5 325,-1904.5"/>
<text text-anchor="start" x="218" y="-1892.5" font-family="Helvetica,sans-Serif" font-size="10.00">tracktion::engine::</text>
<text text-anchor="middle" x="267.5" y="-1881.5" font-family="Helvetica,sans-Serif" font-size="10.00">DynamicOffsetNode</text>
</a>
</g>
</g>
<!-- Node1&#45;&gt;Node6 -->
<g id="edge5_Node000001_Node000006" class="edge">
<title>Node1&#45;&gt;Node6</title>
<g id="a_edge5_Node000001_Node000006"><a xlink:title=" ">
<path fill="none" stroke="#63b8ff" d="M64.31,-997.28C69.63,-1122.16 101.07,-1798.29 161,-1865.5 173.31,-1879.31 191.77,-1886.04 209.82,-1889.11"/>
<polygon fill="#63b8ff" stroke="#63b8ff" points="67.81,-997.07 63.89,-987.23 60.82,-997.37 67.81,-997.07"/>
</a>
</g>
</g>
<!-- Node7 -->
<g id="Node000007" class="node">
<title>Node7</title>
<g id="a_Node000007"><a xlink:href="classtracktion_1_1engine_1_1HostedMidiInputDeviceNode.html" target="_top" xlink:title="A Node that intercepts MIDI from a plugin callback and inserts it in to the playback graph.">
<polygon fill="white" stroke="#666666" points="345.5,-1856.5 189.5,-1856.5 189.5,-1826.5 345.5,-1826.5 345.5,-1856.5"/>
<text text-anchor="start" x="197.5" y="-1844.5" font-family="Helvetica,sans-Serif" font-size="10.00">tracktion::engine::</text>
<text text-anchor="middle" x="267.5" y="-1833.5" font-family="Helvetica,sans-Serif" font-size="10.00">HostedMidiInputDeviceNode</text>
</a>
</g>
</g>
<!-- Node1&#45;&gt;Node7 -->
<g id="edge6_Node000001_Node000007" class="edge">
<title>Node1&#45;&gt;Node7</title>
<g id="a_edge6_Node000001_Node000007"><a xlink:title=" ">
<path fill="none" stroke="#63b8ff" d="M64.45,-997.32C70.4,-1118.31 104.25,-1754.25 161,-1817.5 168.65,-1826.03 178.65,-1831.85 189.44,-1835.78"/>
<polygon fill="#63b8ff" stroke="#63b8ff" points="67.94,-997.08 63.96,-987.26 60.95,-997.41 67.94,-997.08"/>
</a>
</g>
</g>
<!-- Node8 -->
<g id="Node000008" class="node">
<title>Node8</title>
<g id="a_Node000008"><a xlink:href="classtracktion_1_1engine_1_1InsertNode.html" target="_top" xlink:title=" ">
<polygon fill="white" stroke="#666666" points="320,-1808.5 215,-1808.5 215,-1778.5 320,-1778.5 320,-1808.5"/>
<text text-anchor="start" x="223" y="-1796.5" font-family="Helvetica,sans-Serif" font-size="10.00">tracktion::engine::</text>
<text text-anchor="middle" x="267.5" y="-1785.5" font-family="Helvetica,sans-Serif" font-size="10.00">InsertNode</text>
</a>
</g>
</g>
<!-- Node1&#45;&gt;Node8 -->
<g id="edge7_Node000001_Node000008" class="edge">
<title>Node1&#45;&gt;Node8</title>
<g id="a_edge7_Node000001_Node000008"><a xlink:title=" ">
<path fill="none" stroke="#63b8ff" d="M64.59,-997.27C71.2,-1114 107.4,-1710.19 161,-1769.5 174.54,-1784.48 195.31,-1791.11 214.85,-1793.77"/>
<polygon fill="#63b8ff" stroke="#63b8ff" points="68.08,-997.03 64.03,-987.24 61.09,-997.42 68.08,-997.03"/>
</a>
</g>
</g>
<!-- Node9 -->
<g id="Node000009" class="node">
<title>Node9</title>
<g id="a_Node000009"><a xlink:href="classtracktion_1_1engine_1_1InsertSendNode.html" target="_top" xlink:title="The send node picks up audio/MIDI data from the InsertPlugin and then its output will be sent to the ...">
<polygon fill="white" stroke="#666666" points="320,-1760.5 215,-1760.5 215,-1730.5 320,-1730.5 320,-1760.5"/>
<text text-anchor="start" x="223" y="-1748.5" font-family="Helvetica,sans-Serif" font-size="10.00">tracktion::engine::</text>
<text text-anchor="middle" x="267.5" y="-1737.5" font-family="Helvetica,sans-Serif" font-size="10.00">InsertSendNode</text>
</a>
</g>
</g>
<!-- Node1&#45;&gt;Node9 -->
<g id="edge8_Node000001_Node000009" class="edge">
<title>Node1&#45;&gt;Node9</title>
<g id="a_edge8_Node000001_Node000009"><a xlink:title=" ">
<path fill="none" stroke="#63b8ff" d="M63.17,-997.37C61.79,-1104.37 60.71,-1611.38 161,-1721.5 174.6,-1736.43 195.38,-1743.05 214.91,-1745.71"/>
<polygon fill="#63b8ff" stroke="#63b8ff" points="66.67,-997.35 63.31,-987.3 59.67,-997.25 66.67,-997.35"/>
</a>
</g>
</g>
<!-- Node10 -->
<g id="Node000010" class="node">
<title>Node10</title>
<g id="a_Node000010"><a xlink:href="classtracktion_1_1engine_1_1LevelMeasurerProcessingNode.html" target="_top" xlink:title="A Node that introduces latency to balance the latency at the root Node and its position in the graph.">
<polygon fill="white" stroke="#666666" points="351,-1712.5 184,-1712.5 184,-1682.5 351,-1682.5 351,-1712.5"/>
<text text-anchor="start" x="192" y="-1700.5" font-family="Helvetica,sans-Serif" font-size="10.00">tracktion::engine::</text>
<text text-anchor="middle" x="267.5" y="-1689.5" font-family="Helvetica,sans-Serif" font-size="10.00">LevelMeasurerProcessingNode</text>
</a>
</g>
</g>
<!-- Node1&#45;&gt;Node10 -->
<g id="edge9_Node000001_Node000010" class="edge">
<title>Node1&#45;&gt;Node10</title>
<g id="a_edge9_Node000001_Node000010"><a xlink:title=" ">
<path fill="none" stroke="#63b8ff" d="M63.37,-997.35C63.08,-1100.16 67,-1571.2 161,-1673.5 167.35,-1680.42 175.25,-1685.55 183.85,-1689.32"/>
<polygon fill="#63b8ff" stroke="#63b8ff" points="66.87,-997.17 63.41,-987.15 59.87,-997.13 66.87,-997.17"/>
</a>
</g>
</g>
<!-- Node11 -->
<g id="Node000011" class="node">
<title>Node11</title>
<g id="a_Node000011"><a xlink:href="classtracktion_1_1engine_1_1LevelMeasuringNode.html" target="_top" xlink:title="A Node that passes its incoming audio and MIDI through a LevelMeasurer.">
<polygon fill="white" stroke="#666666" points="327,-1664.5 208,-1664.5 208,-1634.5 327,-1634.5 327,-1664.5"/>
<text text-anchor="start" x="216" y="-1652.5" font-family="Helvetica,sans-Serif" font-size="10.00">tracktion::engine::</text>
<text text-anchor="middle" x="267.5" y="-1641.5" font-family="Helvetica,sans-Serif" font-size="10.00">LevelMeasuringNode</text>
</a>
</g>
</g>
<!-- Node1&#45;&gt;Node11 -->
<g id="edge10_Node000001_Node000011" class="edge">
<title>Node1&#45;&gt;Node11</title>
<g id="a_edge10_Node000001_Node000011"><a xlink:title=" ">
<path fill="none" stroke="#63b8ff" d="M63.59,-997.53C64.47,-1096.36 73.33,-1531.06 161,-1625.5 173.08,-1638.51 190.61,-1645.18 207.93,-1648.43"/>
<polygon fill="#63b8ff" stroke="#63b8ff" points="67.09,-997.39 63.52,-987.41 60.09,-997.44 67.09,-997.39"/>
</a>
</g>
</g>
<!-- Node12 -->
<g id="Node000012" class="node">
<title>Node12</title>
<g id="a_Node000012"><a xlink:href="classtracktion_1_1engine_1_1LiveMidiInjectingNode.html" target="_top" xlink:title="A Node that injects MIDI message in to the stream, for keyboard key entry, note previews and MIDI ste...">
<polygon fill="white" stroke="#666666" points="330,-1616.5 205,-1616.5 205,-1586.5 330,-1586.5 330,-1616.5"/>
<text text-anchor="start" x="213" y="-1604.5" font-family="Helvetica,sans-Serif" font-size="10.00">tracktion::engine::</text>
<text text-anchor="middle" x="267.5" y="-1593.5" font-family="Helvetica,sans-Serif" font-size="10.00">LiveMidiInjectingNode</text>
</a>
</g>
</g>
<!-- Node1&#45;&gt;Node12 -->
<g id="edge11_Node000001_Node000012" class="edge">
<title>Node1&#45;&gt;Node12</title>
<g id="a_edge11_Node000001_Node000012"><a xlink:title=" ">
<path fill="none" stroke="#63b8ff" d="M63.85,-997.21C65.93,-1090.96 79.5,-1490.74 161,-1577.5 172.45,-1589.69 188.68,-1596.3 205,-1599.74"/>
<polygon fill="#63b8ff" stroke="#63b8ff" points="67.35,-997.05 63.65,-987.13 60.35,-997.19 67.35,-997.05"/>
</a>
</g>
</g>
<!-- Node13 -->
<g id="Node000013" class="node">
<title>Node13</title>
<g id="a_Node000013"><a xlink:href="classtracktion_1_1engine_1_1LiveMidiOutputNode.html" target="_top" xlink:title="A Node that calls the listeners of an AudioTrack with any incoming MIDI.">
<polygon fill="white" stroke="#666666" points="325.5,-1568.5 209.5,-1568.5 209.5,-1538.5 325.5,-1538.5 325.5,-1568.5"/>
<text text-anchor="start" x="217.5" y="-1556.5" font-family="Helvetica,sans-Serif" font-size="10.00">tracktion::engine::</text>
<text text-anchor="middle" x="267.5" y="-1545.5" font-family="Helvetica,sans-Serif" font-size="10.00">LiveMidiOutputNode</text>
</a>
</g>
</g>
<!-- Node1&#45;&gt;Node13 -->
<g id="edge12_Node000001_Node000013" class="edge">
<title>Node1&#45;&gt;Node13</title>
<g id="a_edge12_Node000001_Node000013"><a xlink:title=" ">
<path fill="none" stroke="#63b8ff" d="M64.16,-997.31C67.53,-1086.58 85.78,-1450.51 161,-1529.5 173.5,-1542.63 191.57,-1549.27 209.23,-1552.45"/>
<polygon fill="#63b8ff" stroke="#63b8ff" points="67.65,-997.07 63.8,-987.2 60.66,-997.32 67.65,-997.07"/>
</a>
</g>
</g>
<!-- Node14 -->
<g id="Node000014" class="node">
<title>Node14</title>
<g id="a_Node000014"><a xlink:href="classtracktion_1_1engine_1_1LoopingMidiNode.html" target="_top" xlink:title="A Node that plays MIDI data from a MidiMessageSequence, at a specific MIDI channel.">
<polygon fill="white" stroke="#666666" points="320,-1520.5 215,-1520.5 215,-1490.5 320,-1490.5 320,-1520.5"/>
<text text-anchor="start" x="223" y="-1508.5" font-family="Helvetica,sans-Serif" font-size="10.00">tracktion::engine::</text>
<text text-anchor="middle" x="267.5" y="-1497.5" font-family="Helvetica,sans-Serif" font-size="10.00">LoopingMidiNode</text>
</a>
</g>
</g>
<!-- Node1&#45;&gt;Node14 -->
<g id="edge13_Node000001_Node000014" class="edge">
<title>Node1&#45;&gt;Node14</title>
<g id="a_edge13_Node000001_Node000014"><a xlink:title=" ">
<path fill="none" stroke="#63b8ff" d="M64.51,-997.18C69.25,-1081.36 91.96,-1410.17 161,-1481.5 174.91,-1495.87 195.51,-1502.44 214.82,-1505.21"/>
<polygon fill="#63b8ff" stroke="#63b8ff" points="68.01,-996.96 63.97,-987.17 61.02,-997.34 68.01,-996.96"/>
</a>
</g>
</g>
<!-- Node15 -->
<g id="Node000015" class="node">
<title>Node15</title>
<g id="a_Node000015"><a xlink:href="classtracktion_1_1engine_1_1MelodyneNode.html" target="_top" xlink:title="Plays back a Melodyne plugin.">
<polygon fill="white" stroke="#666666" points="320,-1472.5 215,-1472.5 215,-1442.5 320,-1442.5 320,-1472.5"/>
<text text-anchor="start" x="223" y="-1460.5" font-family="Helvetica,sans-Serif" font-size="10.00">tracktion::engine::</text>
<text text-anchor="middle" x="267.5" y="-1449.5" font-family="Helvetica,sans-Serif" font-size="10.00">MelodyneNode</text>
</a>
</g>
</g>
<!-- Node1&#45;&gt;Node15 -->
<g id="edge14_Node000001_Node000015" class="edge">
<title>Node1&#45;&gt;Node15</title>
<g id="a_edge14_Node000001_Node000015"><a xlink:title=" ">
<path fill="none" stroke="#63b8ff" d="M64.93,-997.04C71.12,-1075.92 98.12,-1369.8 161,-1433.5 175.05,-1447.74 195.67,-1454.28 214.96,-1457.07"/>
<polygon fill="#63b8ff" stroke="#63b8ff" points="68.42,-996.71 64.17,-987.01 61.44,-997.25 68.42,-996.71"/>
</a>
</g>
</g>
<!-- Node16 -->
<g id="Node000016" class="node">
<title>Node16</title>
<g id="a_Node000016"><a xlink:href="classtracktion_1_1engine_1_1MidiInputDeviceNode.html" target="_top" xlink:title="A Node that intercepts incoming live MIDI and inserts it in to the playback graph.">
<polygon fill="white" stroke="#666666" points="328.5,-1424.5 206.5,-1424.5 206.5,-1394.5 328.5,-1394.5 328.5,-1424.5"/>
<text text-anchor="start" x="214.5" y="-1412.5" font-family="Helvetica,sans-Serif" font-size="10.00">tracktion::engine::</text>
<text text-anchor="middle" x="267.5" y="-1401.5" font-family="Helvetica,sans-Serif" font-size="10.00">MidiInputDeviceNode</text>
</a>
</g>
</g>
<!-- Node1&#45;&gt;Node16 -->
<g id="edge15_Node000001_Node000016" class="edge">
<title>Node1&#45;&gt;Node16</title>
<g id="a_edge15_Node000001_Node000016"><a xlink:title=" ">
<path fill="none" stroke="#63b8ff" d="M65.49,-997.3C73.32,-1071.19 104.36,-1329.47 161,-1385.5 173.09,-1397.45 189.81,-1403.96 206.39,-1407.37"/>
<polygon fill="#63b8ff" stroke="#63b8ff" points="68.94,-996.67 64.43,-987.08 61.98,-997.39 68.94,-996.67"/>
</a>
</g>
</g>
<!-- Node17 -->
<g id="Node000017" class="node">
<title>Node17</title>
<g id="a_Node000017"><a xlink:href="classtracktion_1_1engine_1_1MidiNode.html" target="_top" xlink:title="A Node that plays MIDI data from a MidiMessageSequence, at a specific MIDI channel.">
<polygon fill="white" stroke="#666666" points="320,-1376.5 215,-1376.5 215,-1346.5 320,-1346.5 320,-1376.5"/>
<text text-anchor="start" x="223" y="-1364.5" font-family="Helvetica,sans-Serif" font-size="10.00">tracktion::engine::</text>
<text text-anchor="middle" x="267.5" y="-1353.5" font-family="Helvetica,sans-Serif" font-size="10.00">MidiNode</text>
</a>
</g>
</g>
<!-- Node1&#45;&gt;Node17 -->
<g id="edge16_Node000001_Node000017" class="edge">
<title>Node1&#45;&gt;Node17</title>
<g id="a_edge16_Node000001_Node000017"><a xlink:title=" ">
<path fill="none" stroke="#63b8ff" d="M66.2,-997.57C75.82,-1066.07 110.55,-1289.07 161,-1337.5 175.3,-1351.22 195.73,-1357.71 214.81,-1360.6"/>
<polygon fill="#63b8ff" stroke="#63b8ff" points="69.62,-996.73 64.79,-987.3 62.68,-997.68 69.62,-996.73"/>
</a>
</g>
</g>
<!-- Node18 -->
<g id="Node000018" class="node">
<title>Node18</title>
<g id="a_Node000018"><a xlink:href="classtracktion_1_1engine_1_1MidiOutputDeviceInstanceInjectingNode.html" target="_top" xlink:title="A Node that injects the MIDI buffer of its input to the MidiOutputDevice.">
<polygon fill="white" stroke="#666666" points="374,-1328.5 161,-1328.5 161,-1298.5 374,-1298.5 374,-1328.5"/>
<text text-anchor="start" x="169" y="-1316.5" font-family="Helvetica,sans-Serif" font-size="10.00">tracktion::engine::</text>
<text text-anchor="middle" x="267.5" y="-1305.5" font-family="Helvetica,sans-Serif" font-size="10.00">MidiOutputDeviceInstanceInjectingNode</text>
</a>
</g>
</g>
<!-- Node1&#45;&gt;Node18 -->
<g id="edge17_Node000001_Node000018" class="edge">
<title>Node1&#45;&gt;Node18</title>
<g id="a_edge17_Node000001_Node000018"><a xlink:title=" ">
<path fill="none" stroke="#63b8ff" d="M63.35,-997.32C64.06,-1052.51 74.02,-1209.15 161,-1289.5 164.59,-1292.81 168.53,-1295.7 172.73,-1298.22"/>
<polygon fill="#63b8ff" stroke="#63b8ff" points="66.85,-997.14 63.31,-987.15 59.85,-997.16 66.85,-997.14"/>
</a>
</g>
</g>
<!-- Node19 -->
<g id="Node000019" class="node">
<title>Node19</title>
<g id="a_Node000019"><a xlink:href="classtracktion_1_1engine_1_1ModifierNode.html" target="_top" xlink:title="Node for processing a Modifier.">
<polygon fill="white" stroke="#666666" points="320,-1280.5 215,-1280.5 215,-1250.5 320,-1250.5 320,-1280.5"/>
<text text-anchor="start" x="223" y="-1268.5" font-family="Helvetica,sans-Serif" font-size="10.00">tracktion::engine::</text>
<text text-anchor="middle" x="267.5" y="-1257.5" font-family="Helvetica,sans-Serif" font-size="10.00">ModifierNode</text>
</a>
</g>
</g>
<!-- Node1&#45;&gt;Node19 -->
<g id="edge18_Node000001_Node000019" class="edge">
<title>Node1&#45;&gt;Node19</title>
<g id="a_edge18_Node000001_Node000019"><a xlink:title=" ">
<path fill="none" stroke="#63b8ff" d="M64.63,-997.2C68.56,-1046.43 85.88,-1175.57 161,-1241.5 175.75,-1254.45 196.04,-1260.82 214.89,-1263.84"/>
<polygon fill="#63b8ff" stroke="#63b8ff" points="68.12,-996.95 63.93,-987.22 61.14,-997.44 68.12,-996.95"/>
</a>
</g>
</g>
<!-- Node20 -->
<g id="Node000020" class="node">
<title>Node20</title>
<g id="a_Node000020"><a xlink:href="classtracktion_1_1engine_1_1PlayHeadPositionNode.html" target="_top" xlink:title="A Node that calculates a position to show visually what time is currently being processed by the grap...">
<polygon fill="white" stroke="#666666" points="331.5,-1232.5 203.5,-1232.5 203.5,-1202.5 331.5,-1202.5 331.5,-1232.5"/>
<text text-anchor="start" x="211.5" y="-1220.5" font-family="Helvetica,sans-Serif" font-size="10.00">tracktion::engine::</text>
<text text-anchor="middle" x="267.5" y="-1209.5" font-family="Helvetica,sans-Serif" font-size="10.00">PlayHeadPositionNode</text>
</a>
</g>
</g>
<!-- Node1&#45;&gt;Node20 -->
<g id="edge19_Node000001_Node000020" class="edge">
<title>Node1&#45;&gt;Node20</title>
<g id="a_edge19_Node000001_Node000020"><a xlink:title=" ">
<path fill="none" stroke="#63b8ff" d="M66.4,-997.02C73.81,-1039.7 97.54,-1141.63 161,-1193.5 173,-1203.31 188.22,-1209.29 203.34,-1212.89"/>
<polygon fill="#63b8ff" stroke="#63b8ff" points="69.84,-996.39 64.79,-987.08 62.93,-997.51 69.84,-996.39"/>
</a>
</g>
</g>
<!-- Node21 -->
<g id="Node000021" class="node">
<title>Node21</title>
<g id="a_Node000021"><a xlink:href="classtracktion_1_1engine_1_1PluginNode.html" target="_top" xlink:title="Node for processing a plugin.">
<polygon fill="white" stroke="#666666" points="320,-1184.5 215,-1184.5 215,-1154.5 320,-1154.5 320,-1184.5"/>
<text text-anchor="start" x="223" y="-1172.5" font-family="Helvetica,sans-Serif" font-size="10.00">tracktion::engine::</text>
<text text-anchor="middle" x="267.5" y="-1161.5" font-family="Helvetica,sans-Serif" font-size="10.00">PluginNode</text>
</a>
</g>
</g>
<!-- Node1&#45;&gt;Node21 -->
<g id="edge20_Node000001_Node000021" class="edge">
<title>Node1&#45;&gt;Node21</title>
<g id="a_edge20_Node000001_Node000021"><a xlink:title=" ">
<path fill="none" stroke="#63b8ff" d="M69.09,-996.99C80.31,-1032.43 109.06,-1107.29 161,-1145.5 176.51,-1156.91 196.51,-1163.03 214.92,-1166.27"/>
<polygon fill="#63b8ff" stroke="#63b8ff" points="72.42,-995.89 66.17,-987.34 65.72,-997.92 72.42,-995.89"/>
</a>
</g>
</g>
<!-- Node22 -->
<g id="Node000022" class="node">
<title>Node22</title>
<g id="a_Node000022"><a xlink:href="classtracktion_1_1engine_1_1RackInstanceNode.html" target="_top" xlink:title="Sends an input Node to a Rack bus handling the channel mapping and channel gain levels.">
<polygon fill="white" stroke="#666666" points="321,-1136.5 214,-1136.5 214,-1106.5 321,-1106.5 321,-1136.5"/>
<text text-anchor="start" x="222" y="-1124.5" font-family="Helvetica,sans-Serif" font-size="10.00">tracktion::engine::</text>
<text text-anchor="middle" x="267.5" y="-1113.5" font-family="Helvetica,sans-Serif" font-size="10.00">RackInstanceNode</text>
</a>
</g>
</g>
<!-- Node1&#45;&gt;Node22 -->
<g id="edge21_Node000001_Node000022" class="edge">
<title>Node1&#45;&gt;Node22</title>
<g id="a_edge21_Node000001_Node000022"><a xlink:title=" ">
<path fill="none" stroke="#63b8ff" d="M73.33,-996.2C88.43,-1023.03 119.96,-1071.99 161,-1097.5 176.79,-1107.32 196.15,-1113.13 213.95,-1116.57"/>
<polygon fill="#63b8ff" stroke="#63b8ff" points="76.22,-994.2 68.36,-987.1 70.08,-997.56 76.22,-994.2"/>
</a>
</g>
</g>
<!-- Node23 -->
<g id="Node000023" class="node">
<title>Node23</title>
<g id="a_Node000023"><a xlink:href="classtracktion_1_1engine_1_1RackReturnNode.html" target="_top" xlink:title="Sends an input Node to a Rack bus handling the channel mapping and channel gain levels.">
<polygon fill="white" stroke="#666666" points="320,-1088.5 215,-1088.5 215,-1058.5 320,-1058.5 320,-1088.5"/>
<text text-anchor="start" x="223" y="-1076.5" font-family="Helvetica,sans-Serif" font-size="10.00">tracktion::engine::</text>
<text text-anchor="middle" x="267.5" y="-1065.5" font-family="Helvetica,sans-Serif" font-size="10.00">RackReturnNode</text>
</a>
</g>
</g>
<!-- Node1&#45;&gt;Node23 -->
<g id="edge22_Node000001_Node000023" class="edge">
<title>Node1&#45;&gt;Node23</title>
<g id="a_edge22_Node000001_Node000023"><a xlink:title=" ">
<path fill="none" stroke="#63b8ff" d="M80.99,-993.96C99.47,-1010.45 130.15,-1035.35 161,-1049.5 177.82,-1057.21 197.31,-1062.54 214.94,-1066.18"/>
<polygon fill="#63b8ff" stroke="#63b8ff" points="83.15,-991.2 73.4,-987.05 78.44,-996.37 83.15,-991.2"/>
</a>
</g>
</g>
<!-- Node24 -->
<g id="Node000024" class="node">
<title>Node24</title>
<g id="a_Node000024"><a xlink:href="classtracktion_1_1engine_1_1SharedLevelMeasuringNode.html" target="_top" xlink:title="Applies a SharedLevelMeter to the audio passing through this node.">
<polygon fill="white" stroke="#666666" points="344,-1040.5 191,-1040.5 191,-1010.5 344,-1010.5 344,-1040.5"/>
<text text-anchor="start" x="199" y="-1028.5" font-family="Helvetica,sans-Serif" font-size="10.00">tracktion::engine::</text>
<text text-anchor="middle" x="267.5" y="-1017.5" font-family="Helvetica,sans-Serif" font-size="10.00">SharedLevelMeasuringNode</text>
</a>
</g>
</g>
<!-- Node1&#45;&gt;Node24 -->
<g id="edge23_Node000001_Node000024" class="edge">
<title>Node1&#45;&gt;Node24</title>
<g id="a_edge23_Node000001_Node000024"><a xlink:title=" ">
<path fill="none" stroke="#63b8ff" d="M111.49,-989.49C127.25,-993.38 144.86,-997.68 161,-1001.5 173.43,-1004.44 186.7,-1007.52 199.49,-1010.44"/>
<polygon fill="#63b8ff" stroke="#63b8ff" points="111.98,-986.01 101.43,-987 110.3,-992.8 111.98,-986.01"/>
</a>
</g>
</g>
<!-- Node25 -->
<g id="Node000025" class="node">
<title>Node25</title>
<g id="a_Node000025"><a xlink:href="classtracktion_1_1engine_1_1SlotControlNode.html" target="_top" xlink:title=" ">
<polygon fill="white" stroke="#666666" points="320,-992.5 215,-992.5 215,-962.5 320,-962.5 320,-992.5"/>
<text text-anchor="start" x="223" y="-980.5" font-family="Helvetica,sans-Serif" font-size="10.00">tracktion::engine::</text>
<text text-anchor="middle" x="267.5" y="-969.5" font-family="Helvetica,sans-Serif" font-size="10.00">SlotControlNode</text>
</a>
</g>
</g>
<!-- Node1&#45;&gt;Node25 -->
<g id="edge24_Node000001_Node000025" class="edge">
<title>Node1&#45;&gt;Node25</title>
<g id="a_edge24_Node000001_Node000025"><a xlink:title=" ">
<path fill="none" stroke="#63b8ff" d="M135.51,-977.5C161.75,-977.5 190.86,-977.5 214.97,-977.5"/>
<polygon fill="#63b8ff" stroke="#63b8ff" points="135.23,-974 125.23,-977.5 135.23,-981 135.23,-974"/>
</a>
</g>
</g>
<!-- Node26 -->
<g id="Node000026" class="node">
<title>Node26</title>
<g id="a_Node000026"><a xlink:href="classtracktion_1_1engine_1_1SpeedRampWaveNode.html" target="_top" xlink:title="An Node that plays back a wave file.">
<polygon fill="white" stroke="#666666" points="331.5,-944.5 203.5,-944.5 203.5,-914.5 331.5,-914.5 331.5,-944.5"/>
<text text-anchor="start" x="211.5" y="-932.5" font-family="Helvetica,sans-Serif" font-size="10.00">tracktion::engine::</text>
<text text-anchor="middle" x="267.5" y="-921.5" font-family="Helvetica,sans-Serif" font-size="10.00">SpeedRampWaveNode</text>
</a>
</g>
</g>
<!-- Node1&#45;&gt;Node26 -->
<g id="edge25_Node000001_Node000026" class="edge">
<title>Node1&#45;&gt;Node26</title>
<g id="a_edge25_Node000001_Node000026"><a xlink:title=" ">
<path fill="none" stroke="#63b8ff" d="M111.49,-965.51C127.25,-961.62 144.86,-957.32 161,-953.5 174.71,-950.25 189.44,-946.85 203.42,-943.66"/>
<polygon fill="#63b8ff" stroke="#63b8ff" points="110.3,-962.2 101.43,-968 111.98,-968.99 110.3,-962.2"/>
</a>
</g>
</g>
<!-- Node27 -->
<g id="Node000027" class="node">
<title>Node27</title>
<g id="a_Node000027"><a xlink:href="classtracktion_1_1engine_1_1TimeStretchingWaveNode.html" target="_top" xlink:title="Node that reads from a file node and timestretches its output.">
<polygon fill="white" stroke="#666666" points="339,-896.5 196,-896.5 196,-866.5 339,-866.5 339,-896.5"/>
<text text-anchor="start" x="204" y="-884.5" font-family="Helvetica,sans-Serif" font-size="10.00">tracktion::engine::</text>
<text text-anchor="middle" x="267.5" y="-873.5" font-family="Helvetica,sans-Serif" font-size="10.00">TimeStretchingWaveNode</text>
</a>
</g>
</g>
<!-- Node1&#45;&gt;Node27 -->
<g id="edge26_Node000001_Node000027" class="edge">
<title>Node1&#45;&gt;Node27</title>
<g id="a_edge26_Node000001_Node000027"><a xlink:title=" ">
<path fill="none" stroke="#63b8ff" d="M80.99,-961.04C99.47,-944.55 130.15,-919.65 161,-905.5 171.93,-900.49 183.99,-896.48 195.93,-893.3"/>
<polygon fill="#63b8ff" stroke="#63b8ff" points="78.44,-958.63 73.4,-967.95 83.15,-963.8 78.44,-958.63"/>
</a>
</g>
</g>
<!-- Node28 -->
<g id="Node000028" class="node">
<title>Node28</title>
<g id="a_Node000028"><a xlink:href="classtracktion_1_1engine_1_1TimedMutingNode.html" target="_top" xlink:title="A Node that mutes its input at specific time ranges.">
<polygon fill="white" stroke="#666666" points="321,-848.5 214,-848.5 214,-818.5 321,-818.5 321,-848.5"/>
<text text-anchor="start" x="222" y="-836.5" font-family="Helvetica,sans-Serif" font-size="10.00">tracktion::engine::</text>
<text text-anchor="middle" x="267.5" y="-825.5" font-family="Helvetica,sans-Serif" font-size="10.00">TimedMutingNode</text>
</a>
</g>
</g>
<!-- Node1&#45;&gt;Node28 -->
<g id="edge27_Node000001_Node000028" class="edge">
<title>Node1&#45;&gt;Node28</title>
<g id="a_edge27_Node000001_Node000028"><a xlink:title=" ">
<path fill="none" stroke="#63b8ff" d="M73.33,-958.8C88.43,-931.97 119.96,-883.01 161,-857.5 176.79,-847.68 196.15,-841.87 213.95,-838.43"/>
<polygon fill="#63b8ff" stroke="#63b8ff" points="70.08,-957.44 68.36,-967.9 76.22,-960.8 70.08,-957.44"/>
</a>
</g>
</g>
<!-- Node29 -->
<g id="Node000029" class="node">
<title>Node29</title>
<g id="a_Node000029"><a xlink:href="classtracktion_1_1engine_1_1TrackMidiInputDeviceNode.html" target="_top" xlink:title="A Node that takes MIDI from the output of a track and sends it to its corresponding InputDevice.">
<polygon fill="white" stroke="#666666" points="341,-800.5 194,-800.5 194,-770.5 341,-770.5 341,-800.5"/>
<text text-anchor="start" x="202" y="-788.5" font-family="Helvetica,sans-Serif" font-size="10.00">tracktion::engine::</text>
<text text-anchor="middle" x="267.5" y="-777.5" font-family="Helvetica,sans-Serif" font-size="10.00">TrackMidiInputDeviceNode</text>
</a>
</g>
</g>
<!-- Node1&#45;&gt;Node29 -->
<g id="edge28_Node000001_Node000029" class="edge">
<title>Node1&#45;&gt;Node29</title>
<g id="a_edge28_Node000001_Node000029"><a xlink:title=" ">
<path fill="none" stroke="#63b8ff" d="M69.09,-958.01C80.31,-922.57 109.06,-847.71 161,-809.5 170.68,-802.38 182.12,-797.31 193.82,-793.73"/>
<polygon fill="#63b8ff" stroke="#63b8ff" points="65.72,-957.08 66.17,-967.66 72.42,-959.11 65.72,-957.08"/>
</a>
</g>
</g>
<!-- Node30 -->
<g id="Node000030" class="node">
<title>Node30</title>
<g id="a_Node000030"><a xlink:href="classtracktion_1_1engine_1_1TrackMutingNode.html" target="_top" xlink:title="A Node that handles muting/soloing of its input node, according to the audibility of a track.">
<polygon fill="white" stroke="#666666" points="320,-752.5 215,-752.5 215,-722.5 320,-722.5 320,-752.5"/>
<text text-anchor="start" x="223" y="-740.5" font-family="Helvetica,sans-Serif" font-size="10.00">tracktion::engine::</text>
<text text-anchor="middle" x="267.5" y="-729.5" font-family="Helvetica,sans-Serif" font-size="10.00">TrackMutingNode</text>
</a>
</g>
</g>
<!-- Node1&#45;&gt;Node30 -->
<g id="edge29_Node000001_Node000030" class="edge">
<title>Node1&#45;&gt;Node30</title>
<g id="a_edge29_Node000001_Node000030"><a xlink:title=" ">
<path fill="none" stroke="#63b8ff" d="M66.4,-957.98C73.81,-915.3 97.54,-813.37 161,-761.5 176.05,-749.2 196.18,-742.92 214.82,-739.81"/>
<polygon fill="#63b8ff" stroke="#63b8ff" points="62.93,-957.49 64.79,-967.92 69.84,-958.61 62.93,-957.49"/>
</a>
</g>
</g>
<!-- Node31 -->
<g id="Node000031" class="node">
<title>Node31</title>
<g id="a_Node000031"><a xlink:href="classtracktion_1_1engine_1_1TrackWaveInputDeviceNode.html" target="_top" xlink:title="A Node that takes audio from the output of a track and sends it to its corresponding InputDevice.">
<polygon fill="white" stroke="#666666" points="344,-704.5 191,-704.5 191,-674.5 344,-674.5 344,-704.5"/>
<text text-anchor="start" x="199" y="-692.5" font-family="Helvetica,sans-Serif" font-size="10.00">tracktion::engine::</text>
<text text-anchor="middle" x="267.5" y="-681.5" font-family="Helvetica,sans-Serif" font-size="10.00">TrackWaveInputDeviceNode</text>
</a>
</g>
</g>
<!-- Node1&#45;&gt;Node31 -->
<g id="edge30_Node000001_Node000031" class="edge">
<title>Node1&#45;&gt;Node31</title>
<g id="a_edge30_Node000001_Node000031"><a xlink:title=" ">
<path fill="none" stroke="#63b8ff" d="M64.63,-957.8C68.56,-908.57 85.88,-779.43 161,-713.5 169.54,-706 179.94,-700.71 190.84,-697"/>
<polygon fill="#63b8ff" stroke="#63b8ff" points="61.14,-957.56 63.93,-967.78 68.12,-958.05 61.14,-957.56"/>
</a>
</g>
</g>
<!-- Node32 -->
<g id="Node000032" class="node">
<title>Node32</title>
<g id="a_Node000032"><a xlink:href="classtracktion_1_1engine_1_1WaveInputDeviceNode.html" target="_top" xlink:title="A Node that intercepts incoming live audio and inserts it in to the playback graph.">
<polygon fill="white" stroke="#666666" points="331.5,-656.5 203.5,-656.5 203.5,-626.5 331.5,-626.5 331.5,-656.5"/>
<text text-anchor="start" x="211.5" y="-644.5" font-family="Helvetica,sans-Serif" font-size="10.00">tracktion::engine::</text>
<text text-anchor="middle" x="267.5" y="-633.5" font-family="Helvetica,sans-Serif" font-size="10.00">WaveInputDeviceNode</text>
</a>
</g>
</g>
<!-- Node1&#45;&gt;Node32 -->
<g id="edge31_Node000001_Node000032" class="edge">
<title>Node1&#45;&gt;Node32</title>
<g id="a_edge31_Node000001_Node000032"><a xlink:title=" ">
<path fill="none" stroke="#63b8ff" d="M63.35,-957.68C64.06,-902.49 74.02,-745.85 161,-665.5 172.59,-654.79 187.93,-648.53 203.32,-644.94"/>
<polygon fill="#63b8ff" stroke="#63b8ff" points="59.85,-957.84 63.31,-967.85 66.85,-957.86 59.85,-957.84"/>
</a>
</g>
</g>
<!-- Node33 -->
<g id="Node000033" class="node">
<title>Node33</title>
<g id="a_Node000033"><a xlink:href="classtracktion_1_1engine_1_1WaveNode.html" target="_top" xlink:title="An Node that plays back a wave file.">
<polygon fill="white" stroke="#666666" points="320,-608.5 215,-608.5 215,-578.5 320,-578.5 320,-608.5"/>
<text text-anchor="start" x="223" y="-596.5" font-family="Helvetica,sans-Serif" font-size="10.00">tracktion::engine::</text>
<text text-anchor="middle" x="267.5" y="-585.5" font-family="Helvetica,sans-Serif" font-size="10.00">WaveNode</text>
</a>
</g>
</g>
<!-- Node1&#45;&gt;Node33 -->
<g id="edge32_Node000001_Node000033" class="edge">
<title>Node1&#45;&gt;Node33</title>
<g id="a_edge32_Node000001_Node000033"><a xlink:title=" ">
<path fill="none" stroke="#63b8ff" d="M66.2,-957.43C75.82,-888.93 110.55,-665.93 161,-617.5 175.3,-603.78 195.73,-597.29 214.81,-594.4"/>
<polygon fill="#63b8ff" stroke="#63b8ff" points="62.68,-957.32 64.79,-967.7 69.62,-958.27 62.68,-957.32"/>
</a>
</g>
</g>
<!-- Node34 -->
<g id="Node000034" class="node">
<title>Node34</title>
<g id="a_Node000034"><a xlink:href="classtracktion_1_1engine_1_1WaveNodeRealTime.html" target="_top" xlink:title="An Node that plays back a wave file.">
<polygon fill="white" stroke="#666666" points="325.5,-560.5 209.5,-560.5 209.5,-530.5 325.5,-530.5 325.5,-560.5"/>
<text text-anchor="start" x="217.5" y="-548.5" font-family="Helvetica,sans-Serif" font-size="10.00">tracktion::engine::</text>
<text text-anchor="middle" x="267.5" y="-537.5" font-family="Helvetica,sans-Serif" font-size="10.00">WaveNodeRealTime</text>
</a>
</g>
</g>
<!-- Node1&#45;&gt;Node34 -->
<g id="edge33_Node000001_Node000034" class="edge">
<title>Node1&#45;&gt;Node34</title>
<g id="a_edge33_Node000001_Node000034"><a xlink:title=" ">
<path fill="none" stroke="#63b8ff" d="M65.49,-957.7C73.32,-883.81 104.36,-625.53 161,-569.5 173.82,-556.82 191.86,-550.27 209.4,-547.05"/>
<polygon fill="#63b8ff" stroke="#63b8ff" points="61.98,-957.61 64.43,-967.92 68.94,-958.33 61.98,-957.61"/>
</a>
</g>
</g>
<!-- Node35 -->
<g id="Node000035" class="node">
<title>Node35</title>
<g id="a_Node000035"><a xlink:href="classtracktion_1_1graph_1_1BasicSummingNode.html" target="_top" xlink:title=" ">
<polygon fill="white" stroke="#666666" points="366.5,-512 168.5,-512 168.5,-493 366.5,-493 366.5,-512"/>
<text text-anchor="middle" x="267.5" y="-500" font-family="Helvetica,sans-Serif" font-size="10.00">tracktion::graph::BasicSummingNode</text>
</a>
</g>
</g>
<!-- Node1&#45;&gt;Node35 -->
<g id="edge34_Node000001_Node000035" class="edge">
<title>Node1&#45;&gt;Node35</title>
<g id="a_edge34_Node000001_Node000035"><a xlink:title=" ">
<path fill="none" stroke="#63b8ff" d="M64.85,-957.88C70.73,-878.68 96.69,-583.76 161,-521.5 164.74,-517.88 168.93,-514.82 173.42,-512.24"/>
<polygon fill="#63b8ff" stroke="#63b8ff" points="61.36,-957.72 64.13,-967.95 68.34,-958.23 61.36,-957.72"/>
</a>
</g>
</g>
<!-- Node36 -->
<g id="Node000036" class="node">
<title>Node36</title>
<g id="a_Node000036"><a xlink:href="classtracktion_1_1graph_1_1ChannelRemappingNode.html" target="_top" xlink:title="Maps channels from one to another.">
<polygon fill="white" stroke="#666666" points="337.5,-474.5 197.5,-474.5 197.5,-444.5 337.5,-444.5 337.5,-474.5"/>
<text text-anchor="start" x="205.5" y="-462.5" font-family="Helvetica,sans-Serif" font-size="10.00">tracktion::graph::Channel</text>
<text text-anchor="middle" x="267.5" y="-451.5" font-family="Helvetica,sans-Serif" font-size="10.00">RemappingNode</text>
</a>
</g>
</g>
<!-- Node1&#45;&gt;Node36 -->
<g id="edge35_Node000001_Node000036" class="edge">
<title>Node1&#45;&gt;Node36</title>
<g id="a_edge35_Node000001_Node000036"><a xlink:title=" ">
<path fill="none" stroke="#63b8ff" d="M64.64,-957.48C69.82,-873.93 93.8,-554.27 161,-484.5 170.73,-474.4 183.73,-468.06 197.27,-464.15"/>
<polygon fill="#63b8ff" stroke="#63b8ff" points="61.14,-957.46 64.04,-967.65 68.13,-957.87 61.14,-957.46"/>
</a>
</g>
</g>
<!-- Node37 -->
<g id="Node000037" class="node">
<title>Node37</title>
<g id="a_Node000037"><a xlink:href="classtracktion_1_1graph_1_1ConnectedNode.html" target="_top" xlink:title="An Node which sums together the multiple inputs adding additional latency to provide a coherent outpu...">
<polygon fill="white" stroke="#666666" points="356,-426 179,-426 179,-407 356,-407 356,-426"/>
<text text-anchor="middle" x="267.5" y="-414" font-family="Helvetica,sans-Serif" font-size="10.00">tracktion::graph::ConnectedNode</text>
</a>
</g>
</g>
<!-- Node1&#45;&gt;Node37 -->
<g id="edge36_Node000001_Node000037" class="edge">
<title>Node1&#45;&gt;Node37</title>
<g id="a_edge36_Node000001_Node000037"><a xlink:title=" ">
<path fill="none" stroke="#63b8ff" d="M64.14,-957.7C67.43,-869.23 85.31,-511.21 161,-435.5 166.2,-430.3 172.3,-426.25 178.91,-423.13"/>
<polygon fill="#63b8ff" stroke="#63b8ff" points="60.64,-957.82 63.78,-967.93 67.63,-958.06 60.64,-957.82"/>
</a>
</g>
</g>
<!-- Node38 -->
<g id="Node000038" class="node">
<title>Node38</title>
<g id="a_Node000038"><a xlink:href="classtracktion_1_1graph_1_1ForwardingNode.html" target="_top" xlink:title="Takes a non&#45;owning input node and simply forwards its outputs on.">
<polygon fill="white" stroke="#666666" points="357,-389 178,-389 178,-370 357,-370 357,-389"/>
<text text-anchor="middle" x="267.5" y="-377" font-family="Helvetica,sans-Serif" font-size="10.00">tracktion::graph::ForwardingNode</text>
</a>
</g>
</g>
<!-- Node1&#45;&gt;Node38 -->
<g id="edge37_Node000001_Node000038" class="edge">
<title>Node1&#45;&gt;Node38</title>
<g id="a_edge37_Node000001_Node000038"><a xlink:title=" ">
<path fill="none" stroke="#63b8ff" d="M63.9,-957.53C66.17,-865.11 80.41,-480.01 161,-398.5 165.84,-393.6 171.49,-389.73 177.6,-386.67"/>
<polygon fill="#63b8ff" stroke="#63b8ff" points="60.4,-957.66 63.67,-967.73 67.39,-957.81 60.4,-957.66"/>
</a>
</g>
</g>
<!-- Node39 -->
<g id="Node000039" class="node">
<title>Node39</title>
<g id="a_Node000039"><a xlink:href="classtracktion_1_1graph_1_1FunctionNode.html" target="_top" xlink:title=" ">
<polygon fill="white" stroke="#666666" points="351,-352 184,-352 184,-333 351,-333 351,-352"/>
<text text-anchor="middle" x="267.5" y="-340" font-family="Helvetica,sans-Serif" font-size="10.00">tracktion::graph::FunctionNode</text>
</a>
</g>
</g>
<!-- Node1&#45;&gt;Node39 -->
<g id="edge38_Node000001_Node000039" class="edge">
<title>Node1&#45;&gt;Node39</title>
<g id="a_edge38_Node000001_Node000039"><a xlink:title=" ">
<path fill="none" stroke="#63b8ff" d="M63.68,-957.48C64.97,-861.42 75.47,-448.86 161,-361.5 167.44,-354.92 175.34,-350.17 183.89,-346.79"/>
<polygon fill="#63b8ff" stroke="#63b8ff" points="60.18,-957.54 63.56,-967.58 67.18,-957.62 60.18,-957.54"/>
</a>
</g>
</g>
<!-- Node40 -->
<g id="Node000040" class="node">
<title>Node40</title>
<g id="a_Node000040"><a xlink:href="classtracktion_1_1graph_1_1GainNode.html" target="_top" xlink:title=" ">
<polygon fill="white" stroke="#666666" points="341.5,-315 193.5,-315 193.5,-296 341.5,-296 341.5,-315"/>
<text text-anchor="middle" x="267.5" y="-303" font-family="Helvetica,sans-Serif" font-size="10.00">tracktion::graph::GainNode</text>
</a>
</g>
</g>
<!-- Node1&#45;&gt;Node40 -->
<g id="edge39_Node000001_Node000040" class="edge">
<title>Node1&#45;&gt;Node40</title>
<g id="a_edge39_Node000001_Node000040"><a xlink:title=" ">
<path fill="none" stroke="#63b8ff" d="M63.48,-957.87C63.81,-859.13 70.39,-417.87 161,-324.5 169.75,-315.49 181.22,-309.9 193.37,-306.57"/>
<polygon fill="#63b8ff" stroke="#63b8ff" points="59.98,-957.94 63.47,-967.94 66.98,-957.95 59.98,-957.94"/>
</a>
</g>
</g>
<!-- Node41 -->
<g id="Node000041" class="node">
<title>Node41</title>
<g id="a_Node000041"><a xlink:href="classtracktion_1_1graph_1_1LatencyNode.html" target="_top" xlink:title=" ">
<polygon fill="white" stroke="#666666" points="349.5,-278 185.5,-278 185.5,-259 349.5,-259 349.5,-278"/>
<text text-anchor="middle" x="267.5" y="-266" font-family="Helvetica,sans-Serif" font-size="10.00">tracktion::graph::LatencyNode</text>
</a>
</g>
</g>
<!-- Node1&#45;&gt;Node41 -->
<g id="edge40_Node000001_Node000041" class="edge">
<title>Node1&#45;&gt;Node41</title>
<g id="a_edge40_Node000001_Node000041"><a xlink:title=" ">
<path fill="none" stroke="#63b8ff" d="M63.31,-957.74C62.74,-855.41 65.45,-386.73 161,-287.5 167.78,-280.46 176.21,-275.51 185.34,-272.09"/>
<polygon fill="#63b8ff" stroke="#63b8ff" points="59.81,-957.92 63.38,-967.89 66.81,-957.87 59.81,-957.92"/>
</a>
</g>
</g>
<!-- Node42 -->
<g id="Node000042" class="node">
<title>Node42</title>
<g id="a_Node000042"><a xlink:href="classtracktion_1_1graph_1_1MidiNode.html" target="_top" xlink:title="Plays back a MIDI sequence.">
<polygon fill="white" stroke="#666666" points="340.5,-241 194.5,-241 194.5,-222 340.5,-222 340.5,-241"/>
<text text-anchor="middle" x="267.5" y="-229" font-family="Helvetica,sans-Serif" font-size="10.00">tracktion::graph::MidiNode</text>
</a>
</g>
</g>
<!-- Node1&#45;&gt;Node42 -->
<g id="edge41_Node000001_Node000042" class="edge">
<title>Node1&#45;&gt;Node42</title>
<g id="a_edge41_Node000001_Node000042"><a xlink:title=" ">
<path fill="none" stroke="#63b8ff" d="M63.15,-957.69C61.72,-852.01 60.48,-355.63 161,-250.5 169.94,-241.15 181.8,-235.48 194.34,-232.17"/>
<polygon fill="#63b8ff" stroke="#63b8ff" points="59.66,-957.94 63.31,-967.88 66.65,-957.83 59.66,-957.94"/>
</a>
</g>
</g>
<!-- Node43 -->
<g id="Node000043" class="node">
<title>Node43</title>
<g id="a_Node000043"><a xlink:href="classtracktion_1_1graph_1_1ReturnNode.html" target="_top" xlink:title=" ">
<polygon fill="white" stroke="#666666" points="346.5,-204 188.5,-204 188.5,-185 346.5,-185 346.5,-204"/>
<text text-anchor="middle" x="267.5" y="-192" font-family="Helvetica,sans-Serif" font-size="10.00">tracktion::graph::ReturnNode</text>
</a>
</g>
</g>
<!-- Node1&#45;&gt;Node43 -->
<g id="edge42_Node000001_Node000043" class="edge">
<title>Node1&#45;&gt;Node43</title>
<g id="a_edge42_Node000001_Node000043"><a xlink:title=" ">
<path fill="none" stroke="#63b8ff" d="M64.64,-957.69C71.43,-843.21 107.97,-269.32 161,-213.5 168.5,-205.61 178.08,-200.33 188.4,-196.88"/>
<polygon fill="#63b8ff" stroke="#63b8ff" points="61.14,-957.64 64.05,-967.82 68.13,-958.05 61.14,-957.64"/>
</a>
</g>
</g>
<!-- Node44 -->
<g id="Node000044" class="node">
<title>Node44</title>
<g id="a_Node000044"><a xlink:href="classtracktion_1_1graph_1_1SendNode.html" target="_top" xlink:title=" ">
<polygon fill="white" stroke="#666666" points="342,-167 193,-167 193,-148 342,-148 342,-167"/>
<text text-anchor="middle" x="267.5" y="-155" font-family="Helvetica,sans-Serif" font-size="10.00">tracktion::graph::SendNode</text>
</a>
</g>
</g>
<!-- Node1&#45;&gt;Node44 -->
<g id="edge43_Node000001_Node000044" class="edge">
<title>Node1&#45;&gt;Node44</title>
<g id="a_edge43_Node000001_Node000044"><a xlink:title=" ">
<path fill="none" stroke="#63b8ff" d="M64.51,-957.84C70.75,-840.47 105.44,-235.33 161,-176.5 169.56,-167.44 180.87,-161.81 192.9,-158.45"/>
<polygon fill="#63b8ff" stroke="#63b8ff" points="61.01,-957.74 63.99,-967.91 68.01,-958.1 61.01,-957.74"/>
</a>
</g>
</g>
<!-- Node46 -->
<g id="Node000046" class="node">
<title>Node46</title>
<g id="a_Node000046"><a xlink:href="classtracktion_1_1graph_1_1SilentNode.html" target="_top" xlink:title="Just a simple audio node that doesn&#39;t take any input so can be used as a stub.">
<polygon fill="white" stroke="#666666" points="344,-130 191,-130 191,-111 344,-111 344,-130"/>
<text text-anchor="middle" x="267.5" y="-118" font-family="Helvetica,sans-Serif" font-size="10.00">tracktion::graph::SilentNode</text>
</a>
</g>
</g>
<!-- Node1&#45;&gt;Node46 -->
<g id="edge45_Node000001_Node000046" class="edge">
<title>Node1&#45;&gt;Node46</title>
<g id="a_edge45_Node000001_Node000046"><a xlink:title=" ">
<path fill="none" stroke="#63b8ff" d="M64.41,-957.69C70.15,-836.77 102.95,-201.29 161,-139.5 169.09,-130.89 179.66,-125.38 190.98,-121.96"/>
<polygon fill="#63b8ff" stroke="#63b8ff" points="60.91,-957.6 63.94,-967.75 67.9,-957.92 60.91,-957.6"/>
</a>
</g>
</g>
<!-- Node47 -->
<g id="Node000047" class="node">
<title>Node47</title>
<g id="a_Node000047"><a xlink:href="classtracktion_1_1graph_1_1SinNode.html" target="_top" xlink:title=" ">
<polygon fill="white" stroke="#666666" points="337.5,-93 197.5,-93 197.5,-74 337.5,-74 337.5,-93"/>
<text text-anchor="middle" x="267.5" y="-81" font-family="Helvetica,sans-Serif" font-size="10.00">tracktion::graph::SinNode</text>
</a>
</g>
</g>
<!-- Node1&#45;&gt;Node47 -->
<g id="edge46_Node000001_Node000047" class="edge">
<title>Node1&#45;&gt;Node47</title>
<g id="a_edge46_Node000001_Node000047"><a xlink:title=" ">
<path fill="none" stroke="#63b8ff" d="M64.31,-957.6C69.57,-833.36 100.45,-167.26 161,-102.5 170.6,-92.24 183.71,-86.37 197.43,-83.21"/>
<polygon fill="#63b8ff" stroke="#63b8ff" points="60.8,-957.76 63.88,-967.9 67.8,-958.05 60.8,-957.76"/>
</a>
</g>
</g>
<!-- Node48 -->
<g id="Node000048" class="node">
<title>Node48</title>
<g id="a_Node000048"><a xlink:href="classtracktion_1_1graph_1_1SinkNode.html" target="_top" xlink:title="Blocks audio and MIDI input from reaching the outputs.">
<polygon fill="white" stroke="#666666" points="340.5,-56 194.5,-56 194.5,-37 340.5,-37 340.5,-56"/>
<text text-anchor="middle" x="267.5" y="-44" font-family="Helvetica,sans-Serif" font-size="10.00">tracktion::graph::SinkNode</text>
</a>
</g>
</g>
<!-- Node1&#45;&gt;Node48 -->
<g id="edge47_Node000001_Node000048" class="edge">
<title>Node1&#45;&gt;Node48</title>
<g id="a_edge47_Node000001_Node000048"><a xlink:title=" ">
<path fill="none" stroke="#63b8ff" d="M64.22,-957.56C69,-830.14 97.94,-133.25 161,-65.5 169.88,-55.96 181.79,-50.22 194.41,-46.91"/>
<polygon fill="#63b8ff" stroke="#63b8ff" points="60.71,-957.66 63.84,-967.79 67.71,-957.92 60.71,-957.66"/>
</a>
</g>
</g>
<!-- Node49 -->
<g id="Node000049" class="node">
<title>Node49</title>
<g id="a_Node000049"><a xlink:href="classtracktion_1_1graph_1_1SummingNode.html" target="_top" xlink:title="An Node which sums together the multiple inputs adding additional latency to provide a coherent outpu...">
<polygon fill="white" stroke="#666666" points="353.5,-19 181.5,-19 181.5,0 353.5,0 353.5,-19"/>
<text text-anchor="middle" x="267.5" y="-7" font-family="Helvetica,sans-Serif" font-size="10.00">tracktion::graph::SummingNode</text>
</a>
</g>
</g>
<!-- Node1&#45;&gt;Node49 -->
<g id="edge48_Node000001_Node000049" class="edge">
<title>Node1&#45;&gt;Node49</title>
<g id="a_edge48_Node000001_Node000049"><a xlink:title=" ">
<path fill="none" stroke="#63b8ff" d="M64.12,-957.96C68.4,-828.67 95.36,-99.32 161,-28.5 166.76,-22.29 173.8,-17.69 181.49,-14.32"/>
<polygon fill="#63b8ff" stroke="#63b8ff" points="60.62,-957.89 63.79,-967.99 67.62,-958.11 60.62,-957.89"/>
</a>
</g>
</g>
<!-- Node45 -->
<g id="Node000045" class="node">
<title>Node45</title>
<g id="a_Node000045"><a xlink:href="classtracktion_1_1engine_1_1AuxSendNode.html" target="_top" xlink:title="Node for an aux send.">
<polygon fill="white" stroke="#666666" points="515,-172.5 410,-172.5 410,-142.5 515,-142.5 515,-172.5"/>
<text text-anchor="start" x="418" y="-160.5" font-family="Helvetica,sans-Serif" font-size="10.00">tracktion::engine::</text>
<text text-anchor="middle" x="462.5" y="-149.5" font-family="Helvetica,sans-Serif" font-size="10.00">AuxSendNode</text>
</a>
</g>
</g>
<!-- Node44&#45;&gt;Node45 -->
<g id="edge44_Node000044_Node000045" class="edge">
<title>Node44&#45;&gt;Node45</title>
<g id="a_edge44_Node000044_Node000045"><a xlink:title=" ">
<path fill="none" stroke="#63b8ff" d="M352.17,-157.5C371.75,-157.5 392.05,-157.5 409.77,-157.5"/>
<polygon fill="#63b8ff" stroke="#63b8ff" points="352.02,-154 342.02,-157.5 352.02,-161 352.02,-154"/>
</a>
</g>
</g>
</g>
</svg>
