<?xml version="1.0" encoding="UTF-8" standalone="no"?>
<!DOCTYPE svg PUBLIC "-//W3C//DTD SVG 1.1//EN"
 "http://www.w3.org/Graphics/SVG/1.1/DTD/svg11.dtd">
<!-- Generated by graphviz version 2.43.0 (0)
 -->
<!-- Title: tracktion::engine::ClipTrack Pages: 1 -->
<svg width="536pt" height="186pt"
 viewBox="0.00 0.00 536.00 186.00" xmlns="http://www.w3.org/2000/svg" xmlns:xlink="http://www.w3.org/1999/xlink">
<g id="graph0" class="graph" transform="scale(1 1) rotate(0) translate(4 182)">
<title>tracktion::engine::ClipTrack</title>
<!-- Node1 -->
<g id="node1" class="node">
<title>Node1</title>
<g id="a_node1"><a xlink:title=" ">
<polygon fill="#bfbfbf" stroke="black" points="282,-73.5 282,-103.5 387,-103.5 387,-73.5 282,-73.5"/>
<text text-anchor="start" x="290" y="-91.5" font-family="Helvetica,sans-Serif" font-size="10.00">tracktion::engine::</text>
<text text-anchor="middle" x="334.5" y="-80.5" font-family="Helvetica,sans-Serif" font-size="10.00">ClipTrack</text>
</a>
</g>
</g>
<!-- Node6 -->
<g id="node6" class="node">
<title>Node6</title>
<g id="a_node6"><a xlink:href="classtracktion_1_1engine_1_1ArrangerTrack.html" target="_top" xlink:title="A track similar to the MarkerTrack but can be used to move sections of an Edit around.">
<polygon fill="none" stroke="black" points="423,-147.5 423,-177.5 528,-177.5 528,-147.5 423,-147.5"/>
<text text-anchor="start" x="431" y="-165.5" font-family="Helvetica,sans-Serif" font-size="10.00">tracktion::engine::</text>
<text text-anchor="middle" x="475.5" y="-154.5" font-family="Helvetica,sans-Serif" font-size="10.00">ArrangerTrack</text>
</a>
</g>
</g>
<!-- Node1&#45;&gt;Node6 -->
<g id="edge5" class="edge">
<title>Node1&#45;&gt;Node6</title>
<path fill="none" stroke="midnightblue" d="M369.48,-108.79C385.54,-118.15 405.08,-129.22 423,-138.5 428.78,-141.49 435.01,-144.54 441.06,-147.41"/>
<polygon fill="midnightblue" stroke="midnightblue" points="370.86,-105.54 360.47,-103.5 367.32,-111.58 370.86,-105.54"/>
</g>
<!-- Node7 -->
<g id="node7" class="node">
<title>Node7</title>
<g id="a_node7"><a xlink:href="classtracktion_1_1engine_1_1AudioTrack.html" target="_top" xlink:title=" ">
<polygon fill="none" stroke="black" points="423,-98.5 423,-128.5 528,-128.5 528,-98.5 423,-98.5"/>
<text text-anchor="start" x="431" y="-116.5" font-family="Helvetica,sans-Serif" font-size="10.00">tracktion::engine::</text>
<text text-anchor="middle" x="475.5" y="-105.5" font-family="Helvetica,sans-Serif" font-size="10.00">AudioTrack</text>
</a>
</g>
</g>
<!-- Node1&#45;&gt;Node7 -->
<g id="edge6" class="edge">
<title>Node1&#45;&gt;Node7</title>
<path fill="none" stroke="midnightblue" d="M397.16,-99.59C405.69,-101.12 414.38,-102.69 422.7,-104.18"/>
<polygon fill="midnightblue" stroke="midnightblue" points="397.72,-96.13 387.26,-97.81 396.48,-103.02 397.72,-96.13"/>
</g>
<!-- Node8 -->
<g id="node8" class="node">
<title>Node8</title>
<g id="a_node8"><a xlink:href="classtracktion_1_1engine_1_1ChordTrack.html" target="_top" xlink:title=" ">
<polygon fill="none" stroke="black" points="423,-49.5 423,-79.5 528,-79.5 528,-49.5 423,-49.5"/>
<text text-anchor="start" x="431" y="-67.5" font-family="Helvetica,sans-Serif" font-size="10.00">tracktion::engine::</text>
<text text-anchor="middle" x="475.5" y="-56.5" font-family="Helvetica,sans-Serif" font-size="10.00">ChordTrack</text>
</a>
</g>
</g>
<!-- Node1&#45;&gt;Node8 -->
<g id="edge7" class="edge">
<title>Node1&#45;&gt;Node8</title>
<path fill="none" stroke="midnightblue" d="M397.16,-77.85C405.69,-76.38 414.38,-74.88 422.7,-73.44"/>
<polygon fill="midnightblue" stroke="midnightblue" points="396.52,-74.41 387.26,-79.56 397.71,-81.31 396.52,-74.41"/>
</g>
<!-- Node9 -->
<g id="node9" class="node">
<title>Node9</title>
<g id="a_node9"><a xlink:href="classtracktion_1_1engine_1_1MarkerTrack.html" target="_top" xlink:title=" ">
<polygon fill="none" stroke="black" points="423,-0.5 423,-30.5 528,-30.5 528,-0.5 423,-0.5"/>
<text text-anchor="start" x="431" y="-18.5" font-family="Helvetica,sans-Serif" font-size="10.00">tracktion::engine::</text>
<text text-anchor="middle" x="475.5" y="-7.5" font-family="Helvetica,sans-Serif" font-size="10.00">MarkerTrack</text>
</a>
</g>
</g>
<!-- Node1&#45;&gt;Node9 -->
<g id="edge8" class="edge">
<title>Node1&#45;&gt;Node9</title>
<path fill="none" stroke="midnightblue" d="M370.22,-68.27C386.16,-59.19 405.38,-48.52 423,-39.5 428.88,-36.49 435.21,-33.41 441.36,-30.5"/>
<polygon fill="midnightblue" stroke="midnightblue" points="368.2,-65.4 361.26,-73.41 371.68,-71.47 368.2,-65.4"/>
</g>
<!-- Node2 -->
<g id="node2" class="node">
<title>Node2</title>
<g id="a_node2"><a xlink:href="classtracktion_1_1engine_1_1Track.html" target="_top" xlink:title="Base class for tracks which contain clips and plugins and can be added to Edit[s].">
<polygon fill="none" stroke="black" points="141,-98.5 141,-128.5 246,-128.5 246,-98.5 141,-98.5"/>
<text text-anchor="start" x="149" y="-116.5" font-family="Helvetica,sans-Serif" font-size="10.00">tracktion::engine::</text>
<text text-anchor="middle" x="193.5" y="-105.5" font-family="Helvetica,sans-Serif" font-size="10.00">Track</text>
</a>
</g>
</g>
<!-- Node2&#45;&gt;Node1 -->
<g id="edge1" class="edge">
<title>Node2&#45;&gt;Node1</title>
<path fill="none" stroke="midnightblue" d="M256.16,-102.41C264.69,-100.88 273.38,-99.31 281.7,-97.82"/>
<polygon fill="midnightblue" stroke="midnightblue" points="255.48,-98.98 246.26,-104.19 256.72,-105.87 255.48,-98.98"/>
</g>
<!-- Node3 -->
<g id="node3" class="node">
<title>Node3</title>
<g id="a_node3"><a xlink:href="classtracktion_1_1engine_1_1EditItem.html" target="_top" xlink:title="Base class for objects that live inside an edit &#45; e.g.">
<polygon fill="none" stroke="black" points="0,-122.5 0,-152.5 105,-152.5 105,-122.5 0,-122.5"/>
<text text-anchor="start" x="8" y="-140.5" font-family="Helvetica,sans-Serif" font-size="10.00">tracktion::engine::</text>
<text text-anchor="middle" x="52.5" y="-129.5" font-family="Helvetica,sans-Serif" font-size="10.00">EditItem</text>
</a>
</g>
</g>
<!-- Node3&#45;&gt;Node2 -->
<g id="edge2" class="edge">
<title>Node3&#45;&gt;Node2</title>
<path fill="none" stroke="midnightblue" d="M115.16,-126.85C123.69,-125.38 132.38,-123.88 140.7,-122.44"/>
<polygon fill="midnightblue" stroke="midnightblue" points="114.52,-123.41 105.26,-128.56 115.71,-130.31 114.52,-123.41"/>
</g>
<!-- Node4 -->
<g id="node4" class="node">
<title>Node4</title>
<g id="a_node4"><a xlink:href="classtracktion_1_1engine_1_1Selectable.html" target="_top" xlink:title="Base class for things that can be selected, and whose properties can appear in the properties panel.">
<polygon fill="none" stroke="black" points="0,-73.5 0,-103.5 105,-103.5 105,-73.5 0,-73.5"/>
<text text-anchor="start" x="8" y="-91.5" font-family="Helvetica,sans-Serif" font-size="10.00">tracktion::engine::</text>
<text text-anchor="middle" x="52.5" y="-80.5" font-family="Helvetica,sans-Serif" font-size="10.00">Selectable</text>
</a>
</g>
</g>
<!-- Node4&#45;&gt;Node2 -->
<g id="edge3" class="edge">
<title>Node4&#45;&gt;Node2</title>
<path fill="none" stroke="midnightblue" d="M115.16,-99.59C123.69,-101.12 132.38,-102.69 140.7,-104.18"/>
<polygon fill="midnightblue" stroke="midnightblue" points="115.72,-96.13 105.26,-97.81 114.48,-103.02 115.72,-96.13"/>
</g>
<!-- Node5 -->
<g id="node5" class="node">
<title>Node5</title>
<g id="a_node5"><a xlink:href="classtracktion_1_1engine_1_1ClipOwner.html" target="_top" xlink:title="Base class for items that can contain clips.">
<polygon fill="none" stroke="black" points="141,-49.5 141,-79.5 246,-79.5 246,-49.5 141,-49.5"/>
<text text-anchor="start" x="149" y="-67.5" font-family="Helvetica,sans-Serif" font-size="10.00">tracktion::engine::</text>
<text text-anchor="middle" x="193.5" y="-56.5" font-family="Helvetica,sans-Serif" font-size="10.00">ClipOwner</text>
</a>
</g>
</g>
<!-- Node5&#45;&gt;Node1 -->
<g id="edge4" class="edge">
<title>Node5&#45;&gt;Node1</title>
<path fill="none" stroke="midnightblue" d="M256.16,-75.15C264.69,-76.62 273.38,-78.12 281.7,-79.56"/>
<polygon fill="midnightblue" stroke="midnightblue" points="256.71,-71.69 246.26,-73.44 255.52,-78.59 256.71,-71.69"/>
</g>
</g>
</svg>
