<?xml version="1.0" encoding="UTF-8" standalone="no"?>
<!DOCTYPE svg PUBLIC "-//W3C//DTD SVG 1.1//EN"
 "http://www.w3.org/Graphics/SVG/1.1/DTD/svg11.dtd">
<!-- Generated by graphviz version 2.43.0 (0)
 -->
<!-- Title: tracktion::engine::PlayHeadPositionNode Pages: 1 -->
<svg width="270pt" height="106pt"
 viewBox="0.00 0.00 270.00 106.00" xmlns="http://www.w3.org/2000/svg" xmlns:xlink="http://www.w3.org/1999/xlink">
<g id="graph0" class="graph" transform="scale(1 1) rotate(0) translate(4 102)">
<title>tracktion::engine::PlayHeadPositionNode</title>
<!-- Node1 -->
<g id="node1" class="node">
<title>Node1</title>
<g id="a_node1"><a xlink:title="A Node that calculates a position to show visually what time is currently being processed by the grap...">
<polygon fill="#bfbfbf" stroke="black" points="68.5,-0.5 68.5,-30.5 196.5,-30.5 196.5,-0.5 68.5,-0.5"/>
<text text-anchor="start" x="76.5" y="-18.5" font-family="Helvetica,sans-Serif" font-size="10.00">tracktion::engine::</text>
<text text-anchor="middle" x="132.5" y="-7.5" font-family="Helvetica,sans-Serif" font-size="10.00">PlayHeadPositionNode</text>
</a>
</g>
</g>
<!-- Node2 -->
<g id="node2" class="node">
<title>Node2</title>
<g id="a_node2"><a xlink:href="classtracktion_1_1graph_1_1Node.html" target="_top" xlink:title="Main graph Node processor class.">
<polygon fill="none" stroke="black" points="0,-73 0,-92 125,-92 125,-73 0,-73"/>
<text text-anchor="middle" x="62.5" y="-80" font-family="Helvetica,sans-Serif" font-size="10.00">tracktion::graph::Node</text>
</a>
</g>
</g>
<!-- Node2&#45;&gt;Node1 -->
<g id="edge1" class="edge">
<title>Node2&#45;&gt;Node1</title>
<path fill="none" stroke="midnightblue" d="M79.27,-65.93C90.85,-55.18 106.11,-41 117.33,-30.59"/>
<polygon fill="midnightblue" stroke="midnightblue" points="76.89,-63.36 71.94,-72.73 81.65,-68.49 76.89,-63.36"/>
</g>
<!-- Node3 -->
<g id="node3" class="node">
<title>Node3</title>
<g id="a_node3"><a xlink:href="classtracktion_1_1engine_1_1TracktionEngineNode.html" target="_top" xlink:title="Base class for Nodes that provides information about the current process call.">
<polygon fill="none" stroke="black" points="143,-67.5 143,-97.5 262,-97.5 262,-67.5 143,-67.5"/>
<text text-anchor="start" x="151" y="-85.5" font-family="Helvetica,sans-Serif" font-size="10.00">tracktion::engine::</text>
<text text-anchor="middle" x="202.5" y="-74.5" font-family="Helvetica,sans-Serif" font-size="10.00">TracktionEngineNode</text>
</a>
</g>
</g>
<!-- Node3&#45;&gt;Node1 -->
<g id="edge2" class="edge">
<title>Node3&#45;&gt;Node1</title>
<path fill="none" stroke="midnightblue" d="M179.68,-60.31C169.18,-50.56 157.01,-39.26 147.66,-30.58"/>
<polygon fill="midnightblue" stroke="midnightblue" points="177.6,-63.16 187.31,-67.4 182.36,-58.03 177.6,-63.16"/>
</g>
</g>
</svg>
