<?xml version="1.0" encoding="UTF-8" standalone="no"?>
<!DOCTYPE svg PUBLIC "-//W3C//DTD SVG 1.1//EN"
 "http://www.w3.org/Graphics/SVG/1.1/DTD/svg11.dtd">
<!-- Generated by graphviz version 2.43.0 (0)
 -->
<!-- Title: tracktion_engine::ControlSurface Pages: 1 -->
<svg width="728pt" height="350pt"
 viewBox="0.00 0.00 728.00 350.00" xmlns="http://www.w3.org/2000/svg" xmlns:xlink="http://www.w3.org/1999/xlink">
<g id="graph0" class="graph" transform="scale(1 1) rotate(0) translate(4 346)">
<title>tracktion_engine::ControlSurface</title>
<!-- Node1 -->
<g id="node1" class="node">
<title>Node1</title>
<g id="a_node1"><a xlink:title="Base class for types of control surface.">
<polygon fill="#bfbfbf" stroke="black" points="191,-161.5 191,-191.5 331,-191.5 331,-161.5 191,-161.5"/>
<text text-anchor="start" x="199" y="-179.5" font-family="Helvetica,sans-Serif" font-size="10.00">tracktion_engine::Control</text>
<text text-anchor="middle" x="261" y="-168.5" font-family="Helvetica,sans-Serif" font-size="10.00">Surface</text>
</a>
</g>
</g>
<!-- Node3 -->
<g id="node3" class="node">
<title>Node3</title>
<g id="a_node3"><a xlink:href="classtracktion__engine_1_1AlphaTrackControlSurface.html" target="_top" xlink:title=" ">
<polygon fill="none" stroke="black" points="369.5,-311.5 369.5,-341.5 527.5,-341.5 527.5,-311.5 369.5,-311.5"/>
<text text-anchor="start" x="377.5" y="-329.5" font-family="Helvetica,sans-Serif" font-size="10.00">tracktion_engine::AlphaTrack</text>
<text text-anchor="middle" x="448.5" y="-318.5" font-family="Helvetica,sans-Serif" font-size="10.00">ControlSurface</text>
</a>
</g>
</g>
<!-- Node1&#45;&gt;Node3 -->
<g id="edge2" class="edge">
<title>Node1&#45;&gt;Node3</title>
<path fill="none" stroke="midnightblue" d="M276.06,-200.41C293.81,-228.56 326.92,-274.86 367,-301.5 372.73,-305.31 379.07,-308.56 385.6,-311.33"/>
<polygon fill="midnightblue" stroke="midnightblue" points="278.87,-198.29 270.64,-191.61 272.91,-201.96 278.87,-198.29"/>
</g>
<!-- Node4 -->
<g id="node4" class="node">
<title>Node4</title>
<g id="a_node4"><a xlink:href="classtracktion__engine_1_1CustomControlSurface.html" target="_top" xlink:title=" ">
<polygon fill="none" stroke="black" points="377.5,-262.5 377.5,-292.5 519.5,-292.5 519.5,-262.5 377.5,-262.5"/>
<text text-anchor="start" x="385.5" y="-280.5" font-family="Helvetica,sans-Serif" font-size="10.00">tracktion_engine::Custom</text>
<text text-anchor="middle" x="448.5" y="-269.5" font-family="Helvetica,sans-Serif" font-size="10.00">ControlSurface</text>
</a>
</g>
</g>
<!-- Node1&#45;&gt;Node4 -->
<g id="edge3" class="edge">
<title>Node1&#45;&gt;Node4</title>
<path fill="none" stroke="midnightblue" d="M286.9,-198.13C307.28,-214.91 337.46,-237.72 367,-252.5 374.46,-256.23 382.59,-259.54 390.72,-262.43"/>
<polygon fill="midnightblue" stroke="midnightblue" points="288.98,-195.3 279.06,-191.57 284.49,-200.67 288.98,-195.3"/>
</g>
<!-- Node5 -->
<g id="node5" class="node">
<title>Node5</title>
<g id="a_node5"><a xlink:href="classtracktion__engine_1_1MackieC4.html" target="_top" xlink:title=" ">
<polygon fill="none" stroke="black" points="372.5,-224 372.5,-243 524.5,-243 524.5,-224 372.5,-224"/>
<text text-anchor="middle" x="448.5" y="-231" font-family="Helvetica,sans-Serif" font-size="10.00">tracktion_engine::MackieC4</text>
</a>
</g>
</g>
<!-- Node1&#45;&gt;Node5 -->
<g id="edge4" class="edge">
<title>Node1&#45;&gt;Node5</title>
<path fill="none" stroke="midnightblue" d="M310.1,-195.23C327.83,-201.78 348.19,-208.9 367,-214.5 378.56,-217.94 391.2,-221.17 402.97,-223.96"/>
<polygon fill="midnightblue" stroke="midnightblue" points="311.13,-191.88 300.54,-191.66 308.68,-198.43 311.13,-191.88"/>
</g>
<!-- Node6 -->
<g id="node6" class="node">
<title>Node6</title>
<g id="a_node6"><a xlink:href="classtracktion__engine_1_1MackieMCU.html" target="_top" xlink:title=" ">
<polygon fill="none" stroke="black" points="367,-186 367,-205 530,-205 530,-186 367,-186"/>
<text text-anchor="middle" x="448.5" y="-193" font-family="Helvetica,sans-Serif" font-size="10.00">tracktion_engine::MackieMCU</text>
</a>
</g>
</g>
<!-- Node1&#45;&gt;Node6 -->
<g id="edge5" class="edge">
<title>Node1&#45;&gt;Node6</title>
<path fill="none" stroke="midnightblue" d="M341.28,-184.62C349.73,-185.49 358.33,-186.37 366.79,-187.23"/>
<polygon fill="midnightblue" stroke="midnightblue" points="341.38,-181.11 331.07,-183.57 340.66,-188.08 341.38,-181.11"/>
</g>
<!-- Node8 -->
<g id="node8" class="node">
<title>Node8</title>
<g id="a_node8"><a xlink:href="classtracktion__engine_1_1MackieXT.html" target="_top" xlink:title=" ">
<polygon fill="none" stroke="black" points="372.5,-148 372.5,-167 524.5,-167 524.5,-148 372.5,-148"/>
<text text-anchor="middle" x="448.5" y="-155" font-family="Helvetica,sans-Serif" font-size="10.00">tracktion_engine::MackieXT</text>
</a>
</g>
</g>
<!-- Node1&#45;&gt;Node8 -->
<g id="edge7" class="edge">
<title>Node1&#45;&gt;Node8</title>
<path fill="none" stroke="midnightblue" d="M341.31,-168.38C351.64,-167.32 362.2,-166.24 372.46,-165.19"/>
<polygon fill="midnightblue" stroke="midnightblue" points="340.66,-164.92 331.07,-169.43 341.38,-171.89 340.66,-164.92"/>
</g>
<!-- Node9 -->
<g id="node9" class="node">
<title>Node9</title>
<g id="a_node9"><a xlink:href="classtracktion__engine_1_1NovationRemoteSl.html" target="_top" xlink:title=" ">
<polygon fill="none" stroke="black" points="374,-98.5 374,-128.5 523,-128.5 523,-98.5 374,-98.5"/>
<text text-anchor="start" x="382" y="-116.5" font-family="Helvetica,sans-Serif" font-size="10.00">tracktion_engine::Novation</text>
<text text-anchor="middle" x="448.5" y="-105.5" font-family="Helvetica,sans-Serif" font-size="10.00">RemoteSl</text>
</a>
</g>
</g>
<!-- Node1&#45;&gt;Node9 -->
<g id="edge8" class="edge">
<title>Node1&#45;&gt;Node9</title>
<path fill="none" stroke="midnightblue" d="M311.66,-158C329.1,-151.64 348.86,-144.6 367,-138.5 376.85,-135.19 387.43,-131.79 397.57,-128.61"/>
<polygon fill="midnightblue" stroke="midnightblue" points="310.42,-154.72 302.23,-161.45 312.83,-161.3 310.42,-154.72"/>
</g>
<!-- Node10 -->
<g id="node10" class="node">
<title>Node10</title>
<g id="a_node10"><a xlink:href="classtracktion__engine_1_1RemoteSLCompact.html" target="_top" xlink:title=" ">
<polygon fill="none" stroke="black" points="377,-49.5 377,-79.5 520,-79.5 520,-49.5 377,-49.5"/>
<text text-anchor="start" x="385" y="-67.5" font-family="Helvetica,sans-Serif" font-size="10.00">tracktion_engine::Remote</text>
<text text-anchor="middle" x="448.5" y="-56.5" font-family="Helvetica,sans-Serif" font-size="10.00">SLCompact</text>
</a>
</g>
</g>
<!-- Node1&#45;&gt;Node10 -->
<g id="edge9" class="edge">
<title>Node1&#45;&gt;Node10</title>
<path fill="none" stroke="midnightblue" d="M283.25,-154.1C303.18,-134.28 334.68,-105.89 367,-88.5 373.29,-85.11 380.13,-82.14 387.06,-79.56"/>
<polygon fill="midnightblue" stroke="midnightblue" points="280.74,-151.66 276.2,-161.23 285.72,-156.58 280.74,-151.66"/>
</g>
<!-- Node11 -->
<g id="node11" class="node">
<title>Node11</title>
<g id="a_node11"><a xlink:href="classtracktion__engine_1_1TranzportControlSurface.html" target="_top" xlink:title=" ">
<polygon fill="none" stroke="black" points="374,-0.5 374,-30.5 523,-30.5 523,-0.5 374,-0.5"/>
<text text-anchor="start" x="382" y="-18.5" font-family="Helvetica,sans-Serif" font-size="10.00">tracktion_engine::Tranzport</text>
<text text-anchor="middle" x="448.5" y="-7.5" font-family="Helvetica,sans-Serif" font-size="10.00">ControlSurface</text>
</a>
</g>
</g>
<!-- Node1&#45;&gt;Node11 -->
<g id="edge10" class="edge">
<title>Node1&#45;&gt;Node11</title>
<path fill="none" stroke="midnightblue" d="M274.42,-152.04C291.27,-121.29 324.25,-68.96 367,-39.5 371.92,-36.11 377.34,-33.19 382.95,-30.67"/>
<polygon fill="midnightblue" stroke="midnightblue" points="271.15,-150.74 269.52,-161.21 277.32,-154.04 271.15,-150.74"/>
</g>
<!-- Node2 -->
<g id="node2" class="node">
<title>Node2</title>
<g id="a_node2"><a xlink:href="classtracktion__engine_1_1Selectable.html" target="_top" xlink:title="Base class for things that can be selected, and whose properties can appear in the properties panel.">
<polygon fill="none" stroke="black" points="0,-167 0,-186 155,-186 155,-167 0,-167"/>
<text text-anchor="middle" x="77.5" y="-174" font-family="Helvetica,sans-Serif" font-size="10.00">tracktion_engine::Selectable</text>
</a>
</g>
</g>
<!-- Node2&#45;&gt;Node1 -->
<g id="edge1" class="edge">
<title>Node2&#45;&gt;Node1</title>
<path fill="none" stroke="midnightblue" d="M165.23,-176.5C173.8,-176.5 182.41,-176.5 190.77,-176.5"/>
<polygon fill="midnightblue" stroke="midnightblue" points="165.21,-173 155.21,-176.5 165.21,-180 165.21,-173"/>
</g>
<!-- Node7 -->
<g id="node7" class="node">
<title>Node7</title>
<g id="a_node7"><a xlink:href="classtracktion__engine_1_1IconProG2.html" target="_top" xlink:title=" ">
<polygon fill="none" stroke="black" points="566,-186 566,-205 720,-205 720,-186 566,-186"/>
<text text-anchor="middle" x="643" y="-193" font-family="Helvetica,sans-Serif" font-size="10.00">tracktion_engine::IconProG2</text>
</a>
</g>
</g>
<!-- Node6&#45;&gt;Node7 -->
<g id="edge6" class="edge">
<title>Node6&#45;&gt;Node7</title>
<path fill="none" stroke="midnightblue" d="M540.08,-195.5C548.69,-195.5 557.35,-195.5 565.8,-195.5"/>
<polygon fill="midnightblue" stroke="midnightblue" points="540.02,-192 530.02,-195.5 540.02,-199 540.02,-192"/>
</g>
</g>
</svg>
