<?xml version="1.0" encoding="UTF-8" standalone="no"?>
<!DOCTYPE svg PUBLIC "-//W3C//DTD SVG 1.1//EN"
 "http://www.w3.org/Graphics/SVG/1.1/DTD/svg11.dtd">
<!-- Generated by graphviz version 2.43.0 (0)
 -->
<!-- Title: tracktion::engine::DynamicallyOffsettableNodeBase Pages: 1 -->
<svg width="342pt" height="186pt"
 viewBox="0.00 0.00 342.00 186.00" xmlns="http://www.w3.org/2000/svg" xmlns:xlink="http://www.w3.org/1999/xlink">
<g id="graph0" class="graph" transform="scale(1 1) rotate(0) translate(4 182)">
<title>tracktion::engine::DynamicallyOffsettableNodeBase</title>
<!-- Node1 -->
<g id="node1" class="node">
<title>Node1</title>
<g id="a_node1"><a xlink:title=" ">
<polygon fill="#bfbfbf" stroke="black" points="0,-73.5 0,-103.5 182,-103.5 182,-73.5 0,-73.5"/>
<text text-anchor="start" x="8" y="-91.5" font-family="Helvetica,sans-Serif" font-size="10.00">tracktion::engine::</text>
<text text-anchor="middle" x="91" y="-80.5" font-family="Helvetica,sans-Serif" font-size="10.00">DynamicallyOffsettableNodeBase</text>
</a>
</g>
</g>
<!-- Node2 -->
<g id="node2" class="node">
<title>Node2</title>
<g id="a_node2"><a xlink:href="classtracktion_1_1engine_1_1DynamicOffsetNode.html" target="_top" xlink:title=" ">
<polygon fill="none" stroke="black" points="218.5,-147.5 218.5,-177.5 333.5,-177.5 333.5,-147.5 218.5,-147.5"/>
<text text-anchor="start" x="226.5" y="-165.5" font-family="Helvetica,sans-Serif" font-size="10.00">tracktion::engine::</text>
<text text-anchor="middle" x="276" y="-154.5" font-family="Helvetica,sans-Serif" font-size="10.00">DynamicOffsetNode</text>
</a>
</g>
</g>
<!-- Node1&#45;&gt;Node2 -->
<g id="edge1" class="edge">
<title>Node1&#45;&gt;Node2</title>
<path fill="none" stroke="midnightblue" d="M139.12,-107.55C169.85,-119.98 209.39,-135.97 237.89,-147.49"/>
<polygon fill="midnightblue" stroke="midnightblue" points="140.06,-104.16 129.47,-103.65 137.43,-110.65 140.06,-104.16"/>
</g>
<!-- Node3 -->
<g id="node3" class="node">
<title>Node3</title>
<g id="a_node3"><a xlink:href="classtracktion_1_1engine_1_1FadeInOutNode.html" target="_top" xlink:title="A Node that fades in and out given time regions.">
<polygon fill="none" stroke="black" points="223.5,-98.5 223.5,-128.5 328.5,-128.5 328.5,-98.5 223.5,-98.5"/>
<text text-anchor="start" x="231.5" y="-116.5" font-family="Helvetica,sans-Serif" font-size="10.00">tracktion::engine::</text>
<text text-anchor="middle" x="276" y="-105.5" font-family="Helvetica,sans-Serif" font-size="10.00">FadeInOutNode</text>
</a>
</g>
</g>
<!-- Node1&#45;&gt;Node3 -->
<g id="edge2" class="edge">
<title>Node1&#45;&gt;Node3</title>
<path fill="none" stroke="midnightblue" d="M192.37,-102.21C203,-103.66 213.46,-105.09 223.18,-106.42"/>
<polygon fill="midnightblue" stroke="midnightblue" points="192.54,-98.7 182.16,-100.82 191.59,-105.64 192.54,-98.7"/>
</g>
<!-- Node4 -->
<g id="node4" class="node">
<title>Node4</title>
<g id="a_node4"><a xlink:href="classtracktion_1_1engine_1_1LoopingMidiNode.html" target="_top" xlink:title="A Node that plays MIDI data from a MidiMessageSequence, at a specific MIDI channel.">
<polygon fill="none" stroke="black" points="223.5,-49.5 223.5,-79.5 328.5,-79.5 328.5,-49.5 223.5,-49.5"/>
<text text-anchor="start" x="231.5" y="-67.5" font-family="Helvetica,sans-Serif" font-size="10.00">tracktion::engine::</text>
<text text-anchor="middle" x="276" y="-56.5" font-family="Helvetica,sans-Serif" font-size="10.00">LoopingMidiNode</text>
</a>
</g>
</g>
<!-- Node1&#45;&gt;Node4 -->
<g id="edge3" class="edge">
<title>Node1&#45;&gt;Node4</title>
<path fill="none" stroke="midnightblue" d="M192.37,-75.34C203,-73.94 213.46,-72.57 223.18,-71.3"/>
<polygon fill="midnightblue" stroke="midnightblue" points="191.62,-71.91 182.16,-76.68 192.53,-78.85 191.62,-71.91"/>
</g>
<!-- Node5 -->
<g id="node5" class="node">
<title>Node5</title>
<g id="a_node5"><a xlink:href="classtracktion_1_1engine_1_1WaveNodeRealTime.html" target="_top" xlink:title="An Node that plays back a wave file.">
<polygon fill="none" stroke="black" points="218,-0.5 218,-30.5 334,-30.5 334,-0.5 218,-0.5"/>
<text text-anchor="start" x="226" y="-18.5" font-family="Helvetica,sans-Serif" font-size="10.00">tracktion::engine::</text>
<text text-anchor="middle" x="276" y="-7.5" font-family="Helvetica,sans-Serif" font-size="10.00">WaveNodeRealTime</text>
</a>
</g>
</g>
<!-- Node1&#45;&gt;Node5 -->
<g id="edge4" class="edge">
<title>Node1&#45;&gt;Node5</title>
<path fill="none" stroke="midnightblue" d="M139.47,-69.57C169.88,-57.44 208.8,-41.91 237.13,-30.61"/>
<polygon fill="midnightblue" stroke="midnightblue" points="137.91,-66.42 129.92,-73.37 140.5,-72.92 137.91,-66.42"/>
</g>
</g>
</svg>
