<?xml version="1.0" encoding="UTF-8" standalone="no"?>
<!DOCTYPE svg PUBLIC "-//W3C//DTD SVG 1.1//EN"
 "http://www.w3.org/Graphics/SVG/1.1/DTD/svg11.dtd">
<!-- Generated by graphviz version 2.43.0 (0)
 -->
<!-- Title: tracktion::graph::Node Pages: 1 -->
<svg width="523pt" height="2152pt"
 viewBox="0.00 0.00 523.00 2151.50" xmlns="http://www.w3.org/2000/svg" xmlns:xlink="http://www.w3.org/1999/xlink">
<g id="graph0" class="graph" transform="scale(1 1) rotate(0) translate(4 2147.5)">
<title>tracktion::graph::Node</title>
<!-- Node1 -->
<g id="node1" class="node">
<title>Node1</title>
<g id="a_node1"><a xlink:title="Main graph Node processor class.">
<polygon fill="#bfbfbf" stroke="black" points="0,-991.5 0,-1010.5 125,-1010.5 125,-991.5 0,-991.5"/>
<text text-anchor="middle" x="62.5" y="-998.5" font-family="Helvetica,sans-Serif" font-size="10.00">tracktion::graph::Node</text>
</a>
</g>
</g>
<!-- Node2 -->
<g id="node2" class="node">
<title>Node2</title>
<g id="a_node2"><a xlink:href="classtracktion_1_1engine_1_1ArrangerLauncherSwitchingNode.html" target="_top" xlink:title="A Node that switches between two of its inputs based on a flag.">
<polygon fill="none" stroke="black" points="179.5,-2113 179.5,-2143 355.5,-2143 355.5,-2113 179.5,-2113"/>
<text text-anchor="start" x="187.5" y="-2131" font-family="Helvetica,sans-Serif" font-size="10.00">tracktion::engine::</text>
<text text-anchor="middle" x="267.5" y="-2120" font-family="Helvetica,sans-Serif" font-size="10.00">ArrangerLauncherSwitchingNode</text>
</a>
</g>
</g>
<!-- Node1&#45;&gt;Node2 -->
<g id="edge1" class="edge">
<title>Node1&#45;&gt;Node2</title>
<path fill="none" stroke="midnightblue" d="M63.87,-1020.96C66.71,-1163.11 86.84,-2019.04 161,-2104 166.19,-2109.94 172.51,-2114.58 179.46,-2118.19"/>
<polygon fill="midnightblue" stroke="midnightblue" points="67.37,-1020.62 63.67,-1010.69 60.37,-1020.76 67.37,-1020.62"/>
</g>
<!-- Node3 -->
<g id="node3" class="node">
<title>Node3</title>
<g id="a_node3"><a xlink:href="classtracktion_1_1engine_1_1ClickNode.html" target="_top" xlink:title="Adds audio and MIDI clicks to the input buffers.">
<polygon fill="none" stroke="black" points="215,-2064 215,-2094 320,-2094 320,-2064 215,-2064"/>
<text text-anchor="start" x="223" y="-2082" font-family="Helvetica,sans-Serif" font-size="10.00">tracktion::engine::</text>
<text text-anchor="middle" x="267.5" y="-2071" font-family="Helvetica,sans-Serif" font-size="10.00">ClickNode</text>
</a>
</g>
</g>
<!-- Node1&#45;&gt;Node3 -->
<g id="edge2" class="edge">
<title>Node1&#45;&gt;Node3</title>
<path fill="none" stroke="midnightblue" d="M63.96,-1020.91C67.32,-1159.26 90.09,-1974.09 161,-2055 174.37,-2070.26 195.24,-2076.91 214.9,-2079.51"/>
<polygon fill="midnightblue" stroke="midnightblue" points="67.45,-1020.49 63.71,-1010.57 60.45,-1020.65 67.45,-1020.49"/>
</g>
<!-- Node4 -->
<g id="node4" class="node">
<title>Node4</title>
<g id="a_node4"><a xlink:href="classtracktion_1_1engine_1_1CombiningNode.html" target="_top" xlink:title="An Node that mixes a sequence of clips of other nodes.">
<polygon fill="none" stroke="black" points="215,-2015 215,-2045 320,-2045 320,-2015 215,-2015"/>
<text text-anchor="start" x="223" y="-2033" font-family="Helvetica,sans-Serif" font-size="10.00">tracktion::engine::</text>
<text text-anchor="middle" x="267.5" y="-2022" font-family="Helvetica,sans-Serif" font-size="10.00">CombiningNode</text>
</a>
</g>
</g>
<!-- Node1&#45;&gt;Node4 -->
<g id="edge3" class="edge">
<title>Node1&#45;&gt;Node4</title>
<path fill="none" stroke="midnightblue" d="M64.05,-1020.82C67.96,-1155.14 93.32,-1929.13 161,-2006 174.41,-2021.23 195.28,-2027.88 214.93,-2030.48"/>
<polygon fill="midnightblue" stroke="midnightblue" points="67.55,-1020.63 63.76,-1010.74 60.55,-1020.83 67.55,-1020.63"/>
</g>
<!-- Node5 -->
<g id="node5" class="node">
<title>Node5</title>
<g id="a_node5"><a xlink:href="classtracktion_1_1engine_1_1ContainerClipNode.html" target="_top" xlink:title=" ">
<polygon fill="none" stroke="black" points="213.5,-1966 213.5,-1996 321.5,-1996 321.5,-1966 213.5,-1966"/>
<text text-anchor="start" x="221.5" y="-1984" font-family="Helvetica,sans-Serif" font-size="10.00">tracktion::engine::</text>
<text text-anchor="middle" x="267.5" y="-1973" font-family="Helvetica,sans-Serif" font-size="10.00">ContainerClipNode</text>
</a>
</g>
</g>
<!-- Node1&#45;&gt;Node5 -->
<g id="edge4" class="edge">
<title>Node1&#45;&gt;Node5</title>
<path fill="none" stroke="midnightblue" d="M64.15,-1020.65C68.61,-1150.66 96.54,-1884.15 161,-1957 174.07,-1971.77 194.17,-1978.46 213.33,-1981.22"/>
<polygon fill="midnightblue" stroke="midnightblue" points="67.64,-1020.43 63.81,-1010.56 60.65,-1020.67 67.64,-1020.43"/>
</g>
<!-- Node6 -->
<g id="node6" class="node">
<title>Node6</title>
<g id="a_node6"><a xlink:href="classtracktion_1_1engine_1_1DynamicOffsetNode.html" target="_top" xlink:title=" ">
<polygon fill="none" stroke="black" points="210,-1917 210,-1947 325,-1947 325,-1917 210,-1917"/>
<text text-anchor="start" x="218" y="-1935" font-family="Helvetica,sans-Serif" font-size="10.00">tracktion::engine::</text>
<text text-anchor="middle" x="267.5" y="-1924" font-family="Helvetica,sans-Serif" font-size="10.00">DynamicOffsetNode</text>
</a>
</g>
</g>
<!-- Node1&#45;&gt;Node6 -->
<g id="edge5" class="edge">
<title>Node1&#45;&gt;Node6</title>
<path fill="none" stroke="midnightblue" d="M64.27,-1020.8C69.35,-1147.3 99.81,-1839.23 161,-1908 173.3,-1921.82 191.75,-1928.56 209.8,-1931.62"/>
<polygon fill="midnightblue" stroke="midnightblue" points="67.76,-1020.5 63.87,-1010.64 60.76,-1020.77 67.76,-1020.5"/>
</g>
<!-- Node7 -->
<g id="node7" class="node">
<title>Node7</title>
<g id="a_node7"><a xlink:href="classtracktion_1_1engine_1_1HostedMidiInputDeviceNode.html" target="_top" xlink:title="A Node that intercepts MIDI from a plugin callback and inserts it in to the playback graph.">
<polygon fill="none" stroke="black" points="189.5,-1868 189.5,-1898 345.5,-1898 345.5,-1868 189.5,-1868"/>
<text text-anchor="start" x="197.5" y="-1886" font-family="Helvetica,sans-Serif" font-size="10.00">tracktion::engine::</text>
<text text-anchor="middle" x="267.5" y="-1875" font-family="Helvetica,sans-Serif" font-size="10.00">HostedMidiInputDeviceNode</text>
</a>
</g>
</g>
<!-- Node1&#45;&gt;Node7 -->
<g id="edge6" class="edge">
<title>Node1&#45;&gt;Node7</title>
<path fill="none" stroke="midnightblue" d="M64.4,-1020.86C70.11,-1143.46 103.06,-1794.28 161,-1859 168.64,-1867.54 178.63,-1873.37 189.42,-1877.3"/>
<polygon fill="midnightblue" stroke="midnightblue" points="67.89,-1020.51 63.93,-1010.68 60.89,-1020.83 67.89,-1020.51"/>
</g>
<!-- Node8 -->
<g id="node8" class="node">
<title>Node8</title>
<g id="a_node8"><a xlink:href="classtracktion_1_1engine_1_1InsertNode.html" target="_top" xlink:title=" ">
<polygon fill="none" stroke="black" points="215,-1819 215,-1849 320,-1849 320,-1819 215,-1819"/>
<text text-anchor="start" x="223" y="-1837" font-family="Helvetica,sans-Serif" font-size="10.00">tracktion::engine::</text>
<text text-anchor="middle" x="267.5" y="-1826" font-family="Helvetica,sans-Serif" font-size="10.00">InsertNode</text>
</a>
</g>
</g>
<!-- Node1&#45;&gt;Node8 -->
<g id="edge7" class="edge">
<title>Node1&#45;&gt;Node8</title>
<path fill="none" stroke="midnightblue" d="M64.54,-1020.82C70.91,-1139.14 106.29,-1749.3 161,-1810 174.52,-1825 195.29,-1831.63 214.83,-1834.28"/>
<polygon fill="midnightblue" stroke="midnightblue" points="68.02,-1020.47 64,-1010.67 61.03,-1020.84 68.02,-1020.47"/>
</g>
<!-- Node9 -->
<g id="node9" class="node">
<title>Node9</title>
<g id="a_node9"><a xlink:href="classtracktion_1_1engine_1_1InsertSendNode.html" target="_top" xlink:title="The send node picks up audio/MIDI data from the InsertPlugin and then its output will be sent to the ...">
<polygon fill="none" stroke="black" points="215,-1770 215,-1800 320,-1800 320,-1770 215,-1770"/>
<text text-anchor="start" x="223" y="-1788" font-family="Helvetica,sans-Serif" font-size="10.00">tracktion::engine::</text>
<text text-anchor="middle" x="267.5" y="-1777" font-family="Helvetica,sans-Serif" font-size="10.00">InsertSendNode</text>
</a>
</g>
</g>
<!-- Node1&#45;&gt;Node9 -->
<g id="edge8" class="edge">
<title>Node1&#45;&gt;Node9</title>
<path fill="none" stroke="midnightblue" d="M63.11,-1020.6C61.38,-1128.39 58.53,-1648.18 161,-1761 174.58,-1775.95 195.35,-1782.57 214.89,-1785.23"/>
<polygon fill="midnightblue" stroke="midnightblue" points="66.61,-1020.56 63.29,-1010.5 59.61,-1020.44 66.61,-1020.56"/>
</g>
<!-- Node10 -->
<g id="node10" class="node">
<title>Node10</title>
<g id="a_node10"><a xlink:href="classtracktion_1_1engine_1_1LevelMeasurerProcessingNode.html" target="_top" xlink:title="A Node that introduces latency to balance the latency at the root Node and its position in the graph.">
<polygon fill="none" stroke="black" points="184,-1721 184,-1751 351,-1751 351,-1721 184,-1721"/>
<text text-anchor="start" x="192" y="-1739" font-family="Helvetica,sans-Serif" font-size="10.00">tracktion::engine::</text>
<text text-anchor="middle" x="267.5" y="-1728" font-family="Helvetica,sans-Serif" font-size="10.00">LevelMeasurerProcessingNode</text>
</a>
</g>
</g>
<!-- Node1&#45;&gt;Node10 -->
<g id="edge9" class="edge">
<title>Node1&#45;&gt;Node10</title>
<path fill="none" stroke="midnightblue" d="M63.3,-1020.96C62.67,-1125.31 65.07,-1607.29 161,-1712 167.34,-1718.92 175.24,-1724.06 183.83,-1727.84"/>
<polygon fill="midnightblue" stroke="midnightblue" points="66.8,-1020.88 63.38,-1010.86 59.8,-1020.83 66.8,-1020.88"/>
</g>
<!-- Node11 -->
<g id="node11" class="node">
<title>Node11</title>
<g id="a_node11"><a xlink:href="classtracktion_1_1engine_1_1LevelMeasuringNode.html" target="_top" xlink:title="A Node that passes its incoming audio and MIDI through a LevelMeasurer.">
<polygon fill="none" stroke="black" points="208,-1672 208,-1702 327,-1702 327,-1672 208,-1672"/>
<text text-anchor="start" x="216" y="-1690" font-family="Helvetica,sans-Serif" font-size="10.00">tracktion::engine::</text>
<text text-anchor="middle" x="267.5" y="-1679" font-family="Helvetica,sans-Serif" font-size="10.00">LevelMeasuringNode</text>
</a>
</g>
</g>
<!-- Node1&#45;&gt;Node11 -->
<g id="edge10" class="edge">
<title>Node1&#45;&gt;Node11</title>
<path fill="none" stroke="midnightblue" d="M63.52,-1020.82C64.05,-1120.52 71.44,-1566.22 161,-1663 173.06,-1676.03 190.59,-1682.71 207.91,-1685.95"/>
<polygon fill="midnightblue" stroke="midnightblue" points="67.02,-1020.64 63.49,-1010.65 60.02,-1020.66 67.02,-1020.64"/>
</g>
<!-- Node12 -->
<g id="node12" class="node">
<title>Node12</title>
<g id="a_node12"><a xlink:href="classtracktion_1_1engine_1_1LiveMidiInjectingNode.html" target="_top" xlink:title="A Node that injects MIDI message in to the stream, for keyboard key entry, note previews and MIDI ste...">
<polygon fill="none" stroke="black" points="205,-1623 205,-1653 330,-1653 330,-1623 205,-1623"/>
<text text-anchor="start" x="213" y="-1641" font-family="Helvetica,sans-Serif" font-size="10.00">tracktion::engine::</text>
<text text-anchor="middle" x="267.5" y="-1630" font-family="Helvetica,sans-Serif" font-size="10.00">LiveMidiInjectingNode</text>
</a>
</g>
</g>
<!-- Node1&#45;&gt;Node12 -->
<g id="edge11" class="edge">
<title>Node1&#45;&gt;Node12</title>
<path fill="none" stroke="midnightblue" d="M63.78,-1020.85C65.53,-1116.07 77.85,-1525.17 161,-1614 172.43,-1626.2 188.66,-1632.82 204.97,-1636.27"/>
<polygon fill="midnightblue" stroke="midnightblue" points="67.28,-1020.77 63.61,-1010.83 60.28,-1020.89 67.28,-1020.77"/>
</g>
<!-- Node13 -->
<g id="node13" class="node">
<title>Node13</title>
<g id="a_node13"><a xlink:href="classtracktion_1_1engine_1_1LiveMidiOutputNode.html" target="_top" xlink:title="A Node that calls the listeners of an AudioTrack with any incoming MIDI.">
<polygon fill="none" stroke="black" points="209.5,-1574 209.5,-1604 325.5,-1604 325.5,-1574 209.5,-1574"/>
<text text-anchor="start" x="217.5" y="-1592" font-family="Helvetica,sans-Serif" font-size="10.00">tracktion::engine::</text>
<text text-anchor="middle" x="267.5" y="-1581" font-family="Helvetica,sans-Serif" font-size="10.00">LiveMidiOutputNode</text>
</a>
</g>
</g>
<!-- Node1&#45;&gt;Node13 -->
<g id="edge12" class="edge">
<title>Node1&#45;&gt;Node13</title>
<path fill="none" stroke="midnightblue" d="M64.08,-1020.96C67.14,-1111.67 84.26,-1484.12 161,-1565 173.54,-1578.22 191.73,-1584.86 209.48,-1588.02"/>
<polygon fill="midnightblue" stroke="midnightblue" points="67.58,-1020.8 63.76,-1010.91 60.58,-1021.02 67.58,-1020.8"/>
</g>
<!-- Node14 -->
<g id="node14" class="node">
<title>Node14</title>
<g id="a_node14"><a xlink:href="classtracktion_1_1engine_1_1LoopingMidiNode.html" target="_top" xlink:title="A Node that plays MIDI data from a MidiMessageSequence, at a specific MIDI channel.">
<polygon fill="none" stroke="black" points="215,-1525 215,-1555 320,-1555 320,-1525 215,-1525"/>
<text text-anchor="start" x="223" y="-1543" font-family="Helvetica,sans-Serif" font-size="10.00">tracktion::engine::</text>
<text text-anchor="middle" x="267.5" y="-1532" font-family="Helvetica,sans-Serif" font-size="10.00">LoopingMidiNode</text>
</a>
</g>
</g>
<!-- Node1&#45;&gt;Node14 -->
<g id="edge13" class="edge">
<title>Node1&#45;&gt;Node14</title>
<path fill="none" stroke="midnightblue" d="M64.45,-1021.1C68.91,-1107.11 90.65,-1443.03 161,-1516 174.88,-1530.4 195.48,-1536.97 214.79,-1539.74"/>
<polygon fill="midnightblue" stroke="midnightblue" points="67.93,-1020.69 63.94,-1010.88 60.94,-1021.04 67.93,-1020.69"/>
</g>
<!-- Node15 -->
<g id="node15" class="node">
<title>Node15</title>
<g id="a_node15"><a xlink:href="classtracktion_1_1engine_1_1MelodyneNode.html" target="_top" xlink:title="Plays back a Melodyne plugin.">
<polygon fill="none" stroke="black" points="215,-1476 215,-1506 320,-1506 320,-1476 215,-1476"/>
<text text-anchor="start" x="223" y="-1494" font-family="Helvetica,sans-Serif" font-size="10.00">tracktion::engine::</text>
<text text-anchor="middle" x="267.5" y="-1483" font-family="Helvetica,sans-Serif" font-size="10.00">MelodyneNode</text>
</a>
</g>
</g>
<!-- Node1&#45;&gt;Node15 -->
<g id="edge14" class="edge">
<title>Node1&#45;&gt;Node15</title>
<path fill="none" stroke="midnightblue" d="M64.87,-1020.96C70.8,-1101.56 96.95,-1401.82 161,-1467 175.02,-1481.27 195.64,-1487.82 214.93,-1490.6"/>
<polygon fill="midnightblue" stroke="midnightblue" points="68.34,-1020.44 64.14,-1010.72 61.36,-1020.94 68.34,-1020.44"/>
</g>
<!-- Node16 -->
<g id="node16" class="node">
<title>Node16</title>
<g id="a_node16"><a xlink:href="classtracktion_1_1engine_1_1MidiInputDeviceNode.html" target="_top" xlink:title="A Node that intercepts incoming live MIDI and inserts it in to the playback graph.">
<polygon fill="none" stroke="black" points="206.5,-1427 206.5,-1457 328.5,-1457 328.5,-1427 206.5,-1427"/>
<text text-anchor="start" x="214.5" y="-1445" font-family="Helvetica,sans-Serif" font-size="10.00">tracktion::engine::</text>
<text text-anchor="middle" x="267.5" y="-1434" font-family="Helvetica,sans-Serif" font-size="10.00">MidiInputDeviceNode</text>
</a>
</g>
</g>
<!-- Node1&#45;&gt;Node16 -->
<g id="edge15" class="edge">
<title>Node1&#45;&gt;Node16</title>
<path fill="none" stroke="midnightblue" d="M65.38,-1020.77C72.89,-1095.65 103.2,-1360.54 161,-1418 173.06,-1429.98 189.77,-1436.49 206.35,-1439.9"/>
<polygon fill="midnightblue" stroke="midnightblue" points="68.86,-1020.4 64.4,-1010.79 61.89,-1021.08 68.86,-1020.4"/>
</g>
<!-- Node17 -->
<g id="node17" class="node">
<title>Node17</title>
<g id="a_node17"><a xlink:href="classtracktion_1_1engine_1_1MidiNode.html" target="_top" xlink:title="A Node that plays MIDI data from a MidiMessageSequence, at a specific MIDI channel.">
<polygon fill="none" stroke="black" points="215,-1378 215,-1408 320,-1408 320,-1378 215,-1378"/>
<text text-anchor="start" x="223" y="-1396" font-family="Helvetica,sans-Serif" font-size="10.00">tracktion::engine::</text>
<text text-anchor="middle" x="267.5" y="-1385" font-family="Helvetica,sans-Serif" font-size="10.00">MidiNode</text>
</a>
</g>
</g>
<!-- Node1&#45;&gt;Node17 -->
<g id="edge16" class="edge">
<title>Node1&#45;&gt;Node17</title>
<path fill="none" stroke="midnightblue" d="M66.02,-1020.62C75.25,-1089.57 109.42,-1319.21 161,-1369 175.26,-1382.76 195.68,-1389.26 214.77,-1392.14"/>
<polygon fill="midnightblue" stroke="midnightblue" points="69.48,-1020.12 64.71,-1010.66 62.54,-1021.03 69.48,-1020.12"/>
</g>
<!-- Node18 -->
<g id="node18" class="node">
<title>Node18</title>
<g id="a_node18"><a xlink:href="classtracktion_1_1engine_1_1MidiOutputDeviceInstanceInjectingNode.html" target="_top" xlink:title="A Node that injects the MIDI buffer of its input to the MidiOutputDevice.">
<polygon fill="none" stroke="black" points="161,-1329 161,-1359 374,-1359 374,-1329 161,-1329"/>
<text text-anchor="start" x="169" y="-1347" font-family="Helvetica,sans-Serif" font-size="10.00">tracktion::engine::</text>
<text text-anchor="middle" x="267.5" y="-1336" font-family="Helvetica,sans-Serif" font-size="10.00">MidiOutputDeviceInstanceInjectingNode</text>
</a>
</g>
</g>
<!-- Node1&#45;&gt;Node18 -->
<g id="edge17" class="edge">
<title>Node1&#45;&gt;Node18</title>
<path fill="none" stroke="midnightblue" d="M63.19,-1020.88C63.45,-1076.93 72.3,-1237.54 161,-1320 164.58,-1323.33 168.52,-1326.22 172.71,-1328.74"/>
<polygon fill="midnightblue" stroke="midnightblue" points="66.69,-1020.58 63.24,-1010.57 59.69,-1020.55 66.69,-1020.58"/>
</g>
<!-- Node19 -->
<g id="node19" class="node">
<title>Node19</title>
<g id="a_node19"><a xlink:href="classtracktion_1_1engine_1_1ModifierNode.html" target="_top" xlink:title="Node for processing a Modifier.">
<polygon fill="none" stroke="black" points="215,-1280 215,-1310 320,-1310 320,-1280 215,-1280"/>
<text text-anchor="start" x="223" y="-1298" font-family="Helvetica,sans-Serif" font-size="10.00">tracktion::engine::</text>
<text text-anchor="middle" x="267.5" y="-1287" font-family="Helvetica,sans-Serif" font-size="10.00">ModifierNode</text>
</a>
</g>
</g>
<!-- Node1&#45;&gt;Node19 -->
<g id="edge18" class="edge">
<title>Node1&#45;&gt;Node19</title>
<path fill="none" stroke="midnightblue" d="M64.45,-1020.8C67.98,-1070.86 84.45,-1203.32 161,-1271 175.71,-1284 195.99,-1290.39 214.84,-1293.39"/>
<polygon fill="midnightblue" stroke="midnightblue" points="67.94,-1020.44 63.84,-1010.67 60.95,-1020.86 67.94,-1020.44"/>
</g>
<!-- Node20 -->
<g id="node20" class="node">
<title>Node20</title>
<g id="a_node20"><a xlink:href="classtracktion_1_1engine_1_1PlayHeadPositionNode.html" target="_top" xlink:title="A Node that calculates a position to show visually what time is currently being processed by the grap...">
<polygon fill="none" stroke="black" points="203.5,-1231 203.5,-1261 331.5,-1261 331.5,-1231 203.5,-1231"/>
<text text-anchor="start" x="211.5" y="-1249" font-family="Helvetica,sans-Serif" font-size="10.00">tracktion::engine::</text>
<text text-anchor="middle" x="267.5" y="-1238" font-family="Helvetica,sans-Serif" font-size="10.00">PlayHeadPositionNode</text>
</a>
</g>
</g>
<!-- Node1&#45;&gt;Node20 -->
<g id="edge19" class="edge">
<title>Node1&#45;&gt;Node20</title>
<path fill="none" stroke="midnightblue" d="M66.21,-1020.69C73.27,-1064.16 96.41,-1168.75 161,-1222 172.96,-1231.86 188.16,-1237.85 203.28,-1241.46"/>
<polygon fill="midnightblue" stroke="midnightblue" points="69.67,-1020.16 64.71,-1010.79 62.74,-1021.2 69.67,-1020.16"/>
</g>
<!-- Node21 -->
<g id="node21" class="node">
<title>Node21</title>
<g id="a_node21"><a xlink:href="classtracktion_1_1engine_1_1PluginNode.html" target="_top" xlink:title="Node for processing a plugin.">
<polygon fill="none" stroke="black" points="215,-1182 215,-1212 320,-1212 320,-1182 215,-1182"/>
<text text-anchor="start" x="223" y="-1200" font-family="Helvetica,sans-Serif" font-size="10.00">tracktion::engine::</text>
<text text-anchor="middle" x="267.5" y="-1189" font-family="Helvetica,sans-Serif" font-size="10.00">PluginNode</text>
</a>
</g>
</g>
<!-- Node1&#45;&gt;Node21 -->
<g id="edge20" class="edge">
<title>Node1&#45;&gt;Node21</title>
<path fill="none" stroke="midnightblue" d="M68.8,-1020.43C79.68,-1056.49 108.08,-1133.65 161,-1173 176.45,-1184.49 196.44,-1190.62 214.86,-1193.85"/>
<polygon fill="midnightblue" stroke="midnightblue" points="72.11,-1019.29 65.98,-1010.65 65.38,-1021.23 72.11,-1019.29"/>
</g>
<!-- Node22 -->
<g id="node22" class="node">
<title>Node22</title>
<g id="a_node22"><a xlink:href="classtracktion_1_1engine_1_1RackInstanceNode.html" target="_top" xlink:title="Sends an input Node to a Rack bus handling the channel mapping and channel gain levels.">
<polygon fill="none" stroke="black" points="214,-1133 214,-1163 321,-1163 321,-1133 214,-1133"/>
<text text-anchor="start" x="222" y="-1151" font-family="Helvetica,sans-Serif" font-size="10.00">tracktion::engine::</text>
<text text-anchor="middle" x="267.5" y="-1140" font-family="Helvetica,sans-Serif" font-size="10.00">RackInstanceNode</text>
</a>
</g>
</g>
<!-- Node1&#45;&gt;Node22 -->
<g id="edge21" class="edge">
<title>Node1&#45;&gt;Node22</title>
<path fill="none" stroke="midnightblue" d="M73.01,-1019.81C87.88,-1047.22 119.31,-1097.74 161,-1124 176.73,-1133.91 196.08,-1139.75 213.88,-1143.17"/>
<polygon fill="midnightblue" stroke="midnightblue" points="76.04,-1018.06 68.29,-1010.84 69.85,-1021.32 76.04,-1018.06"/>
</g>
<!-- Node23 -->
<g id="node23" class="node">
<title>Node23</title>
<g id="a_node23"><a xlink:href="classtracktion_1_1engine_1_1RackReturnNode.html" target="_top" xlink:title="Sends an input Node to a Rack bus handling the channel mapping and channel gain levels.">
<polygon fill="none" stroke="black" points="215,-1084 215,-1114 320,-1114 320,-1084 215,-1084"/>
<text text-anchor="start" x="223" y="-1102" font-family="Helvetica,sans-Serif" font-size="10.00">tracktion::engine::</text>
<text text-anchor="middle" x="267.5" y="-1091" font-family="Helvetica,sans-Serif" font-size="10.00">RackReturnNode</text>
</a>
</g>
</g>
<!-- Node1&#45;&gt;Node23 -->
<g id="edge22" class="edge">
<title>Node1&#45;&gt;Node23</title>
<path fill="none" stroke="midnightblue" d="M80.61,-1017.67C98.98,-1034.63 129.77,-1060.43 161,-1075 177.77,-1082.82 197.25,-1088.18 214.88,-1091.81"/>
<polygon fill="midnightblue" stroke="midnightblue" points="82.76,-1014.88 73.08,-1010.57 77.96,-1019.98 82.76,-1014.88"/>
</g>
<!-- Node24 -->
<g id="node24" class="node">
<title>Node24</title>
<g id="a_node24"><a xlink:href="classtracktion_1_1engine_1_1SharedLevelMeasuringNode.html" target="_top" xlink:title="Applies a SharedLevelMeter to the audio passing through this node.">
<polygon fill="none" stroke="black" points="191,-1035 191,-1065 344,-1065 344,-1035 191,-1035"/>
<text text-anchor="start" x="199" y="-1053" font-family="Helvetica,sans-Serif" font-size="10.00">tracktion::engine::</text>
<text text-anchor="middle" x="267.5" y="-1042" font-family="Helvetica,sans-Serif" font-size="10.00">SharedLevelMeasuringNode</text>
</a>
</g>
</g>
<!-- Node1&#45;&gt;Node24 -->
<g id="edge23" class="edge">
<title>Node1&#45;&gt;Node24</title>
<path fill="none" stroke="midnightblue" d="M109.78,-1013.14C125.96,-1017.31 144.26,-1021.95 161,-1026 173.32,-1028.98 186.48,-1032.06 199.18,-1034.97"/>
<polygon fill="midnightblue" stroke="midnightblue" points="110.58,-1009.73 100.02,-1010.62 108.82,-1016.51 110.58,-1009.73"/>
</g>
<!-- Node25 -->
<g id="node25" class="node">
<title>Node25</title>
<g id="a_node25"><a xlink:href="classtracktion_1_1engine_1_1SlotControlNode.html" target="_top" xlink:title=" ">
<polygon fill="none" stroke="black" points="215,-986 215,-1016 320,-1016 320,-986 215,-986"/>
<text text-anchor="start" x="223" y="-1004" font-family="Helvetica,sans-Serif" font-size="10.00">tracktion::engine::</text>
<text text-anchor="middle" x="267.5" y="-993" font-family="Helvetica,sans-Serif" font-size="10.00">SlotControlNode</text>
</a>
</g>
</g>
<!-- Node1&#45;&gt;Node25 -->
<g id="edge24" class="edge">
<title>Node1&#45;&gt;Node25</title>
<path fill="none" stroke="midnightblue" d="M135.51,-1001C161.75,-1001 190.86,-1001 214.97,-1001"/>
<polygon fill="midnightblue" stroke="midnightblue" points="135.23,-997.5 125.23,-1001 135.23,-1004.5 135.23,-997.5"/>
</g>
<!-- Node26 -->
<g id="node26" class="node">
<title>Node26</title>
<g id="a_node26"><a xlink:href="classtracktion_1_1engine_1_1SpeedRampWaveNode.html" target="_top" xlink:title="An Node that plays back a wave file.">
<polygon fill="none" stroke="black" points="203.5,-937 203.5,-967 331.5,-967 331.5,-937 203.5,-937"/>
<text text-anchor="start" x="211.5" y="-955" font-family="Helvetica,sans-Serif" font-size="10.00">tracktion::engine::</text>
<text text-anchor="middle" x="267.5" y="-944" font-family="Helvetica,sans-Serif" font-size="10.00">SpeedRampWaveNode</text>
</a>
</g>
</g>
<!-- Node1&#45;&gt;Node26 -->
<g id="edge25" class="edge">
<title>Node1&#45;&gt;Node26</title>
<path fill="none" stroke="midnightblue" d="M111.91,-988.99C127.57,-985.14 145.01,-980.86 161,-977 174.72,-973.69 189.46,-970.17 203.44,-966.85"/>
<polygon fill="midnightblue" stroke="midnightblue" points="110.79,-985.67 101.92,-991.46 112.46,-992.46 110.79,-985.67"/>
</g>
<!-- Node27 -->
<g id="node27" class="node">
<title>Node27</title>
<g id="a_node27"><a xlink:href="classtracktion_1_1engine_1_1TimeStretchingWaveNode.html" target="_top" xlink:title="Node that reads from a file node and timestretches its output.">
<polygon fill="none" stroke="black" points="196,-888 196,-918 339,-918 339,-888 196,-888"/>
<text text-anchor="start" x="204" y="-906" font-family="Helvetica,sans-Serif" font-size="10.00">tracktion::engine::</text>
<text text-anchor="middle" x="267.5" y="-895" font-family="Helvetica,sans-Serif" font-size="10.00">TimeStretchingWaveNode</text>
</a>
</g>
</g>
<!-- Node1&#45;&gt;Node27 -->
<g id="edge26" class="edge">
<title>Node1&#45;&gt;Node27</title>
<path fill="none" stroke="midnightblue" d="M80.97,-984.36C99.44,-967.68 130.11,-942.46 161,-928 171.91,-922.89 183.96,-918.78 195.9,-915.48"/>
<polygon fill="midnightblue" stroke="midnightblue" points="78.37,-982 73.39,-991.35 83.12,-987.14 78.37,-982"/>
</g>
<!-- Node28 -->
<g id="node28" class="node">
<title>Node28</title>
<g id="a_node28"><a xlink:href="classtracktion_1_1engine_1_1TimedMutingNode.html" target="_top" xlink:title="A Node that mutes its input at specific time ranges.">
<polygon fill="none" stroke="black" points="214,-839 214,-869 321,-869 321,-839 214,-839"/>
<text text-anchor="start" x="222" y="-857" font-family="Helvetica,sans-Serif" font-size="10.00">tracktion::engine::</text>
<text text-anchor="middle" x="267.5" y="-846" font-family="Helvetica,sans-Serif" font-size="10.00">TimedMutingNode</text>
</a>
</g>
</g>
<!-- Node1&#45;&gt;Node28 -->
<g id="edge27" class="edge">
<title>Node1&#45;&gt;Node28</title>
<path fill="none" stroke="midnightblue" d="M73.08,-982.39C88.04,-955.26 119.59,-905.23 161,-879 176.74,-869.03 196.09,-863.03 213.89,-859.42"/>
<polygon fill="midnightblue" stroke="midnightblue" points="69.96,-980.8 68.33,-991.26 76.13,-984.1 69.96,-980.8"/>
</g>
<!-- Node29 -->
<g id="node29" class="node">
<title>Node29</title>
<g id="a_node29"><a xlink:href="classtracktion_1_1engine_1_1TrackMidiInputDeviceNode.html" target="_top" xlink:title="A Node that takes MIDI from the output of a track and sends it to its corresponding InputDevice.">
<polygon fill="none" stroke="black" points="194,-790 194,-820 341,-820 341,-790 194,-790"/>
<text text-anchor="start" x="202" y="-808" font-family="Helvetica,sans-Serif" font-size="10.00">tracktion::engine::</text>
<text text-anchor="middle" x="267.5" y="-797" font-family="Helvetica,sans-Serif" font-size="10.00">TrackMidiInputDeviceNode</text>
</a>
</g>
</g>
<!-- Node1&#45;&gt;Node29 -->
<g id="edge28" class="edge">
<title>Node1&#45;&gt;Node29</title>
<path fill="none" stroke="midnightblue" d="M68.86,-981.72C79.86,-945.95 108.44,-869.35 161,-830 170.64,-822.78 182.06,-817.61 193.76,-813.91"/>
<polygon fill="midnightblue" stroke="midnightblue" points="65.47,-980.85 66.01,-991.43 72.19,-982.82 65.47,-980.85"/>
</g>
<!-- Node30 -->
<g id="node30" class="node">
<title>Node30</title>
<g id="a_node30"><a xlink:href="classtracktion_1_1engine_1_1TrackMutingNode.html" target="_top" xlink:title="A Node that handles muting/soloing of its input node, according to the audibility of a track.">
<polygon fill="none" stroke="black" points="215,-741 215,-771 320,-771 320,-741 215,-741"/>
<text text-anchor="start" x="223" y="-759" font-family="Helvetica,sans-Serif" font-size="10.00">tracktion::engine::</text>
<text text-anchor="middle" x="267.5" y="-748" font-family="Helvetica,sans-Serif" font-size="10.00">TrackMutingNode</text>
</a>
</g>
</g>
<!-- Node1&#45;&gt;Node30 -->
<g id="edge29" class="edge">
<title>Node1&#45;&gt;Node30</title>
<path fill="none" stroke="midnightblue" d="M66.32,-981.17C73.56,-937.8 96.98,-834.17 161,-781 175.99,-768.55 196.1,-762.08 214.74,-758.79"/>
<polygon fill="midnightblue" stroke="midnightblue" points="62.82,-980.85 64.74,-991.27 69.74,-981.93 62.82,-980.85"/>
</g>
<!-- Node31 -->
<g id="node31" class="node">
<title>Node31</title>
<g id="a_node31"><a xlink:href="classtracktion_1_1engine_1_1TrackWaveInputDeviceNode.html" target="_top" xlink:title="A Node that takes audio from the output of a track and sends it to its corresponding InputDevice.">
<polygon fill="none" stroke="black" points="191,-692 191,-722 344,-722 344,-692 191,-692"/>
<text text-anchor="start" x="199" y="-710" font-family="Helvetica,sans-Serif" font-size="10.00">tracktion::engine::</text>
<text text-anchor="middle" x="267.5" y="-699" font-family="Helvetica,sans-Serif" font-size="10.00">TrackWaveInputDeviceNode</text>
</a>
</g>
</g>
<!-- Node1&#45;&gt;Node31 -->
<g id="edge30" class="edge">
<title>Node1&#45;&gt;Node31</title>
<path fill="none" stroke="midnightblue" d="M64.51,-981.31C68.18,-931.53 84.96,-799.76 161,-732 169.5,-724.42 179.88,-719.03 190.77,-715.22"/>
<polygon fill="midnightblue" stroke="midnightblue" points="61.01,-981.18 63.87,-991.39 68,-981.63 61.01,-981.18"/>
</g>
<!-- Node32 -->
<g id="node32" class="node">
<title>Node32</title>
<g id="a_node32"><a xlink:href="classtracktion_1_1engine_1_1WaveInputDeviceNode.html" target="_top" xlink:title="A Node that intercepts incoming live audio and inserts it in to the playback graph.">
<polygon fill="none" stroke="black" points="203.5,-643 203.5,-673 331.5,-673 331.5,-643 203.5,-643"/>
<text text-anchor="start" x="211.5" y="-661" font-family="Helvetica,sans-Serif" font-size="10.00">tracktion::engine::</text>
<text text-anchor="middle" x="267.5" y="-650" font-family="Helvetica,sans-Serif" font-size="10.00">WaveInputDeviceNode</text>
</a>
</g>
</g>
<!-- Node1&#45;&gt;Node32 -->
<g id="edge31" class="edge">
<title>Node1&#45;&gt;Node32</title>
<path fill="none" stroke="midnightblue" d="M63.25,-981.22C63.67,-925.45 72.89,-765.58 161,-683 172.54,-672.19 187.86,-665.78 203.25,-662.05"/>
<polygon fill="midnightblue" stroke="midnightblue" points="59.75,-981.49 63.27,-991.48 66.75,-981.48 59.75,-981.49"/>
</g>
<!-- Node33 -->
<g id="node33" class="node">
<title>Node33</title>
<g id="a_node33"><a xlink:href="classtracktion_1_1engine_1_1WaveNode.html" target="_top" xlink:title="An Node that plays back a wave file.">
<polygon fill="none" stroke="black" points="215,-594 215,-624 320,-624 320,-594 215,-594"/>
<text text-anchor="start" x="223" y="-612" font-family="Helvetica,sans-Serif" font-size="10.00">tracktion::engine::</text>
<text text-anchor="middle" x="267.5" y="-601" font-family="Helvetica,sans-Serif" font-size="10.00">WaveNode</text>
</a>
</g>
</g>
<!-- Node1&#45;&gt;Node33 -->
<g id="edge32" class="edge">
<title>Node1&#45;&gt;Node33</title>
<path fill="none" stroke="midnightblue" d="M66.04,-981.44C75.35,-912.74 109.76,-683.87 161,-634 175.23,-620.15 195.65,-613.47 214.74,-610.4"/>
<polygon fill="midnightblue" stroke="midnightblue" points="62.57,-981 64.72,-991.37 69.51,-981.92 62.57,-981"/>
</g>
<!-- Node34 -->
<g id="node34" class="node">
<title>Node34</title>
<g id="a_node34"><a xlink:href="classtracktion_1_1engine_1_1WaveNodeRealTime.html" target="_top" xlink:title="An Node that plays back a wave file.">
<polygon fill="none" stroke="black" points="209.5,-545 209.5,-575 325.5,-575 325.5,-545 209.5,-545"/>
<text text-anchor="start" x="217.5" y="-563" font-family="Helvetica,sans-Serif" font-size="10.00">tracktion::engine::</text>
<text text-anchor="middle" x="267.5" y="-552" font-family="Helvetica,sans-Serif" font-size="10.00">WaveNodeRealTime</text>
</a>
</g>
</g>
<!-- Node1&#45;&gt;Node34 -->
<g id="edge33" class="edge">
<title>Node1&#45;&gt;Node34</title>
<path fill="none" stroke="midnightblue" d="M65.45,-980.83C73.12,-905.57 103.69,-642.45 161,-585 173.76,-572.21 191.79,-565.49 209.34,-562.1"/>
<polygon fill="midnightblue" stroke="midnightblue" points="61.92,-980.94 64.41,-991.24 68.89,-981.64 61.92,-980.94"/>
</g>
<!-- Node35 -->
<g id="node35" class="node">
<title>Node35</title>
<g id="a_node35"><a xlink:href="classtracktion_1_1graph_1_1BasicSummingNode.html" target="_top" xlink:title=" ">
<polygon fill="none" stroke="black" points="168.5,-506.5 168.5,-525.5 366.5,-525.5 366.5,-506.5 168.5,-506.5"/>
<text text-anchor="middle" x="267.5" y="-513.5" font-family="Helvetica,sans-Serif" font-size="10.00">tracktion::graph::BasicSummingNode</text>
</a>
</g>
</g>
<!-- Node1&#45;&gt;Node35 -->
<g id="edge34" class="edge">
<title>Node1&#45;&gt;Node35</title>
<path fill="none" stroke="midnightblue" d="M64.81,-981.02C70.52,-900.33 95.89,-599.86 161,-536 165.26,-531.82 170.1,-528.38 175.32,-525.55"/>
<polygon fill="midnightblue" stroke="midnightblue" points="61.3,-981.06 64.11,-991.27 68.28,-981.53 61.3,-981.06"/>
</g>
<!-- Node36 -->
<g id="node36" class="node">
<title>Node36</title>
<g id="a_node36"><a xlink:href="classtracktion_1_1graph_1_1ChannelRemappingNode.html" target="_top" xlink:title="Maps channels from one to another.">
<polygon fill="none" stroke="black" points="197.5,-457 197.5,-487 337.5,-487 337.5,-457 197.5,-457"/>
<text text-anchor="start" x="205.5" y="-475" font-family="Helvetica,sans-Serif" font-size="10.00">tracktion::graph::Channel</text>
<text text-anchor="middle" x="267.5" y="-464" font-family="Helvetica,sans-Serif" font-size="10.00">RemappingNode</text>
</a>
</g>
</g>
<!-- Node1&#45;&gt;Node36 -->
<g id="edge35" class="edge">
<title>Node1&#45;&gt;Node36</title>
<path fill="none" stroke="midnightblue" d="M64.53,-981.34C69.33,-897.22 92.28,-568.63 161,-497 170.71,-486.88 183.7,-480.53 197.24,-476.62"/>
<polygon fill="midnightblue" stroke="midnightblue" points="61.03,-981.16 63.98,-991.34 68.02,-981.55 61.03,-981.16"/>
</g>
<!-- Node37 -->
<g id="node37" class="node">
<title>Node37</title>
<g id="a_node37"><a xlink:href="classtracktion_1_1graph_1_1ConnectedNode.html" target="_top" xlink:title="An Node which sums together the multiple inputs adding additional latency to provide a coherent outpu...">
<polygon fill="none" stroke="black" points="179,-418.5 179,-437.5 356,-437.5 356,-418.5 179,-418.5"/>
<text text-anchor="middle" x="267.5" y="-425.5" font-family="Helvetica,sans-Serif" font-size="10.00">tracktion::graph::ConnectedNode</text>
</a>
</g>
</g>
<!-- Node1&#45;&gt;Node37 -->
<g id="edge36" class="edge">
<title>Node1&#45;&gt;Node37</title>
<path fill="none" stroke="midnightblue" d="M64.09,-981.09C67.15,-891.38 84.23,-525.76 161,-448 166.11,-442.83 172.11,-438.76 178.61,-435.6"/>
<polygon fill="midnightblue" stroke="midnightblue" points="60.58,-981.14 63.76,-991.25 67.58,-981.37 60.58,-981.14"/>
</g>
<!-- Node38 -->
<g id="node38" class="node">
<title>Node38</title>
<g id="a_node38"><a xlink:href="classtracktion_1_1graph_1_1ForwardingNode.html" target="_top" xlink:title="Takes a non&#45;owning input node and simply forwards its outputs on.">
<polygon fill="none" stroke="black" points="178,-380.5 178,-399.5 357,-399.5 357,-380.5 178,-380.5"/>
<text text-anchor="middle" x="267.5" y="-387.5" font-family="Helvetica,sans-Serif" font-size="10.00">tracktion::graph::ForwardingNode</text>
</a>
</g>
</g>
<!-- Node1&#45;&gt;Node38 -->
<g id="edge37" class="edge">
<title>Node1&#45;&gt;Node38</title>
<path fill="none" stroke="midnightblue" d="M63.82,-981.18C65.72,-887.79 78.63,-492.61 161,-409 165.83,-404.09 171.47,-400.21 177.58,-397.15"/>
<polygon fill="midnightblue" stroke="midnightblue" points="60.31,-981.4 63.63,-991.46 67.31,-981.53 60.31,-981.4"/>
</g>
<!-- Node39 -->
<g id="node39" class="node">
<title>Node39</title>
<g id="a_node39"><a xlink:href="classtracktion_1_1graph_1_1FunctionNode.html" target="_top" xlink:title=" ">
<polygon fill="none" stroke="black" points="184,-342.5 184,-361.5 351,-361.5 351,-342.5 184,-342.5"/>
<text text-anchor="middle" x="267.5" y="-349.5" font-family="Helvetica,sans-Serif" font-size="10.00">tracktion::graph::FunctionNode</text>
</a>
</g>
</g>
<!-- Node1&#45;&gt;Node39 -->
<g id="edge38" class="edge">
<title>Node1&#45;&gt;Node39</title>
<path fill="none" stroke="midnightblue" d="M63.6,-981.15C64.52,-884.1 73.55,-460.64 161,-371 167.43,-364.41 175.32,-359.65 183.87,-356.27"/>
<polygon fill="midnightblue" stroke="midnightblue" points="60.1,-981.3 63.52,-991.32 67.1,-981.35 60.1,-981.3"/>
</g>
<!-- Node40 -->
<g id="node40" class="node">
<title>Node40</title>
<g id="a_node40"><a xlink:href="classtracktion_1_1graph_1_1GainNode.html" target="_top" xlink:title=" ">
<polygon fill="none" stroke="black" points="193.5,-304.5 193.5,-323.5 341.5,-323.5 341.5,-304.5 193.5,-304.5"/>
<text text-anchor="middle" x="267.5" y="-311.5" font-family="Helvetica,sans-Serif" font-size="10.00">tracktion::graph::GainNode</text>
</a>
</g>
</g>
<!-- Node1&#45;&gt;Node40 -->
<g id="edge39" class="edge">
<title>Node1&#45;&gt;Node40</title>
<path fill="none" stroke="midnightblue" d="M63.41,-980.92C63.38,-879.94 68.51,-428.62 161,-333 169.73,-323.97 181.2,-318.38 193.34,-315.05"/>
<polygon fill="midnightblue" stroke="midnightblue" points="59.91,-981.23 63.43,-991.23 66.91,-981.22 59.91,-981.23"/>
</g>
<!-- Node41 -->
<g id="node41" class="node">
<title>Node41</title>
<g id="a_node41"><a xlink:href="classtracktion_1_1graph_1_1LatencyNode.html" target="_top" xlink:title=" ">
<polygon fill="none" stroke="black" points="185.5,-266.5 185.5,-285.5 349.5,-285.5 349.5,-266.5 185.5,-266.5"/>
<text text-anchor="middle" x="267.5" y="-273.5" font-family="Helvetica,sans-Serif" font-size="10.00">tracktion::graph::LatencyNode</text>
</a>
</g>
</g>
<!-- Node1&#45;&gt;Node41 -->
<g id="edge40" class="edge">
<title>Node1&#45;&gt;Node41</title>
<path fill="none" stroke="midnightblue" d="M63.24,-981.1C62.3,-877.08 63.34,-396.74 161,-295 167.77,-287.95 176.19,-282.99 185.32,-279.57"/>
<polygon fill="midnightblue" stroke="midnightblue" points="59.74,-981.21 63.35,-991.17 66.74,-981.13 59.74,-981.21"/>
</g>
<!-- Node42 -->
<g id="node42" class="node">
<title>Node42</title>
<g id="a_node42"><a xlink:href="classtracktion_1_1graph_1_1MidiNode.html" target="_top" xlink:title="Plays back a MIDI sequence.">
<polygon fill="none" stroke="black" points="194.5,-228.5 194.5,-247.5 340.5,-247.5 340.5,-228.5 194.5,-228.5"/>
<text text-anchor="middle" x="267.5" y="-235.5" font-family="Helvetica,sans-Serif" font-size="10.00">tracktion::graph::MidiNode</text>
</a>
</g>
</g>
<!-- Node1&#45;&gt;Node42 -->
<g id="edge41" class="edge">
<title>Node1&#45;&gt;Node42</title>
<path fill="none" stroke="midnightblue" d="M63.08,-981.06C61.26,-873.63 58.23,-364.81 161,-257 169.92,-247.64 181.78,-241.96 194.31,-238.65"/>
<polygon fill="midnightblue" stroke="midnightblue" points="59.59,-981.23 63.27,-991.16 66.58,-981.1 59.59,-981.23"/>
</g>
<!-- Node43 -->
<g id="node43" class="node">
<title>Node43</title>
<g id="a_node43"><a xlink:href="classtracktion_1_1graph_1_1ReturnNode.html" target="_top" xlink:title=" ">
<polygon fill="none" stroke="black" points="188.5,-190.5 188.5,-209.5 346.5,-209.5 346.5,-190.5 188.5,-190.5"/>
<text text-anchor="middle" x="267.5" y="-197.5" font-family="Helvetica,sans-Serif" font-size="10.00">tracktion::graph::ReturnNode</text>
</a>
</g>
</g>
<!-- Node1&#45;&gt;Node43 -->
<g id="edge42" class="edge">
<title>Node1&#45;&gt;Node43</title>
<path fill="none" stroke="midnightblue" d="M64.59,-981.1C71.13,-864.79 106.76,-276.26 161,-219 168.49,-211.1 178.06,-205.81 188.38,-202.36"/>
<polygon fill="midnightblue" stroke="midnightblue" points="61.08,-981.19 64.02,-991.37 68.07,-981.58 61.08,-981.19"/>
</g>
<!-- Node44 -->
<g id="node44" class="node">
<title>Node44</title>
<g id="a_node44"><a xlink:href="classtracktion_1_1graph_1_1SendNode.html" target="_top" xlink:title=" ">
<polygon fill="none" stroke="black" points="193,-152.5 193,-171.5 342,-171.5 342,-152.5 193,-152.5"/>
<text text-anchor="middle" x="267.5" y="-159.5" font-family="Helvetica,sans-Serif" font-size="10.00">tracktion::graph::SendNode</text>
</a>
</g>
</g>
<!-- Node1&#45;&gt;Node44 -->
<g id="edge43" class="edge">
<title>Node1&#45;&gt;Node44</title>
<path fill="none" stroke="midnightblue" d="M64.46,-981.25C70.44,-862.03 104.16,-241.35 161,-181 169.55,-171.92 180.85,-166.3 192.88,-162.93"/>
<polygon fill="midnightblue" stroke="midnightblue" points="60.95,-981.3 63.96,-991.46 67.95,-981.64 60.95,-981.3"/>
</g>
<!-- Node46 -->
<g id="node46" class="node">
<title>Node46</title>
<g id="a_node46"><a xlink:href="classtracktion_1_1graph_1_1SilentNode.html" target="_top" xlink:title="Just a simple audio node that doesn&#39;t take any input so can be used as a stub.">
<polygon fill="none" stroke="black" points="191,-114.5 191,-133.5 344,-133.5 344,-114.5 191,-114.5"/>
<text text-anchor="middle" x="267.5" y="-121.5" font-family="Helvetica,sans-Serif" font-size="10.00">tracktion::graph::SilentNode</text>
</a>
</g>
</g>
<!-- Node1&#45;&gt;Node46 -->
<g id="edge45" class="edge">
<title>Node1&#45;&gt;Node46</title>
<path fill="none" stroke="midnightblue" d="M64.36,-981.11C69.84,-858.29 101.61,-206.39 161,-143 169.08,-134.38 179.64,-128.86 190.96,-125.44"/>
<polygon fill="midnightblue" stroke="midnightblue" points="60.85,-981.16 63.91,-991.3 67.85,-981.47 60.85,-981.16"/>
</g>
<!-- Node47 -->
<g id="node47" class="node">
<title>Node47</title>
<g id="a_node47"><a xlink:href="classtracktion_1_1graph_1_1SinNode.html" target="_top" xlink:title=" ">
<polygon fill="none" stroke="black" points="197.5,-76.5 197.5,-95.5 337.5,-95.5 337.5,-76.5 197.5,-76.5"/>
<text text-anchor="middle" x="267.5" y="-83.5" font-family="Helvetica,sans-Serif" font-size="10.00">tracktion::graph::SinNode</text>
</a>
</g>
</g>
<!-- Node1&#45;&gt;Node47 -->
<g id="edge46" class="edge">
<title>Node1&#45;&gt;Node47</title>
<path fill="none" stroke="midnightblue" d="M64.25,-981.4C69.19,-856.21 98.97,-171.51 161,-105 170.58,-94.72 183.69,-88.86 197.41,-85.69"/>
<polygon fill="midnightblue" stroke="midnightblue" points="60.75,-981.33 63.86,-991.46 67.74,-981.6 60.75,-981.33"/>
</g>
<!-- Node48 -->
<g id="node48" class="node">
<title>Node48</title>
<g id="a_node48"><a xlink:href="classtracktion_1_1graph_1_1SinkNode.html" target="_top" xlink:title="Blocks audio and MIDI input from reaching the outputs.">
<polygon fill="none" stroke="black" points="194.5,-38.5 194.5,-57.5 340.5,-57.5 340.5,-38.5 194.5,-38.5"/>
<text text-anchor="middle" x="267.5" y="-45.5" font-family="Helvetica,sans-Serif" font-size="10.00">tracktion::graph::SinkNode</text>
</a>
</g>
</g>
<!-- Node1&#45;&gt;Node48 -->
<g id="edge47" class="edge">
<title>Node1&#45;&gt;Node48</title>
<path fill="none" stroke="midnightblue" d="M64.17,-980.98C68.69,-851.58 96.46,-136.52 161,-67 169.86,-57.45 181.77,-51.71 194.39,-48.4"/>
<polygon fill="midnightblue" stroke="midnightblue" points="60.66,-981.24 63.82,-991.35 67.66,-981.48 60.66,-981.24"/>
</g>
<!-- Node49 -->
<g id="node49" class="node">
<title>Node49</title>
<g id="a_node49"><a xlink:href="classtracktion_1_1graph_1_1SummingNode.html" target="_top" xlink:title="An Node which sums together the multiple inputs adding additional latency to provide a coherent outpu...">
<polygon fill="none" stroke="black" points="181.5,-0.5 181.5,-19.5 353.5,-19.5 353.5,-0.5 181.5,-0.5"/>
<text text-anchor="middle" x="267.5" y="-7.5" font-family="Helvetica,sans-Serif" font-size="10.00">tracktion::graph::SummingNode</text>
</a>
</g>
</g>
<!-- Node1&#45;&gt;Node49 -->
<g id="edge48" class="edge">
<title>Node1&#45;&gt;Node49</title>
<path fill="none" stroke="midnightblue" d="M64.08,-980.99C68.13,-848.58 93.87,-101.6 161,-29 166.75,-22.78 173.79,-18.18 181.47,-14.8"/>
<polygon fill="midnightblue" stroke="midnightblue" points="60.58,-981.16 63.78,-991.26 67.57,-981.37 60.58,-981.16"/>
</g>
<!-- Node45 -->
<g id="node45" class="node">
<title>Node45</title>
<g id="a_node45"><a xlink:href="classtracktion_1_1engine_1_1AuxSendNode.html" target="_top" xlink:title="Node for an aux send.">
<polygon fill="none" stroke="black" points="410,-147 410,-177 515,-177 515,-147 410,-147"/>
<text text-anchor="start" x="418" y="-165" font-family="Helvetica,sans-Serif" font-size="10.00">tracktion::engine::</text>
<text text-anchor="middle" x="462.5" y="-154" font-family="Helvetica,sans-Serif" font-size="10.00">AuxSendNode</text>
</a>
</g>
</g>
<!-- Node44&#45;&gt;Node45 -->
<g id="edge44" class="edge">
<title>Node44&#45;&gt;Node45</title>
<path fill="none" stroke="midnightblue" d="M352.17,-162C371.75,-162 392.05,-162 409.77,-162"/>
<polygon fill="midnightblue" stroke="midnightblue" points="352.02,-158.5 342.02,-162 352.02,-165.5 352.02,-158.5"/>
</g>
</g>
</svg>
