<?xml version="1.0" encoding="UTF-8" standalone="no"?>
<!DOCTYPE svg PUBLIC "-//W3C//DTD SVG 1.1//EN"
 "http://www.w3.org/Graphics/SVG/1.1/DTD/svg11.dtd">
<!-- Generated by graphviz version 2.43.0 (0)
 -->
<!-- Title: tracktion::engine::ToneGeneratorPlugin Pages: 1 -->
<svg width="587pt" height="235pt"
 viewBox="0.00 0.00 587.00 235.00" xmlns="http://www.w3.org/2000/svg" xmlns:xlink="http://www.w3.org/1999/xlink">
<g id="graph0" class="graph" transform="scale(1 1) rotate(0) translate(4 231)">
<title>tracktion::engine::ToneGeneratorPlugin</title>
<!-- Node1 -->
<g id="node1" class="node">
<title>Node1</title>
<g id="a_node1"><a xlink:title=" ">
<polygon fill="#bfbfbf" stroke="black" points="461,-98.5 461,-128.5 579,-128.5 579,-98.5 461,-98.5"/>
<text text-anchor="start" x="469" y="-116.5" font-family="Helvetica,sans-Serif" font-size="10.00">tracktion::engine::</text>
<text text-anchor="middle" x="520" y="-105.5" font-family="Helvetica,sans-Serif" font-size="10.00">ToneGeneratorPlugin</text>
</a>
</g>
</g>
<!-- Node2 -->
<g id="node2" class="node">
<title>Node2</title>
<g id="a_node2"><a xlink:href="classtracktion_1_1engine_1_1Plugin.html" target="_top" xlink:title=" ">
<polygon fill="none" stroke="black" points="320,-98.5 320,-128.5 425,-128.5 425,-98.5 320,-98.5"/>
<text text-anchor="start" x="328" y="-116.5" font-family="Helvetica,sans-Serif" font-size="10.00">tracktion::engine::</text>
<text text-anchor="middle" x="372.5" y="-105.5" font-family="Helvetica,sans-Serif" font-size="10.00">Plugin</text>
</a>
</g>
</g>
<!-- Node2&#45;&gt;Node1 -->
<g id="edge1" class="edge">
<title>Node2&#45;&gt;Node1</title>
<path fill="none" stroke="midnightblue" d="M435.36,-113.5C443.78,-113.5 452.41,-113.5 460.77,-113.5"/>
<polygon fill="midnightblue" stroke="midnightblue" points="435.21,-110 425.21,-113.5 435.21,-117 435.21,-110"/>
</g>
<!-- Node3 -->
<g id="node3" class="node">
<title>Node3</title>
<g id="a_node3"><a xlink:href="classtracktion_1_1engine_1_1Selectable.html" target="_top" xlink:title="Base class for things that can be selected, and whose properties can appear in the properties panel.">
<polygon fill="none" stroke="black" points="160,-196.5 160,-226.5 265,-226.5 265,-196.5 160,-196.5"/>
<text text-anchor="start" x="168" y="-214.5" font-family="Helvetica,sans-Serif" font-size="10.00">tracktion::engine::</text>
<text text-anchor="middle" x="212.5" y="-203.5" font-family="Helvetica,sans-Serif" font-size="10.00">Selectable</text>
</a>
</g>
</g>
<!-- Node3&#45;&gt;Node2 -->
<g id="edge2" class="edge">
<title>Node3&#45;&gt;Node2</title>
<path fill="none" stroke="midnightblue" d="M274.59,-192.34C277.82,-190.82 280.98,-189.21 284,-187.5 312.57,-171.33 340.66,-145.26 357.02,-128.77"/>
<polygon fill="midnightblue" stroke="midnightblue" points="273.08,-189.18 265.31,-196.38 275.88,-195.6 273.08,-189.18"/>
</g>
<!-- Node4 -->
<g id="node4" class="node">
<title>Node4</title>
<g id="a_node4"><a xlink:href="classtracktion_1_1engine_1_1Exportable.html" target="_top" xlink:title="An interface for objects within an edit that can be exported.">
<polygon fill="none" stroke="black" points="160,-147.5 160,-177.5 265,-177.5 265,-147.5 160,-147.5"/>
<text text-anchor="start" x="168" y="-165.5" font-family="Helvetica,sans-Serif" font-size="10.00">tracktion::engine::</text>
<text text-anchor="middle" x="212.5" y="-154.5" font-family="Helvetica,sans-Serif" font-size="10.00">Exportable</text>
</a>
</g>
</g>
<!-- Node4&#45;&gt;Node2 -->
<g id="edge3" class="edge">
<title>Node4&#45;&gt;Node2</title>
<path fill="none" stroke="midnightblue" d="M271.9,-144.39C288.7,-139.18 306.83,-133.55 322.97,-128.55"/>
<polygon fill="midnightblue" stroke="midnightblue" points="270.71,-141.09 262.19,-147.4 272.78,-147.78 270.71,-141.09"/>
</g>
<!-- Node5 -->
<g id="node5" class="node">
<title>Node5</title>
<g id="a_node5"><a xlink:href="classtracktion_1_1engine_1_1AutomatableEditItem.html" target="_top" xlink:title="Base class for elements that have some kind of automatable parameters.">
<polygon fill="none" stroke="black" points="152,-98.5 152,-128.5 273,-128.5 273,-98.5 152,-98.5"/>
<text text-anchor="start" x="160" y="-116.5" font-family="Helvetica,sans-Serif" font-size="10.00">tracktion::engine::</text>
<text text-anchor="middle" x="212.5" y="-105.5" font-family="Helvetica,sans-Serif" font-size="10.00">AutomatableEditItem</text>
</a>
</g>
</g>
<!-- Node5&#45;&gt;Node2 -->
<g id="edge4" class="edge">
<title>Node5&#45;&gt;Node2</title>
<path fill="none" stroke="midnightblue" d="M283.45,-113.5C295.72,-113.5 308.3,-113.5 319.96,-113.5"/>
<polygon fill="midnightblue" stroke="midnightblue" points="283.23,-110 273.23,-113.5 283.23,-117 283.23,-110"/>
</g>
<!-- Node6 -->
<g id="node6" class="node">
<title>Node6</title>
<g id="a_node6"><a xlink:href="classtracktion_1_1engine_1_1EditItem.html" target="_top" xlink:title="Base class for objects that live inside an edit &#45; e.g.">
<polygon fill="none" stroke="black" points="0,-98.5 0,-128.5 105,-128.5 105,-98.5 0,-98.5"/>
<text text-anchor="start" x="8" y="-116.5" font-family="Helvetica,sans-Serif" font-size="10.00">tracktion::engine::</text>
<text text-anchor="middle" x="52.5" y="-105.5" font-family="Helvetica,sans-Serif" font-size="10.00">EditItem</text>
</a>
</g>
</g>
<!-- Node6&#45;&gt;Node5 -->
<g id="edge5" class="edge">
<title>Node6&#45;&gt;Node5</title>
<path fill="none" stroke="midnightblue" d="M115.59,-113.5C127.56,-113.5 140.08,-113.5 151.97,-113.5"/>
<polygon fill="midnightblue" stroke="midnightblue" points="115.24,-110 105.24,-113.5 115.24,-117 115.24,-110"/>
</g>
<!-- Node7 -->
<g id="node7" class="node">
<title>Node7</title>
<g id="a_node7"><a xlink:href="classtracktion_1_1engine_1_1MacroParameterElement.html" target="_top" xlink:title="Base class for elements which can contain macro parameters.">
<polygon fill="none" stroke="black" points="144,-49.5 144,-79.5 281,-79.5 281,-49.5 144,-49.5"/>
<text text-anchor="start" x="152" y="-67.5" font-family="Helvetica,sans-Serif" font-size="10.00">tracktion::engine::</text>
<text text-anchor="middle" x="212.5" y="-56.5" font-family="Helvetica,sans-Serif" font-size="10.00">MacroParameterElement</text>
</a>
</g>
</g>
<!-- Node7&#45;&gt;Node2 -->
<g id="edge6" class="edge">
<title>Node7&#45;&gt;Node2</title>
<path fill="none" stroke="midnightblue" d="M271.9,-82.61C288.7,-87.82 306.83,-93.45 322.97,-98.45"/>
<polygon fill="midnightblue" stroke="midnightblue" points="272.78,-79.22 262.19,-79.6 270.71,-85.91 272.78,-79.22"/>
</g>
<!-- Node8 -->
<g id="node8" class="node">
<title>Node8</title>
<g id="a_node8"><a xlink:href="structtracktion_1_1engine_1_1ValueTreeAllEventListener.html" target="_top" xlink:title=" ">
<polygon fill="none" stroke="black" points="141,-0.5 141,-30.5 284,-30.5 284,-0.5 141,-0.5"/>
<text text-anchor="start" x="149" y="-18.5" font-family="Helvetica,sans-Serif" font-size="10.00">tracktion::engine::</text>
<text text-anchor="middle" x="212.5" y="-7.5" font-family="Helvetica,sans-Serif" font-size="10.00">ValueTreeAllEventListener</text>
</a>
</g>
</g>
<!-- Node8&#45;&gt;Node2 -->
<g id="edge7" class="edge">
<title>Node8&#45;&gt;Node2</title>
<path fill="none" stroke="darkgreen" d="M274.59,-34.66C277.82,-36.18 280.98,-37.79 284,-39.5 312.57,-55.67 340.66,-81.74 357.02,-98.23"/>
<polygon fill="darkgreen" stroke="darkgreen" points="275.88,-31.4 265.31,-30.62 273.08,-37.82 275.88,-31.4"/>
</g>
</g>
</svg>
