<?xml version="1.0" encoding="UTF-8" standalone="no"?>
<!DOCTYPE svg PUBLIC "-//W3C//DTD SVG 1.1//EN"
 "http://www.w3.org/Graphics/SVG/1.1/DTD/svg11.dtd">
<!-- Generated by graphviz version 2.43.0 (0)
 -->
<!-- Title: tracktion::engine::MacroParameterElement Pages: 1 -->
<svg width="458pt" height="1286pt"
 viewBox="0.00 0.00 458.00 1286.00" xmlns="http://www.w3.org/2000/svg" xmlns:xlink="http://www.w3.org/1999/xlink">
<g id="graph0" class="graph" transform="scale(1 1) rotate(0) translate(4 1282)">
<title>tracktion::engine::MacroParameterElement</title>
<!-- Node1 -->
<g id="Node000001" class="node">
<title>Node1</title>
<g id="a_Node000001"><a xlink:title="Base class for elements which can contain macro parameters.">
<polygon fill="#999999" stroke="#666666" points="137,-678 0,-678 0,-648 137,-648 137,-678"/>
<text text-anchor="start" x="8" y="-666" font-family="Helvetica,sans-Serif" font-size="10.00">tracktion::engine::</text>
<text text-anchor="middle" x="68.5" y="-655" font-family="Helvetica,sans-Serif" font-size="10.00">MacroParameterElement</text>
</a>
</g>
</g>
<!-- Node2 -->
<g id="Node000002" class="node">
<title>Node2</title>
<g id="a_Node000002"><a xlink:href="classtracktion_1_1engine_1_1AudioTrack.html" target="_top" xlink:title=" ">
<polygon fill="white" stroke="#666666" points="279.5,-750 174.5,-750 174.5,-720 279.5,-720 279.5,-750"/>
<text text-anchor="start" x="182.5" y="-738" font-family="Helvetica,sans-Serif" font-size="10.00">tracktion::engine::</text>
<text text-anchor="middle" x="227" y="-727" font-family="Helvetica,sans-Serif" font-size="10.00">AudioTrack</text>
</a>
</g>
</g>
<!-- Node1&#45;&gt;Node2 -->
<g id="edge1_Node000001_Node000002" class="edge">
<title>Node1&#45;&gt;Node2</title>
<g id="a_edge1_Node000001_Node000002"><a xlink:title=" ">
<path fill="none" stroke="#63b8ff" d="M111.3,-682.49C130.13,-691.24 152.67,-701.68 173,-711 179.34,-713.9 186.11,-716.99 192.62,-719.94"/>
<polygon fill="#63b8ff" stroke="#63b8ff" points="112.64,-679.25 102.1,-678.21 109.69,-685.6 112.64,-679.25"/>
</a>
</g>
</g>
<!-- Node3 -->
<g id="Node000003" class="node">
<title>Node3</title>
<g id="a_Node000003"><a xlink:href="structtracktion_1_1engine_1_1Edit_1_1GlobalMacros.html" target="_top" xlink:title="Holds the global Macros for the Edit.">
<polygon fill="white" stroke="#666666" points="281,-702 173,-702 173,-672 281,-672 281,-702"/>
<text text-anchor="start" x="181" y="-690" font-family="Helvetica,sans-Serif" font-size="10.00">tracktion::engine::</text>
<text text-anchor="middle" x="227" y="-679" font-family="Helvetica,sans-Serif" font-size="10.00">Edit::GlobalMacros</text>
</a>
</g>
</g>
<!-- Node1&#45;&gt;Node3 -->
<g id="edge2_Node000001_Node000003" class="edge">
<title>Node1&#45;&gt;Node3</title>
<g id="a_edge2_Node000001_Node000003"><a xlink:title=" ">
<path fill="none" stroke="#63b8ff" d="M147.32,-674.93C155.94,-676.26 164.57,-677.58 172.78,-678.84"/>
<polygon fill="#63b8ff" stroke="#63b8ff" points="147.65,-671.44 137.23,-673.39 146.59,-678.36 147.65,-671.44"/>
</a>
</g>
</g>
<!-- Node4 -->
<g id="Node000004" class="node">
<title>Node4</title>
<g id="a_Node000004"><a xlink:href="classtracktion_1_1engine_1_1Plugin.html" target="_top" xlink:title=" ">
<polygon fill="white" stroke="#666666" points="279.5,-654 174.5,-654 174.5,-624 279.5,-624 279.5,-654"/>
<text text-anchor="start" x="182.5" y="-642" font-family="Helvetica,sans-Serif" font-size="10.00">tracktion::engine::</text>
<text text-anchor="middle" x="227" y="-631" font-family="Helvetica,sans-Serif" font-size="10.00">Plugin</text>
</a>
</g>
</g>
<!-- Node1&#45;&gt;Node4 -->
<g id="edge3_Node000001_Node000004" class="edge">
<title>Node1&#45;&gt;Node4</title>
<g id="a_edge3_Node000001_Node000004"><a xlink:title=" ">
<path fill="none" stroke="#63b8ff" d="M147.16,-651.09C156.33,-649.68 165.52,-648.28 174.21,-646.94"/>
<polygon fill="#63b8ff" stroke="#63b8ff" points="146.59,-647.64 137.23,-652.61 147.65,-654.56 146.59,-647.64"/>
</a>
</g>
</g>
<!-- Node32 -->
<g id="Node000032" class="node">
<title>Node32</title>
<g id="a_Node000032"><a xlink:href="classtracktion_1_1engine_1_1RackType.html" target="_top" xlink:title=" ">
<polygon fill="white" stroke="#666666" points="279.5,-606 174.5,-606 174.5,-576 279.5,-576 279.5,-606"/>
<text text-anchor="start" x="182.5" y="-594" font-family="Helvetica,sans-Serif" font-size="10.00">tracktion::engine::</text>
<text text-anchor="middle" x="227" y="-583" font-family="Helvetica,sans-Serif" font-size="10.00">RackType</text>
</a>
</g>
</g>
<!-- Node1&#45;&gt;Node32 -->
<g id="edge31_Node000001_Node000032" class="edge">
<title>Node1&#45;&gt;Node32</title>
<g id="a_edge31_Node000001_Node000032"><a xlink:title=" ">
<path fill="none" stroke="#63b8ff" d="M111.3,-643.51C130.13,-634.76 152.67,-624.32 173,-615 179.34,-612.1 186.11,-609.01 192.62,-606.06"/>
<polygon fill="#63b8ff" stroke="#63b8ff" points="109.69,-640.4 102.1,-647.79 112.64,-646.75 109.69,-640.4"/>
</a>
</g>
</g>
<!-- Node5 -->
<g id="Node000005" class="node">
<title>Node5</title>
<g id="a_Node000005"><a xlink:href="classtracktion_1_1engine_1_1AirWindowsPlugin.html" target="_top" xlink:title=" ">
<polygon fill="white" stroke="#666666" points="436,-1278 331,-1278 331,-1248 436,-1248 436,-1278"/>
<text text-anchor="start" x="339" y="-1266" font-family="Helvetica,sans-Serif" font-size="10.00">tracktion::engine::</text>
<text text-anchor="middle" x="383.5" y="-1255" font-family="Helvetica,sans-Serif" font-size="10.00">AirWindowsPlugin</text>
</a>
</g>
</g>
<!-- Node4&#45;&gt;Node5 -->
<g id="edge4_Node000004_Node000005" class="edge">
<title>Node4&#45;&gt;Node5</title>
<g id="a_edge4_Node000004_Node000005"><a xlink:title=" ">
<path fill="none" stroke="#63b8ff" d="M279.88,-661.47C280.27,-661.97 280.64,-662.48 281,-663 353.84,-768.56 240.31,-1136.21 317,-1239 320.69,-1243.95 325.52,-1247.88 330.87,-1251"/>
<polygon fill="#63b8ff" stroke="#63b8ff" points="282.2,-658.85 272.62,-654.32 277.29,-663.83 282.2,-658.85"/>
</a>
</g>
</g>
<!-- Node6 -->
<g id="Node000006" class="node">
<title>Node6</title>
<g id="a_Node000006"><a xlink:href="classtracktion_1_1engine_1_1AuxReturnPlugin.html" target="_top" xlink:title=" ">
<polygon fill="white" stroke="#666666" points="436,-1230 331,-1230 331,-1200 436,-1200 436,-1230"/>
<text text-anchor="start" x="339" y="-1218" font-family="Helvetica,sans-Serif" font-size="10.00">tracktion::engine::</text>
<text text-anchor="middle" x="383.5" y="-1207" font-family="Helvetica,sans-Serif" font-size="10.00">AuxReturnPlugin</text>
</a>
</g>
</g>
<!-- Node4&#45;&gt;Node6 -->
<g id="edge5_Node000004_Node000006" class="edge">
<title>Node4&#45;&gt;Node6</title>
<g id="a_edge5_Node000004_Node000006"><a xlink:title=" ">
<path fill="none" stroke="#63b8ff" d="M279.88,-661.48C280.27,-661.97 280.64,-662.48 281,-663 348.07,-759.61 246.41,-1096.94 317,-1191 320.71,-1195.94 325.54,-1199.86 330.9,-1202.98"/>
<polygon fill="#63b8ff" stroke="#63b8ff" points="282.19,-658.84 272.6,-654.34 277.29,-663.84 282.19,-658.84"/>
</a>
</g>
</g>
<!-- Node7 -->
<g id="Node000007" class="node">
<title>Node7</title>
<g id="a_Node000007"><a xlink:href="classtracktion_1_1engine_1_1AuxSendPlugin.html" target="_top" xlink:title=" ">
<polygon fill="white" stroke="#666666" points="436,-1182 331,-1182 331,-1152 436,-1152 436,-1182"/>
<text text-anchor="start" x="339" y="-1170" font-family="Helvetica,sans-Serif" font-size="10.00">tracktion::engine::</text>
<text text-anchor="middle" x="383.5" y="-1159" font-family="Helvetica,sans-Serif" font-size="10.00">AuxSendPlugin</text>
</a>
</g>
</g>
<!-- Node4&#45;&gt;Node7 -->
<g id="edge6_Node000004_Node000007" class="edge">
<title>Node4&#45;&gt;Node7</title>
<g id="a_edge6_Node000004_Node000007"><a xlink:title=" ">
<path fill="none" stroke="#63b8ff" d="M279.87,-661.48C280.26,-661.98 280.64,-662.48 281,-663 342.3,-750.66 252.5,-1057.67 317,-1143 320.72,-1147.93 325.56,-1151.84 330.93,-1154.96"/>
<polygon fill="#63b8ff" stroke="#63b8ff" points="282.18,-658.84 272.58,-654.35 277.29,-663.84 282.18,-658.84"/>
</a>
</g>
</g>
<!-- Node8 -->
<g id="Node000008" class="node">
<title>Node8</title>
<g id="a_Node000008"><a xlink:href="classtracktion_1_1engine_1_1ChorusPlugin.html" target="_top" xlink:title=" ">
<polygon fill="white" stroke="#666666" points="436,-1134 331,-1134 331,-1104 436,-1104 436,-1134"/>
<text text-anchor="start" x="339" y="-1122" font-family="Helvetica,sans-Serif" font-size="10.00">tracktion::engine::</text>
<text text-anchor="middle" x="383.5" y="-1111" font-family="Helvetica,sans-Serif" font-size="10.00">ChorusPlugin</text>
</a>
</g>
</g>
<!-- Node4&#45;&gt;Node8 -->
<g id="edge7_Node000004_Node000008" class="edge">
<title>Node4&#45;&gt;Node8</title>
<g id="a_edge7_Node000004_Node000008"><a xlink:title=" ">
<path fill="none" stroke="#63b8ff" d="M279.56,-661.1C280.06,-661.72 280.54,-662.35 281,-663 336.53,-741.72 258.6,-1018.39 317,-1095 320.74,-1099.91 325.6,-1103.82 330.97,-1106.93"/>
<polygon fill="#63b8ff" stroke="#63b8ff" points="281.73,-658.34 272.06,-654.01 276.92,-663.42 281.73,-658.34"/>
</a>
</g>
</g>
<!-- Node9 -->
<g id="Node000009" class="node">
<title>Node9</title>
<g id="a_Node000009"><a xlink:href="classtracktion_1_1engine_1_1CompressorPlugin.html" target="_top" xlink:title=" ">
<polygon fill="white" stroke="#666666" points="436,-1086 331,-1086 331,-1056 436,-1056 436,-1086"/>
<text text-anchor="start" x="339" y="-1074" font-family="Helvetica,sans-Serif" font-size="10.00">tracktion::engine::</text>
<text text-anchor="middle" x="383.5" y="-1063" font-family="Helvetica,sans-Serif" font-size="10.00">CompressorPlugin</text>
</a>
</g>
</g>
<!-- Node4&#45;&gt;Node9 -->
<g id="edge8_Node000004_Node000009" class="edge">
<title>Node4&#45;&gt;Node9</title>
<g id="a_edge8_Node000004_Node000009"><a xlink:title=" ">
<path fill="none" stroke="#63b8ff" d="M279.55,-661.11C280.05,-661.72 280.54,-662.35 281,-663 380.53,-802.56 212.37,-911.22 317,-1047 320.7,-1051.8 325.45,-1055.64 330.7,-1058.71"/>
<polygon fill="#63b8ff" stroke="#63b8ff" points="281.71,-658.33 272.02,-654.03 276.91,-663.43 281.71,-658.33"/>
</a>
</g>
</g>
<!-- Node10 -->
<g id="Node000010" class="node">
<title>Node10</title>
<g id="a_Node000010"><a xlink:href="classtracktion_1_1engine_1_1DelayPlugin.html" target="_top" xlink:title=" ">
<polygon fill="white" stroke="#666666" points="436,-1038 331,-1038 331,-1008 436,-1008 436,-1038"/>
<text text-anchor="start" x="339" y="-1026" font-family="Helvetica,sans-Serif" font-size="10.00">tracktion::engine::</text>
<text text-anchor="middle" x="383.5" y="-1015" font-family="Helvetica,sans-Serif" font-size="10.00">DelayPlugin</text>
</a>
</g>
</g>
<!-- Node4&#45;&gt;Node10 -->
<g id="edge9_Node000004_Node000010" class="edge">
<title>Node4&#45;&gt;Node10</title>
<g id="a_edge9_Node000004_Node000010"><a xlink:title=" ">
<path fill="none" stroke="#63b8ff" d="M279.54,-661.12C280.05,-661.73 280.53,-662.36 281,-663 369.02,-784.69 224.54,-880.64 317,-999 320.73,-1003.77 325.5,-1007.6 330.76,-1010.66"/>
<polygon fill="#63b8ff" stroke="#63b8ff" points="281.68,-658.33 271.98,-654.07 276.9,-663.45 281.68,-658.33"/>
</a>
</g>
</g>
<!-- Node11 -->
<g id="Node000011" class="node">
<title>Node11</title>
<g id="a_Node000011"><a xlink:href="classtracktion_1_1engine_1_1EqualiserPlugin.html" target="_top" xlink:title=" ">
<polygon fill="white" stroke="#666666" points="436,-990 331,-990 331,-960 436,-960 436,-990"/>
<text text-anchor="start" x="339" y="-978" font-family="Helvetica,sans-Serif" font-size="10.00">tracktion::engine::</text>
<text text-anchor="middle" x="383.5" y="-967" font-family="Helvetica,sans-Serif" font-size="10.00">EqualiserPlugin</text>
</a>
</g>
</g>
<!-- Node4&#45;&gt;Node11 -->
<g id="edge10_Node000004_Node000011" class="edge">
<title>Node4&#45;&gt;Node11</title>
<g id="a_edge10_Node000004_Node000011"><a xlink:title=" ">
<path fill="none" stroke="#63b8ff" d="M279.52,-661.13C280.04,-661.74 280.53,-662.36 281,-663 357.51,-766.85 236.7,-850.05 317,-951 320.77,-955.74 325.57,-959.54 330.84,-962.59"/>
<polygon fill="#63b8ff" stroke="#63b8ff" points="281.64,-658.32 271.91,-654.11 276.89,-663.47 281.64,-658.32"/>
</a>
</g>
</g>
<!-- Node12 -->
<g id="Node000012" class="node">
<title>Node12</title>
<g id="a_Node000012"><a xlink:href="classtracktion_1_1engine_1_1ExternalPlugin.html" target="_top" xlink:title=" ">
<polygon fill="white" stroke="#666666" points="436,-942 331,-942 331,-912 436,-912 436,-942"/>
<text text-anchor="start" x="339" y="-930" font-family="Helvetica,sans-Serif" font-size="10.00">tracktion::engine::</text>
<text text-anchor="middle" x="383.5" y="-919" font-family="Helvetica,sans-Serif" font-size="10.00">ExternalPlugin</text>
</a>
</g>
</g>
<!-- Node4&#45;&gt;Node12 -->
<g id="edge11_Node000004_Node000012" class="edge">
<title>Node4&#45;&gt;Node12</title>
<g id="a_edge11_Node000004_Node000012"><a xlink:title=" ">
<path fill="none" stroke="#63b8ff" d="M279.5,-661.14C280.02,-661.75 280.52,-662.37 281,-663 346.04,-749.05 248.82,-819.42 317,-903 320.83,-907.69 325.66,-911.47 330.96,-914.5"/>
<polygon fill="#63b8ff" stroke="#63b8ff" points="281.58,-658.31 271.83,-654.18 276.88,-663.49 281.58,-658.31"/>
</a>
</g>
</g>
<!-- Node13 -->
<g id="Node000013" class="node">
<title>Node13</title>
<g id="a_Node000013"><a xlink:href="classtracktion_1_1engine_1_1FourOscPlugin.html" target="_top" xlink:title=" ">
<polygon fill="white" stroke="#666666" points="436,-894 331,-894 331,-864 436,-864 436,-894"/>
<text text-anchor="start" x="339" y="-882" font-family="Helvetica,sans-Serif" font-size="10.00">tracktion::engine::</text>
<text text-anchor="middle" x="383.5" y="-871" font-family="Helvetica,sans-Serif" font-size="10.00">FourOscPlugin</text>
</a>
</g>
</g>
<!-- Node4&#45;&gt;Node13 -->
<g id="edge12_Node000004_Node000013" class="edge">
<title>Node4&#45;&gt;Node13</title>
<g id="a_edge12_Node000004_Node000013"><a xlink:title=" ">
<path fill="none" stroke="#63b8ff" d="M279.16,-660.82C279.8,-661.53 280.41,-662.25 281,-663 334.61,-731.3 260.91,-788.73 317,-855 320.83,-859.53 325.6,-863.2 330.8,-866.19"/>
<polygon fill="#63b8ff" stroke="#63b8ff" points="281.28,-658.04 271.45,-654.1 276.68,-663.31 281.28,-658.04"/>
</a>
</g>
</g>
<!-- Node14 -->
<g id="Node000014" class="node">
<title>Node14</title>
<g id="a_Node000014"><a xlink:href="classtracktion_1_1engine_1_1FreezePointPlugin.html" target="_top" xlink:title=" ">
<polygon fill="white" stroke="#666666" points="436,-846 331,-846 331,-816 436,-816 436,-846"/>
<text text-anchor="start" x="339" y="-834" font-family="Helvetica,sans-Serif" font-size="10.00">tracktion::engine::</text>
<text text-anchor="middle" x="383.5" y="-823" font-family="Helvetica,sans-Serif" font-size="10.00">FreezePointPlugin</text>
</a>
</g>
</g>
<!-- Node4&#45;&gt;Node14 -->
<g id="edge13_Node000004_Node000014" class="edge">
<title>Node4&#45;&gt;Node14</title>
<g id="a_edge13_Node000004_Node000014"><a xlink:title=" ">
<path fill="none" stroke="#63b8ff" d="M278.76,-660.53C279.54,-661.32 280.29,-662.15 281,-663 323.26,-713.66 272.89,-757.94 317,-807 320.89,-811.32 325.62,-814.87 330.74,-817.78"/>
<polygon fill="#63b8ff" stroke="#63b8ff" points="280.92,-657.77 270.98,-654.1 276.46,-663.17 280.92,-657.77"/>
</a>
</g>
</g>
<!-- Node15 -->
<g id="Node000015" class="node">
<title>Node15</title>
<g id="a_Node000015"><a xlink:href="classtracktion_1_1engine_1_1ImpulseResponsePlugin.html" target="_top" xlink:title="ImpulseResponsePlugin that loads an impulse response and applies it the audio stream.">
<polygon fill="white" stroke="#666666" points="450,-798 317,-798 317,-768 450,-768 450,-798"/>
<text text-anchor="start" x="325" y="-786" font-family="Helvetica,sans-Serif" font-size="10.00">tracktion::engine::</text>
<text text-anchor="middle" x="383.5" y="-775" font-family="Helvetica,sans-Serif" font-size="10.00">ImpulseResponsePlugin</text>
</a>
</g>
</g>
<!-- Node4&#45;&gt;Node15 -->
<g id="edge14_Node000004_Node000015" class="edge">
<title>Node4&#45;&gt;Node15</title>
<g id="a_edge14_Node000004_Node000015"><a xlink:title=" ">
<path fill="none" stroke="#63b8ff" d="M278.19,-660.24C279.17,-661.13 280.11,-662.05 281,-663 312.13,-696.27 284.66,-726.9 317,-759 320.44,-762.41 324.4,-765.34 328.64,-767.86"/>
<polygon fill="#63b8ff" stroke="#63b8ff" points="280.16,-657.34 270.07,-654.1 275.94,-662.93 280.16,-657.34"/>
</a>
</g>
</g>
<!-- Node16 -->
<g id="Node000016" class="node">
<title>Node16</title>
<g id="a_Node000016"><a xlink:href="classtracktion_1_1engine_1_1InsertPlugin.html" target="_top" xlink:title=" ">
<polygon fill="white" stroke="#666666" points="436,-750 331,-750 331,-720 436,-720 436,-750"/>
<text text-anchor="start" x="339" y="-738" font-family="Helvetica,sans-Serif" font-size="10.00">tracktion::engine::</text>
<text text-anchor="middle" x="383.5" y="-727" font-family="Helvetica,sans-Serif" font-size="10.00">InsertPlugin</text>
</a>
</g>
</g>
<!-- Node4&#45;&gt;Node16 -->
<g id="edge15_Node000004_Node000016" class="edge">
<title>Node4&#45;&gt;Node16</title>
<g id="a_edge15_Node000004_Node000016"><a xlink:title=" ">
<path fill="none" stroke="#63b8ff" d="M276.1,-659.38C277.79,-660.54 279.43,-661.74 281,-663 301.8,-679.69 295.6,-695.09 317,-711 321.57,-714.4 326.67,-717.35 331.95,-719.92"/>
<polygon fill="#63b8ff" stroke="#63b8ff" points="277.62,-656.21 267.25,-654.02 273.99,-662.2 277.62,-656.21"/>
</a>
</g>
</g>
<!-- Node17 -->
<g id="Node000017" class="node">
<title>Node17</title>
<g id="a_Node000017"><a xlink:href="classtracktion_1_1engine_1_1LatencyPlugin.html" target="_top" xlink:title="A test plugin that introduces latency to the incoming signal.">
<polygon fill="white" stroke="#666666" points="436,-702 331,-702 331,-672 436,-672 436,-702"/>
<text text-anchor="start" x="339" y="-690" font-family="Helvetica,sans-Serif" font-size="10.00">tracktion::engine::</text>
<text text-anchor="middle" x="383.5" y="-679" font-family="Helvetica,sans-Serif" font-size="10.00">LatencyPlugin</text>
</a>
</g>
</g>
<!-- Node4&#45;&gt;Node17 -->
<g id="edge16_Node000004_Node000017" class="edge">
<title>Node4&#45;&gt;Node17</title>
<g id="a_edge16_Node000004_Node000017"><a xlink:title=" ">
<path fill="none" stroke="#63b8ff" d="M286.15,-657.07C301.99,-661.99 318.98,-667.27 334.21,-672"/>
<polygon fill="#63b8ff" stroke="#63b8ff" points="287.05,-653.68 276.46,-654.06 284.97,-660.37 287.05,-653.68"/>
</a>
</g>
</g>
<!-- Node18 -->
<g id="Node000018" class="node">
<title>Node18</title>
<g id="a_Node000018"><a xlink:href="classtracktion_1_1engine_1_1LevelMeterPlugin.html" target="_top" xlink:title=" ">
<polygon fill="white" stroke="#666666" points="436,-654 331,-654 331,-624 436,-624 436,-654"/>
<text text-anchor="start" x="339" y="-642" font-family="Helvetica,sans-Serif" font-size="10.00">tracktion::engine::</text>
<text text-anchor="middle" x="383.5" y="-631" font-family="Helvetica,sans-Serif" font-size="10.00">LevelMeterPlugin</text>
</a>
</g>
</g>
<!-- Node4&#45;&gt;Node18 -->
<g id="edge17_Node000004_Node000018" class="edge">
<title>Node4&#45;&gt;Node18</title>
<g id="a_edge17_Node000004_Node000018"><a xlink:title=" ">
<path fill="none" stroke="#63b8ff" d="M290.05,-639C303.55,-639 317.71,-639 330.76,-639"/>
<polygon fill="#63b8ff" stroke="#63b8ff" points="289.88,-635.5 279.88,-639 289.88,-642.5 289.88,-635.5"/>
</a>
</g>
</g>
<!-- Node19 -->
<g id="Node000019" class="node">
<title>Node19</title>
<g id="a_Node000019"><a xlink:href="classtracktion_1_1engine_1_1LowPassPlugin.html" target="_top" xlink:title=" ">
<polygon fill="white" stroke="#666666" points="436,-606 331,-606 331,-576 436,-576 436,-606"/>
<text text-anchor="start" x="339" y="-594" font-family="Helvetica,sans-Serif" font-size="10.00">tracktion::engine::</text>
<text text-anchor="middle" x="383.5" y="-583" font-family="Helvetica,sans-Serif" font-size="10.00">LowPassPlugin</text>
</a>
</g>
</g>
<!-- Node4&#45;&gt;Node19 -->
<g id="edge18_Node000004_Node000019" class="edge">
<title>Node4&#45;&gt;Node19</title>
<g id="a_edge18_Node000004_Node000019"><a xlink:title=" ">
<path fill="none" stroke="#63b8ff" d="M286.15,-620.93C301.99,-616.01 318.98,-610.73 334.21,-606"/>
<polygon fill="#63b8ff" stroke="#63b8ff" points="284.97,-617.63 276.46,-623.94 287.05,-624.32 284.97,-617.63"/>
</a>
</g>
</g>
<!-- Node20 -->
<g id="Node000020" class="node">
<title>Node20</title>
<g id="a_Node000020"><a xlink:href="classtracktion_1_1engine_1_1MidiModifierPlugin.html" target="_top" xlink:title=" ">
<polygon fill="white" stroke="#666666" points="437,-558 330,-558 330,-528 437,-528 437,-558"/>
<text text-anchor="start" x="338" y="-546" font-family="Helvetica,sans-Serif" font-size="10.00">tracktion::engine::</text>
<text text-anchor="middle" x="383.5" y="-535" font-family="Helvetica,sans-Serif" font-size="10.00">MidiModifierPlugin</text>
</a>
</g>
</g>
<!-- Node4&#45;&gt;Node20 -->
<g id="edge19_Node000004_Node000020" class="edge">
<title>Node4&#45;&gt;Node20</title>
<g id="a_edge19_Node000004_Node000020"><a xlink:title=" ">
<path fill="none" stroke="#63b8ff" d="M276.1,-618.62C277.79,-617.46 279.43,-616.26 281,-615 301.8,-598.31 295.6,-582.91 317,-567 321.57,-563.6 326.67,-560.65 331.95,-558.08"/>
<polygon fill="#63b8ff" stroke="#63b8ff" points="273.99,-615.8 267.25,-623.98 277.62,-621.79 273.99,-615.8"/>
</a>
</g>
</g>
<!-- Node21 -->
<g id="Node000021" class="node">
<title>Node21</title>
<g id="a_Node000021"><a xlink:href="classtracktion_1_1engine_1_1MidiPatchBayPlugin.html" target="_top" xlink:title=" ">
<polygon fill="white" stroke="#666666" points="440,-510 327,-510 327,-480 440,-480 440,-510"/>
<text text-anchor="start" x="335" y="-498" font-family="Helvetica,sans-Serif" font-size="10.00">tracktion::engine::</text>
<text text-anchor="middle" x="383.5" y="-487" font-family="Helvetica,sans-Serif" font-size="10.00">MidiPatchBayPlugin</text>
</a>
</g>
</g>
<!-- Node4&#45;&gt;Node21 -->
<g id="edge20_Node000004_Node000021" class="edge">
<title>Node4&#45;&gt;Node21</title>
<g id="a_edge20_Node000004_Node000021"><a xlink:title=" ">
<path fill="none" stroke="#63b8ff" d="M278.19,-617.76C279.17,-616.87 280.11,-615.95 281,-615 312.13,-581.73 284.66,-551.1 317,-519 320.44,-515.59 324.4,-512.66 328.64,-510.14"/>
<polygon fill="#63b8ff" stroke="#63b8ff" points="275.94,-615.07 270.07,-623.9 280.16,-620.66 275.94,-615.07"/>
</a>
</g>
</g>
<!-- Node22 -->
<g id="Node000022" class="node">
<title>Node22</title>
<g id="a_Node000022"><a xlink:href="classtracktion_1_1engine_1_1PatchBayPlugin.html" target="_top" xlink:title=" ">
<polygon fill="white" stroke="#666666" points="436,-462 331,-462 331,-432 436,-432 436,-462"/>
<text text-anchor="start" x="339" y="-450" font-family="Helvetica,sans-Serif" font-size="10.00">tracktion::engine::</text>
<text text-anchor="middle" x="383.5" y="-439" font-family="Helvetica,sans-Serif" font-size="10.00">PatchBayPlugin</text>
</a>
</g>
</g>
<!-- Node4&#45;&gt;Node22 -->
<g id="edge21_Node000004_Node000022" class="edge">
<title>Node4&#45;&gt;Node22</title>
<g id="a_edge21_Node000004_Node000022"><a xlink:title=" ">
<path fill="none" stroke="#63b8ff" d="M278.76,-617.47C279.54,-616.68 280.29,-615.85 281,-615 323.26,-564.34 272.89,-520.06 317,-471 320.89,-466.68 325.62,-463.13 330.74,-460.22"/>
<polygon fill="#63b8ff" stroke="#63b8ff" points="276.46,-614.83 270.98,-623.9 280.92,-620.23 276.46,-614.83"/>
</a>
</g>
</g>
<!-- Node23 -->
<g id="Node000023" class="node">
<title>Node23</title>
<g id="a_Node000023"><a xlink:href="classtracktion_1_1engine_1_1PhaserPlugin.html" target="_top" xlink:title=" ">
<polygon fill="white" stroke="#666666" points="436,-414 331,-414 331,-384 436,-384 436,-414"/>
<text text-anchor="start" x="339" y="-402" font-family="Helvetica,sans-Serif" font-size="10.00">tracktion::engine::</text>
<text text-anchor="middle" x="383.5" y="-391" font-family="Helvetica,sans-Serif" font-size="10.00">PhaserPlugin</text>
</a>
</g>
</g>
<!-- Node4&#45;&gt;Node23 -->
<g id="edge22_Node000004_Node000023" class="edge">
<title>Node4&#45;&gt;Node23</title>
<g id="a_edge22_Node000004_Node000023"><a xlink:title=" ">
<path fill="none" stroke="#63b8ff" d="M279.16,-617.18C279.8,-616.47 280.41,-615.75 281,-615 334.61,-546.7 260.91,-489.27 317,-423 320.83,-418.47 325.6,-414.8 330.8,-411.81"/>
<polygon fill="#63b8ff" stroke="#63b8ff" points="276.68,-614.69 271.45,-623.9 281.28,-619.96 276.68,-614.69"/>
</a>
</g>
</g>
<!-- Node24 -->
<g id="Node000024" class="node">
<title>Node24</title>
<g id="a_Node000024"><a xlink:href="classtracktion_1_1engine_1_1PitchShiftPlugin.html" target="_top" xlink:title=" ">
<polygon fill="white" stroke="#666666" points="436,-366 331,-366 331,-336 436,-336 436,-366"/>
<text text-anchor="start" x="339" y="-354" font-family="Helvetica,sans-Serif" font-size="10.00">tracktion::engine::</text>
<text text-anchor="middle" x="383.5" y="-343" font-family="Helvetica,sans-Serif" font-size="10.00">PitchShiftPlugin</text>
</a>
</g>
</g>
<!-- Node4&#45;&gt;Node24 -->
<g id="edge23_Node000004_Node000024" class="edge">
<title>Node4&#45;&gt;Node24</title>
<g id="a_edge23_Node000004_Node000024"><a xlink:title=" ">
<path fill="none" stroke="#63b8ff" d="M279.5,-616.86C280.02,-616.25 280.52,-615.63 281,-615 346.04,-528.95 248.82,-458.58 317,-375 320.83,-370.31 325.66,-366.53 330.96,-363.5"/>
<polygon fill="#63b8ff" stroke="#63b8ff" points="276.88,-614.51 271.83,-623.82 281.58,-619.69 276.88,-614.51"/>
</a>
</g>
</g>
<!-- Node25 -->
<g id="Node000025" class="node">
<title>Node25</title>
<g id="a_Node000025"><a xlink:href="classtracktion_1_1engine_1_1RackInstance.html" target="_top" xlink:title=" ">
<polygon fill="white" stroke="#666666" points="436,-318 331,-318 331,-288 436,-288 436,-318"/>
<text text-anchor="start" x="339" y="-306" font-family="Helvetica,sans-Serif" font-size="10.00">tracktion::engine::</text>
<text text-anchor="middle" x="383.5" y="-295" font-family="Helvetica,sans-Serif" font-size="10.00">RackInstance</text>
</a>
</g>
</g>
<!-- Node4&#45;&gt;Node25 -->
<g id="edge24_Node000004_Node000025" class="edge">
<title>Node4&#45;&gt;Node25</title>
<g id="a_edge24_Node000004_Node000025"><a xlink:title=" ">
<path fill="none" stroke="#63b8ff" d="M279.52,-616.87C280.04,-616.26 280.53,-615.64 281,-615 357.51,-511.15 236.7,-427.95 317,-327 320.77,-322.26 325.57,-318.46 330.84,-315.41"/>
<polygon fill="#63b8ff" stroke="#63b8ff" points="276.89,-614.53 271.91,-623.89 281.64,-619.68 276.89,-614.53"/>
</a>
</g>
</g>
<!-- Node26 -->
<g id="Node000026" class="node">
<title>Node26</title>
<g id="a_Node000026"><a xlink:href="classtracktion_1_1engine_1_1ReverbPlugin.html" target="_top" xlink:title=" ">
<polygon fill="white" stroke="#666666" points="436,-270 331,-270 331,-240 436,-240 436,-270"/>
<text text-anchor="start" x="339" y="-258" font-family="Helvetica,sans-Serif" font-size="10.00">tracktion::engine::</text>
<text text-anchor="middle" x="383.5" y="-247" font-family="Helvetica,sans-Serif" font-size="10.00">ReverbPlugin</text>
</a>
</g>
</g>
<!-- Node4&#45;&gt;Node26 -->
<g id="edge25_Node000004_Node000026" class="edge">
<title>Node4&#45;&gt;Node26</title>
<g id="a_edge25_Node000004_Node000026"><a xlink:title=" ">
<path fill="none" stroke="#63b8ff" d="M279.54,-616.88C280.05,-616.27 280.53,-615.64 281,-615 369.02,-493.31 224.54,-397.36 317,-279 320.73,-274.23 325.5,-270.4 330.76,-267.34"/>
<polygon fill="#63b8ff" stroke="#63b8ff" points="276.9,-614.55 271.98,-623.93 281.68,-619.67 276.9,-614.55"/>
</a>
</g>
</g>
<!-- Node27 -->
<g id="Node000027" class="node">
<title>Node27</title>
<g id="a_Node000027"><a xlink:href="classtracktion_1_1engine_1_1SamplerPlugin.html" target="_top" xlink:title=" ">
<polygon fill="white" stroke="#666666" points="436,-222 331,-222 331,-192 436,-192 436,-222"/>
<text text-anchor="start" x="339" y="-210" font-family="Helvetica,sans-Serif" font-size="10.00">tracktion::engine::</text>
<text text-anchor="middle" x="383.5" y="-199" font-family="Helvetica,sans-Serif" font-size="10.00">SamplerPlugin</text>
</a>
</g>
</g>
<!-- Node4&#45;&gt;Node27 -->
<g id="edge26_Node000004_Node000027" class="edge">
<title>Node4&#45;&gt;Node27</title>
<g id="a_edge26_Node000004_Node000027"><a xlink:title=" ">
<path fill="none" stroke="#63b8ff" d="M279.55,-616.89C280.05,-616.28 280.54,-615.65 281,-615 380.53,-475.44 212.37,-366.78 317,-231 320.7,-226.2 325.45,-222.36 330.7,-219.29"/>
<polygon fill="#63b8ff" stroke="#63b8ff" points="276.91,-614.57 272.02,-623.97 281.71,-619.67 276.91,-614.57"/>
</a>
</g>
</g>
<!-- Node28 -->
<g id="Node000028" class="node">
<title>Node28</title>
<g id="a_Node000028"><a xlink:href="classtracktion_1_1engine_1_1TextPlugin.html" target="_top" xlink:title=" ">
<polygon fill="white" stroke="#666666" points="436,-174 331,-174 331,-144 436,-144 436,-174"/>
<text text-anchor="start" x="339" y="-162" font-family="Helvetica,sans-Serif" font-size="10.00">tracktion::engine::</text>
<text text-anchor="middle" x="383.5" y="-151" font-family="Helvetica,sans-Serif" font-size="10.00">TextPlugin</text>
</a>
</g>
</g>
<!-- Node4&#45;&gt;Node28 -->
<g id="edge27_Node000004_Node000028" class="edge">
<title>Node4&#45;&gt;Node28</title>
<g id="a_edge27_Node000004_Node000028"><a xlink:title=" ">
<path fill="none" stroke="#63b8ff" d="M279.56,-616.9C280.06,-616.28 280.54,-615.65 281,-615 336.53,-536.28 258.6,-259.61 317,-183 320.74,-178.09 325.6,-174.18 330.97,-171.07"/>
<polygon fill="#63b8ff" stroke="#63b8ff" points="276.92,-614.58 272.06,-623.99 281.73,-619.66 276.92,-614.58"/>
</a>
</g>
</g>
<!-- Node29 -->
<g id="Node000029" class="node">
<title>Node29</title>
<g id="a_Node000029"><a xlink:href="classtracktion_1_1engine_1_1ToneGeneratorPlugin.html" target="_top" xlink:title=" ">
<polygon fill="white" stroke="#666666" points="442.5,-126 324.5,-126 324.5,-96 442.5,-96 442.5,-126"/>
<text text-anchor="start" x="332.5" y="-114" font-family="Helvetica,sans-Serif" font-size="10.00">tracktion::engine::</text>
<text text-anchor="middle" x="383.5" y="-103" font-family="Helvetica,sans-Serif" font-size="10.00">ToneGeneratorPlugin</text>
</a>
</g>
</g>
<!-- Node4&#45;&gt;Node29 -->
<g id="edge28_Node000004_Node000029" class="edge">
<title>Node4&#45;&gt;Node29</title>
<g id="a_edge28_Node000004_Node000029"><a xlink:title=" ">
<path fill="none" stroke="#63b8ff" d="M279.87,-616.52C280.26,-616.02 280.64,-615.52 281,-615 342.3,-527.34 252.5,-220.33 317,-135 319.63,-131.52 322.81,-128.55 326.35,-126"/>
<polygon fill="#63b8ff" stroke="#63b8ff" points="277.29,-614.16 272.58,-623.65 282.18,-619.16 277.29,-614.16"/>
</a>
</g>
</g>
<!-- Node30 -->
<g id="Node000030" class="node">
<title>Node30</title>
<g id="a_Node000030"><a xlink:href="classtracktion_1_1engine_1_1VCAPlugin.html" target="_top" xlink:title="The VCA plugin sits on a folder track to control the overall level of all the volume/pan plugins in i...">
<polygon fill="white" stroke="#666666" points="436,-78 331,-78 331,-48 436,-48 436,-78"/>
<text text-anchor="start" x="339" y="-66" font-family="Helvetica,sans-Serif" font-size="10.00">tracktion::engine::</text>
<text text-anchor="middle" x="383.5" y="-55" font-family="Helvetica,sans-Serif" font-size="10.00">VCAPlugin</text>
</a>
</g>
</g>
<!-- Node4&#45;&gt;Node30 -->
<g id="edge29_Node000004_Node000030" class="edge">
<title>Node4&#45;&gt;Node30</title>
<g id="a_edge29_Node000004_Node000030"><a xlink:title=" ">
<path fill="none" stroke="#63b8ff" d="M279.88,-616.52C280.27,-616.03 280.64,-615.52 281,-615 348.07,-518.39 246.41,-181.06 317,-87 320.71,-82.06 325.54,-78.14 330.9,-75.02"/>
<polygon fill="#63b8ff" stroke="#63b8ff" points="277.29,-614.16 272.6,-623.66 282.19,-619.16 277.29,-614.16"/>
</a>
</g>
</g>
<!-- Node31 -->
<g id="Node000031" class="node">
<title>Node31</title>
<g id="a_Node000031"><a xlink:href="classtracktion_1_1engine_1_1VolumeAndPanPlugin.html" target="_top" xlink:title="The built&#45;in Tracktion volume/pan plugin.">
<polygon fill="white" stroke="#666666" points="443,-30 324,-30 324,0 443,0 443,-30"/>
<text text-anchor="start" x="332" y="-18" font-family="Helvetica,sans-Serif" font-size="10.00">tracktion::engine::</text>
<text text-anchor="middle" x="383.5" y="-7" font-family="Helvetica,sans-Serif" font-size="10.00">VolumeAndPanPlugin</text>
</a>
</g>
</g>
<!-- Node4&#45;&gt;Node31 -->
<g id="edge30_Node000004_Node000031" class="edge">
<title>Node4&#45;&gt;Node31</title>
<g id="a_edge30_Node000004_Node000031"><a xlink:title=" ">
<path fill="none" stroke="#63b8ff" d="M279.88,-616.53C280.27,-616.03 280.64,-615.52 281,-615 353.84,-509.44 240.31,-141.79 317,-39 319.53,-35.6 322.6,-32.69 326.01,-30.18"/>
<polygon fill="#63b8ff" stroke="#63b8ff" points="277.29,-614.17 272.62,-623.68 282.2,-619.15 277.29,-614.17"/>
</a>
</g>
</g>
</g>
</svg>
