<?xml version="1.0" encoding="UTF-8" standalone="no"?>
<!DOCTYPE svg PUBLIC "-//W3C//DTD SVG 1.1//EN"
 "http://www.w3.org/Graphics/SVG/1.1/DTD/svg11.dtd">
<!-- Generated by graphviz version 2.43.0 (0)
 -->
<!-- Title: tracktion::engine::RandomModifier Pages: 1 -->
<svg width="599pt" height="146pt"
 viewBox="0.00 0.00 599.00 145.50" xmlns="http://www.w3.org/2000/svg" xmlns:xlink="http://www.w3.org/1999/xlink">
<g id="graph0" class="graph" transform="scale(1 1) rotate(0) translate(4 141.5)">
<title>tracktion::engine::RandomModifier</title>
<!-- Node1 -->
<g id="Node000001" class="node">
<title>Node1</title>
<g id="a_Node000001"><a xlink:title=" ">
<polygon fill="#999999" stroke="#666666" points="591,-65.5 486,-65.5 486,-35.5 591,-35.5 591,-65.5"/>
<text text-anchor="start" x="494" y="-53.5" font-family="Helvetica,sans-Serif" font-size="10.00">tracktion::engine::</text>
<text text-anchor="middle" x="538.5" y="-42.5" font-family="Helvetica,sans-Serif" font-size="10.00">RandomModifier</text>
</a>
</g>
</g>
<!-- Node2 -->
<g id="Node000002" class="node">
<title>Node2</title>
<g id="a_Node000002"><a xlink:href="structtracktion_1_1engine_1_1Modifier.html" target="_top" xlink:title="Bass class for parameter Modifiers.">
<polygon fill="white" stroke="#666666" points="431,-89.5 326,-89.5 326,-59.5 431,-59.5 431,-89.5"/>
<text text-anchor="start" x="334" y="-77.5" font-family="Helvetica,sans-Serif" font-size="10.00">tracktion::engine::</text>
<text text-anchor="middle" x="378.5" y="-66.5" font-family="Helvetica,sans-Serif" font-size="10.00">Modifier</text>
</a>
</g>
</g>
<!-- Node2&#45;&gt;Node1 -->
<g id="edge1_Node000001_Node000002" class="edge">
<title>Node2&#45;&gt;Node1</title>
<g id="a_edge1_Node000001_Node000002"><a xlink:title=" ">
<path fill="none" stroke="#63b8ff" d="M441.3,-65.11C456.06,-62.87 471.67,-60.5 485.92,-58.34"/>
<polygon fill="#63b8ff" stroke="#63b8ff" points="440.6,-61.68 431.24,-66.64 441.65,-68.6 440.6,-61.68"/>
</a>
</g>
</g>
<!-- Node3 -->
<g id="Node000003" class="node">
<title>Node3</title>
<g id="a_Node000003"><a xlink:href="classtracktion_1_1engine_1_1AutomatableEditItem.html" target="_top" xlink:title="Base class for elements that have some kind of automatable parameters.">
<polygon fill="white" stroke="#666666" points="266.5,-137.5 145.5,-137.5 145.5,-107.5 266.5,-107.5 266.5,-137.5"/>
<text text-anchor="start" x="153.5" y="-125.5" font-family="Helvetica,sans-Serif" font-size="10.00">tracktion::engine::</text>
<text text-anchor="middle" x="206" y="-114.5" font-family="Helvetica,sans-Serif" font-size="10.00">AutomatableEditItem</text>
</a>
</g>
</g>
<!-- Node3&#45;&gt;Node2 -->
<g id="edge2_Node000002_Node000003" class="edge">
<title>Node3&#45;&gt;Node2</title>
<g id="a_edge2_Node000002_Node000003"><a xlink:title=" ">
<path fill="none" stroke="#63b8ff" d="M270.22,-104.7C288.58,-99.53 308.41,-93.95 325.96,-89.01"/>
<polygon fill="#63b8ff" stroke="#63b8ff" points="269.16,-101.37 260.48,-107.44 271.05,-108.1 269.16,-101.37"/>
</a>
</g>
</g>
<!-- Node4 -->
<g id="Node000004" class="node">
<title>Node4</title>
<g id="a_Node000004"><a xlink:href="classtracktion_1_1engine_1_1EditItem.html" target="_top" xlink:title="Base class for objects that live inside an edit &#45; e.g.">
<polygon fill="white" stroke="#666666" points="105,-137.5 0,-137.5 0,-107.5 105,-107.5 105,-137.5"/>
<text text-anchor="start" x="8" y="-125.5" font-family="Helvetica,sans-Serif" font-size="10.00">tracktion::engine::</text>
<text text-anchor="middle" x="52.5" y="-114.5" font-family="Helvetica,sans-Serif" font-size="10.00">EditItem</text>
</a>
</g>
</g>
<!-- Node4&#45;&gt;Node3 -->
<g id="edge3_Node000003_Node000004" class="edge">
<title>Node4&#45;&gt;Node3</title>
<g id="a_edge3_Node000003_Node000004"><a xlink:title=" ">
<path fill="none" stroke="#63b8ff" d="M115.4,-122.5C125.32,-122.5 135.57,-122.5 145.44,-122.5"/>
<polygon fill="#63b8ff" stroke="#63b8ff" points="115.21,-119 105.21,-122.5 115.21,-126 115.21,-119"/>
</a>
</g>
</g>
<!-- Node5 -->
<g id="Node000005" class="node">
<title>Node5</title>
<g id="a_Node000005"><a xlink:href="classtracktion_1_1engine_1_1Selectable.html" target="_top" xlink:title="Base class for things that can be selected, and whose properties can appear in the properties panel.">
<polygon fill="white" stroke="#666666" points="258.5,-89.5 153.5,-89.5 153.5,-59.5 258.5,-59.5 258.5,-89.5"/>
<text text-anchor="start" x="161.5" y="-77.5" font-family="Helvetica,sans-Serif" font-size="10.00">tracktion::engine::</text>
<text text-anchor="middle" x="206" y="-66.5" font-family="Helvetica,sans-Serif" font-size="10.00">Selectable</text>
</a>
</g>
</g>
<!-- Node5&#45;&gt;Node2 -->
<g id="edge4_Node000002_Node000005" class="edge">
<title>Node5&#45;&gt;Node2</title>
<g id="a_edge4_Node000002_Node000005"><a xlink:title=" ">
<path fill="none" stroke="#63b8ff" d="M268.81,-74.5C287.49,-74.5 307.81,-74.5 325.76,-74.5"/>
<polygon fill="#63b8ff" stroke="#63b8ff" points="268.62,-71 258.62,-74.5 268.62,-78 268.62,-71"/>
</a>
</g>
</g>
<!-- Node6 -->
<g id="Node000006" class="node">
<title>Node6</title>
<g id="a_Node000006"><a xlink:href="structtracktion_1_1engine_1_1AutomatableParameter_1_1ModifierSource.html" target="_top" xlink:title="Base class for things that can be used to modify parameters.">
<polygon fill="white" stroke="#666666" points="271,-41 141,-41 141,0 271,0 271,-41"/>
<text text-anchor="start" x="149" y="-29" font-family="Helvetica,sans-Serif" font-size="10.00">tracktion::engine::</text>
<text text-anchor="start" x="149" y="-18" font-family="Helvetica,sans-Serif" font-size="10.00">AutomatableParameter</text>
<text text-anchor="middle" x="206" y="-7" font-family="Helvetica,sans-Serif" font-size="10.00">::ModifierSource</text>
</a>
</g>
</g>
<!-- Node6&#45;&gt;Node2 -->
<g id="edge5_Node000002_Node000006" class="edge">
<title>Node6&#45;&gt;Node2</title>
<g id="a_edge5_Node000002_Node000006"><a xlink:title=" ">
<path fill="none" stroke="#63b8ff" d="M281.12,-43.98C297.69,-49.22 314.82,-54.65 329.96,-59.44"/>
<polygon fill="#63b8ff" stroke="#63b8ff" points="282.05,-40.6 271.46,-40.92 279.94,-47.27 282.05,-40.6"/>
</a>
</g>
</g>
<!-- Node7 -->
<g id="Node000007" class="node">
<title>Node7</title>
<g id="a_Node000007"><a xlink:href="structtracktion_1_1engine_1_1ValueTreeAllEventListener.html" target="_top" xlink:title=" ">
<polygon fill="white" stroke="#666666" points="450,-41.5 307,-41.5 307,-11.5 450,-11.5 450,-41.5"/>
<text text-anchor="start" x="315" y="-29.5" font-family="Helvetica,sans-Serif" font-size="10.00">tracktion::engine::</text>
<text text-anchor="middle" x="378.5" y="-18.5" font-family="Helvetica,sans-Serif" font-size="10.00">ValueTreeAllEventListener</text>
</a>
</g>
</g>
<!-- Node7&#45;&gt;Node1 -->
<g id="edge6_Node000001_Node000007" class="edge">
<title>Node7&#45;&gt;Node1</title>
<g id="a_edge6_Node000001_Node000007"><a xlink:title=" ">
<path fill="none" stroke="#8b1a1a" d="M460.34,-38.78C469,-40.1 477.64,-41.41 485.82,-42.65"/>
<polygon fill="#8b1a1a" stroke="#8b1a1a" points="460.59,-35.28 450.18,-37.24 459.54,-42.2 460.59,-35.28"/>
</a>
</g>
</g>
</g>
</svg>
