<?xml version="1.0" encoding="UTF-8" standalone="no"?>
<!DOCTYPE svg PUBLIC "-//W3C//DTD SVG 1.1//EN"
 "http://www.w3.org/Graphics/SVG/1.1/DTD/svg11.dtd">
<!-- Generated by graphviz version 2.43.0 (0)
 -->
<!-- Title: tracktion::engine::OutputDevice Pages: 1 -->
<svg width="263pt" height="236pt"
 viewBox="0.00 0.00 262.50 236.00" xmlns="http://www.w3.org/2000/svg" xmlns:xlink="http://www.w3.org/1999/xlink">
<g id="graph0" class="graph" transform="scale(1 1) rotate(0) translate(4 232)">
<title>tracktion::engine::OutputDevice</title>
<!-- Node1 -->
<g id="Node000001" class="node">
<title>Node1</title>
<g id="a_Node000001"><a xlink:title="Base class for audio or midi output devices, to which a track&#39;s output can be sent.">
<polygon fill="#999999" stroke="#666666" points="189,-162 84,-162 84,-132 189,-132 189,-162"/>
<text text-anchor="start" x="92" y="-150" font-family="Helvetica,sans-Serif" font-size="10.00">tracktion::engine::</text>
<text text-anchor="middle" x="136.5" y="-139" font-family="Helvetica,sans-Serif" font-size="10.00">OutputDevice</text>
</a>
</g>
</g>
<!-- Node3 -->
<g id="Node000003" class="node">
<title>Node3</title>
<g id="a_Node000003"><a xlink:href="classtracktion_1_1engine_1_1MidiOutputDevice.html" target="_top" xlink:title=" ">
<polygon fill="white" stroke="#666666" points="126,-96 21,-96 21,-66 126,-66 126,-96"/>
<text text-anchor="start" x="29" y="-84" font-family="Helvetica,sans-Serif" font-size="10.00">tracktion::engine::</text>
<text text-anchor="middle" x="73.5" y="-73" font-family="Helvetica,sans-Serif" font-size="10.00">MidiOutputDevice</text>
</a>
</g>
</g>
<!-- Node1&#45;&gt;Node3 -->
<g id="edge2_Node000001_Node000003" class="edge">
<title>Node1&#45;&gt;Node3</title>
<g id="a_edge2_Node000001_Node000003"><a xlink:title=" ">
<path fill="none" stroke="#63b8ff" d="M115.48,-124.65C106.25,-115.27 95.67,-104.53 87.44,-96.16"/>
<polygon fill="#63b8ff" stroke="#63b8ff" points="113.01,-127.13 122.52,-131.8 118,-122.21 113.01,-127.13"/>
</a>
</g>
</g>
<!-- Node5 -->
<g id="Node000005" class="node">
<title>Node5</title>
<g id="a_Node000005"><a xlink:href="classtracktion_1_1engine_1_1WaveOutputDevice.html" target="_top" xlink:title="A (virtual) audio output device.">
<polygon fill="white" stroke="#666666" points="254.5,-96 144.5,-96 144.5,-66 254.5,-66 254.5,-96"/>
<text text-anchor="start" x="152.5" y="-84" font-family="Helvetica,sans-Serif" font-size="10.00">tracktion::engine::</text>
<text text-anchor="middle" x="199.5" y="-73" font-family="Helvetica,sans-Serif" font-size="10.00">WaveOutputDevice</text>
</a>
</g>
</g>
<!-- Node1&#45;&gt;Node5 -->
<g id="edge4_Node000001_Node000005" class="edge">
<title>Node1&#45;&gt;Node5</title>
<g id="a_edge4_Node000001_Node000005"><a xlink:title=" ">
<path fill="none" stroke="#63b8ff" d="M157.52,-124.65C166.75,-115.27 177.33,-104.53 185.56,-96.16"/>
<polygon fill="#63b8ff" stroke="#63b8ff" points="155,-122.21 150.48,-131.8 159.99,-127.13 155,-122.21"/>
</a>
</g>
</g>
<!-- Node2 -->
<g id="Node000002" class="node">
<title>Node2</title>
<g id="a_Node000002"><a xlink:href="classtracktion_1_1engine_1_1Selectable.html" target="_top" xlink:title="Base class for things that can be selected, and whose properties can appear in the properties panel.">
<polygon fill="white" stroke="#666666" points="189,-228 84,-228 84,-198 189,-198 189,-228"/>
<text text-anchor="start" x="92" y="-216" font-family="Helvetica,sans-Serif" font-size="10.00">tracktion::engine::</text>
<text text-anchor="middle" x="136.5" y="-205" font-family="Helvetica,sans-Serif" font-size="10.00">Selectable</text>
</a>
</g>
</g>
<!-- Node2&#45;&gt;Node1 -->
<g id="edge1_Node000001_Node000002" class="edge">
<title>Node2&#45;&gt;Node1</title>
<g id="a_edge1_Node000001_Node000002"><a xlink:title=" ">
<path fill="none" stroke="#63b8ff" d="M136.5,-187.54C136.5,-178.96 136.5,-169.61 136.5,-162.16"/>
<polygon fill="#63b8ff" stroke="#63b8ff" points="133,-187.8 136.5,-197.8 140,-187.8 133,-187.8"/>
</a>
</g>
</g>
<!-- Node4 -->
<g id="Node000004" class="node">
<title>Node4</title>
<g id="a_Node000004"><a xlink:href="classtracktion_1_1engine_1_1SoftwareMidiOutputDevice.html" target="_top" xlink:title="Create a software midi port on macOS.">
<polygon fill="white" stroke="#666666" points="147,-30 0,-30 0,0 147,0 147,-30"/>
<text text-anchor="start" x="8" y="-18" font-family="Helvetica,sans-Serif" font-size="10.00">tracktion::engine::</text>
<text text-anchor="middle" x="73.5" y="-7" font-family="Helvetica,sans-Serif" font-size="10.00">SoftwareMidiOutputDevice</text>
</a>
</g>
</g>
<!-- Node3&#45;&gt;Node4 -->
<g id="edge3_Node000003_Node000004" class="edge">
<title>Node3&#45;&gt;Node4</title>
<g id="a_edge3_Node000003_Node000004"><a xlink:title=" ">
<path fill="none" stroke="#63b8ff" d="M73.5,-55.54C73.5,-46.96 73.5,-37.61 73.5,-30.16"/>
<polygon fill="#63b8ff" stroke="#63b8ff" points="70,-55.8 73.5,-65.8 77,-55.8 70,-55.8"/>
</a>
</g>
</g>
</g>
</svg>
