<?xml version="1.0" encoding="UTF-8" standalone="no"?>
<!DOCTYPE svg PUBLIC "-//W3C//DTD SVG 1.1//EN"
 "http://www.w3.org/Graphics/SVG/1.1/DTD/svg11.dtd">
<!-- Generated by graphviz version 2.43.0 (0)
 -->
<!-- Title: tracktion::engine::Clip Pages: 1 -->
<svg width="696pt" height="284pt"
 viewBox="0.00 0.00 696.00 284.00" xmlns="http://www.w3.org/2000/svg" xmlns:xlink="http://www.w3.org/1999/xlink">
<g id="graph0" class="graph" transform="scale(1 1) rotate(0) translate(4 280)">
<title>tracktion::engine::Clip</title>
<!-- Node1 -->
<g id="node1" class="node">
<title>Node1</title>
<g id="a_node1"><a xlink:title="A clip in an edit.">
<polygon fill="#bfbfbf" stroke="black" points="282,-128 282,-147 406,-147 406,-128 282,-128"/>
<text text-anchor="middle" x="344" y="-135" font-family="Helvetica,sans-Serif" font-size="10.00">tracktion::engine::Clip</text>
</a>
</g>
</g>
<!-- Node6 -->
<g id="node6" class="node">
<title>Node6</title>
<g id="a_node6"><a xlink:href="classtracktion_1_1engine_1_1ArrangerClip.html" target="_top" xlink:title=" ">
<polygon fill="none" stroke="black" points="442,-245.5 442,-275.5 547,-275.5 547,-245.5 442,-245.5"/>
<text text-anchor="start" x="450" y="-263.5" font-family="Helvetica,sans-Serif" font-size="10.00">tracktion::engine::</text>
<text text-anchor="middle" x="494.5" y="-252.5" font-family="Helvetica,sans-Serif" font-size="10.00">ArrangerClip</text>
</a>
</g>
</g>
<!-- Node1&#45;&gt;Node6 -->
<g id="edge5" class="edge">
<title>Node1&#45;&gt;Node6</title>
<path fill="none" stroke="midnightblue" d="M359.12,-155.04C376.8,-176.16 408.81,-211.74 442,-235.5 447.01,-239.09 452.62,-242.4 458.23,-245.37"/>
<polygon fill="midnightblue" stroke="midnightblue" points="361.73,-152.7 352.67,-147.2 356.32,-157.15 361.73,-152.7"/>
</g>
<!-- Node7 -->
<g id="node7" class="node">
<title>Node7</title>
<g id="a_node7"><a xlink:href="classtracktion_1_1engine_1_1AudioClipBase.html" target="_top" xlink:title="Base class for Clips that produce some kind of audio e.g.">
<polygon fill="none" stroke="black" points="442,-196.5 442,-226.5 547,-226.5 547,-196.5 442,-196.5"/>
<text text-anchor="start" x="450" y="-214.5" font-family="Helvetica,sans-Serif" font-size="10.00">tracktion::engine::</text>
<text text-anchor="middle" x="494.5" y="-203.5" font-family="Helvetica,sans-Serif" font-size="10.00">AudioClipBase</text>
</a>
</g>
</g>
<!-- Node1&#45;&gt;Node7 -->
<g id="edge6" class="edge">
<title>Node1&#45;&gt;Node7</title>
<path fill="none" stroke="midnightblue" d="M373.07,-151.83C392.41,-161.66 418.71,-174.97 442,-186.5 448.5,-189.72 455.48,-193.14 462.14,-196.38"/>
<polygon fill="midnightblue" stroke="midnightblue" points="374.41,-148.58 363.91,-147.17 371.24,-154.82 374.41,-148.58"/>
</g>
<!-- Node10 -->
<g id="node10" class="node">
<title>Node10</title>
<g id="a_node10"><a xlink:href="classtracktion_1_1engine_1_1ChordClip.html" target="_top" xlink:title=" ">
<polygon fill="none" stroke="black" points="442,-147.5 442,-177.5 547,-177.5 547,-147.5 442,-147.5"/>
<text text-anchor="start" x="450" y="-165.5" font-family="Helvetica,sans-Serif" font-size="10.00">tracktion::engine::</text>
<text text-anchor="middle" x="494.5" y="-154.5" font-family="Helvetica,sans-Serif" font-size="10.00">ChordClip</text>
</a>
</g>
</g>
<!-- Node1&#45;&gt;Node10 -->
<g id="edge9" class="edge">
<title>Node1&#45;&gt;Node10</title>
<path fill="none" stroke="midnightblue" d="M411.65,-148.72C421.82,-150.43 432.18,-152.18 441.97,-153.82"/>
<polygon fill="midnightblue" stroke="midnightblue" points="412.01,-145.23 401.57,-147.02 410.85,-152.13 412.01,-145.23"/>
</g>
<!-- Node11 -->
<g id="node11" class="node">
<title>Node11</title>
<g id="a_node11"><a xlink:href="classtracktion_1_1engine_1_1MarkerClip.html" target="_top" xlink:title=" ">
<polygon fill="none" stroke="black" points="442,-98.5 442,-128.5 547,-128.5 547,-98.5 442,-98.5"/>
<text text-anchor="start" x="450" y="-116.5" font-family="Helvetica,sans-Serif" font-size="10.00">tracktion::engine::</text>
<text text-anchor="middle" x="494.5" y="-105.5" font-family="Helvetica,sans-Serif" font-size="10.00">MarkerClip</text>
</a>
</g>
</g>
<!-- Node1&#45;&gt;Node11 -->
<g id="edge10" class="edge">
<title>Node1&#45;&gt;Node11</title>
<path fill="none" stroke="midnightblue" d="M414.14,-126.33C423.44,-124.82 432.85,-123.3 441.78,-121.86"/>
<polygon fill="midnightblue" stroke="midnightblue" points="413.43,-122.89 404.12,-127.95 414.55,-129.81 413.43,-122.89"/>
</g>
<!-- Node12 -->
<g id="node12" class="node">
<title>Node12</title>
<g id="a_node12"><a xlink:href="classtracktion_1_1engine_1_1MidiClip.html" target="_top" xlink:title=" ">
<polygon fill="none" stroke="black" points="442,-49.5 442,-79.5 547,-79.5 547,-49.5 442,-49.5"/>
<text text-anchor="start" x="450" y="-67.5" font-family="Helvetica,sans-Serif" font-size="10.00">tracktion::engine::</text>
<text text-anchor="middle" x="494.5" y="-56.5" font-family="Helvetica,sans-Serif" font-size="10.00">MidiClip</text>
</a>
</g>
</g>
<!-- Node1&#45;&gt;Node12 -->
<g id="edge11" class="edge">
<title>Node1&#45;&gt;Node12</title>
<path fill="none" stroke="midnightblue" d="M372.65,-123.24C392,-113.33 418.48,-99.92 442,-88.5 448.03,-85.57 454.5,-82.5 460.73,-79.58"/>
<polygon fill="midnightblue" stroke="midnightblue" points="370.81,-120.25 363.51,-127.93 374,-126.48 370.81,-120.25"/>
</g>
<!-- Node13 -->
<g id="node13" class="node">
<title>Node13</title>
<g id="a_node13"><a xlink:href="classtracktion_1_1engine_1_1StepClip.html" target="_top" xlink:title=" ">
<polygon fill="none" stroke="black" points="442,-0.5 442,-30.5 547,-30.5 547,-0.5 442,-0.5"/>
<text text-anchor="start" x="450" y="-18.5" font-family="Helvetica,sans-Serif" font-size="10.00">tracktion::engine::</text>
<text text-anchor="middle" x="494.5" y="-7.5" font-family="Helvetica,sans-Serif" font-size="10.00">StepClip</text>
</a>
</g>
</g>
<!-- Node1&#45;&gt;Node13 -->
<g id="edge12" class="edge">
<title>Node1&#45;&gt;Node13</title>
<path fill="none" stroke="midnightblue" d="M359.06,-119.87C376.68,-98.67 408.62,-62.99 442,-39.5 446.6,-36.26 451.7,-33.28 456.86,-30.59"/>
<polygon fill="midnightblue" stroke="midnightblue" points="356.25,-117.78 352.63,-127.74 361.67,-122.21 356.25,-117.78"/>
</g>
<!-- Node2 -->
<g id="node2" class="node">
<title>Node2</title>
<g id="a_node2"><a xlink:href="classtracktion_1_1engine_1_1TrackItem.html" target="_top" xlink:title="Base class for EditItems that live in a Track, e.g.">
<polygon fill="none" stroke="black" points="141,-147.5 141,-177.5 246,-177.5 246,-147.5 141,-147.5"/>
<text text-anchor="start" x="149" y="-165.5" font-family="Helvetica,sans-Serif" font-size="10.00">tracktion::engine::</text>
<text text-anchor="middle" x="193.5" y="-154.5" font-family="Helvetica,sans-Serif" font-size="10.00">TrackItem</text>
</a>
</g>
</g>
<!-- Node2&#45;&gt;Node1 -->
<g id="edge1" class="edge">
<title>Node2&#45;&gt;Node1</title>
<path fill="none" stroke="midnightblue" d="M255.99,-152.15C266.09,-150.45 276.52,-148.69 286.5,-147.01"/>
<polygon fill="midnightblue" stroke="midnightblue" points="255.3,-148.71 246.02,-153.83 256.46,-155.62 255.3,-148.71"/>
</g>
<!-- Node3 -->
<g id="node3" class="node">
<title>Node3</title>
<g id="a_node3"><a xlink:href="classtracktion_1_1engine_1_1EditItem.html" target="_top" xlink:title="Base class for objects that live inside an edit &#45; e.g.">
<polygon fill="none" stroke="black" points="0,-171.5 0,-201.5 105,-201.5 105,-171.5 0,-171.5"/>
<text text-anchor="start" x="8" y="-189.5" font-family="Helvetica,sans-Serif" font-size="10.00">tracktion::engine::</text>
<text text-anchor="middle" x="52.5" y="-178.5" font-family="Helvetica,sans-Serif" font-size="10.00">EditItem</text>
</a>
</g>
</g>
<!-- Node3&#45;&gt;Node2 -->
<g id="edge2" class="edge">
<title>Node3&#45;&gt;Node2</title>
<path fill="none" stroke="midnightblue" d="M115.16,-175.85C123.69,-174.38 132.38,-172.88 140.7,-171.44"/>
<polygon fill="midnightblue" stroke="midnightblue" points="114.52,-172.41 105.26,-177.56 115.71,-179.31 114.52,-172.41"/>
</g>
<!-- Node4 -->
<g id="node4" class="node">
<title>Node4</title>
<g id="a_node4"><a xlink:href="classtracktion_1_1engine_1_1Selectable.html" target="_top" xlink:title="Base class for things that can be selected, and whose properties can appear in the properties panel.">
<polygon fill="none" stroke="black" points="0,-122.5 0,-152.5 105,-152.5 105,-122.5 0,-122.5"/>
<text text-anchor="start" x="8" y="-140.5" font-family="Helvetica,sans-Serif" font-size="10.00">tracktion::engine::</text>
<text text-anchor="middle" x="52.5" y="-129.5" font-family="Helvetica,sans-Serif" font-size="10.00">Selectable</text>
</a>
</g>
</g>
<!-- Node4&#45;&gt;Node2 -->
<g id="edge3" class="edge">
<title>Node4&#45;&gt;Node2</title>
<path fill="none" stroke="midnightblue" d="M115.16,-148.59C123.69,-150.12 132.38,-151.69 140.7,-153.18"/>
<polygon fill="midnightblue" stroke="midnightblue" points="115.72,-145.13 105.26,-146.81 114.48,-152.02 115.72,-145.13"/>
</g>
<!-- Node5 -->
<g id="node5" class="node">
<title>Node5</title>
<g id="a_node5"><a xlink:href="classtracktion_1_1engine_1_1Exportable.html" target="_top" xlink:title="An interface for objects within an edit that can be exported.">
<polygon fill="none" stroke="black" points="141,-98.5 141,-128.5 246,-128.5 246,-98.5 141,-98.5"/>
<text text-anchor="start" x="149" y="-116.5" font-family="Helvetica,sans-Serif" font-size="10.00">tracktion::engine::</text>
<text text-anchor="middle" x="193.5" y="-105.5" font-family="Helvetica,sans-Serif" font-size="10.00">Exportable</text>
</a>
</g>
</g>
<!-- Node5&#45;&gt;Node1 -->
<g id="edge4" class="edge">
<title>Node5&#45;&gt;Node1</title>
<path fill="none" stroke="midnightblue" d="M256,-123.44C265.32,-124.95 274.92,-126.5 284.19,-128"/>
<polygon fill="midnightblue" stroke="midnightblue" points="256.45,-119.97 246.02,-121.83 255.33,-126.88 256.45,-119.97"/>
</g>
<!-- Node8 -->
<g id="node8" class="node">
<title>Node8</title>
<g id="a_node8"><a xlink:href="classtracktion_1_1engine_1_1EditClip.html" target="_top" xlink:title="This is the main source of an Edit clip and is responsible for managing its properties.">
<polygon fill="none" stroke="black" points="583,-220.5 583,-250.5 688,-250.5 688,-220.5 583,-220.5"/>
<text text-anchor="start" x="591" y="-238.5" font-family="Helvetica,sans-Serif" font-size="10.00">tracktion::engine::</text>
<text text-anchor="middle" x="635.5" y="-227.5" font-family="Helvetica,sans-Serif" font-size="10.00">EditClip</text>
</a>
</g>
</g>
<!-- Node7&#45;&gt;Node8 -->
<g id="edge7" class="edge">
<title>Node7&#45;&gt;Node8</title>
<path fill="none" stroke="midnightblue" d="M557.16,-222.15C565.69,-223.62 574.38,-225.12 582.7,-226.56"/>
<polygon fill="midnightblue" stroke="midnightblue" points="557.71,-218.69 547.26,-220.44 556.52,-225.59 557.71,-218.69"/>
</g>
<!-- Node9 -->
<g id="node9" class="node">
<title>Node9</title>
<g id="a_node9"><a xlink:href="classtracktion_1_1engine_1_1WaveAudioClip.html" target="_top" xlink:title="An audio clip that uses an audio file as its source.">
<polygon fill="none" stroke="black" points="583,-171.5 583,-201.5 688,-201.5 688,-171.5 583,-171.5"/>
<text text-anchor="start" x="591" y="-189.5" font-family="Helvetica,sans-Serif" font-size="10.00">tracktion::engine::</text>
<text text-anchor="middle" x="635.5" y="-178.5" font-family="Helvetica,sans-Serif" font-size="10.00">WaveAudioClip</text>
</a>
</g>
</g>
<!-- Node7&#45;&gt;Node9 -->
<g id="edge8" class="edge">
<title>Node7&#45;&gt;Node9</title>
<path fill="none" stroke="midnightblue" d="M557.16,-200.41C565.69,-198.88 574.38,-197.31 582.7,-195.82"/>
<polygon fill="midnightblue" stroke="midnightblue" points="556.48,-196.98 547.26,-202.19 557.72,-203.87 556.48,-196.98"/>
</g>
</g>
</svg>
