<?xml version="1.0" encoding="UTF-8" standalone="no"?>
<!DOCTYPE svg PUBLIC "-//W3C//DTD SVG 1.1//EN"
 "http://www.w3.org/Graphics/SVG/1.1/DTD/svg11.dtd">
<!-- Generated by graphviz version 2.43.0 (0)
 -->
<!-- Title: tracktion::engine::ThreadPoolJobWithProgress Pages: 1 -->
<svg width="468pt" height="194pt"
 viewBox="0.00 0.00 468.00 193.50" xmlns="http://www.w3.org/2000/svg" xmlns:xlink="http://www.w3.org/1999/xlink">
<g id="graph0" class="graph" transform="scale(1 1) rotate(0) translate(4 189.5)">
<title>tracktion::engine::ThreadPoolJobWithProgress</title>
<!-- Node1 -->
<g id="Node000001" class="node">
<title>Node1</title>
<g id="a_Node000001"><a xlink:title=" ">
<polygon fill="#999999" stroke="#666666" points="151,-126 0,-126 0,-96 151,-96 151,-126"/>
<text text-anchor="start" x="8" y="-114" font-family="Helvetica,sans-Serif" font-size="10.00">tracktion::engine::</text>
<text text-anchor="middle" x="75.5" y="-103" font-family="Helvetica,sans-Serif" font-size="10.00">ThreadPoolJobWithProgress</text>
</a>
</g>
</g>
<!-- Node2 -->
<g id="Node000002" class="node">
<title>Node2</title>
<g id="a_Node000002"><a xlink:href="structtracktion_1_1engine_1_1AudioProxyGenerator_1_1GeneratorJob.html" target="_top" xlink:title=" ">
<polygon fill="white" stroke="#666666" points="308,-185.5 187,-185.5 187,-144.5 308,-144.5 308,-185.5"/>
<text text-anchor="start" x="195" y="-173.5" font-family="Helvetica,sans-Serif" font-size="10.00">tracktion::engine::</text>
<text text-anchor="start" x="195" y="-162.5" font-family="Helvetica,sans-Serif" font-size="10.00">AudioProxyGenerator</text>
<text text-anchor="middle" x="247.5" y="-151.5" font-family="Helvetica,sans-Serif" font-size="10.00">::GeneratorJob</text>
</a>
</g>
</g>
<!-- Node1&#45;&gt;Node2 -->
<g id="edge1_Node000001_Node000002" class="edge">
<title>Node1&#45;&gt;Node2</title>
<g id="a_edge1_Node000001_Node000002"><a xlink:title=" ">
<path fill="none" stroke="#63b8ff" d="M133.72,-129.18C150.85,-134.62 169.68,-140.6 186.95,-146.09"/>
<polygon fill="#63b8ff" stroke="#63b8ff" points="134.44,-125.73 123.85,-126.04 132.33,-132.41 134.44,-125.73"/>
</a>
</g>
</g>
<!-- Node3 -->
<g id="Node000003" class="node">
<title>Node3</title>
<g id="a_Node000003"><a xlink:href="classtracktion_1_1engine_1_1ExportJob.html" target="_top" xlink:title=" ">
<polygon fill="white" stroke="#666666" points="300,-126 195,-126 195,-96 300,-96 300,-126"/>
<text text-anchor="start" x="203" y="-114" font-family="Helvetica,sans-Serif" font-size="10.00">tracktion::engine::</text>
<text text-anchor="middle" x="247.5" y="-103" font-family="Helvetica,sans-Serif" font-size="10.00">ExportJob</text>
</a>
</g>
</g>
<!-- Node1&#45;&gt;Node3 -->
<g id="edge2_Node000001_Node000003" class="edge">
<title>Node1&#45;&gt;Node3</title>
<g id="a_edge2_Node000001_Node000003"><a xlink:title=" ">
<path fill="none" stroke="#63b8ff" d="M161.17,-111C172.71,-111 184.25,-111 194.94,-111"/>
<polygon fill="#63b8ff" stroke="#63b8ff" points="161.06,-107.5 151.06,-111 161.06,-114.5 161.06,-107.5"/>
</a>
</g>
</g>
<!-- Node4 -->
<g id="Node000004" class="node">
<title>Node4</title>
<g id="a_Node000004"><a xlink:href="classtracktion_1_1engine_1_1RenderManager_1_1Job.html" target="_top" xlink:title="The base class that all generator jobs derive from.">
<polygon fill="white" stroke="#666666" points="305,-78 190,-78 190,-48 305,-48 305,-78"/>
<text text-anchor="start" x="198" y="-66" font-family="Helvetica,sans-Serif" font-size="10.00">tracktion::engine::</text>
<text text-anchor="middle" x="247.5" y="-55" font-family="Helvetica,sans-Serif" font-size="10.00">RenderManager::Job</text>
</a>
</g>
</g>
<!-- Node1&#45;&gt;Node4 -->
<g id="edge3_Node000001_Node000004" class="edge">
<title>Node1&#45;&gt;Node4</title>
<g id="a_edge3_Node000001_Node000004"><a xlink:title=" ">
<path fill="none" stroke="#63b8ff" d="M139.5,-93.21C157.21,-88.21 176.29,-82.82 193.37,-78"/>
<polygon fill="#63b8ff" stroke="#63b8ff" points="138.5,-89.86 129.82,-95.94 140.4,-96.6 138.5,-89.86"/>
</a>
</g>
</g>
<!-- Node5 -->
<g id="Node000005" class="node">
<title>Node5</title>
<g id="a_Node000005"><a xlink:href="classtracktion_1_1engine_1_1EditRenderJob.html" target="_top" xlink:title=" ">
<polygon fill="white" stroke="#666666" points="454.5,-126 349.5,-126 349.5,-96 454.5,-96 454.5,-126"/>
<text text-anchor="start" x="357.5" y="-114" font-family="Helvetica,sans-Serif" font-size="10.00">tracktion::engine::</text>
<text text-anchor="middle" x="402" y="-103" font-family="Helvetica,sans-Serif" font-size="10.00">EditRenderJob</text>
</a>
</g>
</g>
<!-- Node4&#45;&gt;Node5 -->
<g id="edge4_Node000004_Node000005" class="edge">
<title>Node4&#45;&gt;Node5</title>
<g id="a_edge4_Node000004_Node000005"><a xlink:title=" ">
<path fill="none" stroke="#63b8ff" d="M305.9,-81.07C321.54,-85.99 338.3,-91.27 353.34,-96"/>
<polygon fill="#63b8ff" stroke="#63b8ff" points="306.92,-77.72 296.33,-78.06 304.82,-84.4 306.92,-77.72"/>
</a>
</g>
</g>
<!-- Node6 -->
<g id="Node000006" class="node">
<title>Node6</title>
<g id="a_Node000006"><a xlink:href="classtracktion_1_1engine_1_1ReverseRenderJob.html" target="_top" xlink:title=" ">
<polygon fill="white" stroke="#666666" points="455,-78 349,-78 349,-48 455,-48 455,-78"/>
<text text-anchor="start" x="357" y="-66" font-family="Helvetica,sans-Serif" font-size="10.00">tracktion::engine::</text>
<text text-anchor="middle" x="402" y="-55" font-family="Helvetica,sans-Serif" font-size="10.00">ReverseRenderJob</text>
</a>
</g>
</g>
<!-- Node4&#45;&gt;Node6 -->
<g id="edge5_Node000004_Node000006" class="edge">
<title>Node4&#45;&gt;Node6</title>
<g id="a_edge5_Node000004_Node000006"><a xlink:title=" ">
<path fill="none" stroke="#63b8ff" d="M315.42,-63C326.57,-63 337.99,-63 348.7,-63"/>
<polygon fill="#63b8ff" stroke="#63b8ff" points="315.29,-59.5 305.29,-63 315.29,-66.5 315.29,-59.5"/>
</a>
</g>
</g>
<!-- Node7 -->
<g id="Node000007" class="node">
<title>Node7</title>
<g id="a_Node000007"><a xlink:href="classtracktion_1_1engine_1_1WarpTimeRenderJob.html" target="_top" xlink:title=" ">
<polygon fill="white" stroke="#666666" points="460,-30 344,-30 344,0 460,0 460,-30"/>
<text text-anchor="start" x="352" y="-18" font-family="Helvetica,sans-Serif" font-size="10.00">tracktion::engine::</text>
<text text-anchor="middle" x="402" y="-7" font-family="Helvetica,sans-Serif" font-size="10.00">WarpTimeRenderJob</text>
</a>
</g>
</g>
<!-- Node4&#45;&gt;Node7 -->
<g id="edge6_Node000004_Node000007" class="edge">
<title>Node4&#45;&gt;Node7</title>
<g id="a_edge6_Node000004_Node000007"><a xlink:title=" ">
<path fill="none" stroke="#63b8ff" d="M305.9,-44.93C321.54,-40.01 338.3,-34.73 353.34,-30"/>
<polygon fill="#63b8ff" stroke="#63b8ff" points="304.82,-41.6 296.33,-47.94 306.92,-48.28 304.82,-41.6"/>
</a>
</g>
</g>
</g>
</svg>
