<?xml version="1.0" encoding="UTF-8" standalone="no"?>
<!DOCTYPE svg PUBLIC "-//W3C//DTD SVG 1.1//EN"
 "http://www.w3.org/Graphics/SVG/1.1/DTD/svg11.dtd">
<!-- Generated by graphviz version 2.43.0 (0)
 -->
<!-- Title: tracktion::engine::Track Pages: 1 -->
<svg width="536pt" height="259pt"
 viewBox="0.00 0.00 536.00 259.00" xmlns="http://www.w3.org/2000/svg" xmlns:xlink="http://www.w3.org/1999/xlink">
<g id="graph0" class="graph" transform="scale(1 1) rotate(0) translate(4 255)">
<title>tracktion::engine::Track</title>
<!-- Node1 -->
<g id="node1" class="node">
<title>Node1</title>
<g id="a_node1"><a xlink:title="Base class for tracks which contain clips and plugins and can be added to Edit[s].">
<polygon fill="#bfbfbf" stroke="black" points="141,-98.5 141,-128.5 246,-128.5 246,-98.5 141,-98.5"/>
<text text-anchor="start" x="149" y="-116.5" font-family="Helvetica,sans-Serif" font-size="10.00">tracktion::engine::</text>
<text text-anchor="middle" x="193.5" y="-105.5" font-family="Helvetica,sans-Serif" font-size="10.00">Track</text>
</a>
</g>
</g>
<!-- Node4 -->
<g id="node4" class="node">
<title>Node4</title>
<g id="a_node4"><a xlink:href="classtracktion_1_1engine_1_1AutomationTrack.html" target="_top" xlink:title=" ">
<polygon fill="none" stroke="black" points="282,-196.5 282,-226.5 387,-226.5 387,-196.5 282,-196.5"/>
<text text-anchor="start" x="290" y="-214.5" font-family="Helvetica,sans-Serif" font-size="10.00">tracktion::engine::</text>
<text text-anchor="middle" x="334.5" y="-203.5" font-family="Helvetica,sans-Serif" font-size="10.00">AutomationTrack</text>
</a>
</g>
</g>
<!-- Node1&#45;&gt;Node4 -->
<g id="edge3" class="edge">
<title>Node1&#45;&gt;Node4</title>
<path fill="none" stroke="midnightblue" d="M217.63,-136.04C234.54,-151.74 258.52,-172.48 282,-187.5 286.99,-190.69 292.46,-193.7 297.93,-196.45"/>
<polygon fill="midnightblue" stroke="midnightblue" points="219.61,-133.1 209.94,-128.78 214.81,-138.19 219.61,-133.1"/>
</g>
<!-- Node5 -->
<g id="node5" class="node">
<title>Node5</title>
<g id="a_node5"><a xlink:href="classtracktion_1_1engine_1_1ClipTrack.html" target="_top" xlink:title=" ">
<polygon fill="none" stroke="black" points="282,-147.5 282,-177.5 387,-177.5 387,-147.5 282,-147.5"/>
<text text-anchor="start" x="290" y="-165.5" font-family="Helvetica,sans-Serif" font-size="10.00">tracktion::engine::</text>
<text text-anchor="middle" x="334.5" y="-154.5" font-family="Helvetica,sans-Serif" font-size="10.00">ClipTrack</text>
</a>
</g>
</g>
<!-- Node1&#45;&gt;Node5 -->
<g id="edge4" class="edge">
<title>Node1&#45;&gt;Node5</title>
<path fill="none" stroke="midnightblue" d="M247.08,-132.04C261.44,-137.1 276.82,-142.52 290.56,-147.36"/>
<polygon fill="midnightblue" stroke="midnightblue" points="247.93,-128.63 237.34,-128.6 245.61,-135.23 247.93,-128.63"/>
</g>
<!-- Node10 -->
<g id="node10" class="node">
<title>Node10</title>
<g id="a_node10"><a xlink:href="classtracktion_1_1engine_1_1FolderTrack.html" target="_top" xlink:title=" ">
<polygon fill="none" stroke="black" points="282,-98.5 282,-128.5 387,-128.5 387,-98.5 282,-98.5"/>
<text text-anchor="start" x="290" y="-116.5" font-family="Helvetica,sans-Serif" font-size="10.00">tracktion::engine::</text>
<text text-anchor="middle" x="334.5" y="-105.5" font-family="Helvetica,sans-Serif" font-size="10.00">FolderTrack</text>
</a>
</g>
</g>
<!-- Node1&#45;&gt;Node10 -->
<g id="edge9" class="edge">
<title>Node1&#45;&gt;Node10</title>
<path fill="none" stroke="midnightblue" d="M256.44,-113.5C264.88,-113.5 273.47,-113.5 281.7,-113.5"/>
<polygon fill="midnightblue" stroke="midnightblue" points="256.26,-110 246.26,-113.5 256.26,-117 256.26,-110"/>
</g>
<!-- Node11 -->
<g id="node11" class="node">
<title>Node11</title>
<g id="a_node11"><a xlink:href="classtracktion_1_1engine_1_1MasterTrack.html" target="_top" xlink:title="A track to represent the master plugins.">
<polygon fill="none" stroke="black" points="282,-49.5 282,-79.5 387,-79.5 387,-49.5 282,-49.5"/>
<text text-anchor="start" x="290" y="-67.5" font-family="Helvetica,sans-Serif" font-size="10.00">tracktion::engine::</text>
<text text-anchor="middle" x="334.5" y="-56.5" font-family="Helvetica,sans-Serif" font-size="10.00">MasterTrack</text>
</a>
</g>
</g>
<!-- Node1&#45;&gt;Node11 -->
<g id="edge10" class="edge">
<title>Node1&#45;&gt;Node11</title>
<path fill="none" stroke="midnightblue" d="M247.08,-94.96C261.44,-89.9 276.82,-84.48 290.56,-79.64"/>
<polygon fill="midnightblue" stroke="midnightblue" points="245.61,-91.77 237.34,-98.4 247.93,-98.37 245.61,-91.77"/>
</g>
<!-- Node12 -->
<g id="node12" class="node">
<title>Node12</title>
<g id="a_node12"><a xlink:href="classtracktion_1_1engine_1_1TempoTrack.html" target="_top" xlink:title="A track to represent the &quot;global&quot; items such as tempo, key changes etc.">
<polygon fill="none" stroke="black" points="282,-0.5 282,-30.5 387,-30.5 387,-0.5 282,-0.5"/>
<text text-anchor="start" x="290" y="-18.5" font-family="Helvetica,sans-Serif" font-size="10.00">tracktion::engine::</text>
<text text-anchor="middle" x="334.5" y="-7.5" font-family="Helvetica,sans-Serif" font-size="10.00">TempoTrack</text>
</a>
</g>
</g>
<!-- Node1&#45;&gt;Node12 -->
<g id="edge11" class="edge">
<title>Node1&#45;&gt;Node12</title>
<path fill="none" stroke="midnightblue" d="M217.63,-90.96C234.54,-75.26 258.52,-54.52 282,-39.5 286.99,-36.31 292.46,-33.3 297.93,-30.55"/>
<polygon fill="midnightblue" stroke="midnightblue" points="214.81,-88.81 209.94,-98.22 219.61,-93.9 214.81,-88.81"/>
</g>
<!-- Node2 -->
<g id="node2" class="node">
<title>Node2</title>
<g id="a_node2"><a xlink:href="classtracktion_1_1engine_1_1EditItem.html" target="_top" xlink:title="Base class for objects that live inside an edit &#45; e.g.">
<polygon fill="none" stroke="black" points="0,-123.5 0,-153.5 105,-153.5 105,-123.5 0,-123.5"/>
<text text-anchor="start" x="8" y="-141.5" font-family="Helvetica,sans-Serif" font-size="10.00">tracktion::engine::</text>
<text text-anchor="middle" x="52.5" y="-130.5" font-family="Helvetica,sans-Serif" font-size="10.00">EditItem</text>
</a>
</g>
</g>
<!-- Node2&#45;&gt;Node1 -->
<g id="edge1" class="edge">
<title>Node2&#45;&gt;Node1</title>
<path fill="none" stroke="midnightblue" d="M115.16,-127.41C123.69,-125.88 132.38,-124.31 140.7,-122.82"/>
<polygon fill="midnightblue" stroke="midnightblue" points="114.48,-123.98 105.26,-129.19 115.72,-130.87 114.48,-123.98"/>
</g>
<!-- Node3 -->
<g id="node3" class="node">
<title>Node3</title>
<g id="a_node3"><a xlink:href="classtracktion_1_1engine_1_1Selectable.html" target="_top" xlink:title="Base class for things that can be selected, and whose properties can appear in the properties panel.">
<polygon fill="none" stroke="black" points="0,-74.5 0,-104.5 105,-104.5 105,-74.5 0,-74.5"/>
<text text-anchor="start" x="8" y="-92.5" font-family="Helvetica,sans-Serif" font-size="10.00">tracktion::engine::</text>
<text text-anchor="middle" x="52.5" y="-81.5" font-family="Helvetica,sans-Serif" font-size="10.00">Selectable</text>
</a>
</g>
</g>
<!-- Node3&#45;&gt;Node1 -->
<g id="edge2" class="edge">
<title>Node3&#45;&gt;Node1</title>
<path fill="none" stroke="midnightblue" d="M115.16,-100.15C123.69,-101.62 132.38,-103.12 140.7,-104.56"/>
<polygon fill="midnightblue" stroke="midnightblue" points="115.71,-96.69 105.26,-98.44 114.52,-103.59 115.71,-96.69"/>
</g>
<!-- Node6 -->
<g id="node6" class="node">
<title>Node6</title>
<g id="a_node6"><a xlink:href="classtracktion_1_1engine_1_1ArrangerTrack.html" target="_top" xlink:title="A track similar to the MarkerTrack but can be used to move sections of an Edit around.">
<polygon fill="none" stroke="black" points="423,-220.5 423,-250.5 528,-250.5 528,-220.5 423,-220.5"/>
<text text-anchor="start" x="431" y="-238.5" font-family="Helvetica,sans-Serif" font-size="10.00">tracktion::engine::</text>
<text text-anchor="middle" x="475.5" y="-227.5" font-family="Helvetica,sans-Serif" font-size="10.00">ArrangerTrack</text>
</a>
</g>
</g>
<!-- Node5&#45;&gt;Node6 -->
<g id="edge5" class="edge">
<title>Node5&#45;&gt;Node6</title>
<path fill="none" stroke="midnightblue" d="M377.47,-182.28C380.72,-183.99 383.93,-185.74 387,-187.5 403.69,-197.05 406.24,-202.08 423,-211.5 428.5,-214.59 434.47,-217.64 440.33,-220.47"/>
<polygon fill="midnightblue" stroke="midnightblue" points="378.76,-179.01 368.27,-177.58 375.58,-185.24 378.76,-179.01"/>
</g>
<!-- Node7 -->
<g id="node7" class="node">
<title>Node7</title>
<g id="a_node7"><a xlink:href="classtracktion_1_1engine_1_1AudioTrack.html" target="_top" xlink:title=" ">
<polygon fill="none" stroke="black" points="423,-171.5 423,-201.5 528,-201.5 528,-171.5 423,-171.5"/>
<text text-anchor="start" x="431" y="-189.5" font-family="Helvetica,sans-Serif" font-size="10.00">tracktion::engine::</text>
<text text-anchor="middle" x="475.5" y="-178.5" font-family="Helvetica,sans-Serif" font-size="10.00">AudioTrack</text>
</a>
</g>
</g>
<!-- Node5&#45;&gt;Node7 -->
<g id="edge6" class="edge">
<title>Node5&#45;&gt;Node7</title>
<path fill="none" stroke="midnightblue" d="M397.16,-173.15C405.69,-174.62 414.38,-176.12 422.7,-177.56"/>
<polygon fill="midnightblue" stroke="midnightblue" points="397.71,-169.69 387.26,-171.44 396.52,-176.59 397.71,-169.69"/>
</g>
<!-- Node8 -->
<g id="node8" class="node">
<title>Node8</title>
<g id="a_node8"><a xlink:href="classtracktion_1_1engine_1_1ChordTrack.html" target="_top" xlink:title=" ">
<polygon fill="none" stroke="black" points="423,-122.5 423,-152.5 528,-152.5 528,-122.5 423,-122.5"/>
<text text-anchor="start" x="431" y="-140.5" font-family="Helvetica,sans-Serif" font-size="10.00">tracktion::engine::</text>
<text text-anchor="middle" x="475.5" y="-129.5" font-family="Helvetica,sans-Serif" font-size="10.00">ChordTrack</text>
</a>
</g>
</g>
<!-- Node5&#45;&gt;Node8 -->
<g id="edge7" class="edge">
<title>Node5&#45;&gt;Node8</title>
<path fill="none" stroke="midnightblue" d="M397.16,-151.41C405.69,-149.88 414.38,-148.31 422.7,-146.82"/>
<polygon fill="midnightblue" stroke="midnightblue" points="396.48,-147.98 387.26,-153.19 397.72,-154.87 396.48,-147.98"/>
</g>
<!-- Node9 -->
<g id="node9" class="node">
<title>Node9</title>
<g id="a_node9"><a xlink:href="classtracktion_1_1engine_1_1MarkerTrack.html" target="_top" xlink:title=" ">
<polygon fill="none" stroke="black" points="423,-73.5 423,-103.5 528,-103.5 528,-73.5 423,-73.5"/>
<text text-anchor="start" x="431" y="-91.5" font-family="Helvetica,sans-Serif" font-size="10.00">tracktion::engine::</text>
<text text-anchor="middle" x="475.5" y="-80.5" font-family="Helvetica,sans-Serif" font-size="10.00">MarkerTrack</text>
</a>
</g>
</g>
<!-- Node5&#45;&gt;Node9 -->
<g id="edge8" class="edge">
<title>Node5&#45;&gt;Node9</title>
<path fill="none" stroke="midnightblue" d="M379.17,-142.79C381.85,-141.39 384.47,-139.95 387,-138.5 403.89,-128.79 406.19,-123.34 423,-113.5 428.83,-110.09 435.2,-106.72 441.41,-103.62"/>
<polygon fill="midnightblue" stroke="midnightblue" points="377.34,-139.79 369.99,-147.42 380.5,-146.04 377.34,-139.79"/>
</g>
</g>
</svg>
