<?xml version="1.0" encoding="UTF-8" standalone="no"?>
<!DOCTYPE svg PUBLIC "-//W3C//DTD SVG 1.1//EN"
 "http://www.w3.org/Graphics/SVG/1.1/DTD/svg11.dtd">
<!-- Generated by graphviz version 2.40.1 (20161225.0304)
 -->
<!-- Title: tracktion_engine::soundtouch::FIFOSamplePipe Pages: 1 -->
<svg width="332pt" height="88pt"
 viewBox="0.00 0.00 332.00 88.00" xmlns="http://www.w3.org/2000/svg" xmlns:xlink="http://www.w3.org/1999/xlink">
<g id="graph0" class="graph" transform="scale(1 1) rotate(0) translate(4 84)">
<title>tracktion_engine::soundtouch::FIFOSamplePipe</title>
<!-- Node0 -->
<g id="node1" class="node">
<title>Node0</title>
<polygon fill="#bfbfbf" stroke="#000000" points="0,-24.5 0,-54.5 144,-54.5 144,-24.5 0,-24.5"/>
<text text-anchor="start" x="8" y="-42.5" font-family="Helvetica,sans-Serif" font-size="10.00" fill="#000000">tracktion_engine::soundtouch</text>
<text text-anchor="middle" x="72" y="-31.5" font-family="Helvetica,sans-Serif" font-size="10.00" fill="#000000">::FIFOSamplePipe</text>
</g>
<!-- Node1 -->
<g id="node2" class="node">
<title>Node1</title>
<g id="a_node2"><a xlink:href="classtracktion__engine_1_1soundtouch_1_1FIFOProcessor.html" target="_top" xlink:title="Base&#45;class for sound processing routines working in FIFO principle. ">
<polygon fill="none" stroke="#000000" points="180,-49.5 180,-79.5 324,-79.5 324,-49.5 180,-49.5"/>
<text text-anchor="start" x="188" y="-67.5" font-family="Helvetica,sans-Serif" font-size="10.00" fill="#000000">tracktion_engine::soundtouch</text>
<text text-anchor="middle" x="252" y="-56.5" font-family="Helvetica,sans-Serif" font-size="10.00" fill="#000000">::FIFOProcessor</text>
</a>
</g>
</g>
<!-- Node0&#45;&gt;Node1 -->
<g id="edge1" class="edge">
<title>Node0&#45;&gt;Node1</title>
<path fill="none" stroke="#191970" d="M154.16,-50.9111C162.7183,-52.0998 171.3719,-53.3017 179.8081,-54.4733"/>
<polygon fill="#191970" stroke="#191970" points="154.5622,-47.4335 144.1757,-49.5244 153.5991,-54.3669 154.5622,-47.4335"/>
</g>
<!-- Node2 -->
<g id="node3" class="node">
<title>Node2</title>
<g id="a_node3"><a xlink:href="classtracktion__engine_1_1soundtouch_1_1FIFOSampleBuffer.html" target="_top" xlink:title="Sample buffer working in FIFO (first&#45;in&#45;first&#45;out) principle. ">
<polygon fill="none" stroke="#000000" points="180,-.5 180,-30.5 324,-30.5 324,-.5 180,-.5"/>
<text text-anchor="start" x="188" y="-18.5" font-family="Helvetica,sans-Serif" font-size="10.00" fill="#000000">tracktion_engine::soundtouch</text>
<text text-anchor="middle" x="252" y="-7.5" font-family="Helvetica,sans-Serif" font-size="10.00" fill="#000000">::FIFOSampleBuffer</text>
</a>
</g>
</g>
<!-- Node0&#45;&gt;Node2 -->
<g id="edge2" class="edge">
<title>Node0&#45;&gt;Node2</title>
<path fill="none" stroke="#191970" d="M154.16,-28.5453C162.7183,-27.4042 171.3719,-26.2504 179.8081,-25.1256"/>
<polygon fill="#191970" stroke="#191970" points="153.6254,-25.0855 144.1757,-29.8766 154.5506,-32.0241 153.6254,-25.0855"/>
</g>
</g>
</svg>
