<?xml version="1.0" encoding="UTF-8" standalone="no"?>
<!DOCTYPE svg PUBLIC "-//W3C//DTD SVG 1.1//EN"
 "http://www.w3.org/Graphics/SVG/1.1/DTD/svg11.dtd">
<!-- Generated by graphviz version 2.43.0 (0)
 -->
<!-- Title: tracktion::engine::CurveEditor Pages: 1 -->
<svg width="351pt" height="137pt"
 viewBox="0.00 0.00 351.00 137.00" xmlns="http://www.w3.org/2000/svg" xmlns:xlink="http://www.w3.org/1999/xlink">
<g id="graph0" class="graph" transform="scale(1 1) rotate(0) translate(4 133)">
<title>tracktion::engine::CurveEditor</title>
<!-- Node1 -->
<g id="node1" class="node">
<title>Node1</title>
<g id="a_node1"><a xlink:title=" ">
<polygon fill="#bfbfbf" stroke="black" points="238,-49.5 238,-79.5 343,-79.5 343,-49.5 238,-49.5"/>
<text text-anchor="start" x="246" y="-67.5" font-family="Helvetica,sans-Serif" font-size="10.00">tracktion::engine::</text>
<text text-anchor="middle" x="290.5" y="-56.5" font-family="Helvetica,sans-Serif" font-size="10.00">CurveEditor</text>
</a>
</g>
</g>
<!-- Node2 -->
<g id="node2" class="node">
<title>Node2</title>
<g id="a_node2"><a xlink:href="classtracktion_1_1engine_1_1SelectableListener.html" target="_top" xlink:title=" ">
<polygon fill="none" stroke="black" points="47.5,-98.5 47.5,-128.5 154.5,-128.5 154.5,-98.5 47.5,-98.5"/>
<text text-anchor="start" x="55.5" y="-116.5" font-family="Helvetica,sans-Serif" font-size="10.00">tracktion::engine::</text>
<text text-anchor="middle" x="101" y="-105.5" font-family="Helvetica,sans-Serif" font-size="10.00">SelectableListener</text>
</a>
</g>
</g>
<!-- Node2&#45;&gt;Node1 -->
<g id="edge1" class="edge">
<title>Node2&#45;&gt;Node1</title>
<path fill="none" stroke="midnightblue" d="M164.39,-98.96C176.87,-95.93 189.87,-92.69 202,-89.5 213.77,-86.41 226.37,-82.92 238.24,-79.54"/>
<polygon fill="midnightblue" stroke="midnightblue" points="163.43,-95.59 154.52,-101.34 165.07,-102.4 163.43,-95.59"/>
</g>
<!-- Node3 -->
<g id="node3" class="node">
<title>Node3</title>
<g id="a_node3"><a xlink:href="classtracktion_1_1engine_1_1MouseHoverDetector.html" target="_top" xlink:title=" ">
<polygon fill="none" stroke="black" points="41,-49.5 41,-79.5 161,-79.5 161,-49.5 41,-49.5"/>
<text text-anchor="start" x="49" y="-67.5" font-family="Helvetica,sans-Serif" font-size="10.00">tracktion::engine::</text>
<text text-anchor="middle" x="101" y="-56.5" font-family="Helvetica,sans-Serif" font-size="10.00">MouseHoverDetector</text>
</a>
</g>
</g>
<!-- Node3&#45;&gt;Node1 -->
<g id="edge2" class="edge">
<title>Node3&#45;&gt;Node1</title>
<path fill="none" stroke="midnightblue" d="M171.34,-64.5C193.3,-64.5 217.18,-64.5 237.69,-64.5"/>
<polygon fill="midnightblue" stroke="midnightblue" points="171.07,-61 161.07,-64.5 171.07,-68 171.07,-61"/>
</g>
<!-- Node4 -->
<g id="node4" class="node">
<title>Node4</title>
<g id="a_node4"><a xlink:href="structtracktion_1_1engine_1_1TransparentToMouseInTrackItemComp.html" target="_top" xlink:title=" ">
<polygon fill="none" stroke="black" points="0,-0.5 0,-30.5 202,-30.5 202,-0.5 0,-0.5"/>
<text text-anchor="start" x="8" y="-18.5" font-family="Helvetica,sans-Serif" font-size="10.00">tracktion::engine::</text>
<text text-anchor="middle" x="101" y="-7.5" font-family="Helvetica,sans-Serif" font-size="10.00">TransparentToMouseInTrackItemComp</text>
</a>
</g>
</g>
<!-- Node4&#45;&gt;Node1 -->
<g id="edge3" class="edge">
<title>Node4&#45;&gt;Node1</title>
<path fill="none" stroke="midnightblue" d="M172.87,-33C182.66,-35.49 192.59,-38.03 202,-40.5 213.58,-43.54 226,-46.88 237.73,-50.09"/>
<polygon fill="midnightblue" stroke="midnightblue" points="173.69,-29.6 163.14,-30.55 171.98,-36.39 173.69,-29.6"/>
</g>
</g>
</svg>
