<?xml version="1.0" encoding="UTF-8" standalone="no"?>
<!DOCTYPE svg PUBLIC "-//W3C//DTD SVG 1.1//EN"
 "http://www.w3.org/Graphics/SVG/1.1/DTD/svg11.dtd">
<!-- Generated by graphviz version 2.43.0 (0)
 -->
<!-- Title: tracktion::engine::AudioNode Pages: 1 -->
<svg width="471pt" height="235pt"
 viewBox="0.00 0.00 471.00 235.00" xmlns="http://www.w3.org/2000/svg" xmlns:xlink="http://www.w3.org/1999/xlink">
<g id="graph0" class="graph" transform="scale(1 1) rotate(0) translate(4 231)">
<title>tracktion::engine::AudioNode</title>
<!-- Node1 -->
<g id="node1" class="node">
<title>Node1</title>
<g id="a_node1"><a xlink:title="Base class for nodes in an audio playback graph.">
<polygon fill="#bfbfbf" stroke="black" points="0,-98.5 0,-128.5 105,-128.5 105,-98.5 0,-98.5"/>
<text text-anchor="start" x="8" y="-116.5" font-family="Helvetica,sans-Serif" font-size="10.00">tracktion::engine::</text>
<text text-anchor="middle" x="52.5" y="-105.5" font-family="Helvetica,sans-Serif" font-size="10.00">AudioNode</text>
</a>
</g>
</g>
<!-- Node2 -->
<g id="node2" class="node">
<title>Node2</title>
<g id="a_node2"><a xlink:href="classtracktion_1_1engine_1_1CombiningAudioNode.html" target="_top" xlink:title="An AudioNode that mixes a sequence of clips of other nodes.">
<polygon fill="none" stroke="black" points="156,-196.5 156,-226.5 278,-226.5 278,-196.5 156,-196.5"/>
<text text-anchor="start" x="164" y="-214.5" font-family="Helvetica,sans-Serif" font-size="10.00">tracktion::engine::</text>
<text text-anchor="middle" x="217" y="-203.5" font-family="Helvetica,sans-Serif" font-size="10.00">CombiningAudioNode</text>
</a>
</g>
</g>
<!-- Node1&#45;&gt;Node2 -->
<g id="edge1" class="edge">
<title>Node1&#45;&gt;Node2</title>
<path fill="none" stroke="midnightblue" d="M74.72,-135.64C91.4,-151.95 115.95,-173.62 141,-187.5 147.1,-190.88 153.74,-193.86 160.48,-196.48"/>
<polygon fill="midnightblue" stroke="midnightblue" points="77.18,-133.16 67.63,-128.57 72.24,-138.11 77.18,-133.16"/>
</g>
<!-- Node3 -->
<g id="node3" class="node">
<title>Node3</title>
<g id="a_node3"><a xlink:href="classtracktion_1_1engine_1_1PluginAudioNode.html" target="_top" xlink:title=" ">
<polygon fill="none" stroke="black" points="164.5,-147.5 164.5,-177.5 269.5,-177.5 269.5,-147.5 164.5,-147.5"/>
<text text-anchor="start" x="172.5" y="-165.5" font-family="Helvetica,sans-Serif" font-size="10.00">tracktion::engine::</text>
<text text-anchor="middle" x="217" y="-154.5" font-family="Helvetica,sans-Serif" font-size="10.00">PluginAudioNode</text>
</a>
</g>
</g>
<!-- Node1&#45;&gt;Node3 -->
<g id="edge2" class="edge">
<title>Node1&#45;&gt;Node3</title>
<path fill="none" stroke="midnightblue" d="M113.57,-131.61C130.84,-136.82 149.49,-142.45 166.08,-147.45"/>
<polygon fill="midnightblue" stroke="midnightblue" points="114.17,-128.14 103.58,-128.6 112.15,-134.84 114.17,-128.14"/>
</g>
<!-- Node4 -->
<g id="node4" class="node">
<title>Node4</title>
<g id="a_node4"><a xlink:href="classtracktion_1_1engine_1_1SingleInputAudioNode.html" target="_top" xlink:title=" ">
<polygon fill="none" stroke="black" points="154.5,-98.5 154.5,-128.5 279.5,-128.5 279.5,-98.5 154.5,-98.5"/>
<text text-anchor="start" x="162.5" y="-116.5" font-family="Helvetica,sans-Serif" font-size="10.00">tracktion::engine::</text>
<text text-anchor="middle" x="217" y="-105.5" font-family="Helvetica,sans-Serif" font-size="10.00">SingleInputAudioNode</text>
</a>
</g>
</g>
<!-- Node1&#45;&gt;Node4 -->
<g id="edge3" class="edge">
<title>Node1&#45;&gt;Node4</title>
<path fill="none" stroke="midnightblue" d="M115.43,-113.5C128.21,-113.5 141.65,-113.5 154.41,-113.5"/>
<polygon fill="midnightblue" stroke="midnightblue" points="115.36,-110 105.36,-113.5 115.36,-117 115.36,-110"/>
</g>
<!-- Node9 -->
<g id="node9" class="node">
<title>Node9</title>
<g id="a_node9"><a xlink:href="classtracktion_1_1engine_1_1SubSampleWaveAudioNode.html" target="_top" xlink:title=" ">
<polygon fill="none" stroke="black" points="141,-49.5 141,-79.5 293,-79.5 293,-49.5 141,-49.5"/>
<text text-anchor="start" x="149" y="-67.5" font-family="Helvetica,sans-Serif" font-size="10.00">tracktion::engine::</text>
<text text-anchor="middle" x="217" y="-56.5" font-family="Helvetica,sans-Serif" font-size="10.00">SubSampleWaveAudioNode</text>
</a>
</g>
</g>
<!-- Node1&#45;&gt;Node9 -->
<g id="edge8" class="edge">
<title>Node1&#45;&gt;Node9</title>
<path fill="none" stroke="midnightblue" d="M113.57,-95.39C130.84,-90.18 149.49,-84.55 166.08,-79.55"/>
<polygon fill="midnightblue" stroke="midnightblue" points="112.15,-92.16 103.58,-98.4 114.17,-98.86 112.15,-92.16"/>
</g>
<!-- Node10 -->
<g id="node10" class="node">
<title>Node10</title>
<g id="a_node10"><a xlink:href="classtracktion_1_1engine_1_1WaveAudioNode.html" target="_top" xlink:title="An AudioNode that plays back a wave file.">
<polygon fill="none" stroke="black" points="164.5,-0.5 164.5,-30.5 269.5,-30.5 269.5,-0.5 164.5,-0.5"/>
<text text-anchor="start" x="172.5" y="-18.5" font-family="Helvetica,sans-Serif" font-size="10.00">tracktion::engine::</text>
<text text-anchor="middle" x="217" y="-7.5" font-family="Helvetica,sans-Serif" font-size="10.00">WaveAudioNode</text>
</a>
</g>
</g>
<!-- Node1&#45;&gt;Node10 -->
<g id="edge9" class="edge">
<title>Node1&#45;&gt;Node10</title>
<path fill="none" stroke="midnightblue" d="M75.57,-91.03C92.29,-75.08 116.5,-54.16 141,-40.5 148.31,-36.42 156.4,-32.87 164.47,-29.82"/>
<polygon fill="midnightblue" stroke="midnightblue" points="72.72,-88.93 68,-98.41 77.61,-93.94 72.72,-88.93"/>
</g>
<!-- Node5 -->
<g id="node5" class="node">
<title>Node5</title>
<g id="a_node5"><a xlink:href="classtracktion_1_1engine_1_1FadeInOutAudioNode.html" target="_top" xlink:title="An AudioNode that fades its input node in/out at given times.">
<polygon fill="none" stroke="black" points="336.5,-171.5 336.5,-201.5 455.5,-201.5 455.5,-171.5 336.5,-171.5"/>
<text text-anchor="start" x="344.5" y="-189.5" font-family="Helvetica,sans-Serif" font-size="10.00">tracktion::engine::</text>
<text text-anchor="middle" x="396" y="-178.5" font-family="Helvetica,sans-Serif" font-size="10.00">FadeInOutAudioNode</text>
</a>
</g>
</g>
<!-- Node4&#45;&gt;Node5 -->
<g id="edge4" class="edge">
<title>Node4&#45;&gt;Node5</title>
<path fill="none" stroke="midnightblue" d="M278.67,-132.16C283.58,-134.14 288.42,-136.26 293,-138.5 310.27,-146.95 311.84,-153.82 329,-162.5 335.31,-165.69 342.15,-168.67 348.95,-171.37"/>
<polygon fill="midnightblue" stroke="midnightblue" points="279.75,-128.83 269.16,-128.52 277.25,-135.36 279.75,-128.83"/>
</g>
<!-- Node6 -->
<g id="node6" class="node">
<title>Node6</title>
<g id="a_node6"><a xlink:href="structtracktion_1_1engine_1_1MuteAudioNode.html" target="_top" xlink:title=" ">
<polygon fill="none" stroke="black" points="343.5,-122.5 343.5,-152.5 448.5,-152.5 448.5,-122.5 343.5,-122.5"/>
<text text-anchor="start" x="351.5" y="-140.5" font-family="Helvetica,sans-Serif" font-size="10.00">tracktion::engine::</text>
<text text-anchor="middle" x="396" y="-129.5" font-family="Helvetica,sans-Serif" font-size="10.00">MuteAudioNode</text>
</a>
</g>
</g>
<!-- Node4&#45;&gt;Node6 -->
<g id="edge5" class="edge">
<title>Node4&#45;&gt;Node6</title>
<path fill="none" stroke="midnightblue" d="M290.26,-123.3C308.07,-125.71 326.78,-128.25 343.39,-130.5"/>
<polygon fill="midnightblue" stroke="midnightblue" points="290.29,-119.77 279.91,-121.89 289.35,-126.71 290.29,-119.77"/>
</g>
<!-- Node7 -->
<g id="node7" class="node">
<title>Node7</title>
<g id="a_node7"><a xlink:href="classtracktion_1_1engine_1_1SpeedRampAudioNode.html" target="_top" xlink:title="An AudioNode that speeds up and slows down its input node in/out at given times.">
<polygon fill="none" stroke="black" points="332,-73.5 332,-103.5 460,-103.5 460,-73.5 332,-73.5"/>
<text text-anchor="start" x="340" y="-91.5" font-family="Helvetica,sans-Serif" font-size="10.00">tracktion::engine::</text>
<text text-anchor="middle" x="396" y="-80.5" font-family="Helvetica,sans-Serif" font-size="10.00">SpeedRampAudioNode</text>
</a>
</g>
</g>
<!-- Node4&#45;&gt;Node7 -->
<g id="edge6" class="edge">
<title>Node4&#45;&gt;Node7</title>
<path fill="none" stroke="midnightblue" d="M289.92,-103.34C303.84,-101.38 318.32,-99.33 331.93,-97.41"/>
<polygon fill="midnightblue" stroke="midnightblue" points="289.32,-99.89 279.91,-104.76 290.3,-106.82 289.32,-99.89"/>
</g>
<!-- Node8 -->
<g id="node8" class="node">
<title>Node8</title>
<g id="a_node8"><a xlink:href="classtracktion_1_1engine_1_1TimedMutingAudioNode.html" target="_top" xlink:title=" ">
<polygon fill="none" stroke="black" points="329,-24.5 329,-54.5 463,-54.5 463,-24.5 329,-24.5"/>
<text text-anchor="start" x="337" y="-42.5" font-family="Helvetica,sans-Serif" font-size="10.00">tracktion::engine::</text>
<text text-anchor="middle" x="396" y="-31.5" font-family="Helvetica,sans-Serif" font-size="10.00">TimedMutingAudioNode</text>
</a>
</g>
</g>
<!-- Node4&#45;&gt;Node8 -->
<g id="edge7" class="edge">
<title>Node4&#45;&gt;Node8</title>
<path fill="none" stroke="midnightblue" d="M281.4,-94.72C285.38,-93.08 289.28,-91.34 293,-89.5 310.47,-80.88 311.76,-73.57 329,-64.5 335.83,-60.9 343.3,-57.56 350.67,-54.57"/>
<polygon fill="midnightblue" stroke="midnightblue" points="280.09,-91.47 272.03,-98.35 282.62,-98 280.09,-91.47"/>
</g>
</g>
</svg>
