<?xml version="1.0" encoding="UTF-8" standalone="no"?>
<!DOCTYPE svg PUBLIC "-//W3C//DTD SVG 1.1//EN"
 "http://www.w3.org/Graphics/SVG/1.1/DTD/svg11.dtd">
<!-- Generated by graphviz version 2.43.0 (0)
 -->
<!-- Title: tracktion::graph::Node Pages: 1 -->
<svg width="523pt" height="2103pt"
 viewBox="0.00 0.00 523.00 2102.50" xmlns="http://www.w3.org/2000/svg" xmlns:xlink="http://www.w3.org/1999/xlink">
<g id="graph0" class="graph" transform="scale(1 1) rotate(0) translate(4 2098.5)">
<title>tracktion::graph::Node</title>
<!-- Node1 -->
<g id="node1" class="node">
<title>Node1</title>
<g id="a_node1"><a xlink:title="Main graph Node processor class.">
<polygon fill="#bfbfbf" stroke="black" points="0,-966.5 0,-985.5 125,-985.5 125,-966.5 0,-966.5"/>
<text text-anchor="middle" x="62.5" y="-973.5" font-family="Helvetica,sans-Serif" font-size="10.00">tracktion::graph::Node</text>
</a>
</g>
</g>
<!-- Node2 -->
<g id="node2" class="node">
<title>Node2</title>
<g id="a_node2"><a xlink:href="classtracktion_1_1engine_1_1ClickNode.html" target="_top" xlink:title="Adds audio and MIDI clicks to the input buffers.">
<polygon fill="none" stroke="black" points="215,-2064 215,-2094 320,-2094 320,-2064 215,-2064"/>
<text text-anchor="start" x="223" y="-2082" font-family="Helvetica,sans-Serif" font-size="10.00">tracktion::engine::</text>
<text text-anchor="middle" x="267.5" y="-2071" font-family="Helvetica,sans-Serif" font-size="10.00">ClickNode</text>
</a>
</g>
</g>
<!-- Node1&#45;&gt;Node2 -->
<g id="edge1" class="edge">
<title>Node1&#45;&gt;Node2</title>
<path fill="none" stroke="midnightblue" d="M63.92,-995.96C67.01,-1136.33 88.43,-1972.03 161,-2055 174.36,-2070.27 195.22,-2076.93 214.88,-2079.52"/>
<polygon fill="midnightblue" stroke="midnightblue" points="67.41,-995.72 63.7,-985.8 60.41,-995.87 67.41,-995.72"/>
</g>
<!-- Node3 -->
<g id="node3" class="node">
<title>Node3</title>
<g id="a_node3"><a xlink:href="classtracktion_1_1engine_1_1CombiningNode.html" target="_top" xlink:title="An Node that mixes a sequence of clips of other nodes.">
<polygon fill="none" stroke="black" points="215,-2015 215,-2045 320,-2045 320,-2015 215,-2015"/>
<text text-anchor="start" x="223" y="-2033" font-family="Helvetica,sans-Serif" font-size="10.00">tracktion::engine::</text>
<text text-anchor="middle" x="267.5" y="-2022" font-family="Helvetica,sans-Serif" font-size="10.00">CombiningNode</text>
</a>
</g>
</g>
<!-- Node1&#45;&gt;Node3 -->
<g id="edge2" class="edge">
<title>Node1&#45;&gt;Node3</title>
<path fill="none" stroke="midnightblue" d="M64,-995.88C67.63,-1132.32 91.68,-1927.08 161,-2006 174.39,-2021.24 195.26,-2027.89 214.91,-2030.49"/>
<polygon fill="midnightblue" stroke="midnightblue" points="67.5,-995.57 63.74,-985.67 60.5,-995.75 67.5,-995.57"/>
</g>
<!-- Node4 -->
<g id="node4" class="node">
<title>Node4</title>
<g id="a_node4"><a xlink:href="classtracktion_1_1engine_1_1ContainerClipNode.html" target="_top" xlink:title=" ">
<polygon fill="none" stroke="black" points="213.5,-1966 213.5,-1996 321.5,-1996 321.5,-1966 213.5,-1966"/>
<text text-anchor="start" x="221.5" y="-1984" font-family="Helvetica,sans-Serif" font-size="10.00">tracktion::engine::</text>
<text text-anchor="middle" x="267.5" y="-1973" font-family="Helvetica,sans-Serif" font-size="10.00">ContainerClipNode</text>
</a>
</g>
</g>
<!-- Node1&#45;&gt;Node4 -->
<g id="edge3" class="edge">
<title>Node1&#45;&gt;Node4</title>
<path fill="none" stroke="midnightblue" d="M64.1,-995.74C68.27,-1127.99 94.9,-1882.11 161,-1957 174.05,-1971.79 194.14,-1978.48 213.31,-1981.24"/>
<polygon fill="midnightblue" stroke="midnightblue" points="67.59,-995.39 63.78,-985.5 60.59,-995.61 67.59,-995.39"/>
</g>
<!-- Node5 -->
<g id="node5" class="node">
<title>Node5</title>
<g id="a_node5"><a xlink:href="classtracktion_1_1engine_1_1DynamicOffsetNode.html" target="_top" xlink:title=" ">
<polygon fill="none" stroke="black" points="210,-1917 210,-1947 325,-1947 325,-1917 210,-1917"/>
<text text-anchor="start" x="218" y="-1935" font-family="Helvetica,sans-Serif" font-size="10.00">tracktion::engine::</text>
<text text-anchor="middle" x="267.5" y="-1924" font-family="Helvetica,sans-Serif" font-size="10.00">DynamicOffsetNode</text>
</a>
</g>
</g>
<!-- Node1&#45;&gt;Node5 -->
<g id="edge4" class="edge">
<title>Node1&#45;&gt;Node5</title>
<path fill="none" stroke="midnightblue" d="M64.21,-995.94C69,-1124.83 98.18,-1837.19 161,-1908 173.28,-1921.84 191.73,-1928.58 209.78,-1931.64"/>
<polygon fill="midnightblue" stroke="midnightblue" points="67.7,-995.48 63.84,-985.61 60.7,-995.73 67.7,-995.48"/>
</g>
<!-- Node6 -->
<g id="node6" class="node">
<title>Node6</title>
<g id="a_node6"><a xlink:href="classtracktion_1_1engine_1_1HostedMidiInputDeviceNode.html" target="_top" xlink:title="A Node that intercepts MIDI from a plugin callback and inserts it in to the playback graph.">
<polygon fill="none" stroke="black" points="189.5,-1868 189.5,-1898 345.5,-1898 345.5,-1868 189.5,-1868"/>
<text text-anchor="start" x="197.5" y="-1886" font-family="Helvetica,sans-Serif" font-size="10.00">tracktion::engine::</text>
<text text-anchor="middle" x="267.5" y="-1875" font-family="Helvetica,sans-Serif" font-size="10.00">HostedMidiInputDeviceNode</text>
</a>
</g>
</g>
<!-- Node1&#45;&gt;Node6 -->
<g id="edge5" class="edge">
<title>Node1&#45;&gt;Node6</title>
<path fill="none" stroke="midnightblue" d="M64.32,-995.67C69.69,-1119.84 101.38,-1792.18 161,-1859 168.63,-1867.55 178.61,-1873.39 189.39,-1877.32"/>
<polygon fill="midnightblue" stroke="midnightblue" points="67.82,-995.51 63.9,-985.67 60.83,-995.81 67.82,-995.51"/>
</g>
<!-- Node7 -->
<g id="node7" class="node">
<title>Node7</title>
<g id="a_node7"><a xlink:href="classtracktion_1_1engine_1_1InsertReturnNode.html" target="_top" xlink:title="The return node hooks into the input device and fills the insert&#39;s return buffer with data from the i...">
<polygon fill="none" stroke="black" points="215,-1819 215,-1849 320,-1849 320,-1819 215,-1819"/>
<text text-anchor="start" x="223" y="-1837" font-family="Helvetica,sans-Serif" font-size="10.00">tracktion::engine::</text>
<text text-anchor="middle" x="267.5" y="-1826" font-family="Helvetica,sans-Serif" font-size="10.00">InsertReturnNode</text>
</a>
</g>
</g>
<!-- Node1&#45;&gt;Node7 -->
<g id="edge6" class="edge">
<title>Node1&#45;&gt;Node7</title>
<path fill="none" stroke="midnightblue" d="M64.46,-995.68C70.47,-1115.81 104.62,-1747.22 161,-1810 174.49,-1825.02 195.26,-1831.66 214.81,-1834.31"/>
<polygon fill="midnightblue" stroke="midnightblue" points="67.95,-995.5 63.96,-985.69 60.96,-995.85 67.95,-995.5"/>
</g>
<!-- Node8 -->
<g id="node8" class="node">
<title>Node8</title>
<g id="a_node8"><a xlink:href="classtracktion_1_1engine_1_1InsertSendNode.html" target="_top" xlink:title="The send node picks up audio/MIDI data from the InsertPlugin and then its output will be sent to the ...">
<polygon fill="none" stroke="black" points="215,-1770 215,-1800 320,-1800 320,-1770 215,-1770"/>
<text text-anchor="start" x="223" y="-1788" font-family="Helvetica,sans-Serif" font-size="10.00">tracktion::engine::</text>
<text text-anchor="middle" x="267.5" y="-1777" font-family="Helvetica,sans-Serif" font-size="10.00">InsertSendNode</text>
</a>
</g>
</g>
<!-- Node1&#45;&gt;Node8 -->
<g id="edge7" class="edge">
<title>Node1&#45;&gt;Node8</title>
<path fill="none" stroke="midnightblue" d="M64.62,-995.94C71.35,-1112.49 107.89,-1702.29 161,-1761 174.55,-1775.97 195.32,-1782.61 214.86,-1785.26"/>
<polygon fill="midnightblue" stroke="midnightblue" points="68.1,-995.44 64.03,-985.65 61.11,-995.84 68.1,-995.44"/>
</g>
<!-- Node9 -->
<g id="node9" class="node">
<title>Node9</title>
<g id="a_node9"><a xlink:href="classtracktion_1_1engine_1_1InsertSendReturnDependencyNode.html" target="_top" xlink:title="This is a bit confusing but is required to ensure the following set of dependencies in the graph: Ins...">
<polygon fill="none" stroke="black" points="174,-1721 174,-1751 361,-1751 361,-1721 174,-1721"/>
<text text-anchor="start" x="182" y="-1739" font-family="Helvetica,sans-Serif" font-size="10.00">tracktion::engine::</text>
<text text-anchor="middle" x="267.5" y="-1728" font-family="Helvetica,sans-Serif" font-size="10.00">InsertSendReturnDependencyNode</text>
</a>
</g>
</g>
<!-- Node1&#45;&gt;Node9 -->
<g id="edge8" class="edge">
<title>Node1&#45;&gt;Node9</title>
<path fill="none" stroke="midnightblue" d="M63.2,-995.98C62,-1102.53 61.8,-1603.22 161,-1712 164.8,-1716.16 169.15,-1719.68 173.89,-1722.65"/>
<polygon fill="midnightblue" stroke="midnightblue" points="66.7,-995.74 63.33,-985.7 59.7,-995.65 66.7,-995.74"/>
</g>
<!-- Node10 -->
<g id="node10" class="node">
<title>Node10</title>
<g id="a_node10"><a xlink:href="classtracktion_1_1engine_1_1LevelMeasurerProcessingNode.html" target="_top" xlink:title="A Node that introduces latency to balance the latency at the root Node and its position in the graph.">
<polygon fill="none" stroke="black" points="184,-1672 184,-1702 351,-1702 351,-1672 184,-1672"/>
<text text-anchor="start" x="192" y="-1690" font-family="Helvetica,sans-Serif" font-size="10.00">tracktion::engine::</text>
<text text-anchor="middle" x="267.5" y="-1679" font-family="Helvetica,sans-Serif" font-size="10.00">LevelMeasurerProcessingNode</text>
</a>
</g>
</g>
<!-- Node1&#45;&gt;Node10 -->
<g id="edge9" class="edge">
<title>Node1&#45;&gt;Node10</title>
<path fill="none" stroke="midnightblue" d="M63.41,-995.6C63.33,-1097.09 68.1,-1562.08 161,-1663 167.36,-1669.91 175.26,-1675.04 183.86,-1678.81"/>
<polygon fill="midnightblue" stroke="midnightblue" points="66.91,-995.54 63.43,-985.53 59.91,-995.52 66.91,-995.54"/>
</g>
<!-- Node11 -->
<g id="node11" class="node">
<title>Node11</title>
<g id="a_node11"><a xlink:href="classtracktion_1_1engine_1_1LevelMeasuringNode.html" target="_top" xlink:title="A Node that passes its incomming audio and MIDI through a LevelMeasurer.">
<polygon fill="none" stroke="black" points="208,-1623 208,-1653 327,-1653 327,-1623 208,-1623"/>
<text text-anchor="start" x="216" y="-1641" font-family="Helvetica,sans-Serif" font-size="10.00">tracktion::engine::</text>
<text text-anchor="middle" x="267.5" y="-1630" font-family="Helvetica,sans-Serif" font-size="10.00">LevelMeasuringNode</text>
</a>
</g>
</g>
<!-- Node1&#45;&gt;Node11 -->
<g id="edge10" class="edge">
<title>Node1&#45;&gt;Node11</title>
<path fill="none" stroke="midnightblue" d="M63.65,-996.02C64.77,-1093.91 74.64,-1521.18 161,-1614 173.09,-1627 190.63,-1633.67 207.95,-1636.91"/>
<polygon fill="midnightblue" stroke="midnightblue" points="67.14,-995.73 63.55,-985.76 60.14,-995.79 67.14,-995.73"/>
</g>
<!-- Node12 -->
<g id="node12" class="node">
<title>Node12</title>
<g id="a_node12"><a xlink:href="classtracktion_1_1engine_1_1LiveMidiInjectingNode.html" target="_top" xlink:title="A Node that injects MIDI message in to the stream, for keyboard key entry, note previews and MIDI ste...">
<polygon fill="none" stroke="black" points="205,-1574 205,-1604 330,-1604 330,-1574 205,-1574"/>
<text text-anchor="start" x="213" y="-1592" font-family="Helvetica,sans-Serif" font-size="10.00">tracktion::engine::</text>
<text text-anchor="middle" x="267.5" y="-1581" font-family="Helvetica,sans-Serif" font-size="10.00">LiveMidiInjectingNode</text>
</a>
</g>
</g>
<!-- Node1&#45;&gt;Node12 -->
<g id="edge11" class="edge">
<title>Node1&#45;&gt;Node12</title>
<path fill="none" stroke="midnightblue" d="M63.92,-995.95C66.3,-1089.07 81,-1480.08 161,-1565 172.4,-1577.1 188.53,-1583.7 204.75,-1587.16"/>
<polygon fill="midnightblue" stroke="midnightblue" points="67.42,-995.81 63.68,-985.89 60.42,-995.97 67.42,-995.81"/>
</g>
<!-- Node13 -->
<g id="node13" class="node">
<title>Node13</title>
<g id="a_node13"><a xlink:href="classtracktion_1_1engine_1_1LiveMidiOutputNode.html" target="_top" xlink:title="A Node that calls the listeners of an AudioTrack with any incomming MIDI.">
<polygon fill="none" stroke="black" points="209.5,-1525 209.5,-1555 325.5,-1555 325.5,-1525 209.5,-1525"/>
<text text-anchor="start" x="217.5" y="-1543" font-family="Helvetica,sans-Serif" font-size="10.00">tracktion::engine::</text>
<text text-anchor="middle" x="267.5" y="-1532" font-family="Helvetica,sans-Serif" font-size="10.00">LiveMidiOutputNode</text>
</a>
</g>
</g>
<!-- Node1&#45;&gt;Node13 -->
<g id="edge12" class="edge">
<title>Node1&#45;&gt;Node13</title>
<path fill="none" stroke="midnightblue" d="M64.25,-995.95C67.97,-1084.25 87.37,-1438.98 161,-1516 173.53,-1529.1 191.6,-1535.74 209.26,-1538.92"/>
<polygon fill="midnightblue" stroke="midnightblue" points="67.74,-995.77 63.85,-985.92 60.75,-996.05 67.74,-995.77"/>
</g>
<!-- Node14 -->
<g id="node14" class="node">
<title>Node14</title>
<g id="a_node14"><a xlink:href="classtracktion_1_1engine_1_1LoopingMidiNode.html" target="_top" xlink:title="A Node that plays MIDI data from a MidiMessageSequence, at a specific MIDI channel.">
<polygon fill="none" stroke="black" points="215,-1476 215,-1506 320,-1506 320,-1476 215,-1476"/>
<text text-anchor="start" x="223" y="-1494" font-family="Helvetica,sans-Serif" font-size="10.00">tracktion::engine::</text>
<text text-anchor="middle" x="267.5" y="-1483" font-family="Helvetica,sans-Serif" font-size="10.00">LoopingMidiNode</text>
</a>
</g>
</g>
<!-- Node1&#45;&gt;Node14 -->
<g id="edge13" class="edge">
<title>Node1&#45;&gt;Node14</title>
<path fill="none" stroke="midnightblue" d="M64.64,-995.96C69.8,-1079.23 93.72,-1397.83 161,-1467 174.95,-1481.34 195.55,-1487.9 214.86,-1490.68"/>
<polygon fill="midnightblue" stroke="midnightblue" points="68.12,-995.6 64.03,-985.82 61.14,-996.01 68.12,-995.6"/>
</g>
<!-- Node15 -->
<g id="node15" class="node">
<title>Node15</title>
<g id="a_node15"><a xlink:href="classtracktion_1_1engine_1_1MelodyneNode.html" target="_top" xlink:title="Plays back a Melodyne plugin.">
<polygon fill="none" stroke="black" points="215,-1427 215,-1457 320,-1457 320,-1427 215,-1427"/>
<text text-anchor="start" x="223" y="-1445" font-family="Helvetica,sans-Serif" font-size="10.00">tracktion::engine::</text>
<text text-anchor="middle" x="267.5" y="-1434" font-family="Helvetica,sans-Serif" font-size="10.00">MelodyneNode</text>
</a>
</g>
</g>
<!-- Node1&#45;&gt;Node15 -->
<g id="edge14" class="edge">
<title>Node1&#45;&gt;Node15</title>
<path fill="none" stroke="midnightblue" d="M65.11,-995.92C71.81,-1073.82 100.03,-1356.62 161,-1418 175.03,-1432.13 195.53,-1438.67 214.74,-1441.49"/>
<polygon fill="midnightblue" stroke="midnightblue" points="68.57,-995.27 64.25,-985.6 61.59,-995.85 68.57,-995.27"/>
</g>
<!-- Node16 -->
<g id="node16" class="node">
<title>Node16</title>
<g id="a_node16"><a xlink:href="classtracktion_1_1engine_1_1MidiInputDeviceNode.html" target="_top" xlink:title="A Node that intercepts incoming live MIDI and inserts it in to the playback graph.">
<polygon fill="none" stroke="black" points="206.5,-1378 206.5,-1408 328.5,-1408 328.5,-1378 206.5,-1378"/>
<text text-anchor="start" x="214.5" y="-1396" font-family="Helvetica,sans-Serif" font-size="10.00">tracktion::engine::</text>
<text text-anchor="middle" x="267.5" y="-1385" font-family="Helvetica,sans-Serif" font-size="10.00">MidiInputDeviceNode</text>
</a>
</g>
</g>
<!-- Node1&#45;&gt;Node16 -->
<g id="edge15" class="edge">
<title>Node1&#45;&gt;Node16</title>
<path fill="none" stroke="midnightblue" d="M65.65,-995.54C73.96,-1067.36 106.21,-1315.27 161,-1369 173.14,-1380.9 189.88,-1387.39 206.45,-1390.8"/>
<polygon fill="midnightblue" stroke="midnightblue" points="69.13,-995.13 64.53,-985.59 62.17,-995.92 69.13,-995.13"/>
</g>
<!-- Node17 -->
<g id="node17" class="node">
<title>Node17</title>
<g id="a_node17"><a xlink:href="classtracktion_1_1engine_1_1MidiNode.html" target="_top" xlink:title="A Node that plays MIDI data from a MidiMessageSequence, at a specific MIDI channel.">
<polygon fill="none" stroke="black" points="215,-1329 215,-1359 320,-1359 320,-1329 215,-1329"/>
<text text-anchor="start" x="223" y="-1347" font-family="Helvetica,sans-Serif" font-size="10.00">tracktion::engine::</text>
<text text-anchor="middle" x="267.5" y="-1336" font-family="Helvetica,sans-Serif" font-size="10.00">MidiNode</text>
</a>
</g>
</g>
<!-- Node1&#45;&gt;Node17 -->
<g id="edge16" class="edge">
<title>Node1&#45;&gt;Node17</title>
<path fill="none" stroke="midnightblue" d="M62.67,-995.85C61.36,-1054.72 66.01,-1229.87 161,-1320 175.38,-1333.64 195.82,-1340.11 214.89,-1343.01"/>
<polygon fill="midnightblue" stroke="midnightblue" points="66.17,-995.79 62.99,-985.68 59.18,-995.57 66.17,-995.79"/>
</g>
<!-- Node18 -->
<g id="node18" class="node">
<title>Node18</title>
<g id="a_node18"><a xlink:href="classtracktion_1_1engine_1_1MidiOutputDeviceInstanceInjectingNode.html" target="_top" xlink:title="A Node that injects the MIDI buffer of its input to the MidiOutputDevice.">
<polygon fill="none" stroke="black" points="161,-1280 161,-1310 374,-1310 374,-1280 161,-1280"/>
<text text-anchor="start" x="169" y="-1298" font-family="Helvetica,sans-Serif" font-size="10.00">tracktion::engine::</text>
<text text-anchor="middle" x="267.5" y="-1287" font-family="Helvetica,sans-Serif" font-size="10.00">MidiOutputDeviceInstanceInjectingNode</text>
</a>
</g>
</g>
<!-- Node1&#45;&gt;Node18 -->
<g id="edge17" class="edge">
<title>Node1&#45;&gt;Node18</title>
<path fill="none" stroke="midnightblue" d="M63.76,-995.81C65.58,-1048.96 78.25,-1195.8 161,-1271 164.75,-1274.41 168.89,-1277.37 173.28,-1279.93"/>
<polygon fill="midnightblue" stroke="midnightblue" points="67.25,-995.6 63.51,-985.69 60.26,-995.77 67.25,-995.6"/>
</g>
<!-- Node19 -->
<g id="node19" class="node">
<title>Node19</title>
<g id="a_node19"><a xlink:href="classtracktion_1_1engine_1_1ModifierNode.html" target="_top" xlink:title="Node for processing a Modifier.">
<polygon fill="none" stroke="black" points="215,-1231 215,-1261 320,-1261 320,-1231 215,-1231"/>
<text text-anchor="start" x="223" y="-1249" font-family="Helvetica,sans-Serif" font-size="10.00">tracktion::engine::</text>
<text text-anchor="middle" x="267.5" y="-1238" font-family="Helvetica,sans-Serif" font-size="10.00">ModifierNode</text>
</a>
</g>
</g>
<!-- Node1&#45;&gt;Node19 -->
<g id="edge18" class="edge">
<title>Node1&#45;&gt;Node19</title>
<path fill="none" stroke="midnightblue" d="M65.22,-995.61C70.41,-1042.44 90.27,-1161.38 161,-1222 175.83,-1234.71 196.03,-1241.06 214.78,-1244.11"/>
<polygon fill="midnightblue" stroke="midnightblue" points="68.69,-995.18 64.21,-985.57 61.73,-995.87 68.69,-995.18"/>
</g>
<!-- Node20 -->
<g id="node20" class="node">
<title>Node20</title>
<g id="a_node20"><a xlink:href="classtracktion_1_1engine_1_1PlayHeadPositionNode.html" target="_top" xlink:title="A Node that calculates a position to show visually what time is currently being processed by the grap...">
<polygon fill="none" stroke="black" points="203.5,-1182 203.5,-1212 331.5,-1212 331.5,-1182 203.5,-1182"/>
<text text-anchor="start" x="211.5" y="-1200" font-family="Helvetica,sans-Serif" font-size="10.00">tracktion::engine::</text>
<text text-anchor="middle" x="267.5" y="-1189" font-family="Helvetica,sans-Serif" font-size="10.00">PlayHeadPositionNode</text>
</a>
</g>
</g>
<!-- Node1&#45;&gt;Node20 -->
<g id="edge19" class="edge">
<title>Node1&#45;&gt;Node20</title>
<path fill="none" stroke="midnightblue" d="M67.3,-995.44C76.17,-1035.33 102.1,-1126.58 161,-1173 173.1,-1182.53 188.27,-1188.42 203.3,-1192.02"/>
<polygon fill="midnightblue" stroke="midnightblue" points="70.73,-994.7 65.24,-985.63 63.87,-996.14 70.73,-994.7"/>
</g>
<!-- Node21 -->
<g id="node21" class="node">
<title>Node21</title>
<g id="a_node21"><a xlink:href="classtracktion_1_1engine_1_1PluginNode.html" target="_top" xlink:title="Node for processing a plugin.">
<polygon fill="none" stroke="black" points="215,-1133 215,-1163 320,-1163 320,-1133 215,-1133"/>
<text text-anchor="start" x="223" y="-1151" font-family="Helvetica,sans-Serif" font-size="10.00">tracktion::engine::</text>
<text text-anchor="middle" x="267.5" y="-1140" font-family="Helvetica,sans-Serif" font-size="10.00">PluginNode</text>
</a>
</g>
</g>
<!-- Node1&#45;&gt;Node21 -->
<g id="edge20" class="edge">
<title>Node1&#45;&gt;Node21</title>
<path fill="none" stroke="midnightblue" d="M70.65,-995.38C83.52,-1027.45 113.74,-1091.25 161,-1124 176.75,-1134.91 196.7,-1140.94 215,-1144.24"/>
<polygon fill="midnightblue" stroke="midnightblue" points="73.82,-993.88 66.95,-985.81 67.29,-996.4 73.82,-993.88"/>
</g>
<!-- Node22 -->
<g id="node22" class="node">
<title>Node22</title>
<g id="a_node22"><a xlink:href="classtracktion_1_1engine_1_1RackInstanceNode.html" target="_top" xlink:title="Sends an input Node to a Rack bus handling the channel mapping and channel gain levels.">
<polygon fill="none" stroke="black" points="214,-1084 214,-1114 321,-1114 321,-1084 214,-1084"/>
<text text-anchor="start" x="222" y="-1102" font-family="Helvetica,sans-Serif" font-size="10.00">tracktion::engine::</text>
<text text-anchor="middle" x="267.5" y="-1091" font-family="Helvetica,sans-Serif" font-size="10.00">RackInstanceNode</text>
</a>
</g>
</g>
<!-- Node1&#45;&gt;Node22 -->
<g id="edge21" class="edge">
<title>Node1&#45;&gt;Node22</title>
<path fill="none" stroke="midnightblue" d="M76.06,-994.01C92.78,-1016.55 124.51,-1054.67 161,-1075 177.08,-1083.96 196.31,-1089.58 213.92,-1093.1"/>
<polygon fill="midnightblue" stroke="midnightblue" points="78.73,-991.72 70.03,-985.67 73.05,-995.82 78.73,-991.72"/>
</g>
<!-- Node23 -->
<g id="node23" class="node">
<title>Node23</title>
<g id="a_node23"><a xlink:href="classtracktion_1_1engine_1_1RackReturnNode.html" target="_top" xlink:title="Sends an input Node to a Rack bus handling the channel mapping and channel gain levels.">
<polygon fill="none" stroke="black" points="215,-1035 215,-1065 320,-1065 320,-1035 215,-1035"/>
<text text-anchor="start" x="223" y="-1053" font-family="Helvetica,sans-Serif" font-size="10.00">tracktion::engine::</text>
<text text-anchor="middle" x="267.5" y="-1042" font-family="Helvetica,sans-Serif" font-size="10.00">RackReturnNode</text>
</a>
</g>
</g>
<!-- Node1&#45;&gt;Node23 -->
<g id="edge22" class="edge">
<title>Node1&#45;&gt;Node23</title>
<path fill="none" stroke="midnightblue" d="M87.88,-990.68C107.15,-1001.74 135.04,-1016.56 161,-1026 178.12,-1032.23 197.42,-1037.18 214.78,-1040.93"/>
<polygon fill="midnightblue" stroke="midnightblue" points="89.56,-987.61 79.16,-985.59 86.03,-993.65 89.56,-987.61"/>
</g>
<!-- Node24 -->
<g id="node24" class="node">
<title>Node24</title>
<g id="a_node24"><a xlink:href="classtracktion_1_1engine_1_1SharedLevelMeasuringNode.html" target="_top" xlink:title="Applies a SharedLevelMeter to the audio passing through this node.">
<polygon fill="none" stroke="black" points="191,-986 191,-1016 344,-1016 344,-986 191,-986"/>
<text text-anchor="start" x="199" y="-1004" font-family="Helvetica,sans-Serif" font-size="10.00">tracktion::engine::</text>
<text text-anchor="middle" x="267.5" y="-993" font-family="Helvetica,sans-Serif" font-size="10.00">SharedLevelMeasuringNode</text>
</a>
</g>
</g>
<!-- Node1&#45;&gt;Node24 -->
<g id="edge23" class="edge">
<title>Node1&#45;&gt;Node24</title>
<path fill="none" stroke="midnightblue" d="M135.34,-984.85C153.29,-987.06 172.59,-989.44 190.73,-991.67"/>
<polygon fill="midnightblue" stroke="midnightblue" points="135.59,-981.35 125.23,-983.6 134.73,-988.3 135.59,-981.35"/>
</g>
<!-- Node25 -->
<g id="node25" class="node">
<title>Node25</title>
<g id="a_node25"><a xlink:href="classtracktion_1_1engine_1_1SpeedRampWaveNode.html" target="_top" xlink:title="An Node that plays back a wave file.">
<polygon fill="none" stroke="black" points="203.5,-937 203.5,-967 331.5,-967 331.5,-937 203.5,-937"/>
<text text-anchor="start" x="211.5" y="-955" font-family="Helvetica,sans-Serif" font-size="10.00">tracktion::engine::</text>
<text text-anchor="middle" x="267.5" y="-944" font-family="Helvetica,sans-Serif" font-size="10.00">SpeedRampWaveNode</text>
</a>
</g>
</g>
<!-- Node1&#45;&gt;Node25 -->
<g id="edge24" class="edge">
<title>Node1&#45;&gt;Node25</title>
<path fill="none" stroke="midnightblue" d="M135.27,-967.52C157.46,-964.89 181.74,-962.02 203.31,-959.47"/>
<polygon fill="midnightblue" stroke="midnightblue" points="134.75,-964.05 125.23,-968.7 135.58,-971 134.75,-964.05"/>
</g>
<!-- Node26 -->
<g id="node26" class="node">
<title>Node26</title>
<g id="a_node26"><a xlink:href="classtracktion_1_1engine_1_1TimeStretchingWaveNode.html" target="_top" xlink:title="Node that reads from a file node and timestretches its output.">
<polygon fill="none" stroke="black" points="196,-888 196,-918 339,-918 339,-888 196,-888"/>
<text text-anchor="start" x="204" y="-906" font-family="Helvetica,sans-Serif" font-size="10.00">tracktion::engine::</text>
<text text-anchor="middle" x="267.5" y="-895" font-family="Helvetica,sans-Serif" font-size="10.00">TimeStretchingWaveNode</text>
</a>
</g>
</g>
<!-- Node1&#45;&gt;Node26 -->
<g id="edge25" class="edge">
<title>Node1&#45;&gt;Node26</title>
<path fill="none" stroke="midnightblue" d="M88.67,-961.65C107.97,-951.13 135.52,-937.16 161,-928 172.07,-924.02 184.02,-920.49 195.77,-917.44"/>
<polygon fill="midnightblue" stroke="midnightblue" points="86.96,-958.59 79.91,-966.49 90.35,-964.72 86.96,-958.59"/>
</g>
<!-- Node27 -->
<g id="node27" class="node">
<title>Node27</title>
<g id="a_node27"><a xlink:href="classtracktion_1_1engine_1_1TimedMutingNode.html" target="_top" xlink:title="A Node that mutes its input at specific time ranges.">
<polygon fill="none" stroke="black" points="214,-839 214,-869 321,-869 321,-839 214,-839"/>
<text text-anchor="start" x="222" y="-857" font-family="Helvetica,sans-Serif" font-size="10.00">tracktion::engine::</text>
<text text-anchor="middle" x="267.5" y="-846" font-family="Helvetica,sans-Serif" font-size="10.00">TimedMutingNode</text>
</a>
</g>
</g>
<!-- Node1&#45;&gt;Node27 -->
<g id="edge26" class="edge">
<title>Node1&#45;&gt;Node27</title>
<path fill="none" stroke="midnightblue" d="M76.43,-958.07C93.34,-936.01 125.06,-899 161,-879 177.12,-870.03 196.36,-864.27 213.97,-860.56"/>
<polygon fill="midnightblue" stroke="midnightblue" points="73.5,-956.16 70.32,-966.26 79.11,-960.35 73.5,-956.16"/>
</g>
<!-- Node28 -->
<g id="node28" class="node">
<title>Node28</title>
<g id="a_node28"><a xlink:href="classtracktion_1_1engine_1_1TrackMidiInputDeviceNode.html" target="_top" xlink:title="A Node that takes MIDI from the output of a track and sends it to its corresponding InputDevice.">
<polygon fill="none" stroke="black" points="194,-790 194,-820 341,-820 341,-790 194,-790"/>
<text text-anchor="start" x="202" y="-808" font-family="Helvetica,sans-Serif" font-size="10.00">tracktion::engine::</text>
<text text-anchor="middle" x="267.5" y="-797" font-family="Helvetica,sans-Serif" font-size="10.00">TrackMidiInputDeviceNode</text>
</a>
</g>
</g>
<!-- Node1&#45;&gt;Node28 -->
<g id="edge27" class="edge">
<title>Node1&#45;&gt;Node28</title>
<path fill="none" stroke="midnightblue" d="M70.76,-956.92C83.79,-925.35 114.23,-862.51 161,-830 170.82,-823.18 182.25,-818.2 193.9,-814.58"/>
<polygon fill="midnightblue" stroke="midnightblue" points="67.45,-955.76 67.01,-966.34 73.96,-958.35 67.45,-955.76"/>
</g>
<!-- Node29 -->
<g id="node29" class="node">
<title>Node29</title>
<g id="a_node29"><a xlink:href="classtracktion_1_1engine_1_1TrackMutingNode.html" target="_top" xlink:title="A Node that handles muting/soloing of its input node, according to the audibility of a track.">
<polygon fill="none" stroke="black" points="215,-741 215,-771 320,-771 320,-741 215,-741"/>
<text text-anchor="start" x="223" y="-759" font-family="Helvetica,sans-Serif" font-size="10.00">tracktion::engine::</text>
<text text-anchor="middle" x="267.5" y="-748" font-family="Helvetica,sans-Serif" font-size="10.00">TrackMutingNode</text>
</a>
</g>
</g>
<!-- Node1&#45;&gt;Node29 -->
<g id="edge28" class="edge">
<title>Node1&#45;&gt;Node29</title>
<path fill="none" stroke="midnightblue" d="M67.46,-956.54C76.56,-916.99 102.82,-827.09 161,-781 176.2,-768.96 196.24,-762.56 214.78,-759.22"/>
<polygon fill="midnightblue" stroke="midnightblue" points="64,-955.97 65.29,-966.49 70.84,-957.46 64,-955.97"/>
</g>
<!-- Node30 -->
<g id="node30" class="node">
<title>Node30</title>
<g id="a_node30"><a xlink:href="classtracktion_1_1engine_1_1TrackWaveInputDeviceNode.html" target="_top" xlink:title="A Node that takes audio from the output of a track and sends it to its corresponding InputDevice.">
<polygon fill="none" stroke="black" points="191,-692 191,-722 344,-722 344,-692 191,-692"/>
<text text-anchor="start" x="199" y="-710" font-family="Helvetica,sans-Serif" font-size="10.00">tracktion::engine::</text>
<text text-anchor="middle" x="267.5" y="-699" font-family="Helvetica,sans-Serif" font-size="10.00">TrackWaveInputDeviceNode</text>
</a>
</g>
</g>
<!-- Node1&#45;&gt;Node30 -->
<g id="edge29" class="edge">
<title>Node1&#45;&gt;Node30</title>
<path fill="none" stroke="midnightblue" d="M65.34,-956.26C70.79,-909.68 91.11,-792.28 161,-732 169.62,-724.56 180.06,-719.24 190.98,-715.46"/>
<polygon fill="midnightblue" stroke="midnightblue" points="61.86,-955.96 64.28,-966.27 68.82,-956.7 61.86,-955.96"/>
</g>
<!-- Node31 -->
<g id="node31" class="node">
<title>Node31</title>
<g id="a_node31"><a xlink:href="classtracktion_1_1engine_1_1WaveInputDeviceNode.html" target="_top" xlink:title="A Node that intercepts incoming live audio and inserts it in to the playback graph.">
<polygon fill="none" stroke="black" points="203.5,-643 203.5,-673 331.5,-673 331.5,-643 203.5,-643"/>
<text text-anchor="start" x="211.5" y="-661" font-family="Helvetica,sans-Serif" font-size="10.00">tracktion::engine::</text>
<text text-anchor="middle" x="267.5" y="-650" font-family="Helvetica,sans-Serif" font-size="10.00">WaveInputDeviceNode</text>
</a>
</g>
</g>
<!-- Node1&#45;&gt;Node31 -->
<g id="edge30" class="edge">
<title>Node1&#45;&gt;Node31</title>
<path fill="none" stroke="midnightblue" d="M63.84,-956.36C65.88,-903.66 79.02,-758.02 161,-683 172.66,-672.33 188.03,-665.96 203.42,-662.24"/>
<polygon fill="midnightblue" stroke="midnightblue" points="60.34,-956.3 63.55,-966.4 67.34,-956.5 60.34,-956.3"/>
</g>
<!-- Node32 -->
<g id="node32" class="node">
<title>Node32</title>
<g id="a_node32"><a xlink:href="classtracktion_1_1engine_1_1WaveNode.html" target="_top" xlink:title="An Node that plays back a wave file.">
<polygon fill="none" stroke="black" points="215,-594 215,-624 320,-624 320,-594 215,-594"/>
<text text-anchor="start" x="223" y="-612" font-family="Helvetica,sans-Serif" font-size="10.00">tracktion::engine::</text>
<text text-anchor="middle" x="267.5" y="-601" font-family="Helvetica,sans-Serif" font-size="10.00">WaveNode</text>
</a>
</g>
</g>
<!-- Node1&#45;&gt;Node32 -->
<g id="edge31" class="edge">
<title>Node1&#45;&gt;Node32</title>
<path fill="none" stroke="midnightblue" d="M62.75,-956.31C61.66,-897.88 66.86,-723.99 161,-634 175.35,-620.28 195.8,-613.62 214.87,-610.53"/>
<polygon fill="midnightblue" stroke="midnightblue" points="59.25,-956.49 63.03,-966.39 66.25,-956.3 59.25,-956.49"/>
</g>
<!-- Node33 -->
<g id="node33" class="node">
<title>Node33</title>
<g id="a_node33"><a xlink:href="classtracktion_1_1engine_1_1WaveNodeRealTime.html" target="_top" xlink:title="An Node that plays back a wave file.">
<polygon fill="none" stroke="black" points="209.5,-545 209.5,-575 325.5,-575 325.5,-545 209.5,-545"/>
<text text-anchor="start" x="217.5" y="-563" font-family="Helvetica,sans-Serif" font-size="10.00">tracktion::engine::</text>
<text text-anchor="middle" x="267.5" y="-552" font-family="Helvetica,sans-Serif" font-size="10.00">WaveNodeRealTime</text>
</a>
</g>
</g>
<!-- Node1&#45;&gt;Node33 -->
<g id="edge32" class="edge">
<title>Node1&#45;&gt;Node33</title>
<path fill="none" stroke="midnightblue" d="M65.74,-956.13C74.23,-884.16 106.8,-638.57 161,-585 173.85,-572.3 191.9,-565.61 209.44,-562.2"/>
<polygon fill="midnightblue" stroke="midnightblue" points="62.21,-956.13 64.54,-966.47 69.17,-956.94 62.21,-956.13"/>
</g>
<!-- Node34 -->
<g id="node34" class="node">
<title>Node34</title>
<g id="a_node34"><a xlink:href="classtracktion_1_1graph_1_1BasicSummingNode.html" target="_top" xlink:title=" ">
<polygon fill="none" stroke="black" points="168.5,-506.5 168.5,-525.5 366.5,-525.5 366.5,-506.5 168.5,-506.5"/>
<text text-anchor="middle" x="267.5" y="-513.5" font-family="Helvetica,sans-Serif" font-size="10.00">tracktion::graph::BasicSummingNode</text>
</a>
</g>
</g>
<!-- Node1&#45;&gt;Node34 -->
<g id="edge33" class="edge">
<title>Node1&#45;&gt;Node34</title>
<path fill="none" stroke="midnightblue" d="M65.06,-956.11C71.57,-878.31 99.16,-595.97 161,-536 165.28,-531.85 170.14,-528.42 175.37,-525.6"/>
<polygon fill="midnightblue" stroke="midnightblue" points="61.54,-956.16 64.22,-966.41 68.52,-956.73 61.54,-956.16"/>
</g>
<!-- Node35 -->
<g id="node35" class="node">
<title>Node35</title>
<g id="a_node35"><a xlink:href="classtracktion_1_1graph_1_1ChannelRemappingNode.html" target="_top" xlink:title="Maps channels from one to another.">
<polygon fill="none" stroke="black" points="197.5,-457 197.5,-487 337.5,-487 337.5,-457 197.5,-457"/>
<text text-anchor="start" x="205.5" y="-475" font-family="Helvetica,sans-Serif" font-size="10.00">tracktion::graph::Channel</text>
<text text-anchor="middle" x="267.5" y="-464" font-family="Helvetica,sans-Serif" font-size="10.00">RemappingNode</text>
</a>
</g>
</g>
<!-- Node1&#45;&gt;Node35 -->
<g id="edge34" class="edge">
<title>Node1&#45;&gt;Node35</title>
<path fill="none" stroke="midnightblue" d="M64.76,-956.04C70.36,-874.07 95.58,-564.54 161,-497 170.76,-486.93 183.77,-480.6 197.32,-476.69"/>
<polygon fill="midnightblue" stroke="midnightblue" points="61.25,-956.21 64.08,-966.42 68.23,-956.68 61.25,-956.21"/>
</g>
<!-- Node36 -->
<g id="node36" class="node">
<title>Node36</title>
<g id="a_node36"><a xlink:href="classtracktion_1_1graph_1_1ConnectedNode.html" target="_top" xlink:title="An Node which sums together the multiple inputs adding additional latency to provide a coherent outpu...">
<polygon fill="none" stroke="black" points="179,-418.5 179,-437.5 356,-437.5 356,-418.5 179,-418.5"/>
<text text-anchor="middle" x="267.5" y="-425.5" font-family="Helvetica,sans-Serif" font-size="10.00">tracktion::graph::ConnectedNode</text>
</a>
</g>
</g>
<!-- Node1&#45;&gt;Node36 -->
<g id="edge35" class="edge">
<title>Node1&#45;&gt;Node36</title>
<path fill="none" stroke="midnightblue" d="M64.26,-956.16C68.03,-869.09 87.53,-521.82 161,-448 166.13,-442.85 172.14,-438.8 178.65,-435.64"/>
<polygon fill="midnightblue" stroke="midnightblue" points="60.76,-956.13 63.85,-966.27 67.76,-956.42 60.76,-956.13"/>
</g>
<!-- Node37 -->
<g id="node37" class="node">
<title>Node37</title>
<g id="a_node37"><a xlink:href="classtracktion_1_1graph_1_1ForwardingNode.html" target="_top" xlink:title="Takes a non&#45;owning input node and simply forwards its outputs on.">
<polygon fill="none" stroke="black" points="178,-380.5 178,-399.5 357,-399.5 357,-380.5 178,-380.5"/>
<text text-anchor="middle" x="267.5" y="-387.5" font-family="Helvetica,sans-Serif" font-size="10.00">tracktion::graph::ForwardingNode</text>
</a>
</g>
</g>
<!-- Node1&#45;&gt;Node37 -->
<g id="edge36" class="edge">
<title>Node1&#45;&gt;Node37</title>
<path fill="none" stroke="midnightblue" d="M63.97,-956.16C66.56,-865.15 81.98,-488.65 161,-409 165.85,-404.11 171.5,-400.24 177.62,-397.19"/>
<polygon fill="midnightblue" stroke="midnightblue" points="60.47,-956.34 63.7,-966.43 67.46,-956.53 60.47,-956.34"/>
</g>
<!-- Node38 -->
<g id="node38" class="node">
<title>Node38</title>
<g id="a_node38"><a xlink:href="classtracktion_1_1graph_1_1FunctionNode.html" target="_top" xlink:title=" ">
<polygon fill="none" stroke="black" points="184,-342.5 184,-361.5 351,-361.5 351,-342.5 184,-342.5"/>
<text text-anchor="middle" x="267.5" y="-349.5" font-family="Helvetica,sans-Serif" font-size="10.00">tracktion::graph::FunctionNode</text>
</a>
</g>
</g>
<!-- Node1&#45;&gt;Node38 -->
<g id="edge37" class="edge">
<title>Node1&#45;&gt;Node38</title>
<path fill="none" stroke="midnightblue" d="M63.74,-956.04C65.31,-861.15 76.93,-456.63 161,-371 167.45,-364.43 175.36,-359.68 183.91,-356.31"/>
<polygon fill="midnightblue" stroke="midnightblue" points="60.24,-956.21 63.59,-966.26 67.24,-956.31 60.24,-956.21"/>
</g>
<!-- Node39 -->
<g id="node39" class="node">
<title>Node39</title>
<g id="a_node39"><a xlink:href="classtracktion_1_1graph_1_1GainNode.html" target="_top" xlink:title=" ">
<polygon fill="none" stroke="black" points="193.5,-304.5 193.5,-323.5 341.5,-323.5 341.5,-304.5 193.5,-304.5"/>
<text text-anchor="middle" x="267.5" y="-311.5" font-family="Helvetica,sans-Serif" font-size="10.00">tracktion::graph::GainNode</text>
</a>
</g>
</g>
<!-- Node1&#45;&gt;Node39 -->
<g id="edge38" class="edge">
<title>Node1&#45;&gt;Node39</title>
<path fill="none" stroke="midnightblue" d="M63.53,-956.04C64.13,-857.59 71.83,-424.67 161,-333 169.76,-324 181.23,-318.42 193.38,-315.09"/>
<polygon fill="midnightblue" stroke="midnightblue" points="60.03,-956.11 63.49,-966.12 67.03,-956.14 60.03,-956.11"/>
</g>
<!-- Node40 -->
<g id="node40" class="node">
<title>Node40</title>
<g id="a_node40"><a xlink:href="classtracktion_1_1graph_1_1LatencyNode.html" target="_top" xlink:title=" ">
<polygon fill="none" stroke="black" points="185.5,-266.5 185.5,-285.5 349.5,-285.5 349.5,-266.5 185.5,-266.5"/>
<text text-anchor="middle" x="267.5" y="-273.5" font-family="Helvetica,sans-Serif" font-size="10.00">tracktion::graph::LatencyNode</text>
</a>
</g>
</g>
<!-- Node1&#45;&gt;Node40 -->
<g id="edge39" class="edge">
<title>Node1&#45;&gt;Node40</title>
<path fill="none" stroke="midnightblue" d="M63.35,-955.85C63.01,-853.54 66.79,-392.67 161,-295 167.78,-287.97 176.22,-283.02 185.35,-279.6"/>
<polygon fill="midnightblue" stroke="midnightblue" points="59.85,-956.06 63.4,-966.04 66.85,-956.02 59.85,-956.06"/>
</g>
<!-- Node41 -->
<g id="node41" class="node">
<title>Node41</title>
<g id="a_node41"><a xlink:href="classtracktion_1_1graph_1_1MidiNode.html" target="_top" xlink:title="Plays back a MIDI sequence.">
<polygon fill="none" stroke="black" points="194.5,-228.5 194.5,-247.5 340.5,-247.5 340.5,-228.5 194.5,-228.5"/>
<text text-anchor="middle" x="267.5" y="-235.5" font-family="Helvetica,sans-Serif" font-size="10.00">tracktion::graph::MidiNode</text>
</a>
</g>
</g>
<!-- Node1&#45;&gt;Node41 -->
<g id="edge40" class="edge">
<title>Node1&#45;&gt;Node41</title>
<path fill="none" stroke="midnightblue" d="M63.19,-956.4C61.94,-851.88 61.49,-360.92 161,-257 169.95,-247.66 181.81,-241.99 194.35,-238.68"/>
<polygon fill="midnightblue" stroke="midnightblue" points="59.69,-956.54 63.33,-966.49 66.69,-956.44 59.69,-956.54"/>
</g>
<!-- Node42 -->
<g id="node42" class="node">
<title>Node42</title>
<g id="a_node42"><a xlink:href="classtracktion_1_1graph_1_1ReturnNode.html" target="_top" xlink:title=" ">
<polygon fill="none" stroke="black" points="188.5,-190.5 188.5,-209.5 346.5,-209.5 346.5,-190.5 188.5,-190.5"/>
<text text-anchor="middle" x="267.5" y="-197.5" font-family="Helvetica,sans-Serif" font-size="10.00">tracktion::graph::ReturnNode</text>
</a>
</g>
</g>
<!-- Node1&#45;&gt;Node42 -->
<g id="edge41" class="edge">
<title>Node1&#45;&gt;Node42</title>
<path fill="none" stroke="midnightblue" d="M64.66,-956.37C71.52,-842.93 108.41,-274.29 161,-219 168.5,-211.11 178.09,-205.84 188.41,-202.39"/>
<polygon fill="midnightblue" stroke="midnightblue" points="61.16,-956.22 64.06,-966.41 68.15,-956.64 61.16,-956.22"/>
</g>
<!-- Node43 -->
<g id="node43" class="node">
<title>Node43</title>
<g id="a_node43"><a xlink:href="classtracktion_1_1graph_1_1SendNode.html" target="_top" xlink:title=" ">
<polygon fill="none" stroke="black" points="193,-152.5 193,-171.5 342,-171.5 342,-152.5 193,-152.5"/>
<text text-anchor="middle" x="267.5" y="-159.5" font-family="Helvetica,sans-Serif" font-size="10.00">tracktion::graph::SendNode</text>
</a>
</g>
</g>
<!-- Node1&#45;&gt;Node43 -->
<g id="edge42" class="edge">
<title>Node1&#45;&gt;Node43</title>
<path fill="none" stroke="midnightblue" d="M64.52,-956.49C70.82,-840 105.82,-239.37 161,-181 169.57,-171.94 180.87,-166.32 192.9,-162.96"/>
<polygon fill="midnightblue" stroke="midnightblue" points="61.03,-956.31 63.99,-966.48 68.02,-956.68 61.03,-956.31"/>
</g>
<!-- Node45 -->
<g id="node45" class="node">
<title>Node45</title>
<g id="a_node45"><a xlink:href="classtracktion_1_1graph_1_1SilentNode.html" target="_top" xlink:title="Just a simple audio node that doesn&#39;t take any input so can be used as a stub.">
<polygon fill="none" stroke="black" points="191,-114.5 191,-133.5 344,-133.5 344,-114.5 191,-114.5"/>
<text text-anchor="middle" x="267.5" y="-121.5" font-family="Helvetica,sans-Serif" font-size="10.00">tracktion::graph::SilentNode</text>
</a>
</g>
</g>
<!-- Node1&#45;&gt;Node45 -->
<g id="edge44" class="edge">
<title>Node1&#45;&gt;Node45</title>
<path fill="none" stroke="midnightblue" d="M64.42,-956.31C70.21,-836.11 103.27,-204.4 161,-143 169.09,-134.39 179.66,-128.88 190.98,-125.47"/>
<polygon fill="midnightblue" stroke="midnightblue" points="60.92,-956.15 63.94,-966.31 67.92,-956.48 60.92,-956.15"/>
</g>
<!-- Node46 -->
<g id="node46" class="node">
<title>Node46</title>
<g id="a_node46"><a xlink:href="classtracktion_1_1graph_1_1SinNode.html" target="_top" xlink:title=" ">
<polygon fill="none" stroke="black" points="197.5,-76.5 197.5,-95.5 337.5,-95.5 337.5,-76.5 197.5,-76.5"/>
<text text-anchor="middle" x="267.5" y="-83.5" font-family="Helvetica,sans-Serif" font-size="10.00">tracktion::graph::SinNode</text>
</a>
</g>
</g>
<!-- Node1&#45;&gt;Node46 -->
<g id="edge45" class="edge">
<title>Node1&#45;&gt;Node46</title>
<path fill="none" stroke="midnightblue" d="M64.32,-956.19C69.62,-832.52 100.71,-169.45 161,-105 170.6,-94.74 183.71,-88.88 197.43,-85.71"/>
<polygon fill="midnightblue" stroke="midnightblue" points="60.81,-956.3 63.89,-966.44 67.81,-956.6 60.81,-956.3"/>
</g>
<!-- Node47 -->
<g id="node47" class="node">
<title>Node47</title>
<g id="a_node47"><a xlink:href="classtracktion_1_1graph_1_1SinkNode.html" target="_top" xlink:title="Blocks audio and MIDI input from reaching the outputs.">
<polygon fill="none" stroke="black" points="194.5,-38.5 194.5,-57.5 340.5,-57.5 340.5,-38.5 194.5,-38.5"/>
<text text-anchor="middle" x="267.5" y="-45.5" font-family="Helvetica,sans-Serif" font-size="10.00">tracktion::graph::SinkNode</text>
</a>
</g>
</g>
<!-- Node1&#45;&gt;Node47 -->
<g id="edge46" class="edge">
<title>Node1&#45;&gt;Node47</title>
<path fill="none" stroke="midnightblue" d="M64.23,-956.12C69.04,-829.12 98.14,-134.52 161,-67 169.88,-57.47 181.79,-51.72 194.41,-48.42"/>
<polygon fill="midnightblue" stroke="midnightblue" points="60.72,-956.2 63.85,-966.32 67.72,-956.46 60.72,-956.2"/>
</g>
<!-- Node48 -->
<g id="node48" class="node">
<title>Node48</title>
<g id="a_node48"><a xlink:href="classtracktion_1_1graph_1_1SummingNode.html" target="_top" xlink:title="An Node which sums together the multiple inputs adding additional latency to provide a coherent outpu...">
<polygon fill="none" stroke="black" points="181.5,-0.5 181.5,-19.5 353.5,-19.5 353.5,-0.5 181.5,-0.5"/>
<text text-anchor="middle" x="267.5" y="-7.5" font-family="Helvetica,sans-Serif" font-size="10.00">tracktion::graph::SummingNode</text>
</a>
</g>
</g>
<!-- Node1&#45;&gt;Node48 -->
<g id="edge47" class="edge">
<title>Node1&#45;&gt;Node48</title>
<path fill="none" stroke="midnightblue" d="M64.14,-956.1C68.48,-825.97 95.55,-99.59 161,-29 166.76,-22.79 173.8,-18.19 181.49,-14.82"/>
<polygon fill="midnightblue" stroke="midnightblue" points="60.63,-956.11 63.8,-966.22 67.63,-956.34 60.63,-956.11"/>
</g>
<!-- Node44 -->
<g id="node44" class="node">
<title>Node44</title>
<g id="a_node44"><a xlink:href="classtracktion_1_1engine_1_1AuxSendNode.html" target="_top" xlink:title="Node for an aux send.">
<polygon fill="none" stroke="black" points="410,-147 410,-177 515,-177 515,-147 410,-147"/>
<text text-anchor="start" x="418" y="-165" font-family="Helvetica,sans-Serif" font-size="10.00">tracktion::engine::</text>
<text text-anchor="middle" x="462.5" y="-154" font-family="Helvetica,sans-Serif" font-size="10.00">AuxSendNode</text>
</a>
</g>
</g>
<!-- Node43&#45;&gt;Node44 -->
<g id="edge43" class="edge">
<title>Node43&#45;&gt;Node44</title>
<path fill="none" stroke="midnightblue" d="M352.17,-162C371.75,-162 392.05,-162 409.77,-162"/>
<polygon fill="midnightblue" stroke="midnightblue" points="352.02,-158.5 342.02,-162 352.02,-165.5 352.02,-158.5"/>
</g>
</g>
</svg>
