<?xml version="1.0" encoding="UTF-8" standalone="no"?>
<!DOCTYPE svg PUBLIC "-//W3C//DTD SVG 1.1//EN"
 "http://www.w3.org/Graphics/SVG/1.1/DTD/svg11.dtd">
<!-- Generated by graphviz version 2.43.0 (0)
 -->
<!-- Title: engine::AutomatableEditItem Pages: 1 -->
<svg width="698pt" height="1271pt"
 viewBox="0.00 0.00 698.00 1270.50" xmlns="http://www.w3.org/2000/svg" xmlns:xlink="http://www.w3.org/1999/xlink">
<g id="graph0" class="graph" transform="scale(1 1) rotate(0) translate(4 1266.5)">
<title>engine::AutomatableEditItem</title>
<!-- Node1 -->
<g id="Node000001" class="node">
<title>Node1</title>
<g id="a_Node000001"><a xlink:title="Base class for elements that have some kind of automatable parameters.">
<polygon fill="#999999" stroke="#666666" points="293,-1129 133,-1129 133,-1110 293,-1110 293,-1129"/>
<text text-anchor="middle" x="213" y="-1117" font-family="Helvetica,sans-Serif" font-size="10.00">engine::AutomatableEditItem</text>
</a>
</g>
</g>
<!-- Node3 -->
<g id="Node000003" class="node">
<title>Node3</title>
<g id="a_Node000003"><a xlink:href="classengine_1_1MacroParameterList.html" target="_top" xlink:title=" ">
<polygon fill="white" stroke="#666666" points="482,-1166 329,-1166 329,-1147 482,-1147 482,-1166"/>
<text text-anchor="middle" x="405.5" y="-1154" font-family="Helvetica,sans-Serif" font-size="10.00">engine::MacroParameterList</text>
</a>
</g>
</g>
<!-- Node1&#45;&gt;Node3 -->
<g id="edge2_Node000001_Node000003" class="edge">
<title>Node1&#45;&gt;Node3</title>
<g id="a_edge2_Node000001_Node000003"><a xlink:title=" ">
<path fill="none" stroke="#63b8ff" d="M272.94,-1130.95C299.35,-1136.08 330.13,-1142.06 355.28,-1146.94"/>
<polygon fill="#63b8ff" stroke="#63b8ff" points="273.54,-1127.5 263.06,-1129.03 272.21,-1134.37 273.54,-1127.5"/>
</a>
</g>
</g>
<!-- Node4 -->
<g id="Node000004" class="node">
<title>Node4</title>
<g id="a_Node000004"><a xlink:href="structengine_1_1Modifier.html" target="_top" xlink:title="Bass class for parameter Modifiers.">
<polygon fill="white" stroke="#666666" points="453,-1129 358,-1129 358,-1110 453,-1110 453,-1129"/>
<text text-anchor="middle" x="405.5" y="-1117" font-family="Helvetica,sans-Serif" font-size="10.00">engine::Modifier</text>
</a>
</g>
</g>
<!-- Node1&#45;&gt;Node4 -->
<g id="edge3_Node000001_Node000004" class="edge">
<title>Node1&#45;&gt;Node4</title>
<g id="a_edge3_Node000001_Node000004"><a xlink:title=" ">
<path fill="none" stroke="#63b8ff" d="M303.24,-1119.5C322.08,-1119.5 341.24,-1119.5 357.74,-1119.5"/>
<polygon fill="#63b8ff" stroke="#63b8ff" points="303.13,-1116 293.13,-1119.5 303.13,-1123 303.13,-1116"/>
</a>
</g>
</g>
<!-- Node11 -->
<g id="Node000011" class="node">
<title>Node11</title>
<g id="a_Node000011"><a xlink:href="classengine_1_1Plugin.html" target="_top" xlink:title="Base class for all audio plugins in the Tracktion Engine.">
<polygon fill="white" stroke="#666666" points="448.5,-537 362.5,-537 362.5,-518 448.5,-518 448.5,-537"/>
<text text-anchor="middle" x="405.5" y="-525" font-family="Helvetica,sans-Serif" font-size="10.00">engine::Plugin</text>
</a>
</g>
</g>
<!-- Node1&#45;&gt;Node11 -->
<g id="edge10_Node000001_Node000011" class="edge">
<title>Node1&#45;&gt;Node11</title>
<g id="a_edge10_Node000001_Node000011"><a xlink:title=" ">
<path fill="none" stroke="#63b8ff" d="M220.24,-1100.11C250.29,-1006.71 379.62,-604.83 401.38,-537.18"/>
<polygon fill="#63b8ff" stroke="#63b8ff" points="216.88,-1099.13 217.15,-1109.72 223.54,-1101.27 216.88,-1099.13"/>
</a>
</g>
</g>
<!-- Node2 -->
<g id="Node000002" class="node">
<title>Node2</title>
<g id="a_Node000002"><a xlink:href="classengine_1_1EditItem.html" target="_top" xlink:title="Base class for objects that live inside an edit &#45; e.g.">
<polygon fill="white" stroke="#666666" points="97,-1129 0,-1129 0,-1110 97,-1110 97,-1129"/>
<text text-anchor="middle" x="48.5" y="-1117" font-family="Helvetica,sans-Serif" font-size="10.00">engine::EditItem</text>
</a>
</g>
</g>
<!-- Node2&#45;&gt;Node1 -->
<g id="edge1_Node000001_Node000002" class="edge">
<title>Node2&#45;&gt;Node1</title>
<g id="a_edge1_Node000001_Node000002"><a xlink:title=" ">
<path fill="none" stroke="#63b8ff" d="M107.54,-1119.5C115.73,-1119.5 124.26,-1119.5 132.77,-1119.5"/>
<polygon fill="#63b8ff" stroke="#63b8ff" points="107.38,-1116 97.38,-1119.5 107.38,-1123 107.38,-1116"/>
</a>
</g>
</g>
<!-- Node5 -->
<g id="Node000005" class="node">
<title>Node5</title>
<g id="a_Node000005"><a xlink:href="classengine_1_1BreakpointOscillatorModifier.html" target="_top" xlink:title=" ">
<polygon fill="white" stroke="#666666" points="681.5,-1262.5 526.5,-1262.5 526.5,-1232.5 681.5,-1232.5 681.5,-1262.5"/>
<text text-anchor="start" x="534.5" y="-1250.5" font-family="Helvetica,sans-Serif" font-size="10.00">engine::BreakpointOscillator</text>
<text text-anchor="middle" x="604" y="-1239.5" font-family="Helvetica,sans-Serif" font-size="10.00">Modifier</text>
</a>
</g>
</g>
<!-- Node4&#45;&gt;Node5 -->
<g id="edge4_Node000004_Node000005" class="edge">
<title>Node4&#45;&gt;Node5</title>
<g id="a_edge4_Node000004_Node000005"><a xlink:title=" ">
<path fill="none" stroke="#63b8ff" d="M462.86,-1126.59C469.81,-1129.22 476.42,-1132.76 482,-1137.5 513.58,-1164.33 486.98,-1196.03 518,-1223.5 521.9,-1226.96 526.27,-1229.92 530.91,-1232.46"/>
<polygon fill="#63b8ff" stroke="#63b8ff" points="463.82,-1123.22 453.23,-1123.53 461.7,-1129.9 463.82,-1123.22"/>
</a>
</g>
</g>
<!-- Node6 -->
<g id="Node000006" class="node">
<title>Node6</title>
<g id="a_Node000006"><a xlink:href="classengine_1_1EnvelopeFollowerModifier.html" target="_top" xlink:title=" ">
<polygon fill="white" stroke="#666666" points="675,-1214.5 533,-1214.5 533,-1184.5 675,-1184.5 675,-1214.5"/>
<text text-anchor="start" x="541" y="-1202.5" font-family="Helvetica,sans-Serif" font-size="10.00">engine::EnvelopeFollower</text>
<text text-anchor="middle" x="604" y="-1191.5" font-family="Helvetica,sans-Serif" font-size="10.00">Modifier</text>
</a>
</g>
</g>
<!-- Node4&#45;&gt;Node6 -->
<g id="edge5_Node000004_Node000006" class="edge">
<title>Node4&#45;&gt;Node6</title>
<g id="a_edge5_Node000004_Node000006"><a xlink:title=" ">
<path fill="none" stroke="#63b8ff" d="M462.99,-1129.12C469.63,-1131.35 476.12,-1134.11 482,-1137.5 502.15,-1149.12 498.09,-1163.46 518,-1175.5 523.64,-1178.91 529.79,-1181.85 536.11,-1184.39"/>
<polygon fill="#63b8ff" stroke="#63b8ff" points="463.81,-1125.71 453.23,-1126.2 461.81,-1132.41 463.81,-1125.71"/>
</a>
</g>
</g>
<!-- Node7 -->
<g id="Node000007" class="node">
<title>Node7</title>
<g id="a_Node000007"><a xlink:href="classengine_1_1LFOModifier.html" target="_top" xlink:title=" ">
<polygon fill="white" stroke="#666666" points="661,-1166 547,-1166 547,-1147 661,-1147 661,-1166"/>
<text text-anchor="middle" x="604" y="-1154" font-family="Helvetica,sans-Serif" font-size="10.00">engine::LFOModifier</text>
</a>
</g>
</g>
<!-- Node4&#45;&gt;Node7 -->
<g id="edge6_Node000004_Node000007" class="edge">
<title>Node4&#45;&gt;Node7</title>
<g id="a_edge6_Node000004_Node000007"><a xlink:title=" ">
<path fill="none" stroke="#63b8ff" d="M463.16,-1130.17C491.29,-1135.47 525.01,-1141.81 552.29,-1146.95"/>
<polygon fill="#63b8ff" stroke="#63b8ff" points="463.54,-1126.68 453.07,-1128.27 462.25,-1133.56 463.54,-1126.68"/>
</a>
</g>
</g>
<!-- Node8 -->
<g id="Node000008" class="node">
<title>Node8</title>
<g id="a_Node000008"><a xlink:href="classengine_1_1MIDITrackerModifier.html" target="_top" xlink:title=" ">
<polygon fill="white" stroke="#666666" points="680,-1129 528,-1129 528,-1110 680,-1110 680,-1129"/>
<text text-anchor="middle" x="604" y="-1117" font-family="Helvetica,sans-Serif" font-size="10.00">engine::MIDITrackerModifier</text>
</a>
</g>
</g>
<!-- Node4&#45;&gt;Node8 -->
<g id="edge7_Node000004_Node000008" class="edge">
<title>Node4&#45;&gt;Node8</title>
<g id="a_edge7_Node000004_Node000008"><a xlink:title=" ">
<path fill="none" stroke="#63b8ff" d="M463.33,-1119.5C483.5,-1119.5 506.51,-1119.5 527.96,-1119.5"/>
<polygon fill="#63b8ff" stroke="#63b8ff" points="463.07,-1116 453.07,-1119.5 463.07,-1123 463.07,-1116"/>
</a>
</g>
</g>
<!-- Node9 -->
<g id="Node000009" class="node">
<title>Node9</title>
<g id="a_Node000009"><a xlink:href="classengine_1_1RandomModifier.html" target="_top" xlink:title=" ">
<polygon fill="white" stroke="#666666" points="672,-1092 536,-1092 536,-1073 672,-1073 672,-1092"/>
<text text-anchor="middle" x="604" y="-1080" font-family="Helvetica,sans-Serif" font-size="10.00">engine::RandomModifier</text>
</a>
</g>
</g>
<!-- Node4&#45;&gt;Node9 -->
<g id="edge8_Node000004_Node000009" class="edge">
<title>Node4&#45;&gt;Node9</title>
<g id="a_edge8_Node000004_Node000009"><a xlink:title=" ">
<path fill="none" stroke="#63b8ff" d="M463.16,-1108.83C491.29,-1103.53 525.01,-1097.19 552.29,-1092.05"/>
<polygon fill="#63b8ff" stroke="#63b8ff" points="462.25,-1105.44 453.07,-1110.73 463.54,-1112.32 462.25,-1105.44"/>
</a>
</g>
</g>
<!-- Node10 -->
<g id="Node000010" class="node">
<title>Node10</title>
<g id="a_Node000010"><a xlink:href="classengine_1_1StepModifier.html" target="_top" xlink:title=" ">
<polygon fill="white" stroke="#666666" points="662.5,-1055 545.5,-1055 545.5,-1036 662.5,-1036 662.5,-1055"/>
<text text-anchor="middle" x="604" y="-1043" font-family="Helvetica,sans-Serif" font-size="10.00">engine::StepModifier</text>
</a>
</g>
</g>
<!-- Node4&#45;&gt;Node10 -->
<g id="edge9_Node000004_Node000010" class="edge">
<title>Node4&#45;&gt;Node10</title>
<g id="a_edge9_Node000004_Node000010"><a xlink:title=" ">
<path fill="none" stroke="#63b8ff" d="M430.88,-1104.95C452.95,-1092.35 486.7,-1074.47 518,-1063.5 527.4,-1060.21 537.6,-1057.42 547.56,-1055.09"/>
<polygon fill="#63b8ff" stroke="#63b8ff" points="429.08,-1101.95 422.18,-1109.99 432.59,-1108.01 429.08,-1101.95"/>
</a>
</g>
</g>
<!-- Node12 -->
<g id="Node000012" class="node">
<title>Node12</title>
<g id="a_Node000012"><a xlink:href="classengine_1_1AirWindowsPlugin.html" target="_top" xlink:title=" ">
<polygon fill="white" stroke="#666666" points="675.5,-1018 532.5,-1018 532.5,-999 675.5,-999 675.5,-1018"/>
<text text-anchor="middle" x="604" y="-1006" font-family="Helvetica,sans-Serif" font-size="10.00">engine::AirWindowsPlugin</text>
</a>
</g>
</g>
<!-- Node11&#45;&gt;Node12 -->
<g id="edge11_Node000011_Node000012" class="edge">
<title>Node11&#45;&gt;Node12</title>
<g id="a_edge11_Node000011_Node000012"><a xlink:title=" ">
<path fill="none" stroke="#63b8ff" d="M408.52,-547.33C417.09,-627.38 452.95,-925.54 518,-989.5 522.21,-993.63 527.1,-996.95 532.38,-999.6"/>
<polygon fill="#63b8ff" stroke="#63b8ff" points="411.98,-546.73 407.46,-537.15 405.02,-547.46 411.98,-546.73"/>
</a>
</g>
</g>
<!-- Node13 -->
<g id="Node000013" class="node">
<title>Node13</title>
<g id="a_Node000013"><a xlink:href="classengine_1_1AuxReturnPlugin.html" target="_top" xlink:title=" ">
<polygon fill="white" stroke="#666666" points="672.5,-981 535.5,-981 535.5,-962 672.5,-962 672.5,-981"/>
<text text-anchor="middle" x="604" y="-969" font-family="Helvetica,sans-Serif" font-size="10.00">engine::AuxReturnPlugin</text>
</a>
</g>
</g>
<!-- Node11&#45;&gt;Node13 -->
<g id="edge12_Node000011_Node000013" class="edge">
<title>Node11&#45;&gt;Node13</title>
<g id="a_edge12_Node000011_Node000013"><a xlink:title=" ">
<path fill="none" stroke="#63b8ff" d="M408.95,-547.18C418.76,-622.94 457.67,-894.34 518,-952.5 523.01,-957.33 528.96,-961.03 535.36,-963.87"/>
<polygon fill="#63b8ff" stroke="#63b8ff" points="412.4,-546.6 407.67,-537.12 405.46,-547.48 412.4,-546.6"/>
</a>
</g>
</g>
<!-- Node14 -->
<g id="Node000014" class="node">
<title>Node14</title>
<g id="a_Node000014"><a xlink:href="classengine_1_1AuxSendPlugin.html" target="_top" xlink:title=" ">
<polygon fill="white" stroke="#666666" points="668,-944 540,-944 540,-925 668,-925 668,-944"/>
<text text-anchor="middle" x="604" y="-932" font-family="Helvetica,sans-Serif" font-size="10.00">engine::AuxSendPlugin</text>
</a>
</g>
</g>
<!-- Node11&#45;&gt;Node14 -->
<g id="edge13_Node000011_Node000014" class="edge">
<title>Node11&#45;&gt;Node14</title>
<g id="a_edge13_Node000011_Node000014"><a xlink:title=" ">
<path fill="none" stroke="#63b8ff" d="M405.7,-547.37C404.27,-611.19 408.97,-812.81 518,-915.5 524.16,-921.31 531.7,-925.48 539.71,-928.46"/>
<polygon fill="#63b8ff" stroke="#63b8ff" points="409.2,-547.21 406.01,-537.11 402.21,-547 409.2,-547.21"/>
</a>
</g>
</g>
<!-- Node15 -->
<g id="Node000015" class="node">
<title>Node15</title>
<g id="a_Node000015"><a xlink:href="classengine_1_1ChannelMapperPlugin.html" target="_top" xlink:title="A plugin that applies an explicit channel mapping.">
<polygon fill="white" stroke="#666666" points="685,-907 523,-907 523,-888 685,-888 685,-907"/>
<text text-anchor="middle" x="604" y="-895" font-family="Helvetica,sans-Serif" font-size="10.00">engine::ChannelMapperPlugin</text>
</a>
</g>
</g>
<!-- Node11&#45;&gt;Node15 -->
<g id="edge14_Node000011_Node000015" class="edge">
<title>Node11&#45;&gt;Node15</title>
<g id="a_edge14_Node000011_Node000015"><a xlink:title=" ">
<path fill="none" stroke="#63b8ff" d="M406.4,-547.43C407.24,-607.33 418.32,-787.2 518,-878.5 522.13,-882.28 526.83,-885.36 531.87,-887.87"/>
<polygon fill="#63b8ff" stroke="#63b8ff" points="409.9,-547.09 406.34,-537.11 402.9,-547.13 409.9,-547.09"/>
</a>
</g>
</g>
<!-- Node16 -->
<g id="Node000016" class="node">
<title>Node16</title>
<g id="a_Node000016"><a xlink:href="classengine_1_1ChorusPlugin.html" target="_top" xlink:title=" ">
<polygon fill="white" stroke="#666666" points="663.5,-870 544.5,-870 544.5,-851 663.5,-851 663.5,-870"/>
<text text-anchor="middle" x="604" y="-858" font-family="Helvetica,sans-Serif" font-size="10.00">engine::ChorusPlugin</text>
</a>
</g>
</g>
<!-- Node11&#45;&gt;Node16 -->
<g id="edge15_Node000011_Node000016" class="edge">
<title>Node11&#45;&gt;Node16</title>
<g id="a_edge15_Node000011_Node000016"><a xlink:title=" ">
<path fill="none" stroke="#63b8ff" d="M407.26,-547.53C410.5,-603.3 427.63,-761.48 518,-841.5 525.47,-848.12 534.74,-852.58 544.38,-855.57"/>
<polygon fill="#63b8ff" stroke="#63b8ff" points="410.74,-547.07 406.75,-537.25 403.75,-547.41 410.74,-547.07"/>
</a>
</g>
</g>
<!-- Node17 -->
<g id="Node000017" class="node">
<title>Node17</title>
<g id="a_Node000017"><a xlink:href="classengine_1_1CompressorPlugin.html" target="_top" xlink:title=" ">
<polygon fill="white" stroke="#666666" points="676,-833 532,-833 532,-814 676,-814 676,-833"/>
<text text-anchor="middle" x="604" y="-821" font-family="Helvetica,sans-Serif" font-size="10.00">engine::CompressorPlugin</text>
</a>
</g>
</g>
<!-- Node11&#45;&gt;Node17 -->
<g id="edge16_Node000011_Node000017" class="edge">
<title>Node11&#45;&gt;Node17</title>
<g id="a_edge16_Node000011_Node000017"><a xlink:title=" ">
<path fill="none" stroke="#63b8ff" d="M408.29,-547.22C414.02,-598.23 436.63,-735.4 518,-804.5 522.5,-808.32 527.59,-811.41 533.01,-813.92"/>
<polygon fill="#63b8ff" stroke="#63b8ff" points="411.76,-546.78 407.26,-537.19 404.8,-547.49 411.76,-546.78"/>
</a>
</g>
</g>
<!-- Node18 -->
<g id="Node000018" class="node">
<title>Node18</title>
<g id="a_Node000018"><a xlink:href="classengine_1_1DelayPlugin.html" target="_top" xlink:title=" ">
<polygon fill="white" stroke="#666666" points="661,-796 547,-796 547,-777 661,-777 661,-796"/>
<text text-anchor="middle" x="604" y="-784" font-family="Helvetica,sans-Serif" font-size="10.00">engine::DelayPlugin</text>
</a>
</g>
</g>
<!-- Node11&#45;&gt;Node18 -->
<g id="edge17_Node000011_Node000018" class="edge">
<title>Node11&#45;&gt;Node18</title>
<g id="a_edge17_Node000011_Node000018"><a xlink:title=" ">
<path fill="none" stroke="#63b8ff" d="M409.6,-547.04C418,-593.15 445.6,-709.2 518,-767.5 526.24,-774.14 536.34,-778.57 546.65,-781.5"/>
<polygon fill="#63b8ff" stroke="#63b8ff" points="413.04,-546.4 407.9,-537.14 406.14,-547.58 413.04,-546.4"/>
</a>
</g>
</g>
<!-- Node19 -->
<g id="Node000019" class="node">
<title>Node19</title>
<g id="a_Node000019"><a xlink:href="classengine_1_1EqualiserPlugin.html" target="_top" xlink:title=" ">
<polygon fill="white" stroke="#666666" points="669.5,-759 538.5,-759 538.5,-740 669.5,-740 669.5,-759"/>
<text text-anchor="middle" x="604" y="-747" font-family="Helvetica,sans-Serif" font-size="10.00">engine::EqualiserPlugin</text>
</a>
</g>
</g>
<!-- Node11&#45;&gt;Node19 -->
<g id="edge18_Node000011_Node000019" class="edge">
<title>Node11&#45;&gt;Node19</title>
<g id="a_edge18_Node000011_Node000019"><a xlink:title=" ">
<path fill="none" stroke="#63b8ff" d="M411.45,-547.33C422.8,-588.41 454.68,-682.94 518,-730.5 524.05,-735.04 530.97,-738.53 538.2,-741.21"/>
<polygon fill="#63b8ff" stroke="#63b8ff" points="414.78,-546.23 408.84,-537.46 408.02,-548.02 414.78,-546.23"/>
</a>
</g>
</g>
<!-- Node20 -->
<g id="Node000020" class="node">
<title>Node20</title>
<g id="a_Node000020"><a xlink:href="classengine_1_1ExternalPlugin.html" target="_top" xlink:title="Wraps a juce::AudioPluginInstance (VST2, VST3, AU, etc.) as a tracktion Plugin.">
<polygon fill="white" stroke="#666666" points="667,-722 541,-722 541,-703 667,-703 667,-722"/>
<text text-anchor="middle" x="604" y="-710" font-family="Helvetica,sans-Serif" font-size="10.00">engine::ExternalPlugin</text>
</a>
</g>
</g>
<!-- Node11&#45;&gt;Node20 -->
<g id="edge19_Node000011_Node000020" class="edge">
<title>Node11&#45;&gt;Node20</title>
<g id="a_edge19_Node000011_Node000020"><a xlink:title=" ">
<path fill="none" stroke="#63b8ff" d="M413.78,-546.81C428.05,-581.92 463.2,-656.04 518,-693.5 524.87,-698.19 532.7,-701.75 540.78,-704.43"/>
<polygon fill="#63b8ff" stroke="#63b8ff" points="416.94,-545.28 410.02,-537.25 410.42,-547.84 416.94,-545.28"/>
</a>
</g>
</g>
<!-- Node21 -->
<g id="Node000021" class="node">
<title>Node21</title>
<g id="a_Node000021"><a xlink:href="classengine_1_1FourOscPlugin.html" target="_top" xlink:title=" ">
<polygon fill="white" stroke="#666666" points="666.5,-685 541.5,-685 541.5,-666 666.5,-666 666.5,-685"/>
<text text-anchor="middle" x="604" y="-673" font-family="Helvetica,sans-Serif" font-size="10.00">engine::FourOscPlugin</text>
</a>
</g>
</g>
<!-- Node11&#45;&gt;Node21 -->
<g id="edge20_Node000011_Node000021" class="edge">
<title>Node11&#45;&gt;Node21</title>
<g id="a_edge20_Node000011_Node000021"><a xlink:title=" ">
<path fill="none" stroke="#63b8ff" d="M417.08,-546.03C434.35,-574.5 471.41,-628.64 518,-656.5 525.14,-660.77 533.13,-664.08 541.28,-666.65"/>
<polygon fill="#63b8ff" stroke="#63b8ff" points="419.91,-543.94 411.81,-537.11 413.89,-547.5 419.91,-543.94"/>
</a>
</g>
</g>
<!-- Node22 -->
<g id="Node000022" class="node">
<title>Node22</title>
<g id="a_Node000022"><a xlink:href="classengine_1_1FreezePointPlugin.html" target="_top" xlink:title=" ">
<polygon fill="white" stroke="#666666" points="675.5,-648 532.5,-648 532.5,-629 675.5,-629 675.5,-648"/>
<text text-anchor="middle" x="604" y="-636" font-family="Helvetica,sans-Serif" font-size="10.00">engine::FreezePointPlugin</text>
</a>
</g>
</g>
<!-- Node11&#45;&gt;Node22 -->
<g id="edge21_Node000011_Node000022" class="edge">
<title>Node11&#45;&gt;Node22</title>
<g id="a_edge21_Node000011_Node000022"><a xlink:title=" ">
<path fill="none" stroke="#63b8ff" d="M422.06,-544.54C442.16,-565.46 479.19,-600.52 518,-619.5 525.88,-623.35 534.55,-626.44 543.25,-628.9"/>
<polygon fill="#63b8ff" stroke="#63b8ff" points="424.39,-541.9 414.99,-537.02 419.29,-546.7 424.39,-541.9"/>
</a>
</g>
</g>
<!-- Node23 -->
<g id="Node000023" class="node">
<title>Node23</title>
<g id="a_Node000023"><a xlink:href="classengine_1_1ImpulseResponsePlugin.html" target="_top" xlink:title="ImpulseResponsePlugin that loads an impulse response and applies it the audio stream.">
<polygon fill="white" stroke="#666666" points="690,-611 518,-611 518,-592 690,-592 690,-611"/>
<text text-anchor="middle" x="604" y="-599" font-family="Helvetica,sans-Serif" font-size="10.00">engine::ImpulseResponsePlugin</text>
</a>
</g>
</g>
<!-- Node11&#45;&gt;Node23 -->
<g id="edge22_Node000011_Node000023" class="edge">
<title>Node11&#45;&gt;Node23</title>
<g id="a_edge22_Node000011_Node000023"><a xlink:title=" ">
<path fill="none" stroke="#63b8ff" d="M431.71,-542.1C453.83,-554.39 487.19,-571.63 518,-582.5 528.55,-586.22 540.11,-589.38 551.2,-591.99"/>
<polygon fill="#63b8ff" stroke="#63b8ff" points="433.39,-539.03 422.96,-537.18 429.95,-545.13 433.39,-539.03"/>
</a>
</g>
</g>
<!-- Node24 -->
<g id="Node000024" class="node">
<title>Node24</title>
<g id="a_Node000024"><a xlink:href="classengine_1_1InsertPlugin.html" target="_top" xlink:title=" ">
<polygon fill="white" stroke="#666666" points="660.5,-574 547.5,-574 547.5,-555 660.5,-555 660.5,-574"/>
<text text-anchor="middle" x="604" y="-562" font-family="Helvetica,sans-Serif" font-size="10.00">engine::InsertPlugin</text>
</a>
</g>
</g>
<!-- Node11&#45;&gt;Node24 -->
<g id="edge23_Node000011_Node000024" class="edge">
<title>Node11&#45;&gt;Node24</title>
<g id="a_edge23_Node000011_Node000024"><a xlink:title=" ">
<path fill="none" stroke="#63b8ff" d="M458.59,-537.31C487.55,-542.76 523.44,-549.52 552.2,-554.93"/>
<polygon fill="#63b8ff" stroke="#63b8ff" points="459.13,-533.85 448.65,-535.44 457.83,-540.73 459.13,-533.85"/>
</a>
</g>
</g>
<!-- Node25 -->
<g id="Node000025" class="node">
<title>Node25</title>
<g id="a_Node000025"><a xlink:href="classengine_1_1LatencyPlugin.html" target="_top" xlink:title="A test plugin that introduces latency to the incoming signal.">
<polygon fill="white" stroke="#666666" points="666,-537 542,-537 542,-518 666,-518 666,-537"/>
<text text-anchor="middle" x="604" y="-525" font-family="Helvetica,sans-Serif" font-size="10.00">engine::LatencyPlugin</text>
</a>
</g>
</g>
<!-- Node11&#45;&gt;Node25 -->
<g id="edge24_Node000011_Node000025" class="edge">
<title>Node11&#45;&gt;Node25</title>
<g id="a_edge24_Node000011_Node000025"><a xlink:title=" ">
<path fill="none" stroke="#63b8ff" d="M458.88,-527.5C484.42,-527.5 515.29,-527.5 541.89,-527.5"/>
<polygon fill="#63b8ff" stroke="#63b8ff" points="458.65,-524 448.65,-527.5 458.65,-531 458.65,-524"/>
</a>
</g>
</g>
<!-- Node26 -->
<g id="Node000026" class="node">
<title>Node26</title>
<g id="a_Node000026"><a xlink:href="classengine_1_1LevelMeterPlugin.html" target="_top" xlink:title=" ">
<polygon fill="white" stroke="#666666" points="674,-500 534,-500 534,-481 674,-481 674,-500"/>
<text text-anchor="middle" x="604" y="-488" font-family="Helvetica,sans-Serif" font-size="10.00">engine::LevelMeterPlugin</text>
</a>
</g>
</g>
<!-- Node11&#45;&gt;Node26 -->
<g id="edge25_Node000011_Node000026" class="edge">
<title>Node11&#45;&gt;Node26</title>
<g id="a_edge25_Node000011_Node000026"><a xlink:title=" ">
<path fill="none" stroke="#63b8ff" d="M458.59,-517.69C487.55,-512.24 523.44,-505.48 552.2,-500.07"/>
<polygon fill="#63b8ff" stroke="#63b8ff" points="457.83,-514.27 448.65,-519.56 459.13,-521.15 457.83,-514.27"/>
</a>
</g>
</g>
<!-- Node27 -->
<g id="Node000027" class="node">
<title>Node27</title>
<g id="a_Node000027"><a xlink:href="classengine_1_1LowPassPlugin.html" target="_top" xlink:title=" ">
<polygon fill="white" stroke="#666666" points="667.5,-463 540.5,-463 540.5,-444 667.5,-444 667.5,-463"/>
<text text-anchor="middle" x="604" y="-451" font-family="Helvetica,sans-Serif" font-size="10.00">engine::LowPassPlugin</text>
</a>
</g>
</g>
<!-- Node11&#45;&gt;Node27 -->
<g id="edge26_Node000011_Node000027" class="edge">
<title>Node11&#45;&gt;Node27</title>
<g id="a_edge26_Node000011_Node000027"><a xlink:title=" ">
<path fill="none" stroke="#63b8ff" d="M430.88,-512.95C452.95,-500.35 486.7,-482.47 518,-471.5 527.4,-468.21 537.6,-465.42 547.56,-463.09"/>
<polygon fill="#63b8ff" stroke="#63b8ff" points="429.08,-509.95 422.18,-517.99 432.59,-516.01 429.08,-509.95"/>
</a>
</g>
</g>
<!-- Node28 -->
<g id="Node000028" class="node">
<title>Node28</title>
<g id="a_Node000028"><a xlink:href="classengine_1_1MidiModifierPlugin.html" target="_top" xlink:title=" ">
<polygon fill="white" stroke="#666666" points="677,-426 531,-426 531,-407 677,-407 677,-426"/>
<text text-anchor="middle" x="604" y="-414" font-family="Helvetica,sans-Serif" font-size="10.00">engine::MidiModifierPlugin</text>
</a>
</g>
</g>
<!-- Node11&#45;&gt;Node28 -->
<g id="edge27_Node000011_Node000028" class="edge">
<title>Node11&#45;&gt;Node28</title>
<g id="a_edge27_Node000011_Node000028"><a xlink:title=" ">
<path fill="none" stroke="#63b8ff" d="M421.99,-510.2C442.01,-488.97 478.96,-453.45 518,-434.5 525.06,-431.07 532.75,-428.3 540.54,-426.05"/>
<polygon fill="#63b8ff" stroke="#63b8ff" points="419.15,-508.11 414.94,-517.83 424.3,-512.86 419.15,-508.11"/>
</a>
</g>
</g>
<!-- Node29 -->
<g id="Node000029" class="node">
<title>Node29</title>
<g id="a_Node000029"><a xlink:href="classengine_1_1MidiPatchBayPlugin.html" target="_top" xlink:title=" ">
<polygon fill="white" stroke="#666666" points="680,-389 528,-389 528,-370 680,-370 680,-389"/>
<text text-anchor="middle" x="604" y="-377" font-family="Helvetica,sans-Serif" font-size="10.00">engine::MidiPatchBayPlugin</text>
</a>
</g>
</g>
<!-- Node11&#45;&gt;Node29 -->
<g id="edge28_Node000011_Node000029" class="edge">
<title>Node11&#45;&gt;Node29</title>
<g id="a_edge28_Node000011_Node000029"><a xlink:title=" ">
<path fill="none" stroke="#63b8ff" d="M417.01,-508.77C434.18,-479.98 471.1,-425.31 518,-397.5 523.71,-394.11 529.97,-391.36 536.41,-389.12"/>
<polygon fill="#63b8ff" stroke="#63b8ff" points="413.77,-507.37 411.77,-517.78 419.82,-510.89 413.77,-507.37"/>
</a>
</g>
</g>
<!-- Node30 -->
<g id="Node000030" class="node">
<title>Node30</title>
<g id="a_Node000030"><a xlink:href="classengine_1_1PatchBayPlugin.html" target="_top" xlink:title=" ">
<polygon fill="white" stroke="#666666" points="669.5,-352 538.5,-352 538.5,-333 669.5,-333 669.5,-352"/>
<text text-anchor="middle" x="604" y="-340" font-family="Helvetica,sans-Serif" font-size="10.00">engine::PatchBayPlugin</text>
</a>
</g>
</g>
<!-- Node11&#45;&gt;Node30 -->
<g id="edge29_Node000011_Node000030" class="edge">
<title>Node11&#45;&gt;Node30</title>
<g id="a_edge29_Node000011_Node000030"><a xlink:title=" ">
<path fill="none" stroke="#63b8ff" d="M413.7,-508.01C427.86,-472.6 462.81,-397.89 518,-360.5 524.12,-356.35 531.01,-353.14 538.15,-350.64"/>
<polygon fill="#63b8ff" stroke="#63b8ff" points="410.32,-507.07 409.98,-517.66 416.85,-509.59 410.32,-507.07"/>
</a>
</g>
</g>
<!-- Node31 -->
<g id="Node000031" class="node">
<title>Node31</title>
<g id="a_Node000031"><a xlink:href="classengine_1_1PhaserPlugin.html" target="_top" xlink:title=" ">
<polygon fill="white" stroke="#666666" points="663.5,-315 544.5,-315 544.5,-296 663.5,-296 663.5,-315"/>
<text text-anchor="middle" x="604" y="-303" font-family="Helvetica,sans-Serif" font-size="10.00">engine::PhaserPlugin</text>
</a>
</g>
</g>
<!-- Node11&#45;&gt;Node31 -->
<g id="edge30_Node000011_Node000031" class="edge">
<title>Node11&#45;&gt;Node31</title>
<g id="a_edge30_Node000011_Node000031"><a xlink:title=" ">
<path fill="none" stroke="#63b8ff" d="M411.23,-508.09C422.29,-467.01 453.93,-371.17 518,-323.5 525.75,-317.74 534.93,-313.73 544.35,-310.96"/>
<polygon fill="#63b8ff" stroke="#63b8ff" points="407.8,-507.37 408.69,-517.93 414.58,-509.12 407.8,-507.37"/>
</a>
</g>
</g>
<!-- Node32 -->
<g id="Node000032" class="node">
<title>Node32</title>
<g id="a_Node000032"><a xlink:href="classengine_1_1PitchShiftPlugin.html" target="_top" xlink:title=" ">
<polygon fill="white" stroke="#666666" points="669.5,-278 538.5,-278 538.5,-259 669.5,-259 669.5,-278"/>
<text text-anchor="middle" x="604" y="-266" font-family="Helvetica,sans-Serif" font-size="10.00">engine::PitchShiftPlugin</text>
</a>
</g>
</g>
<!-- Node11&#45;&gt;Node32 -->
<g id="edge31_Node000011_Node000032" class="edge">
<title>Node11&#45;&gt;Node32</title>
<g id="a_edge31_Node000011_Node000032"><a xlink:title=" ">
<path fill="none" stroke="#63b8ff" d="M409.53,-507.82C417.77,-461.41 445.07,-344.64 518,-286.5 524.02,-281.7 531.01,-278.1 538.35,-275.42"/>
<polygon fill="#63b8ff" stroke="#63b8ff" points="406.06,-507.36 407.87,-517.8 412.97,-508.51 406.06,-507.36"/>
</a>
</g>
</g>
<!-- Node33 -->
<g id="Node000033" class="node">
<title>Node33</title>
<g id="a_Node000033"><a xlink:href="classengine_1_1RackInstance.html" target="_top" xlink:title=" ">
<polygon fill="white" stroke="#666666" points="664.5,-241 543.5,-241 543.5,-222 664.5,-222 664.5,-241"/>
<text text-anchor="middle" x="604" y="-229" font-family="Helvetica,sans-Serif" font-size="10.00">engine::RackInstance</text>
</a>
</g>
</g>
<!-- Node11&#45;&gt;Node33 -->
<g id="edge32_Node000011_Node000033" class="edge">
<title>Node11&#45;&gt;Node33</title>
<g id="a_edge32_Node000011_Node000033"><a xlink:title=" ">
<path fill="none" stroke="#63b8ff" d="M408.22,-507.66C413.79,-456.34 436.03,-318.41 518,-249.5 525.27,-243.39 534.12,-239.19 543.31,-236.34"/>
<polygon fill="#63b8ff" stroke="#63b8ff" points="404.72,-507.46 407.23,-517.75 411.69,-508.14 404.72,-507.46"/>
</a>
</g>
</g>
<!-- Node34 -->
<g id="Node000034" class="node">
<title>Node34</title>
<g id="a_Node000034"><a xlink:href="classengine_1_1ReverbPlugin.html" target="_top" xlink:title=" ">
<polygon fill="white" stroke="#666666" points="664,-204 544,-204 544,-185 664,-185 664,-204"/>
<text text-anchor="middle" x="604" y="-192" font-family="Helvetica,sans-Serif" font-size="10.00">engine::ReverbPlugin</text>
</a>
</g>
</g>
<!-- Node11&#45;&gt;Node34 -->
<g id="edge33_Node000011_Node000034" class="edge">
<title>Node11&#45;&gt;Node34</title>
<g id="a_edge33_Node000011_Node000034"><a xlink:title=" ">
<path fill="none" stroke="#63b8ff" d="M407.17,-507.73C410.18,-451.99 426.76,-292.46 518,-212.5 525.37,-206.04 534.48,-201.7 543.97,-198.82"/>
<polygon fill="#63b8ff" stroke="#63b8ff" points="403.66,-507.83 406.71,-517.98 410.65,-508.15 403.66,-507.83"/>
</a>
</g>
</g>
<!-- Node35 -->
<g id="Node000035" class="node">
<title>Node35</title>
<g id="a_Node000035"><a xlink:href="classengine_1_1SamplerPlugin.html" target="_top" xlink:title=" ">
<polygon fill="white" stroke="#666666" points="667,-167 541,-167 541,-148 667,-148 667,-167"/>
<text text-anchor="middle" x="604" y="-155" font-family="Helvetica,sans-Serif" font-size="10.00">engine::SamplerPlugin</text>
</a>
</g>
</g>
<!-- Node11&#45;&gt;Node35 -->
<g id="edge34_Node000011_Node000035" class="edge">
<title>Node11&#45;&gt;Node35</title>
<g id="a_edge34_Node000011_Node000035"><a xlink:title=" ">
<path fill="none" stroke="#63b8ff" d="M406.33,-507.46C406.98,-447.26 417.59,-266.51 518,-175.5 524.48,-169.62 532.39,-165.49 540.75,-162.6"/>
<polygon fill="#63b8ff" stroke="#63b8ff" points="402.83,-507.83 406.31,-517.84 409.83,-507.84 402.83,-507.83"/>
</a>
</g>
</g>
<!-- Node36 -->
<g id="Node000036" class="node">
<title>Node36</title>
<g id="a_Node000036"><a xlink:href="classengine_1_1TextPlugin.html" target="_top" xlink:title=" ">
<polygon fill="white" stroke="#666666" points="657,-130 551,-130 551,-111 657,-111 657,-130"/>
<text text-anchor="middle" x="604" y="-118" font-family="Helvetica,sans-Serif" font-size="10.00">engine::TextPlugin</text>
</a>
</g>
</g>
<!-- Node11&#45;&gt;Node36 -->
<g id="edge35_Node000011_Node000036" class="edge">
<title>Node11&#45;&gt;Node36</title>
<g id="a_edge35_Node000011_Node000036"><a xlink:title=" ">
<path fill="none" stroke="#63b8ff" d="M409.46,-507.65C420.56,-435.8 462.01,-190.68 518,-138.5 526.94,-130.17 538.73,-125.31 550.67,-122.56"/>
<polygon fill="#63b8ff" stroke="#63b8ff" points="405.93,-507.57 407.89,-517.98 412.85,-508.62 405.93,-507.57"/>
</a>
</g>
</g>
<!-- Node37 -->
<g id="Node000037" class="node">
<title>Node37</title>
<g id="a_Node000037"><a xlink:href="classengine_1_1ToneGeneratorPlugin.html" target="_top" xlink:title=" ">
<polygon fill="white" stroke="#666666" points="682.5,-93 525.5,-93 525.5,-74 682.5,-74 682.5,-93"/>
<text text-anchor="middle" x="604" y="-81" font-family="Helvetica,sans-Serif" font-size="10.00">engine::ToneGeneratorPlugin</text>
</a>
</g>
</g>
<!-- Node11&#45;&gt;Node37 -->
<g id="edge36_Node000011_Node000037" class="edge">
<title>Node11&#45;&gt;Node37</title>
<g id="a_edge36_Node000011_Node000037"><a xlink:title=" ">
<path fill="none" stroke="#63b8ff" d="M408.92,-507.75C418.64,-431.74 457.22,-159.47 518,-101.5 521.49,-98.17 525.44,-95.39 529.68,-93.07"/>
<polygon fill="#63b8ff" stroke="#63b8ff" points="405.43,-507.49 407.65,-517.85 412.37,-508.36 405.43,-507.49"/>
</a>
</g>
</g>
<!-- Node38 -->
<g id="Node000038" class="node">
<title>Node38</title>
<g id="a_Node000038"><a xlink:href="classengine_1_1VCAPlugin.html" target="_top" xlink:title="The VCA plugin sits on a folder track to control the overall level of all the volume/pan plugins in i...">
<polygon fill="white" stroke="#666666" points="657,-56 551,-56 551,-37 657,-37 657,-56"/>
<text text-anchor="middle" x="604" y="-44" font-family="Helvetica,sans-Serif" font-size="10.00">engine::VCAPlugin</text>
</a>
</g>
</g>
<!-- Node11&#45;&gt;Node38 -->
<g id="edge37_Node000011_Node000038" class="edge">
<title>Node11&#45;&gt;Node38</title>
<g id="a_edge37_Node000011_Node000038"><a xlink:title=" ">
<path fill="none" stroke="#63b8ff" d="M408.5,-507.61C416.96,-427.31 452.47,-128.24 518,-64.5 526.87,-55.88 538.77,-50.93 550.86,-48.19"/>
<polygon fill="#63b8ff" stroke="#63b8ff" points="404.99,-507.51 407.44,-517.82 411.95,-508.23 404.99,-507.51"/>
</a>
</g>
</g>
<!-- Node39 -->
<g id="Node000039" class="node">
<title>Node39</title>
<g id="a_Node000039"><a xlink:href="classengine_1_1VolumeAndPanPlugin.html" target="_top" xlink:title="The built&#45;in Tracktion volume/pan plugin.">
<polygon fill="white" stroke="#666666" points="683,-19 525,-19 525,0 683,0 683,-19"/>
<text text-anchor="middle" x="604" y="-7" font-family="Helvetica,sans-Serif" font-size="10.00">engine::VolumeAndPanPlugin</text>
</a>
</g>
</g>
<!-- Node11&#45;&gt;Node39 -->
<g id="edge38_Node000011_Node000039" class="edge">
<title>Node11&#45;&gt;Node39</title>
<g id="a_edge38_Node000011_Node000039"><a xlink:title=" ">
<path fill="none" stroke="#63b8ff" d="M408.11,-507.67C415.35,-423.51 447.65,-97.1 518,-27.5 521.32,-24.21 525.09,-21.46 529.14,-19.15"/>
<polygon fill="#63b8ff" stroke="#63b8ff" points="404.6,-507.62 407.25,-517.88 411.58,-508.21 404.6,-507.62"/>
</a>
</g>
</g>
</g>
</svg>
