<?xml version="1.0" encoding="UTF-8" standalone="no"?>
<!DOCTYPE svg PUBLIC "-//W3C//DTD SVG 1.1//EN"
 "http://www.w3.org/Graphics/SVG/1.1/DTD/svg11.dtd">
<!-- Generated by graphviz version 2.43.0 (0)
 -->
<!-- Title: tracktion_engine::LFOModifier Pages: 1 -->
<svg width="744pt" height="127pt"
 viewBox="0.00 0.00 744.00 127.00" xmlns="http://www.w3.org/2000/svg" xmlns:xlink="http://www.w3.org/1999/xlink">
<g id="graph0" class="graph" transform="scale(1 1) rotate(0) translate(4 123)">
<title>tracktion_engine::LFOModifier</title>
<!-- Node1 -->
<g id="node1" class="node">
<title>Node1</title>
<g id="a_node1"><a xlink:title=" ">
<polygon fill="#bfbfbf" stroke="black" points="573,-28 573,-47 736,-47 736,-28 573,-28"/>
<text text-anchor="middle" x="654.5" y="-35" font-family="Helvetica,sans-Serif" font-size="10.00">tracktion_engine::LFOModifier</text>
</a>
</g>
</g>
<!-- Node2 -->
<g id="node2" class="node">
<title>Node2</title>
<g id="a_node2"><a xlink:href="structtracktion__engine_1_1Modifier.html" target="_top" xlink:title="Bass class for parameter Modifiers.">
<polygon fill="none" stroke="black" points="389,-50 389,-69 533,-69 533,-50 389,-50"/>
<text text-anchor="middle" x="461" y="-57" font-family="Helvetica,sans-Serif" font-size="10.00">tracktion_engine::Modifier</text>
</a>
</g>
</g>
<!-- Node2&#45;&gt;Node1 -->
<g id="edge1" class="edge">
<title>Node2&#45;&gt;Node1</title>
<path fill="none" stroke="midnightblue" d="M543.19,-50.17C553.03,-49.04 563.07,-47.89 572.9,-46.76"/>
<polygon fill="midnightblue" stroke="midnightblue" points="542.57,-46.72 533.04,-51.34 543.37,-53.68 542.57,-46.72"/>
</g>
<!-- Node3 -->
<g id="node3" class="node">
<title>Node3</title>
<g id="a_node3"><a xlink:href="classtracktion__engine_1_1AutomatableEditItem.html" target="_top" xlink:title="Base class for elements that have some kind of automatable parameters.">
<polygon fill="none" stroke="black" points="182,-88.5 182,-118.5 349,-118.5 349,-88.5 182,-88.5"/>
<text text-anchor="start" x="190" y="-106.5" font-family="Helvetica,sans-Serif" font-size="10.00">tracktion_engine::Automatable</text>
<text text-anchor="middle" x="265.5" y="-95.5" font-family="Helvetica,sans-Serif" font-size="10.00">EditItem</text>
</a>
</g>
</g>
<!-- Node3&#45;&gt;Node2 -->
<g id="edge2" class="edge">
<title>Node3&#45;&gt;Node2</title>
<path fill="none" stroke="midnightblue" d="M342.32,-86.26C368.13,-80.39 396.02,-74.05 418.17,-69.01"/>
<polygon fill="midnightblue" stroke="midnightblue" points="341.53,-82.85 332.55,-88.48 343.08,-89.68 341.53,-82.85"/>
</g>
<!-- Node4 -->
<g id="node4" class="node">
<title>Node4</title>
<g id="a_node4"><a xlink:href="classtracktion__engine_1_1EditItem.html" target="_top" xlink:title="Base class for objects that live inside an edit &#45; e.g.">
<polygon fill="none" stroke="black" points="0,-94 0,-113 146,-113 146,-94 0,-94"/>
<text text-anchor="middle" x="73" y="-101" font-family="Helvetica,sans-Serif" font-size="10.00">tracktion_engine::EditItem</text>
</a>
</g>
</g>
<!-- Node4&#45;&gt;Node3 -->
<g id="edge3" class="edge">
<title>Node4&#45;&gt;Node3</title>
<path fill="none" stroke="midnightblue" d="M156.27,-103.5C164.74,-103.5 173.36,-103.5 181.83,-103.5"/>
<polygon fill="midnightblue" stroke="midnightblue" points="156.02,-100 146.02,-103.5 156.02,-107 156.02,-100"/>
</g>
<!-- Node5 -->
<g id="node5" class="node">
<title>Node5</title>
<g id="a_node5"><a xlink:href="classtracktion__engine_1_1Selectable.html" target="_top" xlink:title="Base class for things that can be selected, and whose properties can appear in the properties panel.">
<polygon fill="none" stroke="black" points="188,-50 188,-69 343,-69 343,-50 188,-50"/>
<text text-anchor="middle" x="265.5" y="-57" font-family="Helvetica,sans-Serif" font-size="10.00">tracktion_engine::Selectable</text>
</a>
</g>
</g>
<!-- Node5&#45;&gt;Node2 -->
<g id="edge4" class="edge">
<title>Node5&#45;&gt;Node2</title>
<path fill="none" stroke="midnightblue" d="M353.6,-59.5C365.44,-59.5 377.48,-59.5 389,-59.5"/>
<polygon fill="midnightblue" stroke="midnightblue" points="353.25,-56 343.25,-59.5 353.25,-63 353.25,-56"/>
</g>
<!-- Node6 -->
<g id="node6" class="node">
<title>Node6</title>
<g id="a_node6"><a xlink:href="structtracktion__engine_1_1AutomatableParameter_1_1ModifierSource.html" target="_top" xlink:title="Base class for things that can be used to modify parameters.">
<polygon fill="none" stroke="black" points="182,-0.5 182,-30.5 349,-30.5 349,-0.5 182,-0.5"/>
<text text-anchor="start" x="190" y="-18.5" font-family="Helvetica,sans-Serif" font-size="10.00">tracktion_engine::Automatable</text>
<text text-anchor="middle" x="265.5" y="-7.5" font-family="Helvetica,sans-Serif" font-size="10.00">Parameter::ModifierSource</text>
</a>
</g>
</g>
<!-- Node6&#45;&gt;Node2 -->
<g id="edge5" class="edge">
<title>Node6&#45;&gt;Node2</title>
<path fill="none" stroke="midnightblue" d="M342.32,-32.74C368.13,-38.61 396.02,-44.95 418.17,-49.99"/>
<polygon fill="midnightblue" stroke="midnightblue" points="343.08,-29.32 332.55,-30.52 341.53,-36.15 343.08,-29.32"/>
</g>
<!-- Node7 -->
<g id="node7" class="node">
<title>Node7</title>
<g id="a_node7"><a xlink:href="structtracktion__engine_1_1ValueTreeAllEventListener.html" target="_top" xlink:title=" ">
<polygon fill="none" stroke="black" points="385,-0.5 385,-30.5 537,-30.5 537,-0.5 385,-0.5"/>
<text text-anchor="start" x="393" y="-18.5" font-family="Helvetica,sans-Serif" font-size="10.00">tracktion_engine::ValueTree</text>
<text text-anchor="middle" x="461" y="-7.5" font-family="Helvetica,sans-Serif" font-size="10.00">AllEventListener</text>
</a>
</g>
</g>
<!-- Node7&#45;&gt;Node1 -->
<g id="edge6" class="edge">
<title>Node7&#45;&gt;Node1</title>
<path fill="none" stroke="#8b1a1a" d="M547.12,-25.28C555.69,-26.26 564.38,-27.26 572.89,-28.24"/>
<polygon fill="#8b1a1a" stroke="#8b1a1a" points="547.47,-21.8 537.14,-24.13 546.67,-28.75 547.47,-21.8"/>
</g>
</g>
</svg>
