<?xml version="1.0" encoding="UTF-8" standalone="no"?>
<!DOCTYPE svg PUBLIC "-//W3C//DTD SVG 1.1//EN"
 "http://www.w3.org/Graphics/SVG/1.1/DTD/svg11.dtd">
<!-- Generated by graphviz version 2.43.0 (0)
 -->
<!-- Title: tracktion::engine::ClipEffect Pages: 1 -->
<svg width="433pt" height="480pt"
 viewBox="0.00 0.00 433.00 480.00" xmlns="http://www.w3.org/2000/svg" xmlns:xlink="http://www.w3.org/1999/xlink">
<g id="graph0" class="graph" transform="scale(1 1) rotate(0) translate(4 476)">
<title>tracktion::engine::ClipEffect</title>
<!-- Node1 -->
<g id="node1" class="node">
<title>Node1</title>
<g id="a_node1"><a xlink:title=" ">
<polygon fill="#bfbfbf" stroke="black" points="179,-220.5 179,-250.5 284,-250.5 284,-220.5 179,-220.5"/>
<text text-anchor="start" x="187" y="-238.5" font-family="Helvetica,sans-Serif" font-size="10.00">tracktion::engine::</text>
<text text-anchor="middle" x="231.5" y="-227.5" font-family="Helvetica,sans-Serif" font-size="10.00">ClipEffect</text>
</a>
</g>
</g>
<!-- Node3 -->
<g id="node3" class="node">
<title>Node3</title>
<g id="a_node3"><a xlink:href="structtracktion_1_1engine_1_1FadeInOutEffect.html" target="_top" xlink:title=" ">
<polygon fill="none" stroke="black" points="320,-441.5 320,-471.5 425,-471.5 425,-441.5 320,-441.5"/>
<text text-anchor="start" x="328" y="-459.5" font-family="Helvetica,sans-Serif" font-size="10.00">tracktion::engine::</text>
<text text-anchor="middle" x="372.5" y="-448.5" font-family="Helvetica,sans-Serif" font-size="10.00">FadeInOutEffect</text>
</a>
</g>
</g>
<!-- Node1&#45;&gt;Node3 -->
<g id="edge2" class="edge">
<title>Node1&#45;&gt;Node3</title>
<path fill="none" stroke="midnightblue" d="M237.63,-260.57C247.17,-301.44 271.26,-382.87 320,-432.5 323.32,-435.88 327.2,-438.83 331.32,-441.41"/>
<polygon fill="midnightblue" stroke="midnightblue" points="241,-259.63 235.41,-250.63 234.17,-261.15 241,-259.63"/>
</g>
<!-- Node4 -->
<g id="node4" class="node">
<title>Node4</title>
<g id="a_node4"><a xlink:href="structtracktion_1_1engine_1_1InvertEffect.html" target="_top" xlink:title=" ">
<polygon fill="none" stroke="black" points="320,-392.5 320,-422.5 425,-422.5 425,-392.5 320,-392.5"/>
<text text-anchor="start" x="328" y="-410.5" font-family="Helvetica,sans-Serif" font-size="10.00">tracktion::engine::</text>
<text text-anchor="middle" x="372.5" y="-399.5" font-family="Helvetica,sans-Serif" font-size="10.00">InvertEffect</text>
</a>
</g>
</g>
<!-- Node1&#45;&gt;Node4 -->
<g id="edge3" class="edge">
<title>Node1&#45;&gt;Node4</title>
<path fill="none" stroke="midnightblue" d="M241.8,-260.5C254.88,-292.68 281.49,-348.58 320,-383.5 323.73,-386.88 328.01,-389.86 332.49,-392.48"/>
<polygon fill="midnightblue" stroke="midnightblue" points="244.96,-258.97 238.04,-250.95 238.45,-261.53 244.96,-258.97"/>
</g>
<!-- Node5 -->
<g id="node5" class="node">
<title>Node5</title>
<g id="a_node5"><a xlink:href="structtracktion_1_1engine_1_1MakeMonoEffect.html" target="_top" xlink:title=" ">
<polygon fill="none" stroke="black" points="320,-343.5 320,-373.5 425,-373.5 425,-343.5 320,-343.5"/>
<text text-anchor="start" x="328" y="-361.5" font-family="Helvetica,sans-Serif" font-size="10.00">tracktion::engine::</text>
<text text-anchor="middle" x="372.5" y="-350.5" font-family="Helvetica,sans-Serif" font-size="10.00">MakeMonoEffect</text>
</a>
</g>
</g>
<!-- Node1&#45;&gt;Node5 -->
<g id="edge4" class="edge">
<title>Node1&#45;&gt;Node5</title>
<path fill="none" stroke="midnightblue" d="M248.86,-259.03C264.96,-280.82 291.25,-313.02 320,-334.5 324.43,-337.81 329.38,-340.81 334.42,-343.5"/>
<polygon fill="midnightblue" stroke="midnightblue" points="251.51,-256.71 242.81,-250.67 245.84,-260.82 251.51,-256.71"/>
</g>
<!-- Node6 -->
<g id="node6" class="node">
<title>Node6</title>
<g id="a_node6"><a xlink:href="structtracktion_1_1engine_1_1NormaliseEffect.html" target="_top" xlink:title=" ">
<polygon fill="none" stroke="black" points="320,-294.5 320,-324.5 425,-324.5 425,-294.5 320,-294.5"/>
<text text-anchor="start" x="328" y="-312.5" font-family="Helvetica,sans-Serif" font-size="10.00">tracktion::engine::</text>
<text text-anchor="middle" x="372.5" y="-301.5" font-family="Helvetica,sans-Serif" font-size="10.00">NormaliseEffect</text>
</a>
</g>
</g>
<!-- Node1&#45;&gt;Node6 -->
<g id="edge5" class="edge">
<title>Node1&#45;&gt;Node6</title>
<path fill="none" stroke="midnightblue" d="M266.48,-255.79C282.54,-265.15 302.08,-276.22 320,-285.5 325.78,-288.49 332.01,-291.54 338.06,-294.41"/>
<polygon fill="midnightblue" stroke="midnightblue" points="267.86,-252.54 257.47,-250.5 264.32,-258.58 267.86,-252.54"/>
</g>
<!-- Node7 -->
<g id="node7" class="node">
<title>Node7</title>
<g id="a_node7"><a xlink:href="structtracktion_1_1engine_1_1PitchShiftEffect.html" target="_top" xlink:title=" ">
<polygon fill="none" stroke="black" points="320,-245.5 320,-275.5 425,-275.5 425,-245.5 320,-245.5"/>
<text text-anchor="start" x="328" y="-263.5" font-family="Helvetica,sans-Serif" font-size="10.00">tracktion::engine::</text>
<text text-anchor="middle" x="372.5" y="-252.5" font-family="Helvetica,sans-Serif" font-size="10.00">PitchShiftEffect</text>
</a>
</g>
</g>
<!-- Node1&#45;&gt;Node7 -->
<g id="edge6" class="edge">
<title>Node1&#45;&gt;Node7</title>
<path fill="none" stroke="midnightblue" d="M294.16,-246.59C302.69,-248.12 311.38,-249.69 319.7,-251.18"/>
<polygon fill="midnightblue" stroke="midnightblue" points="294.72,-243.13 284.26,-244.81 293.48,-250.02 294.72,-243.13"/>
</g>
<!-- Node8 -->
<g id="node8" class="node">
<title>Node8</title>
<g id="a_node8"><a xlink:href="structtracktion_1_1engine_1_1PluginEffect.html" target="_top" xlink:title=" ">
<polygon fill="none" stroke="black" points="320,-196.5 320,-226.5 425,-226.5 425,-196.5 320,-196.5"/>
<text text-anchor="start" x="328" y="-214.5" font-family="Helvetica,sans-Serif" font-size="10.00">tracktion::engine::</text>
<text text-anchor="middle" x="372.5" y="-203.5" font-family="Helvetica,sans-Serif" font-size="10.00">PluginEffect</text>
</a>
</g>
</g>
<!-- Node1&#45;&gt;Node8 -->
<g id="edge7" class="edge">
<title>Node1&#45;&gt;Node8</title>
<path fill="none" stroke="midnightblue" d="M294.16,-224.85C302.69,-223.38 311.38,-221.88 319.7,-220.44"/>
<polygon fill="midnightblue" stroke="midnightblue" points="293.52,-221.41 284.26,-226.56 294.71,-228.31 293.52,-221.41"/>
</g>
<!-- Node9 -->
<g id="node9" class="node">
<title>Node9</title>
<g id="a_node9"><a xlink:href="structtracktion_1_1engine_1_1ReverseEffect.html" target="_top" xlink:title=" ">
<polygon fill="none" stroke="black" points="320,-147.5 320,-177.5 425,-177.5 425,-147.5 320,-147.5"/>
<text text-anchor="start" x="328" y="-165.5" font-family="Helvetica,sans-Serif" font-size="10.00">tracktion::engine::</text>
<text text-anchor="middle" x="372.5" y="-154.5" font-family="Helvetica,sans-Serif" font-size="10.00">ReverseEffect</text>
</a>
</g>
</g>
<!-- Node1&#45;&gt;Node9 -->
<g id="edge8" class="edge">
<title>Node1&#45;&gt;Node9</title>
<path fill="none" stroke="midnightblue" d="M267.22,-215.27C283.16,-206.19 302.38,-195.52 320,-186.5 325.88,-183.49 332.21,-180.41 338.36,-177.5"/>
<polygon fill="midnightblue" stroke="midnightblue" points="265.2,-212.4 258.26,-220.41 268.68,-218.47 265.2,-212.4"/>
</g>
<!-- Node10 -->
<g id="node10" class="node">
<title>Node10</title>
<g id="a_node10"><a xlink:href="structtracktion_1_1engine_1_1StepVolumeEffect.html" target="_top" xlink:title=" ">
<polygon fill="none" stroke="black" points="320,-98.5 320,-128.5 425,-128.5 425,-98.5 320,-98.5"/>
<text text-anchor="start" x="328" y="-116.5" font-family="Helvetica,sans-Serif" font-size="10.00">tracktion::engine::</text>
<text text-anchor="middle" x="372.5" y="-105.5" font-family="Helvetica,sans-Serif" font-size="10.00">StepVolumeEffect</text>
</a>
</g>
</g>
<!-- Node1&#45;&gt;Node10 -->
<g id="edge9" class="edge">
<title>Node1&#45;&gt;Node10</title>
<path fill="none" stroke="midnightblue" d="M248.91,-212.22C265.05,-190.65 291.36,-158.78 320,-137.5 324.43,-134.21 329.39,-131.2 334.43,-128.52"/>
<polygon fill="midnightblue" stroke="midnightblue" points="245.93,-210.36 242.84,-220.49 251.58,-214.5 245.93,-210.36"/>
</g>
<!-- Node11 -->
<g id="node11" class="node">
<title>Node11</title>
<g id="a_node11"><a xlink:href="structtracktion_1_1engine_1_1VolumeEffect.html" target="_top" xlink:title=" ">
<polygon fill="none" stroke="black" points="320,-49.5 320,-79.5 425,-79.5 425,-49.5 320,-49.5"/>
<text text-anchor="start" x="328" y="-67.5" font-family="Helvetica,sans-Serif" font-size="10.00">tracktion::engine::</text>
<text text-anchor="middle" x="372.5" y="-56.5" font-family="Helvetica,sans-Serif" font-size="10.00">VolumeEffect</text>
</a>
</g>
</g>
<!-- Node1&#45;&gt;Node11 -->
<g id="edge10" class="edge">
<title>Node1&#45;&gt;Node11</title>
<path fill="none" stroke="midnightblue" d="M241.85,-210.67C254.97,-178.71 281.63,-123.18 320,-88.5 323.73,-85.13 328.02,-82.14 332.5,-79.53"/>
<polygon fill="midnightblue" stroke="midnightblue" points="238.52,-209.57 238.06,-220.16 245.02,-212.16 238.52,-209.57"/>
</g>
<!-- Node12 -->
<g id="node12" class="node">
<title>Node12</title>
<g id="a_node12"><a xlink:href="structtracktion_1_1engine_1_1WarpTimeEffect.html" target="_top" xlink:title=" ">
<polygon fill="none" stroke="black" points="320,-0.5 320,-30.5 425,-30.5 425,-0.5 320,-0.5"/>
<text text-anchor="start" x="328" y="-18.5" font-family="Helvetica,sans-Serif" font-size="10.00">tracktion::engine::</text>
<text text-anchor="middle" x="372.5" y="-7.5" font-family="Helvetica,sans-Serif" font-size="10.00">WarpTimeEffect</text>
</a>
</g>
</g>
<!-- Node1&#45;&gt;Node12 -->
<g id="edge11" class="edge">
<title>Node1&#45;&gt;Node12</title>
<path fill="none" stroke="midnightblue" d="M237.66,-210.56C247.25,-169.89 271.42,-88.88 320,-39.5 323.32,-36.12 327.21,-33.17 331.33,-30.6"/>
<polygon fill="midnightblue" stroke="midnightblue" points="234.22,-209.92 235.43,-220.45 241.05,-211.46 234.22,-209.92"/>
</g>
<!-- Node2 -->
<g id="node2" class="node">
<title>Node2</title>
<g id="a_node2"><a xlink:href="structtracktion_1_1engine_1_1ValueTreeAllEventListener.html" target="_top" xlink:title=" ">
<polygon fill="none" stroke="black" points="0,-220.5 0,-250.5 143,-250.5 143,-220.5 0,-220.5"/>
<text text-anchor="start" x="8" y="-238.5" font-family="Helvetica,sans-Serif" font-size="10.00">tracktion::engine::</text>
<text text-anchor="middle" x="71.5" y="-227.5" font-family="Helvetica,sans-Serif" font-size="10.00">ValueTreeAllEventListener</text>
</a>
</g>
</g>
<!-- Node2&#45;&gt;Node1 -->
<g id="edge1" class="edge">
<title>Node2&#45;&gt;Node1</title>
<path fill="none" stroke="darkgreen" d="M153.34,-235.5C162,-235.5 170.64,-235.5 178.82,-235.5"/>
<polygon fill="darkgreen" stroke="darkgreen" points="153.18,-232 143.18,-235.5 153.18,-239 153.18,-232"/>
</g>
</g>
</svg>
