<?xml version="1.0" encoding="UTF-8" standalone="no"?>
<!DOCTYPE svg PUBLIC "-//W3C//DTD SVG 1.1//EN"
 "http://www.w3.org/Graphics/SVG/1.1/DTD/svg11.dtd">
<!-- Generated by graphviz version 2.43.0 (0)
 -->
<!-- Title: tracktion_engine::ControlSurface Pages: 1 -->
<svg width="728pt" height="301pt"
 viewBox="0.00 0.00 728.00 301.00" xmlns="http://www.w3.org/2000/svg" xmlns:xlink="http://www.w3.org/1999/xlink">
<g id="graph0" class="graph" transform="scale(1 1) rotate(0) translate(4 297)">
<title>tracktion_engine::ControlSurface</title>
<!-- Node1 -->
<g id="node1" class="node">
<title>Node1</title>
<g id="a_node1"><a xlink:title="Base class for types of control surface.">
<polygon fill="#bfbfbf" stroke="black" points="191,-131.5 191,-161.5 331,-161.5 331,-131.5 191,-131.5"/>
<text text-anchor="start" x="199" y="-149.5" font-family="Helvetica,sans-Serif" font-size="10.00">tracktion_engine::Control</text>
<text text-anchor="middle" x="261" y="-138.5" font-family="Helvetica,sans-Serif" font-size="10.00">Surface</text>
</a>
</g>
</g>
<!-- Node3 -->
<g id="node3" class="node">
<title>Node3</title>
<g id="a_node3"><a xlink:href="classtracktion__engine_1_1AlphaTrackControlSurface.html" target="_top" xlink:title=" ">
<polygon fill="none" stroke="black" points="369.5,-262.5 369.5,-292.5 527.5,-292.5 527.5,-262.5 369.5,-262.5"/>
<text text-anchor="start" x="377.5" y="-280.5" font-family="Helvetica,sans-Serif" font-size="10.00">tracktion_engine::AlphaTrack</text>
<text text-anchor="middle" x="448.5" y="-269.5" font-family="Helvetica,sans-Serif" font-size="10.00">ControlSurface</text>
</a>
</g>
</g>
<!-- Node1&#45;&gt;Node3 -->
<g id="edge2" class="edge">
<title>Node1&#45;&gt;Node3</title>
<path fill="none" stroke="midnightblue" d="M278.87,-169.62C297.75,-193.89 330.51,-231.51 367,-253.5 372.62,-256.89 378.75,-259.82 385.04,-262.37"/>
<polygon fill="midnightblue" stroke="midnightblue" points="281.64,-167.48 272.79,-161.64 276.07,-171.72 281.64,-167.48"/>
</g>
<!-- Node4 -->
<g id="node4" class="node">
<title>Node4</title>
<g id="a_node4"><a xlink:href="classtracktion__engine_1_1CustomControlSurface.html" target="_top" xlink:title=" ">
<polygon fill="none" stroke="black" points="377.5,-213.5 377.5,-243.5 519.5,-243.5 519.5,-213.5 377.5,-213.5"/>
<text text-anchor="start" x="385.5" y="-231.5" font-family="Helvetica,sans-Serif" font-size="10.00">tracktion_engine::Custom</text>
<text text-anchor="middle" x="448.5" y="-220.5" font-family="Helvetica,sans-Serif" font-size="10.00">ControlSurface</text>
</a>
</g>
</g>
<!-- Node1&#45;&gt;Node4 -->
<g id="edge3" class="edge">
<title>Node1&#45;&gt;Node4</title>
<path fill="none" stroke="midnightblue" d="M295.18,-166.69C315.44,-178.47 342.14,-193.01 367,-203.5 375.49,-207.08 384.68,-210.42 393.71,-213.41"/>
<polygon fill="midnightblue" stroke="midnightblue" points="296.75,-163.56 286.35,-161.5 293.2,-169.59 296.75,-163.56"/>
</g>
<!-- Node5 -->
<g id="node5" class="node">
<title>Node5</title>
<g id="a_node5"><a xlink:href="classtracktion__engine_1_1MackieC4.html" target="_top" xlink:title=" ">
<polygon fill="none" stroke="black" points="372.5,-175 372.5,-194 524.5,-194 524.5,-175 372.5,-175"/>
<text text-anchor="middle" x="448.5" y="-182" font-family="Helvetica,sans-Serif" font-size="10.00">tracktion_engine::MackieC4</text>
</a>
</g>
</g>
<!-- Node1&#45;&gt;Node5 -->
<g id="edge4" class="edge">
<title>Node1&#45;&gt;Node5</title>
<path fill="none" stroke="midnightblue" d="M341,-162.68C361.42,-166.87 382.74,-171.23 400.89,-174.95"/>
<polygon fill="midnightblue" stroke="midnightblue" points="341.57,-159.23 331.07,-160.65 340.17,-166.09 341.57,-159.23"/>
</g>
<!-- Node6 -->
<g id="node6" class="node">
<title>Node6</title>
<g id="a_node6"><a xlink:href="classtracktion__engine_1_1MackieMCU.html" target="_top" xlink:title=" ">
<polygon fill="none" stroke="black" points="367,-137 367,-156 530,-156 530,-137 367,-137"/>
<text text-anchor="middle" x="448.5" y="-144" font-family="Helvetica,sans-Serif" font-size="10.00">tracktion_engine::MackieMCU</text>
</a>
</g>
</g>
<!-- Node1&#45;&gt;Node6 -->
<g id="edge5" class="edge">
<title>Node1&#45;&gt;Node6</title>
<path fill="none" stroke="midnightblue" d="M341.28,-146.5C349.73,-146.5 358.33,-146.5 366.79,-146.5"/>
<polygon fill="midnightblue" stroke="midnightblue" points="341.07,-143 331.07,-146.5 341.07,-150 341.07,-143"/>
</g>
<!-- Node8 -->
<g id="node8" class="node">
<title>Node8</title>
<g id="a_node8"><a xlink:href="classtracktion__engine_1_1MackieXT.html" target="_top" xlink:title=" ">
<polygon fill="none" stroke="black" points="372.5,-99 372.5,-118 524.5,-118 524.5,-99 372.5,-99"/>
<text text-anchor="middle" x="448.5" y="-106" font-family="Helvetica,sans-Serif" font-size="10.00">tracktion_engine::MackieXT</text>
</a>
</g>
</g>
<!-- Node1&#45;&gt;Node8 -->
<g id="edge7" class="edge">
<title>Node1&#45;&gt;Node8</title>
<path fill="none" stroke="midnightblue" d="M341,-130.32C361.42,-126.13 382.74,-121.77 400.89,-118.05"/>
<polygon fill="midnightblue" stroke="midnightblue" points="340.17,-126.91 331.07,-132.35 341.57,-133.77 340.17,-126.91"/>
</g>
<!-- Node9 -->
<g id="node9" class="node">
<title>Node9</title>
<g id="a_node9"><a xlink:href="classtracktion__engine_1_1NovationRemoteSl.html" target="_top" xlink:title=" ">
<polygon fill="none" stroke="black" points="374,-49.5 374,-79.5 523,-79.5 523,-49.5 374,-49.5"/>
<text text-anchor="start" x="382" y="-67.5" font-family="Helvetica,sans-Serif" font-size="10.00">tracktion_engine::Novation</text>
<text text-anchor="middle" x="448.5" y="-56.5" font-family="Helvetica,sans-Serif" font-size="10.00">RemoteSl</text>
</a>
</g>
</g>
<!-- Node1&#45;&gt;Node9 -->
<g id="edge8" class="edge">
<title>Node1&#45;&gt;Node9</title>
<path fill="none" stroke="midnightblue" d="M295.18,-126.31C315.44,-114.53 342.14,-99.99 367,-89.5 375.49,-85.92 384.68,-82.58 393.71,-79.59"/>
<polygon fill="midnightblue" stroke="midnightblue" points="293.2,-123.41 286.35,-131.5 296.75,-129.44 293.2,-123.41"/>
</g>
<!-- Node11 -->
<g id="node11" class="node">
<title>Node11</title>
<g id="a_node11"><a xlink:href="classtracktion__engine_1_1TranzportControlSurface.html" target="_top" xlink:title=" ">
<polygon fill="none" stroke="black" points="374,-0.5 374,-30.5 523,-30.5 523,-0.5 374,-0.5"/>
<text text-anchor="start" x="382" y="-18.5" font-family="Helvetica,sans-Serif" font-size="10.00">tracktion_engine::Tranzport</text>
<text text-anchor="middle" x="448.5" y="-7.5" font-family="Helvetica,sans-Serif" font-size="10.00">ControlSurface</text>
</a>
</g>
</g>
<!-- Node1&#45;&gt;Node11 -->
<g id="edge10" class="edge">
<title>Node1&#45;&gt;Node11</title>
<path fill="none" stroke="midnightblue" d="M278.87,-123.38C297.75,-99.11 330.51,-61.49 367,-39.5 372.62,-36.11 378.75,-33.18 385.04,-30.63"/>
<polygon fill="midnightblue" stroke="midnightblue" points="276.07,-121.28 272.79,-131.36 281.64,-125.52 276.07,-121.28"/>
</g>
<!-- Node2 -->
<g id="node2" class="node">
<title>Node2</title>
<g id="a_node2"><a xlink:href="classtracktion__engine_1_1Selectable.html" target="_top" xlink:title="Base class for things that can be selected, and whose properties can appear in the properties panel.">
<polygon fill="none" stroke="black" points="0,-137 0,-156 155,-156 155,-137 0,-137"/>
<text text-anchor="middle" x="77.5" y="-144" font-family="Helvetica,sans-Serif" font-size="10.00">tracktion_engine::Selectable</text>
</a>
</g>
</g>
<!-- Node2&#45;&gt;Node1 -->
<g id="edge1" class="edge">
<title>Node2&#45;&gt;Node1</title>
<path fill="none" stroke="midnightblue" d="M165.23,-146.5C173.8,-146.5 182.41,-146.5 190.77,-146.5"/>
<polygon fill="midnightblue" stroke="midnightblue" points="165.21,-143 155.21,-146.5 165.21,-150 165.21,-143"/>
</g>
<!-- Node7 -->
<g id="node7" class="node">
<title>Node7</title>
<g id="a_node7"><a xlink:href="classtracktion__engine_1_1IconProG2.html" target="_top" xlink:title=" ">
<polygon fill="none" stroke="black" points="566,-137 566,-156 720,-156 720,-137 566,-137"/>
<text text-anchor="middle" x="643" y="-144" font-family="Helvetica,sans-Serif" font-size="10.00">tracktion_engine::IconProG2</text>
</a>
</g>
</g>
<!-- Node6&#45;&gt;Node7 -->
<g id="edge6" class="edge">
<title>Node6&#45;&gt;Node7</title>
<path fill="none" stroke="midnightblue" d="M540.08,-146.5C548.69,-146.5 557.35,-146.5 565.8,-146.5"/>
<polygon fill="midnightblue" stroke="midnightblue" points="540.02,-143 530.02,-146.5 540.02,-150 540.02,-143"/>
</g>
<!-- Node10 -->
<g id="node10" class="node">
<title>Node10</title>
<g id="a_node10"><a xlink:href="classtracktion__engine_1_1RemoteSLCompact.html" target="_top" xlink:title=" ">
<polygon fill="none" stroke="black" points="571.5,-49.5 571.5,-79.5 714.5,-79.5 714.5,-49.5 571.5,-49.5"/>
<text text-anchor="start" x="579.5" y="-67.5" font-family="Helvetica,sans-Serif" font-size="10.00">tracktion_engine::Remote</text>
<text text-anchor="middle" x="643" y="-56.5" font-family="Helvetica,sans-Serif" font-size="10.00">SLCompact</text>
</a>
</g>
</g>
<!-- Node9&#45;&gt;Node10 -->
<g id="edge9" class="edge">
<title>Node9&#45;&gt;Node10</title>
<path fill="none" stroke="midnightblue" d="M533.21,-64.5C545.91,-64.5 558.91,-64.5 571.3,-64.5"/>
<polygon fill="midnightblue" stroke="midnightblue" points="533.1,-61 523.1,-64.5 533.1,-68 533.1,-61"/>
</g>
</g>
</svg>
