<?xml version="1.0" encoding="UTF-8" standalone="no"?>
<!DOCTYPE svg PUBLIC "-//W3C//DTD SVG 1.1//EN"
 "http://www.w3.org/Graphics/SVG/1.1/DTD/svg11.dtd">
<!-- Generated by graphviz version 2.43.0 (0)
 -->
<!-- Title: tracktion::engine::Selectable Pages: 1 -->
<svg width="546pt" height="1638pt"
 viewBox="0.00 0.00 546.00 1638.00" xmlns="http://www.w3.org/2000/svg" xmlns:xlink="http://www.w3.org/1999/xlink">
<g id="graph0" class="graph" transform="scale(1 1) rotate(0) translate(4 1634)">
<title>tracktion::engine::Selectable</title>
<!-- Node1 -->
<g id="node1" class="node">
<title>Node1</title>
<g id="a_node1"><a xlink:title="Base class for things that can be selected, and whose properties can appear in the properties panel.">
<polygon fill="#bfbfbf" stroke="black" points="0,-563.5 0,-593.5 105,-593.5 105,-563.5 0,-563.5"/>
<text text-anchor="start" x="8" y="-581.5" font-family="Helvetica,sans-Serif" font-size="10.00">tracktion::engine::</text>
<text text-anchor="middle" x="52.5" y="-570.5" font-family="Helvetica,sans-Serif" font-size="10.00">Selectable</text>
</a>
</g>
</g>
<!-- Node2 -->
<g id="node2" class="node">
<title>Node2</title>
<g id="a_node2"><a xlink:href="classtracktion_1_1engine_1_1AutomatableParameter.html" target="_top" xlink:title=" ">
<polygon fill="none" stroke="black" points="162.5,-1501.5 162.5,-1531.5 292.5,-1531.5 292.5,-1501.5 162.5,-1501.5"/>
<text text-anchor="start" x="170.5" y="-1519.5" font-family="Helvetica,sans-Serif" font-size="10.00">tracktion::engine::</text>
<text text-anchor="middle" x="227.5" y="-1508.5" font-family="Helvetica,sans-Serif" font-size="10.00">AutomatableParameter</text>
</a>
</g>
</g>
<!-- Node1&#45;&gt;Node2 -->
<g id="edge1" class="edge">
<title>Node1&#45;&gt;Node2</title>
<path fill="none" stroke="midnightblue" d="M54.31,-603.85C57.78,-697.34 74.37,-1031.12 141,-1296.5 161.06,-1376.39 202.33,-1466.45 219.13,-1501.46"/>
<polygon fill="midnightblue" stroke="midnightblue" points="57.8,-603.53 53.95,-593.66 50.81,-603.78 57.8,-603.53"/>
</g>
<!-- Node7 -->
<g id="node7" class="node">
<title>Node7</title>
<g id="a_node7"><a xlink:href="classtracktion_1_1engine_1_1ClipSlot.html" target="_top" xlink:title="Represents a slot on a track that a Clip can live in to be played as a launched clip.">
<polygon fill="none" stroke="black" points="175,-1256.5 175,-1286.5 280,-1286.5 280,-1256.5 175,-1256.5"/>
<text text-anchor="start" x="183" y="-1274.5" font-family="Helvetica,sans-Serif" font-size="10.00">tracktion::engine::</text>
<text text-anchor="middle" x="227.5" y="-1263.5" font-family="Helvetica,sans-Serif" font-size="10.00">ClipSlot</text>
</a>
</g>
</g>
<!-- Node1&#45;&gt;Node7 -->
<g id="edge6" class="edge">
<title>Node1&#45;&gt;Node7</title>
<path fill="none" stroke="midnightblue" d="M53.23,-603.93C52.56,-714.06 55.48,-1148.72 141,-1247.5 149.68,-1257.52 162.18,-1263.52 174.95,-1267.07"/>
<polygon fill="midnightblue" stroke="midnightblue" points="56.73,-603.79 53.3,-593.76 49.73,-603.73 56.73,-603.79"/>
</g>
<!-- Node8 -->
<g id="node8" class="node">
<title>Node8</title>
<g id="a_node8"><a xlink:href="classtracktion_1_1engine_1_1ControlSurface.html" target="_top" xlink:title="Base class for types of control surface.">
<polygon fill="none" stroke="black" points="175,-1207.5 175,-1237.5 280,-1237.5 280,-1207.5 175,-1207.5"/>
<text text-anchor="start" x="183" y="-1225.5" font-family="Helvetica,sans-Serif" font-size="10.00">tracktion::engine::</text>
<text text-anchor="middle" x="227.5" y="-1214.5" font-family="Helvetica,sans-Serif" font-size="10.00">ControlSurface</text>
</a>
</g>
</g>
<!-- Node1&#45;&gt;Node8 -->
<g id="edge7" class="edge">
<title>Node1&#45;&gt;Node8</title>
<path fill="none" stroke="midnightblue" d="M54.69,-604.15C58.87,-679.46 76.33,-905.53 141,-1079.5 159.65,-1129.66 195.99,-1182 214.72,-1207.18"/>
<polygon fill="midnightblue" stroke="midnightblue" points="58.16,-603.58 54.15,-593.78 51.17,-603.95 58.16,-603.58"/>
</g>
<!-- Node18 -->
<g id="node16" class="node">
<title>Node18</title>
<g id="a_node16"><a xlink:href="classtracktion_1_1engine_1_1CurveEditorPoint.html" target="_top" xlink:title=" ">
<polygon fill="none" stroke="black" points="175,-1039.5 175,-1069.5 280,-1069.5 280,-1039.5 175,-1039.5"/>
<text text-anchor="start" x="183" y="-1057.5" font-family="Helvetica,sans-Serif" font-size="10.00">tracktion::engine::</text>
<text text-anchor="middle" x="227.5" y="-1046.5" font-family="Helvetica,sans-Serif" font-size="10.00">CurveEditorPoint</text>
</a>
</g>
</g>
<!-- Node1&#45;&gt;Node18 -->
<g id="edge15" class="edge">
<title>Node1&#45;&gt;Node18</title>
<path fill="none" stroke="midnightblue" d="M55.85,-603.96C63.86,-686.17 92.35,-943.02 141,-1008.5 151.15,-1022.17 166.6,-1032.21 181.59,-1039.36"/>
<polygon fill="midnightblue" stroke="midnightblue" points="59.31,-603.39 54.87,-593.77 52.34,-604.05 59.31,-603.39"/>
</g>
<!-- Node20 -->
<g id="node18" class="node">
<title>Node20</title>
<g id="a_node18"><a xlink:href="classtracktion_1_1engine_1_1Edit.html" target="_top" xlink:title="The Tracktion Edit class!">
<polygon fill="none" stroke="black" points="165.5,-980 165.5,-999 289.5,-999 289.5,-980 165.5,-980"/>
<text text-anchor="middle" x="227.5" y="-987" font-family="Helvetica,sans-Serif" font-size="10.00">tracktion::engine::Edit</text>
</a>
</g>
</g>
<!-- Node1&#45;&gt;Node20 -->
<g id="edge17" class="edge">
<title>Node1&#45;&gt;Node20</title>
<path fill="none" stroke="midnightblue" d="M55.68,-604.02C62.89,-682.5 88.58,-918.12 141,-970.5 147.67,-977.16 156.12,-981.71 165.11,-984.78"/>
<polygon fill="midnightblue" stroke="midnightblue" points="59.12,-603.27 54.75,-593.62 52.15,-603.89 59.12,-603.27"/>
</g>
<!-- Node21 -->
<g id="node19" class="node">
<title>Node21</title>
<g id="a_node19"><a xlink:href="classtracktion_1_1engine_1_1InputDevice.html" target="_top" xlink:title="Represents an input device.">
<polygon fill="none" stroke="black" points="175,-930.5 175,-960.5 280,-960.5 280,-930.5 175,-930.5"/>
<text text-anchor="start" x="183" y="-948.5" font-family="Helvetica,sans-Serif" font-size="10.00">tracktion::engine::</text>
<text text-anchor="middle" x="227.5" y="-937.5" font-family="Helvetica,sans-Serif" font-size="10.00">InputDevice</text>
</a>
</g>
</g>
<!-- Node1&#45;&gt;Node21 -->
<g id="edge18" class="edge">
<title>Node1&#45;&gt;Node21</title>
<path fill="none" stroke="midnightblue" d="M54.88,-603.67C59.09,-659.78 75.83,-797.23 141,-887.5 154.44,-906.11 175.81,-920.61 193.83,-930.46"/>
<polygon fill="midnightblue" stroke="midnightblue" points="58.36,-603.32 54.19,-593.58 51.38,-603.79 58.36,-603.32"/>
</g>
<!-- Node26 -->
<g id="node22" class="node">
<title>Node26</title>
<g id="a_node22"><a xlink:href="structtracktion_1_1engine_1_1InputDeviceInstance_1_1Destination.html" target="_top" xlink:title=" ">
<polygon fill="none" stroke="black" points="169.5,-837 169.5,-878 285.5,-878 285.5,-837 169.5,-837"/>
<text text-anchor="start" x="177.5" y="-866" font-family="Helvetica,sans-Serif" font-size="10.00">tracktion::engine::</text>
<text text-anchor="start" x="177.5" y="-855" font-family="Helvetica,sans-Serif" font-size="10.00">InputDeviceInstance</text>
<text text-anchor="middle" x="227.5" y="-844" font-family="Helvetica,sans-Serif" font-size="10.00">::Destination</text>
</a>
</g>
</g>
<!-- Node1&#45;&gt;Node26 -->
<g id="edge21" class="edge">
<title>Node1&#45;&gt;Node26</title>
<path fill="none" stroke="midnightblue" d="M55.63,-603.83C61.07,-652.89 79.7,-761.55 141,-824.5 148.88,-832.59 158.97,-838.74 169.43,-843.39"/>
<polygon fill="midnightblue" stroke="midnightblue" points="59.1,-603.37 54.61,-593.77 52.14,-604.07 59.1,-603.37"/>
</g>
<!-- Node30 -->
<g id="node26" class="node">
<title>Node30</title>
<g id="a_node26"><a xlink:href="structtracktion_1_1engine_1_1MakeMonoEffect.html" target="_top" xlink:title=" ">
<polygon fill="none" stroke="black" points="175,-784.5 175,-814.5 280,-814.5 280,-784.5 175,-784.5"/>
<text text-anchor="start" x="183" y="-802.5" font-family="Helvetica,sans-Serif" font-size="10.00">tracktion::engine::</text>
<text text-anchor="middle" x="227.5" y="-791.5" font-family="Helvetica,sans-Serif" font-size="10.00">MakeMonoEffect</text>
</a>
</g>
</g>
<!-- Node1&#45;&gt;Node30 -->
<g id="edge25" class="edge">
<title>Node1&#45;&gt;Node30</title>
<path fill="none" stroke="midnightblue" d="M57.58,-603.6C65.73,-645.52 88.02,-729.66 141,-775.5 150.56,-783.77 162.77,-789.21 174.95,-792.77"/>
<polygon fill="midnightblue" stroke="midnightblue" points="61.01,-602.88 55.76,-593.67 54.12,-604.14 61.01,-602.88"/>
</g>
<!-- Node31 -->
<g id="node27" class="node">
<title>Node31</title>
<g id="a_node27"><a xlink:href="structtracktion_1_1engine_1_1Modifier.html" target="_top" xlink:title="Bass class for parameter Modifiers.">
<polygon fill="none" stroke="black" points="175,-735.5 175,-765.5 280,-765.5 280,-735.5 175,-735.5"/>
<text text-anchor="start" x="183" y="-753.5" font-family="Helvetica,sans-Serif" font-size="10.00">tracktion::engine::</text>
<text text-anchor="middle" x="227.5" y="-742.5" font-family="Helvetica,sans-Serif" font-size="10.00">Modifier</text>
</a>
</g>
</g>
<!-- Node1&#45;&gt;Node31 -->
<g id="edge26" class="edge">
<title>Node1&#45;&gt;Node31</title>
<path fill="none" stroke="midnightblue" d="M61.6,-603.47C73.62,-636.57 99.36,-694.5 141,-726.5 150.78,-734.02 162.8,-739.18 174.7,-742.72"/>
<polygon fill="midnightblue" stroke="midnightblue" points="64.78,-601.95 58.18,-593.66 58.17,-604.26 64.78,-601.95"/>
</g>
<!-- Node38 -->
<g id="node34" class="node">
<title>Node38</title>
<g id="a_node34"><a xlink:href="structtracktion_1_1engine_1_1NormaliseEffect.html" target="_top" xlink:title=" ">
<polygon fill="none" stroke="black" points="175,-686.5 175,-716.5 280,-716.5 280,-686.5 175,-686.5"/>
<text text-anchor="start" x="183" y="-704.5" font-family="Helvetica,sans-Serif" font-size="10.00">tracktion::engine::</text>
<text text-anchor="middle" x="227.5" y="-693.5" font-family="Helvetica,sans-Serif" font-size="10.00">NormaliseEffect</text>
</a>
</g>
</g>
<!-- Node1&#45;&gt;Node38 -->
<g id="edge33" class="edge">
<title>Node1&#45;&gt;Node38</title>
<path fill="none" stroke="midnightblue" d="M68.39,-602.06C83.86,-624.66 110.12,-658.13 141,-677.5 151.19,-683.89 163.1,-688.62 174.75,-692.1"/>
<polygon fill="midnightblue" stroke="midnightblue" points="71.27,-600.07 62.81,-593.69 65.44,-603.96 71.27,-600.07"/>
</g>
<!-- Node39 -->
<g id="node35" class="node">
<title>Node39</title>
<g id="a_node35"><a xlink:href="classtracktion_1_1engine_1_1OutputDevice.html" target="_top" xlink:title="Base class for audio or midi output devices, to which a track&#39;s output can be sent.">
<polygon fill="none" stroke="red" points="175,-637.5 175,-667.5 280,-667.5 280,-637.5 175,-637.5"/>
<text text-anchor="start" x="183" y="-655.5" font-family="Helvetica,sans-Serif" font-size="10.00">tracktion::engine::</text>
<text text-anchor="middle" x="227.5" y="-644.5" font-family="Helvetica,sans-Serif" font-size="10.00">OutputDevice</text>
</a>
</g>
</g>
<!-- Node1&#45;&gt;Node39 -->
<g id="edge34" class="edge">
<title>Node1&#45;&gt;Node39</title>
<path fill="none" stroke="midnightblue" d="M85.02,-599.02C101.26,-608.94 121.66,-620.41 141,-628.5 151.67,-632.96 163.42,-636.87 174.71,-640.17"/>
<polygon fill="midnightblue" stroke="midnightblue" points="86.81,-596.01 76.47,-593.71 83.11,-601.96 86.81,-596.01"/>
</g>
<!-- Node43 -->
<g id="node37" class="node">
<title>Node43</title>
<g id="a_node37"><a xlink:href="classtracktion_1_1engine_1_1Plugin.html" target="_top" xlink:title=" ">
<polygon fill="none" stroke="red" points="175,-588.5 175,-618.5 280,-618.5 280,-588.5 175,-588.5"/>
<text text-anchor="start" x="183" y="-606.5" font-family="Helvetica,sans-Serif" font-size="10.00">tracktion::engine::</text>
<text text-anchor="middle" x="227.5" y="-595.5" font-family="Helvetica,sans-Serif" font-size="10.00">Plugin</text>
</a>
</g>
</g>
<!-- Node1&#45;&gt;Node43 -->
<g id="edge36" class="edge">
<title>Node1&#45;&gt;Node43</title>
<path fill="none" stroke="midnightblue" d="M115.41,-587.45C134.91,-590.26 156.23,-593.35 174.93,-596.05"/>
<polygon fill="midnightblue" stroke="midnightblue" points="115.8,-583.97 105.41,-586 114.8,-590.9 115.8,-583.97"/>
</g>
<!-- Node71 -->
<g id="node38" class="node">
<title>Node71</title>
<g id="a_node38"><a xlink:href="classtracktion_1_1engine_1_1Project.html" target="_top" xlink:title="A tracktion project.">
<polygon fill="none" stroke="black" points="175,-539.5 175,-569.5 280,-569.5 280,-539.5 175,-539.5"/>
<text text-anchor="start" x="183" y="-557.5" font-family="Helvetica,sans-Serif" font-size="10.00">tracktion::engine::</text>
<text text-anchor="middle" x="227.5" y="-546.5" font-family="Helvetica,sans-Serif" font-size="10.00">Project</text>
</a>
</g>
</g>
<!-- Node1&#45;&gt;Node71 -->
<g id="edge37" class="edge">
<title>Node1&#45;&gt;Node71</title>
<path fill="none" stroke="midnightblue" d="M115.41,-569.91C134.91,-567.21 156.23,-564.25 174.93,-561.65"/>
<polygon fill="midnightblue" stroke="midnightblue" points="114.83,-566.46 105.41,-571.3 115.79,-573.39 114.83,-566.46"/>
</g>
<!-- Node72 -->
<g id="node39" class="node">
<title>Node72</title>
<g id="a_node39"><a xlink:href="classtracktion_1_1engine_1_1ProjectItem.html" target="_top" xlink:title="Represents a file&#45;based resource that is used in a project.">
<polygon fill="none" stroke="black" points="175,-490.5 175,-520.5 280,-520.5 280,-490.5 175,-490.5"/>
<text text-anchor="start" x="183" y="-508.5" font-family="Helvetica,sans-Serif" font-size="10.00">tracktion::engine::</text>
<text text-anchor="middle" x="227.5" y="-497.5" font-family="Helvetica,sans-Serif" font-size="10.00">ProjectItem</text>
</a>
</g>
</g>
<!-- Node1&#45;&gt;Node72 -->
<g id="edge38" class="edge">
<title>Node1&#45;&gt;Node72</title>
<path fill="none" stroke="midnightblue" d="M86.65,-558.09C102.66,-548.81 122.4,-538.21 141,-530.5 151.71,-526.06 163.49,-522.07 174.78,-518.66"/>
<polygon fill="midnightblue" stroke="midnightblue" points="84.52,-555.28 77.68,-563.37 88.08,-561.31 84.52,-555.28"/>
</g>
<!-- Node73 -->
<g id="node40" class="node">
<title>Node73</title>
<g id="a_node40"><a xlink:href="classtracktion_1_1engine_1_1RackType.html" target="_top" xlink:title=" ">
<polygon fill="none" stroke="black" points="175,-441.5 175,-471.5 280,-471.5 280,-441.5 175,-441.5"/>
<text text-anchor="start" x="183" y="-459.5" font-family="Helvetica,sans-Serif" font-size="10.00">tracktion::engine::</text>
<text text-anchor="middle" x="227.5" y="-448.5" font-family="Helvetica,sans-Serif" font-size="10.00">RackType</text>
</a>
</g>
</g>
<!-- Node1&#45;&gt;Node73 -->
<g id="edge39" class="edge">
<title>Node1&#45;&gt;Node73</title>
<path fill="none" stroke="midnightblue" d="M68.65,-554.88C84.19,-532.52 110.39,-499.6 141,-480.5 151.2,-474.13 163.13,-469.42 174.77,-465.94"/>
<polygon fill="midnightblue" stroke="midnightblue" points="65.55,-553.22 62.85,-563.46 71.35,-557.14 65.55,-553.22"/>
</g>
<!-- Node74 -->
<g id="node41" class="node">
<title>Node74</title>
<g id="a_node41"><a xlink:href="classtracktion_1_1engine_1_1Scene.html" target="_top" xlink:title="A Scene is a collection of ClipSlots across tracks.">
<polygon fill="none" stroke="black" points="175,-392.5 175,-422.5 280,-422.5 280,-392.5 175,-392.5"/>
<text text-anchor="start" x="183" y="-410.5" font-family="Helvetica,sans-Serif" font-size="10.00">tracktion::engine::</text>
<text text-anchor="middle" x="227.5" y="-399.5" font-family="Helvetica,sans-Serif" font-size="10.00">Scene</text>
</a>
</g>
</g>
<!-- Node1&#45;&gt;Node74 -->
<g id="edge40" class="edge">
<title>Node1&#45;&gt;Node74</title>
<path fill="none" stroke="midnightblue" d="M61.65,-553.7C73.72,-520.82 99.52,-463.28 141,-431.5 150.79,-424 162.81,-418.84 174.71,-415.3"/>
<polygon fill="midnightblue" stroke="midnightblue" points="58.24,-552.84 58.21,-563.44 64.84,-555.17 58.24,-552.84"/>
</g>
<!-- Node75 -->
<g id="node42" class="node">
<title>Node75</title>
<g id="a_node42"><a xlink:href="classtracktion_1_1engine_1_1SelectedMidiEvents.html" target="_top" xlink:title="Represents a set of selected MIDI notes.">
<polygon fill="none" stroke="black" points="171,-343.5 171,-373.5 284,-373.5 284,-343.5 171,-343.5"/>
<text text-anchor="start" x="179" y="-361.5" font-family="Helvetica,sans-Serif" font-size="10.00">tracktion::engine::</text>
<text text-anchor="middle" x="227.5" y="-350.5" font-family="Helvetica,sans-Serif" font-size="10.00">SelectedMidiEvents</text>
</a>
</g>
</g>
<!-- Node1&#45;&gt;Node75 -->
<g id="edge41" class="edge">
<title>Node1&#45;&gt;Node75</title>
<path fill="none" stroke="midnightblue" d="M57.62,-553.52C65.83,-511.82 88.2,-428.09 141,-382.5 149.52,-375.14 160.13,-370.03 170.95,-366.48"/>
<polygon fill="midnightblue" stroke="midnightblue" points="54.17,-552.93 55.79,-563.4 61.05,-554.21 54.17,-552.93"/>
</g>
<!-- Node76 -->
<g id="node43" class="node">
<title>Node76</title>
<g id="a_node43"><a xlink:href="structtracktion_1_1engine_1_1StepClip_1_1Channel.html" target="_top" xlink:title=" ">
<polygon fill="none" stroke="black" points="175,-294.5 175,-324.5 280,-324.5 280,-294.5 175,-294.5"/>
<text text-anchor="start" x="183" y="-312.5" font-family="Helvetica,sans-Serif" font-size="10.00">tracktion::engine::</text>
<text text-anchor="middle" x="227.5" y="-301.5" font-family="Helvetica,sans-Serif" font-size="10.00">StepClip::Channel</text>
</a>
</g>
</g>
<!-- Node1&#45;&gt;Node76 -->
<g id="edge42" class="edge">
<title>Node1&#45;&gt;Node76</title>
<path fill="none" stroke="midnightblue" d="M55.12,-553.1C59.66,-503.5 76.83,-393.37 141,-333.5 150.36,-324.77 162.63,-319.18 174.95,-315.61"/>
<polygon fill="midnightblue" stroke="midnightblue" points="51.61,-553.02 54.29,-563.27 58.59,-553.59 51.61,-553.02"/>
</g>
<!-- Node77 -->
<g id="node44" class="node">
<title>Node77</title>
<g id="a_node44"><a xlink:href="structtracktion_1_1engine_1_1StepClip_1_1PatternInstance.html" target="_top" xlink:title=" ">
<polygon fill="none" stroke="black" points="158,-245.5 158,-275.5 297,-275.5 297,-245.5 158,-245.5"/>
<text text-anchor="start" x="166" y="-263.5" font-family="Helvetica,sans-Serif" font-size="10.00">tracktion::engine::</text>
<text text-anchor="middle" x="227.5" y="-252.5" font-family="Helvetica,sans-Serif" font-size="10.00">StepClip::PatternInstance</text>
</a>
</g>
</g>
<!-- Node1&#45;&gt;Node77 -->
<g id="edge43" class="edge">
<title>Node1&#45;&gt;Node77</title>
<path fill="none" stroke="midnightblue" d="M53.33,-553.31C54.37,-496.85 65.04,-359.28 141,-284.5 145.83,-279.74 151.53,-275.91 157.65,-272.83"/>
<polygon fill="midnightblue" stroke="midnightblue" points="49.83,-553.44 53.23,-563.48 56.83,-553.51 49.83,-553.44"/>
</g>
<!-- Node78 -->
<g id="node45" class="node">
<title>Node78</title>
<g id="a_node45"><a xlink:href="structtracktion_1_1engine_1_1StepVolumeEffect.html" target="_top" xlink:title=" ">
<polygon fill="none" stroke="black" points="175,-196.5 175,-226.5 280,-226.5 280,-196.5 175,-196.5"/>
<text text-anchor="start" x="183" y="-214.5" font-family="Helvetica,sans-Serif" font-size="10.00">tracktion::engine::</text>
<text text-anchor="middle" x="227.5" y="-203.5" font-family="Helvetica,sans-Serif" font-size="10.00">StepVolumeEffect</text>
</a>
</g>
</g>
<!-- Node1&#45;&gt;Node78 -->
<g id="edge44" class="edge">
<title>Node1&#45;&gt;Node78</title>
<path fill="none" stroke="midnightblue" d="M56.69,-553.02C66.12,-481.57 96.07,-281.52 141,-235.5 150.05,-226.23 162.36,-220.46 174.83,-216.9"/>
<polygon fill="midnightblue" stroke="midnightblue" points="53.16,-552.97 55.35,-563.34 60.11,-553.87 53.16,-552.97"/>
</g>
<!-- Node79 -->
<g id="node46" class="node">
<title>Node79</title>
<g id="a_node46"><a xlink:href="classtracktion_1_1engine_1_1TempoSequence.html" target="_top" xlink:title="Holds a list of TempoSetting objects, to form a sequence of tempo changes.">
<polygon fill="none" stroke="black" points="175,-147.5 175,-177.5 280,-177.5 280,-147.5 175,-147.5"/>
<text text-anchor="start" x="183" y="-165.5" font-family="Helvetica,sans-Serif" font-size="10.00">tracktion::engine::</text>
<text text-anchor="middle" x="227.5" y="-154.5" font-family="Helvetica,sans-Serif" font-size="10.00">TempoSequence</text>
</a>
</g>
</g>
<!-- Node1&#45;&gt;Node79 -->
<g id="edge45" class="edge">
<title>Node1&#45;&gt;Node79</title>
<path fill="none" stroke="midnightblue" d="M55.8,-553.1C63.38,-474.98 90.03,-240.3 141,-186.5 149.91,-177.1 162.17,-171.28 174.64,-167.71"/>
<polygon fill="midnightblue" stroke="midnightblue" points="52.28,-553.17 54.82,-563.45 59.25,-553.83 52.28,-553.17"/>
</g>
<!-- Node80 -->
<g id="node47" class="node">
<title>Node80</title>
<g id="a_node47"><a xlink:href="classtracktion_1_1engine_1_1Track.html" target="_top" xlink:title="Base class for tracks which contain clips and plugins and can be added to Edit[s].">
<polygon fill="none" stroke="red" points="175,-98.5 175,-128.5 280,-128.5 280,-98.5 175,-98.5"/>
<text text-anchor="start" x="183" y="-116.5" font-family="Helvetica,sans-Serif" font-size="10.00">tracktion::engine::</text>
<text text-anchor="middle" x="227.5" y="-105.5" font-family="Helvetica,sans-Serif" font-size="10.00">Track</text>
</a>
</g>
</g>
<!-- Node1&#45;&gt;Node80 -->
<g id="edge46" class="edge">
<title>Node1&#45;&gt;Node80</title>
<path fill="none" stroke="midnightblue" d="M55.12,-553.01C61.02,-468.47 84,-199.12 141,-137.5 149.9,-127.88 162.31,-122 174.93,-118.44"/>
<polygon fill="midnightblue" stroke="midnightblue" points="51.63,-552.82 54.45,-563.03 58.61,-553.29 51.63,-552.82"/>
</g>
<!-- Node90 -->
<g id="node48" class="node">
<title>Node90</title>
<g id="a_node48"><a xlink:href="structtracktion_1_1engine_1_1TrackCompManager_1_1TrackComp.html" target="_top" xlink:title=" ">
<polygon fill="none" stroke="black" points="141,-49.5 141,-79.5 314,-79.5 314,-49.5 141,-49.5"/>
<text text-anchor="start" x="149" y="-67.5" font-family="Helvetica,sans-Serif" font-size="10.00">tracktion::engine::</text>
<text text-anchor="middle" x="227.5" y="-56.5" font-family="Helvetica,sans-Serif" font-size="10.00">TrackCompManager::TrackComp</text>
</a>
</g>
</g>
<!-- Node1&#45;&gt;Node90 -->
<g id="edge47" class="edge">
<title>Node1&#45;&gt;Node90</title>
<path fill="none" stroke="midnightblue" d="M54.56,-553.22C58.86,-462.94 77.87,-158.07 141,-88.5 144.11,-85.07 147.66,-82.12 151.51,-79.58"/>
<polygon fill="midnightblue" stroke="midnightblue" points="51.06,-553.22 54.1,-563.37 58.05,-553.54 51.06,-553.22"/>
</g>
<!-- Node91 -->
<g id="node49" class="node">
<title>Node91</title>
<g id="a_node49"><a xlink:href="classtracktion_1_1engine_1_1TrackItem.html" target="_top" xlink:title="Base class for EditItems that live in a Track, e.g.">
<polygon fill="none" stroke="red" points="175,-0.5 175,-30.5 280,-30.5 280,-0.5 175,-0.5"/>
<text text-anchor="start" x="183" y="-18.5" font-family="Helvetica,sans-Serif" font-size="10.00">tracktion::engine::</text>
<text text-anchor="middle" x="227.5" y="-7.5" font-family="Helvetica,sans-Serif" font-size="10.00">TrackItem</text>
</a>
</g>
</g>
<!-- Node1&#45;&gt;Node91 -->
<g id="edge48" class="edge">
<title>Node1&#45;&gt;Node91</title>
<path fill="none" stroke="midnightblue" d="M54.11,-553.25C56.93,-457.32 71.75,-117.03 141,-39.5 149.73,-29.73 162.09,-23.8 174.7,-20.24"/>
<polygon fill="midnightblue" stroke="midnightblue" points="50.6,-553.37 53.83,-563.46 57.6,-553.56 50.6,-553.37"/>
</g>
<!-- Node3 -->
<g id="node3" class="node">
<title>Node3</title>
<g id="a_node3"><a xlink:href="classtracktion_1_1engine_1_1AirWindowsAutomatableParameter.html" target="_top" xlink:title=" ">
<polygon fill="none" stroke="black" points="350,-1599.5 350,-1629.5 538,-1629.5 538,-1599.5 350,-1599.5"/>
<text text-anchor="start" x="358" y="-1617.5" font-family="Helvetica,sans-Serif" font-size="10.00">tracktion::engine::</text>
<text text-anchor="middle" x="444" y="-1606.5" font-family="Helvetica,sans-Serif" font-size="10.00">AirWindowsAutomatableParameter</text>
</a>
</g>
</g>
<!-- Node2&#45;&gt;Node3 -->
<g id="edge2" class="edge">
<title>Node2&#45;&gt;Node3</title>
<path fill="none" stroke="midnightblue" d="M257.23,-1537.35C281.06,-1553.81 316.36,-1576.29 350,-1590.5 357.99,-1593.88 366.57,-1596.87 375.17,-1599.5"/>
<polygon fill="midnightblue" stroke="midnightblue" points="259.19,-1534.46 248.99,-1531.59 255.18,-1540.19 259.19,-1534.46"/>
</g>
<!-- Node4 -->
<g id="node4" class="node">
<title>Node4</title>
<g id="a_node4"><a xlink:href="classtracktion_1_1engine_1_1ExternalAutomatableParameter.html" target="_top" xlink:title=" ">
<polygon fill="none" stroke="black" points="359,-1550.5 359,-1580.5 529,-1580.5 529,-1550.5 359,-1550.5"/>
<text text-anchor="start" x="367" y="-1568.5" font-family="Helvetica,sans-Serif" font-size="10.00">tracktion::engine::</text>
<text text-anchor="middle" x="444" y="-1557.5" font-family="Helvetica,sans-Serif" font-size="10.00">ExternalAutomatableParameter</text>
</a>
</g>
</g>
<!-- Node2&#45;&gt;Node4 -->
<g id="edge3" class="edge">
<title>Node2&#45;&gt;Node4</title>
<path fill="none" stroke="midnightblue" d="M302.43,-1533.39C326.67,-1538.92 353.42,-1545.04 377.03,-1550.43"/>
<polygon fill="midnightblue" stroke="midnightblue" points="303.09,-1529.95 292.57,-1531.14 301.54,-1536.77 303.09,-1529.95"/>
</g>
<!-- Node5 -->
<g id="node5" class="node">
<title>Node5</title>
<g id="a_node5"><a xlink:href="classtracktion_1_1engine_1_1MacroParameter.html" target="_top" xlink:title="A MacroParameter is an AutomatableParameter which is a collection of Mappings.">
<polygon fill="none" stroke="black" points="391.5,-1501.5 391.5,-1531.5 496.5,-1531.5 496.5,-1501.5 391.5,-1501.5"/>
<text text-anchor="start" x="399.5" y="-1519.5" font-family="Helvetica,sans-Serif" font-size="10.00">tracktion::engine::</text>
<text text-anchor="middle" x="444" y="-1508.5" font-family="Helvetica,sans-Serif" font-size="10.00">MacroParameter</text>
</a>
</g>
</g>
<!-- Node2&#45;&gt;Node5 -->
<g id="edge4" class="edge">
<title>Node2&#45;&gt;Node5</title>
<path fill="none" stroke="midnightblue" d="M302.75,-1516.5C332.01,-1516.5 364.91,-1516.5 391.49,-1516.5"/>
<polygon fill="midnightblue" stroke="midnightblue" points="302.57,-1513 292.57,-1516.5 302.57,-1520 302.57,-1513"/>
</g>
<!-- Node6 -->
<g id="node6" class="node">
<title>Node6</title>
<g id="a_node6"><a xlink:href="structtracktion_1_1engine_1_1PluginWetDryAutomatableParam.html" target="_top" xlink:title="specialised AutomatableParameter for wet/dry.">
<polygon fill="none" stroke="black" points="356,-1452.5 356,-1482.5 532,-1482.5 532,-1452.5 356,-1452.5"/>
<text text-anchor="start" x="364" y="-1470.5" font-family="Helvetica,sans-Serif" font-size="10.00">tracktion::engine::</text>
<text text-anchor="middle" x="444" y="-1459.5" font-family="Helvetica,sans-Serif" font-size="10.00">PluginWetDryAutomatableParam</text>
</a>
</g>
</g>
<!-- Node2&#45;&gt;Node6 -->
<g id="edge5" class="edge">
<title>Node2&#45;&gt;Node6</title>
<path fill="none" stroke="midnightblue" d="M302.43,-1499.61C326.67,-1494.08 353.42,-1487.96 377.03,-1482.57"/>
<polygon fill="midnightblue" stroke="midnightblue" points="301.54,-1496.23 292.57,-1501.86 303.09,-1503.05 301.54,-1496.23"/>
</g>
<!-- Node9 -->
<g id="node9" class="node">
<title>Node9</title>
<g id="a_node9"><a xlink:href="classtracktion_1_1engine_1_1AlphaTrackControlSurface.html" target="_top" xlink:title=" ">
<polygon fill="none" stroke="black" points="373,-1403.5 373,-1433.5 515,-1433.5 515,-1403.5 373,-1403.5"/>
<text text-anchor="start" x="381" y="-1421.5" font-family="Helvetica,sans-Serif" font-size="10.00">tracktion::engine::</text>
<text text-anchor="middle" x="444" y="-1410.5" font-family="Helvetica,sans-Serif" font-size="10.00">AlphaTrackControlSurface</text>
</a>
</g>
</g>
<!-- Node8&#45;&gt;Node9 -->
<g id="edge8" class="edge">
<title>Node8&#45;&gt;Node9</title>
<path fill="none" stroke="midnightblue" d="M289.82,-1231.81C298.85,-1235.48 307.33,-1240.53 314,-1247.5 360.5,-1296.1 302.73,-1346.64 350,-1394.5 356.44,-1401.03 364.41,-1405.85 372.95,-1409.41"/>
<polygon fill="midnightblue" stroke="midnightblue" points="290.86,-1228.47 280.26,-1228.48 288.55,-1235.08 290.86,-1228.47"/>
</g>
<!-- Node10 -->
<g id="node10" class="node">
<title>Node10</title>
<g id="a_node10"><a xlink:href="classtracktion_1_1engine_1_1CustomControlSurface.html" target="_top" xlink:title=" ">
<polygon fill="none" stroke="black" points="381,-1354.5 381,-1384.5 507,-1384.5 507,-1354.5 381,-1354.5"/>
<text text-anchor="start" x="389" y="-1372.5" font-family="Helvetica,sans-Serif" font-size="10.00">tracktion::engine::</text>
<text text-anchor="middle" x="444" y="-1361.5" font-family="Helvetica,sans-Serif" font-size="10.00">CustomControlSurface</text>
</a>
</g>
</g>
<!-- Node8&#45;&gt;Node10 -->
<g id="edge9" class="edge">
<title>Node8&#45;&gt;Node10</title>
<path fill="none" stroke="midnightblue" d="M289.49,-1232.6C298.48,-1236.17 307.04,-1240.99 314,-1247.5 347.9,-1279.18 315.6,-1314.36 350,-1345.5 358.65,-1353.33 369.53,-1358.68 380.76,-1362.31"/>
<polygon fill="midnightblue" stroke="midnightblue" points="290.61,-1229.29 280.02,-1229.31 288.32,-1235.9 290.61,-1229.29"/>
</g>
<!-- Node11 -->
<g id="node11" class="node">
<title>Node11</title>
<g id="a_node11"><a xlink:href="classtracktion_1_1engine_1_1MackieC4.html" target="_top" xlink:title=" ">
<polygon fill="none" stroke="black" points="391.5,-1305.5 391.5,-1335.5 496.5,-1335.5 496.5,-1305.5 391.5,-1305.5"/>
<text text-anchor="start" x="399.5" y="-1323.5" font-family="Helvetica,sans-Serif" font-size="10.00">tracktion::engine::</text>
<text text-anchor="middle" x="444" y="-1312.5" font-family="Helvetica,sans-Serif" font-size="10.00">MackieC4</text>
</a>
</g>
</g>
<!-- Node8&#45;&gt;Node11 -->
<g id="edge10" class="edge">
<title>Node8&#45;&gt;Node11</title>
<path fill="none" stroke="midnightblue" d="M289.9,-1235.1C298.42,-1238.34 306.73,-1242.41 314,-1247.5 336.14,-1263 327.62,-1281.36 350,-1296.5 362.15,-1304.72 376.94,-1310.13 391.11,-1313.68"/>
<polygon fill="midnightblue" stroke="midnightblue" points="290.84,-1231.72 280.25,-1231.78 288.56,-1238.34 290.84,-1231.72"/>
</g>
<!-- Node12 -->
<g id="node12" class="node">
<title>Node12</title>
<g id="a_node12"><a xlink:href="classtracktion_1_1engine_1_1MackieMCU.html" target="_top" xlink:title=" ">
<polygon fill="none" stroke="red" points="391.5,-1256.5 391.5,-1286.5 496.5,-1286.5 496.5,-1256.5 391.5,-1256.5"/>
<text text-anchor="start" x="399.5" y="-1274.5" font-family="Helvetica,sans-Serif" font-size="10.00">tracktion::engine::</text>
<text text-anchor="middle" x="444" y="-1263.5" font-family="Helvetica,sans-Serif" font-size="10.00">MackieMCU</text>
</a>
</g>
</g>
<!-- Node8&#45;&gt;Node12 -->
<g id="edge11" class="edge">
<title>Node8&#45;&gt;Node12</title>
<path fill="none" stroke="midnightblue" d="M290.3,-1236.62C322.34,-1243.94 361.01,-1252.77 391.43,-1259.72"/>
<polygon fill="midnightblue" stroke="midnightblue" points="290.68,-1233.11 280.15,-1234.3 289.12,-1239.94 290.68,-1233.11"/>
</g>
<!-- Node14 -->
<g id="node13" class="node">
<title>Node14</title>
<g id="a_node13"><a xlink:href="classtracktion_1_1engine_1_1MackieXT.html" target="_top" xlink:title=" ">
<polygon fill="none" stroke="black" points="391.5,-1207.5 391.5,-1237.5 496.5,-1237.5 496.5,-1207.5 391.5,-1207.5"/>
<text text-anchor="start" x="399.5" y="-1225.5" font-family="Helvetica,sans-Serif" font-size="10.00">tracktion::engine::</text>
<text text-anchor="middle" x="444" y="-1214.5" font-family="Helvetica,sans-Serif" font-size="10.00">MackieXT</text>
</a>
</g>
</g>
<!-- Node8&#45;&gt;Node14 -->
<g id="edge12" class="edge">
<title>Node8&#45;&gt;Node14</title>
<path fill="none" stroke="midnightblue" d="M290.3,-1222.5C322.34,-1222.5 361.01,-1222.5 391.43,-1222.5"/>
<polygon fill="midnightblue" stroke="midnightblue" points="290.15,-1219 280.15,-1222.5 290.15,-1226 290.15,-1219"/>
</g>
<!-- Node15 -->
<g id="node14" class="node">
<title>Node15</title>
<g id="a_node14"><a xlink:href="classtracktion_1_1engine_1_1NovationRemoteSl.html" target="_top" xlink:title=" ">
<polygon fill="none" stroke="red" points="390,-1158.5 390,-1188.5 498,-1188.5 498,-1158.5 390,-1158.5"/>
<text text-anchor="start" x="398" y="-1176.5" font-family="Helvetica,sans-Serif" font-size="10.00">tracktion::engine::</text>
<text text-anchor="middle" x="444" y="-1165.5" font-family="Helvetica,sans-Serif" font-size="10.00">NovationRemoteSl</text>
</a>
</g>
</g>
<!-- Node8&#45;&gt;Node15 -->
<g id="edge13" class="edge">
<title>Node8&#45;&gt;Node15</title>
<path fill="none" stroke="midnightblue" d="M290.15,-1208.42C321.69,-1201.21 359.71,-1192.53 389.93,-1185.62"/>
<polygon fill="midnightblue" stroke="midnightblue" points="289.12,-1205.06 280.15,-1210.7 290.68,-1211.89 289.12,-1205.06"/>
</g>
<!-- Node17 -->
<g id="node15" class="node">
<title>Node17</title>
<g id="a_node15"><a xlink:href="classtracktion_1_1engine_1_1TranzportControlSurface.html" target="_top" xlink:title=" ">
<polygon fill="none" stroke="black" points="377,-1109.5 377,-1139.5 511,-1139.5 511,-1109.5 377,-1109.5"/>
<text text-anchor="start" x="385" y="-1127.5" font-family="Helvetica,sans-Serif" font-size="10.00">tracktion::engine::</text>
<text text-anchor="middle" x="444" y="-1116.5" font-family="Helvetica,sans-Serif" font-size="10.00">TranzportControlSurface</text>
</a>
</g>
</g>
<!-- Node8&#45;&gt;Node17 -->
<g id="edge14" class="edge">
<title>Node8&#45;&gt;Node17</title>
<path fill="none" stroke="midnightblue" d="M257.74,-1201.75C281.61,-1185.6 316.72,-1163.64 350,-1149.5 358.77,-1145.77 368.25,-1142.47 377.68,-1139.58"/>
<polygon fill="midnightblue" stroke="midnightblue" points="255.75,-1198.87 249.48,-1207.4 259.71,-1204.64 255.75,-1198.87"/>
</g>
<!-- Node19 -->
<g id="node17" class="node">
<title>Node19</title>
<g id="a_node17"><a xlink:href="classtracktion_1_1engine_1_1TempoSetting.html" target="_top" xlink:title="A tempo value, as used in a TempoSequence.">
<polygon fill="none" stroke="black" points="391.5,-1060.5 391.5,-1090.5 496.5,-1090.5 496.5,-1060.5 391.5,-1060.5"/>
<text text-anchor="start" x="399.5" y="-1078.5" font-family="Helvetica,sans-Serif" font-size="10.00">tracktion::engine::</text>
<text text-anchor="middle" x="444" y="-1067.5" font-family="Helvetica,sans-Serif" font-size="10.00">TempoSetting</text>
</a>
</g>
</g>
<!-- Node18&#45;&gt;Node19 -->
<g id="edge16" class="edge">
<title>Node18&#45;&gt;Node19</title>
<path fill="none" stroke="midnightblue" d="M290.3,-1060.55C322.34,-1063.69 361.01,-1067.47 391.43,-1070.45"/>
<polygon fill="midnightblue" stroke="midnightblue" points="290.44,-1057.05 280.15,-1059.56 289.76,-1064.01 290.44,-1057.05"/>
</g>
<!-- Node22 -->
<g id="node20" class="node">
<title>Node22</title>
<g id="a_node20"><a xlink:href="classtracktion_1_1engine_1_1MidiInputDevice.html" target="_top" xlink:title=" ">
<polygon fill="none" stroke="red" points="391.5,-1011.5 391.5,-1041.5 496.5,-1041.5 496.5,-1011.5 391.5,-1011.5"/>
<text text-anchor="start" x="399.5" y="-1029.5" font-family="Helvetica,sans-Serif" font-size="10.00">tracktion::engine::</text>
<text text-anchor="middle" x="444" y="-1018.5" font-family="Helvetica,sans-Serif" font-size="10.00">MidiInputDevice</text>
</a>
</g>
</g>
<!-- Node21&#45;&gt;Node22 -->
<g id="edge19" class="edge">
<title>Node21&#45;&gt;Node22</title>
<path fill="none" stroke="midnightblue" d="M289.67,-959.76C298.09,-962.76 306.43,-966.31 314,-970.5 332.73,-980.87 331.11,-992.43 350,-1002.5 362.66,-1009.24 377.3,-1014.17 391.18,-1017.73"/>
<polygon fill="midnightblue" stroke="midnightblue" points="290.76,-956.44 280.17,-956.62 288.56,-963.08 290.76,-956.44"/>
</g>
<!-- Node25 -->
<g id="node21" class="node">
<title>Node25</title>
<g id="a_node21"><a xlink:href="classtracktion_1_1engine_1_1WaveInputDevice.html" target="_top" xlink:title="A (virtual) audio input device.">
<polygon fill="none" stroke="black" points="391.5,-962.5 391.5,-992.5 496.5,-992.5 496.5,-962.5 391.5,-962.5"/>
<text text-anchor="start" x="399.5" y="-980.5" font-family="Helvetica,sans-Serif" font-size="10.00">tracktion::engine::</text>
<text text-anchor="middle" x="444" y="-969.5" font-family="Helvetica,sans-Serif" font-size="10.00">WaveInputDevice</text>
</a>
</g>
</g>
<!-- Node21&#45;&gt;Node25 -->
<g id="edge20" class="edge">
<title>Node21&#45;&gt;Node25</title>
<path fill="none" stroke="midnightblue" d="M290.3,-954.72C322.34,-959.5 361.01,-965.27 391.43,-969.81"/>
<polygon fill="midnightblue" stroke="midnightblue" points="290.56,-951.22 280.15,-953.21 289.53,-958.14 290.56,-951.22"/>
</g>
<!-- Node27 -->
<g id="node23" class="node">
<title>Node27</title>
<g id="a_node23"><a xlink:href="structtracktion_1_1engine_1_1InputDeviceInstance_1_1MidiInputDestination.html" target="_top" xlink:title=" ">
<polygon fill="none" stroke="black" points="381.5,-902 381.5,-943 506.5,-943 506.5,-902 381.5,-902"/>
<text text-anchor="start" x="389.5" y="-931" font-family="Helvetica,sans-Serif" font-size="10.00">tracktion::engine::</text>
<text text-anchor="start" x="389.5" y="-920" font-family="Helvetica,sans-Serif" font-size="10.00">InputDeviceInstance</text>
<text text-anchor="middle" x="444" y="-909" font-family="Helvetica,sans-Serif" font-size="10.00">::MidiInputDestination</text>
</a>
</g>
</g>
<!-- Node26&#45;&gt;Node27 -->
<g id="edge22" class="edge">
<title>Node26&#45;&gt;Node27</title>
<path fill="none" stroke="midnightblue" d="M295.61,-877.84C323.06,-886.15 354.6,-895.71 381.45,-903.85"/>
<polygon fill="midnightblue" stroke="midnightblue" points="296.29,-874.38 285.7,-874.83 294.26,-881.08 296.29,-874.38"/>
</g>
<!-- Node28 -->
<g id="node24" class="node">
<title>Node28</title>
<g id="a_node24"><a xlink:href="structtracktion_1_1engine_1_1InputDeviceInstance_1_1VirtualMidiInputDestination.html" target="_top" xlink:title=" ">
<polygon fill="none" stroke="black" points="365.5,-842 365.5,-883 522.5,-883 522.5,-842 365.5,-842"/>
<text text-anchor="start" x="373.5" y="-871" font-family="Helvetica,sans-Serif" font-size="10.00">tracktion::engine::</text>
<text text-anchor="start" x="373.5" y="-860" font-family="Helvetica,sans-Serif" font-size="10.00">InputDeviceInstance</text>
<text text-anchor="middle" x="444" y="-849" font-family="Helvetica,sans-Serif" font-size="10.00">::VirtualMidiInputDestination</text>
</a>
</g>
</g>
<!-- Node26&#45;&gt;Node28 -->
<g id="edge23" class="edge">
<title>Node26&#45;&gt;Node28</title>
<path fill="none" stroke="midnightblue" d="M295.96,-859.07C318.01,-859.59 342.67,-860.16 365.4,-860.69"/>
<polygon fill="midnightblue" stroke="midnightblue" points="295.78,-855.57 285.7,-858.83 295.62,-862.57 295.78,-855.57"/>
</g>
<!-- Node29 -->
<g id="node25" class="node">
<title>Node29</title>
<g id="a_node25"><a xlink:href="structtracktion_1_1engine_1_1InputDeviceInstance_1_1WaveInputDestination.html" target="_top" xlink:title=" ">
<polygon fill="none" stroke="black" points="378.5,-782 378.5,-823 509.5,-823 509.5,-782 378.5,-782"/>
<text text-anchor="start" x="386.5" y="-811" font-family="Helvetica,sans-Serif" font-size="10.00">tracktion::engine::</text>
<text text-anchor="start" x="386.5" y="-800" font-family="Helvetica,sans-Serif" font-size="10.00">InputDeviceInstance</text>
<text text-anchor="middle" x="444" y="-789" font-family="Helvetica,sans-Serif" font-size="10.00">::WaveInputDestination</text>
</a>
</g>
</g>
<!-- Node26&#45;&gt;Node29 -->
<g id="edge24" class="edge">
<title>Node26&#45;&gt;Node29</title>
<path fill="none" stroke="midnightblue" d="M295.62,-840.29C322.03,-833.52 352.23,-825.77 378.39,-819.07"/>
<polygon fill="midnightblue" stroke="midnightblue" points="294.52,-836.96 285.7,-842.83 296.26,-843.74 294.52,-836.96"/>
</g>
<!-- Node32 -->
<g id="node28" class="node">
<title>Node32</title>
<g id="a_node28"><a xlink:href="classtracktion_1_1engine_1_1BreakpointOscillatorModifier.html" target="_top" xlink:title=" ">
<polygon fill="none" stroke="black" points="366,-732.5 366,-762.5 522,-762.5 522,-732.5 366,-732.5"/>
<text text-anchor="start" x="374" y="-750.5" font-family="Helvetica,sans-Serif" font-size="10.00">tracktion::engine::</text>
<text text-anchor="middle" x="444" y="-739.5" font-family="Helvetica,sans-Serif" font-size="10.00">BreakpointOscillatorModifier</text>
</a>
</g>
</g>
<!-- Node31&#45;&gt;Node32 -->
<g id="edge27" class="edge">
<title>Node31&#45;&gt;Node32</title>
<path fill="none" stroke="midnightblue" d="M290.35,-749.63C313.89,-749.31 341.01,-748.93 365.8,-748.58"/>
<polygon fill="midnightblue" stroke="midnightblue" points="290.1,-746.14 280.15,-749.78 290.2,-753.14 290.1,-746.14"/>
</g>
<!-- Node33 -->
<g id="node29" class="node">
<title>Node33</title>
<g id="a_node29"><a xlink:href="classtracktion_1_1engine_1_1EnvelopeFollowerModifier.html" target="_top" xlink:title=" ">
<polygon fill="none" stroke="black" points="372.5,-683.5 372.5,-713.5 515.5,-713.5 515.5,-683.5 372.5,-683.5"/>
<text text-anchor="start" x="380.5" y="-701.5" font-family="Helvetica,sans-Serif" font-size="10.00">tracktion::engine::</text>
<text text-anchor="middle" x="444" y="-690.5" font-family="Helvetica,sans-Serif" font-size="10.00">EnvelopeFollowerModifier</text>
</a>
</g>
</g>
<!-- Node31&#45;&gt;Node33 -->
<g id="edge28" class="edge">
<title>Node31&#45;&gt;Node33</title>
<path fill="none" stroke="midnightblue" d="M290.02,-735.59C318.59,-728.66 352.49,-720.44 381.11,-713.5"/>
<polygon fill="midnightblue" stroke="midnightblue" points="289.04,-732.22 280.15,-737.98 290.69,-739.02 289.04,-732.22"/>
</g>
<!-- Node34 -->
<g id="node30" class="node">
<title>Node34</title>
<g id="a_node30"><a xlink:href="classtracktion_1_1engine_1_1LFOModifier.html" target="_top" xlink:title=" ">
<polygon fill="none" stroke="black" points="391.5,-634.5 391.5,-664.5 496.5,-664.5 496.5,-634.5 391.5,-634.5"/>
<text text-anchor="start" x="399.5" y="-652.5" font-family="Helvetica,sans-Serif" font-size="10.00">tracktion::engine::</text>
<text text-anchor="middle" x="444" y="-641.5" font-family="Helvetica,sans-Serif" font-size="10.00">LFOModifier</text>
</a>
</g>
</g>
<!-- Node31&#45;&gt;Node34 -->
<g id="edge29" class="edge">
<title>Node31&#45;&gt;Node34</title>
<path fill="none" stroke="midnightblue" d="M290.02,-738.86C298.52,-735.68 306.79,-731.64 314,-726.5 336.89,-710.18 327.02,-690.69 350,-674.5 362.16,-665.93 377.11,-660.29 391.43,-656.59"/>
<polygon fill="midnightblue" stroke="midnightblue" points="288.75,-735.59 280.38,-742.09 290.97,-742.23 288.75,-735.59"/>
</g>
<!-- Node35 -->
<g id="node31" class="node">
<title>Node35</title>
<g id="a_node31"><a xlink:href="classtracktion_1_1engine_1_1MIDITrackerModifier.html" target="_top" xlink:title=" ">
<polygon fill="none" stroke="black" points="387.5,-585.5 387.5,-615.5 500.5,-615.5 500.5,-585.5 387.5,-585.5"/>
<text text-anchor="start" x="395.5" y="-603.5" font-family="Helvetica,sans-Serif" font-size="10.00">tracktion::engine::</text>
<text text-anchor="middle" x="444" y="-592.5" font-family="Helvetica,sans-Serif" font-size="10.00">MIDITrackerModifier</text>
</a>
</g>
</g>
<!-- Node31&#45;&gt;Node35 -->
<g id="edge30" class="edge">
<title>Node31&#45;&gt;Node35</title>
<path fill="none" stroke="midnightblue" d="M289.8,-741.1C298.69,-737.63 307.13,-732.91 314,-726.5 348.84,-693.98 314.99,-657.83 350,-625.5 360.32,-615.97 373.88,-610.01 387.44,-606.29"/>
<polygon fill="midnightblue" stroke="midnightblue" points="288.4,-737.88 280.05,-744.4 290.64,-744.51 288.4,-737.88"/>
</g>
<!-- Node36 -->
<g id="node32" class="node">
<title>Node36</title>
<g id="a_node32"><a xlink:href="classtracktion_1_1engine_1_1RandomModifier.html" target="_top" xlink:title=" ">
<polygon fill="none" stroke="black" points="391.5,-536.5 391.5,-566.5 496.5,-566.5 496.5,-536.5 391.5,-536.5"/>
<text text-anchor="start" x="399.5" y="-554.5" font-family="Helvetica,sans-Serif" font-size="10.00">tracktion::engine::</text>
<text text-anchor="middle" x="444" y="-543.5" font-family="Helvetica,sans-Serif" font-size="10.00">RandomModifier</text>
</a>
</g>
</g>
<!-- Node31&#45;&gt;Node36 -->
<g id="edge31" class="edge">
<title>Node31&#45;&gt;Node36</title>
<path fill="none" stroke="midnightblue" d="M289.81,-741.97C298.84,-738.4 307.33,-733.42 314,-726.5 361.55,-677.11 302.18,-625.63 350,-576.5 360.84,-565.36 376.08,-559.01 391.09,-555.45"/>
<polygon fill="midnightblue" stroke="midnightblue" points="288.62,-738.68 280.26,-745.19 290.86,-745.31 288.62,-738.68"/>
</g>
<!-- Node37 -->
<g id="node33" class="node">
<title>Node37</title>
<g id="a_node33"><a xlink:href="classtracktion_1_1engine_1_1StepModifier.html" target="_top" xlink:title=" ">
<polygon fill="none" stroke="black" points="391.5,-487.5 391.5,-517.5 496.5,-517.5 496.5,-487.5 391.5,-487.5"/>
<text text-anchor="start" x="399.5" y="-505.5" font-family="Helvetica,sans-Serif" font-size="10.00">tracktion::engine::</text>
<text text-anchor="middle" x="444" y="-494.5" font-family="Helvetica,sans-Serif" font-size="10.00">StepModifier</text>
</a>
</g>
</g>
<!-- Node31&#45;&gt;Node37 -->
<g id="edge32" class="edge">
<title>Node31&#45;&gt;Node37</title>
<path fill="none" stroke="midnightblue" d="M289.83,-742.41C298.94,-738.8 307.46,-733.7 314,-726.5 374.48,-660.01 289.16,-593.66 350,-527.5 360.64,-515.93 376,-509.49 391.19,-505.97"/>
<polygon fill="midnightblue" stroke="midnightblue" points="288.54,-739.15 280.18,-745.66 290.77,-745.79 288.54,-739.15"/>
</g>
<!-- Node40 -->
<g id="node36" class="node">
<title>Node40</title>
<g id="a_node36"><a xlink:href="classtracktion_1_1engine_1_1MidiOutputDevice.html" target="_top" xlink:title=" ">
<polygon fill="none" stroke="red" points="391.5,-438.5 391.5,-468.5 496.5,-468.5 496.5,-438.5 391.5,-438.5"/>
<text text-anchor="start" x="399.5" y="-456.5" font-family="Helvetica,sans-Serif" font-size="10.00">tracktion::engine::</text>
<text text-anchor="middle" x="444" y="-445.5" font-family="Helvetica,sans-Serif" font-size="10.00">MidiOutputDevice</text>
</a>
</g>
</g>
<!-- Node39&#45;&gt;Node40 -->
<g id="edge35" class="edge">
<title>Node39&#45;&gt;Node40</title>
<path fill="none" stroke="midnightblue" d="M289.82,-643.97C298.85,-640.41 307.34,-635.43 314,-628.5 361.81,-578.76 301.67,-526.73 350,-477.5 360.86,-466.43 376.11,-460.24 391.12,-456.84"/>
<polygon fill="midnightblue" stroke="midnightblue" points="288.62,-640.68 280.27,-647.2 290.87,-647.32 288.62,-640.68"/>
</g>
</g>
</svg>
