<?xml version="1.0" encoding="UTF-8" standalone="no"?>
<!DOCTYPE svg PUBLIC "-//W3C//DTD SVG 1.1//EN"
 "http://www.w3.org/Graphics/SVG/1.1/DTD/svg11.dtd">
<!-- Generated by graphviz version 2.43.0 (0)
 -->
<!-- Title: engine::Selectable Pages: 1 -->
<svg width="553pt" height="1324pt"
 viewBox="0.00 0.00 553.00 1323.50" xmlns="http://www.w3.org/2000/svg" xmlns:xlink="http://www.w3.org/1999/xlink">
<g id="graph0" class="graph" transform="scale(1 1) rotate(0) translate(4 1319.5)">
<title>engine::Selectable</title>
<!-- Node1 -->
<g id="Node000001" class="node">
<title>Node1</title>
<g id="a_Node000001"><a xlink:title="Base class for things that can be selected, and whose properties can appear in the properties panel.">
<polygon fill="#999999" stroke="#666666" points="107,-450 0,-450 0,-431 107,-431 107,-450"/>
<text text-anchor="middle" x="53.5" y="-438" font-family="Helvetica,sans-Serif" font-size="10.00">engine::Selectable</text>
</a>
</g>
</g>
<!-- Node2 -->
<g id="Node000002" class="node">
<title>Node2</title>
<g id="a_Node000002"><a xlink:href="classengine_1_1AutomatableParameter.html" target="_top" xlink:title=" ">
<polygon fill="white" stroke="#666666" points="318,-1171 149,-1171 149,-1152 318,-1152 318,-1171"/>
<text text-anchor="middle" x="233.5" y="-1159" font-family="Helvetica,sans-Serif" font-size="10.00">engine::AutomatableParameter</text>
</a>
</g>
</g>
<!-- Node1&#45;&gt;Node2 -->
<g id="edge1_Node000001_Node000002" class="edge">
<title>Node1&#45;&gt;Node2</title>
<g id="a_edge1_Node000001_Node000002"><a xlink:title=" ">
<path fill="none" stroke="#63b8ff" d="M56.25,-460.41C62.71,-529.61 87.68,-765.67 143,-952.5 166.65,-1032.36 212.11,-1122.56 227.37,-1151.8"/>
<polygon fill="#63b8ff" stroke="#63b8ff" points="59.71,-459.76 55.32,-450.11 52.74,-460.39 59.71,-459.76"/>
</a>
</g>
</g>
<!-- Node9 -->
<g id="Node000009" class="node">
<title>Node9</title>
<g id="a_Node000009"><a xlink:href="classengine_1_1AutomationCurveModifier.html" target="_top" xlink:title="An AutomationCurveModifier contains three curves to control automation: absolute, relative and scale.">
<polygon fill="white" stroke="#666666" points="324,-943 143,-943 143,-924 324,-924 324,-943"/>
<text text-anchor="middle" x="233.5" y="-931" font-family="Helvetica,sans-Serif" font-size="10.00">engine::AutomationCurveModifier</text>
</a>
</g>
</g>
<!-- Node1&#45;&gt;Node9 -->
<g id="edge8_Node000001_Node000009" class="edge">
<title>Node1&#45;&gt;Node9</title>
<g id="a_edge8_Node000001_Node000009"><a xlink:title=" ">
<path fill="none" stroke="#63b8ff" d="M55.33,-460.34C59.15,-541.79 77.75,-849.31 143,-915.5 146.23,-918.77 149.87,-921.54 153.8,-923.86"/>
<polygon fill="#63b8ff" stroke="#63b8ff" points="58.81,-459.85 54.87,-450.02 51.82,-460.16 58.81,-459.85"/>
</a>
</g>
</g>
<!-- Node10 -->
<g id="Node000010" class="node">
<title>Node10</title>
<g id="a_Node000010"><a xlink:href="classengine_1_1ClipSlot.html" target="_top" xlink:title="Represents a slot on a track that a Clip can live in to be played as a launched clip.">
<polygon fill="white" stroke="#666666" points="280,-906 187,-906 187,-887 280,-887 280,-906"/>
<text text-anchor="middle" x="233.5" y="-894" font-family="Helvetica,sans-Serif" font-size="10.00">engine::ClipSlot</text>
</a>
</g>
</g>
<!-- Node1&#45;&gt;Node10 -->
<g id="edge9_Node000001_Node000010" class="edge">
<title>Node1&#45;&gt;Node10</title>
<g id="a_edge9_Node000001_Node000010"><a xlink:title=" ">
<path fill="none" stroke="#63b8ff" d="M55.66,-460.26C60.62,-537.56 82.58,-818.13 143,-878.5 154.44,-889.93 170.97,-895.1 186.72,-897.2"/>
<polygon fill="#63b8ff" stroke="#63b8ff" points="59.14,-459.79 55.03,-450.02 52.15,-460.22 59.14,-459.79"/>
</a>
</g>
</g>
<!-- Node11 -->
<g id="Node000011" class="node">
<title>Node11</title>
<g id="a_Node000011"><a xlink:href="classengine_1_1ControlSurface.html" target="_top" xlink:title="Base class for types of control surface.">
<polygon fill="white" stroke="#666666" points="297.5,-869 169.5,-869 169.5,-850 297.5,-850 297.5,-869"/>
<text text-anchor="middle" x="233.5" y="-857" font-family="Helvetica,sans-Serif" font-size="10.00">engine::ControlSurface</text>
</a>
</g>
</g>
<!-- Node1&#45;&gt;Node11 -->
<g id="edge10_Node000001_Node000011" class="edge">
<title>Node1&#45;&gt;Node11</title>
<g id="a_edge10_Node000001_Node000011"><a xlink:title=" ">
<path fill="none" stroke="#63b8ff" d="M57.55,-460.34C65.8,-510.42 91.52,-645.15 143,-745.5 165.05,-788.49 204.37,-831.12 222.65,-849.75"/>
<polygon fill="#63b8ff" stroke="#63b8ff" points="60.97,-459.55 55.93,-450.23 54.05,-460.66 60.97,-459.55"/>
</a>
</g>
</g>
<!-- Node21 -->
<g id="Node000021" class="node">
<title>Node21</title>
<g id="a_Node000021"><a xlink:href="classengine_1_1CurveEditorPoint.html" target="_top" xlink:title=" ">
<polygon fill="white" stroke="#666666" points="302,-736 165,-736 165,-717 302,-717 302,-736"/>
<text text-anchor="middle" x="233.5" y="-724" font-family="Helvetica,sans-Serif" font-size="10.00">engine::CurveEditorPoint</text>
</a>
</g>
</g>
<!-- Node1&#45;&gt;Node21 -->
<g id="edge18_Node000001_Node000021" class="edge">
<title>Node1&#45;&gt;Node21</title>
<g id="a_edge18_Node000001_Node000021"><a xlink:title=" ">
<path fill="none" stroke="#63b8ff" d="M55.81,-460.03C59.96,-506.78 76.84,-626.22 143,-693.5 153.92,-704.6 168.88,-712 183.45,-716.91"/>
<polygon fill="#63b8ff" stroke="#63b8ff" points="59.29,-459.72 55.02,-450.02 52.31,-460.27 59.29,-459.72"/>
</a>
</g>
</g>
<!-- Node23 -->
<g id="Node000023" class="node">
<title>Node23</title>
<g id="a_Node000023"><a xlink:href="classengine_1_1Edit.html" target="_top" xlink:title="The Tracktion Edit class!">
<polygon fill="white" stroke="#666666" points="270.5,-684 196.5,-684 196.5,-665 270.5,-665 270.5,-684"/>
<text text-anchor="middle" x="233.5" y="-672" font-family="Helvetica,sans-Serif" font-size="10.00">engine::Edit</text>
</a>
</g>
</g>
<!-- Node1&#45;&gt;Node23 -->
<g id="edge20_Node000001_Node000023" class="edge">
<title>Node1&#45;&gt;Node23</title>
<g id="a_edge20_Node000001_Node000023"><a xlink:title=" ">
<path fill="none" stroke="#63b8ff" d="M56.55,-460.23C62.09,-502.91 81.36,-604.13 143,-655.5 157.77,-667.8 178.57,-672.72 196.4,-674.49"/>
<polygon fill="#63b8ff" stroke="#63b8ff" points="60,-459.57 55.35,-450.04 53.04,-460.39 60,-459.57"/>
</a>
</g>
</g>
<!-- Node24 -->
<g id="Node000024" class="node">
<title>Node24</title>
<g id="a_Node000024"><a xlink:href="structengine_1_1InputDeviceInstance_1_1Destination.html" target="_top" xlink:title=" ">
<polygon fill="white" stroke="#666666" points="311,-646.5 156,-646.5 156,-616.5 311,-616.5 311,-646.5"/>
<text text-anchor="start" x="164" y="-634.5" font-family="Helvetica,sans-Serif" font-size="10.00">engine::InputDeviceInstance</text>
<text text-anchor="middle" x="233.5" y="-623.5" font-family="Helvetica,sans-Serif" font-size="10.00">::Destination</text>
</a>
</g>
</g>
<!-- Node1&#45;&gt;Node24 -->
<g id="edge21_Node000001_Node000024" class="edge">
<title>Node1&#45;&gt;Node24</title>
<g id="a_edge21_Node000001_Node000024"><a xlink:title=" ">
<path fill="none" stroke="#63b8ff" d="M59.33,-460.11C69,-495.17 94.14,-568.57 143,-607.5 147.28,-610.91 152,-613.83 156.97,-616.35"/>
<polygon fill="#63b8ff" stroke="#63b8ff" points="62.65,-458.95 56.72,-450.17 55.87,-460.73 62.65,-458.95"/>
</a>
</g>
</g>
<!-- Node28 -->
<g id="Node000028" class="node">
<title>Node28</title>
<g id="a_Node000028"><a xlink:href="structengine_1_1MakeMonoEffect.html" target="_top" xlink:title=" ">
<polygon fill="white" stroke="#666666" points="302,-598 165,-598 165,-579 302,-579 302,-598"/>
<text text-anchor="middle" x="233.5" y="-586" font-family="Helvetica,sans-Serif" font-size="10.00">engine::MakeMonoEffect</text>
</a>
</g>
</g>
<!-- Node1&#45;&gt;Node28 -->
<g id="edge25_Node000001_Node000028" class="edge">
<title>Node1&#45;&gt;Node28</title>
<g id="a_edge25_Node000001_Node000028"><a xlink:title=" ">
<path fill="none" stroke="#63b8ff" d="M61.91,-459.65C74.16,-488.57 101.46,-542.94 143,-570.5 149.6,-574.88 157.04,-578.24 164.74,-580.8"/>
<polygon fill="#63b8ff" stroke="#63b8ff" points="65.1,-458.18 58.08,-450.24 58.61,-460.82 65.1,-458.18"/>
</a>
</g>
</g>
<!-- Node29 -->
<g id="Node000029" class="node">
<title>Node29</title>
<g id="a_Node000029"><a xlink:href="structengine_1_1Modifier.html" target="_top" xlink:title="Bass class for parameter Modifiers.">
<polygon fill="white" stroke="#666666" points="281,-561 186,-561 186,-542 281,-542 281,-561"/>
<text text-anchor="middle" x="233.5" y="-549" font-family="Helvetica,sans-Serif" font-size="10.00">engine::Modifier</text>
</a>
</g>
</g>
<!-- Node1&#45;&gt;Node29 -->
<g id="edge26_Node000001_Node000029" class="edge">
<title>Node1&#45;&gt;Node29</title>
<g id="a_edge26_Node000001_Node000029"><a xlink:title=" ">
<path fill="none" stroke="#63b8ff" d="M66.35,-458.5C81.48,-479.93 109.71,-515.12 143,-533.5 155.9,-540.62 171.24,-544.95 185.55,-547.56"/>
<polygon fill="#63b8ff" stroke="#63b8ff" points="69.24,-456.52 60.7,-450.25 63.47,-460.47 69.24,-456.52"/>
</a>
</g>
</g>
<!-- Node36 -->
<g id="Node000036" class="node">
<title>Node36</title>
<g id="a_Node000036"><a xlink:href="structengine_1_1NormaliseEffect.html" target="_top" xlink:title=" ">
<polygon fill="white" stroke="#666666" points="300.5,-524 166.5,-524 166.5,-505 300.5,-505 300.5,-524"/>
<text text-anchor="middle" x="233.5" y="-512" font-family="Helvetica,sans-Serif" font-size="10.00">engine::NormaliseEffect</text>
</a>
</g>
</g>
<!-- Node1&#45;&gt;Node36 -->
<g id="edge33_Node000001_Node000036" class="edge">
<title>Node1&#45;&gt;Node36</title>
<g id="a_edge33_Node000001_Node000036"><a xlink:title=" ">
<path fill="none" stroke="#63b8ff" d="M74.77,-456.38C91.99,-469.1 117.85,-486.42 143,-496.5 151.53,-499.92 160.79,-502.72 170.01,-504.99"/>
<polygon fill="#63b8ff" stroke="#63b8ff" points="76.69,-453.45 66.6,-450.21 72.48,-459.03 76.69,-453.45"/>
</a>
</g>
</g>
<!-- Node37 -->
<g id="Node000037" class="node">
<title>Node37</title>
<g id="a_Node000037"><a xlink:href="classengine_1_1Plugin.html" target="_top" xlink:title="Base class for all audio plugins in the Tracktion Engine.">
<polygon fill="#fff0f0" stroke="red" points="276.5,-487 190.5,-487 190.5,-468 276.5,-468 276.5,-487"/>
<text text-anchor="middle" x="233.5" y="-475" font-family="Helvetica,sans-Serif" font-size="10.00">engine::Plugin</text>
</a>
</g>
</g>
<!-- Node1&#45;&gt;Node37 -->
<g id="edge34_Node000001_Node000037" class="edge">
<title>Node1&#45;&gt;Node37</title>
<g id="a_edge34_Node000001_Node000037"><a xlink:title=" ">
<path fill="none" stroke="#63b8ff" d="M108.44,-452.2C119.84,-454.64 131.81,-457.17 143,-459.5 158.36,-462.69 175.23,-466.11 190.14,-469.1"/>
<polygon fill="#63b8ff" stroke="#63b8ff" points="109.1,-448.76 98.59,-450.08 107.63,-455.6 109.1,-448.76"/>
</a>
</g>
</g>
<!-- Node66 -->
<g id="Node000066" class="node">
<title>Node66</title>
<g id="a_Node000066"><a xlink:href="classengine_1_1Project.html" target="_top" xlink:title="A tracktion project.">
<polygon fill="white" stroke="#666666" points="278,-450 189,-450 189,-431 278,-431 278,-450"/>
<text text-anchor="middle" x="233.5" y="-438" font-family="Helvetica,sans-Serif" font-size="10.00">engine::Project</text>
</a>
</g>
</g>
<!-- Node1&#45;&gt;Node66 -->
<g id="edge37_Node000001_Node000066" class="edge">
<title>Node1&#45;&gt;Node66</title>
<g id="a_edge37_Node000001_Node000066"><a xlink:title=" ">
<path fill="none" stroke="#63b8ff" d="M117.67,-440.5C141.2,-440.5 167.36,-440.5 188.77,-440.5"/>
<polygon fill="#63b8ff" stroke="#63b8ff" points="117.42,-437 107.42,-440.5 117.42,-444 117.42,-437"/>
</a>
</g>
</g>
<!-- Node67 -->
<g id="Node000067" class="node">
<title>Node67</title>
<g id="a_Node000067"><a xlink:href="classengine_1_1ProjectItem.html" target="_top" xlink:title="Represents a file&#45;based resource that is used in a project.">
<polygon fill="white" stroke="#666666" points="289.5,-413 177.5,-413 177.5,-394 289.5,-394 289.5,-413"/>
<text text-anchor="middle" x="233.5" y="-401" font-family="Helvetica,sans-Serif" font-size="10.00">engine::ProjectItem</text>
</a>
</g>
</g>
<!-- Node1&#45;&gt;Node67 -->
<g id="edge38_Node000001_Node000067" class="edge">
<title>Node1&#45;&gt;Node67</title>
<g id="a_edge38_Node000001_Node000067"><a xlink:title=" ">
<path fill="none" stroke="#63b8ff" d="M110.23,-428.92C134.75,-423.82 163.22,-417.9 186.51,-413.06"/>
<polygon fill="#63b8ff" stroke="#63b8ff" points="109.42,-425.51 100.34,-430.97 110.84,-432.36 109.42,-425.51"/>
</a>
</g>
</g>
<!-- Node68 -->
<g id="Node000068" class="node">
<title>Node68</title>
<g id="a_Node000068"><a xlink:href="classengine_1_1RackType.html" target="_top" xlink:title=" ">
<polygon fill="white" stroke="#666666" points="284.5,-376 182.5,-376 182.5,-357 284.5,-357 284.5,-376"/>
<text text-anchor="middle" x="233.5" y="-364" font-family="Helvetica,sans-Serif" font-size="10.00">engine::RackType</text>
</a>
</g>
</g>
<!-- Node1&#45;&gt;Node68 -->
<g id="edge39_Node000001_Node000068" class="edge">
<title>Node1&#45;&gt;Node68</title>
<g id="a_edge39_Node000001_Node000068"><a xlink:title=" ">
<path fill="none" stroke="#63b8ff" d="M75.14,-424.77C92.4,-412.36 118.13,-395.51 143,-385.5 155.38,-380.52 169.27,-376.76 182.35,-373.96"/>
<polygon fill="#63b8ff" stroke="#63b8ff" points="72.92,-422.06 66.94,-430.8 77.07,-427.7 72.92,-422.06"/>
</a>
</g>
</g>
<!-- Node69 -->
<g id="Node000069" class="node">
<title>Node69</title>
<g id="a_Node000069"><a xlink:href="classengine_1_1Scene.html" target="_top" xlink:title="A Scene is a collection of ClipSlots across tracks.">
<polygon fill="white" stroke="#666666" points="276,-339 191,-339 191,-320 276,-320 276,-339"/>
<text text-anchor="middle" x="233.5" y="-327" font-family="Helvetica,sans-Serif" font-size="10.00">engine::Scene</text>
</a>
</g>
</g>
<!-- Node1&#45;&gt;Node69 -->
<g id="edge40_Node000001_Node000069" class="edge">
<title>Node1&#45;&gt;Node69</title>
<g id="a_edge40_Node000001_Node000069"><a xlink:title=" ">
<path fill="none" stroke="#63b8ff" d="M66.64,-422.47C81.89,-401.31 110.09,-366.78 143,-348.5 157.44,-340.48 174.92,-335.84 190.59,-333.16"/>
<polygon fill="#63b8ff" stroke="#63b8ff" points="63.61,-420.69 60.74,-430.89 69.35,-424.71 63.61,-420.69"/>
</a>
</g>
</g>
<!-- Node70 -->
<g id="Node000070" class="node">
<title>Node70</title>
<g id="a_Node000070"><a xlink:href="classengine_1_1SelectedMidiEvents.html" target="_top" xlink:title="Represents a set of selected MIDI notes.">
<polygon fill="white" stroke="#666666" points="309.5,-302 157.5,-302 157.5,-283 309.5,-283 309.5,-302"/>
<text text-anchor="middle" x="233.5" y="-290" font-family="Helvetica,sans-Serif" font-size="10.00">engine::SelectedMidiEvents</text>
</a>
</g>
</g>
<!-- Node1&#45;&gt;Node70 -->
<g id="edge41_Node000001_Node000070" class="edge">
<title>Node1&#45;&gt;Node70</title>
<g id="a_edge41_Node000001_Node000070"><a xlink:title=" ">
<path fill="none" stroke="#63b8ff" d="M61.91,-421.35C74.16,-392.43 101.46,-338.06 143,-310.5 148.15,-307.08 153.81,-304.29 159.7,-302.01"/>
<polygon fill="#63b8ff" stroke="#63b8ff" points="58.61,-420.18 58.08,-430.76 65.1,-422.82 58.61,-420.18"/>
</a>
</g>
</g>
<!-- Node71 -->
<g id="Node000071" class="node">
<title>Node71</title>
<g id="a_Node000071"><a xlink:href="structengine_1_1StepClip_1_1Channel.html" target="_top" xlink:title=" ">
<polygon fill="white" stroke="#666666" points="304.5,-265 162.5,-265 162.5,-246 304.5,-246 304.5,-265"/>
<text text-anchor="middle" x="233.5" y="-253" font-family="Helvetica,sans-Serif" font-size="10.00">engine::StepClip::Channel</text>
</a>
</g>
</g>
<!-- Node1&#45;&gt;Node71 -->
<g id="edge42_Node000001_Node000071" class="edge">
<title>Node1&#45;&gt;Node71</title>
<g id="a_edge42_Node000001_Node000071"><a xlink:title=" ">
<path fill="none" stroke="#63b8ff" d="M59.09,-420.58C68.38,-385.02 92.93,-310.86 143,-273.5 148.84,-269.14 155.48,-265.77 162.43,-263.16"/>
<polygon fill="#63b8ff" stroke="#63b8ff" points="55.6,-420.12 56.6,-430.67 62.39,-421.8 55.6,-420.12"/>
</a>
</g>
</g>
<!-- Node72 -->
<g id="Node000072" class="node">
<title>Node72</title>
<g id="a_Node000072"><a xlink:href="structengine_1_1StepClip_1_1PatternInstance.html" target="_top" xlink:title=" ">
<polygon fill="white" stroke="#666666" points="302,-227.5 165,-227.5 165,-197.5 302,-197.5 302,-227.5"/>
<text text-anchor="start" x="173" y="-215.5" font-family="Helvetica,sans-Serif" font-size="10.00">engine::StepClip::Pattern</text>
<text text-anchor="middle" x="233.5" y="-204.5" font-family="Helvetica,sans-Serif" font-size="10.00">Instance</text>
</a>
</g>
</g>
<!-- Node1&#45;&gt;Node72 -->
<g id="edge43_Node000001_Node000072" class="edge">
<title>Node1&#45;&gt;Node72</title>
<g id="a_edge43_Node000001_Node000072"><a xlink:title=" ">
<path fill="none" stroke="#63b8ff" d="M57.31,-420.61C64.15,-379.75 85.55,-286.05 143,-236.5 149.33,-231.04 156.79,-226.8 164.65,-223.52"/>
<polygon fill="#63b8ff" stroke="#63b8ff" points="53.82,-420.23 55.75,-430.65 60.74,-421.31 53.82,-420.23"/>
</a>
</g>
</g>
<!-- Node73 -->
<g id="Node000073" class="node">
<title>Node73</title>
<g id="a_Node000073"><a xlink:href="structengine_1_1StepVolumeEffect.html" target="_top" xlink:title=" ">
<polygon fill="white" stroke="#666666" points="304.5,-179 162.5,-179 162.5,-160 304.5,-160 304.5,-179"/>
<text text-anchor="middle" x="233.5" y="-167" font-family="Helvetica,sans-Serif" font-size="10.00">engine::StepVolumeEffect</text>
</a>
</g>
</g>
<!-- Node1&#45;&gt;Node73 -->
<g id="edge44_Node000001_Node000073" class="edge">
<title>Node1&#45;&gt;Node73</title>
<g id="a_edge44_Node000001_Node000073"><a xlink:title=" ">
<path fill="none" stroke="#63b8ff" d="M55.21,-420.73C58.04,-372.98 72.22,-250.72 143,-188.5 148.61,-183.57 155.17,-179.81 162.15,-176.96"/>
<polygon fill="#63b8ff" stroke="#63b8ff" points="51.7,-420.79 54.71,-430.95 58.69,-421.13 51.7,-420.79"/>
</a>
</g>
</g>
<!-- Node74 -->
<g id="Node000074" class="node">
<title>Node74</title>
<g id="a_Node000074"><a xlink:href="classengine_1_1TempoSequence.html" target="_top" xlink:title="Holds a list of TempoSetting objects, to form a sequence of tempo changes.">
<polygon fill="white" stroke="#666666" points="301,-142 166,-142 166,-123 301,-123 301,-142"/>
<text text-anchor="middle" x="233.5" y="-130" font-family="Helvetica,sans-Serif" font-size="10.00">engine::TempoSequence</text>
</a>
</g>
</g>
<!-- Node1&#45;&gt;Node74 -->
<g id="edge45_Node000001_Node000074" class="edge">
<title>Node1&#45;&gt;Node74</title>
<g id="a_edge45_Node000001_Node000074"><a xlink:title=" ">
<path fill="none" stroke="#63b8ff" d="M54.11,-420.63C54.25,-367.93 62.34,-223.64 143,-150.5 149.46,-144.64 157.27,-140.47 165.56,-137.54"/>
<polygon fill="#63b8ff" stroke="#63b8ff" points="50.62,-420.97 54.19,-430.94 57.62,-420.92 50.62,-420.97"/>
</a>
</g>
</g>
<!-- Node75 -->
<g id="Node000075" class="node">
<title>Node75</title>
<g id="a_Node000075"><a xlink:href="classengine_1_1Track.html" target="_top" xlink:title="Base class for tracks which contain clips and plugins and can be added to Edit[s].">
<polygon fill="#fff0f0" stroke="red" points="274,-105 193,-105 193,-86 274,-86 274,-105"/>
<text text-anchor="middle" x="233.5" y="-93" font-family="Helvetica,sans-Serif" font-size="10.00">engine::Track</text>
</a>
</g>
</g>
<!-- Node1&#45;&gt;Node75 -->
<g id="edge46_Node000001_Node000075" class="edge">
<title>Node1&#45;&gt;Node75</title>
<g id="a_edge46_Node000001_Node000075"><a xlink:title=" ">
<path fill="none" stroke="#63b8ff" d="M57.08,-421.01C65.91,-357.26 96.93,-156.63 143,-113.5 156.19,-101.15 175.38,-96.23 192.61,-94.57"/>
<polygon fill="#63b8ff" stroke="#63b8ff" points="53.61,-420.56 55.73,-430.94 60.54,-421.51 53.61,-420.56"/>
</a>
</g>
</g>
<!-- Node85 -->
<g id="Node000085" class="node">
<title>Node85</title>
<g id="a_Node000085"><a xlink:href="structengine_1_1TrackCompManager_1_1TrackComp.html" target="_top" xlink:title=" ">
<polygon fill="white" stroke="#666666" points="309.5,-67.5 157.5,-67.5 157.5,-37.5 309.5,-37.5 309.5,-67.5"/>
<text text-anchor="start" x="165.5" y="-55.5" font-family="Helvetica,sans-Serif" font-size="10.00">engine::TrackCompManager</text>
<text text-anchor="middle" x="233.5" y="-44.5" font-family="Helvetica,sans-Serif" font-size="10.00">::TrackComp</text>
</a>
</g>
</g>
<!-- Node1&#45;&gt;Node85 -->
<g id="edge47_Node000001_Node000085" class="edge">
<title>Node1&#45;&gt;Node85</title>
<g id="a_edge47_Node000001_Node000085"><a xlink:title=" ">
<path fill="none" stroke="#63b8ff" d="M56.66,-420.75C64.53,-352.33 93.81,-126.86 143,-76.5 147.16,-72.24 151.99,-68.71 157.2,-65.79"/>
<polygon fill="#63b8ff" stroke="#63b8ff" points="53.15,-420.66 55.51,-430.98 60.1,-421.44 53.15,-420.66"/>
</a>
</g>
</g>
<!-- Node86 -->
<g id="Node000086" class="node">
<title>Node86</title>
<g id="a_Node000086"><a xlink:href="classengine_1_1TrackItem.html" target="_top" xlink:title="Base class for EditItems that live in a Track, e.g.">
<polygon fill="#fff0f0" stroke="red" points="285.5,-19 181.5,-19 181.5,0 285.5,0 285.5,-19"/>
<text text-anchor="middle" x="233.5" y="-7" font-family="Helvetica,sans-Serif" font-size="10.00">engine::TrackItem</text>
</a>
</g>
</g>
<!-- Node1&#45;&gt;Node86 -->
<g id="edge48_Node000001_Node000086" class="edge">
<title>Node1&#45;&gt;Node86</title>
<g id="a_edge48_Node000001_Node000086"><a xlink:title=" ">
<path fill="none" stroke="#63b8ff" d="M55.97,-420.5C61.89,-345.88 86.34,-85.02 143,-28.5 153.12,-18.4 167.19,-13.06 181.17,-10.37"/>
<polygon fill="#63b8ff" stroke="#63b8ff" points="52.46,-420.58 55.18,-430.82 59.44,-421.12 52.46,-420.58"/>
</a>
</g>
</g>
<!-- Node3 -->
<g id="Node000003" class="node">
<title>Node3</title>
<g id="a_Node000003"><a xlink:href="classengine_1_1AirWindowsAutomatableParameter.html" target="_top" xlink:title=" ">
<polygon fill="white" stroke="#666666" points="540.5,-1315.5 364.5,-1315.5 364.5,-1285.5 540.5,-1285.5 540.5,-1315.5"/>
<text text-anchor="start" x="372.5" y="-1303.5" font-family="Helvetica,sans-Serif" font-size="10.00">engine::AirWindowsAutomatable</text>
<text text-anchor="middle" x="452.5" y="-1292.5" font-family="Helvetica,sans-Serif" font-size="10.00">Parameter</text>
</a>
</g>
</g>
<!-- Node2&#45;&gt;Node3 -->
<g id="edge2_Node000002_Node000003" class="edge">
<title>Node2&#45;&gt;Node3</title>
<g id="a_edge2_Node000002_Node000003"><a xlink:title=" ">
<path fill="none" stroke="#63b8ff" d="M248.56,-1178.91C269.94,-1204.22 313.14,-1250.95 360,-1276.5 366.34,-1279.96 373.21,-1282.94 380.23,-1285.5"/>
<polygon fill="#63b8ff" stroke="#63b8ff" points="251.25,-1176.67 242.17,-1171.21 245.86,-1181.14 251.25,-1176.67"/>
</a>
</g>
</g>
<!-- Node4 -->
<g id="Node000004" class="node">
<title>Node4</title>
<g id="a_Node000004"><a xlink:href="structengine_1_1DiscreteLabelledParameter.html" target="_top" xlink:title=" ">
<polygon fill="white" stroke="#666666" points="521,-1267.5 384,-1267.5 384,-1237.5 521,-1237.5 521,-1267.5"/>
<text text-anchor="start" x="392" y="-1255.5" font-family="Helvetica,sans-Serif" font-size="10.00">engine::DiscreteLabelled</text>
<text text-anchor="middle" x="452.5" y="-1244.5" font-family="Helvetica,sans-Serif" font-size="10.00">Parameter</text>
</a>
</g>
</g>
<!-- Node2&#45;&gt;Node4 -->
<g id="edge3_Node000002_Node000004" class="edge">
<title>Node2&#45;&gt;Node4</title>
<g id="a_edge3_Node000002_Node000004"><a xlink:title=" ">
<path fill="none" stroke="#63b8ff" d="M258.46,-1176.48C283.13,-1191.38 323.09,-1214.04 360,-1228.5 368.41,-1231.8 377.43,-1234.78 386.41,-1237.44"/>
<polygon fill="#63b8ff" stroke="#63b8ff" points="260.14,-1173.41 249.79,-1171.18 256.5,-1179.38 260.14,-1173.41"/>
</a>
</g>
</g>
<!-- Node5 -->
<g id="Node000005" class="node">
<title>Node5</title>
<g id="a_Node000005"><a xlink:href="classengine_1_1ExternalAutomatableParameter.html" target="_top" xlink:title=" ">
<polygon fill="white" stroke="#666666" points="532,-1219.5 373,-1219.5 373,-1189.5 532,-1189.5 532,-1219.5"/>
<text text-anchor="start" x="381" y="-1207.5" font-family="Helvetica,sans-Serif" font-size="10.00">engine::ExternalAutomatable</text>
<text text-anchor="middle" x="452.5" y="-1196.5" font-family="Helvetica,sans-Serif" font-size="10.00">Parameter</text>
</a>
</g>
</g>
<!-- Node2&#45;&gt;Node5 -->
<g id="edge4_Node000002_Node000005" class="edge">
<title>Node2&#45;&gt;Node5</title>
<g id="a_edge4_Node000002_Node000005"><a xlink:title=" ">
<path fill="none" stroke="#63b8ff" d="M292.56,-1173.01C318.12,-1178.07 348.47,-1184.08 375.77,-1189.49"/>
<polygon fill="#63b8ff" stroke="#63b8ff" points="293.15,-1169.55 282.66,-1171.04 291.79,-1176.42 293.15,-1169.55"/>
</a>
</g>
</g>
<!-- Node6 -->
<g id="Node000006" class="node">
<title>Node6</title>
<g id="a_Node000006"><a xlink:href="classengine_1_1MacroParameter.html" target="_top" xlink:title="A MacroParameter is an AutomatableParameter which is a collection of Mappings.">
<polygon fill="white" stroke="#666666" points="520.5,-1171 384.5,-1171 384.5,-1152 520.5,-1152 520.5,-1171"/>
<text text-anchor="middle" x="452.5" y="-1159" font-family="Helvetica,sans-Serif" font-size="10.00">engine::MacroParameter</text>
</a>
</g>
</g>
<!-- Node2&#45;&gt;Node6 -->
<g id="edge5_Node000002_Node000006" class="edge">
<title>Node2&#45;&gt;Node6</title>
<g id="a_edge5_Node000002_Node000006"><a xlink:title=" ">
<path fill="none" stroke="#63b8ff" d="M328.21,-1161.5C347.13,-1161.5 366.66,-1161.5 384.44,-1161.5"/>
<polygon fill="#63b8ff" stroke="#63b8ff" points="328.09,-1158 318.09,-1161.5 328.09,-1165 328.09,-1158"/>
</a>
</g>
</g>
<!-- Node7 -->
<g id="Node000007" class="node">
<title>Node7</title>
<g id="a_Node000007"><a xlink:href="structengine_1_1PluginWetDryAutomatableParam.html" target="_top" xlink:title="Specialised AutomatableParameter for wet/dry.">
<polygon fill="white" stroke="#666666" points="545,-1133.5 360,-1133.5 360,-1103.5 545,-1103.5 545,-1133.5"/>
<text text-anchor="start" x="368" y="-1121.5" font-family="Helvetica,sans-Serif" font-size="10.00">engine::PluginWetDryAutomatable</text>
<text text-anchor="middle" x="452.5" y="-1110.5" font-family="Helvetica,sans-Serif" font-size="10.00">Param</text>
</a>
</g>
</g>
<!-- Node2&#45;&gt;Node7 -->
<g id="edge6_Node000002_Node000007" class="edge">
<title>Node2&#45;&gt;Node7</title>
<g id="a_edge6_Node000002_Node000007"><a xlink:title=" ">
<path fill="none" stroke="#63b8ff" d="M292.56,-1149.99C318.12,-1144.93 348.47,-1138.92 375.77,-1133.51"/>
<polygon fill="#63b8ff" stroke="#63b8ff" points="291.79,-1146.58 282.66,-1151.96 293.15,-1153.45 291.79,-1146.58"/>
</a>
</g>
</g>
<!-- Node8 -->
<g id="Node000008" class="node">
<title>Node8</title>
<g id="a_Node000008"><a xlink:href="structengine_1_1SuffixedParameter.html" target="_top" xlink:title=" ">
<polygon fill="white" stroke="#666666" points="525,-1085 380,-1085 380,-1066 525,-1066 525,-1085"/>
<text text-anchor="middle" x="452.5" y="-1073" font-family="Helvetica,sans-Serif" font-size="10.00">engine::SuffixedParameter</text>
</a>
</g>
</g>
<!-- Node2&#45;&gt;Node8 -->
<g id="edge7_Node000002_Node000008" class="edge">
<title>Node2&#45;&gt;Node8</title>
<g id="a_edge7_Node000002_Node000008"><a xlink:title=" ">
<path fill="none" stroke="#63b8ff" d="M257.9,-1146.37C282.42,-1131.16 322.52,-1108.08 360,-1094.5 370.37,-1090.74 381.69,-1087.64 392.72,-1085.11"/>
<polygon fill="#63b8ff" stroke="#63b8ff" points="255.9,-1143.49 249.3,-1151.78 259.63,-1149.42 255.9,-1143.49"/>
</a>
</g>
</g>
<!-- Node12 -->
<g id="Node000012" class="node">
<title>Node12</title>
<g id="a_Node000012"><a xlink:href="classengine_1_1AlphaTrackControlSurface.html" target="_top" xlink:title=" ">
<polygon fill="white" stroke="#666666" points="524.5,-1047.5 380.5,-1047.5 380.5,-1017.5 524.5,-1017.5 524.5,-1047.5"/>
<text text-anchor="start" x="388.5" y="-1035.5" font-family="Helvetica,sans-Serif" font-size="10.00">engine::AlphaTrackControl</text>
<text text-anchor="middle" x="452.5" y="-1024.5" font-family="Helvetica,sans-Serif" font-size="10.00">Surface</text>
</a>
</g>
</g>
<!-- Node11&#45;&gt;Node12 -->
<g id="edge11_Node000011_Node000012" class="edge">
<title>Node11&#45;&gt;Node12</title>
<g id="a_edge11_Node000011_Node000012"><a xlink:title=" ">
<path fill="none" stroke="#63b8ff" d="M306.94,-867.35C313.2,-870.18 319.03,-873.82 324,-878.5 367.67,-919.58 317.32,-966.4 360,-1008.5 365.85,-1014.27 372.9,-1018.7 380.46,-1022.09"/>
<polygon fill="#63b8ff" stroke="#63b8ff" points="308.11,-864.05 297.52,-863.78 305.63,-870.6 308.11,-864.05"/>
</a>
</g>
</g>
<!-- Node13 -->
<g id="Node000013" class="node">
<title>Node13</title>
<g id="a_Node000013"><a xlink:href="classengine_1_1CustomControlSurface.html" target="_top" xlink:title=" ">
<polygon fill="white" stroke="#666666" points="535,-999 370,-999 370,-980 535,-980 535,-999"/>
<text text-anchor="middle" x="452.5" y="-987" font-family="Helvetica,sans-Serif" font-size="10.00">engine::CustomControlSurface</text>
</a>
</g>
</g>
<!-- Node11&#45;&gt;Node13 -->
<g id="edge12_Node000011_Node000013" class="edge">
<title>Node11&#45;&gt;Node13</title>
<g id="a_edge12_Node000011_Node000013"><a xlink:title=" ">
<path fill="none" stroke="#63b8ff" d="M307.49,-868.32C313.46,-870.97 319.08,-874.31 324,-878.5 357.75,-907.23 326.04,-943.02 360,-971.5 363.97,-974.83 368.38,-977.61 373.05,-979.92"/>
<polygon fill="#63b8ff" stroke="#63b8ff" points="308.47,-864.95 297.88,-864.7 306,-871.5 308.47,-864.95"/>
</a>
</g>
</g>
<!-- Node14 -->
<g id="Node000014" class="node">
<title>Node14</title>
<g id="a_Node000014"><a xlink:href="classengine_1_1MackieC4.html" target="_top" xlink:title=" ">
<polygon fill="white" stroke="#666666" points="504.5,-962 400.5,-962 400.5,-943 504.5,-943 504.5,-962"/>
<text text-anchor="middle" x="452.5" y="-950" font-family="Helvetica,sans-Serif" font-size="10.00">engine::MackieC4</text>
</a>
</g>
</g>
<!-- Node11&#45;&gt;Node14 -->
<g id="edge13_Node000011_Node000014" class="edge">
<title>Node11&#45;&gt;Node14</title>
<g id="a_edge13_Node000011_Node000014"><a xlink:title=" ">
<path fill="none" stroke="#63b8ff" d="M307.24,-869.66C313.17,-872.04 318.85,-874.95 324,-878.5 348.35,-895.31 335.53,-917.87 360,-934.5 371.78,-942.51 386.28,-947.14 400.23,-949.76"/>
<polygon fill="#63b8ff" stroke="#63b8ff" points="308.36,-866.34 297.76,-866.33 306.04,-872.94 308.36,-866.34"/>
</a>
</g>
</g>
<!-- Node15 -->
<g id="Node000015" class="node">
<title>Node15</title>
<g id="a_Node000015"><a xlink:href="classengine_1_1MackieMCU.html" target="_top" xlink:title=" ">
<polygon fill="#fff0f0" stroke="red" points="509.5,-925 395.5,-925 395.5,-906 509.5,-906 509.5,-925"/>
<text text-anchor="middle" x="452.5" y="-913" font-family="Helvetica,sans-Serif" font-size="10.00">engine::MackieMCU</text>
</a>
</g>
</g>
<!-- Node11&#45;&gt;Node15 -->
<g id="edge14_Node000011_Node000015" class="edge">
<title>Node11&#45;&gt;Node15</title>
<g id="a_edge14_Node000011_Node000015"><a xlink:title=" ">
<path fill="none" stroke="#63b8ff" d="M300.96,-871.45C308.82,-873.5 316.65,-875.84 324,-878.5 341.01,-884.66 342.94,-891.47 360,-897.5 371.14,-901.44 383.37,-904.6 395.16,-907.1"/>
<polygon fill="#63b8ff" stroke="#63b8ff" points="301.57,-868 291.03,-869.02 299.91,-874.8 301.57,-868"/>
</a>
</g>
</g>
<!-- Node17 -->
<g id="Node000017" class="node">
<title>Node17</title>
<g id="a_Node000017"><a xlink:href="classengine_1_1MackieXT.html" target="_top" xlink:title=" ">
<polygon fill="white" stroke="#666666" points="504.5,-888 400.5,-888 400.5,-869 504.5,-869 504.5,-888"/>
<text text-anchor="middle" x="452.5" y="-876" font-family="Helvetica,sans-Serif" font-size="10.00">engine::MackieXT</text>
</a>
</g>
</g>
<!-- Node11&#45;&gt;Node17 -->
<g id="edge15_Node000011_Node000017" class="edge">
<title>Node11&#45;&gt;Node17</title>
<g id="a_edge15_Node000011_Node000017"><a xlink:title=" ">
<path fill="none" stroke="#63b8ff" d="M307.7,-865.91C338.12,-868.57 372.71,-871.6 400.33,-874.02"/>
<polygon fill="#63b8ff" stroke="#63b8ff" points="307.82,-862.41 297.56,-865.02 307.21,-869.38 307.82,-862.41"/>
</a>
</g>
</g>
<!-- Node18 -->
<g id="Node000018" class="node">
<title>Node18</title>
<g id="a_Node000018"><a xlink:href="classengine_1_1NovationRemoteSl.html" target="_top" xlink:title=" ">
<polygon fill="#fff0f0" stroke="red" points="526,-851 379,-851 379,-832 526,-832 526,-851"/>
<text text-anchor="middle" x="452.5" y="-839" font-family="Helvetica,sans-Serif" font-size="10.00">engine::NovationRemoteSl</text>
</a>
</g>
</g>
<!-- Node11&#45;&gt;Node18 -->
<g id="edge16_Node000011_Node000018" class="edge">
<title>Node11&#45;&gt;Node18</title>
<g id="a_edge16_Node000011_Node000018"><a xlink:title=" ">
<path fill="none" stroke="#63b8ff" d="M307.57,-853.44C330.5,-851.54 355.81,-849.44 378.72,-847.54"/>
<polygon fill="#63b8ff" stroke="#63b8ff" points="307.23,-849.95 297.56,-854.27 307.81,-856.93 307.23,-849.95"/>
</a>
</g>
</g>
<!-- Node20 -->
<g id="Node000020" class="node">
<title>Node20</title>
<g id="a_Node000020"><a xlink:href="classengine_1_1TranzportControlSurface.html" target="_top" xlink:title=" ">
<polygon fill="white" stroke="#666666" points="520.5,-813.5 384.5,-813.5 384.5,-783.5 520.5,-783.5 520.5,-813.5"/>
<text text-anchor="start" x="392.5" y="-801.5" font-family="Helvetica,sans-Serif" font-size="10.00">engine::TranzportControl</text>
<text text-anchor="middle" x="452.5" y="-790.5" font-family="Helvetica,sans-Serif" font-size="10.00">Surface</text>
</a>
</g>
</g>
<!-- Node11&#45;&gt;Node20 -->
<g id="edge17_Node000011_Node000020" class="edge">
<title>Node11&#45;&gt;Node20</title>
<g id="a_edge17_Node000011_Node000020"><a xlink:title=" ">
<path fill="none" stroke="#63b8ff" d="M276.87,-847.2C301.18,-840.18 332.28,-831.26 360,-823.5 371.58,-820.26 383.99,-816.83 395.82,-813.59"/>
<polygon fill="#63b8ff" stroke="#63b8ff" points="275.87,-843.85 267.23,-849.99 277.81,-850.57 275.87,-843.85"/>
</a>
</g>
</g>
<!-- Node22 -->
<g id="Node000022" class="node">
<title>Node22</title>
<g id="a_Node000022"><a xlink:href="classengine_1_1TempoSetting.html" target="_top" xlink:title="A tempo value, as used in a TempoSequence.">
<polygon fill="white" stroke="#666666" points="513.5,-765 391.5,-765 391.5,-746 513.5,-746 513.5,-765"/>
<text text-anchor="middle" x="452.5" y="-753" font-family="Helvetica,sans-Serif" font-size="10.00">engine::TempoSetting</text>
</a>
</g>
</g>
<!-- Node21&#45;&gt;Node22 -->
<g id="edge19_Node000021_Node000022" class="edge">
<title>Node21&#45;&gt;Node22</title>
<g id="a_edge19_Node000021_Node000022"><a xlink:title=" ">
<path fill="none" stroke="#63b8ff" d="M312.44,-736.92C338.37,-740.38 366.84,-744.19 391.22,-747.44"/>
<polygon fill="#63b8ff" stroke="#63b8ff" points="312.64,-733.41 302.27,-735.56 311.72,-740.35 312.64,-733.41"/>
</a>
</g>
</g>
<!-- Node25 -->
<g id="Node000025" class="node">
<title>Node25</title>
<g id="a_Node000025"><a xlink:href="structengine_1_1InputDeviceInstance_1_1MidiInputDestination.html" target="_top" xlink:title=" ">
<polygon fill="white" stroke="#666666" points="530,-727.5 375,-727.5 375,-697.5 530,-697.5 530,-727.5"/>
<text text-anchor="start" x="383" y="-715.5" font-family="Helvetica,sans-Serif" font-size="10.00">engine::InputDeviceInstance</text>
<text text-anchor="middle" x="452.5" y="-704.5" font-family="Helvetica,sans-Serif" font-size="10.00">::MidiInputDestination</text>
</a>
</g>
</g>
<!-- Node24&#45;&gt;Node25 -->
<g id="edge22_Node000024_Node000025" class="edge">
<title>Node24&#45;&gt;Node25</title>
<g id="a_edge22_Node000024_Node000025"><a xlink:title=" ">
<path fill="none" stroke="#63b8ff" d="M310.81,-650.19C315.36,-652.11 319.8,-654.21 324,-656.5 342.79,-666.75 341.13,-678.4 360,-688.5 366.37,-691.91 373.25,-694.86 380.29,-697.4"/>
<polygon fill="#63b8ff" stroke="#63b8ff" points="311.92,-646.87 301.34,-646.51 309.39,-653.39 311.92,-646.87"/>
</a>
</g>
</g>
<!-- Node26 -->
<g id="Node000026" class="node">
<title>Node26</title>
<g id="a_Node000026"><a xlink:href="structengine_1_1InputDeviceInstance_1_1VirtualMidiInputDestination.html" target="_top" xlink:title=" ">
<polygon fill="white" stroke="#666666" points="531,-679.5 374,-679.5 374,-649.5 531,-649.5 531,-679.5"/>
<text text-anchor="start" x="382" y="-667.5" font-family="Helvetica,sans-Serif" font-size="10.00">engine::InputDeviceInstance</text>
<text text-anchor="middle" x="452.5" y="-656.5" font-family="Helvetica,sans-Serif" font-size="10.00">::VirtualMidiInputDestination</text>
</a>
</g>
</g>
<!-- Node24&#45;&gt;Node26 -->
<g id="edge23_Node000024_Node000026" class="edge">
<title>Node24&#45;&gt;Node26</title>
<g id="a_edge23_Node000024_Node000026"><a xlink:title=" ">
<path fill="none" stroke="#63b8ff" d="M321.15,-644.68C338.57,-647.33 356.77,-650.09 373.85,-652.69"/>
<polygon fill="#63b8ff" stroke="#63b8ff" points="321.42,-641.18 311.01,-643.13 320.37,-648.1 321.42,-641.18"/>
</a>
</g>
</g>
<!-- Node27 -->
<g id="Node000027" class="node">
<title>Node27</title>
<g id="a_Node000027"><a xlink:href="structengine_1_1InputDeviceInstance_1_1WaveInputDestination.html" target="_top" xlink:title=" ">
<polygon fill="white" stroke="#666666" points="530,-631.5 375,-631.5 375,-601.5 530,-601.5 530,-631.5"/>
<text text-anchor="start" x="383" y="-619.5" font-family="Helvetica,sans-Serif" font-size="10.00">engine::InputDeviceInstance</text>
<text text-anchor="middle" x="452.5" y="-608.5" font-family="Helvetica,sans-Serif" font-size="10.00">::WaveInputDestination</text>
</a>
</g>
</g>
<!-- Node24&#45;&gt;Node27 -->
<g id="edge24_Node000024_Node000027" class="edge">
<title>Node24&#45;&gt;Node27</title>
<g id="a_edge24_Node000024_Node000027"><a xlink:title=" ">
<path fill="none" stroke="#63b8ff" d="M321.34,-625.5C339.07,-624.27 357.61,-622.99 374.95,-621.79"/>
<polygon fill="#63b8ff" stroke="#63b8ff" points="320.74,-622.03 311.01,-626.21 321.22,-629.01 320.74,-622.03"/>
</a>
</g>
</g>
<!-- Node30 -->
<g id="Node000030" class="node">
<title>Node30</title>
<g id="a_Node000030"><a xlink:href="classengine_1_1BreakpointOscillatorModifier.html" target="_top" xlink:title=" ">
<polygon fill="white" stroke="#666666" points="530,-583.5 375,-583.5 375,-553.5 530,-553.5 530,-583.5"/>
<text text-anchor="start" x="383" y="-571.5" font-family="Helvetica,sans-Serif" font-size="10.00">engine::BreakpointOscillator</text>
<text text-anchor="middle" x="452.5" y="-560.5" font-family="Helvetica,sans-Serif" font-size="10.00">Modifier</text>
</a>
</g>
</g>
<!-- Node29&#45;&gt;Node30 -->
<g id="edge27_Node000029_Node000030" class="edge">
<title>Node29&#45;&gt;Node30</title>
<g id="a_edge27_Node000029_Node000030"><a xlink:title=" ">
<path fill="none" stroke="#63b8ff" d="M291.28,-555.95C316.78,-557.95 347.24,-560.33 374.72,-562.49"/>
<polygon fill="#63b8ff" stroke="#63b8ff" points="291.29,-552.44 281.05,-555.15 290.75,-559.42 291.29,-552.44"/>
</a>
</g>
</g>
<!-- Node31 -->
<g id="Node000031" class="node">
<title>Node31</title>
<g id="a_Node000031"><a xlink:href="classengine_1_1EnvelopeFollowerModifier.html" target="_top" xlink:title=" ">
<polygon fill="white" stroke="#666666" points="523.5,-535.5 381.5,-535.5 381.5,-505.5 523.5,-505.5 523.5,-535.5"/>
<text text-anchor="start" x="389.5" y="-523.5" font-family="Helvetica,sans-Serif" font-size="10.00">engine::EnvelopeFollower</text>
<text text-anchor="middle" x="452.5" y="-512.5" font-family="Helvetica,sans-Serif" font-size="10.00">Modifier</text>
</a>
</g>
</g>
<!-- Node29&#45;&gt;Node31 -->
<g id="edge28_Node000029_Node000031" class="edge">
<title>Node29&#45;&gt;Node31</title>
<g id="a_edge28_Node000029_Node000031"><a xlink:title=" ">
<path fill="none" stroke="#63b8ff" d="M291.28,-543.39C318.76,-539.46 352.01,-534.71 381.09,-530.56"/>
<polygon fill="#63b8ff" stroke="#63b8ff" points="290.46,-539.97 281.05,-544.85 291.45,-546.9 290.46,-539.97"/>
</a>
</g>
</g>
<!-- Node32 -->
<g id="Node000032" class="node">
<title>Node32</title>
<g id="a_Node000032"><a xlink:href="classengine_1_1LFOModifier.html" target="_top" xlink:title=" ">
<polygon fill="white" stroke="#666666" points="509.5,-487 395.5,-487 395.5,-468 509.5,-468 509.5,-487"/>
<text text-anchor="middle" x="452.5" y="-475" font-family="Helvetica,sans-Serif" font-size="10.00">engine::LFOModifier</text>
</a>
</g>
</g>
<!-- Node29&#45;&gt;Node32 -->
<g id="edge29_Node000029_Node000032" class="edge">
<title>Node29&#45;&gt;Node32</title>
<g id="a_edge29_Node000029_Node000032"><a xlink:title=" ">
<path fill="none" stroke="#63b8ff" d="M291.25,-545.42C302.54,-542.76 313.99,-538.95 324,-533.5 344.15,-522.52 339.89,-507.54 360,-496.5 370.81,-490.57 383.27,-486.48 395.44,-483.67"/>
<polygon fill="#63b8ff" stroke="#63b8ff" points="290.48,-542.01 281.4,-547.48 291.91,-548.86 290.48,-542.01"/>
</a>
</g>
</g>
<!-- Node33 -->
<g id="Node000033" class="node">
<title>Node33</title>
<g id="a_Node000033"><a xlink:href="classengine_1_1MIDITrackerModifier.html" target="_top" xlink:title=" ">
<polygon fill="white" stroke="#666666" points="528.5,-450 376.5,-450 376.5,-431 528.5,-431 528.5,-450"/>
<text text-anchor="middle" x="452.5" y="-438" font-family="Helvetica,sans-Serif" font-size="10.00">engine::MIDITrackerModifier</text>
</a>
</g>
</g>
<!-- Node29&#45;&gt;Node33 -->
<g id="edge30_Node000029_Node000033" class="edge">
<title>Node29&#45;&gt;Node33</title>
<g id="a_edge30_Node000029_Node000033"><a xlink:title=" ">
<path fill="none" stroke="#63b8ff" d="M290.99,-548.22C302.78,-545.42 314.5,-540.85 324,-533.5 352.93,-511.13 331.14,-481.96 360,-459.5 364.99,-455.61 370.59,-452.47 376.49,-449.93"/>
<polygon fill="#63b8ff" stroke="#63b8ff" points="290.24,-544.8 281.11,-550.18 291.6,-551.67 290.24,-544.8"/>
</a>
</g>
</g>
<!-- Node34 -->
<g id="Node000034" class="node">
<title>Node34</title>
<g id="a_Node000034"><a xlink:href="classengine_1_1RandomModifier.html" target="_top" xlink:title=" ">
<polygon fill="white" stroke="#666666" points="520.5,-413 384.5,-413 384.5,-394 520.5,-394 520.5,-413"/>
<text text-anchor="middle" x="452.5" y="-401" font-family="Helvetica,sans-Serif" font-size="10.00">engine::RandomModifier</text>
</a>
</g>
</g>
<!-- Node29&#45;&gt;Node34 -->
<g id="edge31_Node000029_Node000034" class="edge">
<title>Node29&#45;&gt;Node34</title>
<g id="a_edge31_Node000029_Node000034"><a xlink:title=" ">
<path fill="none" stroke="#63b8ff" d="M291.42,-549.27C303.29,-546.43 314.94,-541.57 324,-533.5 362.72,-499 321.39,-457.12 360,-422.5 366.89,-416.33 375.24,-411.96 384.07,-408.9"/>
<polygon fill="#63b8ff" stroke="#63b8ff" points="290.59,-545.86 281.44,-551.2 291.93,-552.73 290.59,-545.86"/>
</a>
</g>
</g>
<!-- Node35 -->
<g id="Node000035" class="node">
<title>Node35</title>
<g id="a_Node000035"><a xlink:href="classengine_1_1StepModifier.html" target="_top" xlink:title=" ">
<polygon fill="white" stroke="#666666" points="511,-376 394,-376 394,-357 511,-357 511,-376"/>
<text text-anchor="middle" x="452.5" y="-364" font-family="Helvetica,sans-Serif" font-size="10.00">engine::StepModifier</text>
</a>
</g>
</g>
<!-- Node29&#45;&gt;Node35 -->
<g id="edge32_Node000029_Node000035" class="edge">
<title>Node29&#45;&gt;Node35</title>
<g id="a_edge32_Node000029_Node000035"><a xlink:title=" ">
<path fill="none" stroke="#63b8ff" d="M291.51,-549.84C303.49,-547 315.16,-541.99 324,-533.5 372.82,-486.6 311.33,-432.55 360,-385.5 369.22,-376.59 381.46,-371.37 393.98,-368.41"/>
<polygon fill="#63b8ff" stroke="#63b8ff" points="290.6,-546.45 281.43,-551.76 291.91,-553.33 290.6,-546.45"/>
</a>
</g>
</g>
<!-- Node38 -->
<g id="Node000038" class="node">
<title>Node38</title>
<g id="a_Node000038"><a xlink:href="classengine_1_1AirWindowsPlugin.html" target="_top" xlink:title=" ">
<polygon fill="white" stroke="#666666" points="524,-339 381,-339 381,-320 524,-320 524,-339"/>
<text text-anchor="middle" x="452.5" y="-327" font-family="Helvetica,sans-Serif" font-size="10.00">engine::AirWindowsPlugin</text>
</a>
</g>
</g>
<!-- Node37&#45;&gt;Node38 -->
<g id="edge35_Node000037_Node000038" class="edge">
<title>Node37&#45;&gt;Node38</title>
<g id="a_edge35_Node000037_Node000038"><a xlink:title=" ">
<path fill="none" stroke="#63b8ff" d="M286.99,-476.23C300.36,-473.58 313.82,-468.57 324,-459.5 362.72,-425 321.39,-383.12 360,-348.5 366.04,-343.08 373.21,-339.06 380.84,-336.09"/>
<polygon fill="#63b8ff" stroke="#63b8ff" points="286.17,-472.82 276.84,-477.83 287.26,-479.73 286.17,-472.82"/>
</a>
</g>
</g>
<!-- Node39 -->
<g id="Node000039" class="node">
<title>Node39</title>
<g id="a_Node000039"><a xlink:href="classengine_1_1AuxReturnPlugin.html" target="_top" xlink:title=" ">
<polygon fill="white" stroke="#666666" points="521,-302 384,-302 384,-283 521,-283 521,-302"/>
<text text-anchor="middle" x="452.5" y="-290" font-family="Helvetica,sans-Serif" font-size="10.00">engine::AuxReturnPlugin</text>
</a>
</g>
</g>
<!-- Node37&#45;&gt;Node39 -->
<g id="edge36_Node000037_Node000039" class="edge">
<title>Node37&#45;&gt;Node39</title>
<g id="a_edge36_Node000037_Node000039"><a xlink:title=" ">
<path fill="none" stroke="#63b8ff" d="M287.09,-476.81C300.59,-474.18 314.08,-469.04 324,-459.5 373.09,-412.27 310.81,-357.63 360,-310.5 366.66,-304.12 374.9,-299.68 383.67,-296.65"/>
<polygon fill="#63b8ff" stroke="#63b8ff" points="286.19,-473.41 276.83,-478.36 287.24,-480.33 286.19,-473.41"/>
</a>
</g>
</g>
</g>
</svg>
