<?xml version="1.0" encoding="UTF-8" standalone="no"?>
<!DOCTYPE svg PUBLIC "-//W3C//DTD SVG 1.1//EN"
 "http://www.w3.org/Graphics/SVG/1.1/DTD/svg11.dtd">
<!-- Generated by graphviz version 2.40.1 (20161225.0304)
 -->
<!-- Title: tracktion_engine::TimeSigSetting Pages: 1 -->
<svg width="376pt" height="162pt"
 viewBox="0.00 0.00 375.50 162.00" xmlns="http://www.w3.org/2000/svg" xmlns:xlink="http://www.w3.org/1999/xlink">
<g id="graph0" class="graph" transform="scale(1 1) rotate(0) translate(4 158)">
<title>tracktion_engine::TimeSigSetting</title>
<!-- Node0 -->
<g id="node1" class="node">
<title>Node0</title>
<polygon fill="#bfbfbf" stroke="#000000" points="155.5,-.5 155.5,-30.5 285.5,-30.5 285.5,-.5 155.5,-.5"/>
<text text-anchor="start" x="163.5" y="-18.5" font-family="Helvetica,sans-Serif" font-size="10.00" fill="#000000">tracktion_engine::TimeSig</text>
<text text-anchor="middle" x="220.5" y="-7.5" font-family="Helvetica,sans-Serif" font-size="10.00" fill="#000000">Setting</text>
</g>
<!-- Node1 -->
<g id="node2" class="node">
<title>Node1</title>
<g id="a_node2"><a xlink:href="classtracktion__engine_1_1TrackItem.html" target="_top" xlink:title="Base class for EditItems that live in a track, e.g. ">
<polygon fill="none" stroke="#000000" points="73.5,-73 73.5,-92 211.5,-92 211.5,-73 73.5,-73"/>
<text text-anchor="middle" x="142.5" y="-80" font-family="Helvetica,sans-Serif" font-size="10.00" fill="#000000">tracktion_engine::TrackItem</text>
</a>
</g>
</g>
<!-- Node1&#45;&gt;Node0 -->
<g id="edge1" class="edge">
<title>Node1&#45;&gt;Node0</title>
<path fill="none" stroke="#191970" d="M161.3583,-66.3012C174.0368,-55.4107 190.6296,-41.1579 203.012,-30.5218"/>
<polygon fill="#191970" stroke="#191970" points="158.9806,-63.7296 153.6755,-72.9005 163.5418,-69.0396 158.9806,-63.7296"/>
</g>
<!-- Node2 -->
<g id="node3" class="node">
<title>Node2</title>
<g id="a_node3"><a xlink:href="classtracktion__engine_1_1EditItem.html" target="_top" xlink:title="Base class for objects that live inside an edit &#45; e.g. ">
<polygon fill="none" stroke="#000000" points="0,-134.5 0,-153.5 131,-153.5 131,-134.5 0,-134.5"/>
<text text-anchor="middle" x="65.5" y="-141.5" font-family="Helvetica,sans-Serif" font-size="10.00" fill="#000000">tracktion_engine::EditItem</text>
</a>
</g>
</g>
<!-- Node2&#45;&gt;Node1 -->
<g id="edge2" class="edge">
<title>Node2&#45;&gt;Node1</title>
<path fill="none" stroke="#191970" d="M85.3458,-128.1491C99.653,-116.722 118.4924,-101.6749 130.5532,-92.0419"/>
<polygon fill="#191970" stroke="#191970" points="83.1606,-125.415 77.5313,-134.3906 87.5292,-130.8846 83.1606,-125.415"/>
</g>
<!-- Node3 -->
<g id="node4" class="node">
<title>Node3</title>
<g id="a_node4"><a xlink:href="classtracktion__engine_1_1Selectable.html" target="_top" xlink:title="Base class for things that can be selected, and whose properties can appear in the properties panel...">
<polygon fill="none" stroke="#000000" points="149.5,-134.5 149.5,-153.5 289.5,-153.5 289.5,-134.5 149.5,-134.5"/>
<text text-anchor="middle" x="219.5" y="-141.5" font-family="Helvetica,sans-Serif" font-size="10.00" fill="#000000">tracktion_engine::Selectable</text>
</a>
</g>
</g>
<!-- Node3&#45;&gt;Node1 -->
<g id="edge3" class="edge">
<title>Node3&#45;&gt;Node1</title>
<path fill="none" stroke="#191970" d="M199.6542,-128.1491C185.347,-116.722 166.5076,-101.6749 154.4468,-92.0419"/>
<polygon fill="#191970" stroke="#191970" points="197.4708,-130.8846 207.4688,-134.3906 201.8394,-125.415 197.4708,-130.8846"/>
</g>
<!-- Node4 -->
<g id="node5" class="node">
<title>Node4</title>
<g id="a_node5"><a xlink:href="structtracktion__engine_1_1ValueTreeAllEventListener.html" target="_top" xlink:title="tracktion_engine::ValueTree\lAllEventListener">
<polygon fill="none" stroke="#000000" points="229.5,-67.5 229.5,-97.5 367.5,-97.5 367.5,-67.5 229.5,-67.5"/>
<text text-anchor="start" x="237.5" y="-85.5" font-family="Helvetica,sans-Serif" font-size="10.00" fill="#000000">tracktion_engine::ValueTree</text>
<text text-anchor="middle" x="298.5" y="-74.5" font-family="Helvetica,sans-Serif" font-size="10.00" fill="#000000">AllEventListener</text>
</a>
</g>
</g>
<!-- Node4&#45;&gt;Node0 -->
<g id="edge4" class="edge">
<title>Node4&#45;&gt;Node0</title>
<path fill="none" stroke="#8b1a1a" d="M272.884,-60.4965C261.5016,-50.7193 248.3884,-39.4554 238.1294,-30.6432"/>
<polygon fill="#8b1a1a" stroke="#8b1a1a" points="270.9343,-63.4357 280.8006,-67.2967 275.4955,-58.1257 270.9343,-63.4357"/>
</g>
</g>
</svg>
