<?xml version="1.0" encoding="UTF-8" standalone="no"?>
<!DOCTYPE svg PUBLIC "-//W3C//DTD SVG 1.1//EN"
 "http://www.w3.org/Graphics/SVG/1.1/DTD/svg11.dtd">
<!-- Generated by graphviz version 2.43.0 (0)
 -->
<!-- Title: tracktion::engine::TracktionEngineNode Pages: 1 -->
<svg width="319pt" height="578pt"
 viewBox="0.00 0.00 319.00 578.00" xmlns="http://www.w3.org/2000/svg" xmlns:xlink="http://www.w3.org/1999/xlink">
<g id="graph0" class="graph" transform="scale(1 1) rotate(0) translate(4 574)">
<title>tracktion::engine::TracktionEngineNode</title>
<!-- Node1 -->
<g id="node1" class="node">
<title>Node1</title>
<g id="a_node1"><a xlink:title="Base class for Nodes that provides information about the current process call.">
<polygon fill="#bfbfbf" stroke="black" points="0,-269.5 0,-299.5 119,-299.5 119,-269.5 0,-269.5"/>
<text text-anchor="start" x="8" y="-287.5" font-family="Helvetica,sans-Serif" font-size="10.00">tracktion::engine::</text>
<text text-anchor="middle" x="59.5" y="-276.5" font-family="Helvetica,sans-Serif" font-size="10.00">TracktionEngineNode</text>
</a>
</g>
</g>
<!-- Node2 -->
<g id="node2" class="node">
<title>Node2</title>
<g id="a_node2"><a xlink:href="classtracktion_1_1engine_1_1CombiningNode.html" target="_top" xlink:title="An Node that mixes a sequence of clips of other nodes.">
<polygon fill="none" stroke="black" points="180.5,-539.5 180.5,-569.5 285.5,-569.5 285.5,-539.5 180.5,-539.5"/>
<text text-anchor="start" x="188.5" y="-557.5" font-family="Helvetica,sans-Serif" font-size="10.00">tracktion::engine::</text>
<text text-anchor="middle" x="233" y="-546.5" font-family="Helvetica,sans-Serif" font-size="10.00">CombiningNode</text>
</a>
</g>
</g>
<!-- Node1&#45;&gt;Node2 -->
<g id="edge1" class="edge">
<title>Node1&#45;&gt;Node2</title>
<path fill="none" stroke="midnightblue" d="M63.02,-309.88C69.3,-359.48 90.14,-469.7 155,-530.5 162.15,-537.2 171.15,-542.04 180.45,-545.52"/>
<polygon fill="midnightblue" stroke="midnightblue" points="66.47,-309.24 61.83,-299.72 59.52,-310.06 66.47,-309.24"/>
</g>
<!-- Node3 -->
<g id="node3" class="node">
<title>Node3</title>
<g id="a_node3"><a xlink:href="classtracktion_1_1engine_1_1ContainerClipNode.html" target="_top" xlink:title=" ">
<polygon fill="none" stroke="black" points="179,-490.5 179,-520.5 287,-520.5 287,-490.5 179,-490.5"/>
<text text-anchor="start" x="187" y="-508.5" font-family="Helvetica,sans-Serif" font-size="10.00">tracktion::engine::</text>
<text text-anchor="middle" x="233" y="-497.5" font-family="Helvetica,sans-Serif" font-size="10.00">ContainerClipNode</text>
</a>
</g>
</g>
<!-- Node1&#45;&gt;Node3 -->
<g id="edge2" class="edge">
<title>Node1&#45;&gt;Node3</title>
<path fill="none" stroke="midnightblue" d="M65.67,-309.47C75.59,-351.19 101.28,-435.06 155,-481.5 161.89,-487.45 170.24,-491.93 178.87,-495.3"/>
<polygon fill="midnightblue" stroke="midnightblue" points="69.05,-308.57 63.42,-299.59 62.22,-310.11 69.05,-308.57"/>
</g>
<!-- Node4 -->
<g id="node4" class="node">
<title>Node4</title>
<g id="a_node4"><a xlink:href="classtracktion_1_1engine_1_1FadeInOutNode.html" target="_top" xlink:title="A Node that fades in and out given time regions.">
<polygon fill="none" stroke="black" points="180.5,-441.5 180.5,-471.5 285.5,-471.5 285.5,-441.5 180.5,-441.5"/>
<text text-anchor="start" x="188.5" y="-459.5" font-family="Helvetica,sans-Serif" font-size="10.00">tracktion::engine::</text>
<text text-anchor="middle" x="233" y="-448.5" font-family="Helvetica,sans-Serif" font-size="10.00">FadeInOutNode</text>
</a>
</g>
</g>
<!-- Node1&#45;&gt;Node4 -->
<g id="edge3" class="edge">
<title>Node1&#45;&gt;Node4</title>
<path fill="none" stroke="midnightblue" d="M69.76,-308.88C83.45,-341.72 112.19,-399.8 155,-432.5 162.46,-438.2 171.28,-442.55 180.25,-445.88"/>
<polygon fill="midnightblue" stroke="midnightblue" points="72.98,-307.52 65.99,-299.56 66.49,-310.14 72.98,-307.52"/>
</g>
<!-- Node5 -->
<g id="node5" class="node">
<title>Node5</title>
<g id="a_node5"><a xlink:href="classtracktion_1_1engine_1_1HostedMidiInputDeviceNode.html" target="_top" xlink:title="A Node that intercepts MIDI from a plugin callback and inserts it in to the playback graph.">
<polygon fill="none" stroke="black" points="155,-392.5 155,-422.5 311,-422.5 311,-392.5 155,-392.5"/>
<text text-anchor="start" x="163" y="-410.5" font-family="Helvetica,sans-Serif" font-size="10.00">tracktion::engine::</text>
<text text-anchor="middle" x="233" y="-399.5" font-family="Helvetica,sans-Serif" font-size="10.00">HostedMidiInputDeviceNode</text>
</a>
</g>
</g>
<!-- Node1&#45;&gt;Node5 -->
<g id="edge4" class="edge">
<title>Node1&#45;&gt;Node5</title>
<path fill="none" stroke="#8b1a1a" d="M77.12,-307.83C94.25,-330.25 122.92,-363.59 155,-383.5 160.47,-386.9 166.47,-389.85 172.61,-392.4"/>
<polygon fill="#8b1a1a" stroke="#8b1a1a" points="79.72,-305.45 70.93,-299.53 74.11,-309.64 79.72,-305.45"/>
</g>
<!-- Node6 -->
<g id="node6" class="node">
<title>Node6</title>
<g id="a_node6"><a xlink:href="classtracktion_1_1engine_1_1LoopingMidiNode.html" target="_top" xlink:title="A Node that plays MIDI data from a MidiMessageSequence, at a specific MIDI channel.">
<polygon fill="none" stroke="black" points="180.5,-343.5 180.5,-373.5 285.5,-373.5 285.5,-343.5 180.5,-343.5"/>
<text text-anchor="start" x="188.5" y="-361.5" font-family="Helvetica,sans-Serif" font-size="10.00">tracktion::engine::</text>
<text text-anchor="middle" x="233" y="-350.5" font-family="Helvetica,sans-Serif" font-size="10.00">LoopingMidiNode</text>
</a>
</g>
</g>
<!-- Node1&#45;&gt;Node6 -->
<g id="edge5" class="edge">
<title>Node1&#45;&gt;Node6</title>
<path fill="none" stroke="midnightblue" d="M94.73,-304.58C112.36,-314.41 134.42,-325.94 155,-334.5 163.01,-337.84 171.66,-340.96 180.17,-343.79"/>
<polygon fill="midnightblue" stroke="midnightblue" points="96.38,-301.49 85.95,-299.62 92.94,-307.58 96.38,-301.49"/>
</g>
<!-- Node7 -->
<g id="node7" class="node">
<title>Node7</title>
<g id="a_node7"><a xlink:href="classtracktion_1_1engine_1_1MidiNode.html" target="_top" xlink:title="A Node that plays MIDI data from a MidiMessageSequence, at a specific MIDI channel.">
<polygon fill="none" stroke="black" points="180.5,-294.5 180.5,-324.5 285.5,-324.5 285.5,-294.5 180.5,-294.5"/>
<text text-anchor="start" x="188.5" y="-312.5" font-family="Helvetica,sans-Serif" font-size="10.00">tracktion::engine::</text>
<text text-anchor="middle" x="233" y="-301.5" font-family="Helvetica,sans-Serif" font-size="10.00">MidiNode</text>
</a>
</g>
</g>
<!-- Node1&#45;&gt;Node7 -->
<g id="edge6" class="edge">
<title>Node1&#45;&gt;Node7</title>
<path fill="none" stroke="midnightblue" d="M128.99,-294.48C146.1,-296.98 164.17,-299.61 180.32,-301.97"/>
<polygon fill="midnightblue" stroke="midnightblue" points="129.44,-291.01 119.04,-293.03 128.43,-297.94 129.44,-291.01"/>
</g>
<!-- Node8 -->
<g id="node8" class="node">
<title>Node8</title>
<g id="a_node8"><a xlink:href="classtracktion_1_1engine_1_1PlayHeadPositionNode.html" target="_top" xlink:title="A Node that calculates a position to show visually what time is currently being processed by the grap...">
<polygon fill="none" stroke="black" points="169,-245.5 169,-275.5 297,-275.5 297,-245.5 169,-245.5"/>
<text text-anchor="start" x="177" y="-263.5" font-family="Helvetica,sans-Serif" font-size="10.00">tracktion::engine::</text>
<text text-anchor="middle" x="233" y="-252.5" font-family="Helvetica,sans-Serif" font-size="10.00">PlayHeadPositionNode</text>
</a>
</g>
</g>
<!-- Node1&#45;&gt;Node8 -->
<g id="edge7" class="edge">
<title>Node1&#45;&gt;Node8</title>
<path fill="none" stroke="midnightblue" d="M128.95,-274.92C142.08,-273.08 155.78,-271.17 168.74,-269.35"/>
<polygon fill="midnightblue" stroke="midnightblue" points="128.46,-271.46 119.04,-276.31 129.43,-278.39 128.46,-271.46"/>
</g>
<!-- Node9 -->
<g id="node9" class="node">
<title>Node9</title>
<g id="a_node9"><a xlink:href="classtracktion_1_1engine_1_1PluginNode.html" target="_top" xlink:title="Node for processing a plugin.">
<polygon fill="none" stroke="black" points="180.5,-196.5 180.5,-226.5 285.5,-226.5 285.5,-196.5 180.5,-196.5"/>
<text text-anchor="start" x="188.5" y="-214.5" font-family="Helvetica,sans-Serif" font-size="10.00">tracktion::engine::</text>
<text text-anchor="middle" x="233" y="-203.5" font-family="Helvetica,sans-Serif" font-size="10.00">PluginNode</text>
</a>
</g>
</g>
<!-- Node1&#45;&gt;Node9 -->
<g id="edge8" class="edge">
<title>Node1&#45;&gt;Node9</title>
<path fill="none" stroke="midnightblue" d="M96.48,-264.55C113.86,-255.35 135.2,-244.68 155,-236.5 163.57,-232.96 172.84,-229.58 181.88,-226.52"/>
<polygon fill="midnightblue" stroke="midnightblue" points="94.43,-261.68 87.27,-269.49 97.73,-267.85 94.43,-261.68"/>
</g>
<!-- Node10 -->
<g id="node10" class="node">
<title>Node10</title>
<g id="a_node10"><a xlink:href="classtracktion_1_1engine_1_1SpeedRampWaveNode.html" target="_top" xlink:title="An Node that plays back a wave file.">
<polygon fill="none" stroke="black" points="169,-147.5 169,-177.5 297,-177.5 297,-147.5 169,-147.5"/>
<text text-anchor="start" x="177" y="-165.5" font-family="Helvetica,sans-Serif" font-size="10.00">tracktion::engine::</text>
<text text-anchor="middle" x="233" y="-154.5" font-family="Helvetica,sans-Serif" font-size="10.00">SpeedRampWaveNode</text>
</a>
</g>
</g>
<!-- Node1&#45;&gt;Node10 -->
<g id="edge9" class="edge">
<title>Node1&#45;&gt;Node10</title>
<path fill="none" stroke="midnightblue" d="M77.57,-261.37C94.84,-239.47 123.45,-207.12 155,-187.5 161.09,-183.72 167.81,-180.45 174.66,-177.64"/>
<polygon fill="midnightblue" stroke="midnightblue" points="74.64,-259.43 71.3,-269.48 80.19,-263.7 74.64,-259.43"/>
</g>
<!-- Node11 -->
<g id="node11" class="node">
<title>Node11</title>
<g id="a_node11"><a xlink:href="classtracktion_1_1engine_1_1TrackMidiInputDeviceNode.html" target="_top" xlink:title="A Node that takes MIDI from the output of a track and sends it to its corresponding InputDevice.">
<polygon fill="none" stroke="black" points="159.5,-98.5 159.5,-128.5 306.5,-128.5 306.5,-98.5 159.5,-98.5"/>
<text text-anchor="start" x="167.5" y="-116.5" font-family="Helvetica,sans-Serif" font-size="10.00">tracktion::engine::</text>
<text text-anchor="middle" x="233" y="-105.5" font-family="Helvetica,sans-Serif" font-size="10.00">TrackMidiInputDeviceNode</text>
</a>
</g>
</g>
<!-- Node1&#45;&gt;Node11 -->
<g id="edge10" class="edge">
<title>Node1&#45;&gt;Node11</title>
<path fill="none" stroke="#8b1a1a" d="M70.3,-259.6C84.31,-227.13 113.09,-170.7 155,-138.5 160.02,-134.65 165.65,-131.38 171.52,-128.6"/>
<polygon fill="#8b1a1a" stroke="#8b1a1a" points="66.9,-258.66 66.27,-269.24 73.36,-261.36 66.9,-258.66"/>
</g>
<!-- Node12 -->
<g id="node12" class="node">
<title>Node12</title>
<g id="a_node12"><a xlink:href="classtracktion_1_1engine_1_1WaveNode.html" target="_top" xlink:title="An Node that plays back a wave file.">
<polygon fill="none" stroke="black" points="180.5,-49.5 180.5,-79.5 285.5,-79.5 285.5,-49.5 180.5,-49.5"/>
<text text-anchor="start" x="188.5" y="-67.5" font-family="Helvetica,sans-Serif" font-size="10.00">tracktion::engine::</text>
<text text-anchor="middle" x="233" y="-56.5" font-family="Helvetica,sans-Serif" font-size="10.00">WaveNode</text>
</a>
</g>
</g>
<!-- Node1&#45;&gt;Node12 -->
<g id="edge11" class="edge">
<title>Node1&#45;&gt;Node12</title>
<path fill="none" stroke="midnightblue" d="M65.88,-259.54C76.06,-218.24 102.03,-135.65 155,-89.5 162.31,-83.13 171.28,-78.38 180.47,-74.83"/>
<polygon fill="midnightblue" stroke="midnightblue" points="62.46,-258.8 63.57,-269.34 69.27,-260.41 62.46,-258.8"/>
</g>
<!-- Node13 -->
<g id="node13" class="node">
<title>Node13</title>
<g id="a_node13"><a xlink:href="classtracktion_1_1engine_1_1WaveNodeRealTime.html" target="_top" xlink:title="An Node that plays back a wave file.">
<polygon fill="none" stroke="black" points="175,-0.5 175,-30.5 291,-30.5 291,-0.5 175,-0.5"/>
<text text-anchor="start" x="183" y="-18.5" font-family="Helvetica,sans-Serif" font-size="10.00">tracktion::engine::</text>
<text text-anchor="middle" x="233" y="-7.5" font-family="Helvetica,sans-Serif" font-size="10.00">WaveNodeRealTime</text>
</a>
</g>
</g>
<!-- Node1&#45;&gt;Node13 -->
<g id="edge12" class="edge">
<title>Node1&#45;&gt;Node13</title>
<path fill="none" stroke="midnightblue" d="M63.15,-259.38C69.65,-210.3 90.88,-101.16 155,-40.5 160.72,-35.09 167.62,-30.85 174.91,-27.53"/>
<polygon fill="midnightblue" stroke="midnightblue" points="59.66,-259.09 61.91,-269.44 66.6,-259.95 59.66,-259.09"/>
</g>
</g>
</svg>
