<?xml version="1.0" encoding="UTF-8" standalone="no"?>
<!DOCTYPE svg PUBLIC "-//W3C//DTD SVG 1.1//EN"
 "http://www.w3.org/Graphics/SVG/1.1/DTD/svg11.dtd">
<!-- Generated by graphviz version 2.43.0 (0)
 -->
<!-- Title: tracktion_engine::Exportable Pages: 1 -->
<svg width="761pt" height="1502pt"
 viewBox="0.00 0.00 761.00 1501.50" xmlns="http://www.w3.org/2000/svg" xmlns:xlink="http://www.w3.org/1999/xlink">
<g id="graph0" class="graph" transform="scale(1 1) rotate(0) translate(4 1497.5)">
<title>tracktion_engine::Exportable</title>
<!-- Node1 -->
<g id="node1" class="node">
<title>Node1</title>
<g id="a_node1"><a xlink:title="An interface for objects within an edit that can be exported.">
<polygon fill="#bfbfbf" stroke="black" points="0,-987 0,-1006 157,-1006 157,-987 0,-987"/>
<text text-anchor="middle" x="78.5" y="-994" font-family="Helvetica,sans-Serif" font-size="10.00">tracktion_engine::Exportable</text>
</a>
</g>
</g>
<!-- Node2 -->
<g id="node2" class="node">
<title>Node2</title>
<g id="a_node2"><a xlink:href="classtracktion__engine_1_1Clip.html" target="_top" xlink:title="A clip in an edit.">
<polygon fill="none" stroke="black" points="198.5,-1360 198.5,-1379 321.5,-1379 321.5,-1360 198.5,-1360"/>
<text text-anchor="middle" x="260" y="-1367" font-family="Helvetica,sans-Serif" font-size="10.00">tracktion_engine::Clip</text>
</a>
</g>
</g>
<!-- Node1&#45;&gt;Node2 -->
<g id="edge1" class="edge">
<title>Node1&#45;&gt;Node2</title>
<path fill="none" stroke="midnightblue" d="M88.46,-1015.11C120.75,-1082.22 230.58,-1310.45 254.41,-1359.97"/>
<polygon fill="midnightblue" stroke="midnightblue" points="91.61,-1013.59 84.12,-1006.1 85.3,-1016.62 91.61,-1013.59"/>
</g>
<!-- Node11 -->
<g id="node11" class="node">
<title>Node11</title>
<g id="a_node11"><a xlink:href="classtracktion__engine_1_1Plugin.html" target="_top" xlink:title=" ">
<polygon fill="none" stroke="black" points="193,-638 193,-657 327,-657 327,-638 193,-638"/>
<text text-anchor="middle" x="260" y="-645" font-family="Helvetica,sans-Serif" font-size="10.00">tracktion_engine::Plugin</text>
</a>
</g>
</g>
<!-- Node1&#45;&gt;Node11 -->
<g id="edge10" class="edge">
<title>Node1&#45;&gt;Node11</title>
<path fill="none" stroke="midnightblue" d="M89.1,-977.83C121.98,-913.91 229.36,-705.13 253.95,-657.32"/>
<polygon fill="midnightblue" stroke="midnightblue" points="85.95,-976.31 84.49,-986.8 92.17,-979.51 85.95,-976.31"/>
</g>
<!-- Node3 -->
<g id="node3" class="node">
<title>Node3</title>
<g id="a_node3"><a xlink:href="classtracktion__engine_1_1ArrangerClip.html" target="_top" xlink:title=" ">
<polygon fill="none" stroke="black" points="368.5,-1474 368.5,-1493 533.5,-1493 533.5,-1474 368.5,-1474"/>
<text text-anchor="middle" x="451" y="-1481" font-family="Helvetica,sans-Serif" font-size="10.00">tracktion_engine::ArrangerClip</text>
</a>
</g>
</g>
<!-- Node2&#45;&gt;Node3 -->
<g id="edge2" class="edge">
<title>Node2&#45;&gt;Node3</title>
<path fill="none" stroke="midnightblue" d="M274.75,-1387.13C292.66,-1408.83 326.07,-1445.16 363,-1464.5 370.4,-1468.37 378.54,-1471.46 386.79,-1473.91"/>
<polygon fill="midnightblue" stroke="midnightblue" points="277.26,-1384.67 268.26,-1379.08 271.81,-1389.07 277.26,-1384.67"/>
</g>
<!-- Node4 -->
<g id="node4" class="node">
<title>Node4</title>
<g id="a_node4"><a xlink:href="classtracktion__engine_1_1AudioClipBase.html" target="_top" xlink:title="Base class for Clips that produce some kind of audio e.g.">
<polygon fill="none" stroke="black" points="363.5,-1436 363.5,-1455 538.5,-1455 538.5,-1436 363.5,-1436"/>
<text text-anchor="middle" x="451" y="-1443" font-family="Helvetica,sans-Serif" font-size="10.00">tracktion_engine::AudioClipBase</text>
</a>
</g>
</g>
<!-- Node2&#45;&gt;Node4 -->
<g id="edge3" class="edge">
<title>Node2&#45;&gt;Node4</title>
<path fill="none" stroke="midnightblue" d="M283.3,-1384.51C303.36,-1397.38 334.05,-1415.53 363,-1426.5 372.98,-1430.28 383.89,-1433.4 394.52,-1435.95"/>
<polygon fill="midnightblue" stroke="midnightblue" points="285.16,-1381.55 274.88,-1379.01 281.34,-1387.41 285.16,-1381.55"/>
</g>
<!-- Node7 -->
<g id="node7" class="node">
<title>Node7</title>
<g id="a_node7"><a xlink:href="classtracktion__engine_1_1ChordClip.html" target="_top" xlink:title=" ">
<polygon fill="none" stroke="black" points="375,-1398 375,-1417 527,-1417 527,-1398 375,-1398"/>
<text text-anchor="middle" x="451" y="-1405" font-family="Helvetica,sans-Serif" font-size="10.00">tracktion_engine::ChordClip</text>
</a>
</g>
</g>
<!-- Node2&#45;&gt;Node7 -->
<g id="edge6" class="edge">
<title>Node2&#45;&gt;Node7</title>
<path fill="none" stroke="midnightblue" d="M318.74,-1381.11C345.62,-1386.51 377.2,-1392.86 402.65,-1397.98"/>
<polygon fill="midnightblue" stroke="midnightblue" points="319.19,-1377.63 308.69,-1379.09 317.81,-1384.49 319.19,-1377.63"/>
</g>
<!-- Node8 -->
<g id="node8" class="node">
<title>Node8</title>
<g id="a_node8"><a xlink:href="classtracktion__engine_1_1MarkerClip.html" target="_top" xlink:title=" ">
<polygon fill="none" stroke="black" points="372.5,-1360 372.5,-1379 529.5,-1379 529.5,-1360 372.5,-1360"/>
<text text-anchor="middle" x="451" y="-1367" font-family="Helvetica,sans-Serif" font-size="10.00">tracktion_engine::MarkerClip</text>
</a>
</g>
</g>
<!-- Node2&#45;&gt;Node8 -->
<g id="edge7" class="edge">
<title>Node2&#45;&gt;Node8</title>
<path fill="none" stroke="midnightblue" d="M331.62,-1369.5C344.95,-1369.5 358.95,-1369.5 372.48,-1369.5"/>
<polygon fill="midnightblue" stroke="midnightblue" points="331.58,-1366 321.58,-1369.5 331.58,-1373 331.58,-1366"/>
</g>
<!-- Node9 -->
<g id="node9" class="node">
<title>Node9</title>
<g id="a_node9"><a xlink:href="classtracktion__engine_1_1MidiClip.html" target="_top" xlink:title=" ">
<polygon fill="none" stroke="black" points="379,-1322 379,-1341 523,-1341 523,-1322 379,-1322"/>
<text text-anchor="middle" x="451" y="-1329" font-family="Helvetica,sans-Serif" font-size="10.00">tracktion_engine::MidiClip</text>
</a>
</g>
</g>
<!-- Node2&#45;&gt;Node9 -->
<g id="edge8" class="edge">
<title>Node2&#45;&gt;Node9</title>
<path fill="none" stroke="midnightblue" d="M318.74,-1357.89C345.62,-1352.49 377.2,-1346.14 402.65,-1341.02"/>
<polygon fill="midnightblue" stroke="midnightblue" points="317.81,-1354.51 308.69,-1359.91 319.19,-1361.37 317.81,-1354.51"/>
</g>
<!-- Node10 -->
<g id="node10" class="node">
<title>Node10</title>
<g id="a_node10"><a xlink:href="classtracktion__engine_1_1StepClip.html" target="_top" xlink:title=" ">
<polygon fill="none" stroke="black" points="378.5,-1284 378.5,-1303 523.5,-1303 523.5,-1284 378.5,-1284"/>
<text text-anchor="middle" x="451" y="-1291" font-family="Helvetica,sans-Serif" font-size="10.00">tracktion_engine::StepClip</text>
</a>
</g>
</g>
<!-- Node2&#45;&gt;Node10 -->
<g id="edge9" class="edge">
<title>Node2&#45;&gt;Node10</title>
<path fill="none" stroke="midnightblue" d="M283.3,-1354.49C303.36,-1341.62 334.05,-1323.47 363,-1312.5 372.98,-1308.72 383.89,-1305.6 394.52,-1303.05"/>
<polygon fill="midnightblue" stroke="midnightblue" points="281.34,-1351.59 274.88,-1359.99 285.16,-1357.45 281.34,-1351.59"/>
</g>
<!-- Node5 -->
<g id="node5" class="node">
<title>Node5</title>
<g id="a_node5"><a xlink:href="classtracktion__engine_1_1EditClip.html" target="_top" xlink:title="This is the main source of an Edit clip and is responsible for managing its properties.">
<polygon fill="none" stroke="black" points="593,-1455 593,-1474 735,-1474 735,-1455 593,-1455"/>
<text text-anchor="middle" x="664" y="-1462" font-family="Helvetica,sans-Serif" font-size="10.00">tracktion_engine::EditClip</text>
</a>
</g>
</g>
<!-- Node4&#45;&gt;Node5 -->
<g id="edge4" class="edge">
<title>Node4&#45;&gt;Node5</title>
<path fill="none" stroke="midnightblue" d="M548.9,-1454.23C563.66,-1455.55 578.64,-1456.9 592.69,-1458.17"/>
<polygon fill="midnightblue" stroke="midnightblue" points="549.01,-1450.72 538.74,-1453.31 548.38,-1457.69 549.01,-1450.72"/>
</g>
<!-- Node6 -->
<g id="node6" class="node">
<title>Node6</title>
<g id="a_node6"><a xlink:href="classtracktion__engine_1_1WaveAudioClip.html" target="_top" xlink:title="An audio clip that uses an audio file as its source.">
<polygon fill="none" stroke="black" points="575,-1417 575,-1436 753,-1436 753,-1417 575,-1417"/>
<text text-anchor="middle" x="664" y="-1424" font-family="Helvetica,sans-Serif" font-size="10.00">tracktion_engine::WaveAudioClip</text>
</a>
</g>
</g>
<!-- Node4&#45;&gt;Node6 -->
<g id="edge5" class="edge">
<title>Node4&#45;&gt;Node6</title>
<path fill="none" stroke="midnightblue" d="M548.87,-1436.78C557.55,-1436 566.3,-1435.21 574.9,-1434.43"/>
<polygon fill="midnightblue" stroke="midnightblue" points="548.38,-1433.31 538.74,-1437.69 549.01,-1440.28 548.38,-1433.31"/>
</g>
<!-- Node12 -->
<g id="node12" class="node">
<title>Node12</title>
<g id="a_node12"><a xlink:href="classtracktion__engine_1_1AirWindowsPlugin.html" target="_top" xlink:title=" ">
<polygon fill="none" stroke="black" points="370,-1234.5 370,-1264.5 532,-1264.5 532,-1234.5 370,-1234.5"/>
<text text-anchor="start" x="378" y="-1252.5" font-family="Helvetica,sans-Serif" font-size="10.00">tracktion_engine::AirWindows</text>
<text text-anchor="middle" x="451" y="-1241.5" font-family="Helvetica,sans-Serif" font-size="10.00">Plugin</text>
</a>
</g>
</g>
<!-- Node11&#45;&gt;Node12 -->
<g id="edge11" class="edge">
<title>Node11&#45;&gt;Node12</title>
<path fill="none" stroke="midnightblue" d="M261.76,-667.24C265.68,-758.58 286.47,-1139.49 363,-1224.5 366.47,-1228.35 370.49,-1231.63 374.86,-1234.41"/>
<polygon fill="midnightblue" stroke="midnightblue" points="265.26,-667 261.35,-657.15 258.26,-667.29 265.26,-667"/>
</g>
<!-- Node13 -->
<g id="node13" class="node">
<title>Node13</title>
<g id="a_node13"><a xlink:href="classtracktion__engine_1_1AuxReturnPlugin.html" target="_top" xlink:title=" ">
<polygon fill="none" stroke="black" points="373.5,-1185.5 373.5,-1215.5 528.5,-1215.5 528.5,-1185.5 373.5,-1185.5"/>
<text text-anchor="start" x="381.5" y="-1203.5" font-family="Helvetica,sans-Serif" font-size="10.00">tracktion_engine::AuxReturn</text>
<text text-anchor="middle" x="451" y="-1192.5" font-family="Helvetica,sans-Serif" font-size="10.00">Plugin</text>
</a>
</g>
</g>
<!-- Node11&#45;&gt;Node13 -->
<g id="edge12" class="edge">
<title>Node11&#45;&gt;Node13</title>
<path fill="none" stroke="midnightblue" d="M262.11,-667.19C267.38,-753.61 292.59,-1098.53 363,-1175.5 366.5,-1179.33 370.54,-1182.58 374.93,-1185.35"/>
<polygon fill="midnightblue" stroke="midnightblue" points="265.6,-666.93 261.52,-657.16 258.62,-667.34 265.6,-666.93"/>
</g>
<!-- Node14 -->
<g id="node14" class="node">
<title>Node14</title>
<g id="a_node14"><a xlink:href="classtracktion__engine_1_1AuxSendPlugin.html" target="_top" xlink:title=" ">
<polygon fill="none" stroke="black" points="377.5,-1136.5 377.5,-1166.5 524.5,-1166.5 524.5,-1136.5 377.5,-1136.5"/>
<text text-anchor="start" x="385.5" y="-1154.5" font-family="Helvetica,sans-Serif" font-size="10.00">tracktion_engine::AuxSend</text>
<text text-anchor="middle" x="451" y="-1143.5" font-family="Helvetica,sans-Serif" font-size="10.00">Plugin</text>
</a>
</g>
</g>
<!-- Node11&#45;&gt;Node14 -->
<g id="edge13" class="edge">
<title>Node11&#45;&gt;Node14</title>
<path fill="none" stroke="midnightblue" d="M262.55,-667.39C269.31,-749.06 298.76,-1057.59 363,-1126.5 367.18,-1130.98 372.1,-1134.68 377.45,-1137.73"/>
<polygon fill="midnightblue" stroke="midnightblue" points="266.01,-666.73 261.72,-657.04 259.03,-667.29 266.01,-666.73"/>
</g>
<!-- Node15 -->
<g id="node15" class="node">
<title>Node15</title>
<g id="a_node15"><a xlink:href="classtracktion__engine_1_1ChorusPlugin.html" target="_top" xlink:title=" ">
<polygon fill="none" stroke="black" points="382,-1087.5 382,-1117.5 520,-1117.5 520,-1087.5 382,-1087.5"/>
<text text-anchor="start" x="390" y="-1105.5" font-family="Helvetica,sans-Serif" font-size="10.00">tracktion_engine::Chorus</text>
<text text-anchor="middle" x="451" y="-1094.5" font-family="Helvetica,sans-Serif" font-size="10.00">Plugin</text>
</a>
</g>
</g>
<!-- Node11&#45;&gt;Node15 -->
<g id="edge14" class="edge">
<title>Node11&#45;&gt;Node15</title>
<path fill="none" stroke="midnightblue" d="M263.06,-667.29C271.37,-743.46 304.81,-1016.52 363,-1077.5 368.32,-1083.07 374.78,-1087.43 381.77,-1090.83"/>
<polygon fill="midnightblue" stroke="midnightblue" points="266.52,-666.74 261.98,-657.17 259.56,-667.48 266.52,-666.74"/>
</g>
<!-- Node16 -->
<g id="node16" class="node">
<title>Node16</title>
<g id="a_node16"><a xlink:href="classtracktion__engine_1_1CompressorPlugin.html" target="_top" xlink:title=" ">
<polygon fill="none" stroke="black" points="369.5,-1038.5 369.5,-1068.5 532.5,-1068.5 532.5,-1038.5 369.5,-1038.5"/>
<text text-anchor="start" x="377.5" y="-1056.5" font-family="Helvetica,sans-Serif" font-size="10.00">tracktion_engine::Compressor</text>
<text text-anchor="middle" x="451" y="-1045.5" font-family="Helvetica,sans-Serif" font-size="10.00">Plugin</text>
</a>
</g>
</g>
<!-- Node11&#45;&gt;Node16 -->
<g id="edge15" class="edge">
<title>Node11&#45;&gt;Node16</title>
<path fill="none" stroke="midnightblue" d="M263.7,-667.25C273.71,-737.72 310.85,-975.39 363,-1028.5 366.74,-1032.31 371.03,-1035.55 375.64,-1038.31"/>
<polygon fill="midnightblue" stroke="midnightblue" points="267.13,-666.52 262.28,-657.1 260.2,-667.49 267.13,-666.52"/>
</g>
<!-- Node17 -->
<g id="node17" class="node">
<title>Node17</title>
<g id="a_node17"><a xlink:href="classtracktion__engine_1_1DelayPlugin.html" target="_top" xlink:title=" ">
<polygon fill="none" stroke="black" points="369.5,-1000 369.5,-1019 532.5,-1019 532.5,-1000 369.5,-1000"/>
<text text-anchor="middle" x="451" y="-1007" font-family="Helvetica,sans-Serif" font-size="10.00">tracktion_engine::DelayPlugin</text>
</a>
</g>
</g>
<!-- Node11&#45;&gt;Node17 -->
<g id="edge16" class="edge">
<title>Node11&#45;&gt;Node17</title>
<path fill="none" stroke="midnightblue" d="M260.51,-667.25C260.19,-725.83 267.68,-900.08 363,-989.5 367.52,-993.74 372.75,-997.15 378.36,-999.87"/>
<polygon fill="midnightblue" stroke="midnightblue" points="264.01,-667.18 260.65,-657.13 257.01,-667.08 264.01,-667.18"/>
</g>
<!-- Node18 -->
<g id="node18" class="node">
<title>Node18</title>
<g id="a_node18"><a xlink:href="classtracktion__engine_1_1EqualiserPlugin.html" target="_top" xlink:title=" ">
<polygon fill="none" stroke="black" points="376.5,-950.5 376.5,-980.5 525.5,-980.5 525.5,-950.5 376.5,-950.5"/>
<text text-anchor="start" x="384.5" y="-968.5" font-family="Helvetica,sans-Serif" font-size="10.00">tracktion_engine::Equaliser</text>
<text text-anchor="middle" x="451" y="-957.5" font-family="Helvetica,sans-Serif" font-size="10.00">Plugin</text>
</a>
</g>
</g>
<!-- Node11&#45;&gt;Node18 -->
<g id="edge17" class="edge">
<title>Node11&#45;&gt;Node18</title>
<path fill="none" stroke="midnightblue" d="M261.89,-667.28C265.33,-719.79 282.07,-863.92 363,-940.5 367.11,-944.39 371.78,-947.68 376.78,-950.46"/>
<polygon fill="midnightblue" stroke="midnightblue" points="265.36,-666.8 261.31,-657.01 258.38,-667.19 265.36,-666.8"/>
</g>
<!-- Node19 -->
<g id="node19" class="node">
<title>Node19</title>
<g id="a_node19"><a xlink:href="classtracktion__engine_1_1ExternalPlugin.html" target="_top" xlink:title=" ">
<polygon fill="none" stroke="black" points="378.5,-901.5 378.5,-931.5 523.5,-931.5 523.5,-901.5 378.5,-901.5"/>
<text text-anchor="start" x="386.5" y="-919.5" font-family="Helvetica,sans-Serif" font-size="10.00">tracktion_engine::External</text>
<text text-anchor="middle" x="451" y="-908.5" font-family="Helvetica,sans-Serif" font-size="10.00">Plugin</text>
</a>
</g>
</g>
<!-- Node11&#45;&gt;Node19 -->
<g id="edge18" class="edge">
<title>Node11&#45;&gt;Node19</title>
<path fill="none" stroke="midnightblue" d="M263.42,-667.04C270.19,-713.2 293.61,-829.74 363,-891.5 367.58,-895.58 372.78,-898.99 378.31,-901.85"/>
<polygon fill="midnightblue" stroke="midnightblue" points="266.89,-666.56 262.07,-657.13 259.95,-667.51 266.89,-666.56"/>
</g>
<!-- Node20 -->
<g id="node20" class="node">
<title>Node20</title>
<g id="a_node20"><a xlink:href="classtracktion__engine_1_1FourOscPlugin.html" target="_top" xlink:title=" ">
<polygon fill="none" stroke="black" points="379.5,-852.5 379.5,-882.5 522.5,-882.5 522.5,-852.5 379.5,-852.5"/>
<text text-anchor="start" x="387.5" y="-870.5" font-family="Helvetica,sans-Serif" font-size="10.00">tracktion_engine::FourOsc</text>
<text text-anchor="middle" x="451" y="-859.5" font-family="Helvetica,sans-Serif" font-size="10.00">Plugin</text>
</a>
</g>
</g>
<!-- Node11&#45;&gt;Node20 -->
<g id="edge19" class="edge">
<title>Node11&#45;&gt;Node20</title>
<path fill="none" stroke="midnightblue" d="M265.68,-667.05C276.13,-706.36 305.09,-795.26 363,-842.5 367.87,-846.47 373.34,-849.82 379.11,-852.63"/>
<polygon fill="midnightblue" stroke="midnightblue" points="269.07,-666.18 263.22,-657.35 262.29,-667.9 269.07,-666.18"/>
</g>
<!-- Node21 -->
<g id="node21" class="node">
<title>Node21</title>
<g id="a_node21"><a xlink:href="classtracktion__engine_1_1FreezePointPlugin.html" target="_top" xlink:title=" ">
<polygon fill="none" stroke="black" points="382.5,-803.5 382.5,-833.5 519.5,-833.5 519.5,-803.5 382.5,-803.5"/>
<text text-anchor="start" x="390.5" y="-821.5" font-family="Helvetica,sans-Serif" font-size="10.00">tracktion_engine::Freeze</text>
<text text-anchor="middle" x="451" y="-810.5" font-family="Helvetica,sans-Serif" font-size="10.00">PointPlugin</text>
</a>
</g>
</g>
<!-- Node11&#45;&gt;Node21 -->
<g id="edge20" class="edge">
<title>Node11&#45;&gt;Node21</title>
<path fill="none" stroke="midnightblue" d="M269.01,-666.34C283.26,-697.56 315.99,-759.91 363,-793.5 368.88,-797.7 375.46,-801.2 382.29,-804.12"/>
<polygon fill="midnightblue" stroke="midnightblue" points="272.14,-664.76 264.89,-657.03 265.74,-667.59 272.14,-664.76"/>
</g>
<!-- Node22 -->
<g id="node22" class="node">
<title>Node22</title>
<g id="a_node22"><a xlink:href="classtracktion__engine_1_1ImpulseResponsePlugin.html" target="_top" xlink:title="ImpulseResponsePlugin that loads an impulse response and applies it the audio stream.">
<polygon fill="none" stroke="black" points="379.5,-754.5 379.5,-784.5 522.5,-784.5 522.5,-754.5 379.5,-754.5"/>
<text text-anchor="start" x="387.5" y="-772.5" font-family="Helvetica,sans-Serif" font-size="10.00">tracktion_engine::Impulse</text>
<text text-anchor="middle" x="451" y="-761.5" font-family="Helvetica,sans-Serif" font-size="10.00">ResponsePlugin</text>
</a>
</g>
</g>
<!-- Node11&#45;&gt;Node22 -->
<g id="edge21" class="edge">
<title>Node11&#45;&gt;Node22</title>
<path fill="none" stroke="midnightblue" d="M274.63,-664.84C292.62,-686.57 326.31,-723.49 363,-744.5 369.68,-748.33 376.99,-751.6 384.45,-754.4"/>
<polygon fill="midnightblue" stroke="midnightblue" points="277.35,-662.63 268.33,-657.07 271.91,-667.04 277.35,-662.63"/>
</g>
<!-- Node23 -->
<g id="node23" class="node">
<title>Node23</title>
<g id="a_node23"><a xlink:href="classtracktion__engine_1_1InsertPlugin.html" target="_top" xlink:title=" ">
<polygon fill="none" stroke="black" points="385,-705.5 385,-735.5 517,-735.5 517,-705.5 385,-705.5"/>
<text text-anchor="start" x="393" y="-723.5" font-family="Helvetica,sans-Serif" font-size="10.00">tracktion_engine::Insert</text>
<text text-anchor="middle" x="451" y="-712.5" font-family="Helvetica,sans-Serif" font-size="10.00">Plugin</text>
</a>
</g>
</g>
<!-- Node11&#45;&gt;Node23 -->
<g id="edge22" class="edge">
<title>Node11&#45;&gt;Node23</title>
<path fill="none" stroke="midnightblue" d="M288,-661.66C308.27,-671.93 336.91,-685.68 363,-695.5 372.41,-699.04 382.56,-702.37 392.48,-705.38"/>
<polygon fill="midnightblue" stroke="midnightblue" points="289.54,-658.52 279.05,-657.07 286.35,-664.75 289.54,-658.52"/>
</g>
<!-- Node24 -->
<g id="node24" class="node">
<title>Node24</title>
<g id="a_node24"><a xlink:href="classtracktion__engine_1_1LatencyPlugin.html" target="_top" xlink:title="A test plugin that introduces latency to the incomming signal.">
<polygon fill="none" stroke="black" points="379.5,-656.5 379.5,-686.5 522.5,-686.5 522.5,-656.5 379.5,-656.5"/>
<text text-anchor="start" x="387.5" y="-674.5" font-family="Helvetica,sans-Serif" font-size="10.00">tracktion_engine::Latency</text>
<text text-anchor="middle" x="451" y="-663.5" font-family="Helvetica,sans-Serif" font-size="10.00">Plugin</text>
</a>
</g>
</g>
<!-- Node11&#45;&gt;Node24 -->
<g id="edge23" class="edge">
<title>Node11&#45;&gt;Node24</title>
<path fill="none" stroke="midnightblue" d="M337.16,-657.17C351.12,-658.94 365.64,-660.79 379.43,-662.54"/>
<polygon fill="midnightblue" stroke="midnightblue" points="337.46,-653.68 327.1,-655.89 336.58,-660.63 337.46,-653.68"/>
</g>
<!-- Node25 -->
<g id="node25" class="node">
<title>Node25</title>
<g id="a_node25"><a xlink:href="classtracktion__engine_1_1LevelMeterPlugin.html" target="_top" xlink:title=" ">
<polygon fill="none" stroke="black" points="371.5,-607.5 371.5,-637.5 530.5,-637.5 530.5,-607.5 371.5,-607.5"/>
<text text-anchor="start" x="379.5" y="-625.5" font-family="Helvetica,sans-Serif" font-size="10.00">tracktion_engine::LevelMeter</text>
<text text-anchor="middle" x="451" y="-614.5" font-family="Helvetica,sans-Serif" font-size="10.00">Plugin</text>
</a>
</g>
</g>
<!-- Node11&#45;&gt;Node25 -->
<g id="edge24" class="edge">
<title>Node11&#45;&gt;Node25</title>
<path fill="none" stroke="midnightblue" d="M337.27,-637.41C348.47,-635.93 360.03,-634.4 371.28,-632.91"/>
<polygon fill="midnightblue" stroke="midnightblue" points="336.56,-633.98 327.1,-638.76 337.48,-640.91 336.56,-633.98"/>
</g>
<!-- Node26 -->
<g id="node26" class="node">
<title>Node26</title>
<g id="a_node26"><a xlink:href="classtracktion__engine_1_1LowPassPlugin.html" target="_top" xlink:title=" ">
<polygon fill="none" stroke="black" points="378,-558.5 378,-588.5 524,-588.5 524,-558.5 378,-558.5"/>
<text text-anchor="start" x="386" y="-576.5" font-family="Helvetica,sans-Serif" font-size="10.00">tracktion_engine::LowPass</text>
<text text-anchor="middle" x="451" y="-565.5" font-family="Helvetica,sans-Serif" font-size="10.00">Plugin</text>
</a>
</g>
</g>
<!-- Node11&#45;&gt;Node26 -->
<g id="edge25" class="edge">
<title>Node11&#45;&gt;Node26</title>
<path fill="none" stroke="midnightblue" d="M287.17,-632.98C307.42,-622.17 336.42,-607.58 363,-597.5 371.5,-594.28 380.61,-591.28 389.62,-588.58"/>
<polygon fill="midnightblue" stroke="midnightblue" points="285.38,-629.97 278.25,-637.81 288.71,-636.13 285.38,-629.97"/>
</g>
<!-- Node27 -->
<g id="node27" class="node">
<title>Node27</title>
<g id="a_node27"><a xlink:href="classtracktion__engine_1_1MidiModifierPlugin.html" target="_top" xlink:title=" ">
<polygon fill="none" stroke="black" points="368.5,-509.5 368.5,-539.5 533.5,-539.5 533.5,-509.5 368.5,-509.5"/>
<text text-anchor="start" x="376.5" y="-527.5" font-family="Helvetica,sans-Serif" font-size="10.00">tracktion_engine::MidiModifier</text>
<text text-anchor="middle" x="451" y="-516.5" font-family="Helvetica,sans-Serif" font-size="10.00">Plugin</text>
</a>
</g>
</g>
<!-- Node11&#45;&gt;Node27 -->
<g id="edge26" class="edge">
<title>Node11&#45;&gt;Node27</title>
<path fill="none" stroke="midnightblue" d="M274.25,-630.07C292.04,-607.86 325.75,-569.82 363,-548.5 368.98,-545.08 375.48,-542.12 382.14,-539.57"/>
<polygon fill="midnightblue" stroke="midnightblue" points="271.45,-627.97 268.03,-638 276.96,-632.28 271.45,-627.97"/>
</g>
<!-- Node28 -->
<g id="node28" class="node">
<title>Node28</title>
<g id="a_node28"><a xlink:href="classtracktion__engine_1_1MidiPatchBayPlugin.html" target="_top" xlink:title=" ">
<polygon fill="none" stroke="black" points="375,-460.5 375,-490.5 527,-490.5 527,-460.5 375,-460.5"/>
<text text-anchor="start" x="383" y="-478.5" font-family="Helvetica,sans-Serif" font-size="10.00">tracktion_engine::MidiPatch</text>
<text text-anchor="middle" x="451" y="-467.5" font-family="Helvetica,sans-Serif" font-size="10.00">BayPlugin</text>
</a>
</g>
</g>
<!-- Node11&#45;&gt;Node28 -->
<g id="edge27" class="edge">
<title>Node11&#45;&gt;Node28</title>
<path fill="none" stroke="midnightblue" d="M268.9,-628.35C282.98,-596.62 315.48,-533.3 363,-499.5 367.85,-496.05 373.18,-493.09 378.74,-490.56"/>
<polygon fill="midnightblue" stroke="midnightblue" points="265.57,-627.24 264.83,-637.81 272,-630 265.57,-627.24"/>
</g>
<!-- Node29 -->
<g id="node29" class="node">
<title>Node29</title>
<g id="a_node29"><a xlink:href="classtracktion__engine_1_1PatchBayPlugin.html" target="_top" xlink:title=" ">
<polygon fill="none" stroke="black" points="376.5,-411.5 376.5,-441.5 525.5,-441.5 525.5,-411.5 376.5,-411.5"/>
<text text-anchor="start" x="384.5" y="-429.5" font-family="Helvetica,sans-Serif" font-size="10.00">tracktion_engine::PatchBay</text>
<text text-anchor="middle" x="451" y="-418.5" font-family="Helvetica,sans-Serif" font-size="10.00">Plugin</text>
</a>
</g>
</g>
<!-- Node11&#45;&gt;Node29 -->
<g id="edge28" class="edge">
<title>Node11&#45;&gt;Node29</title>
<path fill="none" stroke="midnightblue" d="M265.44,-628.26C275.57,-588.74 304.2,-498.16 363,-450.5 367.26,-447.05 371.98,-444.09 376.96,-441.56"/>
<polygon fill="midnightblue" stroke="midnightblue" points="262.04,-627.43 263.06,-637.97 268.84,-629.09 262.04,-627.43"/>
</g>
<!-- Node30 -->
<g id="node30" class="node">
<title>Node30</title>
<g id="a_node30"><a xlink:href="classtracktion__engine_1_1PhaserPlugin.html" target="_top" xlink:title=" ">
<polygon fill="none" stroke="black" points="382.5,-362.5 382.5,-392.5 519.5,-392.5 519.5,-362.5 382.5,-362.5"/>
<text text-anchor="start" x="390.5" y="-380.5" font-family="Helvetica,sans-Serif" font-size="10.00">tracktion_engine::Phaser</text>
<text text-anchor="middle" x="451" y="-369.5" font-family="Helvetica,sans-Serif" font-size="10.00">Plugin</text>
</a>
</g>
</g>
<!-- Node11&#45;&gt;Node30 -->
<g id="edge29" class="edge">
<title>Node11&#45;&gt;Node30</title>
<path fill="none" stroke="midnightblue" d="M263.33,-627.75C269.89,-581.12 292.89,-463.42 363,-401.5 368.64,-396.52 375.22,-392.57 382.19,-389.43"/>
<polygon fill="midnightblue" stroke="midnightblue" points="259.84,-627.4 262.02,-637.77 266.78,-628.31 259.84,-627.4"/>
</g>
<!-- Node31 -->
<g id="node31" class="node">
<title>Node31</title>
<g id="a_node31"><a xlink:href="classtracktion__engine_1_1PitchShiftPlugin.html" target="_top" xlink:title=" ">
<polygon fill="none" stroke="black" points="376,-313.5 376,-343.5 526,-343.5 526,-313.5 376,-313.5"/>
<text text-anchor="start" x="384" y="-331.5" font-family="Helvetica,sans-Serif" font-size="10.00">tracktion_engine::PitchShift</text>
<text text-anchor="middle" x="451" y="-320.5" font-family="Helvetica,sans-Serif" font-size="10.00">Plugin</text>
</a>
</g>
</g>
<!-- Node11&#45;&gt;Node31 -->
<g id="edge30" class="edge">
<title>Node11&#45;&gt;Node31</title>
<path fill="none" stroke="midnightblue" d="M261.78,-627.87C264.95,-575.17 281.08,-429.36 363,-352.5 366.89,-348.85 371.27,-345.75 375.96,-343.12"/>
<polygon fill="midnightblue" stroke="midnightblue" points="258.28,-627.74 261.27,-637.91 265.27,-628.1 258.28,-627.74"/>
</g>
<!-- Node32 -->
<g id="node32" class="node">
<title>Node32</title>
<g id="a_node32"><a xlink:href="classtracktion__engine_1_1RackInstance.html" target="_top" xlink:title=" ">
<polygon fill="none" stroke="black" points="366,-275 366,-294 536,-294 536,-275 366,-275"/>
<text text-anchor="middle" x="451" y="-282" font-family="Helvetica,sans-Serif" font-size="10.00">tracktion_engine::RackInstance</text>
</a>
</g>
</g>
<!-- Node11&#45;&gt;Node32 -->
<g id="edge31" class="edge">
<title>Node11&#45;&gt;Node32</title>
<path fill="none" stroke="midnightblue" d="M260.42,-627.59C259.86,-568.54 266.75,-392.95 363,-303.5 367.08,-299.71 371.73,-296.61 376.71,-294.08"/>
<polygon fill="midnightblue" stroke="midnightblue" points="256.93,-627.85 260.61,-637.79 263.92,-627.72 256.93,-627.85"/>
</g>
<!-- Node33 -->
<g id="node33" class="node">
<title>Node33</title>
<g id="a_node33"><a xlink:href="classtracktion__engine_1_1ReverbPlugin.html" target="_top" xlink:title=" ">
<polygon fill="none" stroke="black" points="381.5,-225.5 381.5,-255.5 520.5,-255.5 520.5,-225.5 381.5,-225.5"/>
<text text-anchor="start" x="389.5" y="-243.5" font-family="Helvetica,sans-Serif" font-size="10.00">tracktion_engine::Reverb</text>
<text text-anchor="middle" x="451" y="-232.5" font-family="Helvetica,sans-Serif" font-size="10.00">Plugin</text>
</a>
</g>
</g>
<!-- Node11&#45;&gt;Node33 -->
<g id="edge32" class="edge">
<title>Node11&#45;&gt;Node33</title>
<path fill="none" stroke="midnightblue" d="M263.69,-627.69C273.68,-557.04 310.74,-318.76 363,-265.5 368.28,-260.12 374.64,-255.87 381.49,-252.53"/>
<polygon fill="midnightblue" stroke="midnightblue" points="260.19,-627.49 262.28,-637.87 267.12,-628.45 260.19,-627.49"/>
</g>
<!-- Node34 -->
<g id="node34" class="node">
<title>Node34</title>
<g id="a_node34"><a xlink:href="classtracktion__engine_1_1SamplerPlugin.html" target="_top" xlink:title=" ">
<polygon fill="none" stroke="black" points="378.5,-176.5 378.5,-206.5 523.5,-206.5 523.5,-176.5 378.5,-176.5"/>
<text text-anchor="start" x="386.5" y="-194.5" font-family="Helvetica,sans-Serif" font-size="10.00">tracktion_engine::Sampler</text>
<text text-anchor="middle" x="451" y="-183.5" font-family="Helvetica,sans-Serif" font-size="10.00">Plugin</text>
</a>
</g>
</g>
<!-- Node11&#45;&gt;Node34 -->
<g id="edge33" class="edge">
<title>Node11&#45;&gt;Node34</title>
<path fill="none" stroke="midnightblue" d="M263.03,-627.6C271.21,-551.01 304.26,-276.47 363,-215.5 367.46,-210.87 372.72,-207.11 378.41,-204.06"/>
<polygon fill="midnightblue" stroke="midnightblue" points="259.52,-627.47 261.96,-637.78 266.48,-628.2 259.52,-627.47"/>
</g>
<!-- Node35 -->
<g id="node35" class="node">
<title>Node35</title>
<g id="a_node35"><a xlink:href="classtracktion__engine_1_1TextPlugin.html" target="_top" xlink:title=" ">
<polygon fill="none" stroke="black" points="373.5,-138 373.5,-157 528.5,-157 528.5,-138 373.5,-138"/>
<text text-anchor="middle" x="451" y="-145" font-family="Helvetica,sans-Serif" font-size="10.00">tracktion_engine::TextPlugin</text>
</a>
</g>
</g>
<!-- Node11&#45;&gt;Node35 -->
<g id="edge34" class="edge">
<title>Node11&#45;&gt;Node35</title>
<path fill="none" stroke="midnightblue" d="M262.42,-627.41C268.65,-544.95 296.32,-233.58 363,-166.5 366.71,-162.77 370.96,-159.7 375.56,-157.17"/>
<polygon fill="midnightblue" stroke="midnightblue" points="258.89,-627.63 261.65,-637.86 265.87,-628.15 258.89,-627.63"/>
</g>
<!-- Node36 -->
<g id="node36" class="node">
<title>Node36</title>
<g id="a_node36"><a xlink:href="classtracktion__engine_1_1ToneGeneratorPlugin.html" target="_top" xlink:title=" ">
<polygon fill="none" stroke="black" points="363,-88.5 363,-118.5 539,-118.5 539,-88.5 363,-88.5"/>
<text text-anchor="start" x="371" y="-106.5" font-family="Helvetica,sans-Serif" font-size="10.00">tracktion_engine::ToneGenerator</text>
<text text-anchor="middle" x="451" y="-95.5" font-family="Helvetica,sans-Serif" font-size="10.00">Plugin</text>
</a>
</g>
</g>
<!-- Node11&#45;&gt;Node36 -->
<g id="edge35" class="edge">
<title>Node11&#45;&gt;Node36</title>
<path fill="none" stroke="midnightblue" d="M262.2,-627.6C267.76,-541.73 293.77,-203.93 363,-128.5 366.51,-124.68 370.55,-121.43 374.95,-118.66"/>
<polygon fill="midnightblue" stroke="midnightblue" points="258.7,-627.39 261.57,-637.59 265.69,-627.83 258.7,-627.39"/>
</g>
<!-- Node37 -->
<g id="node37" class="node">
<title>Node37</title>
<g id="a_node37"><a xlink:href="classtracktion__engine_1_1VCAPlugin.html" target="_top" xlink:title="The VCA plugin sits on a folder track to control the overall level of all the volume/pan plugins in i...">
<polygon fill="none" stroke="black" points="373.5,-50 373.5,-69 528.5,-69 528.5,-50 373.5,-50"/>
<text text-anchor="middle" x="451" y="-57" font-family="Helvetica,sans-Serif" font-size="10.00">tracktion_engine::VCAPlugin</text>
</a>
</g>
</g>
<!-- Node11&#45;&gt;Node37 -->
<g id="edge36" class="edge">
<title>Node11&#45;&gt;Node37</title>
<path fill="none" stroke="midnightblue" d="M261.69,-627.92C265.26,-537.34 284.72,-159.78 363,-78.5 366.65,-74.71 370.86,-71.6 375.42,-69.04"/>
<polygon fill="midnightblue" stroke="midnightblue" points="258.19,-627.8 261.31,-637.93 265.18,-628.07 258.19,-627.8"/>
</g>
<!-- Node38 -->
<g id="node38" class="node">
<title>Node38</title>
<g id="a_node38"><a xlink:href="classtracktion__engine_1_1VolumeAndPanPlugin.html" target="_top" xlink:title="The built&#45;in Tracktion volume/pan plugin.">
<polygon fill="none" stroke="black" points="380.5,-0.5 380.5,-30.5 521.5,-30.5 521.5,-0.5 380.5,-0.5"/>
<text text-anchor="start" x="388.5" y="-18.5" font-family="Helvetica,sans-Serif" font-size="10.00">tracktion_engine::Volume</text>
<text text-anchor="middle" x="451" y="-7.5" font-family="Helvetica,sans-Serif" font-size="10.00">AndPanPlugin</text>
</a>
</g>
</g>
<!-- Node11&#45;&gt;Node38 -->
<g id="edge37" class="edge">
<title>Node11&#45;&gt;Node38</title>
<path fill="none" stroke="midnightblue" d="M261.58,-627.65C264.72,-533.22 282.73,-130.42 363,-40.5 367.81,-35.11 373.71,-30.84 380.14,-27.48"/>
<polygon fill="midnightblue" stroke="midnightblue" points="258.07,-627.7 261.26,-637.81 265.07,-627.92 258.07,-627.7"/>
</g>
</g>
</svg>
