<?xml version="1.0" encoding="UTF-8" standalone="no"?>
<!DOCTYPE svg PUBLIC "-//W3C//DTD SVG 1.1//EN"
 "http://www.w3.org/Graphics/SVG/1.1/DTD/svg11.dtd">
<!-- Generated by graphviz version 2.40.1 (20161225.0304)
 -->
<!-- Title: tracktion_engine::RemoteSLCompact Pages: 1 -->
<svg width="148pt" height="162pt"
 viewBox="0.00 0.00 148.00 162.00" xmlns="http://www.w3.org/2000/svg" xmlns:xlink="http://www.w3.org/1999/xlink">
<g id="graph0" class="graph" transform="scale(1 1) rotate(0) translate(4 158)">
<title>tracktion_engine::RemoteSLCompact</title>
<!-- Node0 -->
<g id="node1" class="node">
<title>Node0</title>
<polygon fill="#bfbfbf" stroke="#000000" points="6,-.5 6,-30.5 134,-30.5 134,-.5 6,-.5"/>
<text text-anchor="start" x="14" y="-18.5" font-family="Helvetica,sans-Serif" font-size="10.00" fill="#000000">tracktion_engine::Remote</text>
<text text-anchor="middle" x="70" y="-7.5" font-family="Helvetica,sans-Serif" font-size="10.00" fill="#000000">SLCompact</text>
</g>
<!-- Node1 -->
<g id="node2" class="node">
<title>Node1</title>
<g id="a_node2"><a xlink:href="classtracktion__engine_1_1ControlSurface.html" target="_top" xlink:title="Base class for types of control surface. ">
<polygon fill="none" stroke="#000000" points="7.5,-67.5 7.5,-97.5 132.5,-97.5 132.5,-67.5 7.5,-67.5"/>
<text text-anchor="start" x="15.5" y="-85.5" font-family="Helvetica,sans-Serif" font-size="10.00" fill="#000000">tracktion_engine::Control</text>
<text text-anchor="middle" x="70" y="-74.5" font-family="Helvetica,sans-Serif" font-size="10.00" fill="#000000">Surface</text>
</a>
</g>
</g>
<!-- Node1&#45;&gt;Node0 -->
<g id="edge1" class="edge">
<title>Node1&#45;&gt;Node0</title>
<path fill="none" stroke="#191970" d="M70,-57.0249C70,-48.128 70,-38.4287 70,-30.6432"/>
<polygon fill="#191970" stroke="#191970" points="66.5001,-57.2966 70,-67.2967 73.5001,-57.2967 66.5001,-57.2966"/>
</g>
<!-- Node2 -->
<g id="node3" class="node">
<title>Node2</title>
<g id="a_node3"><a xlink:href="classtracktion__engine_1_1Selectable.html" target="_top" xlink:title="Base class for things that can be selected, and whose properties can appear in the properties panel...">
<polygon fill="none" stroke="#000000" points="0,-134.5 0,-153.5 140,-153.5 140,-134.5 0,-134.5"/>
<text text-anchor="middle" x="70" y="-141.5" font-family="Helvetica,sans-Serif" font-size="10.00" fill="#000000">tracktion_engine::Selectable</text>
</a>
</g>
</g>
<!-- Node2&#45;&gt;Node1 -->
<g id="edge2" class="edge">
<title>Node2&#45;&gt;Node1</title>
<path fill="none" stroke="#191970" d="M70,-124.3693C70,-115.681 70,-105.6241 70,-97.5446"/>
<polygon fill="#191970" stroke="#191970" points="66.5001,-124.3906 70,-134.3906 73.5001,-124.3907 66.5001,-124.3906"/>
</g>
</g>
</svg>
