<?xml version="1.0" encoding="UTF-8" standalone="no"?>
<!DOCTYPE svg PUBLIC "-//W3C//DTD SVG 1.1//EN"
 "http://www.w3.org/Graphics/SVG/1.1/DTD/svg11.dtd">
<!-- Generated by graphviz version 2.43.0 (0)
 -->
<!-- Title: tracktion_engine::AudioNode Pages: 1 -->
<svg width="611pt" height="607pt"
 viewBox="0.00 0.00 611.00 607.00" xmlns="http://www.w3.org/2000/svg" xmlns:xlink="http://www.w3.org/1999/xlink">
<g id="graph0" class="graph" transform="scale(1 1) rotate(0) translate(4 603)">
<title>tracktion_engine::AudioNode</title>
<!-- Node1 -->
<g id="node1" class="node">
<title>Node1</title>
<g id="a_node1"><a xlink:title="Base class for nodes in an audio playback graph.">
<polygon fill="#bfbfbf" stroke="black" points="0,-344 0,-363 158,-363 158,-344 0,-344"/>
<text text-anchor="middle" x="79" y="-351" font-family="Helvetica,sans-Serif" font-size="10.00">tracktion_engine::AudioNode</text>
</a>
</g>
</g>
<!-- Node2 -->
<g id="node2" class="node">
<title>Node2</title>
<g id="a_node2"><a xlink:href="classtracktion__engine_1_1ClickAudioNode.html" target="_top" xlink:title="An AudioNode that produces a click track.">
<polygon fill="none" stroke="black" points="195.5,-470 195.5,-489 377.5,-489 377.5,-470 195.5,-470"/>
<text text-anchor="middle" x="286.5" y="-477" font-family="Helvetica,sans-Serif" font-size="10.00">tracktion_engine::ClickAudioNode</text>
</a>
</g>
</g>
<!-- Node1&#45;&gt;Node2 -->
<g id="edge1" class="edge">
<title>Node1&#45;&gt;Node2</title>
<path fill="none" stroke="midnightblue" d="M93.32,-370.99C112.71,-395.13 151.1,-438.21 194,-460.5 201.49,-464.39 209.71,-467.48 218.05,-469.94"/>
<polygon fill="midnightblue" stroke="midnightblue" points="95.99,-368.73 87.06,-363.03 90.49,-373.05 95.99,-368.73"/>
</g>
<!-- Node3 -->
<g id="node3" class="node">
<title>Node3</title>
<g id="a_node3"><a xlink:href="classtracktion__engine_1_1CombiningAudioNode.html" target="_top" xlink:title="An AudioNode that mixes a sequence of clips of other nodes.">
<polygon fill="none" stroke="black" points="208,-420.5 208,-450.5 365,-450.5 365,-420.5 208,-420.5"/>
<text text-anchor="start" x="216" y="-438.5" font-family="Helvetica,sans-Serif" font-size="10.00">tracktion_engine::Combining</text>
<text text-anchor="middle" x="286.5" y="-427.5" font-family="Helvetica,sans-Serif" font-size="10.00">AudioNode</text>
</a>
</g>
</g>
<!-- Node1&#45;&gt;Node3 -->
<g id="edge2" class="edge">
<title>Node1&#45;&gt;Node3</title>
<path fill="none" stroke="midnightblue" d="M105.49,-368.07C128.17,-380.59 162.53,-398.47 194,-410.5 203.54,-414.15 213.82,-417.49 223.93,-420.47"/>
<polygon fill="midnightblue" stroke="midnightblue" points="106.96,-364.88 96.53,-363.07 103.55,-371 106.96,-364.88"/>
</g>
<!-- Node4 -->
<g id="node4" class="node">
<title>Node4</title>
<g id="a_node4"><a xlink:href="classtracktion__engine_1_1MidiAudioNode.html" target="_top" xlink:title="An AudioNode that plays MIDI data from a MidiMessageSequence, at a specific MIDI channel.">
<polygon fill="none" stroke="black" points="197,-382 197,-401 376,-401 376,-382 197,-382"/>
<text text-anchor="middle" x="286.5" y="-389" font-family="Helvetica,sans-Serif" font-size="10.00">tracktion_engine::MidiAudioNode</text>
</a>
</g>
</g>
<!-- Node1&#45;&gt;Node4 -->
<g id="edge3" class="edge">
<title>Node1&#45;&gt;Node4</title>
<path fill="none" stroke="midnightblue" d="M141.75,-364.92C171.15,-370.36 205.91,-376.78 233.89,-381.96"/>
<polygon fill="midnightblue" stroke="midnightblue" points="142.06,-361.42 131.59,-363.04 140.79,-368.3 142.06,-361.42"/>
</g>
<!-- Node5 -->
<g id="node5" class="node">
<title>Node5</title>
<g id="a_node5"><a xlink:href="classtracktion__engine_1_1MixerAudioNode.html" target="_top" xlink:title="An AudioNode that mixes together a set of parallel input nodes.">
<polygon fill="none" stroke="black" points="194,-344 194,-363 379,-363 379,-344 194,-344"/>
<text text-anchor="middle" x="286.5" y="-351" font-family="Helvetica,sans-Serif" font-size="10.00">tracktion_engine::MixerAudioNode</text>
</a>
</g>
</g>
<!-- Node1&#45;&gt;Node5 -->
<g id="edge4" class="edge">
<title>Node1&#45;&gt;Node5</title>
<path fill="none" stroke="midnightblue" d="M168.4,-353.5C176.77,-353.5 185.27,-353.5 193.67,-353.5"/>
<polygon fill="midnightblue" stroke="midnightblue" points="168.28,-350 158.28,-353.5 168.28,-357 168.28,-350"/>
</g>
<!-- Node6 -->
<g id="node6" class="node">
<title>Node6</title>
<g id="a_node6"><a xlink:href="classtracktion__engine_1_1SingleInputAudioNode.html" target="_top" xlink:title=" ">
<polygon fill="none" stroke="black" points="219.5,-294.5 219.5,-324.5 353.5,-324.5 353.5,-294.5 219.5,-294.5"/>
<text text-anchor="start" x="227.5" y="-312.5" font-family="Helvetica,sans-Serif" font-size="10.00">tracktion_engine::Single</text>
<text text-anchor="middle" x="286.5" y="-301.5" font-family="Helvetica,sans-Serif" font-size="10.00">InputAudioNode</text>
</a>
</g>
</g>
<!-- Node1&#45;&gt;Node6 -->
<g id="edge5" class="edge">
<title>Node1&#45;&gt;Node6</title>
<path fill="none" stroke="midnightblue" d="M134.62,-341.8C160.58,-336.25 191.82,-329.56 219.13,-323.71"/>
<polygon fill="midnightblue" stroke="midnightblue" points="133.64,-338.44 124.59,-343.95 135.1,-345.28 133.64,-338.44"/>
</g>
<!-- Node20 -->
<g id="node20" class="node">
<title>Node20</title>
<g id="a_node20"><a xlink:href="classtracktion__engine_1_1SubSampleWaveAudioNode.html" target="_top" xlink:title=" ">
<polygon fill="none" stroke="black" points="207,-245.5 207,-275.5 366,-275.5 366,-245.5 207,-245.5"/>
<text text-anchor="start" x="215" y="-263.5" font-family="Helvetica,sans-Serif" font-size="10.00">tracktion_engine::SubSample</text>
<text text-anchor="middle" x="286.5" y="-252.5" font-family="Helvetica,sans-Serif" font-size="10.00">WaveAudioNode</text>
</a>
</g>
</g>
<!-- Node1&#45;&gt;Node20 -->
<g id="edge19" class="edge">
<title>Node1&#45;&gt;Node20</title>
<path fill="none" stroke="midnightblue" d="M101.77,-338.06C124.04,-322.88 160.08,-299.93 194,-285.5 202.79,-281.76 212.29,-278.43 221.73,-275.52"/>
<polygon fill="midnightblue" stroke="midnightblue" points="99.63,-335.29 93.4,-343.86 103.61,-341.05 99.63,-335.29"/>
</g>
<!-- Node21 -->
<g id="node21" class="node">
<title>Node21</title>
<g id="a_node21"><a xlink:href="classtracktion__engine_1_1WaveAudioNode.html" target="_top" xlink:title="An AudioNode that plays back a wave file.">
<polygon fill="none" stroke="black" points="194,-207 194,-226 379,-226 379,-207 194,-207"/>
<text text-anchor="middle" x="286.5" y="-214" font-family="Helvetica,sans-Serif" font-size="10.00">tracktion_engine::WaveAudioNode</text>
</a>
</g>
</g>
<!-- Node1&#45;&gt;Node21 -->
<g id="edge20" class="edge">
<title>Node1&#45;&gt;Node21</title>
<path fill="none" stroke="midnightblue" d="M92.16,-335.54C110.84,-309.42 149.2,-261.37 194,-236.5 201.82,-232.16 210.5,-228.76 219.32,-226.1"/>
<polygon fill="midnightblue" stroke="midnightblue" points="89.25,-333.59 86.39,-343.79 94.99,-337.6 89.25,-333.59"/>
</g>
<!-- Node7 -->
<g id="node7" class="node">
<title>Node7</title>
<g id="a_node7"><a xlink:href="classtracktion__engine_1_1BufferingAudioNode.html" target="_top" xlink:title="AudioNode that buffers its input at a larger buffer size than the calling AudioNode to reduce the amm...">
<polygon fill="none" stroke="black" points="434.5,-568.5 434.5,-598.5 583.5,-598.5 583.5,-568.5 434.5,-568.5"/>
<text text-anchor="start" x="442.5" y="-586.5" font-family="Helvetica,sans-Serif" font-size="10.00">tracktion_engine::Buffering</text>
<text text-anchor="middle" x="509" y="-575.5" font-family="Helvetica,sans-Serif" font-size="10.00">AudioNode</text>
</a>
</g>
</g>
<!-- Node6&#45;&gt;Node7 -->
<g id="edge6" class="edge">
<title>Node6&#45;&gt;Node7</title>
<path fill="none" stroke="midnightblue" d="M362.88,-322C368.9,-325.29 374.42,-329.4 379,-334.5 446.37,-409.52 347.47,-483.62 415,-558.5 420.37,-564.46 427,-569.06 434.23,-572.61"/>
<polygon fill="midnightblue" stroke="midnightblue" points="364.29,-318.79 353.75,-317.72 361.32,-325.13 364.29,-318.79"/>
</g>
<!-- Node8 -->
<g id="node8" class="node">
<title>Node8</title>
<g id="a_node8"><a xlink:href="classtracktion__engine_1_1ClickMutingNode.html" target="_top" xlink:title="An AudioNode mutes an input click audio node within a given range or if disabled in the Edit.">
<polygon fill="none" stroke="black" points="415,-530 415,-549 603,-549 603,-530 415,-530"/>
<text text-anchor="middle" x="509" y="-537" font-family="Helvetica,sans-Serif" font-size="10.00">tracktion_engine::ClickMutingNode</text>
</a>
</g>
</g>
<!-- Node6&#45;&gt;Node8 -->
<g id="edge7" class="edge">
<title>Node6&#45;&gt;Node8</title>
<path fill="none" stroke="midnightblue" d="M362.71,-322.15C368.77,-325.41 374.34,-329.47 379,-334.5 436.25,-396.24 355.77,-460.65 415,-520.5 418.71,-524.25 422.94,-527.36 427.52,-529.93"/>
<polygon fill="midnightblue" stroke="midnightblue" points="364.09,-318.93 353.54,-317.91 361.15,-325.28 364.09,-318.93"/>
</g>
<!-- Node9 -->
<g id="node9" class="node">
<title>Node9</title>
<g id="a_node9"><a xlink:href="classtracktion__engine_1_1FadeInOutAudioNode.html" target="_top" xlink:title="An AudioNode that fades its input node in/out at given times.">
<polygon fill="none" stroke="black" points="441,-480.5 441,-510.5 577,-510.5 577,-480.5 441,-480.5"/>
<text text-anchor="start" x="449" y="-498.5" font-family="Helvetica,sans-Serif" font-size="10.00">tracktion_engine::FadeIn</text>
<text text-anchor="middle" x="509" y="-487.5" font-family="Helvetica,sans-Serif" font-size="10.00">OutAudioNode</text>
</a>
</g>
</g>
<!-- Node6&#45;&gt;Node9 -->
<g id="edge8" class="edge">
<title>Node6&#45;&gt;Node9</title>
<path fill="none" stroke="midnightblue" d="M363.08,-322.86C368.94,-325.99 374.36,-329.82 379,-334.5 423.3,-379.23 370.39,-427.08 415,-471.5 422.21,-478.68 431.26,-483.8 440.87,-487.43"/>
<polygon fill="midnightblue" stroke="midnightblue" points="364.13,-319.49 353.59,-318.49 361.21,-325.85 364.13,-319.49"/>
</g>
<!-- Node10 -->
<g id="node10" class="node">
<title>Node10</title>
<g id="a_node10"><a xlink:href="classtracktion__engine_1_1HissingAudioNode.html" target="_top" xlink:title="An AudioNode that adds the &#39;unregistered&#39; hiss noise to the output.">
<polygon fill="none" stroke="black" points="439,-431.5 439,-461.5 579,-461.5 579,-431.5 439,-431.5"/>
<text text-anchor="start" x="447" y="-449.5" font-family="Helvetica,sans-Serif" font-size="10.00">tracktion_engine::Hissing</text>
<text text-anchor="middle" x="509" y="-438.5" font-family="Helvetica,sans-Serif" font-size="10.00">AudioNode</text>
</a>
</g>
</g>
<!-- Node6&#45;&gt;Node10 -->
<g id="edge9" class="edge">
<title>Node6&#45;&gt;Node10</title>
<path fill="none" stroke="midnightblue" d="M363.04,-323.82C368.8,-326.75 374.23,-330.27 379,-334.5 410.64,-362.51 383.16,-394.72 415,-422.5 421.91,-428.53 430.14,-433.08 438.81,-436.5"/>
<polygon fill="midnightblue" stroke="midnightblue" points="364.3,-320.55 353.74,-319.69 361.45,-326.95 364.3,-320.55"/>
</g>
<!-- Node11 -->
<g id="node11" class="node">
<title>Node11</title>
<g id="a_node11"><a xlink:href="classtracktion__engine_1_1LevelMeasuringAudioNode.html" target="_top" xlink:title="Applies a SharedLevelMeter to the audio passing through this node.">
<polygon fill="none" stroke="black" points="418,-382.5 418,-412.5 600,-412.5 600,-382.5 418,-382.5"/>
<text text-anchor="start" x="426" y="-400.5" font-family="Helvetica,sans-Serif" font-size="10.00">tracktion_engine::LevelMeasuring</text>
<text text-anchor="middle" x="509" y="-389.5" font-family="Helvetica,sans-Serif" font-size="10.00">AudioNode</text>
</a>
</g>
</g>
<!-- Node6&#45;&gt;Node11 -->
<g id="edge10" class="edge">
<title>Node6&#45;&gt;Node11</title>
<path fill="none" stroke="midnightblue" d="M363.17,-326.56C368.68,-328.88 374.02,-331.52 379,-334.5 398.96,-346.45 395.02,-360.59 415,-372.5 421.46,-376.35 428.53,-379.62 435.78,-382.4"/>
<polygon fill="midnightblue" stroke="midnightblue" points="364.36,-323.27 353.77,-322.93 361.84,-329.8 364.36,-323.27"/>
</g>
<!-- Node12 -->
<g id="node12" class="node">
<title>Node12</title>
<g id="a_node12"><a xlink:href="structtracktion__engine_1_1MuteAudioNode.html" target="_top" xlink:title=" ">
<polygon fill="none" stroke="black" points="418,-344 418,-363 600,-363 600,-344 418,-344"/>
<text text-anchor="middle" x="509" y="-351" font-family="Helvetica,sans-Serif" font-size="10.00">tracktion_engine::MuteAudioNode</text>
</a>
</g>
</g>
<!-- Node6&#45;&gt;Node12 -->
<g id="edge11" class="edge">
<title>Node6&#45;&gt;Node12</title>
<path fill="none" stroke="midnightblue" d="M363.87,-324.74C395.83,-331.12 432,-338.33 460.11,-343.94"/>
<polygon fill="midnightblue" stroke="midnightblue" points="364.15,-321.23 353.66,-322.7 362.78,-328.09 364.15,-321.23"/>
</g>
<!-- Node13 -->
<g id="node13" class="node">
<title>Node13</title>
<g id="a_node13"><a xlink:href="classtracktion__engine_1_1PlayHeadAudioNode.html" target="_top" xlink:title="An AudioNode that synchronises its input node with the playback position.">
<polygon fill="none" stroke="black" points="433.5,-294.5 433.5,-324.5 584.5,-324.5 584.5,-294.5 433.5,-294.5"/>
<text text-anchor="start" x="441.5" y="-312.5" font-family="Helvetica,sans-Serif" font-size="10.00">tracktion_engine::PlayHead</text>
<text text-anchor="middle" x="509" y="-301.5" font-family="Helvetica,sans-Serif" font-size="10.00">AudioNode</text>
</a>
</g>
</g>
<!-- Node6&#45;&gt;Node13 -->
<g id="edge12" class="edge">
<title>Node6&#45;&gt;Node13</title>
<path fill="none" stroke="midnightblue" d="M363.84,-309.5C386.37,-309.5 410.98,-309.5 433.39,-309.5"/>
<polygon fill="midnightblue" stroke="midnightblue" points="363.66,-306 353.66,-309.5 363.66,-313 363.66,-306"/>
</g>
<!-- Node14 -->
<g id="node14" class="node">
<title>Node14</title>
<g id="a_node14"><a xlink:href="classtracktion__engine_1_1SidechainReceiveAudioNode.html" target="_top" xlink:title=" ">
<polygon fill="none" stroke="black" points="433,-245.5 433,-275.5 585,-275.5 585,-245.5 433,-245.5"/>
<text text-anchor="start" x="441" y="-263.5" font-family="Helvetica,sans-Serif" font-size="10.00">tracktion_engine::Sidechain</text>
<text text-anchor="middle" x="509" y="-252.5" font-family="Helvetica,sans-Serif" font-size="10.00">ReceiveAudioNode</text>
</a>
</g>
</g>
<!-- Node6&#45;&gt;Node14 -->
<g id="edge13" class="edge">
<title>Node6&#45;&gt;Node14</title>
<path fill="none" stroke="midnightblue" d="M363.46,-292.62C388.44,-287.07 416.04,-280.94 440.36,-275.53"/>
<polygon fill="midnightblue" stroke="midnightblue" points="362.66,-289.21 353.66,-294.8 364.18,-296.05 362.66,-289.21"/>
</g>
<!-- Node15 -->
<g id="node15" class="node">
<title>Node15</title>
<g id="a_node15"><a xlink:href="classtracktion__engine_1_1SidechainReceiveWrapperAudioNode.html" target="_top" xlink:title=" ">
<polygon fill="none" stroke="black" points="433,-196.5 433,-226.5 585,-226.5 585,-196.5 433,-196.5"/>
<text text-anchor="start" x="441" y="-214.5" font-family="Helvetica,sans-Serif" font-size="10.00">tracktion_engine::Sidechain</text>
<text text-anchor="middle" x="509" y="-203.5" font-family="Helvetica,sans-Serif" font-size="10.00">ReceiveWrapperAudioNode</text>
</a>
</g>
</g>
<!-- Node6&#45;&gt;Node15 -->
<g id="edge14" class="edge">
<title>Node6&#45;&gt;Node15</title>
<path fill="none" stroke="midnightblue" d="M363.3,-294.13C368.82,-291.67 374.13,-288.81 379,-285.5 401.35,-270.31 392.69,-251.76 415,-236.5 420.66,-232.63 426.89,-229.36 433.36,-226.59"/>
<polygon fill="midnightblue" stroke="midnightblue" points="361.84,-290.94 353.85,-297.91 364.44,-297.44 361.84,-290.94"/>
</g>
<!-- Node16 -->
<g id="node16" class="node">
<title>Node16</title>
<g id="a_node16"><a xlink:href="classtracktion__engine_1_1SidechainSendAudioNode.html" target="_top" xlink:title=" ">
<polygon fill="none" stroke="black" points="433,-147.5 433,-177.5 585,-177.5 585,-147.5 433,-147.5"/>
<text text-anchor="start" x="441" y="-165.5" font-family="Helvetica,sans-Serif" font-size="10.00">tracktion_engine::Sidechain</text>
<text text-anchor="middle" x="509" y="-154.5" font-family="Helvetica,sans-Serif" font-size="10.00">SendAudioNode</text>
</a>
</g>
</g>
<!-- Node6&#45;&gt;Node16 -->
<g id="edge15" class="edge">
<title>Node6&#45;&gt;Node16</title>
<path fill="none" stroke="midnightblue" d="M363.18,-296.22C368.92,-293.31 374.29,-289.78 379,-285.5 413.34,-254.29 380.76,-218.81 415,-187.5 420.18,-182.76 426.17,-178.91 432.55,-175.77"/>
<polygon fill="midnightblue" stroke="midnightblue" points="361.65,-293.07 353.92,-300.31 364.48,-299.48 361.65,-293.07"/>
</g>
<!-- Node17 -->
<g id="node17" class="node">
<title>Node17</title>
<g id="a_node17"><a xlink:href="classtracktion__engine_1_1SpeedRampAudioNode.html" target="_top" xlink:title="An AudioNode that speeds up and slows down its input node in/out at given times.">
<polygon fill="none" stroke="black" points="427.5,-98.5 427.5,-128.5 590.5,-128.5 590.5,-98.5 427.5,-98.5"/>
<text text-anchor="start" x="435.5" y="-116.5" font-family="Helvetica,sans-Serif" font-size="10.00">tracktion_engine::SpeedRamp</text>
<text text-anchor="middle" x="509" y="-105.5" font-family="Helvetica,sans-Serif" font-size="10.00">AudioNode</text>
</a>
</g>
</g>
<!-- Node6&#45;&gt;Node17 -->
<g id="edge16" class="edge">
<title>Node6&#45;&gt;Node17</title>
<path fill="none" stroke="midnightblue" d="M363.14,-297.08C368.98,-293.99 374.39,-290.19 379,-285.5 426.17,-237.55 367.97,-186.59 415,-138.5 418.74,-134.67 423,-131.42 427.59,-128.64"/>
<polygon fill="midnightblue" stroke="midnightblue" points="361.33,-294.06 353.66,-301.37 364.22,-300.44 361.33,-294.06"/>
</g>
<!-- Node18 -->
<g id="node18" class="node">
<title>Node18</title>
<g id="a_node18"><a xlink:href="classtracktion__engine_1_1TimedMutingAudioNode.html" target="_top" xlink:title=" ">
<polygon fill="none" stroke="black" points="424.5,-49.5 424.5,-79.5 593.5,-79.5 593.5,-49.5 424.5,-49.5"/>
<text text-anchor="start" x="432.5" y="-67.5" font-family="Helvetica,sans-Serif" font-size="10.00">tracktion_engine::TimedMuting</text>
<text text-anchor="middle" x="509" y="-56.5" font-family="Helvetica,sans-Serif" font-size="10.00">AudioNode</text>
</a>
</g>
</g>
<!-- Node6&#45;&gt;Node18 -->
<g id="edge17" class="edge">
<title>Node6&#45;&gt;Node18</title>
<path fill="none" stroke="midnightblue" d="M362.73,-297.75C368.79,-294.53 374.35,-290.52 379,-285.5 439.24,-220.57 354.96,-154.61 415,-89.5 418.51,-85.69 422.54,-82.44 426.9,-79.66"/>
<polygon fill="midnightblue" stroke="midnightblue" points="361.23,-294.59 353.57,-301.9 364.12,-300.96 361.23,-294.59"/>
</g>
<!-- Node19 -->
<g id="node19" class="node">
<title>Node19</title>
<g id="a_node19"><a xlink:href="classtracktion__engine_1_1TrackMutingAudioNode.html" target="_top" xlink:title="An AudioNode that handles muting/soloing of its input node, according to the audibility of a track.">
<polygon fill="none" stroke="black" points="427,-0.5 427,-30.5 591,-30.5 591,-0.5 427,-0.5"/>
<text text-anchor="start" x="435" y="-18.5" font-family="Helvetica,sans-Serif" font-size="10.00">tracktion_engine::TrackMuting</text>
<text text-anchor="middle" x="509" y="-7.5" font-family="Helvetica,sans-Serif" font-size="10.00">AudioNode</text>
</a>
</g>
</g>
<!-- Node6&#45;&gt;Node19 -->
<g id="edge18" class="edge">
<title>Node6&#45;&gt;Node19</title>
<path fill="none" stroke="midnightblue" d="M362.93,-297.92C368.94,-294.67 374.44,-290.6 379,-285.5 452.67,-203.14 341.17,-121.71 415,-39.5 418.45,-35.65 422.44,-32.39 426.77,-29.62"/>
<polygon fill="midnightblue" stroke="midnightblue" points="361.43,-294.76 353.8,-302.12 364.35,-301.12 361.43,-294.76"/>
</g>
</g>
</svg>
