<?xml version="1.0" encoding="UTF-8" standalone="no"?>
<!DOCTYPE svg PUBLIC "-//W3C//DTD SVG 1.1//EN"
 "http://www.w3.org/Graphics/SVG/1.1/DTD/svg11.dtd">
<!-- Generated by graphviz version 2.43.0 (0)
 -->
<!-- Title: engine::WaveNodeRealTime Pages: 1 -->
<svg width="450pt" height="93pt"
 viewBox="0.00 0.00 449.50 93.00" xmlns="http://www.w3.org/2000/svg" xmlns:xlink="http://www.w3.org/1999/xlink">
<g id="graph0" class="graph" transform="scale(1 1) rotate(0) translate(4 89)">
<title>engine::WaveNodeRealTime</title>
<!-- Node1 -->
<g id="Node000001" class="node">
<title>Node1</title>
<g id="a_Node000001"><a xlink:title="An Node that plays back a wave file.">
<polygon fill="#999999" stroke="#666666" points="250.5,-19 95.5,-19 95.5,0 250.5,0 250.5,-19"/>
<text text-anchor="middle" x="173" y="-7" font-family="Helvetica,sans-Serif" font-size="10.00">engine::WaveNodeRealTime</text>
</a>
</g>
</g>
<!-- Node2 -->
<g id="Node000002" class="node">
<title>Node2</title>
<g id="a_Node000002"><a xlink:href="classgraph_1_1Node.html" target="_top" xlink:title="Main graph Node processor class.">
<polygon fill="white" stroke="#666666" points="76,-79.5 0,-79.5 0,-60.5 76,-60.5 76,-79.5"/>
<text text-anchor="middle" x="38" y="-67.5" font-family="Helvetica,sans-Serif" font-size="10.00">graph::Node</text>
</a>
</g>
</g>
<!-- Node2&#45;&gt;Node1 -->
<g id="edge1_Node000001_Node000002" class="edge">
<title>Node2&#45;&gt;Node1</title>
<g id="a_edge1_Node000001_Node000002"><a xlink:title=" ">
<path fill="none" stroke="#63b8ff" d="M67,-56.43C93.07,-45.14 130.64,-28.86 153.35,-19.02"/>
<polygon fill="#63b8ff" stroke="#63b8ff" points="65.41,-53.31 57.63,-60.49 68.2,-59.73 65.41,-53.31"/>
</a>
</g>
</g>
<!-- Node3 -->
<g id="Node000003" class="node">
<title>Node3</title>
<g id="a_Node000003"><a xlink:href="classengine_1_1TracktionEngineNode.html" target="_top" xlink:title="Base class for Nodes that provides information about the current process call.">
<polygon fill="white" stroke="#666666" points="252,-79.5 94,-79.5 94,-60.5 252,-60.5 252,-79.5"/>
<text text-anchor="middle" x="173" y="-67.5" font-family="Helvetica,sans-Serif" font-size="10.00">engine::TracktionEngineNode</text>
</a>
</g>
</g>
<!-- Node3&#45;&gt;Node1 -->
<g id="edge2_Node000001_Node000003" class="edge">
<title>Node3&#45;&gt;Node1</title>
<g id="a_edge2_Node000001_Node000003"><a xlink:title=" ">
<path fill="none" stroke="#63b8ff" d="M173,-50.16C173,-39.74 173,-27.3 173,-19.17"/>
<polygon fill="#63b8ff" stroke="#63b8ff" points="169.5,-50.37 173,-60.37 176.5,-50.37 169.5,-50.37"/>
</a>
</g>
</g>
<!-- Node4 -->
<g id="Node000004" class="node">
<title>Node4</title>
<g id="a_Node000004"><a xlink:href="classengine_1_1DynamicallyOffsettableNodeBase.html" target="_top" xlink:title=" ">
<polygon fill="white" stroke="#666666" points="441.5,-85 270.5,-85 270.5,-55 441.5,-55 441.5,-85"/>
<text text-anchor="start" x="278.5" y="-73" font-family="Helvetica,sans-Serif" font-size="10.00">engine::DynamicallyOffsettable</text>
<text text-anchor="middle" x="356" y="-62" font-family="Helvetica,sans-Serif" font-size="10.00">NodeBase</text>
</a>
</g>
</g>
<!-- Node4&#45;&gt;Node1 -->
<g id="edge3_Node000001_Node000004" class="edge">
<title>Node4&#45;&gt;Node1</title>
<g id="a_edge3_Node000001_Node000004"><a xlink:title=" ">
<path fill="none" stroke="#63b8ff" d="M302.44,-51.88C268.71,-41.09 226.61,-27.64 199.76,-19.05"/>
<polygon fill="#63b8ff" stroke="#63b8ff" points="301.58,-55.28 312.17,-54.99 303.71,-48.61 301.58,-55.28"/>
</a>
</g>
</g>
</g>
</svg>
