<?xml version="1.0" encoding="UTF-8" standalone="no"?>
<!DOCTYPE svg PUBLIC "-//W3C//DTD SVG 1.1//EN"
 "http://www.w3.org/Graphics/SVG/1.1/DTD/svg11.dtd">
<!-- Generated by graphviz version 2.40.1 (20161225.0304)
 -->
<!-- Title: tracktion_engine::ClipEffect Pages: 1 -->
<svg width="502pt" height="480pt"
 viewBox="0.00 0.00 502.00 480.00" xmlns="http://www.w3.org/2000/svg" xmlns:xlink="http://www.w3.org/1999/xlink">
<g id="graph0" class="graph" transform="scale(1 1) rotate(0) translate(4 476)">
<title>tracktion_engine::ClipEffect</title>
<!-- Node0 -->
<g id="node1" class="node">
<title>Node0</title>
<polygon fill="#bfbfbf" stroke="#000000" points="174,-226 174,-245 311,-245 311,-226 174,-226"/>
<text text-anchor="middle" x="242.5" y="-233" font-family="Helvetica,sans-Serif" font-size="10.00" fill="#000000">tracktion_engine::ClipEffect</text>
</g>
<!-- Node2 -->
<g id="node3" class="node">
<title>Node2</title>
<g id="a_node3"><a xlink:href="structtracktion__engine_1_1FadeInOutEffect.html" target="_top" xlink:title="tracktion_engine::FadeIn\lOutEffect">
<polygon fill="none" stroke="#000000" points="358.5,-441.5 358.5,-471.5 482.5,-471.5 482.5,-441.5 358.5,-441.5"/>
<text text-anchor="start" x="366.5" y="-459.5" font-family="Helvetica,sans-Serif" font-size="10.00" fill="#000000">tracktion_engine::FadeIn</text>
<text text-anchor="middle" x="420.5" y="-448.5" font-family="Helvetica,sans-Serif" font-size="10.00" fill="#000000">OutEffect</text>
</a>
</g>
</g>
<!-- Node0&#45;&gt;Node2 -->
<g id="edge2" class="edge">
<title>Node0&#45;&gt;Node2</title>
<path fill="none" stroke="#191970" d="M247.5271,-255.0778C258.6452,-294.482 289.046,-383.7506 347,-432.5 351.109,-435.9564 355.7283,-438.9186 360.5983,-441.4566"/>
<polygon fill="#191970" stroke="#191970" points="250.888,-254.0985 244.8957,-245.3612 244.1314,-255.9284 250.888,-254.0985"/>
</g>
<!-- Node3 -->
<g id="node4" class="node">
<title>Node3</title>
<g id="a_node4"><a xlink:href="structtracktion__engine_1_1InvertEffect.html" target="_top" xlink:title="tracktion_engine::Invert\lEffect">
<polygon fill="none" stroke="#000000" points="361,-392.5 361,-422.5 480,-422.5 480,-392.5 361,-392.5"/>
<text text-anchor="start" x="369" y="-410.5" font-family="Helvetica,sans-Serif" font-size="10.00" fill="#000000">tracktion_engine::Invert</text>
<text text-anchor="middle" x="420.5" y="-399.5" font-family="Helvetica,sans-Serif" font-size="10.00" fill="#000000">Effect</text>
</a>
</g>
</g>
<!-- Node0&#45;&gt;Node3 -->
<g id="edge3" class="edge">
<title>Node0&#45;&gt;Node3</title>
<path fill="none" stroke="#191970" d="M250.8982,-254.41C265.7746,-285.785 299.7065,-348.5951 347,-383.5 351.6442,-386.9276 356.8019,-389.8809 362.1696,-392.4225"/>
<polygon fill="#191970" stroke="#191970" points="253.9545,-252.6793 246.5919,-245.0607 247.5965,-255.6078 253.9545,-252.6793"/>
</g>
<!-- Node4 -->
<g id="node5" class="node">
<title>Node4</title>
<g id="a_node5"><a xlink:href="structtracktion__engine_1_1MakeMonoEffect.html" target="_top" xlink:title="tracktion_engine::MakeMono\lEffect">
<polygon fill="none" stroke="#000000" points="349.5,-343.5 349.5,-373.5 491.5,-373.5 491.5,-343.5 349.5,-343.5"/>
<text text-anchor="start" x="357.5" y="-361.5" font-family="Helvetica,sans-Serif" font-size="10.00" fill="#000000">tracktion_engine::MakeMono</text>
<text text-anchor="middle" x="420.5" y="-350.5" font-family="Helvetica,sans-Serif" font-size="10.00" fill="#000000">Effect</text>
</a>
</g>
</g>
<!-- Node0&#45;&gt;Node4 -->
<g id="edge4" class="edge">
<title>Node0&#45;&gt;Node4</title>
<path fill="none" stroke="#191970" d="M256.6062,-252.9854C275.1754,-274.9336 309.844,-312.379 347,-334.5 352.6517,-337.8648 358.8326,-340.8207 365.1332,-343.4011"/>
<polygon fill="#191970" stroke="#191970" points="259.1731,-250.5977 250.0944,-245.1362 253.7857,-255.0672 259.1731,-250.5977"/>
</g>
<!-- Node5 -->
<g id="node6" class="node">
<title>Node5</title>
<g id="a_node6"><a xlink:href="structtracktion__engine_1_1NormaliseEffect.html" target="_top" xlink:title="tracktion_engine::Normalise\lEffect">
<polygon fill="none" stroke="#000000" points="351.5,-294.5 351.5,-324.5 489.5,-324.5 489.5,-294.5 351.5,-294.5"/>
<text text-anchor="start" x="359.5" y="-312.5" font-family="Helvetica,sans-Serif" font-size="10.00" fill="#000000">tracktion_engine::Normalise</text>
<text text-anchor="middle" x="420.5" y="-301.5" font-family="Helvetica,sans-Serif" font-size="10.00" fill="#000000">Effect</text>
</a>
</g>
</g>
<!-- Node0&#45;&gt;Node5 -->
<g id="edge5" class="edge">
<title>Node0&#45;&gt;Node5</title>
<path fill="none" stroke="#191970" d="M269.5865,-249.6642C290.4302,-260.2673 320.1234,-274.7357 347,-285.5 354.7259,-288.5943 363.0207,-291.5975 371.1557,-294.3723"/>
<polygon fill="#191970" stroke="#191970" points="271.1693,-246.5425 260.6742,-245.0917 267.9738,-252.7706 271.1693,-246.5425"/>
</g>
<!-- Node6 -->
<g id="node7" class="node">
<title>Node6</title>
<g id="a_node7"><a xlink:href="structtracktion__engine_1_1PitchShiftEffect.html" target="_top" xlink:title="tracktion_engine::PitchShift\lEffect">
<polygon fill="none" stroke="#000000" points="352,-245.5 352,-275.5 489,-275.5 489,-245.5 352,-245.5"/>
<text text-anchor="start" x="360" y="-263.5" font-family="Helvetica,sans-Serif" font-size="10.00" fill="#000000">tracktion_engine::PitchShift</text>
<text text-anchor="middle" x="420.5" y="-252.5" font-family="Helvetica,sans-Serif" font-size="10.00" fill="#000000">Effect</text>
</a>
</g>
</g>
<!-- Node0&#45;&gt;Node6 -->
<g id="edge6" class="edge">
<title>Node0&#45;&gt;Node6</title>
<path fill="none" stroke="#191970" d="M320.2561,-246.4208C330.726,-247.8913 341.4068,-249.3914 351.7064,-250.838"/>
<polygon fill="#191970" stroke="#191970" points="320.6916,-242.9477 310.3019,-245.0227 319.7179,-249.8797 320.6916,-242.9477"/>
</g>
<!-- Node7 -->
<g id="node8" class="node">
<title>Node7</title>
<g id="a_node8"><a xlink:href="structtracktion__engine_1_1PluginEffect.html" target="_top" xlink:title="tracktion_engine::Plugin\lEffect">
<polygon fill="none" stroke="#000000" points="360,-196.5 360,-226.5 481,-226.5 481,-196.5 360,-196.5"/>
<text text-anchor="start" x="368" y="-214.5" font-family="Helvetica,sans-Serif" font-size="10.00" fill="#000000">tracktion_engine::Plugin</text>
<text text-anchor="middle" x="420.5" y="-203.5" font-family="Helvetica,sans-Serif" font-size="10.00" fill="#000000">Effect</text>
</a>
</g>
</g>
<!-- Node0&#45;&gt;Node7 -->
<g id="edge7" class="edge">
<title>Node0&#45;&gt;Node7</title>
<path fill="none" stroke="#191970" d="M321.333,-224.8708C334.24,-223.1306 347.4361,-221.3513 359.8161,-219.6821"/>
<polygon fill="#191970" stroke="#191970" points="320.5075,-221.4504 311.0648,-226.2553 321.4429,-228.3876 320.5075,-221.4504"/>
</g>
<!-- Node8 -->
<g id="node9" class="node">
<title>Node8</title>
<g id="a_node9"><a xlink:href="structtracktion__engine_1_1ReverseEffect.html" target="_top" xlink:title="tracktion_engine::Reverse\lEffect">
<polygon fill="none" stroke="#000000" points="355,-147.5 355,-177.5 486,-177.5 486,-147.5 355,-147.5"/>
<text text-anchor="start" x="363" y="-165.5" font-family="Helvetica,sans-Serif" font-size="10.00" fill="#000000">tracktion_engine::Reverse</text>
<text text-anchor="middle" x="420.5" y="-154.5" font-family="Helvetica,sans-Serif" font-size="10.00" fill="#000000">Effect</text>
</a>
</g>
</g>
<!-- Node0&#45;&gt;Node8 -->
<g id="edge8" class="edge">
<title>Node0&#45;&gt;Node8</title>
<path fill="none" stroke="#191970" d="M270.2797,-221.3318C291.1041,-210.9928 320.4627,-197.0083 347,-186.5 354.8628,-183.3865 363.3069,-180.3519 371.5701,-177.546"/>
<polygon fill="#191970" stroke="#191970" points="268.4479,-218.3348 261.073,-225.9414 271.5818,-224.594 268.4479,-218.3348"/>
</g>
<!-- Node9 -->
<g id="node10" class="node">
<title>Node9</title>
<g id="a_node10"><a xlink:href="structtracktion__engine_1_1StepVolumeEffect.html" target="_top" xlink:title="tracktion_engine::StepVolume\lEffect">
<polygon fill="none" stroke="#000000" points="347,-98.5 347,-128.5 494,-128.5 494,-98.5 347,-98.5"/>
<text text-anchor="start" x="355" y="-116.5" font-family="Helvetica,sans-Serif" font-size="10.00" fill="#000000">tracktion_engine::StepVolume</text>
<text text-anchor="middle" x="420.5" y="-105.5" font-family="Helvetica,sans-Serif" font-size="10.00" fill="#000000">Effect</text>
</a>
</g>
</g>
<!-- Node0&#45;&gt;Node9 -->
<g id="edge9" class="edge">
<title>Node0&#45;&gt;Node9</title>
<path fill="none" stroke="#191970" d="M256.6445,-218.1989C275.2541,-196.4804 309.9654,-159.4218 347,-137.5 352.6602,-134.1496 358.8464,-131.2024 365.1498,-128.627"/>
<polygon fill="#191970" stroke="#191970" points="253.8715,-216.0584 250.117,-225.9657 259.2303,-220.5621 253.8715,-216.0584"/>
</g>
<!-- Node10 -->
<g id="node11" class="node">
<title>Node10</title>
<g id="a_node11"><a xlink:href="structtracktion__engine_1_1VolumeEffect.html" target="_top" xlink:title="tracktion_engine::Volume\lEffect">
<polygon fill="none" stroke="#000000" points="357,-49.5 357,-79.5 484,-79.5 484,-49.5 357,-49.5"/>
<text text-anchor="start" x="365" y="-67.5" font-family="Helvetica,sans-Serif" font-size="10.00" fill="#000000">tracktion_engine::Volume</text>
<text text-anchor="middle" x="420.5" y="-56.5" font-family="Helvetica,sans-Serif" font-size="10.00" fill="#000000">Effect</text>
</a>
</g>
</g>
<!-- Node0&#45;&gt;Node10 -->
<g id="edge10" class="edge">
<title>Node0&#45;&gt;Node10</title>
<path fill="none" stroke="#191970" d="M251.1493,-216.2668C266.1869,-184.9574 300.0906,-123.0057 347,-88.5 351.6497,-85.0798 356.811,-82.1315 362.181,-79.5929"/>
<polygon fill="#191970" stroke="#191970" points="247.8388,-215.0843 246.7813,-225.6262 254.182,-218.0447 247.8388,-215.0843"/>
</g>
<!-- Node11 -->
<g id="node12" class="node">
<title>Node11</title>
<g id="a_node12"><a xlink:href="structtracktion__engine_1_1WarpTimeEffect.html" target="_top" xlink:title="tracktion_engine::WarpTime\lEffect">
<polygon fill="none" stroke="#000000" points="351,-.5 351,-30.5 490,-30.5 490,-.5 351,-.5"/>
<text text-anchor="start" x="359" y="-18.5" font-family="Helvetica,sans-Serif" font-size="10.00" fill="#000000">tracktion_engine::WarpTime</text>
<text text-anchor="middle" x="420.5" y="-7.5" font-family="Helvetica,sans-Serif" font-size="10.00" fill="#000000">Effect</text>
</a>
</g>
</g>
<!-- Node0&#45;&gt;Node11 -->
<g id="edge11" class="edge">
<title>Node0&#45;&gt;Node11</title>
<path fill="none" stroke="#191970" d="M247.5568,-216.0205C258.7293,-176.8144 289.2243,-87.9955 347,-39.5 351.1126,-36.048 355.7345,-33.0887 360.6061,-30.5526"/>
<polygon fill="#191970" stroke="#191970" points="244.1749,-215.1191 244.9114,-225.6883 250.9267,-216.9667 244.1749,-215.1191"/>
</g>
<!-- Node1 -->
<g id="node2" class="node">
<title>Node1</title>
<g id="a_node2"><a xlink:href="structtracktion__engine_1_1ValueTreeAllEventListener.html" target="_top" xlink:title="tracktion_engine::ValueTree\lAllEventListener">
<polygon fill="none" stroke="#000000" points="0,-220.5 0,-250.5 138,-250.5 138,-220.5 0,-220.5"/>
<text text-anchor="start" x="8" y="-238.5" font-family="Helvetica,sans-Serif" font-size="10.00" fill="#000000">tracktion_engine::ValueTree</text>
<text text-anchor="middle" x="69" y="-227.5" font-family="Helvetica,sans-Serif" font-size="10.00" fill="#000000">AllEventListener</text>
</a>
</g>
</g>
<!-- Node1&#45;&gt;Node0 -->
<g id="edge1" class="edge">
<title>Node1&#45;&gt;Node0</title>
<path fill="none" stroke="#006400" d="M148.1248,-235.5C156.7469,-235.5 165.4702,-235.5 173.9506,-235.5"/>
<polygon fill="#006400" stroke="#006400" points="148.0704,-232.0001 138.0703,-235.5 148.0703,-239.0001 148.0704,-232.0001"/>
</g>
</g>
</svg>
