<?xml version="1.0" encoding="UTF-8" standalone="no"?>
<!DOCTYPE svg PUBLIC "-//W3C//DTD SVG 1.1//EN"
 "http://www.w3.org/Graphics/SVG/1.1/DTD/svg11.dtd">
<!-- Generated by graphviz version 2.43.0 (0)
 -->
<!-- Title: tracktion::engine::SelectableListener Pages: 1 -->
<svg width="256pt" height="137pt"
 viewBox="0.00 0.00 256.00 137.00" xmlns="http://www.w3.org/2000/svg" xmlns:xlink="http://www.w3.org/1999/xlink">
<g id="graph0" class="graph" transform="scale(1 1) rotate(0) translate(4 133)">
<title>tracktion::engine::SelectableListener</title>
<!-- Node1 -->
<g id="node1" class="node">
<title>Node1</title>
<g id="a_node1"><a xlink:title=" ">
<polygon fill="#bfbfbf" stroke="black" points="0,-49.5 0,-79.5 107,-79.5 107,-49.5 0,-49.5"/>
<text text-anchor="start" x="8" y="-67.5" font-family="Helvetica,sans-Serif" font-size="10.00">tracktion::engine::</text>
<text text-anchor="middle" x="53.5" y="-56.5" font-family="Helvetica,sans-Serif" font-size="10.00">SelectableListener</text>
</a>
</g>
</g>
<!-- Node2 -->
<g id="node2" class="node">
<title>Node2</title>
<g id="a_node2"><a xlink:href="classtracktion_1_1engine_1_1CurveEditor.html" target="_top" xlink:title=" ">
<polygon fill="none" stroke="black" points="143,-98.5 143,-128.5 248,-128.5 248,-98.5 143,-98.5"/>
<text text-anchor="start" x="151" y="-116.5" font-family="Helvetica,sans-Serif" font-size="10.00">tracktion::engine::</text>
<text text-anchor="middle" x="195.5" y="-105.5" font-family="Helvetica,sans-Serif" font-size="10.00">CurveEditor</text>
</a>
</g>
</g>
<!-- Node1&#45;&gt;Node2 -->
<g id="edge1" class="edge">
<title>Node1&#45;&gt;Node2</title>
<path fill="none" stroke="midnightblue" d="M107.46,-83.04C121.92,-88.1 137.41,-93.52 151.25,-98.36"/>
<polygon fill="midnightblue" stroke="midnightblue" points="108.24,-79.6 97.65,-79.6 105.93,-86.21 108.24,-79.6"/>
</g>
<!-- Node3 -->
<g id="node3" class="node">
<title>Node3</title>
<g id="a_node3"><a xlink:href="classtracktion_1_1engine_1_1ExternalController.html" target="_top" xlink:title="Acts as a holder for a ControlSurface object.">
<polygon fill="none" stroke="black" points="143,-49.5 143,-79.5 248,-79.5 248,-49.5 143,-49.5"/>
<text text-anchor="start" x="151" y="-67.5" font-family="Helvetica,sans-Serif" font-size="10.00">tracktion::engine::</text>
<text text-anchor="middle" x="195.5" y="-56.5" font-family="Helvetica,sans-Serif" font-size="10.00">ExternalController</text>
</a>
</g>
</g>
<!-- Node1&#45;&gt;Node3 -->
<g id="edge2" class="edge">
<title>Node1&#45;&gt;Node3</title>
<path fill="none" stroke="#8b1a1a" d="M117.26,-64.5C125.73,-64.5 134.35,-64.5 142.61,-64.5"/>
<polygon fill="#8b1a1a" stroke="#8b1a1a" points="117.03,-61 107.03,-64.5 117.03,-68 117.03,-61"/>
</g>
<!-- Node4 -->
<g id="node4" class="node">
<title>Node4</title>
<g id="a_node4"><a xlink:href="classtracktion_1_1engine_1_1SelectionManager.html" target="_top" xlink:title="Manages a list of items that are currently selected.">
<polygon fill="none" stroke="black" points="143,-0.5 143,-30.5 248,-30.5 248,-0.5 143,-0.5"/>
<text text-anchor="start" x="151" y="-18.5" font-family="Helvetica,sans-Serif" font-size="10.00">tracktion::engine::</text>
<text text-anchor="middle" x="195.5" y="-7.5" font-family="Helvetica,sans-Serif" font-size="10.00">SelectionManager</text>
</a>
</g>
</g>
<!-- Node1&#45;&gt;Node4 -->
<g id="edge3" class="edge">
<title>Node1&#45;&gt;Node4</title>
<path fill="none" stroke="#8b1a1a" d="M107.46,-45.96C121.92,-40.9 137.41,-35.48 151.25,-30.64"/>
<polygon fill="#8b1a1a" stroke="#8b1a1a" points="105.93,-42.79 97.65,-49.4 108.24,-49.4 105.93,-42.79"/>
</g>
</g>
</svg>
