<?xml version="1.0" encoding="UTF-8" standalone="no"?>
<!DOCTYPE svg PUBLIC "-//W3C//DTD SVG 1.1//EN"
 "http://www.w3.org/Graphics/SVG/1.1/DTD/svg11.dtd">
<!-- Generated by graphviz version 2.43.0 (0)
 -->
<!-- Title: tracktion_engine::VCAPlugin Pages: 1 -->
<svg width="736pt" height="214pt"
 viewBox="0.00 0.00 736.00 213.50" xmlns="http://www.w3.org/2000/svg" xmlns:xlink="http://www.w3.org/1999/xlink">
<g id="graph0" class="graph" transform="scale(1 1) rotate(0) translate(4 209.5)">
<title>tracktion_engine::VCAPlugin</title>
<!-- Node1 -->
<g id="node1" class="node">
<title>Node1</title>
<g id="a_node1"><a xlink:title="The VCA plugin sits on a folder track to control the overall level of all the volume/pan plugins in i...">
<polygon fill="#bfbfbf" stroke="black" points="573,-104 573,-123 728,-123 728,-104 573,-104"/>
<text text-anchor="middle" x="650.5" y="-111" font-family="Helvetica,sans-Serif" font-size="10.00">tracktion_engine::VCAPlugin</text>
</a>
</g>
</g>
<!-- Node2 -->
<g id="node2" class="node">
<title>Node2</title>
<g id="a_node2"><a xlink:href="classtracktion__engine_1_1Plugin.html" target="_top" xlink:title=" ">
<polygon fill="none" stroke="black" points="403,-104 403,-123 537,-123 537,-104 403,-104"/>
<text text-anchor="middle" x="470" y="-111" font-family="Helvetica,sans-Serif" font-size="10.00">tracktion_engine::Plugin</text>
</a>
</g>
</g>
<!-- Node2&#45;&gt;Node1 -->
<g id="edge1" class="edge">
<title>Node2&#45;&gt;Node1</title>
<path fill="none" stroke="midnightblue" d="M547.4,-113.5C555.83,-113.5 564.42,-113.5 572.85,-113.5"/>
<polygon fill="midnightblue" stroke="midnightblue" points="547.21,-110 537.21,-113.5 547.21,-117 547.21,-110"/>
</g>
<!-- Node3 -->
<g id="node3" class="node">
<title>Node3</title>
<g id="a_node3"><a xlink:href="classtracktion__engine_1_1Selectable.html" target="_top" xlink:title="Base class for things that can be selected, and whose properties can appear in the properties panel.">
<polygon fill="none" stroke="black" points="197,-186 197,-205 352,-205 352,-186 197,-186"/>
<text text-anchor="middle" x="274.5" y="-193" font-family="Helvetica,sans-Serif" font-size="10.00">tracktion_engine::Selectable</text>
</a>
</g>
</g>
<!-- Node3&#45;&gt;Node2 -->
<g id="edge2" class="edge">
<title>Node3&#45;&gt;Node2</title>
<path fill="none" stroke="midnightblue" d="M346.18,-183.43C353.31,-181.44 360.37,-179.14 367,-176.5 401.81,-162.64 438.09,-137.12 456.57,-123.2"/>
<polygon fill="midnightblue" stroke="midnightblue" points="345.23,-180.06 336.42,-185.95 346.98,-186.83 345.23,-180.06"/>
</g>
<!-- Node4 -->
<g id="node4" class="node">
<title>Node4</title>
<g id="a_node4"><a xlink:href="classtracktion__engine_1_1Exportable.html" target="_top" xlink:title="An interface for objects within an edit that can be exported.">
<polygon fill="none" stroke="black" points="196,-148 196,-167 353,-167 353,-148 196,-148"/>
<text text-anchor="middle" x="274.5" y="-155" font-family="Helvetica,sans-Serif" font-size="10.00">tracktion_engine::Exportable</text>
</a>
</g>
</g>
<!-- Node4&#45;&gt;Node2 -->
<g id="edge3" class="edge">
<title>Node4&#45;&gt;Node2</title>
<path fill="none" stroke="midnightblue" d="M332.87,-145.91C344.19,-143.53 355.98,-140.99 367,-138.5 388.34,-133.67 412.09,-127.88 431.29,-123.08"/>
<polygon fill="midnightblue" stroke="midnightblue" points="332.13,-142.49 323.06,-147.96 333.56,-149.34 332.13,-142.49"/>
</g>
<!-- Node5 -->
<g id="node5" class="node">
<title>Node5</title>
<g id="a_node5"><a xlink:href="classtracktion__engine_1_1AutomatableEditItem.html" target="_top" xlink:title="Base class for elements that have some kind of automatable parameters.">
<polygon fill="none" stroke="black" points="191,-98.5 191,-128.5 358,-128.5 358,-98.5 191,-98.5"/>
<text text-anchor="start" x="199" y="-116.5" font-family="Helvetica,sans-Serif" font-size="10.00">tracktion_engine::Automatable</text>
<text text-anchor="middle" x="274.5" y="-105.5" font-family="Helvetica,sans-Serif" font-size="10.00">EditItem</text>
</a>
</g>
</g>
<!-- Node5&#45;&gt;Node2 -->
<g id="edge4" class="edge">
<title>Node5&#45;&gt;Node2</title>
<path fill="none" stroke="midnightblue" d="M368.3,-113.5C379.92,-113.5 391.62,-113.5 402.72,-113.5"/>
<polygon fill="midnightblue" stroke="midnightblue" points="368.12,-110 358.12,-113.5 368.12,-117 368.12,-110"/>
</g>
<!-- Node6 -->
<g id="node6" class="node">
<title>Node6</title>
<g id="a_node6"><a xlink:href="classtracktion__engine_1_1EditItem.html" target="_top" xlink:title="Base class for objects that live inside an edit &#45; e.g.">
<polygon fill="none" stroke="black" points="0,-104 0,-123 146,-123 146,-104 0,-104"/>
<text text-anchor="middle" x="73" y="-111" font-family="Helvetica,sans-Serif" font-size="10.00">tracktion_engine::EditItem</text>
</a>
</g>
</g>
<!-- Node6&#45;&gt;Node5 -->
<g id="edge5" class="edge">
<title>Node6&#45;&gt;Node5</title>
<path fill="none" stroke="midnightblue" d="M156.35,-113.5C167.7,-113.5 179.37,-113.5 190.74,-113.5"/>
<polygon fill="midnightblue" stroke="midnightblue" points="156.02,-110 146.02,-113.5 156.02,-117 156.02,-110"/>
</g>
<!-- Node7 -->
<g id="node7" class="node">
<title>Node7</title>
<g id="a_node7"><a xlink:href="classtracktion__engine_1_1MacroParameterElement.html" target="_top" xlink:title="Base class for elements which can contain macro parameters.">
<polygon fill="none" stroke="black" points="182,-49.5 182,-79.5 367,-79.5 367,-49.5 182,-49.5"/>
<text text-anchor="start" x="190" y="-67.5" font-family="Helvetica,sans-Serif" font-size="10.00">tracktion_engine::MacroParameter</text>
<text text-anchor="middle" x="274.5" y="-56.5" font-family="Helvetica,sans-Serif" font-size="10.00">Element</text>
</a>
</g>
</g>
<!-- Node7&#45;&gt;Node2 -->
<g id="edge6" class="edge">
<title>Node7&#45;&gt;Node2</title>
<path fill="none" stroke="midnightblue" d="M344.63,-82C373.86,-89.41 406.76,-97.74 431.37,-103.97"/>
<polygon fill="midnightblue" stroke="midnightblue" points="345.42,-78.6 334.87,-79.53 343.71,-85.38 345.42,-78.6"/>
</g>
<!-- Node8 -->
<g id="node8" class="node">
<title>Node8</title>
<g id="a_node8"><a xlink:href="structtracktion__engine_1_1ValueTreeAllEventListener.html" target="_top" xlink:title=" ">
<polygon fill="none" stroke="black" points="198.5,-0.5 198.5,-30.5 350.5,-30.5 350.5,-0.5 198.5,-0.5"/>
<text text-anchor="start" x="206.5" y="-18.5" font-family="Helvetica,sans-Serif" font-size="10.00">tracktion_engine::ValueTree</text>
<text text-anchor="middle" x="274.5" y="-7.5" font-family="Helvetica,sans-Serif" font-size="10.00">AllEventListener</text>
</a>
</g>
</g>
<!-- Node8&#45;&gt;Node2 -->
<g id="edge7" class="edge">
<title>Node8&#45;&gt;Node2</title>
<path fill="none" stroke="darkgreen" d="M354.18,-34.07C358.58,-35.74 362.88,-37.55 367,-39.5 403.78,-56.91 440.96,-88.08 458.54,-103.83"/>
<polygon fill="darkgreen" stroke="darkgreen" points="355.04,-30.66 344.44,-30.61 352.7,-37.25 355.04,-30.66"/>
</g>
</g>
</svg>
