<?xml version="1.0" encoding="UTF-8" standalone="no"?>
<!DOCTYPE svg PUBLIC "-//W3C//DTD SVG 1.1//EN"
 "http://www.w3.org/Graphics/SVG/1.1/DTD/svg11.dtd">
<!-- Generated by graphviz version 2.43.0 (0)
 -->
<!-- Title: tracktion_engine::MacroParameterList Pages: 1 -->
<svg width="210pt" height="151pt"
 viewBox="0.00 0.00 210.00 151.00" xmlns="http://www.w3.org/2000/svg" xmlns:xlink="http://www.w3.org/1999/xlink">
<g id="graph0" class="graph" transform="scale(1 1) rotate(0) translate(4 147)">
<title>tracktion_engine::MacroParameterList</title>
<!-- Node1 -->
<g id="node1" class="node">
<title>Node1</title>
<g id="a_node1"><a xlink:title=" ">
<polygon fill="#bfbfbf" stroke="black" points="0,-0.5 0,-19.5 202,-19.5 202,-0.5 0,-0.5"/>
<text text-anchor="middle" x="101" y="-7.5" font-family="Helvetica,sans-Serif" font-size="10.00">tracktion_engine::MacroParameterList</text>
</a>
</g>
</g>
<!-- Node2 -->
<g id="node2" class="node">
<title>Node2</title>
<g id="a_node2"><a xlink:href="classtracktion__engine_1_1AutomatableEditItem.html" target="_top" xlink:title="Base class for elements that have some kind of automatable parameters.">
<polygon fill="none" stroke="black" points="17.5,-56.5 17.5,-86.5 184.5,-86.5 184.5,-56.5 17.5,-56.5"/>
<text text-anchor="start" x="25.5" y="-74.5" font-family="Helvetica,sans-Serif" font-size="10.00">tracktion_engine::Automatable</text>
<text text-anchor="middle" x="101" y="-63.5" font-family="Helvetica,sans-Serif" font-size="10.00">EditItem</text>
</a>
</g>
</g>
<!-- Node2&#45;&gt;Node1 -->
<g id="edge1" class="edge">
<title>Node2&#45;&gt;Node1</title>
<path fill="none" stroke="midnightblue" d="M101,-46.29C101,-36.86 101,-26.65 101,-19.66"/>
<polygon fill="midnightblue" stroke="midnightblue" points="97.5,-46.4 101,-56.4 104.5,-46.4 97.5,-46.4"/>
</g>
<!-- Node3 -->
<g id="node3" class="node">
<title>Node3</title>
<g id="a_node3"><a xlink:href="classtracktion__engine_1_1EditItem.html" target="_top" xlink:title="Base class for objects that live inside an edit &#45; e.g.">
<polygon fill="none" stroke="black" points="28,-123.5 28,-142.5 174,-142.5 174,-123.5 28,-123.5"/>
<text text-anchor="middle" x="101" y="-130.5" font-family="Helvetica,sans-Serif" font-size="10.00">tracktion_engine::EditItem</text>
</a>
</g>
</g>
<!-- Node3&#45;&gt;Node2 -->
<g id="edge2" class="edge">
<title>Node3&#45;&gt;Node2</title>
<path fill="none" stroke="midnightblue" d="M101,-113.23C101,-104.59 101,-94.5 101,-86.52"/>
<polygon fill="midnightblue" stroke="midnightblue" points="97.5,-113.48 101,-123.48 104.5,-113.48 97.5,-113.48"/>
</g>
</g>
</svg>
