<?xml version="1.0" encoding="UTF-8" standalone="no"?>
<!DOCTYPE svg PUBLIC "-//W3C//DTD SVG 1.1//EN"
 "http://www.w3.org/Graphics/SVG/1.1/DTD/svg11.dtd">
<!-- Generated by graphviz version 2.43.0 (0)
 -->
<!-- Title: tracktion_engine::Selectable Pages: 1 -->
<svg width="625pt" height="1521pt"
 viewBox="0.00 0.00 625.00 1520.50" xmlns="http://www.w3.org/2000/svg" xmlns:xlink="http://www.w3.org/1999/xlink">
<g id="graph0" class="graph" transform="scale(1 1) rotate(0) translate(4 1516.5)">
<title>tracktion_engine::Selectable</title>
<!-- Node1 -->
<g id="node1" class="node">
<title>Node1</title>
<g id="a_node1"><a xlink:title="Base class for things that can be selected, and whose properties can appear in the properties panel.">
<polygon fill="#bfbfbf" stroke="black" points="0,-456.5 0,-475.5 155,-475.5 155,-456.5 0,-456.5"/>
<text text-anchor="middle" x="77.5" y="-463.5" font-family="Helvetica,sans-Serif" font-size="10.00">tracktion_engine::Selectable</text>
</a>
</g>
</g>
<!-- Node2 -->
<g id="node2" class="node">
<title>Node2</title>
<g id="a_node2"><a xlink:href="classtracktion__engine_1_1AutomatableParameter.html" target="_top" xlink:title=" ">
<polygon fill="none" stroke="black" points="199.5,-1367 199.5,-1397 366.5,-1397 366.5,-1367 199.5,-1367"/>
<text text-anchor="start" x="207.5" y="-1385" font-family="Helvetica,sans-Serif" font-size="10.00">tracktion_engine::Automatable</text>
<text text-anchor="middle" x="283" y="-1374" font-family="Helvetica,sans-Serif" font-size="10.00">Parameter</text>
</a>
</g>
</g>
<!-- Node1&#45;&gt;Node2 -->
<g id="edge1" class="edge">
<title>Node1&#45;&gt;Node2</title>
<path fill="none" stroke="midnightblue" d="M80.44,-485.92C88.71,-567.61 123.63,-884.65 191,-1137 214.87,-1226.43 258.48,-1328.91 275.22,-1366.85"/>
<polygon fill="midnightblue" stroke="midnightblue" points="83.89,-485.21 79.42,-475.61 76.93,-485.9 83.89,-485.21"/>
</g>
<!-- Node8 -->
<g id="node8" class="node">
<title>Node8</title>
<g id="a_node8"><a xlink:href="classtracktion__engine_1_1ControlSurface.html" target="_top" xlink:title="Base class for types of control surface.">
<polygon fill="none" stroke="black" points="213,-1097 213,-1127 353,-1127 353,-1097 213,-1097"/>
<text text-anchor="start" x="221" y="-1115" font-family="Helvetica,sans-Serif" font-size="10.00">tracktion_engine::Control</text>
<text text-anchor="middle" x="283" y="-1104" font-family="Helvetica,sans-Serif" font-size="10.00">Surface</text>
</a>
</g>
</g>
<!-- Node1&#45;&gt;Node8 -->
<g id="edge7" class="edge">
<title>Node1&#45;&gt;Node8</title>
<path fill="none" stroke="midnightblue" d="M81.14,-485.76C90.45,-552.48 124.84,-774.84 191,-947 213.41,-1005.32 253.04,-1068.47 271.71,-1096.77"/>
<polygon fill="midnightblue" stroke="midnightblue" points="84.59,-485.22 79.77,-475.79 77.66,-486.17 84.59,-485.22"/>
</g>
<!-- Node18 -->
<g id="node16" class="node">
<title>Node18</title>
<g id="a_node16"><a xlink:href="classtracktion__engine_1_1CurveEditorPoint.html" target="_top" xlink:title=" ">
<polygon fill="none" stroke="black" points="202.5,-907 202.5,-937 363.5,-937 363.5,-907 202.5,-907"/>
<text text-anchor="start" x="210.5" y="-925" font-family="Helvetica,sans-Serif" font-size="10.00">tracktion_engine::CurveEditor</text>
<text text-anchor="middle" x="283" y="-914" font-family="Helvetica,sans-Serif" font-size="10.00">Point</text>
</a>
</g>
</g>
<!-- Node1&#45;&gt;Node18 -->
<g id="edge15" class="edge">
<title>Node1&#45;&gt;Node18</title>
<path fill="none" stroke="midnightblue" d="M79.32,-486.04C82.79,-548.16 100.67,-740.63 191,-863 205.2,-882.24 227.71,-896.91 246.78,-906.81"/>
<polygon fill="midnightblue" stroke="midnightblue" points="82.8,-485.53 78.81,-475.71 75.81,-485.87 82.8,-485.53"/>
</g>
<!-- Node20 -->
<g id="node18" class="node">
<title>Node20</title>
<g id="a_node18"><a xlink:href="classtracktion__engine_1_1Edit.html" target="_top" xlink:title="The Tracktion Edit class!">
<polygon fill="none" stroke="black" points="221.5,-834.5 221.5,-853.5 344.5,-853.5 344.5,-834.5 221.5,-834.5"/>
<text text-anchor="middle" x="283" y="-841.5" font-family="Helvetica,sans-Serif" font-size="10.00">tracktion_engine::Edit</text>
</a>
</g>
</g>
<!-- Node1&#45;&gt;Node20 -->
<g id="edge17" class="edge">
<title>Node1&#45;&gt;Node20</title>
<path fill="none" stroke="midnightblue" d="M78.24,-485.66C78.56,-546.28 88.26,-731.85 191,-825 199.49,-832.7 210.27,-837.59 221.42,-840.63"/>
<polygon fill="midnightblue" stroke="midnightblue" points="81.74,-485.56 78.27,-475.55 74.74,-485.54 81.74,-485.56"/>
</g>
<!-- Node21 -->
<g id="node19" class="node">
<title>Node21</title>
<g id="a_node19"><a xlink:href="classtracktion__engine_1_1InputDevice.html" target="_top" xlink:title="Represents an input device.">
<polygon fill="none" stroke="black" points="201.5,-796.5 201.5,-815.5 364.5,-815.5 364.5,-796.5 201.5,-796.5"/>
<text text-anchor="middle" x="283" y="-803.5" font-family="Helvetica,sans-Serif" font-size="10.00">tracktion_engine::InputDevice</text>
</a>
</g>
</g>
<!-- Node1&#45;&gt;Node21 -->
<g id="edge18" class="edge">
<title>Node1&#45;&gt;Node21</title>
<path fill="none" stroke="midnightblue" d="M81.38,-485.68C89.67,-536.24 117.9,-672.53 191,-756 207.74,-775.12 233.65,-788.35 253.54,-796.37"/>
<polygon fill="midnightblue" stroke="midnightblue" points="84.82,-485.09 79.82,-475.74 77.91,-486.17 84.82,-485.09"/>
</g>
<!-- Node26 -->
<g id="node22" class="node">
<title>Node26</title>
<g id="a_node22"><a xlink:href="structtracktion__engine_1_1InputDeviceInstance_1_1InputDeviceDestination.html" target="_top" xlink:title=" ">
<polygon fill="none" stroke="black" points="193.5,-716 193.5,-746 372.5,-746 372.5,-716 193.5,-716"/>
<text text-anchor="start" x="201.5" y="-734" font-family="Helvetica,sans-Serif" font-size="10.00">tracktion_engine::InputDevice</text>
<text text-anchor="middle" x="283" y="-723" font-family="Helvetica,sans-Serif" font-size="10.00">Instance::InputDeviceDestination</text>
</a>
</g>
</g>
<!-- Node1&#45;&gt;Node26 -->
<g id="edge21" class="edge">
<title>Node1&#45;&gt;Node26</title>
<path fill="none" stroke="midnightblue" d="M83.35,-485.46C94.92,-528.15 127.98,-631.03 191,-691 202.25,-701.71 216.84,-709.83 231.03,-715.86"/>
<polygon fill="midnightblue" stroke="midnightblue" points="86.67,-484.32 80.76,-475.53 79.9,-486.09 86.67,-484.32"/>
</g>
<!-- Node30 -->
<g id="node26" class="node">
<title>Node30</title>
<g id="a_node26"><a xlink:href="structtracktion__engine_1_1MakeMonoEffect.html" target="_top" xlink:title=" ">
<polygon fill="none" stroke="black" points="204,-651 204,-681 362,-681 362,-651 204,-651"/>
<text text-anchor="start" x="212" y="-669" font-family="Helvetica,sans-Serif" font-size="10.00">tracktion_engine::MakeMono</text>
<text text-anchor="middle" x="283" y="-658" font-family="Helvetica,sans-Serif" font-size="10.00">Effect</text>
</a>
</g>
</g>
<!-- Node1&#45;&gt;Node30 -->
<g id="edge25" class="edge">
<title>Node1&#45;&gt;Node30</title>
<path fill="none" stroke="midnightblue" d="M85.39,-485.1C99.43,-521.25 134.84,-599.73 191,-641 196.28,-644.88 202.13,-648.16 208.25,-650.93"/>
<polygon fill="midnightblue" stroke="midnightblue" points="88.66,-483.84 81.86,-475.71 82.1,-486.31 88.66,-483.84"/>
</g>
<!-- Node31 -->
<g id="node27" class="node">
<title>Node31</title>
<g id="a_node27"><a xlink:href="structtracktion__engine_1_1Modifier.html" target="_top" xlink:title="Bass class for parameter Modifiers.">
<polygon fill="none" stroke="black" points="211,-612.5 211,-631.5 355,-631.5 355,-612.5 211,-612.5"/>
<text text-anchor="middle" x="283" y="-619.5" font-family="Helvetica,sans-Serif" font-size="10.00">tracktion_engine::Modifier</text>
</a>
</g>
</g>
<!-- Node1&#45;&gt;Node31 -->
<g id="edge26" class="edge">
<title>Node1&#45;&gt;Node31</title>
<path fill="none" stroke="midnightblue" d="M88.16,-484.49C104.84,-514.48 142.04,-573.35 191,-603 197.35,-606.85 204.36,-609.92 211.58,-612.38"/>
<polygon fill="midnightblue" stroke="midnightblue" points="91.14,-482.64 83.3,-475.51 84.98,-485.97 91.14,-482.64"/>
</g>
<!-- Node38 -->
<g id="node34" class="node">
<title>Node38</title>
<g id="a_node34"><a xlink:href="structtracktion__engine_1_1NormaliseEffect.html" target="_top" xlink:title=" ">
<polygon fill="none" stroke="black" points="205.5,-563 205.5,-593 360.5,-593 360.5,-563 205.5,-563"/>
<text text-anchor="start" x="213.5" y="-581" font-family="Helvetica,sans-Serif" font-size="10.00">tracktion_engine::Normalise</text>
<text text-anchor="middle" x="283" y="-570" font-family="Helvetica,sans-Serif" font-size="10.00">Effect</text>
</a>
</g>
</g>
<!-- Node1&#45;&gt;Node38 -->
<g id="edge33" class="edge">
<title>Node1&#45;&gt;Node38</title>
<path fill="none" stroke="midnightblue" d="M95.46,-482.95C116.24,-502.79 153.35,-535.31 191,-554 197.88,-557.41 205.3,-560.38 212.83,-562.96"/>
<polygon fill="midnightblue" stroke="midnightblue" points="97.69,-480.24 88.08,-475.78 92.81,-485.26 97.69,-480.24"/>
</g>
<!-- Node39 -->
<g id="node35" class="node">
<title>Node39</title>
<g id="a_node35"><a xlink:href="classtracktion__engine_1_1OutputDevice.html" target="_top" xlink:title="Base class for audio or midi output devices, to which a track&#39;s output can be sent.">
<polygon fill="none" stroke="black" points="214.5,-514 214.5,-544 351.5,-544 351.5,-514 214.5,-514"/>
<text text-anchor="start" x="222.5" y="-532" font-family="Helvetica,sans-Serif" font-size="10.00">tracktion_engine::Output</text>
<text text-anchor="middle" x="283" y="-521" font-family="Helvetica,sans-Serif" font-size="10.00">Device</text>
</a>
</g>
</g>
<!-- Node1&#45;&gt;Node39 -->
<g id="edge34" class="edge">
<title>Node1&#45;&gt;Node39</title>
<path fill="none" stroke="midnightblue" d="M115.21,-479C137.11,-486.6 165.53,-496.21 191,-504 201.97,-507.36 213.74,-510.75 225.06,-513.9"/>
<polygon fill="midnightblue" stroke="midnightblue" points="116.23,-475.65 105.64,-475.66 113.93,-482.26 116.23,-475.65"/>
</g>
<!-- Node43 -->
<g id="node38" class="node">
<title>Node43</title>
<g id="a_node38"><a xlink:href="classtracktion__engine_1_1Plugin.html" target="_top" xlink:title=" ">
<polygon fill="none" stroke="red" points="216,-475.5 216,-494.5 350,-494.5 350,-475.5 216,-475.5"/>
<text text-anchor="middle" x="283" y="-482.5" font-family="Helvetica,sans-Serif" font-size="10.00">tracktion_engine::Plugin</text>
</a>
</g>
</g>
<!-- Node1&#45;&gt;Node43 -->
<g id="edge37" class="edge">
<title>Node1&#45;&gt;Node43</title>
<path fill="none" stroke="midnightblue" d="M165.53,-474.13C182.36,-475.7 199.73,-477.32 215.76,-478.82"/>
<polygon fill="midnightblue" stroke="midnightblue" points="165.43,-470.6 155.14,-473.16 164.78,-477.57 165.43,-470.6"/>
</g>
<!-- Node71 -->
<g id="node39" class="node">
<title>Node71</title>
<g id="a_node39"><a xlink:href="classtracktion__engine_1_1Project.html" target="_top" xlink:title="A tracktion project.">
<polygon fill="none" stroke="black" points="214,-437.5 214,-456.5 352,-456.5 352,-437.5 214,-437.5"/>
<text text-anchor="middle" x="283" y="-444.5" font-family="Helvetica,sans-Serif" font-size="10.00">tracktion_engine::Project</text>
</a>
</g>
</g>
<!-- Node1&#45;&gt;Node71 -->
<g id="edge38" class="edge">
<title>Node1&#45;&gt;Node71</title>
<path fill="none" stroke="midnightblue" d="M165.18,-457.91C181.42,-456.39 198.19,-454.82 213.78,-453.37"/>
<polygon fill="midnightblue" stroke="midnightblue" points="164.78,-454.43 155.14,-458.84 165.43,-461.4 164.78,-454.43"/>
</g>
<!-- Node72 -->
<g id="node40" class="node">
<title>Node72</title>
<g id="a_node40"><a xlink:href="classtracktion__engine_1_1ProjectItem.html" target="_top" xlink:title="Represents a file&#45;based resource that is used in a project.">
<polygon fill="none" stroke="black" points="202.5,-399.5 202.5,-418.5 363.5,-418.5 363.5,-399.5 202.5,-399.5"/>
<text text-anchor="middle" x="283" y="-406.5" font-family="Helvetica,sans-Serif" font-size="10.00">tracktion_engine::ProjectItem</text>
</a>
</g>
</g>
<!-- Node1&#45;&gt;Node72 -->
<g id="edge39" class="edge">
<title>Node1&#45;&gt;Node72</title>
<path fill="none" stroke="midnightblue" d="M113.73,-452.89C135.74,-445 164.78,-435.14 191,-428 203.77,-424.52 217.7,-421.33 230.73,-418.58"/>
<polygon fill="midnightblue" stroke="midnightblue" points="112.36,-449.66 104.15,-456.36 114.74,-456.24 112.36,-449.66"/>
</g>
<!-- Node73 -->
<g id="node41" class="node">
<title>Node73</title>
<g id="a_node41"><a xlink:href="classtracktion__engine_1_1RackType.html" target="_top" xlink:title=" ">
<polygon fill="none" stroke="black" points="207.5,-361.5 207.5,-380.5 358.5,-380.5 358.5,-361.5 207.5,-361.5"/>
<text text-anchor="middle" x="283" y="-368.5" font-family="Helvetica,sans-Serif" font-size="10.00">tracktion_engine::RackType</text>
</a>
</g>
</g>
<!-- Node1&#45;&gt;Node73 -->
<g id="edge40" class="edge">
<title>Node1&#45;&gt;Node73</title>
<path fill="none" stroke="midnightblue" d="M97.37,-449.83C118.7,-432.42 155.13,-405.17 191,-390 200.07,-386.17 209.98,-383.08 219.82,-380.6"/>
<polygon fill="midnightblue" stroke="midnightblue" points="94.91,-447.33 89.46,-456.41 99.38,-452.71 94.91,-447.33"/>
</g>
<!-- Node74 -->
<g id="node42" class="node">
<title>Node74</title>
<g id="a_node42"><a xlink:href="classtracktion__engine_1_1SelectedMidiEvents.html" target="_top" xlink:title="Represents a set of selected MIDI notes.">
<polygon fill="none" stroke="black" points="210,-312 210,-342 356,-342 356,-312 210,-312"/>
<text text-anchor="start" x="218" y="-330" font-family="Helvetica,sans-Serif" font-size="10.00">tracktion_engine::Selected</text>
<text text-anchor="middle" x="283" y="-319" font-family="Helvetica,sans-Serif" font-size="10.00">MidiEvents</text>
</a>
</g>
</g>
<!-- Node1&#45;&gt;Node74 -->
<g id="edge41" class="edge">
<title>Node1&#45;&gt;Node74</title>
<path fill="none" stroke="midnightblue" d="M91.25,-448.1C110.16,-422.88 148.05,-377.17 191,-352 197.5,-348.19 204.61,-344.94 211.89,-342.18"/>
<polygon fill="midnightblue" stroke="midnightblue" points="88.26,-446.25 85.17,-456.39 93.91,-450.4 88.26,-446.25"/>
</g>
<!-- Node75 -->
<g id="node43" class="node">
<title>Node75</title>
<g id="a_node43"><a xlink:href="structtracktion__engine_1_1StepClip_1_1Channel.html" target="_top" xlink:title=" ">
<polygon fill="none" stroke="black" points="210.5,-263 210.5,-293 355.5,-293 355.5,-263 210.5,-263"/>
<text text-anchor="start" x="218.5" y="-281" font-family="Helvetica,sans-Serif" font-size="10.00">tracktion_engine::StepClip</text>
<text text-anchor="middle" x="283" y="-270" font-family="Helvetica,sans-Serif" font-size="10.00">::Channel</text>
</a>
</g>
</g>
<!-- Node1&#45;&gt;Node75 -->
<g id="edge42" class="edge">
<title>Node1&#45;&gt;Node75</title>
<path fill="none" stroke="midnightblue" d="M86.1,-447.11C100.92,-412.74 137.03,-340.02 191,-302 196.88,-297.86 203.42,-294.43 210.23,-291.6"/>
<polygon fill="midnightblue" stroke="midnightblue" points="82.81,-445.89 82.19,-456.47 89.27,-448.59 82.81,-445.89"/>
</g>
<!-- Node76 -->
<g id="node44" class="node">
<title>Node76</title>
<g id="a_node44"><a xlink:href="structtracktion__engine_1_1StepClip_1_1PatternInstance.html" target="_top" xlink:title=" ">
<polygon fill="none" stroke="black" points="210.5,-214 210.5,-244 355.5,-244 355.5,-214 210.5,-214"/>
<text text-anchor="start" x="218.5" y="-232" font-family="Helvetica,sans-Serif" font-size="10.00">tracktion_engine::StepClip</text>
<text text-anchor="middle" x="283" y="-221" font-family="Helvetica,sans-Serif" font-size="10.00">::PatternInstance</text>
</a>
</g>
</g>
<!-- Node1&#45;&gt;Node76 -->
<g id="edge43" class="edge">
<title>Node1&#45;&gt;Node76</title>
<path fill="none" stroke="midnightblue" d="M83.18,-446.27C94.23,-404.04 126.07,-304.58 191,-253 196.76,-248.43 203.3,-244.72 210.18,-241.71"/>
<polygon fill="midnightblue" stroke="midnightblue" points="79.74,-445.59 80.7,-456.14 86.53,-447.29 79.74,-445.59"/>
</g>
<!-- Node77 -->
<g id="node45" class="node">
<title>Node77</title>
<g id="a_node45"><a xlink:href="structtracktion__engine_1_1StepVolumeEffect.html" target="_top" xlink:title=" ">
<polygon fill="none" stroke="black" points="201.5,-165 201.5,-195 364.5,-195 364.5,-165 201.5,-165"/>
<text text-anchor="start" x="209.5" y="-183" font-family="Helvetica,sans-Serif" font-size="10.00">tracktion_engine::StepVolume</text>
<text text-anchor="middle" x="283" y="-172" font-family="Helvetica,sans-Serif" font-size="10.00">Effect</text>
</a>
</g>
</g>
<!-- Node1&#45;&gt;Node77 -->
<g id="edge44" class="edge">
<title>Node1&#45;&gt;Node77</title>
<path fill="none" stroke="midnightblue" d="M81.06,-446.22C88.46,-397.33 114.47,-269.99 191,-204 194.96,-200.59 199.35,-197.65 204.01,-195.13"/>
<polygon fill="midnightblue" stroke="midnightblue" points="77.55,-446 79.62,-456.39 84.49,-446.98 77.55,-446"/>
</g>
<!-- Node78 -->
<g id="node46" class="node">
<title>Node78</title>
<g id="a_node46"><a xlink:href="classtracktion__engine_1_1TempoSequence.html" target="_top" xlink:title="Holds a list of TempoSetting objects, to form a sequence of tempo changes.">
<polygon fill="none" stroke="black" points="191,-126.5 191,-145.5 375,-145.5 375,-126.5 191,-126.5"/>
<text text-anchor="middle" x="283" y="-133.5" font-family="Helvetica,sans-Serif" font-size="10.00">tracktion_engine::TempoSequence</text>
</a>
</g>
</g>
<!-- Node1&#45;&gt;Node78 -->
<g id="edge45" class="edge">
<title>Node1&#45;&gt;Node78</title>
<path fill="none" stroke="midnightblue" d="M79.34,-446.08C82.8,-390.65 100.52,-233.53 191,-155 195.39,-151.19 200.34,-148.08 205.61,-145.54"/>
<polygon fill="midnightblue" stroke="midnightblue" points="75.83,-446.13 78.79,-456.3 82.82,-446.5 75.83,-446.13"/>
</g>
<!-- Node79 -->
<g id="node47" class="node">
<title>Node79</title>
<g id="a_node47"><a xlink:href="classtracktion__engine_1_1Track.html" target="_top" xlink:title="Base class for tracks which contain clips and plugins and can be added to Edit[s].">
<polygon fill="none" stroke="red" points="218,-88.5 218,-107.5 348,-107.5 348,-88.5 218,-88.5"/>
<text text-anchor="middle" x="283" y="-95.5" font-family="Helvetica,sans-Serif" font-size="10.00">tracktion_engine::Track</text>
</a>
</g>
</g>
<!-- Node1&#45;&gt;Node79 -->
<g id="edge46" class="edge">
<title>Node1&#45;&gt;Node79</title>
<path fill="none" stroke="midnightblue" d="M78.44,-446.11C79.42,-386.35 90.93,-206.99 191,-117 198.56,-110.2 207.91,-105.6 217.71,-102.52"/>
<polygon fill="midnightblue" stroke="midnightblue" points="74.94,-446.38 78.36,-456.41 81.94,-446.43 74.94,-446.38"/>
</g>
<!-- Node89 -->
<g id="node48" class="node">
<title>Node89</title>
<g id="a_node48"><a xlink:href="structtracktion__engine_1_1TrackCompManager_1_1TrackComp.html" target="_top" xlink:title=" ">
<polygon fill="none" stroke="black" points="204,-39 204,-69 362,-69 362,-39 204,-39"/>
<text text-anchor="start" x="212" y="-57" font-family="Helvetica,sans-Serif" font-size="10.00">tracktion_engine::TrackComp</text>
<text text-anchor="middle" x="283" y="-46" font-family="Helvetica,sans-Serif" font-size="10.00">Manager::TrackComp</text>
</a>
</g>
</g>
<!-- Node1&#45;&gt;Node89 -->
<g id="edge47" class="edge">
<title>Node1&#45;&gt;Node89</title>
<path fill="none" stroke="midnightblue" d="M77.97,-445.97C77.44,-382.48 84.73,-183.71 191,-79 194.85,-75.21 199.22,-71.97 203.91,-69.22"/>
<polygon fill="midnightblue" stroke="midnightblue" points="74.48,-446.26 78.14,-456.2 81.48,-446.14 74.48,-446.26"/>
</g>
<!-- Node90 -->
<g id="node49" class="node">
<title>Node90</title>
<g id="a_node49"><a xlink:href="classtracktion__engine_1_1TrackItem.html" target="_top" xlink:title="Base class for EditItems that live in a Track, e.g.">
<polygon fill="none" stroke="red" points="207,-0.5 207,-19.5 359,-19.5 359,-0.5 207,-0.5"/>
<text text-anchor="middle" x="283" y="-7.5" font-family="Helvetica,sans-Serif" font-size="10.00">tracktion_engine::TrackItem</text>
</a>
</g>
</g>
<!-- Node1&#45;&gt;Node90 -->
<g id="edge48" class="edge">
<title>Node1&#45;&gt;Node90</title>
<path fill="none" stroke="midnightblue" d="M80.83,-446.24C90.32,-368.97 128.62,-88.57 191,-29 195.67,-24.54 201.1,-21.01 206.94,-18.23"/>
<polygon fill="midnightblue" stroke="midnightblue" points="77.31,-446.13 79.59,-456.48 84.26,-446.97 77.31,-446.13"/>
</g>
<!-- Node3 -->
<g id="node3" class="node">
<title>Node3</title>
<g id="a_node3"><a xlink:href="structtracktion__engine_1_1DiscreteLabelledParameter.html" target="_top" xlink:title=" ">
<polygon fill="none" stroke="black" points="441.5,-1482 441.5,-1512 586.5,-1512 586.5,-1482 441.5,-1482"/>
<text text-anchor="start" x="449.5" y="-1500" font-family="Helvetica,sans-Serif" font-size="10.00">tracktion_engine::Discrete</text>
<text text-anchor="middle" x="514" y="-1489" font-family="Helvetica,sans-Serif" font-size="10.00">LabelledParameter</text>
</a>
</g>
</g>
<!-- Node2&#45;&gt;Node3 -->
<g id="edge2" class="edge">
<title>Node2&#45;&gt;Node3</title>
<path fill="none" stroke="midnightblue" d="M308.37,-1403.95C332.69,-1424.72 371.95,-1455.26 411,-1473 420.52,-1477.33 430.91,-1480.92 441.3,-1483.89"/>
<polygon fill="midnightblue" stroke="midnightblue" points="310.57,-1401.23 300.72,-1397.32 305.98,-1406.52 310.57,-1401.23"/>
</g>
<!-- Node4 -->
<g id="node4" class="node">
<title>Node4</title>
<g id="a_node4"><a xlink:href="classtracktion__engine_1_1ExternalAutomatableParameter.html" target="_top" xlink:title=" ">
<polygon fill="none" stroke="black" points="441.5,-1433 441.5,-1463 586.5,-1463 586.5,-1433 441.5,-1433"/>
<text text-anchor="start" x="449.5" y="-1451" font-family="Helvetica,sans-Serif" font-size="10.00">tracktion_engine::External</text>
<text text-anchor="middle" x="514" y="-1440" font-family="Helvetica,sans-Serif" font-size="10.00">AutomatableParameter</text>
</a>
</g>
</g>
<!-- Node2&#45;&gt;Node4 -->
<g id="edge3" class="edge">
<title>Node2&#45;&gt;Node4</title>
<path fill="none" stroke="midnightblue" d="M337.57,-1400.24C360.13,-1407.67 386.73,-1416.12 411,-1423 423.1,-1426.43 436.09,-1429.83 448.61,-1432.96"/>
<polygon fill="midnightblue" stroke="midnightblue" points="338.44,-1396.84 327.84,-1397.01 336.23,-1403.48 338.44,-1396.84"/>
</g>
<!-- Node5 -->
<g id="node5" class="node">
<title>Node5</title>
<g id="a_node5"><a xlink:href="classtracktion__engine_1_1MacroParameter.html" target="_top" xlink:title="A MacroParameter is an AutomatableParameter which is a collection of Mappings.">
<polygon fill="none" stroke="black" points="421.5,-1394.5 421.5,-1413.5 606.5,-1413.5 606.5,-1394.5 421.5,-1394.5"/>
<text text-anchor="middle" x="514" y="-1401.5" font-family="Helvetica,sans-Serif" font-size="10.00">tracktion_engine::MacroParameter</text>
</a>
</g>
</g>
<!-- Node2&#45;&gt;Node5 -->
<g id="edge4" class="edge">
<title>Node2&#45;&gt;Node5</title>
<path fill="none" stroke="midnightblue" d="M376.72,-1390.91C391.37,-1392.31 406.51,-1393.77 421.14,-1395.17"/>
<polygon fill="midnightblue" stroke="midnightblue" points="376.96,-1387.41 366.67,-1389.94 376.29,-1394.38 376.96,-1387.41"/>
</g>
<!-- Node6 -->
<g id="node6" class="node">
<title>Node6</title>
<g id="a_node6"><a xlink:href="structtracktion__engine_1_1PluginWetDryAutomatableParam.html" target="_top" xlink:title="specialised AutomatableParameter for wet/dry.">
<polygon fill="none" stroke="black" points="441,-1345 441,-1375 587,-1375 587,-1345 441,-1345"/>
<text text-anchor="start" x="449" y="-1363" font-family="Helvetica,sans-Serif" font-size="10.00">tracktion_engine::Plugin</text>
<text text-anchor="middle" x="514" y="-1352" font-family="Helvetica,sans-Serif" font-size="10.00">WetDryAutomatableParam</text>
</a>
</g>
</g>
<!-- Node2&#45;&gt;Node6 -->
<g id="edge5" class="edge">
<title>Node2&#45;&gt;Node6</title>
<path fill="none" stroke="midnightblue" d="M376.71,-1373.09C398.02,-1371.05 420.38,-1368.9 440.68,-1366.95"/>
<polygon fill="midnightblue" stroke="midnightblue" points="376.29,-1369.62 366.67,-1374.06 376.96,-1376.59 376.29,-1369.62"/>
</g>
<!-- Node7 -->
<g id="node7" class="node">
<title>Node7</title>
<g id="a_node7"><a xlink:href="structtracktion__engine_1_1SuffixedParameter.html" target="_top" xlink:title=" ">
<polygon fill="none" stroke="black" points="442.5,-1296 442.5,-1326 585.5,-1326 585.5,-1296 442.5,-1296"/>
<text text-anchor="start" x="450.5" y="-1314" font-family="Helvetica,sans-Serif" font-size="10.00">tracktion_engine::Suffixed</text>
<text text-anchor="middle" x="514" y="-1303" font-family="Helvetica,sans-Serif" font-size="10.00">Parameter</text>
</a>
</g>
</g>
<!-- Node2&#45;&gt;Node7 -->
<g id="edge6" class="edge">
<title>Node2&#45;&gt;Node7</title>
<path fill="none" stroke="midnightblue" d="M331.71,-1363.35C355.36,-1354.45 384.47,-1344.03 411,-1336 422.6,-1332.49 435.06,-1329.11 447.15,-1326.04"/>
<polygon fill="midnightblue" stroke="midnightblue" points="330.38,-1360.11 322.27,-1366.93 332.86,-1366.65 330.38,-1360.11"/>
</g>
<!-- Node9 -->
<g id="node9" class="node">
<title>Node9</title>
<g id="a_node9"><a xlink:href="classtracktion__engine_1_1AlphaTrackControlSurface.html" target="_top" xlink:title=" ">
<polygon fill="none" stroke="black" points="435,-1247 435,-1277 593,-1277 593,-1247 435,-1247"/>
<text text-anchor="start" x="443" y="-1265" font-family="Helvetica,sans-Serif" font-size="10.00">tracktion_engine::AlphaTrack</text>
<text text-anchor="middle" x="514" y="-1254" font-family="Helvetica,sans-Serif" font-size="10.00">ControlSurface</text>
</a>
</g>
</g>
<!-- Node8&#45;&gt;Node9 -->
<g id="edge8" class="edge">
<title>Node8&#45;&gt;Node9</title>
<path fill="none" stroke="midnightblue" d="M300.88,-1135.33C322.92,-1164.02 364.23,-1212.07 411,-1238 418.4,-1242.1 426.47,-1245.51 434.74,-1248.33"/>
<polygon fill="midnightblue" stroke="midnightblue" points="303.49,-1132.98 294.68,-1127.1 297.9,-1137.19 303.49,-1132.98"/>
</g>
<!-- Node10 -->
<g id="node10" class="node">
<title>Node10</title>
<g id="a_node10"><a xlink:href="classtracktion__engine_1_1CustomControlSurface.html" target="_top" xlink:title=" ">
<polygon fill="none" stroke="black" points="443,-1198 443,-1228 585,-1228 585,-1198 443,-1198"/>
<text text-anchor="start" x="451" y="-1216" font-family="Helvetica,sans-Serif" font-size="10.00">tracktion_engine::Custom</text>
<text text-anchor="middle" x="514" y="-1205" font-family="Helvetica,sans-Serif" font-size="10.00">ControlSurface</text>
</a>
</g>
</g>
<!-- Node8&#45;&gt;Node10 -->
<g id="edge9" class="edge">
<title>Node8&#45;&gt;Node10</title>
<path fill="none" stroke="midnightblue" d="M313.26,-1132.98C338.18,-1149.97 375.49,-1173.41 411,-1188 421.12,-1192.16 432.1,-1195.74 442.98,-1198.79"/>
<polygon fill="midnightblue" stroke="midnightblue" points="315.2,-1130.06 304.98,-1127.26 311.22,-1135.82 315.2,-1130.06"/>
</g>
<!-- Node11 -->
<g id="node11" class="node">
<title>Node11</title>
<g id="a_node11"><a xlink:href="classtracktion__engine_1_1MackieC4.html" target="_top" xlink:title=" ">
<polygon fill="none" stroke="black" points="438,-1159.5 438,-1178.5 590,-1178.5 590,-1159.5 438,-1159.5"/>
<text text-anchor="middle" x="514" y="-1166.5" font-family="Helvetica,sans-Serif" font-size="10.00">tracktion_engine::MackieC4</text>
</a>
</g>
</g>
<!-- Node8&#45;&gt;Node11 -->
<g id="edge10" class="edge">
<title>Node8&#45;&gt;Node11</title>
<path fill="none" stroke="midnightblue" d="M339.96,-1130.15C361.96,-1136.91 387.53,-1144.32 411,-1150 425.44,-1153.5 441.17,-1156.71 455.86,-1159.46"/>
<polygon fill="midnightblue" stroke="midnightblue" points="340.71,-1126.71 330.12,-1127.09 338.64,-1133.4 340.71,-1126.71"/>
</g>
<!-- Node12 -->
<g id="node12" class="node">
<title>Node12</title>
<g id="a_node12"><a xlink:href="classtracktion__engine_1_1MackieMCU.html" target="_top" xlink:title=" ">
<polygon fill="none" stroke="red" points="432.5,-1121.5 432.5,-1140.5 595.5,-1140.5 595.5,-1121.5 432.5,-1121.5"/>
<text text-anchor="middle" x="514" y="-1128.5" font-family="Helvetica,sans-Serif" font-size="10.00">tracktion_engine::MackieMCU</text>
</a>
</g>
</g>
<!-- Node8&#45;&gt;Node12 -->
<g id="edge11" class="edge">
<title>Node8&#45;&gt;Node12</title>
<path fill="none" stroke="midnightblue" d="M363.16,-1118.57C385.56,-1120.43 409.97,-1122.45 432.45,-1124.32"/>
<polygon fill="midnightblue" stroke="midnightblue" points="363.27,-1115.07 353.02,-1117.73 362.69,-1122.04 363.27,-1115.07"/>
</g>
<!-- Node14 -->
<g id="node13" class="node">
<title>Node14</title>
<g id="a_node13"><a xlink:href="classtracktion__engine_1_1MackieXT.html" target="_top" xlink:title=" ">
<polygon fill="none" stroke="black" points="438,-1083.5 438,-1102.5 590,-1102.5 590,-1083.5 438,-1083.5"/>
<text text-anchor="middle" x="514" y="-1090.5" font-family="Helvetica,sans-Serif" font-size="10.00">tracktion_engine::MackieXT</text>
</a>
</g>
</g>
<!-- Node8&#45;&gt;Node14 -->
<g id="edge12" class="edge">
<title>Node8&#45;&gt;Node14</title>
<path fill="none" stroke="midnightblue" d="M363.21,-1105.43C387.37,-1103.42 413.85,-1101.23 437.73,-1099.24"/>
<polygon fill="midnightblue" stroke="midnightblue" points="362.69,-1101.96 353.02,-1106.27 363.27,-1108.93 362.69,-1101.96"/>
</g>
<!-- Node15 -->
<g id="node14" class="node">
<title>Node15</title>
<g id="a_node14"><a xlink:href="classtracktion__engine_1_1NovationRemoteSl.html" target="_top" xlink:title=" ">
<polygon fill="none" stroke="red" points="439.5,-1034 439.5,-1064 588.5,-1064 588.5,-1034 439.5,-1034"/>
<text text-anchor="start" x="447.5" y="-1052" font-family="Helvetica,sans-Serif" font-size="10.00">tracktion_engine::Novation</text>
<text text-anchor="middle" x="514" y="-1041" font-family="Helvetica,sans-Serif" font-size="10.00">RemoteSl</text>
</a>
</g>
</g>
<!-- Node8&#45;&gt;Node15 -->
<g id="edge13" class="edge">
<title>Node8&#45;&gt;Node15</title>
<path fill="none" stroke="midnightblue" d="M341.78,-1094.04C363.43,-1087.49 388.28,-1080.18 411,-1074 423.4,-1070.63 436.71,-1067.22 449.48,-1064.04"/>
<polygon fill="midnightblue" stroke="midnightblue" points="340.63,-1090.73 332.08,-1096.99 342.67,-1097.43 340.63,-1090.73"/>
</g>
<!-- Node17 -->
<g id="node15" class="node">
<title>Node17</title>
<g id="a_node15"><a xlink:href="classtracktion__engine_1_1TranzportControlSurface.html" target="_top" xlink:title=" ">
<polygon fill="none" stroke="black" points="439.5,-985 439.5,-1015 588.5,-1015 588.5,-985 439.5,-985"/>
<text text-anchor="start" x="447.5" y="-1003" font-family="Helvetica,sans-Serif" font-size="10.00">tracktion_engine::Tranzport</text>
<text text-anchor="middle" x="514" y="-992" font-family="Helvetica,sans-Serif" font-size="10.00">ControlSurface</text>
</a>
</g>
</g>
<!-- Node8&#45;&gt;Node17 -->
<g id="edge14" class="edge">
<title>Node8&#45;&gt;Node17</title>
<path fill="none" stroke="midnightblue" d="M309.74,-1090.2C334.28,-1070.47 373.03,-1041.98 411,-1025 419.99,-1020.98 429.72,-1017.55 439.49,-1014.63"/>
<polygon fill="midnightblue" stroke="midnightblue" points="307.21,-1087.75 301.68,-1096.78 311.64,-1093.17 307.21,-1087.75"/>
</g>
<!-- Node19 -->
<g id="node17" class="node">
<title>Node19</title>
<g id="a_node17"><a xlink:href="classtracktion__engine_1_1TempoSetting.html" target="_top" xlink:title="A tempo value, as used in a TempoSequence.">
<polygon fill="none" stroke="black" points="428.5,-946.5 428.5,-965.5 599.5,-965.5 599.5,-946.5 428.5,-946.5"/>
<text text-anchor="middle" x="514" y="-953.5" font-family="Helvetica,sans-Serif" font-size="10.00">tracktion_engine::TempoSetting</text>
</a>
</g>
</g>
<!-- Node18&#45;&gt;Node19 -->
<g id="edge16" class="edge">
<title>Node18&#45;&gt;Node19</title>
<path fill="none" stroke="midnightblue" d="M373.69,-935.32C398.84,-939.05 425.67,-943.03 449,-946.5"/>
<polygon fill="midnightblue" stroke="midnightblue" points="374.18,-931.85 363.77,-933.84 373.15,-938.77 374.18,-931.85"/>
</g>
<!-- Node22 -->
<g id="node20" class="node">
<title>Node22</title>
<g id="a_node20"><a xlink:href="classtracktion__engine_1_1MidiInputDevice.html" target="_top" xlink:title=" ">
<polygon fill="none" stroke="red" points="439,-897 439,-927 589,-927 589,-897 439,-897"/>
<text text-anchor="start" x="447" y="-915" font-family="Helvetica,sans-Serif" font-size="10.00">tracktion_engine::MidiInput</text>
<text text-anchor="middle" x="514" y="-904" font-family="Helvetica,sans-Serif" font-size="10.00">Device</text>
</a>
</g>
</g>
<!-- Node21&#45;&gt;Node22 -->
<g id="edge19" class="edge">
<title>Node21&#45;&gt;Node22</title>
<path fill="none" stroke="midnightblue" d="M367.03,-819.98C369.8,-821.49 372.47,-823.16 375,-825 401.08,-843.97 385.16,-868.71 411,-888 419.31,-894.2 428.97,-898.84 438.98,-902.29"/>
<polygon fill="midnightblue" stroke="midnightblue" points="368.41,-816.76 357.88,-815.64 365.42,-823.09 368.41,-816.76"/>
</g>
<!-- Node25 -->
<g id="node21" class="node">
<title>Node25</title>
<g id="a_node21"><a xlink:href="classtracktion__engine_1_1WaveInputDevice.html" target="_top" xlink:title="A (virtual) audio input device.">
<polygon fill="none" stroke="black" points="436,-848 436,-878 592,-878 592,-848 436,-848"/>
<text text-anchor="start" x="444" y="-866" font-family="Helvetica,sans-Serif" font-size="10.00">tracktion_engine::WaveInput</text>
<text text-anchor="middle" x="514" y="-855" font-family="Helvetica,sans-Serif" font-size="10.00">Device</text>
</a>
</g>
</g>
<!-- Node21&#45;&gt;Node25 -->
<g id="edge20" class="edge">
<title>Node21&#45;&gt;Node25</title>
<path fill="none" stroke="midnightblue" d="M347.35,-817.82C356.68,-819.97 366.14,-822.37 375,-825 391.46,-829.88 394.6,-833.91 411,-839 421.34,-842.21 432.38,-845.22 443.24,-847.96"/>
<polygon fill="midnightblue" stroke="midnightblue" points="347.82,-814.34 337.3,-815.59 346.3,-821.17 347.82,-814.34"/>
</g>
<!-- Node27 -->
<g id="node23" class="node">
<title>Node27</title>
<g id="a_node23"><a xlink:href="structtracktion__engine_1_1InputDeviceInstance_1_1MidiInputDeviceDestination.html" target="_top" xlink:title=" ">
<polygon fill="none" stroke="black" points="414,-799 414,-829 614,-829 614,-799 414,-799"/>
<text text-anchor="start" x="422" y="-817" font-family="Helvetica,sans-Serif" font-size="10.00">tracktion_engine::InputDevice</text>
<text text-anchor="middle" x="514" y="-806" font-family="Helvetica,sans-Serif" font-size="10.00">Instance::MidiInputDeviceDestination</text>
</a>
</g>
</g>
<!-- Node26&#45;&gt;Node27 -->
<g id="edge22" class="edge">
<title>Node26&#45;&gt;Node27</title>
<path fill="none" stroke="midnightblue" d="M321.95,-750.61C346.79,-762.87 380.24,-778.31 411,-789 421.51,-792.65 432.8,-795.98 443.9,-798.94"/>
<polygon fill="midnightblue" stroke="midnightblue" points="323.38,-747.41 312.87,-746.08 320.25,-753.67 323.38,-747.41"/>
</g>
<!-- Node28 -->
<g id="node24" class="node">
<title>Node28</title>
<g id="a_node24"><a xlink:href="structtracktion__engine_1_1InputDeviceInstance_1_1VirtualMidiInputDeviceDestination.html" target="_top" xlink:title=" ">
<polygon fill="none" stroke="black" points="426,-738.5 426,-779.5 602,-779.5 602,-738.5 426,-738.5"/>
<text text-anchor="start" x="434" y="-767.5" font-family="Helvetica,sans-Serif" font-size="10.00">tracktion_engine::InputDevice</text>
<text text-anchor="start" x="434" y="-756.5" font-family="Helvetica,sans-Serif" font-size="10.00">Instance::VirtualMidiInputDevice</text>
<text text-anchor="middle" x="514" y="-745.5" font-family="Helvetica,sans-Serif" font-size="10.00">Destination</text>
</a>
</g>
</g>
<!-- Node26&#45;&gt;Node28 -->
<g id="edge23" class="edge">
<title>Node26&#45;&gt;Node28</title>
<path fill="none" stroke="midnightblue" d="M382.87,-743.09C397.16,-744.84 411.79,-746.62 425.83,-748.34"/>
<polygon fill="midnightblue" stroke="midnightblue" points="382.89,-739.57 372.54,-741.83 382.04,-746.51 382.89,-739.57"/>
</g>
<!-- Node29 -->
<g id="node25" class="node">
<title>Node29</title>
<g id="a_node25"><a xlink:href="structtracktion__engine_1_1InputDeviceInstance_1_1WaveInputDeviceDestination.html" target="_top" xlink:title=" ">
<polygon fill="none" stroke="black" points="411,-689 411,-719 617,-719 617,-689 411,-689"/>
<text text-anchor="start" x="419" y="-707" font-family="Helvetica,sans-Serif" font-size="10.00">tracktion_engine::InputDevice</text>
<text text-anchor="middle" x="514" y="-696" font-family="Helvetica,sans-Serif" font-size="10.00">Instance::WaveInputDeviceDestination</text>
</a>
</g>
</g>
<!-- Node26&#45;&gt;Node29 -->
<g id="edge24" class="edge">
<title>Node26&#45;&gt;Node29</title>
<path fill="none" stroke="midnightblue" d="M382.65,-719.37C392.03,-718.26 401.56,-717.14 410.97,-716.03"/>
<polygon fill="midnightblue" stroke="midnightblue" points="382.06,-715.91 372.54,-720.56 382.88,-722.87 382.06,-715.91"/>
</g>
<!-- Node32 -->
<g id="node28" class="node">
<title>Node32</title>
<g id="a_node28"><a xlink:href="classtracktion__engine_1_1BreakpointOscillatorModifier.html" target="_top" xlink:title=" ">
<polygon fill="none" stroke="black" points="435,-640 435,-670 593,-670 593,-640 435,-640"/>
<text text-anchor="start" x="443" y="-658" font-family="Helvetica,sans-Serif" font-size="10.00">tracktion_engine::Breakpoint</text>
<text text-anchor="middle" x="514" y="-647" font-family="Helvetica,sans-Serif" font-size="10.00">OscillatorModifier</text>
</a>
</g>
</g>
<!-- Node31&#45;&gt;Node32 -->
<g id="edge27" class="edge">
<title>Node31&#45;&gt;Node32</title>
<path fill="none" stroke="midnightblue" d="M360.07,-632.96C384.15,-636.43 410.78,-640.27 434.99,-643.76"/>
<polygon fill="midnightblue" stroke="midnightblue" points="360.33,-629.46 349.93,-631.5 359.33,-636.39 360.33,-629.46"/>
</g>
<!-- Node33 -->
<g id="node29" class="node">
<title>Node33</title>
<g id="a_node29"><a xlink:href="classtracktion__engine_1_1EnvelopeFollowerModifier.html" target="_top" xlink:title=" ">
<polygon fill="none" stroke="black" points="439.5,-591 439.5,-621 588.5,-621 588.5,-591 439.5,-591"/>
<text text-anchor="start" x="447.5" y="-609" font-family="Helvetica,sans-Serif" font-size="10.00">tracktion_engine::Envelope</text>
<text text-anchor="middle" x="514" y="-598" font-family="Helvetica,sans-Serif" font-size="10.00">FollowerModifier</text>
</a>
</g>
</g>
<!-- Node31&#45;&gt;Node33 -->
<g id="edge28" class="edge">
<title>Node31&#45;&gt;Node33</title>
<path fill="none" stroke="midnightblue" d="M365.41,-616.31C389.55,-614.63 415.85,-612.79 439.47,-611.14"/>
<polygon fill="midnightblue" stroke="midnightblue" points="364.93,-612.84 355.2,-617.03 365.42,-619.82 364.93,-612.84"/>
</g>
<!-- Node34 -->
<g id="node30" class="node">
<title>Node34</title>
<g id="a_node30"><a xlink:href="classtracktion__engine_1_1LFOModifier.html" target="_top" xlink:title=" ">
<polygon fill="none" stroke="black" points="432.5,-552.5 432.5,-571.5 595.5,-571.5 595.5,-552.5 432.5,-552.5"/>
<text text-anchor="middle" x="514" y="-559.5" font-family="Helvetica,sans-Serif" font-size="10.00">tracktion_engine::LFOModifier</text>
</a>
</g>
</g>
<!-- Node31&#45;&gt;Node34 -->
<g id="edge29" class="edge">
<title>Node31&#45;&gt;Node34</title>
<path fill="none" stroke="midnightblue" d="M353.3,-609.98C360.73,-607.97 368.09,-605.66 375,-603 392.29,-596.35 393.67,-588.54 411,-582 422.48,-577.67 435.06,-574.23 447.34,-571.51"/>
<polygon fill="midnightblue" stroke="midnightblue" points="352.38,-606.61 343.54,-612.45 354.1,-613.39 352.38,-606.61"/>
</g>
<!-- Node35 -->
<g id="node31" class="node">
<title>Node35</title>
<g id="a_node31"><a xlink:href="classtracktion__engine_1_1MIDITrackerModifier.html" target="_top" xlink:title=" ">
<polygon fill="none" stroke="black" points="433.5,-503 433.5,-533 594.5,-533 594.5,-503 433.5,-503"/>
<text text-anchor="start" x="441.5" y="-521" font-family="Helvetica,sans-Serif" font-size="10.00">tracktion_engine::MIDITracker</text>
<text text-anchor="middle" x="514" y="-510" font-family="Helvetica,sans-Serif" font-size="10.00">Modifier</text>
</a>
</g>
</g>
<!-- Node31&#45;&gt;Node35 -->
<g id="edge30" class="edge">
<title>Node31&#45;&gt;Node35</title>
<path fill="none" stroke="midnightblue" d="M364.47,-609.25C368.15,-607.43 371.69,-605.35 375,-603 400.34,-584.98 385.97,-561.46 411,-543 417.75,-538.02 425.37,-534.03 433.32,-530.82"/>
<polygon fill="midnightblue" stroke="midnightblue" points="362.84,-606.14 355.03,-613.3 365.6,-612.58 362.84,-606.14"/>
</g>
<!-- Node36 -->
<g id="node32" class="node">
<title>Node36</title>
<g id="a_node32"><a xlink:href="classtracktion__engine_1_1RandomModifier.html" target="_top" xlink:title=" ">
<polygon fill="none" stroke="black" points="441.5,-454 441.5,-484 586.5,-484 586.5,-454 441.5,-454"/>
<text text-anchor="start" x="449.5" y="-472" font-family="Helvetica,sans-Serif" font-size="10.00">tracktion_engine::Random</text>
<text text-anchor="middle" x="514" y="-461" font-family="Helvetica,sans-Serif" font-size="10.00">Modifier</text>
</a>
</g>
</g>
<!-- Node31&#45;&gt;Node36 -->
<g id="edge31" class="edge">
<title>Node31&#45;&gt;Node36</title>
<path fill="none" stroke="midnightblue" d="M364.37,-610.56C368.17,-608.4 371.75,-605.9 375,-603 413.06,-569.02 373.53,-528.63 411,-494 419.57,-486.08 430.23,-480.56 441.4,-476.73"/>
<polygon fill="midnightblue" stroke="midnightblue" points="362.66,-607.49 355.16,-614.97 365.69,-613.81 362.66,-607.49"/>
</g>
<!-- Node37 -->
<g id="node33" class="node">
<title>Node37</title>
<g id="a_node33"><a xlink:href="classtracktion__engine_1_1StepModifier.html" target="_top" xlink:title=" ">
<polygon fill="none" stroke="black" points="431,-415.5 431,-434.5 597,-434.5 597,-415.5 431,-415.5"/>
<text text-anchor="middle" x="514" y="-422.5" font-family="Helvetica,sans-Serif" font-size="10.00">tracktion_engine::StepModifier</text>
</a>
</g>
</g>
<!-- Node31&#45;&gt;Node37 -->
<g id="edge32" class="edge">
<title>Node31&#45;&gt;Node37</title>
<path fill="none" stroke="midnightblue" d="M364.48,-611.06C368.28,-608.78 371.83,-606.12 375,-603 426.39,-552.54 359.3,-495.15 411,-445 416.7,-439.47 423.45,-435.25 430.73,-432.06"/>
<polygon fill="midnightblue" stroke="midnightblue" points="362.59,-608.09 355.21,-615.69 365.72,-614.35 362.59,-608.09"/>
</g>
<!-- Node40 -->
<g id="node36" class="node">
<title>Node40</title>
<g id="a_node36"><a xlink:href="classtracktion__engine_1_1MidiOutputDevice.html" target="_top" xlink:title=" ">
<polygon fill="none" stroke="red" points="435,-366 435,-396 593,-396 593,-366 435,-366"/>
<text text-anchor="start" x="443" y="-384" font-family="Helvetica,sans-Serif" font-size="10.00">tracktion_engine::MidiOutput</text>
<text text-anchor="middle" x="514" y="-373" font-family="Helvetica,sans-Serif" font-size="10.00">Device</text>
</a>
</g>
</g>
<!-- Node39&#45;&gt;Node40 -->
<g id="edge35" class="edge">
<title>Node39&#45;&gt;Node40</title>
<path fill="none" stroke="midnightblue" d="M361.2,-513.8C366.18,-511.05 370.85,-507.81 375,-504 409.16,-472.59 376.41,-436.93 411,-406 417.93,-399.8 426.15,-395.08 434.87,-391.5"/>
<polygon fill="midnightblue" stroke="midnightblue" points="359.44,-510.76 351.94,-518.25 362.47,-517.07 359.44,-510.76"/>
</g>
<!-- Node42 -->
<g id="node37" class="node">
<title>Node42</title>
<g id="a_node37"><a xlink:href="classtracktion__engine_1_1WaveOutputDevice.html" target="_top" xlink:title="A (virtual) audio output device.">
<polygon fill="none" stroke="black" points="432,-317 432,-347 596,-347 596,-317 432,-317"/>
<text text-anchor="start" x="440" y="-335" font-family="Helvetica,sans-Serif" font-size="10.00">tracktion_engine::WaveOutput</text>
<text text-anchor="middle" x="514" y="-324" font-family="Helvetica,sans-Serif" font-size="10.00">Device</text>
</a>
</g>
</g>
<!-- Node39&#45;&gt;Node42 -->
<g id="edge36" class="edge">
<title>Node39&#45;&gt;Node42</title>
<path fill="none" stroke="midnightblue" d="M360.78,-514.85C366,-511.87 370.83,-508.29 375,-504 422.16,-455.43 362.95,-403.69 411,-356 416.94,-350.11 424.04,-345.55 431.69,-342.05"/>
<polygon fill="midnightblue" stroke="midnightblue" points="359.12,-511.77 351.68,-519.31 362.2,-518.05 359.12,-511.77"/>
</g>
</g>
</svg>
