<?xml version="1.0" encoding="UTF-8" standalone="no"?>
<!DOCTYPE svg PUBLIC "-//W3C//DTD SVG 1.1//EN"
 "http://www.w3.org/Graphics/SVG/1.1/DTD/svg11.dtd">
<!-- Generated by graphviz version 2.43.0 (0)
 -->
<!-- Title: tracktion::engine::EditItem Pages: 1 -->
<svg width="622pt" height="1509pt"
 viewBox="0.00 0.00 622.00 1509.00" xmlns="http://www.w3.org/2000/svg" xmlns:xlink="http://www.w3.org/1999/xlink">
<g id="graph0" class="graph" transform="scale(1 1) rotate(0) translate(4 1505)">
<title>tracktion::engine::EditItem</title>
<!-- Node1 -->
<g id="node1" class="node">
<title>Node1</title>
<g id="a_node1"><a xlink:title="Base class for objects that live inside an edit &#45; e.g.">
<polygon fill="#bfbfbf" stroke="black" points="0,-539.5 0,-569.5 105,-569.5 105,-539.5 0,-539.5"/>
<text text-anchor="start" x="8" y="-557.5" font-family="Helvetica,sans-Serif" font-size="10.00">tracktion::engine::</text>
<text text-anchor="middle" x="52.5" y="-546.5" font-family="Helvetica,sans-Serif" font-size="10.00">EditItem</text>
</a>
</g>
</g>
<!-- Node2 -->
<g id="node2" class="node">
<title>Node2</title>
<g id="a_node2"><a xlink:href="classtracktion_1_1engine_1_1AutomatableEditItem.html" target="_top" xlink:title="Base class for elements that have some kind of automatable parameters.">
<polygon fill="none" stroke="black" points="141,-955.5 141,-985.5 262,-985.5 262,-955.5 141,-955.5"/>
<text text-anchor="start" x="149" y="-973.5" font-family="Helvetica,sans-Serif" font-size="10.00">tracktion::engine::</text>
<text text-anchor="middle" x="201.5" y="-962.5" font-family="Helvetica,sans-Serif" font-size="10.00">AutomatableEditItem</text>
</a>
</g>
</g>
<!-- Node1&#45;&gt;Node2 -->
<g id="edge1" class="edge">
<title>Node1&#45;&gt;Node2</title>
<path fill="none" stroke="midnightblue" d="M62.41,-579.7C89.9,-657.52 172.94,-892.51 195.04,-955.06"/>
<polygon fill="midnightblue" stroke="midnightblue" points="65.54,-578.06 58.91,-569.8 58.94,-580.39 65.54,-578.06"/>
</g>
<!-- Node39 -->
<g id="node37" class="node">
<title>Node39</title>
<g id="a_node37"><a xlink:href="classtracktion_1_1engine_1_1ClipSlot.html" target="_top" xlink:title="Represents a slot on a track that a Clip can live in to be played as a launched clip.">
<polygon fill="none" stroke="black" points="149,-588.5 149,-618.5 254,-618.5 254,-588.5 149,-588.5"/>
<text text-anchor="start" x="157" y="-606.5" font-family="Helvetica,sans-Serif" font-size="10.00">tracktion::engine::</text>
<text text-anchor="middle" x="201.5" y="-595.5" font-family="Helvetica,sans-Serif" font-size="10.00">ClipSlot</text>
</a>
</g>
</g>
<!-- Node1&#45;&gt;Node39 -->
<g id="edge36" class="edge">
<title>Node1&#45;&gt;Node39</title>
<path fill="none" stroke="midnightblue" d="M108.72,-572.91C124.1,-578.03 140.62,-583.54 155.35,-588.45"/>
<polygon fill="midnightblue" stroke="midnightblue" points="109.4,-569.44 98.8,-569.6 107.18,-576.08 109.4,-569.44"/>
</g>
<!-- Node40 -->
<g id="node38" class="node">
<title>Node40</title>
<g id="a_node38"><a xlink:href="classtracktion_1_1engine_1_1RackType.html" target="_top" xlink:title=" ">
<polygon fill="none" stroke="black" points="149,-539.5 149,-569.5 254,-569.5 254,-539.5 149,-539.5"/>
<text text-anchor="start" x="157" y="-557.5" font-family="Helvetica,sans-Serif" font-size="10.00">tracktion::engine::</text>
<text text-anchor="middle" x="201.5" y="-546.5" font-family="Helvetica,sans-Serif" font-size="10.00">RackType</text>
</a>
</g>
</g>
<!-- Node1&#45;&gt;Node40 -->
<g id="edge37" class="edge">
<title>Node1&#45;&gt;Node40</title>
<path fill="none" stroke="midnightblue" d="M115.37,-554.5C126.45,-554.5 137.89,-554.5 148.65,-554.5"/>
<polygon fill="midnightblue" stroke="midnightblue" points="115.33,-551 105.33,-554.5 115.33,-558 115.33,-551"/>
</g>
<!-- Node41 -->
<g id="node39" class="node">
<title>Node41</title>
<g id="a_node39"><a xlink:href="classtracktion_1_1engine_1_1Track.html" target="_top" xlink:title="Base class for tracks which contain clips and plugins and can be added to Edit[s].">
<polygon fill="none" stroke="black" points="149,-490.5 149,-520.5 254,-520.5 254,-490.5 149,-490.5"/>
<text text-anchor="start" x="157" y="-508.5" font-family="Helvetica,sans-Serif" font-size="10.00">tracktion::engine::</text>
<text text-anchor="middle" x="201.5" y="-497.5" font-family="Helvetica,sans-Serif" font-size="10.00">Track</text>
</a>
</g>
</g>
<!-- Node1&#45;&gt;Node41 -->
<g id="edge38" class="edge">
<title>Node1&#45;&gt;Node41</title>
<path fill="none" stroke="midnightblue" d="M108.72,-536.09C124.1,-530.97 140.62,-525.46 155.35,-520.55"/>
<polygon fill="midnightblue" stroke="midnightblue" points="107.18,-532.92 98.8,-539.4 109.4,-539.56 107.18,-532.92"/>
</g>
<!-- Node51 -->
<g id="node45" class="node">
<title>Node51</title>
<g id="a_node45"><a xlink:href="classtracktion_1_1engine_1_1TrackItem.html" target="_top" xlink:title="Base class for EditItems that live in a Track, e.g.">
<polygon fill="none" stroke="black" points="149,-304.5 149,-334.5 254,-334.5 254,-304.5 149,-304.5"/>
<text text-anchor="start" x="157" y="-322.5" font-family="Helvetica,sans-Serif" font-size="10.00">tracktion::engine::</text>
<text text-anchor="middle" x="201.5" y="-311.5" font-family="Helvetica,sans-Serif" font-size="10.00">TrackItem</text>
</a>
</g>
</g>
<!-- Node1&#45;&gt;Node51 -->
<g id="edge44" class="edge">
<title>Node1&#45;&gt;Node51</title>
<path fill="none" stroke="midnightblue" d="M68.24,-530.93C98.3,-482.87 165.96,-374.72 190.97,-334.74"/>
<polygon fill="midnightblue" stroke="midnightblue" points="65.26,-529.11 62.92,-539.44 71.19,-532.82 65.26,-529.11"/>
</g>
<!-- Node3 -->
<g id="node3" class="node">
<title>Node3</title>
<g id="a_node3"><a xlink:href="classtracktion_1_1engine_1_1MacroParameterList.html" target="_top" xlink:title=" ">
<polygon fill="none" stroke="black" points="303,-1347.5 303,-1377.5 417,-1377.5 417,-1347.5 303,-1347.5"/>
<text text-anchor="start" x="311" y="-1365.5" font-family="Helvetica,sans-Serif" font-size="10.00">tracktion::engine::</text>
<text text-anchor="middle" x="360" y="-1354.5" font-family="Helvetica,sans-Serif" font-size="10.00">MacroParameterList</text>
</a>
</g>
</g>
<!-- Node2&#45;&gt;Node3 -->
<g id="edge2" class="edge">
<title>Node2&#45;&gt;Node3</title>
<path fill="none" stroke="midnightblue" d="M201.68,-995.86C200.97,-1061.13 208.01,-1236.91 298,-1338.5 301.02,-1341.91 304.58,-1344.84 308.45,-1347.35"/>
<polygon fill="midnightblue" stroke="midnightblue" points="205.19,-995.74 201.87,-985.67 198.19,-995.61 205.19,-995.74"/>
</g>
<!-- Node4 -->
<g id="node4" class="node">
<title>Node4</title>
<g id="a_node4"><a xlink:href="structtracktion_1_1engine_1_1Modifier.html" target="_top" xlink:title="Bass class for parameter Modifiers.">
<polygon fill="none" stroke="black" points="307.5,-1298.5 307.5,-1328.5 412.5,-1328.5 412.5,-1298.5 307.5,-1298.5"/>
<text text-anchor="start" x="315.5" y="-1316.5" font-family="Helvetica,sans-Serif" font-size="10.00">tracktion::engine::</text>
<text text-anchor="middle" x="360" y="-1305.5" font-family="Helvetica,sans-Serif" font-size="10.00">Modifier</text>
</a>
</g>
</g>
<!-- Node2&#45;&gt;Node4 -->
<g id="edge3" class="edge">
<title>Node2&#45;&gt;Node4</title>
<path fill="none" stroke="midnightblue" d="M213.67,-994.99C244.07,-1061.61 327.64,-1244.76 352.15,-1298.49"/>
<polygon fill="midnightblue" stroke="midnightblue" points="216.76,-993.33 209.43,-985.68 210.39,-996.23 216.76,-993.33"/>
</g>
<!-- Node11 -->
<g id="node11" class="node">
<title>Node11</title>
<g id="a_node11"><a xlink:href="classtracktion_1_1engine_1_1Plugin.html" target="_top" xlink:title=" ">
<polygon fill="none" stroke="red" points="307.5,-637.5 307.5,-667.5 412.5,-667.5 412.5,-637.5 307.5,-637.5"/>
<text text-anchor="start" x="315.5" y="-655.5" font-family="Helvetica,sans-Serif" font-size="10.00">tracktion::engine::</text>
<text text-anchor="middle" x="360" y="-644.5" font-family="Helvetica,sans-Serif" font-size="10.00">Plugin</text>
</a>
</g>
</g>
<!-- Node2&#45;&gt;Node11 -->
<g id="edge10" class="edge">
<title>Node2&#45;&gt;Node11</title>
<path fill="none" stroke="midnightblue" d="M214.55,-946.02C245.39,-883.36 326.49,-718.57 351.53,-667.68"/>
<polygon fill="midnightblue" stroke="midnightblue" points="211.32,-944.64 210.05,-955.16 217.6,-947.74 211.32,-944.64"/>
</g>
<!-- Node5 -->
<g id="node5" class="node">
<title>Node5</title>
<g id="a_node5"><a xlink:href="classtracktion_1_1engine_1_1BreakpointOscillatorModifier.html" target="_top" xlink:title=" ">
<polygon fill="none" stroke="black" points="458,-1470.5 458,-1500.5 614,-1500.5 614,-1470.5 458,-1470.5"/>
<text text-anchor="start" x="466" y="-1488.5" font-family="Helvetica,sans-Serif" font-size="10.00">tracktion::engine::</text>
<text text-anchor="middle" x="536" y="-1477.5" font-family="Helvetica,sans-Serif" font-size="10.00">BreakpointOscillatorModifier</text>
</a>
</g>
</g>
<!-- Node4&#45;&gt;Node5 -->
<g id="edge4" class="edge">
<title>Node4&#45;&gt;Node5</title>
<path fill="none" stroke="midnightblue" d="M418.22,-1334.75C419.55,-1335.94 420.82,-1337.18 422,-1338.5 460.12,-1380.82 418.08,-1420.87 458,-1461.5 461.34,-1464.9 465.15,-1467.81 469.24,-1470.32"/>
<polygon fill="midnightblue" stroke="midnightblue" points="420.1,-1331.79 409.98,-1328.66 415.94,-1337.42 420.1,-1331.79"/>
</g>
<!-- Node6 -->
<g id="node6" class="node">
<title>Node6</title>
<g id="a_node6"><a xlink:href="classtracktion_1_1engine_1_1EnvelopeFollowerModifier.html" target="_top" xlink:title=" ">
<polygon fill="none" stroke="black" points="464.5,-1421.5 464.5,-1451.5 607.5,-1451.5 607.5,-1421.5 464.5,-1421.5"/>
<text text-anchor="start" x="472.5" y="-1439.5" font-family="Helvetica,sans-Serif" font-size="10.00">tracktion::engine::</text>
<text text-anchor="middle" x="536" y="-1428.5" font-family="Helvetica,sans-Serif" font-size="10.00">EnvelopeFollowerModifier</text>
</a>
</g>
</g>
<!-- Node4&#45;&gt;Node6 -->
<g id="edge5" class="edge">
<title>Node4&#45;&gt;Node6</title>
<path fill="none" stroke="midnightblue" d="M416.71,-1334.09C418.57,-1335.47 420.34,-1336.94 422,-1338.5 448.67,-1363.52 430.27,-1388.66 458,-1412.5 462.03,-1415.97 466.57,-1418.94 471.36,-1421.48"/>
<polygon fill="midnightblue" stroke="midnightblue" points="418.43,-1331.04 408.13,-1328.58 414.65,-1336.93 418.43,-1331.04"/>
</g>
<!-- Node7 -->
<g id="node7" class="node">
<title>Node7</title>
<g id="a_node7"><a xlink:href="classtracktion_1_1engine_1_1LFOModifier.html" target="_top" xlink:title=" ">
<polygon fill="none" stroke="black" points="483.5,-1372.5 483.5,-1402.5 588.5,-1402.5 588.5,-1372.5 483.5,-1372.5"/>
<text text-anchor="start" x="491.5" y="-1390.5" font-family="Helvetica,sans-Serif" font-size="10.00">tracktion::engine::</text>
<text text-anchor="middle" x="536" y="-1379.5" font-family="Helvetica,sans-Serif" font-size="10.00">LFOModifier</text>
</a>
</g>
</g>
<!-- Node4&#45;&gt;Node7 -->
<g id="edge6" class="edge">
<title>Node4&#45;&gt;Node7</title>
<path fill="none" stroke="midnightblue" d="M410.52,-1332.71C414.45,-1334.56 418.32,-1336.5 422,-1338.5 439.11,-1347.8 440.5,-1354.95 458,-1363.5 465.93,-1367.37 474.61,-1370.79 483.21,-1373.75"/>
<polygon fill="midnightblue" stroke="midnightblue" points="411.84,-1329.47 401.28,-1328.55 408.96,-1335.85 411.84,-1329.47"/>
</g>
<!-- Node8 -->
<g id="node8" class="node">
<title>Node8</title>
<g id="a_node8"><a xlink:href="classtracktion_1_1engine_1_1MIDITrackerModifier.html" target="_top" xlink:title=" ">
<polygon fill="none" stroke="black" points="479.5,-1323.5 479.5,-1353.5 592.5,-1353.5 592.5,-1323.5 479.5,-1323.5"/>
<text text-anchor="start" x="487.5" y="-1341.5" font-family="Helvetica,sans-Serif" font-size="10.00">tracktion::engine::</text>
<text text-anchor="middle" x="536" y="-1330.5" font-family="Helvetica,sans-Serif" font-size="10.00">MIDITrackerModifier</text>
</a>
</g>
</g>
<!-- Node4&#45;&gt;Node8 -->
<g id="edge7" class="edge">
<title>Node4&#45;&gt;Node8</title>
<path fill="none" stroke="midnightblue" d="M422.77,-1322.37C441.17,-1325.02 461.22,-1327.9 479.22,-1330.49"/>
<polygon fill="midnightblue" stroke="midnightblue" points="423.13,-1318.89 412.73,-1320.93 422.14,-1325.82 423.13,-1318.89"/>
</g>
<!-- Node9 -->
<g id="node9" class="node">
<title>Node9</title>
<g id="a_node9"><a xlink:href="classtracktion_1_1engine_1_1RandomModifier.html" target="_top" xlink:title=" ">
<polygon fill="none" stroke="black" points="483.5,-1274.5 483.5,-1304.5 588.5,-1304.5 588.5,-1274.5 483.5,-1274.5"/>
<text text-anchor="start" x="491.5" y="-1292.5" font-family="Helvetica,sans-Serif" font-size="10.00">tracktion::engine::</text>
<text text-anchor="middle" x="536" y="-1281.5" font-family="Helvetica,sans-Serif" font-size="10.00">RandomModifier</text>
</a>
</g>
</g>
<!-- Node4&#45;&gt;Node9 -->
<g id="edge8" class="edge">
<title>Node4&#45;&gt;Node9</title>
<path fill="none" stroke="midnightblue" d="M422.9,-1304.96C442.73,-1302.23 464.46,-1299.23 483.46,-1296.61"/>
<polygon fill="midnightblue" stroke="midnightblue" points="422.16,-1301.53 412.73,-1306.36 423.12,-1308.46 422.16,-1301.53"/>
</g>
<!-- Node10 -->
<g id="node10" class="node">
<title>Node10</title>
<g id="a_node10"><a xlink:href="classtracktion_1_1engine_1_1StepModifier.html" target="_top" xlink:title=" ">
<polygon fill="none" stroke="black" points="483.5,-1225.5 483.5,-1255.5 588.5,-1255.5 588.5,-1225.5 483.5,-1225.5"/>
<text text-anchor="start" x="491.5" y="-1243.5" font-family="Helvetica,sans-Serif" font-size="10.00">tracktion::engine::</text>
<text text-anchor="middle" x="536" y="-1232.5" font-family="Helvetica,sans-Serif" font-size="10.00">StepModifier</text>
</a>
</g>
</g>
<!-- Node4&#45;&gt;Node10 -->
<g id="edge9" class="edge">
<title>Node4&#45;&gt;Node10</title>
<path fill="none" stroke="midnightblue" d="M397.88,-1293.67C415.76,-1284.47 437.7,-1273.77 458,-1265.5 466.59,-1262 475.87,-1258.65 484.91,-1255.59"/>
<polygon fill="midnightblue" stroke="midnightblue" points="396.2,-1290.6 388.94,-1298.32 399.43,-1296.81 396.2,-1290.6"/>
</g>
<!-- Node12 -->
<g id="node12" class="node">
<title>Node12</title>
<g id="a_node12"><a xlink:href="classtracktion_1_1engine_1_1AirWindowsPlugin.html" target="_top" xlink:title=" ">
<polygon fill="none" stroke="black" points="483.5,-1176.5 483.5,-1206.5 588.5,-1206.5 588.5,-1176.5 483.5,-1176.5"/>
<text text-anchor="start" x="491.5" y="-1194.5" font-family="Helvetica,sans-Serif" font-size="10.00">tracktion::engine::</text>
<text text-anchor="middle" x="536" y="-1183.5" font-family="Helvetica,sans-Serif" font-size="10.00">AirWindowsPlugin</text>
</a>
</g>
</g>
<!-- Node11&#45;&gt;Node12 -->
<g id="edge11" class="edge">
<title>Node11&#45;&gt;Node12</title>
<path fill="none" stroke="midnightblue" d="M362.39,-677.8C368,-770.95 391.95,-1093.3 458,-1167.5 464.7,-1175.03 473.73,-1180.22 483.24,-1183.8"/>
<polygon fill="midnightblue" stroke="midnightblue" points="365.87,-677.38 361.79,-667.61 358.88,-677.79 365.87,-677.38"/>
</g>
<!-- Node13 -->
<g id="node13" class="node">
<title>Node13</title>
<g id="a_node13"><a xlink:href="classtracktion_1_1engine_1_1AuxReturnPlugin.html" target="_top" xlink:title=" ">
<polygon fill="none" stroke="black" points="483.5,-1127.5 483.5,-1157.5 588.5,-1157.5 588.5,-1127.5 483.5,-1127.5"/>
<text text-anchor="start" x="491.5" y="-1145.5" font-family="Helvetica,sans-Serif" font-size="10.00">tracktion::engine::</text>
<text text-anchor="middle" x="536" y="-1134.5" font-family="Helvetica,sans-Serif" font-size="10.00">AuxReturnPlugin</text>
</a>
</g>
</g>
<!-- Node11&#45;&gt;Node13 -->
<g id="edge12" class="edge">
<title>Node11&#45;&gt;Node13</title>
<path fill="none" stroke="midnightblue" d="M362.95,-677.93C370.14,-765.43 397.95,-1052.33 458,-1118.5 464.78,-1125.97 473.83,-1131.13 483.35,-1134.7"/>
<polygon fill="midnightblue" stroke="midnightblue" points="366.42,-677.52 362.14,-667.83 359.45,-678.08 366.42,-677.52"/>
</g>
<!-- Node14 -->
<g id="node14" class="node">
<title>Node14</title>
<g id="a_node14"><a xlink:href="classtracktion_1_1engine_1_1AuxSendPlugin.html" target="_top" xlink:title=" ">
<polygon fill="none" stroke="black" points="483.5,-1078.5 483.5,-1108.5 588.5,-1108.5 588.5,-1078.5 483.5,-1078.5"/>
<text text-anchor="start" x="491.5" y="-1096.5" font-family="Helvetica,sans-Serif" font-size="10.00">tracktion::engine::</text>
<text text-anchor="middle" x="536" y="-1085.5" font-family="Helvetica,sans-Serif" font-size="10.00">AuxSendPlugin</text>
</a>
</g>
</g>
<!-- Node11&#45;&gt;Node14 -->
<g id="edge13" class="edge">
<title>Node11&#45;&gt;Node14</title>
<path fill="none" stroke="midnightblue" d="M363.61,-677.86C372.47,-759.13 403.89,-1011.25 458,-1069.5 464.86,-1076.89 473.95,-1082.02 483.48,-1085.57"/>
<polygon fill="midnightblue" stroke="midnightblue" points="367.06,-677.13 362.51,-667.56 360.09,-677.87 367.06,-677.13"/>
</g>
<!-- Node15 -->
<g id="node15" class="node">
<title>Node15</title>
<g id="a_node15"><a xlink:href="classtracktion_1_1engine_1_1ChorusPlugin.html" target="_top" xlink:title=" ">
<polygon fill="none" stroke="black" points="483.5,-1029.5 483.5,-1059.5 588.5,-1059.5 588.5,-1029.5 483.5,-1029.5"/>
<text text-anchor="start" x="491.5" y="-1047.5" font-family="Helvetica,sans-Serif" font-size="10.00">tracktion::engine::</text>
<text text-anchor="middle" x="536" y="-1036.5" font-family="Helvetica,sans-Serif" font-size="10.00">ChorusPlugin</text>
</a>
</g>
</g>
<!-- Node11&#45;&gt;Node15 -->
<g id="edge14" class="edge">
<title>Node11&#45;&gt;Node15</title>
<path fill="none" stroke="midnightblue" d="M364.45,-677.82C375.13,-752.55 409.79,-970.1 458,-1020.5 464.87,-1027.68 473.85,-1032.73 483.25,-1036.27"/>
<polygon fill="midnightblue" stroke="midnightblue" points="367.91,-677.28 363.05,-667.87 360.98,-678.26 367.91,-677.28"/>
</g>
<!-- Node16 -->
<g id="node16" class="node">
<title>Node16</title>
<g id="a_node16"><a xlink:href="classtracktion_1_1engine_1_1CompressorPlugin.html" target="_top" xlink:title=" ">
<polygon fill="none" stroke="black" points="483.5,-980.5 483.5,-1010.5 588.5,-1010.5 588.5,-980.5 483.5,-980.5"/>
<text text-anchor="start" x="491.5" y="-998.5" font-family="Helvetica,sans-Serif" font-size="10.00">tracktion::engine::</text>
<text text-anchor="middle" x="536" y="-987.5" font-family="Helvetica,sans-Serif" font-size="10.00">CompressorPlugin</text>
</a>
</g>
</g>
<!-- Node11&#45;&gt;Node16 -->
<g id="edge15" class="edge">
<title>Node11&#45;&gt;Node16</title>
<path fill="none" stroke="midnightblue" d="M361.12,-677.66C362.8,-737.28 375.44,-888.37 458,-971.5 465.01,-978.55 474.05,-983.54 483.46,-987.07"/>
<polygon fill="midnightblue" stroke="midnightblue" points="364.62,-677.56 360.92,-667.63 357.62,-677.7 364.62,-677.56"/>
</g>
<!-- Node17 -->
<g id="node17" class="node">
<title>Node17</title>
<g id="a_node17"><a xlink:href="classtracktion_1_1engine_1_1DelayPlugin.html" target="_top" xlink:title=" ">
<polygon fill="none" stroke="black" points="483.5,-931.5 483.5,-961.5 588.5,-961.5 588.5,-931.5 483.5,-931.5"/>
<text text-anchor="start" x="491.5" y="-949.5" font-family="Helvetica,sans-Serif" font-size="10.00">tracktion::engine::</text>
<text text-anchor="middle" x="536" y="-938.5" font-family="Helvetica,sans-Serif" font-size="10.00">DelayPlugin</text>
</a>
</g>
</g>
<!-- Node11&#45;&gt;Node17 -->
<g id="edge16" class="edge">
<title>Node11&#45;&gt;Node17</title>
<path fill="none" stroke="midnightblue" d="M362.76,-677.73C367.81,-730.75 386.99,-854.46 458,-922.5 465.08,-929.28 474.04,-934.15 483.33,-937.64"/>
<polygon fill="midnightblue" stroke="midnightblue" points="366.22,-677.2 361.88,-667.53 359.25,-677.8 366.22,-677.2"/>
</g>
<!-- Node18 -->
<g id="node18" class="node">
<title>Node18</title>
<g id="a_node18"><a xlink:href="classtracktion_1_1engine_1_1EqualiserPlugin.html" target="_top" xlink:title=" ">
<polygon fill="none" stroke="black" points="483.5,-882.5 483.5,-912.5 588.5,-912.5 588.5,-882.5 483.5,-882.5"/>
<text text-anchor="start" x="491.5" y="-900.5" font-family="Helvetica,sans-Serif" font-size="10.00">tracktion::engine::</text>
<text text-anchor="middle" x="536" y="-889.5" font-family="Helvetica,sans-Serif" font-size="10.00">EqualiserPlugin</text>
</a>
</g>
</g>
<!-- Node11&#45;&gt;Node18 -->
<g id="edge17" class="edge">
<title>Node11&#45;&gt;Node18</title>
<path fill="none" stroke="midnightblue" d="M365.02,-677.56C373.67,-723.21 398.29,-820.1 458,-873.5 465.2,-879.94 474.12,-884.65 483.29,-888.1"/>
<polygon fill="midnightblue" stroke="midnightblue" points="368.45,-676.85 363.24,-667.62 361.56,-678.08 368.45,-676.85"/>
</g>
<!-- Node19 -->
<g id="node19" class="node">
<title>Node19</title>
<g id="a_node19"><a xlink:href="classtracktion_1_1engine_1_1ExternalPlugin.html" target="_top" xlink:title=" ">
<polygon fill="none" stroke="black" points="483.5,-833.5 483.5,-863.5 588.5,-863.5 588.5,-833.5 483.5,-833.5"/>
<text text-anchor="start" x="491.5" y="-851.5" font-family="Helvetica,sans-Serif" font-size="10.00">tracktion::engine::</text>
<text text-anchor="middle" x="536" y="-840.5" font-family="Helvetica,sans-Serif" font-size="10.00">ExternalPlugin</text>
</a>
</g>
</g>
<!-- Node11&#45;&gt;Node19 -->
<g id="edge18" class="edge">
<title>Node11&#45;&gt;Node19</title>
<path fill="none" stroke="midnightblue" d="M368.39,-677.26C380.81,-714.62 409.38,-785.2 458,-824.5 465.41,-830.49 474.31,-834.98 483.39,-838.36"/>
<polygon fill="midnightblue" stroke="midnightblue" points="371.7,-676.11 365.32,-667.65 365.03,-678.25 371.7,-676.11"/>
</g>
<!-- Node20 -->
<g id="node20" class="node">
<title>Node20</title>
<g id="a_node20"><a xlink:href="classtracktion_1_1engine_1_1FourOscPlugin.html" target="_top" xlink:title=" ">
<polygon fill="none" stroke="black" points="483.5,-784.5 483.5,-814.5 588.5,-814.5 588.5,-784.5 483.5,-784.5"/>
<text text-anchor="start" x="491.5" y="-802.5" font-family="Helvetica,sans-Serif" font-size="10.00">tracktion::engine::</text>
<text text-anchor="middle" x="536" y="-791.5" font-family="Helvetica,sans-Serif" font-size="10.00">FourOscPlugin</text>
</a>
</g>
</g>
<!-- Node11&#45;&gt;Node20 -->
<g id="edge19" class="edge">
<title>Node11&#45;&gt;Node20</title>
<path fill="none" stroke="midnightblue" d="M374.11,-676.85C390.29,-704.63 420.32,-749.58 458,-775.5 465.61,-780.74 474.42,-784.87 483.3,-788.12"/>
<polygon fill="midnightblue" stroke="midnightblue" points="376.96,-674.76 368.98,-667.79 370.87,-678.22 376.96,-674.76"/>
</g>
<!-- Node21 -->
<g id="node21" class="node">
<title>Node21</title>
<g id="a_node21"><a xlink:href="classtracktion_1_1engine_1_1FreezePointPlugin.html" target="_top" xlink:title=" ">
<polygon fill="none" stroke="black" points="483.5,-735.5 483.5,-765.5 588.5,-765.5 588.5,-735.5 483.5,-735.5"/>
<text text-anchor="start" x="491.5" y="-753.5" font-family="Helvetica,sans-Serif" font-size="10.00">tracktion::engine::</text>
<text text-anchor="middle" x="536" y="-742.5" font-family="Helvetica,sans-Serif" font-size="10.00">FreezePointPlugin</text>
</a>
</g>
</g>
<!-- Node11&#45;&gt;Node21 -->
<g id="edge20" class="edge">
<title>Node11&#45;&gt;Node21</title>
<path fill="none" stroke="midnightblue" d="M384.66,-674.36C403.37,-690.65 430.79,-712.44 458,-726.5 465.96,-730.61 474.75,-734.17 483.47,-737.19"/>
<polygon fill="midnightblue" stroke="midnightblue" points="386.76,-671.54 376.95,-667.52 382.11,-676.78 386.76,-671.54"/>
</g>
<!-- Node22 -->
<g id="node22" class="node">
<title>Node22</title>
<g id="a_node22"><a xlink:href="classtracktion_1_1engine_1_1ImpulseResponsePlugin.html" target="_top" xlink:title="ImpulseResponsePlugin that loads an impulse response and applies it the audio stream.">
<polygon fill="none" stroke="black" points="469.5,-686.5 469.5,-716.5 602.5,-716.5 602.5,-686.5 469.5,-686.5"/>
<text text-anchor="start" x="477.5" y="-704.5" font-family="Helvetica,sans-Serif" font-size="10.00">tracktion::engine::</text>
<text text-anchor="middle" x="536" y="-693.5" font-family="Helvetica,sans-Serif" font-size="10.00">ImpulseResponsePlugin</text>
</a>
</g>
</g>
<!-- Node11&#45;&gt;Node22 -->
<g id="edge21" class="edge">
<title>Node11&#45;&gt;Node22</title>
<path fill="none" stroke="midnightblue" d="M422.36,-669.78C441.71,-675.23 462.91,-681.2 481.66,-686.48"/>
<polygon fill="midnightblue" stroke="midnightblue" points="423.31,-666.41 412.73,-667.07 421.41,-673.15 423.31,-666.41"/>
</g>
<!-- Node23 -->
<g id="node23" class="node">
<title>Node23</title>
<g id="a_node23"><a xlink:href="classtracktion_1_1engine_1_1InsertPlugin.html" target="_top" xlink:title=" ">
<polygon fill="none" stroke="black" points="483.5,-637.5 483.5,-667.5 588.5,-667.5 588.5,-637.5 483.5,-637.5"/>
<text text-anchor="start" x="491.5" y="-655.5" font-family="Helvetica,sans-Serif" font-size="10.00">tracktion::engine::</text>
<text text-anchor="middle" x="536" y="-644.5" font-family="Helvetica,sans-Serif" font-size="10.00">InsertPlugin</text>
</a>
</g>
</g>
<!-- Node11&#45;&gt;Node23 -->
<g id="edge22" class="edge">
<title>Node11&#45;&gt;Node23</title>
<path fill="none" stroke="midnightblue" d="M422.9,-652.5C442.73,-652.5 464.46,-652.5 483.46,-652.5"/>
<polygon fill="midnightblue" stroke="midnightblue" points="422.73,-649 412.73,-652.5 422.73,-656 422.73,-649"/>
</g>
<!-- Node24 -->
<g id="node24" class="node">
<title>Node24</title>
<g id="a_node24"><a xlink:href="classtracktion_1_1engine_1_1LatencyPlugin.html" target="_top" xlink:title="A test plugin that introduces latency to the incoming signal.">
<polygon fill="none" stroke="black" points="483.5,-588.5 483.5,-618.5 588.5,-618.5 588.5,-588.5 483.5,-588.5"/>
<text text-anchor="start" x="491.5" y="-606.5" font-family="Helvetica,sans-Serif" font-size="10.00">tracktion::engine::</text>
<text text-anchor="middle" x="536" y="-595.5" font-family="Helvetica,sans-Serif" font-size="10.00">LatencyPlugin</text>
</a>
</g>
</g>
<!-- Node11&#45;&gt;Node24 -->
<g id="edge23" class="edge">
<title>Node11&#45;&gt;Node24</title>
<path fill="none" stroke="midnightblue" d="M422.63,-635.14C442.53,-629.54 464.37,-623.39 483.46,-618.01"/>
<polygon fill="midnightblue" stroke="midnightblue" points="421.41,-631.85 412.73,-637.93 423.31,-638.59 421.41,-631.85"/>
</g>
<!-- Node25 -->
<g id="node25" class="node">
<title>Node25</title>
<g id="a_node25"><a xlink:href="classtracktion_1_1engine_1_1LevelMeterPlugin.html" target="_top" xlink:title=" ">
<polygon fill="none" stroke="black" points="483.5,-539.5 483.5,-569.5 588.5,-569.5 588.5,-539.5 483.5,-539.5"/>
<text text-anchor="start" x="491.5" y="-557.5" font-family="Helvetica,sans-Serif" font-size="10.00">tracktion::engine::</text>
<text text-anchor="middle" x="536" y="-546.5" font-family="Helvetica,sans-Serif" font-size="10.00">LevelMeterPlugin</text>
</a>
</g>
</g>
<!-- Node11&#45;&gt;Node25 -->
<g id="edge24" class="edge">
<title>Node11&#45;&gt;Node25</title>
<path fill="none" stroke="midnightblue" d="M416.37,-632.44C418.32,-631.19 420.2,-629.88 422,-628.5 443.41,-612.02 436.09,-595.32 458,-579.5 465.52,-574.07 474.28,-569.78 483.14,-566.4"/>
<polygon fill="midnightblue" stroke="midnightblue" points="414.46,-629.5 407.48,-637.47 417.91,-635.59 414.46,-629.5"/>
</g>
<!-- Node26 -->
<g id="node26" class="node">
<title>Node26</title>
<g id="a_node26"><a xlink:href="classtracktion_1_1engine_1_1LowPassPlugin.html" target="_top" xlink:title=" ">
<polygon fill="none" stroke="black" points="483.5,-490.5 483.5,-520.5 588.5,-520.5 588.5,-490.5 483.5,-490.5"/>
<text text-anchor="start" x="491.5" y="-508.5" font-family="Helvetica,sans-Serif" font-size="10.00">tracktion::engine::</text>
<text text-anchor="middle" x="536" y="-497.5" font-family="Helvetica,sans-Serif" font-size="10.00">LowPassPlugin</text>
</a>
</g>
</g>
<!-- Node11&#45;&gt;Node26 -->
<g id="edge25" class="edge">
<title>Node11&#45;&gt;Node26</title>
<path fill="none" stroke="midnightblue" d="M419.06,-631.27C420.08,-630.39 421.06,-629.46 422,-628.5 454.43,-595.32 424.57,-562.68 458,-530.5 465.09,-523.68 474.06,-518.72 483.35,-515.11"/>
<polygon fill="midnightblue" stroke="midnightblue" points="416.65,-628.69 410.61,-637.39 420.76,-634.36 416.65,-628.69"/>
</g>
<!-- Node27 -->
<g id="node27" class="node">
<title>Node27</title>
<g id="a_node27"><a xlink:href="classtracktion_1_1engine_1_1MidiModifierPlugin.html" target="_top" xlink:title=" ">
<polygon fill="none" stroke="black" points="482.5,-441.5 482.5,-471.5 589.5,-471.5 589.5,-441.5 482.5,-441.5"/>
<text text-anchor="start" x="490.5" y="-459.5" font-family="Helvetica,sans-Serif" font-size="10.00">tracktion::engine::</text>
<text text-anchor="middle" x="536" y="-448.5" font-family="Helvetica,sans-Serif" font-size="10.00">MidiModifierPlugin</text>
</a>
</g>
</g>
<!-- Node11&#45;&gt;Node27 -->
<g id="edge26" class="edge">
<title>Node11&#45;&gt;Node27</title>
<path fill="none" stroke="midnightblue" d="M419.65,-630.98C420.47,-630.18 421.25,-629.36 422,-628.5 466.25,-577.84 412.22,-530.78 458,-481.5 464.6,-474.39 473.24,-469.3 482.33,-465.66"/>
<polygon fill="midnightblue" stroke="midnightblue" points="417.24,-628.43 411.6,-637.4 421.6,-633.9 417.24,-628.43"/>
</g>
<!-- Node28 -->
<g id="node28" class="node">
<title>Node28</title>
<g id="a_node28"><a xlink:href="classtracktion_1_1engine_1_1MidiPatchBayPlugin.html" target="_top" xlink:title=" ">
<polygon fill="none" stroke="black" points="479.5,-392.5 479.5,-422.5 592.5,-422.5 592.5,-392.5 479.5,-392.5"/>
<text text-anchor="start" x="487.5" y="-410.5" font-family="Helvetica,sans-Serif" font-size="10.00">tracktion::engine::</text>
<text text-anchor="middle" x="536" y="-399.5" font-family="Helvetica,sans-Serif" font-size="10.00">MidiPatchBayPlugin</text>
</a>
</g>
</g>
<!-- Node11&#45;&gt;Node28 -->
<g id="edge27" class="edge">
<title>Node11&#45;&gt;Node28</title>
<path fill="none" stroke="midnightblue" d="M419.78,-630.98C420.55,-630.18 421.29,-629.36 422,-628.5 478.3,-560.12 399.65,-499.13 458,-432.5 463.74,-425.94 471.22,-421.1 479.25,-417.52"/>
<polygon fill="midnightblue" stroke="midnightblue" points="417.54,-628.29 412.1,-637.39 422.02,-633.67 417.54,-628.29"/>
</g>
<!-- Node29 -->
<g id="node29" class="node">
<title>Node29</title>
<g id="a_node29"><a xlink:href="classtracktion_1_1engine_1_1PatchBayPlugin.html" target="_top" xlink:title=" ">
<polygon fill="none" stroke="black" points="483.5,-343.5 483.5,-373.5 588.5,-373.5 588.5,-343.5 483.5,-343.5"/>
<text text-anchor="start" x="491.5" y="-361.5" font-family="Helvetica,sans-Serif" font-size="10.00">tracktion::engine::</text>
<text text-anchor="middle" x="536" y="-350.5" font-family="Helvetica,sans-Serif" font-size="10.00">PatchBayPlugin</text>
</a>
</g>
</g>
<!-- Node11&#45;&gt;Node29 -->
<g id="edge28" class="edge">
<title>Node11&#45;&gt;Node29</title>
<path fill="none" stroke="midnightblue" d="M420.11,-630.71C420.77,-630 421.4,-629.26 422,-628.5 490.42,-542.3 386.98,-467.58 458,-383.5 464.62,-375.66 473.73,-370.26 483.36,-366.54"/>
<polygon fill="midnightblue" stroke="midnightblue" points="417.53,-628.32 412.24,-637.49 422.1,-633.62 417.53,-628.32"/>
</g>
<!-- Node30 -->
<g id="node30" class="node">
<title>Node30</title>
<g id="a_node30"><a xlink:href="classtracktion_1_1engine_1_1PhaserPlugin.html" target="_top" xlink:title=" ">
<polygon fill="none" stroke="black" points="483.5,-294.5 483.5,-324.5 588.5,-324.5 588.5,-294.5 483.5,-294.5"/>
<text text-anchor="start" x="491.5" y="-312.5" font-family="Helvetica,sans-Serif" font-size="10.00">tracktion::engine::</text>
<text text-anchor="middle" x="536" y="-301.5" font-family="Helvetica,sans-Serif" font-size="10.00">PhaserPlugin</text>
</a>
</g>
</g>
<!-- Node11&#45;&gt;Node30 -->
<g id="edge29" class="edge">
<title>Node11&#45;&gt;Node30</title>
<path fill="none" stroke="midnightblue" d="M420.18,-630.67C420.81,-629.97 421.42,-629.25 422,-628.5 502.6,-524.41 374.27,-436.08 458,-334.5 464.53,-326.58 473.59,-321.15 483.22,-317.42"/>
<polygon fill="midnightblue" stroke="midnightblue" points="417.78,-628.12 412.61,-637.37 422.42,-633.37 417.78,-628.12"/>
</g>
<!-- Node31 -->
<g id="node31" class="node">
<title>Node31</title>
<g id="a_node31"><a xlink:href="classtracktion_1_1engine_1_1PitchShiftPlugin.html" target="_top" xlink:title=" ">
<polygon fill="none" stroke="black" points="483.5,-245.5 483.5,-275.5 588.5,-275.5 588.5,-245.5 483.5,-245.5"/>
<text text-anchor="start" x="491.5" y="-263.5" font-family="Helvetica,sans-Serif" font-size="10.00">tracktion::engine::</text>
<text text-anchor="middle" x="536" y="-252.5" font-family="Helvetica,sans-Serif" font-size="10.00">PitchShiftPlugin</text>
</a>
</g>
</g>
<!-- Node11&#45;&gt;Node31 -->
<g id="edge30" class="edge">
<title>Node11&#45;&gt;Node31</title>
<path fill="none" stroke="midnightblue" d="M420.2,-630.69C420.83,-629.98 421.43,-629.25 422,-628.5 514.8,-506.5 361.53,-404.62 458,-285.5 464.46,-277.53 473.49,-272.07 483.11,-268.34"/>
<polygon fill="midnightblue" stroke="midnightblue" points="417.8,-628.14 412.67,-637.42 422.46,-633.37 417.8,-628.14"/>
</g>
<!-- Node32 -->
<g id="node32" class="node">
<title>Node32</title>
<g id="a_node32"><a xlink:href="classtracktion_1_1engine_1_1RackInstance.html" target="_top" xlink:title=" ">
<polygon fill="none" stroke="black" points="483.5,-196.5 483.5,-226.5 588.5,-226.5 588.5,-196.5 483.5,-196.5"/>
<text text-anchor="start" x="491.5" y="-214.5" font-family="Helvetica,sans-Serif" font-size="10.00">tracktion::engine::</text>
<text text-anchor="middle" x="536" y="-203.5" font-family="Helvetica,sans-Serif" font-size="10.00">RackInstance</text>
</a>
</g>
</g>
<!-- Node11&#45;&gt;Node32 -->
<g id="edge31" class="edge">
<title>Node11&#45;&gt;Node32</title>
<path fill="none" stroke="midnightblue" d="M420.22,-630.7C420.84,-629.99 421.43,-629.26 422,-628.5 474.63,-558.35 402.86,-303.69 458,-235.5 464.52,-227.44 473.7,-222.04 483.46,-218.43"/>
<polygon fill="midnightblue" stroke="midnightblue" points="417.81,-628.16 412.72,-637.45 422.49,-633.36 417.81,-628.16"/>
</g>
<!-- Node33 -->
<g id="node33" class="node">
<title>Node33</title>
<g id="a_node33"><a xlink:href="classtracktion_1_1engine_1_1ReverbPlugin.html" target="_top" xlink:title=" ">
<polygon fill="none" stroke="black" points="483.5,-147.5 483.5,-177.5 588.5,-177.5 588.5,-147.5 483.5,-147.5"/>
<text text-anchor="start" x="491.5" y="-165.5" font-family="Helvetica,sans-Serif" font-size="10.00">tracktion::engine::</text>
<text text-anchor="middle" x="536" y="-154.5" font-family="Helvetica,sans-Serif" font-size="10.00">ReverbPlugin</text>
</a>
</g>
</g>
<!-- Node11&#45;&gt;Node33 -->
<g id="edge32" class="edge">
<title>Node11&#45;&gt;Node33</title>
<path fill="none" stroke="midnightblue" d="M420.23,-630.71C420.84,-630 421.44,-629.26 422,-628.5 480.74,-549.37 396.42,-263.44 458,-186.5 464.47,-178.41 473.64,-172.99 483.4,-169.38"/>
<polygon fill="midnightblue" stroke="midnightblue" points="417.81,-628.17 412.76,-637.48 422.52,-633.36 417.81,-628.17"/>
</g>
<!-- Node34 -->
<g id="node34" class="node">
<title>Node34</title>
<g id="a_node34"><a xlink:href="classtracktion_1_1engine_1_1SamplerPlugin.html" target="_top" xlink:title=" ">
<polygon fill="none" stroke="black" points="483.5,-98.5 483.5,-128.5 588.5,-128.5 588.5,-98.5 483.5,-98.5"/>
<text text-anchor="start" x="491.5" y="-116.5" font-family="Helvetica,sans-Serif" font-size="10.00">tracktion::engine::</text>
<text text-anchor="middle" x="536" y="-105.5" font-family="Helvetica,sans-Serif" font-size="10.00">SamplerPlugin</text>
</a>
</g>
</g>
<!-- Node11&#45;&gt;Node34 -->
<g id="edge33" class="edge">
<title>Node11&#45;&gt;Node34</title>
<path fill="none" stroke="midnightblue" d="M420.19,-630.77C420.82,-630.04 421.42,-629.28 422,-628.5 486.86,-540.39 389.98,-223.19 458,-137.5 464.44,-129.38 473.59,-123.95 483.35,-120.34"/>
<polygon fill="midnightblue" stroke="midnightblue" points="417.59,-628.4 412.51,-637.71 422.28,-633.6 417.59,-628.4"/>
</g>
<!-- Node35 -->
<g id="node35" class="node">
<title>Node35</title>
<g id="a_node35"><a xlink:href="classtracktion_1_1engine_1_1TextPlugin.html" target="_top" xlink:title=" ">
<polygon fill="none" stroke="black" points="483.5,-49.5 483.5,-79.5 588.5,-79.5 588.5,-49.5 483.5,-49.5"/>
<text text-anchor="start" x="491.5" y="-67.5" font-family="Helvetica,sans-Serif" font-size="10.00">tracktion::engine::</text>
<text text-anchor="middle" x="536" y="-56.5" font-family="Helvetica,sans-Serif" font-size="10.00">TextPlugin</text>
</a>
</g>
</g>
<!-- Node11&#45;&gt;Node35 -->
<g id="edge34" class="edge">
<title>Node11&#45;&gt;Node35</title>
<path fill="none" stroke="midnightblue" d="M420.19,-630.78C420.82,-630.04 421.43,-629.28 422,-628.5 492.98,-531.41 383.54,-182.95 458,-88.5 464.42,-80.36 473.56,-74.92 483.31,-71.3"/>
<polygon fill="midnightblue" stroke="midnightblue" points="417.59,-628.41 412.54,-637.72 422.3,-633.6 417.59,-628.41"/>
</g>
<!-- Node36 -->
<g id="node36" class="node">
<title>Node36</title>
<g id="a_node36"><a xlink:href="classtracktion_1_1engine_1_1ToneGeneratorPlugin.html" target="_top" xlink:title=" ">
<polygon fill="none" stroke="black" points="477,-0.5 477,-30.5 595,-30.5 595,-0.5 477,-0.5"/>
<text text-anchor="start" x="485" y="-18.5" font-family="Helvetica,sans-Serif" font-size="10.00">tracktion::engine::</text>
<text text-anchor="middle" x="536" y="-7.5" font-family="Helvetica,sans-Serif" font-size="10.00">ToneGeneratorPlugin</text>
</a>
</g>
</g>
<!-- Node11&#45;&gt;Node36 -->
<g id="edge35" class="edge">
<title>Node11&#45;&gt;Node36</title>
<path fill="none" stroke="midnightblue" d="M420.2,-630.78C420.83,-630.05 421.43,-629.29 422,-628.5 499.1,-522.43 377.1,-142.7 458,-39.5 462.92,-33.22 469.47,-28.54 476.68,-25.07"/>
<polygon fill="midnightblue" stroke="midnightblue" points="417.6,-628.42 412.56,-637.74 422.31,-633.59 417.6,-628.42"/>
</g>
<!-- Node42 -->
<g id="node40" class="node">
<title>Node42</title>
<g id="a_node40"><a xlink:href="classtracktion_1_1engine_1_1AutomationTrack.html" target="_top" xlink:title=" ">
<polygon fill="none" stroke="black" points="307.5,-588.5 307.5,-618.5 412.5,-618.5 412.5,-588.5 307.5,-588.5"/>
<text text-anchor="start" x="315.5" y="-606.5" font-family="Helvetica,sans-Serif" font-size="10.00">tracktion::engine::</text>
<text text-anchor="middle" x="360" y="-595.5" font-family="Helvetica,sans-Serif" font-size="10.00">AutomationTrack</text>
</a>
</g>
</g>
<!-- Node41&#45;&gt;Node42 -->
<g id="edge39" class="edge">
<title>Node41&#45;&gt;Node42</title>
<path fill="none" stroke="midnightblue" d="M255.43,-525.85C257.72,-527.31 259.92,-528.86 262,-530.5 283.22,-547.23 276.59,-563.02 298,-579.5 302.42,-582.9 307.38,-585.88 312.52,-588.47"/>
<polygon fill="midnightblue" stroke="midnightblue" points="256.72,-522.55 246.3,-520.64 253.25,-528.63 256.72,-522.55"/>
</g>
<!-- Node43 -->
<g id="node41" class="node">
<title>Node43</title>
<g id="a_node41"><a xlink:href="classtracktion_1_1engine_1_1ClipTrack.html" target="_top" xlink:title=" ">
<polygon fill="none" stroke="red" points="307.5,-539.5 307.5,-569.5 412.5,-569.5 412.5,-539.5 307.5,-539.5"/>
<text text-anchor="start" x="315.5" y="-557.5" font-family="Helvetica,sans-Serif" font-size="10.00">tracktion::engine::</text>
<text text-anchor="middle" x="360" y="-546.5" font-family="Helvetica,sans-Serif" font-size="10.00">ClipTrack</text>
</a>
</g>
</g>
<!-- Node41&#45;&gt;Node43 -->
<g id="edge40" class="edge">
<title>Node41&#45;&gt;Node43</title>
<path fill="none" stroke="midnightblue" d="M260.35,-523.61C276.99,-528.82 294.95,-534.45 310.93,-539.45"/>
<polygon fill="midnightblue" stroke="midnightblue" points="261.32,-520.25 250.73,-520.6 259.23,-526.93 261.32,-520.25"/>
</g>
<!-- Node48 -->
<g id="node42" class="node">
<title>Node48</title>
<g id="a_node42"><a xlink:href="classtracktion_1_1engine_1_1FolderTrack.html" target="_top" xlink:title=" ">
<polygon fill="none" stroke="black" points="307.5,-490.5 307.5,-520.5 412.5,-520.5 412.5,-490.5 307.5,-490.5"/>
<text text-anchor="start" x="315.5" y="-508.5" font-family="Helvetica,sans-Serif" font-size="10.00">tracktion::engine::</text>
<text text-anchor="middle" x="360" y="-497.5" font-family="Helvetica,sans-Serif" font-size="10.00">FolderTrack</text>
</a>
</g>
</g>
<!-- Node41&#45;&gt;Node48 -->
<g id="edge41" class="edge">
<title>Node41&#45;&gt;Node48</title>
<path fill="none" stroke="midnightblue" d="M264.38,-505.5C278.63,-505.5 293.62,-505.5 307.38,-505.5"/>
<polygon fill="midnightblue" stroke="midnightblue" points="264.18,-502 254.18,-505.5 264.18,-509 264.18,-502"/>
</g>
<!-- Node49 -->
<g id="node43" class="node">
<title>Node49</title>
<g id="a_node43"><a xlink:href="classtracktion_1_1engine_1_1MasterTrack.html" target="_top" xlink:title="A track to represent the master plugins.">
<polygon fill="none" stroke="black" points="307.5,-441.5 307.5,-471.5 412.5,-471.5 412.5,-441.5 307.5,-441.5"/>
<text text-anchor="start" x="315.5" y="-459.5" font-family="Helvetica,sans-Serif" font-size="10.00">tracktion::engine::</text>
<text text-anchor="middle" x="360" y="-448.5" font-family="Helvetica,sans-Serif" font-size="10.00">MasterTrack</text>
</a>
</g>
</g>
<!-- Node41&#45;&gt;Node49 -->
<g id="edge42" class="edge">
<title>Node41&#45;&gt;Node49</title>
<path fill="none" stroke="midnightblue" d="M260.35,-487.39C276.99,-482.18 294.95,-476.55 310.93,-471.55"/>
<polygon fill="midnightblue" stroke="midnightblue" points="259.23,-484.07 250.73,-490.4 261.32,-490.75 259.23,-484.07"/>
</g>
<!-- Node50 -->
<g id="node44" class="node">
<title>Node50</title>
<g id="a_node44"><a xlink:href="classtracktion_1_1engine_1_1TempoTrack.html" target="_top" xlink:title="A track to represent the &quot;global&quot; items such as tempo, key changes etc.">
<polygon fill="none" stroke="black" points="307.5,-392.5 307.5,-422.5 412.5,-422.5 412.5,-392.5 307.5,-392.5"/>
<text text-anchor="start" x="315.5" y="-410.5" font-family="Helvetica,sans-Serif" font-size="10.00">tracktion::engine::</text>
<text text-anchor="middle" x="360" y="-399.5" font-family="Helvetica,sans-Serif" font-size="10.00">TempoTrack</text>
</a>
</g>
</g>
<!-- Node41&#45;&gt;Node50 -->
<g id="edge43" class="edge">
<title>Node41&#45;&gt;Node50</title>
<path fill="none" stroke="midnightblue" d="M227.16,-483.73C245.73,-468.09 272.3,-447.24 298,-432.5 304.25,-428.91 311.12,-425.58 317.93,-422.59"/>
<polygon fill="midnightblue" stroke="midnightblue" points="224.8,-481.14 219.47,-490.3 229.35,-486.47 224.8,-481.14"/>
</g>
<!-- Node52 -->
<g id="node46" class="node">
<title>Node52</title>
<g id="a_node46"><a xlink:href="classtracktion_1_1engine_1_1Clip.html" target="_top" xlink:title="A clip in an edit.">
<polygon fill="none" stroke="red" points="298,-354 298,-373 422,-373 422,-354 298,-354"/>
<text text-anchor="middle" x="360" y="-361" font-family="Helvetica,sans-Serif" font-size="10.00">tracktion::engine::Clip</text>
</a>
</g>
</g>
<!-- Node51&#45;&gt;Node52 -->
<g id="edge45" class="edge">
<title>Node51&#45;&gt;Node52</title>
<path fill="none" stroke="midnightblue" d="M263.92,-336.77C284.74,-342.62 307.24,-348.95 325.12,-353.97"/>
<polygon fill="midnightblue" stroke="midnightblue" points="264.75,-333.37 254.18,-334.03 262.86,-340.11 264.75,-333.37"/>
</g>
<!-- Node62 -->
<g id="node47" class="node">
<title>Node62</title>
<g id="a_node47"><a xlink:href="classtracktion_1_1engine_1_1CollectionClip.html" target="_top" xlink:title=" ">
<polygon fill="none" stroke="black" points="307.5,-304.5 307.5,-334.5 412.5,-334.5 412.5,-304.5 307.5,-304.5"/>
<text text-anchor="start" x="315.5" y="-322.5" font-family="Helvetica,sans-Serif" font-size="10.00">tracktion::engine::</text>
<text text-anchor="middle" x="360" y="-311.5" font-family="Helvetica,sans-Serif" font-size="10.00">CollectionClip</text>
</a>
</g>
</g>
<!-- Node51&#45;&gt;Node62 -->
<g id="edge46" class="edge">
<title>Node51&#45;&gt;Node62</title>
<path fill="none" stroke="midnightblue" d="M264.38,-319.5C278.63,-319.5 293.62,-319.5 307.38,-319.5"/>
<polygon fill="midnightblue" stroke="midnightblue" points="264.18,-316 254.18,-319.5 264.18,-323 264.18,-316"/>
</g>
<!-- Node63 -->
<g id="node48" class="node">
<title>Node63</title>
<g id="a_node48"><a xlink:href="classtracktion_1_1engine_1_1PitchSetting.html" target="_top" xlink:title=" ">
<polygon fill="none" stroke="black" points="307.5,-255.5 307.5,-285.5 412.5,-285.5 412.5,-255.5 307.5,-255.5"/>
<text text-anchor="start" x="315.5" y="-273.5" font-family="Helvetica,sans-Serif" font-size="10.00">tracktion::engine::</text>
<text text-anchor="middle" x="360" y="-262.5" font-family="Helvetica,sans-Serif" font-size="10.00">PitchSetting</text>
</a>
</g>
</g>
<!-- Node51&#45;&gt;Node63 -->
<g id="edge47" class="edge">
<title>Node51&#45;&gt;Node63</title>
<path fill="none" stroke="midnightblue" d="M260.35,-301.39C276.99,-296.18 294.95,-290.55 310.93,-285.55"/>
<polygon fill="midnightblue" stroke="midnightblue" points="259.23,-298.07 250.73,-304.4 261.32,-304.75 259.23,-298.07"/>
</g>
<!-- Node64 -->
<g id="node49" class="node">
<title>Node64</title>
<g id="a_node49"><a xlink:href="classtracktion_1_1engine_1_1TimeSigSetting.html" target="_top" xlink:title=" ">
<polygon fill="none" stroke="black" points="307.5,-206.5 307.5,-236.5 412.5,-236.5 412.5,-206.5 307.5,-206.5"/>
<text text-anchor="start" x="315.5" y="-224.5" font-family="Helvetica,sans-Serif" font-size="10.00">tracktion::engine::</text>
<text text-anchor="middle" x="360" y="-213.5" font-family="Helvetica,sans-Serif" font-size="10.00">TimeSigSetting</text>
</a>
</g>
</g>
<!-- Node51&#45;&gt;Node64 -->
<g id="edge48" class="edge">
<title>Node51&#45;&gt;Node64</title>
<path fill="none" stroke="midnightblue" d="M226.71,-297.59C245.24,-281.64 271.95,-260.31 298,-245.5 303.74,-242.24 310.01,-239.22 316.27,-236.51"/>
<polygon fill="midnightblue" stroke="midnightblue" points="224.28,-295.07 219.05,-304.29 228.88,-300.34 224.28,-295.07"/>
</g>
</g>
</svg>
