<?xml version="1.0" encoding="UTF-8" standalone="no"?>
<!DOCTYPE svg PUBLIC "-//W3C//DTD SVG 1.1//EN"
 "http://www.w3.org/Graphics/SVG/1.1/DTD/svg11.dtd">
<!-- Generated by graphviz version 2.43.0 (0)
 -->
<!-- Title: tracktion_engine::MacroParameterElement Pages: 1 -->
<svg width="786pt" height="1449pt"
 viewBox="0.00 0.00 786.00 1448.50" xmlns="http://www.w3.org/2000/svg" xmlns:xlink="http://www.w3.org/1999/xlink">
<g id="graph0" class="graph" transform="scale(1 1) rotate(0) translate(4 1444.5)">
<title>tracktion_engine::MacroParameterElement</title>
<!-- Node1 -->
<g id="node1" class="node">
<title>Node1</title>
<g id="a_node1"><a xlink:title="Base class for elements which can contain macro parameters.">
<polygon fill="#bfbfbf" stroke="black" points="0,-764 0,-794 185,-794 185,-764 0,-764"/>
<text text-anchor="start" x="8" y="-782" font-family="Helvetica,sans-Serif" font-size="10.00">tracktion_engine::MacroParameter</text>
<text text-anchor="middle" x="92.5" y="-771" font-family="Helvetica,sans-Serif" font-size="10.00">Element</text>
</a>
</g>
</g>
<!-- Node2 -->
<g id="node2" class="node">
<title>Node2</title>
<g id="a_node2"><a xlink:href="structtracktion__engine_1_1Edit_1_1GlobalMacros.html" target="_top" xlink:title="Holds the global Macros for the Edit.">
<polygon fill="none" stroke="black" points="235,-827 235,-857 358,-857 358,-827 235,-827"/>
<text text-anchor="start" x="243" y="-845" font-family="Helvetica,sans-Serif" font-size="10.00">tracktion_engine::Edit</text>
<text text-anchor="middle" x="296.5" y="-834" font-family="Helvetica,sans-Serif" font-size="10.00">::GlobalMacros</text>
</a>
</g>
</g>
<!-- Node1&#45;&gt;Node2 -->
<g id="edge1" class="edge">
<title>Node1&#45;&gt;Node2</title>
<path fill="none" stroke="midnightblue" d="M151.26,-797.01C181.68,-806.5 218.54,-818 247.39,-827"/>
<polygon fill="midnightblue" stroke="midnightblue" points="152.22,-793.65 141.63,-794.01 150.13,-800.33 152.22,-793.65"/>
</g>
<!-- Node3 -->
<g id="node3" class="node">
<title>Node3</title>
<g id="a_node3"><a xlink:href="classtracktion__engine_1_1Plugin.html" target="_top" xlink:title=" ">
<polygon fill="none" stroke="black" points="229.5,-788.5 229.5,-807.5 363.5,-807.5 363.5,-788.5 229.5,-788.5"/>
<text text-anchor="middle" x="296.5" y="-795.5" font-family="Helvetica,sans-Serif" font-size="10.00">tracktion_engine::Plugin</text>
</a>
</g>
</g>
<!-- Node1&#45;&gt;Node3 -->
<g id="edge2" class="edge">
<title>Node1&#45;&gt;Node3</title>
<path fill="none" stroke="midnightblue" d="M195.22,-788.57C206.81,-789.66 218.39,-790.75 229.34,-791.78"/>
<polygon fill="midnightblue" stroke="midnightblue" points="195.33,-785.06 185.04,-787.61 194.67,-792.03 195.33,-785.06"/>
</g>
<!-- Node30 -->
<g id="node30" class="node">
<title>Node30</title>
<g id="a_node30"><a xlink:href="classtracktion__engine_1_1RackType.html" target="_top" xlink:title=" ">
<polygon fill="none" stroke="black" points="221,-750.5 221,-769.5 372,-769.5 372,-750.5 221,-750.5"/>
<text text-anchor="middle" x="296.5" y="-757.5" font-family="Helvetica,sans-Serif" font-size="10.00">tracktion_engine::RackType</text>
</a>
</g>
</g>
<!-- Node1&#45;&gt;Node30 -->
<g id="edge29" class="edge">
<title>Node1&#45;&gt;Node30</title>
<path fill="none" stroke="midnightblue" d="M195.2,-769.43C203.86,-768.62 212.52,-767.81 220.91,-767.02"/>
<polygon fill="midnightblue" stroke="midnightblue" points="194.67,-765.97 185.04,-770.39 195.33,-772.94 194.67,-765.97"/>
</g>
<!-- Node31 -->
<g id="node31" class="node">
<title>Node31</title>
<g id="a_node31"><a xlink:href="classtracktion__engine_1_1Track.html" target="_top" xlink:title="Base class for tracks which contain clips and plugins and can be added to Edit[s].">
<polygon fill="none" stroke="black" points="231.5,-115.5 231.5,-134.5 361.5,-134.5 361.5,-115.5 231.5,-115.5"/>
<text text-anchor="middle" x="296.5" y="-122.5" font-family="Helvetica,sans-Serif" font-size="10.00">tracktion_engine::Track</text>
</a>
</g>
</g>
<!-- Node1&#45;&gt;Node31 -->
<g id="edge30" class="edge">
<title>Node1&#45;&gt;Node31</title>
<path fill="none" stroke="midnightblue" d="M101.25,-753.92C135.22,-643.92 270.37,-206.36 292.44,-134.9"/>
<polygon fill="midnightblue" stroke="midnightblue" points="97.8,-753.21 98.2,-763.8 104.49,-755.27 97.8,-753.21"/>
</g>
<!-- Node4 -->
<g id="node4" class="node">
<title>Node4</title>
<g id="a_node4"><a xlink:href="classtracktion__engine_1_1AirWindowsPlugin.html" target="_top" xlink:title=" ">
<polygon fill="none" stroke="black" points="415,-1410 415,-1440 577,-1440 577,-1410 415,-1410"/>
<text text-anchor="start" x="423" y="-1428" font-family="Helvetica,sans-Serif" font-size="10.00">tracktion_engine::AirWindows</text>
<text text-anchor="middle" x="496" y="-1417" font-family="Helvetica,sans-Serif" font-size="10.00">Plugin</text>
</a>
</g>
</g>
<!-- Node3&#45;&gt;Node4 -->
<g id="edge3" class="edge">
<title>Node3&#45;&gt;Node4</title>
<path fill="none" stroke="midnightblue" d="M367.77,-813.57C369.28,-814.93 370.7,-816.41 372,-818 454.13,-918.51 326.21,-1300.2 408,-1401 410.76,-1404.41 413.96,-1407.36 417.47,-1409.91"/>
<polygon fill="midnightblue" stroke="midnightblue" points="369.69,-810.63 359.53,-807.63 365.6,-816.31 369.69,-810.63"/>
</g>
<!-- Node5 -->
<g id="node5" class="node">
<title>Node5</title>
<g id="a_node5"><a xlink:href="classtracktion__engine_1_1AuxReturnPlugin.html" target="_top" xlink:title=" ">
<polygon fill="none" stroke="black" points="418.5,-1361 418.5,-1391 573.5,-1391 573.5,-1361 418.5,-1361"/>
<text text-anchor="start" x="426.5" y="-1379" font-family="Helvetica,sans-Serif" font-size="10.00">tracktion_engine::AuxReturn</text>
<text text-anchor="middle" x="496" y="-1368" font-family="Helvetica,sans-Serif" font-size="10.00">Plugin</text>
</a>
</g>
</g>
<!-- Node3&#45;&gt;Node5 -->
<g id="edge4" class="edge">
<title>Node3&#45;&gt;Node5</title>
<path fill="none" stroke="midnightblue" d="M367.76,-813.58C369.27,-814.94 370.69,-816.41 372,-818 447.52,-909.89 332.8,-1259.85 408,-1352 410.97,-1355.64 414.44,-1358.76 418.25,-1361.43"/>
<polygon fill="midnightblue" stroke="midnightblue" points="369.67,-810.64 359.5,-807.65 365.59,-816.32 369.67,-810.64"/>
</g>
<!-- Node6 -->
<g id="node6" class="node">
<title>Node6</title>
<g id="a_node6"><a xlink:href="classtracktion__engine_1_1AuxSendPlugin.html" target="_top" xlink:title=" ">
<polygon fill="none" stroke="black" points="422.5,-1312 422.5,-1342 569.5,-1342 569.5,-1312 422.5,-1312"/>
<text text-anchor="start" x="430.5" y="-1330" font-family="Helvetica,sans-Serif" font-size="10.00">tracktion_engine::AuxSend</text>
<text text-anchor="middle" x="496" y="-1319" font-family="Helvetica,sans-Serif" font-size="10.00">Plugin</text>
</a>
</g>
</g>
<!-- Node3&#45;&gt;Node6 -->
<g id="edge5" class="edge">
<title>Node3&#45;&gt;Node6</title>
<path fill="none" stroke="midnightblue" d="M367.75,-813.59C369.26,-814.95 370.69,-816.41 372,-818 440.9,-901.26 339.39,-1219.5 408,-1303 411.98,-1307.84 416.84,-1311.76 422.21,-1314.92"/>
<polygon fill="midnightblue" stroke="midnightblue" points="369.64,-810.64 359.47,-807.67 365.57,-816.34 369.64,-810.64"/>
</g>
<!-- Node7 -->
<g id="node7" class="node">
<title>Node7</title>
<g id="a_node7"><a xlink:href="classtracktion__engine_1_1ChorusPlugin.html" target="_top" xlink:title=" ">
<polygon fill="none" stroke="black" points="427,-1263 427,-1293 565,-1293 565,-1263 427,-1263"/>
<text text-anchor="start" x="435" y="-1281" font-family="Helvetica,sans-Serif" font-size="10.00">tracktion_engine::Chorus</text>
<text text-anchor="middle" x="496" y="-1270" font-family="Helvetica,sans-Serif" font-size="10.00">Plugin</text>
</a>
</g>
</g>
<!-- Node3&#45;&gt;Node7 -->
<g id="edge6" class="edge">
<title>Node3&#45;&gt;Node7</title>
<path fill="none" stroke="midnightblue" d="M367.62,-813.5C369.18,-814.88 370.65,-816.38 372,-818 434.29,-892.64 345.97,-1179.14 408,-1254 413.1,-1260.15 419.62,-1264.81 426.79,-1268.31"/>
<polygon fill="midnightblue" stroke="midnightblue" points="369.28,-810.39 359.09,-807.51 365.26,-816.12 369.28,-810.39"/>
</g>
<!-- Node8 -->
<g id="node8" class="node">
<title>Node8</title>
<g id="a_node8"><a xlink:href="classtracktion__engine_1_1CompressorPlugin.html" target="_top" xlink:title=" ">
<polygon fill="none" stroke="black" points="414.5,-1214 414.5,-1244 577.5,-1244 577.5,-1214 414.5,-1214"/>
<text text-anchor="start" x="422.5" y="-1232" font-family="Helvetica,sans-Serif" font-size="10.00">tracktion_engine::Compressor</text>
<text text-anchor="middle" x="496" y="-1221" font-family="Helvetica,sans-Serif" font-size="10.00">Plugin</text>
</a>
</g>
</g>
<!-- Node3&#45;&gt;Node8 -->
<g id="edge7" class="edge">
<title>Node3&#45;&gt;Node8</title>
<path fill="none" stroke="midnightblue" d="M367.6,-813.52C369.17,-814.9 370.64,-816.39 372,-818 427.55,-883.85 353.03,-1137.67 408,-1204 411.21,-1207.87 414.97,-1211.17 419.11,-1213.97"/>
<polygon fill="midnightblue" stroke="midnightblue" points="369.24,-810.4 359.04,-807.55 365.23,-816.14 369.24,-810.4"/>
</g>
<!-- Node9 -->
<g id="node9" class="node">
<title>Node9</title>
<g id="a_node9"><a xlink:href="classtracktion__engine_1_1DelayPlugin.html" target="_top" xlink:title=" ">
<polygon fill="none" stroke="black" points="414.5,-1175.5 414.5,-1194.5 577.5,-1194.5 577.5,-1175.5 414.5,-1175.5"/>
<text text-anchor="middle" x="496" y="-1182.5" font-family="Helvetica,sans-Serif" font-size="10.00">tracktion_engine::DelayPlugin</text>
</a>
</g>
</g>
<!-- Node3&#45;&gt;Node9 -->
<g id="edge8" class="edge">
<title>Node3&#45;&gt;Node9</title>
<path fill="none" stroke="midnightblue" d="M367.57,-813.54C369.15,-814.91 370.63,-816.39 372,-818 472.86,-936.34 304.37,-1050.07 408,-1166 411.3,-1169.69 415.13,-1172.75 419.31,-1175.29"/>
<polygon fill="midnightblue" stroke="midnightblue" points="369.21,-810.41 358.99,-807.59 365.21,-816.16 369.21,-810.41"/>
</g>
<!-- Node10 -->
<g id="node10" class="node">
<title>Node10</title>
<g id="a_node10"><a xlink:href="classtracktion__engine_1_1EqualiserPlugin.html" target="_top" xlink:title=" ">
<polygon fill="none" stroke="black" points="421.5,-1126 421.5,-1156 570.5,-1156 570.5,-1126 421.5,-1126"/>
<text text-anchor="start" x="429.5" y="-1144" font-family="Helvetica,sans-Serif" font-size="10.00">tracktion_engine::Equaliser</text>
<text text-anchor="middle" x="496" y="-1133" font-family="Helvetica,sans-Serif" font-size="10.00">Plugin</text>
</a>
</g>
</g>
<!-- Node3&#45;&gt;Node10 -->
<g id="edge9" class="edge">
<title>Node3&#45;&gt;Node10</title>
<path fill="none" stroke="midnightblue" d="M367.54,-813.57C369.12,-814.93 370.62,-816.41 372,-818 459.67,-919.14 320.68,-1015.56 408,-1117 411.78,-1121.39 416.29,-1125.02 421.23,-1128.01"/>
<polygon fill="midnightblue" stroke="midnightblue" points="369.14,-810.43 358.92,-807.65 365.18,-816.2 369.14,-810.43"/>
</g>
<!-- Node11 -->
<g id="node11" class="node">
<title>Node11</title>
<g id="a_node11"><a xlink:href="classtracktion__engine_1_1ExternalPlugin.html" target="_top" xlink:title=" ">
<polygon fill="none" stroke="black" points="423.5,-1077 423.5,-1107 568.5,-1107 568.5,-1077 423.5,-1077"/>
<text text-anchor="start" x="431.5" y="-1095" font-family="Helvetica,sans-Serif" font-size="10.00">tracktion_engine::External</text>
<text text-anchor="middle" x="496" y="-1084" font-family="Helvetica,sans-Serif" font-size="10.00">Plugin</text>
</a>
</g>
</g>
<!-- Node3&#45;&gt;Node11 -->
<g id="edge10" class="edge">
<title>Node3&#45;&gt;Node11</title>
<path fill="none" stroke="midnightblue" d="M366.96,-813.18C368.76,-814.65 370.45,-816.25 372,-818 446.51,-901.97 333.78,-983.78 408,-1068 412.35,-1072.94 417.62,-1076.9 423.38,-1080.08"/>
<polygon fill="midnightblue" stroke="midnightblue" points="368.73,-810.15 358.46,-807.55 364.87,-815.99 368.73,-810.15"/>
</g>
<!-- Node12 -->
<g id="node12" class="node">
<title>Node12</title>
<g id="a_node12"><a xlink:href="classtracktion__engine_1_1FourOscPlugin.html" target="_top" xlink:title=" ">
<polygon fill="none" stroke="black" points="424.5,-1028 424.5,-1058 567.5,-1058 567.5,-1028 424.5,-1028"/>
<text text-anchor="start" x="432.5" y="-1046" font-family="Helvetica,sans-Serif" font-size="10.00">tracktion_engine::FourOsc</text>
<text text-anchor="middle" x="496" y="-1035" font-family="Helvetica,sans-Serif" font-size="10.00">Plugin</text>
</a>
</g>
</g>
<!-- Node3&#45;&gt;Node12 -->
<g id="edge11" class="edge">
<title>Node3&#45;&gt;Node12</title>
<path fill="none" stroke="midnightblue" d="M366.76,-813.14C368.62,-814.62 370.38,-816.24 372,-818 433.39,-884.84 346.84,-951.95 408,-1019 412.65,-1024.09 418.26,-1028.15 424.38,-1031.36"/>
<polygon fill="midnightblue" stroke="midnightblue" points="368.26,-809.95 357.95,-807.5 364.48,-815.84 368.26,-809.95"/>
</g>
<!-- Node13 -->
<g id="node13" class="node">
<title>Node13</title>
<g id="a_node13"><a xlink:href="classtracktion__engine_1_1FreezePointPlugin.html" target="_top" xlink:title=" ">
<polygon fill="none" stroke="black" points="427.5,-979 427.5,-1009 564.5,-1009 564.5,-979 427.5,-979"/>
<text text-anchor="start" x="435.5" y="-997" font-family="Helvetica,sans-Serif" font-size="10.00">tracktion_engine::Freeze</text>
<text text-anchor="middle" x="496" y="-986" font-family="Helvetica,sans-Serif" font-size="10.00">PointPlugin</text>
</a>
</g>
</g>
<!-- Node3&#45;&gt;Node13 -->
<g id="edge12" class="edge">
<title>Node3&#45;&gt;Node13</title>
<path fill="none" stroke="midnightblue" d="M366.05,-812.83C368.17,-814.39 370.16,-816.11 372,-818 420.36,-867.81 359.82,-920.02 408,-970 413.44,-975.64 420.07,-979.99 427.22,-983.35"/>
<polygon fill="midnightblue" stroke="midnightblue" points="367.71,-809.74 357.35,-807.55 364.09,-815.73 367.71,-809.74"/>
</g>
<!-- Node14 -->
<g id="node14" class="node">
<title>Node14</title>
<g id="a_node14"><a xlink:href="classtracktion__engine_1_1InsertPlugin.html" target="_top" xlink:title=" ">
<polygon fill="none" stroke="black" points="430,-930 430,-960 562,-960 562,-930 430,-930"/>
<text text-anchor="start" x="438" y="-948" font-family="Helvetica,sans-Serif" font-size="10.00">tracktion_engine::Insert</text>
<text text-anchor="middle" x="496" y="-937" font-family="Helvetica,sans-Serif" font-size="10.00">Plugin</text>
</a>
</g>
</g>
<!-- Node3&#45;&gt;Node14 -->
<g id="edge13" class="edge">
<title>Node3&#45;&gt;Node14</title>
<path fill="none" stroke="midnightblue" d="M365.02,-812.55C367.5,-814.18 369.84,-815.99 372,-818 407.53,-851 372.58,-887.88 408,-921 414.29,-926.89 421.9,-931.35 429.96,-934.73"/>
<polygon fill="midnightblue" stroke="midnightblue" points="366.61,-809.43 356.17,-807.66 363.23,-815.56 366.61,-809.43"/>
</g>
<!-- Node15 -->
<g id="node15" class="node">
<title>Node15</title>
<g id="a_node15"><a xlink:href="classtracktion__engine_1_1LatencyPlugin.html" target="_top" xlink:title="A test plugin that introduces latency to the incomming signal.">
<polygon fill="none" stroke="black" points="424.5,-881 424.5,-911 567.5,-911 567.5,-881 424.5,-881"/>
<text text-anchor="start" x="432.5" y="-899" font-family="Helvetica,sans-Serif" font-size="10.00">tracktion_engine::Latency</text>
<text text-anchor="middle" x="496" y="-888" font-family="Helvetica,sans-Serif" font-size="10.00">Plugin</text>
</a>
</g>
</g>
<!-- Node3&#45;&gt;Node15 -->
<g id="edge14" class="edge">
<title>Node3&#45;&gt;Node15</title>
<path fill="none" stroke="midnightblue" d="M360.99,-811.49C364.86,-813.38 368.57,-815.54 372,-818 395.43,-834.82 384.62,-855.1 408,-872 412.95,-875.58 418.41,-878.63 424.12,-881.22"/>
<polygon fill="midnightblue" stroke="midnightblue" points="362.28,-808.24 351.71,-807.54 359.54,-814.68 362.28,-808.24"/>
</g>
<!-- Node16 -->
<g id="node16" class="node">
<title>Node16</title>
<g id="a_node16"><a xlink:href="classtracktion__engine_1_1LevelMeterPlugin.html" target="_top" xlink:title=" ">
<polygon fill="none" stroke="black" points="416.5,-832 416.5,-862 575.5,-862 575.5,-832 416.5,-832"/>
<text text-anchor="start" x="424.5" y="-850" font-family="Helvetica,sans-Serif" font-size="10.00">tracktion_engine::LevelMeter</text>
<text text-anchor="middle" x="496" y="-839" font-family="Helvetica,sans-Serif" font-size="10.00">Plugin</text>
</a>
</g>
</g>
<!-- Node3&#45;&gt;Node16 -->
<g id="edge15" class="edge">
<title>Node3&#45;&gt;Node16</title>
<path fill="none" stroke="midnightblue" d="M345.92,-810.01C372.61,-816.64 405.99,-824.92 434.39,-831.96"/>
<polygon fill="midnightblue" stroke="midnightblue" points="346.6,-806.58 336.05,-807.56 344.91,-813.37 346.6,-806.58"/>
</g>
<!-- Node17 -->
<g id="node17" class="node">
<title>Node17</title>
<g id="a_node17"><a xlink:href="classtracktion__engine_1_1LowPassPlugin.html" target="_top" xlink:title=" ">
<polygon fill="none" stroke="black" points="423,-783 423,-813 569,-813 569,-783 423,-783"/>
<text text-anchor="start" x="431" y="-801" font-family="Helvetica,sans-Serif" font-size="10.00">tracktion_engine::LowPass</text>
<text text-anchor="middle" x="496" y="-790" font-family="Helvetica,sans-Serif" font-size="10.00">Plugin</text>
</a>
</g>
</g>
<!-- Node3&#45;&gt;Node17 -->
<g id="edge16" class="edge">
<title>Node3&#45;&gt;Node17</title>
<path fill="none" stroke="midnightblue" d="M373.97,-798C390.06,-798 406.99,-798 422.91,-798"/>
<polygon fill="midnightblue" stroke="midnightblue" points="373.54,-794.5 363.54,-798 373.54,-801.5 373.54,-794.5"/>
</g>
<!-- Node18 -->
<g id="node18" class="node">
<title>Node18</title>
<g id="a_node18"><a xlink:href="classtracktion__engine_1_1MidiModifierPlugin.html" target="_top" xlink:title=" ">
<polygon fill="none" stroke="black" points="413.5,-734 413.5,-764 578.5,-764 578.5,-734 413.5,-734"/>
<text text-anchor="start" x="421.5" y="-752" font-family="Helvetica,sans-Serif" font-size="10.00">tracktion_engine::MidiModifier</text>
<text text-anchor="middle" x="496" y="-741" font-family="Helvetica,sans-Serif" font-size="10.00">Plugin</text>
</a>
</g>
</g>
<!-- Node3&#45;&gt;Node18 -->
<g id="edge17" class="edge">
<title>Node3&#45;&gt;Node18</title>
<path fill="none" stroke="midnightblue" d="M345.92,-785.99C372.61,-779.36 405.99,-771.08 434.39,-764.04"/>
<polygon fill="midnightblue" stroke="midnightblue" points="344.91,-782.63 336.05,-788.44 346.6,-789.42 344.91,-782.63"/>
</g>
<!-- Node19 -->
<g id="node19" class="node">
<title>Node19</title>
<g id="a_node19"><a xlink:href="classtracktion__engine_1_1MidiPatchBayPlugin.html" target="_top" xlink:title=" ">
<polygon fill="none" stroke="black" points="420,-685 420,-715 572,-715 572,-685 420,-685"/>
<text text-anchor="start" x="428" y="-703" font-family="Helvetica,sans-Serif" font-size="10.00">tracktion_engine::MidiPatch</text>
<text text-anchor="middle" x="496" y="-692" font-family="Helvetica,sans-Serif" font-size="10.00">BayPlugin</text>
</a>
</g>
</g>
<!-- Node3&#45;&gt;Node19 -->
<g id="edge18" class="edge">
<title>Node3&#45;&gt;Node19</title>
<path fill="none" stroke="midnightblue" d="M363.36,-784.22C366.38,-782.66 369.28,-780.93 372,-779 395.54,-762.33 384.72,-742.02 408,-725 413.33,-721.1 419.25,-717.81 425.43,-715.04"/>
<polygon fill="midnightblue" stroke="midnightblue" points="361.72,-781.12 354,-788.38 364.56,-787.51 361.72,-781.12"/>
</g>
<!-- Node20 -->
<g id="node20" class="node">
<title>Node20</title>
<g id="a_node20"><a xlink:href="classtracktion__engine_1_1PatchBayPlugin.html" target="_top" xlink:title=" ">
<polygon fill="none" stroke="black" points="421.5,-636 421.5,-666 570.5,-666 570.5,-636 421.5,-636"/>
<text text-anchor="start" x="429.5" y="-654" font-family="Helvetica,sans-Serif" font-size="10.00">tracktion_engine::PatchBay</text>
<text text-anchor="middle" x="496" y="-643" font-family="Helvetica,sans-Serif" font-size="10.00">Plugin</text>
</a>
</g>
</g>
<!-- Node3&#45;&gt;Node20 -->
<g id="edge19" class="edge">
<title>Node3&#45;&gt;Node20</title>
<path fill="none" stroke="midnightblue" d="M366.53,-783.36C368.45,-782.03 370.28,-780.58 372,-779 407.74,-746.23 372.76,-709.31 408,-676 412.11,-672.11 416.79,-668.83 421.79,-666.05"/>
<polygon fill="midnightblue" stroke="midnightblue" points="364.54,-780.47 357.61,-788.48 368.03,-786.53 364.54,-780.47"/>
</g>
<!-- Node21 -->
<g id="node21" class="node">
<title>Node21</title>
<g id="a_node21"><a xlink:href="classtracktion__engine_1_1PhaserPlugin.html" target="_top" xlink:title=" ">
<polygon fill="none" stroke="black" points="427.5,-587 427.5,-617 564.5,-617 564.5,-587 427.5,-587"/>
<text text-anchor="start" x="435.5" y="-605" font-family="Helvetica,sans-Serif" font-size="10.00">tracktion_engine::Phaser</text>
<text text-anchor="middle" x="496" y="-594" font-family="Helvetica,sans-Serif" font-size="10.00">Plugin</text>
</a>
</g>
</g>
<!-- Node3&#45;&gt;Node21 -->
<g id="edge20" class="edge">
<title>Node3&#45;&gt;Node21</title>
<path fill="none" stroke="midnightblue" d="M367.92,-782.67C369.35,-781.53 370.71,-780.31 372,-779 420.67,-729.49 360.08,-677.24 408,-627 413.42,-621.31 420.05,-616.9 427.2,-613.47"/>
<polygon fill="midnightblue" stroke="midnightblue" points="365.61,-780 359.12,-788.38 369.41,-785.88 365.61,-780"/>
</g>
<!-- Node22 -->
<g id="node22" class="node">
<title>Node22</title>
<g id="a_node22"><a xlink:href="classtracktion__engine_1_1PitchShiftPlugin.html" target="_top" xlink:title=" ">
<polygon fill="none" stroke="black" points="421,-538 421,-568 571,-568 571,-538 421,-538"/>
<text text-anchor="start" x="429" y="-556" font-family="Helvetica,sans-Serif" font-size="10.00">tracktion_engine::PitchShift</text>
<text text-anchor="middle" x="496" y="-545" font-family="Helvetica,sans-Serif" font-size="10.00">Plugin</text>
</a>
</g>
</g>
<!-- Node3&#45;&gt;Node22 -->
<g id="edge21" class="edge">
<title>Node3&#45;&gt;Node22</title>
<path fill="none" stroke="midnightblue" d="M368.13,-782.68C369.49,-781.54 370.78,-780.31 372,-779 433.81,-712.54 347.2,-645.38 408,-578 411.68,-573.92 415.99,-570.48 420.67,-567.6"/>
<polygon fill="midnightblue" stroke="midnightblue" points="366,-779.89 359.7,-788.41 369.94,-785.68 366,-779.89"/>
</g>
<!-- Node23 -->
<g id="node23" class="node">
<title>Node23</title>
<g id="a_node23"><a xlink:href="classtracktion__engine_1_1RackInstance.html" target="_top" xlink:title=" ">
<polygon fill="none" stroke="black" points="411,-499.5 411,-518.5 581,-518.5 581,-499.5 411,-499.5"/>
<text text-anchor="middle" x="496" y="-506.5" font-family="Helvetica,sans-Serif" font-size="10.00">tracktion_engine::RackInstance</text>
</a>
</g>
</g>
<!-- Node3&#45;&gt;Node23 -->
<g id="edge22" class="edge">
<title>Node3&#45;&gt;Node23</title>
<path fill="none" stroke="midnightblue" d="M368.64,-782.34C369.82,-781.29 370.94,-780.18 372,-779 447.03,-695.5 331.98,-611.6 408,-529 411.88,-524.78 416.46,-521.36 421.45,-518.6"/>
<polygon fill="midnightblue" stroke="midnightblue" points="366.31,-779.7 360.19,-788.34 370.37,-785.4 366.31,-779.7"/>
</g>
<!-- Node24 -->
<g id="node24" class="node">
<title>Node24</title>
<g id="a_node24"><a xlink:href="classtracktion__engine_1_1ReverbPlugin.html" target="_top" xlink:title=" ">
<polygon fill="none" stroke="black" points="426.5,-450 426.5,-480 565.5,-480 565.5,-450 426.5,-450"/>
<text text-anchor="start" x="434.5" y="-468" font-family="Helvetica,sans-Serif" font-size="10.00">tracktion_engine::Reverb</text>
<text text-anchor="middle" x="496" y="-457" font-family="Helvetica,sans-Serif" font-size="10.00">Plugin</text>
</a>
</g>
</g>
<!-- Node3&#45;&gt;Node24 -->
<g id="edge23" class="edge">
<title>Node3&#45;&gt;Node24</title>
<path fill="none" stroke="midnightblue" d="M368.67,-782.36C369.84,-781.31 370.95,-780.19 372,-779 457.59,-681.9 323.88,-588.37 408,-490 413,-484.15 419.28,-479.62 426.16,-476.12"/>
<polygon fill="midnightblue" stroke="midnightblue" points="366.34,-779.73 360.27,-788.41 370.43,-785.41 366.34,-779.73"/>
</g>
<!-- Node25 -->
<g id="node25" class="node">
<title>Node25</title>
<g id="a_node25"><a xlink:href="classtracktion__engine_1_1SamplerPlugin.html" target="_top" xlink:title=" ">
<polygon fill="none" stroke="black" points="423.5,-401 423.5,-431 568.5,-431 568.5,-401 423.5,-401"/>
<text text-anchor="start" x="431.5" y="-419" font-family="Helvetica,sans-Serif" font-size="10.00">tracktion_engine::Sampler</text>
<text text-anchor="middle" x="496" y="-408" font-family="Helvetica,sans-Serif" font-size="10.00">Plugin</text>
</a>
</g>
</g>
<!-- Node3&#45;&gt;Node25 -->
<g id="edge24" class="edge">
<title>Node3&#45;&gt;Node25</title>
<path fill="none" stroke="midnightblue" d="M368.7,-782.39C369.86,-781.33 370.96,-780.2 372,-779 470.89,-664.79 310.85,-556.69 408,-441 412.24,-435.95 417.44,-431.88 423.16,-428.61"/>
<polygon fill="midnightblue" stroke="midnightblue" points="366.37,-779.76 360.34,-788.47 370.49,-785.42 366.37,-779.76"/>
</g>
<!-- Node26 -->
<g id="node26" class="node">
<title>Node26</title>
<g id="a_node26"><a xlink:href="classtracktion__engine_1_1TextPlugin.html" target="_top" xlink:title=" ">
<polygon fill="none" stroke="black" points="418.5,-362.5 418.5,-381.5 573.5,-381.5 573.5,-362.5 418.5,-362.5"/>
<text text-anchor="middle" x="496" y="-369.5" font-family="Helvetica,sans-Serif" font-size="10.00">tracktion_engine::TextPlugin</text>
</a>
</g>
</g>
<!-- Node3&#45;&gt;Node26 -->
<g id="edge25" class="edge">
<title>Node3&#45;&gt;Node26</title>
<path fill="none" stroke="midnightblue" d="M368.82,-782.32C369.93,-781.28 371,-780.17 372,-779 428.1,-713.33 351.13,-457 408,-392 411.67,-387.8 416.03,-384.39 420.82,-381.62"/>
<polygon fill="midnightblue" stroke="midnightblue" points="366.68,-779.55 360.74,-788.32 370.85,-785.17 366.68,-779.55"/>
</g>
<!-- Node27 -->
<g id="node27" class="node">
<title>Node27</title>
<g id="a_node27"><a xlink:href="classtracktion__engine_1_1ToneGeneratorPlugin.html" target="_top" xlink:title=" ">
<polygon fill="none" stroke="black" points="408,-313 408,-343 584,-343 584,-313 408,-313"/>
<text text-anchor="start" x="416" y="-331" font-family="Helvetica,sans-Serif" font-size="10.00">tracktion_engine::ToneGenerator</text>
<text text-anchor="middle" x="496" y="-320" font-family="Helvetica,sans-Serif" font-size="10.00">Plugin</text>
</a>
</g>
</g>
<!-- Node3&#45;&gt;Node27 -->
<g id="edge26" class="edge">
<title>Node3&#45;&gt;Node27</title>
<path fill="none" stroke="midnightblue" d="M368.83,-782.33C369.94,-781.29 371,-780.18 372,-779 433.4,-706.5 347.7,-426.41 408,-353 411.09,-349.24 414.71,-346.02 418.68,-343.26"/>
<polygon fill="midnightblue" stroke="midnightblue" points="366.69,-779.56 360.77,-788.35 370.88,-785.17 366.69,-779.56"/>
</g>
<!-- Node28 -->
<g id="node28" class="node">
<title>Node28</title>
<g id="a_node28"><a xlink:href="classtracktion__engine_1_1VCAPlugin.html" target="_top" xlink:title="The VCA plugin sits on a folder track to control the overall level of all the volume/pan plugins in i...">
<polygon fill="none" stroke="black" points="418.5,-274.5 418.5,-293.5 573.5,-293.5 573.5,-274.5 418.5,-274.5"/>
<text text-anchor="middle" x="496" y="-281.5" font-family="Helvetica,sans-Serif" font-size="10.00">tracktion_engine::VCAPlugin</text>
</a>
</g>
</g>
<!-- Node3&#45;&gt;Node28 -->
<g id="edge27" class="edge">
<title>Node3&#45;&gt;Node28</title>
<path fill="none" stroke="midnightblue" d="M368.84,-782.35C369.95,-781.3 371.01,-780.18 372,-779 440.06,-697.92 338.98,-384.26 408,-304 411.64,-299.77 415.97,-296.33 420.74,-293.55"/>
<polygon fill="midnightblue" stroke="midnightblue" points="366.7,-779.58 360.81,-788.38 370.91,-785.17 366.7,-779.58"/>
</g>
<!-- Node29 -->
<g id="node29" class="node">
<title>Node29</title>
<g id="a_node29"><a xlink:href="classtracktion__engine_1_1VolumeAndPanPlugin.html" target="_top" xlink:title="The built&#45;in Tracktion volume/pan plugin.">
<polygon fill="none" stroke="black" points="425.5,-225 425.5,-255 566.5,-255 566.5,-225 425.5,-225"/>
<text text-anchor="start" x="433.5" y="-243" font-family="Helvetica,sans-Serif" font-size="10.00">tracktion_engine::Volume</text>
<text text-anchor="middle" x="496" y="-232" font-family="Helvetica,sans-Serif" font-size="10.00">AndPanPlugin</text>
</a>
</g>
</g>
<!-- Node3&#45;&gt;Node29 -->
<g id="edge28" class="edge">
<title>Node3&#45;&gt;Node29</title>
<path fill="none" stroke="midnightblue" d="M368.85,-782.35C369.96,-781.3 371.01,-780.18 372,-779 445.37,-691.09 335.96,-354 408,-265 412.75,-259.14 418.77,-254.59 425.43,-251.08"/>
<polygon fill="midnightblue" stroke="midnightblue" points="366.71,-779.59 360.83,-788.4 370.93,-785.17 366.71,-779.59"/>
</g>
<!-- Node32 -->
<g id="node32" class="node">
<title>Node32</title>
<g id="a_node32"><a xlink:href="classtracktion__engine_1_1AutomationTrack.html" target="_top" xlink:title=" ">
<polygon fill="none" stroke="black" points="415.5,-176 415.5,-206 576.5,-206 576.5,-176 415.5,-176"/>
<text text-anchor="start" x="423.5" y="-194" font-family="Helvetica,sans-Serif" font-size="10.00">tracktion_engine::Automation</text>
<text text-anchor="middle" x="496" y="-183" font-family="Helvetica,sans-Serif" font-size="10.00">Track</text>
</a>
</g>
</g>
<!-- Node31&#45;&gt;Node32 -->
<g id="edge31" class="edge">
<title>Node31&#45;&gt;Node32</title>
<path fill="none" stroke="midnightblue" d="M331.34,-138.31C353.09,-146.68 382.04,-157.47 408,-166 418.3,-169.39 429.37,-172.76 440.04,-175.89"/>
<polygon fill="midnightblue" stroke="midnightblue" points="332.48,-135 321.89,-134.65 329.95,-141.53 332.48,-135"/>
</g>
<!-- Node33 -->
<g id="node33" class="node">
<title>Node33</title>
<g id="a_node33"><a xlink:href="classtracktion__engine_1_1ClipTrack.html" target="_top" xlink:title=" ">
<polygon fill="none" stroke="black" points="421.5,-137.5 421.5,-156.5 570.5,-156.5 570.5,-137.5 421.5,-137.5"/>
<text text-anchor="middle" x="496" y="-144.5" font-family="Helvetica,sans-Serif" font-size="10.00">tracktion_engine::ClipTrack</text>
</a>
</g>
</g>
<!-- Node31&#45;&gt;Node33 -->
<g id="edge32" class="edge">
<title>Node31&#45;&gt;Node33</title>
<path fill="none" stroke="midnightblue" d="M371.59,-133.25C387.84,-135.06 405.03,-136.98 421.25,-138.79"/>
<polygon fill="midnightblue" stroke="midnightblue" points="371.95,-129.77 361.62,-132.14 371.17,-136.73 371.95,-129.77"/>
</g>
<!-- Node38 -->
<g id="node38" class="node">
<title>Node38</title>
<g id="a_node38"><a xlink:href="classtracktion__engine_1_1FolderTrack.html" target="_top" xlink:title=" ">
<polygon fill="none" stroke="black" points="429,-88 429,-118 563,-118 563,-88 429,-88"/>
<text text-anchor="start" x="437" y="-106" font-family="Helvetica,sans-Serif" font-size="10.00">tracktion_engine::Folder</text>
<text text-anchor="middle" x="496" y="-95" font-family="Helvetica,sans-Serif" font-size="10.00">Track</text>
</a>
</g>
</g>
<!-- Node31&#45;&gt;Node38 -->
<g id="edge37" class="edge">
<title>Node31&#45;&gt;Node38</title>
<path fill="none" stroke="midnightblue" d="M371.61,-116.74C390.4,-114.65 410.46,-112.42 428.83,-110.37"/>
<polygon fill="midnightblue" stroke="midnightblue" points="371.17,-113.27 361.62,-117.86 371.95,-120.23 371.17,-113.27"/>
</g>
<!-- Node39 -->
<g id="node39" class="node">
<title>Node39</title>
<g id="a_node39"><a xlink:href="classtracktion__engine_1_1MasterTrack.html" target="_top" xlink:title="A track to represent the master plugins.">
<polygon fill="none" stroke="black" points="427,-39 427,-69 565,-69 565,-39 427,-39"/>
<text text-anchor="start" x="435" y="-57" font-family="Helvetica,sans-Serif" font-size="10.00">tracktion_engine::Master</text>
<text text-anchor="middle" x="496" y="-46" font-family="Helvetica,sans-Serif" font-size="10.00">Track</text>
</a>
</g>
</g>
<!-- Node31&#45;&gt;Node39 -->
<g id="edge38" class="edge">
<title>Node31&#45;&gt;Node39</title>
<path fill="none" stroke="midnightblue" d="M327.1,-111.14C349.11,-101.14 380.05,-87.75 408,-78 417.02,-74.85 426.69,-71.84 436.17,-69.08"/>
<polygon fill="midnightblue" stroke="midnightblue" points="325.58,-107.98 317.95,-115.33 328.5,-114.35 325.58,-107.98"/>
</g>
<!-- Node40 -->
<g id="node40" class="node">
<title>Node40</title>
<g id="a_node40"><a xlink:href="classtracktion__engine_1_1TempoTrack.html" target="_top" xlink:title=" ">
<polygon fill="none" stroke="black" points="415,-0.5 415,-19.5 577,-19.5 577,-0.5 415,-0.5"/>
<text text-anchor="middle" x="496" y="-7.5" font-family="Helvetica,sans-Serif" font-size="10.00">tracktion_engine::TempoTrack</text>
</a>
</g>
</g>
<!-- Node31&#45;&gt;Node40 -->
<g id="edge39" class="edge">
<title>Node31&#45;&gt;Node40</title>
<path fill="none" stroke="midnightblue" d="M312.15,-107.79C331.72,-85.97 368.53,-48.81 408,-29 415.74,-25.12 424.25,-22.02 432.84,-19.56"/>
<polygon fill="midnightblue" stroke="midnightblue" points="309.5,-105.51 305.53,-115.33 314.76,-110.13 309.5,-105.51"/>
</g>
<!-- Node34 -->
<g id="node34" class="node">
<title>Node34</title>
<g id="a_node34"><a xlink:href="classtracktion__engine_1_1ArrangerTrack.html" target="_top" xlink:title="A track similar to the MarkerTrack but can be used to move sections of an Edit around.">
<polygon fill="none" stroke="black" points="626,-195 626,-225 772,-225 772,-195 626,-195"/>
<text text-anchor="start" x="634" y="-213" font-family="Helvetica,sans-Serif" font-size="10.00">tracktion_engine::Arranger</text>
<text text-anchor="middle" x="699" y="-202" font-family="Helvetica,sans-Serif" font-size="10.00">Track</text>
</a>
</g>
</g>
<!-- Node33&#45;&gt;Node34 -->
<g id="edge33" class="edge">
<title>Node33&#45;&gt;Node34</title>
<path fill="none" stroke="midnightblue" d="M557.72,-159.01C566.64,-161.33 575.63,-163.99 584,-167 600.84,-173.05 603.43,-178.25 620,-185 628.69,-188.54 638.09,-191.92 647.24,-194.98"/>
<polygon fill="midnightblue" stroke="midnightblue" points="558.28,-155.54 547.73,-156.53 556.6,-162.33 558.28,-155.54"/>
</g>
<!-- Node35 -->
<g id="node35" class="node">
<title>Node35</title>
<g id="a_node35"><a xlink:href="classtracktion__engine_1_1AudioTrack.html" target="_top" xlink:title=" ">
<polygon fill="none" stroke="black" points="620,-156.5 620,-175.5 778,-175.5 778,-156.5 620,-156.5"/>
<text text-anchor="middle" x="699" y="-163.5" font-family="Helvetica,sans-Serif" font-size="10.00">tracktion_engine::AudioTrack</text>
</a>
</g>
</g>
<!-- Node33&#45;&gt;Node35 -->
<g id="edge34" class="edge">
<title>Node33&#45;&gt;Node35</title>
<path fill="none" stroke="midnightblue" d="M580.96,-154.94C593.86,-156.16 607.14,-157.41 619.91,-158.62"/>
<polygon fill="midnightblue" stroke="midnightblue" points="580.99,-151.42 570.7,-153.97 580.33,-158.39 580.99,-151.42"/>
</g>
<!-- Node36 -->
<g id="node36" class="node">
<title>Node36</title>
<g id="a_node36"><a xlink:href="classtracktion__engine_1_1ChordTrack.html" target="_top" xlink:title=" ">
<polygon fill="none" stroke="black" points="620,-118.5 620,-137.5 778,-137.5 778,-118.5 620,-118.5"/>
<text text-anchor="middle" x="699" y="-125.5" font-family="Helvetica,sans-Serif" font-size="10.00">tracktion_engine::ChordTrack</text>
</a>
</g>
</g>
<!-- Node33&#45;&gt;Node36 -->
<g id="edge35" class="edge">
<title>Node33&#45;&gt;Node36</title>
<path fill="none" stroke="midnightblue" d="M580.96,-139.06C593.86,-137.84 607.14,-136.59 619.91,-135.38"/>
<polygon fill="midnightblue" stroke="midnightblue" points="580.33,-135.61 570.7,-140.03 580.99,-142.58 580.33,-135.61"/>
</g>
<!-- Node37 -->
<g id="node37" class="node">
<title>Node37</title>
<g id="a_node37"><a xlink:href="classtracktion__engine_1_1MarkerTrack.html" target="_top" xlink:title=" ">
<polygon fill="none" stroke="black" points="630,-69 630,-99 768,-99 768,-69 630,-69"/>
<text text-anchor="start" x="638" y="-87" font-family="Helvetica,sans-Serif" font-size="10.00">tracktion_engine::Marker</text>
<text text-anchor="middle" x="699" y="-76" font-family="Helvetica,sans-Serif" font-size="10.00">Track</text>
</a>
</g>
</g>
<!-- Node33&#45;&gt;Node37 -->
<g id="edge36" class="edge">
<title>Node33&#45;&gt;Node37</title>
<path fill="none" stroke="midnightblue" d="M557.72,-134.99C566.64,-132.67 575.63,-130.01 584,-127 600.84,-120.95 603.43,-115.75 620,-109 628.69,-105.46 638.09,-102.08 647.24,-99.02"/>
<polygon fill="midnightblue" stroke="midnightblue" points="556.6,-131.67 547.73,-137.47 558.28,-138.46 556.6,-131.67"/>
</g>
</g>
</svg>
