<?xml version="1.0" encoding="UTF-8" standalone="no"?>
<!DOCTYPE svg PUBLIC "-//W3C//DTD SVG 1.1//EN"
 "http://www.w3.org/Graphics/SVG/1.1/DTD/svg11.dtd">
<!-- Generated by graphviz version 2.43.0 (0)
 -->
<!-- Title: tracktion::engine::FourOscPlugin Pages: 1 -->
<svg width="592pt" height="230pt"
 viewBox="0.00 0.00 592.00 230.00" xmlns="http://www.w3.org/2000/svg" xmlns:xlink="http://www.w3.org/1999/xlink">
<g id="graph0" class="graph" transform="scale(1 1) rotate(0) translate(4 226)">
<title>tracktion::engine::FourOscPlugin</title>
<!-- Node1 -->
<g id="Node000001" class="node">
<title>Node1</title>
<g id="a_Node000001"><a xlink:title=" ">
<polygon fill="#999999" stroke="#666666" points="584,-102 479,-102 479,-72 584,-72 584,-102"/>
<text text-anchor="start" x="487" y="-90" font-family="Helvetica,sans-Serif" font-size="10.00">tracktion::engine::</text>
<text text-anchor="middle" x="531.5" y="-79" font-family="Helvetica,sans-Serif" font-size="10.00">FourOscPlugin</text>
</a>
</g>
</g>
<!-- Node2 -->
<g id="Node000002" class="node">
<title>Node2</title>
<g id="a_Node000002"><a xlink:href="classtracktion_1_1engine_1_1Plugin.html" target="_top" xlink:title=" ">
<polygon fill="white" stroke="#666666" points="434,-126 329,-126 329,-96 434,-96 434,-126"/>
<text text-anchor="start" x="337" y="-114" font-family="Helvetica,sans-Serif" font-size="10.00">tracktion::engine::</text>
<text text-anchor="middle" x="381.5" y="-103" font-family="Helvetica,sans-Serif" font-size="10.00">Plugin</text>
</a>
</g>
</g>
<!-- Node2&#45;&gt;Node1 -->
<g id="edge1_Node000001_Node000002" class="edge">
<title>Node2&#45;&gt;Node1</title>
<g id="a_edge1_Node000001_Node000002"><a xlink:title=" ">
<path fill="none" stroke="#63b8ff" d="M444.23,-100.99C455.72,-99.13 467.61,-97.2 478.77,-95.39"/>
<polygon fill="#63b8ff" stroke="#63b8ff" points="443.57,-97.55 434.26,-102.61 444.69,-104.46 443.57,-97.55"/>
</a>
</g>
</g>
<!-- Node3 -->
<g id="Node000003" class="node">
<title>Node3</title>
<g id="a_Node000003"><a xlink:href="classtracktion_1_1engine_1_1Selectable.html" target="_top" xlink:title="Base class for things that can be selected, and whose properties can appear in the properties panel.">
<polygon fill="white" stroke="#666666" points="265,-222 160,-222 160,-192 265,-192 265,-222"/>
<text text-anchor="start" x="168" y="-210" font-family="Helvetica,sans-Serif" font-size="10.00">tracktion::engine::</text>
<text text-anchor="middle" x="212.5" y="-199" font-family="Helvetica,sans-Serif" font-size="10.00">Selectable</text>
</a>
</g>
</g>
<!-- Node3&#45;&gt;Node2 -->
<g id="edge2_Node000002_Node000003" class="edge">
<title>Node3&#45;&gt;Node2</title>
<g id="a_edge2_Node000002_Node000003"><a xlink:title=" ">
<path fill="none" stroke="#63b8ff" d="M273.27,-188.15C276.95,-186.53 280.56,-184.81 284,-183 314.33,-167.03 345.41,-141.97 363.82,-126.03"/>
<polygon fill="#63b8ff" stroke="#63b8ff" points="271.91,-184.92 264,-191.97 274.58,-191.39 271.91,-184.92"/>
</a>
</g>
</g>
<!-- Node4 -->
<g id="Node000004" class="node">
<title>Node4</title>
<g id="a_Node000004"><a xlink:href="classtracktion_1_1engine_1_1Exportable.html" target="_top" xlink:title="An interface for objects within an edit that can be exported.">
<polygon fill="white" stroke="#666666" points="265,-174 160,-174 160,-144 265,-144 265,-174"/>
<text text-anchor="start" x="168" y="-162" font-family="Helvetica,sans-Serif" font-size="10.00">tracktion::engine::</text>
<text text-anchor="middle" x="212.5" y="-151" font-family="Helvetica,sans-Serif" font-size="10.00">Exportable</text>
</a>
</g>
</g>
<!-- Node4&#45;&gt;Node2 -->
<g id="edge3_Node000002_Node000004" class="edge">
<title>Node4&#45;&gt;Node2</title>
<g id="a_edge3_Node000002_Node000004"><a xlink:title=" ">
<path fill="none" stroke="#63b8ff" d="M275.08,-141.3C292.77,-136.21 311.87,-130.72 328.89,-125.83"/>
<polygon fill="#63b8ff" stroke="#63b8ff" points="274.07,-137.95 265.42,-144.08 276,-144.68 274.07,-137.95"/>
</a>
</g>
</g>
<!-- Node5 -->
<g id="Node000005" class="node">
<title>Node5</title>
<g id="a_Node000005"><a xlink:href="classtracktion_1_1engine_1_1AutomatableEditItem.html" target="_top" xlink:title="Base class for elements that have some kind of automatable parameters.">
<polygon fill="white" stroke="#666666" points="273,-126 152,-126 152,-96 273,-96 273,-126"/>
<text text-anchor="start" x="160" y="-114" font-family="Helvetica,sans-Serif" font-size="10.00">tracktion::engine::</text>
<text text-anchor="middle" x="212.5" y="-103" font-family="Helvetica,sans-Serif" font-size="10.00">AutomatableEditItem</text>
</a>
</g>
</g>
<!-- Node5&#45;&gt;Node2 -->
<g id="edge4_Node000002_Node000005" class="edge">
<title>Node5&#45;&gt;Node2</title>
<g id="a_edge4_Node000002_Node000005"><a xlink:title=" ">
<path fill="none" stroke="#63b8ff" d="M283.68,-111C298.82,-111 314.56,-111 328.83,-111"/>
<polygon fill="#63b8ff" stroke="#63b8ff" points="283.32,-107.5 273.32,-111 283.32,-114.5 283.32,-107.5"/>
</a>
</g>
</g>
<!-- Node6 -->
<g id="Node000006" class="node">
<title>Node6</title>
<g id="a_Node000006"><a xlink:href="classtracktion_1_1engine_1_1EditItem.html" target="_top" xlink:title="Base class for objects that live inside an edit &#45; e.g.">
<polygon fill="white" stroke="#666666" points="105,-126 0,-126 0,-96 105,-96 105,-126"/>
<text text-anchor="start" x="8" y="-114" font-family="Helvetica,sans-Serif" font-size="10.00">tracktion::engine::</text>
<text text-anchor="middle" x="52.5" y="-103" font-family="Helvetica,sans-Serif" font-size="10.00">EditItem</text>
</a>
</g>
</g>
<!-- Node6&#45;&gt;Node5 -->
<g id="edge5_Node000005_Node000006" class="edge">
<title>Node6&#45;&gt;Node5</title>
<g id="a_edge5_Node000005_Node000006"><a xlink:title=" ">
<path fill="none" stroke="#63b8ff" d="M115.59,-111C127.56,-111 140.08,-111 151.97,-111"/>
<polygon fill="#63b8ff" stroke="#63b8ff" points="115.24,-107.5 105.24,-111 115.24,-114.5 115.24,-107.5"/>
</a>
</g>
</g>
<!-- Node7 -->
<g id="Node000007" class="node">
<title>Node7</title>
<g id="a_Node000007"><a xlink:href="classtracktion_1_1engine_1_1MacroParameterElement.html" target="_top" xlink:title="Base class for elements which can contain macro parameters.">
<polygon fill="white" stroke="#666666" points="281,-78 144,-78 144,-48 281,-48 281,-78"/>
<text text-anchor="start" x="152" y="-66" font-family="Helvetica,sans-Serif" font-size="10.00">tracktion::engine::</text>
<text text-anchor="middle" x="212.5" y="-55" font-family="Helvetica,sans-Serif" font-size="10.00">MacroParameterElement</text>
</a>
</g>
</g>
<!-- Node7&#45;&gt;Node2 -->
<g id="edge6_Node000002_Node000007" class="edge">
<title>Node7&#45;&gt;Node2</title>
<g id="a_edge6_Node000002_Node000007"><a xlink:title=" ">
<path fill="none" stroke="#63b8ff" d="M275.97,-80.96C293.4,-85.97 312.14,-91.35 328.88,-96.16"/>
<polygon fill="#63b8ff" stroke="#63b8ff" points="276.46,-77.45 265.88,-78.06 274.53,-84.18 276.46,-77.45"/>
</a>
</g>
</g>
<!-- Node8 -->
<g id="Node000008" class="node">
<title>Node8</title>
<g id="a_Node000008"><a xlink:href="structtracktion_1_1engine_1_1ValueTreeAllEventListener.html" target="_top" xlink:title=" ">
<polygon fill="white" stroke="#666666" points="284,-30 141,-30 141,0 284,0 284,-30"/>
<text text-anchor="start" x="149" y="-18" font-family="Helvetica,sans-Serif" font-size="10.00">tracktion::engine::</text>
<text text-anchor="middle" x="212.5" y="-7" font-family="Helvetica,sans-Serif" font-size="10.00">ValueTreeAllEventListener</text>
</a>
</g>
</g>
<!-- Node8&#45;&gt;Node2 -->
<g id="edge7_Node000002_Node000008" class="edge">
<title>Node8&#45;&gt;Node2</title>
<g id="a_edge7_Node000002_Node000008"><a xlink:title=" ">
<path fill="none" stroke="darkgreen" d="M277.55,-34.77C279.78,-36.1 281.94,-37.51 284,-39 305.58,-54.66 298.81,-70.81 320,-87 324.4,-90.36 329.33,-93.32 334.43,-95.9"/>
<polygon fill="darkgreen" stroke="darkgreen" points="279.11,-31.64 268.63,-30.07 275.84,-37.83 279.11,-31.64"/>
</a>
</g>
</g>
<!-- Node9 -->
<g id="Node000009" class="node">
<title>Node9</title>
<g id="a_Node000009"><a xlink:href="structtracktion_1_1engine_1_1LevelMeasurer_1_1Client.html" target="_top" xlink:title=" ">
<polygon fill="white" stroke="#666666" points="443,-78 320,-78 320,-48 443,-48 443,-78"/>
<text text-anchor="start" x="328" y="-66" font-family="Helvetica,sans-Serif" font-size="10.00">tracktion::engine::</text>
<text text-anchor="middle" x="381.5" y="-55" font-family="Helvetica,sans-Serif" font-size="10.00">LevelMeasurer::Client</text>
</a>
</g>
</g>
<!-- Node9&#45;&gt;Node1 -->
<g id="edge8_Node000001_Node000009" class="edge">
<title>Node9&#45;&gt;Node1</title>
<g id="a_edge8_Node000001_Node000009"><a xlink:title=" ">
<path fill="none" stroke="#8b1a1a" d="M453.18,-74.46C461.79,-75.86 470.46,-77.26 478.72,-78.6"/>
<polygon fill="#8b1a1a" stroke="#8b1a1a" points="453.56,-70.98 443.12,-72.83 452.44,-77.89 453.56,-70.98"/>
</a>
</g>
</g>
</g>
</svg>
