<?xml version="1.0" encoding="UTF-8" standalone="no"?>
<!DOCTYPE svg PUBLIC "-//W3C//DTD SVG 1.1//EN"
 "http://www.w3.org/Graphics/SVG/1.1/DTD/svg11.dtd">
<!-- Generated by graphviz version 2.43.0 (0)
 -->
<!-- Title: tracktion_engine::Clip Pages: 1 -->
<svg width="940pt" height="218pt"
 viewBox="0.00 0.00 940.00 218.00" xmlns="http://www.w3.org/2000/svg" xmlns:xlink="http://www.w3.org/1999/xlink">
<g id="graph0" class="graph" transform="scale(1 1) rotate(0) translate(4 214)">
<title>tracktion_engine::Clip</title>
<!-- Node1 -->
<g id="node1" class="node">
<title>Node1</title>
<g id="a_node1"><a xlink:title="A clip in an edit.">
<polygon fill="#bfbfbf" stroke="black" points="384,-95.5 384,-114.5 507,-114.5 507,-95.5 384,-95.5"/>
<text text-anchor="middle" x="445.5" y="-102.5" font-family="Helvetica,sans-Serif" font-size="10.00">tracktion_engine::Clip</text>
</a>
</g>
</g>
<!-- Node6 -->
<g id="node6" class="node">
<title>Node6</title>
<g id="a_node6"><a xlink:href="classtracktion__engine_1_1ArrangerClip.html" target="_top" xlink:title=" ">
<polygon fill="none" stroke="black" points="548,-190.5 548,-209.5 713,-209.5 713,-190.5 548,-190.5"/>
<text text-anchor="middle" x="630.5" y="-197.5" font-family="Helvetica,sans-Serif" font-size="10.00">tracktion_engine::ArrangerClip</text>
</a>
</g>
</g>
<!-- Node1&#45;&gt;Node6 -->
<g id="edge5" class="edge">
<title>Node1&#45;&gt;Node6</title>
<path fill="none" stroke="midnightblue" d="M463,-121.91C481.03,-139.38 511.57,-166.14 543,-181 551.2,-184.88 560.22,-187.98 569.24,-190.45"/>
<polygon fill="midnightblue" stroke="midnightblue" points="465.2,-119.16 455.64,-114.61 460.28,-124.14 465.2,-119.16"/>
</g>
<!-- Node7 -->
<g id="node7" class="node">
<title>Node7</title>
<g id="a_node7"><a xlink:href="classtracktion__engine_1_1AudioClipBase.html" target="_top" xlink:title="Base class for Clips that produce some kind of audio e.g.">
<polygon fill="none" stroke="black" points="543,-152.5 543,-171.5 718,-171.5 718,-152.5 543,-152.5"/>
<text text-anchor="middle" x="630.5" y="-159.5" font-family="Helvetica,sans-Serif" font-size="10.00">tracktion_engine::AudioClipBase</text>
</a>
</g>
</g>
<!-- Node1&#45;&gt;Node7 -->
<g id="edge6" class="edge">
<title>Node1&#45;&gt;Node7</title>
<path fill="none" stroke="midnightblue" d="M477.22,-118.55C495.96,-126.44 520.56,-136.16 543,-143 554.77,-146.58 567.63,-149.78 579.75,-152.49"/>
<polygon fill="midnightblue" stroke="midnightblue" points="478.57,-115.31 468,-114.61 475.82,-121.75 478.57,-115.31"/>
</g>
<!-- Node10 -->
<g id="node10" class="node">
<title>Node10</title>
<g id="a_node10"><a xlink:href="classtracktion__engine_1_1ChordClip.html" target="_top" xlink:title=" ">
<polygon fill="none" stroke="black" points="554.5,-114.5 554.5,-133.5 706.5,-133.5 706.5,-114.5 554.5,-114.5"/>
<text text-anchor="middle" x="630.5" y="-121.5" font-family="Helvetica,sans-Serif" font-size="10.00">tracktion_engine::ChordClip</text>
</a>
</g>
</g>
<!-- Node1&#45;&gt;Node10 -->
<g id="edge9" class="edge">
<title>Node1&#45;&gt;Node10</title>
<path fill="none" stroke="midnightblue" d="M517.24,-112.34C529.39,-113.61 542.05,-114.92 554.31,-116.19"/>
<polygon fill="midnightblue" stroke="midnightblue" points="517.49,-108.85 507.18,-111.3 516.77,-115.81 517.49,-108.85"/>
</g>
<!-- Node11 -->
<g id="node11" class="node">
<title>Node11</title>
<g id="a_node11"><a xlink:href="classtracktion__engine_1_1MarkerClip.html" target="_top" xlink:title=" ">
<polygon fill="none" stroke="black" points="552,-76.5 552,-95.5 709,-95.5 709,-76.5 552,-76.5"/>
<text text-anchor="middle" x="630.5" y="-83.5" font-family="Helvetica,sans-Serif" font-size="10.00">tracktion_engine::MarkerClip</text>
</a>
</g>
</g>
<!-- Node1&#45;&gt;Node11 -->
<g id="edge10" class="edge">
<title>Node1&#45;&gt;Node11</title>
<path fill="none" stroke="midnightblue" d="M517.37,-97.64C528.62,-96.47 540.31,-95.26 551.71,-94.08"/>
<polygon fill="midnightblue" stroke="midnightblue" points="516.77,-94.19 507.18,-98.7 517.49,-101.15 516.77,-94.19"/>
</g>
<!-- Node12 -->
<g id="node12" class="node">
<title>Node12</title>
<g id="a_node12"><a xlink:href="classtracktion__engine_1_1MidiClip.html" target="_top" xlink:title=" ">
<polygon fill="none" stroke="black" points="558.5,-38.5 558.5,-57.5 702.5,-57.5 702.5,-38.5 558.5,-38.5"/>
<text text-anchor="middle" x="630.5" y="-45.5" font-family="Helvetica,sans-Serif" font-size="10.00">tracktion_engine::MidiClip</text>
</a>
</g>
</g>
<!-- Node1&#45;&gt;Node12 -->
<g id="edge11" class="edge">
<title>Node1&#45;&gt;Node12</title>
<path fill="none" stroke="midnightblue" d="M477.22,-91.45C495.96,-83.56 520.56,-73.84 543,-67 554.77,-63.42 567.63,-60.22 579.75,-57.51"/>
<polygon fill="midnightblue" stroke="midnightblue" points="475.82,-88.25 468,-95.39 478.57,-94.69 475.82,-88.25"/>
</g>
<!-- Node13 -->
<g id="node13" class="node">
<title>Node13</title>
<g id="a_node13"><a xlink:href="classtracktion__engine_1_1StepClip.html" target="_top" xlink:title=" ">
<polygon fill="none" stroke="black" points="558,-0.5 558,-19.5 703,-19.5 703,-0.5 558,-0.5"/>
<text text-anchor="middle" x="630.5" y="-7.5" font-family="Helvetica,sans-Serif" font-size="10.00">tracktion_engine::StepClip</text>
</a>
</g>
</g>
<!-- Node1&#45;&gt;Node13 -->
<g id="edge12" class="edge">
<title>Node1&#45;&gt;Node13</title>
<path fill="none" stroke="midnightblue" d="M463,-88.09C481.03,-70.62 511.57,-43.86 543,-29 551.2,-25.12 560.22,-22.02 569.24,-19.55"/>
<polygon fill="midnightblue" stroke="midnightblue" points="460.28,-85.86 455.64,-95.39 465.2,-90.84 460.28,-85.86"/>
</g>
<!-- Node2 -->
<g id="node2" class="node">
<title>Node2</title>
<g id="a_node2"><a xlink:href="classtracktion__engine_1_1TrackItem.html" target="_top" xlink:title="Base class for EditItems that live in a Track, e.g.">
<polygon fill="none" stroke="black" points="193.5,-114.5 193.5,-133.5 345.5,-133.5 345.5,-114.5 193.5,-114.5"/>
<text text-anchor="middle" x="269.5" y="-121.5" font-family="Helvetica,sans-Serif" font-size="10.00">tracktion_engine::TrackItem</text>
</a>
</g>
</g>
<!-- Node2&#45;&gt;Node1 -->
<g id="edge1" class="edge">
<title>Node2&#45;&gt;Node1</title>
<path fill="none" stroke="midnightblue" d="M355.8,-114.69C365.26,-113.65 374.76,-112.62 383.83,-111.63"/>
<polygon fill="midnightblue" stroke="midnightblue" points="355.12,-111.24 345.55,-115.8 355.88,-118.2 355.12,-111.24"/>
</g>
<!-- Node3 -->
<g id="node3" class="node">
<title>Node3</title>
<g id="a_node3"><a xlink:href="classtracktion__engine_1_1EditItem.html" target="_top" xlink:title="Base class for objects that live inside an edit &#45; e.g.">
<polygon fill="none" stroke="black" points="4.5,-133.5 4.5,-152.5 150.5,-152.5 150.5,-133.5 4.5,-133.5"/>
<text text-anchor="middle" x="77.5" y="-140.5" font-family="Helvetica,sans-Serif" font-size="10.00">tracktion_engine::EditItem</text>
</a>
</g>
</g>
<!-- Node3&#45;&gt;Node2 -->
<g id="edge2" class="edge">
<title>Node3&#45;&gt;Node2</title>
<path fill="none" stroke="midnightblue" d="M160.85,-134.76C171.63,-133.69 182.63,-132.59 193.29,-131.52"/>
<polygon fill="midnightblue" stroke="midnightblue" points="160.2,-131.31 150.6,-135.79 160.9,-138.28 160.2,-131.31"/>
</g>
<!-- Node4 -->
<g id="node4" class="node">
<title>Node4</title>
<g id="a_node4"><a xlink:href="classtracktion__engine_1_1Selectable.html" target="_top" xlink:title="Base class for things that can be selected, and whose properties can appear in the properties panel.">
<polygon fill="none" stroke="black" points="0,-95.5 0,-114.5 155,-114.5 155,-95.5 0,-95.5"/>
<text text-anchor="middle" x="77.5" y="-102.5" font-family="Helvetica,sans-Serif" font-size="10.00">tracktion_engine::Selectable</text>
</a>
</g>
</g>
<!-- Node4&#45;&gt;Node2 -->
<g id="edge3" class="edge">
<title>Node4&#45;&gt;Node2</title>
<path fill="none" stroke="midnightblue" d="M165.32,-113.68C174.67,-114.62 184.13,-115.56 193.33,-116.48"/>
<polygon fill="midnightblue" stroke="midnightblue" points="165.53,-110.19 155.23,-112.67 164.83,-117.15 165.53,-110.19"/>
</g>
<!-- Node5 -->
<g id="node5" class="node">
<title>Node5</title>
<g id="a_node5"><a xlink:href="classtracktion__engine_1_1Exportable.html" target="_top" xlink:title="An interface for objects within an edit that can be exported.">
<polygon fill="none" stroke="black" points="191,-76.5 191,-95.5 348,-95.5 348,-76.5 191,-76.5"/>
<text text-anchor="middle" x="269.5" y="-83.5" font-family="Helvetica,sans-Serif" font-size="10.00">tracktion_engine::Exportable</text>
</a>
</g>
</g>
<!-- Node5&#45;&gt;Node1 -->
<g id="edge4" class="edge">
<title>Node5&#45;&gt;Node1</title>
<path fill="none" stroke="midnightblue" d="M358.22,-95.58C366.86,-96.52 375.49,-97.46 383.77,-98.37"/>
<polygon fill="midnightblue" stroke="midnightblue" points="358.41,-92.08 348.09,-94.47 357.65,-99.04 358.41,-92.08"/>
</g>
<!-- Node8 -->
<g id="node8" class="node">
<title>Node8</title>
<g id="a_node8"><a xlink:href="classtracktion__engine_1_1EditClip.html" target="_top" xlink:title="This is the main source of an Edit clip and is responsible for managing its properties and creating a...">
<polygon fill="none" stroke="black" points="772,-171.5 772,-190.5 914,-190.5 914,-171.5 772,-171.5"/>
<text text-anchor="middle" x="843" y="-178.5" font-family="Helvetica,sans-Serif" font-size="10.00">tracktion_engine::EditClip</text>
</a>
</g>
</g>
<!-- Node7&#45;&gt;Node8 -->
<g id="edge7" class="edge">
<title>Node7&#45;&gt;Node8</title>
<path fill="none" stroke="midnightblue" d="M728.17,-170.73C742.9,-172.05 757.84,-173.4 771.86,-174.67"/>
<polygon fill="midnightblue" stroke="midnightblue" points="728.3,-167.22 718.03,-169.81 727.67,-174.2 728.3,-167.22"/>
</g>
<!-- Node9 -->
<g id="node9" class="node">
<title>Node9</title>
<g id="a_node9"><a xlink:href="classtracktion__engine_1_1WaveAudioClip.html" target="_top" xlink:title=" ">
<polygon fill="none" stroke="black" points="754,-133.5 754,-152.5 932,-152.5 932,-133.5 754,-133.5"/>
<text text-anchor="middle" x="843" y="-140.5" font-family="Helvetica,sans-Serif" font-size="10.00">tracktion_engine::WaveAudioClip</text>
</a>
</g>
</g>
<!-- Node7&#45;&gt;Node9 -->
<g id="edge8" class="edge">
<title>Node7&#45;&gt;Node9</title>
<path fill="none" stroke="midnightblue" d="M728.04,-153.29C736.62,-152.51 745.27,-151.73 753.76,-150.96"/>
<polygon fill="midnightblue" stroke="midnightblue" points="727.67,-149.8 718.03,-154.19 728.3,-156.78 727.67,-149.8"/>
</g>
</g>
</svg>
