<?xml version="1.0" encoding="UTF-8" standalone="no"?>
<!DOCTYPE svg PUBLIC "-//W3C//DTD SVG 1.1//EN"
 "http://www.w3.org/Graphics/SVG/1.1/DTD/svg11.dtd">
<!-- Generated by graphviz version 2.43.0 (0)
 -->
<!-- Title: tracktion::engine::InputDevice Pages: 1 -->
<svg width="568pt" height="110pt"
 viewBox="0.00 0.00 568.00 110.00" xmlns="http://www.w3.org/2000/svg" xmlns:xlink="http://www.w3.org/1999/xlink">
<g id="graph0" class="graph" transform="scale(1 1) rotate(0) translate(4 106)">
<title>tracktion::engine::InputDevice</title>
<!-- Node1 -->
<g id="Node000001" class="node">
<title>Node1</title>
<g id="a_Node000001"><a xlink:title="Represents an input device.">
<polygon fill="#999999" stroke="#666666" points="246,-54 141,-54 141,-24 246,-24 246,-54"/>
<text text-anchor="start" x="149" y="-42" font-family="Helvetica,sans-Serif" font-size="10.00">tracktion::engine::</text>
<text text-anchor="middle" x="193.5" y="-31" font-family="Helvetica,sans-Serif" font-size="10.00">InputDevice</text>
</a>
</g>
</g>
<!-- Node3 -->
<g id="Node000003" class="node">
<title>Node3</title>
<g id="a_Node000003"><a xlink:href="classtracktion_1_1engine_1_1MidiInputDevice.html" target="_top" xlink:title=" ">
<polygon fill="white" stroke="#666666" points="387,-78 282,-78 282,-48 387,-48 387,-78"/>
<text text-anchor="start" x="290" y="-66" font-family="Helvetica,sans-Serif" font-size="10.00">tracktion::engine::</text>
<text text-anchor="middle" x="334.5" y="-55" font-family="Helvetica,sans-Serif" font-size="10.00">MidiInputDevice</text>
</a>
</g>
</g>
<!-- Node1&#45;&gt;Node3 -->
<g id="edge2_Node000001_Node000003" class="edge">
<title>Node1&#45;&gt;Node3</title>
<g id="a_edge2_Node000001_Node000003"><a xlink:title=" ">
<path fill="none" stroke="#63b8ff" d="M256.16,-49.65C264.69,-51.12 273.38,-52.62 281.7,-54.06"/>
<polygon fill="#63b8ff" stroke="#63b8ff" points="256.71,-46.19 246.26,-47.94 255.52,-53.09 256.71,-46.19"/>
</a>
</g>
</g>
<!-- Node6 -->
<g id="Node000006" class="node">
<title>Node6</title>
<g id="a_Node000006"><a xlink:href="classtracktion_1_1engine_1_1WaveInputDevice.html" target="_top" xlink:title="A (virtual) audio input device.">
<polygon fill="white" stroke="#666666" points="387,-30 282,-30 282,0 387,0 387,-30"/>
<text text-anchor="start" x="290" y="-18" font-family="Helvetica,sans-Serif" font-size="10.00">tracktion::engine::</text>
<text text-anchor="middle" x="334.5" y="-7" font-family="Helvetica,sans-Serif" font-size="10.00">WaveInputDevice</text>
</a>
</g>
</g>
<!-- Node1&#45;&gt;Node6 -->
<g id="edge5_Node000001_Node000006" class="edge">
<title>Node1&#45;&gt;Node6</title>
<g id="a_edge5_Node000001_Node000006"><a xlink:title=" ">
<path fill="none" stroke="#63b8ff" d="M256.16,-28.35C264.69,-26.88 273.38,-25.38 281.7,-23.94"/>
<polygon fill="#63b8ff" stroke="#63b8ff" points="255.52,-24.91 246.26,-30.06 256.71,-31.81 255.52,-24.91"/>
</a>
</g>
</g>
<!-- Node2 -->
<g id="Node000002" class="node">
<title>Node2</title>
<g id="a_Node000002"><a xlink:href="classtracktion_1_1engine_1_1Selectable.html" target="_top" xlink:title="Base class for things that can be selected, and whose properties can appear in the properties panel.">
<polygon fill="white" stroke="#666666" points="105,-54 0,-54 0,-24 105,-24 105,-54"/>
<text text-anchor="start" x="8" y="-42" font-family="Helvetica,sans-Serif" font-size="10.00">tracktion::engine::</text>
<text text-anchor="middle" x="52.5" y="-31" font-family="Helvetica,sans-Serif" font-size="10.00">Selectable</text>
</a>
</g>
</g>
<!-- Node2&#45;&gt;Node1 -->
<g id="edge1_Node000001_Node000002" class="edge">
<title>Node2&#45;&gt;Node1</title>
<g id="a_edge1_Node000001_Node000002"><a xlink:title=" ">
<path fill="none" stroke="#63b8ff" d="M115.44,-39C123.88,-39 132.47,-39 140.7,-39"/>
<polygon fill="#63b8ff" stroke="#63b8ff" points="115.26,-35.5 105.26,-39 115.26,-42.5 115.26,-35.5"/>
</a>
</g>
</g>
<!-- Node4 -->
<g id="Node000004" class="node">
<title>Node4</title>
<g id="a_Node000004"><a xlink:href="classtracktion_1_1engine_1_1PhysicalMidiInputDevice.html" target="_top" xlink:title=" ">
<polygon fill="white" stroke="#666666" points="560,-102 423,-102 423,-72 560,-72 560,-102"/>
<text text-anchor="start" x="431" y="-90" font-family="Helvetica,sans-Serif" font-size="10.00">tracktion::engine::</text>
<text text-anchor="middle" x="491.5" y="-79" font-family="Helvetica,sans-Serif" font-size="10.00">PhysicalMidiInputDevice</text>
</a>
</g>
</g>
<!-- Node3&#45;&gt;Node4 -->
<g id="edge3_Node000003_Node000004" class="edge">
<title>Node3&#45;&gt;Node4</title>
<g id="a_edge3_Node000003_Node000004"><a xlink:title=" ">
<path fill="none" stroke="#63b8ff" d="M397.23,-72.56C405.65,-73.86 414.32,-75.21 422.84,-76.52"/>
<polygon fill="#63b8ff" stroke="#63b8ff" points="397.53,-69.06 387.11,-70.99 396.46,-75.98 397.53,-69.06"/>
</a>
</g>
</g>
<!-- Node5 -->
<g id="Node000005" class="node">
<title>Node5</title>
<g id="a_Node000005"><a xlink:href="classtracktion_1_1engine_1_1VirtualMidiInputDevice.html" target="_top" xlink:title=" ">
<polygon fill="white" stroke="#666666" points="555.5,-54 427.5,-54 427.5,-24 555.5,-24 555.5,-54"/>
<text text-anchor="start" x="435.5" y="-42" font-family="Helvetica,sans-Serif" font-size="10.00">tracktion::engine::</text>
<text text-anchor="middle" x="491.5" y="-31" font-family="Helvetica,sans-Serif" font-size="10.00">VirtualMidiInputDevice</text>
</a>
</g>
</g>
<!-- Node3&#45;&gt;Node5 -->
<g id="edge4_Node000003_Node000005" class="edge">
<title>Node3&#45;&gt;Node5</title>
<g id="a_edge4_Node000003_Node000005"><a xlink:title=" ">
<path fill="none" stroke="#63b8ff" d="M397.24,-53.44C407.11,-51.91 417.34,-50.33 427.25,-48.79"/>
<polygon fill="#63b8ff" stroke="#63b8ff" points="396.46,-50.02 387.11,-55.01 397.53,-56.94 396.46,-50.02"/>
</a>
</g>
</g>
</g>
</svg>
