<?xml version="1.0" encoding="UTF-8" standalone="no"?>
<!DOCTYPE svg PUBLIC "-//W3C//DTD SVG 1.1//EN"
 "http://www.w3.org/Graphics/SVG/1.1/DTD/svg11.dtd">
<!-- Generated by graphviz version 2.40.1 (20161225.0304)
 -->
<!-- Title: tracktion_engine::CurveEditor Pages: 1 -->
<svg width="339pt" height="137pt"
 viewBox="0.00 0.00 339.00 137.00" xmlns="http://www.w3.org/2000/svg" xmlns:xlink="http://www.w3.org/1999/xlink">
<g id="graph0" class="graph" transform="scale(1 1) rotate(0) translate(4 133)">
<title>tracktion_engine::CurveEditor</title>
<!-- Node0 -->
<g id="node1" class="node">
<title>Node0</title>
<polygon fill="#bfbfbf" stroke="#000000" points="185,-55 185,-74 331,-74 331,-55 185,-55"/>
<text text-anchor="middle" x="258" y="-62" font-family="Helvetica,sans-Serif" font-size="10.00" fill="#000000">tracktion_engine::CurveEditor</text>
</g>
<!-- Node1 -->
<g id="node2" class="node">
<title>Node1</title>
<g id="a_node2"><a xlink:href="classtracktion__engine_1_1SelectableListener.html" target="_top" xlink:title="tracktion_engine::Selectable\lListener">
<polygon fill="none" stroke="#000000" points="4.5,-98.5 4.5,-128.5 144.5,-128.5 144.5,-98.5 4.5,-98.5"/>
<text text-anchor="start" x="12.5" y="-116.5" font-family="Helvetica,sans-Serif" font-size="10.00" fill="#000000">tracktion_engine::Selectable</text>
<text text-anchor="middle" x="74.5" y="-105.5" font-family="Helvetica,sans-Serif" font-size="10.00" fill="#000000">Listener</text>
</a>
</g>
</g>
<!-- Node1&#45;&gt;Node0 -->
<g id="edge1" class="edge">
<title>Node1&#45;&gt;Node0</title>
<path fill="none" stroke="#191970" d="M140.7774,-95.8019C168.3144,-88.4487 199.1761,-80.2077 222.3188,-74.028"/>
<polygon fill="#191970" stroke="#191970" points="139.5616,-92.5039 130.8031,-98.4654 141.3676,-99.2669 139.5616,-92.5039"/>
</g>
<!-- Node2 -->
<g id="node3" class="node">
<title>Node2</title>
<g id="a_node3"><a xlink:href="classtracktion__engine_1_1MouseHoverDetector.html" target="_top" xlink:title="tracktion_engine::MouseHover\lDetector">
<polygon fill="none" stroke="#000000" points="0,-49.5 0,-79.5 149,-79.5 149,-49.5 0,-49.5"/>
<text text-anchor="start" x="8" y="-67.5" font-family="Helvetica,sans-Serif" font-size="10.00" fill="#000000">tracktion_engine::MouseHover</text>
<text text-anchor="middle" x="74.5" y="-56.5" font-family="Helvetica,sans-Serif" font-size="10.00" fill="#000000">Detector</text>
</a>
</g>
</g>
<!-- Node2&#45;&gt;Node0 -->
<g id="edge2" class="edge">
<title>Node2&#45;&gt;Node0</title>
<path fill="none" stroke="#191970" d="M159.174,-64.5C167.7727,-64.5 176.4548,-64.5 184.9157,-64.5"/>
<polygon fill="#191970" stroke="#191970" points="159.1365,-61.0001 149.1365,-64.5 159.1364,-68.0001 159.1365,-61.0001"/>
</g>
<!-- Node3 -->
<g id="node4" class="node">
<title>Node3</title>
<g id="a_node4"><a xlink:href="structtracktion__engine_1_1TransparentToMouseInTrackItemComp.html" target="_top" xlink:title="tracktion_engine::Transparent\lToMouseInTrackItemComp">
<polygon fill="none" stroke="#000000" points="1.5,-.5 1.5,-30.5 147.5,-30.5 147.5,-.5 1.5,-.5"/>
<text text-anchor="start" x="9.5" y="-18.5" font-family="Helvetica,sans-Serif" font-size="10.00" fill="#000000">tracktion_engine::Transparent</text>
<text text-anchor="middle" x="74.5" y="-7.5" font-family="Helvetica,sans-Serif" font-size="10.00" fill="#000000">ToMouseInTrackItemComp</text>
</a>
</g>
</g>
<!-- Node3&#45;&gt;Node0 -->
<g id="edge3" class="edge">
<title>Node3&#45;&gt;Node0</title>
<path fill="none" stroke="#191970" d="M140.7774,-33.1981C168.3144,-40.5513 199.1761,-48.7923 222.3188,-54.972"/>
<polygon fill="#191970" stroke="#191970" points="141.3676,-29.7331 130.8031,-30.5346 139.5616,-36.4961 141.3676,-29.7331"/>
</g>
</g>
</svg>
