<?xml version="1.0" encoding="UTF-8" standalone="no"?>
<!DOCTYPE svg PUBLIC "-//W3C//DTD SVG 1.1//EN"
 "http://www.w3.org/Graphics/SVG/1.1/DTD/svg11.dtd">
<!-- Generated by graphviz version 2.43.0 (0)
 -->
<!-- Title: tracktion::engine::RenderManager::Job Pages: 1 -->
<svg width="462pt" height="137pt"
 viewBox="0.00 0.00 462.00 137.00" xmlns="http://www.w3.org/2000/svg" xmlns:xlink="http://www.w3.org/1999/xlink">
<g id="graph0" class="graph" transform="scale(1 1) rotate(0) translate(4 133)">
<title>tracktion::engine::RenderManager::Job</title>
<!-- Node1 -->
<g id="node1" class="node">
<title>Node1</title>
<g id="a_node1"><a xlink:title="The base class that all generator jobs derive from.">
<polygon fill="#bfbfbf" stroke="black" points="187,-49.5 187,-79.5 302,-79.5 302,-49.5 187,-49.5"/>
<text text-anchor="start" x="195" y="-67.5" font-family="Helvetica,sans-Serif" font-size="10.00">tracktion::engine::</text>
<text text-anchor="middle" x="244.5" y="-56.5" font-family="Helvetica,sans-Serif" font-size="10.00">RenderManager::Job</text>
</a>
</g>
</g>
<!-- Node3 -->
<g id="node3" class="node">
<title>Node3</title>
<g id="a_node3"><a xlink:href="classtracktion_1_1engine_1_1EditRenderJob.html" target="_top" xlink:title=" ">
<polygon fill="none" stroke="black" points="343.5,-98.5 343.5,-128.5 448.5,-128.5 448.5,-98.5 343.5,-98.5"/>
<text text-anchor="start" x="351.5" y="-116.5" font-family="Helvetica,sans-Serif" font-size="10.00">tracktion::engine::</text>
<text text-anchor="middle" x="396" y="-105.5" font-family="Helvetica,sans-Serif" font-size="10.00">EditRenderJob</text>
</a>
</g>
</g>
<!-- Node1&#45;&gt;Node3 -->
<g id="edge2" class="edge">
<title>Node1&#45;&gt;Node3</title>
<path fill="none" stroke="midnightblue" d="M301.21,-82.76C316.98,-87.93 333.96,-93.49 349.08,-98.45"/>
<polygon fill="midnightblue" stroke="midnightblue" points="302.17,-79.39 291.57,-79.6 299.99,-86.04 302.17,-79.39"/>
</g>
<!-- Node4 -->
<g id="node4" class="node">
<title>Node4</title>
<g id="a_node4"><a xlink:href="classtracktion_1_1engine_1_1ReverseRenderJob.html" target="_top" xlink:title=" ">
<polygon fill="none" stroke="black" points="343,-49.5 343,-79.5 449,-79.5 449,-49.5 343,-49.5"/>
<text text-anchor="start" x="351" y="-67.5" font-family="Helvetica,sans-Serif" font-size="10.00">tracktion::engine::</text>
<text text-anchor="middle" x="396" y="-56.5" font-family="Helvetica,sans-Serif" font-size="10.00">ReverseRenderJob</text>
</a>
</g>
</g>
<!-- Node1&#45;&gt;Node4 -->
<g id="edge3" class="edge">
<title>Node1&#45;&gt;Node4</title>
<path fill="none" stroke="midnightblue" d="M312.19,-64.5C322.46,-64.5 332.94,-64.5 342.83,-64.5"/>
<polygon fill="midnightblue" stroke="midnightblue" points="312.02,-61 302.02,-64.5 312.02,-68 312.02,-61"/>
</g>
<!-- Node5 -->
<g id="node5" class="node">
<title>Node5</title>
<g id="a_node5"><a xlink:href="classtracktion_1_1engine_1_1WarpTimeRenderJob.html" target="_top" xlink:title=" ">
<polygon fill="none" stroke="black" points="338,-0.5 338,-30.5 454,-30.5 454,-0.5 338,-0.5"/>
<text text-anchor="start" x="346" y="-18.5" font-family="Helvetica,sans-Serif" font-size="10.00">tracktion::engine::</text>
<text text-anchor="middle" x="396" y="-7.5" font-family="Helvetica,sans-Serif" font-size="10.00">WarpTimeRenderJob</text>
</a>
</g>
</g>
<!-- Node1&#45;&gt;Node5 -->
<g id="edge4" class="edge">
<title>Node1&#45;&gt;Node5</title>
<path fill="none" stroke="midnightblue" d="M301.21,-46.24C316.98,-41.07 333.96,-35.51 349.08,-30.55"/>
<polygon fill="midnightblue" stroke="midnightblue" points="299.99,-42.96 291.57,-49.4 302.17,-49.61 299.99,-42.96"/>
</g>
<!-- Node2 -->
<g id="node2" class="node">
<title>Node2</title>
<g id="a_node2"><a xlink:href="classtracktion_1_1engine_1_1ThreadPoolJobWithProgress.html" target="_top" xlink:title=" ">
<polygon fill="none" stroke="black" points="0,-49.5 0,-79.5 151,-79.5 151,-49.5 0,-49.5"/>
<text text-anchor="start" x="8" y="-67.5" font-family="Helvetica,sans-Serif" font-size="10.00">tracktion::engine::</text>
<text text-anchor="middle" x="75.5" y="-56.5" font-family="Helvetica,sans-Serif" font-size="10.00">ThreadPoolJobWithProgress</text>
</a>
</g>
</g>
<!-- Node2&#45;&gt;Node1 -->
<g id="edge1" class="edge">
<title>Node2&#45;&gt;Node1</title>
<path fill="none" stroke="midnightblue" d="M161.36,-64.5C170.01,-64.5 178.65,-64.5 186.89,-64.5"/>
<polygon fill="midnightblue" stroke="midnightblue" points="161.21,-61 151.21,-64.5 161.21,-68 161.21,-61"/>
</g>
</g>
</svg>
