<?xml version="1.0" encoding="UTF-8" standalone="no"?>
<!DOCTYPE svg PUBLIC "-//W3C//DTD SVG 1.1//EN"
 "http://www.w3.org/Graphics/SVG/1.1/DTD/svg11.dtd">
<!-- Generated by graphviz version 2.43.0 (0)
 -->
<!-- Title: tracktion_engine::EditClip Pages: 1 -->
<svg width="599pt" height="274pt"
 viewBox="0.00 0.00 599.00 274.00" xmlns="http://www.w3.org/2000/svg" xmlns:xlink="http://www.w3.org/1999/xlink">
<g id="graph0" class="graph" transform="scale(1 1) rotate(0) translate(4 270)">
<title>tracktion_engine::EditClip</title>
<!-- Node1 -->
<g id="node1" class="node">
<title>Node1</title>
<g id="a_node1"><a xlink:title="This is the main source of an Edit clip and is responsible for managing its properties and creating a...">
<polygon fill="#bfbfbf" stroke="black" points="341,-0.5 341,-19.5 483,-19.5 483,-0.5 341,-0.5"/>
<text text-anchor="middle" x="412" y="-7.5" font-family="Helvetica,sans-Serif" font-size="10.00">tracktion_engine::EditClip</text>
</a>
</g>
</g>
<!-- Node2 -->
<g id="node2" class="node">
<title>Node2</title>
<g id="a_node2"><a xlink:href="classtracktion__engine_1_1AudioClipBase.html" target="_top" xlink:title="Base class for Clips that produce some kind of audio e.g.">
<polygon fill="none" stroke="black" points="229.5,-62 229.5,-81 404.5,-81 404.5,-62 229.5,-62"/>
<text text-anchor="middle" x="317" y="-69" font-family="Helvetica,sans-Serif" font-size="10.00">tracktion_engine::AudioClipBase</text>
</a>
</g>
</g>
<!-- Node2&#45;&gt;Node1 -->
<g id="edge1" class="edge">
<title>Node2&#45;&gt;Node1</title>
<path fill="none" stroke="midnightblue" d="M339.21,-56.59C357.55,-45.1 382.98,-29.18 398.41,-19.51"/>
<polygon fill="midnightblue" stroke="midnightblue" points="337.23,-53.7 330.61,-61.98 340.94,-59.63 337.23,-53.7"/>
</g>
<!-- Node3 -->
<g id="node3" class="node">
<title>Node3</title>
<g id="a_node3"><a xlink:href="classtracktion__engine_1_1Clip.html" target="_top" xlink:title="A clip in an edit.">
<polygon fill="none" stroke="black" points="181.5,-129 181.5,-148 304.5,-148 304.5,-129 181.5,-129"/>
<text text-anchor="middle" x="243" y="-136" font-family="Helvetica,sans-Serif" font-size="10.00">tracktion_engine::Clip</text>
</a>
</g>
</g>
<!-- Node3&#45;&gt;Node2 -->
<g id="edge2" class="edge">
<title>Node3&#45;&gt;Node2</title>
<path fill="none" stroke="midnightblue" d="M260.81,-121.86C275.36,-109.08 295.38,-91.49 307.18,-81.13"/>
<polygon fill="midnightblue" stroke="midnightblue" points="258.18,-119.5 252.98,-128.73 262.8,-124.76 258.18,-119.5"/>
</g>
<!-- Node4 -->
<g id="node4" class="node">
<title>Node4</title>
<g id="a_node4"><a xlink:href="classtracktion__engine_1_1TrackItem.html" target="_top" xlink:title="Base class for EditItems that live in a Track, e.g.">
<polygon fill="none" stroke="black" points="81,-190.5 81,-209.5 233,-209.5 233,-190.5 81,-190.5"/>
<text text-anchor="middle" x="157" y="-197.5" font-family="Helvetica,sans-Serif" font-size="10.00">tracktion_engine::TrackItem</text>
</a>
</g>
</g>
<!-- Node4&#45;&gt;Node3 -->
<g id="edge3" class="edge">
<title>Node4&#45;&gt;Node3</title>
<path fill="none" stroke="midnightblue" d="M177.8,-184.61C194.34,-173.17 216.92,-157.55 230.7,-148.01"/>
<polygon fill="midnightblue" stroke="midnightblue" points="175.55,-181.91 169.32,-190.48 179.54,-187.66 175.55,-181.91"/>
</g>
<!-- Node5 -->
<g id="node5" class="node">
<title>Node5</title>
<g id="a_node5"><a xlink:href="classtracktion__engine_1_1EditItem.html" target="_top" xlink:title="Base class for objects that live inside an edit &#45; e.g.">
<polygon fill="none" stroke="black" points="0,-246.5 0,-265.5 146,-265.5 146,-246.5 0,-246.5"/>
<text text-anchor="middle" x="73" y="-253.5" font-family="Helvetica,sans-Serif" font-size="10.00">tracktion_engine::EditItem</text>
</a>
</g>
</g>
<!-- Node5&#45;&gt;Node4 -->
<g id="edge4" class="edge">
<title>Node5&#45;&gt;Node4</title>
<path fill="none" stroke="midnightblue" d="M94.93,-240.9C110.34,-231 130.45,-218.07 143.54,-209.65"/>
<polygon fill="midnightblue" stroke="midnightblue" points="93.02,-237.97 86.5,-246.32 96.8,-243.86 93.02,-237.97"/>
</g>
<!-- Node6 -->
<g id="node6" class="node">
<title>Node6</title>
<g id="a_node6"><a xlink:href="classtracktion__engine_1_1Selectable.html" target="_top" xlink:title="Base class for things that can be selected, and whose properties can appear in the properties panel.">
<polygon fill="none" stroke="black" points="164.5,-246.5 164.5,-265.5 319.5,-265.5 319.5,-246.5 164.5,-246.5"/>
<text text-anchor="middle" x="242" y="-253.5" font-family="Helvetica,sans-Serif" font-size="10.00">tracktion_engine::Selectable</text>
</a>
</g>
</g>
<!-- Node6&#45;&gt;Node4 -->
<g id="edge5" class="edge">
<title>Node6&#45;&gt;Node4</title>
<path fill="none" stroke="midnightblue" d="M219.81,-240.9C204.22,-231 183.87,-218.07 170.62,-209.65"/>
<polygon fill="midnightblue" stroke="midnightblue" points="218.03,-243.92 228.34,-246.32 221.78,-238.01 218.03,-243.92"/>
</g>
<!-- Node7 -->
<g id="node7" class="node">
<title>Node7</title>
<g id="a_node7"><a xlink:href="classtracktion__engine_1_1Exportable.html" target="_top" xlink:title="An interface for objects within an edit that can be exported.">
<polygon fill="none" stroke="black" points="251.5,-190.5 251.5,-209.5 408.5,-209.5 408.5,-190.5 251.5,-190.5"/>
<text text-anchor="middle" x="330" y="-197.5" font-family="Helvetica,sans-Serif" font-size="10.00">tracktion_engine::Exportable</text>
</a>
</g>
</g>
<!-- Node7&#45;&gt;Node3 -->
<g id="edge6" class="edge">
<title>Node7&#45;&gt;Node3</title>
<path fill="none" stroke="midnightblue" d="M308.96,-184.61C292.23,-173.17 269.39,-157.55 255.44,-148.01"/>
<polygon fill="midnightblue" stroke="midnightblue" points="307.3,-187.72 317.54,-190.48 311.26,-181.94 307.3,-187.72"/>
</g>
<!-- Node8 -->
<g id="node8" class="node">
<title>Node8</title>
<g id="a_node8"><a xlink:href="structtracktion__engine_1_1RenderManager_1_1Job_1_1Listener.html" target="_top" xlink:title=" ">
<polygon fill="none" stroke="black" points="322.5,-123.5 322.5,-153.5 461.5,-153.5 461.5,-123.5 322.5,-123.5"/>
<text text-anchor="start" x="330.5" y="-141.5" font-family="Helvetica,sans-Serif" font-size="10.00">tracktion_engine::Render</text>
<text text-anchor="middle" x="392" y="-130.5" font-family="Helvetica,sans-Serif" font-size="10.00">Manager::Job::Listener</text>
</a>
</g>
</g>
<!-- Node8&#45;&gt;Node2 -->
<g id="edge7" class="edge">
<title>Node8&#45;&gt;Node2</title>
<path fill="none" stroke="midnightblue" d="M367.97,-116.67C354.12,-104.67 337.45,-90.22 327.03,-81.19"/>
<polygon fill="midnightblue" stroke="midnightblue" points="365.88,-119.49 375.73,-123.4 370.46,-114.2 365.88,-119.49"/>
</g>
<!-- Node9 -->
<g id="node9" class="node">
<title>Node9</title>
<g id="a_node9"><a xlink:href="structtracktion__engine_1_1EditSnapshot_1_1Listener.html" target="_top" xlink:title=" ">
<polygon fill="none" stroke="black" points="423,-56.5 423,-86.5 591,-86.5 591,-56.5 423,-56.5"/>
<text text-anchor="start" x="431" y="-74.5" font-family="Helvetica,sans-Serif" font-size="10.00">tracktion_engine::EditSnapshot</text>
<text text-anchor="middle" x="507" y="-63.5" font-family="Helvetica,sans-Serif" font-size="10.00">::Listener</text>
</a>
</g>
</g>
<!-- Node9&#45;&gt;Node1 -->
<g id="edge8" class="edge">
<title>Node9&#45;&gt;Node1</title>
<path fill="none" stroke="#8b1a1a" d="M475.98,-51.07C459.04,-40.46 438.92,-27.86 425.82,-19.66"/>
<polygon fill="#8b1a1a" stroke="#8b1a1a" points="474.15,-54.06 484.49,-56.4 477.87,-48.13 474.15,-54.06"/>
</g>
</g>
</svg>
