<?xml version="1.0" encoding="UTF-8" standalone="no"?>
<!DOCTYPE svg PUBLIC "-//W3C//DTD SVG 1.1//EN"
 "http://www.w3.org/Graphics/SVG/1.1/DTD/svg11.dtd">
<!-- Generated by graphviz version 2.43.0 (0)
 -->
<!-- Title: tracktion_engine::Track Pages: 1 -->
<svg width="751pt" height="234pt"
 viewBox="0.00 0.00 751.00 233.50" xmlns="http://www.w3.org/2000/svg" xmlns:xlink="http://www.w3.org/1999/xlink">
<g id="graph0" class="graph" transform="scale(1 1) rotate(0) translate(4 229.5)">
<title>tracktion_engine::Track</title>
<!-- Node1 -->
<g id="node1" class="node">
<title>Node1</title>
<g id="a_node1"><a xlink:title="Base class for tracks which contain clips and plugins and can be added to Edit[s].">
<polygon fill="#bfbfbf" stroke="black" points="221,-93.5 221,-112.5 351,-112.5 351,-93.5 221,-93.5"/>
<text text-anchor="middle" x="286" y="-100.5" font-family="Helvetica,sans-Serif" font-size="10.00">tracktion_engine::Track</text>
</a>
</g>
</g>
<!-- Node5 -->
<g id="node5" class="node">
<title>Node5</title>
<g id="a_node5"><a xlink:href="classtracktion__engine_1_1AutomationTrack.html" target="_top" xlink:title=" ">
<polygon fill="none" stroke="black" points="387.5,-176 387.5,-206 548.5,-206 548.5,-176 387.5,-176"/>
<text text-anchor="start" x="395.5" y="-194" font-family="Helvetica,sans-Serif" font-size="10.00">tracktion_engine::Automation</text>
<text text-anchor="middle" x="468" y="-183" font-family="Helvetica,sans-Serif" font-size="10.00">Track</text>
</a>
</g>
</g>
<!-- Node1&#45;&gt;Node5 -->
<g id="edge4" class="edge">
<title>Node1&#45;&gt;Node5</title>
<path fill="none" stroke="midnightblue" d="M308.17,-118.63C327.81,-132.55 358.24,-152.72 387,-166 394.93,-169.66 403.53,-172.98 412.06,-175.91"/>
<polygon fill="midnightblue" stroke="midnightblue" points="310.12,-115.72 299.96,-112.72 306.03,-121.4 310.12,-115.72"/>
</g>
<!-- Node6 -->
<g id="node6" class="node">
<title>Node6</title>
<g id="a_node6"><a xlink:href="classtracktion__engine_1_1ClipTrack.html" target="_top" xlink:title=" ">
<polygon fill="none" stroke="black" points="393.5,-137.5 393.5,-156.5 542.5,-156.5 542.5,-137.5 393.5,-137.5"/>
<text text-anchor="middle" x="468" y="-144.5" font-family="Helvetica,sans-Serif" font-size="10.00">tracktion_engine::ClipTrack</text>
</a>
</g>
</g>
<!-- Node1&#45;&gt;Node6 -->
<g id="edge5" class="edge">
<title>Node1&#45;&gt;Node6</title>
<path fill="none" stroke="midnightblue" d="M334.93,-115.1C351.42,-119.24 370.01,-123.86 387,-128 399.76,-131.11 413.68,-134.44 426.28,-137.43"/>
<polygon fill="midnightblue" stroke="midnightblue" points="335.51,-111.64 324.96,-112.6 333.81,-118.43 335.51,-111.64"/>
</g>
<!-- Node11 -->
<g id="node11" class="node">
<title>Node11</title>
<g id="a_node11"><a xlink:href="classtracktion__engine_1_1FolderTrack.html" target="_top" xlink:title=" ">
<polygon fill="none" stroke="black" points="401,-88 401,-118 535,-118 535,-88 401,-88"/>
<text text-anchor="start" x="409" y="-106" font-family="Helvetica,sans-Serif" font-size="10.00">tracktion_engine::Folder</text>
<text text-anchor="middle" x="468" y="-95" font-family="Helvetica,sans-Serif" font-size="10.00">Track</text>
</a>
</g>
</g>
<!-- Node1&#45;&gt;Node11 -->
<g id="edge10" class="edge">
<title>Node1&#45;&gt;Node11</title>
<path fill="none" stroke="midnightblue" d="M361.58,-103C374.65,-103 388.17,-103 400.98,-103"/>
<polygon fill="midnightblue" stroke="midnightblue" points="361.22,-99.5 351.22,-103 361.22,-106.5 361.22,-99.5"/>
</g>
<!-- Node12 -->
<g id="node12" class="node">
<title>Node12</title>
<g id="a_node12"><a xlink:href="classtracktion__engine_1_1MasterTrack.html" target="_top" xlink:title="A track to represent the master plugins.">
<polygon fill="none" stroke="black" points="399,-39 399,-69 537,-69 537,-39 399,-39"/>
<text text-anchor="start" x="407" y="-57" font-family="Helvetica,sans-Serif" font-size="10.00">tracktion_engine::Master</text>
<text text-anchor="middle" x="468" y="-46" font-family="Helvetica,sans-Serif" font-size="10.00">Track</text>
</a>
</g>
</g>
<!-- Node1&#45;&gt;Node12 -->
<g id="edge11" class="edge">
<title>Node1&#45;&gt;Node12</title>
<path fill="none" stroke="midnightblue" d="M332.1,-90.72C356.26,-84.15 386.22,-75.99 411.76,-69.04"/>
<polygon fill="midnightblue" stroke="midnightblue" points="330.86,-87.43 322.13,-93.44 332.7,-94.19 330.86,-87.43"/>
</g>
<!-- Node13 -->
<g id="node13" class="node">
<title>Node13</title>
<g id="a_node13"><a xlink:href="classtracktion__engine_1_1TempoTrack.html" target="_top" xlink:title="A track to represent the &quot;global&quot; items such as tempo, key changes etc.">
<polygon fill="none" stroke="black" points="387,-0.5 387,-19.5 549,-19.5 549,-0.5 387,-0.5"/>
<text text-anchor="middle" x="468" y="-7.5" font-family="Helvetica,sans-Serif" font-size="10.00">tracktion_engine::TempoTrack</text>
</a>
</g>
</g>
<!-- Node1&#45;&gt;Node13 -->
<g id="edge12" class="edge">
<title>Node1&#45;&gt;Node13</title>
<path fill="none" stroke="midnightblue" d="M304.4,-86.64C323.31,-69.75 355.1,-43.83 387,-29 395.28,-25.15 404.43,-22.04 413.48,-19.53"/>
<polygon fill="midnightblue" stroke="midnightblue" points="301.93,-84.16 296.9,-93.48 306.64,-89.33 301.93,-84.16"/>
</g>
<!-- Node2 -->
<g id="node2" class="node">
<title>Node2</title>
<g id="a_node2"><a xlink:href="classtracktion__engine_1_1EditItem.html" target="_top" xlink:title="Base class for objects that live inside an edit &#45; e.g.">
<polygon fill="none" stroke="black" points="19.5,-131.5 19.5,-150.5 165.5,-150.5 165.5,-131.5 19.5,-131.5"/>
<text text-anchor="middle" x="92.5" y="-138.5" font-family="Helvetica,sans-Serif" font-size="10.00">tracktion_engine::EditItem</text>
</a>
</g>
</g>
<!-- Node2&#45;&gt;Node1 -->
<g id="edge1" class="edge">
<title>Node2&#45;&gt;Node1</title>
<path fill="none" stroke="midnightblue" d="M151.65,-129.46C178.96,-124.04 211.13,-117.66 237.02,-112.52"/>
<polygon fill="midnightblue" stroke="midnightblue" points="150.95,-126.03 141.82,-131.41 152.31,-132.9 150.95,-126.03"/>
</g>
<!-- Node3 -->
<g id="node3" class="node">
<title>Node3</title>
<g id="a_node3"><a xlink:href="classtracktion__engine_1_1Selectable.html" target="_top" xlink:title="Base class for things that can be selected, and whose properties can appear in the properties panel.">
<polygon fill="none" stroke="black" points="15,-93.5 15,-112.5 170,-112.5 170,-93.5 15,-93.5"/>
<text text-anchor="middle" x="92.5" y="-100.5" font-family="Helvetica,sans-Serif" font-size="10.00">tracktion_engine::Selectable</text>
</a>
</g>
</g>
<!-- Node3&#45;&gt;Node1 -->
<g id="edge2" class="edge">
<title>Node3&#45;&gt;Node1</title>
<path fill="none" stroke="midnightblue" d="M180.38,-103C194.03,-103 207.91,-103 220.92,-103"/>
<polygon fill="midnightblue" stroke="midnightblue" points="180.01,-99.5 170.01,-103 180.01,-106.5 180.01,-99.5"/>
</g>
<!-- Node4 -->
<g id="node4" class="node">
<title>Node4</title>
<g id="a_node4"><a xlink:href="classtracktion__engine_1_1MacroParameterElement.html" target="_top" xlink:title="Base class for elements which can contain macro parameters.">
<polygon fill="none" stroke="black" points="0,-44 0,-74 185,-74 185,-44 0,-44"/>
<text text-anchor="start" x="8" y="-62" font-family="Helvetica,sans-Serif" font-size="10.00">tracktion_engine::MacroParameter</text>
<text text-anchor="middle" x="92.5" y="-51" font-family="Helvetica,sans-Serif" font-size="10.00">Element</text>
</a>
</g>
</g>
<!-- Node4&#45;&gt;Node1 -->
<g id="edge3" class="edge">
<title>Node4&#45;&gt;Node1</title>
<path fill="none" stroke="midnightblue" d="M168.88,-76.32C194.32,-82.16 221.78,-88.47 243.6,-93.49"/>
<polygon fill="midnightblue" stroke="midnightblue" points="169.4,-72.85 158.87,-74.02 167.83,-79.67 169.4,-72.85"/>
</g>
<!-- Node7 -->
<g id="node7" class="node">
<title>Node7</title>
<g id="a_node7"><a xlink:href="classtracktion__engine_1_1ArrangerTrack.html" target="_top" xlink:title="A track similar to the MarkerTrack but can be used to move sections of an Edit around.">
<polygon fill="none" stroke="black" points="591,-195 591,-225 737,-225 737,-195 591,-195"/>
<text text-anchor="start" x="599" y="-213" font-family="Helvetica,sans-Serif" font-size="10.00">tracktion_engine::Arranger</text>
<text text-anchor="middle" x="664" y="-202" font-family="Helvetica,sans-Serif" font-size="10.00">Track</text>
</a>
</g>
</g>
<!-- Node6&#45;&gt;Node7 -->
<g id="edge6" class="edge">
<title>Node6&#45;&gt;Node7</title>
<path fill="none" stroke="midnightblue" d="M524.16,-159.1C532.58,-161.43 541.09,-164.07 549,-167 565.78,-173.21 568.43,-178.25 585,-185 593.69,-188.54 603.09,-191.92 612.24,-194.98"/>
<polygon fill="midnightblue" stroke="midnightblue" points="524.94,-155.69 514.37,-156.51 523.15,-162.46 524.94,-155.69"/>
</g>
<!-- Node8 -->
<g id="node8" class="node">
<title>Node8</title>
<g id="a_node8"><a xlink:href="classtracktion__engine_1_1AudioTrack.html" target="_top" xlink:title=" ">
<polygon fill="none" stroke="black" points="585,-156.5 585,-175.5 743,-175.5 743,-156.5 585,-156.5"/>
<text text-anchor="middle" x="664" y="-163.5" font-family="Helvetica,sans-Serif" font-size="10.00">tracktion_engine::AudioTrack</text>
</a>
</g>
</g>
<!-- Node6&#45;&gt;Node8 -->
<g id="edge7" class="edge">
<title>Node6&#45;&gt;Node8</title>
<path fill="none" stroke="midnightblue" d="M552.77,-155.2C563.44,-156.25 574.33,-157.32 584.91,-158.35"/>
<polygon fill="midnightblue" stroke="midnightblue" points="552.91,-151.7 542.62,-154.21 552.23,-158.67 552.91,-151.7"/>
</g>
<!-- Node9 -->
<g id="node9" class="node">
<title>Node9</title>
<g id="a_node9"><a xlink:href="classtracktion__engine_1_1ChordTrack.html" target="_top" xlink:title=" ">
<polygon fill="none" stroke="black" points="585,-118.5 585,-137.5 743,-137.5 743,-118.5 585,-118.5"/>
<text text-anchor="middle" x="664" y="-125.5" font-family="Helvetica,sans-Serif" font-size="10.00">tracktion_engine::ChordTrack</text>
</a>
</g>
</g>
<!-- Node6&#45;&gt;Node9 -->
<g id="edge8" class="edge">
<title>Node6&#45;&gt;Node9</title>
<path fill="none" stroke="midnightblue" d="M552.77,-138.8C563.44,-137.75 574.33,-136.68 584.91,-135.65"/>
<polygon fill="midnightblue" stroke="midnightblue" points="552.23,-135.33 542.62,-139.79 552.91,-142.3 552.23,-135.33"/>
</g>
<!-- Node10 -->
<g id="node10" class="node">
<title>Node10</title>
<g id="a_node10"><a xlink:href="classtracktion__engine_1_1MarkerTrack.html" target="_top" xlink:title=" ">
<polygon fill="none" stroke="black" points="595,-69 595,-99 733,-99 733,-69 595,-69"/>
<text text-anchor="start" x="603" y="-87" font-family="Helvetica,sans-Serif" font-size="10.00">tracktion_engine::Marker</text>
<text text-anchor="middle" x="664" y="-76" font-family="Helvetica,sans-Serif" font-size="10.00">Track</text>
</a>
</g>
</g>
<!-- Node6&#45;&gt;Node10 -->
<g id="edge9" class="edge">
<title>Node6&#45;&gt;Node10</title>
<path fill="none" stroke="midnightblue" d="M527.68,-134.87C534.95,-132.84 542.2,-130.55 549,-128 565.94,-121.64 568.32,-116.01 585,-109 593.52,-105.42 602.74,-102.04 611.76,-99"/>
<polygon fill="midnightblue" stroke="midnightblue" points="526.59,-131.54 517.82,-137.48 528.38,-138.31 526.59,-131.54"/>
</g>
</g>
</svg>
