<?xml version="1.0" encoding="UTF-8" standalone="no"?>
<!DOCTYPE svg PUBLIC "-//W3C//DTD SVG 1.1//EN"
 "http://www.w3.org/Graphics/SVG/1.1/DTD/svg11.dtd">
<!-- Generated by graphviz version 2.43.0 (0)
 -->
<!-- Title: tracktion_engine::PitchSetting Pages: 1 -->
<svg width="411pt" height="151pt"
 viewBox="0.00 0.00 411.00 151.00" xmlns="http://www.w3.org/2000/svg" xmlns:xlink="http://www.w3.org/1999/xlink">
<g id="graph0" class="graph" transform="scale(1 1) rotate(0) translate(4 147)">
<title>tracktion_engine::PitchSetting</title>
<!-- Node1 -->
<g id="node1" class="node">
<title>Node1</title>
<g id="a_node1"><a xlink:title=" ">
<polygon fill="#bfbfbf" stroke="black" points="160.5,-0.5 160.5,-19.5 323.5,-19.5 323.5,-0.5 160.5,-0.5"/>
<text text-anchor="middle" x="242" y="-7.5" font-family="Helvetica,sans-Serif" font-size="10.00">tracktion_engine::PitchSetting</text>
</a>
</g>
</g>
<!-- Node2 -->
<g id="node2" class="node">
<title>Node2</title>
<g id="a_node2"><a xlink:href="classtracktion__engine_1_1TrackItem.html" target="_top" xlink:title="Base class for EditItems that live in a track, e.g.">
<polygon fill="none" stroke="black" points="81,-62 81,-81 233,-81 233,-62 81,-62"/>
<text text-anchor="middle" x="157" y="-69" font-family="Helvetica,sans-Serif" font-size="10.00">tracktion_engine::TrackItem</text>
</a>
</g>
</g>
<!-- Node2&#45;&gt;Node1 -->
<g id="edge1" class="edge">
<title>Node2&#45;&gt;Node1</title>
<path fill="none" stroke="midnightblue" d="M177.55,-56.11C193.9,-44.67 216.22,-29.05 229.84,-19.51"/>
<polygon fill="midnightblue" stroke="midnightblue" points="175.36,-53.37 169.18,-61.98 179.38,-59.11 175.36,-53.37"/>
</g>
<!-- Node3 -->
<g id="node3" class="node">
<title>Node3</title>
<g id="a_node3"><a xlink:href="classtracktion__engine_1_1EditItem.html" target="_top" xlink:title="Base class for objects that live inside an edit &#45; e.g.">
<polygon fill="none" stroke="black" points="0,-123.5 0,-142.5 146,-142.5 146,-123.5 0,-123.5"/>
<text text-anchor="middle" x="73" y="-130.5" font-family="Helvetica,sans-Serif" font-size="10.00">tracktion_engine::EditItem</text>
</a>
</g>
</g>
<!-- Node3&#45;&gt;Node2 -->
<g id="edge2" class="edge">
<title>Node3&#45;&gt;Node2</title>
<path fill="none" stroke="midnightblue" d="M93.31,-117.61C109.47,-106.17 131.52,-90.55 144.99,-81.01"/>
<polygon fill="midnightblue" stroke="midnightblue" points="91.17,-114.84 85.04,-123.48 95.22,-120.55 91.17,-114.84"/>
</g>
<!-- Node4 -->
<g id="node4" class="node">
<title>Node4</title>
<g id="a_node4"><a xlink:href="classtracktion__engine_1_1Selectable.html" target="_top" xlink:title="Base class for things that can be selected, and whose properties can appear in the properties panel.">
<polygon fill="none" stroke="black" points="164.5,-123.5 164.5,-142.5 319.5,-142.5 319.5,-123.5 164.5,-123.5"/>
<text text-anchor="middle" x="242" y="-130.5" font-family="Helvetica,sans-Serif" font-size="10.00">tracktion_engine::Selectable</text>
</a>
</g>
</g>
<!-- Node4&#45;&gt;Node2 -->
<g id="edge3" class="edge">
<title>Node4&#45;&gt;Node2</title>
<path fill="none" stroke="midnightblue" d="M221.45,-117.61C205.1,-106.17 182.78,-90.55 169.16,-81.01"/>
<polygon fill="midnightblue" stroke="midnightblue" points="219.62,-120.61 229.82,-123.48 223.64,-114.87 219.62,-120.61"/>
</g>
<!-- Node5 -->
<g id="node5" class="node">
<title>Node5</title>
<g id="a_node5"><a xlink:href="structtracktion__engine_1_1ValueTreeAllEventListener.html" target="_top" xlink:title=" ">
<polygon fill="none" stroke="black" points="251,-56.5 251,-86.5 403,-86.5 403,-56.5 251,-56.5"/>
<text text-anchor="start" x="259" y="-74.5" font-family="Helvetica,sans-Serif" font-size="10.00">tracktion_engine::ValueTree</text>
<text text-anchor="middle" x="327" y="-63.5" font-family="Helvetica,sans-Serif" font-size="10.00">AllEventListener</text>
</a>
</g>
</g>
<!-- Node5&#45;&gt;Node1 -->
<g id="edge4" class="edge">
<title>Node5&#45;&gt;Node1</title>
<path fill="none" stroke="#8b1a1a" d="M298.4,-50.48C283.43,-40 265.87,-27.71 254.37,-19.66"/>
<polygon fill="#8b1a1a" stroke="#8b1a1a" points="296.66,-53.53 306.86,-56.4 300.67,-47.8 296.66,-53.53"/>
</g>
</g>
</svg>
