<?xml version="1.0" encoding="UTF-8" standalone="no"?>
<!DOCTYPE svg PUBLIC "-//W3C//DTD SVG 1.1//EN"
 "http://www.w3.org/Graphics/SVG/1.1/DTD/svg11.dtd">
<!-- Generated by graphviz version 2.43.0 (0)
 -->
<!-- Title: engine::AirWindowsAutomatableParameter Pages: 1 -->
<svg width="184pt" height="148pt"
 viewBox="0.00 0.00 184.00 148.00" xmlns="http://www.w3.org/2000/svg" xmlns:xlink="http://www.w3.org/1999/xlink">
<g id="graph0" class="graph" transform="scale(1 1) rotate(0) translate(4 144)">
<title>engine::AirWindowsAutomatableParameter</title>
<!-- Node1 -->
<g id="Node000001" class="node">
<title>Node1</title>
<g id="a_Node000001"><a xlink:title=" ">
<polygon fill="#999999" stroke="#666666" points="176,-30 0,-30 0,0 176,0 176,-30"/>
<text text-anchor="start" x="8" y="-18" font-family="Helvetica,sans-Serif" font-size="10.00">engine::AirWindowsAutomatable</text>
<text text-anchor="middle" x="88" y="-7" font-family="Helvetica,sans-Serif" font-size="10.00">Parameter</text>
</a>
</g>
</g>
<!-- Node2 -->
<g id="Node000002" class="node">
<title>Node2</title>
<g id="a_Node000002"><a xlink:href="classengine_1_1AutomatableParameter.html" target="_top" xlink:title=" ">
<polygon fill="white" stroke="#666666" points="172.5,-85 3.5,-85 3.5,-66 172.5,-66 172.5,-85"/>
<text text-anchor="middle" x="88" y="-73" font-family="Helvetica,sans-Serif" font-size="10.00">engine::AutomatableParameter</text>
</a>
</g>
</g>
<!-- Node2&#45;&gt;Node1 -->
<g id="edge1_Node000001_Node000002" class="edge">
<title>Node2&#45;&gt;Node1</title>
<g id="a_edge1_Node000001_Node000002"><a xlink:title=" ">
<path fill="none" stroke="#63b8ff" d="M88,-55.65C88,-47.36 88,-37.78 88,-30.11"/>
<polygon fill="#63b8ff" stroke="#63b8ff" points="84.5,-55.87 88,-65.87 91.5,-55.87 84.5,-55.87"/>
</a>
</g>
</g>
<!-- Node3 -->
<g id="Node000003" class="node">
<title>Node3</title>
<g id="a_Node000003"><a xlink:href="classengine_1_1Selectable.html" target="_top" xlink:title="Base class for things that can be selected, and whose properties can appear in the properties panel.">
<polygon fill="white" stroke="#666666" points="141.5,-140 34.5,-140 34.5,-121 141.5,-121 141.5,-140"/>
<text text-anchor="middle" x="88" y="-128" font-family="Helvetica,sans-Serif" font-size="10.00">engine::Selectable</text>
</a>
</g>
</g>
<!-- Node3&#45;&gt;Node2 -->
<g id="edge2_Node000002_Node000003" class="edge">
<title>Node3&#45;&gt;Node2</title>
<g id="a_edge2_Node000002_Node000003"><a xlink:title=" ">
<path fill="none" stroke="#63b8ff" d="M88,-110.66C88,-101.93 88,-91.99 88,-85.09"/>
<polygon fill="#63b8ff" stroke="#63b8ff" points="84.5,-110.75 88,-120.75 91.5,-110.75 84.5,-110.75"/>
</a>
</g>
</g>
</g>
</svg>
