<?xml version="1.0" encoding="UTF-8" standalone="no"?>
<!DOCTYPE svg PUBLIC "-//W3C//DTD SVG 1.1//EN"
 "http://www.w3.org/Graphics/SVG/1.1/DTD/svg11.dtd">
<!-- Generated by graphviz version 2.43.0 (0)
 -->
<!-- Title: tracktion_engine::ClipEffect Pages: 1 -->
<svg width="546pt" height="480pt"
 viewBox="0.00 0.00 546.00 480.00" xmlns="http://www.w3.org/2000/svg" xmlns:xlink="http://www.w3.org/1999/xlink">
<g id="graph0" class="graph" transform="scale(1 1) rotate(0) translate(4 476)">
<title>tracktion_engine::ClipEffect</title>
<!-- Node1 -->
<g id="node1" class="node">
<title>Node1</title>
<g id="a_node1"><a xlink:title=" ">
<polygon fill="#bfbfbf" stroke="black" points="188,-226 188,-245 339,-245 339,-226 188,-226"/>
<text text-anchor="middle" x="263.5" y="-233" font-family="Helvetica,sans-Serif" font-size="10.00">tracktion_engine::ClipEffect</text>
</a>
</g>
</g>
<!-- Node3 -->
<g id="node3" class="node">
<title>Node3</title>
<g id="a_node3"><a xlink:href="structtracktion__engine_1_1FadeInOutEffect.html" target="_top" xlink:title=" ">
<polygon fill="none" stroke="black" points="388.5,-441.5 388.5,-471.5 524.5,-471.5 524.5,-441.5 388.5,-441.5"/>
<text text-anchor="start" x="396.5" y="-459.5" font-family="Helvetica,sans-Serif" font-size="10.00">tracktion_engine::FadeIn</text>
<text text-anchor="middle" x="456.5" y="-448.5" font-family="Helvetica,sans-Serif" font-size="10.00">OutEffect</text>
</a>
</g>
</g>
<!-- Node1&#45;&gt;Node3 -->
<g id="edge2" class="edge">
<title>Node1&#45;&gt;Node3</title>
<path fill="none" stroke="midnightblue" d="M270.05,-255.22C282.22,-294.88 315.1,-384.59 375,-432.5 379.33,-435.96 384.14,-438.92 389.21,-441.46"/>
<polygon fill="midnightblue" stroke="midnightblue" points="273.35,-254.03 267.16,-245.43 266.63,-256.02 273.35,-254.03"/>
</g>
<!-- Node4 -->
<g id="node4" class="node">
<title>Node4</title>
<g id="a_node4"><a xlink:href="structtracktion__engine_1_1InvertEffect.html" target="_top" xlink:title=" ">
<polygon fill="none" stroke="black" points="390,-392.5 390,-422.5 523,-422.5 523,-392.5 390,-392.5"/>
<text text-anchor="start" x="398" y="-410.5" font-family="Helvetica,sans-Serif" font-size="10.00">tracktion_engine::Invert</text>
<text text-anchor="middle" x="456.5" y="-399.5" font-family="Helvetica,sans-Serif" font-size="10.00">Effect</text>
</a>
</g>
</g>
<!-- Node1&#45;&gt;Node4 -->
<g id="edge3" class="edge">
<title>Node1&#45;&gt;Node4</title>
<path fill="none" stroke="midnightblue" d="M273.37,-254.13C289.27,-285.56 325.66,-349.04 375,-383.5 379.9,-386.92 385.3,-389.87 390.91,-392.39"/>
<polygon fill="midnightblue" stroke="midnightblue" points="276.49,-252.55 268.93,-245.13 270.21,-255.65 276.49,-252.55"/>
</g>
<!-- Node5 -->
<g id="node5" class="node">
<title>Node5</title>
<g id="a_node5"><a xlink:href="structtracktion__engine_1_1MakeMonoEffect.html" target="_top" xlink:title=" ">
<polygon fill="none" stroke="black" points="377.5,-343.5 377.5,-373.5 535.5,-373.5 535.5,-343.5 377.5,-343.5"/>
<text text-anchor="start" x="385.5" y="-361.5" font-family="Helvetica,sans-Serif" font-size="10.00">tracktion_engine::MakeMono</text>
<text text-anchor="middle" x="456.5" y="-350.5" font-family="Helvetica,sans-Serif" font-size="10.00">Effect</text>
</a>
</g>
</g>
<!-- Node1&#45;&gt;Node5 -->
<g id="edge4" class="edge">
<title>Node1&#45;&gt;Node5</title>
<path fill="none" stroke="midnightblue" d="M279.28,-252.81C298.98,-274.83 335.93,-312.64 375,-334.5 381.11,-337.92 387.76,-340.9 394.53,-343.48"/>
<polygon fill="midnightblue" stroke="midnightblue" points="281.83,-250.41 272.6,-245.2 276.57,-255.03 281.83,-250.41"/>
</g>
<!-- Node6 -->
<g id="node6" class="node">
<title>Node6</title>
<g id="a_node6"><a xlink:href="structtracktion__engine_1_1NormaliseEffect.html" target="_top" xlink:title=" ">
<polygon fill="none" stroke="black" points="379,-294.5 379,-324.5 534,-324.5 534,-294.5 379,-294.5"/>
<text text-anchor="start" x="387" y="-312.5" font-family="Helvetica,sans-Serif" font-size="10.00">tracktion_engine::Normalise</text>
<text text-anchor="middle" x="456.5" y="-301.5" font-family="Helvetica,sans-Serif" font-size="10.00">Effect</text>
</a>
</g>
</g>
<!-- Node1&#45;&gt;Node6 -->
<g id="edge5" class="edge">
<title>Node1&#45;&gt;Node6</title>
<path fill="none" stroke="midnightblue" d="M292.86,-249.61C314.92,-260.28 346.48,-274.85 375,-285.5 383.47,-288.66 392.56,-291.7 401.47,-294.49"/>
<polygon fill="midnightblue" stroke="midnightblue" points="294.25,-246.4 283.73,-245.16 291.18,-252.69 294.25,-246.4"/>
</g>
<!-- Node7 -->
<g id="node7" class="node">
<title>Node7</title>
<g id="a_node7"><a xlink:href="structtracktion__engine_1_1PitchShiftEffect.html" target="_top" xlink:title=" ">
<polygon fill="none" stroke="black" points="381.5,-245.5 381.5,-275.5 531.5,-275.5 531.5,-245.5 381.5,-245.5"/>
<text text-anchor="start" x="389.5" y="-263.5" font-family="Helvetica,sans-Serif" font-size="10.00">tracktion_engine::PitchShift</text>
<text text-anchor="middle" x="456.5" y="-252.5" font-family="Helvetica,sans-Serif" font-size="10.00">Effect</text>
</a>
</g>
</g>
<!-- Node1&#45;&gt;Node7 -->
<g id="edge6" class="edge">
<title>Node1&#45;&gt;Node7</title>
<path fill="none" stroke="midnightblue" d="M347.51,-246.37C358.77,-247.84 370.27,-249.34 381.37,-250.8"/>
<polygon fill="midnightblue" stroke="midnightblue" points="347.62,-242.85 337.25,-245.02 346.71,-249.79 347.62,-242.85"/>
</g>
<!-- Node8 -->
<g id="node8" class="node">
<title>Node8</title>
<g id="a_node8"><a xlink:href="structtracktion__engine_1_1PluginEffect.html" target="_top" xlink:title=" ">
<polygon fill="none" stroke="black" points="389.5,-196.5 389.5,-226.5 523.5,-226.5 523.5,-196.5 389.5,-196.5"/>
<text text-anchor="start" x="397.5" y="-214.5" font-family="Helvetica,sans-Serif" font-size="10.00">tracktion_engine::Plugin</text>
<text text-anchor="middle" x="456.5" y="-203.5" font-family="Helvetica,sans-Serif" font-size="10.00">Effect</text>
</a>
</g>
</g>
<!-- Node1&#45;&gt;Node8 -->
<g id="edge7" class="edge">
<title>Node1&#45;&gt;Node8</title>
<path fill="none" stroke="midnightblue" d="M349.33,-224.84C362.72,-223.16 376.39,-221.44 389.27,-219.82"/>
<polygon fill="midnightblue" stroke="midnightblue" points="348.65,-221.4 339.17,-226.12 349.52,-228.34 348.65,-221.4"/>
</g>
<!-- Node9 -->
<g id="node9" class="node">
<title>Node9</title>
<g id="a_node9"><a xlink:href="structtracktion__engine_1_1ReverseEffect.html" target="_top" xlink:title=" ">
<polygon fill="none" stroke="black" points="384.5,-147.5 384.5,-177.5 528.5,-177.5 528.5,-147.5 384.5,-147.5"/>
<text text-anchor="start" x="392.5" y="-165.5" font-family="Helvetica,sans-Serif" font-size="10.00">tracktion_engine::Reverse</text>
<text text-anchor="middle" x="456.5" y="-154.5" font-family="Helvetica,sans-Serif" font-size="10.00">Effect</text>
</a>
</g>
</g>
<!-- Node1&#45;&gt;Node9 -->
<g id="edge8" class="edge">
<title>Node1&#45;&gt;Node9</title>
<path fill="none" stroke="midnightblue" d="M293.29,-221.52C315.35,-211.11 346.7,-196.94 375,-186.5 383.48,-183.37 392.58,-180.35 401.49,-177.57"/>
<polygon fill="midnightblue" stroke="midnightblue" points="291.67,-218.41 284.15,-225.87 294.68,-224.73 291.67,-218.41"/>
</g>
<!-- Node10 -->
<g id="node10" class="node">
<title>Node10</title>
<g id="a_node10"><a xlink:href="structtracktion__engine_1_1StepVolumeEffect.html" target="_top" xlink:title=" ">
<polygon fill="none" stroke="black" points="375,-98.5 375,-128.5 538,-128.5 538,-98.5 375,-98.5"/>
<text text-anchor="start" x="383" y="-116.5" font-family="Helvetica,sans-Serif" font-size="10.00">tracktion_engine::StepVolume</text>
<text text-anchor="middle" x="456.5" y="-105.5" font-family="Helvetica,sans-Serif" font-size="10.00">Effect</text>
</a>
</g>
</g>
<!-- Node1&#45;&gt;Node10 -->
<g id="edge9" class="edge">
<title>Node1&#45;&gt;Node10</title>
<path fill="none" stroke="midnightblue" d="M279.32,-218.38C299.06,-196.58 336.06,-159.16 375,-137.5 381.12,-134.1 387.77,-131.13 394.54,-128.55"/>
<polygon fill="midnightblue" stroke="midnightblue" points="276.66,-216.1 272.63,-225.9 281.89,-220.75 276.66,-216.1"/>
</g>
<!-- Node11 -->
<g id="node11" class="node">
<title>Node11</title>
<g id="a_node11"><a xlink:href="structtracktion__engine_1_1VolumeEffect.html" target="_top" xlink:title=" ">
<polygon fill="none" stroke="black" points="386,-49.5 386,-79.5 527,-79.5 527,-49.5 386,-49.5"/>
<text text-anchor="start" x="394" y="-67.5" font-family="Helvetica,sans-Serif" font-size="10.00">tracktion_engine::Volume</text>
<text text-anchor="middle" x="456.5" y="-56.5" font-family="Helvetica,sans-Serif" font-size="10.00">Effect</text>
</a>
</g>
</g>
<!-- Node1&#45;&gt;Node11 -->
<g id="edge10" class="edge">
<title>Node1&#45;&gt;Node11</title>
<path fill="none" stroke="midnightblue" d="M273.61,-216.59C289.67,-185.24 326.03,-122.58 375,-88.5 379.91,-85.08 385.31,-82.15 390.92,-79.62"/>
<polygon fill="midnightblue" stroke="midnightblue" points="270.28,-215.42 268.95,-225.93 276.54,-218.55 270.28,-215.42"/>
</g>
<!-- Node12 -->
<g id="node12" class="node">
<title>Node12</title>
<g id="a_node12"><a xlink:href="structtracktion__engine_1_1WarpTimeEffect.html" target="_top" xlink:title=" ">
<polygon fill="none" stroke="black" points="379.5,-0.5 379.5,-30.5 533.5,-30.5 533.5,-0.5 379.5,-0.5"/>
<text text-anchor="start" x="387.5" y="-18.5" font-family="Helvetica,sans-Serif" font-size="10.00">tracktion_engine::WarpTime</text>
<text text-anchor="middle" x="456.5" y="-7.5" font-family="Helvetica,sans-Serif" font-size="10.00">Effect</text>
</a>
</g>
</g>
<!-- Node1&#45;&gt;Node12 -->
<g id="edge11" class="edge">
<title>Node1&#45;&gt;Node12</title>
<path fill="none" stroke="midnightblue" d="M270.08,-215.88C282.31,-176.42 315.28,-87.16 375,-39.5 379.33,-36.04 384.15,-33.08 389.22,-30.55"/>
<polygon fill="midnightblue" stroke="midnightblue" points="266.68,-215.03 267.17,-225.61 273.38,-217.03 266.68,-215.03"/>
</g>
<!-- Node2 -->
<g id="node2" class="node">
<title>Node2</title>
<g id="a_node2"><a xlink:href="structtracktion__engine_1_1ValueTreeAllEventListener.html" target="_top" xlink:title=" ">
<polygon fill="none" stroke="black" points="0,-220.5 0,-250.5 152,-250.5 152,-220.5 0,-220.5"/>
<text text-anchor="start" x="8" y="-238.5" font-family="Helvetica,sans-Serif" font-size="10.00">tracktion_engine::ValueTree</text>
<text text-anchor="middle" x="76" y="-227.5" font-family="Helvetica,sans-Serif" font-size="10.00">AllEventListener</text>
</a>
</g>
</g>
<!-- Node2&#45;&gt;Node1 -->
<g id="edge1" class="edge">
<title>Node2&#45;&gt;Node1</title>
<path fill="none" stroke="darkgreen" d="M162.45,-235.5C170.92,-235.5 179.47,-235.5 187.81,-235.5"/>
<polygon fill="darkgreen" stroke="darkgreen" points="162.18,-232 152.18,-235.5 162.18,-239 162.18,-232"/>
</g>
</g>
</svg>
