<?xml version="1.0" encoding="UTF-8" standalone="no"?>
<!DOCTYPE svg PUBLIC "-//W3C//DTD SVG 1.1//EN"
 "http://www.w3.org/Graphics/SVG/1.1/DTD/svg11.dtd">
<!-- Generated by graphviz version 2.40.1 (20161225.0304)
 -->
<!-- Title: tracktion_engine::Track Pages: 1 -->
<svg width="695pt" height="185pt"
 viewBox="0.00 0.00 695.00 184.50" xmlns="http://www.w3.org/2000/svg" xmlns:xlink="http://www.w3.org/1999/xlink">
<g id="graph0" class="graph" transform="scale(1 1) rotate(0) translate(4 180.5)">
<title>tracktion_engine::Track</title>
<!-- Node0 -->
<g id="node1" class="node">
<title>Node0</title>
<polygon fill="#bfbfbf" stroke="#000000" points="202,-66.5 202,-85.5 321,-85.5 321,-66.5 202,-66.5"/>
<text text-anchor="middle" x="261.5" y="-73.5" font-family="Helvetica,sans-Serif" font-size="10.00" fill="#000000">tracktion_engine::Track</text>
</g>
<!-- Node4 -->
<g id="node5" class="node">
<title>Node4</title>
<g id="a_node5"><a xlink:href="classtracktion__engine_1_1AutomationTrack.html" target="_top" xlink:title="tracktion_engine::Automation\lTrack">
<polygon fill="none" stroke="#000000" points="360,-127 360,-157 503,-157 503,-127 360,-127"/>
<text text-anchor="start" x="368" y="-145" font-family="Helvetica,sans-Serif" font-size="10.00" fill="#000000">tracktion_engine::Automation</text>
<text text-anchor="middle" x="431.5" y="-134" font-family="Helvetica,sans-Serif" font-size="10.00" fill="#000000">Track</text>
</a>
</g>
</g>
<!-- Node0&#45;&gt;Node4 -->
<g id="edge4" class="edge">
<title>Node0&#45;&gt;Node4</title>
<path fill="none" stroke="#191970" d="M291.7169,-89.7237C310.3752,-98.0096 334.8937,-108.5617 357,-117 365.9221,-120.4057 375.5351,-123.8181 384.7942,-126.9789"/>
<polygon fill="#191970" stroke="#191970" points="293.0955,-86.5063 282.5378,-85.6205 290.2388,-92.8969 293.0955,-86.5063"/>
</g>
<!-- Node5 -->
<g id="node6" class="node">
<title>Node5</title>
<g id="a_node6"><a xlink:href="classtracktion__engine_1_1ClipTrack.html" target="_top" xlink:title="tracktion_engine::ClipTrack">
<polygon fill="none" stroke="#000000" points="363.5,-88.5 363.5,-107.5 499.5,-107.5 499.5,-88.5 363.5,-88.5"/>
<text text-anchor="middle" x="431.5" y="-95.5" font-family="Helvetica,sans-Serif" font-size="10.00" fill="#000000">tracktion_engine::ClipTrack</text>
</a>
</g>
</g>
<!-- Node0&#45;&gt;Node5 -->
<g id="edge5" class="edge">
<title>Node0&#45;&gt;Node5</title>
<path fill="none" stroke="#191970" d="M331.4408,-85.0512C342.0019,-86.4179 352.8834,-87.8261 363.4047,-89.1877"/>
<polygon fill="#191970" stroke="#191970" points="331.8022,-81.5688 321.4356,-83.7564 330.9037,-88.5109 331.8022,-81.5688"/>
</g>
<!-- Node10 -->
<g id="node11" class="node">
<title>Node10</title>
<g id="a_node11"><a xlink:href="classtracktion__engine_1_1FolderTrack.html" target="_top" xlink:title="tracktion_engine::Folder\lTrack">
<polygon fill="none" stroke="#000000" points="371,-39 371,-69 492,-69 492,-39 371,-39"/>
<text text-anchor="start" x="379" y="-57" font-family="Helvetica,sans-Serif" font-size="10.00" fill="#000000">tracktion_engine::Folder</text>
<text text-anchor="middle" x="431.5" y="-46" font-family="Helvetica,sans-Serif" font-size="10.00" fill="#000000">Track</text>
</a>
</g>
</g>
<!-- Node0&#45;&gt;Node10 -->
<g id="edge10" class="edge">
<title>Node0&#45;&gt;Node10</title>
<path fill="none" stroke="#191970" d="M331.3626,-66.959C344.4995,-65.2589 358.1349,-63.4943 370.9584,-61.8348"/>
<polygon fill="#191970" stroke="#191970" points="330.9037,-63.4891 321.4356,-68.2436 331.8022,-70.4312 330.9037,-63.4891"/>
</g>
<!-- Node11 -->
<g id="node12" class="node">
<title>Node11</title>
<g id="a_node12"><a xlink:href="classtracktion__engine_1_1TempoTrack.html" target="_top" xlink:title="tracktion_engine::TempoTrack">
<polygon fill="none" stroke="#000000" points="357,-.5 357,-19.5 506,-19.5 506,-.5 357,-.5"/>
<text text-anchor="middle" x="431.5" y="-7.5" font-family="Helvetica,sans-Serif" font-size="10.00" fill="#000000">tracktion_engine::TempoTrack</text>
</a>
</g>
</g>
<!-- Node0&#45;&gt;Node11 -->
<g id="edge11" class="edge">
<title>Node0&#45;&gt;Node11</title>
<path fill="none" stroke="#191970" d="M287.9039,-61.6315C306.7602,-51.7828 332.9438,-38.9335 357,-30 367.6711,-26.0372 379.4692,-22.501 390.4694,-19.5451"/>
<polygon fill="#191970" stroke="#191970" points="286.2213,-58.562 279.0197,-66.333 289.4955,-64.7491 286.2213,-58.562"/>
</g>
<!-- Node1 -->
<g id="node2" class="node">
<title>Node1</title>
<g id="a_node2"><a xlink:href="classtracktion__engine_1_1EditItem.html" target="_top" xlink:title="Base class for objects that live inside an edit &#45; e.g. ">
<polygon fill="none" stroke="#000000" points="17.5,-104.5 17.5,-123.5 148.5,-123.5 148.5,-104.5 17.5,-104.5"/>
<text text-anchor="middle" x="83" y="-111.5" font-family="Helvetica,sans-Serif" font-size="10.00" fill="#000000">tracktion_engine::EditItem</text>
</a>
</g>
</g>
<!-- Node1&#45;&gt;Node0 -->
<g id="edge1" class="edge">
<title>Node1&#45;&gt;Node0</title>
<path fill="none" stroke="#191970" d="M137.8699,-102.319C163.1836,-96.9301 192.8529,-90.6139 216.7808,-85.5201"/>
<polygon fill="#191970" stroke="#191970" points="137.0951,-98.9054 128.0431,-104.411 138.5527,-105.752 137.0951,-98.9054"/>
</g>
<!-- Node2 -->
<g id="node3" class="node">
<title>Node2</title>
<g id="a_node3"><a xlink:href="classtracktion__engine_1_1Selectable.html" target="_top" xlink:title="Base class for things that can be selected, and whose properties can appear in the properties panel...">
<polygon fill="none" stroke="#000000" points="13,-66.5 13,-85.5 153,-85.5 153,-66.5 13,-66.5"/>
<text text-anchor="middle" x="83" y="-73.5" font-family="Helvetica,sans-Serif" font-size="10.00" fill="#000000">tracktion_engine::Selectable</text>
</a>
</g>
</g>
<!-- Node2&#45;&gt;Node0 -->
<g id="edge2" class="edge">
<title>Node2&#45;&gt;Node0</title>
<path fill="none" stroke="#191970" d="M163.33,-76C176.2598,-76 189.4419,-76 201.7761,-76"/>
<polygon fill="#191970" stroke="#191970" points="163.0356,-72.5001 153.0356,-76 163.0356,-79.5001 163.0356,-72.5001"/>
</g>
<!-- Node3 -->
<g id="node4" class="node">
<title>Node3</title>
<g id="a_node4"><a xlink:href="classtracktion__engine_1_1MacroParameterElement.html" target="_top" xlink:title="Base class for elements which can contain macro parameters. ">
<polygon fill="none" stroke="#000000" points="0,-17 0,-47 166,-47 166,-17 0,-17"/>
<text text-anchor="start" x="8" y="-35" font-family="Helvetica,sans-Serif" font-size="10.00" fill="#000000">tracktion_engine::MacroParameter</text>
<text text-anchor="middle" x="83" y="-24" font-family="Helvetica,sans-Serif" font-size="10.00" fill="#000000">Element</text>
</a>
</g>
</g>
<!-- Node3&#45;&gt;Node0 -->
<g id="edge3" class="edge">
<title>Node3&#45;&gt;Node0</title>
<path fill="none" stroke="#191970" d="M153.8891,-49.4741C177.4278,-55.2763 202.7475,-61.5176 222.9098,-66.4876"/>
<polygon fill="#191970" stroke="#191970" points="154.4774,-46.0144 143.9303,-47.0192 152.802,-52.8109 154.4774,-46.0144"/>
</g>
<!-- Node6 -->
<g id="node7" class="node">
<title>Node6</title>
<g id="a_node7"><a xlink:href="classtracktion__engine_1_1ArrangerTrack.html" target="_top" xlink:title="A track similar to the MarkerTrack but can be used to move sections of an Edit around. ">
<polygon fill="none" stroke="#000000" points="549,-146 549,-176 680,-176 680,-146 549,-146"/>
<text text-anchor="start" x="557" y="-164" font-family="Helvetica,sans-Serif" font-size="10.00" fill="#000000">tracktion_engine::Arranger</text>
<text text-anchor="middle" x="614.5" y="-153" font-family="Helvetica,sans-Serif" font-size="10.00" fill="#000000">Track</text>
</a>
</g>
</g>
<!-- Node5&#45;&gt;Node6 -->
<g id="edge6" class="edge">
<title>Node5&#45;&gt;Node6</title>
<path fill="none" stroke="#191970" d="M482.8053,-110.3117C490.6578,-112.6147 498.6057,-115.1917 506,-118 522.7231,-124.3512 525.5086,-129.0693 542,-136 550.2237,-139.4561 559.1089,-142.8156 567.7459,-145.8923"/>
<polygon fill="#191970" stroke="#191970" points="483.5327,-106.8806 472.9587,-107.5443 481.6387,-113.6195 483.5327,-106.8806"/>
</g>
<!-- Node7 -->
<g id="node8" class="node">
<title>Node7</title>
<g id="a_node8"><a xlink:href="classtracktion__engine_1_1AudioTrack.html" target="_top" xlink:title="tracktion_engine::AudioTrack">
<polygon fill="none" stroke="#000000" points="543,-107.5 543,-126.5 686,-126.5 686,-107.5 543,-107.5"/>
<text text-anchor="middle" x="614.5" y="-114.5" font-family="Helvetica,sans-Serif" font-size="10.00" fill="#000000">tracktion_engine::AudioTrack</text>
</a>
</g>
</g>
<!-- Node5&#45;&gt;Node7 -->
<g id="edge7" class="edge">
<title>Node5&#45;&gt;Node7</title>
<path fill="none" stroke="#191970" d="M509.6864,-106.1177C520.7247,-107.2638 532.0271,-108.4372 542.9325,-109.5695"/>
<polygon fill="#191970" stroke="#191970" points="509.9505,-102.6264 499.6424,-105.0749 509.2275,-109.589 509.9505,-102.6264"/>
</g>
<!-- Node8 -->
<g id="node9" class="node">
<title>Node8</title>
<g id="a_node9"><a xlink:href="classtracktion__engine_1_1ChordTrack.html" target="_top" xlink:title="tracktion_engine::ChordTrack">
<polygon fill="none" stroke="#000000" points="542,-69.5 542,-88.5 687,-88.5 687,-69.5 542,-69.5"/>
<text text-anchor="middle" x="614.5" y="-76.5" font-family="Helvetica,sans-Serif" font-size="10.00" fill="#000000">tracktion_engine::ChordTrack</text>
</a>
</g>
</g>
<!-- Node5&#45;&gt;Node8 -->
<g id="edge8" class="edge">
<title>Node5&#45;&gt;Node8</title>
<path fill="none" stroke="#191970" d="M509.7229,-89.8785C520.3347,-88.7767 531.1899,-87.6497 541.7012,-86.5583"/>
<polygon fill="#191970" stroke="#191970" points="509.2275,-86.411 499.6424,-90.9251 509.9505,-93.3736 509.2275,-86.411"/>
</g>
<!-- Node9 -->
<g id="node10" class="node">
<title>Node9</title>
<g id="a_node10"><a xlink:href="classtracktion__engine_1_1MarkerTrack.html" target="_top" xlink:title="tracktion_engine::Marker\lTrack">
<polygon fill="none" stroke="#000000" points="552.5,-20 552.5,-50 676.5,-50 676.5,-20 552.5,-20"/>
<text text-anchor="start" x="560.5" y="-38" font-family="Helvetica,sans-Serif" font-size="10.00" fill="#000000">tracktion_engine::Marker</text>
<text text-anchor="middle" x="614.5" y="-27" font-family="Helvetica,sans-Serif" font-size="10.00" fill="#000000">Track</text>
</a>
</g>
</g>
<!-- Node5&#45;&gt;Node9 -->
<g id="edge9" class="edge">
<title>Node5&#45;&gt;Node9</title>
<path fill="none" stroke="#191970" d="M486.0621,-85.6763C492.8526,-83.6784 499.6397,-81.4499 506,-79 522.8826,-72.4972 525.3994,-67.1923 542,-60 550.0631,-56.5066 558.7875,-53.1529 567.2964,-50.0989"/>
<polygon fill="#191970" stroke="#191970" points="484.8525,-82.38 476.1601,-88.4375 486.7328,-89.1228 484.8525,-82.38"/>
</g>
</g>
</svg>
