<?xml version="1.0" encoding="UTF-8" standalone="no"?>
<!DOCTYPE svg PUBLIC "-//W3C//DTD SVG 1.1//EN"
 "http://www.w3.org/Graphics/SVG/1.1/DTD/svg11.dtd">
<!-- Generated by graphviz version 2.43.0 (0)
 -->
<!-- Title: tracktion::engine::Plugin Pages: 1 -->
<svg width="602pt" height="1286pt"
 viewBox="0.00 0.00 602.00 1286.00" xmlns="http://www.w3.org/2000/svg" xmlns:xlink="http://www.w3.org/1999/xlink">
<g id="graph0" class="graph" transform="scale(1 1) rotate(0) translate(4 1282)">
<title>tracktion::engine::Plugin</title>
<!-- Node1 -->
<g id="Node000001" class="node">
<title>Node1</title>
<g id="a_Node000001"><a xlink:title=" ">
<polygon fill="#999999" stroke="#666666" points="425,-654 320,-654 320,-624 425,-624 425,-654"/>
<text text-anchor="start" x="328" y="-642" font-family="Helvetica,sans-Serif" font-size="10.00">tracktion::engine::</text>
<text text-anchor="middle" x="372.5" y="-631" font-family="Helvetica,sans-Serif" font-size="10.00">Plugin</text>
</a>
</g>
</g>
<!-- Node8 -->
<g id="Node000008" class="node">
<title>Node8</title>
<g id="a_Node000008"><a xlink:href="classtracktion_1_1engine_1_1AirWindowsPlugin.html" target="_top" xlink:title=" ">
<polygon fill="white" stroke="#666666" points="580,-1278 475,-1278 475,-1248 580,-1248 580,-1278"/>
<text text-anchor="start" x="483" y="-1266" font-family="Helvetica,sans-Serif" font-size="10.00">tracktion::engine::</text>
<text text-anchor="middle" x="527.5" y="-1255" font-family="Helvetica,sans-Serif" font-size="10.00">AirWindowsPlugin</text>
</a>
</g>
</g>
<!-- Node1&#45;&gt;Node8 -->
<g id="edge7_Node000001_Node000008" class="edge">
<title>Node1&#45;&gt;Node8</title>
<g id="a_edge7_Node000001_Node000008"><a xlink:title=" ">
<path fill="none" stroke="#63b8ff" d="M373.84,-664.25C375.72,-766.5 387.6,-1148.63 461,-1239 464.82,-1243.7 469.64,-1247.48 474.94,-1250.52"/>
<polygon fill="#63b8ff" stroke="#63b8ff" points="377.34,-664.16 373.67,-654.22 370.34,-664.27 377.34,-664.16"/>
</a>
</g>
</g>
<!-- Node9 -->
<g id="Node000009" class="node">
<title>Node9</title>
<g id="a_Node000009"><a xlink:href="classtracktion_1_1engine_1_1AuxReturnPlugin.html" target="_top" xlink:title=" ">
<polygon fill="white" stroke="#666666" points="580,-1230 475,-1230 475,-1200 580,-1200 580,-1230"/>
<text text-anchor="start" x="483" y="-1218" font-family="Helvetica,sans-Serif" font-size="10.00">tracktion::engine::</text>
<text text-anchor="middle" x="527.5" y="-1207" font-family="Helvetica,sans-Serif" font-size="10.00">AuxReturnPlugin</text>
</a>
</g>
</g>
<!-- Node1&#45;&gt;Node9 -->
<g id="edge8_Node000001_Node000009" class="edge">
<title>Node1&#45;&gt;Node9</title>
<g id="a_edge8_Node000001_Node000009"><a xlink:title=" ">
<path fill="none" stroke="#63b8ff" d="M374.19,-664.08C377.34,-760.85 393.26,-1108.66 461,-1191 464.85,-1195.68 469.69,-1199.44 474.99,-1202.47"/>
<polygon fill="#63b8ff" stroke="#63b8ff" points="377.69,-663.93 373.88,-654.04 370.69,-664.14 377.69,-663.93"/>
</a>
</g>
</g>
<!-- Node10 -->
<g id="Node000010" class="node">
<title>Node10</title>
<g id="a_Node000010"><a xlink:href="classtracktion_1_1engine_1_1AuxSendPlugin.html" target="_top" xlink:title=" ">
<polygon fill="white" stroke="#666666" points="580,-1182 475,-1182 475,-1152 580,-1152 580,-1182"/>
<text text-anchor="start" x="483" y="-1170" font-family="Helvetica,sans-Serif" font-size="10.00">tracktion::engine::</text>
<text text-anchor="middle" x="527.5" y="-1159" font-family="Helvetica,sans-Serif" font-size="10.00">AuxSendPlugin</text>
</a>
</g>
</g>
<!-- Node1&#45;&gt;Node10 -->
<g id="edge9_Node000001_Node000010" class="edge">
<title>Node1&#45;&gt;Node10</title>
<g id="a_edge9_Node000001_Node000010"><a xlink:title=" ">
<path fill="none" stroke="#63b8ff" d="M374.62,-664.24C379.15,-755.77 398.99,-1068.73 461,-1143 464.8,-1147.56 469.55,-1151.25 474.74,-1154.24"/>
<polygon fill="#63b8ff" stroke="#63b8ff" points="378.11,-664.03 374.14,-654.21 371.12,-664.36 378.11,-664.03"/>
</a>
</g>
</g>
<!-- Node11 -->
<g id="Node000011" class="node">
<title>Node11</title>
<g id="a_Node000011"><a xlink:href="classtracktion_1_1engine_1_1ChorusPlugin.html" target="_top" xlink:title=" ">
<polygon fill="white" stroke="#666666" points="580,-1134 475,-1134 475,-1104 580,-1104 580,-1134"/>
<text text-anchor="start" x="483" y="-1122" font-family="Helvetica,sans-Serif" font-size="10.00">tracktion::engine::</text>
<text text-anchor="middle" x="527.5" y="-1111" font-family="Helvetica,sans-Serif" font-size="10.00">ChorusPlugin</text>
</a>
</g>
</g>
<!-- Node1&#45;&gt;Node11 -->
<g id="edge10_Node000001_Node000011" class="edge">
<title>Node1&#45;&gt;Node11</title>
<g id="a_edge10_Node000001_Node000011"><a xlink:title=" ">
<path fill="none" stroke="#63b8ff" d="M375.15,-664.6C381.18,-750.8 404.73,-1028.81 461,-1095 464.84,-1099.52 469.62,-1103.19 474.82,-1106.17"/>
<polygon fill="#63b8ff" stroke="#63b8ff" points="378.63,-664.14 374.45,-654.4 371.64,-664.62 378.63,-664.14"/>
</a>
</g>
</g>
<!-- Node12 -->
<g id="Node000012" class="node">
<title>Node12</title>
<g id="a_Node000012"><a xlink:href="classtracktion_1_1engine_1_1CompressorPlugin.html" target="_top" xlink:title=" ">
<polygon fill="white" stroke="#666666" points="580,-1086 475,-1086 475,-1056 580,-1056 580,-1086"/>
<text text-anchor="start" x="483" y="-1074" font-family="Helvetica,sans-Serif" font-size="10.00">tracktion::engine::</text>
<text text-anchor="middle" x="527.5" y="-1063" font-family="Helvetica,sans-Serif" font-size="10.00">CompressorPlugin</text>
</a>
</g>
</g>
<!-- Node1&#45;&gt;Node12 -->
<g id="edge11_Node000001_Node000012" class="edge">
<title>Node1&#45;&gt;Node12</title>
<g id="a_edge11_Node000001_Node000012"><a xlink:title=" ">
<path fill="none" stroke="#63b8ff" d="M375.74,-664.22C383.31,-743.93 410.28,-988.64 461,-1047 464.89,-1051.48 469.69,-1055.12 474.92,-1058.09"/>
<polygon fill="#63b8ff" stroke="#63b8ff" points="379.21,-663.74 374.81,-654.1 372.24,-664.38 379.21,-663.74"/>
</a>
</g>
</g>
<!-- Node13 -->
<g id="Node000013" class="node">
<title>Node13</title>
<g id="a_Node000013"><a xlink:href="classtracktion_1_1engine_1_1DelayPlugin.html" target="_top" xlink:title=" ">
<polygon fill="white" stroke="#666666" points="580,-1038 475,-1038 475,-1008 580,-1008 580,-1038"/>
<text text-anchor="start" x="483" y="-1026" font-family="Helvetica,sans-Serif" font-size="10.00">tracktion::engine::</text>
<text text-anchor="middle" x="527.5" y="-1015" font-family="Helvetica,sans-Serif" font-size="10.00">DelayPlugin</text>
</a>
</g>
</g>
<!-- Node1&#45;&gt;Node13 -->
<g id="edge12_Node000001_Node000013" class="edge">
<title>Node1&#45;&gt;Node13</title>
<g id="a_edge12_Node000001_Node000013"><a xlink:title=" ">
<path fill="none" stroke="#63b8ff" d="M376.57,-664.59C385.89,-738.23 415.97,-948.58 461,-999 464.87,-1003.34 469.6,-1006.89 474.71,-1009.8"/>
<polygon fill="#63b8ff" stroke="#63b8ff" points="380.01,-663.87 375.3,-654.37 373.06,-664.73 380.01,-663.87"/>
</a>
</g>
</g>
<!-- Node14 -->
<g id="Node000014" class="node">
<title>Node14</title>
<g id="a_Node000014"><a xlink:href="classtracktion_1_1engine_1_1EqualiserPlugin.html" target="_top" xlink:title=" ">
<polygon fill="white" stroke="#666666" points="580,-990 475,-990 475,-960 580,-960 580,-990"/>
<text text-anchor="start" x="483" y="-978" font-family="Helvetica,sans-Serif" font-size="10.00">tracktion::engine::</text>
<text text-anchor="middle" x="527.5" y="-967" font-family="Helvetica,sans-Serif" font-size="10.00">EqualiserPlugin</text>
</a>
</g>
</g>
<!-- Node1&#45;&gt;Node14 -->
<g id="edge13_Node000001_Node000014" class="edge">
<title>Node1&#45;&gt;Node14</title>
<g id="a_edge13_Node000001_Node000014"><a xlink:title=" ">
<path fill="none" stroke="#63b8ff" d="M373.25,-664.48C374.06,-722.93 384.2,-867.98 461,-951 464.95,-955.27 469.72,-958.78 474.86,-961.67"/>
<polygon fill="#63b8ff" stroke="#63b8ff" points="376.75,-664.28 373.19,-654.3 369.75,-664.32 376.75,-664.28"/>
</a>
</g>
</g>
<!-- Node15 -->
<g id="Node000015" class="node">
<title>Node15</title>
<g id="a_Node000015"><a xlink:href="classtracktion_1_1engine_1_1ExternalPlugin.html" target="_top" xlink:title=" ">
<polygon fill="white" stroke="#666666" points="580,-942 475,-942 475,-912 580,-912 580,-942"/>
<text text-anchor="start" x="483" y="-930" font-family="Helvetica,sans-Serif" font-size="10.00">tracktion::engine::</text>
<text text-anchor="middle" x="527.5" y="-919" font-family="Helvetica,sans-Serif" font-size="10.00">ExternalPlugin</text>
</a>
</g>
</g>
<!-- Node1&#45;&gt;Node15 -->
<g id="edge14_Node000001_Node000015" class="edge">
<title>Node1&#45;&gt;Node15</title>
<g id="a_edge14_Node000001_Node000015"><a xlink:title=" ">
<path fill="none" stroke="#63b8ff" d="M374.8,-664.42C378.81,-716.26 395.09,-835.01 461,-903 464.96,-907.09 469.68,-910.48 474.73,-913.3"/>
<polygon fill="#63b8ff" stroke="#63b8ff" points="378.28,-663.88 374.11,-654.14 371.29,-664.35 378.28,-663.88"/>
</a>
</g>
</g>
<!-- Node16 -->
<g id="Node000016" class="node">
<title>Node16</title>
<g id="a_Node000016"><a xlink:href="classtracktion_1_1engine_1_1FourOscPlugin.html" target="_top" xlink:title=" ">
<polygon fill="white" stroke="#666666" points="580,-894 475,-894 475,-864 580,-864 580,-894"/>
<text text-anchor="start" x="483" y="-882" font-family="Helvetica,sans-Serif" font-size="10.00">tracktion::engine::</text>
<text text-anchor="middle" x="527.5" y="-871" font-family="Helvetica,sans-Serif" font-size="10.00">FourOscPlugin</text>
</a>
</g>
</g>
<!-- Node1&#45;&gt;Node16 -->
<g id="edge15_Node000001_Node000016" class="edge">
<title>Node1&#45;&gt;Node16</title>
<g id="a_edge15_Node000001_Node000016"><a xlink:title=" ">
<path fill="none" stroke="#63b8ff" d="M376.95,-664.12C384.34,-708.62 405.78,-801.61 461,-855 465.09,-858.96 469.89,-862.27 475,-865.04"/>
<polygon fill="#63b8ff" stroke="#63b8ff" points="380.39,-663.49 375.39,-654.15 373.47,-664.57 380.39,-663.49"/>
</a>
</g>
</g>
<!-- Node17 -->
<g id="Node000017" class="node">
<title>Node17</title>
<g id="a_Node000017"><a xlink:href="classtracktion_1_1engine_1_1FreezePointPlugin.html" target="_top" xlink:title=" ">
<polygon fill="white" stroke="#666666" points="580,-846 475,-846 475,-816 580,-816 580,-846"/>
<text text-anchor="start" x="483" y="-834" font-family="Helvetica,sans-Serif" font-size="10.00">tracktion::engine::</text>
<text text-anchor="middle" x="527.5" y="-823" font-family="Helvetica,sans-Serif" font-size="10.00">FreezePointPlugin</text>
</a>
</g>
</g>
<!-- Node1&#45;&gt;Node17 -->
<g id="edge16_Node000001_Node000017" class="edge">
<title>Node1&#45;&gt;Node17</title>
<g id="a_edge16_Node000001_Node000017"><a xlink:title=" ">
<path fill="none" stroke="#63b8ff" d="M380.26,-664.17C391.28,-700.59 416.48,-767.88 461,-807 465.09,-810.6 469.77,-813.67 474.7,-816.3"/>
<polygon fill="#63b8ff" stroke="#63b8ff" points="383.56,-662.97 377.41,-654.34 376.84,-664.92 383.56,-662.97"/>
</a>
</g>
</g>
<!-- Node18 -->
<g id="Node000018" class="node">
<title>Node18</title>
<g id="a_Node000018"><a xlink:href="classtracktion_1_1engine_1_1ImpulseResponsePlugin.html" target="_top" xlink:title="ImpulseResponsePlugin that loads an impulse response and applies it the audio stream.">
<polygon fill="white" stroke="#666666" points="594,-798 461,-798 461,-768 594,-768 594,-798"/>
<text text-anchor="start" x="469" y="-786" font-family="Helvetica,sans-Serif" font-size="10.00">tracktion::engine::</text>
<text text-anchor="middle" x="527.5" y="-775" font-family="Helvetica,sans-Serif" font-size="10.00">ImpulseResponsePlugin</text>
</a>
</g>
</g>
<!-- Node1&#45;&gt;Node18 -->
<g id="edge17_Node000001_Node000018" class="edge">
<title>Node1&#45;&gt;Node18</title>
<g id="a_edge17_Node000001_Node000018"><a xlink:title=" ">
<path fill="none" stroke="#63b8ff" d="M385.52,-663.25C400,-690.14 426.71,-733.15 461,-759 465.55,-762.43 470.63,-765.4 475.9,-767.98"/>
<polygon fill="#63b8ff" stroke="#63b8ff" points="388.49,-661.37 380.75,-654.13 382.29,-664.61 388.49,-661.37"/>
</a>
</g>
</g>
<!-- Node19 -->
<g id="Node000019" class="node">
<title>Node19</title>
<g id="a_Node000019"><a xlink:href="classtracktion_1_1engine_1_1InsertPlugin.html" target="_top" xlink:title=" ">
<polygon fill="white" stroke="#666666" points="580,-750 475,-750 475,-720 580,-720 580,-750"/>
<text text-anchor="start" x="483" y="-738" font-family="Helvetica,sans-Serif" font-size="10.00">tracktion::engine::</text>
<text text-anchor="middle" x="527.5" y="-727" font-family="Helvetica,sans-Serif" font-size="10.00">InsertPlugin</text>
</a>
</g>
</g>
<!-- Node1&#45;&gt;Node19 -->
<g id="edge18_Node000001_Node000019" class="edge">
<title>Node1&#45;&gt;Node19</title>
<g id="a_edge18_Node000001_Node000019"><a xlink:title=" ">
<path fill="none" stroke="#63b8ff" d="M396.06,-661.21C412.85,-676.8 436.94,-697.23 461,-711 466.78,-714.31 473.1,-717.3 479.46,-719.97"/>
<polygon fill="#63b8ff" stroke="#63b8ff" points="398.1,-658.33 388.43,-654 393.29,-663.42 398.1,-658.33"/>
</a>
</g>
</g>
<!-- Node20 -->
<g id="Node000020" class="node">
<title>Node20</title>
<g id="a_Node000020"><a xlink:href="classtracktion_1_1engine_1_1LatencyPlugin.html" target="_top" xlink:title="A test plugin that introduces latency to the incoming signal.">
<polygon fill="white" stroke="#666666" points="580,-702 475,-702 475,-672 580,-672 580,-702"/>
<text text-anchor="start" x="483" y="-690" font-family="Helvetica,sans-Serif" font-size="10.00">tracktion::engine::</text>
<text text-anchor="middle" x="527.5" y="-679" font-family="Helvetica,sans-Serif" font-size="10.00">LatencyPlugin</text>
</a>
</g>
</g>
<!-- Node1&#45;&gt;Node20 -->
<g id="edge19_Node000001_Node000020" class="edge">
<title>Node1&#45;&gt;Node20</title>
<g id="a_edge19_Node000001_Node000020"><a xlink:title=" ">
<path fill="none" stroke="#63b8ff" d="M431.09,-657.07C446.78,-661.99 463.6,-667.27 478.68,-672"/>
<polygon fill="#63b8ff" stroke="#63b8ff" points="432.08,-653.71 421.49,-654.06 429.98,-660.39 432.08,-653.71"/>
</a>
</g>
</g>
<!-- Node21 -->
<g id="Node000021" class="node">
<title>Node21</title>
<g id="a_Node000021"><a xlink:href="classtracktion_1_1engine_1_1LevelMeterPlugin.html" target="_top" xlink:title=" ">
<polygon fill="white" stroke="#666666" points="580,-654 475,-654 475,-624 580,-624 580,-654"/>
<text text-anchor="start" x="483" y="-642" font-family="Helvetica,sans-Serif" font-size="10.00">tracktion::engine::</text>
<text text-anchor="middle" x="527.5" y="-631" font-family="Helvetica,sans-Serif" font-size="10.00">LevelMeterPlugin</text>
</a>
</g>
</g>
<!-- Node1&#45;&gt;Node21 -->
<g id="edge20_Node000001_Node000021" class="edge">
<title>Node1&#45;&gt;Node21</title>
<g id="a_edge20_Node000001_Node000021"><a xlink:title=" ">
<path fill="none" stroke="#63b8ff" d="M435.58,-639C448.59,-639 462.17,-639 474.75,-639"/>
<polygon fill="#63b8ff" stroke="#63b8ff" points="435.3,-635.5 425.3,-639 435.3,-642.5 435.3,-635.5"/>
</a>
</g>
</g>
<!-- Node22 -->
<g id="Node000022" class="node">
<title>Node22</title>
<g id="a_Node000022"><a xlink:href="classtracktion_1_1engine_1_1LowPassPlugin.html" target="_top" xlink:title=" ">
<polygon fill="white" stroke="#666666" points="580,-606 475,-606 475,-576 580,-576 580,-606"/>
<text text-anchor="start" x="483" y="-594" font-family="Helvetica,sans-Serif" font-size="10.00">tracktion::engine::</text>
<text text-anchor="middle" x="527.5" y="-583" font-family="Helvetica,sans-Serif" font-size="10.00">LowPassPlugin</text>
</a>
</g>
</g>
<!-- Node1&#45;&gt;Node22 -->
<g id="edge21_Node000001_Node000022" class="edge">
<title>Node1&#45;&gt;Node22</title>
<g id="a_edge21_Node000001_Node000022"><a xlink:title=" ">
<path fill="none" stroke="#63b8ff" d="M431.09,-620.93C446.78,-616.01 463.6,-610.73 478.68,-606"/>
<polygon fill="#63b8ff" stroke="#63b8ff" points="429.98,-617.61 421.49,-623.94 432.08,-624.29 429.98,-617.61"/>
</a>
</g>
</g>
<!-- Node23 -->
<g id="Node000023" class="node">
<title>Node23</title>
<g id="a_Node000023"><a xlink:href="classtracktion_1_1engine_1_1MidiModifierPlugin.html" target="_top" xlink:title=" ">
<polygon fill="white" stroke="#666666" points="581,-558 474,-558 474,-528 581,-528 581,-558"/>
<text text-anchor="start" x="482" y="-546" font-family="Helvetica,sans-Serif" font-size="10.00">tracktion::engine::</text>
<text text-anchor="middle" x="527.5" y="-535" font-family="Helvetica,sans-Serif" font-size="10.00">MidiModifierPlugin</text>
</a>
</g>
</g>
<!-- Node1&#45;&gt;Node23 -->
<g id="edge22_Node000001_Node000023" class="edge">
<title>Node1&#45;&gt;Node23</title>
<g id="a_edge22_Node000001_Node000023"><a xlink:title=" ">
<path fill="none" stroke="#63b8ff" d="M396.06,-616.79C412.85,-601.2 436.94,-580.77 461,-567 466.78,-563.69 473.1,-560.7 479.46,-558.03"/>
<polygon fill="#63b8ff" stroke="#63b8ff" points="393.29,-614.58 388.43,-624 398.1,-619.67 393.29,-614.58"/>
</a>
</g>
</g>
<!-- Node24 -->
<g id="Node000024" class="node">
<title>Node24</title>
<g id="a_Node000024"><a xlink:href="classtracktion_1_1engine_1_1MidiPatchBayPlugin.html" target="_top" xlink:title=" ">
<polygon fill="white" stroke="#666666" points="584,-510 471,-510 471,-480 584,-480 584,-510"/>
<text text-anchor="start" x="479" y="-498" font-family="Helvetica,sans-Serif" font-size="10.00">tracktion::engine::</text>
<text text-anchor="middle" x="527.5" y="-487" font-family="Helvetica,sans-Serif" font-size="10.00">MidiPatchBayPlugin</text>
</a>
</g>
</g>
<!-- Node1&#45;&gt;Node24 -->
<g id="edge23_Node000001_Node000024" class="edge">
<title>Node1&#45;&gt;Node24</title>
<g id="a_edge23_Node000001_Node000024"><a xlink:title=" ">
<path fill="none" stroke="#63b8ff" d="M385.52,-614.75C400,-587.86 426.71,-544.85 461,-519 465.55,-515.57 470.63,-512.6 475.9,-510.02"/>
<polygon fill="#63b8ff" stroke="#63b8ff" points="382.29,-613.39 380.75,-623.87 388.49,-616.63 382.29,-613.39"/>
</a>
</g>
</g>
<!-- Node25 -->
<g id="Node000025" class="node">
<title>Node25</title>
<g id="a_Node000025"><a xlink:href="classtracktion_1_1engine_1_1PatchBayPlugin.html" target="_top" xlink:title=" ">
<polygon fill="white" stroke="#666666" points="580,-462 475,-462 475,-432 580,-432 580,-462"/>
<text text-anchor="start" x="483" y="-450" font-family="Helvetica,sans-Serif" font-size="10.00">tracktion::engine::</text>
<text text-anchor="middle" x="527.5" y="-439" font-family="Helvetica,sans-Serif" font-size="10.00">PatchBayPlugin</text>
</a>
</g>
</g>
<!-- Node1&#45;&gt;Node25 -->
<g id="edge24_Node000001_Node000025" class="edge">
<title>Node1&#45;&gt;Node25</title>
<g id="a_edge24_Node000001_Node000025"><a xlink:title=" ">
<path fill="none" stroke="#63b8ff" d="M380.26,-613.83C391.28,-577.41 416.48,-510.12 461,-471 465.09,-467.4 469.77,-464.33 474.7,-461.7"/>
<polygon fill="#63b8ff" stroke="#63b8ff" points="376.84,-613.08 377.41,-623.66 383.56,-615.03 376.84,-613.08"/>
</a>
</g>
</g>
<!-- Node26 -->
<g id="Node000026" class="node">
<title>Node26</title>
<g id="a_Node000026"><a xlink:href="classtracktion_1_1engine_1_1PhaserPlugin.html" target="_top" xlink:title=" ">
<polygon fill="white" stroke="#666666" points="580,-414 475,-414 475,-384 580,-384 580,-414"/>
<text text-anchor="start" x="483" y="-402" font-family="Helvetica,sans-Serif" font-size="10.00">tracktion::engine::</text>
<text text-anchor="middle" x="527.5" y="-391" font-family="Helvetica,sans-Serif" font-size="10.00">PhaserPlugin</text>
</a>
</g>
</g>
<!-- Node1&#45;&gt;Node26 -->
<g id="edge25_Node000001_Node000026" class="edge">
<title>Node1&#45;&gt;Node26</title>
<g id="a_edge25_Node000001_Node000026"><a xlink:title=" ">
<path fill="none" stroke="#63b8ff" d="M376.95,-613.88C384.34,-569.38 405.78,-476.39 461,-423 465.09,-419.04 469.89,-415.73 475,-412.96"/>
<polygon fill="#63b8ff" stroke="#63b8ff" points="373.47,-613.43 375.39,-623.85 380.39,-614.51 373.47,-613.43"/>
</a>
</g>
</g>
<!-- Node27 -->
<g id="Node000027" class="node">
<title>Node27</title>
<g id="a_Node000027"><a xlink:href="classtracktion_1_1engine_1_1PitchShiftPlugin.html" target="_top" xlink:title=" ">
<polygon fill="white" stroke="#666666" points="580,-366 475,-366 475,-336 580,-336 580,-366"/>
<text text-anchor="start" x="483" y="-354" font-family="Helvetica,sans-Serif" font-size="10.00">tracktion::engine::</text>
<text text-anchor="middle" x="527.5" y="-343" font-family="Helvetica,sans-Serif" font-size="10.00">PitchShiftPlugin</text>
</a>
</g>
</g>
<!-- Node1&#45;&gt;Node27 -->
<g id="edge26_Node000001_Node000027" class="edge">
<title>Node1&#45;&gt;Node27</title>
<g id="a_edge26_Node000001_Node000027"><a xlink:title=" ">
<path fill="none" stroke="#63b8ff" d="M374.8,-613.58C378.81,-561.74 395.09,-442.99 461,-375 464.96,-370.91 469.68,-367.52 474.73,-364.7"/>
<polygon fill="#63b8ff" stroke="#63b8ff" points="371.29,-613.65 374.11,-623.86 378.28,-614.12 371.29,-613.65"/>
</a>
</g>
</g>
<!-- Node28 -->
<g id="Node000028" class="node">
<title>Node28</title>
<g id="a_Node000028"><a xlink:href="classtracktion_1_1engine_1_1RackInstance.html" target="_top" xlink:title=" ">
<polygon fill="white" stroke="#666666" points="580,-318 475,-318 475,-288 580,-288 580,-318"/>
<text text-anchor="start" x="483" y="-306" font-family="Helvetica,sans-Serif" font-size="10.00">tracktion::engine::</text>
<text text-anchor="middle" x="527.5" y="-295" font-family="Helvetica,sans-Serif" font-size="10.00">RackInstance</text>
</a>
</g>
</g>
<!-- Node1&#45;&gt;Node28 -->
<g id="edge27_Node000001_Node000028" class="edge">
<title>Node1&#45;&gt;Node28</title>
<g id="a_edge27_Node000001_Node000028"><a xlink:title=" ">
<path fill="none" stroke="#63b8ff" d="M373.25,-613.52C374.06,-555.07 384.2,-410.02 461,-327 464.95,-322.73 469.72,-319.22 474.86,-316.33"/>
<polygon fill="#63b8ff" stroke="#63b8ff" points="369.75,-613.68 373.19,-623.7 376.75,-613.72 369.75,-613.68"/>
</a>
</g>
</g>
<!-- Node29 -->
<g id="Node000029" class="node">
<title>Node29</title>
<g id="a_Node000029"><a xlink:href="classtracktion_1_1engine_1_1ReverbPlugin.html" target="_top" xlink:title=" ">
<polygon fill="white" stroke="#666666" points="580,-270 475,-270 475,-240 580,-240 580,-270"/>
<text text-anchor="start" x="483" y="-258" font-family="Helvetica,sans-Serif" font-size="10.00">tracktion::engine::</text>
<text text-anchor="middle" x="527.5" y="-247" font-family="Helvetica,sans-Serif" font-size="10.00">ReverbPlugin</text>
</a>
</g>
</g>
<!-- Node1&#45;&gt;Node29 -->
<g id="edge28_Node000001_Node000029" class="edge">
<title>Node1&#45;&gt;Node29</title>
<g id="a_edge28_Node000001_Node000029"><a xlink:title=" ">
<path fill="none" stroke="#63b8ff" d="M376.57,-613.41C385.89,-539.77 415.97,-329.42 461,-279 464.87,-274.66 469.6,-271.11 474.71,-268.2"/>
<polygon fill="#63b8ff" stroke="#63b8ff" points="373.06,-613.27 375.3,-623.63 380.01,-614.13 373.06,-613.27"/>
</a>
</g>
</g>
<!-- Node30 -->
<g id="Node000030" class="node">
<title>Node30</title>
<g id="a_Node000030"><a xlink:href="classtracktion_1_1engine_1_1SamplerPlugin.html" target="_top" xlink:title=" ">
<polygon fill="white" stroke="#666666" points="580,-222 475,-222 475,-192 580,-192 580,-222"/>
<text text-anchor="start" x="483" y="-210" font-family="Helvetica,sans-Serif" font-size="10.00">tracktion::engine::</text>
<text text-anchor="middle" x="527.5" y="-199" font-family="Helvetica,sans-Serif" font-size="10.00">SamplerPlugin</text>
</a>
</g>
</g>
<!-- Node1&#45;&gt;Node30 -->
<g id="edge29_Node000001_Node000030" class="edge">
<title>Node1&#45;&gt;Node30</title>
<g id="a_edge29_Node000001_Node000030"><a xlink:title=" ">
<path fill="none" stroke="#63b8ff" d="M375.74,-613.78C383.31,-534.07 410.28,-289.36 461,-231 464.89,-226.52 469.69,-222.88 474.92,-219.91"/>
<polygon fill="#63b8ff" stroke="#63b8ff" points="372.24,-613.62 374.81,-623.9 379.21,-614.26 372.24,-613.62"/>
</a>
</g>
</g>
<!-- Node31 -->
<g id="Node000031" class="node">
<title>Node31</title>
<g id="a_Node000031"><a xlink:href="classtracktion_1_1engine_1_1TextPlugin.html" target="_top" xlink:title=" ">
<polygon fill="white" stroke="#666666" points="580,-174 475,-174 475,-144 580,-144 580,-174"/>
<text text-anchor="start" x="483" y="-162" font-family="Helvetica,sans-Serif" font-size="10.00">tracktion::engine::</text>
<text text-anchor="middle" x="527.5" y="-151" font-family="Helvetica,sans-Serif" font-size="10.00">TextPlugin</text>
</a>
</g>
</g>
<!-- Node1&#45;&gt;Node31 -->
<g id="edge30_Node000001_Node000031" class="edge">
<title>Node1&#45;&gt;Node31</title>
<g id="a_edge30_Node000001_Node000031"><a xlink:title=" ">
<path fill="none" stroke="#63b8ff" d="M375.15,-613.4C381.18,-527.2 404.73,-249.19 461,-183 464.84,-178.48 469.62,-174.81 474.82,-171.83"/>
<polygon fill="#63b8ff" stroke="#63b8ff" points="371.64,-613.38 374.45,-623.6 378.63,-613.86 371.64,-613.38"/>
</a>
</g>
</g>
<!-- Node32 -->
<g id="Node000032" class="node">
<title>Node32</title>
<g id="a_Node000032"><a xlink:href="classtracktion_1_1engine_1_1ToneGeneratorPlugin.html" target="_top" xlink:title=" ">
<polygon fill="white" stroke="#666666" points="586.5,-126 468.5,-126 468.5,-96 586.5,-96 586.5,-126"/>
<text text-anchor="start" x="476.5" y="-114" font-family="Helvetica,sans-Serif" font-size="10.00">tracktion::engine::</text>
<text text-anchor="middle" x="527.5" y="-103" font-family="Helvetica,sans-Serif" font-size="10.00">ToneGeneratorPlugin</text>
</a>
</g>
</g>
<!-- Node1&#45;&gt;Node32 -->
<g id="edge31_Node000001_Node000032" class="edge">
<title>Node1&#45;&gt;Node32</title>
<g id="a_edge31_Node000001_Node000032"><a xlink:title=" ">
<path fill="none" stroke="#63b8ff" d="M374.62,-613.76C379.15,-522.23 398.99,-209.27 461,-135 463.87,-131.56 467.28,-128.61 471.01,-126.09"/>
<polygon fill="#63b8ff" stroke="#63b8ff" points="371.12,-613.64 374.14,-623.79 378.11,-613.97 371.12,-613.64"/>
</a>
</g>
</g>
<!-- Node33 -->
<g id="Node000033" class="node">
<title>Node33</title>
<g id="a_Node000033"><a xlink:href="classtracktion_1_1engine_1_1VCAPlugin.html" target="_top" xlink:title="The VCA plugin sits on a folder track to control the overall level of all the volume/pan plugins in i...">
<polygon fill="white" stroke="#666666" points="580,-78 475,-78 475,-48 580,-48 580,-78"/>
<text text-anchor="start" x="483" y="-66" font-family="Helvetica,sans-Serif" font-size="10.00">tracktion::engine::</text>
<text text-anchor="middle" x="527.5" y="-55" font-family="Helvetica,sans-Serif" font-size="10.00">VCAPlugin</text>
</a>
</g>
</g>
<!-- Node1&#45;&gt;Node33 -->
<g id="edge32_Node000001_Node000033" class="edge">
<title>Node1&#45;&gt;Node33</title>
<g id="a_edge32_Node000001_Node000033"><a xlink:title=" ">
<path fill="none" stroke="#63b8ff" d="M374.19,-613.92C377.34,-517.15 393.26,-169.34 461,-87 464.85,-82.32 469.69,-78.56 474.99,-75.53"/>
<polygon fill="#63b8ff" stroke="#63b8ff" points="370.69,-613.86 373.88,-623.96 377.69,-614.07 370.69,-613.86"/>
</a>
</g>
</g>
<!-- Node34 -->
<g id="Node000034" class="node">
<title>Node34</title>
<g id="a_Node000034"><a xlink:href="classtracktion_1_1engine_1_1VolumeAndPanPlugin.html" target="_top" xlink:title="The built&#45;in Tracktion volume/pan plugin.">
<polygon fill="white" stroke="#666666" points="587,-30 468,-30 468,0 587,0 587,-30"/>
<text text-anchor="start" x="476" y="-18" font-family="Helvetica,sans-Serif" font-size="10.00">tracktion::engine::</text>
<text text-anchor="middle" x="527.5" y="-7" font-family="Helvetica,sans-Serif" font-size="10.00">VolumeAndPanPlugin</text>
</a>
</g>
</g>
<!-- Node1&#45;&gt;Node34 -->
<g id="edge33_Node000001_Node000034" class="edge">
<title>Node1&#45;&gt;Node34</title>
<g id="a_edge33_Node000001_Node000034"><a xlink:title=" ">
<path fill="none" stroke="#63b8ff" d="M373.84,-613.75C375.72,-511.5 387.6,-129.37 461,-39 463.83,-35.52 467.2,-32.55 470.91,-30"/>
<polygon fill="#63b8ff" stroke="#63b8ff" points="370.34,-613.73 373.67,-623.78 377.34,-613.84 370.34,-613.73"/>
</a>
</g>
</g>
<!-- Node2 -->
<g id="Node000002" class="node">
<title>Node2</title>
<g id="a_Node000002"><a xlink:href="classtracktion_1_1engine_1_1Selectable.html" target="_top" xlink:title="Base class for things that can be selected, and whose properties can appear in the properties panel.">
<polygon fill="white" stroke="#666666" points="265,-750 160,-750 160,-720 265,-720 265,-750"/>
<text text-anchor="start" x="168" y="-738" font-family="Helvetica,sans-Serif" font-size="10.00">tracktion::engine::</text>
<text text-anchor="middle" x="212.5" y="-727" font-family="Helvetica,sans-Serif" font-size="10.00">Selectable</text>
</a>
</g>
</g>
<!-- Node2&#45;&gt;Node1 -->
<g id="edge1_Node000001_Node000002" class="edge">
<title>Node2&#45;&gt;Node1</title>
<g id="a_edge1_Node000001_Node000002"><a xlink:title=" ">
<path fill="none" stroke="#63b8ff" d="M274.37,-715.88C277.68,-714.35 280.91,-712.72 284,-711 312.18,-695.3 340.17,-670.16 356.64,-654.13"/>
<polygon fill="#63b8ff" stroke="#63b8ff" points="272.7,-712.79 264.89,-719.95 275.46,-719.22 272.7,-712.79"/>
</a>
</g>
</g>
<!-- Node3 -->
<g id="Node000003" class="node">
<title>Node3</title>
<g id="a_Node000003"><a xlink:href="classtracktion_1_1engine_1_1Exportable.html" target="_top" xlink:title="An interface for objects within an edit that can be exported.">
<polygon fill="white" stroke="#666666" points="265,-702 160,-702 160,-672 265,-672 265,-702"/>
<text text-anchor="start" x="168" y="-690" font-family="Helvetica,sans-Serif" font-size="10.00">tracktion::engine::</text>
<text text-anchor="middle" x="212.5" y="-679" font-family="Helvetica,sans-Serif" font-size="10.00">Exportable</text>
</a>
</g>
</g>
<!-- Node3&#45;&gt;Node1 -->
<g id="edge2_Node000001_Node000003" class="edge">
<title>Node3&#45;&gt;Node1</title>
<g id="a_edge2_Node000001_Node000003"><a xlink:title=" ">
<path fill="none" stroke="#63b8ff" d="M272.97,-668.93C289.17,-664.01 306.54,-658.73 322.12,-654"/>
<polygon fill="#63b8ff" stroke="#63b8ff" points="271.61,-665.69 263.06,-671.94 273.64,-672.39 271.61,-665.69"/>
</a>
</g>
</g>
<!-- Node4 -->
<g id="Node000004" class="node">
<title>Node4</title>
<g id="a_Node000004"><a xlink:href="classtracktion_1_1engine_1_1AutomatableEditItem.html" target="_top" xlink:title="Base class for elements that have some kind of automatable parameters.">
<polygon fill="white" stroke="#666666" points="273,-654 152,-654 152,-624 273,-624 273,-654"/>
<text text-anchor="start" x="160" y="-642" font-family="Helvetica,sans-Serif" font-size="10.00">tracktion::engine::</text>
<text text-anchor="middle" x="212.5" y="-631" font-family="Helvetica,sans-Serif" font-size="10.00">AutomatableEditItem</text>
</a>
</g>
</g>
<!-- Node4&#45;&gt;Node1 -->
<g id="edge3_Node000001_Node000004" class="edge">
<title>Node4&#45;&gt;Node1</title>
<g id="a_edge3_Node000001_Node000004"><a xlink:title=" ">
<path fill="none" stroke="#63b8ff" d="M283.45,-639C295.72,-639 308.3,-639 319.96,-639"/>
<polygon fill="#63b8ff" stroke="#63b8ff" points="283.23,-635.5 273.23,-639 283.23,-642.5 283.23,-635.5"/>
</a>
</g>
</g>
<!-- Node5 -->
<g id="Node000005" class="node">
<title>Node5</title>
<g id="a_Node000005"><a xlink:href="classtracktion_1_1engine_1_1EditItem.html" target="_top" xlink:title="Base class for objects that live inside an edit &#45; e.g.">
<polygon fill="white" stroke="#666666" points="105,-654 0,-654 0,-624 105,-624 105,-654"/>
<text text-anchor="start" x="8" y="-642" font-family="Helvetica,sans-Serif" font-size="10.00">tracktion::engine::</text>
<text text-anchor="middle" x="52.5" y="-631" font-family="Helvetica,sans-Serif" font-size="10.00">EditItem</text>
</a>
</g>
</g>
<!-- Node5&#45;&gt;Node4 -->
<g id="edge4_Node000004_Node000005" class="edge">
<title>Node5&#45;&gt;Node4</title>
<g id="a_edge4_Node000004_Node000005"><a xlink:title=" ">
<path fill="none" stroke="#63b8ff" d="M115.59,-639C127.56,-639 140.08,-639 151.97,-639"/>
<polygon fill="#63b8ff" stroke="#63b8ff" points="115.24,-635.5 105.24,-639 115.24,-642.5 115.24,-635.5"/>
</a>
</g>
</g>
<!-- Node6 -->
<g id="Node000006" class="node">
<title>Node6</title>
<g id="a_Node000006"><a xlink:href="classtracktion_1_1engine_1_1MacroParameterElement.html" target="_top" xlink:title="Base class for elements which can contain macro parameters.">
<polygon fill="white" stroke="#666666" points="281,-606 144,-606 144,-576 281,-576 281,-606"/>
<text text-anchor="start" x="152" y="-594" font-family="Helvetica,sans-Serif" font-size="10.00">tracktion::engine::</text>
<text text-anchor="middle" x="212.5" y="-583" font-family="Helvetica,sans-Serif" font-size="10.00">MacroParameterElement</text>
</a>
</g>
</g>
<!-- Node6&#45;&gt;Node1 -->
<g id="edge5_Node000001_Node000006" class="edge">
<title>Node6&#45;&gt;Node1</title>
<g id="a_edge5_Node000001_Node000006"><a xlink:title=" ">
<path fill="none" stroke="#63b8ff" d="M272.97,-609.07C289.17,-613.99 306.54,-619.27 322.12,-624"/>
<polygon fill="#63b8ff" stroke="#63b8ff" points="273.64,-605.61 263.06,-606.06 271.61,-612.31 273.64,-605.61"/>
</a>
</g>
</g>
<!-- Node7 -->
<g id="Node000007" class="node">
<title>Node7</title>
<g id="a_Node000007"><a xlink:href="structtracktion_1_1engine_1_1ValueTreeAllEventListener.html" target="_top" xlink:title=" ">
<polygon fill="white" stroke="#666666" points="284,-558 141,-558 141,-528 284,-528 284,-558"/>
<text text-anchor="start" x="149" y="-546" font-family="Helvetica,sans-Serif" font-size="10.00">tracktion::engine::</text>
<text text-anchor="middle" x="212.5" y="-535" font-family="Helvetica,sans-Serif" font-size="10.00">ValueTreeAllEventListener</text>
</a>
</g>
</g>
<!-- Node7&#45;&gt;Node1 -->
<g id="edge6_Node000001_Node000007" class="edge">
<title>Node7&#45;&gt;Node1</title>
<g id="a_edge6_Node000001_Node000007"><a xlink:title=" ">
<path fill="none" stroke="darkgreen" d="M274.37,-562.12C277.68,-563.65 280.91,-565.28 284,-567 312.18,-582.7 340.17,-607.84 356.64,-623.87"/>
<polygon fill="darkgreen" stroke="darkgreen" points="275.46,-558.78 264.89,-558.05 272.7,-565.21 275.46,-558.78"/>
</a>
</g>
</g>
</g>
</svg>
