<?xml version="1.0" encoding="UTF-8" standalone="no"?>
<!DOCTYPE svg PUBLIC "-//W3C//DTD SVG 1.1//EN"
 "http://www.w3.org/Graphics/SVG/1.1/DTD/svg11.dtd">
<!-- Generated by graphviz version 2.43.0 (0)
 -->
<!-- Title: tracktion_engine::AutomatableEditItem Pages: 1 -->
<svg width="807pt" height="1547pt"
 viewBox="0.00 0.00 807.00 1547.00" xmlns="http://www.w3.org/2000/svg" xmlns:xlink="http://www.w3.org/1999/xlink">
<g id="graph0" class="graph" transform="scale(1 1) rotate(0) translate(4 1543)">
<title>tracktion_engine::AutomatableEditItem</title>
<!-- Node1 -->
<g id="node1" class="node">
<title>Node1</title>
<g id="a_node1"><a xlink:title="Base class for elements that have some kind of automatable parameters.">
<polygon fill="#bfbfbf" stroke="black" points="182,-1371.5 182,-1401.5 349,-1401.5 349,-1371.5 182,-1371.5"/>
<text text-anchor="start" x="190" y="-1389.5" font-family="Helvetica,sans-Serif" font-size="10.00">tracktion_engine::Automatable</text>
<text text-anchor="middle" x="265.5" y="-1378.5" font-family="Helvetica,sans-Serif" font-size="10.00">EditItem</text>
</a>
</g>
</g>
<!-- Node3 -->
<g id="node3" class="node">
<title>Node3</title>
<g id="a_node3"><a xlink:href="classtracktion__engine_1_1MacroParameterList.html" target="_top" xlink:title=" ">
<polygon fill="none" stroke="black" points="385,-1415 385,-1434 587,-1434 587,-1415 385,-1415"/>
<text text-anchor="middle" x="486" y="-1422" font-family="Helvetica,sans-Serif" font-size="10.00">tracktion_engine::MacroParameterList</text>
</a>
</g>
</g>
<!-- Node1&#45;&gt;Node3 -->
<g id="edge2" class="edge">
<title>Node1&#45;&gt;Node3</title>
<path fill="none" stroke="midnightblue" d="M359.03,-1402.59C383.22,-1406.8 408.54,-1411.2 430.07,-1414.95"/>
<polygon fill="midnightblue" stroke="midnightblue" points="359.56,-1399.13 349.11,-1400.87 358.36,-1406.03 359.56,-1399.13"/>
</g>
<!-- Node4 -->
<g id="node4" class="node">
<title>Node4</title>
<g id="a_node4"><a xlink:href="structtracktion__engine_1_1Modifier.html" target="_top" xlink:title="Bass class for parameter Modifiers.">
<polygon fill="none" stroke="black" points="414,-1377 414,-1396 558,-1396 558,-1377 414,-1377"/>
<text text-anchor="middle" x="486" y="-1384" font-family="Helvetica,sans-Serif" font-size="10.00">tracktion_engine::Modifier</text>
</a>
</g>
</g>
<!-- Node1&#45;&gt;Node4 -->
<g id="edge3" class="edge">
<title>Node1&#45;&gt;Node4</title>
<path fill="none" stroke="midnightblue" d="M359.17,-1386.5C377.42,-1386.5 396.3,-1386.5 413.72,-1386.5"/>
<polygon fill="midnightblue" stroke="midnightblue" points="359.11,-1383 349.11,-1386.5 359.11,-1390 359.11,-1383"/>
</g>
<!-- Node11 -->
<g id="node11" class="node">
<title>Node11</title>
<g id="a_node11"><a xlink:href="classtracktion__engine_1_1Plugin.html" target="_top" xlink:title=" ">
<polygon fill="none" stroke="black" points="419,-638 419,-657 553,-657 553,-638 419,-638"/>
<text text-anchor="middle" x="486" y="-645" font-family="Helvetica,sans-Serif" font-size="10.00">tracktion_engine::Plugin</text>
</a>
</g>
</g>
<!-- Node1&#45;&gt;Node11 -->
<g id="edge10" class="edge">
<title>Node1&#45;&gt;Node11</title>
<path fill="none" stroke="midnightblue" d="M273.82,-1361.74C308.94,-1242.96 459.37,-734.2 482.11,-657.26"/>
<polygon fill="midnightblue" stroke="midnightblue" points="270.44,-1360.82 270.96,-1371.4 277.16,-1362.81 270.44,-1360.82"/>
</g>
<!-- Node2 -->
<g id="node2" class="node">
<title>Node2</title>
<g id="a_node2"><a xlink:href="classtracktion__engine_1_1EditItem.html" target="_top" xlink:title="Base class for objects that live inside an edit &#45; e.g.">
<polygon fill="none" stroke="black" points="0,-1377 0,-1396 146,-1396 146,-1377 0,-1377"/>
<text text-anchor="middle" x="73" y="-1384" font-family="Helvetica,sans-Serif" font-size="10.00">tracktion_engine::EditItem</text>
</a>
</g>
</g>
<!-- Node2&#45;&gt;Node1 -->
<g id="edge1" class="edge">
<title>Node2&#45;&gt;Node1</title>
<path fill="none" stroke="midnightblue" d="M156.27,-1386.5C164.74,-1386.5 173.36,-1386.5 181.83,-1386.5"/>
<polygon fill="midnightblue" stroke="midnightblue" points="156.02,-1383 146.02,-1386.5 156.02,-1390 156.02,-1383"/>
</g>
<!-- Node5 -->
<g id="node5" class="node">
<title>Node5</title>
<g id="a_node5"><a xlink:href="classtracktion__engine_1_1BreakpointOscillatorModifier.html" target="_top" xlink:title=" ">
<polygon fill="none" stroke="black" points="632,-1508.5 632,-1538.5 790,-1538.5 790,-1508.5 632,-1508.5"/>
<text text-anchor="start" x="640" y="-1526.5" font-family="Helvetica,sans-Serif" font-size="10.00">tracktion_engine::Breakpoint</text>
<text text-anchor="middle" x="711" y="-1515.5" font-family="Helvetica,sans-Serif" font-size="10.00">OscillatorModifier</text>
</a>
</g>
</g>
<!-- Node4&#45;&gt;Node5 -->
<g id="edge4" class="edge">
<title>Node4&#45;&gt;Node5</title>
<path fill="none" stroke="midnightblue" d="M567.73,-1394.1C574.7,-1396.98 581.27,-1400.71 587,-1405.5 621.32,-1434.2 589.88,-1469.43 623,-1499.5 626.71,-1502.87 630.86,-1505.77 635.27,-1508.27"/>
<polygon fill="midnightblue" stroke="midnightblue" points="568.62,-1390.7 558.02,-1390.66 566.28,-1397.3 568.62,-1390.7"/>
</g>
<!-- Node6 -->
<g id="node6" class="node">
<title>Node6</title>
<g id="a_node6"><a xlink:href="classtracktion__engine_1_1EnvelopeFollowerModifier.html" target="_top" xlink:title=" ">
<polygon fill="none" stroke="black" points="636.5,-1459.5 636.5,-1489.5 785.5,-1489.5 785.5,-1459.5 636.5,-1459.5"/>
<text text-anchor="start" x="644.5" y="-1477.5" font-family="Helvetica,sans-Serif" font-size="10.00">tracktion_engine::Envelope</text>
<text text-anchor="middle" x="711" y="-1466.5" font-family="Helvetica,sans-Serif" font-size="10.00">FollowerModifier</text>
</a>
</g>
</g>
<!-- Node4&#45;&gt;Node6 -->
<g id="edge5" class="edge">
<title>Node4&#45;&gt;Node6</title>
<path fill="none" stroke="midnightblue" d="M567.99,-1396.72C574.65,-1399.09 581.08,-1401.98 587,-1405.5 608.72,-1418.41 601.9,-1435.6 623,-1449.5 628.91,-1453.39 635.42,-1456.68 642.16,-1459.47"/>
<polygon fill="midnightblue" stroke="midnightblue" points="568.71,-1393.28 558.12,-1393.62 566.6,-1399.96 568.71,-1393.28"/>
</g>
<!-- Node7 -->
<g id="node7" class="node">
<title>Node7</title>
<g id="a_node7"><a xlink:href="classtracktion__engine_1_1LFOModifier.html" target="_top" xlink:title=" ">
<polygon fill="none" stroke="black" points="629.5,-1421 629.5,-1440 792.5,-1440 792.5,-1421 629.5,-1421"/>
<text text-anchor="middle" x="711" y="-1428" font-family="Helvetica,sans-Serif" font-size="10.00">tracktion_engine::LFOModifier</text>
</a>
</g>
</g>
<!-- Node4&#45;&gt;Node7 -->
<g id="edge6" class="edge">
<title>Node4&#45;&gt;Node7</title>
<path fill="none" stroke="midnightblue" d="M548.05,-1397.97C560.92,-1400.43 574.41,-1403.03 587,-1405.5 612.44,-1410.5 640.81,-1416.26 663.89,-1420.98"/>
<polygon fill="midnightblue" stroke="midnightblue" points="548.37,-1394.47 537.9,-1396.04 547.07,-1401.35 548.37,-1394.47"/>
</g>
<!-- Node8 -->
<g id="node8" class="node">
<title>Node8</title>
<g id="a_node8"><a xlink:href="classtracktion__engine_1_1MIDITrackerModifier.html" target="_top" xlink:title=" ">
<polygon fill="none" stroke="black" points="630.5,-1371.5 630.5,-1401.5 791.5,-1401.5 791.5,-1371.5 630.5,-1371.5"/>
<text text-anchor="start" x="638.5" y="-1389.5" font-family="Helvetica,sans-Serif" font-size="10.00">tracktion_engine::MIDITracker</text>
<text text-anchor="middle" x="711" y="-1378.5" font-family="Helvetica,sans-Serif" font-size="10.00">Modifier</text>
</a>
</g>
</g>
<!-- Node4&#45;&gt;Node8 -->
<g id="edge7" class="edge">
<title>Node4&#45;&gt;Node8</title>
<path fill="none" stroke="midnightblue" d="M568.27,-1386.5C588.47,-1386.5 610.09,-1386.5 630.22,-1386.5"/>
<polygon fill="midnightblue" stroke="midnightblue" points="568.17,-1383 558.17,-1386.5 568.17,-1390 568.17,-1383"/>
</g>
<!-- Node9 -->
<g id="node9" class="node">
<title>Node9</title>
<g id="a_node9"><a xlink:href="classtracktion__engine_1_1RandomModifier.html" target="_top" xlink:title=" ">
<polygon fill="none" stroke="black" points="638.5,-1322.5 638.5,-1352.5 783.5,-1352.5 783.5,-1322.5 638.5,-1322.5"/>
<text text-anchor="start" x="646.5" y="-1340.5" font-family="Helvetica,sans-Serif" font-size="10.00">tracktion_engine::Random</text>
<text text-anchor="middle" x="711" y="-1329.5" font-family="Helvetica,sans-Serif" font-size="10.00">Modifier</text>
</a>
</g>
</g>
<!-- Node4&#45;&gt;Node9 -->
<g id="edge8" class="edge">
<title>Node4&#45;&gt;Node9</title>
<path fill="none" stroke="midnightblue" d="M540.22,-1374.81C570.54,-1368.14 608.85,-1359.73 641.41,-1352.57"/>
<polygon fill="midnightblue" stroke="midnightblue" points="539.28,-1371.43 530.26,-1376.99 540.78,-1378.27 539.28,-1371.43"/>
</g>
<!-- Node10 -->
<g id="node10" class="node">
<title>Node10</title>
<g id="a_node10"><a xlink:href="classtracktion__engine_1_1StepModifier.html" target="_top" xlink:title=" ">
<polygon fill="none" stroke="black" points="628,-1284 628,-1303 794,-1303 794,-1284 628,-1284"/>
<text text-anchor="middle" x="711" y="-1291" font-family="Helvetica,sans-Serif" font-size="10.00">tracktion_engine::StepModifier</text>
</a>
</g>
</g>
<!-- Node4&#45;&gt;Node10 -->
<g id="edge9" class="edge">
<title>Node4&#45;&gt;Node10</title>
<path fill="none" stroke="midnightblue" d="M509.92,-1371.38C536.21,-1354.69 581.09,-1328.12 623,-1312.5 633.14,-1308.72 644.24,-1305.59 655.02,-1303.03"/>
<polygon fill="midnightblue" stroke="midnightblue" points="507.95,-1368.49 501.44,-1376.84 511.74,-1374.38 507.95,-1368.49"/>
</g>
<!-- Node12 -->
<g id="node12" class="node">
<title>Node12</title>
<g id="a_node12"><a xlink:href="classtracktion__engine_1_1AirWindowsPlugin.html" target="_top" xlink:title=" ">
<polygon fill="none" stroke="black" points="630,-1234.5 630,-1264.5 792,-1264.5 792,-1234.5 630,-1234.5"/>
<text text-anchor="start" x="638" y="-1252.5" font-family="Helvetica,sans-Serif" font-size="10.00">tracktion_engine::AirWindows</text>
<text text-anchor="middle" x="711" y="-1241.5" font-family="Helvetica,sans-Serif" font-size="10.00">Plugin</text>
</a>
</g>
</g>
<!-- Node11&#45;&gt;Node12 -->
<g id="edge11" class="edge">
<title>Node11&#45;&gt;Node12</title>
<path fill="none" stroke="midnightblue" d="M489,-667.29C498.65,-758.88 543.17,-1140.72 623,-1224.5 626.69,-1228.37 630.93,-1231.65 635.51,-1234.43"/>
<polygon fill="midnightblue" stroke="midnightblue" points="492.47,-666.76 487.96,-657.18 485.5,-667.48 492.47,-666.76"/>
</g>
<!-- Node13 -->
<g id="node13" class="node">
<title>Node13</title>
<g id="a_node13"><a xlink:href="classtracktion__engine_1_1AuxReturnPlugin.html" target="_top" xlink:title=" ">
<polygon fill="none" stroke="black" points="633.5,-1185.5 633.5,-1215.5 788.5,-1215.5 788.5,-1185.5 633.5,-1185.5"/>
<text text-anchor="start" x="641.5" y="-1203.5" font-family="Helvetica,sans-Serif" font-size="10.00">tracktion_engine::AuxReturn</text>
<text text-anchor="middle" x="711" y="-1192.5" font-family="Helvetica,sans-Serif" font-size="10.00">Plugin</text>
</a>
</g>
</g>
<!-- Node11&#45;&gt;Node13 -->
<g id="edge12" class="edge">
<title>Node11&#45;&gt;Node13</title>
<path fill="none" stroke="midnightblue" d="M489.46,-667.24C500.63,-753.9 549.26,-1099.68 623,-1175.5 626.73,-1179.33 631,-1182.58 635.6,-1185.35"/>
<polygon fill="midnightblue" stroke="midnightblue" points="492.91,-666.66 488.18,-657.18 485.97,-667.54 492.91,-666.66"/>
</g>
<!-- Node14 -->
<g id="node14" class="node">
<title>Node14</title>
<g id="a_node14"><a xlink:href="classtracktion__engine_1_1AuxSendPlugin.html" target="_top" xlink:title=" ">
<polygon fill="none" stroke="black" points="637.5,-1136.5 637.5,-1166.5 784.5,-1166.5 784.5,-1136.5 637.5,-1136.5"/>
<text text-anchor="start" x="645.5" y="-1154.5" font-family="Helvetica,sans-Serif" font-size="10.00">tracktion_engine::AuxSend</text>
<text text-anchor="middle" x="711" y="-1143.5" font-family="Helvetica,sans-Serif" font-size="10.00">Plugin</text>
</a>
</g>
</g>
<!-- Node11&#45;&gt;Node14 -->
<g id="edge13" class="edge">
<title>Node11&#45;&gt;Node14</title>
<path fill="none" stroke="midnightblue" d="M486.3,-667.36C484.89,-739.88 490.05,-993.13 623,-1126.5 627.22,-1130.73 632.1,-1134.25 637.35,-1137.19"/>
<polygon fill="midnightblue" stroke="midnightblue" points="489.8,-667.41 486.57,-657.32 482.8,-667.22 489.8,-667.41"/>
</g>
<!-- Node15 -->
<g id="node15" class="node">
<title>Node15</title>
<g id="a_node15"><a xlink:href="classtracktion__engine_1_1ChorusPlugin.html" target="_top" xlink:title=" ">
<polygon fill="none" stroke="black" points="642,-1087.5 642,-1117.5 780,-1117.5 780,-1087.5 642,-1087.5"/>
<text text-anchor="start" x="650" y="-1105.5" font-family="Helvetica,sans-Serif" font-size="10.00">tracktion_engine::Chorus</text>
<text text-anchor="middle" x="711" y="-1094.5" font-family="Helvetica,sans-Serif" font-size="10.00">Plugin</text>
</a>
</g>
</g>
<!-- Node11&#45;&gt;Node15 -->
<g id="edge14" class="edge">
<title>Node11&#45;&gt;Node15</title>
<path fill="none" stroke="midnightblue" d="M487.06,-667.51C488.38,-735.48 502.1,-959.76 623,-1077.5 628.4,-1082.76 634.84,-1086.93 641.73,-1090.23"/>
<polygon fill="midnightblue" stroke="midnightblue" points="490.56,-667.29 486.94,-657.34 483.56,-667.38 490.56,-667.29"/>
</g>
<!-- Node16 -->
<g id="node16" class="node">
<title>Node16</title>
<g id="a_node16"><a xlink:href="classtracktion__engine_1_1CompressorPlugin.html" target="_top" xlink:title=" ">
<polygon fill="none" stroke="black" points="629.5,-1038.5 629.5,-1068.5 792.5,-1068.5 792.5,-1038.5 629.5,-1038.5"/>
<text text-anchor="start" x="637.5" y="-1056.5" font-family="Helvetica,sans-Serif" font-size="10.00">tracktion_engine::Compressor</text>
<text text-anchor="middle" x="711" y="-1045.5" font-family="Helvetica,sans-Serif" font-size="10.00">Plugin</text>
</a>
</g>
</g>
<!-- Node11&#45;&gt;Node16 -->
<g id="edge15" class="edge">
<title>Node11&#45;&gt;Node16</title>
<path fill="none" stroke="midnightblue" d="M487.98,-667.27C492.17,-729.92 513.82,-925.99 623,-1028.5 627.12,-1032.37 631.81,-1035.65 636.82,-1038.42"/>
<polygon fill="midnightblue" stroke="midnightblue" points="491.46,-666.95 487.38,-657.17 484.48,-667.36 491.46,-666.95"/>
</g>
<!-- Node17 -->
<g id="node17" class="node">
<title>Node17</title>
<g id="a_node17"><a xlink:href="classtracktion__engine_1_1DelayPlugin.html" target="_top" xlink:title=" ">
<polygon fill="none" stroke="black" points="629.5,-1000 629.5,-1019 792.5,-1019 792.5,-1000 629.5,-1000"/>
<text text-anchor="middle" x="711" y="-1007" font-family="Helvetica,sans-Serif" font-size="10.00">tracktion_engine::DelayPlugin</text>
</a>
</g>
</g>
<!-- Node11&#45;&gt;Node17 -->
<g id="edge16" class="edge">
<title>Node11&#45;&gt;Node17</title>
<path fill="none" stroke="midnightblue" d="M488.65,-667.4C494.65,-726.41 520.71,-901.73 623,-989.5 627.94,-993.74 633.6,-997.12 639.61,-999.82"/>
<polygon fill="midnightblue" stroke="midnightblue" points="492.11,-666.84 487.7,-657.21 485.14,-667.49 492.11,-666.84"/>
</g>
<!-- Node18 -->
<g id="node18" class="node">
<title>Node18</title>
<g id="a_node18"><a xlink:href="classtracktion__engine_1_1EqualiserPlugin.html" target="_top" xlink:title=" ">
<polygon fill="none" stroke="black" points="636.5,-950.5 636.5,-980.5 785.5,-980.5 785.5,-950.5 636.5,-950.5"/>
<text text-anchor="start" x="644.5" y="-968.5" font-family="Helvetica,sans-Serif" font-size="10.00">tracktion_engine::Equaliser</text>
<text text-anchor="middle" x="711" y="-957.5" font-family="Helvetica,sans-Serif" font-size="10.00">Plugin</text>
</a>
</g>
</g>
<!-- Node11&#45;&gt;Node18 -->
<g id="edge17" class="edge">
<title>Node11&#45;&gt;Node18</title>
<path fill="none" stroke="midnightblue" d="M490.31,-667.08C500.22,-719.62 534.69,-864.9 623,-940.5 627.54,-944.38 632.64,-947.67 638.05,-950.44"/>
<polygon fill="midnightblue" stroke="midnightblue" points="493.72,-666.29 488.51,-657.07 486.83,-667.53 493.72,-666.29"/>
</g>
<!-- Node19 -->
<g id="node19" class="node">
<title>Node19</title>
<g id="a_node19"><a xlink:href="classtracktion__engine_1_1ExternalPlugin.html" target="_top" xlink:title=" ">
<polygon fill="none" stroke="black" points="638.5,-901.5 638.5,-931.5 783.5,-931.5 783.5,-901.5 638.5,-901.5"/>
<text text-anchor="start" x="646.5" y="-919.5" font-family="Helvetica,sans-Serif" font-size="10.00">tracktion_engine::External</text>
<text text-anchor="middle" x="711" y="-908.5" font-family="Helvetica,sans-Serif" font-size="10.00">Plugin</text>
</a>
</g>
</g>
<!-- Node11&#45;&gt;Node19 -->
<g id="edge18" class="edge">
<title>Node11&#45;&gt;Node19</title>
<path fill="none" stroke="midnightblue" d="M492.21,-666.85C505.66,-713.02 546,-830.36 623,-891.5 627.92,-895.41 633.43,-898.71 639.22,-901.49"/>
<polygon fill="midnightblue" stroke="midnightblue" points="495.57,-665.86 489.49,-657.18 488.83,-667.75 495.57,-665.86"/>
</g>
<!-- Node20 -->
<g id="node20" class="node">
<title>Node20</title>
<g id="a_node20"><a xlink:href="classtracktion__engine_1_1FourOscPlugin.html" target="_top" xlink:title=" ">
<polygon fill="none" stroke="black" points="639.5,-852.5 639.5,-882.5 782.5,-882.5 782.5,-852.5 639.5,-852.5"/>
<text text-anchor="start" x="647.5" y="-870.5" font-family="Helvetica,sans-Serif" font-size="10.00">tracktion_engine::FourOsc</text>
<text text-anchor="middle" x="711" y="-859.5" font-family="Helvetica,sans-Serif" font-size="10.00">Plugin</text>
</a>
</g>
</g>
<!-- Node11&#45;&gt;Node20 -->
<g id="edge19" class="edge">
<title>Node11&#45;&gt;Node20</title>
<path fill="none" stroke="midnightblue" d="M494.95,-666.59C512.23,-705.73 557.05,-795.34 623,-842.5 628.37,-846.34 634.32,-849.59 640.51,-852.35"/>
<polygon fill="midnightblue" stroke="midnightblue" points="498.15,-665.18 490.98,-657.38 491.72,-667.94 498.15,-665.18"/>
</g>
<!-- Node21 -->
<g id="node21" class="node">
<title>Node21</title>
<g id="a_node21"><a xlink:href="classtracktion__engine_1_1FreezePointPlugin.html" target="_top" xlink:title=" ">
<polygon fill="none" stroke="black" points="642.5,-803.5 642.5,-833.5 779.5,-833.5 779.5,-803.5 642.5,-803.5"/>
<text text-anchor="start" x="650.5" y="-821.5" font-family="Helvetica,sans-Serif" font-size="10.00">tracktion_engine::Freeze</text>
<text text-anchor="middle" x="711" y="-810.5" font-family="Helvetica,sans-Serif" font-size="10.00">PointPlugin</text>
</a>
</g>
</g>
<!-- Node11&#45;&gt;Node21 -->
<g id="edge20" class="edge">
<title>Node11&#45;&gt;Node21</title>
<path fill="none" stroke="midnightblue" d="M499.08,-665.92C520.37,-696.94 567.61,-759.52 623,-793.5 629.3,-797.36 636.21,-800.65 643.31,-803.44"/>
<polygon fill="midnightblue" stroke="midnightblue" points="501.81,-663.72 493.32,-657.38 496.01,-667.63 501.81,-663.72"/>
</g>
<!-- Node22 -->
<g id="node22" class="node">
<title>Node22</title>
<g id="a_node22"><a xlink:href="classtracktion__engine_1_1ImpulseResponsePlugin.html" target="_top" xlink:title="ImpulseResponsePlugin that loads an impulse response and applies it the audio stream.">
<polygon fill="none" stroke="black" points="639.5,-754.5 639.5,-784.5 782.5,-784.5 782.5,-754.5 639.5,-754.5"/>
<text text-anchor="start" x="647.5" y="-772.5" font-family="Helvetica,sans-Serif" font-size="10.00">tracktion_engine::Impulse</text>
<text text-anchor="middle" x="711" y="-761.5" font-family="Helvetica,sans-Serif" font-size="10.00">ResponsePlugin</text>
</a>
</g>
</g>
<!-- Node11&#45;&gt;Node22 -->
<g id="edge21" class="edge">
<title>Node11&#45;&gt;Node22</title>
<path fill="none" stroke="midnightblue" d="M505.42,-663.79C530.42,-685.13 577.24,-722.41 623,-744.5 630.78,-748.26 639.24,-751.55 647.72,-754.41"/>
<polygon fill="midnightblue" stroke="midnightblue" points="507.66,-661.1 497.81,-657.21 503.08,-666.4 507.66,-661.1"/>
</g>
<!-- Node23 -->
<g id="node23" class="node">
<title>Node23</title>
<g id="a_node23"><a xlink:href="classtracktion__engine_1_1InsertPlugin.html" target="_top" xlink:title=" ">
<polygon fill="none" stroke="black" points="645,-705.5 645,-735.5 777,-735.5 777,-705.5 645,-705.5"/>
<text text-anchor="start" x="653" y="-723.5" font-family="Helvetica,sans-Serif" font-size="10.00">tracktion_engine::Insert</text>
<text text-anchor="middle" x="711" y="-712.5" font-family="Helvetica,sans-Serif" font-size="10.00">Plugin</text>
</a>
</g>
</g>
<!-- Node11&#45;&gt;Node23 -->
<g id="edge22" class="edge">
<title>Node11&#45;&gt;Node23</title>
<path fill="none" stroke="midnightblue" d="M522.18,-660.57C549.53,-670.56 588.48,-684.46 623,-695.5 633.48,-698.85 644.73,-702.24 655.55,-705.39"/>
<polygon fill="midnightblue" stroke="midnightblue" points="523.26,-657.23 512.66,-657.07 520.85,-663.8 523.26,-657.23"/>
</g>
<!-- Node24 -->
<g id="node24" class="node">
<title>Node24</title>
<g id="a_node24"><a xlink:href="classtracktion__engine_1_1LatencyPlugin.html" target="_top" xlink:title="A test plugin that introduces latency to the incomming signal.">
<polygon fill="none" stroke="black" points="639.5,-656.5 639.5,-686.5 782.5,-686.5 782.5,-656.5 639.5,-656.5"/>
<text text-anchor="start" x="647.5" y="-674.5" font-family="Helvetica,sans-Serif" font-size="10.00">tracktion_engine::Latency</text>
<text text-anchor="middle" x="711" y="-663.5" font-family="Helvetica,sans-Serif" font-size="10.00">Plugin</text>
</a>
</g>
</g>
<!-- Node11&#45;&gt;Node24 -->
<g id="edge23" class="edge">
<title>Node11&#45;&gt;Node24</title>
<path fill="none" stroke="midnightblue" d="M563.02,-655.68C587.66,-658.33 614.87,-661.26 639.11,-663.87"/>
<polygon fill="midnightblue" stroke="midnightblue" points="563.32,-652.19 553,-654.6 562.57,-659.15 563.32,-652.19"/>
</g>
<!-- Node25 -->
<g id="node25" class="node">
<title>Node25</title>
<g id="a_node25"><a xlink:href="classtracktion__engine_1_1LevelMeterPlugin.html" target="_top" xlink:title=" ">
<polygon fill="none" stroke="black" points="631.5,-607.5 631.5,-637.5 790.5,-637.5 790.5,-607.5 631.5,-607.5"/>
<text text-anchor="start" x="639.5" y="-625.5" font-family="Helvetica,sans-Serif" font-size="10.00">tracktion_engine::LevelMeter</text>
<text text-anchor="middle" x="711" y="-614.5" font-family="Helvetica,sans-Serif" font-size="10.00">Plugin</text>
</a>
</g>
</g>
<!-- Node11&#45;&gt;Node25 -->
<g id="edge24" class="edge">
<title>Node11&#45;&gt;Node25</title>
<path fill="none" stroke="midnightblue" d="M562.95,-638.99C584.95,-636.52 609,-633.82 631.17,-631.34"/>
<polygon fill="midnightblue" stroke="midnightblue" points="562.55,-635.51 553,-640.1 563.33,-642.46 562.55,-635.51"/>
</g>
<!-- Node26 -->
<g id="node26" class="node">
<title>Node26</title>
<g id="a_node26"><a xlink:href="classtracktion__engine_1_1LowPassPlugin.html" target="_top" xlink:title=" ">
<polygon fill="none" stroke="black" points="638,-558.5 638,-588.5 784,-588.5 784,-558.5 638,-558.5"/>
<text text-anchor="start" x="646" y="-576.5" font-family="Helvetica,sans-Serif" font-size="10.00">tracktion_engine::LowPass</text>
<text text-anchor="middle" x="711" y="-565.5" font-family="Helvetica,sans-Serif" font-size="10.00">Plugin</text>
</a>
</g>
</g>
<!-- Node11&#45;&gt;Node26 -->
<g id="edge25" class="edge">
<title>Node11&#45;&gt;Node26</title>
<path fill="none" stroke="midnightblue" d="M520.85,-634.16C548.2,-623.61 587.8,-608.8 623,-597.5 632.55,-594.43 642.76,-591.4 652.71,-588.58"/>
<polygon fill="midnightblue" stroke="midnightblue" points="519.41,-630.97 511.36,-637.85 521.94,-637.49 519.41,-630.97"/>
</g>
<!-- Node27 -->
<g id="node27" class="node">
<title>Node27</title>
<g id="a_node27"><a xlink:href="classtracktion__engine_1_1MidiModifierPlugin.html" target="_top" xlink:title=" ">
<polygon fill="none" stroke="black" points="628.5,-509.5 628.5,-539.5 793.5,-539.5 793.5,-509.5 628.5,-509.5"/>
<text text-anchor="start" x="636.5" y="-527.5" font-family="Helvetica,sans-Serif" font-size="10.00">tracktion_engine::MidiModifier</text>
<text text-anchor="middle" x="711" y="-516.5" font-family="Helvetica,sans-Serif" font-size="10.00">Plugin</text>
</a>
</g>
</g>
<!-- Node11&#45;&gt;Node27 -->
<g id="edge26" class="edge">
<title>Node11&#45;&gt;Node27</title>
<path fill="none" stroke="midnightblue" d="M504.94,-631.11C529.73,-609.28 576.67,-570.83 623,-548.5 630.06,-545.1 637.68,-542.11 645.37,-539.5"/>
<polygon fill="midnightblue" stroke="midnightblue" points="502.54,-628.56 497.41,-637.83 507.2,-633.78 502.54,-628.56"/>
</g>
<!-- Node28 -->
<g id="node28" class="node">
<title>Node28</title>
<g id="a_node28"><a xlink:href="classtracktion__engine_1_1MidiPatchBayPlugin.html" target="_top" xlink:title=" ">
<polygon fill="none" stroke="black" points="635,-460.5 635,-490.5 787,-490.5 787,-460.5 635,-460.5"/>
<text text-anchor="start" x="643" y="-478.5" font-family="Helvetica,sans-Serif" font-size="10.00">tracktion_engine::MidiPatch</text>
<text text-anchor="middle" x="711" y="-467.5" font-family="Helvetica,sans-Serif" font-size="10.00">BayPlugin</text>
</a>
</g>
</g>
<!-- Node11&#45;&gt;Node28 -->
<g id="edge27" class="edge">
<title>Node11&#45;&gt;Node28</title>
<path fill="none" stroke="midnightblue" d="M498.67,-629.21C519.66,-597.83 566.87,-533.79 623,-499.5 628.62,-496.07 634.73,-493.12 641.03,-490.58"/>
<polygon fill="midnightblue" stroke="midnightblue" points="495.57,-627.55 493.02,-637.83 501.43,-631.39 495.57,-627.55"/>
</g>
<!-- Node29 -->
<g id="node29" class="node">
<title>Node29</title>
<g id="a_node29"><a xlink:href="classtracktion__engine_1_1PatchBayPlugin.html" target="_top" xlink:title=" ">
<polygon fill="none" stroke="black" points="636.5,-411.5 636.5,-441.5 785.5,-441.5 785.5,-411.5 636.5,-411.5"/>
<text text-anchor="start" x="644.5" y="-429.5" font-family="Helvetica,sans-Serif" font-size="10.00">tracktion_engine::PatchBay</text>
<text text-anchor="middle" x="711" y="-418.5" font-family="Helvetica,sans-Serif" font-size="10.00">Plugin</text>
</a>
</g>
</g>
<!-- Node11&#45;&gt;Node29 -->
<g id="edge28" class="edge">
<title>Node11&#45;&gt;Node29</title>
<path fill="none" stroke="midnightblue" d="M494.61,-628.71C511.54,-589.36 556.14,-498.02 623,-450.5 627.85,-447.05 633.18,-444.1 638.74,-441.57"/>
<polygon fill="midnightblue" stroke="midnightblue" points="491.38,-627.37 490.74,-637.94 497.84,-630.07 491.38,-627.37"/>
</g>
<!-- Node30 -->
<g id="node30" class="node">
<title>Node30</title>
<g id="a_node30"><a xlink:href="classtracktion__engine_1_1PhaserPlugin.html" target="_top" xlink:title=" ">
<polygon fill="none" stroke="black" points="642.5,-362.5 642.5,-392.5 779.5,-392.5 779.5,-362.5 642.5,-362.5"/>
<text text-anchor="start" x="650.5" y="-380.5" font-family="Helvetica,sans-Serif" font-size="10.00">tracktion_engine::Phaser</text>
<text text-anchor="middle" x="711" y="-369.5" font-family="Helvetica,sans-Serif" font-size="10.00">Plugin</text>
</a>
</g>
</g>
<!-- Node11&#45;&gt;Node30 -->
<g id="edge29" class="edge">
<title>Node11&#45;&gt;Node30</title>
<path fill="none" stroke="midnightblue" d="M492.03,-628.26C505.19,-581.82 545.12,-462.88 623,-401.5 628.78,-396.94 635.38,-393.25 642.29,-390.26"/>
<polygon fill="midnightblue" stroke="midnightblue" points="488.64,-627.4 489.38,-637.97 495.39,-629.24 488.64,-627.4"/>
</g>
<!-- Node31 -->
<g id="node31" class="node">
<title>Node31</title>
<g id="a_node31"><a xlink:href="classtracktion__engine_1_1PitchShiftPlugin.html" target="_top" xlink:title=" ">
<polygon fill="none" stroke="black" points="636,-313.5 636,-343.5 786,-343.5 786,-313.5 636,-313.5"/>
<text text-anchor="start" x="644" y="-331.5" font-family="Helvetica,sans-Serif" font-size="10.00">tracktion_engine::PitchShift</text>
<text text-anchor="middle" x="711" y="-320.5" font-family="Helvetica,sans-Serif" font-size="10.00">Plugin</text>
</a>
</g>
</g>
<!-- Node11&#45;&gt;Node31 -->
<g id="edge30" class="edge">
<title>Node11&#45;&gt;Node31</title>
<path fill="none" stroke="midnightblue" d="M490.22,-627.74C499.92,-574.71 533.89,-428.17 623,-352.5 627.06,-349.05 631.58,-346.1 636.36,-343.56"/>
<polygon fill="midnightblue" stroke="midnightblue" points="486.73,-627.39 488.46,-637.84 493.62,-628.59 486.73,-627.39"/>
</g>
<!-- Node32 -->
<g id="node32" class="node">
<title>Node32</title>
<g id="a_node32"><a xlink:href="classtracktion__engine_1_1RackInstance.html" target="_top" xlink:title=" ">
<polygon fill="none" stroke="black" points="626,-275 626,-294 796,-294 796,-275 626,-275"/>
<text text-anchor="middle" x="711" y="-282" font-family="Helvetica,sans-Serif" font-size="10.00">tracktion_engine::RackInstance</text>
</a>
</g>
</g>
<!-- Node11&#45;&gt;Node32 -->
<g id="edge31" class="edge">
<title>Node11&#45;&gt;Node32</title>
<path fill="none" stroke="midnightblue" d="M488.57,-627.43C494.33,-567.95 519.8,-391.25 623,-303.5 627.48,-299.69 632.54,-296.6 637.92,-294.09"/>
<polygon fill="midnightblue" stroke="midnightblue" points="485.05,-627.44 487.66,-637.71 492.02,-628.05 485.05,-627.44"/>
</g>
<!-- Node33 -->
<g id="node33" class="node">
<title>Node33</title>
<g id="a_node33"><a xlink:href="classtracktion__engine_1_1ReverbPlugin.html" target="_top" xlink:title=" ">
<polygon fill="none" stroke="black" points="641.5,-225.5 641.5,-255.5 780.5,-255.5 780.5,-225.5 641.5,-225.5"/>
<text text-anchor="start" x="649.5" y="-243.5" font-family="Helvetica,sans-Serif" font-size="10.00">tracktion_engine::Reverb</text>
<text text-anchor="middle" x="711" y="-232.5" font-family="Helvetica,sans-Serif" font-size="10.00">Plugin</text>
</a>
</g>
</g>
<!-- Node11&#45;&gt;Node33 -->
<g id="edge32" class="edge">
<title>Node11&#45;&gt;Node33</title>
<path fill="none" stroke="midnightblue" d="M487.96,-627.68C492.1,-564.86 513.61,-368.29 623,-265.5 628.38,-260.44 634.72,-256.4 641.48,-253.17"/>
<polygon fill="midnightblue" stroke="midnightblue" points="484.46,-627.62 487.37,-637.8 491.45,-628.02 484.46,-627.62"/>
</g>
<!-- Node34 -->
<g id="node34" class="node">
<title>Node34</title>
<g id="a_node34"><a xlink:href="classtracktion__engine_1_1SamplerPlugin.html" target="_top" xlink:title=" ">
<polygon fill="none" stroke="black" points="638.5,-176.5 638.5,-206.5 783.5,-206.5 783.5,-176.5 638.5,-176.5"/>
<text text-anchor="start" x="646.5" y="-194.5" font-family="Helvetica,sans-Serif" font-size="10.00">tracktion_engine::Sampler</text>
<text text-anchor="middle" x="711" y="-183.5" font-family="Helvetica,sans-Serif" font-size="10.00">Plugin</text>
</a>
</g>
</g>
<!-- Node11&#45;&gt;Node34 -->
<g id="edge33" class="edge">
<title>Node11&#45;&gt;Node34</title>
<path fill="none" stroke="midnightblue" d="M486.97,-627.8C487.98,-559.91 500.77,-333.43 623,-215.5 627.51,-211.15 632.74,-207.57 638.34,-204.63"/>
<polygon fill="midnightblue" stroke="midnightblue" points="483.47,-627.91 486.89,-637.93 490.47,-627.96 483.47,-627.91"/>
</g>
<!-- Node35 -->
<g id="node35" class="node">
<title>Node35</title>
<g id="a_node35"><a xlink:href="classtracktion__engine_1_1TextPlugin.html" target="_top" xlink:title=" ">
<polygon fill="none" stroke="black" points="633.5,-138 633.5,-157 788.5,-157 788.5,-138 633.5,-138"/>
<text text-anchor="middle" x="711" y="-145" font-family="Helvetica,sans-Serif" font-size="10.00">tracktion_engine::TextPlugin</text>
</a>
</g>
</g>
<!-- Node11&#45;&gt;Node35 -->
<g id="edge34" class="edge">
<title>Node11&#45;&gt;Node35</title>
<path fill="none" stroke="midnightblue" d="M489.84,-627.86C502.07,-545.91 552.84,-232.54 623,-166.5 627.05,-162.69 631.69,-159.57 636.66,-157.03"/>
<polygon fill="midnightblue" stroke="midnightblue" points="486.36,-627.43 488.37,-637.83 493.29,-628.45 486.36,-627.43"/>
</g>
<!-- Node36 -->
<g id="node36" class="node">
<title>Node36</title>
<g id="a_node36"><a xlink:href="classtracktion__engine_1_1ToneGeneratorPlugin.html" target="_top" xlink:title=" ">
<polygon fill="none" stroke="black" points="623,-88.5 623,-118.5 799,-118.5 799,-88.5 623,-88.5"/>
<text text-anchor="start" x="631" y="-106.5" font-family="Helvetica,sans-Serif" font-size="10.00">tracktion_engine::ToneGenerator</text>
<text text-anchor="middle" x="711" y="-95.5" font-family="Helvetica,sans-Serif" font-size="10.00">Plugin</text>
</a>
</g>
</g>
<!-- Node11&#45;&gt;Node36 -->
<g id="edge35" class="edge">
<title>Node11&#45;&gt;Node36</title>
<path fill="none" stroke="midnightblue" d="M489.54,-627.83C500.99,-542.2 550.35,-202.88 623,-128.5 626.73,-124.68 631.01,-121.43 635.62,-118.67"/>
<polygon fill="midnightblue" stroke="midnightblue" points="486.04,-627.61 488.21,-637.98 492.98,-628.52 486.04,-627.61"/>
</g>
<!-- Node37 -->
<g id="node37" class="node">
<title>Node37</title>
<g id="a_node37"><a xlink:href="classtracktion__engine_1_1VCAPlugin.html" target="_top" xlink:title="The VCA plugin sits on a folder track to control the overall level of all the volume/pan plugins in i...">
<polygon fill="none" stroke="black" points="633.5,-50 633.5,-69 788.5,-69 788.5,-50 633.5,-50"/>
<text text-anchor="middle" x="711" y="-57" font-family="Helvetica,sans-Serif" font-size="10.00">tracktion_engine::VCAPlugin</text>
</a>
</g>
</g>
<!-- Node11&#45;&gt;Node37 -->
<g id="edge36" class="edge">
<title>Node11&#45;&gt;Node37</title>
<path fill="none" stroke="midnightblue" d="M488.93,-627.87C498.23,-537.02 541.46,-158.46 623,-78.5 626.86,-74.71 631.3,-71.6 636.07,-69.06"/>
<polygon fill="midnightblue" stroke="midnightblue" points="485.43,-627.6 487.92,-637.9 492.4,-628.3 485.43,-627.6"/>
</g>
<!-- Node38 -->
<g id="node38" class="node">
<title>Node38</title>
<g id="a_node38"><a xlink:href="classtracktion__engine_1_1VolumeAndPanPlugin.html" target="_top" xlink:title="The built&#45;in Tracktion volume/pan plugin.">
<polygon fill="none" stroke="black" points="640.5,-0.5 640.5,-30.5 781.5,-30.5 781.5,-0.5 640.5,-0.5"/>
<text text-anchor="start" x="648.5" y="-18.5" font-family="Helvetica,sans-Serif" font-size="10.00">tracktion_engine::Volume</text>
<text text-anchor="middle" x="711" y="-7.5" font-family="Helvetica,sans-Serif" font-size="10.00">AndPanPlugin</text>
</a>
</g>
</g>
<!-- Node11&#45;&gt;Node38 -->
<g id="edge37" class="edge">
<title>Node11&#45;&gt;Node38</title>
<path fill="none" stroke="midnightblue" d="M488.76,-627.59C497.54,-532.92 539.46,-129.15 623,-40.5 627.96,-35.24 633.94,-31.06 640.43,-27.75"/>
<polygon fill="midnightblue" stroke="midnightblue" points="485.26,-627.5 487.84,-637.78 492.23,-628.14 485.26,-627.5"/>
</g>
</g>
</svg>
