<?xml version="1.0" encoding="UTF-8" standalone="no"?>
<!DOCTYPE svg PUBLIC "-//W3C//DTD SVG 1.1//EN"
 "http://www.w3.org/Graphics/SVG/1.1/DTD/svg11.dtd">
<!-- Generated by graphviz version 2.43.0 (0)
 -->
<!-- Title: tracktion_graph::Node Pages: 1 -->
<svg width="366pt" height="610pt"
 viewBox="0.00 0.00 366.00 610.00" xmlns="http://www.w3.org/2000/svg" xmlns:xlink="http://www.w3.org/1999/xlink">
<g id="graph0" class="graph" transform="scale(1 1) rotate(0) translate(4 606)">
<title>tracktion_graph::Node</title>
<!-- Node1 -->
<g id="node1" class="node">
<title>Node1</title>
<g id="a_node1"><a xlink:title="Main graph Node processor class.">
<polygon fill="#bfbfbf" stroke="black" points="0,-285.5 0,-304.5 125,-304.5 125,-285.5 0,-285.5"/>
<text text-anchor="middle" x="62.5" y="-292.5" font-family="Helvetica,sans-Serif" font-size="10.00">tracktion_graph::Node</text>
</a>
</g>
</g>
<!-- Node2 -->
<g id="node2" class="node">
<title>Node2</title>
<g id="a_node2"><a xlink:href="classtracktion__engine_1_1ForwardingNode.html" target="_top" xlink:title="Takes a non&#45;owning input node and simply forwards its outputs on.">
<polygon fill="none" stroke="black" points="167.5,-582.5 167.5,-601.5 351.5,-601.5 351.5,-582.5 167.5,-582.5"/>
<text text-anchor="middle" x="259.5" y="-589.5" font-family="Helvetica,sans-Serif" font-size="10.00">tracktion_engine::ForwardingNode</text>
</a>
</g>
</g>
<!-- Node1&#45;&gt;Node2 -->
<g id="edge1" class="edge">
<title>Node1&#45;&gt;Node2</title>
<path fill="none" stroke="midnightblue" d="M64.09,-314.84C66.75,-366.17 81.33,-504.11 161,-573 165.3,-576.72 170.12,-579.8 175.24,-582.34"/>
<polygon fill="midnightblue" stroke="midnightblue" points="67.58,-314.59 63.67,-304.75 60.59,-314.89 67.58,-314.59"/>
</g>
<!-- Node3 -->
<g id="node3" class="node">
<title>Node3</title>
<g id="a_node3"><a xlink:href="classtracktion__engine_1_1HoldingNode.html" target="_top" xlink:title="Takes ownership of a number of nodes but doesn&#39;t do any processing.">
<polygon fill="none" stroke="black" points="176,-544.5 176,-563.5 343,-563.5 343,-544.5 176,-544.5"/>
<text text-anchor="middle" x="259.5" y="-551.5" font-family="Helvetica,sans-Serif" font-size="10.00">tracktion_engine::HoldingNode</text>
</a>
</g>
</g>
<!-- Node1&#45;&gt;Node3 -->
<g id="edge2" class="edge">
<title>Node1&#45;&gt;Node3</title>
<path fill="none" stroke="midnightblue" d="M65.33,-314.9C70.73,-361.34 90.9,-477.3 161,-535 165.53,-538.73 170.57,-541.8 175.92,-544.32"/>
<polygon fill="midnightblue" stroke="midnightblue" points="68.78,-314.25 64.26,-304.67 61.82,-314.98 68.78,-314.25"/>
</g>
<!-- Node4 -->
<g id="node4" class="node">
<title>Node4</title>
<g id="a_node4"><a xlink:href="classtracktion__engine_1_1InputNode.html" target="_top" xlink:title=" ">
<polygon fill="none" stroke="black" points="182,-506.5 182,-525.5 337,-525.5 337,-506.5 182,-506.5"/>
<text text-anchor="middle" x="259.5" y="-513.5" font-family="Helvetica,sans-Serif" font-size="10.00">tracktion_engine::InputNode</text>
</a>
</g>
</g>
<!-- Node1&#45;&gt;Node4 -->
<g id="edge3" class="edge">
<title>Node1&#45;&gt;Node4</title>
<path fill="none" stroke="midnightblue" d="M66.98,-314.81C75.27,-355.84 100.26,-450.17 161,-497 167.28,-501.84 174.46,-505.56 182,-508.4"/>
<polygon fill="midnightblue" stroke="midnightblue" points="70.41,-314.12 65.1,-304.95 63.53,-315.43 70.41,-314.12"/>
</g>
<!-- Node5 -->
<g id="node5" class="node">
<title>Node5</title>
<g id="a_node5"><a xlink:href="classtracktion__engine_1_1ModifierNode.html" target="_top" xlink:title=" ">
<polygon fill="none" stroke="black" points="174.5,-468.5 174.5,-487.5 344.5,-487.5 344.5,-468.5 174.5,-468.5"/>
<text text-anchor="middle" x="259.5" y="-475.5" font-family="Helvetica,sans-Serif" font-size="10.00">tracktion_engine::ModifierNode</text>
</a>
</g>
</g>
<!-- Node1&#45;&gt;Node5 -->
<g id="edge4" class="edge">
<title>Node1&#45;&gt;Node5</title>
<path fill="none" stroke="midnightblue" d="M69.27,-314.64C80.64,-349.68 109.43,-422.69 161,-459 166.36,-462.77 172.27,-465.84 178.46,-468.34"/>
<polygon fill="midnightblue" stroke="midnightblue" points="72.49,-313.2 66.18,-304.69 65.8,-315.28 72.49,-313.2"/>
</g>
<!-- Node6 -->
<g id="node6" class="node">
<title>Node6</title>
<g id="a_node6"><a xlink:href="classtracktion__engine_1_1PluginNode.html" target="_top" xlink:title=" ">
<polygon fill="none" stroke="black" points="179.5,-430.5 179.5,-449.5 339.5,-449.5 339.5,-430.5 179.5,-430.5"/>
<text text-anchor="middle" x="259.5" y="-437.5" font-family="Helvetica,sans-Serif" font-size="10.00">tracktion_engine::PluginNode</text>
</a>
</g>
</g>
<!-- Node1&#45;&gt;Node6 -->
<g id="edge5" class="edge">
<title>Node1&#45;&gt;Node6</title>
<path fill="none" stroke="midnightblue" d="M72.56,-314.02C87.05,-342.23 118.22,-394.63 161,-421 167.24,-424.85 174.09,-427.94 181.19,-430.42"/>
<polygon fill="midnightblue" stroke="midnightblue" points="75.57,-312.22 67.99,-304.82 69.31,-315.33 75.57,-312.22"/>
</g>
<!-- Node7 -->
<g id="node7" class="node">
<title>Node7</title>
<g id="a_node7"><a xlink:href="classtracktion__graph_1_1BasicSummingNode.html" target="_top" xlink:title=" ">
<polygon fill="none" stroke="black" points="161,-392.5 161,-411.5 358,-411.5 358,-392.5 161,-392.5"/>
<text text-anchor="middle" x="259.5" y="-399.5" font-family="Helvetica,sans-Serif" font-size="10.00">tracktion_graph::BasicSummingNode</text>
</a>
</g>
</g>
<!-- Node1&#45;&gt;Node7 -->
<g id="edge6" class="edge">
<title>Node1&#45;&gt;Node7</title>
<path fill="none" stroke="midnightblue" d="M77.45,-312.34C94.8,-332.65 126.37,-365.7 161,-383 168.79,-386.89 177.3,-389.99 185.95,-392.45"/>
<polygon fill="midnightblue" stroke="midnightblue" points="80.01,-309.95 70.92,-304.51 74.63,-314.43 80.01,-309.95"/>
</g>
<!-- Node8 -->
<g id="node8" class="node">
<title>Node8</title>
<g id="a_node8"><a xlink:href="classtracktion__graph_1_1ChannelRemappingNode.html" target="_top" xlink:title="Maps channels from one to another.">
<polygon fill="none" stroke="black" points="190,-343 190,-373 329,-373 329,-343 190,-343"/>
<text text-anchor="start" x="198" y="-361" font-family="Helvetica,sans-Serif" font-size="10.00">tracktion_graph::Channel</text>
<text text-anchor="middle" x="259.5" y="-350" font-family="Helvetica,sans-Serif" font-size="10.00">RemappingNode</text>
</a>
</g>
</g>
<!-- Node1&#45;&gt;Node8 -->
<g id="edge7" class="edge">
<title>Node1&#45;&gt;Node8</title>
<path fill="none" stroke="midnightblue" d="M95.02,-308.4C113.94,-316.16 138.62,-325.8 161,-333 171.98,-336.53 183.78,-339.91 195.24,-342.97"/>
<polygon fill="midnightblue" stroke="midnightblue" points="96.26,-305.13 85.68,-304.53 93.58,-311.59 96.26,-305.13"/>
</g>
<!-- Node9 -->
<g id="node9" class="node">
<title>Node9</title>
<g id="a_node9"><a xlink:href="classtracktion__graph_1_1FunctionNode.html" target="_top" xlink:title=" ">
<polygon fill="none" stroke="black" points="176.5,-304.5 176.5,-323.5 342.5,-323.5 342.5,-304.5 176.5,-304.5"/>
<text text-anchor="middle" x="259.5" y="-311.5" font-family="Helvetica,sans-Serif" font-size="10.00">tracktion_graph::FunctionNode</text>
</a>
</g>
</g>
<!-- Node1&#45;&gt;Node9 -->
<g id="edge8" class="edge">
<title>Node1&#45;&gt;Node9</title>
<path fill="none" stroke="midnightblue" d="M135.23,-301.99C148.55,-303.29 162.55,-304.65 176.16,-305.98"/>
<polygon fill="midnightblue" stroke="midnightblue" points="135.49,-298.5 125.2,-301.01 134.81,-305.47 135.49,-298.5"/>
</g>
<!-- Node10 -->
<g id="node10" class="node">
<title>Node10</title>
<g id="a_node10"><a xlink:href="classtracktion__graph_1_1LatencyNode.html" target="_top" xlink:title=" ">
<polygon fill="none" stroke="black" points="178,-266.5 178,-285.5 341,-285.5 341,-266.5 178,-266.5"/>
<text text-anchor="middle" x="259.5" y="-273.5" font-family="Helvetica,sans-Serif" font-size="10.00">tracktion_graph::LatencyNode</text>
</a>
</g>
</g>
<!-- Node1&#45;&gt;Node10 -->
<g id="edge9" class="edge">
<title>Node1&#45;&gt;Node10</title>
<path fill="none" stroke="midnightblue" d="M135.18,-288.02C149.08,-286.66 163.75,-285.23 177.92,-283.85"/>
<polygon fill="midnightblue" stroke="midnightblue" points="134.81,-284.53 125.2,-288.99 135.49,-291.5 134.81,-284.53"/>
</g>
<!-- Node11 -->
<g id="node11" class="node">
<title>Node11</title>
<g id="a_node11"><a xlink:href="classtracktion__graph_1_1MidiNode.html" target="_top" xlink:title="Plays back a MIDI sequence.">
<polygon fill="none" stroke="black" points="186.5,-228.5 186.5,-247.5 332.5,-247.5 332.5,-228.5 186.5,-228.5"/>
<text text-anchor="middle" x="259.5" y="-235.5" font-family="Helvetica,sans-Serif" font-size="10.00">tracktion_graph::MidiNode</text>
</a>
</g>
</g>
<!-- Node1&#45;&gt;Node11 -->
<g id="edge10" class="edge">
<title>Node1&#45;&gt;Node11</title>
<path fill="none" stroke="midnightblue" d="M94.13,-281.43C113.09,-273.44 138.12,-263.63 161,-257 173.67,-253.33 187.48,-250.15 200.61,-247.51"/>
<polygon fill="midnightblue" stroke="midnightblue" points="92.62,-278.27 84.8,-285.42 95.37,-284.7 92.62,-278.27"/>
</g>
<!-- Node12 -->
<g id="node12" class="node">
<title>Node12</title>
<g id="a_node12"><a xlink:href="classtracktion__graph_1_1ReturnNode.html" target="_top" xlink:title=" ">
<polygon fill="none" stroke="black" points="181,-190.5 181,-209.5 338,-209.5 338,-190.5 181,-190.5"/>
<text text-anchor="middle" x="259.5" y="-197.5" font-family="Helvetica,sans-Serif" font-size="10.00">tracktion_graph::ReturnNode</text>
</a>
</g>
</g>
<!-- Node1&#45;&gt;Node12 -->
<g id="edge11" class="edge">
<title>Node1&#45;&gt;Node12</title>
<path fill="none" stroke="midnightblue" d="M80.14,-277.95C98.33,-260.35 129.16,-233.5 161,-219 169.55,-215.11 178.88,-212.01 188.27,-209.54"/>
<polygon fill="midnightblue" stroke="midnightblue" points="77.35,-275.78 72.71,-285.3 82.28,-280.75 77.35,-275.78"/>
</g>
<!-- Node13 -->
<g id="node13" class="node">
<title>Node13</title>
<g id="a_node13"><a xlink:href="classtracktion__graph_1_1SendNode.html" target="_top" xlink:title=" ">
<polygon fill="none" stroke="black" points="185,-152.5 185,-171.5 334,-171.5 334,-152.5 185,-152.5"/>
<text text-anchor="middle" x="259.5" y="-159.5" font-family="Helvetica,sans-Serif" font-size="10.00">tracktion_graph::SendNode</text>
</a>
</g>
</g>
<!-- Node1&#45;&gt;Node13 -->
<g id="edge12" class="edge">
<title>Node1&#45;&gt;Node13</title>
<path fill="none" stroke="midnightblue" d="M73.7,-276.69C89.06,-250.92 120.7,-204.5 161,-181 168.37,-176.7 176.54,-173.35 184.92,-170.75"/>
<polygon fill="midnightblue" stroke="midnightblue" points="70.6,-275.05 68.62,-285.46 76.66,-278.56 70.6,-275.05"/>
</g>
<!-- Node14 -->
<g id="node14" class="node">
<title>Node14</title>
<g id="a_node14"><a xlink:href="classtracktion__graph_1_1SilentNode.html" target="_top" xlink:title="Just a simple audio node that doesn&#39;t take any input so can be used as a stub.">
<polygon fill="none" stroke="black" points="183.5,-114.5 183.5,-133.5 335.5,-133.5 335.5,-114.5 183.5,-114.5"/>
<text text-anchor="middle" x="259.5" y="-121.5" font-family="Helvetica,sans-Serif" font-size="10.00">tracktion_graph::SilentNode</text>
</a>
</g>
</g>
<!-- Node1&#45;&gt;Node14 -->
<g id="edge13" class="edge">
<title>Node1&#45;&gt;Node14</title>
<path fill="none" stroke="midnightblue" d="M70.21,-275.41C82.58,-242.4 112.3,-176.07 161,-143 167.71,-138.45 175.24,-134.93 183.06,-132.21"/>
<polygon fill="midnightblue" stroke="midnightblue" points="66.76,-274.64 66.67,-285.23 73.35,-277.01 66.76,-274.64"/>
</g>
<!-- Node15 -->
<g id="node15" class="node">
<title>Node15</title>
<g id="a_node15"><a xlink:href="classtracktion__graph_1_1SinkNode.html" target="_top" xlink:title="Blocks audio and MIDI input from reaching the outputs.">
<polygon fill="none" stroke="black" points="186.5,-76.5 186.5,-95.5 332.5,-95.5 332.5,-76.5 186.5,-76.5"/>
<text text-anchor="middle" x="259.5" y="-83.5" font-family="Helvetica,sans-Serif" font-size="10.00">tracktion_graph::SinkNode</text>
</a>
</g>
</g>
<!-- Node1&#45;&gt;Node15 -->
<g id="edge14" class="edge">
<title>Node1&#45;&gt;Node15</title>
<path fill="none" stroke="midnightblue" d="M67.6,-275.29C76.84,-236.11 103.15,-148.48 161,-105 168.51,-99.35 177.25,-95.25 186.34,-92.29"/>
<polygon fill="midnightblue" stroke="midnightblue" points="64.15,-274.66 65.39,-285.19 70.98,-276.19 64.15,-274.66"/>
</g>
<!-- Node16 -->
<g id="node16" class="node">
<title>Node16</title>
<g id="a_node16"><a xlink:href="classtracktion__graph_1_1SinNode.html" target="_top" xlink:title=" ">
<polygon fill="none" stroke="black" points="189.5,-38.5 189.5,-57.5 329.5,-57.5 329.5,-38.5 189.5,-38.5"/>
<text text-anchor="middle" x="259.5" y="-45.5" font-family="Helvetica,sans-Serif" font-size="10.00">tracktion_graph::SinNode</text>
</a>
</g>
</g>
<!-- Node1&#45;&gt;Node16 -->
<g id="edge15" class="edge">
<title>Node1&#45;&gt;Node16</title>
<path fill="none" stroke="midnightblue" d="M65.79,-275.18C72.07,-230.42 93.85,-121.26 161,-67 169.25,-60.33 179.16,-55.78 189.46,-52.69"/>
<polygon fill="midnightblue" stroke="midnightblue" points="62.29,-274.95 64.48,-285.32 69.23,-275.85 62.29,-274.95"/>
</g>
<!-- Node17 -->
<g id="node17" class="node">
<title>Node17</title>
<g id="a_node17"><a xlink:href="classtracktion__graph_1_1SummingNode.html" target="_top" xlink:title="An Node which sums together the multiple inputs adding additional latency to provide a coherent outpu...">
<polygon fill="none" stroke="black" points="174,-0.5 174,-19.5 345,-19.5 345,-0.5 174,-0.5"/>
<text text-anchor="middle" x="259.5" y="-7.5" font-family="Helvetica,sans-Serif" font-size="10.00">tracktion_graph::SummingNode</text>
</a>
</g>
</g>
<!-- Node1&#45;&gt;Node17 -->
<g id="edge16" class="edge">
<title>Node1&#45;&gt;Node17</title>
<path fill="none" stroke="midnightblue" d="M64.43,-275.35C67.9,-225.67 84.26,-94.42 161,-29 165.46,-25.2 170.46,-22.07 175.77,-19.5"/>
<polygon fill="midnightblue" stroke="midnightblue" points="60.93,-275.21 63.83,-285.4 67.92,-275.62 60.93,-275.21"/>
</g>
</g>
</svg>
