<?xml version="1.0" encoding="UTF-8" standalone="no"?>
<!DOCTYPE svg PUBLIC "-//W3C//DTD SVG 1.1//EN"
 "http://www.w3.org/Graphics/SVG/1.1/DTD/svg11.dtd">
<!-- Generated by graphviz version 2.43.0 (0)
 -->
<!-- Title: tracktion_engine::ThreadPoolJobWithProgress Pages: 1 -->
<svg width="551pt" height="225pt"
 viewBox="0.00 0.00 551.00 225.00" xmlns="http://www.w3.org/2000/svg" xmlns:xlink="http://www.w3.org/1999/xlink">
<g id="graph0" class="graph" transform="scale(1 1) rotate(0) translate(4 221)">
<title>tracktion_engine::ThreadPoolJobWithProgress</title>
<!-- Node1 -->
<g id="node1" class="node">
<title>Node1</title>
<g id="a_node1"><a xlink:title=" ">
<polygon fill="#bfbfbf" stroke="black" points="0,-120.5 0,-150.5 138,-150.5 138,-120.5 0,-120.5"/>
<text text-anchor="start" x="8" y="-138.5" font-family="Helvetica,sans-Serif" font-size="10.00">tracktion_engine::Thread</text>
<text text-anchor="middle" x="69" y="-127.5" font-family="Helvetica,sans-Serif" font-size="10.00">PoolJobWithProgress</text>
</a>
</g>
</g>
<!-- Node2 -->
<g id="node2" class="node">
<title>Node2</title>
<g id="a_node2"><a xlink:href="structtracktion__engine_1_1AudioProxyGenerator_1_1GeneratorJob.html" target="_top" xlink:title=" ">
<polygon fill="none" stroke="black" points="174,-186.5 174,-216.5 334,-216.5 334,-186.5 174,-186.5"/>
<text text-anchor="start" x="182" y="-204.5" font-family="Helvetica,sans-Serif" font-size="10.00">tracktion_engine::AudioProxy</text>
<text text-anchor="middle" x="254" y="-193.5" font-family="Helvetica,sans-Serif" font-size="10.00">Generator::GeneratorJob</text>
</a>
</g>
</g>
<!-- Node1&#45;&gt;Node2 -->
<g id="edge1" class="edge">
<title>Node1&#45;&gt;Node2</title>
<path fill="none" stroke="midnightblue" d="M116.01,-154.43C134,-161.62 154.86,-169.71 174,-176.5 183.49,-179.87 193.7,-183.26 203.52,-186.42"/>
<polygon fill="midnightblue" stroke="midnightblue" points="116.93,-151.03 106.35,-150.54 114.32,-157.52 116.93,-151.03"/>
</g>
<!-- Node3 -->
<g id="node3" class="node">
<title>Node3</title>
<g id="a_node3"><a xlink:href="classtracktion__engine_1_1ExportJob.html" target="_top" xlink:title=" ">
<polygon fill="none" stroke="black" points="178.5,-148 178.5,-167 329.5,-167 329.5,-148 178.5,-148"/>
<text text-anchor="middle" x="254" y="-155" font-family="Helvetica,sans-Serif" font-size="10.00">tracktion_engine::ExportJob</text>
</a>
</g>
</g>
<!-- Node1&#45;&gt;Node3 -->
<g id="edge2" class="edge">
<title>Node1&#45;&gt;Node3</title>
<path fill="none" stroke="midnightblue" d="M148.08,-144.89C158.12,-146.09 168.37,-147.33 178.35,-148.53"/>
<polygon fill="midnightblue" stroke="midnightblue" points="148.49,-141.41 138.14,-143.69 147.65,-148.36 148.49,-141.41"/>
</g>
<!-- Node4 -->
<g id="node4" class="node">
<title>Node4</title>
<g id="a_node4"><a xlink:href="classtracktion__engine_1_1Renderer_1_1RenderTask.html" target="_top" xlink:title="Task that actually performs the render operation in blocks.">
<polygon fill="none" stroke="black" points="179.5,-98.5 179.5,-128.5 328.5,-128.5 328.5,-98.5 179.5,-98.5"/>
<text text-anchor="start" x="187.5" y="-116.5" font-family="Helvetica,sans-Serif" font-size="10.00">tracktion_engine::Renderer</text>
<text text-anchor="middle" x="254" y="-105.5" font-family="Helvetica,sans-Serif" font-size="10.00">::RenderTask</text>
</a>
</g>
</g>
<!-- Node1&#45;&gt;Node4 -->
<g id="edge3" class="edge">
<title>Node1&#45;&gt;Node4</title>
<path fill="none" stroke="midnightblue" d="M148.32,-126.08C158.59,-124.85 169.08,-123.59 179.28,-122.36"/>
<polygon fill="midnightblue" stroke="midnightblue" points="147.65,-122.64 138.14,-127.31 148.49,-129.59 147.65,-122.64"/>
</g>
<!-- Node5 -->
<g id="node5" class="node">
<title>Node5</title>
<g id="a_node5"><a xlink:href="classtracktion__engine_1_1RenderManager_1_1Job.html" target="_top" xlink:title="The base class that all generator jobs derive from.">
<polygon fill="none" stroke="black" points="184.5,-49.5 184.5,-79.5 323.5,-79.5 323.5,-49.5 184.5,-49.5"/>
<text text-anchor="start" x="192.5" y="-67.5" font-family="Helvetica,sans-Serif" font-size="10.00">tracktion_engine::Render</text>
<text text-anchor="middle" x="254" y="-56.5" font-family="Helvetica,sans-Serif" font-size="10.00">Manager::Job</text>
</a>
</g>
</g>
<!-- Node1&#45;&gt;Node5 -->
<g id="edge4" class="edge">
<title>Node1&#45;&gt;Node5</title>
<path fill="none" stroke="midnightblue" d="M110.75,-116.23C129.77,-107.56 152.83,-97.5 174,-89.5 183.15,-86.04 193.01,-82.66 202.56,-79.55"/>
<polygon fill="midnightblue" stroke="midnightblue" points="109.11,-113.13 101.49,-120.49 112.03,-119.49 109.11,-113.13"/>
</g>
<!-- Node6 -->
<g id="node6" class="node">
<title>Node6</title>
<g id="a_node6"><a xlink:href="classtracktion__engine_1_1EditRenderJob.html" target="_top" xlink:title=" ">
<polygon fill="none" stroke="black" points="370,-99 370,-118 543,-118 543,-99 370,-99"/>
<text text-anchor="middle" x="456.5" y="-106" font-family="Helvetica,sans-Serif" font-size="10.00">tracktion_engine::EditRenderJob</text>
</a>
</g>
</g>
<!-- Node5&#45;&gt;Node6 -->
<g id="edge5" class="edge">
<title>Node5&#45;&gt;Node6</title>
<path fill="none" stroke="midnightblue" d="M333.21,-81.66C360.05,-87.55 389.1,-93.93 412.15,-98.99"/>
<polygon fill="midnightblue" stroke="midnightblue" points="333.96,-78.24 323.44,-79.52 332.46,-85.08 333.96,-78.24"/>
</g>
<!-- Node7 -->
<g id="node7" class="node">
<title>Node7</title>
<g id="a_node7"><a xlink:href="classtracktion__engine_1_1ReverseRenderJob.html" target="_top" xlink:title=" ">
<polygon fill="none" stroke="black" points="384.5,-49.5 384.5,-79.5 528.5,-79.5 528.5,-49.5 384.5,-49.5"/>
<text text-anchor="start" x="392.5" y="-67.5" font-family="Helvetica,sans-Serif" font-size="10.00">tracktion_engine::Reverse</text>
<text text-anchor="middle" x="456.5" y="-56.5" font-family="Helvetica,sans-Serif" font-size="10.00">RenderJob</text>
</a>
</g>
</g>
<!-- Node5&#45;&gt;Node7 -->
<g id="edge6" class="edge">
<title>Node5&#45;&gt;Node7</title>
<path fill="none" stroke="midnightblue" d="M333.97,-64.5C350.64,-64.5 368.13,-64.5 384.48,-64.5"/>
<polygon fill="midnightblue" stroke="midnightblue" points="333.72,-61 323.72,-64.5 333.72,-68 333.72,-61"/>
</g>
<!-- Node8 -->
<g id="node8" class="node">
<title>Node8</title>
<g id="a_node8"><a xlink:href="classtracktion__engine_1_1WarpTimeRenderJob.html" target="_top" xlink:title=" ">
<polygon fill="none" stroke="black" points="379.5,-0.5 379.5,-30.5 533.5,-30.5 533.5,-0.5 379.5,-0.5"/>
<text text-anchor="start" x="387.5" y="-18.5" font-family="Helvetica,sans-Serif" font-size="10.00">tracktion_engine::WarpTime</text>
<text text-anchor="middle" x="456.5" y="-7.5" font-family="Helvetica,sans-Serif" font-size="10.00">RenderJob</text>
</a>
</g>
</g>
<!-- Node5&#45;&gt;Node8 -->
<g id="edge7" class="edge">
<title>Node5&#45;&gt;Node8</title>
<path fill="none" stroke="midnightblue" d="M326.51,-47.02C348.61,-41.62 372.74,-35.72 394.1,-30.51"/>
<polygon fill="midnightblue" stroke="midnightblue" points="325.4,-43.69 316.52,-49.47 327.06,-50.49 325.4,-43.69"/>
</g>
</g>
</svg>
