<?xml version="1.0" encoding="UTF-8" standalone="no"?>
<!DOCTYPE svg PUBLIC "-//W3C//DTD SVG 1.1//EN"
 "http://www.w3.org/Graphics/SVG/1.1/DTD/svg11.dtd">
<!-- Generated by graphviz version 2.43.0 (0)
 -->
<!-- Title: tracktion::engine::SelectableListener Pages: 1 -->
<svg width="297pt" height="230pt"
 viewBox="0.00 0.00 297.00 230.00" xmlns="http://www.w3.org/2000/svg" xmlns:xlink="http://www.w3.org/1999/xlink">
<g id="graph0" class="graph" transform="scale(1 1) rotate(0) translate(4 226)">
<title>tracktion::engine::SelectableListener</title>
<!-- Node1 -->
<g id="Node000001" class="node">
<title>Node1</title>
<g id="a_Node000001"><a xlink:title=" ">
<polygon fill="#999999" stroke="#666666" points="107,-126 0,-126 0,-96 107,-96 107,-126"/>
<text text-anchor="start" x="8" y="-114" font-family="Helvetica,sans-Serif" font-size="10.00">tracktion::engine::</text>
<text text-anchor="middle" x="53.5" y="-103" font-family="Helvetica,sans-Serif" font-size="10.00">SelectableListener</text>
</a>
</g>
</g>
<!-- Node2 -->
<g id="Node000002" class="node">
<title>Node2</title>
<g id="a_Node000002"><a xlink:href="classtracktion_1_1engine_1_1CurveEditor.html" target="_top" xlink:title=" ">
<polygon fill="white" stroke="#666666" points="268.5,-222 163.5,-222 163.5,-192 268.5,-192 268.5,-222"/>
<text text-anchor="start" x="171.5" y="-210" font-family="Helvetica,sans-Serif" font-size="10.00">tracktion::engine::</text>
<text text-anchor="middle" x="216" y="-199" font-family="Helvetica,sans-Serif" font-size="10.00">CurveEditor</text>
</a>
</g>
</g>
<!-- Node1&#45;&gt;Node2 -->
<g id="edge1_Node000001_Node000002" class="edge">
<title>Node1&#45;&gt;Node2</title>
<g id="a_edge1_Node000001_Node000002"><a xlink:title=" ">
<path fill="none" stroke="#63b8ff" d="M77.24,-133.41C94.18,-149.09 118.53,-169.56 143,-183 149.35,-186.49 156.3,-189.59 163.29,-192.3"/>
<polygon fill="#63b8ff" stroke="#63b8ff" points="79.22,-130.47 69.54,-126.15 74.41,-135.56 79.22,-130.47"/>
</a>
</g>
</g>
<!-- Node3 -->
<g id="Node000003" class="node">
<title>Node3</title>
<g id="a_Node000003"><a xlink:href="classtracktion_1_1engine_1_1ExternalController.html" target="_top" xlink:title="Acts as a holder for a ControlSurface object.">
<polygon fill="white" stroke="#666666" points="268.5,-174 163.5,-174 163.5,-144 268.5,-144 268.5,-174"/>
<text text-anchor="start" x="171.5" y="-162" font-family="Helvetica,sans-Serif" font-size="10.00">tracktion::engine::</text>
<text text-anchor="middle" x="216" y="-151" font-family="Helvetica,sans-Serif" font-size="10.00">ExternalController</text>
</a>
</g>
</g>
<!-- Node1&#45;&gt;Node3 -->
<g id="edge2_Node000001_Node000003" class="edge">
<title>Node1&#45;&gt;Node3</title>
<g id="a_edge2_Node000001_Node000003"><a xlink:title=" ">
<path fill="none" stroke="#8b1a1a" d="M114.44,-128.93C131.04,-133.89 148.86,-139.22 164.84,-144"/>
<polygon fill="#8b1a1a" stroke="#8b1a1a" points="115.43,-125.57 104.84,-126.06 113.42,-132.27 115.43,-125.57"/>
</a>
</g>
</g>
<!-- Node4 -->
<g id="Node000004" class="node">
<title>Node4</title>
<g id="a_Node000004"><a xlink:href="classtracktion_1_1engine_1_1LambdaSelectableListener.html" target="_top" xlink:title="A SelectableListener that safely handles listener to a Selectable and uses a lambda for its callback.">
<polygon fill="white" stroke="#666666" points="289,-126 143,-126 143,-96 289,-96 289,-126"/>
<text text-anchor="start" x="151" y="-114" font-family="Helvetica,sans-Serif" font-size="10.00">tracktion::engine::</text>
<text text-anchor="middle" x="216" y="-103" font-family="Helvetica,sans-Serif" font-size="10.00">LambdaSelectableListener</text>
</a>
</g>
</g>
<!-- Node1&#45;&gt;Node4 -->
<g id="edge3_Node000001_Node000004" class="edge">
<title>Node1&#45;&gt;Node4</title>
<g id="a_edge3_Node000001_Node000004"><a xlink:title=" ">
<path fill="none" stroke="#63b8ff" d="M117.15,-111C125.56,-111 134.24,-111 142.8,-111"/>
<polygon fill="#63b8ff" stroke="#63b8ff" points="117.05,-107.5 107.05,-111 117.05,-114.5 117.05,-107.5"/>
</a>
</g>
</g>
<!-- Node5 -->
<g id="Node000005" class="node">
<title>Node5</title>
<g id="a_Node000005"><a xlink:href="classtracktion_1_1engine_1_1Selectable_1_1Listener.html" target="_top" xlink:title=" ">
<polygon fill="white" stroke="#666666" points="272.5,-78 159.5,-78 159.5,-48 272.5,-48 272.5,-78"/>
<text text-anchor="start" x="167.5" y="-66" font-family="Helvetica,sans-Serif" font-size="10.00">tracktion::engine::</text>
<text text-anchor="middle" x="216" y="-55" font-family="Helvetica,sans-Serif" font-size="10.00">Selectable::Listener</text>
</a>
</g>
</g>
<!-- Node1&#45;&gt;Node5 -->
<g id="edge4_Node000001_Node000005" class="edge">
<title>Node1&#45;&gt;Node5</title>
<g id="a_edge4_Node000001_Node000005"><a xlink:title=" ">
<path fill="none" stroke="#63b8ff" d="M114.44,-93.07C131.04,-88.11 148.86,-82.78 164.84,-78"/>
<polygon fill="#63b8ff" stroke="#63b8ff" points="113.42,-89.73 104.84,-95.94 115.43,-96.43 113.42,-89.73"/>
</a>
</g>
</g>
<!-- Node6 -->
<g id="Node000006" class="node">
<title>Node6</title>
<g id="a_Node000006"><a xlink:href="classtracktion_1_1engine_1_1SelectionManager.html" target="_top" xlink:title="Manages a list of items that are currently selected.">
<polygon fill="white" stroke="#666666" points="268.5,-30 163.5,-30 163.5,0 268.5,0 268.5,-30"/>
<text text-anchor="start" x="171.5" y="-18" font-family="Helvetica,sans-Serif" font-size="10.00">tracktion::engine::</text>
<text text-anchor="middle" x="216" y="-7" font-family="Helvetica,sans-Serif" font-size="10.00">SelectionManager</text>
</a>
</g>
</g>
<!-- Node1&#45;&gt;Node6 -->
<g id="edge5_Node000001_Node000006" class="edge">
<title>Node1&#45;&gt;Node6</title>
<g id="a_edge5_Node000001_Node000006"><a xlink:title=" ">
<path fill="none" stroke="#8b1a1a" d="M77.24,-88.59C94.18,-72.91 118.53,-52.44 143,-39 149.35,-35.51 156.3,-32.41 163.29,-29.7"/>
<polygon fill="#8b1a1a" stroke="#8b1a1a" points="74.41,-86.44 69.54,-95.85 79.22,-91.53 74.41,-86.44"/>
</a>
</g>
</g>
</g>
</svg>
