<?xml version="1.0" encoding="UTF-8" standalone="no"?>
<!DOCTYPE svg PUBLIC "-//W3C//DTD SVG 1.1//EN"
 "http://www.w3.org/Graphics/SVG/1.1/DTD/svg11.dtd">
<!-- Generated by graphviz version 2.43.0 (0)
 -->
<!-- Title: tracktion::engine::Track Pages: 1 -->
<svg width="536pt" height="254pt"
 viewBox="0.00 0.00 536.00 254.00" xmlns="http://www.w3.org/2000/svg" xmlns:xlink="http://www.w3.org/1999/xlink">
<g id="graph0" class="graph" transform="scale(1 1) rotate(0) translate(4 250)">
<title>tracktion::engine::Track</title>
<!-- Node1 -->
<g id="Node000001" class="node">
<title>Node1</title>
<g id="a_Node000001"><a xlink:title="Base class for tracks which contain clips and plugins and can be added to Edit[s].">
<polygon fill="#999999" stroke="#666666" points="246,-126 141,-126 141,-96 246,-96 246,-126"/>
<text text-anchor="start" x="149" y="-114" font-family="Helvetica,sans-Serif" font-size="10.00">tracktion::engine::</text>
<text text-anchor="middle" x="193.5" y="-103" font-family="Helvetica,sans-Serif" font-size="10.00">Track</text>
</a>
</g>
</g>
<!-- Node4 -->
<g id="Node000004" class="node">
<title>Node4</title>
<g id="a_Node000004"><a xlink:href="classtracktion_1_1engine_1_1AutomationTrack.html" target="_top" xlink:title=" ">
<polygon fill="white" stroke="#666666" points="387,-222 282,-222 282,-192 387,-192 387,-222"/>
<text text-anchor="start" x="290" y="-210" font-family="Helvetica,sans-Serif" font-size="10.00">tracktion::engine::</text>
<text text-anchor="middle" x="334.5" y="-199" font-family="Helvetica,sans-Serif" font-size="10.00">AutomationTrack</text>
</a>
</g>
</g>
<!-- Node1&#45;&gt;Node4 -->
<g id="edge3_Node000001_Node000004" class="edge">
<title>Node1&#45;&gt;Node4</title>
<g id="a_edge3_Node000001_Node000004"><a xlink:title=" ">
<path fill="none" stroke="#63b8ff" d="M218.05,-133.16C234.98,-148.38 258.83,-168.4 282,-183 287.01,-186.16 292.5,-189.15 297.97,-191.89"/>
<polygon fill="#63b8ff" stroke="#63b8ff" points="220.07,-130.27 210.32,-126.12 215.35,-135.44 220.07,-130.27"/>
</a>
</g>
</g>
<!-- Node5 -->
<g id="Node000005" class="node">
<title>Node5</title>
<g id="a_Node000005"><a xlink:href="classtracktion_1_1engine_1_1ClipTrack.html" target="_top" xlink:title=" ">
<polygon fill="white" stroke="#666666" points="387,-174 282,-174 282,-144 387,-144 387,-174"/>
<text text-anchor="start" x="290" y="-162" font-family="Helvetica,sans-Serif" font-size="10.00">tracktion::engine::</text>
<text text-anchor="middle" x="334.5" y="-151" font-family="Helvetica,sans-Serif" font-size="10.00">ClipTrack</text>
</a>
</g>
</g>
<!-- Node1&#45;&gt;Node5 -->
<g id="edge4_Node000001_Node000005" class="edge">
<title>Node1&#45;&gt;Node5</title>
<g id="a_edge4_Node000001_Node000005"><a xlink:title=" ">
<path fill="none" stroke="#63b8ff" d="M247.63,-129.35C261.65,-134.19 276.61,-139.36 290.06,-144"/>
<polygon fill="#63b8ff" stroke="#63b8ff" points="248.69,-126.01 238.1,-126.06 246.41,-132.63 248.69,-126.01"/>
</a>
</g>
</g>
<!-- Node10 -->
<g id="Node000010" class="node">
<title>Node10</title>
<g id="a_Node000010"><a xlink:href="classtracktion_1_1engine_1_1FolderTrack.html" target="_top" xlink:title=" ">
<polygon fill="white" stroke="#666666" points="387,-126 282,-126 282,-96 387,-96 387,-126"/>
<text text-anchor="start" x="290" y="-114" font-family="Helvetica,sans-Serif" font-size="10.00">tracktion::engine::</text>
<text text-anchor="middle" x="334.5" y="-103" font-family="Helvetica,sans-Serif" font-size="10.00">FolderTrack</text>
</a>
</g>
</g>
<!-- Node1&#45;&gt;Node10 -->
<g id="edge9_Node000001_Node000010" class="edge">
<title>Node1&#45;&gt;Node10</title>
<g id="a_edge9_Node000001_Node000010"><a xlink:title=" ">
<path fill="none" stroke="#63b8ff" d="M256.44,-111C264.88,-111 273.47,-111 281.7,-111"/>
<polygon fill="#63b8ff" stroke="#63b8ff" points="256.26,-107.5 246.26,-111 256.26,-114.5 256.26,-107.5"/>
</a>
</g>
</g>
<!-- Node11 -->
<g id="Node000011" class="node">
<title>Node11</title>
<g id="a_Node000011"><a xlink:href="classtracktion_1_1engine_1_1MasterTrack.html" target="_top" xlink:title="A track to represent the master plugins.">
<polygon fill="white" stroke="#666666" points="387,-78 282,-78 282,-48 387,-48 387,-78"/>
<text text-anchor="start" x="290" y="-66" font-family="Helvetica,sans-Serif" font-size="10.00">tracktion::engine::</text>
<text text-anchor="middle" x="334.5" y="-55" font-family="Helvetica,sans-Serif" font-size="10.00">MasterTrack</text>
</a>
</g>
</g>
<!-- Node1&#45;&gt;Node11 -->
<g id="edge10_Node000001_Node000011" class="edge">
<title>Node1&#45;&gt;Node11</title>
<g id="a_edge10_Node000001_Node000011"><a xlink:title=" ">
<path fill="none" stroke="#63b8ff" d="M247.63,-92.65C261.65,-87.81 276.61,-82.64 290.06,-78"/>
<polygon fill="#63b8ff" stroke="#63b8ff" points="246.41,-89.37 238.1,-95.94 248.69,-95.99 246.41,-89.37"/>
</a>
</g>
</g>
<!-- Node12 -->
<g id="Node000012" class="node">
<title>Node12</title>
<g id="a_Node000012"><a xlink:href="classtracktion_1_1engine_1_1TempoTrack.html" target="_top" xlink:title="A track to represent the &quot;global&quot; items such as tempo, key changes etc.">
<polygon fill="white" stroke="#666666" points="387,-30 282,-30 282,0 387,0 387,-30"/>
<text text-anchor="start" x="290" y="-18" font-family="Helvetica,sans-Serif" font-size="10.00">tracktion::engine::</text>
<text text-anchor="middle" x="334.5" y="-7" font-family="Helvetica,sans-Serif" font-size="10.00">TempoTrack</text>
</a>
</g>
</g>
<!-- Node1&#45;&gt;Node12 -->
<g id="edge11_Node000001_Node000012" class="edge">
<title>Node1&#45;&gt;Node12</title>
<g id="a_edge11_Node000001_Node000012"><a xlink:title=" ">
<path fill="none" stroke="#63b8ff" d="M218.05,-88.84C234.98,-73.62 258.83,-53.6 282,-39 287.01,-35.84 292.5,-32.85 297.97,-30.11"/>
<polygon fill="#63b8ff" stroke="#63b8ff" points="215.35,-86.56 210.32,-95.88 220.07,-91.73 215.35,-86.56"/>
</a>
</g>
</g>
<!-- Node2 -->
<g id="Node000002" class="node">
<title>Node2</title>
<g id="a_Node000002"><a xlink:href="classtracktion_1_1engine_1_1EditItem.html" target="_top" xlink:title="Base class for objects that live inside an edit &#45; e.g.">
<polygon fill="white" stroke="#666666" points="105,-150 0,-150 0,-120 105,-120 105,-150"/>
<text text-anchor="start" x="8" y="-138" font-family="Helvetica,sans-Serif" font-size="10.00">tracktion::engine::</text>
<text text-anchor="middle" x="52.5" y="-127" font-family="Helvetica,sans-Serif" font-size="10.00">EditItem</text>
</a>
</g>
</g>
<!-- Node2&#45;&gt;Node1 -->
<g id="edge1_Node000001_Node000002" class="edge">
<title>Node2&#45;&gt;Node1</title>
<g id="a_edge1_Node000001_Node000002"><a xlink:title=" ">
<path fill="none" stroke="#63b8ff" d="M115.16,-124.35C123.69,-122.88 132.38,-121.38 140.7,-119.94"/>
<polygon fill="#63b8ff" stroke="#63b8ff" points="114.52,-120.91 105.26,-126.06 115.71,-127.81 114.52,-120.91"/>
</a>
</g>
</g>
<!-- Node3 -->
<g id="Node000003" class="node">
<title>Node3</title>
<g id="a_Node000003"><a xlink:href="classtracktion_1_1engine_1_1Selectable.html" target="_top" xlink:title="Base class for things that can be selected, and whose properties can appear in the properties panel.">
<polygon fill="white" stroke="#666666" points="105,-102 0,-102 0,-72 105,-72 105,-102"/>
<text text-anchor="start" x="8" y="-90" font-family="Helvetica,sans-Serif" font-size="10.00">tracktion::engine::</text>
<text text-anchor="middle" x="52.5" y="-79" font-family="Helvetica,sans-Serif" font-size="10.00">Selectable</text>
</a>
</g>
</g>
<!-- Node3&#45;&gt;Node1 -->
<g id="edge2_Node000001_Node000003" class="edge">
<title>Node3&#45;&gt;Node1</title>
<g id="a_edge2_Node000001_Node000003"><a xlink:title=" ">
<path fill="none" stroke="#63b8ff" d="M115.16,-97.65C123.69,-99.12 132.38,-100.62 140.7,-102.06"/>
<polygon fill="#63b8ff" stroke="#63b8ff" points="115.71,-94.19 105.26,-95.94 114.52,-101.09 115.71,-94.19"/>
</a>
</g>
</g>
<!-- Node6 -->
<g id="Node000006" class="node">
<title>Node6</title>
<g id="a_Node000006"><a xlink:href="classtracktion_1_1engine_1_1ArrangerTrack.html" target="_top" xlink:title="A track similar to the MarkerTrack but can be used to move sections of an Edit around.">
<polygon fill="white" stroke="#666666" points="528,-246 423,-246 423,-216 528,-216 528,-246"/>
<text text-anchor="start" x="431" y="-234" font-family="Helvetica,sans-Serif" font-size="10.00">tracktion::engine::</text>
<text text-anchor="middle" x="475.5" y="-223" font-family="Helvetica,sans-Serif" font-size="10.00">ArrangerTrack</text>
</a>
</g>
</g>
<!-- Node5&#45;&gt;Node6 -->
<g id="edge5_Node000005_Node000006" class="edge">
<title>Node5&#45;&gt;Node6</title>
<g id="a_edge5_Node000005_Node000006"><a xlink:title=" ">
<path fill="none" stroke="#63b8ff" d="M378.74,-178.56C381.56,-180.01 384.33,-181.5 387,-183 403.76,-192.42 406.24,-197.58 423,-207 428.5,-210.09 434.47,-213.14 440.33,-215.97"/>
<polygon fill="#63b8ff" stroke="#63b8ff" points="380.18,-175.36 369.67,-174.03 377.05,-181.63 380.18,-175.36"/>
</a>
</g>
</g>
<!-- Node7 -->
<g id="Node000007" class="node">
<title>Node7</title>
<g id="a_Node000007"><a xlink:href="classtracktion_1_1engine_1_1AudioTrack.html" target="_top" xlink:title=" ">
<polygon fill="white" stroke="#666666" points="528,-198 423,-198 423,-168 528,-168 528,-198"/>
<text text-anchor="start" x="431" y="-186" font-family="Helvetica,sans-Serif" font-size="10.00">tracktion::engine::</text>
<text text-anchor="middle" x="475.5" y="-175" font-family="Helvetica,sans-Serif" font-size="10.00">AudioTrack</text>
</a>
</g>
</g>
<!-- Node5&#45;&gt;Node7 -->
<g id="edge6_Node000005_Node000007" class="edge">
<title>Node5&#45;&gt;Node7</title>
<g id="a_edge6_Node000005_Node000007"><a xlink:title=" ">
<path fill="none" stroke="#63b8ff" d="M397.16,-169.65C405.69,-171.12 414.38,-172.62 422.7,-174.06"/>
<polygon fill="#63b8ff" stroke="#63b8ff" points="397.71,-166.19 387.26,-167.94 396.52,-173.09 397.71,-166.19"/>
</a>
</g>
</g>
<!-- Node8 -->
<g id="Node000008" class="node">
<title>Node8</title>
<g id="a_Node000008"><a xlink:href="classtracktion_1_1engine_1_1ChordTrack.html" target="_top" xlink:title=" ">
<polygon fill="white" stroke="#666666" points="528,-150 423,-150 423,-120 528,-120 528,-150"/>
<text text-anchor="start" x="431" y="-138" font-family="Helvetica,sans-Serif" font-size="10.00">tracktion::engine::</text>
<text text-anchor="middle" x="475.5" y="-127" font-family="Helvetica,sans-Serif" font-size="10.00">ChordTrack</text>
</a>
</g>
</g>
<!-- Node5&#45;&gt;Node8 -->
<g id="edge7_Node000005_Node000008" class="edge">
<title>Node5&#45;&gt;Node8</title>
<g id="a_edge7_Node000005_Node000008"><a xlink:title=" ">
<path fill="none" stroke="#63b8ff" d="M397.16,-148.35C405.69,-146.88 414.38,-145.38 422.7,-143.94"/>
<polygon fill="#63b8ff" stroke="#63b8ff" points="396.52,-144.91 387.26,-150.06 397.71,-151.81 396.52,-144.91"/>
</a>
</g>
</g>
<!-- Node9 -->
<g id="Node000009" class="node">
<title>Node9</title>
<g id="a_Node000009"><a xlink:href="classtracktion_1_1engine_1_1MarkerTrack.html" target="_top" xlink:title=" ">
<polygon fill="white" stroke="#666666" points="528,-102 423,-102 423,-72 528,-72 528,-102"/>
<text text-anchor="start" x="431" y="-90" font-family="Helvetica,sans-Serif" font-size="10.00">tracktion::engine::</text>
<text text-anchor="middle" x="475.5" y="-79" font-family="Helvetica,sans-Serif" font-size="10.00">MarkerTrack</text>
</a>
</g>
</g>
<!-- Node5&#45;&gt;Node9 -->
<g id="edge8_Node000005_Node000009" class="edge">
<title>Node5&#45;&gt;Node9</title>
<g id="a_edge8_Node000005_Node000009"><a xlink:title=" ">
<path fill="none" stroke="#63b8ff" d="M378.74,-139.44C381.56,-137.99 384.33,-136.5 387,-135 403.76,-125.58 406.24,-120.42 423,-111 428.5,-107.91 434.47,-104.86 440.33,-102.03"/>
<polygon fill="#63b8ff" stroke="#63b8ff" points="377.05,-136.37 369.67,-143.97 380.18,-142.64 377.05,-136.37"/>
</a>
</g>
</g>
</g>
</svg>
