<?xml version="1.0" encoding="UTF-8" standalone="no"?>
<!DOCTYPE svg PUBLIC "-//W3C//DTD SVG 1.1//EN"
 "http://www.w3.org/Graphics/SVG/1.1/DTD/svg11.dtd">
<!-- Generated by graphviz version 2.43.0 (0)
 -->
<!-- Title: tracktion_engine::MacroParameterElement Pages: 1 -->
<svg width="786pt" height="1400pt"
 viewBox="0.00 0.00 786.00 1399.50" xmlns="http://www.w3.org/2000/svg" xmlns:xlink="http://www.w3.org/1999/xlink">
<g id="graph0" class="graph" transform="scale(1 1) rotate(0) translate(4 1395.5)">
<title>tracktion_engine::MacroParameterElement</title>
<!-- Node1 -->
<g id="node1" class="node">
<title>Node1</title>
<g id="a_node1"><a xlink:title="Base class for elements which can contain macro parameters.">
<polygon fill="#bfbfbf" stroke="black" points="0,-715 0,-745 185,-745 185,-715 0,-715"/>
<text text-anchor="start" x="8" y="-733" font-family="Helvetica,sans-Serif" font-size="10.00">tracktion_engine::MacroParameter</text>
<text text-anchor="middle" x="92.5" y="-722" font-family="Helvetica,sans-Serif" font-size="10.00">Element</text>
</a>
</g>
</g>
<!-- Node2 -->
<g id="node2" class="node">
<title>Node2</title>
<g id="a_node2"><a xlink:href="structtracktion__engine_1_1Edit_1_1GlobalMacros.html" target="_top" xlink:title="Holds the global Macros for the Edit.">
<polygon fill="none" stroke="black" points="235,-778 235,-808 358,-808 358,-778 235,-778"/>
<text text-anchor="start" x="243" y="-796" font-family="Helvetica,sans-Serif" font-size="10.00">tracktion_engine::Edit</text>
<text text-anchor="middle" x="296.5" y="-785" font-family="Helvetica,sans-Serif" font-size="10.00">::GlobalMacros</text>
</a>
</g>
</g>
<!-- Node1&#45;&gt;Node2 -->
<g id="edge1" class="edge">
<title>Node1&#45;&gt;Node2</title>
<path fill="none" stroke="midnightblue" d="M151.26,-748.01C181.68,-757.5 218.54,-769 247.39,-778"/>
<polygon fill="midnightblue" stroke="midnightblue" points="152.22,-744.65 141.63,-745.01 150.13,-751.33 152.22,-744.65"/>
</g>
<!-- Node3 -->
<g id="node3" class="node">
<title>Node3</title>
<g id="a_node3"><a xlink:href="classtracktion__engine_1_1Plugin.html" target="_top" xlink:title=" ">
<polygon fill="none" stroke="black" points="229.5,-739.5 229.5,-758.5 363.5,-758.5 363.5,-739.5 229.5,-739.5"/>
<text text-anchor="middle" x="296.5" y="-746.5" font-family="Helvetica,sans-Serif" font-size="10.00">tracktion_engine::Plugin</text>
</a>
</g>
</g>
<!-- Node1&#45;&gt;Node3 -->
<g id="edge2" class="edge">
<title>Node1&#45;&gt;Node3</title>
<path fill="none" stroke="midnightblue" d="M195.22,-739.57C206.81,-740.66 218.39,-741.75 229.34,-742.78"/>
<polygon fill="midnightblue" stroke="midnightblue" points="195.33,-736.06 185.04,-738.61 194.67,-743.03 195.33,-736.06"/>
</g>
<!-- Node30 -->
<g id="node30" class="node">
<title>Node30</title>
<g id="a_node30"><a xlink:href="classtracktion__engine_1_1RackType.html" target="_top" xlink:title=" ">
<polygon fill="none" stroke="black" points="221,-701.5 221,-720.5 372,-720.5 372,-701.5 221,-701.5"/>
<text text-anchor="middle" x="296.5" y="-708.5" font-family="Helvetica,sans-Serif" font-size="10.00">tracktion_engine::RackType</text>
</a>
</g>
</g>
<!-- Node1&#45;&gt;Node30 -->
<g id="edge29" class="edge">
<title>Node1&#45;&gt;Node30</title>
<path fill="none" stroke="midnightblue" d="M195.2,-720.43C203.86,-719.62 212.52,-718.81 220.91,-718.02"/>
<polygon fill="midnightblue" stroke="midnightblue" points="194.67,-716.97 185.04,-721.39 195.33,-723.94 194.67,-716.97"/>
</g>
<!-- Node31 -->
<g id="node31" class="node">
<title>Node31</title>
<g id="a_node31"><a xlink:href="classtracktion__engine_1_1Track.html" target="_top" xlink:title="Base class for tracks which contain clips and plugins and can be added to Edit[s].">
<polygon fill="none" stroke="black" points="231.5,-88.5 231.5,-107.5 361.5,-107.5 361.5,-88.5 231.5,-88.5"/>
<text text-anchor="middle" x="296.5" y="-95.5" font-family="Helvetica,sans-Serif" font-size="10.00">tracktion_engine::Track</text>
</a>
</g>
</g>
<!-- Node1&#45;&gt;Node31 -->
<g id="edge30" class="edge">
<title>Node1&#45;&gt;Node31</title>
<path fill="none" stroke="midnightblue" d="M101.49,-705.01C135.86,-597.46 270.47,-176.3 292.46,-107.52"/>
<polygon fill="midnightblue" stroke="midnightblue" points="98.1,-704.1 98.39,-714.69 104.77,-706.23 98.1,-704.1"/>
</g>
<!-- Node4 -->
<g id="node4" class="node">
<title>Node4</title>
<g id="a_node4"><a xlink:href="classtracktion__engine_1_1AirWindowsPlugin.html" target="_top" xlink:title=" ">
<polygon fill="none" stroke="black" points="415,-1361 415,-1391 577,-1391 577,-1361 415,-1361"/>
<text text-anchor="start" x="423" y="-1379" font-family="Helvetica,sans-Serif" font-size="10.00">tracktion_engine::AirWindows</text>
<text text-anchor="middle" x="496" y="-1368" font-family="Helvetica,sans-Serif" font-size="10.00">Plugin</text>
</a>
</g>
</g>
<!-- Node3&#45;&gt;Node4 -->
<g id="edge3" class="edge">
<title>Node3&#45;&gt;Node4</title>
<path fill="none" stroke="midnightblue" d="M367.77,-764.57C369.28,-765.93 370.7,-767.41 372,-769 454.13,-869.51 326.21,-1251.2 408,-1352 410.76,-1355.41 413.96,-1358.36 417.47,-1360.91"/>
<polygon fill="midnightblue" stroke="midnightblue" points="369.69,-761.63 359.53,-758.63 365.6,-767.31 369.69,-761.63"/>
</g>
<!-- Node5 -->
<g id="node5" class="node">
<title>Node5</title>
<g id="a_node5"><a xlink:href="classtracktion__engine_1_1AuxReturnPlugin.html" target="_top" xlink:title=" ">
<polygon fill="none" stroke="black" points="418.5,-1312 418.5,-1342 573.5,-1342 573.5,-1312 418.5,-1312"/>
<text text-anchor="start" x="426.5" y="-1330" font-family="Helvetica,sans-Serif" font-size="10.00">tracktion_engine::AuxReturn</text>
<text text-anchor="middle" x="496" y="-1319" font-family="Helvetica,sans-Serif" font-size="10.00">Plugin</text>
</a>
</g>
</g>
<!-- Node3&#45;&gt;Node5 -->
<g id="edge4" class="edge">
<title>Node3&#45;&gt;Node5</title>
<path fill="none" stroke="midnightblue" d="M367.76,-764.58C369.27,-765.94 370.69,-767.41 372,-769 447.52,-860.89 332.8,-1210.85 408,-1303 410.97,-1306.64 414.44,-1309.76 418.25,-1312.43"/>
<polygon fill="midnightblue" stroke="midnightblue" points="369.67,-761.64 359.5,-758.65 365.59,-767.32 369.67,-761.64"/>
</g>
<!-- Node6 -->
<g id="node6" class="node">
<title>Node6</title>
<g id="a_node6"><a xlink:href="classtracktion__engine_1_1AuxSendPlugin.html" target="_top" xlink:title=" ">
<polygon fill="none" stroke="black" points="422.5,-1263 422.5,-1293 569.5,-1293 569.5,-1263 422.5,-1263"/>
<text text-anchor="start" x="430.5" y="-1281" font-family="Helvetica,sans-Serif" font-size="10.00">tracktion_engine::AuxSend</text>
<text text-anchor="middle" x="496" y="-1270" font-family="Helvetica,sans-Serif" font-size="10.00">Plugin</text>
</a>
</g>
</g>
<!-- Node3&#45;&gt;Node6 -->
<g id="edge5" class="edge">
<title>Node3&#45;&gt;Node6</title>
<path fill="none" stroke="midnightblue" d="M367.75,-764.59C369.26,-765.95 370.69,-767.41 372,-769 440.9,-852.26 339.39,-1170.5 408,-1254 411.98,-1258.84 416.84,-1262.76 422.21,-1265.92"/>
<polygon fill="midnightblue" stroke="midnightblue" points="369.64,-761.64 359.47,-758.67 365.57,-767.34 369.64,-761.64"/>
</g>
<!-- Node7 -->
<g id="node7" class="node">
<title>Node7</title>
<g id="a_node7"><a xlink:href="classtracktion__engine_1_1ChorusPlugin.html" target="_top" xlink:title=" ">
<polygon fill="none" stroke="black" points="427,-1214 427,-1244 565,-1244 565,-1214 427,-1214"/>
<text text-anchor="start" x="435" y="-1232" font-family="Helvetica,sans-Serif" font-size="10.00">tracktion_engine::Chorus</text>
<text text-anchor="middle" x="496" y="-1221" font-family="Helvetica,sans-Serif" font-size="10.00">Plugin</text>
</a>
</g>
</g>
<!-- Node3&#45;&gt;Node7 -->
<g id="edge6" class="edge">
<title>Node3&#45;&gt;Node7</title>
<path fill="none" stroke="midnightblue" d="M367.62,-764.5C369.18,-765.88 370.65,-767.38 372,-769 434.29,-843.64 345.97,-1130.14 408,-1205 413.1,-1211.15 419.62,-1215.81 426.79,-1219.31"/>
<polygon fill="midnightblue" stroke="midnightblue" points="369.28,-761.39 359.09,-758.51 365.26,-767.12 369.28,-761.39"/>
</g>
<!-- Node8 -->
<g id="node8" class="node">
<title>Node8</title>
<g id="a_node8"><a xlink:href="classtracktion__engine_1_1CompressorPlugin.html" target="_top" xlink:title=" ">
<polygon fill="none" stroke="black" points="414.5,-1165 414.5,-1195 577.5,-1195 577.5,-1165 414.5,-1165"/>
<text text-anchor="start" x="422.5" y="-1183" font-family="Helvetica,sans-Serif" font-size="10.00">tracktion_engine::Compressor</text>
<text text-anchor="middle" x="496" y="-1172" font-family="Helvetica,sans-Serif" font-size="10.00">Plugin</text>
</a>
</g>
</g>
<!-- Node3&#45;&gt;Node8 -->
<g id="edge7" class="edge">
<title>Node3&#45;&gt;Node8</title>
<path fill="none" stroke="midnightblue" d="M367.6,-764.52C369.17,-765.9 370.64,-767.39 372,-769 427.55,-834.85 353.03,-1088.67 408,-1155 411.21,-1158.87 414.97,-1162.17 419.11,-1164.97"/>
<polygon fill="midnightblue" stroke="midnightblue" points="369.24,-761.4 359.04,-758.55 365.23,-767.14 369.24,-761.4"/>
</g>
<!-- Node9 -->
<g id="node9" class="node">
<title>Node9</title>
<g id="a_node9"><a xlink:href="classtracktion__engine_1_1DelayPlugin.html" target="_top" xlink:title=" ">
<polygon fill="none" stroke="black" points="414.5,-1126.5 414.5,-1145.5 577.5,-1145.5 577.5,-1126.5 414.5,-1126.5"/>
<text text-anchor="middle" x="496" y="-1133.5" font-family="Helvetica,sans-Serif" font-size="10.00">tracktion_engine::DelayPlugin</text>
</a>
</g>
</g>
<!-- Node3&#45;&gt;Node9 -->
<g id="edge8" class="edge">
<title>Node3&#45;&gt;Node9</title>
<path fill="none" stroke="midnightblue" d="M367.57,-764.54C369.15,-765.91 370.63,-767.39 372,-769 472.86,-887.34 304.37,-1001.07 408,-1117 411.3,-1120.69 415.13,-1123.75 419.31,-1126.29"/>
<polygon fill="midnightblue" stroke="midnightblue" points="369.21,-761.41 358.99,-758.59 365.21,-767.16 369.21,-761.41"/>
</g>
<!-- Node10 -->
<g id="node10" class="node">
<title>Node10</title>
<g id="a_node10"><a xlink:href="classtracktion__engine_1_1EqualiserPlugin.html" target="_top" xlink:title=" ">
<polygon fill="none" stroke="black" points="421.5,-1077 421.5,-1107 570.5,-1107 570.5,-1077 421.5,-1077"/>
<text text-anchor="start" x="429.5" y="-1095" font-family="Helvetica,sans-Serif" font-size="10.00">tracktion_engine::Equaliser</text>
<text text-anchor="middle" x="496" y="-1084" font-family="Helvetica,sans-Serif" font-size="10.00">Plugin</text>
</a>
</g>
</g>
<!-- Node3&#45;&gt;Node10 -->
<g id="edge9" class="edge">
<title>Node3&#45;&gt;Node10</title>
<path fill="none" stroke="midnightblue" d="M367.54,-764.57C369.12,-765.93 370.62,-767.41 372,-769 459.67,-870.14 320.68,-966.56 408,-1068 411.78,-1072.39 416.29,-1076.02 421.23,-1079.01"/>
<polygon fill="midnightblue" stroke="midnightblue" points="369.14,-761.43 358.92,-758.65 365.18,-767.2 369.14,-761.43"/>
</g>
<!-- Node11 -->
<g id="node11" class="node">
<title>Node11</title>
<g id="a_node11"><a xlink:href="classtracktion__engine_1_1ExternalPlugin.html" target="_top" xlink:title=" ">
<polygon fill="none" stroke="black" points="423.5,-1028 423.5,-1058 568.5,-1058 568.5,-1028 423.5,-1028"/>
<text text-anchor="start" x="431.5" y="-1046" font-family="Helvetica,sans-Serif" font-size="10.00">tracktion_engine::External</text>
<text text-anchor="middle" x="496" y="-1035" font-family="Helvetica,sans-Serif" font-size="10.00">Plugin</text>
</a>
</g>
</g>
<!-- Node3&#45;&gt;Node11 -->
<g id="edge10" class="edge">
<title>Node3&#45;&gt;Node11</title>
<path fill="none" stroke="midnightblue" d="M366.96,-764.18C368.76,-765.65 370.45,-767.25 372,-769 446.51,-852.97 333.78,-934.78 408,-1019 412.35,-1023.94 417.62,-1027.9 423.38,-1031.08"/>
<polygon fill="midnightblue" stroke="midnightblue" points="368.73,-761.15 358.46,-758.55 364.87,-766.99 368.73,-761.15"/>
</g>
<!-- Node12 -->
<g id="node12" class="node">
<title>Node12</title>
<g id="a_node12"><a xlink:href="classtracktion__engine_1_1FourOscPlugin.html" target="_top" xlink:title=" ">
<polygon fill="none" stroke="black" points="424.5,-979 424.5,-1009 567.5,-1009 567.5,-979 424.5,-979"/>
<text text-anchor="start" x="432.5" y="-997" font-family="Helvetica,sans-Serif" font-size="10.00">tracktion_engine::FourOsc</text>
<text text-anchor="middle" x="496" y="-986" font-family="Helvetica,sans-Serif" font-size="10.00">Plugin</text>
</a>
</g>
</g>
<!-- Node3&#45;&gt;Node12 -->
<g id="edge11" class="edge">
<title>Node3&#45;&gt;Node12</title>
<path fill="none" stroke="midnightblue" d="M366.76,-764.14C368.62,-765.62 370.38,-767.24 372,-769 433.39,-835.84 346.84,-902.95 408,-970 412.65,-975.09 418.26,-979.15 424.38,-982.36"/>
<polygon fill="midnightblue" stroke="midnightblue" points="368.26,-760.95 357.95,-758.5 364.48,-766.84 368.26,-760.95"/>
</g>
<!-- Node13 -->
<g id="node13" class="node">
<title>Node13</title>
<g id="a_node13"><a xlink:href="classtracktion__engine_1_1FreezePointPlugin.html" target="_top" xlink:title=" ">
<polygon fill="none" stroke="black" points="427.5,-930 427.5,-960 564.5,-960 564.5,-930 427.5,-930"/>
<text text-anchor="start" x="435.5" y="-948" font-family="Helvetica,sans-Serif" font-size="10.00">tracktion_engine::Freeze</text>
<text text-anchor="middle" x="496" y="-937" font-family="Helvetica,sans-Serif" font-size="10.00">PointPlugin</text>
</a>
</g>
</g>
<!-- Node3&#45;&gt;Node13 -->
<g id="edge12" class="edge">
<title>Node3&#45;&gt;Node13</title>
<path fill="none" stroke="midnightblue" d="M366.05,-763.83C368.17,-765.39 370.16,-767.11 372,-769 420.36,-818.81 359.82,-871.02 408,-921 413.44,-926.64 420.07,-930.99 427.22,-934.35"/>
<polygon fill="midnightblue" stroke="midnightblue" points="367.71,-760.74 357.35,-758.55 364.09,-766.73 367.71,-760.74"/>
</g>
<!-- Node14 -->
<g id="node14" class="node">
<title>Node14</title>
<g id="a_node14"><a xlink:href="classtracktion__engine_1_1InsertPlugin.html" target="_top" xlink:title=" ">
<polygon fill="none" stroke="black" points="430,-881 430,-911 562,-911 562,-881 430,-881"/>
<text text-anchor="start" x="438" y="-899" font-family="Helvetica,sans-Serif" font-size="10.00">tracktion_engine::Insert</text>
<text text-anchor="middle" x="496" y="-888" font-family="Helvetica,sans-Serif" font-size="10.00">Plugin</text>
</a>
</g>
</g>
<!-- Node3&#45;&gt;Node14 -->
<g id="edge13" class="edge">
<title>Node3&#45;&gt;Node14</title>
<path fill="none" stroke="midnightblue" d="M365.02,-763.55C367.5,-765.18 369.84,-766.99 372,-769 407.53,-802 372.58,-838.88 408,-872 414.29,-877.89 421.9,-882.35 429.96,-885.73"/>
<polygon fill="midnightblue" stroke="midnightblue" points="366.61,-760.43 356.17,-758.66 363.23,-766.56 366.61,-760.43"/>
</g>
<!-- Node15 -->
<g id="node15" class="node">
<title>Node15</title>
<g id="a_node15"><a xlink:href="classtracktion__engine_1_1LatencyPlugin.html" target="_top" xlink:title="A test plugin that introduces latency to the incomming signal.">
<polygon fill="none" stroke="black" points="424.5,-832 424.5,-862 567.5,-862 567.5,-832 424.5,-832"/>
<text text-anchor="start" x="432.5" y="-850" font-family="Helvetica,sans-Serif" font-size="10.00">tracktion_engine::Latency</text>
<text text-anchor="middle" x="496" y="-839" font-family="Helvetica,sans-Serif" font-size="10.00">Plugin</text>
</a>
</g>
</g>
<!-- Node3&#45;&gt;Node15 -->
<g id="edge14" class="edge">
<title>Node3&#45;&gt;Node15</title>
<path fill="none" stroke="midnightblue" d="M360.99,-762.49C364.86,-764.38 368.57,-766.54 372,-769 395.43,-785.82 384.62,-806.1 408,-823 412.95,-826.58 418.41,-829.63 424.12,-832.22"/>
<polygon fill="midnightblue" stroke="midnightblue" points="362.28,-759.24 351.71,-758.54 359.54,-765.68 362.28,-759.24"/>
</g>
<!-- Node16 -->
<g id="node16" class="node">
<title>Node16</title>
<g id="a_node16"><a xlink:href="classtracktion__engine_1_1LevelMeterPlugin.html" target="_top" xlink:title=" ">
<polygon fill="none" stroke="black" points="416.5,-783 416.5,-813 575.5,-813 575.5,-783 416.5,-783"/>
<text text-anchor="start" x="424.5" y="-801" font-family="Helvetica,sans-Serif" font-size="10.00">tracktion_engine::LevelMeter</text>
<text text-anchor="middle" x="496" y="-790" font-family="Helvetica,sans-Serif" font-size="10.00">Plugin</text>
</a>
</g>
</g>
<!-- Node3&#45;&gt;Node16 -->
<g id="edge15" class="edge">
<title>Node3&#45;&gt;Node16</title>
<path fill="none" stroke="midnightblue" d="M345.92,-761.01C372.61,-767.64 405.99,-775.92 434.39,-782.96"/>
<polygon fill="midnightblue" stroke="midnightblue" points="346.6,-757.58 336.05,-758.56 344.91,-764.37 346.6,-757.58"/>
</g>
<!-- Node17 -->
<g id="node17" class="node">
<title>Node17</title>
<g id="a_node17"><a xlink:href="classtracktion__engine_1_1LowPassPlugin.html" target="_top" xlink:title=" ">
<polygon fill="none" stroke="black" points="423,-734 423,-764 569,-764 569,-734 423,-734"/>
<text text-anchor="start" x="431" y="-752" font-family="Helvetica,sans-Serif" font-size="10.00">tracktion_engine::LowPass</text>
<text text-anchor="middle" x="496" y="-741" font-family="Helvetica,sans-Serif" font-size="10.00">Plugin</text>
</a>
</g>
</g>
<!-- Node3&#45;&gt;Node17 -->
<g id="edge16" class="edge">
<title>Node3&#45;&gt;Node17</title>
<path fill="none" stroke="midnightblue" d="M373.97,-749C390.06,-749 406.99,-749 422.91,-749"/>
<polygon fill="midnightblue" stroke="midnightblue" points="373.54,-745.5 363.54,-749 373.54,-752.5 373.54,-745.5"/>
</g>
<!-- Node18 -->
<g id="node18" class="node">
<title>Node18</title>
<g id="a_node18"><a xlink:href="classtracktion__engine_1_1MidiModifierPlugin.html" target="_top" xlink:title=" ">
<polygon fill="none" stroke="black" points="413.5,-685 413.5,-715 578.5,-715 578.5,-685 413.5,-685"/>
<text text-anchor="start" x="421.5" y="-703" font-family="Helvetica,sans-Serif" font-size="10.00">tracktion_engine::MidiModifier</text>
<text text-anchor="middle" x="496" y="-692" font-family="Helvetica,sans-Serif" font-size="10.00">Plugin</text>
</a>
</g>
</g>
<!-- Node3&#45;&gt;Node18 -->
<g id="edge17" class="edge">
<title>Node3&#45;&gt;Node18</title>
<path fill="none" stroke="midnightblue" d="M345.92,-736.99C372.61,-730.36 405.99,-722.08 434.39,-715.04"/>
<polygon fill="midnightblue" stroke="midnightblue" points="344.91,-733.63 336.05,-739.44 346.6,-740.42 344.91,-733.63"/>
</g>
<!-- Node19 -->
<g id="node19" class="node">
<title>Node19</title>
<g id="a_node19"><a xlink:href="classtracktion__engine_1_1MidiPatchBayPlugin.html" target="_top" xlink:title=" ">
<polygon fill="none" stroke="black" points="420,-636 420,-666 572,-666 572,-636 420,-636"/>
<text text-anchor="start" x="428" y="-654" font-family="Helvetica,sans-Serif" font-size="10.00">tracktion_engine::MidiPatch</text>
<text text-anchor="middle" x="496" y="-643" font-family="Helvetica,sans-Serif" font-size="10.00">BayPlugin</text>
</a>
</g>
</g>
<!-- Node3&#45;&gt;Node19 -->
<g id="edge18" class="edge">
<title>Node3&#45;&gt;Node19</title>
<path fill="none" stroke="midnightblue" d="M363.36,-735.22C366.38,-733.66 369.28,-731.93 372,-730 395.54,-713.33 384.72,-693.02 408,-676 413.33,-672.1 419.25,-668.81 425.43,-666.04"/>
<polygon fill="midnightblue" stroke="midnightblue" points="361.72,-732.12 354,-739.38 364.56,-738.51 361.72,-732.12"/>
</g>
<!-- Node20 -->
<g id="node20" class="node">
<title>Node20</title>
<g id="a_node20"><a xlink:href="classtracktion__engine_1_1PatchBayPlugin.html" target="_top" xlink:title=" ">
<polygon fill="none" stroke="black" points="421.5,-587 421.5,-617 570.5,-617 570.5,-587 421.5,-587"/>
<text text-anchor="start" x="429.5" y="-605" font-family="Helvetica,sans-Serif" font-size="10.00">tracktion_engine::PatchBay</text>
<text text-anchor="middle" x="496" y="-594" font-family="Helvetica,sans-Serif" font-size="10.00">Plugin</text>
</a>
</g>
</g>
<!-- Node3&#45;&gt;Node20 -->
<g id="edge19" class="edge">
<title>Node3&#45;&gt;Node20</title>
<path fill="none" stroke="midnightblue" d="M366.53,-734.36C368.45,-733.03 370.28,-731.58 372,-730 407.74,-697.23 372.76,-660.31 408,-627 412.11,-623.11 416.79,-619.83 421.79,-617.05"/>
<polygon fill="midnightblue" stroke="midnightblue" points="364.54,-731.47 357.61,-739.48 368.03,-737.53 364.54,-731.47"/>
</g>
<!-- Node21 -->
<g id="node21" class="node">
<title>Node21</title>
<g id="a_node21"><a xlink:href="classtracktion__engine_1_1PhaserPlugin.html" target="_top" xlink:title=" ">
<polygon fill="none" stroke="black" points="427.5,-538 427.5,-568 564.5,-568 564.5,-538 427.5,-538"/>
<text text-anchor="start" x="435.5" y="-556" font-family="Helvetica,sans-Serif" font-size="10.00">tracktion_engine::Phaser</text>
<text text-anchor="middle" x="496" y="-545" font-family="Helvetica,sans-Serif" font-size="10.00">Plugin</text>
</a>
</g>
</g>
<!-- Node3&#45;&gt;Node21 -->
<g id="edge20" class="edge">
<title>Node3&#45;&gt;Node21</title>
<path fill="none" stroke="midnightblue" d="M367.92,-733.67C369.35,-732.53 370.71,-731.31 372,-730 420.67,-680.49 360.08,-628.24 408,-578 413.42,-572.31 420.05,-567.9 427.2,-564.47"/>
<polygon fill="midnightblue" stroke="midnightblue" points="365.61,-731 359.12,-739.38 369.41,-736.88 365.61,-731"/>
</g>
<!-- Node22 -->
<g id="node22" class="node">
<title>Node22</title>
<g id="a_node22"><a xlink:href="classtracktion__engine_1_1PitchShiftPlugin.html" target="_top" xlink:title=" ">
<polygon fill="none" stroke="black" points="421,-489 421,-519 571,-519 571,-489 421,-489"/>
<text text-anchor="start" x="429" y="-507" font-family="Helvetica,sans-Serif" font-size="10.00">tracktion_engine::PitchShift</text>
<text text-anchor="middle" x="496" y="-496" font-family="Helvetica,sans-Serif" font-size="10.00">Plugin</text>
</a>
</g>
</g>
<!-- Node3&#45;&gt;Node22 -->
<g id="edge21" class="edge">
<title>Node3&#45;&gt;Node22</title>
<path fill="none" stroke="midnightblue" d="M368.13,-733.68C369.49,-732.54 370.78,-731.31 372,-730 433.81,-663.54 347.2,-596.38 408,-529 411.68,-524.92 415.99,-521.48 420.67,-518.6"/>
<polygon fill="midnightblue" stroke="midnightblue" points="366,-730.89 359.7,-739.41 369.94,-736.68 366,-730.89"/>
</g>
<!-- Node23 -->
<g id="node23" class="node">
<title>Node23</title>
<g id="a_node23"><a xlink:href="classtracktion__engine_1_1RackInstance.html" target="_top" xlink:title=" ">
<polygon fill="none" stroke="black" points="411,-450.5 411,-469.5 581,-469.5 581,-450.5 411,-450.5"/>
<text text-anchor="middle" x="496" y="-457.5" font-family="Helvetica,sans-Serif" font-size="10.00">tracktion_engine::RackInstance</text>
</a>
</g>
</g>
<!-- Node3&#45;&gt;Node23 -->
<g id="edge22" class="edge">
<title>Node3&#45;&gt;Node23</title>
<path fill="none" stroke="midnightblue" d="M368.64,-733.34C369.82,-732.29 370.94,-731.18 372,-730 447.03,-646.5 331.98,-562.6 408,-480 411.88,-475.78 416.46,-472.36 421.45,-469.6"/>
<polygon fill="midnightblue" stroke="midnightblue" points="366.31,-730.7 360.19,-739.34 370.37,-736.4 366.31,-730.7"/>
</g>
<!-- Node24 -->
<g id="node24" class="node">
<title>Node24</title>
<g id="a_node24"><a xlink:href="classtracktion__engine_1_1ReverbPlugin.html" target="_top" xlink:title=" ">
<polygon fill="none" stroke="black" points="426.5,-401 426.5,-431 565.5,-431 565.5,-401 426.5,-401"/>
<text text-anchor="start" x="434.5" y="-419" font-family="Helvetica,sans-Serif" font-size="10.00">tracktion_engine::Reverb</text>
<text text-anchor="middle" x="496" y="-408" font-family="Helvetica,sans-Serif" font-size="10.00">Plugin</text>
</a>
</g>
</g>
<!-- Node3&#45;&gt;Node24 -->
<g id="edge23" class="edge">
<title>Node3&#45;&gt;Node24</title>
<path fill="none" stroke="midnightblue" d="M368.67,-733.36C369.84,-732.31 370.95,-731.19 372,-730 457.59,-632.9 323.88,-539.37 408,-441 413,-435.15 419.28,-430.62 426.16,-427.12"/>
<polygon fill="midnightblue" stroke="midnightblue" points="366.34,-730.73 360.27,-739.41 370.43,-736.41 366.34,-730.73"/>
</g>
<!-- Node25 -->
<g id="node25" class="node">
<title>Node25</title>
<g id="a_node25"><a xlink:href="classtracktion__engine_1_1SamplerPlugin.html" target="_top" xlink:title=" ">
<polygon fill="none" stroke="black" points="423.5,-352 423.5,-382 568.5,-382 568.5,-352 423.5,-352"/>
<text text-anchor="start" x="431.5" y="-370" font-family="Helvetica,sans-Serif" font-size="10.00">tracktion_engine::Sampler</text>
<text text-anchor="middle" x="496" y="-359" font-family="Helvetica,sans-Serif" font-size="10.00">Plugin</text>
</a>
</g>
</g>
<!-- Node3&#45;&gt;Node25 -->
<g id="edge24" class="edge">
<title>Node3&#45;&gt;Node25</title>
<path fill="none" stroke="midnightblue" d="M368.7,-733.39C369.86,-732.33 370.96,-731.2 372,-730 470.89,-615.79 310.85,-507.69 408,-392 412.24,-386.95 417.44,-382.88 423.16,-379.61"/>
<polygon fill="midnightblue" stroke="midnightblue" points="366.37,-730.76 360.34,-739.47 370.49,-736.42 366.37,-730.76"/>
</g>
<!-- Node26 -->
<g id="node26" class="node">
<title>Node26</title>
<g id="a_node26"><a xlink:href="classtracktion__engine_1_1TextPlugin.html" target="_top" xlink:title=" ">
<polygon fill="none" stroke="black" points="418.5,-313.5 418.5,-332.5 573.5,-332.5 573.5,-313.5 418.5,-313.5"/>
<text text-anchor="middle" x="496" y="-320.5" font-family="Helvetica,sans-Serif" font-size="10.00">tracktion_engine::TextPlugin</text>
</a>
</g>
</g>
<!-- Node3&#45;&gt;Node26 -->
<g id="edge25" class="edge">
<title>Node3&#45;&gt;Node26</title>
<path fill="none" stroke="midnightblue" d="M368.82,-733.32C369.93,-732.28 371,-731.17 372,-730 428.1,-664.33 351.13,-408 408,-343 411.67,-338.8 416.03,-335.39 420.82,-332.62"/>
<polygon fill="midnightblue" stroke="midnightblue" points="366.68,-730.55 360.74,-739.32 370.85,-736.17 366.68,-730.55"/>
</g>
<!-- Node27 -->
<g id="node27" class="node">
<title>Node27</title>
<g id="a_node27"><a xlink:href="classtracktion__engine_1_1ToneGeneratorPlugin.html" target="_top" xlink:title=" ">
<polygon fill="none" stroke="black" points="408,-264 408,-294 584,-294 584,-264 408,-264"/>
<text text-anchor="start" x="416" y="-282" font-family="Helvetica,sans-Serif" font-size="10.00">tracktion_engine::ToneGenerator</text>
<text text-anchor="middle" x="496" y="-271" font-family="Helvetica,sans-Serif" font-size="10.00">Plugin</text>
</a>
</g>
</g>
<!-- Node3&#45;&gt;Node27 -->
<g id="edge26" class="edge">
<title>Node3&#45;&gt;Node27</title>
<path fill="none" stroke="midnightblue" d="M368.83,-733.33C369.94,-732.29 371,-731.18 372,-730 433.4,-657.5 347.7,-377.41 408,-304 411.09,-300.24 414.71,-297.02 418.68,-294.26"/>
<polygon fill="midnightblue" stroke="midnightblue" points="366.69,-730.56 360.77,-739.35 370.88,-736.17 366.69,-730.56"/>
</g>
<!-- Node28 -->
<g id="node28" class="node">
<title>Node28</title>
<g id="a_node28"><a xlink:href="classtracktion__engine_1_1VCAPlugin.html" target="_top" xlink:title="The VCA plugin sits on a folder track to control the overall level of all the volume/pan plugins in i...">
<polygon fill="none" stroke="black" points="418.5,-225.5 418.5,-244.5 573.5,-244.5 573.5,-225.5 418.5,-225.5"/>
<text text-anchor="middle" x="496" y="-232.5" font-family="Helvetica,sans-Serif" font-size="10.00">tracktion_engine::VCAPlugin</text>
</a>
</g>
</g>
<!-- Node3&#45;&gt;Node28 -->
<g id="edge27" class="edge">
<title>Node3&#45;&gt;Node28</title>
<path fill="none" stroke="midnightblue" d="M368.84,-733.35C369.95,-732.3 371.01,-731.18 372,-730 440.06,-648.92 338.98,-335.26 408,-255 411.64,-250.77 415.97,-247.33 420.74,-244.55"/>
<polygon fill="midnightblue" stroke="midnightblue" points="366.7,-730.58 360.81,-739.38 370.91,-736.17 366.7,-730.58"/>
</g>
<!-- Node29 -->
<g id="node29" class="node">
<title>Node29</title>
<g id="a_node29"><a xlink:href="classtracktion__engine_1_1VolumeAndPanPlugin.html" target="_top" xlink:title="The built&#45;in Tracktion volume/pan plugin.">
<polygon fill="none" stroke="black" points="425.5,-176 425.5,-206 566.5,-206 566.5,-176 425.5,-176"/>
<text text-anchor="start" x="433.5" y="-194" font-family="Helvetica,sans-Serif" font-size="10.00">tracktion_engine::Volume</text>
<text text-anchor="middle" x="496" y="-183" font-family="Helvetica,sans-Serif" font-size="10.00">AndPanPlugin</text>
</a>
</g>
</g>
<!-- Node3&#45;&gt;Node29 -->
<g id="edge28" class="edge">
<title>Node3&#45;&gt;Node29</title>
<path fill="none" stroke="midnightblue" d="M368.85,-733.35C369.96,-732.3 371.01,-731.18 372,-730 445.37,-642.09 335.96,-305 408,-216 412.75,-210.14 418.77,-205.59 425.43,-202.08"/>
<polygon fill="midnightblue" stroke="midnightblue" points="366.71,-730.59 360.83,-739.4 370.93,-736.17 366.71,-730.59"/>
</g>
<!-- Node32 -->
<g id="node32" class="node">
<title>Node32</title>
<g id="a_node32"><a xlink:href="classtracktion__engine_1_1AutomationTrack.html" target="_top" xlink:title=" ">
<polygon fill="none" stroke="black" points="415.5,-127 415.5,-157 576.5,-157 576.5,-127 415.5,-127"/>
<text text-anchor="start" x="423.5" y="-145" font-family="Helvetica,sans-Serif" font-size="10.00">tracktion_engine::Automation</text>
<text text-anchor="middle" x="496" y="-134" font-family="Helvetica,sans-Serif" font-size="10.00">Track</text>
</a>
</g>
</g>
<!-- Node31&#45;&gt;Node32 -->
<g id="edge31" class="edge">
<title>Node31&#45;&gt;Node32</title>
<path fill="none" stroke="midnightblue" d="M350.21,-109.74C373.9,-115.02 402.15,-121.31 427.38,-126.93"/>
<polygon fill="midnightblue" stroke="midnightblue" points="350.88,-106.31 340.35,-107.55 349.35,-113.14 350.88,-106.31"/>
</g>
<!-- Node33 -->
<g id="node33" class="node">
<title>Node33</title>
<g id="a_node33"><a xlink:href="classtracktion__engine_1_1ClipTrack.html" target="_top" xlink:title=" ">
<polygon fill="none" stroke="black" points="421.5,-88.5 421.5,-107.5 570.5,-107.5 570.5,-88.5 421.5,-88.5"/>
<text text-anchor="middle" x="496" y="-95.5" font-family="Helvetica,sans-Serif" font-size="10.00">tracktion_engine::ClipTrack</text>
</a>
</g>
</g>
<!-- Node31&#45;&gt;Node33 -->
<g id="edge32" class="edge">
<title>Node31&#45;&gt;Node33</title>
<path fill="none" stroke="midnightblue" d="M372.05,-98C388.16,-98 405.18,-98 421.25,-98"/>
<polygon fill="midnightblue" stroke="midnightblue" points="371.62,-94.5 361.62,-98 371.62,-101.5 371.62,-94.5"/>
</g>
<!-- Node38 -->
<g id="node38" class="node">
<title>Node38</title>
<g id="a_node38"><a xlink:href="classtracktion__engine_1_1FolderTrack.html" target="_top" xlink:title=" ">
<polygon fill="none" stroke="black" points="429,-39 429,-69 563,-69 563,-39 429,-39"/>
<text text-anchor="start" x="437" y="-57" font-family="Helvetica,sans-Serif" font-size="10.00">tracktion_engine::Folder</text>
<text text-anchor="middle" x="496" y="-46" font-family="Helvetica,sans-Serif" font-size="10.00">Track</text>
</a>
</g>
</g>
<!-- Node31&#45;&gt;Node38 -->
<g id="edge37" class="edge">
<title>Node31&#45;&gt;Node38</title>
<path fill="none" stroke="midnightblue" d="M350.39,-86.22C374.53,-80.84 403.37,-74.41 428.92,-68.72"/>
<polygon fill="midnightblue" stroke="midnightblue" points="349.35,-82.86 340.35,-88.45 350.88,-89.69 349.35,-82.86"/>
</g>
<!-- Node39 -->
<g id="node39" class="node">
<title>Node39</title>
<g id="a_node39"><a xlink:href="classtracktion__engine_1_1TempoTrack.html" target="_top" xlink:title=" ">
<polygon fill="none" stroke="black" points="415,-0.5 415,-19.5 577,-19.5 577,-0.5 415,-0.5"/>
<text text-anchor="middle" x="496" y="-7.5" font-family="Helvetica,sans-Serif" font-size="10.00">tracktion_engine::TempoTrack</text>
</a>
</g>
</g>
<!-- Node31&#45;&gt;Node39 -->
<g id="edge38" class="edge">
<title>Node31&#45;&gt;Node39</title>
<path fill="none" stroke="midnightblue" d="M317.92,-82.22C339.26,-66.48 374.27,-42.73 408,-29 417.45,-25.15 427.81,-22.03 437.98,-19.5"/>
<polygon fill="midnightblue" stroke="midnightblue" points="315.56,-79.62 309.66,-88.42 319.76,-85.22 315.56,-79.62"/>
</g>
<!-- Node34 -->
<g id="node34" class="node">
<title>Node34</title>
<g id="a_node34"><a xlink:href="classtracktion__engine_1_1ArrangerTrack.html" target="_top" xlink:title="A track similar to the MarkerTrack but can be used to move sections of an Edit around.">
<polygon fill="none" stroke="black" points="626,-146 626,-176 772,-176 772,-146 626,-146"/>
<text text-anchor="start" x="634" y="-164" font-family="Helvetica,sans-Serif" font-size="10.00">tracktion_engine::Arranger</text>
<text text-anchor="middle" x="699" y="-153" font-family="Helvetica,sans-Serif" font-size="10.00">Track</text>
</a>
</g>
</g>
<!-- Node33&#45;&gt;Node34 -->
<g id="edge33" class="edge">
<title>Node33&#45;&gt;Node34</title>
<path fill="none" stroke="midnightblue" d="M557.72,-110.01C566.64,-112.33 575.63,-114.99 584,-118 600.84,-124.05 603.43,-129.25 620,-136 628.69,-139.54 638.09,-142.92 647.24,-145.98"/>
<polygon fill="midnightblue" stroke="midnightblue" points="558.28,-106.54 547.73,-107.53 556.6,-113.33 558.28,-106.54"/>
</g>
<!-- Node35 -->
<g id="node35" class="node">
<title>Node35</title>
<g id="a_node35"><a xlink:href="classtracktion__engine_1_1AudioTrack.html" target="_top" xlink:title=" ">
<polygon fill="none" stroke="black" points="620,-107.5 620,-126.5 778,-126.5 778,-107.5 620,-107.5"/>
<text text-anchor="middle" x="699" y="-114.5" font-family="Helvetica,sans-Serif" font-size="10.00">tracktion_engine::AudioTrack</text>
</a>
</g>
</g>
<!-- Node33&#45;&gt;Node35 -->
<g id="edge34" class="edge">
<title>Node33&#45;&gt;Node35</title>
<path fill="none" stroke="midnightblue" d="M580.96,-105.94C593.86,-107.16 607.14,-108.41 619.91,-109.62"/>
<polygon fill="midnightblue" stroke="midnightblue" points="580.99,-102.42 570.7,-104.97 580.33,-109.39 580.99,-102.42"/>
</g>
<!-- Node36 -->
<g id="node36" class="node">
<title>Node36</title>
<g id="a_node36"><a xlink:href="classtracktion__engine_1_1ChordTrack.html" target="_top" xlink:title=" ">
<polygon fill="none" stroke="black" points="620,-69.5 620,-88.5 778,-88.5 778,-69.5 620,-69.5"/>
<text text-anchor="middle" x="699" y="-76.5" font-family="Helvetica,sans-Serif" font-size="10.00">tracktion_engine::ChordTrack</text>
</a>
</g>
</g>
<!-- Node33&#45;&gt;Node36 -->
<g id="edge35" class="edge">
<title>Node33&#45;&gt;Node36</title>
<path fill="none" stroke="midnightblue" d="M580.96,-90.06C593.86,-88.84 607.14,-87.59 619.91,-86.38"/>
<polygon fill="midnightblue" stroke="midnightblue" points="580.33,-86.61 570.7,-91.03 580.99,-93.58 580.33,-86.61"/>
</g>
<!-- Node37 -->
<g id="node37" class="node">
<title>Node37</title>
<g id="a_node37"><a xlink:href="classtracktion__engine_1_1MarkerTrack.html" target="_top" xlink:title=" ">
<polygon fill="none" stroke="black" points="630,-20 630,-50 768,-50 768,-20 630,-20"/>
<text text-anchor="start" x="638" y="-38" font-family="Helvetica,sans-Serif" font-size="10.00">tracktion_engine::Marker</text>
<text text-anchor="middle" x="699" y="-27" font-family="Helvetica,sans-Serif" font-size="10.00">Track</text>
</a>
</g>
</g>
<!-- Node33&#45;&gt;Node37 -->
<g id="edge36" class="edge">
<title>Node33&#45;&gt;Node37</title>
<path fill="none" stroke="midnightblue" d="M557.72,-85.99C566.64,-83.67 575.63,-81.01 584,-78 600.84,-71.95 603.43,-66.75 620,-60 628.69,-56.46 638.09,-53.08 647.24,-50.02"/>
<polygon fill="midnightblue" stroke="midnightblue" points="556.6,-82.67 547.73,-88.47 558.28,-89.46 556.6,-82.67"/>
</g>
</g>
</svg>
