<?xml version="1.0" encoding="UTF-8" standalone="no"?>
<!DOCTYPE svg PUBLIC "-//W3C//DTD SVG 1.1//EN"
 "http://www.w3.org/Graphics/SVG/1.1/DTD/svg11.dtd">
<!-- Generated by graphviz version 2.43.0 (0)
 -->
<!-- Title: tracktion::engine::TrackItem Pages: 1 -->
<svg width="696pt" height="304pt"
 viewBox="0.00 0.00 696.00 304.00" xmlns="http://www.w3.org/2000/svg" xmlns:xlink="http://www.w3.org/1999/xlink">
<g id="graph0" class="graph" transform="scale(1 1) rotate(0) translate(4 300)">
<title>tracktion::engine::TrackItem</title>
<!-- Node1 -->
<g id="node1" class="node">
<title>Node1</title>
<g id="a_node1"><a xlink:title="Base class for EditItems that live in a Track, e.g.">
<polygon fill="#bfbfbf" stroke="black" points="141,-73.5 141,-103.5 246,-103.5 246,-73.5 141,-73.5"/>
<text text-anchor="start" x="149" y="-91.5" font-family="Helvetica,sans-Serif" font-size="10.00">tracktion::engine::</text>
<text text-anchor="middle" x="193.5" y="-80.5" font-family="Helvetica,sans-Serif" font-size="10.00">TrackItem</text>
</a>
</g>
</g>
<!-- Node4 -->
<g id="node4" class="node">
<title>Node4</title>
<g id="a_node4"><a xlink:href="classtracktion_1_1engine_1_1Clip.html" target="_top" xlink:title="A clip in an edit.">
<polygon fill="none" stroke="black" points="282,-148 282,-167 406,-167 406,-148 282,-148"/>
<text text-anchor="middle" x="344" y="-155" font-family="Helvetica,sans-Serif" font-size="10.00">tracktion::engine::Clip</text>
</a>
</g>
</g>
<!-- Node1&#45;&gt;Node4 -->
<g id="edge3" class="edge">
<title>Node1&#45;&gt;Node4</title>
<path fill="none" stroke="midnightblue" d="M227.37,-108.9C243.46,-118.37 263.34,-129.31 282,-137.5 290.88,-141.4 300.77,-144.96 309.95,-147.96"/>
<polygon fill="midnightblue" stroke="midnightblue" points="228.75,-105.65 218.37,-103.53 225.16,-111.66 228.75,-105.65"/>
</g>
<!-- Node13 -->
<g id="node13" class="node">
<title>Node13</title>
<g id="a_node13"><a xlink:href="classtracktion_1_1engine_1_1CollectionClip.html" target="_top" xlink:title=" ">
<polygon fill="none" stroke="black" points="291.5,-98.5 291.5,-128.5 396.5,-128.5 396.5,-98.5 291.5,-98.5"/>
<text text-anchor="start" x="299.5" y="-116.5" font-family="Helvetica,sans-Serif" font-size="10.00">tracktion::engine::</text>
<text text-anchor="middle" x="344" y="-105.5" font-family="Helvetica,sans-Serif" font-size="10.00">CollectionClip</text>
</a>
</g>
</g>
<!-- Node1&#45;&gt;Node13 -->
<g id="edge12" class="edge">
<title>Node1&#45;&gt;Node13</title>
<path fill="none" stroke="midnightblue" d="M256.16,-98.88C267.85,-100.85 279.97,-102.89 291.32,-104.8"/>
<polygon fill="midnightblue" stroke="midnightblue" points="256.46,-95.38 246.02,-97.17 255.3,-102.29 256.46,-95.38"/>
</g>
<!-- Node14 -->
<g id="node14" class="node">
<title>Node14</title>
<g id="a_node14"><a xlink:href="classtracktion_1_1engine_1_1PitchSetting.html" target="_top" xlink:title=" ">
<polygon fill="none" stroke="black" points="291.5,-49.5 291.5,-79.5 396.5,-79.5 396.5,-49.5 291.5,-49.5"/>
<text text-anchor="start" x="299.5" y="-67.5" font-family="Helvetica,sans-Serif" font-size="10.00">tracktion::engine::</text>
<text text-anchor="middle" x="344" y="-56.5" font-family="Helvetica,sans-Serif" font-size="10.00">PitchSetting</text>
</a>
</g>
</g>
<!-- Node1&#45;&gt;Node14 -->
<g id="edge13" class="edge">
<title>Node1&#45;&gt;Node14</title>
<path fill="none" stroke="midnightblue" d="M256.16,-78.54C267.85,-76.65 279.97,-74.69 291.32,-72.85"/>
<polygon fill="midnightblue" stroke="midnightblue" points="255.33,-75.12 246.02,-80.17 256.45,-82.03 255.33,-75.12"/>
</g>
<!-- Node15 -->
<g id="node15" class="node">
<title>Node15</title>
<g id="a_node15"><a xlink:href="classtracktion_1_1engine_1_1TimeSigSetting.html" target="_top" xlink:title=" ">
<polygon fill="none" stroke="black" points="291.5,-0.5 291.5,-30.5 396.5,-30.5 396.5,-0.5 291.5,-0.5"/>
<text text-anchor="start" x="299.5" y="-18.5" font-family="Helvetica,sans-Serif" font-size="10.00">tracktion::engine::</text>
<text text-anchor="middle" x="344" y="-7.5" font-family="Helvetica,sans-Serif" font-size="10.00">TimeSigSetting</text>
</a>
</g>
</g>
<!-- Node1&#45;&gt;Node15 -->
<g id="edge14" class="edge">
<title>Node1&#45;&gt;Node15</title>
<path fill="none" stroke="midnightblue" d="M228.28,-68.17C244.29,-58.9 263.85,-48.1 282,-39.5 288.48,-36.43 295.46,-33.42 302.31,-30.62"/>
<polygon fill="midnightblue" stroke="midnightblue" points="226.16,-65.36 219.3,-73.43 229.69,-71.4 226.16,-65.36"/>
</g>
<!-- Node2 -->
<g id="node2" class="node">
<title>Node2</title>
<g id="a_node2"><a xlink:href="classtracktion_1_1engine_1_1EditItem.html" target="_top" xlink:title="Base class for objects that live inside an edit &#45; e.g.">
<polygon fill="none" stroke="black" points="0,-98.5 0,-128.5 105,-128.5 105,-98.5 0,-98.5"/>
<text text-anchor="start" x="8" y="-116.5" font-family="Helvetica,sans-Serif" font-size="10.00">tracktion::engine::</text>
<text text-anchor="middle" x="52.5" y="-105.5" font-family="Helvetica,sans-Serif" font-size="10.00">EditItem</text>
</a>
</g>
</g>
<!-- Node2&#45;&gt;Node1 -->
<g id="edge1" class="edge">
<title>Node2&#45;&gt;Node1</title>
<path fill="none" stroke="midnightblue" d="M115.16,-102.41C123.69,-100.88 132.38,-99.31 140.7,-97.82"/>
<polygon fill="midnightblue" stroke="midnightblue" points="114.48,-98.98 105.26,-104.19 115.72,-105.87 114.48,-98.98"/>
</g>
<!-- Node3 -->
<g id="node3" class="node">
<title>Node3</title>
<g id="a_node3"><a xlink:href="classtracktion_1_1engine_1_1Selectable.html" target="_top" xlink:title="Base class for things that can be selected, and whose properties can appear in the properties panel.">
<polygon fill="none" stroke="black" points="0,-49.5 0,-79.5 105,-79.5 105,-49.5 0,-49.5"/>
<text text-anchor="start" x="8" y="-67.5" font-family="Helvetica,sans-Serif" font-size="10.00">tracktion::engine::</text>
<text text-anchor="middle" x="52.5" y="-56.5" font-family="Helvetica,sans-Serif" font-size="10.00">Selectable</text>
</a>
</g>
</g>
<!-- Node3&#45;&gt;Node1 -->
<g id="edge2" class="edge">
<title>Node3&#45;&gt;Node1</title>
<path fill="none" stroke="midnightblue" d="M115.16,-75.15C123.69,-76.62 132.38,-78.12 140.7,-79.56"/>
<polygon fill="midnightblue" stroke="midnightblue" points="115.71,-71.69 105.26,-73.44 114.52,-78.59 115.71,-71.69"/>
</g>
<!-- Node5 -->
<g id="node5" class="node">
<title>Node5</title>
<g id="a_node5"><a xlink:href="classtracktion_1_1engine_1_1ArrangerClip.html" target="_top" xlink:title=" ">
<polygon fill="none" stroke="black" points="442,-265.5 442,-295.5 547,-295.5 547,-265.5 442,-265.5"/>
<text text-anchor="start" x="450" y="-283.5" font-family="Helvetica,sans-Serif" font-size="10.00">tracktion::engine::</text>
<text text-anchor="middle" x="494.5" y="-272.5" font-family="Helvetica,sans-Serif" font-size="10.00">ArrangerClip</text>
</a>
</g>
</g>
<!-- Node4&#45;&gt;Node5 -->
<g id="edge4" class="edge">
<title>Node4&#45;&gt;Node5</title>
<path fill="none" stroke="midnightblue" d="M358.75,-174.99C376.27,-196.38 408.34,-232.68 442,-256.5 446.59,-259.75 451.69,-262.74 456.84,-265.43"/>
<polygon fill="midnightblue" stroke="midnightblue" points="361.37,-172.66 352.37,-167.07 355.92,-177.05 361.37,-172.66"/>
</g>
<!-- Node6 -->
<g id="node6" class="node">
<title>Node6</title>
<g id="a_node6"><a xlink:href="classtracktion_1_1engine_1_1AudioClipBase.html" target="_top" xlink:title="Base class for Clips that produce some kind of audio e.g.">
<polygon fill="none" stroke="black" points="442,-216.5 442,-246.5 547,-246.5 547,-216.5 442,-216.5"/>
<text text-anchor="start" x="450" y="-234.5" font-family="Helvetica,sans-Serif" font-size="10.00">tracktion::engine::</text>
<text text-anchor="middle" x="494.5" y="-223.5" font-family="Helvetica,sans-Serif" font-size="10.00">AudioClipBase</text>
</a>
</g>
</g>
<!-- Node4&#45;&gt;Node6 -->
<g id="edge5" class="edge">
<title>Node4&#45;&gt;Node6</title>
<path fill="none" stroke="midnightblue" d="M373.07,-171.83C392.41,-181.66 418.71,-194.97 442,-206.5 448.5,-209.72 455.48,-213.14 462.14,-216.38"/>
<polygon fill="midnightblue" stroke="midnightblue" points="374.41,-168.58 363.91,-167.17 371.24,-174.82 374.41,-168.58"/>
</g>
<!-- Node9 -->
<g id="node9" class="node">
<title>Node9</title>
<g id="a_node9"><a xlink:href="classtracktion_1_1engine_1_1ChordClip.html" target="_top" xlink:title=" ">
<polygon fill="none" stroke="black" points="442,-167.5 442,-197.5 547,-197.5 547,-167.5 442,-167.5"/>
<text text-anchor="start" x="450" y="-185.5" font-family="Helvetica,sans-Serif" font-size="10.00">tracktion::engine::</text>
<text text-anchor="middle" x="494.5" y="-174.5" font-family="Helvetica,sans-Serif" font-size="10.00">ChordClip</text>
</a>
</g>
</g>
<!-- Node4&#45;&gt;Node9 -->
<g id="edge8" class="edge">
<title>Node4&#45;&gt;Node9</title>
<path fill="none" stroke="midnightblue" d="M411.65,-168.72C421.82,-170.43 432.18,-172.18 441.97,-173.82"/>
<polygon fill="midnightblue" stroke="midnightblue" points="412.01,-165.23 401.57,-167.02 410.85,-172.13 412.01,-165.23"/>
</g>
<!-- Node10 -->
<g id="node10" class="node">
<title>Node10</title>
<g id="a_node10"><a xlink:href="classtracktion_1_1engine_1_1MarkerClip.html" target="_top" xlink:title=" ">
<polygon fill="none" stroke="black" points="442,-118.5 442,-148.5 547,-148.5 547,-118.5 442,-118.5"/>
<text text-anchor="start" x="450" y="-136.5" font-family="Helvetica,sans-Serif" font-size="10.00">tracktion::engine::</text>
<text text-anchor="middle" x="494.5" y="-125.5" font-family="Helvetica,sans-Serif" font-size="10.00">MarkerClip</text>
</a>
</g>
</g>
<!-- Node4&#45;&gt;Node10 -->
<g id="edge9" class="edge">
<title>Node4&#45;&gt;Node10</title>
<path fill="none" stroke="midnightblue" d="M414.14,-146.33C423.44,-144.82 432.85,-143.3 441.78,-141.86"/>
<polygon fill="midnightblue" stroke="midnightblue" points="413.43,-142.89 404.12,-147.95 414.55,-149.81 413.43,-142.89"/>
</g>
<!-- Node11 -->
<g id="node11" class="node">
<title>Node11</title>
<g id="a_node11"><a xlink:href="classtracktion_1_1engine_1_1MidiClip.html" target="_top" xlink:title=" ">
<polygon fill="none" stroke="black" points="442,-69.5 442,-99.5 547,-99.5 547,-69.5 442,-69.5"/>
<text text-anchor="start" x="450" y="-87.5" font-family="Helvetica,sans-Serif" font-size="10.00">tracktion::engine::</text>
<text text-anchor="middle" x="494.5" y="-76.5" font-family="Helvetica,sans-Serif" font-size="10.00">MidiClip</text>
</a>
</g>
</g>
<!-- Node4&#45;&gt;Node11 -->
<g id="edge10" class="edge">
<title>Node4&#45;&gt;Node11</title>
<path fill="none" stroke="midnightblue" d="M390.82,-144.5C396.06,-142.42 401.23,-140.09 406,-137.5 424.06,-127.7 424.56,-119.36 442,-108.5 447.11,-105.32 452.7,-102.29 458.27,-99.52"/>
<polygon fill="midnightblue" stroke="midnightblue" points="389.57,-141.23 381.38,-147.96 391.98,-147.8 389.57,-141.23"/>
</g>
<!-- Node12 -->
<g id="node12" class="node">
<title>Node12</title>
<g id="a_node12"><a xlink:href="classtracktion_1_1engine_1_1StepClip.html" target="_top" xlink:title=" ">
<polygon fill="none" stroke="black" points="442,-20.5 442,-50.5 547,-50.5 547,-20.5 442,-20.5"/>
<text text-anchor="start" x="450" y="-38.5" font-family="Helvetica,sans-Serif" font-size="10.00">tracktion::engine::</text>
<text text-anchor="middle" x="494.5" y="-27.5" font-family="Helvetica,sans-Serif" font-size="10.00">StepClip</text>
</a>
</g>
</g>
<!-- Node4&#45;&gt;Node12 -->
<g id="edge11" class="edge">
<title>Node4&#45;&gt;Node12</title>
<path fill="none" stroke="midnightblue" d="M397.99,-143.37C400.85,-141.63 403.54,-139.69 406,-137.5 434.51,-112.11 415.05,-86.55 442,-59.5 445.34,-56.15 449.24,-53.21 453.37,-50.64"/>
<polygon fill="midnightblue" stroke="midnightblue" points="396.34,-140.28 389.05,-147.97 399.54,-146.51 396.34,-140.28"/>
</g>
<!-- Node7 -->
<g id="node7" class="node">
<title>Node7</title>
<g id="a_node7"><a xlink:href="classtracktion_1_1engine_1_1EditClip.html" target="_top" xlink:title="This is the main source of an Edit clip and is responsible for managing its properties.">
<polygon fill="none" stroke="black" points="583,-240.5 583,-270.5 688,-270.5 688,-240.5 583,-240.5"/>
<text text-anchor="start" x="591" y="-258.5" font-family="Helvetica,sans-Serif" font-size="10.00">tracktion::engine::</text>
<text text-anchor="middle" x="635.5" y="-247.5" font-family="Helvetica,sans-Serif" font-size="10.00">EditClip</text>
</a>
</g>
</g>
<!-- Node6&#45;&gt;Node7 -->
<g id="edge6" class="edge">
<title>Node6&#45;&gt;Node7</title>
<path fill="none" stroke="midnightblue" d="M557.16,-242.15C565.69,-243.62 574.38,-245.12 582.7,-246.56"/>
<polygon fill="midnightblue" stroke="midnightblue" points="557.71,-238.69 547.26,-240.44 556.52,-245.59 557.71,-238.69"/>
</g>
<!-- Node8 -->
<g id="node8" class="node">
<title>Node8</title>
<g id="a_node8"><a xlink:href="classtracktion_1_1engine_1_1WaveAudioClip.html" target="_top" xlink:title="An audio clip that uses an audio file as its source.">
<polygon fill="none" stroke="black" points="583,-191.5 583,-221.5 688,-221.5 688,-191.5 583,-191.5"/>
<text text-anchor="start" x="591" y="-209.5" font-family="Helvetica,sans-Serif" font-size="10.00">tracktion::engine::</text>
<text text-anchor="middle" x="635.5" y="-198.5" font-family="Helvetica,sans-Serif" font-size="10.00">WaveAudioClip</text>
</a>
</g>
</g>
<!-- Node6&#45;&gt;Node8 -->
<g id="edge7" class="edge">
<title>Node6&#45;&gt;Node8</title>
<path fill="none" stroke="midnightblue" d="M557.16,-220.41C565.69,-218.88 574.38,-217.31 582.7,-215.82"/>
<polygon fill="midnightblue" stroke="midnightblue" points="556.48,-216.98 547.26,-222.19 557.72,-223.87 556.48,-216.98"/>
</g>
</g>
</svg>
