<?xml version="1.0" encoding="UTF-8" standalone="no"?>
<!DOCTYPE svg PUBLIC "-//W3C//DTD SVG 1.1//EN"
 "http://www.w3.org/Graphics/SVG/1.1/DTD/svg11.dtd">
<!-- Generated by graphviz version 2.40.1 (20161225.0304)
 -->
<!-- Title: tracktion_engine::MacroParameterElement Pages: 1 -->
<svg width="724pt" height="1400pt"
 viewBox="0.00 0.00 724.00 1399.50" xmlns="http://www.w3.org/2000/svg" xmlns:xlink="http://www.w3.org/1999/xlink">
<g id="graph0" class="graph" transform="scale(1 1) rotate(0) translate(4 1395.5)">
<title>tracktion_engine::MacroParameterElement</title>
<!-- Node0 -->
<g id="node1" class="node">
<title>Node0</title>
<polygon fill="#bfbfbf" stroke="#000000" points="0,-715 0,-745 166,-745 166,-715 0,-715"/>
<text text-anchor="start" x="8" y="-733" font-family="Helvetica,sans-Serif" font-size="10.00" fill="#000000">tracktion_engine::MacroParameter</text>
<text text-anchor="middle" x="83" y="-722" font-family="Helvetica,sans-Serif" font-size="10.00" fill="#000000">Element</text>
</g>
<!-- Node1 -->
<g id="node2" class="node">
<title>Node1</title>
<g id="a_node2"><a xlink:href="structtracktion__engine_1_1Edit_1_1GlobalMacros.html" target="_top" xlink:title="tracktion_engine::Edit\l::GlobalMacros">
<polygon fill="none" stroke="#000000" points="216,-778 216,-808 327,-808 327,-778 216,-778"/>
<text text-anchor="start" x="224" y="-796" font-family="Helvetica,sans-Serif" font-size="10.00" fill="#000000">tracktion_engine::Edit</text>
<text text-anchor="middle" x="271.5" y="-785" font-family="Helvetica,sans-Serif" font-size="10.00" fill="#000000">::GlobalMacros</text>
</a>
</g>
</g>
<!-- Node0&#45;&gt;Node1 -->
<g id="edge1" class="edge">
<title>Node0&#45;&gt;Node1</title>
<path fill="none" stroke="#191970" d="M137.8393,-748.3283C165.9646,-757.7282 199.8008,-769.0369 226.3917,-777.924"/>
<polygon fill="#191970" stroke="#191970" points="138.7442,-744.9404 128.1504,-745.0901 136.5253,-751.5795 138.7442,-744.9404"/>
</g>
<!-- Node2 -->
<g id="node3" class="node">
<title>Node2</title>
<g id="a_node3"><a xlink:href="classtracktion__engine_1_1Plugin.html" target="_top" xlink:title="tracktion_engine::Plugin">
<polygon fill="none" stroke="#000000" points="211,-739.5 211,-758.5 332,-758.5 332,-739.5 211,-739.5"/>
<text text-anchor="middle" x="271.5" y="-746.5" font-family="Helvetica,sans-Serif" font-size="10.00" fill="#000000">tracktion_engine::Plugin</text>
</a>
</g>
</g>
<!-- Node0&#45;&gt;Node2 -->
<g id="edge2" class="edge">
<title>Node0&#45;&gt;Node2</title>
<path fill="none" stroke="#191970" d="M176.457,-739.4201C188.1225,-740.5959 199.8043,-741.7734 210.7873,-742.8804"/>
<polygon fill="#191970" stroke="#191970" points="176.5282,-735.9096 166.2275,-738.389 175.8261,-742.8743 176.5282,-735.9096"/>
</g>
<!-- Node29 -->
<g id="node30" class="node">
<title>Node29</title>
<g id="a_node30"><a xlink:href="classtracktion__engine_1_1RackType.html" target="_top" xlink:title="tracktion_engine::RackType">
<polygon fill="none" stroke="#000000" points="202,-701.5 202,-720.5 341,-720.5 341,-701.5 202,-701.5"/>
<text text-anchor="middle" x="271.5" y="-708.5" font-family="Helvetica,sans-Serif" font-size="10.00" fill="#000000">tracktion_engine::RackType</text>
</a>
</g>
</g>
<!-- Node0&#45;&gt;Node29 -->
<g id="edge29" class="edge">
<title>Node0&#45;&gt;Node29</title>
<path fill="none" stroke="#191970" d="M176.336,-720.5921C184.9657,-719.7223 193.6056,-718.8514 201.9663,-718.0087"/>
<polygon fill="#191970" stroke="#191970" points="175.8261,-717.1257 166.2275,-721.611 176.5282,-724.0904 175.8261,-717.1257"/>
</g>
<!-- Node30 -->
<g id="node31" class="node">
<title>Node30</title>
<g id="a_node31"><a xlink:href="classtracktion__engine_1_1Track.html" target="_top" xlink:title="tracktion_engine::Track">
<polygon fill="none" stroke="#000000" points="212,-88.5 212,-107.5 331,-107.5 331,-88.5 212,-88.5"/>
<text text-anchor="middle" x="271.5" y="-95.5" font-family="Helvetica,sans-Serif" font-size="10.00" fill="#000000">tracktion_engine::Track</text>
</a>
</g>
</g>
<!-- Node0&#45;&gt;Node30 -->
<g id="edge30" class="edge">
<title>Node0&#45;&gt;Node30</title>
<path fill="none" stroke="#191970" d="M90.4523,-705.0142C122.5304,-597.463 248.1457,-176.3021 268.6599,-107.5222"/>
<polygon fill="#191970" stroke="#191970" points="87.0704,-704.1074 87.5662,-714.6906 93.7784,-706.1081 87.0704,-704.1074"/>
</g>
<!-- Node3 -->
<g id="node4" class="node">
<title>Node3</title>
<g id="a_node4"><a xlink:href="classtracktion__engine_1_1AirWindowsPlugin.html" target="_top" xlink:title="tracktion_engine::AirWindows\lPlugin">
<polygon fill="none" stroke="#000000" points="383,-1361 383,-1391 529,-1391 529,-1361 383,-1361"/>
<text text-anchor="start" x="391" y="-1379" font-family="Helvetica,sans-Serif" font-size="10.00" fill="#000000">tracktion_engine::AirWindows</text>
<text text-anchor="middle" x="456" y="-1368" font-family="Helvetica,sans-Serif" font-size="10.00" fill="#000000">Plugin</text>
</a>
</g>
</g>
<!-- Node2&#45;&gt;Node3 -->
<g id="edge3" class="edge">
<title>Node2&#45;&gt;Node3</title>
<path fill="none" stroke="#191970" d="M336.767,-764.5185C338.2856,-765.8934 339.7036,-767.3841 341,-769 422.228,-870.2455 296.5203,-1250.1587 377,-1352 379.6662,-1355.3739 382.7925,-1358.2867 386.2343,-1360.8"/>
<polygon fill="#191970" stroke="#191970" points="338.6053,-761.5304 328.4339,-758.5652 334.5362,-767.2262 338.6053,-761.5304"/>
</g>
<!-- Node4 -->
<g id="node5" class="node">
<title>Node4</title>
<g id="a_node5"><a xlink:href="classtracktion__engine_1_1AuxReturnPlugin.html" target="_top" xlink:title="tracktion_engine::AuxReturn\lPlugin">
<polygon fill="none" stroke="#000000" points="386,-1312 386,-1342 526,-1342 526,-1312 386,-1312"/>
<text text-anchor="start" x="394" y="-1330" font-family="Helvetica,sans-Serif" font-size="10.00" fill="#000000">tracktion_engine::AuxReturn</text>
<text text-anchor="middle" x="456" y="-1319" font-family="Helvetica,sans-Serif" font-size="10.00" fill="#000000">Plugin</text>
</a>
</g>
</g>
<!-- Node2&#45;&gt;Node4 -->
<g id="edge4" class="edge">
<title>Node2&#45;&gt;Node4</title>
<path fill="none" stroke="#191970" d="M336.755,-764.5281C338.277,-765.9003 339.699,-767.3878 341,-769 415.6895,-861.5595 302.9946,-1209.8927 377,-1303 379.6757,-1306.3664 382.8093,-1309.2734 386.2565,-1311.7824"/>
<polygon fill="#191970" stroke="#191970" points="338.585,-761.5345 328.4089,-758.5853 334.5248,-767.2367 338.585,-761.5345"/>
</g>
<!-- Node5 -->
<g id="node6" class="node">
<title>Node5</title>
<g id="a_node6"><a xlink:href="classtracktion__engine_1_1AuxSendPlugin.html" target="_top" xlink:title="tracktion_engine::AuxSend\lPlugin">
<polygon fill="none" stroke="#000000" points="389,-1263 389,-1293 523,-1293 523,-1263 389,-1263"/>
<text text-anchor="start" x="397" y="-1281" font-family="Helvetica,sans-Serif" font-size="10.00" fill="#000000">tracktion_engine::AuxSend</text>
<text text-anchor="middle" x="456" y="-1270" font-family="Helvetica,sans-Serif" font-size="10.00" fill="#000000">Plugin</text>
</a>
</g>
</g>
<!-- Node2&#45;&gt;Node5 -->
<g id="edge5" class="edge">
<title>Node2&#45;&gt;Node5</title>
<path fill="none" stroke="#191970" d="M336.7407,-764.5397C338.2668,-765.9085 339.6936,-767.3922 341,-769 409.1532,-852.8761 309.4668,-1169.624 377,-1254 380.3141,-1258.1407 384.3205,-1261.5858 388.7499,-1264.4499"/>
<polygon fill="#191970" stroke="#191970" points="338.5606,-761.5396 328.3789,-758.6096 334.5112,-767.2494 338.5606,-761.5396"/>
</g>
<!-- Node6 -->
<g id="node7" class="node">
<title>Node6</title>
<g id="a_node7"><a xlink:href="classtracktion__engine_1_1ChorusPlugin.html" target="_top" xlink:title="tracktion_engine::Chorus\lPlugin">
<polygon fill="none" stroke="#000000" points="393.5,-1214 393.5,-1244 518.5,-1244 518.5,-1214 393.5,-1214"/>
<text text-anchor="start" x="401.5" y="-1232" font-family="Helvetica,sans-Serif" font-size="10.00" fill="#000000">tracktion_engine::Chorus</text>
<text text-anchor="middle" x="456" y="-1221" font-family="Helvetica,sans-Serif" font-size="10.00" fill="#000000">Plugin</text>
</a>
</g>
</g>
<!-- Node2&#45;&gt;Node6 -->
<g id="edge6" class="edge">
<title>Node2&#45;&gt;Node6</title>
<path fill="none" stroke="#191970" d="M336.7232,-764.554C338.2544,-765.9187 339.6869,-767.3976 341,-769 402.6197,-844.1962 315.9361,-1129.3517 377,-1205 381.4117,-1210.4654 387.0288,-1214.7178 393.2283,-1218.0214"/>
<polygon fill="#191970" stroke="#191970" points="338.5308,-761.5458 328.3424,-758.6394 334.4946,-767.265 338.5308,-761.5458"/>
</g>
<!-- Node7 -->
<g id="node8" class="node">
<title>Node7</title>
<g id="a_node8"><a xlink:href="classtracktion__engine_1_1CompressorPlugin.html" target="_top" xlink:title="tracktion_engine::Compressor\lPlugin">
<polygon fill="none" stroke="#000000" points="382.5,-1165 382.5,-1195 529.5,-1195 529.5,-1165 382.5,-1165"/>
<text text-anchor="start" x="390.5" y="-1183" font-family="Helvetica,sans-Serif" font-size="10.00" fill="#000000">tracktion_engine::Compressor</text>
<text text-anchor="middle" x="456" y="-1172" font-family="Helvetica,sans-Serif" font-size="10.00" fill="#000000">Plugin</text>
</a>
</g>
</g>
<!-- Node2&#45;&gt;Node7 -->
<g id="edge7" class="edge">
<title>Node2&#45;&gt;Node7</title>
<path fill="none" stroke="#191970" d="M336.701,-764.5723C338.2385,-765.9318 339.6784,-767.4046 341,-769 395.957,-835.3443 322.9197,-1087.9392 377,-1155 380.0704,-1158.8073 383.7187,-1162.0443 387.7372,-1164.7953"/>
<polygon fill="#191970" stroke="#191970" points="338.4928,-761.5541 328.2959,-758.6777 334.4735,-767.2852 338.4928,-761.5541"/>
</g>
<!-- Node8 -->
<g id="node9" class="node">
<title>Node8</title>
<g id="a_node9"><a xlink:href="classtracktion__engine_1_1DelayPlugin.html" target="_top" xlink:title="tracktion_engine::DelayPlugin">
<polygon fill="none" stroke="#000000" points="383,-1126.5 383,-1145.5 529,-1145.5 529,-1126.5 383,-1126.5"/>
<text text-anchor="middle" x="456" y="-1133.5" font-family="Helvetica,sans-Serif" font-size="10.00" fill="#000000">tracktion_engine::DelayPlugin</text>
</a>
</g>
</g>
<!-- Node2&#45;&gt;Node8 -->
<g id="edge8" class="edge">
<title>Node2&#45;&gt;Node8</title>
<path fill="none" stroke="#191970" d="M336.5745,-764.4977C338.1576,-765.8777 339.6402,-767.3752 341,-769 440.7944,-888.2429 274.5964,-999.9903 377,-1117 380.3445,-1120.8215 384.3105,-1123.9439 388.6573,-1126.4883"/>
<polygon fill="#191970" stroke="#191970" points="338.142,-761.3273 327.9223,-758.5329 334.1689,-767.0904 338.142,-761.3273"/>
</g>
<!-- Node9 -->
<g id="node10" class="node">
<title>Node9</title>
<g id="a_node10"><a xlink:href="classtracktion__engine_1_1EqualiserPlugin.html" target="_top" xlink:title="tracktion_engine::Equaliser\lPlugin">
<polygon fill="none" stroke="#000000" points="389,-1077 389,-1107 523,-1107 523,-1077 389,-1077"/>
<text text-anchor="start" x="397" y="-1095" font-family="Helvetica,sans-Serif" font-size="10.00" fill="#000000">tracktion_engine::Equaliser</text>
<text text-anchor="middle" x="456" y="-1084" font-family="Helvetica,sans-Serif" font-size="10.00" fill="#000000">Plugin</text>
</a>
</g>
</g>
<!-- Node2&#45;&gt;Node9 -->
<g id="edge9" class="edge">
<title>Node2&#45;&gt;Node9</title>
<path fill="none" stroke="#191970" d="M336.539,-764.5277C338.1323,-765.899 339.6266,-767.3866 341,-769 427.7599,-870.9224 290.9935,-965.4411 377,-1068 380.408,-1072.0638 384.481,-1075.4543 388.9558,-1078.2812"/>
<polygon fill="#191970" stroke="#191970" points="338.0811,-761.3426 327.8487,-758.5951 334.1343,-767.1239 338.0811,-761.3426"/>
</g>
<!-- Node10 -->
<g id="node11" class="node">
<title>Node10</title>
<g id="a_node11"><a xlink:href="classtracktion__engine_1_1ExternalPlugin.html" target="_top" xlink:title="tracktion_engine::External\lPlugin">
<polygon fill="none" stroke="#000000" points="391,-1028 391,-1058 521,-1058 521,-1028 391,-1028"/>
<text text-anchor="start" x="399" y="-1046" font-family="Helvetica,sans-Serif" font-size="10.00" fill="#000000">tracktion_engine::External</text>
<text text-anchor="middle" x="456" y="-1035" font-family="Helvetica,sans-Serif" font-size="10.00" fill="#000000">Plugin</text>
</a>
</g>
</g>
<!-- Node2&#45;&gt;Node10 -->
<g id="edge10" class="edge">
<title>Node2&#45;&gt;Node10</title>
<path fill="none" stroke="#191970" d="M335.9691,-764.1356C337.7717,-765.6138 339.4585,-767.2311 341,-769 414.7508,-853.6315 303.8748,-933.8273 377,-1019 380.9217,-1023.5678 385.683,-1027.2828 390.9029,-1030.3019"/>
<polygon fill="#191970" stroke="#191970" points="337.6917,-761.0793 327.4145,-758.5047 333.843,-766.9264 337.6917,-761.0793"/>
</g>
<!-- Node11 -->
<g id="node12" class="node">
<title>Node11</title>
<g id="a_node12"><a xlink:href="classtracktion__engine_1_1FourOscPlugin.html" target="_top" xlink:title="tracktion_engine::FourOsc\lPlugin">
<polygon fill="none" stroke="#000000" points="390.5,-979 390.5,-1009 521.5,-1009 521.5,-979 390.5,-979"/>
<text text-anchor="start" x="398.5" y="-997" font-family="Helvetica,sans-Serif" font-size="10.00" fill="#000000">tracktion_engine::FourOsc</text>
<text text-anchor="middle" x="456" y="-986" font-family="Helvetica,sans-Serif" font-size="10.00" fill="#000000">Plugin</text>
</a>
</g>
</g>
<!-- Node2&#45;&gt;Node11 -->
<g id="edge11" class="edge">
<title>Node2&#45;&gt;Node11</title>
<path fill="none" stroke="#191970" d="M335.8916,-764.2042C337.716,-765.6632 339.4285,-767.2577 341,-769 401.7857,-836.391 316.7125,-902.1629 377,-970 380.8088,-974.2858 385.3561,-977.8182 390.3181,-980.7281"/>
<polygon fill="#191970" stroke="#191970" points="337.5653,-761.1188 327.2652,-758.637 333.7695,-767.0003 337.5653,-761.1188"/>
</g>
<!-- Node12 -->
<g id="node13" class="node">
<title>Node12</title>
<g id="a_node13"><a xlink:href="classtracktion__engine_1_1FreezePointPlugin.html" target="_top" xlink:title="tracktion_engine::Freeze\lPointPlugin">
<polygon fill="none" stroke="#000000" points="394,-930 394,-960 518,-960 518,-930 394,-930"/>
<text text-anchor="start" x="402" y="-948" font-family="Helvetica,sans-Serif" font-size="10.00" fill="#000000">tracktion_engine::Freeze</text>
<text text-anchor="middle" x="456" y="-937" font-family="Helvetica,sans-Serif" font-size="10.00" fill="#000000">PointPlugin</text>
</a>
</g>
</g>
<!-- Node2&#45;&gt;Node12 -->
<g id="edge12" class="edge">
<title>Node2&#45;&gt;Node12</title>
<path fill="none" stroke="#191970" d="M335.0741,-763.7942C337.1919,-765.3619 339.1805,-767.0917 341,-769 388.9073,-819.2458 329.4643,-870.4025 377,-921 381.7111,-926.0146 387.4329,-929.9924 393.6207,-933.146"/>
<polygon fill="#191970" stroke="#191970" points="336.7175,-760.6978 326.3498,-758.5158 333.094,-766.687 336.7175,-760.6978"/>
</g>
<!-- Node13 -->
<g id="node14" class="node">
<title>Node13</title>
<g id="a_node14"><a xlink:href="classtracktion__engine_1_1InsertPlugin.html" target="_top" xlink:title="tracktion_engine::Insert\lPlugin">
<polygon fill="none" stroke="#000000" points="396.5,-881 396.5,-911 515.5,-911 515.5,-881 396.5,-881"/>
<text text-anchor="start" x="404.5" y="-899" font-family="Helvetica,sans-Serif" font-size="10.00" fill="#000000">tracktion_engine::Insert</text>
<text text-anchor="middle" x="456" y="-888" font-family="Helvetica,sans-Serif" font-size="10.00" fill="#000000">Plugin</text>
</a>
</g>
</g>
<!-- Node2&#45;&gt;Node13 -->
<g id="edge13" class="edge">
<title>Node2&#45;&gt;Node13</title>
<path fill="none" stroke="#191970" d="M334.065,-763.5224C336.5324,-765.1591 338.8617,-766.9783 341,-769 376.2373,-802.3158 342.0092,-838.4255 377,-872 382.5852,-877.3591 389.3292,-881.5253 396.4947,-884.7632"/>
<polygon fill="#191970" stroke="#191970" points="335.6653,-760.4079 325.2205,-758.631 332.2775,-766.5335 335.6653,-760.4079"/>
</g>
<!-- Node14 -->
<g id="node15" class="node">
<title>Node14</title>
<g id="a_node15"><a xlink:href="classtracktion__engine_1_1LatencyPlugin.html" target="_top" xlink:title="A test plugin that introduces latency to the incomming signal. ">
<polygon fill="none" stroke="#000000" points="392,-832 392,-862 520,-862 520,-832 392,-832"/>
<text text-anchor="start" x="400" y="-850" font-family="Helvetica,sans-Serif" font-size="10.00" fill="#000000">tracktion_engine::Latency</text>
<text text-anchor="middle" x="456" y="-839" font-family="Helvetica,sans-Serif" font-size="10.00" fill="#000000">Plugin</text>
</a>
</g>
</g>
<!-- Node2&#45;&gt;Node14 -->
<g id="edge14" class="edge">
<title>Node2&#45;&gt;Node14</title>
<path fill="none" stroke="#191970" d="M330.4735,-762.6467C334.1805,-764.5019 337.7301,-766.6084 341,-769 364.2816,-786.0284 353.8445,-805.8005 377,-823 381.6028,-826.4189 386.696,-829.3554 392.0139,-831.8766"/>
<polygon fill="#191970" stroke="#191970" points="331.5712,-759.3077 321.0047,-758.5335 328.7822,-765.7281 331.5712,-759.3077"/>
</g>
<!-- Node15 -->
<g id="node16" class="node">
<title>Node15</title>
<g id="a_node16"><a xlink:href="classtracktion__engine_1_1LevelMeterPlugin.html" target="_top" xlink:title="tracktion_engine::LevelMeter\lPlugin">
<polygon fill="none" stroke="#000000" points="385,-783 385,-813 527,-813 527,-783 385,-783"/>
<text text-anchor="start" x="393" y="-801" font-family="Helvetica,sans-Serif" font-size="10.00" fill="#000000">tracktion_engine::LevelMeter</text>
<text text-anchor="middle" x="456" y="-790" font-family="Helvetica,sans-Serif" font-size="10.00" fill="#000000">Plugin</text>
</a>
</g>
</g>
<!-- Node2&#45;&gt;Node15 -->
<g id="edge15" class="edge">
<title>Node2&#45;&gt;Node15</title>
<path fill="none" stroke="#191970" d="M317.3975,-761.1896C342.2156,-767.7808 373.0811,-775.9782 399.3812,-782.963"/>
<polygon fill="#191970" stroke="#191970" points="318.0748,-757.7482 307.5114,-758.564 316.278,-764.5137 318.0748,-757.7482"/>
</g>
<!-- Node16 -->
<g id="node17" class="node">
<title>Node16</title>
<g id="a_node17"><a xlink:href="classtracktion__engine_1_1LowPassPlugin.html" target="_top" xlink:title="tracktion_engine::LowPass\lPlugin">
<polygon fill="none" stroke="#000000" points="389,-734 389,-764 523,-764 523,-734 389,-734"/>
<text text-anchor="start" x="397" y="-752" font-family="Helvetica,sans-Serif" font-size="10.00" fill="#000000">tracktion_engine::LowPass</text>
<text text-anchor="middle" x="456" y="-741" font-family="Helvetica,sans-Serif" font-size="10.00" fill="#000000">Plugin</text>
</a>
</g>
</g>
<!-- Node2&#45;&gt;Node16 -->
<g id="edge16" class="edge">
<title>Node2&#45;&gt;Node16</title>
<path fill="none" stroke="#191970" d="M342.5625,-749C357.7968,-749 373.8462,-749 388.9239,-749"/>
<polygon fill="#191970" stroke="#191970" points="342.1678,-745.5001 332.1677,-749 342.1677,-752.5001 342.1678,-745.5001"/>
</g>
<!-- Node17 -->
<g id="node18" class="node">
<title>Node17</title>
<g id="a_node18"><a xlink:href="classtracktion__engine_1_1MidiModifierPlugin.html" target="_top" xlink:title="tracktion_engine::MidiModifier\lPlugin">
<polygon fill="none" stroke="#000000" points="383,-685 383,-715 529,-715 529,-685 383,-685"/>
<text text-anchor="start" x="391" y="-703" font-family="Helvetica,sans-Serif" font-size="10.00" fill="#000000">tracktion_engine::MidiModifier</text>
<text text-anchor="middle" x="456" y="-692" font-family="Helvetica,sans-Serif" font-size="10.00" fill="#000000">Plugin</text>
</a>
</g>
</g>
<!-- Node2&#45;&gt;Node17 -->
<g id="edge17" class="edge">
<title>Node2&#45;&gt;Node17</title>
<path fill="none" stroke="#191970" d="M317.3975,-736.8104C342.2156,-730.2192 373.0811,-722.0218 399.3812,-715.037"/>
<polygon fill="#191970" stroke="#191970" points="316.278,-733.4863 307.5114,-739.436 318.0748,-740.2518 316.278,-733.4863"/>
</g>
<!-- Node18 -->
<g id="node19" class="node">
<title>Node18</title>
<g id="a_node19"><a xlink:href="classtracktion__engine_1_1MidiPatchBayPlugin.html" target="_top" xlink:title="tracktion_engine::MidiPatch\lBayPlugin">
<polygon fill="none" stroke="#000000" points="387.5,-636 387.5,-666 524.5,-666 524.5,-636 387.5,-636"/>
<text text-anchor="start" x="395.5" y="-654" font-family="Helvetica,sans-Serif" font-size="10.00" fill="#000000">tracktion_engine::MidiPatch</text>
<text text-anchor="middle" x="456" y="-643" font-family="Helvetica,sans-Serif" font-size="10.00" fill="#000000">BayPlugin</text>
</a>
</g>
</g>
<!-- Node2&#45;&gt;Node18 -->
<g id="edge18" class="edge">
<title>Node2&#45;&gt;Node18</title>
<path fill="none" stroke="#191970" d="M332.4378,-735.2437C335.4348,-733.6802 338.3115,-731.939 341,-730 364.3947,-713.1273 353.9442,-693.3329 377,-676 382.1744,-672.11 387.9707,-668.8151 394.0104,-666.0263"/>
<polygon fill="#191970" stroke="#191970" points="330.8365,-732.1262 323.1535,-739.4215 333.709,-738.5097 330.8365,-732.1262"/>
</g>
<!-- Node19 -->
<g id="node20" class="node">
<title>Node19</title>
<g id="a_node20"><a xlink:href="classtracktion__engine_1_1PatchBayPlugin.html" target="_top" xlink:title="tracktion_engine::PatchBay\lPlugin">
<polygon fill="none" stroke="#000000" points="387.5,-587 387.5,-617 524.5,-617 524.5,-587 387.5,-587"/>
<text text-anchor="start" x="395.5" y="-605" font-family="Helvetica,sans-Serif" font-size="10.00" fill="#000000">tracktion_engine::PatchBay</text>
<text text-anchor="middle" x="456" y="-594" font-family="Helvetica,sans-Serif" font-size="10.00" fill="#000000">Plugin</text>
</a>
</g>
</g>
<!-- Node2&#45;&gt;Node19 -->
<g id="edge19" class="edge">
<title>Node2&#45;&gt;Node19</title>
<path fill="none" stroke="#191970" d="M335.6619,-734.3121C337.5402,-732.9939 339.3279,-731.5599 341,-730 376.4587,-696.92 342.2036,-660.776 377,-627 381.0257,-623.0923 385.6584,-619.795 390.6195,-617.0129"/>
<polygon fill="#191970" stroke="#191970" points="333.8182,-731.3353 326.9243,-739.3804 337.3305,-737.3904 333.8182,-731.3353"/>
</g>
<!-- Node20 -->
<g id="node21" class="node">
<title>Node20</title>
<g id="a_node21"><a xlink:href="classtracktion__engine_1_1PhaserPlugin.html" target="_top" xlink:title="tracktion_engine::Phaser\lPlugin">
<polygon fill="none" stroke="#000000" points="393.5,-538 393.5,-568 518.5,-568 518.5,-538 393.5,-538"/>
<text text-anchor="start" x="401.5" y="-556" font-family="Helvetica,sans-Serif" font-size="10.00" fill="#000000">tracktion_engine::Phaser</text>
<text text-anchor="middle" x="456" y="-545" font-family="Helvetica,sans-Serif" font-size="10.00" fill="#000000">Plugin</text>
</a>
</g>
</g>
<!-- Node2&#45;&gt;Node20 -->
<g id="edge20" class="edge">
<title>Node2&#45;&gt;Node20</title>
<path fill="none" stroke="#191970" d="M336.5158,-734.0373C338.0977,-732.7937 339.5984,-731.4505 341,-730 389.2413,-680.0748 329.7572,-628.8711 377,-578 381.601,-573.0457 387.1754,-569.0678 393.2107,-565.8749"/>
<polygon fill="#191970" stroke="#191970" points="334.5619,-731.1321 328.0139,-739.4613 338.3268,-737.0334 334.5619,-731.1321"/>
</g>
<!-- Node21 -->
<g id="node22" class="node">
<title>Node21</title>
<g id="a_node22"><a xlink:href="classtracktion__engine_1_1PitchShiftPlugin.html" target="_top" xlink:title="tracktion_engine::PitchShift\lPlugin">
<polygon fill="none" stroke="#000000" points="387.5,-489 387.5,-519 524.5,-519 524.5,-489 387.5,-489"/>
<text text-anchor="start" x="395.5" y="-507" font-family="Helvetica,sans-Serif" font-size="10.00" fill="#000000">tracktion_engine::PitchShift</text>
<text text-anchor="middle" x="456" y="-496" font-family="Helvetica,sans-Serif" font-size="10.00" fill="#000000">Plugin</text>
</a>
</g>
</g>
<!-- Node2&#45;&gt;Node21 -->
<g id="edge21" class="edge">
<title>Node2&#45;&gt;Node21</title>
<path fill="none" stroke="#191970" d="M337.107,-733.7349C338.4794,-732.5759 339.7815,-731.3329 341,-730 402.2338,-663.0159 317.1052,-597.184 377,-529 380.4178,-525.1091 384.4367,-521.8182 388.8199,-519.0354"/>
<polygon fill="#191970" stroke="#191970" points="334.9021,-731.0004 328.5706,-739.4954 338.8177,-736.8029 334.9021,-731.0004"/>
</g>
<!-- Node22 -->
<g id="node23" class="node">
<title>Node22</title>
<g id="a_node23"><a xlink:href="classtracktion__engine_1_1RackInstance.html" target="_top" xlink:title="tracktion_engine::RackInstance">
<polygon fill="none" stroke="#000000" points="378.5,-450.5 378.5,-469.5 533.5,-469.5 533.5,-450.5 378.5,-450.5"/>
<text text-anchor="middle" x="456" y="-457.5" font-family="Helvetica,sans-Serif" font-size="10.00" fill="#000000">tracktion_engine::RackInstance</text>
</a>
</g>
</g>
<!-- Node2&#45;&gt;Node22 -->
<g id="edge22" class="edge">
<title>Node2&#45;&gt;Node22</title>
<path fill="none" stroke="#191970" d="M337.265,-733.706C338.5837,-732.5548 339.8329,-731.3213 341,-730 415.3136,-645.8622 301.8944,-563.4316 377,-480 380.8809,-475.6888 385.5451,-472.2456 390.6421,-469.5028"/>
<polygon fill="#191970" stroke="#191970" points="335.2413,-730.8501 329.0389,-739.4397 339.2441,-736.5928 335.2413,-730.8501"/>
</g>
<!-- Node23 -->
<g id="node24" class="node">
<title>Node23</title>
<g id="a_node24"><a xlink:href="classtracktion__engine_1_1ReverbPlugin.html" target="_top" xlink:title="tracktion_engine::Reverb\lPlugin">
<polygon fill="none" stroke="#000000" points="393.5,-401 393.5,-431 518.5,-431 518.5,-401 393.5,-401"/>
<text text-anchor="start" x="401.5" y="-419" font-family="Helvetica,sans-Serif" font-size="10.00" fill="#000000">tracktion_engine::Reverb</text>
<text text-anchor="middle" x="456" y="-408" font-family="Helvetica,sans-Serif" font-size="10.00" fill="#000000">Plugin</text>
</a>
</g>
</g>
<!-- Node2&#45;&gt;Node23 -->
<g id="edge23" class="edge">
<title>Node2&#45;&gt;Node23</title>
<path fill="none" stroke="#191970" d="M337.7401,-733.339C338.8866,-732.2934 339.9761,-731.1818 341,-730 425.7569,-632.1723 294.1978,-540.4875 377,-441 381.5093,-435.582 387.1866,-431.3222 393.4197,-427.9757"/>
<polygon fill="#191970" stroke="#191970" points="335.5059,-730.6349 329.4425,-739.3232 339.6006,-736.3125 335.5059,-730.6349"/>
</g>
<!-- Node24 -->
<g id="node25" class="node">
<title>Node24</title>
<g id="a_node25"><a xlink:href="classtracktion__engine_1_1SamplerPlugin.html" target="_top" xlink:title="tracktion_engine::Sampler\lPlugin">
<polygon fill="none" stroke="#000000" points="391,-352 391,-382 521,-382 521,-352 391,-352"/>
<text text-anchor="start" x="399" y="-370" font-family="Helvetica,sans-Serif" font-size="10.00" fill="#000000">tracktion_engine::Sampler</text>
<text text-anchor="middle" x="456" y="-359" font-family="Helvetica,sans-Serif" font-size="10.00" fill="#000000">Plugin</text>
</a>
</g>
</g>
<!-- Node2&#45;&gt;Node24 -->
<g id="edge24" class="edge">
<title>Node2&#45;&gt;Node24</title>
<path fill="none" stroke="#191970" d="M337.7688,-733.3636C338.9067,-732.3107 339.9867,-731.1908 341,-730 438.9023,-614.9441 281.3963,-508.9728 377,-392 380.8236,-387.3218 385.5189,-383.5057 390.6971,-380.3948"/>
<polygon fill="#191970" stroke="#191970" points="335.5306,-730.664 329.5147,-739.3852 339.6562,-736.3191 335.5306,-730.664"/>
</g>
<!-- Node25 -->
<g id="node26" class="node">
<title>Node25</title>
<g id="a_node26"><a xlink:href="classtracktion__engine_1_1TextPlugin.html" target="_top" xlink:title="tracktion_engine::TextPlugin">
<polygon fill="none" stroke="#000000" points="386,-313.5 386,-332.5 526,-332.5 526,-313.5 386,-313.5"/>
<text text-anchor="middle" x="456" y="-320.5" font-family="Helvetica,sans-Serif" font-size="10.00" fill="#000000">tracktion_engine::TextPlugin</text>
</a>
</g>
</g>
<!-- Node2&#45;&gt;Node25 -->
<g id="edge25" class="edge">
<title>Node2&#45;&gt;Node25</title>
<path fill="none" stroke="#191970" d="M337.7905,-733.3819C338.9218,-732.3235 339.9947,-731.1976 341,-730 396.5326,-663.8476 320.8446,-408.6245 377,-343 380.6794,-338.7002 385.1377,-335.2558 390.0417,-332.5044"/>
<polygon fill="#191970" stroke="#191970" points="335.5494,-730.6855 329.5692,-739.4313 339.6981,-736.3236 335.5494,-730.6855"/>
</g>
<!-- Node26 -->
<g id="node27" class="node">
<title>Node26</title>
<g id="a_node27"><a xlink:href="classtracktion__engine_1_1ToneGeneratorPlugin.html" target="_top" xlink:title="tracktion_engine::ToneGenerator\lPlugin">
<polygon fill="none" stroke="#000000" points="377,-264 377,-294 535,-294 535,-264 377,-264"/>
<text text-anchor="start" x="385" y="-282" font-family="Helvetica,sans-Serif" font-size="10.00" fill="#000000">tracktion_engine::ToneGenerator</text>
<text text-anchor="middle" x="456" y="-271" font-family="Helvetica,sans-Serif" font-size="10.00" fill="#000000">Plugin</text>
</a>
</g>
</g>
<!-- Node2&#45;&gt;Node26 -->
<g id="edge26" class="edge">
<title>Node2&#45;&gt;Node26</title>
<path fill="none" stroke="#191970" d="M337.8042,-733.3934C338.9315,-732.3315 339.9998,-731.2018 341,-730 401.7751,-656.9783 317.6834,-378.2113 377,-304 380.0538,-300.1794 383.6899,-296.9326 387.6999,-294.1747"/>
<polygon fill="#191970" stroke="#191970" points="335.5613,-730.699 329.6039,-739.4602 339.7246,-736.3264 335.5613,-730.699"/>
</g>
<!-- Node27 -->
<g id="node28" class="node">
<title>Node27</title>
<g id="a_node28"><a xlink:href="classtracktion__engine_1_1VCAPlugin.html" target="_top" xlink:title="The VCA plugin sits on a folder track to control the overall level of all the volume/pan plugins in i...">
<polygon fill="none" stroke="#000000" points="385,-225.5 385,-244.5 527,-244.5 527,-225.5 385,-225.5"/>
<text text-anchor="middle" x="456" y="-232.5" font-family="Helvetica,sans-Serif" font-size="10.00" fill="#000000">tracktion_engine::VCAPlugin</text>
</a>
</g>
</g>
<!-- Node2&#45;&gt;Node27 -->
<g id="edge27" class="edge">
<title>Node2&#45;&gt;Node27</title>
<path fill="none" stroke="#191970" d="M337.8184,-733.4051C338.9414,-732.3398 340.005,-731.2061 341,-730 408.3656,-648.3431 308.8655,-336.0165 377,-255 380.5514,-250.7771 384.8542,-247.3767 389.5971,-244.6463"/>
<polygon fill="#191970" stroke="#191970" points="335.5737,-730.7127 329.6395,-739.4897 339.7519,-736.329 335.5737,-730.7127"/>
</g>
<!-- Node28 -->
<g id="node29" class="node">
<title>Node28</title>
<g id="a_node29"><a xlink:href="classtracktion__engine_1_1VolumeAndPanPlugin.html" target="_top" xlink:title="The built&#45;in Tracktion volume/pan plugin. ">
<polygon fill="none" stroke="#000000" points="392.5,-176 392.5,-206 519.5,-206 519.5,-176 392.5,-176"/>
<text text-anchor="start" x="400.5" y="-194" font-family="Helvetica,sans-Serif" font-size="10.00" fill="#000000">tracktion_engine::Volume</text>
<text text-anchor="middle" x="456" y="-183" font-family="Helvetica,sans-Serif" font-size="10.00" fill="#000000">AndPanPlugin</text>
</a>
</g>
</g>
<!-- Node2&#45;&gt;Node28 -->
<g id="edge28" class="edge">
<title>Node2&#45;&gt;Node28</title>
<path fill="none" stroke="#191970" d="M338.2367,-733.0174C339.2068,-732.0657 340.1299,-731.0609 341,-730 413.6134,-641.4674 306.1548,-305.9537 377,-216 381.1834,-210.6883 386.4935,-206.4843 392.3756,-203.1604"/>
<polygon fill="#191970" stroke="#191970" points="335.8075,-730.4686 329.9837,-739.3192 340.0558,-736.0321 335.8075,-730.4686"/>
</g>
<!-- Node31 -->
<g id="node32" class="node">
<title>Node31</title>
<g id="a_node32"><a xlink:href="classtracktion__engine_1_1AutomationTrack.html" target="_top" xlink:title="tracktion_engine::Automation\lTrack">
<polygon fill="none" stroke="#000000" points="384.5,-127 384.5,-157 527.5,-157 527.5,-127 384.5,-127"/>
<text text-anchor="start" x="392.5" y="-145" font-family="Helvetica,sans-Serif" font-size="10.00" fill="#000000">tracktion_engine::Automation</text>
<text text-anchor="middle" x="456" y="-134" font-family="Helvetica,sans-Serif" font-size="10.00" fill="#000000">Track</text>
</a>
</g>
</g>
<!-- Node30&#45;&gt;Node31 -->
<g id="edge31" class="edge">
<title>Node30&#45;&gt;Node31</title>
<path fill="none" stroke="#191970" d="M321.332,-109.884C343.342,-115.1331 369.4704,-121.3642 392.8282,-126.9346"/>
<polygon fill="#191970" stroke="#191970" points="322.0729,-106.4627 311.5338,-107.5473 320.449,-113.2717 322.0729,-106.4627"/>
</g>
<!-- Node32 -->
<g id="node33" class="node">
<title>Node32</title>
<g id="a_node33"><a xlink:href="classtracktion__engine_1_1ClipTrack.html" target="_top" xlink:title="tracktion_engine::ClipTrack">
<polygon fill="none" stroke="#000000" points="388,-88.5 388,-107.5 524,-107.5 524,-88.5 388,-88.5"/>
<text text-anchor="middle" x="456" y="-95.5" font-family="Helvetica,sans-Serif" font-size="10.00" fill="#000000">tracktion_engine::ClipTrack</text>
</a>
</g>
</g>
<!-- Node30&#45;&gt;Node32 -->
<g id="edge32" class="edge">
<title>Node30&#45;&gt;Node32</title>
<path fill="none" stroke="#191970" d="M341.514,-98C356.7179,-98 372.7787,-98 387.9071,-98"/>
<polygon fill="#191970" stroke="#191970" points="341.1471,-94.5001 331.1471,-98 341.147,-101.5001 341.1471,-94.5001"/>
</g>
<!-- Node37 -->
<g id="node38" class="node">
<title>Node37</title>
<g id="a_node38"><a xlink:href="classtracktion__engine_1_1FolderTrack.html" target="_top" xlink:title="tracktion_engine::Folder\lTrack">
<polygon fill="none" stroke="#000000" points="395.5,-39 395.5,-69 516.5,-69 516.5,-39 395.5,-39"/>
<text text-anchor="start" x="403.5" y="-57" font-family="Helvetica,sans-Serif" font-size="10.00" fill="#000000">tracktion_engine::Folder</text>
<text text-anchor="middle" x="456" y="-46" font-family="Helvetica,sans-Serif" font-size="10.00" fill="#000000">Track</text>
</a>
</g>
</g>
<!-- Node30&#45;&gt;Node37 -->
<g id="edge37" class="edge">
<title>Node30&#45;&gt;Node37</title>
<path fill="none" stroke="#191970" d="M321.3413,-86.1137C344.1426,-80.676 371.3621,-74.1847 395.3422,-68.4658"/>
<polygon fill="#191970" stroke="#191970" points="320.449,-82.7283 311.5338,-88.4527 322.0729,-89.5373 320.449,-82.7283"/>
</g>
<!-- Node38 -->
<g id="node39" class="node">
<title>Node38</title>
<g id="a_node39"><a xlink:href="classtracktion__engine_1_1TempoTrack.html" target="_top" xlink:title="tracktion_engine::TempoTrack">
<polygon fill="none" stroke="#000000" points="381.5,-.5 381.5,-19.5 530.5,-19.5 530.5,-.5 381.5,-.5"/>
<text text-anchor="middle" x="456" y="-7.5" font-family="Helvetica,sans-Serif" font-size="10.00" fill="#000000">tracktion_engine::TempoTrack</text>
</a>
</g>
</g>
<!-- Node30&#45;&gt;Node38 -->
<g id="edge38" class="edge">
<title>Node30&#45;&gt;Node38</title>
<path fill="none" stroke="#191970" d="M291.2112,-82.1067C311.5615,-66.4467 344.7956,-42.9057 377,-29 385.8064,-25.1974 395.5084,-22.0744 405.0088,-19.5382"/>
<polygon fill="#191970" stroke="#191970" points="288.7829,-79.5628 283.0683,-88.4843 293.0992,-85.0737 288.7829,-79.5628"/>
</g>
<!-- Node33 -->
<g id="node34" class="node">
<title>Node33</title>
<g id="a_node34"><a xlink:href="classtracktion__engine_1_1ArrangerTrack.html" target="_top" xlink:title="A track similar to the MarkerTrack but can be used to move sections of an Edit around. ">
<polygon fill="none" stroke="#000000" points="578,-146 578,-176 709,-176 709,-146 578,-146"/>
<text text-anchor="start" x="586" y="-164" font-family="Helvetica,sans-Serif" font-size="10.00" fill="#000000">tracktion_engine::Arranger</text>
<text text-anchor="middle" x="643.5" y="-153" font-family="Helvetica,sans-Serif" font-size="10.00" fill="#000000">Track</text>
</a>
</g>
</g>
<!-- Node32&#45;&gt;Node33 -->
<g id="edge33" class="edge">
<title>Node32&#45;&gt;Node33</title>
<path fill="none" stroke="#191970" d="M510.4717,-110.1444C518.7793,-112.4681 527.1838,-115.0954 535,-118 551.7681,-124.2313 554.5086,-129.0693 571,-136 579.2237,-139.4561 588.1089,-142.8156 596.7459,-145.8923"/>
<polygon fill="#191970" stroke="#191970" points="511.3696,-106.7617 500.8048,-107.5577 509.5601,-113.5238 511.3696,-106.7617"/>
</g>
<!-- Node34 -->
<g id="node35" class="node">
<title>Node34</title>
<g id="a_node35"><a xlink:href="classtracktion__engine_1_1AudioTrack.html" target="_top" xlink:title="tracktion_engine::AudioTrack">
<polygon fill="none" stroke="#000000" points="572,-107.5 572,-126.5 715,-126.5 715,-107.5 572,-107.5"/>
<text text-anchor="middle" x="643.5" y="-114.5" font-family="Helvetica,sans-Serif" font-size="10.00" fill="#000000">tracktion_engine::AudioTrack</text>
</a>
</g>
</g>
<!-- Node32&#45;&gt;Node34 -->
<g id="edge34" class="edge">
<title>Node32&#45;&gt;Node34</title>
<path fill="none" stroke="#191970" d="M534.517,-105.9564C546.8981,-107.211 559.6434,-108.5025 571.8577,-109.7403"/>
<polygon fill="#191970" stroke="#191970" points="534.5241,-102.4393 524.2222,-104.9132 533.8184,-109.4036 534.5241,-102.4393"/>
</g>
<!-- Node35 -->
<g id="node36" class="node">
<title>Node35</title>
<g id="a_node36"><a xlink:href="classtracktion__engine_1_1ChordTrack.html" target="_top" xlink:title="tracktion_engine::ChordTrack">
<polygon fill="none" stroke="#000000" points="571,-69.5 571,-88.5 716,-88.5 716,-69.5 571,-69.5"/>
<text text-anchor="middle" x="643.5" y="-76.5" font-family="Helvetica,sans-Serif" font-size="10.00" fill="#000000">tracktion_engine::ChordTrack</text>
</a>
</g>
</g>
<!-- Node32&#45;&gt;Node35 -->
<g id="edge35" class="edge">
<title>Node32&#45;&gt;Node35</title>
<path fill="none" stroke="#191970" d="M534.3062,-90.065C546.4323,-88.8362 558.9128,-87.5715 570.9059,-86.3562"/>
<polygon fill="#191970" stroke="#191970" points="533.8184,-86.5964 524.2222,-91.0868 534.5241,-93.5607 533.8184,-86.5964"/>
</g>
<!-- Node36 -->
<g id="node37" class="node">
<title>Node36</title>
<g id="a_node37"><a xlink:href="classtracktion__engine_1_1MarkerTrack.html" target="_top" xlink:title="tracktion_engine::Marker\lTrack">
<polygon fill="none" stroke="#000000" points="581.5,-20 581.5,-50 705.5,-50 705.5,-20 581.5,-20"/>
<text text-anchor="start" x="589.5" y="-38" font-family="Helvetica,sans-Serif" font-size="10.00" fill="#000000">tracktion_engine::Marker</text>
<text text-anchor="middle" x="643.5" y="-27" font-family="Helvetica,sans-Serif" font-size="10.00" fill="#000000">Track</text>
</a>
</g>
</g>
<!-- Node32&#45;&gt;Node36 -->
<g id="edge36" class="edge">
<title>Node32&#45;&gt;Node36</title>
<path fill="none" stroke="#191970" d="M510.4717,-85.8556C518.7793,-83.5319 527.1838,-80.9046 535,-78 551.7681,-71.7687 554.5086,-66.9307 571,-60 579.2237,-56.5439 588.1089,-53.1844 596.7459,-50.1077"/>
<polygon fill="#191970" stroke="#191970" points="509.5601,-82.4762 500.8048,-88.4423 511.3696,-89.2383 509.5601,-82.4762"/>
</g>
</g>
</svg>
