<?xml version="1.0" encoding="UTF-8" standalone="no"?>
<!DOCTYPE svg PUBLIC "-//W3C//DTD SVG 1.1//EN"
 "http://www.w3.org/Graphics/SVG/1.1/DTD/svg11.dtd">
<!-- Generated by graphviz version 2.43.0 (0)
 -->
<!-- Title: tracktion_engine::MacroParameterElement Pages: 1 -->
<svg width="786pt" height="1498pt"
 viewBox="0.00 0.00 786.00 1497.50" xmlns="http://www.w3.org/2000/svg" xmlns:xlink="http://www.w3.org/1999/xlink">
<g id="graph0" class="graph" transform="scale(1 1) rotate(0) translate(4 1493.5)">
<title>tracktion_engine::MacroParameterElement</title>
<!-- Node1 -->
<g id="node1" class="node">
<title>Node1</title>
<g id="a_node1"><a xlink:title="Base class for elements which can contain macro parameters.">
<polygon fill="#bfbfbf" stroke="black" points="0,-788 0,-818 185,-818 185,-788 0,-788"/>
<text text-anchor="start" x="8" y="-806" font-family="Helvetica,sans-Serif" font-size="10.00">tracktion_engine::MacroParameter</text>
<text text-anchor="middle" x="92.5" y="-795" font-family="Helvetica,sans-Serif" font-size="10.00">Element</text>
</a>
</g>
</g>
<!-- Node2 -->
<g id="node2" class="node">
<title>Node2</title>
<g id="a_node2"><a xlink:href="structtracktion__engine_1_1Edit_1_1GlobalMacros.html" target="_top" xlink:title="Holds the global Macros for the Edit.">
<polygon fill="none" stroke="black" points="235,-851 235,-881 358,-881 358,-851 235,-851"/>
<text text-anchor="start" x="243" y="-869" font-family="Helvetica,sans-Serif" font-size="10.00">tracktion_engine::Edit</text>
<text text-anchor="middle" x="296.5" y="-858" font-family="Helvetica,sans-Serif" font-size="10.00">::GlobalMacros</text>
</a>
</g>
</g>
<!-- Node1&#45;&gt;Node2 -->
<g id="edge1" class="edge">
<title>Node1&#45;&gt;Node2</title>
<path fill="none" stroke="midnightblue" d="M151.26,-821.01C181.68,-830.5 218.54,-842 247.39,-851"/>
<polygon fill="midnightblue" stroke="midnightblue" points="152.22,-817.65 141.63,-818.01 150.13,-824.33 152.22,-817.65"/>
</g>
<!-- Node3 -->
<g id="node3" class="node">
<title>Node3</title>
<g id="a_node3"><a xlink:href="classtracktion__engine_1_1Plugin.html" target="_top" xlink:title=" ">
<polygon fill="none" stroke="black" points="229.5,-812.5 229.5,-831.5 363.5,-831.5 363.5,-812.5 229.5,-812.5"/>
<text text-anchor="middle" x="296.5" y="-819.5" font-family="Helvetica,sans-Serif" font-size="10.00">tracktion_engine::Plugin</text>
</a>
</g>
</g>
<!-- Node1&#45;&gt;Node3 -->
<g id="edge2" class="edge">
<title>Node1&#45;&gt;Node3</title>
<path fill="none" stroke="midnightblue" d="M195.22,-812.57C206.81,-813.66 218.39,-814.75 229.34,-815.78"/>
<polygon fill="midnightblue" stroke="midnightblue" points="195.33,-809.06 185.04,-811.61 194.67,-816.03 195.33,-809.06"/>
</g>
<!-- Node31 -->
<g id="node31" class="node">
<title>Node31</title>
<g id="a_node31"><a xlink:href="classtracktion__engine_1_1RackType.html" target="_top" xlink:title=" ">
<polygon fill="none" stroke="black" points="221,-774.5 221,-793.5 372,-793.5 372,-774.5 221,-774.5"/>
<text text-anchor="middle" x="296.5" y="-781.5" font-family="Helvetica,sans-Serif" font-size="10.00">tracktion_engine::RackType</text>
</a>
</g>
</g>
<!-- Node1&#45;&gt;Node31 -->
<g id="edge30" class="edge">
<title>Node1&#45;&gt;Node31</title>
<path fill="none" stroke="midnightblue" d="M195.2,-793.43C203.86,-792.62 212.52,-791.81 220.91,-791.02"/>
<polygon fill="midnightblue" stroke="midnightblue" points="194.67,-789.97 185.04,-794.39 195.33,-796.94 194.67,-789.97"/>
</g>
<!-- Node32 -->
<g id="node32" class="node">
<title>Node32</title>
<g id="a_node32"><a xlink:href="classtracktion__engine_1_1Track.html" target="_top" xlink:title="Base class for tracks which contain clips and plugins and can be added to Edit[s].">
<polygon fill="none" stroke="black" points="231.5,-115.5 231.5,-134.5 361.5,-134.5 361.5,-115.5 231.5,-115.5"/>
<text text-anchor="middle" x="296.5" y="-122.5" font-family="Helvetica,sans-Serif" font-size="10.00">tracktion_engine::Track</text>
</a>
</g>
</g>
<!-- Node1&#45;&gt;Node32 -->
<g id="edge31" class="edge">
<title>Node1&#45;&gt;Node32</title>
<path fill="none" stroke="midnightblue" d="M100.91,-778.11C134.4,-665.72 270.84,-207.77 292.58,-134.82"/>
<polygon fill="midnightblue" stroke="midnightblue" points="97.5,-777.31 98,-787.89 104.21,-779.3 97.5,-777.31"/>
</g>
<!-- Node4 -->
<g id="node4" class="node">
<title>Node4</title>
<g id="a_node4"><a xlink:href="classtracktion__engine_1_1AirWindowsPlugin.html" target="_top" xlink:title=" ">
<polygon fill="none" stroke="black" points="415,-1459 415,-1489 577,-1489 577,-1459 415,-1459"/>
<text text-anchor="start" x="423" y="-1477" font-family="Helvetica,sans-Serif" font-size="10.00">tracktion_engine::AirWindows</text>
<text text-anchor="middle" x="496" y="-1466" font-family="Helvetica,sans-Serif" font-size="10.00">Plugin</text>
</a>
</g>
</g>
<!-- Node3&#45;&gt;Node4 -->
<g id="edge3" class="edge">
<title>Node3&#45;&gt;Node4</title>
<path fill="none" stroke="midnightblue" d="M367.78,-837.56C369.29,-838.93 370.7,-840.4 372,-842 457.51,-946.92 322.85,-1344.79 408,-1450 410.76,-1453.41 413.96,-1456.36 417.46,-1458.91"/>
<polygon fill="midnightblue" stroke="midnightblue" points="369.7,-834.63 359.54,-831.62 365.6,-840.31 369.7,-834.63"/>
</g>
<!-- Node5 -->
<g id="node5" class="node">
<title>Node5</title>
<g id="a_node5"><a xlink:href="classtracktion__engine_1_1AuxReturnPlugin.html" target="_top" xlink:title=" ">
<polygon fill="none" stroke="black" points="418.5,-1410 418.5,-1440 573.5,-1440 573.5,-1410 418.5,-1410"/>
<text text-anchor="start" x="426.5" y="-1428" font-family="Helvetica,sans-Serif" font-size="10.00">tracktion_engine::AuxReturn</text>
<text text-anchor="middle" x="496" y="-1417" font-family="Helvetica,sans-Serif" font-size="10.00">Plugin</text>
</a>
</g>
</g>
<!-- Node3&#45;&gt;Node5 -->
<g id="edge4" class="edge">
<title>Node3&#45;&gt;Node5</title>
<path fill="none" stroke="midnightblue" d="M367.77,-837.57C369.28,-838.93 370.7,-840.41 372,-842 450.89,-938.29 329.44,-1304.44 408,-1401 410.97,-1404.65 414.43,-1407.77 418.24,-1410.44"/>
<polygon fill="midnightblue" stroke="midnightblue" points="369.68,-834.63 359.52,-831.64 365.59,-840.32 369.68,-834.63"/>
</g>
<!-- Node6 -->
<g id="node6" class="node">
<title>Node6</title>
<g id="a_node6"><a xlink:href="classtracktion__engine_1_1AuxSendPlugin.html" target="_top" xlink:title=" ">
<polygon fill="none" stroke="black" points="422.5,-1361 422.5,-1391 569.5,-1391 569.5,-1361 422.5,-1361"/>
<text text-anchor="start" x="430.5" y="-1379" font-family="Helvetica,sans-Serif" font-size="10.00">tracktion_engine::AuxSend</text>
<text text-anchor="middle" x="496" y="-1368" font-family="Helvetica,sans-Serif" font-size="10.00">Plugin</text>
</a>
</g>
</g>
<!-- Node3&#45;&gt;Node6 -->
<g id="edge5" class="edge">
<title>Node3&#45;&gt;Node6</title>
<path fill="none" stroke="midnightblue" d="M367.75,-837.58C369.27,-838.94 370.69,-840.41 372,-842 444.28,-929.66 336.03,-1264.09 408,-1352 411.97,-1356.85 416.82,-1360.77 422.19,-1363.93"/>
<polygon fill="midnightblue" stroke="midnightblue" points="369.66,-834.64 359.49,-831.66 365.58,-840.33 369.66,-834.64"/>
</g>
<!-- Node7 -->
<g id="node7" class="node">
<title>Node7</title>
<g id="a_node7"><a xlink:href="classtracktion__engine_1_1ChorusPlugin.html" target="_top" xlink:title=" ">
<polygon fill="none" stroke="black" points="427,-1312 427,-1342 565,-1342 565,-1312 427,-1312"/>
<text text-anchor="start" x="435" y="-1330" font-family="Helvetica,sans-Serif" font-size="10.00">tracktion_engine::Chorus</text>
<text text-anchor="middle" x="496" y="-1319" font-family="Helvetica,sans-Serif" font-size="10.00">Plugin</text>
</a>
</g>
</g>
<!-- Node3&#45;&gt;Node7 -->
<g id="edge6" class="edge">
<title>Node3&#45;&gt;Node7</title>
<path fill="none" stroke="midnightblue" d="M367.74,-837.59C369.26,-838.95 370.68,-840.42 372,-842 437.66,-921.04 342.61,-1223.74 408,-1303 413.09,-1309.16 419.6,-1313.82 426.77,-1317.34"/>
<polygon fill="midnightblue" stroke="midnightblue" points="369.63,-834.64 359.45,-831.69 365.57,-840.34 369.63,-834.64"/>
</g>
<!-- Node8 -->
<g id="node8" class="node">
<title>Node8</title>
<g id="a_node8"><a xlink:href="classtracktion__engine_1_1CompressorPlugin.html" target="_top" xlink:title=" ">
<polygon fill="none" stroke="black" points="414.5,-1263 414.5,-1293 577.5,-1293 577.5,-1263 414.5,-1263"/>
<text text-anchor="start" x="422.5" y="-1281" font-family="Helvetica,sans-Serif" font-size="10.00">tracktion_engine::Compressor</text>
<text text-anchor="middle" x="496" y="-1270" font-family="Helvetica,sans-Serif" font-size="10.00">Plugin</text>
</a>
</g>
</g>
<!-- Node3&#45;&gt;Node8 -->
<g id="edge7" class="edge">
<title>Node3&#45;&gt;Node8</title>
<path fill="none" stroke="midnightblue" d="M367.61,-837.51C369.17,-838.89 370.64,-840.38 372,-842 430.92,-912.24 349.7,-1182.24 408,-1253 411.2,-1256.88 414.96,-1260.18 419.08,-1262.99"/>
<polygon fill="midnightblue" stroke="midnightblue" points="369.26,-834.4 359.06,-831.53 365.25,-840.13 369.26,-834.4"/>
</g>
<!-- Node9 -->
<g id="node9" class="node">
<title>Node9</title>
<g id="a_node9"><a xlink:href="classtracktion__engine_1_1DelayPlugin.html" target="_top" xlink:title=" ">
<polygon fill="none" stroke="black" points="414.5,-1224.5 414.5,-1243.5 577.5,-1243.5 577.5,-1224.5 414.5,-1224.5"/>
<text text-anchor="middle" x="496" y="-1231.5" font-family="Helvetica,sans-Serif" font-size="10.00">tracktion_engine::DelayPlugin</text>
</a>
</g>
</g>
<!-- Node3&#45;&gt;Node9 -->
<g id="edge8" class="edge">
<title>Node3&#45;&gt;Node9</title>
<path fill="none" stroke="midnightblue" d="M367.59,-837.53C369.16,-838.9 370.64,-840.39 372,-842 425.8,-905.56 352.72,-1152.72 408,-1215 411.28,-1218.7 415.11,-1221.77 419.28,-1224.31"/>
<polygon fill="midnightblue" stroke="midnightblue" points="369.23,-834.41 359.02,-831.56 365.23,-840.15 369.23,-834.41"/>
</g>
<!-- Node10 -->
<g id="node10" class="node">
<title>Node10</title>
<g id="a_node10"><a xlink:href="classtracktion__engine_1_1EqualiserPlugin.html" target="_top" xlink:title=" ">
<polygon fill="none" stroke="black" points="421.5,-1175 421.5,-1205 570.5,-1205 570.5,-1175 421.5,-1175"/>
<text text-anchor="start" x="429.5" y="-1193" font-family="Helvetica,sans-Serif" font-size="10.00">tracktion_engine::Equaliser</text>
<text text-anchor="middle" x="496" y="-1182" font-family="Helvetica,sans-Serif" font-size="10.00">Plugin</text>
</a>
</g>
</g>
<!-- Node3&#45;&gt;Node10 -->
<g id="edge9" class="edge">
<title>Node3&#45;&gt;Node10</title>
<path fill="none" stroke="midnightblue" d="M367.56,-837.55C369.14,-838.92 370.63,-840.4 372,-842 466.4,-951.91 313.98,-1055.76 408,-1166 411.76,-1170.41 416.25,-1174.05 421.19,-1177.04"/>
<polygon fill="midnightblue" stroke="midnightblue" points="369.18,-834.42 358.96,-831.62 365.2,-840.18 369.18,-834.42"/>
</g>
<!-- Node11 -->
<g id="node11" class="node">
<title>Node11</title>
<g id="a_node11"><a xlink:href="classtracktion__engine_1_1ExternalPlugin.html" target="_top" xlink:title=" ">
<polygon fill="none" stroke="black" points="423.5,-1126 423.5,-1156 568.5,-1156 568.5,-1126 423.5,-1126"/>
<text text-anchor="start" x="431.5" y="-1144" font-family="Helvetica,sans-Serif" font-size="10.00">tracktion_engine::External</text>
<text text-anchor="middle" x="496" y="-1133" font-family="Helvetica,sans-Serif" font-size="10.00">Plugin</text>
</a>
</g>
</g>
<!-- Node3&#45;&gt;Node11 -->
<g id="edge10" class="edge">
<title>Node3&#45;&gt;Node11</title>
<path fill="none" stroke="midnightblue" d="M366.99,-837.15C368.78,-838.63 370.46,-840.24 372,-842 453.22,-934.72 327.1,-1024 408,-1117 412.32,-1121.97 417.56,-1125.95 423.31,-1129.13"/>
<polygon fill="midnightblue" stroke="midnightblue" points="368.78,-834.14 358.52,-831.5 364.9,-839.96 368.78,-834.14"/>
</g>
<!-- Node12 -->
<g id="node12" class="node">
<title>Node12</title>
<g id="a_node12"><a xlink:href="classtracktion__engine_1_1FourOscPlugin.html" target="_top" xlink:title=" ">
<polygon fill="none" stroke="black" points="424.5,-1077 424.5,-1107 567.5,-1107 567.5,-1077 424.5,-1077"/>
<text text-anchor="start" x="432.5" y="-1095" font-family="Helvetica,sans-Serif" font-size="10.00">tracktion_engine::FourOsc</text>
<text text-anchor="middle" x="496" y="-1084" font-family="Helvetica,sans-Serif" font-size="10.00">Plugin</text>
</a>
</g>
</g>
<!-- Node3&#45;&gt;Node12 -->
<g id="edge11" class="edge">
<title>Node3&#45;&gt;Node12</title>
<path fill="none" stroke="midnightblue" d="M366.93,-837.21C368.74,-838.67 370.43,-840.26 372,-842 440.07,-917.57 340.19,-992.19 408,-1068 412.6,-1073.14 418.18,-1077.22 424.28,-1080.45"/>
<polygon fill="midnightblue" stroke="midnightblue" points="368.68,-834.17 358.4,-831.61 364.84,-840.02 368.68,-834.17"/>
</g>
<!-- Node13 -->
<g id="node13" class="node">
<title>Node13</title>
<g id="a_node13"><a xlink:href="classtracktion__engine_1_1FreezePointPlugin.html" target="_top" xlink:title=" ">
<polygon fill="none" stroke="black" points="427.5,-1028 427.5,-1058 564.5,-1058 564.5,-1028 427.5,-1028"/>
<text text-anchor="start" x="435.5" y="-1046" font-family="Helvetica,sans-Serif" font-size="10.00">tracktion_engine::Freeze</text>
<text text-anchor="middle" x="496" y="-1035" font-family="Helvetica,sans-Serif" font-size="10.00">PointPlugin</text>
</a>
</g>
</g>
<!-- Node3&#45;&gt;Node13 -->
<g id="edge12" class="edge">
<title>Node3&#45;&gt;Node13</title>
<path fill="none" stroke="midnightblue" d="M366.7,-837.19C368.59,-838.66 370.36,-840.26 372,-842 426.99,-900.49 353.21,-960.32 408,-1019 413.45,-1024.84 420.19,-1029.31 427.47,-1032.71"/>
<polygon fill="midnightblue" stroke="midnightblue" points="368.17,-833.98 357.85,-831.6 364.43,-839.9 368.17,-833.98"/>
</g>
<!-- Node14 -->
<g id="node14" class="node">
<title>Node14</title>
<g id="a_node14"><a xlink:href="classtracktion__engine_1_1ImpulseResponsePlugin.html" target="_top" xlink:title="ImpulseResponsePlugin that loads an impulse response and applies it the audio stream.">
<polygon fill="none" stroke="black" points="424.5,-979 424.5,-1009 567.5,-1009 567.5,-979 424.5,-979"/>
<text text-anchor="start" x="432.5" y="-997" font-family="Helvetica,sans-Serif" font-size="10.00">tracktion_engine::Impulse</text>
<text text-anchor="middle" x="496" y="-986" font-family="Helvetica,sans-Serif" font-size="10.00">ResponsePlugin</text>
</a>
</g>
</g>
<!-- Node3&#45;&gt;Node14 -->
<g id="edge13" class="edge">
<title>Node3&#45;&gt;Node14</title>
<path fill="none" stroke="midnightblue" d="M365.81,-836.82C368.01,-838.39 370.08,-840.11 372,-842 414.04,-883.54 366.11,-928.32 408,-970 412.78,-974.75 418.4,-978.58 424.46,-981.67"/>
<polygon fill="midnightblue" stroke="midnightblue" points="367.2,-833.58 356.8,-831.55 363.67,-839.63 367.2,-833.58"/>
</g>
<!-- Node15 -->
<g id="node15" class="node">
<title>Node15</title>
<g id="a_node15"><a xlink:href="classtracktion__engine_1_1InsertPlugin.html" target="_top" xlink:title=" ">
<polygon fill="none" stroke="black" points="430,-930 430,-960 562,-960 562,-930 430,-930"/>
<text text-anchor="start" x="438" y="-948" font-family="Helvetica,sans-Serif" font-size="10.00">tracktion_engine::Insert</text>
<text text-anchor="middle" x="496" y="-937" font-family="Helvetica,sans-Serif" font-size="10.00">Plugin</text>
</a>
</g>
</g>
<!-- Node3&#45;&gt;Node15 -->
<g id="edge14" class="edge">
<title>Node3&#45;&gt;Node15</title>
<path fill="none" stroke="midnightblue" d="M363.77,-836.18C366.68,-837.9 369.45,-839.84 372,-842 401.44,-866.94 378.64,-895.96 408,-921 414.32,-926.39 421.75,-930.58 429.56,-933.83"/>
<polygon fill="midnightblue" stroke="midnightblue" points="365.17,-832.97 354.66,-831.6 362.02,-839.22 365.17,-832.97"/>
</g>
<!-- Node16 -->
<g id="node16" class="node">
<title>Node16</title>
<g id="a_node16"><a xlink:href="classtracktion__engine_1_1LatencyPlugin.html" target="_top" xlink:title="A test plugin that introduces latency to the incomming signal.">
<polygon fill="none" stroke="black" points="424.5,-881 424.5,-911 567.5,-911 567.5,-881 424.5,-881"/>
<text text-anchor="start" x="432.5" y="-899" font-family="Helvetica,sans-Serif" font-size="10.00">tracktion_engine::Latency</text>
<text text-anchor="middle" x="496" y="-888" font-family="Helvetica,sans-Serif" font-size="10.00">Plugin</text>
</a>
</g>
</g>
<!-- Node3&#45;&gt;Node16 -->
<g id="edge15" class="edge">
<title>Node3&#45;&gt;Node16</title>
<path fill="none" stroke="midnightblue" d="M355.31,-834.82C361.08,-836.89 366.75,-839.27 372,-842 390.49,-851.59 389.55,-862.35 408,-872 414.53,-875.41 421.59,-878.38 428.77,-880.96"/>
<polygon fill="midnightblue" stroke="midnightblue" points="356.14,-831.41 345.55,-831.61 353.96,-838.06 356.14,-831.41"/>
</g>
<!-- Node17 -->
<g id="node17" class="node">
<title>Node17</title>
<g id="a_node17"><a xlink:href="classtracktion__engine_1_1LevelMeterPlugin.html" target="_top" xlink:title=" ">
<polygon fill="none" stroke="black" points="416.5,-832 416.5,-862 575.5,-862 575.5,-832 416.5,-832"/>
<text text-anchor="start" x="424.5" y="-850" font-family="Helvetica,sans-Serif" font-size="10.00">tracktion_engine::LevelMeter</text>
<text text-anchor="middle" x="496" y="-839" font-family="Helvetica,sans-Serif" font-size="10.00">Plugin</text>
</a>
</g>
</g>
<!-- Node3&#45;&gt;Node17 -->
<g id="edge16" class="edge">
<title>Node3&#45;&gt;Node17</title>
<path fill="none" stroke="midnightblue" d="M373.61,-831.63C387.62,-833.41 402.27,-835.26 416.35,-837.04"/>
<polygon fill="midnightblue" stroke="midnightblue" points="373.9,-828.14 363.54,-830.36 373.02,-835.09 373.9,-828.14"/>
</g>
<!-- Node18 -->
<g id="node18" class="node">
<title>Node18</title>
<g id="a_node18"><a xlink:href="classtracktion__engine_1_1LowPassPlugin.html" target="_top" xlink:title=" ">
<polygon fill="none" stroke="black" points="423,-783 423,-813 569,-813 569,-783 423,-783"/>
<text text-anchor="start" x="431" y="-801" font-family="Helvetica,sans-Serif" font-size="10.00">tracktion_engine::LowPass</text>
<text text-anchor="middle" x="496" y="-790" font-family="Helvetica,sans-Serif" font-size="10.00">Plugin</text>
</a>
</g>
</g>
<!-- Node3&#45;&gt;Node18 -->
<g id="edge17" class="edge">
<title>Node3&#45;&gt;Node18</title>
<path fill="none" stroke="midnightblue" d="M373.51,-812.76C389.74,-810.79 406.84,-808.71 422.91,-806.76"/>
<polygon fill="midnightblue" stroke="midnightblue" points="373.04,-809.29 363.54,-813.97 373.89,-816.24 373.04,-809.29"/>
</g>
<!-- Node19 -->
<g id="node19" class="node">
<title>Node19</title>
<g id="a_node19"><a xlink:href="classtracktion__engine_1_1MidiModifierPlugin.html" target="_top" xlink:title=" ">
<polygon fill="none" stroke="black" points="413.5,-734 413.5,-764 578.5,-764 578.5,-734 413.5,-734"/>
<text text-anchor="start" x="421.5" y="-752" font-family="Helvetica,sans-Serif" font-size="10.00">tracktion_engine::MidiModifier</text>
<text text-anchor="middle" x="496" y="-741" font-family="Helvetica,sans-Serif" font-size="10.00">Plugin</text>
</a>
</g>
</g>
<!-- Node3&#45;&gt;Node19 -->
<g id="edge18" class="edge">
<title>Node3&#45;&gt;Node19</title>
<path fill="none" stroke="midnightblue" d="M357.3,-809.21C362.38,-807.39 367.34,-805.33 372,-803 390.37,-793.81 389.77,-783.47 408,-774 415.25,-770.23 423.15,-766.97 431.13,-764.15"/>
<polygon fill="midnightblue" stroke="midnightblue" points="355.89,-805.99 347.47,-812.42 358.06,-812.64 355.89,-805.99"/>
</g>
<!-- Node20 -->
<g id="node20" class="node">
<title>Node20</title>
<g id="a_node20"><a xlink:href="classtracktion__engine_1_1MidiPatchBayPlugin.html" target="_top" xlink:title=" ">
<polygon fill="none" stroke="black" points="420,-685 420,-715 572,-715 572,-685 420,-685"/>
<text text-anchor="start" x="428" y="-703" font-family="Helvetica,sans-Serif" font-size="10.00">tracktion_engine::MidiPatch</text>
<text text-anchor="middle" x="496" y="-692" font-family="Helvetica,sans-Serif" font-size="10.00">BayPlugin</text>
</a>
</g>
</g>
<!-- Node3&#45;&gt;Node20 -->
<g id="edge19" class="edge">
<title>Node3&#45;&gt;Node20</title>
<path fill="none" stroke="midnightblue" d="M365.58,-807.62C367.83,-806.22 369.98,-804.68 372,-803 401.35,-778.58 379.02,-749.86 408,-725 412.53,-721.11 417.64,-717.83 423.04,-715.05"/>
<polygon fill="midnightblue" stroke="midnightblue" points="363.72,-804.64 356.49,-812.39 366.98,-810.84 363.72,-804.64"/>
</g>
<!-- Node21 -->
<g id="node21" class="node">
<title>Node21</title>
<g id="a_node21"><a xlink:href="classtracktion__engine_1_1PatchBayPlugin.html" target="_top" xlink:title=" ">
<polygon fill="none" stroke="black" points="421.5,-636 421.5,-666 570.5,-666 570.5,-636 421.5,-636"/>
<text text-anchor="start" x="429.5" y="-654" font-family="Helvetica,sans-Serif" font-size="10.00">tracktion_engine::PatchBay</text>
<text text-anchor="middle" x="496" y="-643" font-family="Helvetica,sans-Serif" font-size="10.00">Plugin</text>
</a>
</g>
</g>
<!-- Node3&#45;&gt;Node21 -->
<g id="edge20" class="edge">
<title>Node3&#45;&gt;Node21</title>
<path fill="none" stroke="midnightblue" d="M367.33,-806.99C368.97,-805.76 370.53,-804.43 372,-803 414.03,-762.07 366.59,-717.56 408,-676 411.88,-672.1 416.33,-668.81 421.11,-666.01"/>
<polygon fill="midnightblue" stroke="midnightblue" points="365.26,-804.16 358.58,-812.39 368.93,-810.12 365.26,-804.16"/>
</g>
<!-- Node22 -->
<g id="node22" class="node">
<title>Node22</title>
<g id="a_node22"><a xlink:href="classtracktion__engine_1_1PhaserPlugin.html" target="_top" xlink:title=" ">
<polygon fill="none" stroke="black" points="427.5,-587 427.5,-617 564.5,-617 564.5,-587 427.5,-587"/>
<text text-anchor="start" x="435.5" y="-605" font-family="Helvetica,sans-Serif" font-size="10.00">tracktion_engine::Phaser</text>
<text text-anchor="middle" x="496" y="-594" font-family="Helvetica,sans-Serif" font-size="10.00">Plugin</text>
</a>
</g>
</g>
<!-- Node3&#45;&gt;Node22 -->
<g id="edge21" class="edge">
<title>Node3&#45;&gt;Node22</title>
<path fill="none" stroke="midnightblue" d="M368.08,-806.64C369.46,-805.51 370.77,-804.3 372,-803 427.09,-745.21 353.79,-685.62 408,-627 413.44,-621.12 420.17,-616.58 427.45,-613.1"/>
<polygon fill="midnightblue" stroke="midnightblue" points="365.97,-803.84 359.6,-812.31 369.86,-809.66 365.97,-803.84"/>
</g>
<!-- Node23 -->
<g id="node23" class="node">
<title>Node23</title>
<g id="a_node23"><a xlink:href="classtracktion__engine_1_1PitchShiftPlugin.html" target="_top" xlink:title=" ">
<polygon fill="none" stroke="black" points="421,-538 421,-568 571,-568 571,-538 421,-538"/>
<text text-anchor="start" x="429" y="-556" font-family="Helvetica,sans-Serif" font-size="10.00">tracktion_engine::PitchShift</text>
<text text-anchor="middle" x="496" y="-545" font-family="Helvetica,sans-Serif" font-size="10.00">Plugin</text>
</a>
</g>
</g>
<!-- Node3&#45;&gt;Node23 -->
<g id="edge22" class="edge">
<title>Node3&#45;&gt;Node23</title>
<path fill="none" stroke="midnightblue" d="M368.16,-806.71C369.51,-805.56 370.79,-804.32 372,-803 440.28,-728.21 340.86,-653.81 408,-578 411.75,-573.76 416.17,-570.23 420.99,-567.27"/>
<polygon fill="midnightblue" stroke="midnightblue" points="366.03,-803.93 359.77,-812.48 370,-809.69 366.03,-803.93"/>
</g>
<!-- Node24 -->
<g id="node24" class="node">
<title>Node24</title>
<g id="a_node24"><a xlink:href="classtracktion__engine_1_1RackInstance.html" target="_top" xlink:title=" ">
<polygon fill="none" stroke="black" points="411,-499.5 411,-518.5 581,-518.5 581,-499.5 411,-499.5"/>
<text text-anchor="middle" x="496" y="-506.5" font-family="Helvetica,sans-Serif" font-size="10.00">tracktion_engine::RackInstance</text>
</a>
</g>
</g>
<!-- Node3&#45;&gt;Node24 -->
<g id="edge23" class="edge">
<title>Node3&#45;&gt;Node24</title>
<path fill="none" stroke="midnightblue" d="M368.66,-806.35C369.83,-805.3 370.95,-804.19 372,-803 453.53,-711.14 325.39,-619.89 408,-529 411.86,-524.76 416.42,-521.32 421.39,-518.55"/>
<polygon fill="midnightblue" stroke="midnightblue" points="366.33,-803.72 360.24,-812.38 370.41,-809.41 366.33,-803.72"/>
</g>
<!-- Node25 -->
<g id="node25" class="node">
<title>Node25</title>
<g id="a_node25"><a xlink:href="classtracktion__engine_1_1ReverbPlugin.html" target="_top" xlink:title=" ">
<polygon fill="none" stroke="black" points="426.5,-450 426.5,-480 565.5,-480 565.5,-450 426.5,-450"/>
<text text-anchor="start" x="434.5" y="-468" font-family="Helvetica,sans-Serif" font-size="10.00">tracktion_engine::Reverb</text>
<text text-anchor="middle" x="496" y="-457" font-family="Helvetica,sans-Serif" font-size="10.00">Plugin</text>
</a>
</g>
</g>
<!-- Node3&#45;&gt;Node25 -->
<g id="edge24" class="edge">
<title>Node3&#45;&gt;Node25</title>
<path fill="none" stroke="midnightblue" d="M368.69,-806.38C369.85,-805.32 370.96,-804.19 372,-803 464.1,-697.52 317.5,-596.85 408,-490 412.98,-484.12 419.24,-479.58 426.1,-476.08"/>
<polygon fill="midnightblue" stroke="midnightblue" points="366.35,-803.75 360.31,-812.44 370.46,-809.42 366.35,-803.75"/>
</g>
<!-- Node26 -->
<g id="node26" class="node">
<title>Node26</title>
<g id="a_node26"><a xlink:href="classtracktion__engine_1_1SamplerPlugin.html" target="_top" xlink:title=" ">
<polygon fill="none" stroke="black" points="423.5,-401 423.5,-431 568.5,-431 568.5,-401 423.5,-401"/>
<text text-anchor="start" x="431.5" y="-419" font-family="Helvetica,sans-Serif" font-size="10.00">tracktion_engine::Sampler</text>
<text text-anchor="middle" x="496" y="-408" font-family="Helvetica,sans-Serif" font-size="10.00">Plugin</text>
</a>
</g>
</g>
<!-- Node3&#45;&gt;Node26 -->
<g id="edge25" class="edge">
<title>Node3&#45;&gt;Node26</title>
<path fill="none" stroke="midnightblue" d="M368.71,-806.4C369.87,-805.33 370.97,-804.2 372,-803 477.4,-680.4 304.45,-565.18 408,-441 412.23,-435.93 417.41,-431.85 423.12,-428.57"/>
<polygon fill="midnightblue" stroke="midnightblue" points="366.38,-803.77 360.37,-812.5 370.51,-809.42 366.38,-803.77"/>
</g>
<!-- Node27 -->
<g id="node27" class="node">
<title>Node27</title>
<g id="a_node27"><a xlink:href="classtracktion__engine_1_1TextPlugin.html" target="_top" xlink:title=" ">
<polygon fill="none" stroke="black" points="418.5,-362.5 418.5,-381.5 573.5,-381.5 573.5,-362.5 418.5,-362.5"/>
<text text-anchor="middle" x="496" y="-369.5" font-family="Helvetica,sans-Serif" font-size="10.00">tracktion_engine::TextPlugin</text>
</a>
</g>
</g>
<!-- Node3&#45;&gt;Node27 -->
<g id="edge26" class="edge">
<title>Node3&#45;&gt;Node27</title>
<path fill="none" stroke="midnightblue" d="M368.82,-806.33C369.94,-805.28 371,-804.18 372,-803 431.36,-733.13 347.81,-461.16 408,-392 411.66,-387.79 416.02,-384.37 420.79,-381.6"/>
<polygon fill="midnightblue" stroke="midnightblue" points="366.69,-803.56 360.76,-812.34 370.87,-809.17 366.69,-803.56"/>
</g>
<!-- Node28 -->
<g id="node28" class="node">
<title>Node28</title>
<g id="a_node28"><a xlink:href="classtracktion__engine_1_1ToneGeneratorPlugin.html" target="_top" xlink:title=" ">
<polygon fill="none" stroke="black" points="408,-313 408,-343 584,-343 584,-313 408,-313"/>
<text text-anchor="start" x="416" y="-331" font-family="Helvetica,sans-Serif" font-size="10.00">tracktion_engine::ToneGenerator</text>
<text text-anchor="middle" x="496" y="-320" font-family="Helvetica,sans-Serif" font-size="10.00">Plugin</text>
</a>
</g>
</g>
<!-- Node3&#45;&gt;Node28 -->
<g id="edge27" class="edge">
<title>Node3&#45;&gt;Node28</title>
<path fill="none" stroke="midnightblue" d="M368.84,-806.34C369.95,-805.29 371.01,-804.18 372,-803 436.66,-726.3 344.5,-430.66 408,-353 411.08,-349.23 414.7,-346 418.66,-343.25"/>
<polygon fill="midnightblue" stroke="midnightblue" points="366.7,-803.57 360.79,-812.37 370.89,-809.17 366.7,-803.57"/>
</g>
<!-- Node29 -->
<g id="node29" class="node">
<title>Node29</title>
<g id="a_node29"><a xlink:href="classtracktion__engine_1_1VCAPlugin.html" target="_top" xlink:title="The VCA plugin sits on a folder track to control the overall level of all the volume/pan plugins in i...">
<polygon fill="none" stroke="black" points="418.5,-274.5 418.5,-293.5 573.5,-293.5 573.5,-274.5 418.5,-274.5"/>
<text text-anchor="middle" x="496" y="-281.5" font-family="Helvetica,sans-Serif" font-size="10.00">tracktion_engine::VCAPlugin</text>
</a>
</g>
</g>
<!-- Node3&#45;&gt;Node29 -->
<g id="edge28" class="edge">
<title>Node3&#45;&gt;Node29</title>
<path fill="none" stroke="midnightblue" d="M368.85,-806.35C369.96,-805.3 371.01,-804.18 372,-803 443.33,-717.72 335.66,-388.43 408,-304 411.63,-299.76 415.96,-296.32 420.72,-293.54"/>
<polygon fill="midnightblue" stroke="midnightblue" points="366.71,-803.58 360.82,-812.39 370.92,-809.17 366.71,-803.58"/>
</g>
<!-- Node30 -->
<g id="node30" class="node">
<title>Node30</title>
<g id="a_node30"><a xlink:href="classtracktion__engine_1_1VolumeAndPanPlugin.html" target="_top" xlink:title="The built&#45;in Tracktion volume/pan plugin.">
<polygon fill="none" stroke="black" points="425.5,-225 425.5,-255 566.5,-255 566.5,-225 425.5,-225"/>
<text text-anchor="start" x="433.5" y="-243" font-family="Helvetica,sans-Serif" font-size="10.00">tracktion_engine::Volume</text>
<text text-anchor="middle" x="496" y="-232" font-family="Helvetica,sans-Serif" font-size="10.00">AndPanPlugin</text>
</a>
</g>
</g>
<!-- Node3&#45;&gt;Node30 -->
<g id="edge29" class="edge">
<title>Node3&#45;&gt;Node30</title>
<path fill="none" stroke="midnightblue" d="M368.86,-806.36C369.96,-805.3 371.01,-804.19 372,-803 448.64,-710.89 332.76,-358.25 408,-265 412.74,-259.13 418.76,-254.58 425.41,-251.07"/>
<polygon fill="midnightblue" stroke="midnightblue" points="366.71,-803.59 360.85,-812.41 370.93,-809.18 366.71,-803.59"/>
</g>
<!-- Node33 -->
<g id="node33" class="node">
<title>Node33</title>
<g id="a_node33"><a xlink:href="classtracktion__engine_1_1AutomationTrack.html" target="_top" xlink:title=" ">
<polygon fill="none" stroke="black" points="415.5,-176 415.5,-206 576.5,-206 576.5,-176 415.5,-176"/>
<text text-anchor="start" x="423.5" y="-194" font-family="Helvetica,sans-Serif" font-size="10.00">tracktion_engine::Automation</text>
<text text-anchor="middle" x="496" y="-183" font-family="Helvetica,sans-Serif" font-size="10.00">Track</text>
</a>
</g>
</g>
<!-- Node32&#45;&gt;Node33 -->
<g id="edge32" class="edge">
<title>Node32&#45;&gt;Node33</title>
<path fill="none" stroke="midnightblue" d="M331.34,-138.31C353.09,-146.68 382.04,-157.47 408,-166 418.3,-169.39 429.37,-172.76 440.04,-175.89"/>
<polygon fill="midnightblue" stroke="midnightblue" points="332.48,-135 321.89,-134.65 329.95,-141.53 332.48,-135"/>
</g>
<!-- Node34 -->
<g id="node34" class="node">
<title>Node34</title>
<g id="a_node34"><a xlink:href="classtracktion__engine_1_1ClipTrack.html" target="_top" xlink:title=" ">
<polygon fill="none" stroke="black" points="421.5,-137.5 421.5,-156.5 570.5,-156.5 570.5,-137.5 421.5,-137.5"/>
<text text-anchor="middle" x="496" y="-144.5" font-family="Helvetica,sans-Serif" font-size="10.00">tracktion_engine::ClipTrack</text>
</a>
</g>
</g>
<!-- Node32&#45;&gt;Node34 -->
<g id="edge33" class="edge">
<title>Node32&#45;&gt;Node34</title>
<path fill="none" stroke="midnightblue" d="M371.59,-133.25C387.84,-135.06 405.03,-136.98 421.25,-138.79"/>
<polygon fill="midnightblue" stroke="midnightblue" points="371.95,-129.77 361.62,-132.14 371.17,-136.73 371.95,-129.77"/>
</g>
<!-- Node39 -->
<g id="node39" class="node">
<title>Node39</title>
<g id="a_node39"><a xlink:href="classtracktion__engine_1_1FolderTrack.html" target="_top" xlink:title=" ">
<polygon fill="none" stroke="black" points="429,-88 429,-118 563,-118 563,-88 429,-88"/>
<text text-anchor="start" x="437" y="-106" font-family="Helvetica,sans-Serif" font-size="10.00">tracktion_engine::Folder</text>
<text text-anchor="middle" x="496" y="-95" font-family="Helvetica,sans-Serif" font-size="10.00">Track</text>
</a>
</g>
</g>
<!-- Node32&#45;&gt;Node39 -->
<g id="edge38" class="edge">
<title>Node32&#45;&gt;Node39</title>
<path fill="none" stroke="midnightblue" d="M371.61,-116.74C390.4,-114.65 410.46,-112.42 428.83,-110.37"/>
<polygon fill="midnightblue" stroke="midnightblue" points="371.17,-113.27 361.62,-117.86 371.95,-120.23 371.17,-113.27"/>
</g>
<!-- Node40 -->
<g id="node40" class="node">
<title>Node40</title>
<g id="a_node40"><a xlink:href="classtracktion__engine_1_1MasterTrack.html" target="_top" xlink:title="A track to represent the master plugins.">
<polygon fill="none" stroke="black" points="427,-39 427,-69 565,-69 565,-39 427,-39"/>
<text text-anchor="start" x="435" y="-57" font-family="Helvetica,sans-Serif" font-size="10.00">tracktion_engine::Master</text>
<text text-anchor="middle" x="496" y="-46" font-family="Helvetica,sans-Serif" font-size="10.00">Track</text>
</a>
</g>
</g>
<!-- Node32&#45;&gt;Node40 -->
<g id="edge39" class="edge">
<title>Node32&#45;&gt;Node40</title>
<path fill="none" stroke="midnightblue" d="M327.1,-111.14C349.11,-101.14 380.05,-87.75 408,-78 417.02,-74.85 426.69,-71.84 436.17,-69.08"/>
<polygon fill="midnightblue" stroke="midnightblue" points="325.58,-107.98 317.95,-115.33 328.5,-114.35 325.58,-107.98"/>
</g>
<!-- Node41 -->
<g id="node41" class="node">
<title>Node41</title>
<g id="a_node41"><a xlink:href="classtracktion__engine_1_1TempoTrack.html" target="_top" xlink:title="A track to represent the &quot;global&quot; items such as tempo, key changes etc.">
<polygon fill="none" stroke="black" points="415,-0.5 415,-19.5 577,-19.5 577,-0.5 415,-0.5"/>
<text text-anchor="middle" x="496" y="-7.5" font-family="Helvetica,sans-Serif" font-size="10.00">tracktion_engine::TempoTrack</text>
</a>
</g>
</g>
<!-- Node32&#45;&gt;Node41 -->
<g id="edge40" class="edge">
<title>Node32&#45;&gt;Node41</title>
<path fill="none" stroke="midnightblue" d="M312.15,-107.79C331.72,-85.97 368.53,-48.81 408,-29 415.74,-25.12 424.25,-22.02 432.84,-19.56"/>
<polygon fill="midnightblue" stroke="midnightblue" points="309.5,-105.51 305.53,-115.33 314.76,-110.13 309.5,-105.51"/>
</g>
<!-- Node35 -->
<g id="node35" class="node">
<title>Node35</title>
<g id="a_node35"><a xlink:href="classtracktion__engine_1_1ArrangerTrack.html" target="_top" xlink:title="A track similar to the MarkerTrack but can be used to move sections of an Edit around.">
<polygon fill="none" stroke="black" points="626,-195 626,-225 772,-225 772,-195 626,-195"/>
<text text-anchor="start" x="634" y="-213" font-family="Helvetica,sans-Serif" font-size="10.00">tracktion_engine::Arranger</text>
<text text-anchor="middle" x="699" y="-202" font-family="Helvetica,sans-Serif" font-size="10.00">Track</text>
</a>
</g>
</g>
<!-- Node34&#45;&gt;Node35 -->
<g id="edge34" class="edge">
<title>Node34&#45;&gt;Node35</title>
<path fill="none" stroke="midnightblue" d="M557.72,-159.01C566.64,-161.33 575.63,-163.99 584,-167 600.84,-173.05 603.43,-178.25 620,-185 628.69,-188.54 638.09,-191.92 647.24,-194.98"/>
<polygon fill="midnightblue" stroke="midnightblue" points="558.28,-155.54 547.73,-156.53 556.6,-162.33 558.28,-155.54"/>
</g>
<!-- Node36 -->
<g id="node36" class="node">
<title>Node36</title>
<g id="a_node36"><a xlink:href="classtracktion__engine_1_1AudioTrack.html" target="_top" xlink:title=" ">
<polygon fill="none" stroke="black" points="620,-156.5 620,-175.5 778,-175.5 778,-156.5 620,-156.5"/>
<text text-anchor="middle" x="699" y="-163.5" font-family="Helvetica,sans-Serif" font-size="10.00">tracktion_engine::AudioTrack</text>
</a>
</g>
</g>
<!-- Node34&#45;&gt;Node36 -->
<g id="edge35" class="edge">
<title>Node34&#45;&gt;Node36</title>
<path fill="none" stroke="midnightblue" d="M580.96,-154.94C593.86,-156.16 607.14,-157.41 619.91,-158.62"/>
<polygon fill="midnightblue" stroke="midnightblue" points="580.99,-151.42 570.7,-153.97 580.33,-158.39 580.99,-151.42"/>
</g>
<!-- Node37 -->
<g id="node37" class="node">
<title>Node37</title>
<g id="a_node37"><a xlink:href="classtracktion__engine_1_1ChordTrack.html" target="_top" xlink:title=" ">
<polygon fill="none" stroke="black" points="620,-118.5 620,-137.5 778,-137.5 778,-118.5 620,-118.5"/>
<text text-anchor="middle" x="699" y="-125.5" font-family="Helvetica,sans-Serif" font-size="10.00">tracktion_engine::ChordTrack</text>
</a>
</g>
</g>
<!-- Node34&#45;&gt;Node37 -->
<g id="edge36" class="edge">
<title>Node34&#45;&gt;Node37</title>
<path fill="none" stroke="midnightblue" d="M580.96,-139.06C593.86,-137.84 607.14,-136.59 619.91,-135.38"/>
<polygon fill="midnightblue" stroke="midnightblue" points="580.33,-135.61 570.7,-140.03 580.99,-142.58 580.33,-135.61"/>
</g>
<!-- Node38 -->
<g id="node38" class="node">
<title>Node38</title>
<g id="a_node38"><a xlink:href="classtracktion__engine_1_1MarkerTrack.html" target="_top" xlink:title=" ">
<polygon fill="none" stroke="black" points="630,-69 630,-99 768,-99 768,-69 630,-69"/>
<text text-anchor="start" x="638" y="-87" font-family="Helvetica,sans-Serif" font-size="10.00">tracktion_engine::Marker</text>
<text text-anchor="middle" x="699" y="-76" font-family="Helvetica,sans-Serif" font-size="10.00">Track</text>
</a>
</g>
</g>
<!-- Node34&#45;&gt;Node38 -->
<g id="edge37" class="edge">
<title>Node34&#45;&gt;Node38</title>
<path fill="none" stroke="midnightblue" d="M557.72,-134.99C566.64,-132.67 575.63,-130.01 584,-127 600.84,-120.95 603.43,-115.75 620,-109 628.69,-105.46 638.09,-102.08 647.24,-99.02"/>
<polygon fill="midnightblue" stroke="midnightblue" points="556.6,-131.67 547.73,-137.47 558.28,-138.46 556.6,-131.67"/>
</g>
</g>
</svg>
