<?xml version="1.0" encoding="UTF-8" standalone="no"?>
<!DOCTYPE svg PUBLIC "-//W3C//DTD SVG 1.1//EN"
 "http://www.w3.org/Graphics/SVG/1.1/DTD/svg11.dtd">
<!-- Generated by graphviz version 2.43.0 (0)
 -->
<!-- Title: tracktion_engine::InputDevice Pages: 1 -->
<svg width="735pt" height="112pt"
 viewBox="0.00 0.00 735.00 112.00" xmlns="http://www.w3.org/2000/svg" xmlns:xlink="http://www.w3.org/1999/xlink">
<g id="graph0" class="graph" transform="scale(1 1) rotate(0) translate(4 108)">
<title>tracktion_engine::InputDevice</title>
<!-- Node1 -->
<g id="node1" class="node">
<title>Node1</title>
<g id="a_node1"><a xlink:title="Represents an input device.">
<polygon fill="#bfbfbf" stroke="black" points="191,-30 191,-49 354,-49 354,-30 191,-30"/>
<text text-anchor="middle" x="272.5" y="-37" font-family="Helvetica,sans-Serif" font-size="10.00">tracktion_engine::InputDevice</text>
</a>
</g>
</g>
<!-- Node3 -->
<g id="node3" class="node">
<title>Node3</title>
<g id="a_node3"><a xlink:href="classtracktion__engine_1_1MidiInputDevice.html" target="_top" xlink:title=" ">
<polygon fill="none" stroke="black" points="393,-49.5 393,-79.5 543,-79.5 543,-49.5 393,-49.5"/>
<text text-anchor="start" x="401" y="-67.5" font-family="Helvetica,sans-Serif" font-size="10.00">tracktion_engine::MidiInput</text>
<text text-anchor="middle" x="468" y="-56.5" font-family="Helvetica,sans-Serif" font-size="10.00">Device</text>
</a>
</g>
</g>
<!-- Node1&#45;&gt;Node3 -->
<g id="edge2" class="edge">
<title>Node1&#45;&gt;Node3</title>
<path fill="none" stroke="midnightblue" d="M357.47,-50.35C369.25,-51.87 381.28,-53.43 392.86,-54.92"/>
<polygon fill="midnightblue" stroke="midnightblue" points="357.57,-46.83 347.21,-49.02 356.68,-53.78 357.57,-46.83"/>
</g>
<!-- Node6 -->
<g id="node6" class="node">
<title>Node6</title>
<g id="a_node6"><a xlink:href="classtracktion__engine_1_1WaveInputDevice.html" target="_top" xlink:title="A (virtual) audio input device.">
<polygon fill="none" stroke="black" points="390,-0.5 390,-30.5 546,-30.5 546,-0.5 390,-0.5"/>
<text text-anchor="start" x="398" y="-18.5" font-family="Helvetica,sans-Serif" font-size="10.00">tracktion_engine::WaveInput</text>
<text text-anchor="middle" x="468" y="-7.5" font-family="Helvetica,sans-Serif" font-size="10.00">Device</text>
</a>
</g>
</g>
<!-- Node1&#45;&gt;Node6 -->
<g id="edge5" class="edge">
<title>Node1&#45;&gt;Node6</title>
<path fill="none" stroke="midnightblue" d="M360.38,-28.72C370.15,-27.51 380.06,-26.28 389.71,-25.09"/>
<polygon fill="midnightblue" stroke="midnightblue" points="359.75,-25.28 350.25,-29.98 360.61,-32.22 359.75,-25.28"/>
</g>
<!-- Node2 -->
<g id="node2" class="node">
<title>Node2</title>
<g id="a_node2"><a xlink:href="classtracktion__engine_1_1Selectable.html" target="_top" xlink:title="Base class for things that can be selected, and whose properties can appear in the properties panel.">
<polygon fill="none" stroke="black" points="0,-30 0,-49 155,-49 155,-30 0,-30"/>
<text text-anchor="middle" x="77.5" y="-37" font-family="Helvetica,sans-Serif" font-size="10.00">tracktion_engine::Selectable</text>
</a>
</g>
</g>
<!-- Node2&#45;&gt;Node1 -->
<g id="edge1" class="edge">
<title>Node2&#45;&gt;Node1</title>
<path fill="none" stroke="midnightblue" d="M165.08,-39.5C173.68,-39.5 182.38,-39.5 190.92,-39.5"/>
<polygon fill="midnightblue" stroke="midnightblue" points="165.06,-36 155.06,-39.5 165.06,-43 165.06,-36"/>
</g>
<!-- Node4 -->
<g id="node4" class="node">
<title>Node4</title>
<g id="a_node4"><a xlink:href="classtracktion__engine_1_1PhysicalMidiInputDevice.html" target="_top" xlink:title=" ">
<polygon fill="none" stroke="black" points="582,-73.5 582,-103.5 727,-103.5 727,-73.5 582,-73.5"/>
<text text-anchor="start" x="590" y="-91.5" font-family="Helvetica,sans-Serif" font-size="10.00">tracktion_engine::Physical</text>
<text text-anchor="middle" x="654.5" y="-80.5" font-family="Helvetica,sans-Serif" font-size="10.00">MidiInputDevice</text>
</a>
</g>
</g>
<!-- Node3&#45;&gt;Node4 -->
<g id="edge3" class="edge">
<title>Node3&#45;&gt;Node4</title>
<path fill="none" stroke="midnightblue" d="M553.46,-75.49C562.93,-76.72 572.51,-77.97 581.8,-79.17"/>
<polygon fill="midnightblue" stroke="midnightblue" points="553.61,-71.98 543.25,-74.16 552.71,-78.92 553.61,-71.98"/>
</g>
<!-- Node5 -->
<g id="node5" class="node">
<title>Node5</title>
<g id="a_node5"><a xlink:href="classtracktion__engine_1_1VirtualMidiInputDevice.html" target="_top" xlink:title=" ">
<polygon fill="none" stroke="black" points="586,-24.5 586,-54.5 723,-54.5 723,-24.5 586,-24.5"/>
<text text-anchor="start" x="594" y="-42.5" font-family="Helvetica,sans-Serif" font-size="10.00">tracktion_engine::Virtual</text>
<text text-anchor="middle" x="654.5" y="-31.5" font-family="Helvetica,sans-Serif" font-size="10.00">MidiInputDevice</text>
</a>
</g>
</g>
<!-- Node3&#45;&gt;Node5 -->
<g id="edge4" class="edge">
<title>Node3&#45;&gt;Node5</title>
<path fill="none" stroke="midnightblue" d="M553.25,-53.08C564.21,-51.6 575.33,-50.09 585.96,-48.65"/>
<polygon fill="midnightblue" stroke="midnightblue" points="552.69,-49.63 543.25,-54.44 553.63,-56.57 552.69,-49.63"/>
</g>
</g>
</svg>
