<?xml version="1.0" encoding="UTF-8" standalone="no"?>
<!DOCTYPE svg PUBLIC "-//W3C//DTD SVG 1.1//EN"
 "http://www.w3.org/Graphics/SVG/1.1/DTD/svg11.dtd">
<!-- Generated by graphviz version 2.43.0 (0)
 -->
<!-- Title: tracktion_engine::EditItem Pages: 1 -->
<svg width="807pt" height="1558pt"
 viewBox="0.00 0.00 807.00 1558.00" xmlns="http://www.w3.org/2000/svg" xmlns:xlink="http://www.w3.org/1999/xlink">
<g id="graph0" class="graph" transform="scale(1 1) rotate(0) translate(4 1554)">
<title>tracktion_engine::EditItem</title>
<!-- Node1 -->
<g id="node1" class="node">
<title>Node1</title>
<g id="a_node1"><a xlink:title="Base class for objects that live inside an edit &#45; e.g.">
<polygon fill="#bfbfbf" stroke="black" points="0,-257 0,-276 146,-276 146,-257 0,-257"/>
<text text-anchor="middle" x="73" y="-264" font-family="Helvetica,sans-Serif" font-size="10.00">tracktion_engine::EditItem</text>
</a>
</g>
</g>
<!-- Node2 -->
<g id="node2" class="node">
<title>Node2</title>
<g id="a_node2"><a xlink:href="classtracktion__engine_1_1AutomatableEditItem.html" target="_top" xlink:title="Base class for elements that have some kind of automatable parameters.">
<polygon fill="none" stroke="black" points="182,-1000.5 182,-1030.5 349,-1030.5 349,-1000.5 182,-1000.5"/>
<text text-anchor="start" x="190" y="-1018.5" font-family="Helvetica,sans-Serif" font-size="10.00">tracktion_engine::Automatable</text>
<text text-anchor="middle" x="265.5" y="-1007.5" font-family="Helvetica,sans-Serif" font-size="10.00">EditItem</text>
</a>
</g>
</g>
<!-- Node1&#45;&gt;Node2 -->
<g id="edge1" class="edge">
<title>Node1&#45;&gt;Node2</title>
<path fill="none" stroke="midnightblue" d="M78.97,-286.03C106.14,-392.85 236.44,-905.18 260.63,-1000.29"/>
<polygon fill="midnightblue" stroke="midnightblue" points="82.34,-285.07 76.48,-276.24 75.55,-286.8 82.34,-285.07"/>
</g>
<!-- Node38 -->
<g id="node38" class="node">
<title>Node38</title>
<g id="a_node38"><a xlink:href="classtracktion__engine_1_1Track.html" target="_top" xlink:title="Base class for tracks which contain clips and plugins and can be added to Edit[s].">
<polygon fill="none" stroke="black" points="200.5,-257 200.5,-276 330.5,-276 330.5,-257 200.5,-257"/>
<text text-anchor="middle" x="265.5" y="-264" font-family="Helvetica,sans-Serif" font-size="10.00">tracktion_engine::Track</text>
</a>
</g>
</g>
<!-- Node1&#45;&gt;Node38 -->
<g id="edge37" class="edge">
<title>Node1&#45;&gt;Node38</title>
<path fill="none" stroke="midnightblue" d="M156.14,-266.5C170.88,-266.5 186.05,-266.5 200.2,-266.5"/>
<polygon fill="midnightblue" stroke="midnightblue" points="156.02,-263 146.02,-266.5 156.02,-270 156.02,-263"/>
</g>
<!-- Node48 -->
<g id="node45" class="node">
<title>Node48</title>
<g id="a_node45"><a xlink:href="classtracktion__engine_1_1TrackItem.html" target="_top" xlink:title="Base class for EditItems that live in a Track, e.g.">
<polygon fill="none" stroke="black" points="189.5,-88 189.5,-107 341.5,-107 341.5,-88 189.5,-88"/>
<text text-anchor="middle" x="265.5" y="-95" font-family="Helvetica,sans-Serif" font-size="10.00">tracktion_engine::TrackItem</text>
</a>
</g>
</g>
<!-- Node1&#45;&gt;Node48 -->
<g id="edge44" class="edge">
<title>Node1&#45;&gt;Node48</title>
<path fill="none" stroke="midnightblue" d="M92.3,-250.27C131.32,-215.65 221.75,-135.42 253.36,-107.39"/>
<polygon fill="midnightblue" stroke="midnightblue" points="89.95,-247.68 84.79,-256.93 94.59,-252.91 89.95,-247.68"/>
</g>
<!-- Node3 -->
<g id="node3" class="node">
<title>Node3</title>
<g id="a_node3"><a xlink:href="classtracktion__engine_1_1MacroParameterList.html" target="_top" xlink:title=" ">
<polygon fill="none" stroke="black" points="385,-1401 385,-1420 587,-1420 587,-1401 385,-1401"/>
<text text-anchor="middle" x="486" y="-1408" font-family="Helvetica,sans-Serif" font-size="10.00">tracktion_engine::MacroParameterList</text>
</a>
</g>
</g>
<!-- Node2&#45;&gt;Node3 -->
<g id="edge2" class="edge">
<title>Node2&#45;&gt;Node3</title>
<path fill="none" stroke="midnightblue" d="M266.22,-1040.76C266.93,-1108.81 278.88,-1297.17 385,-1391.5 389.23,-1395.26 393.96,-1398.37 399,-1400.95"/>
<polygon fill="midnightblue" stroke="midnightblue" points="269.72,-1040.54 266.19,-1030.55 262.72,-1040.56 269.72,-1040.54"/>
</g>
<!-- Node4 -->
<g id="node4" class="node">
<title>Node4</title>
<g id="a_node4"><a xlink:href="structtracktion__engine_1_1Modifier.html" target="_top" xlink:title=" ">
<polygon fill="none" stroke="black" points="414,-1363 414,-1382 558,-1382 558,-1363 414,-1363"/>
<text text-anchor="middle" x="486" y="-1370" font-family="Helvetica,sans-Serif" font-size="10.00">tracktion_engine::Modifier</text>
</a>
</g>
</g>
<!-- Node2&#45;&gt;Node4 -->
<g id="edge3" class="edge">
<title>Node2&#45;&gt;Node4</title>
<path fill="none" stroke="midnightblue" d="M281.21,-1039.54C324.57,-1110.37 450.59,-1316.28 479.18,-1363"/>
<polygon fill="midnightblue" stroke="midnightblue" points="284.09,-1037.54 275.89,-1030.84 278.12,-1041.2 284.09,-1037.54"/>
</g>
<!-- Node11 -->
<g id="node11" class="node">
<title>Node11</title>
<g id="a_node11"><a xlink:href="classtracktion__engine_1_1Plugin.html" target="_top" xlink:title=" ">
<polygon fill="none" stroke="black" points="419,-673 419,-692 553,-692 553,-673 419,-673"/>
<text text-anchor="middle" x="486" y="-680" font-family="Helvetica,sans-Serif" font-size="10.00">tracktion_engine::Plugin</text>
</a>
</g>
</g>
<!-- Node2&#45;&gt;Node11 -->
<g id="edge10" class="edge">
<title>Node2&#45;&gt;Node11</title>
<path fill="none" stroke="midnightblue" d="M282.1,-991.72C325.99,-924.83 449.21,-737.04 478.63,-692.2"/>
<polygon fill="midnightblue" stroke="midnightblue" points="279.02,-990.05 276.46,-1000.33 284.87,-993.89 279.02,-990.05"/>
</g>
<!-- Node5 -->
<g id="node5" class="node">
<title>Node5</title>
<g id="a_node5"><a xlink:href="classtracktion__engine_1_1BreakpointOscillatorModifier.html" target="_top" xlink:title=" ">
<polygon fill="none" stroke="black" points="632,-1519.5 632,-1549.5 790,-1549.5 790,-1519.5 632,-1519.5"/>
<text text-anchor="start" x="640" y="-1537.5" font-family="Helvetica,sans-Serif" font-size="10.00">tracktion_engine::Breakpoint</text>
<text text-anchor="middle" x="711" y="-1526.5" font-family="Helvetica,sans-Serif" font-size="10.00">OscillatorModifier</text>
</a>
</g>
</g>
<!-- Node4&#45;&gt;Node5 -->
<g id="edge4" class="edge">
<title>Node4&#45;&gt;Node5</title>
<path fill="none" stroke="midnightblue" d="M567.93,-1379.6C574.89,-1382.58 581.4,-1386.46 587,-1391.5 628.09,-1428.45 583.45,-1471.91 623,-1510.5 626.48,-1513.89 630.39,-1516.81 634.57,-1519.33"/>
<polygon fill="midnightblue" stroke="midnightblue" points="568.8,-1376.19 558.21,-1376.07 566.42,-1382.77 568.8,-1376.19"/>
</g>
<!-- Node6 -->
<g id="node6" class="node">
<title>Node6</title>
<g id="a_node6"><a xlink:href="classtracktion__engine_1_1EnvelopeFollowerModifier.html" target="_top" xlink:title=" ">
<polygon fill="none" stroke="black" points="636.5,-1470.5 636.5,-1500.5 785.5,-1500.5 785.5,-1470.5 636.5,-1470.5"/>
<text text-anchor="start" x="644.5" y="-1488.5" font-family="Helvetica,sans-Serif" font-size="10.00">tracktion_engine::Envelope</text>
<text text-anchor="middle" x="711" y="-1477.5" font-family="Helvetica,sans-Serif" font-size="10.00">FollowerModifier</text>
</a>
</g>
</g>
<!-- Node4&#45;&gt;Node6 -->
<g id="edge5" class="edge">
<title>Node4&#45;&gt;Node6</title>
<path fill="none" stroke="midnightblue" d="M567.69,-1381C574.59,-1383.71 581.15,-1387.15 587,-1391.5 614.77,-1412.12 596.21,-1438.62 623,-1460.5 627.75,-1464.38 633.07,-1467.65 638.67,-1470.42"/>
<polygon fill="midnightblue" stroke="midnightblue" points="568.72,-1377.66 558.13,-1377.74 566.46,-1384.28 568.72,-1377.66"/>
</g>
<!-- Node7 -->
<g id="node7" class="node">
<title>Node7</title>
<g id="a_node7"><a xlink:href="classtracktion__engine_1_1LFOModifier.html" target="_top" xlink:title=" ">
<polygon fill="none" stroke="black" points="629.5,-1432 629.5,-1451 792.5,-1451 792.5,-1432 629.5,-1432"/>
<text text-anchor="middle" x="711" y="-1439" font-family="Helvetica,sans-Serif" font-size="10.00">tracktion_engine::LFOModifier</text>
</a>
</g>
</g>
<!-- Node4&#45;&gt;Node7 -->
<g id="edge6" class="edge">
<title>Node4&#45;&gt;Node7</title>
<path fill="none" stroke="midnightblue" d="M567.91,-1384.03C574.51,-1386.12 580.96,-1388.59 587,-1391.5 606.02,-1400.67 604.11,-1413.07 623,-1422.5 630.75,-1426.37 639.27,-1429.45 647.85,-1431.91"/>
<polygon fill="midnightblue" stroke="midnightblue" points="568.73,-1380.62 558.15,-1381.23 566.8,-1387.35 568.73,-1380.62"/>
</g>
<!-- Node8 -->
<g id="node8" class="node">
<title>Node8</title>
<g id="a_node8"><a xlink:href="classtracktion__engine_1_1MIDITrackerModifier.html" target="_top" xlink:title=" ">
<polygon fill="none" stroke="black" points="630.5,-1382.5 630.5,-1412.5 791.5,-1412.5 791.5,-1382.5 630.5,-1382.5"/>
<text text-anchor="start" x="638.5" y="-1400.5" font-family="Helvetica,sans-Serif" font-size="10.00">tracktion_engine::MIDITracker</text>
<text text-anchor="middle" x="711" y="-1389.5" font-family="Helvetica,sans-Serif" font-size="10.00">Modifier</text>
</a>
</g>
</g>
<!-- Node4&#45;&gt;Node8 -->
<g id="edge7" class="edge">
<title>Node4&#45;&gt;Node8</title>
<path fill="none" stroke="midnightblue" d="M568.27,-1381.61C588.47,-1383.88 610.09,-1386.3 630.22,-1388.56"/>
<polygon fill="midnightblue" stroke="midnightblue" points="568.5,-1378.11 558.17,-1380.48 567.72,-1385.07 568.5,-1378.11"/>
</g>
<!-- Node9 -->
<g id="node9" class="node">
<title>Node9</title>
<g id="a_node9"><a xlink:href="classtracktion__engine_1_1RandomModifier.html" target="_top" xlink:title=" ">
<polygon fill="none" stroke="black" points="638.5,-1333.5 638.5,-1363.5 783.5,-1363.5 783.5,-1333.5 638.5,-1333.5"/>
<text text-anchor="start" x="646.5" y="-1351.5" font-family="Helvetica,sans-Serif" font-size="10.00">tracktion_engine::Random</text>
<text text-anchor="middle" x="711" y="-1340.5" font-family="Helvetica,sans-Serif" font-size="10.00">Modifier</text>
</a>
</g>
</g>
<!-- Node4&#45;&gt;Node9 -->
<g id="edge8" class="edge">
<title>Node4&#45;&gt;Node9</title>
<path fill="none" stroke="midnightblue" d="M568.23,-1363.76C591.19,-1361.29 616,-1358.62 638.36,-1356.21"/>
<polygon fill="midnightblue" stroke="midnightblue" points="567.74,-1360.29 558.17,-1364.84 568.49,-1367.25 567.74,-1360.29"/>
</g>
<!-- Node10 -->
<g id="node10" class="node">
<title>Node10</title>
<g id="a_node10"><a xlink:href="classtracktion__engine_1_1StepModifier.html" target="_top" xlink:title=" ">
<polygon fill="none" stroke="black" points="628,-1295 628,-1314 794,-1314 794,-1295 628,-1295"/>
<text text-anchor="middle" x="711" y="-1302" font-family="Helvetica,sans-Serif" font-size="10.00">tracktion_engine::StepModifier</text>
</a>
</g>
</g>
<!-- Node4&#45;&gt;Node10 -->
<g id="edge9" class="edge">
<title>Node4&#45;&gt;Node10</title>
<path fill="none" stroke="midnightblue" d="M520.77,-1359.38C548.08,-1349.06 587.66,-1334.76 623,-1324.5 636.25,-1320.65 650.8,-1317.06 664.15,-1314.02"/>
<polygon fill="midnightblue" stroke="midnightblue" points="519.4,-1356.16 511.3,-1362.98 521.89,-1362.7 519.4,-1356.16"/>
</g>
<!-- Node12 -->
<g id="node12" class="node">
<title>Node12</title>
<g id="a_node12"><a xlink:href="classtracktion__engine_1_1AirWindowsPlugin.html" target="_top" xlink:title=" ">
<polygon fill="none" stroke="black" points="630,-1245.5 630,-1275.5 792,-1275.5 792,-1245.5 630,-1245.5"/>
<text text-anchor="start" x="638" y="-1263.5" font-family="Helvetica,sans-Serif" font-size="10.00">tracktion_engine::AirWindows</text>
<text text-anchor="middle" x="711" y="-1252.5" font-family="Helvetica,sans-Serif" font-size="10.00">Plugin</text>
</a>
</g>
</g>
<!-- Node11&#45;&gt;Node12 -->
<g id="edge11" class="edge">
<title>Node11&#45;&gt;Node12</title>
<path fill="none" stroke="midnightblue" d="M489.2,-702.37C499.48,-791.89 545.63,-1156.9 623,-1236.5 626.28,-1239.87 629.98,-1242.78 633.96,-1245.29"/>
<polygon fill="midnightblue" stroke="midnightblue" points="492.65,-701.77 488.05,-692.23 485.7,-702.56 492.65,-701.77"/>
</g>
<!-- Node13 -->
<g id="node13" class="node">
<title>Node13</title>
<g id="a_node13"><a xlink:href="classtracktion__engine_1_1AuxReturnPlugin.html" target="_top" xlink:title=" ">
<polygon fill="none" stroke="black" points="633.5,-1196.5 633.5,-1226.5 788.5,-1226.5 788.5,-1196.5 633.5,-1196.5"/>
<text text-anchor="start" x="641.5" y="-1214.5" font-family="Helvetica,sans-Serif" font-size="10.00">tracktion_engine::AuxReturn</text>
<text text-anchor="middle" x="711" y="-1203.5" font-family="Helvetica,sans-Serif" font-size="10.00">Plugin</text>
</a>
</g>
</g>
<!-- Node11&#45;&gt;Node13 -->
<g id="edge12" class="edge">
<title>Node11&#45;&gt;Node13</title>
<path fill="none" stroke="midnightblue" d="M489.68,-702.2C501.51,-786.5 551.71,-1115.77 623,-1187.5 626.42,-1190.95 630.29,-1193.91 634.45,-1196.45"/>
<polygon fill="midnightblue" stroke="midnightblue" points="493.13,-701.61 488.29,-692.18 486.19,-702.57 493.13,-701.61"/>
</g>
<!-- Node14 -->
<g id="node14" class="node">
<title>Node14</title>
<g id="a_node14"><a xlink:href="classtracktion__engine_1_1AuxSendPlugin.html" target="_top" xlink:title=" ">
<polygon fill="none" stroke="black" points="637.5,-1147.5 637.5,-1177.5 784.5,-1177.5 784.5,-1147.5 637.5,-1147.5"/>
<text text-anchor="start" x="645.5" y="-1165.5" font-family="Helvetica,sans-Serif" font-size="10.00">tracktion_engine::AuxSend</text>
<text text-anchor="middle" x="711" y="-1154.5" font-family="Helvetica,sans-Serif" font-size="10.00">Plugin</text>
</a>
</g>
</g>
<!-- Node11&#45;&gt;Node14 -->
<g id="edge13" class="edge">
<title>Node11&#45;&gt;Node14</title>
<path fill="none" stroke="midnightblue" d="M486.59,-702.36C486.27,-772.8 494.98,-1013.1 623,-1138.5 627.25,-1142.67 632.16,-1146.12 637.43,-1148.99"/>
<polygon fill="midnightblue" stroke="midnightblue" points="490.09,-702.27 486.71,-692.23 483.09,-702.19 490.09,-702.27"/>
</g>
<!-- Node15 -->
<g id="node15" class="node">
<title>Node15</title>
<g id="a_node15"><a xlink:href="classtracktion__engine_1_1ChorusPlugin.html" target="_top" xlink:title=" ">
<polygon fill="none" stroke="black" points="642,-1098.5 642,-1128.5 780,-1128.5 780,-1098.5 642,-1098.5"/>
<text text-anchor="start" x="650" y="-1116.5" font-family="Helvetica,sans-Serif" font-size="10.00">tracktion_engine::Chorus</text>
<text text-anchor="middle" x="711" y="-1105.5" font-family="Helvetica,sans-Serif" font-size="10.00">Plugin</text>
</a>
</g>
</g>
<!-- Node11&#45;&gt;Node15 -->
<g id="edge14" class="edge">
<title>Node11&#45;&gt;Node15</title>
<path fill="none" stroke="midnightblue" d="M487.42,-702.35C489.9,-767.89 506.97,-979.5 623,-1089.5 628.46,-1094.67 634.93,-1098.75 641.84,-1101.96"/>
<polygon fill="midnightblue" stroke="midnightblue" points="490.91,-702.06 487.11,-692.17 483.91,-702.28 490.91,-702.06"/>
</g>
<!-- Node16 -->
<g id="node16" class="node">
<title>Node16</title>
<g id="a_node16"><a xlink:href="classtracktion__engine_1_1CompressorPlugin.html" target="_top" xlink:title=" ">
<polygon fill="none" stroke="black" points="629.5,-1049.5 629.5,-1079.5 792.5,-1079.5 792.5,-1049.5 629.5,-1049.5"/>
<text text-anchor="start" x="637.5" y="-1067.5" font-family="Helvetica,sans-Serif" font-size="10.00">tracktion_engine::Compressor</text>
<text text-anchor="middle" x="711" y="-1056.5" font-family="Helvetica,sans-Serif" font-size="10.00">Plugin</text>
</a>
</g>
</g>
<!-- Node11&#45;&gt;Node16 -->
<g id="edge15" class="edge">
<title>Node11&#45;&gt;Node16</title>
<path fill="none" stroke="midnightblue" d="M488.51,-702.21C494.18,-762.23 519.56,-944.42 623,-1039.5 627.17,-1043.33 631.88,-1046.57 636.91,-1049.33"/>
<polygon fill="midnightblue" stroke="midnightblue" points="491.99,-701.85 487.64,-692.18 485.02,-702.45 491.99,-701.85"/>
</g>
<!-- Node17 -->
<g id="node17" class="node">
<title>Node17</title>
<g id="a_node17"><a xlink:href="classtracktion__engine_1_1DelayPlugin.html" target="_top" xlink:title=" ">
<polygon fill="none" stroke="black" points="629.5,-1011 629.5,-1030 792.5,-1030 792.5,-1011 629.5,-1011"/>
<text text-anchor="middle" x="711" y="-1018" font-family="Helvetica,sans-Serif" font-size="10.00">tracktion_engine::DelayPlugin</text>
</a>
</g>
</g>
<!-- Node11&#45;&gt;Node17 -->
<g id="edge16" class="edge">
<title>Node11&#45;&gt;Node17</title>
<path fill="none" stroke="midnightblue" d="M489.21,-702.24C496.6,-758.55 525.81,-921.05 623,-1001.5 627.64,-1005.34 632.89,-1008.46 638.45,-1010.98"/>
<polygon fill="midnightblue" stroke="midnightblue" points="492.66,-701.68 487.97,-692.18 485.72,-702.53 492.66,-701.68"/>
</g>
<!-- Node18 -->
<g id="node18" class="node">
<title>Node18</title>
<g id="a_node18"><a xlink:href="classtracktion__engine_1_1EqualiserPlugin.html" target="_top" xlink:title=" ">
<polygon fill="none" stroke="black" points="636.5,-961.5 636.5,-991.5 785.5,-991.5 785.5,-961.5 636.5,-961.5"/>
<text text-anchor="start" x="644.5" y="-979.5" font-family="Helvetica,sans-Serif" font-size="10.00">tracktion_engine::Equaliser</text>
<text text-anchor="middle" x="711" y="-968.5" font-family="Helvetica,sans-Serif" font-size="10.00">Plugin</text>
</a>
</g>
</g>
<!-- Node11&#45;&gt;Node18 -->
<g id="edge17" class="edge">
<title>Node11&#45;&gt;Node18</title>
<path fill="none" stroke="midnightblue" d="M491.06,-701.92C502.47,-751.59 539.6,-884.13 623,-952.5 627.24,-955.98 631.95,-958.95 636.92,-961.5"/>
<polygon fill="midnightblue" stroke="midnightblue" points="494.47,-701.15 488.9,-692.14 487.64,-702.66 494.47,-701.15"/>
</g>
<!-- Node19 -->
<g id="node19" class="node">
<title>Node19</title>
<g id="a_node19"><a xlink:href="classtracktion__engine_1_1ExternalPlugin.html" target="_top" xlink:title=" ">
<polygon fill="none" stroke="black" points="638.5,-912.5 638.5,-942.5 783.5,-942.5 783.5,-912.5 638.5,-912.5"/>
<text text-anchor="start" x="646.5" y="-930.5" font-family="Helvetica,sans-Serif" font-size="10.00">tracktion_engine::External</text>
<text text-anchor="middle" x="711" y="-919.5" font-family="Helvetica,sans-Serif" font-size="10.00">Plugin</text>
</a>
</g>
</g>
<!-- Node11&#45;&gt;Node19 -->
<g id="edge18" class="edge">
<title>Node11&#45;&gt;Node19</title>
<path fill="none" stroke="midnightblue" d="M493.32,-701.8C508.45,-744.89 550.94,-849.38 623,-903.5 627.64,-906.98 632.75,-909.96 638.1,-912.5"/>
<polygon fill="midnightblue" stroke="midnightblue" points="496.6,-700.57 490.06,-692.24 489.98,-702.83 496.6,-700.57"/>
</g>
<!-- Node20 -->
<g id="node20" class="node">
<title>Node20</title>
<g id="a_node20"><a xlink:href="classtracktion__engine_1_1FourOscPlugin.html" target="_top" xlink:title=" ">
<polygon fill="none" stroke="black" points="639.5,-863.5 639.5,-893.5 782.5,-893.5 782.5,-863.5 639.5,-863.5"/>
<text text-anchor="start" x="647.5" y="-881.5" font-family="Helvetica,sans-Serif" font-size="10.00">tracktion_engine::FourOsc</text>
<text text-anchor="middle" x="711" y="-870.5" font-family="Helvetica,sans-Serif" font-size="10.00">Plugin</text>
</a>
</g>
</g>
<!-- Node11&#45;&gt;Node20 -->
<g id="edge19" class="edge">
<title>Node11&#45;&gt;Node20</title>
<path fill="none" stroke="midnightblue" d="M496.54,-701.27C515.58,-736.79 561.78,-813.91 623,-854.5 628.22,-857.96 633.94,-860.93 639.86,-863.47"/>
<polygon fill="midnightblue" stroke="midnightblue" points="499.45,-699.28 491.71,-692.04 493.25,-702.53 499.45,-699.28"/>
</g>
<!-- Node21 -->
<g id="node21" class="node">
<title>Node21</title>
<g id="a_node21"><a xlink:href="classtracktion__engine_1_1FreezePointPlugin.html" target="_top" xlink:title=" ">
<polygon fill="none" stroke="black" points="642.5,-814.5 642.5,-844.5 779.5,-844.5 779.5,-814.5 642.5,-814.5"/>
<text text-anchor="start" x="650.5" y="-832.5" font-family="Helvetica,sans-Serif" font-size="10.00">tracktion_engine::Freeze</text>
<text text-anchor="middle" x="711" y="-821.5" font-family="Helvetica,sans-Serif" font-size="10.00">PointPlugin</text>
</a>
</g>
</g>
<!-- Node11&#45;&gt;Node21 -->
<g id="edge20" class="edge">
<title>Node11&#45;&gt;Node21</title>
<path fill="none" stroke="midnightblue" d="M501.35,-699.88C524.29,-726.56 571.89,-777.43 623,-805.5 629.18,-808.89 635.88,-811.84 642.71,-814.38"/>
<polygon fill="midnightblue" stroke="midnightblue" points="503.92,-697.51 494.79,-692.13 498.58,-702.03 503.92,-697.51"/>
</g>
<!-- Node22 -->
<g id="node22" class="node">
<title>Node22</title>
<g id="a_node22"><a xlink:href="classtracktion__engine_1_1InsertPlugin.html" target="_top" xlink:title=" ">
<polygon fill="none" stroke="black" points="645,-765.5 645,-795.5 777,-795.5 777,-765.5 645,-765.5"/>
<text text-anchor="start" x="653" y="-783.5" font-family="Helvetica,sans-Serif" font-size="10.00">tracktion_engine::Insert</text>
<text text-anchor="middle" x="711" y="-772.5" font-family="Helvetica,sans-Serif" font-size="10.00">Plugin</text>
</a>
</g>
</g>
<!-- Node11&#45;&gt;Node22 -->
<g id="edge21" class="edge">
<title>Node11&#45;&gt;Node22</title>
<path fill="none" stroke="midnightblue" d="M510.51,-697.46C537,-713.8 581.75,-739.85 623,-756.5 631.14,-759.79 639.88,-762.78 648.57,-765.46"/>
<polygon fill="midnightblue" stroke="midnightblue" points="512.28,-694.44 501.94,-692.12 508.58,-700.38 512.28,-694.44"/>
</g>
<!-- Node23 -->
<g id="node23" class="node">
<title>Node23</title>
<g id="a_node23"><a xlink:href="classtracktion__engine_1_1LatencyPlugin.html" target="_top" xlink:title="A test plugin that introduces latency to the incomming signal.">
<polygon fill="none" stroke="black" points="639.5,-716.5 639.5,-746.5 782.5,-746.5 782.5,-716.5 639.5,-716.5"/>
<text text-anchor="start" x="647.5" y="-734.5" font-family="Helvetica,sans-Serif" font-size="10.00">tracktion_engine::Latency</text>
<text text-anchor="middle" x="711" y="-723.5" font-family="Helvetica,sans-Serif" font-size="10.00">Plugin</text>
</a>
</g>
</g>
<!-- Node11&#45;&gt;Node23 -->
<g id="edge22" class="edge">
<title>Node11&#45;&gt;Node23</title>
<path fill="none" stroke="midnightblue" d="M540.22,-694.19C570.54,-700.86 608.85,-709.27 641.41,-716.43"/>
<polygon fill="midnightblue" stroke="midnightblue" points="540.78,-690.73 530.26,-692.01 539.28,-697.57 540.78,-690.73"/>
</g>
<!-- Node24 -->
<g id="node24" class="node">
<title>Node24</title>
<g id="a_node24"><a xlink:href="classtracktion__engine_1_1LevelMeterPlugin.html" target="_top" xlink:title=" ">
<polygon fill="none" stroke="black" points="631.5,-667.5 631.5,-697.5 790.5,-697.5 790.5,-667.5 631.5,-667.5"/>
<text text-anchor="start" x="639.5" y="-685.5" font-family="Helvetica,sans-Serif" font-size="10.00">tracktion_engine::LevelMeter</text>
<text text-anchor="middle" x="711" y="-674.5" font-family="Helvetica,sans-Serif" font-size="10.00">Plugin</text>
</a>
</g>
</g>
<!-- Node11&#45;&gt;Node24 -->
<g id="edge23" class="edge">
<title>Node11&#45;&gt;Node24</title>
<path fill="none" stroke="midnightblue" d="M563.25,-682.5C585.16,-682.5 609.1,-682.5 631.17,-682.5"/>
<polygon fill="midnightblue" stroke="midnightblue" points="563,-679 553,-682.5 563,-686 563,-679"/>
</g>
<!-- Node25 -->
<g id="node25" class="node">
<title>Node25</title>
<g id="a_node25"><a xlink:href="classtracktion__engine_1_1LowPassPlugin.html" target="_top" xlink:title=" ">
<polygon fill="none" stroke="black" points="638,-618.5 638,-648.5 784,-648.5 784,-618.5 638,-618.5"/>
<text text-anchor="start" x="646" y="-636.5" font-family="Helvetica,sans-Serif" font-size="10.00">tracktion_engine::LowPass</text>
<text text-anchor="middle" x="711" y="-625.5" font-family="Helvetica,sans-Serif" font-size="10.00">Plugin</text>
</a>
</g>
</g>
<!-- Node11&#45;&gt;Node25 -->
<g id="edge24" class="edge">
<title>Node11&#45;&gt;Node25</title>
<path fill="none" stroke="midnightblue" d="M540.22,-670.81C570.54,-664.14 608.85,-655.73 641.41,-648.57"/>
<polygon fill="midnightblue" stroke="midnightblue" points="539.28,-667.43 530.26,-672.99 540.78,-674.27 539.28,-667.43"/>
</g>
<!-- Node26 -->
<g id="node26" class="node">
<title>Node26</title>
<g id="a_node26"><a xlink:href="classtracktion__engine_1_1MidiModifierPlugin.html" target="_top" xlink:title=" ">
<polygon fill="none" stroke="black" points="628.5,-569.5 628.5,-599.5 793.5,-599.5 793.5,-569.5 628.5,-569.5"/>
<text text-anchor="start" x="636.5" y="-587.5" font-family="Helvetica,sans-Serif" font-size="10.00">tracktion_engine::MidiModifier</text>
<text text-anchor="middle" x="711" y="-576.5" font-family="Helvetica,sans-Serif" font-size="10.00">Plugin</text>
</a>
</g>
</g>
<!-- Node11&#45;&gt;Node26 -->
<g id="edge25" class="edge">
<title>Node11&#45;&gt;Node26</title>
<path fill="none" stroke="midnightblue" d="M511.01,-667.58C537.6,-651.54 582.14,-626.11 623,-609.5 631.88,-605.89 641.47,-602.58 650.92,-599.63"/>
<polygon fill="midnightblue" stroke="midnightblue" points="509.1,-664.64 502.38,-672.83 512.74,-670.62 509.1,-664.64"/>
</g>
<!-- Node27 -->
<g id="node27" class="node">
<title>Node27</title>
<g id="a_node27"><a xlink:href="classtracktion__engine_1_1MidiPatchBayPlugin.html" target="_top" xlink:title=" ">
<polygon fill="none" stroke="black" points="635,-520.5 635,-550.5 787,-550.5 787,-520.5 635,-520.5"/>
<text text-anchor="start" x="643" y="-538.5" font-family="Helvetica,sans-Serif" font-size="10.00">tracktion_engine::MidiPatch</text>
<text text-anchor="middle" x="711" y="-527.5" font-family="Helvetica,sans-Serif" font-size="10.00">BayPlugin</text>
</a>
</g>
</g>
<!-- Node11&#45;&gt;Node27 -->
<g id="edge26" class="edge">
<title>Node11&#45;&gt;Node27</title>
<path fill="none" stroke="midnightblue" d="M501.41,-665.33C524.45,-638.97 572.17,-588.64 623,-560.5 629.87,-556.69 637.38,-553.42 645.01,-550.62"/>
<polygon fill="midnightblue" stroke="midnightblue" points="498.7,-663.12 494.83,-672.99 504,-667.69 498.7,-663.12"/>
</g>
<!-- Node28 -->
<g id="node28" class="node">
<title>Node28</title>
<g id="a_node28"><a xlink:href="classtracktion__engine_1_1PatchBayPlugin.html" target="_top" xlink:title=" ">
<polygon fill="none" stroke="black" points="636.5,-471.5 636.5,-501.5 785.5,-501.5 785.5,-471.5 636.5,-471.5"/>
<text text-anchor="start" x="644.5" y="-489.5" font-family="Helvetica,sans-Serif" font-size="10.00">tracktion_engine::PatchBay</text>
<text text-anchor="middle" x="711" y="-478.5" font-family="Helvetica,sans-Serif" font-size="10.00">Plugin</text>
</a>
</g>
</g>
<!-- Node11&#45;&gt;Node28 -->
<g id="edge27" class="edge">
<title>Node11&#45;&gt;Node28</title>
<path fill="none" stroke="midnightblue" d="M496.89,-663.4C516.21,-627.96 562.44,-551.99 623,-511.5 628.75,-507.66 635.09,-504.4 641.65,-501.63"/>
<polygon fill="midnightblue" stroke="midnightblue" points="493.58,-662.16 491.96,-672.63 499.75,-665.45 493.58,-662.16"/>
</g>
<!-- Node29 -->
<g id="node29" class="node">
<title>Node29</title>
<g id="a_node29"><a xlink:href="classtracktion__engine_1_1PhaserPlugin.html" target="_top" xlink:title=" ">
<polygon fill="none" stroke="black" points="642.5,-422.5 642.5,-452.5 779.5,-452.5 779.5,-422.5 642.5,-422.5"/>
<text text-anchor="start" x="650.5" y="-440.5" font-family="Helvetica,sans-Serif" font-size="10.00">tracktion_engine::Phaser</text>
<text text-anchor="middle" x="711" y="-429.5" font-family="Helvetica,sans-Serif" font-size="10.00">Plugin</text>
</a>
</g>
</g>
<!-- Node11&#45;&gt;Node29 -->
<g id="edge28" class="edge">
<title>Node11&#45;&gt;Node29</title>
<path fill="none" stroke="midnightblue" d="M493.39,-663.34C508.66,-620.56 551.41,-516.75 623,-462.5 628.89,-458.04 635.54,-454.37 642.49,-451.36"/>
<polygon fill="midnightblue" stroke="midnightblue" points="490.07,-662.24 490.1,-672.84 496.68,-664.53 490.07,-662.24"/>
</g>
<!-- Node30 -->
<g id="node30" class="node">
<title>Node30</title>
<g id="a_node30"><a xlink:href="classtracktion__engine_1_1PitchShiftPlugin.html" target="_top" xlink:title=" ">
<polygon fill="none" stroke="black" points="636,-373.5 636,-403.5 786,-403.5 786,-373.5 636,-373.5"/>
<text text-anchor="start" x="644" y="-391.5" font-family="Helvetica,sans-Serif" font-size="10.00">tracktion_engine::PitchShift</text>
<text text-anchor="middle" x="711" y="-380.5" font-family="Helvetica,sans-Serif" font-size="10.00">Plugin</text>
</a>
</g>
</g>
<!-- Node11&#45;&gt;Node30 -->
<g id="edge29" class="edge">
<title>Node11&#45;&gt;Node30</title>
<path fill="none" stroke="midnightblue" d="M491.2,-662.89C502.85,-613.28 540.34,-481.9 623,-413.5 627.72,-409.59 633.02,-406.3 638.62,-403.51"/>
<polygon fill="midnightblue" stroke="midnightblue" points="487.72,-662.4 488.93,-672.92 494.55,-663.94 487.72,-662.4"/>
</g>
<!-- Node31 -->
<g id="node31" class="node">
<title>Node31</title>
<g id="a_node31"><a xlink:href="classtracktion__engine_1_1RackInstance.html" target="_top" xlink:title=" ">
<polygon fill="none" stroke="black" points="626,-335 626,-354 796,-354 796,-335 626,-335"/>
<text text-anchor="middle" x="711" y="-342" font-family="Helvetica,sans-Serif" font-size="10.00">tracktion_engine::RackInstance</text>
</a>
</g>
</g>
<!-- Node11&#45;&gt;Node31 -->
<g id="edge30" class="edge">
<title>Node11&#45;&gt;Node31</title>
<path fill="none" stroke="midnightblue" d="M489.27,-662.87C496.84,-606.88 526.46,-445.21 623,-364.5 628.11,-360.23 633.96,-356.82 640.16,-354.12"/>
<polygon fill="midnightblue" stroke="midnightblue" points="485.79,-662.52 488.01,-672.88 492.73,-663.4 485.79,-662.52"/>
</g>
<!-- Node32 -->
<g id="node32" class="node">
<title>Node32</title>
<g id="a_node32"><a xlink:href="classtracktion__engine_1_1ReverbPlugin.html" target="_top" xlink:title=" ">
<polygon fill="none" stroke="black" points="641.5,-285.5 641.5,-315.5 780.5,-315.5 780.5,-285.5 641.5,-285.5"/>
<text text-anchor="start" x="649.5" y="-303.5" font-family="Helvetica,sans-Serif" font-size="10.00">tracktion_engine::Reverb</text>
<text text-anchor="middle" x="711" y="-292.5" font-family="Helvetica,sans-Serif" font-size="10.00">Plugin</text>
</a>
</g>
</g>
<!-- Node11&#45;&gt;Node32 -->
<g id="edge31" class="edge">
<title>Node11&#45;&gt;Node32</title>
<path fill="none" stroke="midnightblue" d="M491.95,-663.05C509.45,-595.72 570.15,-374.08 623,-325.5 628.32,-320.61 634.54,-316.67 641.16,-313.49"/>
<polygon fill="midnightblue" stroke="midnightblue" points="488.54,-662.24 489.44,-672.8 495.32,-663.99 488.54,-662.24"/>
</g>
<!-- Node33 -->
<g id="node33" class="node">
<title>Node33</title>
<g id="a_node33"><a xlink:href="classtracktion__engine_1_1SamplerPlugin.html" target="_top" xlink:title=" ">
<polygon fill="none" stroke="black" points="638.5,-236.5 638.5,-266.5 783.5,-266.5 783.5,-236.5 638.5,-236.5"/>
<text text-anchor="start" x="646.5" y="-254.5" font-family="Helvetica,sans-Serif" font-size="10.00">tracktion_engine::Sampler</text>
<text text-anchor="middle" x="711" y="-243.5" font-family="Helvetica,sans-Serif" font-size="10.00">Plugin</text>
</a>
</g>
</g>
<!-- Node11&#45;&gt;Node33 -->
<g id="edge32" class="edge">
<title>Node11&#45;&gt;Node33</title>
<path fill="none" stroke="midnightblue" d="M493.34,-663.17C519.69,-582.92 619.27,-280.07 623,-276.5 627.54,-272.15 632.79,-268.55 638.41,-265.57"/>
<polygon fill="midnightblue" stroke="midnightblue" points="489.92,-662.37 490.13,-672.96 496.57,-664.55 489.92,-662.37"/>
</g>
<!-- Node34 -->
<g id="node34" class="node">
<title>Node34</title>
<g id="a_node34"><a xlink:href="classtracktion__engine_1_1TextPlugin.html" target="_top" xlink:title=" ">
<polygon fill="none" stroke="black" points="633.5,-198 633.5,-217 788.5,-217 788.5,-198 633.5,-198"/>
<text text-anchor="middle" x="711" y="-205" font-family="Helvetica,sans-Serif" font-size="10.00">tracktion_engine::TextPlugin</text>
</a>
</g>
</g>
<!-- Node11&#45;&gt;Node34 -->
<g id="edge33" class="edge">
<title>Node11&#45;&gt;Node34</title>
<path fill="none" stroke="midnightblue" d="M493.99,-663.28C511.16,-615.63 556.3,-488.05 587,-379.5 605.9,-312.7 573.75,-276.43 623,-227.5 627.29,-223.24 632.29,-219.81 637.69,-217.07"/>
<polygon fill="midnightblue" stroke="midnightblue" points="490.61,-662.32 490.5,-672.91 497.19,-664.7 490.61,-662.32"/>
</g>
<!-- Node35 -->
<g id="node35" class="node">
<title>Node35</title>
<g id="a_node35"><a xlink:href="classtracktion__engine_1_1ToneGeneratorPlugin.html" target="_top" xlink:title=" ">
<polygon fill="none" stroke="black" points="623,-148.5 623,-178.5 799,-178.5 799,-148.5 623,-148.5"/>
<text text-anchor="start" x="631" y="-166.5" font-family="Helvetica,sans-Serif" font-size="10.00">tracktion_engine::ToneGenerator</text>
<text text-anchor="middle" x="711" y="-155.5" font-family="Helvetica,sans-Serif" font-size="10.00">Plugin</text>
</a>
</g>
</g>
<!-- Node11&#45;&gt;Node35 -->
<g id="edge34" class="edge">
<title>Node11&#45;&gt;Node35</title>
<path fill="none" stroke="midnightblue" d="M494.3,-663.37C512.19,-615.91 558.81,-488.73 587,-379.5 608.58,-295.86 564.84,-252.37 623,-188.5 626.49,-184.67 630.53,-181.4 634.91,-178.63"/>
<polygon fill="midnightblue" stroke="midnightblue" points="490.94,-662.37 490.67,-672.96 497.48,-664.85 490.94,-662.37"/>
</g>
<!-- Node36 -->
<g id="node36" class="node">
<title>Node36</title>
<g id="a_node36"><a xlink:href="classtracktion__engine_1_1VCAPlugin.html" target="_top" xlink:title="The VCA plugin sits on a folder track to control the overall level of all the volume/pan plugins in i...">
<polygon fill="none" stroke="black" points="633.5,-110 633.5,-129 788.5,-129 788.5,-110 633.5,-110"/>
<text text-anchor="middle" x="711" y="-117" font-family="Helvetica,sans-Serif" font-size="10.00">tracktion_engine::VCAPlugin</text>
</a>
</g>
</g>
<!-- Node11&#45;&gt;Node36 -->
<g id="edge35" class="edge">
<title>Node11&#45;&gt;Node36</title>
<path fill="none" stroke="midnightblue" d="M494.56,-663.43C513.03,-616.12 560.86,-489.24 587,-379.5 599.5,-327.04 586.36,-179.08 623,-139.5 626.9,-135.29 631.48,-131.88 636.48,-129.13"/>
<polygon fill="midnightblue" stroke="midnightblue" points="491.2,-662.4 490.8,-672.99 497.72,-664.96 491.2,-662.4"/>
</g>
<!-- Node37 -->
<g id="node37" class="node">
<title>Node37</title>
<g id="a_node37"><a xlink:href="classtracktion__engine_1_1VolumeAndPanPlugin.html" target="_top" xlink:title="The built&#45;in Tracktion volume/pan plugin.">
<polygon fill="none" stroke="black" points="640.5,-60.5 640.5,-90.5 781.5,-90.5 781.5,-60.5 640.5,-60.5"/>
<text text-anchor="start" x="648.5" y="-78.5" font-family="Helvetica,sans-Serif" font-size="10.00">tracktion_engine::Volume</text>
<text text-anchor="middle" x="711" y="-67.5" font-family="Helvetica,sans-Serif" font-size="10.00">AndPanPlugin</text>
</a>
</g>
</g>
<!-- Node11&#45;&gt;Node37 -->
<g id="edge36" class="edge">
<title>Node11&#45;&gt;Node37</title>
<path fill="none" stroke="midnightblue" d="M494.71,-663.44C513.51,-616.18 562,-489.48 587,-379.5 600.86,-318.54 582.27,-147.92 623,-100.5 627.81,-94.9 633.79,-90.51 640.34,-87.08"/>
<polygon fill="midnightblue" stroke="midnightblue" points="491.45,-662.17 490.98,-672.75 497.95,-664.77 491.45,-662.17"/>
</g>
<!-- Node39 -->
<g id="node39" class="node">
<title>Node39</title>
<g id="a_node39"><a xlink:href="classtracktion__engine_1_1AutomationTrack.html" target="_top" xlink:title=" ">
<polygon fill="none" stroke="black" points="405.5,-339.5 405.5,-369.5 566.5,-369.5 566.5,-339.5 405.5,-339.5"/>
<text text-anchor="start" x="413.5" y="-357.5" font-family="Helvetica,sans-Serif" font-size="10.00">tracktion_engine::Automation</text>
<text text-anchor="middle" x="486" y="-346.5" font-family="Helvetica,sans-Serif" font-size="10.00">Track</text>
</a>
</g>
</g>
<!-- Node38&#45;&gt;Node39 -->
<g id="edge38" class="edge">
<title>Node38&#45;&gt;Node39</title>
<path fill="none" stroke="midnightblue" d="M290.49,-281.51C313.87,-295.57 350.78,-316.35 385,-329.5 394.69,-333.22 405.12,-336.54 415.46,-339.45"/>
<polygon fill="midnightblue" stroke="midnightblue" points="292.01,-278.33 281.65,-276.11 288.36,-284.3 292.01,-278.33"/>
</g>
<!-- Node40 -->
<g id="node40" class="node">
<title>Node40</title>
<g id="a_node40"><a xlink:href="classtracktion__engine_1_1ClipTrack.html" target="_top" xlink:title=" ">
<polygon fill="none" stroke="red" points="411.5,-301 411.5,-320 560.5,-320 560.5,-301 411.5,-301"/>
<text text-anchor="middle" x="486" y="-308" font-family="Helvetica,sans-Serif" font-size="10.00">tracktion_engine::ClipTrack</text>
</a>
</g>
</g>
<!-- Node38&#45;&gt;Node40 -->
<g id="edge39" class="edge">
<title>Node38&#45;&gt;Node40</title>
<path fill="none" stroke="midnightblue" d="M320.59,-278.15C340.79,-282.44 363.92,-287.28 385,-291.5 400.85,-294.68 418.15,-298.01 433.83,-300.98"/>
<polygon fill="midnightblue" stroke="midnightblue" points="321.14,-274.69 310.63,-276.03 319.68,-281.54 321.14,-274.69"/>
</g>
<!-- Node45 -->
<g id="node42" class="node">
<title>Node45</title>
<g id="a_node42"><a xlink:href="classtracktion__engine_1_1FolderTrack.html" target="_top" xlink:title=" ">
<polygon fill="none" stroke="black" points="419,-251.5 419,-281.5 553,-281.5 553,-251.5 419,-251.5"/>
<text text-anchor="start" x="427" y="-269.5" font-family="Helvetica,sans-Serif" font-size="10.00">tracktion_engine::Folder</text>
<text text-anchor="middle" x="486" y="-258.5" font-family="Helvetica,sans-Serif" font-size="10.00">Track</text>
</a>
</g>
</g>
<!-- Node38&#45;&gt;Node45 -->
<g id="edge41" class="edge">
<title>Node38&#45;&gt;Node45</title>
<path fill="none" stroke="midnightblue" d="M340.84,-266.5C366.07,-266.5 394.08,-266.5 418.64,-266.5"/>
<polygon fill="midnightblue" stroke="midnightblue" points="340.58,-263 330.58,-266.5 340.58,-270 340.58,-263"/>
</g>
<!-- Node46 -->
<g id="node43" class="node">
<title>Node46</title>
<g id="a_node43"><a xlink:href="classtracktion__engine_1_1MasterTrack.html" target="_top" xlink:title="A track to represent the master plugins.">
<polygon fill="none" stroke="black" points="417,-202.5 417,-232.5 555,-232.5 555,-202.5 417,-202.5"/>
<text text-anchor="start" x="425" y="-220.5" font-family="Helvetica,sans-Serif" font-size="10.00">tracktion_engine::Master</text>
<text text-anchor="middle" x="486" y="-209.5" font-family="Helvetica,sans-Serif" font-size="10.00">Track</text>
</a>
</g>
</g>
<!-- Node38&#45;&gt;Node46 -->
<g id="edge42" class="edge">
<title>Node38&#45;&gt;Node46</title>
<path fill="none" stroke="midnightblue" d="M319.03,-254.72C348.68,-248.07 386.03,-239.69 417.79,-232.57"/>
<polygon fill="midnightblue" stroke="midnightblue" points="317.88,-251.39 308.89,-256.99 319.41,-258.22 317.88,-251.39"/>
</g>
<!-- Node47 -->
<g id="node44" class="node">
<title>Node47</title>
<g id="a_node44"><a xlink:href="classtracktion__engine_1_1TempoTrack.html" target="_top" xlink:title=" ">
<polygon fill="none" stroke="black" points="405,-164 405,-183 567,-183 567,-164 405,-164"/>
<text text-anchor="middle" x="486" y="-171" font-family="Helvetica,sans-Serif" font-size="10.00">tracktion_engine::TempoTrack</text>
</a>
</g>
</g>
<!-- Node38&#45;&gt;Node47 -->
<g id="edge43" class="edge">
<title>Node38&#45;&gt;Node47</title>
<path fill="none" stroke="midnightblue" d="M287.04,-250.67C309.77,-233.95 348.08,-208.02 385,-193.5 396.04,-189.16 408.15,-185.72 420.01,-183.01"/>
<polygon fill="midnightblue" stroke="midnightblue" points="284.76,-248.01 278.85,-256.8 288.96,-253.61 284.76,-248.01"/>
</g>
<!-- Node41 -->
<g id="node41" class="node">
<title>Node41</title>
<g id="a_node41"><a xlink:href="classtracktion__engine_1_1ArrangerTrack.html" target="_top" xlink:title="A track similar to the MarkerTrack but can be used to move sections of an Edit around.">
<polygon fill="none" stroke="black" points="638,-11.5 638,-41.5 784,-41.5 784,-11.5 638,-11.5"/>
<text text-anchor="start" x="646" y="-29.5" font-family="Helvetica,sans-Serif" font-size="10.00">tracktion_engine::Arranger</text>
<text text-anchor="middle" x="711" y="-18.5" font-family="Helvetica,sans-Serif" font-size="10.00">Track</text>
</a>
</g>
</g>
<!-- Node40&#45;&gt;Node41 -->
<g id="edge40" class="edge">
<title>Node40&#45;&gt;Node41</title>
<path fill="none" stroke="midnightblue" d="M570.14,-303.54C576.39,-300.49 582.14,-296.55 587,-291.5 661.77,-213.76 551.88,-132.59 623,-51.5 627.25,-46.66 632.37,-42.72 637.97,-39.53"/>
<polygon fill="midnightblue" stroke="midnightblue" points="568.61,-300.39 560.67,-307.41 571.25,-306.87 568.61,-300.39"/>
</g>
<!-- Node49 -->
<g id="node46" class="node">
<title>Node49</title>
<g id="a_node46"><a xlink:href="classtracktion__engine_1_1Clip.html" target="_top" xlink:title="A clip in an edit.">
<polygon fill="none" stroke="red" points="424.5,-126 424.5,-145 547.5,-145 547.5,-126 424.5,-126"/>
<text text-anchor="middle" x="486" y="-133" font-family="Helvetica,sans-Serif" font-size="10.00">tracktion_engine::Clip</text>
</a>
</g>
</g>
<!-- Node48&#45;&gt;Node49 -->
<g id="edge45" class="edge">
<title>Node48&#45;&gt;Node49</title>
<path fill="none" stroke="midnightblue" d="M331.34,-108.78C362.77,-114.24 400.12,-120.74 430.12,-125.96"/>
<polygon fill="midnightblue" stroke="midnightblue" points="331.81,-105.31 321.35,-107.04 330.61,-112.2 331.81,-105.31"/>
</g>
<!-- Node58 -->
<g id="node47" class="node">
<title>Node58</title>
<g id="a_node47"><a xlink:href="classtracktion__engine_1_1CollectionClip.html" target="_top" xlink:title=" ">
<polygon fill="none" stroke="black" points="400,-88 400,-107 572,-107 572,-88 400,-88"/>
<text text-anchor="middle" x="486" y="-95" font-family="Helvetica,sans-Serif" font-size="10.00">tracktion_engine::CollectionClip</text>
</a>
</g>
</g>
<!-- Node48&#45;&gt;Node58 -->
<g id="edge46" class="edge">
<title>Node48&#45;&gt;Node58</title>
<path fill="none" stroke="midnightblue" d="M351.94,-97.5C367.7,-97.5 384.16,-97.5 399.92,-97.5"/>
<polygon fill="midnightblue" stroke="midnightblue" points="351.7,-94 341.7,-97.5 351.7,-101 351.7,-94"/>
</g>
<!-- Node59 -->
<g id="node48" class="node">
<title>Node59</title>
<g id="a_node48"><a xlink:href="classtracktion__engine_1_1PitchSetting.html" target="_top" xlink:title=" ">
<polygon fill="none" stroke="black" points="404.5,-50 404.5,-69 567.5,-69 567.5,-50 404.5,-50"/>
<text text-anchor="middle" x="486" y="-57" font-family="Helvetica,sans-Serif" font-size="10.00">tracktion_engine::PitchSetting</text>
</a>
</g>
</g>
<!-- Node48&#45;&gt;Node59 -->
<g id="edge47" class="edge">
<title>Node48&#45;&gt;Node59</title>
<path fill="none" stroke="midnightblue" d="M331.34,-86.22C362.77,-80.76 400.12,-74.26 430.12,-69.04"/>
<polygon fill="midnightblue" stroke="midnightblue" points="330.61,-82.8 321.35,-87.96 331.81,-89.69 330.61,-82.8"/>
</g>
<!-- Node60 -->
<g id="node49" class="node">
<title>Node60</title>
<g id="a_node49"><a xlink:href="classtracktion__engine_1_1TimeSigSetting.html" target="_top" xlink:title=" ">
<polygon fill="none" stroke="black" points="414,-0.5 414,-30.5 558,-30.5 558,-0.5 414,-0.5"/>
<text text-anchor="start" x="422" y="-18.5" font-family="Helvetica,sans-Serif" font-size="10.00">tracktion_engine::TimeSig</text>
<text text-anchor="middle" x="486" y="-7.5" font-family="Helvetica,sans-Serif" font-size="10.00">Setting</text>
</a>
</g>
</g>
<!-- Node48&#45;&gt;Node60 -->
<g id="edge48" class="edge">
<title>Node48&#45;&gt;Node60</title>
<path fill="none" stroke="midnightblue" d="M292.69,-82.99C316.27,-70.39 352.16,-52.36 385,-40.5 395.18,-36.82 406.14,-33.49 416.93,-30.54"/>
<polygon fill="midnightblue" stroke="midnightblue" points="290.82,-80.02 283.69,-87.86 294.15,-86.18 290.82,-80.02"/>
</g>
</g>
</svg>
