<?xml version="1.0" encoding="UTF-8" standalone="no"?>
<!DOCTYPE svg PUBLIC "-//W3C//DTD SVG 1.1//EN"
 "http://www.w3.org/Graphics/SVG/1.1/DTD/svg11.dtd">
<!-- Generated by graphviz version 2.43.0 (0)
 -->
<!-- Title: tracktion::engine::AudioNode Pages: 1 -->
<svg width="471pt" height="230pt"
 viewBox="0.00 0.00 471.00 230.00" xmlns="http://www.w3.org/2000/svg" xmlns:xlink="http://www.w3.org/1999/xlink">
<g id="graph0" class="graph" transform="scale(1 1) rotate(0) translate(4 226)">
<title>tracktion::engine::AudioNode</title>
<!-- Node1 -->
<g id="Node000001" class="node">
<title>Node1</title>
<g id="a_Node000001"><a xlink:title="Base class for nodes in an audio playback graph.">
<polygon fill="#999999" stroke="#666666" points="105,-126 0,-126 0,-96 105,-96 105,-126"/>
<text text-anchor="start" x="8" y="-114" font-family="Helvetica,sans-Serif" font-size="10.00">tracktion::engine::</text>
<text text-anchor="middle" x="52.5" y="-103" font-family="Helvetica,sans-Serif" font-size="10.00">AudioNode</text>
</a>
</g>
</g>
<!-- Node2 -->
<g id="Node000002" class="node">
<title>Node2</title>
<g id="a_Node000002"><a xlink:href="classtracktion_1_1engine_1_1CombiningAudioNode.html" target="_top" xlink:title="An AudioNode that mixes a sequence of clips of other nodes.">
<polygon fill="white" stroke="#666666" points="278,-222 156,-222 156,-192 278,-192 278,-222"/>
<text text-anchor="start" x="164" y="-210" font-family="Helvetica,sans-Serif" font-size="10.00">tracktion::engine::</text>
<text text-anchor="middle" x="217" y="-199" font-family="Helvetica,sans-Serif" font-size="10.00">CombiningAudioNode</text>
</a>
</g>
</g>
<!-- Node1&#45;&gt;Node2 -->
<g id="edge1_Node000001_Node000002" class="edge">
<title>Node1&#45;&gt;Node2</title>
<g id="a_edge1_Node000001_Node000002"><a xlink:title=" ">
<path fill="none" stroke="#63b8ff" d="M75.89,-133.52C92.6,-149.25 116.66,-169.73 141,-183 147.12,-186.34 153.78,-189.3 160.52,-191.9"/>
<polygon fill="#63b8ff" stroke="#63b8ff" points="77.94,-130.64 68.3,-126.23 73.09,-135.68 77.94,-130.64"/>
</a>
</g>
</g>
<!-- Node3 -->
<g id="Node000003" class="node">
<title>Node3</title>
<g id="a_Node000003"><a xlink:href="classtracktion_1_1engine_1_1PluginAudioNode.html" target="_top" xlink:title=" ">
<polygon fill="white" stroke="#666666" points="269.5,-174 164.5,-174 164.5,-144 269.5,-144 269.5,-174"/>
<text text-anchor="start" x="172.5" y="-162" font-family="Helvetica,sans-Serif" font-size="10.00">tracktion::engine::</text>
<text text-anchor="middle" x="217" y="-151" font-family="Helvetica,sans-Serif" font-size="10.00">PluginAudioNode</text>
</a>
</g>
</g>
<!-- Node1&#45;&gt;Node3 -->
<g id="edge2_Node000001_Node000003" class="edge">
<title>Node1&#45;&gt;Node3</title>
<g id="a_edge2_Node000001_Node000003"><a xlink:title=" ">
<path fill="none" stroke="#63b8ff" d="M114.19,-128.93C130.99,-133.89 149.04,-139.22 165.21,-144"/>
<polygon fill="#63b8ff" stroke="#63b8ff" points="115.05,-125.53 104.47,-126.06 113.07,-132.25 115.05,-125.53"/>
</a>
</g>
</g>
<!-- Node4 -->
<g id="Node000004" class="node">
<title>Node4</title>
<g id="a_Node000004"><a xlink:href="classtracktion_1_1engine_1_1SingleInputAudioNode.html" target="_top" xlink:title=" ">
<polygon fill="white" stroke="#666666" points="279.5,-126 154.5,-126 154.5,-96 279.5,-96 279.5,-126"/>
<text text-anchor="start" x="162.5" y="-114" font-family="Helvetica,sans-Serif" font-size="10.00">tracktion::engine::</text>
<text text-anchor="middle" x="217" y="-103" font-family="Helvetica,sans-Serif" font-size="10.00">SingleInputAudioNode</text>
</a>
</g>
</g>
<!-- Node1&#45;&gt;Node4 -->
<g id="edge3_Node000001_Node000004" class="edge">
<title>Node1&#45;&gt;Node4</title>
<g id="a_edge3_Node000001_Node000004"><a xlink:title=" ">
<path fill="none" stroke="#63b8ff" d="M115.43,-111C128.21,-111 141.65,-111 154.41,-111"/>
<polygon fill="#63b8ff" stroke="#63b8ff" points="115.36,-107.5 105.36,-111 115.36,-114.5 115.36,-107.5"/>
</a>
</g>
</g>
<!-- Node9 -->
<g id="Node000009" class="node">
<title>Node9</title>
<g id="a_Node000009"><a xlink:href="classtracktion_1_1engine_1_1SubSampleWaveAudioNode.html" target="_top" xlink:title=" ">
<polygon fill="white" stroke="#666666" points="293,-78 141,-78 141,-48 293,-48 293,-78"/>
<text text-anchor="start" x="149" y="-66" font-family="Helvetica,sans-Serif" font-size="10.00">tracktion::engine::</text>
<text text-anchor="middle" x="217" y="-55" font-family="Helvetica,sans-Serif" font-size="10.00">SubSampleWaveAudioNode</text>
</a>
</g>
</g>
<!-- Node1&#45;&gt;Node9 -->
<g id="edge8_Node000001_Node000009" class="edge">
<title>Node1&#45;&gt;Node9</title>
<g id="a_edge8_Node000001_Node000009"><a xlink:title=" ">
<path fill="none" stroke="#63b8ff" d="M114.19,-93.07C130.99,-88.11 149.04,-82.78 165.21,-78"/>
<polygon fill="#63b8ff" stroke="#63b8ff" points="113.07,-89.75 104.47,-95.94 115.05,-96.47 113.07,-89.75"/>
</a>
</g>
</g>
<!-- Node10 -->
<g id="Node000010" class="node">
<title>Node10</title>
<g id="a_Node000010"><a xlink:href="classtracktion_1_1engine_1_1WaveAudioNode.html" target="_top" xlink:title="An AudioNode that plays back a wave file.">
<polygon fill="white" stroke="#666666" points="269.5,-30 164.5,-30 164.5,0 269.5,0 269.5,-30"/>
<text text-anchor="start" x="172.5" y="-18" font-family="Helvetica,sans-Serif" font-size="10.00">tracktion::engine::</text>
<text text-anchor="middle" x="217" y="-7" font-family="Helvetica,sans-Serif" font-size="10.00">WaveAudioNode</text>
</a>
</g>
</g>
<!-- Node1&#45;&gt;Node10 -->
<g id="edge9_Node000001_Node000010" class="edge">
<title>Node1&#45;&gt;Node10</title>
<g id="a_edge9_Node000001_Node000010"><a xlink:title=" ">
<path fill="none" stroke="#63b8ff" d="M75.89,-88.48C92.6,-72.75 116.66,-52.27 141,-39 148.32,-35.01 156.41,-31.56 164.49,-28.61"/>
<polygon fill="#63b8ff" stroke="#63b8ff" points="73.09,-86.32 68.3,-95.77 77.94,-91.36 73.09,-86.32"/>
</a>
</g>
</g>
<!-- Node5 -->
<g id="Node000005" class="node">
<title>Node5</title>
<g id="a_Node000005"><a xlink:href="classtracktion_1_1engine_1_1FadeInOutAudioNode.html" target="_top" xlink:title="An AudioNode that fades its input node in/out at given times.">
<polygon fill="white" stroke="#666666" points="455.5,-198 336.5,-198 336.5,-168 455.5,-168 455.5,-198"/>
<text text-anchor="start" x="344.5" y="-186" font-family="Helvetica,sans-Serif" font-size="10.00">tracktion::engine::</text>
<text text-anchor="middle" x="396" y="-175" font-family="Helvetica,sans-Serif" font-size="10.00">FadeInOutAudioNode</text>
</a>
</g>
</g>
<!-- Node4&#45;&gt;Node5 -->
<g id="edge4_Node000004_Node000005" class="edge">
<title>Node4&#45;&gt;Node5</title>
<g id="a_edge4_Node000004_Node000005"><a xlink:title=" ">
<path fill="none" stroke="#63b8ff" d="M281.14,-129.78C285.2,-131.42 289.19,-133.16 293,-135 310.32,-143.34 311.84,-150.32 329,-159 335.31,-162.19 342.15,-165.17 348.95,-167.87"/>
<polygon fill="#63b8ff" stroke="#63b8ff" points="282.16,-126.42 271.57,-126.12 279.66,-132.96 282.16,-126.42"/>
</a>
</g>
</g>
<!-- Node6 -->
<g id="Node000006" class="node">
<title>Node6</title>
<g id="a_Node000006"><a xlink:href="structtracktion_1_1engine_1_1MuteAudioNode.html" target="_top" xlink:title=" ">
<polygon fill="white" stroke="#666666" points="448.5,-150 343.5,-150 343.5,-120 448.5,-120 448.5,-150"/>
<text text-anchor="start" x="351.5" y="-138" font-family="Helvetica,sans-Serif" font-size="10.00">tracktion::engine::</text>
<text text-anchor="middle" x="396" y="-127" font-family="Helvetica,sans-Serif" font-size="10.00">MuteAudioNode</text>
</a>
</g>
</g>
<!-- Node4&#45;&gt;Node6 -->
<g id="edge5_Node000004_Node000006" class="edge">
<title>Node4&#45;&gt;Node6</title>
<g id="a_edge5_Node000004_Node000006"><a xlink:title=" ">
<path fill="none" stroke="#63b8ff" d="M290.26,-120.8C308.07,-123.21 326.78,-125.75 343.39,-128"/>
<polygon fill="#63b8ff" stroke="#63b8ff" points="290.29,-117.27 279.91,-119.39 289.35,-124.21 290.29,-117.27"/>
</a>
</g>
</g>
<!-- Node7 -->
<g id="Node000007" class="node">
<title>Node7</title>
<g id="a_Node000007"><a xlink:href="classtracktion_1_1engine_1_1SpeedRampAudioNode.html" target="_top" xlink:title="An AudioNode that speeds up and slows down its input node in/out at given times.">
<polygon fill="white" stroke="#666666" points="460,-102 332,-102 332,-72 460,-72 460,-102"/>
<text text-anchor="start" x="340" y="-90" font-family="Helvetica,sans-Serif" font-size="10.00">tracktion::engine::</text>
<text text-anchor="middle" x="396" y="-79" font-family="Helvetica,sans-Serif" font-size="10.00">SpeedRampAudioNode</text>
</a>
</g>
</g>
<!-- Node4&#45;&gt;Node7 -->
<g id="edge6_Node000004_Node000007" class="edge">
<title>Node4&#45;&gt;Node7</title>
<g id="a_edge6_Node000004_Node000007"><a xlink:title=" ">
<path fill="none" stroke="#63b8ff" d="M289.92,-101.25C303.84,-99.36 318.32,-97.4 331.93,-95.55"/>
<polygon fill="#63b8ff" stroke="#63b8ff" points="289.35,-97.79 279.91,-102.61 290.29,-104.73 289.35,-97.79"/>
</a>
</g>
</g>
<!-- Node8 -->
<g id="Node000008" class="node">
<title>Node8</title>
<g id="a_Node000008"><a xlink:href="classtracktion_1_1engine_1_1TimedMutingAudioNode.html" target="_top" xlink:title=" ">
<polygon fill="white" stroke="#666666" points="463,-54 329,-54 329,-24 463,-24 463,-54"/>
<text text-anchor="start" x="337" y="-42" font-family="Helvetica,sans-Serif" font-size="10.00">tracktion::engine::</text>
<text text-anchor="middle" x="396" y="-31" font-family="Helvetica,sans-Serif" font-size="10.00">TimedMutingAudioNode</text>
</a>
</g>
</g>
<!-- Node4&#45;&gt;Node8 -->
<g id="edge7_Node000004_Node000008" class="edge">
<title>Node4&#45;&gt;Node8</title>
<g id="a_edge7_Node000004_Node000008"><a xlink:title=" ">
<path fill="none" stroke="#63b8ff" d="M281.14,-92.22C285.2,-90.58 289.19,-88.84 293,-87 310.32,-78.66 311.84,-71.68 329,-63 335.31,-59.81 342.15,-56.83 348.95,-54.13"/>
<polygon fill="#63b8ff" stroke="#63b8ff" points="279.66,-89.04 271.57,-95.88 282.16,-95.58 279.66,-89.04"/>
</a>
</g>
</g>
</g>
</svg>
