<?xml version="1.0" encoding="UTF-8" standalone="no"?>
<!DOCTYPE svg PUBLIC "-//W3C//DTD SVG 1.1//EN"
 "http://www.w3.org/Graphics/SVG/1.1/DTD/svg11.dtd">
<!-- Generated by graphviz version 2.40.1 (20161225.0304)
 -->
<!-- Title: tracktion_engine::EditClip Pages: 1 -->
<svg width="546pt" height="274pt"
 viewBox="0.00 0.00 545.50 274.00" xmlns="http://www.w3.org/2000/svg" xmlns:xlink="http://www.w3.org/1999/xlink">
<g id="graph0" class="graph" transform="scale(1 1) rotate(0) translate(4 270)">
<title>tracktion_engine::EditClip</title>
<!-- Node0 -->
<g id="node1" class="node">
<title>Node0</title>
<polygon fill="#bfbfbf" stroke="#000000" points="310.5,-.5 310.5,-19.5 438.5,-19.5 438.5,-.5 310.5,-.5"/>
<text text-anchor="middle" x="374.5" y="-7.5" font-family="Helvetica,sans-Serif" font-size="10.00" fill="#000000">tracktion_engine::EditClip</text>
</g>
<!-- Node1 -->
<g id="node2" class="node">
<title>Node1</title>
<g id="a_node2"><a xlink:href="classtracktion__engine_1_1AudioClipBase.html" target="_top" xlink:title="Base class for Clips that produce some kind of audio e.g. ">
<polygon fill="none" stroke="#000000" points="209.5,-62 209.5,-81 367.5,-81 367.5,-62 209.5,-62"/>
<text text-anchor="middle" x="288.5" y="-69" font-family="Helvetica,sans-Serif" font-size="10.00" fill="#000000">tracktion_engine::AudioClipBase</text>
</a>
</g>
</g>
<!-- Node1&#45;&gt;Node0 -->
<g id="edge1" class="edge">
<title>Node1&#45;&gt;Node0</title>
<path fill="none" stroke="#191970" d="M310.2188,-55.9685C326.2509,-44.5037 347.5604,-29.265 361.1569,-19.5419"/>
<polygon fill="#191970" stroke="#191970" points="308.0357,-53.2268 301.9375,-61.8906 312.1076,-58.9207 308.0357,-53.2268"/>
</g>
<!-- Node2 -->
<g id="node3" class="node">
<title>Node2</title>
<g id="a_node3"><a xlink:href="classtracktion__engine_1_1Clip.html" target="_top" xlink:title="A clip in an edit. ">
<polygon fill="none" stroke="#000000" points="165,-129 165,-148 276,-148 276,-129 165,-129"/>
<text text-anchor="middle" x="220.5" y="-136" font-family="Helvetica,sans-Serif" font-size="10.00" fill="#000000">tracktion_engine::Clip</text>
</a>
</g>
</g>
<!-- Node2&#45;&gt;Node1 -->
<g id="edge2" class="edge">
<title>Node2&#45;&gt;Node1</title>
<path fill="none" stroke="#191970" d="M237.674,-121.5785C250.6799,-108.7639 268.0779,-91.6218 278.7753,-81.0817"/>
<polygon fill="#191970" stroke="#191970" points="234.9095,-119.3889 230.2427,-128.9005 239.8225,-124.3752 234.9095,-119.3889"/>
</g>
<!-- Node3 -->
<g id="node4" class="node">
<title>Node3</title>
<g id="a_node4"><a xlink:href="classtracktion__engine_1_1TrackItem.html" target="_top" xlink:title="Base class for EditItems that live in a track, e.g. ">
<polygon fill="none" stroke="#000000" points="73.5,-190.5 73.5,-209.5 211.5,-209.5 211.5,-190.5 73.5,-190.5"/>
<text text-anchor="middle" x="142.5" y="-197.5" font-family="Helvetica,sans-Serif" font-size="10.00" fill="#000000">tracktion_engine::TrackItem</text>
</a>
</g>
</g>
<!-- Node3&#45;&gt;Node2 -->
<g id="edge3" class="edge">
<title>Node3&#45;&gt;Node2</title>
<path fill="none" stroke="#191970" d="M162.6036,-184.1491C177.0965,-172.722 196.1806,-157.6749 208.3981,-148.0419"/>
<polygon fill="#191970" stroke="#191970" points="160.3732,-181.4506 154.6875,-190.3906 164.7073,-186.9475 160.3732,-181.4506"/>
</g>
<!-- Node4 -->
<g id="node5" class="node">
<title>Node4</title>
<g id="a_node5"><a xlink:href="classtracktion__engine_1_1EditItem.html" target="_top" xlink:title="Base class for objects that live inside an edit &#45; e.g. ">
<polygon fill="none" stroke="#000000" points="0,-246.5 0,-265.5 131,-265.5 131,-246.5 0,-246.5"/>
<text text-anchor="middle" x="65.5" y="-253.5" font-family="Helvetica,sans-Serif" font-size="10.00" fill="#000000">tracktion_engine::EditItem</text>
</a>
</g>
</g>
<!-- Node4&#45;&gt;Node3 -->
<g id="edge4" class="edge">
<title>Node4&#45;&gt;Node3</title>
<path fill="none" stroke="#191970" d="M87.2116,-240.2097C100.7353,-230.3743 117.6958,-218.0394 129.2413,-209.6427"/>
<polygon fill="#191970" stroke="#191970" points="84.9411,-237.5332 78.9124,-246.2455 89.0584,-243.1944 84.9411,-237.5332"/>
</g>
<!-- Node5 -->
<g id="node6" class="node">
<title>Node5</title>
<g id="a_node6"><a xlink:href="classtracktion__engine_1_1Selectable.html" target="_top" xlink:title="Base class for things that can be selected, and whose properties can appear in the properties panel...">
<polygon fill="none" stroke="#000000" points="149.5,-246.5 149.5,-265.5 289.5,-265.5 289.5,-246.5 149.5,-246.5"/>
<text text-anchor="middle" x="219.5" y="-253.5" font-family="Helvetica,sans-Serif" font-size="10.00" fill="#000000">tracktion_engine::Selectable</text>
</a>
</g>
</g>
<!-- Node5&#45;&gt;Node3 -->
<g id="edge5" class="edge">
<title>Node5&#45;&gt;Node3</title>
<path fill="none" stroke="#191970" d="M197.7884,-240.2097C184.2647,-230.3743 167.3042,-218.0394 155.7587,-209.6427"/>
<polygon fill="#191970" stroke="#191970" points="195.9416,-243.1944 206.0876,-246.2455 200.0589,-237.5332 195.9416,-243.1944"/>
</g>
<!-- Node6 -->
<g id="node7" class="node">
<title>Node6</title>
<g id="a_node7"><a xlink:href="classtracktion__engine_1_1Exportable.html" target="_top" xlink:title="An interface for objects within an edit that can be exported. ">
<polygon fill="none" stroke="#000000" points="229.5,-190.5 229.5,-209.5 369.5,-209.5 369.5,-190.5 229.5,-190.5"/>
<text text-anchor="middle" x="299.5" y="-197.5" font-family="Helvetica,sans-Serif" font-size="10.00" fill="#000000">tracktion_engine::Exportable</text>
</a>
</g>
</g>
<!-- Node6&#45;&gt;Node2 -->
<g id="edge6" class="edge">
<title>Node6&#45;&gt;Node2</title>
<path fill="none" stroke="#191970" d="M279.1387,-184.1491C264.46,-172.722 245.1312,-157.6749 232.7571,-148.0419"/>
<polygon fill="#191970" stroke="#191970" points="277.1154,-187.0095 287.1563,-190.3906 281.4154,-181.4859 277.1154,-187.0095"/>
</g>
<!-- Node7 -->
<g id="node8" class="node">
<title>Node7</title>
<g id="a_node8"><a xlink:href="structtracktion__engine_1_1RenderManager_1_1Job_1_1Listener.html" target="_top" xlink:title="tracktion_engine::Render\lManager::Job::Listener">
<polygon fill="none" stroke="#000000" points="294,-123.5 294,-153.5 419,-153.5 419,-123.5 294,-123.5"/>
<text text-anchor="start" x="302" y="-141.5" font-family="Helvetica,sans-Serif" font-size="10.00" fill="#000000">tracktion_engine::Render</text>
<text text-anchor="middle" x="356.5" y="-130.5" font-family="Helvetica,sans-Serif" font-size="10.00" fill="#000000">Manager::Job::Listener</text>
</a>
</g>
</g>
<!-- Node7&#45;&gt;Node1 -->
<g id="edge7" class="edge">
<title>Node7&#45;&gt;Node1</title>
<path fill="none" stroke="#191970" d="M333.8705,-116.2032C321.7524,-104.2634 307.4564,-90.1776 298.1976,-81.055"/>
<polygon fill="#191970" stroke="#191970" points="331.49,-118.7713 341.0697,-123.2967 336.403,-113.785 331.49,-118.7713"/>
</g>
<!-- Node8 -->
<g id="node9" class="node">
<title>Node8</title>
<g id="a_node9"><a xlink:href="structtracktion__engine_1_1EditSnapshot_1_1Listener.html" target="_top" xlink:title="tracktion_engine::EditSnapshot\l::Listener">
<polygon fill="none" stroke="#000000" points="385.5,-56.5 385.5,-86.5 537.5,-86.5 537.5,-56.5 385.5,-56.5"/>
<text text-anchor="start" x="393.5" y="-74.5" font-family="Helvetica,sans-Serif" font-size="10.00" fill="#000000">tracktion_engine::EditSnapshot</text>
<text text-anchor="middle" x="461.5" y="-63.5" font-family="Helvetica,sans-Serif" font-size="10.00" fill="#000000">::Listener</text>
</a>
</g>
</g>
<!-- Node8&#45;&gt;Node0 -->
<g id="edge8" class="edge">
<title>Node8&#45;&gt;Node0</title>
<path fill="none" stroke="#8b1a1a" d="M431.6325,-50.3868C416.8733,-39.9535 399.7849,-27.8738 388.17,-19.6633"/>
<polygon fill="#8b1a1a" stroke="#8b1a1a" points="429.8082,-53.3834 439.9944,-56.2977 433.8489,-47.6673 429.8082,-53.3834"/>
</g>
</g>
</svg>
