<?xml version="1.0" encoding="UTF-8" standalone="no"?>
<!DOCTYPE svg PUBLIC "-//W3C//DTD SVG 1.1//EN"
 "http://www.w3.org/Graphics/SVG/1.1/DTD/svg11.dtd">
<!-- Generated by graphviz version 2.43.0 (0)
 -->
<!-- Title: tracktion::engine::WaveAudioClip Pages: 1 -->
<svg width="384pt" height="318pt"
 viewBox="0.00 0.00 384.00 318.00" xmlns="http://www.w3.org/2000/svg" xmlns:xlink="http://www.w3.org/1999/xlink">
<g id="graph0" class="graph" transform="scale(1 1) rotate(0) translate(4 314)">
<title>tracktion::engine::WaveAudioClip</title>
<!-- Node1 -->
<g id="node1" class="node">
<title>Node1</title>
<g id="a_node1"><a xlink:title="An audio clip that uses an audio file as its source.">
<polygon fill="#bfbfbf" stroke="black" points="192,-0.5 192,-30.5 297,-30.5 297,-0.5 192,-0.5"/>
<text text-anchor="start" x="200" y="-18.5" font-family="Helvetica,sans-Serif" font-size="10.00">tracktion::engine::</text>
<text text-anchor="middle" x="244.5" y="-7.5" font-family="Helvetica,sans-Serif" font-size="10.00">WaveAudioClip</text>
</a>
</g>
</g>
<!-- Node2 -->
<g id="node2" class="node">
<title>Node2</title>
<g id="a_node2"><a xlink:href="classtracktion_1_1engine_1_1AudioClipBase.html" target="_top" xlink:title="Base class for Clips that produce some kind of audio e.g.">
<polygon fill="none" stroke="black" points="192,-67.5 192,-97.5 297,-97.5 297,-67.5 192,-67.5"/>
<text text-anchor="start" x="200" y="-85.5" font-family="Helvetica,sans-Serif" font-size="10.00">tracktion::engine::</text>
<text text-anchor="middle" x="244.5" y="-74.5" font-family="Helvetica,sans-Serif" font-size="10.00">AudioClipBase</text>
</a>
</g>
</g>
<!-- Node2&#45;&gt;Node1 -->
<g id="edge1" class="edge">
<title>Node2&#45;&gt;Node1</title>
<path fill="none" stroke="midnightblue" d="M244.5,-57.11C244.5,-48.15 244.5,-38.32 244.5,-30.58"/>
<polygon fill="midnightblue" stroke="midnightblue" points="241,-57.4 244.5,-67.4 248,-57.4 241,-57.4"/>
</g>
<!-- Node3 -->
<g id="node3" class="node">
<title>Node3</title>
<g id="a_node3"><a xlink:href="classtracktion_1_1engine_1_1Clip.html" target="_top" xlink:title="A clip in an edit.">
<polygon fill="none" stroke="black" points="112.5,-145.5 112.5,-164.5 236.5,-164.5 236.5,-145.5 112.5,-145.5"/>
<text text-anchor="middle" x="174.5" y="-152.5" font-family="Helvetica,sans-Serif" font-size="10.00">tracktion::engine::Clip</text>
</a>
</g>
</g>
<!-- Node3&#45;&gt;Node2 -->
<g id="edge2" class="edge">
<title>Node3&#45;&gt;Node2</title>
<path fill="none" stroke="midnightblue" d="M190.29,-138.09C202.39,-125.91 218.91,-109.27 230.52,-97.58"/>
<polygon fill="midnightblue" stroke="midnightblue" points="187.65,-135.79 183.08,-145.36 192.61,-140.73 187.65,-135.79"/>
</g>
<!-- Node4 -->
<g id="node4" class="node">
<title>Node4</title>
<g id="a_node4"><a xlink:href="classtracktion_1_1engine_1_1TrackItem.html" target="_top" xlink:title="Base class for EditItems that live in a Track, e.g.">
<polygon fill="none" stroke="black" points="61,-212.5 61,-242.5 166,-242.5 166,-212.5 61,-212.5"/>
<text text-anchor="start" x="69" y="-230.5" font-family="Helvetica,sans-Serif" font-size="10.00">tracktion::engine::</text>
<text text-anchor="middle" x="113.5" y="-219.5" font-family="Helvetica,sans-Serif" font-size="10.00">TrackItem</text>
</a>
</g>
</g>
<!-- Node4&#45;&gt;Node3 -->
<g id="edge3" class="edge">
<title>Node4&#45;&gt;Node3</title>
<path fill="none" stroke="midnightblue" d="M132.64,-204.38C144.19,-191.04 158.27,-174.76 166.81,-164.89"/>
<polygon fill="midnightblue" stroke="midnightblue" points="129.74,-202.38 125.84,-212.23 135.03,-206.96 129.74,-202.38"/>
</g>
<!-- Node5 -->
<g id="node5" class="node">
<title>Node5</title>
<g id="a_node5"><a xlink:href="classtracktion_1_1engine_1_1EditItem.html" target="_top" xlink:title="Base class for objects that live inside an edit &#45; e.g.">
<polygon fill="none" stroke="black" points="0,-279.5 0,-309.5 105,-309.5 105,-279.5 0,-279.5"/>
<text text-anchor="start" x="8" y="-297.5" font-family="Helvetica,sans-Serif" font-size="10.00">tracktion::engine::</text>
<text text-anchor="middle" x="52.5" y="-286.5" font-family="Helvetica,sans-Serif" font-size="10.00">EditItem</text>
</a>
</g>
</g>
<!-- Node5&#45;&gt;Node4 -->
<g id="edge4" class="edge">
<title>Node5&#45;&gt;Node4</title>
<path fill="none" stroke="midnightblue" d="M72.65,-272.02C81.74,-262.34 92.22,-251.17 100.29,-242.58"/>
<polygon fill="midnightblue" stroke="midnightblue" points="70.03,-269.71 65.74,-279.4 75.13,-274.5 70.03,-269.71"/>
</g>
<!-- Node6 -->
<g id="node6" class="node">
<title>Node6</title>
<g id="a_node6"><a xlink:href="classtracktion_1_1engine_1_1Selectable.html" target="_top" xlink:title="Base class for things that can be selected, and whose properties can appear in the properties panel.">
<polygon fill="none" stroke="black" points="123,-279.5 123,-309.5 228,-309.5 228,-279.5 123,-279.5"/>
<text text-anchor="start" x="131" y="-297.5" font-family="Helvetica,sans-Serif" font-size="10.00">tracktion::engine::</text>
<text text-anchor="middle" x="175.5" y="-286.5" font-family="Helvetica,sans-Serif" font-size="10.00">Selectable</text>
</a>
</g>
</g>
<!-- Node6&#45;&gt;Node4 -->
<g id="edge5" class="edge">
<title>Node6&#45;&gt;Node4</title>
<path fill="none" stroke="midnightblue" d="M155.02,-272.02C145.78,-262.34 135.13,-251.17 126.93,-242.58"/>
<polygon fill="midnightblue" stroke="midnightblue" points="152.61,-274.58 162.05,-279.4 157.68,-269.74 152.61,-274.58"/>
</g>
<!-- Node7 -->
<g id="node7" class="node">
<title>Node7</title>
<g id="a_node7"><a xlink:href="classtracktion_1_1engine_1_1Exportable.html" target="_top" xlink:title="An interface for objects within an edit that can be exported.">
<polygon fill="none" stroke="black" points="184,-212.5 184,-242.5 289,-242.5 289,-212.5 184,-212.5"/>
<text text-anchor="start" x="192" y="-230.5" font-family="Helvetica,sans-Serif" font-size="10.00">tracktion::engine::</text>
<text text-anchor="middle" x="236.5" y="-219.5" font-family="Helvetica,sans-Serif" font-size="10.00">Exportable</text>
</a>
</g>
</g>
<!-- Node7&#45;&gt;Node3 -->
<g id="edge6" class="edge">
<title>Node7&#45;&gt;Node3</title>
<path fill="none" stroke="midnightblue" d="M217.05,-204.38C205.31,-191.04 190.99,-174.76 182.32,-164.89"/>
<polygon fill="midnightblue" stroke="midnightblue" points="214.72,-207.04 223.95,-212.23 219.98,-202.41 214.72,-207.04"/>
</g>
<!-- Node8 -->
<g id="node8" class="node">
<title>Node8</title>
<g id="a_node8"><a xlink:href="structtracktion_1_1engine_1_1RenderManager_1_1Job_1_1Listener.html" target="_top" xlink:title=" ">
<polygon fill="none" stroke="black" points="255,-134.5 255,-175.5 376,-175.5 376,-134.5 255,-134.5"/>
<text text-anchor="start" x="263" y="-163.5" font-family="Helvetica,sans-Serif" font-size="10.00">tracktion::engine::</text>
<text text-anchor="start" x="263" y="-152.5" font-family="Helvetica,sans-Serif" font-size="10.00">RenderManager::Job::</text>
<text text-anchor="middle" x="315.5" y="-141.5" font-family="Helvetica,sans-Serif" font-size="10.00">Listener</text>
</a>
</g>
</g>
<!-- Node8&#45;&gt;Node2 -->
<g id="edge7" class="edge">
<title>Node8&#45;&gt;Node2</title>
<path fill="none" stroke="midnightblue" d="M288.62,-127.31C278.56,-117.32 267.52,-106.35 258.99,-97.89"/>
<polygon fill="midnightblue" stroke="midnightblue" points="286.16,-129.8 295.72,-134.36 291.09,-124.83 286.16,-129.8"/>
</g>
</g>
</svg>
