<?xml version="1.0" encoding="UTF-8" standalone="no"?>
<!DOCTYPE svg PUBLIC "-//W3C//DTD SVG 1.1//EN"
 "http://www.w3.org/Graphics/SVG/1.1/DTD/svg11.dtd">
<!-- Generated by graphviz version 2.40.1 (20161225.0304)
 -->
<!-- Title: tracktion_engine::AudioNode Pages: 1 -->
<svg width="558pt" height="607pt"
 viewBox="0.00 0.00 558.00 607.00" xmlns="http://www.w3.org/2000/svg" xmlns:xlink="http://www.w3.org/1999/xlink">
<g id="graph0" class="graph" transform="scale(1 1) rotate(0) translate(4 603)">
<title>tracktion_engine::AudioNode</title>
<!-- Node0 -->
<g id="node1" class="node">
<title>Node0</title>
<polygon fill="#bfbfbf" stroke="#000000" points="0,-344 0,-363 142,-363 142,-344 0,-344"/>
<text text-anchor="middle" x="71" y="-351" font-family="Helvetica,sans-Serif" font-size="10.00" fill="#000000">tracktion_engine::AudioNode</text>
</g>
<!-- Node1 -->
<g id="node2" class="node">
<title>Node1</title>
<g id="a_node2"><a xlink:href="classtracktion__engine_1_1ClickNode.html" target="_top" xlink:title="An AudioNode that produces a click track. ">
<polygon fill="none" stroke="#000000" points="191.5,-470 191.5,-489 331.5,-489 331.5,-470 191.5,-470"/>
<text text-anchor="middle" x="261.5" y="-477" font-family="Helvetica,sans-Serif" font-size="10.00" fill="#000000">tracktion_engine::ClickNode</text>
</a>
</g>
</g>
<!-- Node0&#45;&gt;Node1 -->
<g id="edge1" class="edge">
<title>Node0&#45;&gt;Node1</title>
<path fill="none" stroke="#191970" d="M83.8178,-371.5803C101.9451,-395.7364 137.4198,-438.0897 178,-460.5 185.0278,-464.3811 192.806,-467.4702 200.7054,-469.9288"/>
<polygon fill="#191970" stroke="#191970" points="86.479,-369.2905 77.7452,-363.2928 80.8325,-373.4279 86.479,-369.2905"/>
</g>
<!-- Node2 -->
<g id="node3" class="node">
<title>Node2</title>
<g id="a_node3"><a xlink:href="classtracktion__engine_1_1CombiningAudioNode.html" target="_top" xlink:title="An AudioNode that mixes a sequence of clips of other nodes. ">
<polygon fill="none" stroke="#000000" points="191.5,-420.5 191.5,-450.5 331.5,-450.5 331.5,-420.5 191.5,-420.5"/>
<text text-anchor="start" x="199.5" y="-438.5" font-family="Helvetica,sans-Serif" font-size="10.00" fill="#000000">tracktion_engine::Combining</text>
<text text-anchor="middle" x="261.5" y="-427.5" font-family="Helvetica,sans-Serif" font-size="10.00" fill="#000000">AudioNode</text>
</a>
</g>
</g>
<!-- Node0&#45;&gt;Node2 -->
<g id="edge2" class="edge">
<title>Node0&#45;&gt;Node2</title>
<path fill="none" stroke="#191970" d="M95.1605,-368.1591C116.42,-380.6187 148.4957,-398.3656 178,-410.5 186.8168,-414.1261 196.351,-417.4816 205.7156,-420.48"/>
<polygon fill="#191970" stroke="#191970" points="96.8632,-365.0998 86.4764,-363.0104 93.2932,-371.121 96.8632,-365.0998"/>
</g>
<!-- Node3 -->
<g id="node4" class="node">
<title>Node3</title>
<g id="a_node4"><a xlink:href="classtracktion__engine_1_1MidiAudioNode.html" target="_top" xlink:title="An AudioNode that plays MIDI data from a MidiMessageSequence, at a specific MIDI channel. ">
<polygon fill="none" stroke="#000000" points="181.5,-382 181.5,-401 341.5,-401 341.5,-382 181.5,-382"/>
<text text-anchor="middle" x="261.5" y="-389" font-family="Helvetica,sans-Serif" font-size="10.00" fill="#000000">tracktion_engine::MidiAudioNode</text>
</a>
</g>
</g>
<!-- Node0&#45;&gt;Node3 -->
<g id="edge3" class="edge">
<title>Node0&#45;&gt;Node3</title>
<path fill="none" stroke="#191970" d="M129.2003,-365.1095C156.2938,-370.514 188.125,-376.8635 213.7745,-381.9799"/>
<polygon fill="#191970" stroke="#191970" points="129.5627,-361.6129 119.0712,-363.089 128.1933,-368.4777 129.5627,-361.6129"/>
</g>
<!-- Node4 -->
<g id="node5" class="node">
<title>Node4</title>
<g id="a_node5"><a xlink:href="classtracktion__engine_1_1MixerAudioNode.html" target="_top" xlink:title="An AudioNode that mixes together a set of parallel input nodes. ">
<polygon fill="none" stroke="#000000" points="178.5,-344 178.5,-363 344.5,-363 344.5,-344 178.5,-344"/>
<text text-anchor="middle" x="261.5" y="-351" font-family="Helvetica,sans-Serif" font-size="10.00" fill="#000000">tracktion_engine::MixerAudioNode</text>
</a>
</g>
</g>
<!-- Node0&#45;&gt;Node4 -->
<g id="edge4" class="edge">
<title>Node0&#45;&gt;Node4</title>
<path fill="none" stroke="#191970" d="M152.21,-353.5C160.8077,-353.5 169.5614,-353.5 178.1826,-353.5"/>
<polygon fill="#191970" stroke="#191970" points="152.2061,-350.0001 142.2061,-353.5 152.206,-357.0001 152.2061,-350.0001"/>
</g>
<!-- Node5 -->
<g id="node6" class="node">
<title>Node5</title>
<g id="a_node6"><a xlink:href="classtracktion__engine_1_1SingleInputAudioNode.html" target="_top" xlink:title="tracktion_engine::Single\lInputAudioNode">
<polygon fill="none" stroke="#000000" points="201,-294.5 201,-324.5 322,-324.5 322,-294.5 201,-294.5"/>
<text text-anchor="start" x="209" y="-312.5" font-family="Helvetica,sans-Serif" font-size="10.00" fill="#000000">tracktion_engine::Single</text>
<text text-anchor="middle" x="261.5" y="-301.5" font-family="Helvetica,sans-Serif" font-size="10.00" fill="#000000">InputAudioNode</text>
</a>
</g>
</g>
<!-- Node0&#45;&gt;Node5 -->
<g id="edge5" class="edge">
<title>Node0&#45;&gt;Node5</title>
<path fill="none" stroke="#191970" d="M122.3648,-341.6362C146.5122,-336.0589 175.4753,-329.3692 200.709,-323.541"/>
<polygon fill="#191970" stroke="#191970" points="121.2915,-338.2919 112.3357,-343.9527 122.8668,-345.1123 121.2915,-338.2919"/>
</g>
<!-- Node19 -->
<g id="node20" class="node">
<title>Node19</title>
<g id="a_node20"><a xlink:href="classtracktion__engine_1_1SubSampleWaveAudioNode.html" target="_top" xlink:title="tracktion_engine::SubSample\lWaveAudioNode">
<polygon fill="none" stroke="#000000" points="189.5,-245.5 189.5,-275.5 333.5,-275.5 333.5,-245.5 189.5,-245.5"/>
<text text-anchor="start" x="197.5" y="-263.5" font-family="Helvetica,sans-Serif" font-size="10.00" fill="#000000">tracktion_engine::SubSample</text>
<text text-anchor="middle" x="261.5" y="-252.5" font-family="Helvetica,sans-Serif" font-size="10.00" fill="#000000">WaveAudioNode</text>
</a>
</g>
</g>
<!-- Node0&#45;&gt;Node19 -->
<g id="edge19" class="edge">
<title>Node0&#45;&gt;Node19</title>
<path fill="none" stroke="#191970" d="M91.6357,-337.9446C112.4956,-322.8229 146.1178,-300.0646 178,-285.5 186.1208,-281.7902 194.9336,-278.4625 203.6881,-275.5378"/>
<polygon fill="#191970" stroke="#191970" points="89.5031,-335.1683 83.5194,-343.9117 93.6495,-340.8082 89.5031,-335.1683"/>
</g>
<!-- Node20 -->
<g id="node21" class="node">
<title>Node20</title>
<g id="a_node21"><a xlink:href="classtracktion__engine_1_1WaveAudioNode.html" target="_top" xlink:title="An AudioNode that plays back a wave file. ">
<polygon fill="none" stroke="#000000" points="178,-207 178,-226 345,-226 345,-207 178,-207"/>
<text text-anchor="middle" x="261.5" y="-214" font-family="Helvetica,sans-Serif" font-size="10.00" fill="#000000">tracktion_engine::WaveAudioNode</text>
</a>
</g>
</g>
<!-- Node0&#45;&gt;Node20 -->
<g id="edge20" class="edge">
<title>Node0&#45;&gt;Node20</title>
<path fill="none" stroke="#191970" d="M82.4329,-335.2981C99.7935,-309.2301 135.337,-261.6434 178,-236.5 185.4485,-232.1102 193.808,-228.683 202.2833,-226.0074"/>
<polygon fill="#191970" stroke="#191970" points="79.3921,-333.5543 76.8801,-343.847 85.2624,-337.3673 79.3921,-333.5543"/>
</g>
<!-- Node6 -->
<g id="node7" class="node">
<title>Node6</title>
<g id="a_node7"><a xlink:href="classtracktion__engine_1_1BufferingAudioNode.html" target="_top" xlink:title="AudioNode that buffers its input at a larger buffer size than the calling AudioNode to reduce the amm...">
<polygon fill="none" stroke="#000000" points="399,-568.5 399,-598.5 532,-598.5 532,-568.5 399,-568.5"/>
<text text-anchor="start" x="407" y="-586.5" font-family="Helvetica,sans-Serif" font-size="10.00" fill="#000000">tracktion_engine::Buffering</text>
<text text-anchor="middle" x="465.5" y="-575.5" font-family="Helvetica,sans-Serif" font-size="10.00" fill="#000000">AudioNode</text>
</a>
</g>
</g>
<!-- Node5&#45;&gt;Node6 -->
<g id="edge6" class="edge">
<title>Node5&#45;&gt;Node6</title>
<path fill="none" stroke="#191970" d="M331.111,-323.2023C336.2964,-326.2605 341.0386,-329.9799 345,-334.5 411.459,-410.3321 314.4177,-482.7761 381,-558.5 385.95,-564.1296 392.1009,-568.5201 398.8115,-571.9395"/>
<polygon fill="#191970" stroke="#191970" points="332.5348,-320.0011 322.0258,-318.6551 329.4017,-326.2608 332.5348,-320.0011"/>
</g>
<!-- Node7 -->
<g id="node8" class="node">
<title>Node7</title>
<g id="a_node8"><a xlink:href="classtracktion__engine_1_1ClickMutingNode.html" target="_top" xlink:title="An AudioNode mutes an input click audio node within a given range or if disabled in the Edit...">
<polygon fill="none" stroke="#000000" points="381,-530 381,-549 550,-549 550,-530 381,-530"/>
<text text-anchor="middle" x="465.5" y="-537" font-family="Helvetica,sans-Serif" font-size="10.00" fill="#000000">tracktion_engine::ClickMutingNode</text>
</a>
</g>
</g>
<!-- Node5&#45;&gt;Node7 -->
<g id="edge7" class="edge">
<title>Node5&#45;&gt;Node7</title>
<path fill="none" stroke="#191970" d="M331.2102,-323.4857C336.33,-326.4868 341.0322,-330.1154 345,-334.5 401.4975,-396.9324 322.3605,-460.075 381,-520.5 384.6651,-524.2767 388.9075,-527.3759 393.5009,-529.9121"/>
<polygon fill="#191970" stroke="#191970" points="332.7646,-320.3498 322.2555,-319.0046 329.632,-326.6097 332.7646,-320.3498"/>
</g>
<!-- Node8 -->
<g id="node9" class="node">
<title>Node8</title>
<g id="a_node9"><a xlink:href="classtracktion__engine_1_1FadeInOutAudioNode.html" target="_top" xlink:title="An AudioNode that fades its input node in/out at given times. ">
<polygon fill="none" stroke="#000000" points="403.5,-480.5 403.5,-510.5 527.5,-510.5 527.5,-480.5 403.5,-480.5"/>
<text text-anchor="start" x="411.5" y="-498.5" font-family="Helvetica,sans-Serif" font-size="10.00" fill="#000000">tracktion_engine::FadeIn</text>
<text text-anchor="middle" x="465.5" y="-487.5" font-family="Helvetica,sans-Serif" font-size="10.00" fill="#000000">OutAudioNode</text>
</a>
</g>
</g>
<!-- Node5&#45;&gt;Node8 -->
<g id="edge8" class="edge">
<title>Node5&#45;&gt;Node8</title>
<path fill="none" stroke="#191970" d="M331.5305,-324.131C336.4759,-326.9987 341.0561,-330.4199 345,-334.5 388.7547,-379.7657 336.9256,-426.5455 381,-471.5 387.1924,-477.816 394.9163,-482.5021 403.1598,-485.9725"/>
<polygon fill="#191970" stroke="#191970" points="332.8061,-320.8566 322.2929,-319.5438 329.6928,-327.1262 332.8061,-320.8566"/>
</g>
<!-- Node9 -->
<g id="node10" class="node">
<title>Node9</title>
<g id="a_node10"><a xlink:href="classtracktion__engine_1_1HissingAudioNode.html" target="_top" xlink:title="An AudioNode that adds the &#39;unregistered&#39; hiss noise to the output. ">
<polygon fill="none" stroke="#000000" points="402,-431.5 402,-461.5 529,-461.5 529,-431.5 402,-431.5"/>
<text text-anchor="start" x="410" y="-449.5" font-family="Helvetica,sans-Serif" font-size="10.00" fill="#000000">tracktion_engine::Hissing</text>
<text text-anchor="middle" x="465.5" y="-438.5" font-family="Helvetica,sans-Serif" font-size="10.00" fill="#000000">AudioNode</text>
</a>
</g>
</g>
<!-- Node5&#45;&gt;Node9 -->
<g id="edge9" class="edge">
<title>Node5&#45;&gt;Node9</title>
<path fill="none" stroke="#191970" d="M331.4698,-324.9915C336.3503,-327.6717 340.9369,-330.8146 345,-334.5 376.2998,-362.8902 349.4999,-394.3323 381,-422.5 387.0251,-427.8877 394.1773,-432.0733 401.7317,-435.3235"/>
<polygon fill="#191970" stroke="#191970" points="332.9474,-321.8184 322.4172,-320.6496 329.9201,-328.13 332.9474,-321.8184"/>
</g>
<!-- Node10 -->
<g id="node11" class="node">
<title>Node10</title>
<g id="a_node11"><a xlink:href="classtracktion__engine_1_1LevelMeasuringAudioNode.html" target="_top" xlink:title="Applies a SharedLevelMeter to the audio passing through this node. ">
<polygon fill="none" stroke="#000000" points="384.5,-382.5 384.5,-412.5 546.5,-412.5 546.5,-382.5 384.5,-382.5"/>
<text text-anchor="start" x="392.5" y="-400.5" font-family="Helvetica,sans-Serif" font-size="10.00" fill="#000000">tracktion_engine::LevelMeasuring</text>
<text text-anchor="middle" x="465.5" y="-389.5" font-family="Helvetica,sans-Serif" font-size="10.00" fill="#000000">AudioNode</text>
</a>
</g>
</g>
<!-- Node5&#45;&gt;Node10 -->
<g id="edge10" class="edge">
<title>Node5&#45;&gt;Node10</title>
<path fill="none" stroke="#191970" d="M331.9132,-327.5844C336.4611,-329.6591 340.8679,-331.9571 345,-334.5 364.8133,-346.693 361.1669,-360.3393 381,-372.5 387.2603,-376.3385 394.1437,-379.6165 401.1964,-382.4092"/>
<polygon fill="#191970" stroke="#191970" points="332.9997,-324.2456 322.4226,-323.6327 330.3089,-330.7078 332.9997,-324.2456"/>
</g>
<!-- Node11 -->
<g id="node12" class="node">
<title>Node11</title>
<g id="a_node12"><a xlink:href="structtracktion__engine_1_1MuteAudioNode.html" target="_top" xlink:title="tracktion_engine::MuteAudioNode">
<polygon fill="none" stroke="#000000" points="383.5,-344 383.5,-363 547.5,-363 547.5,-344 383.5,-344"/>
<text text-anchor="middle" x="465.5" y="-351" font-family="Helvetica,sans-Serif" font-size="10.00" fill="#000000">tracktion_engine::MuteAudioNode</text>
</a>
</g>
</g>
<!-- Node5&#45;&gt;Node11 -->
<g id="edge11" class="edge">
<title>Node5&#45;&gt;Node11</title>
<path fill="none" stroke="#191970" d="M332.0357,-324.7136C361.6655,-331.1043 395.2221,-338.342 421.2753,-343.9613"/>
<polygon fill="#191970" stroke="#191970" points="332.6676,-321.2695 322.1544,-322.5823 331.1917,-328.1121 332.6676,-321.2695"/>
</g>
<!-- Node12 -->
<g id="node13" class="node">
<title>Node12</title>
<g id="a_node13"><a xlink:href="classtracktion__engine_1_1PlayHeadAudioNode.html" target="_top" xlink:title="An AudioNode that synchronises its input node with the playback position. ">
<polygon fill="none" stroke="#000000" points="397,-294.5 397,-324.5 534,-324.5 534,-294.5 397,-294.5"/>
<text text-anchor="start" x="405" y="-312.5" font-family="Helvetica,sans-Serif" font-size="10.00" fill="#000000">tracktion_engine::PlayHead</text>
<text text-anchor="middle" x="465.5" y="-301.5" font-family="Helvetica,sans-Serif" font-size="10.00" fill="#000000">AudioNode</text>
</a>
</g>
</g>
<!-- Node5&#45;&gt;Node12 -->
<g id="edge12" class="edge">
<title>Node5&#45;&gt;Node12</title>
<path fill="none" stroke="#191970" d="M332.2554,-309.5C353.1853,-309.5 376.058,-309.5 396.8525,-309.5"/>
<polygon fill="#191970" stroke="#191970" points="332.1544,-306.0001 322.1544,-309.5 332.1544,-313.0001 332.1544,-306.0001"/>
</g>
<!-- Node13 -->
<g id="node14" class="node">
<title>Node13</title>
<g id="a_node14"><a xlink:href="classtracktion__engine_1_1SidechainReceiveAudioNode.html" target="_top" xlink:title="tracktion_engine::Sidechain\lReceiveAudioNode">
<polygon fill="none" stroke="#000000" points="397,-245.5 397,-275.5 534,-275.5 534,-245.5 397,-245.5"/>
<text text-anchor="start" x="405" y="-263.5" font-family="Helvetica,sans-Serif" font-size="10.00" fill="#000000">tracktion_engine::Sidechain</text>
<text text-anchor="middle" x="465.5" y="-252.5" font-family="Helvetica,sans-Serif" font-size="10.00" fill="#000000">ReceiveAudioNode</text>
</a>
</g>
</g>
<!-- Node5&#45;&gt;Node13 -->
<g id="edge13" class="edge">
<title>Node5&#45;&gt;Node13</title>
<path fill="none" stroke="#191970" d="M331.8903,-292.5925C354.987,-287.0448 380.4833,-280.9207 402.9579,-275.5224"/>
<polygon fill="#191970" stroke="#191970" points="331.0604,-289.1922 322.1544,-294.9311 332.6953,-295.9986 331.0604,-289.1922"/>
</g>
<!-- Node14 -->
<g id="node15" class="node">
<title>Node14</title>
<g id="a_node15"><a xlink:href="classtracktion__engine_1_1SidechainReceiveWrapperAudioNode.html" target="_top" xlink:title="tracktion_engine::Sidechain\lReceiveWrapperAudioNode">
<polygon fill="none" stroke="#000000" points="397,-196.5 397,-226.5 534,-226.5 534,-196.5 397,-196.5"/>
<text text-anchor="start" x="405" y="-214.5" font-family="Helvetica,sans-Serif" font-size="10.00" fill="#000000">tracktion_engine::Sidechain</text>
<text text-anchor="middle" x="465.5" y="-203.5" font-family="Helvetica,sans-Serif" font-size="10.00" fill="#000000">ReceiveWrapperAudioNode</text>
</a>
</g>
</g>
<!-- Node5&#45;&gt;Node14 -->
<g id="edge14" class="edge">
<title>Node5&#45;&gt;Node14</title>
<path fill="none" stroke="#191970" d="M331.4273,-293.2965C336.1957,-291.0269 340.7767,-288.4424 345,-285.5 367.1726,-270.0518 358.8876,-252.0342 381,-236.5 386.5081,-232.6305 392.619,-229.3526 398.9628,-226.5773"/>
<polygon fill="#191970" stroke="#191970" points="329.898,-290.1436 322.0712,-297.2843 332.6428,-296.583 329.898,-290.1436"/>
</g>
<!-- Node15 -->
<g id="node16" class="node">
<title>Node15</title>
<g id="a_node16"><a xlink:href="classtracktion__engine_1_1SidechainSendAudioNode.html" target="_top" xlink:title="tracktion_engine::Sidechain\lSendAudioNode">
<polygon fill="none" stroke="#000000" points="397,-147.5 397,-177.5 534,-177.5 534,-147.5 397,-147.5"/>
<text text-anchor="start" x="405" y="-165.5" font-family="Helvetica,sans-Serif" font-size="10.00" fill="#000000">tracktion_engine::Sidechain</text>
<text text-anchor="middle" x="465.5" y="-154.5" font-family="Helvetica,sans-Serif" font-size="10.00" fill="#000000">SendAudioNode</text>
</a>
</g>
</g>
<!-- Node5&#45;&gt;Node15 -->
<g id="edge15" class="edge">
<title>Node5&#45;&gt;Node15</title>
<path fill="none" stroke="#191970" d="M331.3509,-295.1775C336.2962,-292.4836 340.9277,-289.2885 345,-285.5 378.973,-253.8943 347.1501,-219.2375 381,-187.5 385.6874,-183.1051 391.1112,-179.4794 396.9036,-176.4888"/>
<polygon fill="#191970" stroke="#191970" points="329.7185,-292.0775 322.1636,-299.5054 332.7017,-298.4101 329.7185,-292.0775"/>
</g>
<!-- Node16 -->
<g id="node17" class="node">
<title>Node16</title>
<g id="a_node17"><a xlink:href="classtracktion__engine_1_1SpeedRampAudioNode.html" target="_top" xlink:title="An AudioNode that speeds up and slows down its input node in/out at given times. ">
<polygon fill="none" stroke="#000000" points="391.5,-98.5 391.5,-128.5 539.5,-128.5 539.5,-98.5 391.5,-98.5"/>
<text text-anchor="start" x="399.5" y="-116.5" font-family="Helvetica,sans-Serif" font-size="10.00" fill="#000000">tracktion_engine::SpeedRamp</text>
<text text-anchor="middle" x="465.5" y="-105.5" font-family="Helvetica,sans-Serif" font-size="10.00" fill="#000000">AudioNode</text>
</a>
</g>
</g>
<!-- Node5&#45;&gt;Node16 -->
<g id="edge16" class="edge">
<title>Node5&#45;&gt;Node16</title>
<path fill="none" stroke="#191970" d="M331.584,-295.8069C336.5177,-292.9766 341.0806,-289.5782 345,-285.5 391.6092,-237.0023 334.5796,-187.1785 381,-138.5 384.6953,-134.6249 388.9596,-131.3422 393.5683,-128.5622"/>
<polygon fill="#191970" stroke="#191970" points="329.8108,-292.7778 322.3618,-300.3119 332.8833,-299.0675 329.8108,-292.7778"/>
</g>
<!-- Node17 -->
<g id="node18" class="node">
<title>Node17</title>
<g id="a_node18"><a xlink:href="classtracktion__engine_1_1TimedMutingAudioNode.html" target="_top" xlink:title="tracktion_engine::TimedMuting\lAudioNode">
<polygon fill="none" stroke="#000000" points="390.5,-49.5 390.5,-79.5 540.5,-79.5 540.5,-49.5 390.5,-49.5"/>
<text text-anchor="start" x="398.5" y="-67.5" font-family="Helvetica,sans-Serif" font-size="10.00" fill="#000000">tracktion_engine::TimedMuting</text>
<text text-anchor="middle" x="465.5" y="-56.5" font-family="Helvetica,sans-Serif" font-size="10.00" fill="#000000">AudioNode</text>
</a>
</g>
</g>
<!-- Node5&#45;&gt;Node17 -->
<g id="edge17" class="edge">
<title>Node5&#45;&gt;Node17</title>
<path fill="none" stroke="#191970" d="M331.6043,-296.1974C336.5748,-293.2851 341.1383,-289.761 345,-285.5 404.477,-219.8735 321.7785,-155.3571 381,-89.5 384.478,-85.6322 388.5227,-82.3509 392.9222,-79.5684"/>
<polygon fill="#191970" stroke="#191970" points="329.6952,-293.2368 322.2815,-300.8056 332.797,-299.5121 329.6952,-293.2368"/>
</g>
<!-- Node18 -->
<g id="node19" class="node">
<title>Node18</title>
<g id="a_node19"><a xlink:href="classtracktion__engine_1_1TrackMutingAudioNode.html" target="_top" xlink:title="An AudioNode that handles muting/soloing of its input node, according to the audibility of a track...">
<polygon fill="none" stroke="#000000" points="391.5,-.5 391.5,-30.5 539.5,-30.5 539.5,-.5 391.5,-.5"/>
<text text-anchor="start" x="399.5" y="-18.5" font-family="Helvetica,sans-Serif" font-size="10.00" fill="#000000">tracktion_engine::TrackMuting</text>
<text text-anchor="middle" x="465.5" y="-7.5" font-family="Helvetica,sans-Serif" font-size="10.00" fill="#000000">AudioNode</text>
</a>
</g>
</g>
<!-- Node5&#45;&gt;Node18 -->
<g id="edge18" class="edge">
<title>Node5&#45;&gt;Node18</title>
<path fill="none" stroke="#191970" d="M331.153,-296.7144C336.3295,-293.7008 341.0582,-290.0115 345,-285.5 417.7037,-202.2897 308.1656,-122.5959 381,-39.5 384.0157,-36.0595 387.485,-33.0957 391.2602,-30.5442"/>
<polygon fill="#191970" stroke="#191970" points="329.5095,-293.6222 322.0785,-301.1741 332.597,-299.9045 329.5095,-293.6222"/>
</g>
</g>
</svg>
