<?xml version="1.0" encoding="UTF-8" standalone="no"?>
<!DOCTYPE svg PUBLIC "-//W3C//DTD SVG 1.1//EN"
 "http://www.w3.org/Graphics/SVG/1.1/DTD/svg11.dtd">
<!-- Generated by graphviz version 2.43.0 (0)
 -->
<!-- Title: tracktion_engine::MacroParameter Pages: 1 -->
<svg width="587pt" height="88pt"
 viewBox="0.00 0.00 587.00 88.00" xmlns="http://www.w3.org/2000/svg" xmlns:xlink="http://www.w3.org/1999/xlink">
<g id="graph0" class="graph" transform="scale(1 1) rotate(0) translate(4 84)">
<title>tracktion_engine::MacroParameter</title>
<!-- Node1 -->
<g id="node1" class="node">
<title>Node1</title>
<g id="a_node1"><a xlink:title="A MacroParameter is an AutomatableParameter which is a collection of Mappings.">
<polygon fill="#bfbfbf" stroke="black" points="394,-30 394,-49 579,-49 579,-30 394,-30"/>
<text text-anchor="middle" x="486.5" y="-37" font-family="Helvetica,sans-Serif" font-size="10.00">tracktion_engine::MacroParameter</text>
</a>
</g>
</g>
<!-- Node2 -->
<g id="node2" class="node">
<title>Node2</title>
<g id="a_node2"><a xlink:href="classtracktion__engine_1_1AutomatableParameter.html" target="_top" xlink:title=" ">
<polygon fill="none" stroke="black" points="191,-49.5 191,-79.5 358,-79.5 358,-49.5 191,-49.5"/>
<text text-anchor="start" x="199" y="-67.5" font-family="Helvetica,sans-Serif" font-size="10.00">tracktion_engine::Automatable</text>
<text text-anchor="middle" x="274.5" y="-56.5" font-family="Helvetica,sans-Serif" font-size="10.00">Parameter</text>
</a>
</g>
</g>
<!-- Node2&#45;&gt;Node1 -->
<g id="edge1" class="edge">
<title>Node2&#45;&gt;Node1</title>
<path fill="none" stroke="midnightblue" d="M368.15,-53.47C380.65,-51.98 393.38,-50.47 405.63,-49.01"/>
<polygon fill="midnightblue" stroke="midnightblue" points="367.71,-50 358.2,-54.66 368.54,-56.95 367.71,-50"/>
</g>
<!-- Node3 -->
<g id="node3" class="node">
<title>Node3</title>
<g id="a_node3"><a xlink:href="classtracktion__engine_1_1Selectable.html" target="_top" xlink:title="Base class for things that can be selected, and whose properties can appear in the properties panel.">
<polygon fill="none" stroke="black" points="0,-55 0,-74 155,-74 155,-55 0,-55"/>
<text text-anchor="middle" x="77.5" y="-62" font-family="Helvetica,sans-Serif" font-size="10.00">tracktion_engine::Selectable</text>
</a>
</g>
</g>
<!-- Node3&#45;&gt;Node2 -->
<g id="edge2" class="edge">
<title>Node3&#45;&gt;Node2</title>
<path fill="none" stroke="midnightblue" d="M165.28,-64.5C173.75,-64.5 182.34,-64.5 190.77,-64.5"/>
<polygon fill="midnightblue" stroke="midnightblue" points="165.01,-61 155.01,-64.5 165.01,-68 165.01,-61"/>
</g>
<!-- Node4 -->
<g id="node4" class="node">
<title>Node4</title>
<g id="a_node4"><a xlink:href="structtracktion__engine_1_1AutomatableParameter_1_1ModifierSource.html" target="_top" xlink:title="Base class for things that can be used to modify parameters.">
<polygon fill="none" stroke="black" points="191,-0.5 191,-30.5 358,-30.5 358,-0.5 191,-0.5"/>
<text text-anchor="start" x="199" y="-18.5" font-family="Helvetica,sans-Serif" font-size="10.00">tracktion_engine::Automatable</text>
<text text-anchor="middle" x="274.5" y="-7.5" font-family="Helvetica,sans-Serif" font-size="10.00">Parameter::ModifierSource</text>
</a>
</g>
</g>
<!-- Node4&#45;&gt;Node1 -->
<g id="edge3" class="edge">
<title>Node4&#45;&gt;Node1</title>
<path fill="none" stroke="midnightblue" d="M368.45,-26.12C379.68,-27.41 391.11,-28.71 402.19,-29.98"/>
<polygon fill="midnightblue" stroke="midnightblue" points="368.53,-22.61 358.2,-24.95 367.73,-29.56 368.53,-22.61"/>
</g>
</g>
</svg>
