<?xml version="1.0" encoding="UTF-8" standalone="no"?>
<!DOCTYPE svg PUBLIC "-//W3C//DTD SVG 1.1//EN"
 "http://www.w3.org/Graphics/SVG/1.1/DTD/svg11.dtd">
<!-- Generated by graphviz version 2.43.0 (0)
 -->
<!-- Title: tracktion::engine::ThreadPoolJobWithProgress Pages: 1 -->
<svg width="470pt" height="247pt"
 viewBox="0.00 0.00 470.00 246.50" xmlns="http://www.w3.org/2000/svg" xmlns:xlink="http://www.w3.org/1999/xlink">
<g id="graph0" class="graph" transform="scale(1 1) rotate(0) translate(4 242.5)">
<title>tracktion::engine::ThreadPoolJobWithProgress</title>
<!-- Node1 -->
<g id="node1" class="node">
<title>Node1</title>
<g id="a_node1"><a xlink:title=" ">
<polygon fill="#bfbfbf" stroke="black" points="0,-122.5 0,-152.5 151,-152.5 151,-122.5 0,-122.5"/>
<text text-anchor="start" x="8" y="-140.5" font-family="Helvetica,sans-Serif" font-size="10.00">tracktion::engine::</text>
<text text-anchor="middle" x="75.5" y="-129.5" font-family="Helvetica,sans-Serif" font-size="10.00">ThreadPoolJobWithProgress</text>
</a>
</g>
</g>
<!-- Node2 -->
<g id="node2" class="node">
<title>Node2</title>
<g id="a_node2"><a xlink:href="structtracktion_1_1engine_1_1AudioProxyGenerator_1_1GeneratorJob.html" target="_top" xlink:title=" ">
<polygon fill="none" stroke="black" points="188,-197 188,-238 309,-238 309,-197 188,-197"/>
<text text-anchor="start" x="196" y="-226" font-family="Helvetica,sans-Serif" font-size="10.00">tracktion::engine::</text>
<text text-anchor="start" x="196" y="-215" font-family="Helvetica,sans-Serif" font-size="10.00">AudioProxyGenerator</text>
<text text-anchor="middle" x="248.5" y="-204" font-family="Helvetica,sans-Serif" font-size="10.00">::GeneratorJob</text>
</a>
</g>
</g>
<!-- Node1&#45;&gt;Node2 -->
<g id="edge1" class="edge">
<title>Node1&#45;&gt;Node2</title>
<path fill="none" stroke="midnightblue" d="M117.85,-156.84C143.77,-168.97 177.14,-184.58 203.54,-196.93"/>
<polygon fill="midnightblue" stroke="midnightblue" points="119.2,-153.61 108.66,-152.55 116.24,-159.96 119.2,-153.61"/>
</g>
<!-- Node3 -->
<g id="node3" class="node">
<title>Node3</title>
<g id="a_node3"><a xlink:href="classtracktion_1_1engine_1_1ExportJob.html" target="_top" xlink:title=" ">
<polygon fill="none" stroke="black" points="196,-147.5 196,-177.5 301,-177.5 301,-147.5 196,-147.5"/>
<text text-anchor="start" x="204" y="-165.5" font-family="Helvetica,sans-Serif" font-size="10.00">tracktion::engine::</text>
<text text-anchor="middle" x="248.5" y="-154.5" font-family="Helvetica,sans-Serif" font-size="10.00">ExportJob</text>
</a>
</g>
</g>
<!-- Node1&#45;&gt;Node3 -->
<g id="edge2" class="edge">
<title>Node1&#45;&gt;Node3</title>
<path fill="none" stroke="midnightblue" d="M160.98,-149.85C172.87,-151.59 184.8,-153.33 195.83,-154.95"/>
<polygon fill="midnightblue" stroke="midnightblue" points="161.41,-146.38 151.01,-148.39 160.39,-153.3 161.41,-146.38"/>
</g>
<!-- Node4 -->
<g id="node4" class="node">
<title>Node4</title>
<g id="a_node4"><a xlink:href="classtracktion_1_1engine_1_1Renderer_1_1RenderTask.html" target="_top" xlink:title="Task that actually performs the render operation in blocks.">
<polygon fill="none" stroke="black" points="187,-98.5 187,-128.5 310,-128.5 310,-98.5 187,-98.5"/>
<text text-anchor="start" x="195" y="-116.5" font-family="Helvetica,sans-Serif" font-size="10.00">tracktion::engine::</text>
<text text-anchor="middle" x="248.5" y="-105.5" font-family="Helvetica,sans-Serif" font-size="10.00">Renderer::RenderTask</text>
</a>
</g>
</g>
<!-- Node1&#45;&gt;Node4 -->
<g id="edge3" class="edge">
<title>Node1&#45;&gt;Node4</title>
<path fill="none" stroke="midnightblue" d="M161.15,-125.62C169.82,-124.4 178.5,-123.18 186.83,-122.01"/>
<polygon fill="midnightblue" stroke="midnightblue" points="160.42,-122.19 151.01,-127.04 161.4,-129.12 160.42,-122.19"/>
</g>
<!-- Node5 -->
<g id="node5" class="node">
<title>Node5</title>
<g id="a_node5"><a xlink:href="classtracktion_1_1engine_1_1RenderManager_1_1Job.html" target="_top" xlink:title="The base class that all generator jobs derive from.">
<polygon fill="none" stroke="black" points="191,-49.5 191,-79.5 306,-79.5 306,-49.5 191,-49.5"/>
<text text-anchor="start" x="199" y="-67.5" font-family="Helvetica,sans-Serif" font-size="10.00">tracktion::engine::</text>
<text text-anchor="middle" x="248.5" y="-56.5" font-family="Helvetica,sans-Serif" font-size="10.00">RenderManager::Job</text>
</a>
</g>
</g>
<!-- Node1&#45;&gt;Node5 -->
<g id="edge4" class="edge">
<title>Node1&#45;&gt;Node5</title>
<path fill="none" stroke="midnightblue" d="M120.08,-118.35C140.38,-109.49 164.89,-98.87 187,-89.5 194.64,-86.26 202.84,-82.84 210.66,-79.6"/>
<polygon fill="midnightblue" stroke="midnightblue" points="118.54,-115.21 110.78,-122.42 121.34,-121.62 118.54,-115.21"/>
</g>
<!-- Node6 -->
<g id="node6" class="node">
<title>Node6</title>
<g id="a_node6"><a xlink:href="classtracktion_1_1engine_1_1EditRenderJob.html" target="_top" xlink:title=" ">
<polygon fill="none" stroke="black" points="351.5,-98.5 351.5,-128.5 456.5,-128.5 456.5,-98.5 351.5,-98.5"/>
<text text-anchor="start" x="359.5" y="-116.5" font-family="Helvetica,sans-Serif" font-size="10.00">tracktion::engine::</text>
<text text-anchor="middle" x="404" y="-105.5" font-family="Helvetica,sans-Serif" font-size="10.00">EditRenderJob</text>
</a>
</g>
</g>
<!-- Node5&#45;&gt;Node6 -->
<g id="edge5" class="edge">
<title>Node5&#45;&gt;Node6</title>
<path fill="none" stroke="midnightblue" d="M306.7,-82.76C322.89,-87.93 340.32,-93.49 355.85,-98.45"/>
<polygon fill="midnightblue" stroke="midnightblue" points="307.4,-79.31 296.81,-79.6 305.27,-85.98 307.4,-79.31"/>
</g>
<!-- Node7 -->
<g id="node7" class="node">
<title>Node7</title>
<g id="a_node7"><a xlink:href="classtracktion_1_1engine_1_1ReverseRenderJob.html" target="_top" xlink:title=" ">
<polygon fill="none" stroke="black" points="351,-49.5 351,-79.5 457,-79.5 457,-49.5 351,-49.5"/>
<text text-anchor="start" x="359" y="-67.5" font-family="Helvetica,sans-Serif" font-size="10.00">tracktion::engine::</text>
<text text-anchor="middle" x="404" y="-56.5" font-family="Helvetica,sans-Serif" font-size="10.00">ReverseRenderJob</text>
</a>
</g>
</g>
<!-- Node5&#45;&gt;Node7 -->
<g id="edge6" class="edge">
<title>Node5&#45;&gt;Node7</title>
<path fill="none" stroke="midnightblue" d="M316.28,-64.5C327.85,-64.5 339.72,-64.5 350.83,-64.5"/>
<polygon fill="midnightblue" stroke="midnightblue" points="316.22,-61 306.22,-64.5 316.22,-68 316.22,-61"/>
</g>
<!-- Node8 -->
<g id="node8" class="node">
<title>Node8</title>
<g id="a_node8"><a xlink:href="classtracktion_1_1engine_1_1WarpTimeRenderJob.html" target="_top" xlink:title=" ">
<polygon fill="none" stroke="black" points="346,-0.5 346,-30.5 462,-30.5 462,-0.5 346,-0.5"/>
<text text-anchor="start" x="354" y="-18.5" font-family="Helvetica,sans-Serif" font-size="10.00">tracktion::engine::</text>
<text text-anchor="middle" x="404" y="-7.5" font-family="Helvetica,sans-Serif" font-size="10.00">WarpTimeRenderJob</text>
</a>
</g>
</g>
<!-- Node5&#45;&gt;Node8 -->
<g id="edge7" class="edge">
<title>Node5&#45;&gt;Node8</title>
<path fill="none" stroke="midnightblue" d="M306.7,-46.24C322.89,-41.07 340.32,-35.51 355.85,-30.55"/>
<polygon fill="midnightblue" stroke="midnightblue" points="305.27,-43.02 296.81,-49.4 307.4,-49.69 305.27,-43.02"/>
</g>
</g>
</svg>
