<?xml version="1.0" encoding="UTF-8" standalone="no"?>
<!DOCTYPE svg PUBLIC "-//W3C//DTD SVG 1.1//EN"
 "http://www.w3.org/Graphics/SVG/1.1/DTD/svg11.dtd">
<!-- Generated by graphviz version 2.43.0 (0)
 -->
<!-- Title: tracktion::engine::TrackItem Pages: 1 -->
<svg width="696pt" height="297pt"
 viewBox="0.00 0.00 696.00 297.00" xmlns="http://www.w3.org/2000/svg" xmlns:xlink="http://www.w3.org/1999/xlink">
<g id="graph0" class="graph" transform="scale(1 1) rotate(0) translate(4 293)">
<title>tracktion::engine::TrackItem</title>
<!-- Node1 -->
<g id="Node000001" class="node">
<title>Node1</title>
<g id="a_Node000001"><a xlink:title="Base class for EditItems that live in a Track, e.g.">
<polygon fill="#999999" stroke="#666666" points="246,-102 141,-102 141,-72 246,-72 246,-102"/>
<text text-anchor="start" x="149" y="-90" font-family="Helvetica,sans-Serif" font-size="10.00">tracktion::engine::</text>
<text text-anchor="middle" x="193.5" y="-79" font-family="Helvetica,sans-Serif" font-size="10.00">TrackItem</text>
</a>
</g>
</g>
<!-- Node4 -->
<g id="Node000004" class="node">
<title>Node4</title>
<g id="a_Node000004"><a xlink:href="classtracktion_1_1engine_1_1Clip.html" target="_top" xlink:title="A clip in an edit.">
<polygon fill="white" stroke="#666666" points="406,-163.5 282,-163.5 282,-144.5 406,-144.5 406,-163.5"/>
<text text-anchor="middle" x="344" y="-151.5" font-family="Helvetica,sans-Serif" font-size="10.00">tracktion::engine::Clip</text>
</a>
</g>
</g>
<!-- Node1&#45;&gt;Node4 -->
<g id="edge3_Node000001_Node000004" class="edge">
<title>Node1&#45;&gt;Node4</title>
<g id="a_edge3_Node000001_Node000004"><a xlink:title=" ">
<path fill="none" stroke="#63b8ff" d="M227.71,-107.27C243.74,-116.51 263.47,-127.13 282,-135 290.27,-138.51 299.41,-141.71 308.05,-144.43"/>
<polygon fill="#63b8ff" stroke="#63b8ff" points="229.13,-104.04 218.73,-102.01 225.6,-110.08 229.13,-104.04"/>
</a>
</g>
</g>
<!-- Node14 -->
<g id="Node000014" class="node">
<title>Node14</title>
<g id="a_Node000014"><a xlink:href="classtracktion_1_1engine_1_1CollectionClip.html" target="_top" xlink:title=" ">
<polygon fill="white" stroke="#666666" points="396.5,-126 291.5,-126 291.5,-96 396.5,-96 396.5,-126"/>
<text text-anchor="start" x="299.5" y="-114" font-family="Helvetica,sans-Serif" font-size="10.00">tracktion::engine::</text>
<text text-anchor="middle" x="344" y="-103" font-family="Helvetica,sans-Serif" font-size="10.00">CollectionClip</text>
</a>
</g>
</g>
<!-- Node1&#45;&gt;Node14 -->
<g id="edge13_Node000001_Node000014" class="edge">
<title>Node1&#45;&gt;Node14</title>
<g id="a_edge13_Node000001_Node000014"><a xlink:title=" ">
<path fill="none" stroke="#63b8ff" d="M256.16,-96.96C267.85,-98.85 279.97,-100.81 291.32,-102.65"/>
<polygon fill="#63b8ff" stroke="#63b8ff" points="256.45,-93.47 246.02,-95.33 255.33,-100.38 256.45,-93.47"/>
</a>
</g>
</g>
<!-- Node15 -->
<g id="Node000015" class="node">
<title>Node15</title>
<g id="a_Node000015"><a xlink:href="classtracktion_1_1engine_1_1PitchSetting.html" target="_top" xlink:title=" ">
<polygon fill="white" stroke="#666666" points="396.5,-78 291.5,-78 291.5,-48 396.5,-48 396.5,-78"/>
<text text-anchor="start" x="299.5" y="-66" font-family="Helvetica,sans-Serif" font-size="10.00">tracktion::engine::</text>
<text text-anchor="middle" x="344" y="-55" font-family="Helvetica,sans-Serif" font-size="10.00">PitchSetting</text>
</a>
</g>
</g>
<!-- Node1&#45;&gt;Node15 -->
<g id="edge14_Node000001_Node000015" class="edge">
<title>Node1&#45;&gt;Node15</title>
<g id="a_edge14_Node000001_Node000015"><a xlink:title=" ">
<path fill="none" stroke="#63b8ff" d="M256.16,-77.04C267.85,-75.15 279.97,-73.19 291.32,-71.35"/>
<polygon fill="#63b8ff" stroke="#63b8ff" points="255.33,-73.62 246.02,-78.67 256.45,-80.53 255.33,-73.62"/>
</a>
</g>
</g>
<!-- Node16 -->
<g id="Node000016" class="node">
<title>Node16</title>
<g id="a_Node000016"><a xlink:href="classtracktion_1_1engine_1_1TimeSigSetting.html" target="_top" xlink:title=" ">
<polygon fill="white" stroke="#666666" points="396.5,-30 291.5,-30 291.5,0 396.5,0 396.5,-30"/>
<text text-anchor="start" x="299.5" y="-18" font-family="Helvetica,sans-Serif" font-size="10.00">tracktion::engine::</text>
<text text-anchor="middle" x="344" y="-7" font-family="Helvetica,sans-Serif" font-size="10.00">TimeSigSetting</text>
</a>
</g>
</g>
<!-- Node1&#45;&gt;Node16 -->
<g id="edge15_Node000001_Node000016" class="edge">
<title>Node1&#45;&gt;Node16</title>
<g id="a_edge15_Node000001_Node000016"><a xlink:title=" ">
<path fill="none" stroke="#63b8ff" d="M229.02,-66.74C244.91,-57.76 264.16,-47.36 282,-39 288.6,-35.91 295.71,-32.86 302.66,-30.03"/>
<polygon fill="#63b8ff" stroke="#63b8ff" points="227.04,-63.84 220.09,-71.84 230.51,-69.92 227.04,-63.84"/>
</a>
</g>
</g>
<!-- Node2 -->
<g id="Node000002" class="node">
<title>Node2</title>
<g id="a_Node000002"><a xlink:href="classtracktion_1_1engine_1_1EditItem.html" target="_top" xlink:title="Base class for objects that live inside an edit &#45; e.g.">
<polygon fill="white" stroke="#666666" points="105,-126 0,-126 0,-96 105,-96 105,-126"/>
<text text-anchor="start" x="8" y="-114" font-family="Helvetica,sans-Serif" font-size="10.00">tracktion::engine::</text>
<text text-anchor="middle" x="52.5" y="-103" font-family="Helvetica,sans-Serif" font-size="10.00">EditItem</text>
</a>
</g>
</g>
<!-- Node2&#45;&gt;Node1 -->
<g id="edge1_Node000001_Node000002" class="edge">
<title>Node2&#45;&gt;Node1</title>
<g id="a_edge1_Node000001_Node000002"><a xlink:title=" ">
<path fill="none" stroke="#63b8ff" d="M115.16,-100.35C123.69,-98.88 132.38,-97.38 140.7,-95.94"/>
<polygon fill="#63b8ff" stroke="#63b8ff" points="114.52,-96.91 105.26,-102.06 115.71,-103.81 114.52,-96.91"/>
</a>
</g>
</g>
<!-- Node3 -->
<g id="Node000003" class="node">
<title>Node3</title>
<g id="a_Node000003"><a xlink:href="classtracktion_1_1engine_1_1Selectable.html" target="_top" xlink:title="Base class for things that can be selected, and whose properties can appear in the properties panel.">
<polygon fill="white" stroke="#666666" points="105,-78 0,-78 0,-48 105,-48 105,-78"/>
<text text-anchor="start" x="8" y="-66" font-family="Helvetica,sans-Serif" font-size="10.00">tracktion::engine::</text>
<text text-anchor="middle" x="52.5" y="-55" font-family="Helvetica,sans-Serif" font-size="10.00">Selectable</text>
</a>
</g>
</g>
<!-- Node3&#45;&gt;Node1 -->
<g id="edge2_Node000001_Node000003" class="edge">
<title>Node3&#45;&gt;Node1</title>
<g id="a_edge2_Node000001_Node000003"><a xlink:title=" ">
<path fill="none" stroke="#63b8ff" d="M115.16,-73.65C123.69,-75.12 132.38,-76.62 140.7,-78.06"/>
<polygon fill="#63b8ff" stroke="#63b8ff" points="115.71,-70.19 105.26,-71.94 114.52,-77.09 115.71,-70.19"/>
</a>
</g>
</g>
<!-- Node5 -->
<g id="Node000005" class="node">
<title>Node5</title>
<g id="a_Node000005"><a xlink:href="classtracktion_1_1engine_1_1ArrangerClip.html" target="_top" xlink:title=" ">
<polygon fill="white" stroke="#666666" points="547,-289 442,-289 442,-259 547,-259 547,-289"/>
<text text-anchor="start" x="450" y="-277" font-family="Helvetica,sans-Serif" font-size="10.00">tracktion::engine::</text>
<text text-anchor="middle" x="494.5" y="-266" font-family="Helvetica,sans-Serif" font-size="10.00">ArrangerClip</text>
</a>
</g>
</g>
<!-- Node4&#45;&gt;Node5 -->
<g id="edge4_Node000004_Node000005" class="edge">
<title>Node4&#45;&gt;Node5</title>
<g id="a_edge4_Node000004_Node000005"><a xlink:title=" ">
<path fill="none" stroke="#63b8ff" d="M359.14,-171.25C376.82,-192 408.84,-226.92 442,-250 446.61,-253.21 451.73,-256.18 456.89,-258.86"/>
<polygon fill="#63b8ff" stroke="#63b8ff" points="361.78,-168.96 352.67,-163.54 356.42,-173.45 361.78,-168.96"/>
</a>
</g>
</g>
<!-- Node6 -->
<g id="Node000006" class="node">
<title>Node6</title>
<g id="a_Node000006"><a xlink:href="classtracktion_1_1engine_1_1AudioClipBase.html" target="_top" xlink:title="Base class for Clips that produce some kind of audio e.g.">
<polygon fill="white" stroke="#666666" points="547,-241 442,-241 442,-211 547,-211 547,-241"/>
<text text-anchor="start" x="450" y="-229" font-family="Helvetica,sans-Serif" font-size="10.00">tracktion::engine::</text>
<text text-anchor="middle" x="494.5" y="-218" font-family="Helvetica,sans-Serif" font-size="10.00">AudioClipBase</text>
</a>
</g>
</g>
<!-- Node4&#45;&gt;Node6 -->
<g id="edge5_Node000004_Node000006" class="edge">
<title>Node4&#45;&gt;Node6</title>
<g id="a_edge5_Node000004_Node000006"><a xlink:title=" ">
<path fill="none" stroke="#63b8ff" d="M373.04,-168.09C392.37,-177.75 418.67,-190.79 442,-202 448.05,-204.9 454.51,-207.96 460.75,-210.88"/>
<polygon fill="#63b8ff" stroke="#63b8ff" points="374.4,-164.86 363.89,-163.51 371.27,-171.12 374.4,-164.86"/>
</a>
</g>
</g>
<!-- Node10 -->
<g id="Node000010" class="node">
<title>Node10</title>
<g id="a_Node000010"><a xlink:href="classtracktion_1_1engine_1_1ChordClip.html" target="_top" xlink:title=" ">
<polygon fill="white" stroke="#666666" points="547,-193 442,-193 442,-163 547,-163 547,-193"/>
<text text-anchor="start" x="450" y="-181" font-family="Helvetica,sans-Serif" font-size="10.00">tracktion::engine::</text>
<text text-anchor="middle" x="494.5" y="-170" font-family="Helvetica,sans-Serif" font-size="10.00">ChordClip</text>
</a>
</g>
</g>
<!-- Node4&#45;&gt;Node10 -->
<g id="edge9_Node000004_Node000010" class="edge">
<title>Node4&#45;&gt;Node10</title>
<g id="a_edge9_Node000004_Node000010"><a xlink:title=" ">
<path fill="none" stroke="#63b8ff" d="M414.14,-165.17C423.44,-166.68 432.85,-168.2 441.78,-169.64"/>
<polygon fill="#63b8ff" stroke="#63b8ff" points="414.55,-161.69 404.12,-163.55 413.43,-168.61 414.55,-161.69"/>
</a>
</g>
</g>
<!-- Node11 -->
<g id="Node000011" class="node">
<title>Node11</title>
<g id="a_Node000011"><a xlink:href="classtracktion_1_1engine_1_1MarkerClip.html" target="_top" xlink:title=" ">
<polygon fill="white" stroke="#666666" points="547,-145 442,-145 442,-115 547,-115 547,-145"/>
<text text-anchor="start" x="450" y="-133" font-family="Helvetica,sans-Serif" font-size="10.00">tracktion::engine::</text>
<text text-anchor="middle" x="494.5" y="-122" font-family="Helvetica,sans-Serif" font-size="10.00">MarkerClip</text>
</a>
</g>
</g>
<!-- Node4&#45;&gt;Node11 -->
<g id="edge10_Node000004_Node000011" class="edge">
<title>Node4&#45;&gt;Node11</title>
<g id="a_edge10_Node000004_Node000011"><a xlink:title=" ">
<path fill="none" stroke="#63b8ff" d="M414.14,-142.83C423.44,-141.32 432.85,-139.8 441.78,-138.36"/>
<polygon fill="#63b8ff" stroke="#63b8ff" points="413.43,-139.39 404.12,-144.45 414.55,-146.31 413.43,-139.39"/>
</a>
</g>
</g>
<!-- Node12 -->
<g id="Node000012" class="node">
<title>Node12</title>
<g id="a_Node000012"><a xlink:href="classtracktion_1_1engine_1_1MidiClip.html" target="_top" xlink:title=" ">
<polygon fill="white" stroke="#666666" points="547,-97 442,-97 442,-67 547,-67 547,-97"/>
<text text-anchor="start" x="450" y="-85" font-family="Helvetica,sans-Serif" font-size="10.00">tracktion::engine::</text>
<text text-anchor="middle" x="494.5" y="-74" font-family="Helvetica,sans-Serif" font-size="10.00">MidiClip</text>
</a>
</g>
</g>
<!-- Node4&#45;&gt;Node12 -->
<g id="edge11_Node000004_Node000012" class="edge">
<title>Node4&#45;&gt;Node12</title>
<g id="a_edge11_Node000004_Node000012"><a xlink:title=" ">
<path fill="none" stroke="#63b8ff" d="M392.76,-141.06C397.33,-139.25 401.82,-137.23 406,-135 424.13,-125.33 424.56,-116.86 442,-106 447.11,-102.82 452.7,-99.79 458.27,-97.02"/>
<polygon fill="#63b8ff" stroke="#63b8ff" points="391.52,-137.78 383.32,-144.49 393.91,-144.36 391.52,-137.78"/>
</a>
</g>
</g>
<!-- Node13 -->
<g id="Node000013" class="node">
<title>Node13</title>
<g id="a_Node000013"><a xlink:href="classtracktion_1_1engine_1_1StepClip.html" target="_top" xlink:title=" ">
<polygon fill="white" stroke="#666666" points="547,-49 442,-49 442,-19 547,-19 547,-49"/>
<text text-anchor="start" x="450" y="-37" font-family="Helvetica,sans-Serif" font-size="10.00">tracktion::engine::</text>
<text text-anchor="middle" x="494.5" y="-26" font-family="Helvetica,sans-Serif" font-size="10.00">StepClip</text>
</a>
</g>
</g>
<!-- Node4&#45;&gt;Node13 -->
<g id="edge12_Node000004_Node000013" class="edge">
<title>Node4&#45;&gt;Node13</title>
<g id="a_edge12_Node000004_Node000013"><a xlink:title=" ">
<path fill="none" stroke="#63b8ff" d="M399.78,-139.64C401.98,-138.23 404.06,-136.69 406,-135 434.46,-110.16 415.27,-84.7 442,-58 445.35,-54.65 449.25,-51.72 453.39,-49.16"/>
<polygon fill="#63b8ff" stroke="#63b8ff" points="398.05,-136.59 390.88,-144.4 401.35,-142.77 398.05,-136.59"/>
</a>
</g>
</g>
<!-- Node7 -->
<g id="Node000007" class="node">
<title>Node7</title>
<g id="a_Node000007"><a xlink:href="classtracktion_1_1engine_1_1ContainerClip.html" target="_top" xlink:title="A clip that can contain multiple other clips and mix their output together.">
<polygon fill="white" stroke="#666666" points="688,-289 583,-289 583,-259 688,-259 688,-289"/>
<text text-anchor="start" x="591" y="-277" font-family="Helvetica,sans-Serif" font-size="10.00">tracktion::engine::</text>
<text text-anchor="middle" x="635.5" y="-266" font-family="Helvetica,sans-Serif" font-size="10.00">ContainerClip</text>
</a>
</g>
</g>
<!-- Node6&#45;&gt;Node7 -->
<g id="edge6_Node000006_Node000007" class="edge">
<title>Node6&#45;&gt;Node7</title>
<g id="a_edge6_Node000006_Node000007"><a xlink:title=" ">
<path fill="none" stroke="#63b8ff" d="M548.63,-244.35C562.65,-249.19 577.61,-254.36 591.06,-259"/>
<polygon fill="#63b8ff" stroke="#63b8ff" points="549.69,-241.01 539.1,-241.06 547.41,-247.63 549.69,-241.01"/>
</a>
</g>
</g>
<!-- Node8 -->
<g id="Node000008" class="node">
<title>Node8</title>
<g id="a_Node000008"><a xlink:href="classtracktion_1_1engine_1_1EditClip.html" target="_top" xlink:title="This is the main source of an Edit clip and is responsible for managing its properties.">
<polygon fill="white" stroke="#666666" points="688,-241 583,-241 583,-211 688,-211 688,-241"/>
<text text-anchor="start" x="591" y="-229" font-family="Helvetica,sans-Serif" font-size="10.00">tracktion::engine::</text>
<text text-anchor="middle" x="635.5" y="-218" font-family="Helvetica,sans-Serif" font-size="10.00">EditClip</text>
</a>
</g>
</g>
<!-- Node6&#45;&gt;Node8 -->
<g id="edge7_Node000006_Node000008" class="edge">
<title>Node6&#45;&gt;Node8</title>
<g id="a_edge7_Node000006_Node000008"><a xlink:title=" ">
<path fill="none" stroke="#63b8ff" d="M557.44,-226C565.88,-226 574.47,-226 582.7,-226"/>
<polygon fill="#63b8ff" stroke="#63b8ff" points="557.26,-222.5 547.26,-226 557.26,-229.5 557.26,-222.5"/>
</a>
</g>
</g>
<!-- Node9 -->
<g id="Node000009" class="node">
<title>Node9</title>
<g id="a_Node000009"><a xlink:href="classtracktion_1_1engine_1_1WaveAudioClip.html" target="_top" xlink:title="An audio clip that uses an audio file as its source.">
<polygon fill="white" stroke="#666666" points="688,-193 583,-193 583,-163 688,-163 688,-193"/>
<text text-anchor="start" x="591" y="-181" font-family="Helvetica,sans-Serif" font-size="10.00">tracktion::engine::</text>
<text text-anchor="middle" x="635.5" y="-170" font-family="Helvetica,sans-Serif" font-size="10.00">WaveAudioClip</text>
</a>
</g>
</g>
<!-- Node6&#45;&gt;Node9 -->
<g id="edge8_Node000006_Node000009" class="edge">
<title>Node6&#45;&gt;Node9</title>
<g id="a_edge8_Node000006_Node000009"><a xlink:title=" ">
<path fill="none" stroke="#63b8ff" d="M548.63,-207.65C562.65,-202.81 577.61,-197.64 591.06,-193"/>
<polygon fill="#63b8ff" stroke="#63b8ff" points="547.41,-204.37 539.1,-210.94 549.69,-210.99 547.41,-204.37"/>
</a>
</g>
</g>
</g>
</svg>
