<?xml version="1.0" encoding="UTF-8" standalone="no"?>
<!DOCTYPE svg PUBLIC "-//W3C//DTD SVG 1.1//EN"
 "http://www.w3.org/Graphics/SVG/1.1/DTD/svg11.dtd">
<!-- Generated by graphviz version 2.43.0 (0)
 -->
<!-- Title: tracktion::engine::AutomatableEditItem Pages: 1 -->
<svg width="612pt" height="1607pt"
 viewBox="0.00 0.00 612.00 1607.00" xmlns="http://www.w3.org/2000/svg" xmlns:xlink="http://www.w3.org/1999/xlink">
<g id="graph0" class="graph" transform="scale(1 1) rotate(0) translate(4 1603)">
<title>tracktion::engine::AutomatableEditItem</title>
<!-- Node1 -->
<g id="node1" class="node">
<title>Node1</title>
<g id="a_node1"><a xlink:title="Base class for elements that have some kind of automatable parameters.">
<polygon fill="#bfbfbf" stroke="black" points="141,-1421.5 141,-1451.5 262,-1451.5 262,-1421.5 141,-1421.5"/>
<text text-anchor="start" x="149" y="-1439.5" font-family="Helvetica,sans-Serif" font-size="10.00">tracktion::engine::</text>
<text text-anchor="middle" x="201.5" y="-1428.5" font-family="Helvetica,sans-Serif" font-size="10.00">AutomatableEditItem</text>
</a>
</g>
</g>
<!-- Node3 -->
<g id="node3" class="node">
<title>Node3</title>
<g id="a_node3"><a xlink:href="classtracktion_1_1engine_1_1MacroParameterList.html" target="_top" xlink:title=" ">
<polygon fill="none" stroke="black" points="298,-1470.5 298,-1500.5 412,-1500.5 412,-1470.5 298,-1470.5"/>
<text text-anchor="start" x="306" y="-1488.5" font-family="Helvetica,sans-Serif" font-size="10.00">tracktion::engine::</text>
<text text-anchor="middle" x="355" y="-1477.5" font-family="Helvetica,sans-Serif" font-size="10.00">MacroParameterList</text>
</a>
</g>
</g>
<!-- Node1&#45;&gt;Node3 -->
<g id="edge2" class="edge">
<title>Node1&#45;&gt;Node3</title>
<path fill="none" stroke="midnightblue" d="M258.95,-1454.76C274.93,-1459.93 292.14,-1465.49 307.46,-1470.45"/>
<polygon fill="midnightblue" stroke="midnightblue" points="259.78,-1451.35 249.19,-1451.6 257.63,-1458.01 259.78,-1451.35"/>
</g>
<!-- Node4 -->
<g id="node4" class="node">
<title>Node4</title>
<g id="a_node4"><a xlink:href="structtracktion_1_1engine_1_1Modifier.html" target="_top" xlink:title="Bass class for parameter Modifiers.">
<polygon fill="none" stroke="black" points="302.5,-1421.5 302.5,-1451.5 407.5,-1451.5 407.5,-1421.5 302.5,-1421.5"/>
<text text-anchor="start" x="310.5" y="-1439.5" font-family="Helvetica,sans-Serif" font-size="10.00">tracktion::engine::</text>
<text text-anchor="middle" x="355" y="-1428.5" font-family="Helvetica,sans-Serif" font-size="10.00">Modifier</text>
</a>
</g>
</g>
<!-- Node1&#45;&gt;Node4 -->
<g id="edge3" class="edge">
<title>Node1&#45;&gt;Node4</title>
<path fill="none" stroke="midnightblue" d="M272.4,-1436.5C282.5,-1436.5 292.74,-1436.5 302.39,-1436.5"/>
<polygon fill="midnightblue" stroke="midnightblue" points="272.38,-1433 262.38,-1436.5 272.38,-1440 272.38,-1433"/>
</g>
<!-- Node11 -->
<g id="node11" class="node">
<title>Node11</title>
<g id="a_node11"><a xlink:href="classtracktion_1_1engine_1_1Plugin.html" target="_top" xlink:title=" ">
<polygon fill="none" stroke="black" points="302.5,-662.5 302.5,-692.5 407.5,-692.5 407.5,-662.5 302.5,-662.5"/>
<text text-anchor="start" x="310.5" y="-680.5" font-family="Helvetica,sans-Serif" font-size="10.00">tracktion::engine::</text>
<text text-anchor="middle" x="355" y="-669.5" font-family="Helvetica,sans-Serif" font-size="10.00">Plugin</text>
</a>
</g>
</g>
<!-- Node1&#45;&gt;Node11 -->
<g id="edge10" class="edge">
<title>Node1&#45;&gt;Node11</title>
<path fill="none" stroke="midnightblue" d="M207.52,-1411.34C231.3,-1292.24 332.14,-787.01 350.97,-692.7"/>
<polygon fill="midnightblue" stroke="midnightblue" points="204.05,-1410.85 205.53,-1421.34 210.92,-1412.22 204.05,-1410.85"/>
</g>
<!-- Node2 -->
<g id="node2" class="node">
<title>Node2</title>
<g id="a_node2"><a xlink:href="classtracktion_1_1engine_1_1EditItem.html" target="_top" xlink:title="Base class for objects that live inside an edit &#45; e.g.">
<polygon fill="none" stroke="black" points="0,-1421.5 0,-1451.5 105,-1451.5 105,-1421.5 0,-1421.5"/>
<text text-anchor="start" x="8" y="-1439.5" font-family="Helvetica,sans-Serif" font-size="10.00">tracktion::engine::</text>
<text text-anchor="middle" x="52.5" y="-1428.5" font-family="Helvetica,sans-Serif" font-size="10.00">EditItem</text>
</a>
</g>
</g>
<!-- Node2&#45;&gt;Node1 -->
<g id="edge1" class="edge">
<title>Node2&#45;&gt;Node1</title>
<path fill="none" stroke="midnightblue" d="M115.45,-1436.5C123.87,-1436.5 132.49,-1436.5 140.86,-1436.5"/>
<polygon fill="midnightblue" stroke="midnightblue" points="115.33,-1433 105.33,-1436.5 115.33,-1440 115.33,-1433"/>
</g>
<!-- Node5 -->
<g id="node5" class="node">
<title>Node5</title>
<g id="a_node5"><a xlink:href="classtracktion_1_1engine_1_1BreakpointOscillatorModifier.html" target="_top" xlink:title=" ">
<polygon fill="none" stroke="black" points="448,-1568.5 448,-1598.5 604,-1598.5 604,-1568.5 448,-1568.5"/>
<text text-anchor="start" x="456" y="-1586.5" font-family="Helvetica,sans-Serif" font-size="10.00">tracktion::engine::</text>
<text text-anchor="middle" x="526" y="-1575.5" font-family="Helvetica,sans-Serif" font-size="10.00">BreakpointOscillatorModifier</text>
</a>
</g>
</g>
<!-- Node4&#45;&gt;Node5 -->
<g id="edge4" class="edge">
<title>Node4&#45;&gt;Node5</title>
<path fill="none" stroke="midnightblue" d="M408.1,-1457.76C409.47,-1458.94 410.78,-1460.19 412,-1461.5 443.68,-1495.4 414.38,-1527.52 448,-1559.5 451.65,-1562.97 455.8,-1565.95 460.23,-1568.49"/>
<polygon fill="midnightblue" stroke="midnightblue" points="409.79,-1454.66 399.64,-1451.63 405.68,-1460.33 409.79,-1454.66"/>
</g>
<!-- Node6 -->
<g id="node6" class="node">
<title>Node6</title>
<g id="a_node6"><a xlink:href="classtracktion_1_1engine_1_1EnvelopeFollowerModifier.html" target="_top" xlink:title=" ">
<polygon fill="none" stroke="black" points="454.5,-1519.5 454.5,-1549.5 597.5,-1549.5 597.5,-1519.5 454.5,-1519.5"/>
<text text-anchor="start" x="462.5" y="-1537.5" font-family="Helvetica,sans-Serif" font-size="10.00">tracktion::engine::</text>
<text text-anchor="middle" x="526" y="-1526.5" font-family="Helvetica,sans-Serif" font-size="10.00">EnvelopeFollowerModifier</text>
</a>
</g>
</g>
<!-- Node4&#45;&gt;Node6 -->
<g id="edge5" class="edge">
<title>Node4&#45;&gt;Node6</title>
<path fill="none" stroke="midnightblue" d="M405.58,-1456.84C407.81,-1458.31 409.97,-1459.86 412,-1461.5 433.04,-1478.46 426,-1494.81 448,-1510.5 452.79,-1513.92 458.08,-1516.86 463.57,-1519.39"/>
<polygon fill="midnightblue" stroke="midnightblue" points="407.03,-1453.63 396.63,-1451.58 403.48,-1459.67 407.03,-1453.63"/>
</g>
<!-- Node7 -->
<g id="node7" class="node">
<title>Node7</title>
<g id="a_node7"><a xlink:href="classtracktion_1_1engine_1_1LFOModifier.html" target="_top" xlink:title=" ">
<polygon fill="none" stroke="black" points="473.5,-1470.5 473.5,-1500.5 578.5,-1500.5 578.5,-1470.5 473.5,-1470.5"/>
<text text-anchor="start" x="481.5" y="-1488.5" font-family="Helvetica,sans-Serif" font-size="10.00">tracktion::engine::</text>
<text text-anchor="middle" x="526" y="-1477.5" font-family="Helvetica,sans-Serif" font-size="10.00">LFOModifier</text>
</a>
</g>
</g>
<!-- Node4&#45;&gt;Node7 -->
<g id="edge6" class="edge">
<title>Node4&#45;&gt;Node7</title>
<path fill="none" stroke="midnightblue" d="M417.36,-1454.29C435.74,-1459.62 455.71,-1465.41 473.4,-1470.54"/>
<polygon fill="midnightblue" stroke="midnightblue" points="418.2,-1450.89 407.62,-1451.47 416.25,-1457.61 418.2,-1450.89"/>
</g>
<!-- Node8 -->
<g id="node8" class="node">
<title>Node8</title>
<g id="a_node8"><a xlink:href="classtracktion_1_1engine_1_1MIDITrackerModifier.html" target="_top" xlink:title=" ">
<polygon fill="none" stroke="black" points="469.5,-1421.5 469.5,-1451.5 582.5,-1451.5 582.5,-1421.5 469.5,-1421.5"/>
<text text-anchor="start" x="477.5" y="-1439.5" font-family="Helvetica,sans-Serif" font-size="10.00">tracktion::engine::</text>
<text text-anchor="middle" x="526" y="-1428.5" font-family="Helvetica,sans-Serif" font-size="10.00">MIDITrackerModifier</text>
</a>
</g>
</g>
<!-- Node4&#45;&gt;Node8 -->
<g id="edge7" class="edge">
<title>Node4&#45;&gt;Node8</title>
<path fill="none" stroke="midnightblue" d="M417.9,-1436.5C434.72,-1436.5 452.83,-1436.5 469.29,-1436.5"/>
<polygon fill="midnightblue" stroke="midnightblue" points="417.62,-1433 407.62,-1436.5 417.62,-1440 417.62,-1433"/>
</g>
<!-- Node9 -->
<g id="node9" class="node">
<title>Node9</title>
<g id="a_node9"><a xlink:href="classtracktion_1_1engine_1_1RandomModifier.html" target="_top" xlink:title=" ">
<polygon fill="none" stroke="black" points="473.5,-1372.5 473.5,-1402.5 578.5,-1402.5 578.5,-1372.5 473.5,-1372.5"/>
<text text-anchor="start" x="481.5" y="-1390.5" font-family="Helvetica,sans-Serif" font-size="10.00">tracktion::engine::</text>
<text text-anchor="middle" x="526" y="-1379.5" font-family="Helvetica,sans-Serif" font-size="10.00">RandomModifier</text>
</a>
</g>
</g>
<!-- Node4&#45;&gt;Node9 -->
<g id="edge8" class="edge">
<title>Node4&#45;&gt;Node9</title>
<path fill="none" stroke="midnightblue" d="M417.36,-1418.71C435.74,-1413.38 455.71,-1407.59 473.4,-1402.46"/>
<polygon fill="midnightblue" stroke="midnightblue" points="416.25,-1415.39 407.62,-1421.53 418.2,-1422.11 416.25,-1415.39"/>
</g>
<!-- Node10 -->
<g id="node10" class="node">
<title>Node10</title>
<g id="a_node10"><a xlink:href="classtracktion_1_1engine_1_1StepModifier.html" target="_top" xlink:title=" ">
<polygon fill="none" stroke="black" points="473.5,-1323.5 473.5,-1353.5 578.5,-1353.5 578.5,-1323.5 473.5,-1323.5"/>
<text text-anchor="start" x="481.5" y="-1341.5" font-family="Helvetica,sans-Serif" font-size="10.00">tracktion::engine::</text>
<text text-anchor="middle" x="526" y="-1330.5" font-family="Helvetica,sans-Serif" font-size="10.00">StepModifier</text>
</a>
</g>
</g>
<!-- Node4&#45;&gt;Node10 -->
<g id="edge9" class="edge">
<title>Node4&#45;&gt;Node10</title>
<path fill="none" stroke="midnightblue" d="M378.48,-1414.36C396.12,-1398.05 421.96,-1376.38 448,-1362.5 455.91,-1358.28 464.67,-1354.68 473.38,-1351.64"/>
<polygon fill="midnightblue" stroke="midnightblue" points="375.86,-1412.02 370.98,-1421.43 380.66,-1417.11 375.86,-1412.02"/>
</g>
<!-- Node12 -->
<g id="node12" class="node">
<title>Node12</title>
<g id="a_node12"><a xlink:href="classtracktion_1_1engine_1_1AirWindowsPlugin.html" target="_top" xlink:title=" ">
<polygon fill="none" stroke="black" points="473.5,-1274.5 473.5,-1304.5 578.5,-1304.5 578.5,-1274.5 473.5,-1274.5"/>
<text text-anchor="start" x="481.5" y="-1292.5" font-family="Helvetica,sans-Serif" font-size="10.00">tracktion::engine::</text>
<text text-anchor="middle" x="526" y="-1281.5" font-family="Helvetica,sans-Serif" font-size="10.00">AirWindowsPlugin</text>
</a>
</g>
</g>
<!-- Node11&#45;&gt;Node12 -->
<g id="edge11" class="edge">
<title>Node11&#45;&gt;Node12</title>
<path fill="none" stroke="midnightblue" d="M356.55,-702.93C359.25,-804.25 374.12,-1177.88 448,-1264.5 454.66,-1272.31 463.78,-1277.69 473.42,-1281.41"/>
<polygon fill="midnightblue" stroke="midnightblue" points="360.04,-702.62 356.3,-692.71 353.05,-702.8 360.04,-702.62"/>
</g>
<!-- Node13 -->
<g id="node13" class="node">
<title>Node13</title>
<g id="a_node13"><a xlink:href="classtracktion_1_1engine_1_1AuxReturnPlugin.html" target="_top" xlink:title=" ">
<polygon fill="none" stroke="black" points="473.5,-1225.5 473.5,-1255.5 578.5,-1255.5 578.5,-1225.5 473.5,-1225.5"/>
<text text-anchor="start" x="481.5" y="-1243.5" font-family="Helvetica,sans-Serif" font-size="10.00">tracktion::engine::</text>
<text text-anchor="middle" x="526" y="-1232.5" font-family="Helvetica,sans-Serif" font-size="10.00">AuxReturnPlugin</text>
</a>
</g>
</g>
<!-- Node11&#45;&gt;Node13 -->
<g id="edge12" class="edge">
<title>Node11&#45;&gt;Node13</title>
<path fill="none" stroke="midnightblue" d="M356.95,-702.95C361.04,-798.86 380.1,-1137 448,-1215.5 454.62,-1223.15 463.61,-1228.48 473.11,-1232.18"/>
<polygon fill="midnightblue" stroke="midnightblue" points="360.44,-702.58 356.53,-692.73 353.45,-702.86 360.44,-702.58"/>
</g>
<!-- Node14 -->
<g id="node14" class="node">
<title>Node14</title>
<g id="a_node14"><a xlink:href="classtracktion_1_1engine_1_1AuxSendPlugin.html" target="_top" xlink:title=" ">
<polygon fill="none" stroke="black" points="473.5,-1176.5 473.5,-1206.5 578.5,-1206.5 578.5,-1176.5 473.5,-1176.5"/>
<text text-anchor="start" x="481.5" y="-1194.5" font-family="Helvetica,sans-Serif" font-size="10.00">tracktion::engine::</text>
<text text-anchor="middle" x="526" y="-1183.5" font-family="Helvetica,sans-Serif" font-size="10.00">AuxSendPlugin</text>
</a>
</g>
</g>
<!-- Node11&#45;&gt;Node14 -->
<g id="edge13" class="edge">
<title>Node11&#45;&gt;Node14</title>
<path fill="none" stroke="midnightblue" d="M357.41,-702.65C362.94,-792.5 385.97,-1095.98 448,-1166.5 454.68,-1174.1 463.7,-1179.4 473.2,-1183.1"/>
<polygon fill="midnightblue" stroke="midnightblue" points="360.9,-702.33 356.81,-692.56 353.91,-702.75 360.9,-702.33"/>
</g>
<!-- Node15 -->
<g id="node15" class="node">
<title>Node15</title>
<g id="a_node15"><a xlink:href="classtracktion_1_1engine_1_1ChorusPlugin.html" target="_top" xlink:title=" ">
<polygon fill="none" stroke="black" points="473.5,-1127.5 473.5,-1157.5 578.5,-1157.5 578.5,-1127.5 473.5,-1127.5"/>
<text text-anchor="start" x="481.5" y="-1145.5" font-family="Helvetica,sans-Serif" font-size="10.00">tracktion::engine::</text>
<text text-anchor="middle" x="526" y="-1134.5" font-family="Helvetica,sans-Serif" font-size="10.00">ChorusPlugin</text>
</a>
</g>
</g>
<!-- Node11&#45;&gt;Node15 -->
<g id="edge14" class="edge">
<title>Node11&#45;&gt;Node15</title>
<path fill="none" stroke="midnightblue" d="M358,-702.85C365.14,-786.97 391.94,-1055.05 448,-1117.5 454.76,-1125.03 463.81,-1130.3 473.32,-1133.99"/>
<polygon fill="midnightblue" stroke="midnightblue" points="361.49,-702.56 357.18,-692.88 354.52,-703.14 361.49,-702.56"/>
</g>
<!-- Node16 -->
<g id="node16" class="node">
<title>Node16</title>
<g id="a_node16"><a xlink:href="classtracktion_1_1engine_1_1CompressorPlugin.html" target="_top" xlink:title=" ">
<polygon fill="none" stroke="black" points="473.5,-1078.5 473.5,-1108.5 578.5,-1108.5 578.5,-1078.5 473.5,-1078.5"/>
<text text-anchor="start" x="481.5" y="-1096.5" font-family="Helvetica,sans-Serif" font-size="10.00">tracktion::engine::</text>
<text text-anchor="middle" x="526" y="-1085.5" font-family="Helvetica,sans-Serif" font-size="10.00">CompressorPlugin</text>
</a>
</g>
</g>
<!-- Node11&#45;&gt;Node16 -->
<g id="edge15" class="edge">
<title>Node11&#45;&gt;Node16</title>
<path fill="none" stroke="midnightblue" d="M358.77,-703.28C367.68,-781.51 397.92,-1014.09 448,-1068.5 454.85,-1075.95 463.94,-1081.18 473.47,-1084.86"/>
<polygon fill="midnightblue" stroke="midnightblue" points="362.2,-702.45 357.61,-692.9 355.25,-703.23 362.2,-702.45"/>
</g>
<!-- Node17 -->
<g id="node17" class="node">
<title>Node17</title>
<g id="a_node17"><a xlink:href="classtracktion_1_1engine_1_1DelayPlugin.html" target="_top" xlink:title=" ">
<polygon fill="none" stroke="black" points="473.5,-1029.5 473.5,-1059.5 578.5,-1059.5 578.5,-1029.5 473.5,-1029.5"/>
<text text-anchor="start" x="481.5" y="-1047.5" font-family="Helvetica,sans-Serif" font-size="10.00">tracktion::engine::</text>
<text text-anchor="middle" x="526" y="-1036.5" font-family="Helvetica,sans-Serif" font-size="10.00">DelayPlugin</text>
</a>
</g>
</g>
<!-- Node11&#45;&gt;Node17 -->
<g id="edge16" class="edge">
<title>Node11&#45;&gt;Node17</title>
<path fill="none" stroke="midnightblue" d="M355.15,-702.63C354.46,-765.01 361.5,-928.46 448,-1019.5 454.87,-1026.73 463.86,-1031.88 473.25,-1035.54"/>
<polygon fill="midnightblue" stroke="midnightblue" points="358.66,-702.59 355.35,-692.52 351.66,-702.45 358.66,-702.59"/>
</g>
<!-- Node18 -->
<g id="node18" class="node">
<title>Node18</title>
<g id="a_node18"><a xlink:href="classtracktion_1_1engine_1_1EqualiserPlugin.html" target="_top" xlink:title=" ">
<polygon fill="none" stroke="black" points="473.5,-980.5 473.5,-1010.5 578.5,-1010.5 578.5,-980.5 473.5,-980.5"/>
<text text-anchor="start" x="481.5" y="-998.5" font-family="Helvetica,sans-Serif" font-size="10.00">tracktion::engine::</text>
<text text-anchor="middle" x="526" y="-987.5" font-family="Helvetica,sans-Serif" font-size="10.00">EqualiserPlugin</text>
</a>
</g>
</g>
<!-- Node11&#45;&gt;Node18 -->
<g id="edge17" class="edge">
<title>Node11&#45;&gt;Node18</title>
<path fill="none" stroke="midnightblue" d="M356.52,-702.81C359.06,-758.94 373.08,-894.85 448,-970.5 455.02,-977.59 464.07,-982.67 473.48,-986.31"/>
<polygon fill="midnightblue" stroke="midnightblue" points="360.01,-702.56 356.15,-692.69 353.02,-702.81 360.01,-702.56"/>
</g>
<!-- Node19 -->
<g id="node19" class="node">
<title>Node19</title>
<g id="a_node19"><a xlink:href="classtracktion_1_1engine_1_1ExternalPlugin.html" target="_top" xlink:title=" ">
<polygon fill="none" stroke="black" points="473.5,-931.5 473.5,-961.5 578.5,-961.5 578.5,-931.5 473.5,-931.5"/>
<text text-anchor="start" x="481.5" y="-949.5" font-family="Helvetica,sans-Serif" font-size="10.00">tracktion::engine::</text>
<text text-anchor="middle" x="526" y="-938.5" font-family="Helvetica,sans-Serif" font-size="10.00">ExternalPlugin</text>
</a>
</g>
</g>
<!-- Node11&#45;&gt;Node19 -->
<g id="edge18" class="edge">
<title>Node11&#45;&gt;Node19</title>
<path fill="none" stroke="midnightblue" d="M358.37,-702.6C364.33,-751.66 384.37,-860.77 448,-921.5 455.12,-928.29 464.1,-933.24 473.39,-936.84"/>
<polygon fill="midnightblue" stroke="midnightblue" points="361.83,-702.1 357.24,-692.55 354.88,-702.87 361.83,-702.1"/>
</g>
<!-- Node20 -->
<g id="node20" class="node">
<title>Node20</title>
<g id="a_node20"><a xlink:href="classtracktion_1_1engine_1_1FourOscPlugin.html" target="_top" xlink:title=" ">
<polygon fill="none" stroke="black" points="473.5,-882.5 473.5,-912.5 578.5,-912.5 578.5,-882.5 473.5,-882.5"/>
<text text-anchor="start" x="481.5" y="-900.5" font-family="Helvetica,sans-Serif" font-size="10.00">tracktion::engine::</text>
<text text-anchor="middle" x="526" y="-889.5" font-family="Helvetica,sans-Serif" font-size="10.00">FourOscPlugin</text>
</a>
</g>
</g>
<!-- Node11&#45;&gt;Node20 -->
<g id="edge19" class="edge">
<title>Node11&#45;&gt;Node20</title>
<path fill="none" stroke="midnightblue" d="M361.04,-702.45C370.66,-743.74 395.54,-826.3 448,-872.5 455.28,-878.91 464.23,-883.68 473.42,-887.23"/>
<polygon fill="midnightblue" stroke="midnightblue" points="364.45,-701.66 358.86,-692.66 357.61,-703.18 364.45,-701.66"/>
</g>
<!-- Node21 -->
<g id="node21" class="node">
<title>Node21</title>
<g id="a_node21"><a xlink:href="classtracktion_1_1engine_1_1FreezePointPlugin.html" target="_top" xlink:title=" ">
<polygon fill="none" stroke="black" points="473.5,-833.5 473.5,-863.5 578.5,-863.5 578.5,-833.5 473.5,-833.5"/>
<text text-anchor="start" x="481.5" y="-851.5" font-family="Helvetica,sans-Serif" font-size="10.00">tracktion::engine::</text>
<text text-anchor="middle" x="526" y="-840.5" font-family="Helvetica,sans-Serif" font-size="10.00">FreezePointPlugin</text>
</a>
</g>
</g>
<!-- Node11&#45;&gt;Node21 -->
<g id="edge20" class="edge">
<title>Node11&#45;&gt;Node21</title>
<path fill="none" stroke="midnightblue" d="M365.36,-702.4C378.81,-734.86 406.61,-791.29 448,-823.5 455.43,-829.28 464.25,-833.75 473.21,-837.2"/>
<polygon fill="midnightblue" stroke="midnightblue" points="368.47,-700.74 361.5,-692.76 361.97,-703.35 368.47,-700.74"/>
</g>
<!-- Node22 -->
<g id="node22" class="node">
<title>Node22</title>
<g id="a_node22"><a xlink:href="classtracktion_1_1engine_1_1ImpulseResponsePlugin.html" target="_top" xlink:title="ImpulseResponsePlugin that loads an impulse response and applies it the audio stream.">
<polygon fill="none" stroke="black" points="459.5,-784.5 459.5,-814.5 592.5,-814.5 592.5,-784.5 459.5,-784.5"/>
<text text-anchor="start" x="467.5" y="-802.5" font-family="Helvetica,sans-Serif" font-size="10.00">tracktion::engine::</text>
<text text-anchor="middle" x="526" y="-791.5" font-family="Helvetica,sans-Serif" font-size="10.00">ImpulseResponsePlugin</text>
</a>
</g>
</g>
<!-- Node11&#45;&gt;Node22 -->
<g id="edge21" class="edge">
<title>Node11&#45;&gt;Node22</title>
<path fill="none" stroke="midnightblue" d="M372.48,-700.65C389.2,-722.56 416.98,-754.93 448,-774.5 454.06,-778.33 460.76,-781.62 467.61,-784.44"/>
<polygon fill="midnightblue" stroke="midnightblue" points="375.21,-698.45 366.43,-692.53 369.6,-702.64 375.21,-698.45"/>
</g>
<!-- Node23 -->
<g id="node23" class="node">
<title>Node23</title>
<g id="a_node23"><a xlink:href="classtracktion_1_1engine_1_1InsertPlugin.html" target="_top" xlink:title=" ">
<polygon fill="none" stroke="black" points="473.5,-735.5 473.5,-765.5 578.5,-765.5 578.5,-735.5 473.5,-735.5"/>
<text text-anchor="start" x="481.5" y="-753.5" font-family="Helvetica,sans-Serif" font-size="10.00">tracktion::engine::</text>
<text text-anchor="middle" x="526" y="-742.5" font-family="Helvetica,sans-Serif" font-size="10.00">InsertPlugin</text>
</a>
</g>
</g>
<!-- Node11&#45;&gt;Node23 -->
<g id="edge22" class="edge">
<title>Node11&#45;&gt;Node23</title>
<path fill="none" stroke="midnightblue" d="M390.97,-697.5C407.88,-706.72 428.66,-717.38 448,-725.5 456.42,-729.04 465.53,-732.39 474.44,-735.42"/>
<polygon fill="midnightblue" stroke="midnightblue" points="392.46,-694.33 382.01,-692.56 389.07,-700.46 392.46,-694.33"/>
</g>
<!-- Node24 -->
<g id="node24" class="node">
<title>Node24</title>
<g id="a_node24"><a xlink:href="classtracktion_1_1engine_1_1LatencyPlugin.html" target="_top" xlink:title="A test plugin that introduces latency to the incomming signal.">
<polygon fill="none" stroke="black" points="473.5,-686.5 473.5,-716.5 578.5,-716.5 578.5,-686.5 473.5,-686.5"/>
<text text-anchor="start" x="481.5" y="-704.5" font-family="Helvetica,sans-Serif" font-size="10.00">tracktion::engine::</text>
<text text-anchor="middle" x="526" y="-693.5" font-family="Helvetica,sans-Serif" font-size="10.00">LatencyPlugin</text>
</a>
</g>
</g>
<!-- Node11&#45;&gt;Node24 -->
<g id="edge23" class="edge">
<title>Node11&#45;&gt;Node24</title>
<path fill="none" stroke="midnightblue" d="M417.61,-686.25C435.93,-688.85 455.79,-691.67 473.4,-694.17"/>
<polygon fill="midnightblue" stroke="midnightblue" points="418.02,-682.77 407.62,-684.83 417.03,-689.7 418.02,-682.77"/>
</g>
<!-- Node25 -->
<g id="node25" class="node">
<title>Node25</title>
<g id="a_node25"><a xlink:href="classtracktion_1_1engine_1_1LevelMeterPlugin.html" target="_top" xlink:title=" ">
<polygon fill="none" stroke="black" points="473.5,-637.5 473.5,-667.5 578.5,-667.5 578.5,-637.5 473.5,-637.5"/>
<text text-anchor="start" x="481.5" y="-655.5" font-family="Helvetica,sans-Serif" font-size="10.00">tracktion::engine::</text>
<text text-anchor="middle" x="526" y="-644.5" font-family="Helvetica,sans-Serif" font-size="10.00">LevelMeterPlugin</text>
</a>
</g>
</g>
<!-- Node11&#45;&gt;Node25 -->
<g id="edge24" class="edge">
<title>Node11&#45;&gt;Node25</title>
<path fill="none" stroke="midnightblue" d="M417.61,-668.39C435.93,-665.68 455.79,-662.74 473.4,-660.13"/>
<polygon fill="midnightblue" stroke="midnightblue" points="417,-664.94 407.62,-669.86 418.03,-671.86 417,-664.94"/>
</g>
<!-- Node26 -->
<g id="node26" class="node">
<title>Node26</title>
<g id="a_node26"><a xlink:href="classtracktion_1_1engine_1_1LowPassPlugin.html" target="_top" xlink:title=" ">
<polygon fill="none" stroke="black" points="473.5,-588.5 473.5,-618.5 578.5,-618.5 578.5,-588.5 473.5,-588.5"/>
<text text-anchor="start" x="481.5" y="-606.5" font-family="Helvetica,sans-Serif" font-size="10.00">tracktion::engine::</text>
<text text-anchor="middle" x="526" y="-595.5" font-family="Helvetica,sans-Serif" font-size="10.00">LowPassPlugin</text>
</a>
</g>
</g>
<!-- Node11&#45;&gt;Node26 -->
<g id="edge25" class="edge">
<title>Node11&#45;&gt;Node26</title>
<path fill="none" stroke="midnightblue" d="M389.74,-657.1C406.81,-647.31 428.08,-635.92 448,-627.5 456,-624.12 464.64,-620.97 473.14,-618.13"/>
<polygon fill="midnightblue" stroke="midnightblue" points="387.61,-654.29 380.72,-662.34 391.13,-660.34 387.61,-654.29"/>
</g>
<!-- Node27 -->
<g id="node27" class="node">
<title>Node27</title>
<g id="a_node27"><a xlink:href="classtracktion_1_1engine_1_1MidiModifierPlugin.html" target="_top" xlink:title=" ">
<polygon fill="none" stroke="black" points="472.5,-539.5 472.5,-569.5 579.5,-569.5 579.5,-539.5 472.5,-539.5"/>
<text text-anchor="start" x="480.5" y="-557.5" font-family="Helvetica,sans-Serif" font-size="10.00">tracktion::engine::</text>
<text text-anchor="middle" x="526" y="-546.5" font-family="Helvetica,sans-Serif" font-size="10.00">MidiModifierPlugin</text>
</a>
</g>
</g>
<!-- Node11&#45;&gt;Node27 -->
<g id="edge26" class="edge">
<title>Node11&#45;&gt;Node27</title>
<path fill="none" stroke="midnightblue" d="M372.05,-654.15C388.62,-631.72 416.45,-598.37 448,-578.5 455.46,-573.8 463.92,-569.96 472.42,-566.84"/>
<polygon fill="midnightblue" stroke="midnightblue" points="369.07,-652.3 366.06,-662.46 374.75,-656.39 369.07,-652.3"/>
</g>
<!-- Node28 -->
<g id="node28" class="node">
<title>Node28</title>
<g id="a_node28"><a xlink:href="classtracktion_1_1engine_1_1MidiPatchBayPlugin.html" target="_top" xlink:title=" ">
<polygon fill="none" stroke="black" points="469.5,-490.5 469.5,-520.5 582.5,-520.5 582.5,-490.5 469.5,-490.5"/>
<text text-anchor="start" x="477.5" y="-508.5" font-family="Helvetica,sans-Serif" font-size="10.00">tracktion::engine::</text>
<text text-anchor="middle" x="526" y="-497.5" font-family="Helvetica,sans-Serif" font-size="10.00">MidiPatchBayPlugin</text>
</a>
</g>
</g>
<!-- Node11&#45;&gt;Node28 -->
<g id="edge27" class="edge">
<title>Node11&#45;&gt;Node28</title>
<path fill="none" stroke="midnightblue" d="M365.01,-652.69C378.21,-619.79 405.89,-562.07 448,-529.5 454.31,-524.62 461.63,-520.72 469.2,-517.61"/>
<polygon fill="midnightblue" stroke="midnightblue" points="361.58,-651.85 361.23,-662.44 368.11,-654.38 361.58,-651.85"/>
</g>
<!-- Node29 -->
<g id="node29" class="node">
<title>Node29</title>
<g id="a_node29"><a xlink:href="classtracktion_1_1engine_1_1PatchBayPlugin.html" target="_top" xlink:title=" ">
<polygon fill="none" stroke="black" points="473.5,-441.5 473.5,-471.5 578.5,-471.5 578.5,-441.5 473.5,-441.5"/>
<text text-anchor="start" x="481.5" y="-459.5" font-family="Helvetica,sans-Serif" font-size="10.00">tracktion::engine::</text>
<text text-anchor="middle" x="526" y="-448.5" font-family="Helvetica,sans-Serif" font-size="10.00">PatchBayPlugin</text>
</a>
</g>
</g>
<!-- Node11&#45;&gt;Node29 -->
<g id="edge28" class="edge">
<title>Node11&#45;&gt;Node29</title>
<path fill="none" stroke="midnightblue" d="M360.83,-652.54C370.2,-610.83 394.78,-526.99 448,-480.5 455.28,-474.14 464.22,-469.47 473.41,-466.03"/>
<polygon fill="midnightblue" stroke="midnightblue" points="357.39,-651.91 358.72,-662.42 364.23,-653.37 357.39,-651.91"/>
</g>
<!-- Node30 -->
<g id="node30" class="node">
<title>Node30</title>
<g id="a_node30"><a xlink:href="classtracktion_1_1engine_1_1PhaserPlugin.html" target="_top" xlink:title=" ">
<polygon fill="none" stroke="black" points="473.5,-392.5 473.5,-422.5 578.5,-422.5 578.5,-392.5 473.5,-392.5"/>
<text text-anchor="start" x="481.5" y="-410.5" font-family="Helvetica,sans-Serif" font-size="10.00">tracktion::engine::</text>
<text text-anchor="middle" x="526" y="-399.5" font-family="Helvetica,sans-Serif" font-size="10.00">PhaserPlugin</text>
</a>
</g>
</g>
<!-- Node11&#45;&gt;Node30 -->
<g id="edge29" class="edge">
<title>Node11&#45;&gt;Node30</title>
<path fill="none" stroke="midnightblue" d="M358.24,-652.13C363.97,-602.56 383.63,-492.38 448,-431.5 455.12,-424.76 464.11,-419.92 473.4,-416.43"/>
<polygon fill="midnightblue" stroke="midnightblue" points="354.74,-651.98 357.16,-662.29 361.7,-652.71 354.74,-651.98"/>
</g>
<!-- Node31 -->
<g id="node31" class="node">
<title>Node31</title>
<g id="a_node31"><a xlink:href="classtracktion_1_1engine_1_1PitchShiftPlugin.html" target="_top" xlink:title=" ">
<polygon fill="none" stroke="black" points="473.5,-343.5 473.5,-373.5 578.5,-373.5 578.5,-343.5 473.5,-343.5"/>
<text text-anchor="start" x="481.5" y="-361.5" font-family="Helvetica,sans-Serif" font-size="10.00">tracktion::engine::</text>
<text text-anchor="middle" x="526" y="-350.5" font-family="Helvetica,sans-Serif" font-size="10.00">PitchShiftPlugin</text>
</a>
</g>
</g>
<!-- Node11&#45;&gt;Node31 -->
<g id="edge30" class="edge">
<title>Node11&#45;&gt;Node31</title>
<path fill="none" stroke="midnightblue" d="M356.4,-651.95C358.69,-595.31 372.24,-458.25 448,-382.5 455.03,-375.47 464.08,-370.49 473.5,-366.97"/>
<polygon fill="midnightblue" stroke="midnightblue" points="352.89,-652.06 356.08,-662.17 359.89,-652.28 352.89,-652.06"/>
</g>
<!-- Node32 -->
<g id="node32" class="node">
<title>Node32</title>
<g id="a_node32"><a xlink:href="classtracktion_1_1engine_1_1RackInstance.html" target="_top" xlink:title=" ">
<polygon fill="none" stroke="black" points="473.5,-294.5 473.5,-324.5 578.5,-324.5 578.5,-294.5 473.5,-294.5"/>
<text text-anchor="start" x="481.5" y="-312.5" font-family="Helvetica,sans-Serif" font-size="10.00">tracktion::engine::</text>
<text text-anchor="middle" x="526" y="-301.5" font-family="Helvetica,sans-Serif" font-size="10.00">RackInstance</text>
</a>
</g>
</g>
<!-- Node11&#45;&gt;Node32 -->
<g id="edge31" class="edge">
<title>Node11&#45;&gt;Node32</title>
<path fill="none" stroke="midnightblue" d="M359.59,-652C370.16,-580.47 403.2,-380.17 448,-333.5 454.88,-326.33 463.87,-321.29 473.27,-317.75"/>
<polygon fill="midnightblue" stroke="midnightblue" points="356.07,-651.93 358.09,-662.33 363,-652.93 356.07,-651.93"/>
</g>
<!-- Node33 -->
<g id="node33" class="node">
<title>Node33</title>
<g id="a_node33"><a xlink:href="classtracktion_1_1engine_1_1ReverbPlugin.html" target="_top" xlink:title=" ">
<polygon fill="none" stroke="black" points="473.5,-245.5 473.5,-275.5 578.5,-275.5 578.5,-245.5 473.5,-245.5"/>
<text text-anchor="start" x="481.5" y="-263.5" font-family="Helvetica,sans-Serif" font-size="10.00">tracktion::engine::</text>
<text text-anchor="middle" x="526" y="-252.5" font-family="Helvetica,sans-Serif" font-size="10.00">ReverbPlugin</text>
</a>
</g>
</g>
<!-- Node11&#45;&gt;Node33 -->
<g id="edge32" class="edge">
<title>Node11&#45;&gt;Node33</title>
<path fill="none" stroke="midnightblue" d="M358.67,-652.09C367.36,-573.92 397.28,-339.02 448,-284.5 454.87,-277.12 463.96,-271.99 473.49,-268.43"/>
<polygon fill="midnightblue" stroke="midnightblue" points="355.14,-652.12 357.54,-662.44 362.1,-652.88 355.14,-652.12"/>
</g>
<!-- Node34 -->
<g id="node34" class="node">
<title>Node34</title>
<g id="a_node34"><a xlink:href="classtracktion_1_1engine_1_1SamplerPlugin.html" target="_top" xlink:title=" ">
<polygon fill="none" stroke="black" points="473.5,-196.5 473.5,-226.5 578.5,-226.5 578.5,-196.5 473.5,-196.5"/>
<text text-anchor="start" x="481.5" y="-214.5" font-family="Helvetica,sans-Serif" font-size="10.00">tracktion::engine::</text>
<text text-anchor="middle" x="526" y="-203.5" font-family="Helvetica,sans-Serif" font-size="10.00">SamplerPlugin</text>
</a>
</g>
</g>
<!-- Node11&#45;&gt;Node34 -->
<g id="edge33" class="edge">
<title>Node11&#45;&gt;Node34</title>
<path fill="none" stroke="midnightblue" d="M357.93,-652.31C364.89,-568.08 391.29,-297.99 448,-235.5 454.78,-228.03 463.83,-222.87 473.35,-219.3"/>
<polygon fill="midnightblue" stroke="midnightblue" points="354.43,-652.25 357.11,-662.5 361.41,-652.81 354.43,-652.25"/>
</g>
<!-- Node35 -->
<g id="node35" class="node">
<title>Node35</title>
<g id="a_node35"><a xlink:href="classtracktion_1_1engine_1_1TextPlugin.html" target="_top" xlink:title=" ">
<polygon fill="none" stroke="black" points="473.5,-147.5 473.5,-177.5 578.5,-177.5 578.5,-147.5 473.5,-147.5"/>
<text text-anchor="start" x="481.5" y="-165.5" font-family="Helvetica,sans-Serif" font-size="10.00">tracktion::engine::</text>
<text text-anchor="middle" x="526" y="-154.5" font-family="Helvetica,sans-Serif" font-size="10.00">TextPlugin</text>
</a>
</g>
</g>
<!-- Node11&#45;&gt;Node35 -->
<g id="edge34" class="edge">
<title>Node11&#45;&gt;Node35</title>
<path fill="none" stroke="midnightblue" d="M357.37,-652.22C362.75,-561.93 385.34,-256.95 448,-186.5 454.7,-178.97 463.72,-173.77 473.23,-170.2"/>
<polygon fill="midnightblue" stroke="midnightblue" points="353.87,-652.18 356.78,-662.37 360.85,-652.58 353.87,-652.18"/>
</g>
<!-- Node36 -->
<g id="node36" class="node">
<title>Node36</title>
<g id="a_node36"><a xlink:href="classtracktion_1_1engine_1_1ToneGeneratorPlugin.html" target="_top" xlink:title=" ">
<polygon fill="none" stroke="black" points="467,-98.5 467,-128.5 585,-128.5 585,-98.5 467,-98.5"/>
<text text-anchor="start" x="475" y="-116.5" font-family="Helvetica,sans-Serif" font-size="10.00">tracktion::engine::</text>
<text text-anchor="middle" x="526" y="-105.5" font-family="Helvetica,sans-Serif" font-size="10.00">ToneGeneratorPlugin</text>
</a>
</g>
</g>
<!-- Node11&#45;&gt;Node36 -->
<g id="edge35" class="edge">
<title>Node11&#45;&gt;Node36</title>
<path fill="none" stroke="midnightblue" d="M356.9,-652.25C360.8,-556.32 379.34,-215.99 448,-137.5 453.16,-131.6 459.75,-127.13 466.9,-123.75"/>
<polygon fill="midnightblue" stroke="midnightblue" points="353.39,-652.33 356.5,-662.46 360.39,-652.61 353.39,-652.33"/>
</g>
<!-- Node37 -->
<g id="node37" class="node">
<title>Node37</title>
<g id="a_node37"><a xlink:href="classtracktion_1_1engine_1_1VCAPlugin.html" target="_top" xlink:title="The VCA plugin sits on a folder track to control the overall level of all the volume/pan plugins in i...">
<polygon fill="none" stroke="black" points="473.5,-49.5 473.5,-79.5 578.5,-79.5 578.5,-49.5 473.5,-49.5"/>
<text text-anchor="start" x="481.5" y="-67.5" font-family="Helvetica,sans-Serif" font-size="10.00">tracktion::engine::</text>
<text text-anchor="middle" x="526" y="-56.5" font-family="Helvetica,sans-Serif" font-size="10.00">VCAPlugin</text>
</a>
</g>
</g>
<!-- Node11&#45;&gt;Node37 -->
<g id="edge36" class="edge">
<title>Node11&#45;&gt;Node37</title>
<path fill="none" stroke="midnightblue" d="M356.5,-652.29C359.01,-551.02 373.31,-175.08 448,-88.5 454.68,-80.76 463.81,-75.48 473.45,-71.89"/>
<polygon fill="midnightblue" stroke="midnightblue" points="353,-652.42 356.27,-662.49 360,-652.58 353,-652.42"/>
</g>
<!-- Node38 -->
<g id="node38" class="node">
<title>Node38</title>
<g id="a_node38"><a xlink:href="classtracktion_1_1engine_1_1VolumeAndPanPlugin.html" target="_top" xlink:title="The built&#45;in Tracktion volume/pan plugin.">
<polygon fill="none" stroke="black" points="466.5,-0.5 466.5,-30.5 585.5,-30.5 585.5,-0.5 466.5,-0.5"/>
<text text-anchor="start" x="474.5" y="-18.5" font-family="Helvetica,sans-Serif" font-size="10.00">tracktion::engine::</text>
<text text-anchor="middle" x="526" y="-7.5" font-family="Helvetica,sans-Serif" font-size="10.00">VolumeAndPanPlugin</text>
</a>
</g>
</g>
<!-- Node11&#45;&gt;Node38 -->
<g id="edge37" class="edge">
<title>Node11&#45;&gt;Node38</title>
<path fill="none" stroke="midnightblue" d="M356.17,-652.28C357.37,-545.8 367.28,-134.19 448,-39.5 453,-33.64 459.4,-29.19 466.38,-25.81"/>
<polygon fill="midnightblue" stroke="midnightblue" points="352.67,-652.38 356.07,-662.41 359.67,-652.44 352.67,-652.38"/>
</g>
</g>
</svg>
