<?xml version="1.0" encoding="UTF-8" standalone="no"?>
<!DOCTYPE svg PUBLIC "-//W3C//DTD SVG 1.1//EN"
 "http://www.w3.org/Graphics/SVG/1.1/DTD/svg11.dtd">
<!-- Generated by graphviz version 2.40.1 (20161225.0304)
 -->
<!-- Title: tracktion_engine::LevelMeasuringAudioNode Pages: 1 -->
<svg width="170pt" height="162pt"
 viewBox="0.00 0.00 170.00 162.00" xmlns="http://www.w3.org/2000/svg" xmlns:xlink="http://www.w3.org/1999/xlink">
<g id="graph0" class="graph" transform="scale(1 1) rotate(0) translate(4 158)">
<title>tracktion_engine::LevelMeasuringAudioNode</title>
<!-- Node0 -->
<g id="node1" class="node">
<title>Node0</title>
<polygon fill="#bfbfbf" stroke="#000000" points="0,-.5 0,-30.5 162,-30.5 162,-.5 0,-.5"/>
<text text-anchor="start" x="8" y="-18.5" font-family="Helvetica,sans-Serif" font-size="10.00" fill="#000000">tracktion_engine::LevelMeasuring</text>
<text text-anchor="middle" x="81" y="-7.5" font-family="Helvetica,sans-Serif" font-size="10.00" fill="#000000">AudioNode</text>
</g>
<!-- Node1 -->
<g id="node2" class="node">
<title>Node1</title>
<g id="a_node2"><a xlink:href="classtracktion__engine_1_1SingleInputAudioNode.html" target="_top" xlink:title="tracktion_engine::Single\lInputAudioNode">
<polygon fill="none" stroke="#000000" points="20.5,-67.5 20.5,-97.5 141.5,-97.5 141.5,-67.5 20.5,-67.5"/>
<text text-anchor="start" x="28.5" y="-85.5" font-family="Helvetica,sans-Serif" font-size="10.00" fill="#000000">tracktion_engine::Single</text>
<text text-anchor="middle" x="81" y="-74.5" font-family="Helvetica,sans-Serif" font-size="10.00" fill="#000000">InputAudioNode</text>
</a>
</g>
</g>
<!-- Node1&#45;&gt;Node0 -->
<g id="edge1" class="edge">
<title>Node1&#45;&gt;Node0</title>
<path fill="none" stroke="#191970" d="M81,-57.0249C81,-48.128 81,-38.4287 81,-30.6432"/>
<polygon fill="#191970" stroke="#191970" points="77.5001,-57.2966 81,-67.2967 84.5001,-57.2967 77.5001,-57.2966"/>
</g>
<!-- Node2 -->
<g id="node3" class="node">
<title>Node2</title>
<g id="a_node3"><a xlink:href="classtracktion__engine_1_1AudioNode.html" target="_top" xlink:title="Base class for nodes in an audio playback graph. ">
<polygon fill="none" stroke="#000000" points="10,-134.5 10,-153.5 152,-153.5 152,-134.5 10,-134.5"/>
<text text-anchor="middle" x="81" y="-141.5" font-family="Helvetica,sans-Serif" font-size="10.00" fill="#000000">tracktion_engine::AudioNode</text>
</a>
</g>
</g>
<!-- Node2&#45;&gt;Node1 -->
<g id="edge2" class="edge">
<title>Node2&#45;&gt;Node1</title>
<path fill="none" stroke="#191970" d="M81,-124.3693C81,-115.681 81,-105.6241 81,-97.5446"/>
<polygon fill="#191970" stroke="#191970" points="77.5001,-124.3906 81,-134.3906 84.5001,-124.3907 77.5001,-124.3906"/>
</g>
</g>
</svg>
