<?xml version="1.0" encoding="UTF-8" standalone="no"?>
<!DOCTYPE svg PUBLIC "-//W3C//DTD SVG 1.1//EN"
 "http://www.w3.org/Graphics/SVG/1.1/DTD/svg11.dtd">
<!-- Generated by graphviz version 2.43.0 (0)
 -->
<!-- Title: tracktion::engine::AutomatableEditItem Pages: 1 -->
<svg width="612pt" height="1574pt"
 viewBox="0.00 0.00 612.00 1574.00" xmlns="http://www.w3.org/2000/svg" xmlns:xlink="http://www.w3.org/1999/xlink">
<g id="graph0" class="graph" transform="scale(1 1) rotate(0) translate(4 1570)">
<title>tracktion::engine::AutomatableEditItem</title>
<!-- Node1 -->
<g id="Node000001" class="node">
<title>Node1</title>
<g id="a_Node000001"><a xlink:title="Base class for elements that have some kind of automatable parameters.">
<polygon fill="#999999" stroke="#666666" points="262,-1422 141,-1422 141,-1392 262,-1392 262,-1422"/>
<text text-anchor="start" x="149" y="-1410" font-family="Helvetica,sans-Serif" font-size="10.00">tracktion::engine::</text>
<text text-anchor="middle" x="201.5" y="-1399" font-family="Helvetica,sans-Serif" font-size="10.00">AutomatableEditItem</text>
</a>
</g>
</g>
<!-- Node3 -->
<g id="Node000003" class="node">
<title>Node3</title>
<g id="a_Node000003"><a xlink:href="classtracktion_1_1engine_1_1MacroParameterList.html" target="_top" xlink:title=" ">
<polygon fill="white" stroke="#666666" points="412,-1470 298,-1470 298,-1440 412,-1440 412,-1470"/>
<text text-anchor="start" x="306" y="-1458" font-family="Helvetica,sans-Serif" font-size="10.00">tracktion::engine::</text>
<text text-anchor="middle" x="355" y="-1447" font-family="Helvetica,sans-Serif" font-size="10.00">MacroParameterList</text>
</a>
</g>
</g>
<!-- Node1&#45;&gt;Node3 -->
<g id="edge2_Node000001_Node000003" class="edge">
<title>Node1&#45;&gt;Node3</title>
<g id="a_edge2_Node000001_Node000003"><a xlink:title=" ">
<path fill="none" stroke="#63b8ff" d="M259.96,-1425.21C275.37,-1430.09 291.86,-1435.31 306.65,-1440"/>
<polygon fill="#63b8ff" stroke="#63b8ff" points="260.61,-1421.74 250.02,-1422.06 258.5,-1428.41 260.61,-1421.74"/>
</a>
</g>
</g>
<!-- Node4 -->
<g id="Node000004" class="node">
<title>Node4</title>
<g id="a_Node000004"><a xlink:href="structtracktion_1_1engine_1_1Modifier.html" target="_top" xlink:title="Bass class for parameter Modifiers.">
<polygon fill="white" stroke="#666666" points="407.5,-1422 302.5,-1422 302.5,-1392 407.5,-1392 407.5,-1422"/>
<text text-anchor="start" x="310.5" y="-1410" font-family="Helvetica,sans-Serif" font-size="10.00">tracktion::engine::</text>
<text text-anchor="middle" x="355" y="-1399" font-family="Helvetica,sans-Serif" font-size="10.00">Modifier</text>
</a>
</g>
</g>
<!-- Node1&#45;&gt;Node4 -->
<g id="edge3_Node000001_Node000004" class="edge">
<title>Node1&#45;&gt;Node4</title>
<g id="a_edge3_Node000001_Node000004"><a xlink:title=" ">
<path fill="none" stroke="#63b8ff" d="M272.4,-1407C282.5,-1407 292.74,-1407 302.39,-1407"/>
<polygon fill="#63b8ff" stroke="#63b8ff" points="272.38,-1403.5 262.38,-1407 272.38,-1410.5 272.38,-1403.5"/>
</a>
</g>
</g>
<!-- Node11 -->
<g id="Node000011" class="node">
<title>Node11</title>
<g id="a_Node000011"><a xlink:href="classtracktion_1_1engine_1_1Plugin.html" target="_top" xlink:title=" ">
<polygon fill="white" stroke="#666666" points="407.5,-678 302.5,-678 302.5,-648 407.5,-648 407.5,-678"/>
<text text-anchor="start" x="310.5" y="-666" font-family="Helvetica,sans-Serif" font-size="10.00">tracktion::engine::</text>
<text text-anchor="middle" x="355" y="-655" font-family="Helvetica,sans-Serif" font-size="10.00">Plugin</text>
</a>
</g>
</g>
<!-- Node1&#45;&gt;Node11 -->
<g id="edge10_Node000001_Node000011" class="edge">
<title>Node1&#45;&gt;Node11</title>
<g id="a_edge10_Node000001_Node000011"><a xlink:title=" ">
<path fill="none" stroke="#63b8ff" d="M207.6,-1381.93C231.5,-1264.58 331.96,-771.23 350.91,-678.17"/>
<polygon fill="#63b8ff" stroke="#63b8ff" points="204.16,-1381.3 205.59,-1391.8 211.02,-1382.7 204.16,-1381.3"/>
</a>
</g>
</g>
<!-- Node2 -->
<g id="Node000002" class="node">
<title>Node2</title>
<g id="a_Node000002"><a xlink:href="classtracktion_1_1engine_1_1EditItem.html" target="_top" xlink:title="Base class for objects that live inside an edit &#45; e.g.">
<polygon fill="white" stroke="#666666" points="105,-1422 0,-1422 0,-1392 105,-1392 105,-1422"/>
<text text-anchor="start" x="8" y="-1410" font-family="Helvetica,sans-Serif" font-size="10.00">tracktion::engine::</text>
<text text-anchor="middle" x="52.5" y="-1399" font-family="Helvetica,sans-Serif" font-size="10.00">EditItem</text>
</a>
</g>
</g>
<!-- Node2&#45;&gt;Node1 -->
<g id="edge1_Node000001_Node000002" class="edge">
<title>Node2&#45;&gt;Node1</title>
<g id="a_edge1_Node000001_Node000002"><a xlink:title=" ">
<path fill="none" stroke="#63b8ff" d="M115.45,-1407C123.87,-1407 132.49,-1407 140.86,-1407"/>
<polygon fill="#63b8ff" stroke="#63b8ff" points="115.33,-1403.5 105.33,-1407 115.33,-1410.5 115.33,-1403.5"/>
</a>
</g>
</g>
<!-- Node5 -->
<g id="Node000005" class="node">
<title>Node5</title>
<g id="a_Node000005"><a xlink:href="classtracktion_1_1engine_1_1BreakpointOscillatorModifier.html" target="_top" xlink:title=" ">
<polygon fill="white" stroke="#666666" points="604,-1566 448,-1566 448,-1536 604,-1536 604,-1566"/>
<text text-anchor="start" x="456" y="-1554" font-family="Helvetica,sans-Serif" font-size="10.00">tracktion::engine::</text>
<text text-anchor="middle" x="526" y="-1543" font-family="Helvetica,sans-Serif" font-size="10.00">BreakpointOscillatorModifier</text>
</a>
</g>
</g>
<!-- Node4&#45;&gt;Node5 -->
<g id="edge4_Node000004_Node000005" class="edge">
<title>Node4&#45;&gt;Node5</title>
<g id="a_edge4_Node000004_Node000005"><a xlink:title=" ">
<path fill="none" stroke="#63b8ff" d="M409.1,-1428.21C410.11,-1429.1 411.08,-1430.03 412,-1431 443.47,-1463.96 414.88,-1495.7 448,-1527 451.66,-1530.46 455.82,-1533.43 460.26,-1535.96"/>
<polygon fill="#63b8ff" stroke="#63b8ff" points="410.84,-1425.14 400.72,-1422.02 406.68,-1430.78 410.84,-1425.14"/>
</a>
</g>
</g>
<!-- Node6 -->
<g id="Node000006" class="node">
<title>Node6</title>
<g id="a_Node000006"><a xlink:href="classtracktion_1_1engine_1_1EnvelopeFollowerModifier.html" target="_top" xlink:title=" ">
<polygon fill="white" stroke="#666666" points="597.5,-1518 454.5,-1518 454.5,-1488 597.5,-1488 597.5,-1518"/>
<text text-anchor="start" x="462.5" y="-1506" font-family="Helvetica,sans-Serif" font-size="10.00">tracktion::engine::</text>
<text text-anchor="middle" x="526" y="-1495" font-family="Helvetica,sans-Serif" font-size="10.00">EnvelopeFollowerModifier</text>
</a>
</g>
</g>
<!-- Node4&#45;&gt;Node6 -->
<g id="edge5_Node000004_Node000006" class="edge">
<title>Node4&#45;&gt;Node6</title>
<g id="a_edge5_Node000004_Node000006"><a xlink:title=" ">
<path fill="none" stroke="#63b8ff" d="M407.02,-1427.41C408.74,-1428.55 410.41,-1429.75 412,-1431 432.97,-1447.48 426.22,-1463.62 448,-1479 452.8,-1482.39 458.1,-1485.32 463.61,-1487.84"/>
<polygon fill="#63b8ff" stroke="#63b8ff" points="408.45,-1424.18 398.06,-1422.11 404.89,-1430.21 408.45,-1424.18"/>
</a>
</g>
</g>
<!-- Node7 -->
<g id="Node000007" class="node">
<title>Node7</title>
<g id="a_Node000007"><a xlink:href="classtracktion_1_1engine_1_1LFOModifier.html" target="_top" xlink:title=" ">
<polygon fill="white" stroke="#666666" points="578.5,-1470 473.5,-1470 473.5,-1440 578.5,-1440 578.5,-1470"/>
<text text-anchor="start" x="481.5" y="-1458" font-family="Helvetica,sans-Serif" font-size="10.00">tracktion::engine::</text>
<text text-anchor="middle" x="526" y="-1447" font-family="Helvetica,sans-Serif" font-size="10.00">LFOModifier</text>
</a>
</g>
</g>
<!-- Node4&#45;&gt;Node7 -->
<g id="edge6_Node000004_Node000007" class="edge">
<title>Node4&#45;&gt;Node7</title>
<g id="a_edge6_Node000004_Node000007"><a xlink:title=" ">
<path fill="none" stroke="#63b8ff" d="M417.36,-1424.43C435.74,-1429.65 455.71,-1435.32 473.4,-1440.34"/>
<polygon fill="#63b8ff" stroke="#63b8ff" points="418.2,-1421.03 407.62,-1421.66 416.29,-1427.76 418.2,-1421.03"/>
</a>
</g>
</g>
<!-- Node8 -->
<g id="Node000008" class="node">
<title>Node8</title>
<g id="a_Node000008"><a xlink:href="classtracktion_1_1engine_1_1MIDITrackerModifier.html" target="_top" xlink:title=" ">
<polygon fill="white" stroke="#666666" points="582.5,-1422 469.5,-1422 469.5,-1392 582.5,-1392 582.5,-1422"/>
<text text-anchor="start" x="477.5" y="-1410" font-family="Helvetica,sans-Serif" font-size="10.00">tracktion::engine::</text>
<text text-anchor="middle" x="526" y="-1399" font-family="Helvetica,sans-Serif" font-size="10.00">MIDITrackerModifier</text>
</a>
</g>
</g>
<!-- Node4&#45;&gt;Node8 -->
<g id="edge7_Node000004_Node000008" class="edge">
<title>Node4&#45;&gt;Node8</title>
<g id="a_edge7_Node000004_Node000008"><a xlink:title=" ">
<path fill="none" stroke="#63b8ff" d="M417.9,-1407C434.72,-1407 452.83,-1407 469.29,-1407"/>
<polygon fill="#63b8ff" stroke="#63b8ff" points="417.62,-1403.5 407.62,-1407 417.62,-1410.5 417.62,-1403.5"/>
</a>
</g>
</g>
<!-- Node9 -->
<g id="Node000009" class="node">
<title>Node9</title>
<g id="a_Node000009"><a xlink:href="classtracktion_1_1engine_1_1RandomModifier.html" target="_top" xlink:title=" ">
<polygon fill="white" stroke="#666666" points="578.5,-1374 473.5,-1374 473.5,-1344 578.5,-1344 578.5,-1374"/>
<text text-anchor="start" x="481.5" y="-1362" font-family="Helvetica,sans-Serif" font-size="10.00">tracktion::engine::</text>
<text text-anchor="middle" x="526" y="-1351" font-family="Helvetica,sans-Serif" font-size="10.00">RandomModifier</text>
</a>
</g>
</g>
<!-- Node4&#45;&gt;Node9 -->
<g id="edge8_Node000004_Node000009" class="edge">
<title>Node4&#45;&gt;Node9</title>
<g id="a_edge8_Node000004_Node000009"><a xlink:title=" ">
<path fill="none" stroke="#63b8ff" d="M417.36,-1389.57C435.74,-1384.35 455.71,-1378.68 473.4,-1373.66"/>
<polygon fill="#63b8ff" stroke="#63b8ff" points="416.29,-1386.24 407.62,-1392.34 418.2,-1392.97 416.29,-1386.24"/>
</a>
</g>
</g>
<!-- Node10 -->
<g id="Node000010" class="node">
<title>Node10</title>
<g id="a_Node000010"><a xlink:href="classtracktion_1_1engine_1_1StepModifier.html" target="_top" xlink:title=" ">
<polygon fill="white" stroke="#666666" points="578.5,-1326 473.5,-1326 473.5,-1296 578.5,-1296 578.5,-1326"/>
<text text-anchor="start" x="481.5" y="-1314" font-family="Helvetica,sans-Serif" font-size="10.00">tracktion::engine::</text>
<text text-anchor="middle" x="526" y="-1303" font-family="Helvetica,sans-Serif" font-size="10.00">StepModifier</text>
</a>
</g>
</g>
<!-- Node4&#45;&gt;Node10 -->
<g id="edge9_Node000004_Node000010" class="edge">
<title>Node4&#45;&gt;Node10</title>
<g id="a_edge9_Node000004_Node000010"><a xlink:title=" ">
<path fill="none" stroke="#63b8ff" d="M379.23,-1384.91C396.9,-1369.13 422.46,-1348.4 448,-1335 455.94,-1330.84 464.72,-1327.26 473.42,-1324.23"/>
<polygon fill="#63b8ff" stroke="#63b8ff" points="376.73,-1382.45 371.69,-1391.77 381.44,-1387.63 376.73,-1382.45"/>
</a>
</g>
</g>
<!-- Node12 -->
<g id="Node000012" class="node">
<title>Node12</title>
<g id="a_Node000012"><a xlink:href="classtracktion_1_1engine_1_1AirWindowsPlugin.html" target="_top" xlink:title=" ">
<polygon fill="white" stroke="#666666" points="578.5,-1278 473.5,-1278 473.5,-1248 578.5,-1248 578.5,-1278"/>
<text text-anchor="start" x="481.5" y="-1266" font-family="Helvetica,sans-Serif" font-size="10.00">tracktion::engine::</text>
<text text-anchor="middle" x="526" y="-1255" font-family="Helvetica,sans-Serif" font-size="10.00">AirWindowsPlugin</text>
</a>
</g>
</g>
<!-- Node11&#45;&gt;Node12 -->
<g id="edge11_Node000011_Node000012" class="edge">
<title>Node11&#45;&gt;Node12</title>
<g id="a_edge11_Node000011_Node000012"><a xlink:title=" ">
<path fill="none" stroke="#63b8ff" d="M356.6,-688.31C359.48,-788.31 374.93,-1154.59 448,-1239 454.69,-1246.73 463.83,-1252 473.47,-1255.59"/>
<polygon fill="#63b8ff" stroke="#63b8ff" points="360.1,-688.11 356.33,-678.21 353.1,-688.3 360.1,-688.11"/>
</a>
</g>
</g>
<!-- Node13 -->
<g id="Node000013" class="node">
<title>Node13</title>
<g id="a_Node000013"><a xlink:href="classtracktion_1_1engine_1_1AuxReturnPlugin.html" target="_top" xlink:title=" ">
<polygon fill="white" stroke="#666666" points="578.5,-1230 473.5,-1230 473.5,-1200 578.5,-1200 578.5,-1230"/>
<text text-anchor="start" x="481.5" y="-1218" font-family="Helvetica,sans-Serif" font-size="10.00">tracktion::engine::</text>
<text text-anchor="middle" x="526" y="-1207" font-family="Helvetica,sans-Serif" font-size="10.00">AuxReturnPlugin</text>
</a>
</g>
</g>
<!-- Node11&#45;&gt;Node13 -->
<g id="edge12_Node000011_Node000013" class="edge">
<title>Node11&#45;&gt;Node13</title>
<g id="a_edge12_Node000011_Node000013"><a xlink:title=" ">
<path fill="none" stroke="#63b8ff" d="M357.01,-688.32C361.27,-782.96 380.82,-1114.5 448,-1191 454.65,-1198.58 463.65,-1203.79 473.16,-1207.37"/>
<polygon fill="#63b8ff" stroke="#63b8ff" points="360.5,-688.06 356.57,-678.22 353.51,-688.36 360.5,-688.06"/>
</a>
</g>
</g>
<!-- Node14 -->
<g id="Node000014" class="node">
<title>Node14</title>
<g id="a_Node000014"><a xlink:href="classtracktion_1_1engine_1_1AuxSendPlugin.html" target="_top" xlink:title=" ">
<polygon fill="white" stroke="#666666" points="578.5,-1182 473.5,-1182 473.5,-1152 578.5,-1152 578.5,-1182"/>
<text text-anchor="start" x="481.5" y="-1170" font-family="Helvetica,sans-Serif" font-size="10.00">tracktion::engine::</text>
<text text-anchor="middle" x="526" y="-1159" font-family="Helvetica,sans-Serif" font-size="10.00">AuxSendPlugin</text>
</a>
</g>
</g>
<!-- Node11&#45;&gt;Node14 -->
<g id="edge13_Node000011_Node000014" class="edge">
<title>Node11&#45;&gt;Node14</title>
<g id="a_edge13_Node000011_Node000014"><a xlink:title=" ">
<path fill="none" stroke="#63b8ff" d="M357.49,-688.31C363.22,-777.32 386.69,-1074.35 448,-1143 454.72,-1150.52 463.74,-1155.71 473.25,-1159.28"/>
<polygon fill="#63b8ff" stroke="#63b8ff" points="360.98,-688.05 356.86,-678.28 353.99,-688.48 360.98,-688.05"/>
</a>
</g>
</g>
<!-- Node15 -->
<g id="Node000015" class="node">
<title>Node15</title>
<g id="a_Node000015"><a xlink:href="classtracktion_1_1engine_1_1ChorusPlugin.html" target="_top" xlink:title=" ">
<polygon fill="white" stroke="#666666" points="578.5,-1134 473.5,-1134 473.5,-1104 578.5,-1104 578.5,-1134"/>
<text text-anchor="start" x="481.5" y="-1122" font-family="Helvetica,sans-Serif" font-size="10.00">tracktion::engine::</text>
<text text-anchor="middle" x="526" y="-1111" font-family="Helvetica,sans-Serif" font-size="10.00">ChorusPlugin</text>
</a>
</g>
</g>
<!-- Node11&#45;&gt;Node15 -->
<g id="edge14_Node000011_Node000015" class="edge">
<title>Node11&#45;&gt;Node15</title>
<g id="a_edge14_Node000011_Node000015"><a xlink:title=" ">
<path fill="none" stroke="#63b8ff" d="M358.06,-688.18C365.36,-771.14 392.5,-1034.13 448,-1095 454.79,-1102.45 463.85,-1107.61 473.37,-1111.17"/>
<polygon fill="#63b8ff" stroke="#63b8ff" points="361.54,-687.79 357.2,-678.12 354.57,-688.39 361.54,-687.79"/>
</a>
</g>
</g>
<!-- Node16 -->
<g id="Node000016" class="node">
<title>Node16</title>
<g id="a_Node000016"><a xlink:href="classtracktion_1_1engine_1_1CompressorPlugin.html" target="_top" xlink:title=" ">
<polygon fill="white" stroke="#666666" points="578.5,-1086 473.5,-1086 473.5,-1056 578.5,-1056 578.5,-1086"/>
<text text-anchor="start" x="481.5" y="-1074" font-family="Helvetica,sans-Serif" font-size="10.00">tracktion::engine::</text>
<text text-anchor="middle" x="526" y="-1063" font-family="Helvetica,sans-Serif" font-size="10.00">CompressorPlugin</text>
</a>
</g>
</g>
<!-- Node11&#45;&gt;Node16 -->
<g id="edge15_Node000011_Node000016" class="edge">
<title>Node11&#45;&gt;Node16</title>
<g id="a_edge15_Node000011_Node000016"><a xlink:title=" ">
<path fill="none" stroke="#63b8ff" d="M358.81,-688.35C367.83,-765.26 398.35,-993.91 448,-1047 454.79,-1054.26 463.74,-1059.34 473.12,-1062.89"/>
<polygon fill="#63b8ff" stroke="#63b8ff" points="362.26,-687.68 357.64,-678.14 355.3,-688.48 362.26,-687.68"/>
</a>
</g>
</g>
<!-- Node17 -->
<g id="Node000017" class="node">
<title>Node17</title>
<g id="a_Node000017"><a xlink:href="classtracktion_1_1engine_1_1DelayPlugin.html" target="_top" xlink:title=" ">
<polygon fill="white" stroke="#666666" points="578.5,-1038 473.5,-1038 473.5,-1008 578.5,-1008 578.5,-1038"/>
<text text-anchor="start" x="481.5" y="-1026" font-family="Helvetica,sans-Serif" font-size="10.00">tracktion::engine::</text>
<text text-anchor="middle" x="526" y="-1015" font-family="Helvetica,sans-Serif" font-size="10.00">DelayPlugin</text>
</a>
</g>
</g>
<!-- Node11&#45;&gt;Node17 -->
<g id="edge16_Node000011_Node000017" class="edge">
<title>Node11&#45;&gt;Node17</title>
<g id="a_edge16_Node000011_Node000017"><a xlink:title=" ">
<path fill="none" stroke="#63b8ff" d="M355.24,-688.19C354.78,-749.95 362.39,-910.35 448,-999 454.91,-1006.15 463.9,-1011.18 473.3,-1014.72"/>
<polygon fill="#63b8ff" stroke="#63b8ff" points="358.73,-688.22 355.39,-678.16 351.74,-688.11 358.73,-688.22"/>
</a>
</g>
</g>
<!-- Node18 -->
<g id="Node000018" class="node">
<title>Node18</title>
<g id="a_Node000018"><a xlink:href="classtracktion_1_1engine_1_1EqualiserPlugin.html" target="_top" xlink:title=" ">
<polygon fill="white" stroke="#666666" points="578.5,-990 473.5,-990 473.5,-960 578.5,-960 578.5,-990"/>
<text text-anchor="start" x="481.5" y="-978" font-family="Helvetica,sans-Serif" font-size="10.00">tracktion::engine::</text>
<text text-anchor="middle" x="526" y="-967" font-family="Helvetica,sans-Serif" font-size="10.00">EqualiserPlugin</text>
</a>
</g>
</g>
<!-- Node11&#45;&gt;Node18 -->
<g id="edge17_Node000011_Node000018" class="edge">
<title>Node11&#45;&gt;Node18</title>
<g id="a_edge17_Node000011_Node000018"><a xlink:title=" ">
<path fill="none" stroke="#63b8ff" d="M356.62,-688.35C359.37,-743.9 373.8,-877.32 448,-951 454.96,-957.91 463.86,-962.83 473.14,-966.34"/>
<polygon fill="#63b8ff" stroke="#63b8ff" points="360.11,-688.16 356.21,-678.31 353.12,-688.45 360.11,-688.16"/>
</a>
</g>
</g>
<!-- Node19 -->
<g id="Node000019" class="node">
<title>Node19</title>
<g id="a_Node000019"><a xlink:href="classtracktion_1_1engine_1_1ExternalPlugin.html" target="_top" xlink:title=" ">
<polygon fill="white" stroke="#666666" points="578.5,-942 473.5,-942 473.5,-912 578.5,-912 578.5,-942"/>
<text text-anchor="start" x="481.5" y="-930" font-family="Helvetica,sans-Serif" font-size="10.00">tracktion::engine::</text>
<text text-anchor="middle" x="526" y="-919" font-family="Helvetica,sans-Serif" font-size="10.00">ExternalPlugin</text>
</a>
</g>
</g>
<!-- Node11&#45;&gt;Node19 -->
<g id="edge18_Node000011_Node000019" class="edge">
<title>Node11&#45;&gt;Node19</title>
<g id="a_edge18_Node000011_Node000019"><a xlink:title=" ">
<path fill="none" stroke="#63b8ff" d="M358.48,-688.11C364.62,-736.66 384.91,-843.82 448,-903 455.15,-909.71 464.15,-914.54 473.44,-918.02"/>
<polygon fill="#63b8ff" stroke="#63b8ff" points="361.95,-687.67 357.32,-678.15 355,-688.49 361.95,-687.67"/>
</a>
</g>
</g>
<!-- Node20 -->
<g id="Node000020" class="node">
<title>Node20</title>
<g id="a_Node000020"><a xlink:href="classtracktion_1_1engine_1_1FourOscPlugin.html" target="_top" xlink:title=" ">
<polygon fill="white" stroke="#666666" points="578.5,-894 473.5,-894 473.5,-864 578.5,-864 578.5,-894"/>
<text text-anchor="start" x="481.5" y="-882" font-family="Helvetica,sans-Serif" font-size="10.00">tracktion::engine::</text>
<text text-anchor="middle" x="526" y="-871" font-family="Helvetica,sans-Serif" font-size="10.00">FourOscPlugin</text>
</a>
</g>
</g>
<!-- Node11&#45;&gt;Node20 -->
<g id="edge19_Node000011_Node000020" class="edge">
<title>Node11&#45;&gt;Node20</title>
<g id="a_edge19_Node000011_Node000020"><a xlink:title=" ">
<path fill="none" stroke="#63b8ff" d="M361.23,-688.2C371.03,-729.15 396.03,-810.05 448,-855 455.31,-861.32 464.27,-865.98 473.46,-869.41"/>
<polygon fill="#63b8ff" stroke="#63b8ff" points="364.59,-687.21 358.96,-678.24 357.77,-688.76 364.59,-687.21"/>
</a>
</g>
</g>
<!-- Node21 -->
<g id="Node000021" class="node">
<title>Node21</title>
<g id="a_Node000021"><a xlink:href="classtracktion_1_1engine_1_1FreezePointPlugin.html" target="_top" xlink:title=" ">
<polygon fill="white" stroke="#666666" points="578.5,-846 473.5,-846 473.5,-816 578.5,-816 578.5,-846"/>
<text text-anchor="start" x="481.5" y="-834" font-family="Helvetica,sans-Serif" font-size="10.00">tracktion::engine::</text>
<text text-anchor="middle" x="526" y="-823" font-family="Helvetica,sans-Serif" font-size="10.00">FreezePointPlugin</text>
</a>
</g>
</g>
<!-- Node11&#45;&gt;Node21 -->
<g id="edge20_Node000011_Node000021" class="edge">
<title>Node11&#45;&gt;Node21</title>
<g id="a_edge20_Node000011_Node000021"><a xlink:title=" ">
<path fill="none" stroke="#63b8ff" d="M365.4,-687.63C378.88,-719.73 406.73,-775.48 448,-807 455.46,-812.69 464.28,-817.05 473.25,-820.38"/>
<polygon fill="#63b8ff" stroke="#63b8ff" points="368.53,-686.05 361.53,-678.1 362.05,-688.68 368.53,-686.05"/>
</a>
</g>
</g>
<!-- Node22 -->
<g id="Node000022" class="node">
<title>Node22</title>
<g id="a_Node000022"><a xlink:href="classtracktion_1_1engine_1_1ImpulseResponsePlugin.html" target="_top" xlink:title="ImpulseResponsePlugin that loads an impulse response and applies it the audio stream.">
<polygon fill="white" stroke="#666666" points="592.5,-798 459.5,-798 459.5,-768 592.5,-768 592.5,-798"/>
<text text-anchor="start" x="467.5" y="-786" font-family="Helvetica,sans-Serif" font-size="10.00">tracktion::engine::</text>
<text text-anchor="middle" x="526" y="-775" font-family="Helvetica,sans-Serif" font-size="10.00">ImpulseResponsePlugin</text>
</a>
</g>
</g>
<!-- Node11&#45;&gt;Node22 -->
<g id="edge21_Node000011_Node000022" class="edge">
<title>Node11&#45;&gt;Node22</title>
<g id="a_edge21_Node000011_Node000022"><a xlink:title=" ">
<path fill="none" stroke="#63b8ff" d="M372.76,-686.35C389.52,-708.08 417.16,-739.9 448,-759 453.48,-762.39 459.47,-765.34 465.62,-767.89"/>
<polygon fill="#63b8ff" stroke="#63b8ff" points="375.5,-684.16 366.69,-678.28 369.91,-688.37 375.5,-684.16"/>
</a>
</g>
</g>
<!-- Node23 -->
<g id="Node000023" class="node">
<title>Node23</title>
<g id="a_Node000023"><a xlink:href="classtracktion_1_1engine_1_1InsertPlugin.html" target="_top" xlink:title=" ">
<polygon fill="white" stroke="#666666" points="578.5,-750 473.5,-750 473.5,-720 578.5,-720 578.5,-750"/>
<text text-anchor="start" x="481.5" y="-738" font-family="Helvetica,sans-Serif" font-size="10.00">tracktion::engine::</text>
<text text-anchor="middle" x="526" y="-727" font-family="Helvetica,sans-Serif" font-size="10.00">InsertPlugin</text>
</a>
</g>
</g>
<!-- Node11&#45;&gt;Node23 -->
<g id="edge22_Node000011_Node000023" class="edge">
<title>Node11&#45;&gt;Node23</title>
<g id="a_edge22_Node000011_Node000023"><a xlink:title=" ">
<path fill="none" stroke="#63b8ff" d="M390.93,-683.11C407.83,-692.34 428.61,-703 448,-711 456.02,-714.31 464.68,-717.43 473.19,-720.25"/>
<polygon fill="#63b8ff" stroke="#63b8ff" points="392.42,-679.93 381.97,-678.15 389.03,-686.05 392.42,-679.93"/>
</a>
</g>
</g>
<!-- Node24 -->
<g id="Node000024" class="node">
<title>Node24</title>
<g id="a_Node000024"><a xlink:href="classtracktion_1_1engine_1_1LatencyPlugin.html" target="_top" xlink:title="A test plugin that introduces latency to the incoming signal.">
<polygon fill="white" stroke="#666666" points="578.5,-702 473.5,-702 473.5,-672 578.5,-672 578.5,-702"/>
<text text-anchor="start" x="481.5" y="-690" font-family="Helvetica,sans-Serif" font-size="10.00">tracktion::engine::</text>
<text text-anchor="middle" x="526" y="-679" font-family="Helvetica,sans-Serif" font-size="10.00">LatencyPlugin</text>
</a>
</g>
</g>
<!-- Node11&#45;&gt;Node24 -->
<g id="edge23_Node000011_Node000024" class="edge">
<title>Node11&#45;&gt;Node24</title>
<g id="a_edge23_Node000011_Node000024"><a xlink:title=" ">
<path fill="none" stroke="#63b8ff" d="M417.61,-671.75C435.93,-674.35 455.79,-677.17 473.4,-679.67"/>
<polygon fill="#63b8ff" stroke="#63b8ff" points="418.02,-668.27 407.62,-670.33 417.03,-675.2 418.02,-668.27"/>
</a>
</g>
</g>
<!-- Node25 -->
<g id="Node000025" class="node">
<title>Node25</title>
<g id="a_Node000025"><a xlink:href="classtracktion_1_1engine_1_1LevelMeterPlugin.html" target="_top" xlink:title=" ">
<polygon fill="white" stroke="#666666" points="578.5,-654 473.5,-654 473.5,-624 578.5,-624 578.5,-654"/>
<text text-anchor="start" x="481.5" y="-642" font-family="Helvetica,sans-Serif" font-size="10.00">tracktion::engine::</text>
<text text-anchor="middle" x="526" y="-631" font-family="Helvetica,sans-Serif" font-size="10.00">LevelMeterPlugin</text>
</a>
</g>
</g>
<!-- Node11&#45;&gt;Node25 -->
<g id="edge24_Node000011_Node000025" class="edge">
<title>Node11&#45;&gt;Node25</title>
<g id="a_edge24_Node000011_Node000025"><a xlink:title=" ">
<path fill="none" stroke="#63b8ff" d="M417.61,-654.25C435.93,-651.65 455.79,-648.83 473.4,-646.33"/>
<polygon fill="#63b8ff" stroke="#63b8ff" points="417.03,-650.8 407.62,-655.67 418.02,-657.73 417.03,-650.8"/>
</a>
</g>
</g>
<!-- Node26 -->
<g id="Node000026" class="node">
<title>Node26</title>
<g id="a_Node000026"><a xlink:href="classtracktion_1_1engine_1_1LowPassPlugin.html" target="_top" xlink:title=" ">
<polygon fill="white" stroke="#666666" points="578.5,-606 473.5,-606 473.5,-576 578.5,-576 578.5,-606"/>
<text text-anchor="start" x="481.5" y="-594" font-family="Helvetica,sans-Serif" font-size="10.00">tracktion::engine::</text>
<text text-anchor="middle" x="526" y="-583" font-family="Helvetica,sans-Serif" font-size="10.00">LowPassPlugin</text>
</a>
</g>
</g>
<!-- Node11&#45;&gt;Node26 -->
<g id="edge25_Node000011_Node000026" class="edge">
<title>Node11&#45;&gt;Node26</title>
<g id="a_edge25_Node000011_Node000026"><a xlink:title=" ">
<path fill="none" stroke="#63b8ff" d="M390.93,-642.89C407.83,-633.66 428.61,-623 448,-615 456.02,-611.69 464.68,-608.57 473.19,-605.75"/>
<polygon fill="#63b8ff" stroke="#63b8ff" points="389.03,-639.95 381.97,-647.85 392.42,-646.07 389.03,-639.95"/>
</a>
</g>
</g>
<!-- Node27 -->
<g id="Node000027" class="node">
<title>Node27</title>
<g id="a_Node000027"><a xlink:href="classtracktion_1_1engine_1_1MidiModifierPlugin.html" target="_top" xlink:title=" ">
<polygon fill="white" stroke="#666666" points="579.5,-558 472.5,-558 472.5,-528 579.5,-528 579.5,-558"/>
<text text-anchor="start" x="480.5" y="-546" font-family="Helvetica,sans-Serif" font-size="10.00">tracktion::engine::</text>
<text text-anchor="middle" x="526" y="-535" font-family="Helvetica,sans-Serif" font-size="10.00">MidiModifierPlugin</text>
</a>
</g>
</g>
<!-- Node11&#45;&gt;Node27 -->
<g id="edge26_Node000011_Node000027" class="edge">
<title>Node11&#45;&gt;Node27</title>
<g id="a_edge26_Node000011_Node000027"><a xlink:title=" ">
<path fill="none" stroke="#63b8ff" d="M372.76,-639.65C389.52,-617.92 417.16,-586.1 448,-567 455.5,-562.36 463.97,-558.54 472.48,-555.44"/>
<polygon fill="#63b8ff" stroke="#63b8ff" points="369.91,-637.63 366.69,-647.72 375.5,-641.84 369.91,-637.63"/>
</a>
</g>
</g>
<!-- Node28 -->
<g id="Node000028" class="node">
<title>Node28</title>
<g id="a_Node000028"><a xlink:href="classtracktion_1_1engine_1_1MidiPatchBayPlugin.html" target="_top" xlink:title=" ">
<polygon fill="white" stroke="#666666" points="582.5,-510 469.5,-510 469.5,-480 582.5,-480 582.5,-510"/>
<text text-anchor="start" x="477.5" y="-498" font-family="Helvetica,sans-Serif" font-size="10.00">tracktion::engine::</text>
<text text-anchor="middle" x="526" y="-487" font-family="Helvetica,sans-Serif" font-size="10.00">MidiPatchBayPlugin</text>
</a>
</g>
</g>
<!-- Node11&#45;&gt;Node28 -->
<g id="edge27_Node000011_Node000028" class="edge">
<title>Node11&#45;&gt;Node28</title>
<g id="a_edge27_Node000011_Node000028"><a xlink:title=" ">
<path fill="none" stroke="#63b8ff" d="M365.4,-638.37C378.88,-606.27 406.73,-550.52 448,-519 454.34,-514.16 461.68,-510.28 469.25,-507.18"/>
<polygon fill="#63b8ff" stroke="#63b8ff" points="362.05,-637.32 361.53,-647.9 368.53,-639.95 362.05,-637.32"/>
</a>
</g>
</g>
<!-- Node29 -->
<g id="Node000029" class="node">
<title>Node29</title>
<g id="a_Node000029"><a xlink:href="classtracktion_1_1engine_1_1PatchBayPlugin.html" target="_top" xlink:title=" ">
<polygon fill="white" stroke="#666666" points="578.5,-462 473.5,-462 473.5,-432 578.5,-432 578.5,-462"/>
<text text-anchor="start" x="481.5" y="-450" font-family="Helvetica,sans-Serif" font-size="10.00">tracktion::engine::</text>
<text text-anchor="middle" x="526" y="-439" font-family="Helvetica,sans-Serif" font-size="10.00">PatchBayPlugin</text>
</a>
</g>
</g>
<!-- Node11&#45;&gt;Node29 -->
<g id="edge28_Node000011_Node000029" class="edge">
<title>Node11&#45;&gt;Node29</title>
<g id="a_edge28_Node000011_Node000029"><a xlink:title=" ">
<path fill="none" stroke="#63b8ff" d="M361.23,-637.8C371.03,-596.85 396.03,-515.95 448,-471 455.31,-464.68 464.27,-460.02 473.46,-456.59"/>
<polygon fill="#63b8ff" stroke="#63b8ff" points="357.77,-637.24 358.96,-647.76 364.59,-638.79 357.77,-637.24"/>
</a>
</g>
</g>
<!-- Node30 -->
<g id="Node000030" class="node">
<title>Node30</title>
<g id="a_Node000030"><a xlink:href="classtracktion_1_1engine_1_1PhaserPlugin.html" target="_top" xlink:title=" ">
<polygon fill="white" stroke="#666666" points="578.5,-414 473.5,-414 473.5,-384 578.5,-384 578.5,-414"/>
<text text-anchor="start" x="481.5" y="-402" font-family="Helvetica,sans-Serif" font-size="10.00">tracktion::engine::</text>
<text text-anchor="middle" x="526" y="-391" font-family="Helvetica,sans-Serif" font-size="10.00">PhaserPlugin</text>
</a>
</g>
</g>
<!-- Node11&#45;&gt;Node30 -->
<g id="edge29_Node000011_Node000030" class="edge">
<title>Node11&#45;&gt;Node30</title>
<g id="a_edge29_Node000011_Node000030"><a xlink:title=" ">
<path fill="none" stroke="#63b8ff" d="M358.48,-637.89C364.62,-589.34 384.91,-482.18 448,-423 455.15,-416.29 464.15,-411.46 473.44,-407.98"/>
<polygon fill="#63b8ff" stroke="#63b8ff" points="355,-637.51 357.32,-647.85 361.95,-638.33 355,-637.51"/>
</a>
</g>
</g>
<!-- Node31 -->
<g id="Node000031" class="node">
<title>Node31</title>
<g id="a_Node000031"><a xlink:href="classtracktion_1_1engine_1_1PitchShiftPlugin.html" target="_top" xlink:title=" ">
<polygon fill="white" stroke="#666666" points="578.5,-366 473.5,-366 473.5,-336 578.5,-336 578.5,-366"/>
<text text-anchor="start" x="481.5" y="-354" font-family="Helvetica,sans-Serif" font-size="10.00">tracktion::engine::</text>
<text text-anchor="middle" x="526" y="-343" font-family="Helvetica,sans-Serif" font-size="10.00">PitchShiftPlugin</text>
</a>
</g>
</g>
<!-- Node11&#45;&gt;Node31 -->
<g id="edge30_Node000011_Node000031" class="edge">
<title>Node11&#45;&gt;Node31</title>
<g id="a_edge30_Node000011_Node000031"><a xlink:title=" ">
<path fill="none" stroke="#63b8ff" d="M356.62,-637.65C359.37,-582.1 373.8,-448.68 448,-375 454.96,-368.09 463.86,-363.17 473.14,-359.66"/>
<polygon fill="#63b8ff" stroke="#63b8ff" points="353.12,-637.55 356.21,-647.69 360.11,-637.84 353.12,-637.55"/>
</a>
</g>
</g>
<!-- Node32 -->
<g id="Node000032" class="node">
<title>Node32</title>
<g id="a_Node000032"><a xlink:href="classtracktion_1_1engine_1_1RackInstance.html" target="_top" xlink:title=" ">
<polygon fill="white" stroke="#666666" points="578.5,-318 473.5,-318 473.5,-288 578.5,-288 578.5,-318"/>
<text text-anchor="start" x="481.5" y="-306" font-family="Helvetica,sans-Serif" font-size="10.00">tracktion::engine::</text>
<text text-anchor="middle" x="526" y="-295" font-family="Helvetica,sans-Serif" font-size="10.00">RackInstance</text>
</a>
</g>
</g>
<!-- Node11&#45;&gt;Node32 -->
<g id="edge31_Node000011_Node000032" class="edge">
<title>Node11&#45;&gt;Node32</title>
<g id="a_edge31_Node000011_Node000032"><a xlink:title=" ">
<path fill="none" stroke="#63b8ff" d="M355.24,-637.81C354.78,-576.05 362.39,-415.65 448,-327 454.91,-319.85 463.9,-314.82 473.3,-311.28"/>
<polygon fill="#63b8ff" stroke="#63b8ff" points="351.74,-637.89 355.39,-647.84 358.73,-637.78 351.74,-637.89"/>
</a>
</g>
</g>
<!-- Node33 -->
<g id="Node000033" class="node">
<title>Node33</title>
<g id="a_Node000033"><a xlink:href="classtracktion_1_1engine_1_1ReverbPlugin.html" target="_top" xlink:title=" ">
<polygon fill="white" stroke="#666666" points="578.5,-270 473.5,-270 473.5,-240 578.5,-240 578.5,-270"/>
<text text-anchor="start" x="481.5" y="-258" font-family="Helvetica,sans-Serif" font-size="10.00">tracktion::engine::</text>
<text text-anchor="middle" x="526" y="-247" font-family="Helvetica,sans-Serif" font-size="10.00">ReverbPlugin</text>
</a>
</g>
</g>
<!-- Node11&#45;&gt;Node33 -->
<g id="edge32_Node000011_Node000033" class="edge">
<title>Node11&#45;&gt;Node33</title>
<g id="a_edge32_Node000011_Node000033"><a xlink:title=" ">
<path fill="none" stroke="#63b8ff" d="M358.81,-637.65C367.83,-560.74 398.35,-332.09 448,-279 454.79,-271.74 463.74,-266.66 473.12,-263.11"/>
<polygon fill="#63b8ff" stroke="#63b8ff" points="355.3,-637.52 357.64,-647.86 362.26,-638.32 355.3,-637.52"/>
</a>
</g>
</g>
<!-- Node34 -->
<g id="Node000034" class="node">
<title>Node34</title>
<g id="a_Node000034"><a xlink:href="classtracktion_1_1engine_1_1SamplerPlugin.html" target="_top" xlink:title=" ">
<polygon fill="white" stroke="#666666" points="578.5,-222 473.5,-222 473.5,-192 578.5,-192 578.5,-222"/>
<text text-anchor="start" x="481.5" y="-210" font-family="Helvetica,sans-Serif" font-size="10.00">tracktion::engine::</text>
<text text-anchor="middle" x="526" y="-199" font-family="Helvetica,sans-Serif" font-size="10.00">SamplerPlugin</text>
</a>
</g>
</g>
<!-- Node11&#45;&gt;Node34 -->
<g id="edge33_Node000011_Node000034" class="edge">
<title>Node11&#45;&gt;Node34</title>
<g id="a_edge33_Node000011_Node000034"><a xlink:title=" ">
<path fill="none" stroke="#63b8ff" d="M358.06,-637.82C365.36,-554.86 392.5,-291.87 448,-231 454.79,-223.55 463.85,-218.39 473.37,-214.83"/>
<polygon fill="#63b8ff" stroke="#63b8ff" points="354.57,-637.61 357.2,-647.88 361.54,-638.21 354.57,-637.61"/>
</a>
</g>
</g>
<!-- Node35 -->
<g id="Node000035" class="node">
<title>Node35</title>
<g id="a_Node000035"><a xlink:href="classtracktion_1_1engine_1_1TextPlugin.html" target="_top" xlink:title=" ">
<polygon fill="white" stroke="#666666" points="578.5,-174 473.5,-174 473.5,-144 578.5,-144 578.5,-174"/>
<text text-anchor="start" x="481.5" y="-162" font-family="Helvetica,sans-Serif" font-size="10.00">tracktion::engine::</text>
<text text-anchor="middle" x="526" y="-151" font-family="Helvetica,sans-Serif" font-size="10.00">TextPlugin</text>
</a>
</g>
</g>
<!-- Node11&#45;&gt;Node35 -->
<g id="edge34_Node000011_Node000035" class="edge">
<title>Node11&#45;&gt;Node35</title>
<g id="a_edge34_Node000011_Node000035"><a xlink:title=" ">
<path fill="none" stroke="#63b8ff" d="M357.49,-637.69C363.22,-548.68 386.69,-251.65 448,-183 454.72,-175.48 463.74,-170.29 473.25,-166.72"/>
<polygon fill="#63b8ff" stroke="#63b8ff" points="353.99,-637.52 356.86,-647.72 360.98,-637.95 353.99,-637.52"/>
</a>
</g>
</g>
<!-- Node36 -->
<g id="Node000036" class="node">
<title>Node36</title>
<g id="a_Node000036"><a xlink:href="classtracktion_1_1engine_1_1ToneGeneratorPlugin.html" target="_top" xlink:title=" ">
<polygon fill="white" stroke="#666666" points="585,-126 467,-126 467,-96 585,-96 585,-126"/>
<text text-anchor="start" x="475" y="-114" font-family="Helvetica,sans-Serif" font-size="10.00">tracktion::engine::</text>
<text text-anchor="middle" x="526" y="-103" font-family="Helvetica,sans-Serif" font-size="10.00">ToneGeneratorPlugin</text>
</a>
</g>
</g>
<!-- Node11&#45;&gt;Node36 -->
<g id="edge35_Node000011_Node000036" class="edge">
<title>Node11&#45;&gt;Node36</title>
<g id="a_edge35_Node000011_Node000036"><a xlink:title=" ">
<path fill="none" stroke="#63b8ff" d="M357.01,-637.68C361.27,-543.04 380.82,-211.5 448,-135 453.17,-129.11 459.77,-124.65 466.92,-121.27"/>
<polygon fill="#63b8ff" stroke="#63b8ff" points="353.51,-637.64 356.57,-647.78 360.5,-637.94 353.51,-637.64"/>
</a>
</g>
</g>
<!-- Node37 -->
<g id="Node000037" class="node">
<title>Node37</title>
<g id="a_Node000037"><a xlink:href="classtracktion_1_1engine_1_1VCAPlugin.html" target="_top" xlink:title="The VCA plugin sits on a folder track to control the overall level of all the volume/pan plugins in i...">
<polygon fill="white" stroke="#666666" points="578.5,-78 473.5,-78 473.5,-48 578.5,-48 578.5,-78"/>
<text text-anchor="start" x="481.5" y="-66" font-family="Helvetica,sans-Serif" font-size="10.00">tracktion::engine::</text>
<text text-anchor="middle" x="526" y="-55" font-family="Helvetica,sans-Serif" font-size="10.00">VCAPlugin</text>
</a>
</g>
</g>
<!-- Node11&#45;&gt;Node37 -->
<g id="edge36_Node000011_Node000037" class="edge">
<title>Node11&#45;&gt;Node37</title>
<g id="a_edge36_Node000011_Node000037"><a xlink:title=" ">
<path fill="none" stroke="#63b8ff" d="M356.6,-637.69C359.48,-537.69 374.93,-171.41 448,-87 454.69,-79.27 463.83,-74 473.47,-70.41"/>
<polygon fill="#63b8ff" stroke="#63b8ff" points="353.1,-637.7 356.33,-647.79 360.1,-637.89 353.1,-637.7"/>
</a>
</g>
</g>
<!-- Node38 -->
<g id="Node000038" class="node">
<title>Node38</title>
<g id="a_Node000038"><a xlink:href="classtracktion_1_1engine_1_1VolumeAndPanPlugin.html" target="_top" xlink:title="The built&#45;in Tracktion volume/pan plugin.">
<polygon fill="white" stroke="#666666" points="585.5,-30 466.5,-30 466.5,0 585.5,0 585.5,-30"/>
<text text-anchor="start" x="474.5" y="-18" font-family="Helvetica,sans-Serif" font-size="10.00">tracktion::engine::</text>
<text text-anchor="middle" x="526" y="-7" font-family="Helvetica,sans-Serif" font-size="10.00">VolumeAndPanPlugin</text>
</a>
</g>
</g>
<!-- Node11&#45;&gt;Node38 -->
<g id="edge37_Node000011_Node000038" class="edge">
<title>Node11&#45;&gt;Node38</title>
<g id="a_edge37_Node000011_Node000038"><a xlink:title=" ">
<path fill="none" stroke="#63b8ff" d="M356.26,-637.67C357.84,-532.48 369.03,-131.34 448,-39 453.01,-33.15 459.41,-28.7 466.39,-25.33"/>
<polygon fill="#63b8ff" stroke="#63b8ff" points="352.76,-637.91 356.12,-647.96 359.75,-638.01 352.76,-637.91"/>
</a>
</g>
</g>
</g>
</svg>
