<?xml version="1.0" encoding="UTF-8" standalone="no"?>
<!DOCTYPE svg PUBLIC "-//W3C//DTD SVG 1.1//EN"
 "http://www.w3.org/Graphics/SVG/1.1/DTD/svg11.dtd">
<!-- Generated by graphviz version 2.43.0 (0)
 -->
<!-- Title: tracktion::engine::EditClip Pages: 1 -->
<svg width="448pt" height="313pt"
 viewBox="0.00 0.00 448.00 313.00" xmlns="http://www.w3.org/2000/svg" xmlns:xlink="http://www.w3.org/1999/xlink">
<g id="graph0" class="graph" transform="scale(1 1) rotate(0) translate(4 309)">
<title>tracktion::engine::EditClip</title>
<!-- Node1 -->
<g id="Node000001" class="node">
<title>Node1</title>
<g id="a_Node000001"><a xlink:title="This is the main source of an Edit clip and is responsible for managing its properties.">
<polygon fill="#999999" stroke="#666666" points="363,-30 258,-30 258,0 363,0 363,-30"/>
<text text-anchor="start" x="266" y="-18" font-family="Helvetica,sans-Serif" font-size="10.00">tracktion::engine::</text>
<text text-anchor="middle" x="310.5" y="-7" font-family="Helvetica,sans-Serif" font-size="10.00">EditClip</text>
</a>
</g>
</g>
<!-- Node2 -->
<g id="Node000002" class="node">
<title>Node2</title>
<g id="a_Node000002"><a xlink:href="classtracktion_1_1engine_1_1AudioClipBase.html" target="_top" xlink:title="Base class for Clips that produce some kind of audio e.g.">
<polygon fill="white" stroke="#666666" points="297,-96 192,-96 192,-66 297,-66 297,-96"/>
<text text-anchor="start" x="200" y="-84" font-family="Helvetica,sans-Serif" font-size="10.00">tracktion::engine::</text>
<text text-anchor="middle" x="244.5" y="-73" font-family="Helvetica,sans-Serif" font-size="10.00">AudioClipBase</text>
</a>
</g>
</g>
<!-- Node2&#45;&gt;Node1 -->
<g id="edge1_Node000001_Node000002" class="edge">
<title>Node2&#45;&gt;Node1</title>
<g id="a_edge1_Node000001_Node000002"><a xlink:title=" ">
<path fill="none" stroke="#63b8ff" d="M266.52,-58.65C276.19,-49.27 287.27,-38.53 295.89,-30.16"/>
<polygon fill="#63b8ff" stroke="#63b8ff" points="263.89,-56.32 259.15,-65.8 268.76,-61.35 263.89,-56.32"/>
</a>
</g>
</g>
<!-- Node3 -->
<g id="Node000003" class="node">
<title>Node3</title>
<g id="a_Node000003"><a xlink:href="classtracktion_1_1engine_1_1Clip.html" target="_top" xlink:title="A clip in an edit.">
<polygon fill="white" stroke="#666666" points="236.5,-162 112.5,-162 112.5,-143 236.5,-143 236.5,-162"/>
<text text-anchor="middle" x="174.5" y="-150" font-family="Helvetica,sans-Serif" font-size="10.00">tracktion::engine::Clip</text>
</a>
</g>
</g>
<!-- Node3&#45;&gt;Node2 -->
<g id="edge2_Node000002_Node000003" class="edge">
<title>Node3&#45;&gt;Node2</title>
<g id="a_edge2_Node000002_Node000003"><a xlink:title=" ">
<path fill="none" stroke="#63b8ff" d="M190.24,-135.87C202.25,-123.95 218.64,-107.67 230.26,-96.14"/>
<polygon fill="#63b8ff" stroke="#63b8ff" points="187.71,-133.45 183.08,-142.98 192.65,-138.42 187.71,-133.45"/>
</a>
</g>
</g>
<!-- Node4 -->
<g id="Node000004" class="node">
<title>Node4</title>
<g id="a_Node000004"><a xlink:href="classtracktion_1_1engine_1_1TrackItem.html" target="_top" xlink:title="Base class for EditItems that live in a Track, e.g.">
<polygon fill="white" stroke="#666666" points="166,-239 61,-239 61,-209 166,-209 166,-239"/>
<text text-anchor="start" x="69" y="-227" font-family="Helvetica,sans-Serif" font-size="10.00">tracktion::engine::</text>
<text text-anchor="middle" x="113.5" y="-216" font-family="Helvetica,sans-Serif" font-size="10.00">TrackItem</text>
</a>
</g>
</g>
<!-- Node4&#45;&gt;Node3 -->
<g id="edge3_Node000003_Node000004" class="edge">
<title>Node4&#45;&gt;Node3</title>
<g id="a_edge3_Node000003_Node000004"><a xlink:title=" ">
<path fill="none" stroke="#63b8ff" d="M132.64,-201.2C144.19,-188.04 158.27,-171.99 166.81,-162.27"/>
<polygon fill="#63b8ff" stroke="#63b8ff" points="129.81,-199.11 125.84,-208.94 135.07,-203.73 129.81,-199.11"/>
</a>
</g>
</g>
<!-- Node5 -->
<g id="Node000005" class="node">
<title>Node5</title>
<g id="a_Node000005"><a xlink:href="classtracktion_1_1engine_1_1EditItem.html" target="_top" xlink:title="Base class for objects that live inside an edit &#45; e.g.">
<polygon fill="white" stroke="#666666" points="105,-305 0,-305 0,-275 105,-275 105,-305"/>
<text text-anchor="start" x="8" y="-293" font-family="Helvetica,sans-Serif" font-size="10.00">tracktion::engine::</text>
<text text-anchor="middle" x="52.5" y="-282" font-family="Helvetica,sans-Serif" font-size="10.00">EditItem</text>
</a>
</g>
</g>
<!-- Node5&#45;&gt;Node4 -->
<g id="edge4_Node000004_Node000005" class="edge">
<title>Node5&#45;&gt;Node4</title>
<g id="a_edge4_Node000004_Node000005"><a xlink:title=" ">
<path fill="none" stroke="#63b8ff" d="M73.12,-267.37C81.99,-258.06 92.11,-247.44 100,-239.16"/>
<polygon fill="#63b8ff" stroke="#63b8ff" points="70.4,-265.14 66.04,-274.8 75.47,-269.97 70.4,-265.14"/>
</a>
</g>
</g>
<!-- Node6 -->
<g id="Node000006" class="node">
<title>Node6</title>
<g id="a_Node000006"><a xlink:href="classtracktion_1_1engine_1_1Selectable.html" target="_top" xlink:title="Base class for things that can be selected, and whose properties can appear in the properties panel.">
<polygon fill="white" stroke="#666666" points="228,-305 123,-305 123,-275 228,-275 228,-305"/>
<text text-anchor="start" x="131" y="-293" font-family="Helvetica,sans-Serif" font-size="10.00">tracktion::engine::</text>
<text text-anchor="middle" x="175.5" y="-282" font-family="Helvetica,sans-Serif" font-size="10.00">Selectable</text>
</a>
</g>
</g>
<!-- Node6&#45;&gt;Node4 -->
<g id="edge5_Node000004_Node000006" class="edge">
<title>Node6&#45;&gt;Node4</title>
<g id="a_edge5_Node000004_Node000006"><a xlink:title=" ">
<path fill="none" stroke="#63b8ff" d="M154.54,-267.37C145.53,-258.06 135.24,-247.44 127.22,-239.16"/>
<polygon fill="#63b8ff" stroke="#63b8ff" points="152.27,-270.05 161.74,-274.8 157.3,-265.18 152.27,-270.05"/>
</a>
</g>
</g>
<!-- Node7 -->
<g id="Node000007" class="node">
<title>Node7</title>
<g id="a_Node000007"><a xlink:href="classtracktion_1_1engine_1_1Exportable.html" target="_top" xlink:title="An interface for objects within an edit that can be exported.">
<polygon fill="white" stroke="#666666" points="289,-239 184,-239 184,-209 289,-209 289,-239"/>
<text text-anchor="start" x="192" y="-227" font-family="Helvetica,sans-Serif" font-size="10.00">tracktion::engine::</text>
<text text-anchor="middle" x="236.5" y="-216" font-family="Helvetica,sans-Serif" font-size="10.00">Exportable</text>
</a>
</g>
</g>
<!-- Node7&#45;&gt;Node3 -->
<g id="edge6_Node000003_Node000007" class="edge">
<title>Node7&#45;&gt;Node3</title>
<g id="a_edge6_Node000003_Node000007"><a xlink:title=" ">
<path fill="none" stroke="#63b8ff" d="M217.05,-201.2C205.31,-188.04 190.99,-171.99 182.32,-162.27"/>
<polygon fill="#63b8ff" stroke="#63b8ff" points="214.68,-203.8 223.95,-208.94 219.91,-199.14 214.68,-203.8"/>
</a>
</g>
</g>
<!-- Node8 -->
<g id="Node000008" class="node">
<title>Node8</title>
<g id="a_Node000008"><a xlink:href="structtracktion_1_1engine_1_1RenderManager_1_1Job_1_1Listener.html" target="_top" xlink:title=" ">
<polygon fill="white" stroke="#666666" points="376,-173 255,-173 255,-132 376,-132 376,-173"/>
<text text-anchor="start" x="263" y="-161" font-family="Helvetica,sans-Serif" font-size="10.00">tracktion::engine::</text>
<text text-anchor="start" x="263" y="-150" font-family="Helvetica,sans-Serif" font-size="10.00">RenderManager::Job::</text>
<text text-anchor="middle" x="315.5" y="-139" font-family="Helvetica,sans-Serif" font-size="10.00">Listener</text>
</a>
</g>
</g>
<!-- Node8&#45;&gt;Node2 -->
<g id="edge7_Node000002_Node000008" class="edge">
<title>Node8&#45;&gt;Node2</title>
<g id="a_edge7_Node000002_Node000008"><a xlink:title=" ">
<path fill="none" stroke="#63b8ff" d="M287.97,-124.55C278.02,-114.81 267.2,-104.22 258.84,-96.04"/>
<polygon fill="#63b8ff" stroke="#63b8ff" points="285.75,-127.28 295.34,-131.77 290.65,-122.27 285.75,-127.28"/>
</a>
</g>
</g>
<!-- Node9 -->
<g id="Node000009" class="node">
<title>Node9</title>
<g id="a_Node000009"><a xlink:href="structtracktion_1_1engine_1_1EditSnapshot_1_1Listener.html" target="_top" xlink:title=" ">
<polygon fill="white" stroke="#666666" points="440,-96 315,-96 315,-66 440,-66 440,-96"/>
<text text-anchor="start" x="323" y="-84" font-family="Helvetica,sans-Serif" font-size="10.00">tracktion::engine::</text>
<text text-anchor="middle" x="377.5" y="-73" font-family="Helvetica,sans-Serif" font-size="10.00">EditSnapshot::Listener</text>
</a>
</g>
</g>
<!-- Node9&#45;&gt;Node1 -->
<g id="edge8_Node000001_Node000009" class="edge">
<title>Node9&#45;&gt;Node1</title>
<g id="a_edge8_Node000001_Node000009"><a xlink:title=" ">
<path fill="none" stroke="#8b1a1a" d="M355.15,-58.65C345.33,-49.27 334.08,-38.53 325.33,-30.16"/>
<polygon fill="#8b1a1a" stroke="#8b1a1a" points="352.98,-61.42 362.63,-65.8 357.82,-56.36 352.98,-61.42"/>
</a>
</g>
</g>
</g>
</svg>
