<?xml version="1.0" encoding="UTF-8" standalone="no"?>
<!DOCTYPE svg PUBLIC "-//W3C//DTD SVG 1.1//EN"
 "http://www.w3.org/Graphics/SVG/1.1/DTD/svg11.dtd">
<!-- Generated by graphviz version 2.43.0 (0)
 -->
<!-- Title: tracktion::engine::Exportable Pages: 1 -->
<svg width="583pt" height="1607pt"
 viewBox="0.00 0.00 583.00 1607.00" xmlns="http://www.w3.org/2000/svg" xmlns:xlink="http://www.w3.org/1999/xlink">
<g id="graph0" class="graph" transform="scale(1 1) rotate(0) translate(4 1603)">
<title>tracktion::engine::Exportable</title>
<!-- Node1 -->
<g id="node1" class="node">
<title>Node1</title>
<g id="a_node1"><a xlink:title="An interface for objects within an edit that can be exported.">
<polygon fill="#bfbfbf" stroke="black" points="0,-1029.5 0,-1059.5 105,-1059.5 105,-1029.5 0,-1029.5"/>
<text text-anchor="start" x="8" y="-1047.5" font-family="Helvetica,sans-Serif" font-size="10.00">tracktion::engine::</text>
<text text-anchor="middle" x="52.5" y="-1036.5" font-family="Helvetica,sans-Serif" font-size="10.00">Exportable</text>
</a>
</g>
</g>
<!-- Node2 -->
<g id="node2" class="node">
<title>Node2</title>
<g id="a_node2"><a xlink:href="classtracktion_1_1engine_1_1Clip.html" target="_top" xlink:title="A clip in an edit.">
<polygon fill="none" stroke="black" points="141,-1427 141,-1446 265,-1446 265,-1427 141,-1427"/>
<text text-anchor="middle" x="203" y="-1434" font-family="Helvetica,sans-Serif" font-size="10.00">tracktion::engine::Clip</text>
</a>
</g>
</g>
<!-- Node1&#45;&gt;Node2 -->
<g id="edge1" class="edge">
<title>Node1&#45;&gt;Node2</title>
<path fill="none" stroke="midnightblue" d="M62.86,-1069.22C91.89,-1145.84 179.52,-1377.16 198.39,-1426.98"/>
<polygon fill="midnightblue" stroke="midnightblue" points="66.14,-1067.98 59.32,-1059.87 59.59,-1070.46 66.14,-1067.98"/>
</g>
<!-- Node11 -->
<g id="node11" class="node">
<title>Node11</title>
<g id="a_node11"><a xlink:href="classtracktion_1_1engine_1_1Plugin.html" target="_top" xlink:title=" ">
<polygon fill="none" stroke="black" points="150.5,-662.5 150.5,-692.5 255.5,-692.5 255.5,-662.5 150.5,-662.5"/>
<text text-anchor="start" x="158.5" y="-680.5" font-family="Helvetica,sans-Serif" font-size="10.00">tracktion::engine::</text>
<text text-anchor="middle" x="203" y="-669.5" font-family="Helvetica,sans-Serif" font-size="10.00">Plugin</text>
</a>
</g>
</g>
<!-- Node1&#45;&gt;Node11 -->
<g id="edge10" class="edge">
<title>Node1&#45;&gt;Node11</title>
<path fill="none" stroke="midnightblue" d="M63.49,-1019.8C91.93,-949.52 172.72,-749.87 195.78,-692.87"/>
<polygon fill="midnightblue" stroke="midnightblue" points="60.2,-1018.61 59.69,-1029.2 66.69,-1021.24 60.2,-1018.61"/>
</g>
<!-- Node3 -->
<g id="node3" class="node">
<title>Node3</title>
<g id="a_node3"><a xlink:href="classtracktion_1_1engine_1_1ArrangerClip.html" target="_top" xlink:title=" ">
<polygon fill="none" stroke="black" points="315,-1568.5 315,-1598.5 420,-1598.5 420,-1568.5 315,-1568.5"/>
<text text-anchor="start" x="323" y="-1586.5" font-family="Helvetica,sans-Serif" font-size="10.00">tracktion::engine::</text>
<text text-anchor="middle" x="367.5" y="-1575.5" font-family="Helvetica,sans-Serif" font-size="10.00">ArrangerClip</text>
</a>
</g>
</g>
<!-- Node2&#45;&gt;Node3 -->
<g id="edge2" class="edge">
<title>Node2&#45;&gt;Node3</title>
<path fill="none" stroke="midnightblue" d="M214.12,-1455.03C229.54,-1481.69 261.38,-1530.79 301,-1559.5 305.71,-1562.91 310.95,-1565.89 316.37,-1568.47"/>
<polygon fill="midnightblue" stroke="midnightblue" points="217.15,-1453.29 209.19,-1446.31 211.06,-1456.74 217.15,-1453.29"/>
</g>
<!-- Node4 -->
<g id="node4" class="node">
<title>Node4</title>
<g id="a_node4"><a xlink:href="classtracktion_1_1engine_1_1AudioClipBase.html" target="_top" xlink:title="Base class for Clips that produce some kind of audio e.g.">
<polygon fill="none" stroke="black" points="315,-1519.5 315,-1549.5 420,-1549.5 420,-1519.5 315,-1519.5"/>
<text text-anchor="start" x="323" y="-1537.5" font-family="Helvetica,sans-Serif" font-size="10.00">tracktion::engine::</text>
<text text-anchor="middle" x="367.5" y="-1526.5" font-family="Helvetica,sans-Serif" font-size="10.00">AudioClipBase</text>
</a>
</g>
</g>
<!-- Node2&#45;&gt;Node4 -->
<g id="edge3" class="edge">
<title>Node2&#45;&gt;Node4</title>
<path fill="none" stroke="midnightblue" d="M222,-1452.91C240.66,-1469.24 271.2,-1494.17 301,-1510.5 306.95,-1513.76 313.43,-1516.74 319.92,-1519.41"/>
<polygon fill="midnightblue" stroke="midnightblue" points="224.11,-1450.1 214.32,-1446.07 219.46,-1455.33 224.11,-1450.1"/>
</g>
<!-- Node7 -->
<g id="node7" class="node">
<title>Node7</title>
<g id="a_node7"><a xlink:href="classtracktion_1_1engine_1_1ChordClip.html" target="_top" xlink:title=" ">
<polygon fill="none" stroke="black" points="315,-1470.5 315,-1500.5 420,-1500.5 420,-1470.5 315,-1470.5"/>
<text text-anchor="start" x="323" y="-1488.5" font-family="Helvetica,sans-Serif" font-size="10.00">tracktion::engine::</text>
<text text-anchor="middle" x="367.5" y="-1477.5" font-family="Helvetica,sans-Serif" font-size="10.00">ChordClip</text>
</a>
</g>
</g>
<!-- Node2&#45;&gt;Node7 -->
<g id="edge6" class="edge">
<title>Node2&#45;&gt;Node7</title>
<path fill="none" stroke="midnightblue" d="M245.3,-1448.95C267.01,-1455.5 293.78,-1463.57 316.63,-1470.46"/>
<polygon fill="midnightblue" stroke="midnightblue" points="246.3,-1445.6 235.72,-1446.06 244.28,-1452.3 246.3,-1445.6"/>
</g>
<!-- Node8 -->
<g id="node8" class="node">
<title>Node8</title>
<g id="a_node8"><a xlink:href="classtracktion_1_1engine_1_1MarkerClip.html" target="_top" xlink:title=" ">
<polygon fill="none" stroke="black" points="315,-1421.5 315,-1451.5 420,-1451.5 420,-1421.5 315,-1421.5"/>
<text text-anchor="start" x="323" y="-1439.5" font-family="Helvetica,sans-Serif" font-size="10.00">tracktion::engine::</text>
<text text-anchor="middle" x="367.5" y="-1428.5" font-family="Helvetica,sans-Serif" font-size="10.00">MarkerClip</text>
</a>
</g>
</g>
<!-- Node2&#45;&gt;Node8 -->
<g id="edge7" class="edge">
<title>Node2&#45;&gt;Node8</title>
<path fill="none" stroke="midnightblue" d="M275.46,-1436.5C288.7,-1436.5 302.29,-1436.5 314.79,-1436.5"/>
<polygon fill="midnightblue" stroke="midnightblue" points="275.43,-1433 265.43,-1436.5 275.43,-1440 275.43,-1433"/>
</g>
<!-- Node9 -->
<g id="node9" class="node">
<title>Node9</title>
<g id="a_node9"><a xlink:href="classtracktion_1_1engine_1_1MidiClip.html" target="_top" xlink:title=" ">
<polygon fill="none" stroke="black" points="315,-1372.5 315,-1402.5 420,-1402.5 420,-1372.5 315,-1372.5"/>
<text text-anchor="start" x="323" y="-1390.5" font-family="Helvetica,sans-Serif" font-size="10.00">tracktion::engine::</text>
<text text-anchor="middle" x="367.5" y="-1379.5" font-family="Helvetica,sans-Serif" font-size="10.00">MidiClip</text>
</a>
</g>
</g>
<!-- Node2&#45;&gt;Node9 -->
<g id="edge8" class="edge">
<title>Node2&#45;&gt;Node9</title>
<path fill="none" stroke="midnightblue" d="M245.3,-1424.05C267.01,-1417.5 293.78,-1409.43 316.63,-1402.54"/>
<polygon fill="midnightblue" stroke="midnightblue" points="244.28,-1420.7 235.72,-1426.94 246.3,-1427.4 244.28,-1420.7"/>
</g>
<!-- Node10 -->
<g id="node10" class="node">
<title>Node10</title>
<g id="a_node10"><a xlink:href="classtracktion_1_1engine_1_1StepClip.html" target="_top" xlink:title=" ">
<polygon fill="none" stroke="black" points="315,-1323.5 315,-1353.5 420,-1353.5 420,-1323.5 315,-1323.5"/>
<text text-anchor="start" x="323" y="-1341.5" font-family="Helvetica,sans-Serif" font-size="10.00">tracktion::engine::</text>
<text text-anchor="middle" x="367.5" y="-1330.5" font-family="Helvetica,sans-Serif" font-size="10.00">StepClip</text>
</a>
</g>
</g>
<!-- Node2&#45;&gt;Node10 -->
<g id="edge9" class="edge">
<title>Node2&#45;&gt;Node10</title>
<path fill="none" stroke="midnightblue" d="M222,-1420.09C240.66,-1403.76 271.2,-1378.83 301,-1362.5 306.95,-1359.24 313.43,-1356.26 319.92,-1353.59"/>
<polygon fill="midnightblue" stroke="midnightblue" points="219.46,-1417.67 214.32,-1426.93 224.11,-1422.9 219.46,-1417.67"/>
</g>
<!-- Node5 -->
<g id="node5" class="node">
<title>Node5</title>
<g id="a_node5"><a xlink:href="classtracktion_1_1engine_1_1EditClip.html" target="_top" xlink:title="This is the main source of an Edit clip and is responsible for managing its properties.">
<polygon fill="none" stroke="black" points="470,-1543.5 470,-1573.5 575,-1573.5 575,-1543.5 470,-1543.5"/>
<text text-anchor="start" x="478" y="-1561.5" font-family="Helvetica,sans-Serif" font-size="10.00">tracktion::engine::</text>
<text text-anchor="middle" x="522.5" y="-1550.5" font-family="Helvetica,sans-Serif" font-size="10.00">EditClip</text>
</a>
</g>
</g>
<!-- Node4&#45;&gt;Node5 -->
<g id="edge4" class="edge">
<title>Node4&#45;&gt;Node5</title>
<path fill="none" stroke="midnightblue" d="M430.19,-1544.18C443.32,-1546.24 457.05,-1548.39 469.75,-1550.38"/>
<polygon fill="midnightblue" stroke="midnightblue" points="430.72,-1540.72 420.3,-1542.63 429.64,-1547.63 430.72,-1540.72"/>
</g>
<!-- Node6 -->
<g id="node6" class="node">
<title>Node6</title>
<g id="a_node6"><a xlink:href="classtracktion_1_1engine_1_1WaveAudioClip.html" target="_top" xlink:title="An audio clip that uses an audio file as its source.">
<polygon fill="none" stroke="black" points="470,-1494.5 470,-1524.5 575,-1524.5 575,-1494.5 470,-1494.5"/>
<text text-anchor="start" x="478" y="-1512.5" font-family="Helvetica,sans-Serif" font-size="10.00">tracktion::engine::</text>
<text text-anchor="middle" x="522.5" y="-1501.5" font-family="Helvetica,sans-Serif" font-size="10.00">WaveAudioClip</text>
</a>
</g>
</g>
<!-- Node4&#45;&gt;Node6 -->
<g id="edge5" class="edge">
<title>Node4&#45;&gt;Node6</title>
<path fill="none" stroke="midnightblue" d="M430.19,-1524.42C443.32,-1522.28 457.05,-1520.03 469.75,-1517.96"/>
<polygon fill="midnightblue" stroke="midnightblue" points="429.6,-1520.97 420.3,-1526.04 430.73,-1527.88 429.6,-1520.97"/>
</g>
<!-- Node12 -->
<g id="node12" class="node">
<title>Node12</title>
<g id="a_node12"><a xlink:href="classtracktion_1_1engine_1_1AirWindowsPlugin.html" target="_top" xlink:title=" ">
<polygon fill="none" stroke="black" points="315,-1274.5 315,-1304.5 420,-1304.5 420,-1274.5 315,-1274.5"/>
<text text-anchor="start" x="323" y="-1292.5" font-family="Helvetica,sans-Serif" font-size="10.00">tracktion::engine::</text>
<text text-anchor="middle" x="367.5" y="-1281.5" font-family="Helvetica,sans-Serif" font-size="10.00">AirWindowsPlugin</text>
</a>
</g>
</g>
<!-- Node11&#45;&gt;Node12 -->
<g id="edge11" class="edge">
<title>Node11&#45;&gt;Node12</title>
<path fill="none" stroke="midnightblue" d="M204.91,-702.84C209.01,-803.79 228.88,-1176.22 301,-1264.5 304.85,-1269.21 309.7,-1273.04 315,-1276.14"/>
<polygon fill="midnightblue" stroke="midnightblue" points="208.4,-702.51 204.51,-692.65 201.41,-702.78 208.4,-702.51"/>
</g>
<!-- Node13 -->
<g id="node13" class="node">
<title>Node13</title>
<g id="a_node13"><a xlink:href="classtracktion_1_1engine_1_1AuxReturnPlugin.html" target="_top" xlink:title=" ">
<polygon fill="none" stroke="black" points="315,-1225.5 315,-1255.5 420,-1255.5 420,-1225.5 315,-1225.5"/>
<text text-anchor="start" x="323" y="-1243.5" font-family="Helvetica,sans-Serif" font-size="10.00">tracktion::engine::</text>
<text text-anchor="middle" x="367.5" y="-1232.5" font-family="Helvetica,sans-Serif" font-size="10.00">AuxReturnPlugin</text>
</a>
</g>
</g>
<!-- Node11&#45;&gt;Node13 -->
<g id="edge12" class="edge">
<title>Node11&#45;&gt;Node13</title>
<path fill="none" stroke="midnightblue" d="M205.33,-702.85C210.82,-798.42 234.64,-1135.47 301,-1215.5 304.81,-1220.09 309.56,-1223.84 314.75,-1226.9"/>
<polygon fill="midnightblue" stroke="midnightblue" points="208.81,-702.46 204.76,-692.67 201.82,-702.85 208.81,-702.46"/>
</g>
<!-- Node14 -->
<g id="node14" class="node">
<title>Node14</title>
<g id="a_node14"><a xlink:href="classtracktion_1_1engine_1_1AuxSendPlugin.html" target="_top" xlink:title=" ">
<polygon fill="none" stroke="black" points="315,-1176.5 315,-1206.5 420,-1206.5 420,-1176.5 315,-1176.5"/>
<text text-anchor="start" x="323" y="-1194.5" font-family="Helvetica,sans-Serif" font-size="10.00">tracktion::engine::</text>
<text text-anchor="middle" x="367.5" y="-1183.5" font-family="Helvetica,sans-Serif" font-size="10.00">AuxSendPlugin</text>
</a>
</g>
</g>
<!-- Node11&#45;&gt;Node14 -->
<g id="edge13" class="edge">
<title>Node11&#45;&gt;Node14</title>
<path fill="none" stroke="midnightblue" d="M205.86,-703.15C212.86,-793.41 240.45,-1094.75 301,-1166.5 304.85,-1171.06 309.62,-1174.79 314.83,-1177.84"/>
<polygon fill="midnightblue" stroke="midnightblue" points="209.33,-702.7 205.09,-692.99 202.35,-703.23 209.33,-702.7"/>
</g>
<!-- Node15 -->
<g id="node15" class="node">
<title>Node15</title>
<g id="a_node15"><a xlink:href="classtracktion_1_1engine_1_1ChorusPlugin.html" target="_top" xlink:title=" ">
<polygon fill="none" stroke="black" points="315,-1127.5 315,-1157.5 420,-1157.5 420,-1127.5 315,-1127.5"/>
<text text-anchor="start" x="323" y="-1145.5" font-family="Helvetica,sans-Serif" font-size="10.00">tracktion::engine::</text>
<text text-anchor="middle" x="367.5" y="-1134.5" font-family="Helvetica,sans-Serif" font-size="10.00">ChorusPlugin</text>
</a>
</g>
</g>
<!-- Node11&#45;&gt;Node15 -->
<g id="edge14" class="edge">
<title>Node11&#45;&gt;Node15</title>
<path fill="none" stroke="midnightblue" d="M206.46,-703.01C215.04,-787.12 246.12,-1053.86 301,-1117.5 304.89,-1122.02 309.7,-1125.72 314.92,-1128.76"/>
<polygon fill="midnightblue" stroke="midnightblue" points="209.92,-702.43 205.44,-692.83 202.95,-703.12 209.92,-702.43"/>
</g>
<!-- Node16 -->
<g id="node16" class="node">
<title>Node16</title>
<g id="a_node16"><a xlink:href="classtracktion_1_1engine_1_1CompressorPlugin.html" target="_top" xlink:title=" ">
<polygon fill="none" stroke="black" points="315,-1078.5 315,-1108.5 420,-1108.5 420,-1078.5 315,-1078.5"/>
<text text-anchor="start" x="323" y="-1096.5" font-family="Helvetica,sans-Serif" font-size="10.00">tracktion::engine::</text>
<text text-anchor="middle" x="367.5" y="-1085.5" font-family="Helvetica,sans-Serif" font-size="10.00">CompressorPlugin</text>
</a>
</g>
</g>
<!-- Node11&#45;&gt;Node16 -->
<g id="edge15" class="edge">
<title>Node11&#45;&gt;Node16</title>
<path fill="none" stroke="midnightblue" d="M207.25,-703.18C217.56,-781.12 251.84,-1012.97 301,-1068.5 304.87,-1072.87 309.6,-1076.49 314.71,-1079.47"/>
<polygon fill="midnightblue" stroke="midnightblue" points="210.66,-702.31 205.9,-692.84 203.72,-703.21 210.66,-702.31"/>
</g>
<!-- Node17 -->
<g id="node17" class="node">
<title>Node17</title>
<g id="a_node17"><a xlink:href="classtracktion_1_1engine_1_1DelayPlugin.html" target="_top" xlink:title=" ">
<polygon fill="none" stroke="black" points="315,-1029.5 315,-1059.5 420,-1059.5 420,-1029.5 315,-1029.5"/>
<text text-anchor="start" x="323" y="-1047.5" font-family="Helvetica,sans-Serif" font-size="10.00">tracktion::engine::</text>
<text text-anchor="middle" x="367.5" y="-1036.5" font-family="Helvetica,sans-Serif" font-size="10.00">DelayPlugin</text>
</a>
</g>
</g>
<!-- Node11&#45;&gt;Node17 -->
<g id="edge16" class="edge">
<title>Node11&#45;&gt;Node17</title>
<path fill="none" stroke="midnightblue" d="M203.86,-702.82C204.89,-764.97 216.08,-926.74 301,-1019.5 304.94,-1023.81 309.71,-1027.38 314.86,-1030.34"/>
<polygon fill="midnightblue" stroke="midnightblue" points="207.36,-702.71 203.77,-692.74 200.36,-702.77 207.36,-702.71"/>
</g>
<!-- Node18 -->
<g id="node18" class="node">
<title>Node18</title>
<g id="a_node18"><a xlink:href="classtracktion_1_1engine_1_1EqualiserPlugin.html" target="_top" xlink:title=" ">
<polygon fill="none" stroke="black" points="315,-980.5 315,-1010.5 420,-1010.5 420,-980.5 315,-980.5"/>
<text text-anchor="start" x="323" y="-998.5" font-family="Helvetica,sans-Serif" font-size="10.00">tracktion::engine::</text>
<text text-anchor="middle" x="367.5" y="-987.5" font-family="Helvetica,sans-Serif" font-size="10.00">EqualiserPlugin</text>
</a>
</g>
</g>
<!-- Node11&#45;&gt;Node18 -->
<g id="edge17" class="edge">
<title>Node11&#45;&gt;Node18</title>
<path fill="none" stroke="midnightblue" d="M205.28,-702.57C209.45,-758.2 227.06,-893.16 301,-970.5 304.95,-974.63 309.66,-978.09 314.72,-980.99"/>
<polygon fill="midnightblue" stroke="midnightblue" points="208.77,-702.29 204.62,-692.54 201.79,-702.75 208.77,-702.29"/>
</g>
<!-- Node19 -->
<g id="node19" class="node">
<title>Node19</title>
<g id="a_node19"><a xlink:href="classtracktion_1_1engine_1_1ExternalPlugin.html" target="_top" xlink:title=" ">
<polygon fill="none" stroke="black" points="315,-931.5 315,-961.5 420,-961.5 420,-931.5 315,-931.5"/>
<text text-anchor="start" x="323" y="-949.5" font-family="Helvetica,sans-Serif" font-size="10.00">tracktion::engine::</text>
<text text-anchor="middle" x="367.5" y="-938.5" font-family="Helvetica,sans-Serif" font-size="10.00">ExternalPlugin</text>
</a>
</g>
</g>
<!-- Node11&#45;&gt;Node19 -->
<g id="edge18" class="edge">
<title>Node11&#45;&gt;Node19</title>
<path fill="none" stroke="midnightblue" d="M207.25,-702.7C214.84,-751.47 238.09,-859.45 301,-921.5 305.07,-925.52 309.86,-928.9 314.96,-931.75"/>
<polygon fill="midnightblue" stroke="midnightblue" points="210.7,-702.08 205.79,-692.69 203.77,-703.09 210.7,-702.08"/>
</g>
<!-- Node20 -->
<g id="node20" class="node">
<title>Node20</title>
<g id="a_node20"><a xlink:href="classtracktion_1_1engine_1_1FourOscPlugin.html" target="_top" xlink:title=" ">
<polygon fill="none" stroke="black" points="315,-882.5 315,-912.5 420,-912.5 420,-882.5 315,-882.5"/>
<text text-anchor="start" x="323" y="-900.5" font-family="Helvetica,sans-Serif" font-size="10.00">tracktion::engine::</text>
<text text-anchor="middle" x="367.5" y="-889.5" font-family="Helvetica,sans-Serif" font-size="10.00">FourOscPlugin</text>
</a>
</g>
</g>
<!-- Node11&#45;&gt;Node20 -->
<g id="edge19" class="edge">
<title>Node11&#45;&gt;Node20</title>
<path fill="none" stroke="midnightblue" d="M210.06,-702.48C221.23,-743.47 248.84,-825.17 301,-872.5 305.24,-876.34 310.13,-879.62 315.28,-882.41"/>
<polygon fill="midnightblue" stroke="midnightblue" points="213.43,-701.53 207.51,-692.75 206.66,-703.31 213.43,-701.53"/>
</g>
<!-- Node21 -->
<g id="node21" class="node">
<title>Node21</title>
<g id="a_node21"><a xlink:href="classtracktion_1_1engine_1_1FreezePointPlugin.html" target="_top" xlink:title=" ">
<polygon fill="none" stroke="black" points="315,-833.5 315,-863.5 420,-863.5 420,-833.5 315,-833.5"/>
<text text-anchor="start" x="323" y="-851.5" font-family="Helvetica,sans-Serif" font-size="10.00">tracktion::engine::</text>
<text text-anchor="middle" x="367.5" y="-840.5" font-family="Helvetica,sans-Serif" font-size="10.00">FreezePointPlugin</text>
</a>
</g>
</g>
<!-- Node11&#45;&gt;Node21 -->
<g id="edge20" class="edge">
<title>Node11&#45;&gt;Node21</title>
<path fill="none" stroke="midnightblue" d="M214.48,-702.08C229.33,-734.19 259.39,-790.23 301,-823.5 305.75,-827.3 311.15,-830.57 316.75,-833.37"/>
<polygon fill="midnightblue" stroke="midnightblue" points="217.49,-700.24 210.2,-692.56 211.11,-703.11 217.49,-700.24"/>
</g>
<!-- Node22 -->
<g id="node22" class="node">
<title>Node22</title>
<g id="a_node22"><a xlink:href="classtracktion_1_1engine_1_1ImpulseResponsePlugin.html" target="_top" xlink:title="ImpulseResponsePlugin that loads an impulse response and applies it the audio stream.">
<polygon fill="none" stroke="black" points="301,-784.5 301,-814.5 434,-814.5 434,-784.5 301,-784.5"/>
<text text-anchor="start" x="309" y="-802.5" font-family="Helvetica,sans-Serif" font-size="10.00">tracktion::engine::</text>
<text text-anchor="middle" x="367.5" y="-791.5" font-family="Helvetica,sans-Serif" font-size="10.00">ImpulseResponsePlugin</text>
</a>
</g>
</g>
<!-- Node11&#45;&gt;Node22 -->
<g id="edge21" class="edge">
<title>Node11&#45;&gt;Node22</title>
<path fill="none" stroke="midnightblue" d="M222.17,-700.62C240.2,-722.23 269.59,-754.15 301,-774.5 306.72,-778.21 313.07,-781.49 319.51,-784.35"/>
<polygon fill="midnightblue" stroke="midnightblue" points="224.66,-698.13 215.62,-692.61 219.24,-702.56 224.66,-698.13"/>
</g>
<!-- Node23 -->
<g id="node23" class="node">
<title>Node23</title>
<g id="a_node23"><a xlink:href="classtracktion_1_1engine_1_1InsertPlugin.html" target="_top" xlink:title=" ">
<polygon fill="none" stroke="black" points="315,-735.5 315,-765.5 420,-765.5 420,-735.5 315,-735.5"/>
<text text-anchor="start" x="323" y="-753.5" font-family="Helvetica,sans-Serif" font-size="10.00">tracktion::engine::</text>
<text text-anchor="middle" x="367.5" y="-742.5" font-family="Helvetica,sans-Serif" font-size="10.00">InsertPlugin</text>
</a>
</g>
</g>
<!-- Node11&#45;&gt;Node23 -->
<g id="edge22" class="edge">
<title>Node11&#45;&gt;Node23</title>
<path fill="none" stroke="midnightblue" d="M241.47,-697.08C259.31,-706.13 281.06,-716.78 301,-725.5 308.81,-728.91 317.24,-732.33 325.38,-735.49"/>
<polygon fill="midnightblue" stroke="midnightblue" points="243.02,-693.94 232.52,-692.51 239.84,-700.17 243.02,-693.94"/>
</g>
<!-- Node24 -->
<g id="node24" class="node">
<title>Node24</title>
<g id="a_node24"><a xlink:href="classtracktion_1_1engine_1_1LatencyPlugin.html" target="_top" xlink:title="A test plugin that introduces latency to the incomming signal.">
<polygon fill="none" stroke="black" points="315,-686.5 315,-716.5 420,-716.5 420,-686.5 315,-686.5"/>
<text text-anchor="start" x="323" y="-704.5" font-family="Helvetica,sans-Serif" font-size="10.00">tracktion::engine::</text>
<text text-anchor="middle" x="367.5" y="-693.5" font-family="Helvetica,sans-Serif" font-size="10.00">LatencyPlugin</text>
</a>
</g>
</g>
<!-- Node11&#45;&gt;Node24 -->
<g id="edge23" class="edge">
<title>Node11&#45;&gt;Node24</title>
<path fill="none" stroke="midnightblue" d="M265.78,-686.62C281.97,-689.01 299.25,-691.57 314.85,-693.87"/>
<polygon fill="midnightblue" stroke="midnightblue" points="266.27,-683.16 255.86,-685.16 265.24,-690.08 266.27,-683.16"/>
</g>
<!-- Node25 -->
<g id="node25" class="node">
<title>Node25</title>
<g id="a_node25"><a xlink:href="classtracktion_1_1engine_1_1LevelMeterPlugin.html" target="_top" xlink:title=" ">
<polygon fill="none" stroke="black" points="315,-637.5 315,-667.5 420,-667.5 420,-637.5 315,-637.5"/>
<text text-anchor="start" x="323" y="-655.5" font-family="Helvetica,sans-Serif" font-size="10.00">tracktion::engine::</text>
<text text-anchor="middle" x="367.5" y="-644.5" font-family="Helvetica,sans-Serif" font-size="10.00">LevelMeterPlugin</text>
</a>
</g>
</g>
<!-- Node11&#45;&gt;Node25 -->
<g id="edge24" class="edge">
<title>Node11&#45;&gt;Node25</title>
<path fill="none" stroke="midnightblue" d="M265.78,-668C281.97,-665.51 299.25,-662.85 314.85,-660.45"/>
<polygon fill="midnightblue" stroke="midnightblue" points="265.21,-664.54 255.86,-669.52 266.28,-671.46 265.21,-664.54"/>
</g>
<!-- Node26 -->
<g id="node26" class="node">
<title>Node26</title>
<g id="a_node26"><a xlink:href="classtracktion_1_1engine_1_1LowPassPlugin.html" target="_top" xlink:title=" ">
<polygon fill="none" stroke="black" points="315,-588.5 315,-618.5 420,-618.5 420,-588.5 315,-588.5"/>
<text text-anchor="start" x="323" y="-606.5" font-family="Helvetica,sans-Serif" font-size="10.00">tracktion::engine::</text>
<text text-anchor="middle" x="367.5" y="-595.5" font-family="Helvetica,sans-Serif" font-size="10.00">LowPassPlugin</text>
</a>
</g>
</g>
<!-- Node11&#45;&gt;Node26 -->
<g id="edge25" class="edge">
<title>Node11&#45;&gt;Node26</title>
<path fill="none" stroke="midnightblue" d="M240.16,-657.5C258.18,-647.88 280.47,-636.51 301,-627.5 307.99,-624.43 315.5,-621.42 322.86,-618.63"/>
<polygon fill="midnightblue" stroke="midnightblue" points="238.3,-654.52 231.15,-662.35 241.62,-660.69 238.3,-654.52"/>
</g>
<!-- Node27 -->
<g id="node27" class="node">
<title>Node27</title>
<g id="a_node27"><a xlink:href="classtracktion_1_1engine_1_1MidiModifierPlugin.html" target="_top" xlink:title=" ">
<polygon fill="none" stroke="black" points="314,-539.5 314,-569.5 421,-569.5 421,-539.5 314,-539.5"/>
<text text-anchor="start" x="322" y="-557.5" font-family="Helvetica,sans-Serif" font-size="10.00">tracktion::engine::</text>
<text text-anchor="middle" x="367.5" y="-546.5" font-family="Helvetica,sans-Serif" font-size="10.00">MidiModifierPlugin</text>
</a>
</g>
</g>
<!-- Node11&#45;&gt;Node27 -->
<g id="edge26" class="edge">
<title>Node11&#45;&gt;Node27</title>
<path fill="none" stroke="midnightblue" d="M221.48,-654.45C239.33,-632.3 268.92,-599.22 301,-578.5 306.19,-575.15 311.91,-572.18 317.74,-569.58"/>
<polygon fill="midnightblue" stroke="midnightblue" points="218.68,-652.34 215.23,-662.36 224.17,-656.69 218.68,-652.34"/>
</g>
<!-- Node28 -->
<g id="node28" class="node">
<title>Node28</title>
<g id="a_node28"><a xlink:href="classtracktion_1_1engine_1_1MidiPatchBayPlugin.html" target="_top" xlink:title=" ">
<polygon fill="none" stroke="black" points="311,-490.5 311,-520.5 424,-520.5 424,-490.5 311,-490.5"/>
<text text-anchor="start" x="319" y="-508.5" font-family="Helvetica,sans-Serif" font-size="10.00">tracktion::engine::</text>
<text text-anchor="middle" x="367.5" y="-497.5" font-family="Helvetica,sans-Serif" font-size="10.00">MidiPatchBayPlugin</text>
</a>
</g>
</g>
<!-- Node11&#45;&gt;Node28 -->
<g id="edge27" class="edge">
<title>Node11&#45;&gt;Node28</title>
<path fill="none" stroke="midnightblue" d="M214.14,-652.92C228.75,-620.34 258.7,-563.08 301,-529.5 305.27,-526.11 310.06,-523.17 315.06,-520.63"/>
<polygon fill="midnightblue" stroke="midnightblue" points="210.89,-651.62 210.1,-662.18 217.3,-654.41 210.89,-651.62"/>
</g>
<!-- Node29 -->
<g id="node29" class="node">
<title>Node29</title>
<g id="a_node29"><a xlink:href="classtracktion_1_1engine_1_1PatchBayPlugin.html" target="_top" xlink:title=" ">
<polygon fill="none" stroke="black" points="315,-441.5 315,-471.5 420,-471.5 420,-441.5 315,-441.5"/>
<text text-anchor="start" x="323" y="-459.5" font-family="Helvetica,sans-Serif" font-size="10.00">tracktion::engine::</text>
<text text-anchor="middle" x="367.5" y="-448.5" font-family="Helvetica,sans-Serif" font-size="10.00">PatchBayPlugin</text>
</a>
</g>
</g>
<!-- Node11&#45;&gt;Node29 -->
<g id="edge28" class="edge">
<title>Node11&#45;&gt;Node29</title>
<path fill="none" stroke="midnightblue" d="M209.83,-652.5C220.74,-611.08 248.06,-528.09 301,-480.5 305.14,-476.78 309.91,-473.61 314.95,-470.94"/>
<polygon fill="midnightblue" stroke="midnightblue" points="206.41,-651.76 207.35,-662.32 213.19,-653.48 206.41,-651.76"/>
</g>
<!-- Node30 -->
<g id="node30" class="node">
<title>Node30</title>
<g id="a_node30"><a xlink:href="classtracktion_1_1engine_1_1PhaserPlugin.html" target="_top" xlink:title=" ">
<polygon fill="none" stroke="black" points="315,-392.5 315,-422.5 420,-422.5 420,-392.5 315,-392.5"/>
<text text-anchor="start" x="323" y="-410.5" font-family="Helvetica,sans-Serif" font-size="10.00">tracktion::engine::</text>
<text text-anchor="middle" x="367.5" y="-399.5" font-family="Helvetica,sans-Serif" font-size="10.00">PhaserPlugin</text>
</a>
</g>
</g>
<!-- Node11&#45;&gt;Node30 -->
<g id="edge29" class="edge">
<title>Node11&#45;&gt;Node30</title>
<path fill="none" stroke="midnightblue" d="M207.06,-652.38C214.35,-603.25 237.16,-493.8 301,-431.5 305.07,-427.52 309.86,-424.2 314.96,-421.42"/>
<polygon fill="midnightblue" stroke="midnightblue" points="203.57,-652.06 205.66,-662.45 210.51,-653.02 203.57,-652.06"/>
</g>
<!-- Node31 -->
<g id="node31" class="node">
<title>Node31</title>
<g id="a_node31"><a xlink:href="classtracktion_1_1engine_1_1PitchShiftPlugin.html" target="_top" xlink:title=" ">
<polygon fill="none" stroke="black" points="315,-343.5 315,-373.5 420,-373.5 420,-343.5 315,-343.5"/>
<text text-anchor="start" x="323" y="-361.5" font-family="Helvetica,sans-Serif" font-size="10.00">tracktion::engine::</text>
<text text-anchor="middle" x="367.5" y="-350.5" font-family="Helvetica,sans-Serif" font-size="10.00">PitchShiftPlugin</text>
</a>
</g>
</g>
<!-- Node11&#45;&gt;Node31 -->
<g id="edge30" class="edge">
<title>Node11&#45;&gt;Node31</title>
<path fill="none" stroke="midnightblue" d="M205.15,-652.19C209.06,-596.04 226.16,-459.89 301,-382.5 304.96,-378.41 309.67,-375.01 314.72,-372.19"/>
<polygon fill="midnightblue" stroke="midnightblue" points="201.65,-652.12 204.53,-662.31 208.64,-652.55 201.65,-652.12"/>
</g>
<!-- Node32 -->
<g id="node32" class="node">
<title>Node32</title>
<g id="a_node32"><a xlink:href="classtracktion_1_1engine_1_1RackInstance.html" target="_top" xlink:title=" ">
<polygon fill="none" stroke="black" points="315,-294.5 315,-324.5 420,-324.5 420,-294.5 315,-294.5"/>
<text text-anchor="start" x="323" y="-312.5" font-family="Helvetica,sans-Serif" font-size="10.00">tracktion::engine::</text>
<text text-anchor="middle" x="367.5" y="-301.5" font-family="Helvetica,sans-Serif" font-size="10.00">RackInstance</text>
</a>
</g>
</g>
<!-- Node11&#45;&gt;Node32 -->
<g id="edge31" class="edge">
<title>Node11&#45;&gt;Node32</title>
<path fill="none" stroke="midnightblue" d="M203.73,-652.4C204.43,-590.05 214.87,-426.47 301,-333.5 304.95,-329.24 309.72,-325.73 314.87,-322.84"/>
<polygon fill="midnightblue" stroke="midnightblue" points="200.23,-652.48 203.69,-662.5 207.23,-652.51 200.23,-652.48"/>
</g>
<!-- Node33 -->
<g id="node33" class="node">
<title>Node33</title>
<g id="a_node33"><a xlink:href="classtracktion_1_1engine_1_1ReverbPlugin.html" target="_top" xlink:title=" ">
<polygon fill="none" stroke="black" points="315,-245.5 315,-275.5 420,-275.5 420,-245.5 315,-245.5"/>
<text text-anchor="start" x="323" y="-263.5" font-family="Helvetica,sans-Serif" font-size="10.00">tracktion::engine::</text>
<text text-anchor="middle" x="367.5" y="-252.5" font-family="Helvetica,sans-Serif" font-size="10.00">ReverbPlugin</text>
</a>
</g>
</g>
<!-- Node11&#45;&gt;Node33 -->
<g id="edge32" class="edge">
<title>Node11&#45;&gt;Node33</title>
<path fill="none" stroke="midnightblue" d="M207.13,-652.14C217.23,-574.2 251.16,-340.1 301,-284.5 304.88,-280.17 309.61,-276.62 314.73,-273.71"/>
<polygon fill="midnightblue" stroke="midnightblue" points="203.66,-651.7 205.87,-662.06 210.6,-652.59 203.66,-651.7"/>
</g>
<!-- Node34 -->
<g id="node34" class="node">
<title>Node34</title>
<g id="a_node34"><a xlink:href="classtracktion_1_1engine_1_1SamplerPlugin.html" target="_top" xlink:title=" ">
<polygon fill="none" stroke="black" points="315,-196.5 315,-226.5 420,-226.5 420,-196.5 315,-196.5"/>
<text text-anchor="start" x="323" y="-214.5" font-family="Helvetica,sans-Serif" font-size="10.00">tracktion::engine::</text>
<text text-anchor="middle" x="367.5" y="-203.5" font-family="Helvetica,sans-Serif" font-size="10.00">SamplerPlugin</text>
</a>
</g>
</g>
<!-- Node11&#45;&gt;Node34 -->
<g id="edge33" class="edge">
<title>Node11&#45;&gt;Node34</title>
<path fill="none" stroke="midnightblue" d="M206.38,-652.1C214.77,-567.82 245.43,-299.14 301,-235.5 304.9,-231.03 309.71,-227.39 314.94,-224.43"/>
<polygon fill="midnightblue" stroke="midnightblue" points="202.9,-651.8 205.41,-662.09 209.86,-652.47 202.9,-651.8"/>
</g>
<!-- Node35 -->
<g id="node35" class="node">
<title>Node35</title>
<g id="a_node35"><a xlink:href="classtracktion_1_1engine_1_1TextPlugin.html" target="_top" xlink:title=" ">
<polygon fill="none" stroke="black" points="315,-147.5 315,-177.5 420,-177.5 420,-147.5 315,-147.5"/>
<text text-anchor="start" x="323" y="-165.5" font-family="Helvetica,sans-Serif" font-size="10.00">tracktion::engine::</text>
<text text-anchor="middle" x="367.5" y="-154.5" font-family="Helvetica,sans-Serif" font-size="10.00">TextPlugin</text>
</a>
</g>
</g>
<!-- Node11&#45;&gt;Node35 -->
<g id="edge34" class="edge">
<title>Node11&#45;&gt;Node35</title>
<path fill="none" stroke="midnightblue" d="M205.76,-652.31C212.53,-562.33 239.62,-258.3 301,-186.5 304.86,-181.99 309.64,-178.33 314.84,-175.35"/>
<polygon fill="midnightblue" stroke="midnightblue" points="202.26,-652.19 205.02,-662.42 209.24,-652.71 202.26,-652.19"/>
</g>
<!-- Node36 -->
<g id="node36" class="node">
<title>Node36</title>
<g id="a_node36"><a xlink:href="classtracktion_1_1engine_1_1ToneGeneratorPlugin.html" target="_top" xlink:title=" ">
<polygon fill="none" stroke="black" points="308.5,-98.5 308.5,-128.5 426.5,-128.5 426.5,-98.5 308.5,-98.5"/>
<text text-anchor="start" x="316.5" y="-116.5" font-family="Helvetica,sans-Serif" font-size="10.00">tracktion::engine::</text>
<text text-anchor="middle" x="367.5" y="-105.5" font-family="Helvetica,sans-Serif" font-size="10.00">ToneGeneratorPlugin</text>
</a>
</g>
</g>
<!-- Node11&#45;&gt;Node36 -->
<g id="edge35" class="edge">
<title>Node11&#45;&gt;Node36</title>
<path fill="none" stroke="midnightblue" d="M205.28,-652.02C210.61,-556.01 233.89,-217.39 301,-137.5 303.88,-134.07 307.3,-131.13 311.04,-128.61"/>
<polygon fill="midnightblue" stroke="midnightblue" points="201.78,-652.08 204.73,-662.26 208.77,-652.46 201.78,-652.08"/>
</g>
<!-- Node37 -->
<g id="node37" class="node">
<title>Node37</title>
<g id="a_node37"><a xlink:href="classtracktion_1_1engine_1_1VCAPlugin.html" target="_top" xlink:title="The VCA plugin sits on a folder track to control the overall level of all the volume/pan plugins in i...">
<polygon fill="none" stroke="black" points="315,-49.5 315,-79.5 420,-79.5 420,-49.5 315,-49.5"/>
<text text-anchor="start" x="323" y="-67.5" font-family="Helvetica,sans-Serif" font-size="10.00">tracktion::engine::</text>
<text text-anchor="middle" x="367.5" y="-56.5" font-family="Helvetica,sans-Serif" font-size="10.00">VCAPlugin</text>
</a>
</g>
</g>
<!-- Node11&#45;&gt;Node37 -->
<g id="edge36" class="edge">
<title>Node11&#45;&gt;Node37</title>
<path fill="none" stroke="midnightblue" d="M204.86,-652.05C208.79,-550.65 228.07,-176.61 301,-88.5 304.78,-83.93 309.52,-80.23 314.7,-77.23"/>
<polygon fill="midnightblue" stroke="midnightblue" points="201.36,-652.15 204.48,-662.28 208.35,-652.41 201.36,-652.15"/>
</g>
<!-- Node38 -->
<g id="node38" class="node">
<title>Node38</title>
<g id="a_node38"><a xlink:href="classtracktion_1_1engine_1_1VolumeAndPanPlugin.html" target="_top" xlink:title="The built&#45;in Tracktion volume/pan plugin.">
<polygon fill="none" stroke="black" points="308,-0.5 308,-30.5 427,-30.5 427,-0.5 308,-0.5"/>
<text text-anchor="start" x="316" y="-18.5" font-family="Helvetica,sans-Serif" font-size="10.00">tracktion::engine::</text>
<text text-anchor="middle" x="367.5" y="-7.5" font-family="Helvetica,sans-Serif" font-size="10.00">VolumeAndPanPlugin</text>
</a>
</g>
</g>
<!-- Node11&#45;&gt;Node38 -->
<g id="edge37" class="edge">
<title>Node11&#45;&gt;Node38</title>
<path fill="none" stroke="midnightblue" d="M204.5,-652.37C207.1,-546.26 222.16,-135.95 301,-39.5 303.84,-36.03 307.22,-33.06 310.94,-30.52"/>
<polygon fill="midnightblue" stroke="midnightblue" points="201,-652.39 204.27,-662.46 208,-652.55 201,-652.39"/>
</g>
</g>
</svg>
