<?xml version="1.0" encoding="UTF-8" standalone="no"?>
<!DOCTYPE svg PUBLIC "-//W3C//DTD SVG 1.1//EN"
 "http://www.w3.org/Graphics/SVG/1.1/DTD/svg11.dtd">
<!-- Generated by graphviz version 2.43.0 (0)
 -->
<!-- Title: tracktion::engine::SpeedRampAudioNode Pages: 1 -->
<svg width="136pt" height="173pt"
 viewBox="0.00 0.00 136.00 173.00" xmlns="http://www.w3.org/2000/svg" xmlns:xlink="http://www.w3.org/1999/xlink">
<g id="graph0" class="graph" transform="scale(1 1) rotate(0) translate(4 169)">
<title>tracktion::engine::SpeedRampAudioNode</title>
<!-- Node1 -->
<g id="node1" class="node">
<title>Node1</title>
<g id="a_node1"><a xlink:title="An AudioNode that speeds up and slows down its input node in/out at given times.">
<polygon fill="#bfbfbf" stroke="black" points="0,-0.5 0,-30.5 128,-30.5 128,-0.5 0,-0.5"/>
<text text-anchor="start" x="8" y="-18.5" font-family="Helvetica,sans-Serif" font-size="10.00">tracktion::engine::</text>
<text text-anchor="middle" x="64" y="-7.5" font-family="Helvetica,sans-Serif" font-size="10.00">SpeedRampAudioNode</text>
</a>
</g>
</g>
<!-- Node2 -->
<g id="node2" class="node">
<title>Node2</title>
<g id="a_node2"><a xlink:href="classtracktion_1_1engine_1_1SingleInputAudioNode.html" target="_top" xlink:title=" ">
<polygon fill="none" stroke="black" points="1.5,-67.5 1.5,-97.5 126.5,-97.5 126.5,-67.5 1.5,-67.5"/>
<text text-anchor="start" x="9.5" y="-85.5" font-family="Helvetica,sans-Serif" font-size="10.00">tracktion::engine::</text>
<text text-anchor="middle" x="64" y="-74.5" font-family="Helvetica,sans-Serif" font-size="10.00">SingleInputAudioNode</text>
</a>
</g>
</g>
<!-- Node2&#45;&gt;Node1 -->
<g id="edge1" class="edge">
<title>Node2&#45;&gt;Node1</title>
<path fill="none" stroke="midnightblue" d="M64,-57.11C64,-48.15 64,-38.32 64,-30.58"/>
<polygon fill="midnightblue" stroke="midnightblue" points="60.5,-57.4 64,-67.4 67.5,-57.4 60.5,-57.4"/>
</g>
<!-- Node3 -->
<g id="node3" class="node">
<title>Node3</title>
<g id="a_node3"><a xlink:href="classtracktion_1_1engine_1_1AudioNode.html" target="_top" xlink:title="Base class for nodes in an audio playback graph.">
<polygon fill="none" stroke="black" points="11.5,-134.5 11.5,-164.5 116.5,-164.5 116.5,-134.5 11.5,-134.5"/>
<text text-anchor="start" x="19.5" y="-152.5" font-family="Helvetica,sans-Serif" font-size="10.00">tracktion::engine::</text>
<text text-anchor="middle" x="64" y="-141.5" font-family="Helvetica,sans-Serif" font-size="10.00">AudioNode</text>
</a>
</g>
</g>
<!-- Node3&#45;&gt;Node2 -->
<g id="edge2" class="edge">
<title>Node3&#45;&gt;Node2</title>
<path fill="none" stroke="midnightblue" d="M64,-124.11C64,-115.15 64,-105.32 64,-97.58"/>
<polygon fill="midnightblue" stroke="midnightblue" points="60.5,-124.4 64,-134.4 67.5,-124.4 60.5,-124.4"/>
</g>
</g>
</svg>
