<?xml version="1.0" encoding="UTF-8" standalone="no"?>
<!DOCTYPE svg PUBLIC "-//W3C//DTD SVG 1.1//EN"
 "http://www.w3.org/Graphics/SVG/1.1/DTD/svg11.dtd">
<!-- Generated by graphviz version 2.43.0 (0)
 -->
<!-- Title: tracktion_engine::Exportable Pages: 1 -->
<svg width="761pt" height="1453pt"
 viewBox="0.00 0.00 761.00 1452.50" xmlns="http://www.w3.org/2000/svg" xmlns:xlink="http://www.w3.org/1999/xlink">
<g id="graph0" class="graph" transform="scale(1 1) rotate(0) translate(4 1448.5)">
<title>tracktion_engine::Exportable</title>
<!-- Node1 -->
<g id="node1" class="node">
<title>Node1</title>
<g id="a_node1"><a xlink:title="An interface for objects within an edit that can be exported.">
<polygon fill="#bfbfbf" stroke="black" points="0,-962 0,-981 157,-981 157,-962 0,-962"/>
<text text-anchor="middle" x="78.5" y="-969" font-family="Helvetica,sans-Serif" font-size="10.00">tracktion_engine::Exportable</text>
</a>
</g>
</g>
<!-- Node2 -->
<g id="node2" class="node">
<title>Node2</title>
<g id="a_node2"><a xlink:href="classtracktion__engine_1_1Clip.html" target="_top" xlink:title="A clip in an edit.">
<polygon fill="none" stroke="black" points="198.5,-1311 198.5,-1330 321.5,-1330 321.5,-1311 198.5,-1311"/>
<text text-anchor="middle" x="260" y="-1318" font-family="Helvetica,sans-Serif" font-size="10.00">tracktion_engine::Clip</text>
</a>
</g>
</g>
<!-- Node1&#45;&gt;Node2 -->
<g id="edge1" class="edge">
<title>Node1&#45;&gt;Node2</title>
<path fill="none" stroke="midnightblue" d="M89.1,-990.17C121.98,-1054.09 229.36,-1262.87 253.95,-1310.68"/>
<polygon fill="midnightblue" stroke="midnightblue" points="92.17,-988.49 84.49,-981.2 85.95,-991.69 92.17,-988.49"/>
</g>
<!-- Node11 -->
<g id="node11" class="node">
<title>Node11</title>
<g id="a_node11"><a xlink:href="classtracktion__engine_1_1Plugin.html" target="_top" xlink:title=" ">
<polygon fill="none" stroke="black" points="193,-613 193,-632 327,-632 327,-613 193,-613"/>
<text text-anchor="middle" x="260" y="-620" font-family="Helvetica,sans-Serif" font-size="10.00">tracktion_engine::Plugin</text>
</a>
</g>
</g>
<!-- Node1&#45;&gt;Node11 -->
<g id="edge10" class="edge">
<title>Node1&#45;&gt;Node11</title>
<path fill="none" stroke="midnightblue" d="M89.1,-952.83C121.98,-888.91 229.36,-680.13 253.95,-632.32"/>
<polygon fill="midnightblue" stroke="midnightblue" points="85.95,-951.31 84.49,-961.8 92.17,-954.51 85.95,-951.31"/>
</g>
<!-- Node3 -->
<g id="node3" class="node">
<title>Node3</title>
<g id="a_node3"><a xlink:href="classtracktion__engine_1_1ArrangerClip.html" target="_top" xlink:title=" ">
<polygon fill="none" stroke="black" points="368.5,-1425 368.5,-1444 533.5,-1444 533.5,-1425 368.5,-1425"/>
<text text-anchor="middle" x="451" y="-1432" font-family="Helvetica,sans-Serif" font-size="10.00">tracktion_engine::ArrangerClip</text>
</a>
</g>
</g>
<!-- Node2&#45;&gt;Node3 -->
<g id="edge2" class="edge">
<title>Node2&#45;&gt;Node3</title>
<path fill="none" stroke="midnightblue" d="M274.75,-1338.13C292.66,-1359.83 326.07,-1396.16 363,-1415.5 370.4,-1419.37 378.54,-1422.46 386.79,-1424.91"/>
<polygon fill="midnightblue" stroke="midnightblue" points="277.26,-1335.67 268.26,-1330.08 271.81,-1340.07 277.26,-1335.67"/>
</g>
<!-- Node4 -->
<g id="node4" class="node">
<title>Node4</title>
<g id="a_node4"><a xlink:href="classtracktion__engine_1_1AudioClipBase.html" target="_top" xlink:title="Base class for Clips that produce some kind of audio e.g.">
<polygon fill="none" stroke="black" points="363.5,-1387 363.5,-1406 538.5,-1406 538.5,-1387 363.5,-1387"/>
<text text-anchor="middle" x="451" y="-1394" font-family="Helvetica,sans-Serif" font-size="10.00">tracktion_engine::AudioClipBase</text>
</a>
</g>
</g>
<!-- Node2&#45;&gt;Node4 -->
<g id="edge3" class="edge">
<title>Node2&#45;&gt;Node4</title>
<path fill="none" stroke="midnightblue" d="M283.3,-1335.51C303.36,-1348.38 334.05,-1366.53 363,-1377.5 372.98,-1381.28 383.89,-1384.4 394.52,-1386.95"/>
<polygon fill="midnightblue" stroke="midnightblue" points="285.16,-1332.55 274.88,-1330.01 281.34,-1338.41 285.16,-1332.55"/>
</g>
<!-- Node7 -->
<g id="node7" class="node">
<title>Node7</title>
<g id="a_node7"><a xlink:href="classtracktion__engine_1_1ChordClip.html" target="_top" xlink:title=" ">
<polygon fill="none" stroke="black" points="375,-1349 375,-1368 527,-1368 527,-1349 375,-1349"/>
<text text-anchor="middle" x="451" y="-1356" font-family="Helvetica,sans-Serif" font-size="10.00">tracktion_engine::ChordClip</text>
</a>
</g>
</g>
<!-- Node2&#45;&gt;Node7 -->
<g id="edge6" class="edge">
<title>Node2&#45;&gt;Node7</title>
<path fill="none" stroke="midnightblue" d="M318.74,-1332.11C345.62,-1337.51 377.2,-1343.86 402.65,-1348.98"/>
<polygon fill="midnightblue" stroke="midnightblue" points="319.19,-1328.63 308.69,-1330.09 317.81,-1335.49 319.19,-1328.63"/>
</g>
<!-- Node8 -->
<g id="node8" class="node">
<title>Node8</title>
<g id="a_node8"><a xlink:href="classtracktion__engine_1_1MarkerClip.html" target="_top" xlink:title=" ">
<polygon fill="none" stroke="black" points="372.5,-1311 372.5,-1330 529.5,-1330 529.5,-1311 372.5,-1311"/>
<text text-anchor="middle" x="451" y="-1318" font-family="Helvetica,sans-Serif" font-size="10.00">tracktion_engine::MarkerClip</text>
</a>
</g>
</g>
<!-- Node2&#45;&gt;Node8 -->
<g id="edge7" class="edge">
<title>Node2&#45;&gt;Node8</title>
<path fill="none" stroke="midnightblue" d="M331.62,-1320.5C344.95,-1320.5 358.95,-1320.5 372.48,-1320.5"/>
<polygon fill="midnightblue" stroke="midnightblue" points="331.58,-1317 321.58,-1320.5 331.58,-1324 331.58,-1317"/>
</g>
<!-- Node9 -->
<g id="node9" class="node">
<title>Node9</title>
<g id="a_node9"><a xlink:href="classtracktion__engine_1_1MidiClip.html" target="_top" xlink:title=" ">
<polygon fill="none" stroke="black" points="379,-1273 379,-1292 523,-1292 523,-1273 379,-1273"/>
<text text-anchor="middle" x="451" y="-1280" font-family="Helvetica,sans-Serif" font-size="10.00">tracktion_engine::MidiClip</text>
</a>
</g>
</g>
<!-- Node2&#45;&gt;Node9 -->
<g id="edge8" class="edge">
<title>Node2&#45;&gt;Node9</title>
<path fill="none" stroke="midnightblue" d="M318.74,-1308.89C345.62,-1303.49 377.2,-1297.14 402.65,-1292.02"/>
<polygon fill="midnightblue" stroke="midnightblue" points="317.81,-1305.51 308.69,-1310.91 319.19,-1312.37 317.81,-1305.51"/>
</g>
<!-- Node10 -->
<g id="node10" class="node">
<title>Node10</title>
<g id="a_node10"><a xlink:href="classtracktion__engine_1_1StepClip.html" target="_top" xlink:title=" ">
<polygon fill="none" stroke="black" points="378.5,-1235 378.5,-1254 523.5,-1254 523.5,-1235 378.5,-1235"/>
<text text-anchor="middle" x="451" y="-1242" font-family="Helvetica,sans-Serif" font-size="10.00">tracktion_engine::StepClip</text>
</a>
</g>
</g>
<!-- Node2&#45;&gt;Node10 -->
<g id="edge9" class="edge">
<title>Node2&#45;&gt;Node10</title>
<path fill="none" stroke="midnightblue" d="M283.3,-1305.49C303.36,-1292.62 334.05,-1274.47 363,-1263.5 372.98,-1259.72 383.89,-1256.6 394.52,-1254.05"/>
<polygon fill="midnightblue" stroke="midnightblue" points="281.34,-1302.59 274.88,-1310.99 285.16,-1308.45 281.34,-1302.59"/>
</g>
<!-- Node5 -->
<g id="node5" class="node">
<title>Node5</title>
<g id="a_node5"><a xlink:href="classtracktion__engine_1_1EditClip.html" target="_top" xlink:title="This is the main source of an Edit clip and is responsible for managing its properties and creating a...">
<polygon fill="none" stroke="black" points="593,-1406 593,-1425 735,-1425 735,-1406 593,-1406"/>
<text text-anchor="middle" x="664" y="-1413" font-family="Helvetica,sans-Serif" font-size="10.00">tracktion_engine::EditClip</text>
</a>
</g>
</g>
<!-- Node4&#45;&gt;Node5 -->
<g id="edge4" class="edge">
<title>Node4&#45;&gt;Node5</title>
<path fill="none" stroke="midnightblue" d="M548.9,-1405.23C563.66,-1406.55 578.64,-1407.9 592.69,-1409.17"/>
<polygon fill="midnightblue" stroke="midnightblue" points="549.01,-1401.72 538.74,-1404.31 548.38,-1408.69 549.01,-1401.72"/>
</g>
<!-- Node6 -->
<g id="node6" class="node">
<title>Node6</title>
<g id="a_node6"><a xlink:href="classtracktion__engine_1_1WaveAudioClip.html" target="_top" xlink:title=" ">
<polygon fill="none" stroke="black" points="575,-1368 575,-1387 753,-1387 753,-1368 575,-1368"/>
<text text-anchor="middle" x="664" y="-1375" font-family="Helvetica,sans-Serif" font-size="10.00">tracktion_engine::WaveAudioClip</text>
</a>
</g>
</g>
<!-- Node4&#45;&gt;Node6 -->
<g id="edge5" class="edge">
<title>Node4&#45;&gt;Node6</title>
<path fill="none" stroke="midnightblue" d="M548.87,-1387.78C557.55,-1387 566.3,-1386.21 574.9,-1385.43"/>
<polygon fill="midnightblue" stroke="midnightblue" points="548.38,-1384.31 538.74,-1388.69 549.01,-1391.28 548.38,-1384.31"/>
</g>
<!-- Node12 -->
<g id="node12" class="node">
<title>Node12</title>
<g id="a_node12"><a xlink:href="classtracktion__engine_1_1AirWindowsPlugin.html" target="_top" xlink:title=" ">
<polygon fill="none" stroke="black" points="370,-1185.5 370,-1215.5 532,-1215.5 532,-1185.5 370,-1185.5"/>
<text text-anchor="start" x="378" y="-1203.5" font-family="Helvetica,sans-Serif" font-size="10.00">tracktion_engine::AirWindows</text>
<text text-anchor="middle" x="451" y="-1192.5" font-family="Helvetica,sans-Serif" font-size="10.00">Plugin</text>
</a>
</g>
</g>
<!-- Node11&#45;&gt;Node12 -->
<g id="edge11" class="edge">
<title>Node11&#45;&gt;Node12</title>
<path fill="none" stroke="midnightblue" d="M261.93,-642.26C266.51,-731.3 289.48,-1094.45 363,-1175.5 366.48,-1179.34 370.52,-1182.61 374.9,-1185.38"/>
<polygon fill="midnightblue" stroke="midnightblue" points="265.42,-641.99 261.43,-632.18 258.43,-642.34 265.42,-641.99"/>
</g>
<!-- Node13 -->
<g id="node13" class="node">
<title>Node13</title>
<g id="a_node13"><a xlink:href="classtracktion__engine_1_1AuxReturnPlugin.html" target="_top" xlink:title=" ">
<polygon fill="none" stroke="black" points="373.5,-1136.5 373.5,-1166.5 528.5,-1166.5 528.5,-1136.5 373.5,-1136.5"/>
<text text-anchor="start" x="381.5" y="-1154.5" font-family="Helvetica,sans-Serif" font-size="10.00">tracktion_engine::AuxReturn</text>
<text text-anchor="middle" x="451" y="-1143.5" font-family="Helvetica,sans-Serif" font-size="10.00">Plugin</text>
</a>
</g>
</g>
<!-- Node11&#45;&gt;Node13 -->
<g id="edge12" class="edge">
<title>Node11&#45;&gt;Node13</title>
<path fill="none" stroke="midnightblue" d="M262.32,-642.35C268.31,-726.58 295.63,-1053.5 363,-1126.5 366.52,-1130.31 370.57,-1133.56 374.97,-1136.31"/>
<polygon fill="midnightblue" stroke="midnightblue" points="265.79,-641.86 261.61,-632.12 258.81,-642.34 265.79,-641.86"/>
</g>
<!-- Node14 -->
<g id="node14" class="node">
<title>Node14</title>
<g id="a_node14"><a xlink:href="classtracktion__engine_1_1AuxSendPlugin.html" target="_top" xlink:title=" ">
<polygon fill="none" stroke="black" points="377.5,-1087.5 377.5,-1117.5 524.5,-1117.5 524.5,-1087.5 377.5,-1087.5"/>
<text text-anchor="start" x="385.5" y="-1105.5" font-family="Helvetica,sans-Serif" font-size="10.00">tracktion_engine::AuxSend</text>
<text text-anchor="middle" x="451" y="-1094.5" font-family="Helvetica,sans-Serif" font-size="10.00">Plugin</text>
</a>
</g>
</g>
<!-- Node11&#45;&gt;Node14 -->
<g id="edge13" class="edge">
<title>Node11&#45;&gt;Node14</title>
<path fill="none" stroke="midnightblue" d="M262.79,-642.42C270.31,-721.54 301.75,-1012.5 363,-1077.5 367.1,-1081.85 371.89,-1085.45 377.09,-1088.44"/>
<polygon fill="midnightblue" stroke="midnightblue" points="266.27,-641.96 261.86,-632.33 259.3,-642.61 266.27,-641.96"/>
</g>
<!-- Node15 -->
<g id="node15" class="node">
<title>Node15</title>
<g id="a_node15"><a xlink:href="classtracktion__engine_1_1ChorusPlugin.html" target="_top" xlink:title=" ">
<polygon fill="none" stroke="black" points="382,-1038.5 382,-1068.5 520,-1068.5 520,-1038.5 382,-1038.5"/>
<text text-anchor="start" x="390" y="-1056.5" font-family="Helvetica,sans-Serif" font-size="10.00">tracktion_engine::Chorus</text>
<text text-anchor="middle" x="451" y="-1045.5" font-family="Helvetica,sans-Serif" font-size="10.00">Plugin</text>
</a>
</g>
</g>
<!-- Node11&#45;&gt;Node15 -->
<g id="edge14" class="edge">
<title>Node11&#45;&gt;Node15</title>
<path fill="none" stroke="midnightblue" d="M263.39,-642.59C272.58,-716.43 307.86,-971.47 363,-1028.5 368.35,-1034.04 374.84,-1038.37 381.84,-1041.76"/>
<polygon fill="midnightblue" stroke="midnightblue" points="266.83,-641.86 262.14,-632.35 259.88,-642.7 266.83,-641.86"/>
</g>
<!-- Node16 -->
<g id="node16" class="node">
<title>Node16</title>
<g id="a_node16"><a xlink:href="classtracktion__engine_1_1CompressorPlugin.html" target="_top" xlink:title=" ">
<polygon fill="none" stroke="black" points="369.5,-989.5 369.5,-1019.5 532.5,-1019.5 532.5,-989.5 369.5,-989.5"/>
<text text-anchor="start" x="377.5" y="-1007.5" font-family="Helvetica,sans-Serif" font-size="10.00">tracktion_engine::Compressor</text>
<text text-anchor="middle" x="451" y="-996.5" font-family="Helvetica,sans-Serif" font-size="10.00">Plugin</text>
</a>
</g>
</g>
<!-- Node11&#45;&gt;Node16 -->
<g id="edge15" class="edge">
<title>Node11&#45;&gt;Node16</title>
<path fill="none" stroke="midnightblue" d="M260.44,-642.45C259.9,-702.45 266.71,-883.07 363,-979.5 366.89,-983.39 371.34,-986.69 376.12,-989.48"/>
<polygon fill="midnightblue" stroke="midnightblue" points="263.95,-642.18 260.63,-632.11 256.95,-642.05 263.95,-642.18"/>
</g>
<!-- Node17 -->
<g id="node17" class="node">
<title>Node17</title>
<g id="a_node17"><a xlink:href="classtracktion__engine_1_1DelayPlugin.html" target="_top" xlink:title=" ">
<polygon fill="none" stroke="black" points="369.5,-951 369.5,-970 532.5,-970 532.5,-951 369.5,-951"/>
<text text-anchor="middle" x="451" y="-958" font-family="Helvetica,sans-Serif" font-size="10.00">tracktion_engine::DelayPlugin</text>
</a>
</g>
</g>
<!-- Node11&#45;&gt;Node17 -->
<g id="edge16" class="edge">
<title>Node11&#45;&gt;Node17</title>
<path fill="none" stroke="midnightblue" d="M261.03,-642.33C262.24,-698.25 273.72,-858.46 363,-940.5 367.68,-944.8 373.09,-948.23 378.88,-950.97"/>
<polygon fill="midnightblue" stroke="midnightblue" points="264.52,-642 260.9,-632.04 257.52,-642.09 264.52,-642"/>
</g>
<!-- Node18 -->
<g id="node18" class="node">
<title>Node18</title>
<g id="a_node18"><a xlink:href="classtracktion__engine_1_1EqualiserPlugin.html" target="_top" xlink:title=" ">
<polygon fill="none" stroke="black" points="376.5,-901.5 376.5,-931.5 525.5,-931.5 525.5,-901.5 376.5,-901.5"/>
<text text-anchor="start" x="384.5" y="-919.5" font-family="Helvetica,sans-Serif" font-size="10.00">tracktion_engine::Equaliser</text>
<text text-anchor="middle" x="451" y="-908.5" font-family="Helvetica,sans-Serif" font-size="10.00">Plugin</text>
</a>
</g>
</g>
<!-- Node11&#45;&gt;Node18 -->
<g id="edge17" class="edge">
<title>Node11&#45;&gt;Node18</title>
<path fill="none" stroke="midnightblue" d="M262.56,-642C267.57,-691.34 287.66,-822.14 363,-891.5 367.16,-895.33 371.87,-898.58 376.9,-901.33"/>
<polygon fill="midnightblue" stroke="midnightblue" points="266.04,-641.66 261.64,-632.02 259.07,-642.3 266.04,-641.66"/>
</g>
<!-- Node19 -->
<g id="node19" class="node">
<title>Node19</title>
<g id="a_node19"><a xlink:href="classtracktion__engine_1_1ExternalPlugin.html" target="_top" xlink:title=" ">
<polygon fill="none" stroke="black" points="378.5,-852.5 378.5,-882.5 523.5,-882.5 523.5,-852.5 378.5,-852.5"/>
<text text-anchor="start" x="386.5" y="-870.5" font-family="Helvetica,sans-Serif" font-size="10.00">tracktion_engine::External</text>
<text text-anchor="middle" x="451" y="-859.5" font-family="Helvetica,sans-Serif" font-size="10.00">Plugin</text>
</a>
</g>
</g>
<!-- Node11&#45;&gt;Node19 -->
<g id="edge18" class="edge">
<title>Node11&#45;&gt;Node19</title>
<path fill="none" stroke="midnightblue" d="M264.43,-642.13C272.98,-685.09 299.31,-787.95 363,-842.5 367.66,-846.49 372.91,-849.84 378.48,-852.66"/>
<polygon fill="midnightblue" stroke="midnightblue" points="267.84,-641.31 262.55,-632.12 260.96,-642.6 267.84,-641.31"/>
</g>
<!-- Node20 -->
<g id="node20" class="node">
<title>Node20</title>
<g id="a_node20"><a xlink:href="classtracktion__engine_1_1FourOscPlugin.html" target="_top" xlink:title=" ">
<polygon fill="none" stroke="black" points="379.5,-803.5 379.5,-833.5 522.5,-833.5 522.5,-803.5 379.5,-803.5"/>
<text text-anchor="start" x="387.5" y="-821.5" font-family="Helvetica,sans-Serif" font-size="10.00">tracktion_engine::FourOsc</text>
<text text-anchor="middle" x="451" y="-810.5" font-family="Helvetica,sans-Serif" font-size="10.00">Plugin</text>
</a>
</g>
</g>
<!-- Node11&#45;&gt;Node20 -->
<g id="edge19" class="edge">
<title>Node11&#45;&gt;Node20</title>
<path fill="none" stroke="midnightblue" d="M267.23,-642.06C279.59,-677.68 310.64,-753.16 363,-793.5 367.98,-797.34 373.53,-800.58 379.34,-803.33"/>
<polygon fill="midnightblue" stroke="midnightblue" points="270.48,-640.74 263.99,-632.37 263.84,-642.96 270.48,-640.74"/>
</g>
<!-- Node21 -->
<g id="node21" class="node">
<title>Node21</title>
<g id="a_node21"><a xlink:href="classtracktion__engine_1_1FreezePointPlugin.html" target="_top" xlink:title=" ">
<polygon fill="none" stroke="black" points="382.5,-754.5 382.5,-784.5 519.5,-784.5 519.5,-754.5 382.5,-754.5"/>
<text text-anchor="start" x="390.5" y="-772.5" font-family="Helvetica,sans-Serif" font-size="10.00">tracktion_engine::Freeze</text>
<text text-anchor="middle" x="451" y="-761.5" font-family="Helvetica,sans-Serif" font-size="10.00">PointPlugin</text>
</a>
</g>
</g>
<!-- Node11&#45;&gt;Node21 -->
<g id="edge20" class="edge">
<title>Node11&#45;&gt;Node21</title>
<path fill="none" stroke="midnightblue" d="M271.41,-640.85C287.55,-667.65 321.17,-717.27 363,-744.5 368.93,-748.36 375.46,-751.63 382.2,-754.41"/>
<polygon fill="midnightblue" stroke="midnightblue" points="274.35,-638.94 266.27,-632.09 268.31,-642.49 274.35,-638.94"/>
</g>
<!-- Node22 -->
<g id="node22" class="node">
<title>Node22</title>
<g id="a_node22"><a xlink:href="classtracktion__engine_1_1InsertPlugin.html" target="_top" xlink:title=" ">
<polygon fill="none" stroke="black" points="385,-705.5 385,-735.5 517,-735.5 517,-705.5 385,-705.5"/>
<text text-anchor="start" x="393" y="-723.5" font-family="Helvetica,sans-Serif" font-size="10.00">tracktion_engine::Insert</text>
<text text-anchor="middle" x="451" y="-712.5" font-family="Helvetica,sans-Serif" font-size="10.00">Plugin</text>
</a>
</g>
</g>
<!-- Node11&#45;&gt;Node22 -->
<g id="edge21" class="edge">
<title>Node11&#45;&gt;Node22</title>
<path fill="none" stroke="midnightblue" d="M279.62,-638.84C299.17,-655.25 331.41,-680.22 363,-695.5 370.78,-699.26 379.23,-702.56 387.71,-705.43"/>
<polygon fill="midnightblue" stroke="midnightblue" points="281.69,-636.01 271.82,-632.18 277.15,-641.34 281.69,-636.01"/>
</g>
<!-- Node23 -->
<g id="node23" class="node">
<title>Node23</title>
<g id="a_node23"><a xlink:href="classtracktion__engine_1_1LatencyPlugin.html" target="_top" xlink:title="A test plugin that introduces latency to the incomming signal.">
<polygon fill="none" stroke="black" points="379.5,-656.5 379.5,-686.5 522.5,-686.5 522.5,-656.5 379.5,-656.5"/>
<text text-anchor="start" x="387.5" y="-674.5" font-family="Helvetica,sans-Serif" font-size="10.00">tracktion_engine::Latency</text>
<text text-anchor="middle" x="451" y="-663.5" font-family="Helvetica,sans-Serif" font-size="10.00">Plugin</text>
</a>
</g>
</g>
<!-- Node11&#45;&gt;Node23 -->
<g id="edge22" class="edge">
<title>Node11&#45;&gt;Node23</title>
<path fill="none" stroke="midnightblue" d="M307.68,-634.6C333.16,-641.21 364.94,-649.45 392,-656.46"/>
<polygon fill="midnightblue" stroke="midnightblue" points="308.45,-631.19 297.89,-632.06 306.69,-637.96 308.45,-631.19"/>
</g>
<!-- Node24 -->
<g id="node24" class="node">
<title>Node24</title>
<g id="a_node24"><a xlink:href="classtracktion__engine_1_1LevelMeterPlugin.html" target="_top" xlink:title=" ">
<polygon fill="none" stroke="black" points="371.5,-607.5 371.5,-637.5 530.5,-637.5 530.5,-607.5 371.5,-607.5"/>
<text text-anchor="start" x="379.5" y="-625.5" font-family="Helvetica,sans-Serif" font-size="10.00">tracktion_engine::LevelMeter</text>
<text text-anchor="middle" x="451" y="-614.5" font-family="Helvetica,sans-Serif" font-size="10.00">Plugin</text>
</a>
</g>
</g>
<!-- Node11&#45;&gt;Node24 -->
<g id="edge23" class="edge">
<title>Node11&#45;&gt;Node24</title>
<path fill="none" stroke="midnightblue" d="M337.27,-622.5C348.47,-622.5 360.03,-622.5 371.28,-622.5"/>
<polygon fill="midnightblue" stroke="midnightblue" points="337.1,-619 327.1,-622.5 337.1,-626 337.1,-619"/>
</g>
<!-- Node25 -->
<g id="node25" class="node">
<title>Node25</title>
<g id="a_node25"><a xlink:href="classtracktion__engine_1_1LowPassPlugin.html" target="_top" xlink:title=" ">
<polygon fill="none" stroke="black" points="378,-558.5 378,-588.5 524,-588.5 524,-558.5 378,-558.5"/>
<text text-anchor="start" x="386" y="-576.5" font-family="Helvetica,sans-Serif" font-size="10.00">tracktion_engine::LowPass</text>
<text text-anchor="middle" x="451" y="-565.5" font-family="Helvetica,sans-Serif" font-size="10.00">Plugin</text>
</a>
</g>
</g>
<!-- Node11&#45;&gt;Node25 -->
<g id="edge24" class="edge">
<title>Node11&#45;&gt;Node25</title>
<path fill="none" stroke="midnightblue" d="M307.68,-610.4C333.16,-603.79 364.94,-595.55 392,-588.54"/>
<polygon fill="midnightblue" stroke="midnightblue" points="306.69,-607.04 297.89,-612.94 308.45,-613.81 306.69,-607.04"/>
</g>
<!-- Node26 -->
<g id="node26" class="node">
<title>Node26</title>
<g id="a_node26"><a xlink:href="classtracktion__engine_1_1MidiModifierPlugin.html" target="_top" xlink:title=" ">
<polygon fill="none" stroke="black" points="368.5,-509.5 368.5,-539.5 533.5,-539.5 533.5,-509.5 368.5,-509.5"/>
<text text-anchor="start" x="376.5" y="-527.5" font-family="Helvetica,sans-Serif" font-size="10.00">tracktion_engine::MidiModifier</text>
<text text-anchor="middle" x="451" y="-516.5" font-family="Helvetica,sans-Serif" font-size="10.00">Plugin</text>
</a>
</g>
</g>
<!-- Node11&#45;&gt;Node26 -->
<g id="edge25" class="edge">
<title>Node11&#45;&gt;Node26</title>
<path fill="none" stroke="midnightblue" d="M279.23,-606.12C298.69,-589.42 331.06,-563.87 363,-548.5 370.06,-545.1 377.68,-542.12 385.37,-539.51"/>
<polygon fill="midnightblue" stroke="midnightblue" points="276.71,-603.67 271.48,-612.88 281.32,-608.94 276.71,-603.67"/>
</g>
<!-- Node27 -->
<g id="node27" class="node">
<title>Node27</title>
<g id="a_node27"><a xlink:href="classtracktion__engine_1_1MidiPatchBayPlugin.html" target="_top" xlink:title=" ">
<polygon fill="none" stroke="black" points="375,-460.5 375,-490.5 527,-490.5 527,-460.5 375,-460.5"/>
<text text-anchor="start" x="383" y="-478.5" font-family="Helvetica,sans-Serif" font-size="10.00">tracktion_engine::MidiPatch</text>
<text text-anchor="middle" x="451" y="-467.5" font-family="Helvetica,sans-Serif" font-size="10.00">BayPlugin</text>
</a>
</g>
</g>
<!-- Node11&#45;&gt;Node27 -->
<g id="edge26" class="edge">
<title>Node11&#45;&gt;Node27</title>
<path fill="none" stroke="midnightblue" d="M271.33,-603.94C287.38,-576.85 320.88,-526.73 363,-499.5 368.26,-496.1 374.01,-493.17 379.95,-490.66"/>
<polygon fill="midnightblue" stroke="midnightblue" points="268.19,-602.39 266.22,-612.8 274.25,-605.88 268.19,-602.39"/>
</g>
<!-- Node28 -->
<g id="node28" class="node">
<title>Node28</title>
<g id="a_node28"><a xlink:href="classtracktion__engine_1_1PatchBayPlugin.html" target="_top" xlink:title=" ">
<polygon fill="none" stroke="black" points="376.5,-411.5 376.5,-441.5 525.5,-441.5 525.5,-411.5 376.5,-411.5"/>
<text text-anchor="start" x="384.5" y="-429.5" font-family="Helvetica,sans-Serif" font-size="10.00">tracktion_engine::PatchBay</text>
<text text-anchor="middle" x="451" y="-418.5" font-family="Helvetica,sans-Serif" font-size="10.00">Plugin</text>
</a>
</g>
</g>
<!-- Node11&#45;&gt;Node28 -->
<g id="edge27" class="edge">
<title>Node11&#45;&gt;Node28</title>
<path fill="none" stroke="midnightblue" d="M266.98,-603.28C279.1,-567.58 310,-490.99 363,-450.5 367.48,-447.08 372.42,-444.14 377.61,-441.62"/>
<polygon fill="midnightblue" stroke="midnightblue" points="263.6,-602.37 263.82,-612.96 270.25,-604.54 263.6,-602.37"/>
</g>
<!-- Node29 -->
<g id="node29" class="node">
<title>Node29</title>
<g id="a_node29"><a xlink:href="classtracktion__engine_1_1PhaserPlugin.html" target="_top" xlink:title=" ">
<polygon fill="none" stroke="black" points="382.5,-362.5 382.5,-392.5 519.5,-392.5 519.5,-362.5 382.5,-362.5"/>
<text text-anchor="start" x="390.5" y="-380.5" font-family="Helvetica,sans-Serif" font-size="10.00">tracktion_engine::Phaser</text>
<text text-anchor="middle" x="451" y="-369.5" font-family="Helvetica,sans-Serif" font-size="10.00">Plugin</text>
</a>
</g>
</g>
<!-- Node11&#45;&gt;Node29 -->
<g id="edge28" class="edge">
<title>Node11&#45;&gt;Node29</title>
<path fill="none" stroke="midnightblue" d="M264.36,-602.73C272.76,-559.48 298.82,-455.97 363,-401.5 368.73,-396.63 375.38,-392.75 382.38,-389.65"/>
<polygon fill="midnightblue" stroke="midnightblue" points="260.87,-602.34 262.51,-612.81 267.76,-603.6 260.87,-602.34"/>
</g>
<!-- Node30 -->
<g id="node30" class="node">
<title>Node30</title>
<g id="a_node30"><a xlink:href="classtracktion__engine_1_1PitchShiftPlugin.html" target="_top" xlink:title=" ">
<polygon fill="none" stroke="black" points="376,-313.5 376,-343.5 526,-343.5 526,-313.5 376,-313.5"/>
<text text-anchor="start" x="384" y="-331.5" font-family="Helvetica,sans-Serif" font-size="10.00">tracktion_engine::PitchShift</text>
<text text-anchor="middle" x="451" y="-320.5" font-family="Helvetica,sans-Serif" font-size="10.00">Plugin</text>
</a>
</g>
</g>
<!-- Node11&#45;&gt;Node30 -->
<g id="edge29" class="edge">
<title>Node11&#45;&gt;Node30</title>
<path fill="none" stroke="midnightblue" d="M262.49,-602.88C267.35,-553.25 287.09,-421.73 363,-352.5 366.82,-349.02 371.1,-346.03 375.66,-343.48"/>
<polygon fill="midnightblue" stroke="midnightblue" points="259,-602.66 261.61,-612.92 265.97,-603.27 259,-602.66"/>
</g>
<!-- Node31 -->
<g id="node31" class="node">
<title>Node31</title>
<g id="a_node31"><a xlink:href="classtracktion__engine_1_1RackInstance.html" target="_top" xlink:title=" ">
<polygon fill="none" stroke="black" points="366,-275 366,-294 536,-294 536,-275 366,-275"/>
<text text-anchor="middle" x="451" y="-282" font-family="Helvetica,sans-Serif" font-size="10.00">tracktion_engine::RackInstance</text>
</a>
</g>
</g>
<!-- Node11&#45;&gt;Node31 -->
<g id="edge30" class="edge">
<title>Node11&#45;&gt;Node31</title>
<path fill="none" stroke="midnightblue" d="M260.96,-602.56C262,-546.34 273.06,-385.32 363,-303.5 367.12,-299.75 371.8,-296.69 376.8,-294.18"/>
<polygon fill="midnightblue" stroke="midnightblue" points="257.46,-602.87 260.87,-612.9 264.46,-602.93 257.46,-602.87"/>
</g>
<!-- Node32 -->
<g id="node32" class="node">
<title>Node32</title>
<g id="a_node32"><a xlink:href="classtracktion__engine_1_1ReverbPlugin.html" target="_top" xlink:title=" ">
<polygon fill="none" stroke="black" points="381.5,-225.5 381.5,-255.5 520.5,-255.5 520.5,-225.5 381.5,-225.5"/>
<text text-anchor="start" x="389.5" y="-243.5" font-family="Helvetica,sans-Serif" font-size="10.00">tracktion_engine::Reverb</text>
<text text-anchor="middle" x="451" y="-232.5" font-family="Helvetica,sans-Serif" font-size="10.00">Plugin</text>
</a>
</g>
</g>
<!-- Node11&#45;&gt;Node32 -->
<g id="edge31" class="edge">
<title>Node11&#45;&gt;Node32</title>
<path fill="none" stroke="midnightblue" d="M260.44,-602.55C259.9,-542.55 266.71,-361.93 363,-265.5 368.22,-260.27 374.45,-256.12 381.16,-252.83"/>
<polygon fill="midnightblue" stroke="midnightblue" points="256.95,-602.95 260.63,-612.89 263.95,-602.82 256.95,-602.95"/>
</g>
<!-- Node33 -->
<g id="node33" class="node">
<title>Node33</title>
<g id="a_node33"><a xlink:href="classtracktion__engine_1_1SamplerPlugin.html" target="_top" xlink:title=" ">
<polygon fill="none" stroke="black" points="378.5,-176.5 378.5,-206.5 523.5,-206.5 523.5,-176.5 378.5,-176.5"/>
<text text-anchor="start" x="386.5" y="-194.5" font-family="Helvetica,sans-Serif" font-size="10.00">tracktion_engine::Sampler</text>
<text text-anchor="middle" x="451" y="-183.5" font-family="Helvetica,sans-Serif" font-size="10.00">Plugin</text>
</a>
</g>
</g>
<!-- Node11&#45;&gt;Node33 -->
<g id="edge32" class="edge">
<title>Node11&#45;&gt;Node33</title>
<path fill="none" stroke="midnightblue" d="M263.31,-602.82C272.31,-529.37 307.32,-272.51 363,-215.5 367.49,-210.9 372.77,-207.16 378.48,-204.13"/>
<polygon fill="midnightblue" stroke="midnightblue" points="259.81,-602.63 262.09,-612.98 266.76,-603.47 259.81,-602.63"/>
</g>
<!-- Node34 -->
<g id="node34" class="node">
<title>Node34</title>
<g id="a_node34"><a xlink:href="classtracktion__engine_1_1TextPlugin.html" target="_top" xlink:title=" ">
<polygon fill="none" stroke="black" points="373.5,-138 373.5,-157 528.5,-157 528.5,-138 373.5,-138"/>
<text text-anchor="middle" x="451" y="-145" font-family="Helvetica,sans-Serif" font-size="10.00">tracktion_engine::TextPlugin</text>
</a>
</g>
</g>
<!-- Node11&#45;&gt;Node34 -->
<g id="edge33" class="edge">
<title>Node11&#45;&gt;Node34</title>
<path fill="none" stroke="midnightblue" d="M262.62,-602.94C269.57,-523.96 299.42,-229.76 363,-166.5 366.73,-162.79 371,-159.73 375.6,-157.22"/>
<polygon fill="midnightblue" stroke="midnightblue" points="259.13,-602.72 261.76,-612.98 266.1,-603.31 259.13,-602.72"/>
</g>
<!-- Node35 -->
<g id="node35" class="node">
<title>Node35</title>
<g id="a_node35"><a xlink:href="classtracktion__engine_1_1ToneGeneratorPlugin.html" target="_top" xlink:title=" ">
<polygon fill="none" stroke="black" points="363,-88.5 363,-118.5 539,-118.5 539,-88.5 363,-88.5"/>
<text text-anchor="start" x="371" y="-106.5" font-family="Helvetica,sans-Serif" font-size="10.00">tracktion_engine::ToneGenerator</text>
<text text-anchor="middle" x="451" y="-95.5" font-family="Helvetica,sans-Serif" font-size="10.00">Plugin</text>
</a>
</g>
</g>
<!-- Node11&#45;&gt;Node35 -->
<g id="edge34" class="edge">
<title>Node11&#45;&gt;Node35</title>
<path fill="none" stroke="midnightblue" d="M262.42,-602.51C268.73,-519.1 296.92,-199.82 363,-128.5 366.52,-124.7 370.59,-121.46 374.99,-118.7"/>
<polygon fill="midnightblue" stroke="midnightblue" points="258.92,-602.43 261.67,-612.66 265.9,-602.95 258.92,-602.43"/>
</g>
<!-- Node36 -->
<g id="node36" class="node">
<title>Node36</title>
<g id="a_node36"><a xlink:href="classtracktion__engine_1_1VCAPlugin.html" target="_top" xlink:title="The VCA plugin sits on a folder track to control the overall level of all the volume/pan plugins in i...">
<polygon fill="none" stroke="black" points="373.5,-50 373.5,-69 528.5,-69 528.5,-50 373.5,-50"/>
<text text-anchor="middle" x="451" y="-57" font-family="Helvetica,sans-Serif" font-size="10.00">tracktion_engine::VCAPlugin</text>
</a>
</g>
</g>
<!-- Node11&#45;&gt;Node36 -->
<g id="edge35" class="edge">
<title>Node11&#45;&gt;Node36</title>
<path fill="none" stroke="midnightblue" d="M261.87,-602.68C266.18,-514.13 288.06,-155.7 363,-78.5 366.66,-74.73 370.88,-71.62 375.46,-69.07"/>
<polygon fill="midnightblue" stroke="midnightblue" points="258.36,-602.77 261.4,-612.93 265.36,-603.1 258.36,-602.77"/>
</g>
<!-- Node37 -->
<g id="node37" class="node">
<title>Node37</title>
<g id="a_node37"><a xlink:href="classtracktion__engine_1_1VolumeAndPanPlugin.html" target="_top" xlink:title="The built&#45;in Tracktion volume/pan plugin.">
<polygon fill="none" stroke="black" points="380.5,-0.5 380.5,-30.5 521.5,-30.5 521.5,-0.5 380.5,-0.5"/>
<text text-anchor="start" x="388.5" y="-18.5" font-family="Helvetica,sans-Serif" font-size="10.00">tracktion_engine::Volume</text>
<text text-anchor="middle" x="451" y="-7.5" font-family="Helvetica,sans-Serif" font-size="10.00">AndPanPlugin</text>
</a>
</g>
</g>
<!-- Node11&#45;&gt;Node37 -->
<g id="edge36" class="edge">
<title>Node11&#45;&gt;Node37</title>
<path fill="none" stroke="midnightblue" d="M261.74,-602.59C265.54,-510.46 285.89,-126.28 363,-40.5 367.83,-35.12 373.74,-30.87 380.17,-27.52"/>
<polygon fill="midnightblue" stroke="midnightblue" points="258.23,-602.64 261.34,-612.77 265.23,-602.91 258.23,-602.64"/>
</g>
</g>
</svg>
