<?xml version="1.0" encoding="UTF-8" standalone="no"?>
<!DOCTYPE svg PUBLIC "-//W3C//DTD SVG 1.1//EN"
 "http://www.w3.org/Graphics/SVG/1.1/DTD/svg11.dtd">
<!-- Generated by graphviz version 2.43.0 (0)
 -->
<!-- Title: tracktion::engine::WaveInputDeviceNode Pages: 1 -->
<svg width="268pt" height="115pt"
 viewBox="0.00 0.00 267.50 115.00" xmlns="http://www.w3.org/2000/svg" xmlns:xlink="http://www.w3.org/1999/xlink">
<g id="graph0" class="graph" transform="scale(1 1) rotate(0) translate(4 111)">
<title>tracktion::engine::WaveInputDeviceNode</title>
<!-- Node1 -->
<g id="Node000001" class="node">
<title>Node1</title>
<g id="a_Node000001"><a xlink:title="A Node that intercepts incoming live audio and inserts it in to the playback graph.">
<polygon fill="#999999" stroke="#666666" points="195.5,-30 67.5,-30 67.5,0 195.5,0 195.5,-30"/>
<text text-anchor="start" x="75.5" y="-18" font-family="Helvetica,sans-Serif" font-size="10.00">tracktion::engine::</text>
<text text-anchor="middle" x="131.5" y="-7" font-family="Helvetica,sans-Serif" font-size="10.00">WaveInputDeviceNode</text>
</a>
</g>
</g>
<!-- Node2 -->
<g id="Node000002" class="node">
<title>Node2</title>
<g id="a_Node000002"><a xlink:href="classtracktion_1_1graph_1_1Node.html" target="_top" xlink:title="Main graph Node processor class.">
<polygon fill="white" stroke="#666666" points="125,-96 0,-96 0,-77 125,-77 125,-96"/>
<text text-anchor="middle" x="62.5" y="-84" font-family="Helvetica,sans-Serif" font-size="10.00">tracktion::graph::Node</text>
</a>
</g>
</g>
<!-- Node2&#45;&gt;Node1 -->
<g id="edge1_Node000001_Node000002" class="edge">
<title>Node2&#45;&gt;Node1</title>
<g id="a_edge1_Node000001_Node000002"><a xlink:title=" ">
<path fill="none" stroke="#63b8ff" d="M78.02,-69.87C89.85,-57.95 106.01,-41.67 117.46,-30.14"/>
<polygon fill="#63b8ff" stroke="#63b8ff" points="75.52,-67.42 70.96,-76.98 80.49,-72.35 75.52,-67.42"/>
</a>
</g>
</g>
<!-- Node3 -->
<g id="Node000003" class="node">
<title>Node3</title>
<g id="a_Node000003"><a xlink:href="structtracktion_1_1engine_1_1InputDeviceInstance_1_1Consumer.html" target="_top" xlink:title="Base class for classes that want to listen to an InputDevice and get a callback for each block of inp...">
<polygon fill="white" stroke="#666666" points="259.5,-107 143.5,-107 143.5,-66 259.5,-66 259.5,-107"/>
<text text-anchor="start" x="151.5" y="-95" font-family="Helvetica,sans-Serif" font-size="10.00">tracktion::engine::</text>
<text text-anchor="start" x="151.5" y="-84" font-family="Helvetica,sans-Serif" font-size="10.00">InputDeviceInstance</text>
<text text-anchor="middle" x="201.5" y="-73" font-family="Helvetica,sans-Serif" font-size="10.00">::Consumer</text>
</a>
</g>
</g>
<!-- Node3&#45;&gt;Node1 -->
<g id="edge2_Node000001_Node000003" class="edge">
<title>Node3&#45;&gt;Node1</title>
<g id="a_edge2_Node000001_Node000003"><a xlink:title=" ">
<path fill="none" stroke="#63b8ff" d="M174.35,-58.55C164.55,-48.81 153.88,-38.22 145.64,-30.04"/>
<polygon fill="#63b8ff" stroke="#63b8ff" points="172.07,-61.21 181.63,-65.77 177,-56.24 172.07,-61.21"/>
</a>
</g>
</g>
</g>
</svg>
