<?xml version="1.0" encoding="UTF-8" standalone="no"?>
<!DOCTYPE svg PUBLIC "-//W3C//DTD SVG 1.1//EN"
 "http://www.w3.org/Graphics/SVG/1.1/DTD/svg11.dtd">
<!-- Generated by graphviz version 2.43.0 (0)
 -->
<!-- Title: tracktion::engine::TracktionEngineNode Pages: 1 -->
<svg width="339pt" height="774pt"
 viewBox="0.00 0.00 339.00 774.00" xmlns="http://www.w3.org/2000/svg" xmlns:xlink="http://www.w3.org/1999/xlink">
<g id="graph0" class="graph" transform="scale(1 1) rotate(0) translate(4 770)">
<title>tracktion::engine::TracktionEngineNode</title>
<!-- Node1 -->
<g id="node1" class="node">
<title>Node1</title>
<g id="a_node1"><a xlink:title="Base class for Nodes that provides information about the current process call.">
<polygon fill="#bfbfbf" stroke="black" points="0,-367.5 0,-397.5 119,-397.5 119,-367.5 0,-367.5"/>
<text text-anchor="start" x="8" y="-385.5" font-family="Helvetica,sans-Serif" font-size="10.00">tracktion::engine::</text>
<text text-anchor="middle" x="59.5" y="-374.5" font-family="Helvetica,sans-Serif" font-size="10.00">TracktionEngineNode</text>
</a>
</g>
</g>
<!-- Node2 -->
<g id="node2" class="node">
<title>Node2</title>
<g id="a_node2"><a xlink:href="classtracktion_1_1engine_1_1ArrangerLauncherSwitchingNode.html" target="_top" xlink:title="A Node that switches between two of its inputs based on a flag.">
<polygon fill="none" stroke="black" points="155,-735.5 155,-765.5 331,-765.5 331,-735.5 155,-735.5"/>
<text text-anchor="start" x="163" y="-753.5" font-family="Helvetica,sans-Serif" font-size="10.00">tracktion::engine::</text>
<text text-anchor="middle" x="243" y="-742.5" font-family="Helvetica,sans-Serif" font-size="10.00">ArrangerLauncherSwitchingNode</text>
</a>
</g>
</g>
<!-- Node1&#45;&gt;Node2 -->
<g id="edge1" class="edge">
<title>Node1&#45;&gt;Node2</title>
<path fill="none" stroke="midnightblue" d="M59.56,-408.03C58.7,-471.36 65.6,-637.01 155,-726.5 158.43,-729.94 162.31,-732.89 166.47,-735.43"/>
<polygon fill="midnightblue" stroke="midnightblue" points="63.07,-407.84 59.79,-397.77 56.07,-407.69 63.07,-407.84"/>
</g>
<!-- Node3 -->
<g id="node3" class="node">
<title>Node3</title>
<g id="a_node3"><a xlink:href="classtracktion_1_1engine_1_1CombiningNode.html" target="_top" xlink:title="An Node that mixes a sequence of clips of other nodes.">
<polygon fill="none" stroke="black" points="190.5,-686.5 190.5,-716.5 295.5,-716.5 295.5,-686.5 190.5,-686.5"/>
<text text-anchor="start" x="198.5" y="-704.5" font-family="Helvetica,sans-Serif" font-size="10.00">tracktion::engine::</text>
<text text-anchor="middle" x="243" y="-693.5" font-family="Helvetica,sans-Serif" font-size="10.00">CombiningNode</text>
</a>
</g>
</g>
<!-- Node1&#45;&gt;Node3 -->
<g id="edge2" class="edge">
<title>Node1&#45;&gt;Node3</title>
<path fill="none" stroke="midnightblue" d="M60.94,-407.85C63.35,-464.64 77.35,-602.96 155,-677.5 164.61,-686.72 177.43,-692.47 190.26,-696.03"/>
<polygon fill="midnightblue" stroke="midnightblue" points="64.43,-407.49 60.6,-397.62 57.44,-407.73 64.43,-407.49"/>
</g>
<!-- Node4 -->
<g id="node4" class="node">
<title>Node4</title>
<g id="a_node4"><a xlink:href="classtracktion_1_1engine_1_1ContainerClipNode.html" target="_top" xlink:title=" ">
<polygon fill="none" stroke="black" points="189,-637.5 189,-667.5 297,-667.5 297,-637.5 189,-637.5"/>
<text text-anchor="start" x="197" y="-655.5" font-family="Helvetica,sans-Serif" font-size="10.00">tracktion::engine::</text>
<text text-anchor="middle" x="243" y="-644.5" font-family="Helvetica,sans-Serif" font-size="10.00">ContainerClipNode</text>
</a>
</g>
</g>
<!-- Node1&#45;&gt;Node4 -->
<g id="edge3" class="edge">
<title>Node1&#45;&gt;Node4</title>
<path fill="none" stroke="midnightblue" d="M62.8,-407.71C68.72,-457.47 88.99,-568.64 155,-628.5 164.4,-637.03 176.56,-642.56 188.8,-646.14"/>
<polygon fill="midnightblue" stroke="midnightblue" points="66.26,-407.09 61.69,-397.53 59.3,-407.85 66.26,-407.09"/>
</g>
<!-- Node5 -->
<g id="node5" class="node">
<title>Node5</title>
<g id="a_node5"><a xlink:href="classtracktion_1_1engine_1_1DynamicOffsetNode.html" target="_top" xlink:title=" ">
<polygon fill="none" stroke="black" points="185.5,-588.5 185.5,-618.5 300.5,-618.5 300.5,-588.5 185.5,-588.5"/>
<text text-anchor="start" x="193.5" y="-606.5" font-family="Helvetica,sans-Serif" font-size="10.00">tracktion::engine::</text>
<text text-anchor="middle" x="243" y="-595.5" font-family="Helvetica,sans-Serif" font-size="10.00">DynamicOffsetNode</text>
</a>
</g>
</g>
<!-- Node1&#45;&gt;Node5 -->
<g id="edge4" class="edge">
<title>Node1&#45;&gt;Node5</title>
<path fill="none" stroke="midnightblue" d="M65.5,-407.67C75.19,-449.67 100.52,-533.95 155,-579.5 163.65,-586.74 174.32,-591.8 185.19,-595.34"/>
<polygon fill="midnightblue" stroke="midnightblue" points="68.88,-406.73 63.32,-397.71 62.04,-408.23 68.88,-406.73"/>
</g>
<!-- Node6 -->
<g id="node6" class="node">
<title>Node6</title>
<g id="a_node6"><a xlink:href="classtracktion_1_1engine_1_1FadeInOutNode.html" target="_top" xlink:title="A Node that fades in and out given time regions.">
<polygon fill="none" stroke="black" points="190.5,-539.5 190.5,-569.5 295.5,-569.5 295.5,-539.5 190.5,-539.5"/>
<text text-anchor="start" x="198.5" y="-557.5" font-family="Helvetica,sans-Serif" font-size="10.00">tracktion::engine::</text>
<text text-anchor="middle" x="243" y="-546.5" font-family="Helvetica,sans-Serif" font-size="10.00">FadeInOutNode</text>
</a>
</g>
</g>
<!-- Node1&#45;&gt;Node6 -->
<g id="edge5" class="edge">
<title>Node1&#45;&gt;Node6</title>
<path fill="none" stroke="midnightblue" d="M69.61,-407.09C83.12,-440.16 111.66,-498.51 155,-530.5 165.34,-538.13 177.98,-543.33 190.39,-546.88"/>
<polygon fill="midnightblue" stroke="midnightblue" points="72.82,-405.71 65.89,-397.69 66.31,-408.28 72.82,-405.71"/>
</g>
<!-- Node7 -->
<g id="node7" class="node">
<title>Node7</title>
<g id="a_node7"><a xlink:href="classtracktion_1_1engine_1_1HostedMidiInputDeviceNode.html" target="_top" xlink:title="A Node that intercepts MIDI from a plugin callback and inserts it in to the playback graph.">
<polygon fill="none" stroke="black" points="165,-490.5 165,-520.5 321,-520.5 321,-490.5 165,-490.5"/>
<text text-anchor="start" x="173" y="-508.5" font-family="Helvetica,sans-Serif" font-size="10.00">tracktion::engine::</text>
<text text-anchor="middle" x="243" y="-497.5" font-family="Helvetica,sans-Serif" font-size="10.00">HostedMidiInputDeviceNode</text>
</a>
</g>
</g>
<!-- Node1&#45;&gt;Node7 -->
<g id="edge6" class="edge">
<title>Node1&#45;&gt;Node7</title>
<path fill="none" stroke="#8b1a1a" d="M76.76,-405.76C93.75,-428.36 122.45,-462.04 155,-481.5 160.78,-484.96 167.08,-487.93 173.55,-490.48"/>
<polygon fill="#8b1a1a" stroke="#8b1a1a" points="79.58,-403.68 70.84,-397.69 73.93,-407.82 79.58,-403.68"/>
</g>
<!-- Node8 -->
<g id="node8" class="node">
<title>Node8</title>
<g id="a_node8"><a xlink:href="classtracktion_1_1engine_1_1LoopingMidiNode.html" target="_top" xlink:title="A Node that plays MIDI data from a MidiMessageSequence, at a specific MIDI channel.">
<polygon fill="none" stroke="black" points="190.5,-441.5 190.5,-471.5 295.5,-471.5 295.5,-441.5 190.5,-441.5"/>
<text text-anchor="start" x="198.5" y="-459.5" font-family="Helvetica,sans-Serif" font-size="10.00">tracktion::engine::</text>
<text text-anchor="middle" x="243" y="-448.5" font-family="Helvetica,sans-Serif" font-size="10.00">LoopingMidiNode</text>
</a>
</g>
</g>
<!-- Node1&#45;&gt;Node8 -->
<g id="edge7" class="edge">
<title>Node1&#45;&gt;Node8</title>
<path fill="none" stroke="midnightblue" d="M94.24,-402.65C111.9,-412.6 134.14,-424.22 155,-432.5 166.21,-436.95 178.55,-440.9 190.32,-444.24"/>
<polygon fill="midnightblue" stroke="midnightblue" points="95.87,-399.56 85.46,-397.63 92.4,-405.63 95.87,-399.56"/>
</g>
<!-- Node9 -->
<g id="node9" class="node">
<title>Node9</title>
<g id="a_node9"><a xlink:href="classtracktion_1_1engine_1_1MidiNode.html" target="_top" xlink:title="A Node that plays MIDI data from a MidiMessageSequence, at a specific MIDI channel.">
<polygon fill="none" stroke="black" points="190.5,-392.5 190.5,-422.5 295.5,-422.5 295.5,-392.5 190.5,-392.5"/>
<text text-anchor="start" x="198.5" y="-410.5" font-family="Helvetica,sans-Serif" font-size="10.00">tracktion::engine::</text>
<text text-anchor="middle" x="243" y="-399.5" font-family="Helvetica,sans-Serif" font-size="10.00">MidiNode</text>
</a>
</g>
</g>
<!-- Node1&#45;&gt;Node9 -->
<g id="edge8" class="edge">
<title>Node1&#45;&gt;Node9</title>
<path fill="none" stroke="midnightblue" d="M129.28,-391.97C149.51,-394.76 171.28,-397.76 190.25,-400.37"/>
<polygon fill="midnightblue" stroke="midnightblue" points="129.56,-388.48 119.18,-390.58 128.61,-395.41 129.56,-388.48"/>
</g>
<!-- Node10 -->
<g id="node10" class="node">
<title>Node10</title>
<g id="a_node10"><a xlink:href="classtracktion_1_1engine_1_1PlayHeadPositionNode.html" target="_top" xlink:title="A Node that calculates a position to show visually what time is currently being processed by the grap...">
<polygon fill="none" stroke="black" points="179,-343.5 179,-373.5 307,-373.5 307,-343.5 179,-343.5"/>
<text text-anchor="start" x="187" y="-361.5" font-family="Helvetica,sans-Serif" font-size="10.00">tracktion::engine::</text>
<text text-anchor="middle" x="243" y="-350.5" font-family="Helvetica,sans-Serif" font-size="10.00">PlayHeadPositionNode</text>
</a>
</g>
</g>
<!-- Node1&#45;&gt;Node10 -->
<g id="edge9" class="edge">
<title>Node1&#45;&gt;Node10</title>
<path fill="none" stroke="midnightblue" d="M129.17,-373.42C145.47,-371.26 162.79,-368.97 178.83,-366.85"/>
<polygon fill="midnightblue" stroke="midnightblue" points="128.63,-369.96 119.18,-374.74 129.55,-376.9 128.63,-369.96"/>
</g>
<!-- Node11 -->
<g id="node11" class="node">
<title>Node11</title>
<g id="a_node11"><a xlink:href="classtracktion_1_1engine_1_1PluginNode.html" target="_top" xlink:title="Node for processing a plugin.">
<polygon fill="none" stroke="black" points="190.5,-294.5 190.5,-324.5 295.5,-324.5 295.5,-294.5 190.5,-294.5"/>
<text text-anchor="start" x="198.5" y="-312.5" font-family="Helvetica,sans-Serif" font-size="10.00">tracktion::engine::</text>
<text text-anchor="middle" x="243" y="-301.5" font-family="Helvetica,sans-Serif" font-size="10.00">PluginNode</text>
</a>
</g>
</g>
<!-- Node1&#45;&gt;Node11 -->
<g id="edge10" class="edge">
<title>Node1&#45;&gt;Node11</title>
<path fill="none" stroke="midnightblue" d="M95.98,-362.45C113.4,-353.14 134.92,-342.4 155,-334.5 166.26,-330.07 178.62,-326.04 190.39,-322.58"/>
<polygon fill="midnightblue" stroke="midnightblue" points="93.88,-359.61 86.76,-367.46 97.22,-365.76 93.88,-359.61"/>
</g>
<!-- Node12 -->
<g id="node12" class="node">
<title>Node12</title>
<g id="a_node12"><a xlink:href="classtracktion_1_1engine_1_1SlotControlNode.html" target="_top" xlink:title=" ">
<polygon fill="none" stroke="black" points="190.5,-245.5 190.5,-275.5 295.5,-275.5 295.5,-245.5 190.5,-245.5"/>
<text text-anchor="start" x="198.5" y="-263.5" font-family="Helvetica,sans-Serif" font-size="10.00">tracktion::engine::</text>
<text text-anchor="middle" x="243" y="-252.5" font-family="Helvetica,sans-Serif" font-size="10.00">SlotControlNode</text>
</a>
</g>
</g>
<!-- Node1&#45;&gt;Node12 -->
<g id="edge11" class="edge">
<title>Node1&#45;&gt;Node12</title>
<path fill="none" stroke="midnightblue" d="M77.42,-359.13C94.59,-337.06 123.12,-304.57 155,-285.5 165.79,-279.05 178.33,-274.18 190.48,-270.55"/>
<polygon fill="midnightblue" stroke="midnightblue" points="74.47,-357.24 71.2,-367.32 80.04,-361.47 74.47,-357.24"/>
</g>
<!-- Node13 -->
<g id="node13" class="node">
<title>Node13</title>
<g id="a_node13"><a xlink:href="classtracktion_1_1engine_1_1SpeedRampWaveNode.html" target="_top" xlink:title="An Node that plays back a wave file.">
<polygon fill="none" stroke="black" points="179,-196.5 179,-226.5 307,-226.5 307,-196.5 179,-196.5"/>
<text text-anchor="start" x="187" y="-214.5" font-family="Helvetica,sans-Serif" font-size="10.00">tracktion::engine::</text>
<text text-anchor="middle" x="243" y="-203.5" font-family="Helvetica,sans-Serif" font-size="10.00">SpeedRampWaveNode</text>
</a>
</g>
</g>
<!-- Node1&#45;&gt;Node13 -->
<g id="edge12" class="edge">
<title>Node1&#45;&gt;Node13</title>
<path fill="none" stroke="midnightblue" d="M69.96,-357.81C83.72,-325.17 112.36,-268.12 155,-236.5 162.07,-231.26 170.21,-227.11 178.61,-223.84"/>
<polygon fill="midnightblue" stroke="midnightblue" points="66.7,-356.52 66.16,-367.1 73.18,-359.16 66.7,-356.52"/>
</g>
<!-- Node14 -->
<g id="node14" class="node">
<title>Node14</title>
<g id="a_node14"><a xlink:href="classtracktion_1_1engine_1_1TrackMidiInputDeviceNode.html" target="_top" xlink:title="A Node that takes MIDI from the output of a track and sends it to its corresponding InputDevice.">
<polygon fill="none" stroke="black" points="169.5,-147.5 169.5,-177.5 316.5,-177.5 316.5,-147.5 169.5,-147.5"/>
<text text-anchor="start" x="177.5" y="-165.5" font-family="Helvetica,sans-Serif" font-size="10.00">tracktion::engine::</text>
<text text-anchor="middle" x="243" y="-154.5" font-family="Helvetica,sans-Serif" font-size="10.00">TrackMidiInputDeviceNode</text>
</a>
</g>
</g>
<!-- Node1&#45;&gt;Node14 -->
<g id="edge13" class="edge">
<title>Node1&#45;&gt;Node14</title>
<path fill="none" stroke="#8b1a1a" d="M65.63,-357.65C75.51,-316.15 101.12,-232.85 155,-187.5 159.57,-183.65 164.7,-180.4 170.12,-177.64"/>
<polygon fill="#8b1a1a" stroke="#8b1a1a" points="62.2,-356.95 63.4,-367.48 69.03,-358.5 62.2,-356.95"/>
</g>
<!-- Node15 -->
<g id="node15" class="node">
<title>Node15</title>
<g id="a_node15"><a xlink:href="classtracktion_1_1engine_1_1TrackWaveInputDeviceNode.html" target="_top" xlink:title="A Node that takes audio from the output of a track and sends it to its corresponding InputDevice.">
<polygon fill="none" stroke="black" points="166.5,-98.5 166.5,-128.5 319.5,-128.5 319.5,-98.5 166.5,-98.5"/>
<text text-anchor="start" x="174.5" y="-116.5" font-family="Helvetica,sans-Serif" font-size="10.00">tracktion::engine::</text>
<text text-anchor="middle" x="243" y="-105.5" font-family="Helvetica,sans-Serif" font-size="10.00">TrackWaveInputDeviceNode</text>
</a>
</g>
</g>
<!-- Node1&#45;&gt;Node15 -->
<g id="edge14" class="edge">
<title>Node1&#45;&gt;Node15</title>
<path fill="none" stroke="#8b1a1a" d="M62.97,-357.19C69.16,-307.77 89.85,-198.05 155,-138.5 159.18,-134.68 163.9,-131.44 168.93,-128.7"/>
<polygon fill="#8b1a1a" stroke="#8b1a1a" points="59.47,-356.99 61.8,-367.32 66.42,-357.79 59.47,-356.99"/>
</g>
<!-- Node16 -->
<g id="node16" class="node">
<title>Node16</title>
<g id="a_node16"><a xlink:href="classtracktion_1_1engine_1_1WaveNode.html" target="_top" xlink:title="An Node that plays back a wave file.">
<polygon fill="none" stroke="black" points="190.5,-49.5 190.5,-79.5 295.5,-79.5 295.5,-49.5 190.5,-49.5"/>
<text text-anchor="start" x="198.5" y="-67.5" font-family="Helvetica,sans-Serif" font-size="10.00">tracktion::engine::</text>
<text text-anchor="middle" x="243" y="-56.5" font-family="Helvetica,sans-Serif" font-size="10.00">WaveNode</text>
</a>
</g>
</g>
<!-- Node1&#45;&gt;Node16 -->
<g id="edge15" class="edge">
<title>Node1&#45;&gt;Node16</title>
<path fill="none" stroke="midnightblue" d="M61.08,-356.98C63.77,-300.44 78.33,-163.75 155,-89.5 164.6,-80.21 177.41,-74.33 190.25,-70.62"/>
<polygon fill="midnightblue" stroke="midnightblue" points="57.57,-357.05 60.68,-367.18 64.57,-357.32 57.57,-357.05"/>
</g>
<!-- Node17 -->
<g id="node17" class="node">
<title>Node17</title>
<g id="a_node17"><a xlink:href="classtracktion_1_1engine_1_1WaveNodeRealTime.html" target="_top" xlink:title="An Node that plays back a wave file.">
<polygon fill="none" stroke="black" points="185,-0.5 185,-30.5 301,-30.5 301,-0.5 185,-0.5"/>
<text text-anchor="start" x="193" y="-18.5" font-family="Helvetica,sans-Serif" font-size="10.00">tracktion::engine::</text>
<text text-anchor="middle" x="243" y="-7.5" font-family="Helvetica,sans-Serif" font-size="10.00">WaveNodeRealTime</text>
</a>
</g>
</g>
<!-- Node1&#45;&gt;Node17 -->
<g id="edge16" class="edge">
<title>Node1&#45;&gt;Node17</title>
<path fill="none" stroke="midnightblue" d="M59.67,-357.17C59.06,-294.34 66.49,-129.91 155,-40.5 163.07,-32.35 173.61,-26.81 184.56,-23.06"/>
<polygon fill="midnightblue" stroke="midnightblue" points="56.18,-357.42 59.85,-367.36 63.18,-357.29 56.18,-357.42"/>
</g>
</g>
</svg>
