<?xml version="1.0" encoding="UTF-8" standalone="no"?>
<!DOCTYPE svg PUBLIC "-//W3C//DTD SVG 1.1//EN"
 "http://www.w3.org/Graphics/SVG/1.1/DTD/svg11.dtd">
<!-- Generated by graphviz version 2.43.0 (0)
 -->
<!-- Title: tracktion::engine::MacroParameterElement Pages: 1 -->
<svg width="599pt" height="1558pt"
 viewBox="0.00 0.00 599.00 1558.00" xmlns="http://www.w3.org/2000/svg" xmlns:xlink="http://www.w3.org/1999/xlink">
<g id="graph0" class="graph" transform="scale(1 1) rotate(0) translate(4 1554)">
<title>tracktion::engine::MacroParameterElement</title>
<!-- Node1 -->
<g id="node1" class="node">
<title>Node1</title>
<g id="a_node1"><a xlink:title="Base class for elements which can contain macro parameters.">
<polygon fill="#bfbfbf" stroke="black" points="0,-832.5 0,-862.5 137,-862.5 137,-832.5 0,-832.5"/>
<text text-anchor="start" x="8" y="-850.5" font-family="Helvetica,sans-Serif" font-size="10.00">tracktion::engine::</text>
<text text-anchor="middle" x="68.5" y="-839.5" font-family="Helvetica,sans-Serif" font-size="10.00">MacroParameterElement</text>
</a>
</g>
</g>
<!-- Node2 -->
<g id="node2" class="node">
<title>Node2</title>
<g id="a_node2"><a xlink:href="structtracktion_1_1engine_1_1Edit_1_1GlobalMacros.html" target="_top" xlink:title="Holds the global Macros for the Edit.">
<polygon fill="none" stroke="black" points="173,-906.5 173,-936.5 281,-936.5 281,-906.5 173,-906.5"/>
<text text-anchor="start" x="181" y="-924.5" font-family="Helvetica,sans-Serif" font-size="10.00">tracktion::engine::</text>
<text text-anchor="middle" x="227" y="-913.5" font-family="Helvetica,sans-Serif" font-size="10.00">Edit::GlobalMacros</text>
</a>
</g>
</g>
<!-- Node1&#45;&gt;Node2 -->
<g id="edge1" class="edge">
<title>Node1&#45;&gt;Node2</title>
<path fill="none" stroke="midnightblue" d="M109.26,-866.99C128.47,-876.34 151.87,-887.62 173,-897.5 179.22,-900.41 185.88,-903.47 192.3,-906.39"/>
<polygon fill="midnightblue" stroke="midnightblue" points="110.72,-863.81 100.2,-862.58 107.66,-870.1 110.72,-863.81"/>
</g>
<!-- Node3 -->
<g id="node3" class="node">
<title>Node3</title>
<g id="a_node3"><a xlink:href="classtracktion_1_1engine_1_1Plugin.html" target="_top" xlink:title=" ">
<polygon fill="none" stroke="black" points="174.5,-857.5 174.5,-887.5 279.5,-887.5 279.5,-857.5 174.5,-857.5"/>
<text text-anchor="start" x="182.5" y="-875.5" font-family="Helvetica,sans-Serif" font-size="10.00">tracktion::engine::</text>
<text text-anchor="middle" x="227" y="-864.5" font-family="Helvetica,sans-Serif" font-size="10.00">Plugin</text>
</a>
</g>
</g>
<!-- Node1&#45;&gt;Node3 -->
<g id="edge2" class="edge">
<title>Node1&#45;&gt;Node3</title>
<path fill="none" stroke="midnightblue" d="M147.16,-859.91C156.33,-861.37 165.52,-862.84 174.21,-864.23"/>
<polygon fill="midnightblue" stroke="midnightblue" points="147.66,-856.44 137.23,-858.32 146.56,-863.35 147.66,-856.44"/>
</g>
<!-- Node31 -->
<g id="node31" class="node">
<title>Node31</title>
<g id="a_node31"><a xlink:href="classtracktion_1_1engine_1_1RackType.html" target="_top" xlink:title=" ">
<polygon fill="none" stroke="black" points="174.5,-808.5 174.5,-838.5 279.5,-838.5 279.5,-808.5 174.5,-808.5"/>
<text text-anchor="start" x="182.5" y="-826.5" font-family="Helvetica,sans-Serif" font-size="10.00">tracktion::engine::</text>
<text text-anchor="middle" x="227" y="-815.5" font-family="Helvetica,sans-Serif" font-size="10.00">RackType</text>
</a>
</g>
</g>
<!-- Node1&#45;&gt;Node31 -->
<g id="edge30" class="edge">
<title>Node1&#45;&gt;Node31</title>
<path fill="none" stroke="midnightblue" d="M147.16,-835.59C156.33,-834.18 165.52,-832.78 174.21,-831.44"/>
<polygon fill="midnightblue" stroke="midnightblue" points="146.59,-832.14 137.23,-837.11 147.65,-839.06 146.59,-832.14"/>
</g>
<!-- Node32 -->
<g id="node32" class="node">
<title>Node32</title>
<g id="a_node32"><a xlink:href="classtracktion_1_1engine_1_1Track.html" target="_top" xlink:title="Base class for tracks which contain clips and plugins and can be added to Edit[s].">
<polygon fill="none" stroke="black" points="174.5,-123.5 174.5,-153.5 279.5,-153.5 279.5,-123.5 174.5,-123.5"/>
<text text-anchor="start" x="182.5" y="-141.5" font-family="Helvetica,sans-Serif" font-size="10.00">tracktion::engine::</text>
<text text-anchor="middle" x="227" y="-130.5" font-family="Helvetica,sans-Serif" font-size="10.00">Track</text>
</a>
</g>
</g>
<!-- Node1&#45;&gt;Node32 -->
<g id="edge31" class="edge">
<title>Node1&#45;&gt;Node32</title>
<path fill="none" stroke="midnightblue" d="M75.02,-822.51C100.06,-709.07 202.66,-244.25 222.62,-153.8"/>
<polygon fill="midnightblue" stroke="midnightblue" points="71.58,-821.84 72.84,-832.36 78.41,-823.35 71.58,-821.84"/>
</g>
<!-- Node4 -->
<g id="node4" class="node">
<title>Node4</title>
<g id="a_node4"><a xlink:href="classtracktion_1_1engine_1_1AirWindowsPlugin.html" target="_top" xlink:title=" ">
<polygon fill="none" stroke="black" points="331,-1519.5 331,-1549.5 436,-1549.5 436,-1519.5 331,-1519.5"/>
<text text-anchor="start" x="339" y="-1537.5" font-family="Helvetica,sans-Serif" font-size="10.00">tracktion::engine::</text>
<text text-anchor="middle" x="383.5" y="-1526.5" font-family="Helvetica,sans-Serif" font-size="10.00">AirWindowsPlugin</text>
</a>
</g>
</g>
<!-- Node3&#45;&gt;Node4 -->
<g id="edge3" class="edge">
<title>Node3&#45;&gt;Node4</title>
<path fill="none" stroke="midnightblue" d="M278.61,-894.37C279.47,-895.37 280.26,-896.41 281,-897.5 357.41,-1010.56 235.61,-1400.98 317,-1510.5 320.68,-1515.46 325.5,-1519.39 330.85,-1522.51"/>
<polygon fill="midnightblue" stroke="midnightblue" points="280.92,-891.73 271.19,-887.54 276.18,-896.89 280.92,-891.73"/>
</g>
<!-- Node5 -->
<g id="node5" class="node">
<title>Node5</title>
<g id="a_node5"><a xlink:href="classtracktion_1_1engine_1_1AuxReturnPlugin.html" target="_top" xlink:title=" ">
<polygon fill="none" stroke="black" points="331,-1470.5 331,-1500.5 436,-1500.5 436,-1470.5 331,-1470.5"/>
<text text-anchor="start" x="339" y="-1488.5" font-family="Helvetica,sans-Serif" font-size="10.00">tracktion::engine::</text>
<text text-anchor="middle" x="383.5" y="-1477.5" font-family="Helvetica,sans-Serif" font-size="10.00">AuxReturnPlugin</text>
</a>
</g>
</g>
<!-- Node3&#45;&gt;Node5 -->
<g id="edge4" class="edge">
<title>Node3&#45;&gt;Node5</title>
<path fill="none" stroke="midnightblue" d="M278.61,-894.37C279.46,-895.37 280.26,-896.41 281,-897.5 351.59,-1001.37 241.83,-1360.89 317,-1461.5 320.7,-1466.45 325.52,-1470.38 330.87,-1473.5"/>
<polygon fill="midnightblue" stroke="midnightblue" points="280.91,-891.73 271.17,-887.55 276.18,-896.89 280.91,-891.73"/>
</g>
<!-- Node6 -->
<g id="node6" class="node">
<title>Node6</title>
<g id="a_node6"><a xlink:href="classtracktion_1_1engine_1_1AuxSendPlugin.html" target="_top" xlink:title=" ">
<polygon fill="none" stroke="black" points="331,-1421.5 331,-1451.5 436,-1451.5 436,-1421.5 331,-1421.5"/>
<text text-anchor="start" x="339" y="-1439.5" font-family="Helvetica,sans-Serif" font-size="10.00">tracktion::engine::</text>
<text text-anchor="middle" x="383.5" y="-1428.5" font-family="Helvetica,sans-Serif" font-size="10.00">AuxSendPlugin</text>
</a>
</g>
</g>
<!-- Node3&#45;&gt;Node6 -->
<g id="edge5" class="edge">
<title>Node3&#45;&gt;Node6</title>
<path fill="none" stroke="midnightblue" d="M278.6,-894.38C279.45,-895.37 280.26,-896.41 281,-897.5 345.77,-992.19 248.06,-1320.8 317,-1412.5 320.71,-1417.44 325.54,-1421.36 330.9,-1424.48"/>
<polygon fill="midnightblue" stroke="midnightblue" points="280.89,-891.73 271.15,-887.57 276.17,-896.9 280.89,-891.73"/>
</g>
<!-- Node7 -->
<g id="node7" class="node">
<title>Node7</title>
<g id="a_node7"><a xlink:href="classtracktion_1_1engine_1_1ChorusPlugin.html" target="_top" xlink:title=" ">
<polygon fill="none" stroke="black" points="331,-1372.5 331,-1402.5 436,-1402.5 436,-1372.5 331,-1372.5"/>
<text text-anchor="start" x="339" y="-1390.5" font-family="Helvetica,sans-Serif" font-size="10.00">tracktion::engine::</text>
<text text-anchor="middle" x="383.5" y="-1379.5" font-family="Helvetica,sans-Serif" font-size="10.00">ChorusPlugin</text>
</a>
</g>
</g>
<!-- Node3&#45;&gt;Node7 -->
<g id="edge6" class="edge">
<title>Node3&#45;&gt;Node7</title>
<path fill="none" stroke="midnightblue" d="M278.59,-894.38C279.45,-895.38 280.25,-896.42 281,-897.5 339.95,-983.01 254.28,-1280.71 317,-1363.5 320.73,-1368.42 325.57,-1372.34 330.94,-1375.45"/>
<polygon fill="midnightblue" stroke="midnightblue" points="280.87,-891.73 271.12,-887.59 276.16,-896.91 280.87,-891.73"/>
</g>
<!-- Node8 -->
<g id="node8" class="node">
<title>Node8</title>
<g id="a_node8"><a xlink:href="classtracktion_1_1engine_1_1CompressorPlugin.html" target="_top" xlink:title=" ">
<polygon fill="none" stroke="black" points="331,-1323.5 331,-1353.5 436,-1353.5 436,-1323.5 331,-1323.5"/>
<text text-anchor="start" x="339" y="-1341.5" font-family="Helvetica,sans-Serif" font-size="10.00">tracktion::engine::</text>
<text text-anchor="middle" x="383.5" y="-1330.5" font-family="Helvetica,sans-Serif" font-size="10.00">CompressorPlugin</text>
</a>
</g>
</g>
<!-- Node3&#45;&gt;Node8 -->
<g id="edge7" class="edge">
<title>Node3&#45;&gt;Node8</title>
<path fill="none" stroke="midnightblue" d="M278.57,-894.39C279.44,-895.38 280.25,-896.42 281,-897.5 334.14,-973.84 260.5,-1240.62 317,-1314.5 320.75,-1319.41 325.61,-1323.31 330.98,-1326.42"/>
<polygon fill="midnightblue" stroke="midnightblue" points="280.85,-891.73 271.08,-887.61 276.15,-896.92 280.85,-891.73"/>
</g>
<!-- Node9 -->
<g id="node9" class="node">
<title>Node9</title>
<g id="a_node9"><a xlink:href="classtracktion_1_1engine_1_1DelayPlugin.html" target="_top" xlink:title=" ">
<polygon fill="none" stroke="black" points="331,-1274.5 331,-1304.5 436,-1304.5 436,-1274.5 331,-1274.5"/>
<text text-anchor="start" x="339" y="-1292.5" font-family="Helvetica,sans-Serif" font-size="10.00">tracktion::engine::</text>
<text text-anchor="middle" x="383.5" y="-1281.5" font-family="Helvetica,sans-Serif" font-size="10.00">DelayPlugin</text>
</a>
</g>
</g>
<!-- Node3&#45;&gt;Node9 -->
<g id="edge8" class="edge">
<title>Node3&#45;&gt;Node9</title>
<path fill="none" stroke="midnightblue" d="M278.56,-894.4C279.43,-895.39 280.24,-896.42 281,-897.5 375.65,-1031.84 216.43,-1135.53 317,-1265.5 320.71,-1270.29 325.46,-1274.12 330.72,-1277.19"/>
<polygon fill="midnightblue" stroke="midnightblue" points="280.82,-891.73 271.04,-887.65 276.14,-896.93 280.82,-891.73"/>
</g>
<!-- Node10 -->
<g id="node10" class="node">
<title>Node10</title>
<g id="a_node10"><a xlink:href="classtracktion_1_1engine_1_1EqualiserPlugin.html" target="_top" xlink:title=" ">
<polygon fill="none" stroke="black" points="331,-1225.5 331,-1255.5 436,-1255.5 436,-1225.5 331,-1225.5"/>
<text text-anchor="start" x="339" y="-1243.5" font-family="Helvetica,sans-Serif" font-size="10.00">tracktion::engine::</text>
<text text-anchor="middle" x="383.5" y="-1232.5" font-family="Helvetica,sans-Serif" font-size="10.00">EqualiserPlugin</text>
</a>
</g>
</g>
<!-- Node3&#45;&gt;Node10 -->
<g id="edge9" class="edge">
<title>Node3&#45;&gt;Node10</title>
<path fill="none" stroke="midnightblue" d="M278.54,-894.42C279.41,-895.4 280.23,-896.43 281,-897.5 364.04,-1013.52 228.85,-1104.31 317,-1216.5 320.74,-1221.26 325.52,-1225.08 330.79,-1228.14"/>
<polygon fill="midnightblue" stroke="midnightblue" points="280.78,-891.73 270.98,-887.69 276.12,-896.95 280.78,-891.73"/>
</g>
<!-- Node11 -->
<g id="node11" class="node">
<title>Node11</title>
<g id="a_node11"><a xlink:href="classtracktion_1_1engine_1_1ExternalPlugin.html" target="_top" xlink:title=" ">
<polygon fill="none" stroke="black" points="331,-1176.5 331,-1206.5 436,-1206.5 436,-1176.5 331,-1176.5"/>
<text text-anchor="start" x="339" y="-1194.5" font-family="Helvetica,sans-Serif" font-size="10.00">tracktion::engine::</text>
<text text-anchor="middle" x="383.5" y="-1183.5" font-family="Helvetica,sans-Serif" font-size="10.00">ExternalPlugin</text>
</a>
</g>
</g>
<!-- Node3&#45;&gt;Node11 -->
<g id="edge10" class="edge">
<title>Node3&#45;&gt;Node11</title>
<path fill="none" stroke="midnightblue" d="M278.45,-894.38C279.35,-895.37 280.21,-896.41 281,-897.5 352.45,-995.23 241.25,-1073.07 317,-1167.5 320.79,-1172.22 325.6,-1176.02 330.88,-1179.06"/>
<polygon fill="midnightblue" stroke="midnightblue" points="280.49,-891.51 270.65,-887.56 275.88,-896.78 280.49,-891.51"/>
</g>
<!-- Node12 -->
<g id="node12" class="node">
<title>Node12</title>
<g id="a_node12"><a xlink:href="classtracktion_1_1engine_1_1FourOscPlugin.html" target="_top" xlink:title=" ">
<polygon fill="none" stroke="black" points="331,-1127.5 331,-1157.5 436,-1157.5 436,-1127.5 331,-1127.5"/>
<text text-anchor="start" x="339" y="-1145.5" font-family="Helvetica,sans-Serif" font-size="10.00">tracktion::engine::</text>
<text text-anchor="middle" x="383.5" y="-1134.5" font-family="Helvetica,sans-Serif" font-size="10.00">FourOscPlugin</text>
</a>
</g>
</g>
<!-- Node3&#45;&gt;Node12 -->
<g id="edge11" class="edge">
<title>Node3&#45;&gt;Node12</title>
<path fill="none" stroke="midnightblue" d="M278.41,-894.41C279.32,-895.4 280.19,-896.43 281,-897.5 340.89,-976.98 253.61,-1041.78 317,-1118.5 320.78,-1123.07 325.51,-1126.78 330.69,-1129.77"/>
<polygon fill="midnightblue" stroke="midnightblue" points="280.41,-891.51 270.54,-887.65 275.84,-896.82 280.41,-891.51"/>
</g>
<!-- Node13 -->
<g id="node13" class="node">
<title>Node13</title>
<g id="a_node13"><a xlink:href="classtracktion_1_1engine_1_1FreezePointPlugin.html" target="_top" xlink:title=" ">
<polygon fill="none" stroke="black" points="331,-1078.5 331,-1108.5 436,-1108.5 436,-1078.5 331,-1078.5"/>
<text text-anchor="start" x="339" y="-1096.5" font-family="Helvetica,sans-Serif" font-size="10.00">tracktion::engine::</text>
<text text-anchor="middle" x="383.5" y="-1085.5" font-family="Helvetica,sans-Serif" font-size="10.00">FreezePointPlugin</text>
</a>
</g>
</g>
<!-- Node3&#45;&gt;Node13 -->
<g id="edge12" class="edge">
<title>Node3&#45;&gt;Node13</title>
<path fill="none" stroke="midnightblue" d="M277.96,-894.07C279.04,-895.16 280.05,-896.3 281,-897.5 329.39,-958.81 265.92,-1010.42 317,-1069.5 320.88,-1073.99 325.68,-1077.64 330.89,-1080.61"/>
<polygon fill="midnightblue" stroke="midnightblue" points="280.06,-891.26 270.12,-887.6 275.61,-896.66 280.06,-891.26"/>
</g>
<!-- Node14 -->
<g id="node14" class="node">
<title>Node14</title>
<g id="a_node14"><a xlink:href="classtracktion_1_1engine_1_1ImpulseResponsePlugin.html" target="_top" xlink:title="ImpulseResponsePlugin that loads an impulse response and applies it the audio stream.">
<polygon fill="none" stroke="black" points="317,-1029.5 317,-1059.5 450,-1059.5 450,-1029.5 317,-1029.5"/>
<text text-anchor="start" x="325" y="-1047.5" font-family="Helvetica,sans-Serif" font-size="10.00">tracktion::engine::</text>
<text text-anchor="middle" x="383.5" y="-1036.5" font-family="Helvetica,sans-Serif" font-size="10.00">ImpulseResponsePlugin</text>
</a>
</g>
</g>
<!-- Node3&#45;&gt;Node14 -->
<g id="edge13" class="edge">
<title>Node3&#45;&gt;Node14</title>
<path fill="none" stroke="midnightblue" d="M277.35,-893.71C278.64,-894.91 279.86,-896.17 281,-897.5 318.02,-940.79 278.08,-978.91 317,-1020.5 320.23,-1023.95 323.99,-1026.9 328.05,-1029.44"/>
<polygon fill="midnightblue" stroke="midnightblue" points="279.36,-890.84 269.3,-887.5 275.08,-896.38 279.36,-890.84"/>
</g>
<!-- Node15 -->
<g id="node15" class="node">
<title>Node15</title>
<g id="a_node15"><a xlink:href="classtracktion_1_1engine_1_1InsertPlugin.html" target="_top" xlink:title=" ">
<polygon fill="none" stroke="black" points="331,-980.5 331,-1010.5 436,-1010.5 436,-980.5 331,-980.5"/>
<text text-anchor="start" x="339" y="-998.5" font-family="Helvetica,sans-Serif" font-size="10.00">tracktion::engine::</text>
<text text-anchor="middle" x="383.5" y="-987.5" font-family="Helvetica,sans-Serif" font-size="10.00">InsertPlugin</text>
</a>
</g>
</g>
<!-- Node3&#45;&gt;Node15 -->
<g id="edge14" class="edge">
<title>Node3&#45;&gt;Node15</title>
<path fill="none" stroke="midnightblue" d="M276.42,-893.44C278.03,-894.73 279.56,-896.08 281,-897.5 307.02,-923.21 289.86,-946.98 317,-971.5 321.13,-975.23 325.9,-978.4 330.93,-981.08"/>
<polygon fill="midnightblue" stroke="midnightblue" points="278.11,-890.36 267.89,-887.58 274.15,-896.13 278.11,-890.36"/>
</g>
<!-- Node16 -->
<g id="node16" class="node">
<title>Node16</title>
<g id="a_node16"><a xlink:href="classtracktion_1_1engine_1_1LatencyPlugin.html" target="_top" xlink:title="A test plugin that introduces latency to the incomming signal.">
<polygon fill="none" stroke="black" points="331,-931.5 331,-961.5 436,-961.5 436,-931.5 331,-931.5"/>
<text text-anchor="start" x="339" y="-949.5" font-family="Helvetica,sans-Serif" font-size="10.00">tracktion::engine::</text>
<text text-anchor="middle" x="383.5" y="-938.5" font-family="Helvetica,sans-Serif" font-size="10.00">LatencyPlugin</text>
</a>
</g>
</g>
<!-- Node3&#45;&gt;Node16 -->
<g id="edge15" class="edge">
<title>Node3&#45;&gt;Node16</title>
<path fill="none" stroke="midnightblue" d="M271.09,-892.08C274.48,-893.84 277.82,-895.66 281,-897.5 297.87,-907.24 299.71,-913.52 317,-922.5 323.23,-925.74 330,-928.74 336.75,-931.45"/>
<polygon fill="midnightblue" stroke="midnightblue" points="272.58,-888.91 262.08,-887.55 269.44,-895.17 272.58,-888.91"/>
</g>
<!-- Node17 -->
<g id="node17" class="node">
<title>Node17</title>
<g id="a_node17"><a xlink:href="classtracktion_1_1engine_1_1LevelMeterPlugin.html" target="_top" xlink:title=" ">
<polygon fill="none" stroke="black" points="331,-882.5 331,-912.5 436,-912.5 436,-882.5 331,-882.5"/>
<text text-anchor="start" x="339" y="-900.5" font-family="Helvetica,sans-Serif" font-size="10.00">tracktion::engine::</text>
<text text-anchor="middle" x="383.5" y="-889.5" font-family="Helvetica,sans-Serif" font-size="10.00">LevelMeterPlugin</text>
</a>
</g>
</g>
<!-- Node3&#45;&gt;Node17 -->
<g id="edge16" class="edge">
<title>Node3&#45;&gt;Node17</title>
<path fill="none" stroke="midnightblue" d="M290.05,-882.54C303.55,-884.73 317.71,-887.02 330.76,-889.13"/>
<polygon fill="midnightblue" stroke="midnightblue" points="290.31,-879.04 279.88,-880.89 289.19,-885.95 290.31,-879.04"/>
</g>
<!-- Node18 -->
<g id="node18" class="node">
<title>Node18</title>
<g id="a_node18"><a xlink:href="classtracktion_1_1engine_1_1LowPassPlugin.html" target="_top" xlink:title=" ">
<polygon fill="none" stroke="black" points="331,-833.5 331,-863.5 436,-863.5 436,-833.5 331,-833.5"/>
<text text-anchor="start" x="339" y="-851.5" font-family="Helvetica,sans-Serif" font-size="10.00">tracktion::engine::</text>
<text text-anchor="middle" x="383.5" y="-840.5" font-family="Helvetica,sans-Serif" font-size="10.00">LowPassPlugin</text>
</a>
</g>
</g>
<!-- Node3&#45;&gt;Node18 -->
<g id="edge17" class="edge">
<title>Node3&#45;&gt;Node18</title>
<path fill="none" stroke="midnightblue" d="M290.05,-862.86C303.55,-860.76 317.71,-858.57 330.76,-856.54"/>
<polygon fill="midnightblue" stroke="midnightblue" points="289.22,-859.45 279.88,-864.44 290.29,-866.37 289.22,-859.45"/>
</g>
<!-- Node19 -->
<g id="node19" class="node">
<title>Node19</title>
<g id="a_node19"><a xlink:href="classtracktion_1_1engine_1_1MidiModifierPlugin.html" target="_top" xlink:title=" ">
<polygon fill="none" stroke="black" points="330,-784.5 330,-814.5 437,-814.5 437,-784.5 330,-784.5"/>
<text text-anchor="start" x="338" y="-802.5" font-family="Helvetica,sans-Serif" font-size="10.00">tracktion::engine::</text>
<text text-anchor="middle" x="383.5" y="-791.5" font-family="Helvetica,sans-Serif" font-size="10.00">MidiModifierPlugin</text>
</a>
</g>
</g>
<!-- Node3&#45;&gt;Node19 -->
<g id="edge18" class="edge">
<title>Node3&#45;&gt;Node19</title>
<path fill="none" stroke="midnightblue" d="M272.65,-852.92C275.5,-851.48 278.3,-850 281,-848.5 297.81,-839.17 299.91,-833.32 317,-824.5 323.92,-820.93 331.48,-817.58 338.92,-814.57"/>
<polygon fill="midnightblue" stroke="midnightblue" points="270.91,-849.88 263.46,-857.41 273.98,-856.16 270.91,-849.88"/>
</g>
<!-- Node20 -->
<g id="node20" class="node">
<title>Node20</title>
<g id="a_node20"><a xlink:href="classtracktion_1_1engine_1_1MidiPatchBayPlugin.html" target="_top" xlink:title=" ">
<polygon fill="none" stroke="black" points="327,-735.5 327,-765.5 440,-765.5 440,-735.5 327,-735.5"/>
<text text-anchor="start" x="335" y="-753.5" font-family="Helvetica,sans-Serif" font-size="10.00">tracktion::engine::</text>
<text text-anchor="middle" x="383.5" y="-742.5" font-family="Helvetica,sans-Serif" font-size="10.00">MidiPatchBayPlugin</text>
</a>
</g>
</g>
<!-- Node3&#45;&gt;Node20 -->
<g id="edge19" class="edge">
<title>Node3&#45;&gt;Node20</title>
<path fill="none" stroke="midnightblue" d="M277.58,-851.54C278.77,-850.57 279.91,-849.55 281,-848.5 307,-823.35 290.25,-799.86 317,-775.5 321.23,-771.65 326.11,-768.37 331.27,-765.58"/>
<polygon fill="midnightblue" stroke="midnightblue" points="275.4,-848.79 269.21,-857.39 279.41,-854.53 275.4,-848.79"/>
</g>
<!-- Node21 -->
<g id="node21" class="node">
<title>Node21</title>
<g id="a_node21"><a xlink:href="classtracktion_1_1engine_1_1PatchBayPlugin.html" target="_top" xlink:title=" ">
<polygon fill="none" stroke="black" points="331,-686.5 331,-716.5 436,-716.5 436,-686.5 331,-686.5"/>
<text text-anchor="start" x="339" y="-704.5" font-family="Helvetica,sans-Serif" font-size="10.00">tracktion::engine::</text>
<text text-anchor="middle" x="383.5" y="-693.5" font-family="Helvetica,sans-Serif" font-size="10.00">PatchBayPlugin</text>
</a>
</g>
</g>
<!-- Node3&#45;&gt;Node21 -->
<g id="edge20" class="edge">
<title>Node3&#45;&gt;Node21</title>
<path fill="none" stroke="midnightblue" d="M278.66,-850.99C279.47,-850.19 280.25,-849.36 281,-848.5 318.12,-805.86 278.61,-768 317,-726.5 320.97,-722.21 325.75,-718.65 330.9,-715.7"/>
<polygon fill="midnightblue" stroke="midnightblue" points="276.2,-848.47 270.58,-857.45 280.57,-853.93 276.2,-848.47"/>
</g>
<!-- Node22 -->
<g id="node22" class="node">
<title>Node22</title>
<g id="a_node22"><a xlink:href="classtracktion_1_1engine_1_1PhaserPlugin.html" target="_top" xlink:title=" ">
<polygon fill="none" stroke="black" points="331,-637.5 331,-667.5 436,-667.5 436,-637.5 331,-637.5"/>
<text text-anchor="start" x="339" y="-655.5" font-family="Helvetica,sans-Serif" font-size="10.00">tracktion::engine::</text>
<text text-anchor="middle" x="383.5" y="-644.5" font-family="Helvetica,sans-Serif" font-size="10.00">PhaserPlugin</text>
</a>
</g>
</g>
<!-- Node3&#45;&gt;Node22 -->
<g id="edge21" class="edge">
<title>Node3&#45;&gt;Node22</title>
<path fill="none" stroke="midnightblue" d="M279.13,-850.66C279.78,-849.96 280.41,-849.24 281,-848.5 329.63,-787.94 266.56,-736.56 317,-677.5 320.87,-672.96 325.66,-669.25 330.88,-666.21"/>
<polygon fill="midnightblue" stroke="midnightblue" points="276.67,-848.16 271.37,-857.34 281.23,-853.47 276.67,-848.16"/>
</g>
<!-- Node23 -->
<g id="node23" class="node">
<title>Node23</title>
<g id="a_node23"><a xlink:href="classtracktion_1_1engine_1_1PitchShiftPlugin.html" target="_top" xlink:title=" ">
<polygon fill="none" stroke="black" points="331,-588.5 331,-618.5 436,-618.5 436,-588.5 331,-588.5"/>
<text text-anchor="start" x="339" y="-606.5" font-family="Helvetica,sans-Serif" font-size="10.00">tracktion::engine::</text>
<text text-anchor="middle" x="383.5" y="-595.5" font-family="Helvetica,sans-Serif" font-size="10.00">PitchShiftPlugin</text>
</a>
</g>
</g>
<!-- Node3&#45;&gt;Node23 -->
<g id="edge22" class="edge">
<title>Node3&#45;&gt;Node23</title>
<path fill="none" stroke="midnightblue" d="M279.49,-850.35C280.01,-849.75 280.52,-849.13 281,-848.5 341.27,-769.86 254.38,-705.28 317,-628.5 320.85,-623.78 325.69,-619.96 330.99,-616.85"/>
<polygon fill="midnightblue" stroke="midnightblue" points="276.87,-847.99 271.78,-857.29 281.55,-853.2 276.87,-847.99"/>
</g>
<!-- Node24 -->
<g id="node24" class="node">
<title>Node24</title>
<g id="a_node24"><a xlink:href="classtracktion_1_1engine_1_1RackInstance.html" target="_top" xlink:title=" ">
<polygon fill="none" stroke="black" points="331,-539.5 331,-569.5 436,-569.5 436,-539.5 331,-539.5"/>
<text text-anchor="start" x="339" y="-557.5" font-family="Helvetica,sans-Serif" font-size="10.00">tracktion::engine::</text>
<text text-anchor="middle" x="383.5" y="-546.5" font-family="Helvetica,sans-Serif" font-size="10.00">RackInstance</text>
</a>
</g>
</g>
<!-- Node3&#45;&gt;Node24 -->
<g id="edge23" class="edge">
<title>Node3&#45;&gt;Node24</title>
<path fill="none" stroke="midnightblue" d="M279.52,-850.37C280.03,-849.76 280.53,-849.14 281,-848.5 352.97,-751.7 242.13,-674.07 317,-579.5 320.78,-574.73 325.58,-570.87 330.86,-567.74"/>
<polygon fill="midnightblue" stroke="midnightblue" points="276.89,-848.03 271.88,-857.36 281.62,-853.19 276.89,-848.03"/>
</g>
<!-- Node25 -->
<g id="node25" class="node">
<title>Node25</title>
<g id="a_node25"><a xlink:href="classtracktion_1_1engine_1_1ReverbPlugin.html" target="_top" xlink:title=" ">
<polygon fill="none" stroke="black" points="331,-490.5 331,-520.5 436,-520.5 436,-490.5 331,-490.5"/>
<text text-anchor="start" x="339" y="-508.5" font-family="Helvetica,sans-Serif" font-size="10.00">tracktion::engine::</text>
<text text-anchor="middle" x="383.5" y="-497.5" font-family="Helvetica,sans-Serif" font-size="10.00">ReverbPlugin</text>
</a>
</g>
</g>
<!-- Node3&#45;&gt;Node25 -->
<g id="edge24" class="edge">
<title>Node3&#45;&gt;Node25</title>
<path fill="none" stroke="midnightblue" d="M279.53,-850.38C280.04,-849.77 280.53,-849.14 281,-848.5 364.7,-733.5 229.85,-642.91 317,-530.5 320.73,-525.69 325.5,-521.81 330.76,-518.67"/>
<polygon fill="midnightblue" stroke="midnightblue" points="276.9,-848.05 271.95,-857.42 281.66,-853.18 276.9,-848.05"/>
</g>
<!-- Node26 -->
<g id="node26" class="node">
<title>Node26</title>
<g id="a_node26"><a xlink:href="classtracktion_1_1engine_1_1SamplerPlugin.html" target="_top" xlink:title=" ">
<polygon fill="none" stroke="black" points="331,-441.5 331,-471.5 436,-471.5 436,-441.5 331,-441.5"/>
<text text-anchor="start" x="339" y="-459.5" font-family="Helvetica,sans-Serif" font-size="10.00">tracktion::engine::</text>
<text text-anchor="middle" x="383.5" y="-448.5" font-family="Helvetica,sans-Serif" font-size="10.00">SamplerPlugin</text>
</a>
</g>
</g>
<!-- Node3&#45;&gt;Node26 -->
<g id="edge25" class="edge">
<title>Node3&#45;&gt;Node26</title>
<path fill="none" stroke="midnightblue" d="M279.55,-850.39C280.05,-849.78 280.54,-849.15 281,-848.5 376.45,-715.27 217.56,-611.78 317,-481.5 320.69,-476.66 325.44,-472.76 330.69,-469.61"/>
<polygon fill="midnightblue" stroke="midnightblue" points="276.91,-848.06 272.01,-857.46 281.7,-853.17 276.91,-848.06"/>
</g>
<!-- Node27 -->
<g id="node27" class="node">
<title>Node27</title>
<g id="a_node27"><a xlink:href="classtracktion_1_1engine_1_1TextPlugin.html" target="_top" xlink:title=" ">
<polygon fill="none" stroke="black" points="331,-392.5 331,-422.5 436,-422.5 436,-392.5 331,-392.5"/>
<text text-anchor="start" x="339" y="-410.5" font-family="Helvetica,sans-Serif" font-size="10.00">tracktion::engine::</text>
<text text-anchor="middle" x="383.5" y="-399.5" font-family="Helvetica,sans-Serif" font-size="10.00">TextPlugin</text>
</a>
</g>
</g>
<!-- Node3&#45;&gt;Node27 -->
<g id="edge26" class="edge">
<title>Node3&#45;&gt;Node27</title>
<path fill="none" stroke="midnightblue" d="M279.56,-850.4C280.06,-849.78 280.54,-849.15 281,-848.5 334.61,-772.76 261.12,-506.58 317,-432.5 320.74,-427.54 325.59,-423.57 330.95,-420.39"/>
<polygon fill="midnightblue" stroke="midnightblue" points="276.92,-848.07 272.05,-857.49 281.72,-853.16 276.92,-848.07"/>
</g>
<!-- Node28 -->
<g id="node28" class="node">
<title>Node28</title>
<g id="a_node28"><a xlink:href="classtracktion_1_1engine_1_1ToneGeneratorPlugin.html" target="_top" xlink:title=" ">
<polygon fill="none" stroke="black" points="324.5,-343.5 324.5,-373.5 442.5,-373.5 442.5,-343.5 324.5,-343.5"/>
<text text-anchor="start" x="332.5" y="-361.5" font-family="Helvetica,sans-Serif" font-size="10.00">tracktion::engine::</text>
<text text-anchor="middle" x="383.5" y="-350.5" font-family="Helvetica,sans-Serif" font-size="10.00">ToneGeneratorPlugin</text>
</a>
</g>
</g>
<!-- Node3&#45;&gt;Node28 -->
<g id="edge27" class="edge">
<title>Node3&#45;&gt;Node28</title>
<path fill="none" stroke="midnightblue" d="M279.87,-850.02C280.26,-849.52 280.64,-849.02 281,-848.5 340.49,-763.63 254.96,-466.52 317,-383.5 319.91,-379.6 323.52,-376.31 327.52,-373.53"/>
<polygon fill="midnightblue" stroke="midnightblue" points="277.28,-847.65 272.57,-857.14 282.17,-852.66 277.28,-847.65"/>
</g>
<!-- Node29 -->
<g id="node29" class="node">
<title>Node29</title>
<g id="a_node29"><a xlink:href="classtracktion_1_1engine_1_1VCAPlugin.html" target="_top" xlink:title="The VCA plugin sits on a folder track to control the overall level of all the volume/pan plugins in i...">
<polygon fill="none" stroke="black" points="331,-294.5 331,-324.5 436,-324.5 436,-294.5 331,-294.5"/>
<text text-anchor="start" x="339" y="-312.5" font-family="Helvetica,sans-Serif" font-size="10.00">tracktion::engine::</text>
<text text-anchor="middle" x="383.5" y="-301.5" font-family="Helvetica,sans-Serif" font-size="10.00">VCAPlugin</text>
</a>
</g>
</g>
<!-- Node3&#45;&gt;Node29 -->
<g id="edge28" class="edge">
<title>Node3&#45;&gt;Node29</title>
<path fill="none" stroke="midnightblue" d="M279.88,-850.02C280.27,-849.53 280.64,-849.02 281,-848.5 346.38,-754.5 248.8,-426.47 317,-334.5 320.7,-329.51 325.52,-325.52 330.88,-322.33"/>
<polygon fill="midnightblue" stroke="midnightblue" points="277.29,-847.66 272.6,-857.16 282.19,-852.66 277.29,-847.66"/>
</g>
<!-- Node30 -->
<g id="node30" class="node">
<title>Node30</title>
<g id="a_node30"><a xlink:href="classtracktion_1_1engine_1_1VolumeAndPanPlugin.html" target="_top" xlink:title="The built&#45;in Tracktion volume/pan plugin.">
<polygon fill="none" stroke="black" points="324,-245.5 324,-275.5 443,-275.5 443,-245.5 324,-245.5"/>
<text text-anchor="start" x="332" y="-263.5" font-family="Helvetica,sans-Serif" font-size="10.00">tracktion::engine::</text>
<text text-anchor="middle" x="383.5" y="-252.5" font-family="Helvetica,sans-Serif" font-size="10.00">VolumeAndPanPlugin</text>
</a>
</g>
</g>
<!-- Node3&#45;&gt;Node30 -->
<g id="edge29" class="edge">
<title>Node3&#45;&gt;Node30</title>
<path fill="none" stroke="midnightblue" d="M279.88,-850.03C280.27,-849.53 280.64,-849.02 281,-848.5 352.28,-745.37 242.63,-386.43 317,-285.5 319.82,-281.68 323.29,-278.44 327.17,-275.7"/>
<polygon fill="midnightblue" stroke="midnightblue" points="277.29,-847.67 272.62,-857.17 282.2,-852.65 277.29,-847.67"/>
</g>
<!-- Node33 -->
<g id="node33" class="node">
<title>Node33</title>
<g id="a_node33"><a xlink:href="classtracktion_1_1engine_1_1AutomationTrack.html" target="_top" xlink:title=" ">
<polygon fill="none" stroke="black" points="331,-196.5 331,-226.5 436,-226.5 436,-196.5 331,-196.5"/>
<text text-anchor="start" x="339" y="-214.5" font-family="Helvetica,sans-Serif" font-size="10.00">tracktion::engine::</text>
<text text-anchor="middle" x="383.5" y="-203.5" font-family="Helvetica,sans-Serif" font-size="10.00">AutomationTrack</text>
</a>
</g>
</g>
<!-- Node32&#45;&gt;Node33 -->
<g id="edge32" class="edge">
<title>Node32&#45;&gt;Node33</title>
<path fill="none" stroke="midnightblue" d="M261.85,-158.72C278.21,-168.08 298.31,-178.99 317,-187.5 323.83,-190.61 331.2,-193.62 338.44,-196.4"/>
<polygon fill="midnightblue" stroke="midnightblue" points="263.58,-155.68 253.18,-153.71 260.08,-161.74 263.58,-155.68"/>
</g>
<!-- Node34 -->
<g id="node34" class="node">
<title>Node34</title>
<g id="a_node34"><a xlink:href="classtracktion_1_1engine_1_1ClipTrack.html" target="_top" xlink:title=" ">
<polygon fill="none" stroke="black" points="331,-147.5 331,-177.5 436,-177.5 436,-147.5 331,-147.5"/>
<text text-anchor="start" x="339" y="-165.5" font-family="Helvetica,sans-Serif" font-size="10.00">tracktion::engine::</text>
<text text-anchor="middle" x="383.5" y="-154.5" font-family="Helvetica,sans-Serif" font-size="10.00">ClipTrack</text>
</a>
</g>
</g>
<!-- Node32&#45;&gt;Node34 -->
<g id="edge33" class="edge">
<title>Node32&#45;&gt;Node34</title>
<path fill="none" stroke="midnightblue" d="M290.05,-148.14C303.55,-150.24 317.71,-152.43 330.76,-154.46"/>
<polygon fill="midnightblue" stroke="midnightblue" points="290.29,-144.63 279.88,-146.56 289.22,-151.55 290.29,-144.63"/>
</g>
<!-- Node39 -->
<g id="node39" class="node">
<title>Node39</title>
<g id="a_node39"><a xlink:href="classtracktion_1_1engine_1_1FolderTrack.html" target="_top" xlink:title=" ">
<polygon fill="none" stroke="black" points="331,-98.5 331,-128.5 436,-128.5 436,-98.5 331,-98.5"/>
<text text-anchor="start" x="339" y="-116.5" font-family="Helvetica,sans-Serif" font-size="10.00">tracktion::engine::</text>
<text text-anchor="middle" x="383.5" y="-105.5" font-family="Helvetica,sans-Serif" font-size="10.00">FolderTrack</text>
</a>
</g>
</g>
<!-- Node32&#45;&gt;Node39 -->
<g id="edge38" class="edge">
<title>Node32&#45;&gt;Node39</title>
<path fill="none" stroke="midnightblue" d="M290.05,-128.46C303.55,-126.27 317.71,-123.98 330.76,-121.87"/>
<polygon fill="midnightblue" stroke="midnightblue" points="289.19,-125.05 279.88,-130.11 290.31,-131.96 289.19,-125.05"/>
</g>
<!-- Node40 -->
<g id="node40" class="node">
<title>Node40</title>
<g id="a_node40"><a xlink:href="classtracktion_1_1engine_1_1MasterTrack.html" target="_top" xlink:title="A track to represent the master plugins.">
<polygon fill="none" stroke="black" points="331,-49.5 331,-79.5 436,-79.5 436,-49.5 331,-49.5"/>
<text text-anchor="start" x="339" y="-67.5" font-family="Helvetica,sans-Serif" font-size="10.00">tracktion::engine::</text>
<text text-anchor="middle" x="383.5" y="-56.5" font-family="Helvetica,sans-Serif" font-size="10.00">MasterTrack</text>
</a>
</g>
</g>
<!-- Node32&#45;&gt;Node40 -->
<g id="edge39" class="edge">
<title>Node32&#45;&gt;Node40</title>
<path fill="none" stroke="midnightblue" d="M261.9,-118.39C278.27,-109.05 298.37,-98.14 317,-89.5 324.51,-86.02 332.65,-82.62 340.56,-79.52"/>
<polygon fill="midnightblue" stroke="midnightblue" points="260.14,-115.36 253.22,-123.39 263.63,-121.43 260.14,-115.36"/>
</g>
<!-- Node41 -->
<g id="node41" class="node">
<title>Node41</title>
<g id="a_node41"><a xlink:href="classtracktion_1_1engine_1_1TempoTrack.html" target="_top" xlink:title="A track to represent the &quot;global&quot; items such as tempo, key changes etc.">
<polygon fill="none" stroke="black" points="331,-0.5 331,-30.5 436,-30.5 436,-0.5 331,-0.5"/>
<text text-anchor="start" x="339" y="-18.5" font-family="Helvetica,sans-Serif" font-size="10.00">tracktion::engine::</text>
<text text-anchor="middle" x="383.5" y="-7.5" font-family="Helvetica,sans-Serif" font-size="10.00">TempoTrack</text>
</a>
</g>
</g>
<!-- Node32&#45;&gt;Node41 -->
<g id="edge40" class="edge">
<title>Node32&#45;&gt;Node41</title>
<path fill="none" stroke="midnightblue" d="M243.84,-115.09C259.93,-92.89 286.75,-59.97 317,-39.5 322.02,-36.11 327.57,-33.12 333.26,-30.52"/>
<polygon fill="midnightblue" stroke="midnightblue" points="240.94,-113.13 238.01,-123.31 246.65,-117.18 240.94,-113.13"/>
</g>
<!-- Node35 -->
<g id="node35" class="node">
<title>Node35</title>
<g id="a_node35"><a xlink:href="classtracktion_1_1engine_1_1ArrangerTrack.html" target="_top" xlink:title="A track similar to the MarkerTrack but can be used to move sections of an Edit around.">
<polygon fill="none" stroke="black" points="486,-220.5 486,-250.5 591,-250.5 591,-220.5 486,-220.5"/>
<text text-anchor="start" x="494" y="-238.5" font-family="Helvetica,sans-Serif" font-size="10.00">tracktion::engine::</text>
<text text-anchor="middle" x="538.5" y="-227.5" font-family="Helvetica,sans-Serif" font-size="10.00">ArrangerTrack</text>
</a>
</g>
</g>
<!-- Node34&#45;&gt;Node35 -->
<g id="edge34" class="edge">
<title>Node34&#45;&gt;Node35</title>
<path fill="none" stroke="midnightblue" d="M437.5,-181.55C441.78,-183.44 446,-185.44 450,-187.5 467.09,-196.32 469.24,-202.08 486,-211.5 491.5,-214.59 497.47,-217.64 503.33,-220.47"/>
<polygon fill="midnightblue" stroke="midnightblue" points="438.66,-178.24 428.08,-177.57 435.93,-184.69 438.66,-178.24"/>
</g>
<!-- Node36 -->
<g id="node36" class="node">
<title>Node36</title>
<g id="a_node36"><a xlink:href="classtracktion_1_1engine_1_1AudioTrack.html" target="_top" xlink:title=" ">
<polygon fill="none" stroke="black" points="486,-171.5 486,-201.5 591,-201.5 591,-171.5 486,-171.5"/>
<text text-anchor="start" x="494" y="-189.5" font-family="Helvetica,sans-Serif" font-size="10.00">tracktion::engine::</text>
<text text-anchor="middle" x="538.5" y="-178.5" font-family="Helvetica,sans-Serif" font-size="10.00">AudioTrack</text>
</a>
</g>
</g>
<!-- Node34&#45;&gt;Node36 -->
<g id="edge35" class="edge">
<title>Node34&#45;&gt;Node36</title>
<path fill="none" stroke="midnightblue" d="M446.19,-172.18C459.32,-174.24 473.05,-176.39 485.75,-178.38"/>
<polygon fill="midnightblue" stroke="midnightblue" points="446.72,-168.72 436.3,-170.63 445.64,-175.63 446.72,-168.72"/>
</g>
<!-- Node37 -->
<g id="node37" class="node">
<title>Node37</title>
<g id="a_node37"><a xlink:href="classtracktion_1_1engine_1_1ChordTrack.html" target="_top" xlink:title=" ">
<polygon fill="none" stroke="black" points="486,-122.5 486,-152.5 591,-152.5 591,-122.5 486,-122.5"/>
<text text-anchor="start" x="494" y="-140.5" font-family="Helvetica,sans-Serif" font-size="10.00">tracktion::engine::</text>
<text text-anchor="middle" x="538.5" y="-129.5" font-family="Helvetica,sans-Serif" font-size="10.00">ChordTrack</text>
</a>
</g>
</g>
<!-- Node34&#45;&gt;Node37 -->
<g id="edge36" class="edge">
<title>Node34&#45;&gt;Node37</title>
<path fill="none" stroke="midnightblue" d="M446.19,-152.42C459.32,-150.28 473.05,-148.03 485.75,-145.96"/>
<polygon fill="midnightblue" stroke="midnightblue" points="445.6,-148.97 436.3,-154.04 446.73,-155.88 445.6,-148.97"/>
</g>
<!-- Node38 -->
<g id="node38" class="node">
<title>Node38</title>
<g id="a_node38"><a xlink:href="classtracktion_1_1engine_1_1MarkerTrack.html" target="_top" xlink:title=" ">
<polygon fill="none" stroke="black" points="486,-73.5 486,-103.5 591,-103.5 591,-73.5 486,-73.5"/>
<text text-anchor="start" x="494" y="-91.5" font-family="Helvetica,sans-Serif" font-size="10.00">tracktion::engine::</text>
<text text-anchor="middle" x="538.5" y="-80.5" font-family="Helvetica,sans-Serif" font-size="10.00">MarkerTrack</text>
</a>
</g>
</g>
<!-- Node34&#45;&gt;Node38 -->
<g id="edge37" class="edge">
<title>Node34&#45;&gt;Node38</title>
<path fill="none" stroke="midnightblue" d="M439.69,-143.45C443.23,-141.87 446.69,-140.22 450,-138.5 467.29,-129.52 469.19,-123.34 486,-113.5 491.83,-110.09 498.2,-106.72 504.41,-103.62"/>
<polygon fill="midnightblue" stroke="midnightblue" points="438.1,-140.33 430.25,-147.45 440.82,-146.78 438.1,-140.33"/>
</g>
</g>
</svg>
