<?xml version="1.0" encoding="UTF-8" standalone="no"?>
<!DOCTYPE svg PUBLIC "-//W3C//DTD SVG 1.1//EN"
 "http://www.w3.org/Graphics/SVG/1.1/DTD/svg11.dtd">
<!-- Generated by graphviz version 2.43.0 (0)
 -->
<!-- Title: tracktion::engine::WaveNodeRealTime Pages: 1 -->
<svg width="342pt" height="127pt"
 viewBox="0.00 0.00 342.00 126.50" xmlns="http://www.w3.org/2000/svg" xmlns:xlink="http://www.w3.org/1999/xlink">
<g id="graph0" class="graph" transform="scale(1 1) rotate(0) translate(4 122.5)">
<title>tracktion::engine::WaveNodeRealTime</title>
<!-- Node1 -->
<g id="node1" class="node">
<title>Node1</title>
<g id="a_node1"><a xlink:title="An Node that plays back a wave file.">
<polygon fill="#bfbfbf" stroke="black" points="218,-49.5 218,-79.5 334,-79.5 334,-49.5 218,-49.5"/>
<text text-anchor="start" x="226" y="-67.5" font-family="Helvetica,sans-Serif" font-size="10.00">tracktion::engine::</text>
<text text-anchor="middle" x="276" y="-56.5" font-family="Helvetica,sans-Serif" font-size="10.00">WaveNodeRealTime</text>
</a>
</g>
</g>
<!-- Node2 -->
<g id="node2" class="node">
<title>Node2</title>
<g id="a_node2"><a xlink:href="classtracktion_1_1graph_1_1Node.html" target="_top" xlink:title="Main graph Node processor class.">
<polygon fill="none" stroke="black" points="28.5,-99 28.5,-118 153.5,-118 153.5,-99 28.5,-99"/>
<text text-anchor="middle" x="91" y="-106" font-family="Helvetica,sans-Serif" font-size="10.00">tracktion::graph::Node</text>
</a>
</g>
</g>
<!-- Node2&#45;&gt;Node1 -->
<g id="edge1" class="edge">
<title>Node2&#45;&gt;Node1</title>
<path fill="none" stroke="midnightblue" d="M149.54,-96.84C160.35,-94.51 171.54,-92.01 182,-89.5 194.68,-86.46 208.27,-82.95 221.03,-79.54"/>
<polygon fill="midnightblue" stroke="midnightblue" points="148.8,-93.42 139.75,-98.93 150.26,-100.27 148.8,-93.42"/>
</g>
<!-- Node3 -->
<g id="node3" class="node">
<title>Node3</title>
<g id="a_node3"><a xlink:href="classtracktion_1_1engine_1_1TracktionEngineNode.html" target="_top" xlink:title="Base class for Nodes that provides information about the current process call.">
<polygon fill="none" stroke="black" points="31.5,-49.5 31.5,-79.5 150.5,-79.5 150.5,-49.5 31.5,-49.5"/>
<text text-anchor="start" x="39.5" y="-67.5" font-family="Helvetica,sans-Serif" font-size="10.00">tracktion::engine::</text>
<text text-anchor="middle" x="91" y="-56.5" font-family="Helvetica,sans-Serif" font-size="10.00">TracktionEngineNode</text>
</a>
</g>
</g>
<!-- Node3&#45;&gt;Node1 -->
<g id="edge2" class="edge">
<title>Node3&#45;&gt;Node1</title>
<path fill="none" stroke="midnightblue" d="M160.67,-64.5C179.54,-64.5 199.79,-64.5 217.92,-64.5"/>
<polygon fill="midnightblue" stroke="midnightblue" points="160.66,-61 150.66,-64.5 160.66,-68 160.66,-61"/>
</g>
<!-- Node4 -->
<g id="node4" class="node">
<title>Node4</title>
<g id="a_node4"><a xlink:href="classtracktion_1_1engine_1_1DynamicallyOffsettableNodeBase.html" target="_top" xlink:title=" ">
<polygon fill="none" stroke="black" points="0,-0.5 0,-30.5 182,-30.5 182,-0.5 0,-0.5"/>
<text text-anchor="start" x="8" y="-18.5" font-family="Helvetica,sans-Serif" font-size="10.00">tracktion::engine::</text>
<text text-anchor="middle" x="91" y="-7.5" font-family="Helvetica,sans-Serif" font-size="10.00">DynamicallyOffsettableNodeBase</text>
</a>
</g>
</g>
<!-- Node4&#45;&gt;Node1 -->
<g id="edge3" class="edge">
<title>Node4&#45;&gt;Node1</title>
<path fill="none" stroke="midnightblue" d="M158.29,-33.25C178.12,-38.56 199.67,-44.33 218.79,-49.45"/>
<polygon fill="midnightblue" stroke="midnightblue" points="158.96,-29.81 148.4,-30.6 157.15,-36.57 158.96,-29.81"/>
</g>
</g>
</svg>
