<?xml version="1.0" encoding="UTF-8" standalone="no"?>
<!DOCTYPE svg PUBLIC "-//W3C//DTD SVG 1.1//EN"
 "http://www.w3.org/Graphics/SVG/1.1/DTD/svg11.dtd">
<!-- Generated by graphviz version 2.40.1 (20161225.0304)
 -->
<!-- Title: tracktion_engine::TrackItem Pages: 1 -->
<svg width="904pt" height="249pt"
 viewBox="0.00 0.00 904.00 248.50" xmlns="http://www.w3.org/2000/svg" xmlns:xlink="http://www.w3.org/1999/xlink">
<g id="graph0" class="graph" transform="scale(1 1) rotate(0) translate(4 244.5)">
<title>tracktion_engine::TrackItem</title>
<!-- Node0 -->
<g id="node1" class="node">
<title>Node0</title>
<polygon fill="#bfbfbf" stroke="#000000" points="176,-69 176,-88 314,-88 314,-69 176,-69"/>
<text text-anchor="middle" x="245" y="-76" font-family="Helvetica,sans-Serif" font-size="10.00" fill="#000000">tracktion_engine::TrackItem</text>
</g>
<!-- Node3 -->
<g id="node4" class="node">
<title>Node3</title>
<g id="a_node4"><a xlink:href="classtracktion__engine_1_1Clip.html" target="_top" xlink:title="A clip in an edit. ">
<polygon fill="none" stroke="#000000" points="372,-126 372,-145 483,-145 483,-126 372,-126"/>
<text text-anchor="middle" x="427.5" y="-133" font-family="Helvetica,sans-Serif" font-size="10.00" fill="#000000">tracktion_engine::Clip</text>
</a>
</g>
</g>
<!-- Node0&#45;&gt;Node3 -->
<g id="edge3" class="edge">
<title>Node0&#45;&gt;Node3</title>
<path fill="none" stroke="#191970" d="M278.8497,-91.7922C299.2745,-99.5507 325.9215,-109.2141 350,-116.5 361.2706,-119.9104 373.6008,-123.1507 385.0445,-125.9579"/>
<polygon fill="#191970" stroke="#191970" points="279.9516,-88.4663 269.3614,-88.1552 277.4462,-95.0026 279.9516,-88.4663"/>
</g>
<!-- Node12 -->
<g id="node13" class="node">
<title>Node12</title>
<g id="a_node13"><a xlink:href="classtracktion__engine_1_1CollectionClip.html" target="_top" xlink:title="tracktion_engine::CollectionClip">
<polygon fill="none" stroke="#000000" points="350,-88 350,-107 505,-107 505,-88 350,-88"/>
<text text-anchor="middle" x="427.5" y="-95" font-family="Helvetica,sans-Serif" font-size="10.00" fill="#000000">tracktion_engine::CollectionClip</text>
</a>
</g>
</g>
<!-- Node0&#45;&gt;Node12 -->
<g id="edge12" class="edge">
<title>Node0&#45;&gt;Node12</title>
<path fill="none" stroke="#191970" d="M324.4184,-86.7682C332.8214,-87.643 341.3606,-88.5321 349.7443,-89.4049"/>
<polygon fill="#191970" stroke="#191970" points="324.5643,-83.2646 314.2556,-85.7102 323.8394,-90.2269 324.5643,-83.2646"/>
</g>
<!-- Node13 -->
<g id="node14" class="node">
<title>Node13</title>
<g id="a_node14"><a xlink:href="classtracktion__engine_1_1PitchSetting.html" target="_top" xlink:title="tracktion_engine::PitchSetting">
<polygon fill="none" stroke="#000000" points="354,-50 354,-69 501,-69 501,-50 354,-50"/>
<text text-anchor="middle" x="427.5" y="-57" font-family="Helvetica,sans-Serif" font-size="10.00" fill="#000000">tracktion_engine::PitchSetting</text>
</a>
</g>
</g>
<!-- Node0&#45;&gt;Node13 -->
<g id="edge13" class="edge">
<title>Node0&#45;&gt;Node13</title>
<path fill="none" stroke="#191970" d="M324.3437,-70.2396C334.1068,-69.2231 344.0549,-68.1874 353.7306,-67.1801"/>
<polygon fill="#191970" stroke="#191970" points="323.8394,-66.7731 314.2556,-71.2898 324.5643,-73.7354 323.8394,-66.7731"/>
</g>
<!-- Node14 -->
<g id="node15" class="node">
<title>Node14</title>
<g id="a_node15"><a xlink:href="classtracktion__engine_1_1TimeSigSetting.html" target="_top" xlink:title="tracktion_engine::TimeSig\lSetting">
<polygon fill="none" stroke="#000000" points="362.5,-.5 362.5,-30.5 492.5,-30.5 492.5,-.5 362.5,-.5"/>
<text text-anchor="start" x="370.5" y="-18.5" font-family="Helvetica,sans-Serif" font-size="10.00" fill="#000000">tracktion_engine::TimeSig</text>
<text text-anchor="middle" x="427.5" y="-7.5" font-family="Helvetica,sans-Serif" font-size="10.00" fill="#000000">Setting</text>
</a>
</g>
</g>
<!-- Node0&#45;&gt;Node14 -->
<g id="edge14" class="edge">
<title>Node0&#45;&gt;Node14</title>
<path fill="none" stroke="#191970" d="M280.2801,-65.3815C300.6048,-57.912 326.6707,-48.4815 350,-40.5 359.631,-37.205 369.9749,-33.7859 379.869,-30.5731"/>
<polygon fill="#191970" stroke="#191970" points="278.973,-62.133 270.8008,-68.8759 281.3942,-68.7009 278.973,-62.133"/>
</g>
<!-- Node1 -->
<g id="node2" class="node">
<title>Node1</title>
<g id="a_node2"><a xlink:href="classtracktion__engine_1_1EditItem.html" target="_top" xlink:title="Base class for objects that live inside an edit &#45; e.g. ">
<polygon fill="none" stroke="#000000" points="4.5,-88 4.5,-107 135.5,-107 135.5,-88 4.5,-88"/>
<text text-anchor="middle" x="70" y="-95" font-family="Helvetica,sans-Serif" font-size="10.00" fill="#000000">tracktion_engine::EditItem</text>
</a>
</g>
</g>
<!-- Node1&#45;&gt;Node0 -->
<g id="edge1" class="edge">
<title>Node1&#45;&gt;Node0</title>
<path fill="none" stroke="#191970" d="M145.9052,-89.2589C155.8265,-88.1817 165.9502,-87.0826 175.7539,-86.0181"/>
<polygon fill="#191970" stroke="#191970" points="145.2252,-85.812 135.6614,-90.371 145.9808,-92.7711 145.2252,-85.812"/>
</g>
<!-- Node2 -->
<g id="node3" class="node">
<title>Node2</title>
<g id="a_node3"><a xlink:href="classtracktion__engine_1_1Selectable.html" target="_top" xlink:title="Base class for things that can be selected, and whose properties can appear in the properties panel...">
<polygon fill="none" stroke="#000000" points="0,-50 0,-69 140,-69 140,-50 0,-50"/>
<text text-anchor="middle" x="70" y="-57" font-family="Helvetica,sans-Serif" font-size="10.00" fill="#000000">tracktion_engine::Selectable</text>
</a>
</g>
</g>
<!-- Node2&#45;&gt;Node0 -->
<g id="edge2" class="edge">
<title>Node2&#45;&gt;Node0</title>
<path fill="none" stroke="#191970" d="M150.2034,-68.2078C158.8038,-69.1416 167.4989,-70.0856 175.9531,-71.0035"/>
<polygon fill="#191970" stroke="#191970" points="150.4902,-64.7185 140.1709,-67.1185 149.7346,-71.6776 150.4902,-64.7185"/>
</g>
<!-- Node4 -->
<g id="node5" class="node">
<title>Node4</title>
<g id="a_node5"><a xlink:href="classtracktion__engine_1_1ArrangerClip.html" target="_top" xlink:title="tracktion_engine::ArrangerClip">
<polygon fill="none" stroke="#000000" points="546,-221 546,-240 694,-240 694,-221 546,-221"/>
<text text-anchor="middle" x="620" y="-228" font-family="Helvetica,sans-Serif" font-size="10.00" fill="#000000">tracktion_engine::ArrangerClip</text>
</a>
</g>
</g>
<!-- Node3&#45;&gt;Node4 -->
<g id="edge4" class="edge">
<title>Node3&#45;&gt;Node4</title>
<path fill="none" stroke="#191970" d="M446.9976,-151.7311C468.6583,-168.9733 505.3015,-195.8556 541,-211.5 549.6565,-215.2936 559.1931,-218.4029 568.5562,-220.9263"/>
<polygon fill="#191970" stroke="#191970" points="448.9141,-148.7795 438.9394,-145.208 444.5098,-154.2203 448.9141,-148.7795"/>
</g>
<!-- Node5 -->
<g id="node6" class="node">
<title>Node5</title>
<g id="a_node6"><a xlink:href="classtracktion__engine_1_1AudioClipBase.html" target="_top" xlink:title="Base class for Clips that produce some kind of audio e.g. ">
<polygon fill="none" stroke="#000000" points="541,-183 541,-202 699,-202 699,-183 541,-183"/>
<text text-anchor="middle" x="620" y="-190" font-family="Helvetica,sans-Serif" font-size="10.00" fill="#000000">tracktion_engine::AudioClipBase</text>
</a>
</g>
</g>
<!-- Node3&#45;&gt;Node5 -->
<g id="edge5" class="edge">
<title>Node3&#45;&gt;Node5</title>
<path fill="none" stroke="#191970" d="M463.5684,-148.4696C485.7519,-156.2226 514.846,-165.9921 541,-173.5 552.6605,-176.8473 565.4021,-180.0899 577.1825,-182.9203"/>
<polygon fill="#191970" stroke="#191970" points="464.4925,-145.0844 453.8976,-145.0646 462.1677,-151.6871 464.4925,-145.0844"/>
</g>
<!-- Node8 -->
<g id="node9" class="node">
<title>Node8</title>
<g id="a_node9"><a xlink:href="classtracktion__engine_1_1ChordClip.html" target="_top" xlink:title="tracktion_engine::ChordClip">
<polygon fill="none" stroke="#000000" points="551.5,-145 551.5,-164 688.5,-164 688.5,-145 551.5,-145"/>
<text text-anchor="middle" x="620" y="-152" font-family="Helvetica,sans-Serif" font-size="10.00" fill="#000000">tracktion_engine::ChordClip</text>
</a>
</g>
</g>
<!-- Node3&#45;&gt;Node8 -->
<g id="edge8" class="edge">
<title>Node3&#45;&gt;Node8</title>
<path fill="none" stroke="#191970" d="M493.3899,-142.0034C512.1236,-143.8525 532.5667,-145.8702 551.454,-147.7344"/>
<polygon fill="#191970" stroke="#191970" points="493.4744,-138.4948 483.179,-140.9956 492.7868,-145.461 493.4744,-138.4948"/>
</g>
<!-- Node9 -->
<g id="node10" class="node">
<title>Node9</title>
<g id="a_node10"><a xlink:href="classtracktion__engine_1_1MarkerClip.html" target="_top" xlink:title="tracktion_engine::MarkerClip">
<polygon fill="none" stroke="#000000" points="549.5,-107 549.5,-126 690.5,-126 690.5,-107 549.5,-107"/>
<text text-anchor="middle" x="620" y="-114" font-family="Helvetica,sans-Serif" font-size="10.00" fill="#000000">tracktion_engine::MarkerClip</text>
</a>
</g>
</g>
<!-- Node3&#45;&gt;Node9 -->
<g id="edge9" class="edge">
<title>Node3&#45;&gt;Node9</title>
<path fill="none" stroke="#191970" d="M493.3168,-129.0038C511.3767,-127.2213 531.03,-125.2815 549.3492,-123.4733"/>
<polygon fill="#191970" stroke="#191970" points="492.7868,-125.539 483.179,-130.0044 493.4744,-132.5052 492.7868,-125.539"/>
</g>
<!-- Node10 -->
<g id="node11" class="node">
<title>Node10</title>
<g id="a_node11"><a xlink:href="classtracktion__engine_1_1MidiClip.html" target="_top" xlink:title="tracktion_engine::MidiClip">
<polygon fill="none" stroke="#000000" points="555.5,-69 555.5,-88 684.5,-88 684.5,-69 555.5,-69"/>
<text text-anchor="middle" x="620" y="-76" font-family="Helvetica,sans-Serif" font-size="10.00" fill="#000000">tracktion_engine::MidiClip</text>
</a>
</g>
</g>
<!-- Node3&#45;&gt;Node10 -->
<g id="edge10" class="edge">
<title>Node3&#45;&gt;Node10</title>
<path fill="none" stroke="#191970" d="M484.0588,-123.3548C491.1907,-121.322 498.3224,-119.0365 505,-116.5 521.9126,-110.0757 524.0733,-103.8872 541,-97.5 550.7665,-93.8147 561.4878,-90.6723 571.7958,-88.067"/>
<polygon fill="#191970" stroke="#191970" points="483.1173,-119.9836 474.3758,-125.9698 484.9425,-126.7414 483.1173,-119.9836"/>
</g>
<!-- Node11 -->
<g id="node12" class="node">
<title>Node11</title>
<g id="a_node12"><a xlink:href="classtracktion__engine_1_1StepClip.html" target="_top" xlink:title="tracktion_engine::StepClip">
<polygon fill="none" stroke="#000000" points="554.5,-31 554.5,-50 685.5,-50 685.5,-31 554.5,-31"/>
<text text-anchor="middle" x="620" y="-38" font-family="Helvetica,sans-Serif" font-size="10.00" fill="#000000">tracktion_engine::StepClip</text>
</a>
</g>
</g>
<!-- Node3&#45;&gt;Node11 -->
<g id="edge11" class="edge">
<title>Node3&#45;&gt;Node11</title>
<path fill="none" stroke="#191970" d="M492.4694,-123.7024C496.8956,-121.6685 501.1282,-119.2873 505,-116.5 529.3172,-98.9943 516.6443,-76.9522 541,-59.5 546.3893,-55.6383 552.4625,-52.5541 558.7868,-50.0922"/>
<polygon fill="#191970" stroke="#191970" points="491.1605,-120.4563 483.1656,-127.4085 493.7509,-126.9594 491.1605,-120.4563"/>
</g>
<!-- Node6 -->
<g id="node7" class="node">
<title>Node6</title>
<g id="a_node7"><a xlink:href="classtracktion__engine_1_1EditClip.html" target="_top" xlink:title="This is the main source of an Edit clip and is responsible for managing its properties and creating a...">
<polygon fill="none" stroke="#000000" points="751.5,-202 751.5,-221 879.5,-221 879.5,-202 751.5,-202"/>
<text text-anchor="middle" x="815.5" y="-209" font-family="Helvetica,sans-Serif" font-size="10.00" fill="#000000">tracktion_engine::EditClip</text>
</a>
</g>
</g>
<!-- Node5&#45;&gt;Node6 -->
<g id="edge6" class="edge">
<title>Node5&#45;&gt;Node6</title>
<path fill="none" stroke="#191970" d="M709.4818,-201.1964C723.6335,-202.5718 738.018,-203.9698 751.4374,-205.274"/>
<polygon fill="#191970" stroke="#191970" points="709.5272,-197.6844 699.2355,-200.2006 708.85,-204.6516 709.5272,-197.6844"/>
</g>
<!-- Node7 -->
<g id="node8" class="node">
<title>Node7</title>
<g id="a_node8"><a xlink:href="classtracktion__engine_1_1WaveAudioClip.html" target="_top" xlink:title="tracktion_engine::WaveAudioClip">
<polygon fill="none" stroke="#000000" points="735,-164 735,-183 896,-183 896,-164 735,-164"/>
<text text-anchor="middle" x="815.5" y="-171" font-family="Helvetica,sans-Serif" font-size="10.00" fill="#000000">tracktion_engine::WaveAudioClip</text>
</a>
</g>
</g>
<!-- Node5&#45;&gt;Node7 -->
<g id="edge7" class="edge">
<title>Node5&#45;&gt;Node7</title>
<path fill="none" stroke="#191970" d="M709.2205,-183.829C717.7741,-182.9977 726.4154,-182.1578 734.8799,-181.3352"/>
<polygon fill="#191970" stroke="#191970" points="708.85,-180.3484 699.2355,-184.7994 709.5272,-187.3156 708.85,-180.3484"/>
</g>
</g>
</svg>
