<?xml version="1.0" encoding="UTF-8" standalone="no"?>
<!DOCTYPE svg PUBLIC "-//W3C//DTD SVG 1.1//EN"
 "http://www.w3.org/Graphics/SVG/1.1/DTD/svg11.dtd">
<!-- Generated by graphviz version 2.43.0 (0)
 -->
<!-- Title: tracktion::engine::TracktionEngineNode Pages: 1 -->
<svg width="339pt" height="806pt"
 viewBox="0.00 0.00 339.00 806.00" xmlns="http://www.w3.org/2000/svg" xmlns:xlink="http://www.w3.org/1999/xlink">
<g id="graph0" class="graph" transform="scale(1 1) rotate(0) translate(4 802)">
<title>tracktion::engine::TracktionEngineNode</title>
<!-- Node1 -->
<g id="Node000001" class="node">
<title>Node1</title>
<g id="a_Node000001"><a xlink:title="Base class for Nodes that provides information about the current process call.">
<polygon fill="#999999" stroke="#666666" points="119,-414 0,-414 0,-384 119,-384 119,-414"/>
<text text-anchor="start" x="8" y="-402" font-family="Helvetica,sans-Serif" font-size="10.00">tracktion::engine::</text>
<text text-anchor="middle" x="59.5" y="-391" font-family="Helvetica,sans-Serif" font-size="10.00">TracktionEngineNode</text>
</a>
</g>
</g>
<!-- Node2 -->
<g id="Node000002" class="node">
<title>Node2</title>
<g id="a_Node000002"><a xlink:href="classtracktion_1_1engine_1_1ArrangerLauncherSwitchingNode.html" target="_top" xlink:title="A Node that switches between two of its inputs based on a flag.">
<polygon fill="white" stroke="#666666" points="331,-798 155,-798 155,-768 331,-768 331,-798"/>
<text text-anchor="start" x="163" y="-786" font-family="Helvetica,sans-Serif" font-size="10.00">tracktion::engine::</text>
<text text-anchor="middle" x="243" y="-775" font-family="Helvetica,sans-Serif" font-size="10.00">ArrangerLauncherSwitchingNode</text>
</a>
</g>
</g>
<!-- Node1&#45;&gt;Node2 -->
<g id="edge1_Node000001_Node000002" class="edge">
<title>Node1&#45;&gt;Node2</title>
<g id="a_edge1_Node000001_Node000002"><a xlink:title=" ">
<path fill="none" stroke="#63b8ff" d="M63.84,-424.29C74.06,-498.02 107.17,-710.57 155,-759 158.41,-762.46 162.28,-765.43 166.43,-767.98"/>
<polygon fill="#63b8ff" stroke="#63b8ff" points="67.26,-423.51 62.45,-414.08 60.33,-424.46 67.26,-423.51"/>
</a>
</g>
</g>
<!-- Node3 -->
<g id="Node000003" class="node">
<title>Node3</title>
<g id="a_Node000003"><a xlink:href="classtracktion_1_1engine_1_1CombiningNode.html" target="_top" xlink:title="An Node that mixes a sequence of clips of other nodes.">
<polygon fill="white" stroke="#666666" points="295.5,-750 190.5,-750 190.5,-720 295.5,-720 295.5,-750"/>
<text text-anchor="start" x="198.5" y="-738" font-family="Helvetica,sans-Serif" font-size="10.00">tracktion::engine::</text>
<text text-anchor="middle" x="243" y="-727" font-family="Helvetica,sans-Serif" font-size="10.00">CombiningNode</text>
</a>
</g>
</g>
<!-- Node1&#45;&gt;Node3 -->
<g id="edge2_Node000001_Node000003" class="edge">
<title>Node1&#45;&gt;Node3</title>
<g id="a_edge2_Node000001_Node000003"><a xlink:title=" ">
<path fill="none" stroke="#63b8ff" d="M60.42,-424.56C61.69,-483.78 73.36,-631.37 155,-711 164.53,-720.3 177.33,-726.07 190.17,-729.63"/>
<polygon fill="#63b8ff" stroke="#63b8ff" points="63.92,-424.21 60.29,-414.26 56.92,-424.3 63.92,-424.21"/>
</a>
</g>
</g>
<!-- Node4 -->
<g id="Node000004" class="node">
<title>Node4</title>
<g id="a_Node000004"><a xlink:href="classtracktion_1_1engine_1_1ContainerClipNode.html" target="_top" xlink:title=" ">
<polygon fill="white" stroke="#666666" points="297,-702 189,-702 189,-672 297,-672 297,-702"/>
<text text-anchor="start" x="197" y="-690" font-family="Helvetica,sans-Serif" font-size="10.00">tracktion::engine::</text>
<text text-anchor="middle" x="243" y="-679" font-family="Helvetica,sans-Serif" font-size="10.00">ContainerClipNode</text>
</a>
</g>
</g>
<!-- Node1&#45;&gt;Node4 -->
<g id="edge3_Node000001_Node000004" class="edge">
<title>Node1&#45;&gt;Node4</title>
<g id="a_edge3_Node000001_Node000004"><a xlink:title=" ">
<path fill="none" stroke="#63b8ff" d="M62.04,-424.22C66.64,-476.61 84.71,-597.77 155,-663 164.3,-671.63 176.43,-677.21 188.66,-680.79"/>
<polygon fill="#63b8ff" stroke="#63b8ff" points="65.52,-423.82 61.25,-414.13 58.55,-424.37 65.52,-423.82"/>
</a>
</g>
</g>
<!-- Node5 -->
<g id="Node000005" class="node">
<title>Node5</title>
<g id="a_Node000005"><a xlink:href="classtracktion_1_1engine_1_1DynamicOffsetNode.html" target="_top" xlink:title=" ">
<polygon fill="white" stroke="#666666" points="300.5,-654 185.5,-654 185.5,-624 300.5,-624 300.5,-654"/>
<text text-anchor="start" x="193.5" y="-642" font-family="Helvetica,sans-Serif" font-size="10.00">tracktion::engine::</text>
<text text-anchor="middle" x="243" y="-631" font-family="Helvetica,sans-Serif" font-size="10.00">DynamicOffsetNode</text>
</a>
</g>
</g>
<!-- Node1&#45;&gt;Node5 -->
<g id="edge4_Node000001_Node000005" class="edge">
<title>Node1&#45;&gt;Node5</title>
<g id="a_edge4_Node000001_Node000005"><a xlink:title=" ">
<path fill="none" stroke="#63b8ff" d="M64.34,-424.3C72.56,-469.46 96.12,-564 155,-615 163.65,-622.49 174.44,-627.66 185.44,-631.22"/>
<polygon fill="#63b8ff" stroke="#63b8ff" points="67.75,-423.45 62.61,-414.18 60.85,-424.63 67.75,-423.45"/>
</a>
</g>
</g>
<!-- Node6 -->
<g id="Node000006" class="node">
<title>Node6</title>
<g id="a_Node000006"><a xlink:href="classtracktion_1_1engine_1_1FadeInOutNode.html" target="_top" xlink:title="A Node that fades in and out given time regions.">
<polygon fill="white" stroke="#666666" points="295.5,-606 190.5,-606 190.5,-576 295.5,-576 295.5,-606"/>
<text text-anchor="start" x="198.5" y="-594" font-family="Helvetica,sans-Serif" font-size="10.00">tracktion::engine::</text>
<text text-anchor="middle" x="243" y="-583" font-family="Helvetica,sans-Serif" font-size="10.00">FadeInOutNode</text>
</a>
</g>
</g>
<!-- Node1&#45;&gt;Node6 -->
<g id="edge5_Node000001_Node000006" class="edge">
<title>Node1&#45;&gt;Node6</title>
<g id="a_edge5_Node000001_Node000006"><a xlink:title=" ">
<path fill="none" stroke="#63b8ff" d="M67.77,-424.13C79.77,-461.06 107.26,-529.66 155,-567 165.12,-574.92 177.68,-580.22 190.09,-583.78"/>
<polygon fill="#63b8ff" stroke="#63b8ff" points="70.99,-422.68 64.67,-414.18 64.3,-424.76 70.99,-422.68"/>
</a>
</g>
</g>
<!-- Node7 -->
<g id="Node000007" class="node">
<title>Node7</title>
<g id="a_Node000007"><a xlink:href="classtracktion_1_1engine_1_1HostedMidiInputDeviceNode.html" target="_top" xlink:title="A Node that intercepts MIDI from a plugin callback and inserts it in to the playback graph.">
<polygon fill="white" stroke="#666666" points="321,-558 165,-558 165,-528 321,-528 321,-558"/>
<text text-anchor="start" x="173" y="-546" font-family="Helvetica,sans-Serif" font-size="10.00">tracktion::engine::</text>
<text text-anchor="middle" x="243" y="-535" font-family="Helvetica,sans-Serif" font-size="10.00">HostedMidiInputDeviceNode</text>
</a>
</g>
</g>
<!-- Node1&#45;&gt;Node7 -->
<g id="edge6_Node000001_Node000007" class="edge">
<title>Node1&#45;&gt;Node7</title>
<g id="a_edge6_Node000001_Node000007"><a xlink:title=" ">
<path fill="none" stroke="#8b1a1a" d="M73.12,-422.97C88.73,-450.28 117.86,-494.32 155,-519 160.22,-522.47 165.93,-525.44 171.86,-527.98"/>
<polygon fill="#8b1a1a" stroke="#8b1a1a" points="76.09,-421.1 68.17,-414.06 69.97,-424.5 76.09,-421.1"/>
</a>
</g>
</g>
<!-- Node8 -->
<g id="Node000008" class="node">
<title>Node8</title>
<g id="a_Node000008"><a xlink:href="classtracktion_1_1engine_1_1LoopingMidiNode.html" target="_top" xlink:title="A Node that plays MIDI data from a MidiMessageSequence, at a specific MIDI channel.">
<polygon fill="white" stroke="#666666" points="295.5,-510 190.5,-510 190.5,-480 295.5,-480 295.5,-510"/>
<text text-anchor="start" x="198.5" y="-498" font-family="Helvetica,sans-Serif" font-size="10.00">tracktion::engine::</text>
<text text-anchor="middle" x="243" y="-487" font-family="Helvetica,sans-Serif" font-size="10.00">LoopingMidiNode</text>
</a>
</g>
</g>
<!-- Node1&#45;&gt;Node8 -->
<g id="edge7_Node000001_Node000008" class="edge">
<title>Node1&#45;&gt;Node8</title>
<g id="a_edge7_Node000001_Node000008"><a xlink:title=" ">
<path fill="none" stroke="#63b8ff" d="M84,-421.02C102.15,-436.95 128.56,-457.89 155,-471 165.95,-476.43 178.3,-480.77 190.19,-484.2"/>
<polygon fill="#63b8ff" stroke="#63b8ff" points="86.06,-418.16 76.27,-414.1 81.39,-423.37 86.06,-418.16"/>
</a>
</g>
</g>
<!-- Node9 -->
<g id="Node000009" class="node">
<title>Node9</title>
<g id="a_Node000009"><a xlink:href="classtracktion_1_1engine_1_1MidiNode.html" target="_top" xlink:title="A Node that plays MIDI data from a MidiMessageSequence, at a specific MIDI channel.">
<polygon fill="white" stroke="#666666" points="295.5,-462 190.5,-462 190.5,-432 295.5,-432 295.5,-462"/>
<text text-anchor="start" x="198.5" y="-450" font-family="Helvetica,sans-Serif" font-size="10.00">tracktion::engine::</text>
<text text-anchor="middle" x="243" y="-439" font-family="Helvetica,sans-Serif" font-size="10.00">MidiNode</text>
</a>
</g>
</g>
<!-- Node1&#45;&gt;Node9 -->
<g id="edge8_Node000001_Node000009" class="edge">
<title>Node1&#45;&gt;Node9</title>
<g id="a_edge8_Node000001_Node000009"><a xlink:title=" ">
<path fill="none" stroke="#63b8ff" d="M127.16,-416.63C147.96,-422.13 170.58,-428.11 190.2,-433.3"/>
<polygon fill="#63b8ff" stroke="#63b8ff" points="127.99,-413.23 117.43,-414.06 126.2,-420 127.99,-413.23"/>
</a>
</g>
</g>
<!-- Node10 -->
<g id="Node000010" class="node">
<title>Node10</title>
<g id="a_Node000010"><a xlink:href="classtracktion_1_1engine_1_1PlayHeadPositionNode.html" target="_top" xlink:title="A Node that calculates a position to show visually what time is currently being processed by the grap...">
<polygon fill="white" stroke="#666666" points="307,-414 179,-414 179,-384 307,-384 307,-414"/>
<text text-anchor="start" x="187" y="-402" font-family="Helvetica,sans-Serif" font-size="10.00">tracktion::engine::</text>
<text text-anchor="middle" x="243" y="-391" font-family="Helvetica,sans-Serif" font-size="10.00">PlayHeadPositionNode</text>
</a>
</g>
</g>
<!-- Node1&#45;&gt;Node10 -->
<g id="edge9_Node000001_Node000010" class="edge">
<title>Node1&#45;&gt;Node10</title>
<g id="a_edge9_Node000001_Node000010"><a xlink:title=" ">
<path fill="none" stroke="#63b8ff" d="M129.64,-399C145.8,-399 162.94,-399 178.83,-399"/>
<polygon fill="#63b8ff" stroke="#63b8ff" points="129.18,-395.5 119.18,-399 129.18,-402.5 129.18,-395.5"/>
</a>
</g>
</g>
<!-- Node11 -->
<g id="Node000011" class="node">
<title>Node11</title>
<g id="a_Node000011"><a xlink:href="classtracktion_1_1engine_1_1PluginNode.html" target="_top" xlink:title="Node for processing a plugin.">
<polygon fill="white" stroke="#666666" points="295.5,-366 190.5,-366 190.5,-336 295.5,-336 295.5,-366"/>
<text text-anchor="start" x="198.5" y="-354" font-family="Helvetica,sans-Serif" font-size="10.00">tracktion::engine::</text>
<text text-anchor="middle" x="243" y="-343" font-family="Helvetica,sans-Serif" font-size="10.00">PluginNode</text>
</a>
</g>
</g>
<!-- Node1&#45;&gt;Node11 -->
<g id="edge10_Node000001_Node000011" class="edge">
<title>Node1&#45;&gt;Node11</title>
<g id="a_edge10_Node000001_Node000011"><a xlink:title=" ">
<path fill="none" stroke="#63b8ff" d="M127.16,-381.37C147.96,-375.87 170.58,-369.89 190.2,-364.7"/>
<polygon fill="#63b8ff" stroke="#63b8ff" points="126.2,-378 117.43,-383.94 127.99,-384.77 126.2,-378"/>
</a>
</g>
</g>
<!-- Node12 -->
<g id="Node000012" class="node">
<title>Node12</title>
<g id="a_Node000012"><a xlink:href="classtracktion_1_1engine_1_1RackInstanceNode.html" target="_top" xlink:title="Sends an input Node to a Rack bus handling the channel mapping and channel gain levels.">
<polygon fill="white" stroke="#666666" points="296.5,-318 189.5,-318 189.5,-288 296.5,-288 296.5,-318"/>
<text text-anchor="start" x="197.5" y="-306" font-family="Helvetica,sans-Serif" font-size="10.00">tracktion::engine::</text>
<text text-anchor="middle" x="243" y="-295" font-family="Helvetica,sans-Serif" font-size="10.00">RackInstanceNode</text>
</a>
</g>
</g>
<!-- Node1&#45;&gt;Node12 -->
<g id="edge11_Node000001_Node000012" class="edge">
<title>Node1&#45;&gt;Node12</title>
<g id="a_edge11_Node000001_Node000012"><a xlink:title=" ">
<path fill="none" stroke="#63b8ff" d="M84,-376.98C102.15,-361.05 128.56,-340.11 155,-327 165.67,-321.71 177.67,-317.45 189.27,-314.07"/>
<polygon fill="#63b8ff" stroke="#63b8ff" points="81.39,-374.63 76.27,-383.9 86.06,-379.84 81.39,-374.63"/>
</a>
</g>
</g>
<!-- Node13 -->
<g id="Node000013" class="node">
<title>Node13</title>
<g id="a_Node000013"><a xlink:href="classtracktion_1_1engine_1_1SlotControlNode.html" target="_top" xlink:title=" ">
<polygon fill="white" stroke="#666666" points="295.5,-270 190.5,-270 190.5,-240 295.5,-240 295.5,-270"/>
<text text-anchor="start" x="198.5" y="-258" font-family="Helvetica,sans-Serif" font-size="10.00">tracktion::engine::</text>
<text text-anchor="middle" x="243" y="-247" font-family="Helvetica,sans-Serif" font-size="10.00">SlotControlNode</text>
</a>
</g>
</g>
<!-- Node1&#45;&gt;Node13 -->
<g id="edge12_Node000001_Node000013" class="edge">
<title>Node1&#45;&gt;Node13</title>
<g id="a_edge12_Node000001_Node000013"><a xlink:title=" ">
<path fill="none" stroke="#63b8ff" d="M73.12,-375.03C88.73,-347.72 117.86,-303.68 155,-279 165.57,-271.98 178.16,-266.99 190.44,-263.47"/>
<polygon fill="#63b8ff" stroke="#63b8ff" points="69.97,-373.5 68.17,-383.94 76.09,-376.9 69.97,-373.5"/>
</a>
</g>
</g>
<!-- Node14 -->
<g id="Node000014" class="node">
<title>Node14</title>
<g id="a_Node000014"><a xlink:href="classtracktion_1_1engine_1_1SpeedRampWaveNode.html" target="_top" xlink:title="An Node that plays back a wave file.">
<polygon fill="white" stroke="#666666" points="307,-222 179,-222 179,-192 307,-192 307,-222"/>
<text text-anchor="start" x="187" y="-210" font-family="Helvetica,sans-Serif" font-size="10.00">tracktion::engine::</text>
<text text-anchor="middle" x="243" y="-199" font-family="Helvetica,sans-Serif" font-size="10.00">SpeedRampWaveNode</text>
</a>
</g>
</g>
<!-- Node1&#45;&gt;Node14 -->
<g id="edge13_Node000001_Node000014" class="edge">
<title>Node1&#45;&gt;Node14</title>
<g id="a_edge13_Node000001_Node000014"><a xlink:title=" ">
<path fill="none" stroke="#63b8ff" d="M67.77,-373.87C79.77,-336.94 107.26,-268.34 155,-231 162.03,-225.5 170.25,-221.26 178.77,-217.99"/>
<polygon fill="#63b8ff" stroke="#63b8ff" points="64.3,-373.24 64.67,-383.82 70.99,-375.32 64.3,-373.24"/>
</a>
</g>
</g>
<!-- Node15 -->
<g id="Node000015" class="node">
<title>Node15</title>
<g id="a_Node000015"><a xlink:href="classtracktion_1_1engine_1_1TrackMidiInputDeviceNode.html" target="_top" xlink:title="A Node that takes MIDI from the output of a track and sends it to its corresponding InputDevice.">
<polygon fill="white" stroke="#666666" points="316.5,-174 169.5,-174 169.5,-144 316.5,-144 316.5,-174"/>
<text text-anchor="start" x="177.5" y="-162" font-family="Helvetica,sans-Serif" font-size="10.00">tracktion::engine::</text>
<text text-anchor="middle" x="243" y="-151" font-family="Helvetica,sans-Serif" font-size="10.00">TrackMidiInputDeviceNode</text>
</a>
</g>
</g>
<!-- Node1&#45;&gt;Node15 -->
<g id="edge14_Node000001_Node000015" class="edge">
<title>Node1&#45;&gt;Node15</title>
<g id="a_edge14_Node000001_Node000015"><a xlink:title=" ">
<path fill="none" stroke="#8b1a1a" d="M64.34,-373.7C72.56,-328.54 96.12,-234 155,-183 159.26,-179.31 164.05,-176.18 169.12,-173.53"/>
<polygon fill="#8b1a1a" stroke="#8b1a1a" points="60.85,-373.37 62.61,-383.82 67.75,-374.55 60.85,-373.37"/>
</a>
</g>
</g>
<!-- Node16 -->
<g id="Node000016" class="node">
<title>Node16</title>
<g id="a_Node000016"><a xlink:href="classtracktion_1_1engine_1_1TrackWaveInputDeviceNode.html" target="_top" xlink:title="A Node that takes audio from the output of a track and sends it to its corresponding InputDevice.">
<polygon fill="white" stroke="#666666" points="319.5,-126 166.5,-126 166.5,-96 319.5,-96 319.5,-126"/>
<text text-anchor="start" x="174.5" y="-114" font-family="Helvetica,sans-Serif" font-size="10.00">tracktion::engine::</text>
<text text-anchor="middle" x="243" y="-103" font-family="Helvetica,sans-Serif" font-size="10.00">TrackWaveInputDeviceNode</text>
</a>
</g>
</g>
<!-- Node1&#45;&gt;Node16 -->
<g id="edge15_Node000001_Node000016" class="edge">
<title>Node1&#45;&gt;Node16</title>
<g id="a_edge15_Node000001_Node000016"><a xlink:title=" ">
<path fill="none" stroke="#8b1a1a" d="M62.04,-373.78C66.64,-321.39 84.71,-200.23 155,-135 158.68,-131.59 162.79,-128.66 167.18,-126.13"/>
<polygon fill="#8b1a1a" stroke="#8b1a1a" points="58.55,-373.63 61.25,-383.87 65.52,-374.18 58.55,-373.63"/>
</a>
</g>
</g>
<!-- Node17 -->
<g id="Node000017" class="node">
<title>Node17</title>
<g id="a_Node000017"><a xlink:href="classtracktion_1_1engine_1_1WaveNode.html" target="_top" xlink:title="An Node that plays back a wave file.">
<polygon fill="white" stroke="#666666" points="295.5,-78 190.5,-78 190.5,-48 295.5,-48 295.5,-78"/>
<text text-anchor="start" x="198.5" y="-66" font-family="Helvetica,sans-Serif" font-size="10.00">tracktion::engine::</text>
<text text-anchor="middle" x="243" y="-55" font-family="Helvetica,sans-Serif" font-size="10.00">WaveNode</text>
</a>
</g>
</g>
<!-- Node1&#45;&gt;Node17 -->
<g id="edge16_Node000001_Node000017" class="edge">
<title>Node1&#45;&gt;Node17</title>
<g id="a_edge16_Node000001_Node000017"><a xlink:title=" ">
<path fill="none" stroke="#63b8ff" d="M60.42,-373.44C61.69,-314.22 73.36,-166.63 155,-87 164.53,-77.7 177.33,-71.93 190.17,-68.37"/>
<polygon fill="#63b8ff" stroke="#63b8ff" points="56.92,-373.7 60.29,-383.74 63.92,-373.79 56.92,-373.7"/>
</a>
</g>
</g>
<!-- Node18 -->
<g id="Node000018" class="node">
<title>Node18</title>
<g id="a_Node000018"><a xlink:href="classtracktion_1_1engine_1_1WaveNodeRealTime.html" target="_top" xlink:title="An Node that plays back a wave file.">
<polygon fill="white" stroke="#666666" points="301,-30 185,-30 185,0 301,0 301,-30"/>
<text text-anchor="start" x="193" y="-18" font-family="Helvetica,sans-Serif" font-size="10.00">tracktion::engine::</text>
<text text-anchor="middle" x="243" y="-7" font-family="Helvetica,sans-Serif" font-size="10.00">WaveNodeRealTime</text>
</a>
</g>
</g>
<!-- Node1&#45;&gt;Node18 -->
<g id="edge17_Node000001_Node000018" class="edge">
<title>Node1&#45;&gt;Node18</title>
<g id="a_edge17_Node000001_Node000018"><a xlink:title=" ">
<path fill="none" stroke="#63b8ff" d="M63.84,-373.71C74.06,-299.98 107.17,-87.43 155,-39 163.15,-30.75 173.85,-25.26 184.96,-21.63"/>
<polygon fill="#63b8ff" stroke="#63b8ff" points="60.33,-373.54 62.45,-383.92 67.26,-374.49 60.33,-373.54"/>
</a>
</g>
</g>
</g>
</svg>
