<?xml version="1.0" encoding="UTF-8" standalone="no"?>
<!DOCTYPE svg PUBLIC "-//W3C//DTD SVG 1.1//EN"
 "http://www.w3.org/Graphics/SVG/1.1/DTD/svg11.dtd">
<!-- Generated by graphviz version 2.43.0 (0)
 -->
<!-- Title: tracktion_engine::FourOscPlugin Pages: 1 -->
<svg width="766pt" height="214pt"
 viewBox="0.00 0.00 766.00 213.50" xmlns="http://www.w3.org/2000/svg" xmlns:xlink="http://www.w3.org/1999/xlink">
<g id="graph0" class="graph" transform="scale(1 1) rotate(0) translate(4 209.5)">
<title>tracktion_engine::FourOscPlugin</title>
<!-- Node1 -->
<g id="node1" class="node">
<title>Node1</title>
<g id="a_node1"><a xlink:title=" ">
<polygon fill="#bfbfbf" stroke="black" points="615,-76.5 615,-106.5 758,-106.5 758,-76.5 615,-76.5"/>
<text text-anchor="start" x="623" y="-94.5" font-family="Helvetica,sans-Serif" font-size="10.00">tracktion_engine::FourOsc</text>
<text text-anchor="middle" x="686.5" y="-83.5" font-family="Helvetica,sans-Serif" font-size="10.00">Plugin</text>
</a>
</g>
</g>
<!-- Node2 -->
<g id="node2" class="node">
<title>Node2</title>
<g id="a_node2"><a xlink:href="classtracktion__engine_1_1Plugin.html" target="_top" xlink:title=" ">
<polygon fill="none" stroke="black" points="424,-104 424,-123 558,-123 558,-104 424,-104"/>
<text text-anchor="middle" x="491" y="-111" font-family="Helvetica,sans-Serif" font-size="10.00">tracktion_engine::Plugin</text>
</a>
</g>
</g>
<!-- Node2&#45;&gt;Node1 -->
<g id="edge1" class="edge">
<title>Node2&#45;&gt;Node1</title>
<path fill="none" stroke="midnightblue" d="M568.05,-104.85C583.45,-103.1 599.58,-101.27 614.79,-99.54"/>
<polygon fill="midnightblue" stroke="midnightblue" points="567.59,-101.38 558.05,-105.99 568.38,-108.34 567.59,-101.38"/>
</g>
<!-- Node3 -->
<g id="node3" class="node">
<title>Node3</title>
<g id="a_node3"><a xlink:href="classtracktion__engine_1_1Selectable.html" target="_top" xlink:title="Base class for things that can be selected, and whose properties can appear in the properties panel.">
<polygon fill="none" stroke="black" points="197,-186 197,-205 352,-205 352,-186 197,-186"/>
<text text-anchor="middle" x="274.5" y="-193" font-family="Helvetica,sans-Serif" font-size="10.00">tracktion_engine::Selectable</text>
</a>
</g>
</g>
<!-- Node3&#45;&gt;Node2 -->
<g id="edge2" class="edge">
<title>Node3&#45;&gt;Node2</title>
<path fill="none" stroke="midnightblue" d="M343.15,-183.6C351.27,-181.54 359.39,-179.19 367,-176.5 407.73,-162.14 451.99,-136.83 474.68,-123.06"/>
<polygon fill="midnightblue" stroke="midnightblue" points="342.17,-180.24 333.26,-185.97 343.8,-187.05 342.17,-180.24"/>
</g>
<!-- Node4 -->
<g id="node4" class="node">
<title>Node4</title>
<g id="a_node4"><a xlink:href="classtracktion__engine_1_1Exportable.html" target="_top" xlink:title="An interface for objects within an edit that can be exported.">
<polygon fill="none" stroke="black" points="196,-148 196,-167 353,-167 353,-148 196,-148"/>
<text text-anchor="middle" x="274.5" y="-155" font-family="Helvetica,sans-Serif" font-size="10.00">tracktion_engine::Exportable</text>
</a>
</g>
</g>
<!-- Node4&#45;&gt;Node2 -->
<g id="edge3" class="edge">
<title>Node4&#45;&gt;Node2</title>
<path fill="none" stroke="midnightblue" d="M332.05,-145.9C366.82,-138.77 410.82,-129.74 443.55,-123.03"/>
<polygon fill="midnightblue" stroke="midnightblue" points="331.14,-142.51 322.04,-147.95 332.54,-149.37 331.14,-142.51"/>
</g>
<!-- Node5 -->
<g id="node5" class="node">
<title>Node5</title>
<g id="a_node5"><a xlink:href="classtracktion__engine_1_1AutomatableEditItem.html" target="_top" xlink:title="Base class for elements that have some kind of automatable parameters.">
<polygon fill="none" stroke="black" points="191,-98.5 191,-128.5 358,-128.5 358,-98.5 191,-98.5"/>
<text text-anchor="start" x="199" y="-116.5" font-family="Helvetica,sans-Serif" font-size="10.00">tracktion_engine::Automatable</text>
<text text-anchor="middle" x="274.5" y="-105.5" font-family="Helvetica,sans-Serif" font-size="10.00">EditItem</text>
</a>
</g>
</g>
<!-- Node5&#45;&gt;Node2 -->
<g id="edge4" class="edge">
<title>Node5&#45;&gt;Node2</title>
<path fill="none" stroke="midnightblue" d="M368.13,-113.5C386.83,-113.5 406.14,-113.5 423.71,-113.5"/>
<polygon fill="midnightblue" stroke="midnightblue" points="368.12,-110 358.12,-113.5 368.12,-117 368.12,-110"/>
</g>
<!-- Node6 -->
<g id="node6" class="node">
<title>Node6</title>
<g id="a_node6"><a xlink:href="classtracktion__engine_1_1EditItem.html" target="_top" xlink:title="Base class for objects that live inside an edit &#45; e.g.">
<polygon fill="none" stroke="black" points="0,-104 0,-123 146,-123 146,-104 0,-104"/>
<text text-anchor="middle" x="73" y="-111" font-family="Helvetica,sans-Serif" font-size="10.00">tracktion_engine::EditItem</text>
</a>
</g>
</g>
<!-- Node6&#45;&gt;Node5 -->
<g id="edge5" class="edge">
<title>Node6&#45;&gt;Node5</title>
<path fill="none" stroke="midnightblue" d="M156.35,-113.5C167.7,-113.5 179.37,-113.5 190.74,-113.5"/>
<polygon fill="midnightblue" stroke="midnightblue" points="156.02,-110 146.02,-113.5 156.02,-117 156.02,-110"/>
</g>
<!-- Node7 -->
<g id="node7" class="node">
<title>Node7</title>
<g id="a_node7"><a xlink:href="classtracktion__engine_1_1MacroParameterElement.html" target="_top" xlink:title="Base class for elements which can contain macro parameters.">
<polygon fill="none" stroke="black" points="182,-49.5 182,-79.5 367,-79.5 367,-49.5 182,-49.5"/>
<text text-anchor="start" x="190" y="-67.5" font-family="Helvetica,sans-Serif" font-size="10.00">tracktion_engine::MacroParameter</text>
<text text-anchor="middle" x="274.5" y="-56.5" font-family="Helvetica,sans-Serif" font-size="10.00">Element</text>
</a>
</g>
</g>
<!-- Node7&#45;&gt;Node2 -->
<g id="edge6" class="edge">
<title>Node7&#45;&gt;Node2</title>
<path fill="none" stroke="midnightblue" d="M351.28,-81.81C383.89,-89.26 420.76,-97.68 448.29,-103.97"/>
<polygon fill="midnightblue" stroke="midnightblue" points="351.84,-78.35 341.31,-79.53 350.28,-85.17 351.84,-78.35"/>
</g>
<!-- Node8 -->
<g id="node8" class="node">
<title>Node8</title>
<g id="a_node8"><a xlink:href="structtracktion__engine_1_1ValueTreeAllEventListener.html" target="_top" xlink:title=" ">
<polygon fill="none" stroke="black" points="198.5,-0.5 198.5,-30.5 350.5,-30.5 350.5,-0.5 198.5,-0.5"/>
<text text-anchor="start" x="206.5" y="-18.5" font-family="Helvetica,sans-Serif" font-size="10.00">tracktion_engine::ValueTree</text>
<text text-anchor="middle" x="274.5" y="-7.5" font-family="Helvetica,sans-Serif" font-size="10.00">AllEventListener</text>
</a>
</g>
</g>
<!-- Node8&#45;&gt;Node2 -->
<g id="edge7" class="edge">
<title>Node8&#45;&gt;Node2</title>
<path fill="none" stroke="darkgreen" d="M360.25,-35.16C362.58,-36.51 364.84,-37.96 367,-39.5 390.48,-56.25 379.27,-77.11 403,-93.5 409.25,-97.82 416.29,-101.21 423.6,-103.88"/>
<polygon fill="darkgreen" stroke="darkgreen" points="361.45,-31.84 350.96,-30.39 358.26,-38.07 361.45,-31.84"/>
</g>
<!-- Node9 -->
<g id="node9" class="node">
<title>Node9</title>
<g id="a_node9"><a xlink:href="structtracktion__engine_1_1LevelMeasurer_1_1Client.html" target="_top" xlink:title=" ">
<polygon fill="none" stroke="black" points="403,-54.5 403,-84.5 579,-84.5 579,-54.5 403,-54.5"/>
<text text-anchor="start" x="411" y="-72.5" font-family="Helvetica,sans-Serif" font-size="10.00">tracktion_engine::LevelMeasurer</text>
<text text-anchor="middle" x="491" y="-61.5" font-family="Helvetica,sans-Serif" font-size="10.00">::Client</text>
</a>
</g>
</g>
<!-- Node9&#45;&gt;Node1 -->
<g id="edge8" class="edge">
<title>Node9&#45;&gt;Node1</title>
<path fill="none" stroke="#8b1a1a" d="M589.23,-80.55C597.85,-81.53 606.46,-82.51 614.79,-83.46"/>
<polygon fill="#8b1a1a" stroke="#8b1a1a" points="589.46,-77.06 579.13,-79.41 588.67,-84.01 589.46,-77.06"/>
</g>
</g>
</svg>
