<?xml version="1.0" encoding="UTF-8" standalone="no"?>
<!DOCTYPE svg PUBLIC "-//W3C//DTD SVG 1.1//EN"
 "http://www.w3.org/Graphics/SVG/1.1/DTD/svg11.dtd">
<!-- Generated by graphviz version 2.43.0 (0)
 -->
<!-- Title: tracktion::engine::ArrangerTrack Pages: 1 -->
<svg width="297pt" height="240pt"
 viewBox="0.00 0.00 297.00 240.00" xmlns="http://www.w3.org/2000/svg" xmlns:xlink="http://www.w3.org/1999/xlink">
<g id="graph0" class="graph" transform="scale(1 1) rotate(0) translate(4 236)">
<title>tracktion::engine::ArrangerTrack</title>
<!-- Node1 -->
<g id="node1" class="node">
<title>Node1</title>
<g id="a_node1"><a xlink:title="A track similar to the MarkerTrack but can be used to move sections of an Edit around.">
<polygon fill="#bfbfbf" stroke="black" points="122,-0.5 122,-30.5 227,-30.5 227,-0.5 122,-0.5"/>
<text text-anchor="start" x="130" y="-18.5" font-family="Helvetica,sans-Serif" font-size="10.00">tracktion::engine::</text>
<text text-anchor="middle" x="174.5" y="-7.5" font-family="Helvetica,sans-Serif" font-size="10.00">ArrangerTrack</text>
</a>
</g>
</g>
<!-- Node2 -->
<g id="node2" class="node">
<title>Node2</title>
<g id="a_node2"><a xlink:href="classtracktion_1_1engine_1_1ClipTrack.html" target="_top" xlink:title=" ">
<polygon fill="none" stroke="black" points="122,-67.5 122,-97.5 227,-97.5 227,-67.5 122,-67.5"/>
<text text-anchor="start" x="130" y="-85.5" font-family="Helvetica,sans-Serif" font-size="10.00">tracktion::engine::</text>
<text text-anchor="middle" x="174.5" y="-74.5" font-family="Helvetica,sans-Serif" font-size="10.00">ClipTrack</text>
</a>
</g>
</g>
<!-- Node2&#45;&gt;Node1 -->
<g id="edge1" class="edge">
<title>Node2&#45;&gt;Node1</title>
<path fill="none" stroke="midnightblue" d="M174.5,-57.11C174.5,-48.15 174.5,-38.32 174.5,-30.58"/>
<polygon fill="midnightblue" stroke="midnightblue" points="171,-57.4 174.5,-67.4 178,-57.4 171,-57.4"/>
</g>
<!-- Node3 -->
<g id="node3" class="node">
<title>Node3</title>
<g id="a_node3"><a xlink:href="classtracktion_1_1engine_1_1Track.html" target="_top" xlink:title="Base class for tracks which contain clips and plugins and can be added to Edit[s].">
<polygon fill="none" stroke="black" points="61,-134.5 61,-164.5 166,-164.5 166,-134.5 61,-134.5"/>
<text text-anchor="start" x="69" y="-152.5" font-family="Helvetica,sans-Serif" font-size="10.00">tracktion::engine::</text>
<text text-anchor="middle" x="113.5" y="-141.5" font-family="Helvetica,sans-Serif" font-size="10.00">Track</text>
</a>
</g>
</g>
<!-- Node3&#45;&gt;Node2 -->
<g id="edge2" class="edge">
<title>Node3&#45;&gt;Node2</title>
<path fill="none" stroke="midnightblue" d="M133.65,-127.02C142.74,-117.34 153.22,-106.17 161.29,-97.58"/>
<polygon fill="midnightblue" stroke="midnightblue" points="131.03,-124.71 126.74,-134.4 136.13,-129.5 131.03,-124.71"/>
</g>
<!-- Node4 -->
<g id="node4" class="node">
<title>Node4</title>
<g id="a_node4"><a xlink:href="classtracktion_1_1engine_1_1EditItem.html" target="_top" xlink:title="Base class for objects that live inside an edit &#45; e.g.">
<polygon fill="none" stroke="black" points="0,-201.5 0,-231.5 105,-231.5 105,-201.5 0,-201.5"/>
<text text-anchor="start" x="8" y="-219.5" font-family="Helvetica,sans-Serif" font-size="10.00">tracktion::engine::</text>
<text text-anchor="middle" x="52.5" y="-208.5" font-family="Helvetica,sans-Serif" font-size="10.00">EditItem</text>
</a>
</g>
</g>
<!-- Node4&#45;&gt;Node3 -->
<g id="edge3" class="edge">
<title>Node4&#45;&gt;Node3</title>
<path fill="none" stroke="midnightblue" d="M72.65,-194.02C81.74,-184.34 92.22,-173.17 100.29,-164.58"/>
<polygon fill="midnightblue" stroke="midnightblue" points="70.03,-191.71 65.74,-201.4 75.13,-196.5 70.03,-191.71"/>
</g>
<!-- Node5 -->
<g id="node5" class="node">
<title>Node5</title>
<g id="a_node5"><a xlink:href="classtracktion_1_1engine_1_1Selectable.html" target="_top" xlink:title="Base class for things that can be selected, and whose properties can appear in the properties panel.">
<polygon fill="none" stroke="black" points="123,-201.5 123,-231.5 228,-231.5 228,-201.5 123,-201.5"/>
<text text-anchor="start" x="131" y="-219.5" font-family="Helvetica,sans-Serif" font-size="10.00">tracktion::engine::</text>
<text text-anchor="middle" x="175.5" y="-208.5" font-family="Helvetica,sans-Serif" font-size="10.00">Selectable</text>
</a>
</g>
</g>
<!-- Node5&#45;&gt;Node3 -->
<g id="edge4" class="edge">
<title>Node5&#45;&gt;Node3</title>
<path fill="none" stroke="midnightblue" d="M155.02,-194.02C145.78,-184.34 135.13,-173.17 126.93,-164.58"/>
<polygon fill="midnightblue" stroke="midnightblue" points="152.61,-196.58 162.05,-201.4 157.68,-191.74 152.61,-196.58"/>
</g>
<!-- Node6 -->
<g id="node6" class="node">
<title>Node6</title>
<g id="a_node6"><a xlink:href="classtracktion_1_1engine_1_1ClipOwner.html" target="_top" xlink:title="Base class for items that can contain clips.">
<polygon fill="none" stroke="black" points="184,-134.5 184,-164.5 289,-164.5 289,-134.5 184,-134.5"/>
<text text-anchor="start" x="192" y="-152.5" font-family="Helvetica,sans-Serif" font-size="10.00">tracktion::engine::</text>
<text text-anchor="middle" x="236.5" y="-141.5" font-family="Helvetica,sans-Serif" font-size="10.00">ClipOwner</text>
</a>
</g>
</g>
<!-- Node6&#45;&gt;Node2 -->
<g id="edge5" class="edge">
<title>Node6&#45;&gt;Node2</title>
<path fill="none" stroke="midnightblue" d="M216.02,-127.02C206.78,-117.34 196.13,-106.17 187.93,-97.58"/>
<polygon fill="midnightblue" stroke="midnightblue" points="213.61,-129.58 223.05,-134.4 218.68,-124.74 213.61,-129.58"/>
</g>
</g>
</svg>
