<?xml version="1.0" encoding="UTF-8" standalone="no"?>
<!DOCTYPE svg PUBLIC "-//W3C//DTD SVG 1.1//EN"
 "http://www.w3.org/Graphics/SVG/1.1/DTD/svg11.dtd">
<!-- Generated by graphviz version 2.43.0 (0)
 -->
<!-- Title: tracktion::engine::TracktionEngineNode Pages: 1 -->
<svg width="319pt" height="627pt"
 viewBox="0.00 0.00 319.00 627.00" xmlns="http://www.w3.org/2000/svg" xmlns:xlink="http://www.w3.org/1999/xlink">
<g id="graph0" class="graph" transform="scale(1 1) rotate(0) translate(4 623)">
<title>tracktion::engine::TracktionEngineNode</title>
<!-- Node1 -->
<g id="node1" class="node">
<title>Node1</title>
<g id="a_node1"><a xlink:title="Base class for Nodes that provides information about the current process call.">
<polygon fill="#bfbfbf" stroke="black" points="0,-294.5 0,-324.5 119,-324.5 119,-294.5 0,-294.5"/>
<text text-anchor="start" x="8" y="-312.5" font-family="Helvetica,sans-Serif" font-size="10.00">tracktion::engine::</text>
<text text-anchor="middle" x="59.5" y="-301.5" font-family="Helvetica,sans-Serif" font-size="10.00">TracktionEngineNode</text>
</a>
</g>
</g>
<!-- Node2 -->
<g id="node2" class="node">
<title>Node2</title>
<g id="a_node2"><a xlink:href="classtracktion_1_1engine_1_1CombiningNode.html" target="_top" xlink:title="An Node that mixes a sequence of clips of other nodes.">
<polygon fill="none" stroke="black" points="180.5,-588.5 180.5,-618.5 285.5,-618.5 285.5,-588.5 180.5,-588.5"/>
<text text-anchor="start" x="188.5" y="-606.5" font-family="Helvetica,sans-Serif" font-size="10.00">tracktion::engine::</text>
<text text-anchor="middle" x="233" y="-595.5" font-family="Helvetica,sans-Serif" font-size="10.00">CombiningNode</text>
</a>
</g>
</g>
<!-- Node1&#45;&gt;Node2 -->
<g id="edge1" class="edge">
<title>Node1&#45;&gt;Node2</title>
<path fill="none" stroke="midnightblue" d="M62,-334.71C66.52,-387.71 84.47,-511.37 155,-579.5 162.05,-586.31 171,-591.19 180.29,-594.69"/>
<polygon fill="midnightblue" stroke="midnightblue" points="65.47,-334.23 61.23,-324.52 58.49,-334.76 65.47,-334.23"/>
</g>
<!-- Node3 -->
<g id="node3" class="node">
<title>Node3</title>
<g id="a_node3"><a xlink:href="classtracktion_1_1engine_1_1ContainerClipNode.html" target="_top" xlink:title=" ">
<polygon fill="none" stroke="black" points="179,-539.5 179,-569.5 287,-569.5 287,-539.5 179,-539.5"/>
<text text-anchor="start" x="187" y="-557.5" font-family="Helvetica,sans-Serif" font-size="10.00">tracktion::engine::</text>
<text text-anchor="middle" x="233" y="-546.5" font-family="Helvetica,sans-Serif" font-size="10.00">ContainerClipNode</text>
</a>
</g>
</g>
<!-- Node1&#45;&gt;Node3 -->
<g id="edge2" class="edge">
<title>Node1&#45;&gt;Node3</title>
<path fill="none" stroke="midnightblue" d="M64.22,-334.55C72.31,-380.18 95.79,-477.04 155,-530.5 161.76,-536.6 170.04,-541.15 178.65,-544.54"/>
<polygon fill="midnightblue" stroke="midnightblue" points="67.66,-333.9 62.56,-324.62 60.76,-335.06 67.66,-333.9"/>
</g>
<!-- Node4 -->
<g id="node4" class="node">
<title>Node4</title>
<g id="a_node4"><a xlink:href="classtracktion_1_1engine_1_1DynamicOffsetNode.html" target="_top" xlink:title=" ">
<polygon fill="none" stroke="black" points="175.5,-490.5 175.5,-520.5 290.5,-520.5 290.5,-490.5 175.5,-490.5"/>
<text text-anchor="start" x="183.5" y="-508.5" font-family="Helvetica,sans-Serif" font-size="10.00">tracktion::engine::</text>
<text text-anchor="middle" x="233" y="-497.5" font-family="Helvetica,sans-Serif" font-size="10.00">DynamicOffsetNode</text>
</a>
</g>
</g>
<!-- Node1&#45;&gt;Node4 -->
<g id="edge3" class="edge">
<title>Node1&#45;&gt;Node4</title>
<path fill="none" stroke="midnightblue" d="M67.52,-334.25C79.37,-371.6 106.9,-442.18 155,-481.5 160.96,-486.37 167.92,-490.26 175.16,-493.36"/>
<polygon fill="midnightblue" stroke="midnightblue" points="70.86,-333.19 64.59,-324.65 64.16,-335.24 70.86,-333.19"/>
</g>
<!-- Node5 -->
<g id="node5" class="node">
<title>Node5</title>
<g id="a_node5"><a xlink:href="classtracktion_1_1engine_1_1FadeInOutNode.html" target="_top" xlink:title="A Node that fades in and out given time regions.">
<polygon fill="none" stroke="black" points="180.5,-441.5 180.5,-471.5 285.5,-471.5 285.5,-441.5 180.5,-441.5"/>
<text text-anchor="start" x="188.5" y="-459.5" font-family="Helvetica,sans-Serif" font-size="10.00">tracktion::engine::</text>
<text text-anchor="middle" x="233" y="-448.5" font-family="Helvetica,sans-Serif" font-size="10.00">FadeInOutNode</text>
</a>
</g>
</g>
<!-- Node1&#45;&gt;Node5 -->
<g id="edge4" class="edge">
<title>Node1&#45;&gt;Node5</title>
<path fill="none" stroke="midnightblue" d="M73.12,-333.85C88.73,-361.65 117.85,-406.6 155,-432.5 162.58,-437.79 171.37,-441.94 180.24,-445.2"/>
<polygon fill="midnightblue" stroke="midnightblue" points="76.04,-331.89 68.17,-324.8 69.89,-335.25 76.04,-331.89"/>
</g>
<!-- Node6 -->
<g id="node6" class="node">
<title>Node6</title>
<g id="a_node6"><a xlink:href="classtracktion_1_1engine_1_1HostedMidiInputDeviceNode.html" target="_top" xlink:title="A Node that intercepts MIDI from a plugin callback and inserts it in to the playback graph.">
<polygon fill="none" stroke="black" points="155,-392.5 155,-422.5 311,-422.5 311,-392.5 155,-392.5"/>
<text text-anchor="start" x="163" y="-410.5" font-family="Helvetica,sans-Serif" font-size="10.00">tracktion::engine::</text>
<text text-anchor="middle" x="233" y="-399.5" font-family="Helvetica,sans-Serif" font-size="10.00">HostedMidiInputDeviceNode</text>
</a>
</g>
</g>
<!-- Node1&#45;&gt;Node6 -->
<g id="edge5" class="edge">
<title>Node1&#45;&gt;Node6</title>
<path fill="none" stroke="#8b1a1a" d="M83.7,-331.61C101.87,-347.9 128.44,-369.56 155,-383.5 161.32,-386.82 168.18,-389.77 175.12,-392.36"/>
<polygon fill="#8b1a1a" stroke="#8b1a1a" points="85.71,-328.71 75.97,-324.55 80.99,-333.88 85.71,-328.71"/>
</g>
<!-- Node7 -->
<g id="node7" class="node">
<title>Node7</title>
<g id="a_node7"><a xlink:href="classtracktion_1_1engine_1_1LoopingMidiNode.html" target="_top" xlink:title="A Node that plays MIDI data from a MidiMessageSequence, at a specific MIDI channel.">
<polygon fill="none" stroke="black" points="180.5,-343.5 180.5,-373.5 285.5,-373.5 285.5,-343.5 180.5,-343.5"/>
<text text-anchor="start" x="188.5" y="-361.5" font-family="Helvetica,sans-Serif" font-size="10.00">tracktion::engine::</text>
<text text-anchor="middle" x="233" y="-350.5" font-family="Helvetica,sans-Serif" font-size="10.00">LoopingMidiNode</text>
</a>
</g>
</g>
<!-- Node1&#45;&gt;Node7 -->
<g id="edge6" class="edge">
<title>Node1&#45;&gt;Node7</title>
<path fill="none" stroke="midnightblue" d="M123.06,-327.37C141.93,-332.77 162.43,-338.62 180.5,-343.78"/>
<polygon fill="midnightblue" stroke="midnightblue" points="123.93,-323.98 113.36,-324.6 122.01,-330.71 123.93,-323.98"/>
</g>
<!-- Node8 -->
<g id="node8" class="node">
<title>Node8</title>
<g id="a_node8"><a xlink:href="classtracktion_1_1engine_1_1MidiNode.html" target="_top" xlink:title="A Node that plays MIDI data from a MidiMessageSequence, at a specific MIDI channel.">
<polygon fill="none" stroke="black" points="180.5,-294.5 180.5,-324.5 285.5,-324.5 285.5,-294.5 180.5,-294.5"/>
<text text-anchor="start" x="188.5" y="-312.5" font-family="Helvetica,sans-Serif" font-size="10.00">tracktion::engine::</text>
<text text-anchor="middle" x="233" y="-301.5" font-family="Helvetica,sans-Serif" font-size="10.00">MidiNode</text>
</a>
</g>
</g>
<!-- Node1&#45;&gt;Node8 -->
<g id="edge7" class="edge">
<title>Node1&#45;&gt;Node8</title>
<path fill="none" stroke="midnightblue" d="M129.47,-309.5C146.44,-309.5 164.32,-309.5 180.32,-309.5"/>
<polygon fill="midnightblue" stroke="midnightblue" points="129.04,-306 119.04,-309.5 129.04,-313 129.04,-306"/>
</g>
<!-- Node9 -->
<g id="node9" class="node">
<title>Node9</title>
<g id="a_node9"><a xlink:href="classtracktion_1_1engine_1_1PlayHeadPositionNode.html" target="_top" xlink:title="A Node that calculates a position to show visually what time is currently being processed by the grap...">
<polygon fill="none" stroke="black" points="169,-245.5 169,-275.5 297,-275.5 297,-245.5 169,-245.5"/>
<text text-anchor="start" x="177" y="-263.5" font-family="Helvetica,sans-Serif" font-size="10.00">tracktion::engine::</text>
<text text-anchor="middle" x="233" y="-252.5" font-family="Helvetica,sans-Serif" font-size="10.00">PlayHeadPositionNode</text>
</a>
</g>
</g>
<!-- Node1&#45;&gt;Node9 -->
<g id="edge8" class="edge">
<title>Node1&#45;&gt;Node9</title>
<path fill="none" stroke="midnightblue" d="M123.13,-291.61C141.58,-286.34 161.56,-280.62 179.32,-275.55"/>
<polygon fill="midnightblue" stroke="midnightblue" points="122.01,-288.29 113.36,-294.4 123.93,-295.02 122.01,-288.29"/>
</g>
<!-- Node10 -->
<g id="node10" class="node">
<title>Node10</title>
<g id="a_node10"><a xlink:href="classtracktion_1_1engine_1_1PluginNode.html" target="_top" xlink:title="Node for processing a plugin.">
<polygon fill="none" stroke="black" points="180.5,-196.5 180.5,-226.5 285.5,-226.5 285.5,-196.5 180.5,-196.5"/>
<text text-anchor="start" x="188.5" y="-214.5" font-family="Helvetica,sans-Serif" font-size="10.00">tracktion::engine::</text>
<text text-anchor="middle" x="233" y="-203.5" font-family="Helvetica,sans-Serif" font-size="10.00">PluginNode</text>
</a>
</g>
</g>
<!-- Node1&#45;&gt;Node10 -->
<g id="edge9" class="edge">
<title>Node1&#45;&gt;Node10</title>
<path fill="none" stroke="midnightblue" d="M84.13,-287.51C102.34,-271.52 128.77,-250.35 155,-236.5 162.95,-232.3 171.74,-228.64 180.45,-225.51"/>
<polygon fill="midnightblue" stroke="midnightblue" points="81.49,-285.17 76.37,-294.44 86.16,-290.39 81.49,-285.17"/>
</g>
<!-- Node11 -->
<g id="node11" class="node">
<title>Node11</title>
<g id="a_node11"><a xlink:href="classtracktion_1_1engine_1_1SpeedRampWaveNode.html" target="_top" xlink:title="An Node that plays back a wave file.">
<polygon fill="none" stroke="black" points="169,-147.5 169,-177.5 297,-177.5 297,-147.5 169,-147.5"/>
<text text-anchor="start" x="177" y="-165.5" font-family="Helvetica,sans-Serif" font-size="10.00">tracktion::engine::</text>
<text text-anchor="middle" x="233" y="-154.5" font-family="Helvetica,sans-Serif" font-size="10.00">SpeedRampWaveNode</text>
</a>
</g>
</g>
<!-- Node1&#45;&gt;Node11 -->
<g id="edge10" class="edge">
<title>Node1&#45;&gt;Node11</title>
<path fill="none" stroke="midnightblue" d="M73.22,-285.42C88.93,-257.93 118.14,-213.42 155,-187.5 160.52,-183.62 166.67,-180.32 173.04,-177.51"/>
<polygon fill="midnightblue" stroke="midnightblue" points="70.04,-283.94 68.24,-294.38 76.16,-287.34 70.04,-283.94"/>
</g>
<!-- Node12 -->
<g id="node12" class="node">
<title>Node12</title>
<g id="a_node12"><a xlink:href="classtracktion_1_1engine_1_1TrackMidiInputDeviceNode.html" target="_top" xlink:title="A Node that takes MIDI from the output of a track and sends it to its corresponding InputDevice.">
<polygon fill="none" stroke="black" points="159.5,-98.5 159.5,-128.5 306.5,-128.5 306.5,-98.5 159.5,-98.5"/>
<text text-anchor="start" x="167.5" y="-116.5" font-family="Helvetica,sans-Serif" font-size="10.00">tracktion::engine::</text>
<text text-anchor="middle" x="233" y="-105.5" font-family="Helvetica,sans-Serif" font-size="10.00">TrackMidiInputDeviceNode</text>
</a>
</g>
</g>
<!-- Node1&#45;&gt;Node12 -->
<g id="edge11" class="edge">
<title>Node1&#45;&gt;Node12</title>
<path fill="none" stroke="#8b1a1a" d="M67.77,-284.49C79.84,-247.32 107.5,-177.7 155,-138.5 159.66,-134.65 164.93,-131.39 170.47,-128.63"/>
<polygon fill="#8b1a1a" stroke="#8b1a1a" points="64.29,-283.89 64.65,-294.48 70.97,-285.98 64.29,-283.89"/>
</g>
<!-- Node13 -->
<g id="node13" class="node">
<title>Node13</title>
<g id="a_node13"><a xlink:href="classtracktion_1_1engine_1_1WaveNode.html" target="_top" xlink:title="An Node that plays back a wave file.">
<polygon fill="none" stroke="black" points="180.5,-49.5 180.5,-79.5 285.5,-79.5 285.5,-49.5 180.5,-49.5"/>
<text text-anchor="start" x="188.5" y="-67.5" font-family="Helvetica,sans-Serif" font-size="10.00">tracktion::engine::</text>
<text text-anchor="middle" x="233" y="-56.5" font-family="Helvetica,sans-Serif" font-size="10.00">WaveNode</text>
</a>
</g>
</g>
<!-- Node1&#45;&gt;Node13 -->
<g id="edge12" class="edge">
<title>Node1&#45;&gt;Node13</title>
<path fill="none" stroke="midnightblue" d="M64.32,-284.63C72.57,-239.31 96.29,-143.06 155,-89.5 162.16,-82.96 171.06,-78.14 180.24,-74.57"/>
<polygon fill="midnightblue" stroke="midnightblue" points="60.86,-284.05 62.62,-294.49 67.76,-285.23 60.86,-284.05"/>
</g>
<!-- Node14 -->
<g id="node14" class="node">
<title>Node14</title>
<g id="a_node14"><a xlink:href="classtracktion_1_1engine_1_1WaveNodeRealTime.html" target="_top" xlink:title="An Node that plays back a wave file.">
<polygon fill="none" stroke="black" points="175,-0.5 175,-30.5 291,-30.5 291,-0.5 175,-0.5"/>
<text text-anchor="start" x="183" y="-18.5" font-family="Helvetica,sans-Serif" font-size="10.00">tracktion::engine::</text>
<text text-anchor="middle" x="233" y="-7.5" font-family="Helvetica,sans-Serif" font-size="10.00">WaveNodeRealTime</text>
</a>
</g>
</g>
<!-- Node1&#45;&gt;Node14 -->
<g id="edge13" class="edge">
<title>Node1&#45;&gt;Node14</title>
<path fill="none" stroke="midnightblue" d="M62.13,-284.07C66.88,-231.18 85.23,-108.62 155,-40.5 160.63,-35 167.48,-30.71 174.75,-27.37"/>
<polygon fill="midnightblue" stroke="midnightblue" points="58.62,-284 61.31,-294.25 65.6,-284.56 58.62,-284"/>
</g>
</g>
</svg>
