<?xml version="1.0" encoding="UTF-8" standalone="no"?>
<!DOCTYPE svg PUBLIC "-//W3C//DTD SVG 1.1//EN"
 "http://www.w3.org/Graphics/SVG/1.1/DTD/svg11.dtd">
<!-- Generated by graphviz version 2.40.1 (20161225.0304)
 -->
<!-- Title: tracktion_engine::RackInstance Pages: 1 -->
<svg width="689pt" height="214pt"
 viewBox="0.00 0.00 689.00 213.50" xmlns="http://www.w3.org/2000/svg" xmlns:xlink="http://www.w3.org/1999/xlink">
<g id="graph0" class="graph" transform="scale(1 1) rotate(0) translate(4 209.5)">
<title>tracktion_engine::RackInstance</title>
<!-- Node0 -->
<g id="node1" class="node">
<title>Node0</title>
<polygon fill="#bfbfbf" stroke="#000000" points="526,-104 526,-123 681,-123 681,-104 526,-104"/>
<text text-anchor="middle" x="603.5" y="-111" font-family="Helvetica,sans-Serif" font-size="10.00" fill="#000000">tracktion_engine::RackInstance</text>
</g>
<!-- Node1 -->
<g id="node2" class="node">
<title>Node1</title>
<g id="a_node2"><a xlink:href="classtracktion__engine_1_1Plugin.html" target="_top" xlink:title="tracktion_engine::Plugin">
<polygon fill="none" stroke="#000000" points="369,-104 369,-123 490,-123 490,-104 369,-104"/>
<text text-anchor="middle" x="429.5" y="-111" font-family="Helvetica,sans-Serif" font-size="10.00" fill="#000000">tracktion_engine::Plugin</text>
</a>
</g>
</g>
<!-- Node1&#45;&gt;Node0 -->
<g id="edge1" class="edge">
<title>Node1&#45;&gt;Node0</title>
<path fill="none" stroke="#191970" d="M500.4456,-113.5C508.8181,-113.5 517.3961,-113.5 525.8548,-113.5"/>
<polygon fill="#191970" stroke="#191970" points="500.3568,-110.0001 490.3568,-113.5 500.3567,-117.0001 500.3568,-110.0001"/>
</g>
<!-- Node2 -->
<g id="node3" class="node">
<title>Node2</title>
<g id="a_node3"><a xlink:href="classtracktion__engine_1_1Selectable.html" target="_top" xlink:title="Base class for things that can be selected, and whose properties can appear in the properties panel...">
<polygon fill="none" stroke="#000000" points="180,-186 180,-205 320,-205 320,-186 180,-186"/>
<text text-anchor="middle" x="250" y="-193" font-family="Helvetica,sans-Serif" font-size="10.00" fill="#000000">tracktion_engine::Selectable</text>
</a>
</g>
</g>
<!-- Node2&#45;&gt;Node1 -->
<g id="edge2" class="edge">
<title>Node2&#45;&gt;Node1</title>
<path fill="none" stroke="#191970" d="M314.4735,-183.1314C320.8322,-181.2035 327.107,-179.0034 333,-176.5 366.147,-162.4189 400.3891,-136.9931 417.799,-123.1376"/>
<polygon fill="#191970" stroke="#191970" points="313.1382,-179.8708 304.4549,-185.9413 315.0286,-186.6107 313.1382,-179.8708"/>
</g>
<!-- Node3 -->
<g id="node4" class="node">
<title>Node3</title>
<g id="a_node4"><a xlink:href="classtracktion__engine_1_1Exportable.html" target="_top" xlink:title="An interface for objects within an edit that can be exported. ">
<polygon fill="none" stroke="#000000" points="180,-148 180,-167 320,-167 320,-148 180,-148"/>
<text text-anchor="middle" x="250" y="-155" font-family="Helvetica,sans-Serif" font-size="10.00" fill="#000000">tracktion_engine::Exportable</text>
</a>
</g>
</g>
<!-- Node3&#45;&gt;Node1 -->
<g id="edge3" class="edge">
<title>Node3&#45;&gt;Node1</title>
<path fill="none" stroke="#191970" d="M302.6315,-145.6894C312.7237,-143.3576 323.1984,-140.891 333,-138.5 353.1762,-133.5782 375.6409,-127.7775 393.8153,-123.0032"/>
<polygon fill="#191970" stroke="#191970" points="301.6688,-142.3193 292.7058,-147.9687 303.2355,-149.1418 301.6688,-142.3193"/>
</g>
<!-- Node4 -->
<g id="node5" class="node">
<title>Node4</title>
<g id="a_node5"><a xlink:href="classtracktion__engine_1_1AutomatableEditItem.html" target="_top" xlink:title="Base class for elements that have some kind of automatable parameters. ">
<polygon fill="none" stroke="#000000" points="175.5,-98.5 175.5,-128.5 324.5,-128.5 324.5,-98.5 175.5,-98.5"/>
<text text-anchor="start" x="183.5" y="-116.5" font-family="Helvetica,sans-Serif" font-size="10.00" fill="#000000">tracktion_engine::Automatable</text>
<text text-anchor="middle" x="250" y="-105.5" font-family="Helvetica,sans-Serif" font-size="10.00" fill="#000000">EditItem</text>
</a>
</g>
</g>
<!-- Node4&#45;&gt;Node1 -->
<g id="edge4" class="edge">
<title>Node4&#45;&gt;Node1</title>
<path fill="none" stroke="#191970" d="M334.649,-113.5C346.1791,-113.5 357.8218,-113.5 368.8126,-113.5"/>
<polygon fill="#191970" stroke="#191970" points="334.5648,-110.0001 324.5647,-113.5 334.5647,-117.0001 334.5648,-110.0001"/>
</g>
<!-- Node5 -->
<g id="node6" class="node">
<title>Node5</title>
<g id="a_node6"><a xlink:href="classtracktion__engine_1_1EditItem.html" target="_top" xlink:title="Base class for objects that live inside an edit &#45; e.g. ">
<polygon fill="none" stroke="#000000" points="0,-104 0,-123 131,-123 131,-104 0,-104"/>
<text text-anchor="middle" x="65.5" y="-111" font-family="Helvetica,sans-Serif" font-size="10.00" fill="#000000">tracktion_engine::EditItem</text>
</a>
</g>
</g>
<!-- Node5&#45;&gt;Node4 -->
<g id="edge5" class="edge">
<title>Node5&#45;&gt;Node4</title>
<path fill="none" stroke="#191970" d="M141.2516,-113.5C152.4657,-113.5 164.016,-113.5 175.2103,-113.5"/>
<polygon fill="#191970" stroke="#191970" points="141.0673,-110.0001 131.0673,-113.5 141.0673,-117.0001 141.0673,-110.0001"/>
</g>
<!-- Node6 -->
<g id="node7" class="node">
<title>Node6</title>
<g id="a_node7"><a xlink:href="classtracktion__engine_1_1MacroParameterElement.html" target="_top" xlink:title="Base class for elements which can contain macro parameters. ">
<polygon fill="none" stroke="#000000" points="167,-49.5 167,-79.5 333,-79.5 333,-49.5 167,-49.5"/>
<text text-anchor="start" x="175" y="-67.5" font-family="Helvetica,sans-Serif" font-size="10.00" fill="#000000">tracktion_engine::MacroParameter</text>
<text text-anchor="middle" x="250" y="-56.5" font-family="Helvetica,sans-Serif" font-size="10.00" fill="#000000">Element</text>
</a>
</g>
</g>
<!-- Node6&#45;&gt;Node1 -->
<g id="edge6" class="edge">
<title>Node6&#45;&gt;Node1</title>
<path fill="none" stroke="#191970" d="M315.0712,-82.2632C341.9853,-89.6102 372.1099,-97.8336 394.6919,-103.9981"/>
<polygon fill="#191970" stroke="#191970" points="315.8893,-78.8585 305.3206,-79.6014 314.0459,-85.6114 315.8893,-78.8585"/>
</g>
<!-- Node7 -->
<g id="node8" class="node">
<title>Node7</title>
<g id="a_node8"><a xlink:href="structtracktion__engine_1_1ValueTreeAllEventListener.html" target="_top" xlink:title="tracktion_engine::ValueTree\lAllEventListener">
<polygon fill="none" stroke="#000000" points="181,-.5 181,-30.5 319,-30.5 319,-.5 181,-.5"/>
<text text-anchor="start" x="189" y="-18.5" font-family="Helvetica,sans-Serif" font-size="10.00" fill="#000000">tracktion_engine::ValueTree</text>
<text text-anchor="middle" x="250" y="-7.5" font-family="Helvetica,sans-Serif" font-size="10.00" fill="#000000">AllEventListener</text>
</a>
</g>
</g>
<!-- Node7&#45;&gt;Node1 -->
<g id="edge7" class="edge">
<title>Node7&#45;&gt;Node1</title>
<path fill="none" stroke="#006400" d="M321.2641,-34.1724C325.2947,-35.8234 329.2346,-37.5975 333,-39.5 368.0493,-57.2085 403.1093,-88.2484 419.6621,-103.8994"/>
<polygon fill="#006400" stroke="#006400" points="322.3253,-30.8313 311.7344,-30.5409 319.8326,-37.3725 322.3253,-30.8313"/>
</g>
</g>
</svg>
