<?xml version="1.0" encoding="UTF-8" standalone="no"?>
<!DOCTYPE svg PUBLIC "-//W3C//DTD SVG 1.1//EN"
 "http://www.w3.org/Graphics/SVG/1.1/DTD/svg11.dtd">
<!-- Generated by graphviz version 2.40.1 (20161225.0304)
 -->
<!-- Title: tracktion_engine::MidiInputDevice Pages: 1 -->
<svg width="667pt" height="88pt"
 viewBox="0.00 0.00 667.00 88.00" xmlns="http://www.w3.org/2000/svg" xmlns:xlink="http://www.w3.org/1999/xlink">
<g id="graph0" class="graph" transform="scale(1 1) rotate(0) translate(4 84)">
<title>tracktion_engine::MidiInputDevice</title>
<!-- Node0 -->
<g id="node1" class="node">
<title>Node0</title>
<polygon fill="#bfbfbf" stroke="#000000" points="358,-24.5 358,-54.5 492,-54.5 492,-24.5 358,-24.5"/>
<text text-anchor="start" x="366" y="-42.5" font-family="Helvetica,sans-Serif" font-size="10.00" fill="#000000">tracktion_engine::MidiInput</text>
<text text-anchor="middle" x="425" y="-31.5" font-family="Helvetica,sans-Serif" font-size="10.00" fill="#000000">Device</text>
</g>
<!-- Node3 -->
<g id="node4" class="node">
<title>Node3</title>
<g id="a_node4"><a xlink:href="classtracktion__engine_1_1PhysicalMidiInputDevice.html" target="_top" xlink:title="tracktion_engine::Physical\lMidiInputDevice">
<polygon fill="none" stroke="#000000" points="528,-49.5 528,-79.5 659,-79.5 659,-49.5 528,-49.5"/>
<text text-anchor="start" x="536" y="-67.5" font-family="Helvetica,sans-Serif" font-size="10.00" fill="#000000">tracktion_engine::Physical</text>
<text text-anchor="middle" x="593.5" y="-56.5" font-family="Helvetica,sans-Serif" font-size="10.00" fill="#000000">MidiInputDevice</text>
</a>
</g>
</g>
<!-- Node0&#45;&gt;Node3 -->
<g id="edge3" class="edge">
<title>Node0&#45;&gt;Node3</title>
<path fill="none" stroke="#191970" d="M502.0805,-50.9363C510.6569,-52.2087 519.3332,-53.496 527.7503,-54.7449"/>
<polygon fill="#191970" stroke="#191970" points="502.4852,-47.4581 492.0798,-49.4525 501.4578,-54.3823 502.4852,-47.4581"/>
</g>
<!-- Node4 -->
<g id="node5" class="node">
<title>Node4</title>
<g id="a_node5"><a xlink:href="classtracktion__engine_1_1VirtualMidiInputDevice.html" target="_top" xlink:title="tracktion_engine::Virtual\lMidiInputDevice">
<polygon fill="none" stroke="#000000" points="532.5,-.5 532.5,-30.5 654.5,-30.5 654.5,-.5 532.5,-.5"/>
<text text-anchor="start" x="540.5" y="-18.5" font-family="Helvetica,sans-Serif" font-size="10.00" fill="#000000">tracktion_engine::Virtual</text>
<text text-anchor="middle" x="593.5" y="-7.5" font-family="Helvetica,sans-Serif" font-size="10.00" fill="#000000">MidiInputDevice</text>
</a>
</g>
</g>
<!-- Node0&#45;&gt;Node4 -->
<g id="edge4" class="edge">
<title>Node0&#45;&gt;Node4</title>
<path fill="none" stroke="#191970" d="M502.1504,-28.5112C512.289,-27.0672 522.5656,-25.6034 532.3875,-24.2045"/>
<polygon fill="#191970" stroke="#191970" points="501.4863,-25.0704 492.0798,-29.9456 502.4735,-32.0004 501.4863,-25.0704"/>
</g>
<!-- Node1 -->
<g id="node2" class="node">
<title>Node1</title>
<g id="a_node2"><a xlink:href="classtracktion__engine_1_1InputDevice.html" target="_top" xlink:title="Represents an input device. ">
<polygon fill="none" stroke="#000000" points="176,-30 176,-49 322,-49 322,-30 176,-30"/>
<text text-anchor="middle" x="249" y="-37" font-family="Helvetica,sans-Serif" font-size="10.00" fill="#000000">tracktion_engine::InputDevice</text>
</a>
</g>
</g>
<!-- Node1&#45;&gt;Node0 -->
<g id="edge1" class="edge">
<title>Node1&#45;&gt;Node0</title>
<path fill="none" stroke="#191970" d="M332.1395,-39.5C340.7235,-39.5 349.3692,-39.5 357.7488,-39.5"/>
<polygon fill="#191970" stroke="#191970" points="332.1109,-36.0001 322.1108,-39.5 332.1108,-43.0001 332.1109,-36.0001"/>
</g>
<!-- Node2 -->
<g id="node3" class="node">
<title>Node2</title>
<g id="a_node3"><a xlink:href="classtracktion__engine_1_1Selectable.html" target="_top" xlink:title="Base class for things that can be selected, and whose properties can appear in the properties panel...">
<polygon fill="none" stroke="#000000" points="0,-30 0,-49 140,-49 140,-30 0,-30"/>
<text text-anchor="middle" x="70" y="-37" font-family="Helvetica,sans-Serif" font-size="10.00" fill="#000000">tracktion_engine::Selectable</text>
</a>
</g>
</g>
<!-- Node2&#45;&gt;Node1 -->
<g id="edge2" class="edge">
<title>Node2&#45;&gt;Node1</title>
<path fill="none" stroke="#191970" d="M150.4336,-39.5C158.858,-39.5 167.3906,-39.5 175.7288,-39.5"/>
<polygon fill="#191970" stroke="#191970" points="150.2318,-36.0001 140.2318,-39.5 150.2318,-43.0001 150.2318,-36.0001"/>
</g>
</g>
</svg>
