<?xml version="1.0" encoding="UTF-8" standalone="no"?>
<!DOCTYPE svg PUBLIC "-//W3C//DTD SVG 1.1//EN"
 "http://www.w3.org/Graphics/SVG/1.1/DTD/svg11.dtd">
<!-- Generated by graphviz version 2.43.0 (0)
 -->
<!-- Title: tracktion::engine::ClipEffect Pages: 1 -->
<svg width="433pt" height="470pt"
 viewBox="0.00 0.00 433.00 470.00" xmlns="http://www.w3.org/2000/svg" xmlns:xlink="http://www.w3.org/1999/xlink">
<g id="graph0" class="graph" transform="scale(1 1) rotate(0) translate(4 466)">
<title>tracktion::engine::ClipEffect</title>
<!-- Node1 -->
<g id="Node000001" class="node">
<title>Node1</title>
<g id="a_Node000001"><a xlink:title=" ">
<polygon fill="#999999" stroke="#666666" points="284,-246 179,-246 179,-216 284,-216 284,-246"/>
<text text-anchor="start" x="187" y="-234" font-family="Helvetica,sans-Serif" font-size="10.00">tracktion::engine::</text>
<text text-anchor="middle" x="231.5" y="-223" font-family="Helvetica,sans-Serif" font-size="10.00">ClipEffect</text>
</a>
</g>
</g>
<!-- Node3 -->
<g id="Node000003" class="node">
<title>Node3</title>
<g id="a_Node000003"><a xlink:href="structtracktion_1_1engine_1_1FadeInOutEffect.html" target="_top" xlink:title=" ">
<polygon fill="white" stroke="#666666" points="425,-462 320,-462 320,-432 425,-432 425,-462"/>
<text text-anchor="start" x="328" y="-450" font-family="Helvetica,sans-Serif" font-size="10.00">tracktion::engine::</text>
<text text-anchor="middle" x="372.5" y="-439" font-family="Helvetica,sans-Serif" font-size="10.00">FadeInOutEffect</text>
</a>
</g>
</g>
<!-- Node1&#45;&gt;Node3 -->
<g id="edge2_Node000001_Node000003" class="edge">
<title>Node1&#45;&gt;Node3</title>
<g id="a_edge2_Node000001_Node000003"><a xlink:title=" ">
<path fill="none" stroke="#63b8ff" d="M237.94,-255.99C247.83,-296.01 272.28,-374.87 320,-423 323.33,-426.36 327.23,-429.31 331.36,-431.87"/>
<polygon fill="#63b8ff" stroke="#63b8ff" points="241.29,-254.94 235.58,-246.01 234.48,-256.55 241.29,-254.94"/>
</a>
</g>
</g>
<!-- Node4 -->
<g id="Node000004" class="node">
<title>Node4</title>
<g id="a_Node000004"><a xlink:href="structtracktion_1_1engine_1_1InvertEffect.html" target="_top" xlink:title=" ">
<polygon fill="white" stroke="#666666" points="425,-414 320,-414 320,-384 425,-384 425,-414"/>
<text text-anchor="start" x="328" y="-402" font-family="Helvetica,sans-Serif" font-size="10.00">tracktion::engine::</text>
<text text-anchor="middle" x="372.5" y="-391" font-family="Helvetica,sans-Serif" font-size="10.00">InvertEffect</text>
</a>
</g>
</g>
<!-- Node1&#45;&gt;Node4 -->
<g id="edge3_Node000001_Node000004" class="edge">
<title>Node1&#45;&gt;Node4</title>
<g id="a_edge3_Node000001_Node000004"><a xlink:title=" ">
<path fill="none" stroke="#63b8ff" d="M241.98,-255.32C255.24,-286.62 282.05,-341.01 320,-375 323.75,-378.36 328.05,-381.33 332.53,-383.94"/>
<polygon fill="#63b8ff" stroke="#63b8ff" points="245.19,-253.94 238.15,-246.03 238.72,-256.61 245.19,-253.94"/>
</a>
</g>
</g>
<!-- Node5 -->
<g id="Node000005" class="node">
<title>Node5</title>
<g id="a_Node000005"><a xlink:href="structtracktion_1_1engine_1_1MakeMonoEffect.html" target="_top" xlink:title=" ">
<polygon fill="white" stroke="#666666" points="425,-366 320,-366 320,-336 425,-336 425,-366"/>
<text text-anchor="start" x="328" y="-354" font-family="Helvetica,sans-Serif" font-size="10.00">tracktion::engine::</text>
<text text-anchor="middle" x="372.5" y="-343" font-family="Helvetica,sans-Serif" font-size="10.00">MakeMonoEffect</text>
</a>
</g>
</g>
<!-- Node1&#45;&gt;Node5 -->
<g id="edge4_Node000001_Node000005" class="edge">
<title>Node1&#45;&gt;Node5</title>
<g id="a_edge4_Node000001_Node000005"><a xlink:title=" ">
<path fill="none" stroke="#63b8ff" d="M249.28,-254.14C265.51,-275.25 291.73,-306.22 320,-327 324.45,-330.27 329.42,-333.26 334.46,-335.93"/>
<polygon fill="#63b8ff" stroke="#63b8ff" points="251.98,-251.91 243.17,-246.03 246.39,-256.12 251.98,-251.91"/>
</a>
</g>
</g>
<!-- Node6 -->
<g id="Node000006" class="node">
<title>Node6</title>
<g id="a_Node000006"><a xlink:href="structtracktion_1_1engine_1_1NormaliseEffect.html" target="_top" xlink:title=" ">
<polygon fill="white" stroke="#666666" points="425,-318 320,-318 320,-288 425,-288 425,-318"/>
<text text-anchor="start" x="328" y="-306" font-family="Helvetica,sans-Serif" font-size="10.00">tracktion::engine::</text>
<text text-anchor="middle" x="372.5" y="-295" font-family="Helvetica,sans-Serif" font-size="10.00">NormaliseEffect</text>
</a>
</g>
</g>
<!-- Node1&#45;&gt;Node6 -->
<g id="edge5_Node000001_Node000006" class="edge">
<title>Node1&#45;&gt;Node6</title>
<g id="a_edge5_Node000001_Node000006"><a xlink:title=" ">
<path fill="none" stroke="#63b8ff" d="M267.97,-251.15C283.77,-259.94 302.69,-270.23 320,-279 325.9,-281.99 332.23,-285.05 338.38,-287.96"/>
<polygon fill="#63b8ff" stroke="#63b8ff" points="269.5,-247.99 259.06,-246.16 266.08,-254.1 269.5,-247.99"/>
</a>
</g>
</g>
<!-- Node7 -->
<g id="Node000007" class="node">
<title>Node7</title>
<g id="a_Node000007"><a xlink:href="structtracktion_1_1engine_1_1PitchShiftEffect.html" target="_top" xlink:title=" ">
<polygon fill="white" stroke="#666666" points="425,-270 320,-270 320,-240 425,-240 425,-270"/>
<text text-anchor="start" x="328" y="-258" font-family="Helvetica,sans-Serif" font-size="10.00">tracktion::engine::</text>
<text text-anchor="middle" x="372.5" y="-247" font-family="Helvetica,sans-Serif" font-size="10.00">PitchShiftEffect</text>
</a>
</g>
</g>
<!-- Node1&#45;&gt;Node7 -->
<g id="edge6_Node000001_Node000007" class="edge">
<title>Node1&#45;&gt;Node7</title>
<g id="a_edge6_Node000001_Node000007"><a xlink:title=" ">
<path fill="none" stroke="#63b8ff" d="M294.16,-241.65C302.69,-243.12 311.38,-244.62 319.7,-246.06"/>
<polygon fill="#63b8ff" stroke="#63b8ff" points="294.71,-238.19 284.26,-239.94 293.52,-245.09 294.71,-238.19"/>
</a>
</g>
</g>
<!-- Node8 -->
<g id="Node000008" class="node">
<title>Node8</title>
<g id="a_Node000008"><a xlink:href="structtracktion_1_1engine_1_1PluginEffect.html" target="_top" xlink:title=" ">
<polygon fill="white" stroke="#666666" points="425,-222 320,-222 320,-192 425,-192 425,-222"/>
<text text-anchor="start" x="328" y="-210" font-family="Helvetica,sans-Serif" font-size="10.00">tracktion::engine::</text>
<text text-anchor="middle" x="372.5" y="-199" font-family="Helvetica,sans-Serif" font-size="10.00">PluginEffect</text>
</a>
</g>
</g>
<!-- Node1&#45;&gt;Node8 -->
<g id="edge7_Node000001_Node000008" class="edge">
<title>Node1&#45;&gt;Node8</title>
<g id="a_edge7_Node000001_Node000008"><a xlink:title=" ">
<path fill="none" stroke="#63b8ff" d="M294.16,-220.35C302.69,-218.88 311.38,-217.38 319.7,-215.94"/>
<polygon fill="#63b8ff" stroke="#63b8ff" points="293.52,-216.91 284.26,-222.06 294.71,-223.81 293.52,-216.91"/>
</a>
</g>
</g>
<!-- Node9 -->
<g id="Node000009" class="node">
<title>Node9</title>
<g id="a_Node000009"><a xlink:href="structtracktion_1_1engine_1_1ReverseEffect.html" target="_top" xlink:title=" ">
<polygon fill="white" stroke="#666666" points="425,-174 320,-174 320,-144 425,-144 425,-174"/>
<text text-anchor="start" x="328" y="-162" font-family="Helvetica,sans-Serif" font-size="10.00">tracktion::engine::</text>
<text text-anchor="middle" x="372.5" y="-151" font-family="Helvetica,sans-Serif" font-size="10.00">ReverseEffect</text>
</a>
</g>
</g>
<!-- Node1&#45;&gt;Node9 -->
<g id="edge8_Node000001_Node000009" class="edge">
<title>Node1&#45;&gt;Node9</title>
<g id="a_edge8_Node000001_Node000009"><a xlink:title=" ">
<path fill="none" stroke="#63b8ff" d="M267.97,-210.85C283.77,-202.06 302.69,-191.77 320,-183 325.9,-180.01 332.23,-176.95 338.38,-174.04"/>
<polygon fill="#63b8ff" stroke="#63b8ff" points="266.08,-207.9 259.06,-215.84 269.5,-214.01 266.08,-207.9"/>
</a>
</g>
</g>
<!-- Node10 -->
<g id="Node000010" class="node">
<title>Node10</title>
<g id="a_Node000010"><a xlink:href="structtracktion_1_1engine_1_1StepVolumeEffect.html" target="_top" xlink:title=" ">
<polygon fill="white" stroke="#666666" points="425,-126 320,-126 320,-96 425,-96 425,-126"/>
<text text-anchor="start" x="328" y="-114" font-family="Helvetica,sans-Serif" font-size="10.00">tracktion::engine::</text>
<text text-anchor="middle" x="372.5" y="-103" font-family="Helvetica,sans-Serif" font-size="10.00">StepVolumeEffect</text>
</a>
</g>
</g>
<!-- Node1&#45;&gt;Node10 -->
<g id="edge9_Node000001_Node000010" class="edge">
<title>Node1&#45;&gt;Node10</title>
<g id="a_edge9_Node000001_Node000010"><a xlink:title=" ">
<path fill="none" stroke="#63b8ff" d="M249.28,-207.86C265.51,-186.75 291.73,-155.78 320,-135 324.45,-131.73 329.42,-128.74 334.46,-126.07"/>
<polygon fill="#63b8ff" stroke="#63b8ff" points="246.39,-205.88 243.17,-215.97 251.98,-210.09 246.39,-205.88"/>
</a>
</g>
</g>
<!-- Node11 -->
<g id="Node000011" class="node">
<title>Node11</title>
<g id="a_Node000011"><a xlink:href="structtracktion_1_1engine_1_1VolumeEffect.html" target="_top" xlink:title=" ">
<polygon fill="white" stroke="#666666" points="425,-78 320,-78 320,-48 425,-48 425,-78"/>
<text text-anchor="start" x="328" y="-66" font-family="Helvetica,sans-Serif" font-size="10.00">tracktion::engine::</text>
<text text-anchor="middle" x="372.5" y="-55" font-family="Helvetica,sans-Serif" font-size="10.00">VolumeEffect</text>
</a>
</g>
</g>
<!-- Node1&#45;&gt;Node11 -->
<g id="edge10_Node000001_Node000011" class="edge">
<title>Node1&#45;&gt;Node11</title>
<g id="a_edge10_Node000001_Node000011"><a xlink:title=" ">
<path fill="none" stroke="#63b8ff" d="M241.98,-206.68C255.24,-175.38 282.05,-120.99 320,-87 323.75,-83.64 328.05,-80.67 332.53,-78.06"/>
<polygon fill="#63b8ff" stroke="#63b8ff" points="238.72,-205.39 238.15,-215.97 245.19,-208.06 238.72,-205.39"/>
</a>
</g>
</g>
<!-- Node12 -->
<g id="Node000012" class="node">
<title>Node12</title>
<g id="a_Node000012"><a xlink:href="structtracktion_1_1engine_1_1WarpTimeEffect.html" target="_top" xlink:title=" ">
<polygon fill="white" stroke="#666666" points="425,-30 320,-30 320,0 425,0 425,-30"/>
<text text-anchor="start" x="328" y="-18" font-family="Helvetica,sans-Serif" font-size="10.00">tracktion::engine::</text>
<text text-anchor="middle" x="372.5" y="-7" font-family="Helvetica,sans-Serif" font-size="10.00">WarpTimeEffect</text>
</a>
</g>
</g>
<!-- Node1&#45;&gt;Node12 -->
<g id="edge11_Node000001_Node000012" class="edge">
<title>Node1&#45;&gt;Node12</title>
<g id="a_edge11_Node000001_Node000012"><a xlink:title=" ">
<path fill="none" stroke="#63b8ff" d="M237.94,-206.01C247.83,-165.99 272.28,-87.13 320,-39 323.33,-35.64 327.23,-32.69 331.36,-30.13"/>
<polygon fill="#63b8ff" stroke="#63b8ff" points="234.48,-205.45 235.58,-215.99 241.29,-207.06 234.48,-205.45"/>
</a>
</g>
</g>
<!-- Node2 -->
<g id="Node000002" class="node">
<title>Node2</title>
<g id="a_Node000002"><a xlink:href="structtracktion_1_1engine_1_1ValueTreeAllEventListener.html" target="_top" xlink:title=" ">
<polygon fill="white" stroke="#666666" points="143,-246 0,-246 0,-216 143,-216 143,-246"/>
<text text-anchor="start" x="8" y="-234" font-family="Helvetica,sans-Serif" font-size="10.00">tracktion::engine::</text>
<text text-anchor="middle" x="71.5" y="-223" font-family="Helvetica,sans-Serif" font-size="10.00">ValueTreeAllEventListener</text>
</a>
</g>
</g>
<!-- Node2&#45;&gt;Node1 -->
<g id="edge1_Node000001_Node000002" class="edge">
<title>Node2&#45;&gt;Node1</title>
<g id="a_edge1_Node000001_Node000002"><a xlink:title=" ">
<path fill="none" stroke="darkgreen" d="M153.34,-231C162,-231 170.64,-231 178.82,-231"/>
<polygon fill="darkgreen" stroke="darkgreen" points="153.18,-227.5 143.18,-231 153.18,-234.5 153.18,-227.5"/>
</a>
</g>
</g>
</g>
</svg>
