<?xml version="1.0" encoding="UTF-8" standalone="no"?>
<!DOCTYPE svg PUBLIC "-//W3C//DTD SVG 1.1//EN"
 "http://www.w3.org/Graphics/SVG/1.1/DTD/svg11.dtd">
<!-- Generated by graphviz version 2.43.0 (0)
 -->
<!-- Title: tracktion::engine::ArrangerLauncherSwitchingNode Pages: 1 -->
<svg width="345pt" height="127pt"
 viewBox="0.00 0.00 345.00 126.50" xmlns="http://www.w3.org/2000/svg" xmlns:xlink="http://www.w3.org/1999/xlink">
<g id="graph0" class="graph" transform="scale(1 1) rotate(0) translate(4 122.5)">
<title>tracktion::engine::ArrangerLauncherSwitchingNode</title>
<!-- Node1 -->
<g id="node1" class="node">
<title>Node1</title>
<g id="a_node1"><a xlink:title="A Node that switches between two of its inputs based on a flag.">
<polygon fill="#bfbfbf" stroke="black" points="161,-49.5 161,-79.5 337,-79.5 337,-49.5 161,-49.5"/>
<text text-anchor="start" x="169" y="-67.5" font-family="Helvetica,sans-Serif" font-size="10.00">tracktion::engine::</text>
<text text-anchor="middle" x="249" y="-56.5" font-family="Helvetica,sans-Serif" font-size="10.00">ArrangerLauncherSwitchingNode</text>
</a>
</g>
</g>
<!-- Node2 -->
<g id="node2" class="node">
<title>Node2</title>
<g id="a_node2"><a xlink:href="classtracktion_1_1graph_1_1Node.html" target="_top" xlink:title="Main graph Node processor class.">
<polygon fill="none" stroke="black" points="0,-99 0,-118 125,-118 125,-99 0,-99"/>
<text text-anchor="middle" x="62.5" y="-106" font-family="Helvetica,sans-Serif" font-size="10.00">tracktion::graph::Node</text>
</a>
</g>
</g>
<!-- Node2&#45;&gt;Node1 -->
<g id="edge1" class="edge">
<title>Node2&#45;&gt;Node1</title>
<path fill="none" stroke="midnightblue" d="M113.33,-96.62C135.34,-91.37 161.47,-85.14 184.83,-79.57"/>
<polygon fill="midnightblue" stroke="midnightblue" points="112.45,-93.23 103.53,-98.95 114.07,-100.04 112.45,-93.23"/>
</g>
<!-- Node3 -->
<g id="node3" class="node">
<title>Node3</title>
<g id="a_node3"><a xlink:href="classtracktion_1_1engine_1_1TracktionEngineNode.html" target="_top" xlink:title="Base class for Nodes that provides information about the current process call.">
<polygon fill="none" stroke="black" points="3,-49.5 3,-79.5 122,-79.5 122,-49.5 3,-49.5"/>
<text text-anchor="start" x="11" y="-67.5" font-family="Helvetica,sans-Serif" font-size="10.00">tracktion::engine::</text>
<text text-anchor="middle" x="62.5" y="-56.5" font-family="Helvetica,sans-Serif" font-size="10.00">TracktionEngineNode</text>
</a>
</g>
</g>
<!-- Node3&#45;&gt;Node1 -->
<g id="edge2" class="edge">
<title>Node3&#45;&gt;Node1</title>
<path fill="none" stroke="midnightblue" d="M132.15,-64.5C141.52,-64.5 151.24,-64.5 160.89,-64.5"/>
<polygon fill="midnightblue" stroke="midnightblue" points="132.13,-61 122.13,-64.5 132.13,-68 132.13,-61"/>
</g>
<!-- Node4 -->
<g id="node4" class="node">
<title>Node4</title>
<g id="a_node4"><a xlink:href="structtracktion_1_1engine_1_1SharedTimer_1_1Listener.html" target="_top" xlink:title=" ">
<polygon fill="none" stroke="black" points="0.5,-0.5 0.5,-30.5 124.5,-30.5 124.5,-0.5 0.5,-0.5"/>
<text text-anchor="start" x="8.5" y="-18.5" font-family="Helvetica,sans-Serif" font-size="10.00">tracktion::engine::</text>
<text text-anchor="middle" x="62.5" y="-7.5" font-family="Helvetica,sans-Serif" font-size="10.00">SharedTimer::Listener</text>
</a>
</g>
</g>
<!-- Node4&#45;&gt;Node1 -->
<g id="edge3" class="edge">
<title>Node4&#45;&gt;Node1</title>
<path fill="none" stroke="midnightblue" d="M129.86,-33.12C150.04,-38.48 172.03,-44.32 191.5,-49.49"/>
<polygon fill="midnightblue" stroke="midnightblue" points="130.67,-29.72 120.11,-30.53 128.88,-36.48 130.67,-29.72"/>
</g>
</g>
</svg>
