<?xml version="1.0" encoding="UTF-8" standalone="no"?>
<!DOCTYPE svg PUBLIC "-//W3C//DTD SVG 1.1//EN"
 "http://www.w3.org/Graphics/SVG/1.1/DTD/svg11.dtd">
<!-- Generated by graphviz version 2.40.1 (20161225.0304)
 -->
<!-- Title: tracktion_engine::ClipTrack Pages: 1 -->
<svg width="682pt" height="165pt"
 viewBox="0.00 0.00 682.00 165.00" xmlns="http://www.w3.org/2000/svg" xmlns:xlink="http://www.w3.org/1999/xlink">
<g id="graph0" class="graph" transform="scale(1 1) rotate(0) translate(4 161)">
<title>tracktion_engine::ClipTrack</title>
<!-- Node0 -->
<g id="node1" class="node">
<title>Node0</title>
<polygon fill="#bfbfbf" stroke="#000000" points="357,-69 357,-88 493,-88 493,-69 357,-69"/>
<text text-anchor="middle" x="425" y="-76" font-family="Helvetica,sans-Serif" font-size="10.00" fill="#000000">tracktion_engine::ClipTrack</text>
</g>
<!-- Node5 -->
<g id="node6" class="node">
<title>Node5</title>
<g id="a_node6"><a xlink:href="classtracktion__engine_1_1ArrangerTrack.html" target="_top" xlink:title="A track similar to the MarkerTrack but can be used to move sections of an Edit around. ">
<polygon fill="none" stroke="#000000" points="536,-126.5 536,-156.5 667,-156.5 667,-126.5 536,-126.5"/>
<text text-anchor="start" x="544" y="-144.5" font-family="Helvetica,sans-Serif" font-size="10.00" fill="#000000">tracktion_engine::Arranger</text>
<text text-anchor="middle" x="601.5" y="-133.5" font-family="Helvetica,sans-Serif" font-size="10.00" fill="#000000">Track</text>
</a>
</g>
</g>
<!-- Node0&#45;&gt;Node5 -->
<g id="edge5" class="edge">
<title>Node0&#45;&gt;Node5</title>
<path fill="none" stroke="#191970" d="M459.995,-91.4671C480.1427,-98.8874 505.96,-108.3191 529,-116.5 538.1591,-119.7521 547.9899,-123.1824 557.3646,-126.4247"/>
<polygon fill="#191970" stroke="#191970" points="461.1901,-88.1775 450.5967,-88.0003 458.7675,-94.7449 461.1901,-88.1775"/>
</g>
<!-- Node6 -->
<g id="node7" class="node">
<title>Node6</title>
<g id="a_node7"><a xlink:href="classtracktion__engine_1_1AudioTrack.html" target="_top" xlink:title="tracktion_engine::AudioTrack">
<polygon fill="none" stroke="#000000" points="530,-88 530,-107 673,-107 673,-88 530,-88"/>
<text text-anchor="middle" x="601.5" y="-95" font-family="Helvetica,sans-Serif" font-size="10.00" fill="#000000">tracktion_engine::AudioTrack</text>
</a>
</g>
</g>
<!-- Node0&#45;&gt;Node6 -->
<g id="edge6" class="edge">
<title>Node0&#45;&gt;Node6</title>
<path fill="none" stroke="#191970" d="M503.2047,-86.9186C512.1002,-87.8762 521.1337,-88.8487 529.9373,-89.7964"/>
<polygon fill="#191970" stroke="#191970" points="503.5567,-83.4364 493.2395,-85.8459 502.8074,-90.3962 503.5567,-83.4364"/>
</g>
<!-- Node7 -->
<g id="node8" class="node">
<title>Node7</title>
<g id="a_node8"><a xlink:href="classtracktion__engine_1_1ChordTrack.html" target="_top" xlink:title="tracktion_engine::ChordTrack">
<polygon fill="none" stroke="#000000" points="529,-50 529,-69 674,-69 674,-50 529,-50"/>
<text text-anchor="middle" x="601.5" y="-57" font-family="Helvetica,sans-Serif" font-size="10.00" fill="#000000">tracktion_engine::ChordTrack</text>
</a>
</g>
</g>
<!-- Node0&#45;&gt;Node7 -->
<g id="edge7" class="edge">
<title>Node0&#45;&gt;Node7</title>
<path fill="none" stroke="#191970" d="M503.4361,-70.0565C511.8618,-69.1494 520.4084,-68.2294 528.7634,-67.33"/>
<polygon fill="#191970" stroke="#191970" points="502.8074,-66.6038 493.2395,-71.1541 503.5567,-73.5636 502.8074,-66.6038"/>
</g>
<!-- Node8 -->
<g id="node9" class="node">
<title>Node8</title>
<g id="a_node9"><a xlink:href="classtracktion__engine_1_1MarkerTrack.html" target="_top" xlink:title="tracktion_engine::Marker\lTrack">
<polygon fill="none" stroke="#000000" points="539.5,-.5 539.5,-30.5 663.5,-30.5 663.5,-.5 539.5,-.5"/>
<text text-anchor="start" x="547.5" y="-18.5" font-family="Helvetica,sans-Serif" font-size="10.00" fill="#000000">tracktion_engine::Marker</text>
<text text-anchor="middle" x="601.5" y="-7.5" font-family="Helvetica,sans-Serif" font-size="10.00" fill="#000000">Track</text>
</a>
</g>
</g>
<!-- Node0&#45;&gt;Node8 -->
<g id="edge8" class="edge">
<title>Node0&#45;&gt;Node8</title>
<path fill="none" stroke="#191970" d="M459.995,-65.5329C480.1427,-58.1126 505.96,-48.6809 529,-40.5 538.1591,-37.2479 547.9899,-33.8176 557.3646,-30.5753"/>
<polygon fill="#191970" stroke="#191970" points="458.7675,-62.2551 450.5967,-68.9997 461.1901,-68.8225 458.7675,-62.2551"/>
</g>
<!-- Node1 -->
<g id="node2" class="node">
<title>Node1</title>
<g id="a_node2"><a xlink:href="classtracktion__engine_1_1Track.html" target="_top" xlink:title="tracktion_engine::Track">
<polygon fill="none" stroke="#000000" points="202,-69 202,-88 321,-88 321,-69 202,-69"/>
<text text-anchor="middle" x="261.5" y="-76" font-family="Helvetica,sans-Serif" font-size="10.00" fill="#000000">tracktion_engine::Track</text>
</a>
</g>
</g>
<!-- Node1&#45;&gt;Node0 -->
<g id="edge1" class="edge">
<title>Node1&#45;&gt;Node0</title>
<path fill="none" stroke="#191970" d="M331.5423,-78.5C339.9013,-78.5 348.4271,-78.5 356.7602,-78.5"/>
<polygon fill="#191970" stroke="#191970" points="331.453,-75.0001 321.453,-78.5 331.4529,-82.0001 331.453,-75.0001"/>
</g>
<!-- Node2 -->
<g id="node3" class="node">
<title>Node2</title>
<g id="a_node3"><a xlink:href="classtracktion__engine_1_1EditItem.html" target="_top" xlink:title="Base class for objects that live inside an edit &#45; e.g. ">
<polygon fill="none" stroke="#000000" points="17.5,-107 17.5,-126 148.5,-126 148.5,-107 17.5,-107"/>
<text text-anchor="middle" x="83" y="-114" font-family="Helvetica,sans-Serif" font-size="10.00" fill="#000000">tracktion_engine::EditItem</text>
</a>
</g>
</g>
<!-- Node2&#45;&gt;Node1 -->
<g id="edge2" class="edge">
<title>Node2&#45;&gt;Node1</title>
<path fill="none" stroke="#191970" d="M137.8699,-104.819C163.1836,-99.4301 192.8529,-93.1139 216.7808,-88.0201"/>
<polygon fill="#191970" stroke="#191970" points="137.0951,-101.4054 128.0431,-106.911 138.5527,-108.252 137.0951,-101.4054"/>
</g>
<!-- Node3 -->
<g id="node4" class="node">
<title>Node3</title>
<g id="a_node4"><a xlink:href="classtracktion__engine_1_1Selectable.html" target="_top" xlink:title="Base class for things that can be selected, and whose properties can appear in the properties panel...">
<polygon fill="none" stroke="#000000" points="13,-69 13,-88 153,-88 153,-69 13,-69"/>
<text text-anchor="middle" x="83" y="-76" font-family="Helvetica,sans-Serif" font-size="10.00" fill="#000000">tracktion_engine::Selectable</text>
</a>
</g>
</g>
<!-- Node3&#45;&gt;Node1 -->
<g id="edge3" class="edge">
<title>Node3&#45;&gt;Node1</title>
<path fill="none" stroke="#191970" d="M163.33,-78.5C176.2598,-78.5 189.4419,-78.5 201.7761,-78.5"/>
<polygon fill="#191970" stroke="#191970" points="163.0356,-75.0001 153.0356,-78.5 163.0356,-82.0001 163.0356,-75.0001"/>
</g>
<!-- Node4 -->
<g id="node5" class="node">
<title>Node4</title>
<g id="a_node5"><a xlink:href="classtracktion__engine_1_1MacroParameterElement.html" target="_top" xlink:title="Base class for elements which can contain macro parameters. ">
<polygon fill="none" stroke="#000000" points="0,-19.5 0,-49.5 166,-49.5 166,-19.5 0,-19.5"/>
<text text-anchor="start" x="8" y="-37.5" font-family="Helvetica,sans-Serif" font-size="10.00" fill="#000000">tracktion_engine::MacroParameter</text>
<text text-anchor="middle" x="83" y="-26.5" font-family="Helvetica,sans-Serif" font-size="10.00" fill="#000000">Element</text>
</a>
</g>
</g>
<!-- Node4&#45;&gt;Node1 -->
<g id="edge4" class="edge">
<title>Node4&#45;&gt;Node1</title>
<path fill="none" stroke="#191970" d="M153.8891,-51.9741C177.4278,-57.7763 202.7475,-64.0176 222.9098,-68.9876"/>
<polygon fill="#191970" stroke="#191970" points="154.4774,-48.5144 143.9303,-49.5192 152.802,-55.3109 154.4774,-48.5144"/>
</g>
</g>
</svg>
