<?xml version="1.0" encoding="UTF-8" standalone="no"?>
<!DOCTYPE svg PUBLIC "-//W3C//DTD SVG 1.1//EN"
 "http://www.w3.org/Graphics/SVG/1.1/DTD/svg11.dtd">
<!-- Generated by graphviz version 2.40.1 (20161225.0304)
 -->
<!-- Title: tracktion_engine::RenderManager::Job Pages: 1 -->
<svg width="487pt" height="127pt"
 viewBox="0.00 0.00 487.00 126.50" xmlns="http://www.w3.org/2000/svg" xmlns:xlink="http://www.w3.org/1999/xlink">
<g id="graph0" class="graph" transform="scale(1 1) rotate(0) translate(4 122.5)">
<title>tracktion_engine::RenderManager::Job</title>
<!-- Node0 -->
<g id="node1" class="node">
<title>Node0</title>
<polygon fill="#bfbfbf" stroke="#000000" points="160,-49.5 160,-79.5 285,-79.5 285,-49.5 160,-49.5"/>
<text text-anchor="start" x="168" y="-67.5" font-family="Helvetica,sans-Serif" font-size="10.00" fill="#000000">tracktion_engine::Render</text>
<text text-anchor="middle" x="222.5" y="-56.5" font-family="Helvetica,sans-Serif" font-size="10.00" fill="#000000">Manager::Job</text>
</g>
<!-- Node2 -->
<g id="node3" class="node">
<title>Node2</title>
<g id="a_node3"><a xlink:href="classtracktion__engine_1_1EditRenderJob.html" target="_top" xlink:title="tracktion_engine::EditRenderJob">
<polygon fill="none" stroke="#000000" points="321,-99 321,-118 479,-118 479,-99 321,-99"/>
<text text-anchor="middle" x="400" y="-106" font-family="Helvetica,sans-Serif" font-size="10.00" fill="#000000">tracktion_engine::EditRenderJob</text>
</a>
</g>
</g>
<!-- Node0&#45;&gt;Node2 -->
<g id="edge2" class="edge">
<title>Node0&#45;&gt;Node2</title>
<path fill="none" stroke="#191970" d="M291.2264,-82.0605C301.2097,-84.5772 311.3657,-87.1189 321,-89.5 333.5988,-92.6137 347.3451,-95.9433 359.787,-98.9315"/>
<polygon fill="#191970" stroke="#191970" points="291.8791,-78.6154 281.3263,-79.5589 290.1641,-85.4021 291.8791,-78.6154"/>
</g>
<!-- Node3 -->
<g id="node4" class="node">
<title>Node3</title>
<g id="a_node4"><a xlink:href="classtracktion__engine_1_1ReverseRenderJob.html" target="_top" xlink:title="tracktion_engine::Reverse\lRenderJob">
<polygon fill="none" stroke="#000000" points="334.5,-49.5 334.5,-79.5 465.5,-79.5 465.5,-49.5 334.5,-49.5"/>
<text text-anchor="start" x="342.5" y="-67.5" font-family="Helvetica,sans-Serif" font-size="10.00" fill="#000000">tracktion_engine::Reverse</text>
<text text-anchor="middle" x="400" y="-56.5" font-family="Helvetica,sans-Serif" font-size="10.00" fill="#000000">RenderJob</text>
</a>
</g>
</g>
<!-- Node0&#45;&gt;Node3 -->
<g id="edge3" class="edge">
<title>Node0&#45;&gt;Node3</title>
<path fill="none" stroke="#191970" d="M295.3295,-64.5C308.262,-64.5 321.6607,-64.5 334.3784,-64.5"/>
<polygon fill="#191970" stroke="#191970" points="295.0799,-61.0001 285.0799,-64.5 295.0798,-68.0001 295.0799,-61.0001"/>
</g>
<!-- Node4 -->
<g id="node5" class="node">
<title>Node4</title>
<g id="a_node5"><a xlink:href="classtracktion__engine_1_1WarpTimeRenderJob.html" target="_top" xlink:title="tracktion_engine::WarpTime\lRenderJob">
<polygon fill="none" stroke="#000000" points="330.5,-.5 330.5,-30.5 469.5,-30.5 469.5,-.5 330.5,-.5"/>
<text text-anchor="start" x="338.5" y="-18.5" font-family="Helvetica,sans-Serif" font-size="10.00" fill="#000000">tracktion_engine::WarpTime</text>
<text text-anchor="middle" x="400" y="-7.5" font-family="Helvetica,sans-Serif" font-size="10.00" fill="#000000">RenderJob</text>
</a>
</g>
</g>
<!-- Node0&#45;&gt;Node4 -->
<g id="edge4" class="edge">
<title>Node0&#45;&gt;Node4</title>
<path fill="none" stroke="#191970" d="M287.0566,-46.6788C306.2212,-41.3882 327.0155,-35.6478 345.4764,-30.5516"/>
<polygon fill="#191970" stroke="#191970" points="285.9123,-43.3637 277.2042,-49.3986 287.775,-50.1113 285.9123,-43.3637"/>
</g>
<!-- Node1 -->
<g id="node2" class="node">
<title>Node1</title>
<g id="a_node2"><a xlink:href="classtracktion__engine_1_1ThreadPoolJobWithProgress.html" target="_top" xlink:title="tracktion_engine::Thread\lPoolJobWithProgress">
<polygon fill="none" stroke="#000000" points="0,-49.5 0,-79.5 124,-79.5 124,-49.5 0,-49.5"/>
<text text-anchor="start" x="8" y="-67.5" font-family="Helvetica,sans-Serif" font-size="10.00" fill="#000000">tracktion_engine::Thread</text>
<text text-anchor="middle" x="62" y="-56.5" font-family="Helvetica,sans-Serif" font-size="10.00" fill="#000000">PoolJobWithProgress</text>
</a>
</g>
</g>
<!-- Node1&#45;&gt;Node0 -->
<g id="edge1" class="edge">
<title>Node1&#45;&gt;Node0</title>
<path fill="none" stroke="#191970" d="M134.0586,-64.5C142.6514,-64.5 151.3708,-64.5 159.8171,-64.5"/>
<polygon fill="#191970" stroke="#191970" points="134.0535,-61.0001 124.0535,-64.5 134.0535,-68.0001 134.0535,-61.0001"/>
</g>
</g>
</svg>
