<?xml version="1.0" encoding="UTF-8" standalone="no"?>
<!DOCTYPE svg PUBLIC "-//W3C//DTD SVG 1.1//EN"
 "http://www.w3.org/Graphics/SVG/1.1/DTD/svg11.dtd">
<!-- Generated by graphviz version 2.43.0 (0)
 -->
<!-- Title: tracktion::engine::CompManager Pages: 1 -->
<svg width="250pt" height="104pt"
 viewBox="0.00 0.00 250.00 104.00" xmlns="http://www.w3.org/2000/svg" xmlns:xlink="http://www.w3.org/1999/xlink">
<g id="graph0" class="graph" transform="scale(1 1) rotate(0) translate(4 100)">
<title>tracktion::engine::CompManager</title>
<!-- Node1 -->
<g id="Node000001" class="node">
<title>Node1</title>
<g id="a_Node000001"><a xlink:title=" ">
<polygon fill="#999999" stroke="#666666" points="172,-96 67,-96 67,-66 172,-66 172,-96"/>
<text text-anchor="start" x="75" y="-84" font-family="Helvetica,sans-Serif" font-size="10.00">tracktion::engine::</text>
<text text-anchor="middle" x="119.5" y="-73" font-family="Helvetica,sans-Serif" font-size="10.00">CompManager</text>
</a>
</g>
</g>
<!-- Node2 -->
<g id="Node000002" class="node">
<title>Node2</title>
<g id="a_Node000002"><a xlink:href="classtracktion_1_1engine_1_1MidiCompManager.html" target="_top" xlink:title=" ">
<polygon fill="white" stroke="#666666" points="109,-30 0,-30 0,0 109,0 109,-30"/>
<text text-anchor="start" x="8" y="-18" font-family="Helvetica,sans-Serif" font-size="10.00">tracktion::engine::</text>
<text text-anchor="middle" x="54.5" y="-7" font-family="Helvetica,sans-Serif" font-size="10.00">MidiCompManager</text>
</a>
</g>
</g>
<!-- Node1&#45;&gt;Node2 -->
<g id="edge1_Node000001_Node000002" class="edge">
<title>Node1&#45;&gt;Node2</title>
<g id="a_edge1_Node000001_Node000002"><a xlink:title=" ">
<path fill="none" stroke="#63b8ff" d="M97.81,-58.65C88.29,-49.27 77.38,-38.53 68.89,-30.16"/>
<polygon fill="#63b8ff" stroke="#63b8ff" points="95.49,-61.27 105.07,-65.8 100.4,-56.29 95.49,-61.27"/>
</a>
</g>
</g>
<!-- Node3 -->
<g id="Node000003" class="node">
<title>Node3</title>
<g id="a_Node000003"><a xlink:href="classtracktion_1_1engine_1_1WaveCompManager.html" target="_top" xlink:title=" ">
<polygon fill="white" stroke="#666666" points="242,-30 127,-30 127,0 242,0 242,-30"/>
<text text-anchor="start" x="135" y="-18" font-family="Helvetica,sans-Serif" font-size="10.00">tracktion::engine::</text>
<text text-anchor="middle" x="184.5" y="-7" font-family="Helvetica,sans-Serif" font-size="10.00">WaveCompManager</text>
</a>
</g>
</g>
<!-- Node1&#45;&gt;Node3 -->
<g id="edge2_Node000001_Node000003" class="edge">
<title>Node1&#45;&gt;Node3</title>
<g id="a_edge2_Node000001_Node000003"><a xlink:title=" ">
<path fill="none" stroke="#63b8ff" d="M141.19,-58.65C150.71,-49.27 161.62,-38.53 170.11,-30.16"/>
<polygon fill="#63b8ff" stroke="#63b8ff" points="138.6,-56.29 133.93,-65.8 143.51,-61.27 138.6,-56.29"/>
</a>
</g>
</g>
</g>
</svg>
