<?xml version="1.0" encoding="UTF-8" standalone="no"?>
<!DOCTYPE svg PUBLIC "-//W3C//DTD SVG 1.1//EN"
 "http://www.w3.org/Graphics/SVG/1.1/DTD/svg11.dtd">
<!-- Generated by graphviz version 2.40.1 (20161225.0304)
 -->
<!-- Title: tracktion_engine::SelectableListener Pages: 1 -->
<svg width="330pt" height="127pt"
 viewBox="0.00 0.00 330.00 126.50" xmlns="http://www.w3.org/2000/svg" xmlns:xlink="http://www.w3.org/1999/xlink">
<g id="graph0" class="graph" transform="scale(1 1) rotate(0) translate(4 122.5)">
<title>tracktion_engine::SelectableListener</title>
<!-- Node0 -->
<g id="node1" class="node">
<title>Node0</title>
<polygon fill="#bfbfbf" stroke="#000000" points="0,-49.5 0,-79.5 140,-79.5 140,-49.5 0,-49.5"/>
<text text-anchor="start" x="8" y="-67.5" font-family="Helvetica,sans-Serif" font-size="10.00" fill="#000000">tracktion_engine::Selectable</text>
<text text-anchor="middle" x="70" y="-56.5" font-family="Helvetica,sans-Serif" font-size="10.00" fill="#000000">Listener</text>
</g>
<!-- Node1 -->
<g id="node2" class="node">
<title>Node1</title>
<g id="a_node2"><a xlink:href="classtracktion__engine_1_1CurveEditor.html" target="_top" xlink:title="tracktion_engine::CurveEditor">
<polygon fill="none" stroke="#000000" points="176,-99 176,-118 322,-118 322,-99 176,-99"/>
<text text-anchor="middle" x="249" y="-106" font-family="Helvetica,sans-Serif" font-size="10.00" fill="#000000">tracktion_engine::CurveEditor</text>
</a>
</g>
</g>
<!-- Node0&#45;&gt;Node1 -->
<g id="edge1" class="edge">
<title>Node0&#45;&gt;Node1</title>
<path fill="none" stroke="#191970" d="M141.0877,-81.9741C164.6923,-87.7763 190.0829,-94.0176 210.3018,-98.9876"/>
<polygon fill="#191970" stroke="#191970" points="141.6474,-78.5075 131.101,-79.5192 139.9764,-85.3052 141.6474,-78.5075"/>
</g>
<!-- Node2 -->
<g id="node3" class="node">
<title>Node2</title>
<g id="a_node3"><a xlink:href="classtracktion__engine_1_1ExternalController.html" target="_top" xlink:title="Acts as a holder for a ControlSurface object. ">
<polygon fill="none" stroke="#000000" points="184,-49.5 184,-79.5 314,-79.5 314,-49.5 184,-49.5"/>
<text text-anchor="start" x="192" y="-67.5" font-family="Helvetica,sans-Serif" font-size="10.00" fill="#000000">tracktion_engine::External</text>
<text text-anchor="middle" x="249" y="-56.5" font-family="Helvetica,sans-Serif" font-size="10.00" fill="#000000">Controller</text>
</a>
</g>
</g>
<!-- Node0&#45;&gt;Node2 -->
<g id="edge2" class="edge">
<title>Node0&#45;&gt;Node2</title>
<path fill="none" stroke="#8b1a1a" d="M150.45,-64.5C161.6573,-64.5 173.0558,-64.5 183.9329,-64.5"/>
<polygon fill="#8b1a1a" stroke="#8b1a1a" points="150.2318,-61.0001 140.2318,-64.5 150.2318,-68.0001 150.2318,-61.0001"/>
</g>
<!-- Node3 -->
<g id="node4" class="node">
<title>Node3</title>
<g id="a_node4"><a xlink:href="classtracktion__engine_1_1SelectionManager.html" target="_top" xlink:title="Manages a list of items that are currently selected. ">
<polygon fill="none" stroke="#000000" points="182,-.5 182,-30.5 316,-30.5 316,-.5 182,-.5"/>
<text text-anchor="start" x="190" y="-18.5" font-family="Helvetica,sans-Serif" font-size="10.00" fill="#000000">tracktion_engine::Selection</text>
<text text-anchor="middle" x="249" y="-7.5" font-family="Helvetica,sans-Serif" font-size="10.00" fill="#000000">Manager</text>
</a>
</g>
</g>
<!-- Node0&#45;&gt;Node3 -->
<g id="edge3" class="edge">
<title>Node0&#45;&gt;Node3</title>
<path fill="none" stroke="#8b1a1a" d="M134.8362,-46.7515C154.2363,-41.4409 175.3133,-35.6712 194.0157,-30.5516"/>
<polygon fill="#8b1a1a" stroke="#8b1a1a" points="133.8875,-43.3824 125.1665,-49.3986 135.7358,-50.134 133.8875,-43.3824"/>
</g>
</g>
</svg>
