<?xml version="1.0" encoding="UTF-8" standalone="no"?>
<!DOCTYPE svg PUBLIC "-//W3C//DTD SVG 1.1//EN"
 "http://www.w3.org/Graphics/SVG/1.1/DTD/svg11.dtd">
<!-- Generated by graphviz version 2.43.0 (0)
 -->
<!-- Title: tracktion::engine::AutomatableParameter Pages: 1 -->
<svg width="503pt" height="182pt"
 viewBox="0.00 0.00 503.00 182.00" xmlns="http://www.w3.org/2000/svg" xmlns:xlink="http://www.w3.org/1999/xlink">
<g id="graph0" class="graph" transform="scale(1 1) rotate(0) translate(4 178)">
<title>tracktion::engine::AutomatableParameter</title>
<!-- Node1 -->
<g id="Node000001" class="node">
<title>Node1</title>
<g id="a_Node000001"><a xlink:title=" ">
<polygon fill="#999999" stroke="#666666" points="271,-102 141,-102 141,-72 271,-72 271,-102"/>
<text text-anchor="start" x="149" y="-90" font-family="Helvetica,sans-Serif" font-size="10.00">tracktion::engine::</text>
<text text-anchor="middle" x="206" y="-79" font-family="Helvetica,sans-Serif" font-size="10.00">AutomatableParameter</text>
</a>
</g>
</g>
<!-- Node3 -->
<g id="Node000003" class="node">
<title>Node3</title>
<g id="a_Node000003"><a xlink:href="classtracktion_1_1engine_1_1AirWindowsAutomatableParameter.html" target="_top" xlink:title=" ">
<polygon fill="white" stroke="#666666" points="495,-174 307,-174 307,-144 495,-144 495,-174"/>
<text text-anchor="start" x="315" y="-162" font-family="Helvetica,sans-Serif" font-size="10.00">tracktion::engine::</text>
<text text-anchor="middle" x="401" y="-151" font-family="Helvetica,sans-Serif" font-size="10.00">AirWindowsAutomatableParameter</text>
</a>
</g>
</g>
<!-- Node1&#45;&gt;Node3 -->
<g id="edge2_Node000001_Node000003" class="edge">
<title>Node1&#45;&gt;Node3</title>
<g id="a_edge2_Node000001_Node000003"><a xlink:title=" ">
<path fill="none" stroke="#63b8ff" d="M243.81,-106.8C262.39,-116.23 285.49,-127.15 307,-135 315.93,-138.26 325.49,-141.26 334.96,-143.95"/>
<polygon fill="#63b8ff" stroke="#63b8ff" points="245.31,-103.63 234.81,-102.16 242.1,-109.85 245.31,-103.63"/>
</a>
</g>
</g>
<!-- Node4 -->
<g id="Node000004" class="node">
<title>Node4</title>
<g id="a_Node000004"><a xlink:href="classtracktion_1_1engine_1_1ExternalAutomatableParameter.html" target="_top" xlink:title=" ">
<polygon fill="white" stroke="#666666" points="486,-126 316,-126 316,-96 486,-96 486,-126"/>
<text text-anchor="start" x="324" y="-114" font-family="Helvetica,sans-Serif" font-size="10.00">tracktion::engine::</text>
<text text-anchor="middle" x="401" y="-103" font-family="Helvetica,sans-Serif" font-size="10.00">ExternalAutomatableParameter</text>
</a>
</g>
</g>
<!-- Node1&#45;&gt;Node4 -->
<g id="edge3_Node000001_Node000004" class="edge">
<title>Node1&#45;&gt;Node4</title>
<g id="a_edge3_Node000001_Node000004"><a xlink:title=" ">
<path fill="none" stroke="#63b8ff" d="M281.45,-96.26C292.68,-97.65 304.33,-99.1 315.76,-100.52"/>
<polygon fill="#63b8ff" stroke="#63b8ff" points="281.62,-92.75 271.27,-94.99 280.76,-99.7 281.62,-92.75"/>
</a>
</g>
</g>
<!-- Node5 -->
<g id="Node000005" class="node">
<title>Node5</title>
<g id="a_Node000005"><a xlink:href="classtracktion_1_1engine_1_1MacroParameter.html" target="_top" xlink:title="A MacroParameter is an AutomatableParameter which is a collection of Mappings.">
<polygon fill="white" stroke="#666666" points="453.5,-78 348.5,-78 348.5,-48 453.5,-48 453.5,-78"/>
<text text-anchor="start" x="356.5" y="-66" font-family="Helvetica,sans-Serif" font-size="10.00">tracktion::engine::</text>
<text text-anchor="middle" x="401" y="-55" font-family="Helvetica,sans-Serif" font-size="10.00">MacroParameter</text>
</a>
</g>
</g>
<!-- Node1&#45;&gt;Node5 -->
<g id="edge4_Node000001_Node000005" class="edge">
<title>Node1&#45;&gt;Node5</title>
<g id="a_edge4_Node000001_Node000005"><a xlink:title=" ">
<path fill="none" stroke="#63b8ff" d="M281.38,-77.75C303.69,-74.98 327.67,-71.99 348.19,-69.44"/>
<polygon fill="#63b8ff" stroke="#63b8ff" points="280.76,-74.3 271.27,-79.01 281.62,-81.25 280.76,-74.3"/>
</a>
</g>
</g>
<!-- Node6 -->
<g id="Node000006" class="node">
<title>Node6</title>
<g id="a_Node000006"><a xlink:href="structtracktion_1_1engine_1_1PluginWetDryAutomatableParam.html" target="_top" xlink:title="specialised AutomatableParameter for wet/dry.">
<polygon fill="white" stroke="#666666" points="489,-30 313,-30 313,0 489,0 489,-30"/>
<text text-anchor="start" x="321" y="-18" font-family="Helvetica,sans-Serif" font-size="10.00">tracktion::engine::</text>
<text text-anchor="middle" x="401" y="-7" font-family="Helvetica,sans-Serif" font-size="10.00">PluginWetDryAutomatableParam</text>
</a>
</g>
</g>
<!-- Node1&#45;&gt;Node6 -->
<g id="edge5_Node000001_Node000006" class="edge">
<title>Node1&#45;&gt;Node6</title>
<g id="a_edge5_Node000001_Node000006"><a xlink:title=" ">
<path fill="none" stroke="#63b8ff" d="M243.81,-67.2C262.39,-57.77 285.49,-46.85 307,-39 315.93,-35.74 325.49,-32.74 334.96,-30.05"/>
<polygon fill="#63b8ff" stroke="#63b8ff" points="242.1,-64.15 234.81,-71.84 245.31,-70.37 242.1,-64.15"/>
</a>
</g>
</g>
<!-- Node2 -->
<g id="Node000002" class="node">
<title>Node2</title>
<g id="a_Node000002"><a xlink:href="classtracktion_1_1engine_1_1Selectable.html" target="_top" xlink:title="Base class for things that can be selected, and whose properties can appear in the properties panel.">
<polygon fill="white" stroke="#666666" points="105,-102 0,-102 0,-72 105,-72 105,-102"/>
<text text-anchor="start" x="8" y="-90" font-family="Helvetica,sans-Serif" font-size="10.00">tracktion::engine::</text>
<text text-anchor="middle" x="52.5" y="-79" font-family="Helvetica,sans-Serif" font-size="10.00">Selectable</text>
</a>
</g>
</g>
<!-- Node2&#45;&gt;Node1 -->
<g id="edge1_Node000001_Node000002" class="edge">
<title>Node2&#45;&gt;Node1</title>
<g id="a_edge1_Node000001_Node000002"><a xlink:title=" ">
<path fill="none" stroke="#63b8ff" d="M115.35,-87C123.78,-87 132.45,-87 140.92,-87"/>
<polygon fill="#63b8ff" stroke="#63b8ff" points="115.21,-83.5 105.21,-87 115.21,-90.5 115.21,-83.5"/>
</a>
</g>
</g>
</g>
</svg>
