<?xml version="1.0" encoding="UTF-8" standalone="no"?>
<!DOCTYPE svg PUBLIC "-//W3C//DTD SVG 1.1//EN"
 "http://www.w3.org/Graphics/SVG/1.1/DTD/svg11.dtd">
<!-- Generated by graphviz version 2.43.0 (0)
 -->
<!-- Title: tracktion::graph::SendNode Pages: 1 -->
<svg width="157pt" height="151pt"
 viewBox="0.00 0.00 157.00 151.00" xmlns="http://www.w3.org/2000/svg" xmlns:xlink="http://www.w3.org/1999/xlink">
<g id="graph0" class="graph" transform="scale(1 1) rotate(0) translate(4 147)">
<title>tracktion::graph::SendNode</title>
<!-- Node1 -->
<g id="node1" class="node">
<title>Node1</title>
<g id="a_node1"><a xlink:title=" ">
<polygon fill="#bfbfbf" stroke="black" points="0,-67.5 0,-86.5 149,-86.5 149,-67.5 0,-67.5"/>
<text text-anchor="middle" x="74.5" y="-74.5" font-family="Helvetica,sans-Serif" font-size="10.00">tracktion::graph::SendNode</text>
</a>
</g>
</g>
<!-- Node3 -->
<g id="node3" class="node">
<title>Node3</title>
<g id="a_node3"><a xlink:href="classtracktion_1_1engine_1_1AuxSendNode.html" target="_top" xlink:title="Node for an aux send.">
<polygon fill="none" stroke="black" points="22,-0.5 22,-30.5 127,-30.5 127,-0.5 22,-0.5"/>
<text text-anchor="start" x="30" y="-18.5" font-family="Helvetica,sans-Serif" font-size="10.00">tracktion::engine::</text>
<text text-anchor="middle" x="74.5" y="-7.5" font-family="Helvetica,sans-Serif" font-size="10.00">AuxSendNode</text>
</a>
</g>
</g>
<!-- Node1&#45;&gt;Node3 -->
<g id="edge2" class="edge">
<title>Node1&#45;&gt;Node3</title>
<path fill="none" stroke="midnightblue" d="M74.5,-57.23C74.5,-48.59 74.5,-38.5 74.5,-30.52"/>
<polygon fill="midnightblue" stroke="midnightblue" points="71,-57.48 74.5,-67.48 78,-57.48 71,-57.48"/>
</g>
<!-- Node2 -->
<g id="node2" class="node">
<title>Node2</title>
<g id="a_node2"><a xlink:href="classtracktion_1_1graph_1_1Node.html" target="_top" xlink:title="Main graph Node processor class.">
<polygon fill="none" stroke="black" points="12,-123.5 12,-142.5 137,-142.5 137,-123.5 12,-123.5"/>
<text text-anchor="middle" x="74.5" y="-130.5" font-family="Helvetica,sans-Serif" font-size="10.00">tracktion::graph::Node</text>
</a>
</g>
</g>
<!-- Node2&#45;&gt;Node1 -->
<g id="edge1" class="edge">
<title>Node2&#45;&gt;Node1</title>
<path fill="none" stroke="midnightblue" d="M74.5,-112.8C74.5,-103.91 74.5,-93.78 74.5,-86.75"/>
<polygon fill="midnightblue" stroke="midnightblue" points="71,-113.08 74.5,-123.08 78,-113.08 71,-113.08"/>
</g>
</g>
</svg>
