<?xml version="1.0" encoding="UTF-8" standalone="no"?>
<!DOCTYPE svg PUBLIC "-//W3C//DTD SVG 1.1//EN"
 "http://www.w3.org/Graphics/SVG/1.1/DTD/svg11.dtd">
<!-- Generated by graphviz version 2.40.1 (20161225.0304)
 -->
<!-- Title: tracktion_engine::RandomModifier Pages: 1 -->
<svg width="665pt" height="127pt"
 viewBox="0.00 0.00 665.00 127.00" xmlns="http://www.w3.org/2000/svg" xmlns:xlink="http://www.w3.org/1999/xlink">
<g id="graph0" class="graph" transform="scale(1 1) rotate(0) translate(4 123)">
<title>tracktion_engine::RandomModifier</title>
<!-- Node0 -->
<g id="node1" class="node">
<title>Node0</title>
<polygon fill="#bfbfbf" stroke="#000000" points="526,-22.5 526,-52.5 657,-52.5 657,-22.5 526,-22.5"/>
<text text-anchor="start" x="534" y="-40.5" font-family="Helvetica,sans-Serif" font-size="10.00" fill="#000000">tracktion_engine::Random</text>
<text text-anchor="middle" x="591.5" y="-29.5" font-family="Helvetica,sans-Serif" font-size="10.00" fill="#000000">Modifier</text>
</g>
<!-- Node1 -->
<g id="node2" class="node">
<title>Node1</title>
<g id="a_node2"><a xlink:href="structtracktion__engine_1_1Modifier.html" target="_top" xlink:title="tracktion_engine::Modifier">
<polygon fill="none" stroke="#000000" points="357,-50 357,-69 485,-69 485,-50 357,-50"/>
<text text-anchor="middle" x="421" y="-57" font-family="Helvetica,sans-Serif" font-size="10.00" fill="#000000">tracktion_engine::Modifier</text>
</a>
</g>
</g>
<!-- Node1&#45;&gt;Node0 -->
<g id="edge1" class="edge">
<title>Node1&#45;&gt;Node0</title>
<path fill="none" stroke="#191970" d="M495.4718,-49.8907C505.5748,-48.5871 515.883,-47.257 525.8165,-45.9753"/>
<polygon fill="#191970" stroke="#191970" points="494.9286,-46.4317 485.4587,-51.1827 495.8244,-53.3742 494.9286,-46.4317"/>
</g>
<!-- Node2 -->
<g id="node3" class="node">
<title>Node2</title>
<g id="a_node3"><a xlink:href="classtracktion__engine_1_1AutomatableEditItem.html" target="_top" xlink:title="Base class for elements that have some kind of automatable parameters. ">
<polygon fill="none" stroke="#000000" points="167,-88.5 167,-118.5 316,-118.5 316,-88.5 167,-88.5"/>
<text text-anchor="start" x="175" y="-106.5" font-family="Helvetica,sans-Serif" font-size="10.00" fill="#000000">tracktion_engine::Automatable</text>
<text text-anchor="middle" x="241.5" y="-95.5" font-family="Helvetica,sans-Serif" font-size="10.00" fill="#000000">EditItem</text>
</a>
</g>
</g>
<!-- Node2&#45;&gt;Node1 -->
<g id="edge2" class="edge">
<title>Node2&#45;&gt;Node1</title>
<path fill="none" stroke="#191970" d="M312.7862,-86.0259C336.4568,-80.2237 361.9183,-73.9824 382.1937,-69.0124"/>
<polygon fill="#191970" stroke="#191970" points="311.6508,-82.7006 302.7717,-88.4808 313.3174,-89.4993 311.6508,-82.7006"/>
</g>
<!-- Node3 -->
<g id="node4" class="node">
<title>Node3</title>
<g id="a_node4"><a xlink:href="classtracktion__engine_1_1EditItem.html" target="_top" xlink:title="Base class for objects that live inside an edit &#45; e.g. ">
<polygon fill="none" stroke="#000000" points="0,-94 0,-113 131,-113 131,-94 0,-94"/>
<text text-anchor="middle" x="65.5" y="-101" font-family="Helvetica,sans-Serif" font-size="10.00" fill="#000000">tracktion_engine::EditItem</text>
</a>
</g>
</g>
<!-- Node3&#45;&gt;Node2 -->
<g id="edge3" class="edge">
<title>Node3&#45;&gt;Node2</title>
<path fill="none" stroke="#191970" d="M141.2406,-103.5C149.6868,-103.5 158.2866,-103.5 166.7206,-103.5"/>
<polygon fill="#191970" stroke="#191970" points="141.0359,-100.0001 131.0359,-103.5 141.0359,-107.0001 141.0359,-100.0001"/>
</g>
<!-- Node4 -->
<g id="node5" class="node">
<title>Node4</title>
<g id="a_node5"><a xlink:href="classtracktion__engine_1_1Selectable.html" target="_top" xlink:title="Base class for things that can be selected, and whose properties can appear in the properties panel...">
<polygon fill="none" stroke="#000000" points="171.5,-50 171.5,-69 311.5,-69 311.5,-50 171.5,-50"/>
<text text-anchor="middle" x="241.5" y="-57" font-family="Helvetica,sans-Serif" font-size="10.00" fill="#000000">tracktion_engine::Selectable</text>
</a>
</g>
</g>
<!-- Node4&#45;&gt;Node1 -->
<g id="edge4" class="edge">
<title>Node4&#45;&gt;Node1</title>
<path fill="none" stroke="#191970" d="M321.8579,-59.5C333.5362,-59.5 345.429,-59.5 356.7336,-59.5"/>
<polygon fill="#191970" stroke="#191970" points="321.6706,-56.0001 311.6706,-59.5 321.6706,-63.0001 321.6706,-56.0001"/>
</g>
<!-- Node5 -->
<g id="node6" class="node">
<title>Node5</title>
<g id="a_node6"><a xlink:href="structtracktion__engine_1_1AutomatableParameter_1_1ModifierSource.html" target="_top" xlink:title="Base class for things that can be used to modify parameters. ">
<polygon fill="none" stroke="#000000" points="167,-.5 167,-30.5 316,-30.5 316,-.5 167,-.5"/>
<text text-anchor="start" x="175" y="-18.5" font-family="Helvetica,sans-Serif" font-size="10.00" fill="#000000">tracktion_engine::Automatable</text>
<text text-anchor="middle" x="241.5" y="-7.5" font-family="Helvetica,sans-Serif" font-size="10.00" fill="#000000">Parameter::ModifierSource</text>
</a>
</g>
</g>
<!-- Node5&#45;&gt;Node1 -->
<g id="edge5" class="edge">
<title>Node5&#45;&gt;Node1</title>
<path fill="none" stroke="#191970" d="M312.7862,-32.9741C336.4568,-38.7763 361.9183,-45.0176 382.1937,-49.9876"/>
<polygon fill="#191970" stroke="#191970" points="313.3174,-29.5007 302.7717,-30.5192 311.6508,-36.2994 313.3174,-29.5007"/>
</g>
<!-- Node6 -->
<g id="node7" class="node">
<title>Node6</title>
<g id="a_node7"><a xlink:href="structtracktion__engine_1_1ValueTreeAllEventListener.html" target="_top" xlink:title="tracktion_engine::ValueTree\lAllEventListener">
<polygon fill="none" stroke="#000000" points="352,-.5 352,-30.5 490,-30.5 490,-.5 352,-.5"/>
<text text-anchor="start" x="360" y="-18.5" font-family="Helvetica,sans-Serif" font-size="10.00" fill="#000000">tracktion_engine::ValueTree</text>
<text text-anchor="middle" x="421" y="-7.5" font-family="Helvetica,sans-Serif" font-size="10.00" fill="#000000">AllEventListener</text>
</a>
</g>
</g>
<!-- Node6&#45;&gt;Node0 -->
<g id="edge6" class="edge">
<title>Node6&#45;&gt;Node0</title>
<path fill="none" stroke="#8b1a1a" d="M500.306,-25.733C508.8368,-26.8338 517.4473,-27.9448 525.7937,-29.0218"/>
<polygon fill="#8b1a1a" stroke="#8b1a1a" points="500.7146,-22.2568 490.3489,-24.4482 499.8187,-29.1993 500.7146,-22.2568"/>
</g>
</g>
</svg>
