<?xml version="1.0" encoding="UTF-8" standalone="no"?>
<!DOCTYPE svg PUBLIC "-//W3C//DTD SVG 1.1//EN"
 "http://www.w3.org/Graphics/SVG/1.1/DTD/svg11.dtd">
<!-- Generated by graphviz version 2.43.0 (0)
 -->
<!-- Title: tracktion_engine::InputDeviceInstance::InputDeviceDestination Pages: 1 -->
<svg width="620pt" height="149pt"
 viewBox="0.00 0.00 620.00 149.00" xmlns="http://www.w3.org/2000/svg" xmlns:xlink="http://www.w3.org/1999/xlink">
<g id="graph0" class="graph" transform="scale(1 1) rotate(0) translate(4 145)">
<title>tracktion_engine::InputDeviceInstance::InputDeviceDestination</title>
<!-- Node1 -->
<g id="node1" class="node">
<title>Node1</title>
<g id="a_node1"><a xlink:title=" ">
<polygon fill="#bfbfbf" stroke="black" points="191,-55.5 191,-85.5 370,-85.5 370,-55.5 191,-55.5"/>
<text text-anchor="start" x="199" y="-73.5" font-family="Helvetica,sans-Serif" font-size="10.00">tracktion_engine::InputDevice</text>
<text text-anchor="middle" x="280.5" y="-62.5" font-family="Helvetica,sans-Serif" font-size="10.00">Instance::InputDeviceDestination</text>
</a>
</g>
</g>
<!-- Node3 -->
<g id="node3" class="node">
<title>Node3</title>
<g id="a_node3"><a xlink:href="structtracktion__engine_1_1InputDeviceInstance_1_1MidiInputDeviceDestination.html" target="_top" xlink:title=" ">
<polygon fill="none" stroke="black" points="409,-110.5 409,-140.5 609,-140.5 609,-110.5 409,-110.5"/>
<text text-anchor="start" x="417" y="-128.5" font-family="Helvetica,sans-Serif" font-size="10.00">tracktion_engine::InputDevice</text>
<text text-anchor="middle" x="509" y="-117.5" font-family="Helvetica,sans-Serif" font-size="10.00">Instance::MidiInputDeviceDestination</text>
</a>
</g>
</g>
<!-- Node1&#45;&gt;Node3 -->
<g id="edge2" class="edge">
<title>Node1&#45;&gt;Node3</title>
<path fill="none" stroke="midnightblue" d="M353.33,-87.94C383.18,-95.19 417.48,-103.52 446.18,-110.49"/>
<polygon fill="midnightblue" stroke="midnightblue" points="353.94,-84.49 343.39,-85.53 352.28,-91.29 353.94,-84.49"/>
</g>
<!-- Node4 -->
<g id="node4" class="node">
<title>Node4</title>
<g id="a_node4"><a xlink:href="structtracktion__engine_1_1InputDeviceInstance_1_1VirtualMidiInputDeviceDestination.html" target="_top" xlink:title=" ">
<polygon fill="none" stroke="black" points="421,-50 421,-91 597,-91 597,-50 421,-50"/>
<text text-anchor="start" x="429" y="-79" font-family="Helvetica,sans-Serif" font-size="10.00">tracktion_engine::InputDevice</text>
<text text-anchor="start" x="429" y="-68" font-family="Helvetica,sans-Serif" font-size="10.00">Instance::VirtualMidiInputDevice</text>
<text text-anchor="middle" x="509" y="-57" font-family="Helvetica,sans-Serif" font-size="10.00">Destination</text>
</a>
</g>
</g>
<!-- Node1&#45;&gt;Node4 -->
<g id="edge3" class="edge">
<title>Node1&#45;&gt;Node4</title>
<path fill="none" stroke="midnightblue" d="M380.26,-70.5C393.7,-70.5 407.41,-70.5 420.63,-70.5"/>
<polygon fill="midnightblue" stroke="midnightblue" points="380.04,-67 370.04,-70.5 380.04,-74 380.04,-67"/>
</g>
<!-- Node5 -->
<g id="node5" class="node">
<title>Node5</title>
<g id="a_node5"><a xlink:href="structtracktion__engine_1_1InputDeviceInstance_1_1WaveInputDeviceDestination.html" target="_top" xlink:title=" ">
<polygon fill="none" stroke="black" points="406,-0.5 406,-30.5 612,-30.5 612,-0.5 406,-0.5"/>
<text text-anchor="start" x="414" y="-18.5" font-family="Helvetica,sans-Serif" font-size="10.00">tracktion_engine::InputDevice</text>
<text text-anchor="middle" x="509" y="-7.5" font-family="Helvetica,sans-Serif" font-size="10.00">Instance::WaveInputDeviceDestination</text>
</a>
</g>
</g>
<!-- Node1&#45;&gt;Node5 -->
<g id="edge4" class="edge">
<title>Node1&#45;&gt;Node5</title>
<path fill="none" stroke="midnightblue" d="M353.33,-53.06C383.18,-45.81 417.48,-37.48 446.18,-30.51"/>
<polygon fill="midnightblue" stroke="midnightblue" points="352.28,-49.71 343.39,-55.47 353.94,-56.51 352.28,-49.71"/>
</g>
<!-- Node2 -->
<g id="node2" class="node">
<title>Node2</title>
<g id="a_node2"><a xlink:href="classtracktion__engine_1_1Selectable.html" target="_top" xlink:title="Base class for things that can be selected, and whose properties can appear in the properties panel.">
<polygon fill="none" stroke="black" points="0,-61 0,-80 155,-80 155,-61 0,-61"/>
<text text-anchor="middle" x="77.5" y="-68" font-family="Helvetica,sans-Serif" font-size="10.00">tracktion_engine::Selectable</text>
</a>
</g>
</g>
<!-- Node2&#45;&gt;Node1 -->
<g id="edge1" class="edge">
<title>Node2&#45;&gt;Node1</title>
<path fill="none" stroke="midnightblue" d="M165.26,-70.5C173.69,-70.5 182.25,-70.5 190.7,-70.5"/>
<polygon fill="midnightblue" stroke="midnightblue" points="165.06,-67 155.06,-70.5 165.06,-74 165.06,-67"/>
</g>
</g>
</svg>
