<?xml version="1.0" encoding="UTF-8" standalone="no"?>
<!DOCTYPE svg PUBLIC "-//W3C//DTD SVG 1.1//EN"
 "http://www.w3.org/Graphics/SVG/1.1/DTD/svg11.dtd">
<!-- Generated by graphviz version 2.43.0 (0)
 -->
<!-- Title: tracktion_engine::AutomatableParameter::ModifierSource Pages: 1 -->
<svg width="598pt" height="264pt"
 viewBox="0.00 0.00 598.00 263.50" xmlns="http://www.w3.org/2000/svg" xmlns:xlink="http://www.w3.org/1999/xlink">
<g id="graph0" class="graph" transform="scale(1 1) rotate(0) translate(4 259.5)">
<title>tracktion_engine::AutomatableParameter::ModifierSource</title>
<!-- Node1 -->
<g id="node1" class="node">
<title>Node1</title>
<g id="a_node1"><a xlink:title="Base class for things that can be used to modify parameters.">
<polygon fill="#bfbfbf" stroke="black" points="0,-129 0,-159 167,-159 167,-129 0,-129"/>
<text text-anchor="start" x="8" y="-147" font-family="Helvetica,sans-Serif" font-size="10.00">tracktion_engine::Automatable</text>
<text text-anchor="middle" x="83.5" y="-136" font-family="Helvetica,sans-Serif" font-size="10.00">Parameter::ModifierSource</text>
</a>
</g>
</g>
<!-- Node2 -->
<g id="node2" class="node">
<title>Node2</title>
<g id="a_node2"><a xlink:href="classtracktion__engine_1_1MacroParameter.html" target="_top" xlink:title="A MacroParameter is an AutomatableParameter which is a collection of Mappings.">
<polygon fill="none" stroke="black" points="203,-153.5 203,-172.5 388,-172.5 388,-153.5 203,-153.5"/>
<text text-anchor="middle" x="295.5" y="-160.5" font-family="Helvetica,sans-Serif" font-size="10.00">tracktion_engine::MacroParameter</text>
</a>
</g>
</g>
<!-- Node1&#45;&gt;Node2 -->
<g id="edge1" class="edge">
<title>Node1&#45;&gt;Node2</title>
<path fill="none" stroke="midnightblue" d="M177.43,-152.41C185.88,-153.17 194.43,-153.95 202.86,-154.71"/>
<polygon fill="midnightblue" stroke="midnightblue" points="177.47,-148.9 167.2,-151.48 176.84,-155.87 177.47,-148.9"/>
</g>
<!-- Node3 -->
<g id="node3" class="node">
<title>Node3</title>
<g id="a_node3"><a xlink:href="structtracktion__engine_1_1Modifier.html" target="_top" xlink:title="Bass class for parameter Modifiers.">
<polygon fill="none" stroke="black" points="223.5,-115.5 223.5,-134.5 367.5,-134.5 367.5,-115.5 223.5,-115.5"/>
<text text-anchor="middle" x="295.5" y="-122.5" font-family="Helvetica,sans-Serif" font-size="10.00">tracktion_engine::Modifier</text>
</a>
</g>
</g>
<!-- Node1&#45;&gt;Node3 -->
<g id="edge2" class="edge">
<title>Node1&#45;&gt;Node3</title>
<path fill="none" stroke="midnightblue" d="M177.3,-135.6C192.78,-134.2 208.61,-132.77 223.43,-131.43"/>
<polygon fill="midnightblue" stroke="midnightblue" points="176.84,-132.13 167.2,-136.52 177.47,-139.1 176.84,-132.13"/>
</g>
<!-- Node4 -->
<g id="node4" class="node">
<title>Node4</title>
<g id="a_node4"><a xlink:href="classtracktion__engine_1_1BreakpointOscillatorModifier.html" target="_top" xlink:title=" ">
<polygon fill="none" stroke="black" points="428,-225 428,-255 586,-255 586,-225 428,-225"/>
<text text-anchor="start" x="436" y="-243" font-family="Helvetica,sans-Serif" font-size="10.00">tracktion_engine::Breakpoint</text>
<text text-anchor="middle" x="507" y="-232" font-family="Helvetica,sans-Serif" font-size="10.00">OscillatorModifier</text>
</a>
</g>
</g>
<!-- Node3&#45;&gt;Node4 -->
<g id="edge3" class="edge">
<title>Node3&#45;&gt;Node4</title>
<path fill="none" stroke="midnightblue" d="M377.07,-137.12C380.93,-139.11 384.6,-141.38 388,-144 416.35,-165.82 396.54,-193.06 424,-216 428.1,-219.42 432.67,-222.36 437.49,-224.88"/>
<polygon fill="midnightblue" stroke="midnightblue" points="378.36,-133.86 367.8,-133.01 375.52,-140.26 378.36,-133.86"/>
</g>
<!-- Node5 -->
<g id="node5" class="node">
<title>Node5</title>
<g id="a_node5"><a xlink:href="classtracktion__engine_1_1EnvelopeFollowerModifier.html" target="_top" xlink:title=" ">
<polygon fill="none" stroke="black" points="432.5,-176 432.5,-206 581.5,-206 581.5,-176 432.5,-176"/>
<text text-anchor="start" x="440.5" y="-194" font-family="Helvetica,sans-Serif" font-size="10.00">tracktion_engine::Envelope</text>
<text text-anchor="middle" x="507" y="-183" font-family="Helvetica,sans-Serif" font-size="10.00">FollowerModifier</text>
</a>
</g>
</g>
<!-- Node3&#45;&gt;Node5 -->
<g id="edge4" class="edge">
<title>Node3&#45;&gt;Node5</title>
<path fill="none" stroke="midnightblue" d="M367.16,-137.11C374.3,-139.09 381.36,-141.37 388,-144 405.44,-150.9 406.9,-158.32 424,-166 432.15,-169.66 440.98,-172.98 449.73,-175.91"/>
<polygon fill="midnightblue" stroke="midnightblue" points="367.97,-133.7 357.41,-134.59 366.22,-140.48 367.97,-133.7"/>
</g>
<!-- Node6 -->
<g id="node6" class="node">
<title>Node6</title>
<g id="a_node6"><a xlink:href="classtracktion__engine_1_1LFOModifier.html" target="_top" xlink:title=" ">
<polygon fill="none" stroke="black" points="425.5,-137.5 425.5,-156.5 588.5,-156.5 588.5,-137.5 425.5,-137.5"/>
<text text-anchor="middle" x="507" y="-144.5" font-family="Helvetica,sans-Serif" font-size="10.00">tracktion_engine::LFOModifier</text>
</a>
</g>
</g>
<!-- Node3&#45;&gt;Node6 -->
<g id="edge5" class="edge">
<title>Node3&#45;&gt;Node6</title>
<path fill="none" stroke="midnightblue" d="M377.83,-133.54C393.4,-135.18 409.7,-136.89 425.25,-138.52"/>
<polygon fill="midnightblue" stroke="midnightblue" points="378.03,-130.04 367.72,-132.48 377.3,-137 378.03,-130.04"/>
</g>
<!-- Node7 -->
<g id="node7" class="node">
<title>Node7</title>
<g id="a_node7"><a xlink:href="classtracktion__engine_1_1MIDITrackerModifier.html" target="_top" xlink:title=" ">
<polygon fill="none" stroke="black" points="426.5,-88 426.5,-118 587.5,-118 587.5,-88 426.5,-88"/>
<text text-anchor="start" x="434.5" y="-106" font-family="Helvetica,sans-Serif" font-size="10.00">tracktion_engine::MIDITracker</text>
<text text-anchor="middle" x="507" y="-95" font-family="Helvetica,sans-Serif" font-size="10.00">Modifier</text>
</a>
</g>
</g>
<!-- Node3&#45;&gt;Node7 -->
<g id="edge6" class="edge">
<title>Node3&#45;&gt;Node7</title>
<path fill="none" stroke="midnightblue" d="M378.03,-116.44C393.9,-114.77 410.53,-113.03 426.34,-111.37"/>
<polygon fill="midnightblue" stroke="midnightblue" points="377.3,-113 367.72,-117.52 378.03,-119.96 377.3,-113"/>
</g>
<!-- Node8 -->
<g id="node8" class="node">
<title>Node8</title>
<g id="a_node8"><a xlink:href="classtracktion__engine_1_1RandomModifier.html" target="_top" xlink:title=" ">
<polygon fill="none" stroke="black" points="434.5,-39 434.5,-69 579.5,-69 579.5,-39 434.5,-39"/>
<text text-anchor="start" x="442.5" y="-57" font-family="Helvetica,sans-Serif" font-size="10.00">tracktion_engine::Random</text>
<text text-anchor="middle" x="507" y="-46" font-family="Helvetica,sans-Serif" font-size="10.00">Modifier</text>
</a>
</g>
</g>
<!-- Node3&#45;&gt;Node8 -->
<g id="edge7" class="edge">
<title>Node3&#45;&gt;Node8</title>
<path fill="none" stroke="midnightblue" d="M331.38,-111.88C356.91,-102.41 392.46,-89.49 424,-79 434.03,-75.67 444.8,-72.26 455.13,-69.07"/>
<polygon fill="midnightblue" stroke="midnightblue" points="329.92,-108.69 321.77,-115.46 332.36,-115.25 329.92,-108.69"/>
</g>
<!-- Node9 -->
<g id="node9" class="node">
<title>Node9</title>
<g id="a_node9"><a xlink:href="classtracktion__engine_1_1StepModifier.html" target="_top" xlink:title=" ">
<polygon fill="none" stroke="black" points="424,-0.5 424,-19.5 590,-19.5 590,-0.5 424,-0.5"/>
<text text-anchor="middle" x="507" y="-7.5" font-family="Helvetica,sans-Serif" font-size="10.00">tracktion_engine::StepModifier</text>
</a>
</g>
</g>
<!-- Node3&#45;&gt;Node9 -->
<g id="edge8" class="edge">
<title>Node3&#45;&gt;Node9</title>
<path fill="none" stroke="midnightblue" d="M313.81,-108.46C337.04,-87.17 380.43,-50.5 424,-30 433.15,-25.7 443.32,-22.26 453.3,-19.53"/>
<polygon fill="midnightblue" stroke="midnightblue" points="311.41,-105.92 306.47,-115.29 316.18,-111.04 311.41,-105.92"/>
</g>
</g>
</svg>
