<?xml version="1.0" encoding="UTF-8" standalone="no"?>
<!DOCTYPE svg PUBLIC "-//W3C//DTD SVG 1.1//EN"
 "http://www.w3.org/Graphics/SVG/1.1/DTD/svg11.dtd">
<!-- Generated by graphviz version 2.43.0 (0)
 -->
<!-- Title: tracktion::engine::ValueTreeAllEventListener Pages: 1 -->
<svg width="538pt" height="1718pt"
 viewBox="0.00 0.00 538.00 1718.00" xmlns="http://www.w3.org/2000/svg" xmlns:xlink="http://www.w3.org/1999/xlink">
<g id="graph0" class="graph" transform="scale(1 1) rotate(0) translate(4 1714)">
<title>tracktion::engine::ValueTreeAllEventListener</title>
<!-- Node1 -->
<g id="Node000001" class="node">
<title>Node1</title>
<g id="a_Node000001"><a xlink:title=" ">
<polygon fill="#999999" stroke="#666666" points="143,-798 0,-798 0,-768 143,-768 143,-798"/>
<text text-anchor="start" x="8" y="-786" font-family="Helvetica,sans-Serif" font-size="10.00">tracktion::engine::</text>
<text text-anchor="middle" x="71.5" y="-775" font-family="Helvetica,sans-Serif" font-size="10.00">ValueTreeAllEventListener</text>
</a>
</g>
</g>
<!-- Node2 -->
<g id="Node000002" class="node">
<title>Node2</title>
<g id="a_Node000002"><a xlink:href="classtracktion_1_1engine_1_1BreakpointOscillatorModifier.html" target="_top" xlink:title=" ">
<polygon fill="white" stroke="#666666" points="348,-1494 192,-1494 192,-1464 348,-1464 348,-1494"/>
<text text-anchor="start" x="200" y="-1482" font-family="Helvetica,sans-Serif" font-size="10.00">tracktion::engine::</text>
<text text-anchor="middle" x="270" y="-1471" font-family="Helvetica,sans-Serif" font-size="10.00">BreakpointOscillatorModifier</text>
</a>
</g>
</g>
<!-- Node1&#45;&gt;Node2 -->
<g id="edge1_Node000001_Node000002" class="edge">
<title>Node1&#45;&gt;Node2</title>
<g id="a_edge1_Node000001_Node000002"><a xlink:title=" ">
<path fill="none" stroke="#8b1a1a" d="M72.95,-808.25C75.4,-918.57 90.68,-1357.03 179,-1455 182.68,-1459.08 186.97,-1462.51 191.65,-1465.37"/>
<polygon fill="#8b1a1a" stroke="#8b1a1a" points="76.44,-808 72.73,-798.08 69.44,-808.15 76.44,-808"/>
</a>
</g>
</g>
<!-- Node3 -->
<g id="Node000003" class="node">
<title>Node3</title>
<g id="a_Node000003"><a xlink:href="classtracktion_1_1engine_1_1ClipEffect.html" target="_top" xlink:title=" ">
<polygon fill="white" stroke="#666666" points="322.5,-1446 217.5,-1446 217.5,-1416 322.5,-1416 322.5,-1446"/>
<text text-anchor="start" x="225.5" y="-1434" font-family="Helvetica,sans-Serif" font-size="10.00">tracktion::engine::</text>
<text text-anchor="middle" x="270" y="-1423" font-family="Helvetica,sans-Serif" font-size="10.00">ClipEffect</text>
</a>
</g>
</g>
<!-- Node1&#45;&gt;Node3 -->
<g id="edge2_Node000001_Node000003" class="edge">
<title>Node1&#45;&gt;Node3</title>
<g id="a_edge2_Node000001_Node000003"><a xlink:title=" ">
<path fill="none" stroke="darkgreen" d="M80.06,-807.93C112.39,-914.54 238.56,-1330.6 264.37,-1415.73"/>
<polygon fill="darkgreen" stroke="darkgreen" points="83.32,-806.62 77.07,-798.06 76.62,-808.65 83.32,-806.62"/>
</a>
</g>
</g>
<!-- Node14 -->
<g id="Node000014" class="node">
<title>Node14</title>
<g id="a_Node000014"><a xlink:href="classtracktion_1_1engine_1_1EnvelopeFollowerModifier.html" target="_top" xlink:title=" ">
<polygon fill="white" stroke="#666666" points="341.5,-966 198.5,-966 198.5,-936 341.5,-936 341.5,-966"/>
<text text-anchor="start" x="206.5" y="-954" font-family="Helvetica,sans-Serif" font-size="10.00">tracktion::engine::</text>
<text text-anchor="middle" x="270" y="-943" font-family="Helvetica,sans-Serif" font-size="10.00">EnvelopeFollowerModifier</text>
</a>
</g>
</g>
<!-- Node1&#45;&gt;Node14 -->
<g id="edge13_Node000001_Node000014" class="edge">
<title>Node1&#45;&gt;Node14</title>
<g id="a_edge13_Node000001_Node000014"><a xlink:title=" ">
<path fill="none" stroke="#8b1a1a" d="M84,-807.48C100.45,-839.82 133.8,-896.25 179,-927 184.88,-931 191.4,-934.34 198.17,-937.12"/>
<polygon fill="#8b1a1a" stroke="#8b1a1a" points="87.01,-805.69 79.44,-798.28 80.74,-808.79 87.01,-805.69"/>
</a>
</g>
</g>
<!-- Node15 -->
<g id="Node000015" class="node">
<title>Node15</title>
<g id="a_Node000015"><a xlink:href="classtracktion_1_1engine_1_1LFOModifier.html" target="_top" xlink:title=" ">
<polygon fill="white" stroke="#666666" points="322.5,-918 217.5,-918 217.5,-888 322.5,-888 322.5,-918"/>
<text text-anchor="start" x="225.5" y="-906" font-family="Helvetica,sans-Serif" font-size="10.00">tracktion::engine::</text>
<text text-anchor="middle" x="270" y="-895" font-family="Helvetica,sans-Serif" font-size="10.00">LFOModifier</text>
</a>
</g>
</g>
<!-- Node1&#45;&gt;Node15 -->
<g id="edge14_Node000001_Node000015" class="edge">
<title>Node1&#45;&gt;Node15</title>
<g id="a_edge14_Node000001_Node000015"><a xlink:title=" ">
<path fill="none" stroke="#8b1a1a" d="M91.64,-805.6C111.38,-827.49 144.12,-860.08 179,-879 190.8,-885.4 204.41,-890.17 217.41,-893.7"/>
<polygon fill="#8b1a1a" stroke="#8b1a1a" points="94.23,-803.24 84.98,-798.06 88.98,-807.87 94.23,-803.24"/>
</a>
</g>
</g>
<!-- Node16 -->
<g id="Node000016" class="node">
<title>Node16</title>
<g id="a_Node000016"><a xlink:href="classtracktion_1_1engine_1_1LambdaValueTreeAllEventListener.html" target="_top" xlink:title=" ">
<polygon fill="white" stroke="#666666" points="361,-870 179,-870 179,-840 361,-840 361,-870"/>
<text text-anchor="start" x="187" y="-858" font-family="Helvetica,sans-Serif" font-size="10.00">tracktion::engine::</text>
<text text-anchor="middle" x="270" y="-847" font-family="Helvetica,sans-Serif" font-size="10.00">LambdaValueTreeAllEventListener</text>
</a>
</g>
</g>
<!-- Node1&#45;&gt;Node16 -->
<g id="edge15_Node000001_Node000016" class="edge">
<title>Node1&#45;&gt;Node16</title>
<g id="a_edge15_Node000001_Node000016"><a xlink:title=" ">
<path fill="none" stroke="#8b1a1a" d="M111.76,-802.54C131.6,-811.94 156.24,-822.9 179,-831 187.99,-834.2 197.61,-837.2 207.11,-839.92"/>
<polygon fill="#8b1a1a" stroke="#8b1a1a" points="113.25,-799.37 102.72,-798.21 110.22,-805.69 113.25,-799.37"/>
</a>
</g>
</g>
<!-- Node17 -->
<g id="Node000017" class="node">
<title>Node17</title>
<g id="a_Node000017"><a xlink:href="classtracktion_1_1engine_1_1MIDITrackerModifier.html" target="_top" xlink:title=" ">
<polygon fill="white" stroke="#666666" points="326.5,-822 213.5,-822 213.5,-792 326.5,-792 326.5,-822"/>
<text text-anchor="start" x="221.5" y="-810" font-family="Helvetica,sans-Serif" font-size="10.00">tracktion::engine::</text>
<text text-anchor="middle" x="270" y="-799" font-family="Helvetica,sans-Serif" font-size="10.00">MIDITrackerModifier</text>
</a>
</g>
</g>
<!-- Node1&#45;&gt;Node17 -->
<g id="edge16_Node000001_Node000017" class="edge">
<title>Node1&#45;&gt;Node17</title>
<g id="a_edge16_Node000001_Node000017"><a xlink:title=" ">
<path fill="none" stroke="#8b1a1a" d="M153.3,-792.87C173.52,-795.34 194.75,-797.93 213.42,-800.21"/>
<polygon fill="#8b1a1a" stroke="#8b1a1a" points="153.51,-789.37 143.16,-791.63 152.67,-796.32 153.51,-789.37"/>
</a>
</g>
</g>
<!-- Node18 -->
<g id="Node000018" class="node">
<title>Node18</title>
<g id="a_Node000018"><a xlink:href="classtracktion_1_1engine_1_1PatternGenerator.html" target="_top" xlink:title=" ">
<polygon fill="white" stroke="#666666" points="322.5,-774 217.5,-774 217.5,-744 322.5,-744 322.5,-774"/>
<text text-anchor="start" x="225.5" y="-762" font-family="Helvetica,sans-Serif" font-size="10.00">tracktion::engine::</text>
<text text-anchor="middle" x="270" y="-751" font-family="Helvetica,sans-Serif" font-size="10.00">PatternGenerator</text>
</a>
</g>
</g>
<!-- Node1&#45;&gt;Node18 -->
<g id="edge17_Node000001_Node000018" class="edge">
<title>Node1&#45;&gt;Node18</title>
<g id="a_edge17_Node000001_Node000018"><a xlink:title=" ">
<path fill="none" stroke="#8b1a1a" d="M153.35,-773.13C175.01,-770.48 197.84,-767.69 217.44,-765.3"/>
<polygon fill="#8b1a1a" stroke="#8b1a1a" points="152.67,-769.68 143.16,-774.37 153.51,-776.63 152.67,-769.68"/>
</a>
</g>
</g>
<!-- Node19 -->
<g id="Node000019" class="node">
<title>Node19</title>
<g id="a_Node000019"><a xlink:href="classtracktion_1_1engine_1_1PitchSetting.html" target="_top" xlink:title=" ">
<polygon fill="white" stroke="#666666" points="322.5,-726 217.5,-726 217.5,-696 322.5,-696 322.5,-726"/>
<text text-anchor="start" x="225.5" y="-714" font-family="Helvetica,sans-Serif" font-size="10.00">tracktion::engine::</text>
<text text-anchor="middle" x="270" y="-703" font-family="Helvetica,sans-Serif" font-size="10.00">PitchSetting</text>
</a>
</g>
</g>
<!-- Node1&#45;&gt;Node19 -->
<g id="edge18_Node000001_Node000019" class="edge">
<title>Node1&#45;&gt;Node19</title>
<g id="a_edge18_Node000001_Node000019"><a xlink:title=" ">
<path fill="none" stroke="#8b1a1a" d="M111.76,-763.46C131.6,-754.06 156.24,-743.1 179,-735 191.19,-730.66 204.55,-726.69 217.16,-723.28"/>
<polygon fill="#8b1a1a" stroke="#8b1a1a" points="110.22,-760.31 102.72,-767.79 113.25,-766.63 110.22,-760.31"/>
</a>
</g>
</g>
<!-- Node20 -->
<g id="Node000020" class="node">
<title>Node20</title>
<g id="a_Node000020"><a xlink:href="classtracktion_1_1engine_1_1Plugin.html" target="_top" xlink:title=" ">
<polygon fill="#fff0f0" stroke="red" points="322.5,-678 217.5,-678 217.5,-648 322.5,-648 322.5,-678"/>
<text text-anchor="start" x="225.5" y="-666" font-family="Helvetica,sans-Serif" font-size="10.00">tracktion::engine::</text>
<text text-anchor="middle" x="270" y="-655" font-family="Helvetica,sans-Serif" font-size="10.00">Plugin</text>
</a>
</g>
</g>
<!-- Node1&#45;&gt;Node20 -->
<g id="edge19_Node000001_Node000020" class="edge">
<title>Node1&#45;&gt;Node20</title>
<g id="a_edge19_Node000001_Node000020"><a xlink:title=" ">
<path fill="none" stroke="darkgreen" d="M91.64,-760.4C111.38,-738.51 144.12,-705.92 179,-687 190.8,-680.6 204.41,-675.83 217.41,-672.3"/>
<polygon fill="darkgreen" stroke="darkgreen" points="88.98,-758.13 84.98,-767.94 94.23,-762.76 88.98,-758.13"/>
</a>
</g>
</g>
<!-- Node48 -->
<g id="Node000048" class="node">
<title>Node48</title>
<g id="a_Node000048"><a xlink:href="classtracktion_1_1engine_1_1RandomModifier.html" target="_top" xlink:title=" ">
<polygon fill="white" stroke="#666666" points="322.5,-630 217.5,-630 217.5,-600 322.5,-600 322.5,-630"/>
<text text-anchor="start" x="225.5" y="-618" font-family="Helvetica,sans-Serif" font-size="10.00">tracktion::engine::</text>
<text text-anchor="middle" x="270" y="-607" font-family="Helvetica,sans-Serif" font-size="10.00">RandomModifier</text>
</a>
</g>
</g>
<!-- Node1&#45;&gt;Node48 -->
<g id="edge46_Node000001_Node000048" class="edge">
<title>Node1&#45;&gt;Node48</title>
<g id="a_edge46_Node000001_Node000048"><a xlink:title=" ">
<path fill="none" stroke="#8b1a1a" d="M84,-758.52C100.45,-726.18 133.8,-669.75 179,-639 190.37,-631.27 204.11,-626.03 217.39,-622.47"/>
<polygon fill="#8b1a1a" stroke="#8b1a1a" points="80.74,-757.21 79.44,-767.72 87.01,-760.31 80.74,-757.21"/>
</a>
</g>
</g>
<!-- Node49 -->
<g id="Node000049" class="node">
<title>Node49</title>
<g id="a_Node000049"><a xlink:href="classtracktion_1_1engine_1_1StepModifier.html" target="_top" xlink:title=" ">
<polygon fill="white" stroke="#666666" points="322.5,-582 217.5,-582 217.5,-552 322.5,-552 322.5,-582"/>
<text text-anchor="start" x="225.5" y="-570" font-family="Helvetica,sans-Serif" font-size="10.00">tracktion::engine::</text>
<text text-anchor="middle" x="270" y="-559" font-family="Helvetica,sans-Serif" font-size="10.00">StepModifier</text>
</a>
</g>
</g>
<!-- Node1&#45;&gt;Node49 -->
<g id="edge47_Node000001_Node000049" class="edge">
<title>Node1&#45;&gt;Node49</title>
<g id="a_edge47_Node000001_Node000049"><a xlink:title=" ">
<path fill="none" stroke="#8b1a1a" d="M79.34,-758.06C91.96,-716.86 122.87,-634.78 179,-591 189.97,-582.45 203.72,-576.93 217.15,-573.38"/>
<polygon fill="#8b1a1a" stroke="#8b1a1a" points="75.93,-757.26 76.46,-767.84 82.64,-759.24 75.93,-757.26"/>
</a>
</g>
</g>
<!-- Node50 -->
<g id="Node000050" class="node">
<title>Node50</title>
<g id="a_Node000050"><a xlink:href="classtracktion_1_1engine_1_1TimeSigSetting.html" target="_top" xlink:title=" ">
<polygon fill="white" stroke="#666666" points="322.5,-534 217.5,-534 217.5,-504 322.5,-504 322.5,-534"/>
<text text-anchor="start" x="225.5" y="-522" font-family="Helvetica,sans-Serif" font-size="10.00">tracktion::engine::</text>
<text text-anchor="middle" x="270" y="-511" font-family="Helvetica,sans-Serif" font-size="10.00">TimeSigSetting</text>
</a>
</g>
</g>
<!-- Node1&#45;&gt;Node50 -->
<g id="edge48_Node000001_Node000050" class="edge">
<title>Node1&#45;&gt;Node50</title>
<g id="a_edge48_Node000001_Node000050"><a xlink:title=" ">
<path fill="none" stroke="#8b1a1a" d="M76.34,-757.92C85.18,-708.99 111.65,-600.53 179,-543 189.7,-533.86 203.52,-528.16 217.1,-524.62"/>
<polygon fill="#8b1a1a" stroke="#8b1a1a" points="72.86,-757.51 74.63,-767.96 79.76,-758.69 72.86,-757.51"/>
</a>
</g>
</g>
<!-- Node4 -->
<g id="Node000004" class="node">
<title>Node4</title>
<g id="a_Node000004"><a xlink:href="structtracktion_1_1engine_1_1FadeInOutEffect.html" target="_top" xlink:title=" ">
<polygon fill="white" stroke="#666666" points="516,-1710 411,-1710 411,-1680 516,-1680 516,-1710"/>
<text text-anchor="start" x="419" y="-1698" font-family="Helvetica,sans-Serif" font-size="10.00">tracktion::engine::</text>
<text text-anchor="middle" x="463.5" y="-1687" font-family="Helvetica,sans-Serif" font-size="10.00">FadeInOutEffect</text>
</a>
</g>
</g>
<!-- Node3&#45;&gt;Node4 -->
<g id="edge3_Node000003_Node000004" class="edge">
<title>Node3&#45;&gt;Node4</title>
<g id="a_edge3_Node000003_Node000004"><a xlink:title=" ">
<path fill="none" stroke="#63b8ff" d="M332.26,-1437.27C343.1,-1440.97 353.35,-1446.58 361,-1455 426.46,-1527.02 334.87,-1596.09 397,-1671 400.79,-1675.57 405.53,-1679.27 410.71,-1682.26"/>
<polygon fill="#63b8ff" stroke="#63b8ff" points="333.21,-1433.9 322.63,-1434.49 331.27,-1440.63 333.21,-1433.9"/>
</a>
</g>
</g>
<!-- Node5 -->
<g id="Node000005" class="node">
<title>Node5</title>
<g id="a_Node000005"><a xlink:href="structtracktion_1_1engine_1_1InvertEffect.html" target="_top" xlink:title=" ">
<polygon fill="white" stroke="#666666" points="516,-1662 411,-1662 411,-1632 516,-1632 516,-1662"/>
<text text-anchor="start" x="419" y="-1650" font-family="Helvetica,sans-Serif" font-size="10.00">tracktion::engine::</text>
<text text-anchor="middle" x="463.5" y="-1639" font-family="Helvetica,sans-Serif" font-size="10.00">InvertEffect</text>
</a>
</g>
</g>
<!-- Node3&#45;&gt;Node5 -->
<g id="edge4_Node000003_Node000005" class="edge">
<title>Node3&#45;&gt;Node5</title>
<g id="a_edge4_Node000003_Node000005"><a xlink:title=" ">
<path fill="none" stroke="#63b8ff" d="M332.64,-1437.79C343.25,-1441.46 353.32,-1446.93 361,-1455 413.64,-1510.32 346.92,-1565.36 397,-1623 400.89,-1627.48 405.69,-1631.12 410.91,-1634.09"/>
<polygon fill="#63b8ff" stroke="#63b8ff" points="333.38,-1434.35 322.79,-1434.89 331.4,-1441.07 333.38,-1434.35"/>
</a>
</g>
</g>
<!-- Node6 -->
<g id="Node000006" class="node">
<title>Node6</title>
<g id="a_Node000006"><a xlink:href="structtracktion_1_1engine_1_1MakeMonoEffect.html" target="_top" xlink:title=" ">
<polygon fill="white" stroke="#666666" points="516,-1614 411,-1614 411,-1584 516,-1584 516,-1614"/>
<text text-anchor="start" x="419" y="-1602" font-family="Helvetica,sans-Serif" font-size="10.00">tracktion::engine::</text>
<text text-anchor="middle" x="463.5" y="-1591" font-family="Helvetica,sans-Serif" font-size="10.00">MakeMonoEffect</text>
</a>
</g>
</g>
<!-- Node3&#45;&gt;Node6 -->
<g id="edge5_Node000003_Node000006" class="edge">
<title>Node3&#45;&gt;Node6</title>
<g id="a_edge5_Node000003_Node000006"><a xlink:title=" ">
<path fill="none" stroke="#63b8ff" d="M332.49,-1438.41C343.01,-1442.04 353.09,-1447.33 361,-1455 400.98,-1493.76 358.82,-1534.47 397,-1575 400.99,-1579.23 405.78,-1582.72 410.94,-1585.6"/>
<polygon fill="#63b8ff" stroke="#63b8ff" points="333.32,-1435.01 322.74,-1435.52 331.33,-1441.72 333.32,-1435.01"/>
</a>
</g>
</g>
<!-- Node7 -->
<g id="Node000007" class="node">
<title>Node7</title>
<g id="a_Node000007"><a xlink:href="structtracktion_1_1engine_1_1NormaliseEffect.html" target="_top" xlink:title=" ">
<polygon fill="white" stroke="#666666" points="516,-1566 411,-1566 411,-1536 516,-1536 516,-1566"/>
<text text-anchor="start" x="419" y="-1554" font-family="Helvetica,sans-Serif" font-size="10.00">tracktion::engine::</text>
<text text-anchor="middle" x="463.5" y="-1543" font-family="Helvetica,sans-Serif" font-size="10.00">NormaliseEffect</text>
</a>
</g>
</g>
<!-- Node3&#45;&gt;Node7 -->
<g id="edge6_Node000003_Node000007" class="edge">
<title>Node3&#45;&gt;Node7</title>
<g id="a_edge6_Node000003_Node000007"><a xlink:title=" ">
<path fill="none" stroke="#63b8ff" d="M332.5,-1439.9C342.76,-1443.41 352.74,-1448.26 361,-1455 388.73,-1477.6 370.32,-1503.16 397,-1527 401.15,-1530.71 405.93,-1533.86 410.97,-1536.54"/>
<polygon fill="#63b8ff" stroke="#63b8ff" points="333.21,-1436.46 322.62,-1436.95 331.2,-1443.17 333.21,-1436.46"/>
</a>
</g>
</g>
<!-- Node8 -->
<g id="Node000008" class="node">
<title>Node8</title>
<g id="a_Node000008"><a xlink:href="structtracktion_1_1engine_1_1PitchShiftEffect.html" target="_top" xlink:title=" ">
<polygon fill="white" stroke="#666666" points="516,-1518 411,-1518 411,-1488 516,-1488 516,-1518"/>
<text text-anchor="start" x="419" y="-1506" font-family="Helvetica,sans-Serif" font-size="10.00">tracktion::engine::</text>
<text text-anchor="middle" x="463.5" y="-1495" font-family="Helvetica,sans-Serif" font-size="10.00">PitchShiftEffect</text>
</a>
</g>
</g>
<!-- Node3&#45;&gt;Node8 -->
<g id="edge7_Node000003_Node000008" class="edge">
<title>Node3&#45;&gt;Node8</title>
<g id="a_edge7_Node000003_Node000008"><a xlink:title=" ">
<path fill="none" stroke="#63b8ff" d="M332.58,-1444.53C342.28,-1447.48 352.05,-1450.96 361,-1455 378.52,-1462.92 379.85,-1470.3 397,-1479 403.37,-1482.23 410.29,-1485.25 417.15,-1487.98"/>
<polygon fill="#63b8ff" stroke="#63b8ff" points="333.51,-1441.16 322.94,-1441.75 331.58,-1447.88 333.51,-1441.16"/>
</a>
</g>
</g>
<!-- Node9 -->
<g id="Node000009" class="node">
<title>Node9</title>
<g id="a_Node000009"><a xlink:href="structtracktion_1_1engine_1_1PluginEffect.html" target="_top" xlink:title=" ">
<polygon fill="white" stroke="#666666" points="516,-1470 411,-1470 411,-1440 516,-1440 516,-1470"/>
<text text-anchor="start" x="419" y="-1458" font-family="Helvetica,sans-Serif" font-size="10.00">tracktion::engine::</text>
<text text-anchor="middle" x="463.5" y="-1447" font-family="Helvetica,sans-Serif" font-size="10.00">PluginEffect</text>
</a>
</g>
</g>
<!-- Node3&#45;&gt;Node9 -->
<g id="edge8_Node000003_Node000009" class="edge">
<title>Node3&#45;&gt;Node9</title>
<g id="a_edge8_Node000003_Node000009"><a xlink:title=" ">
<path fill="none" stroke="#63b8ff" d="M332.76,-1438.74C357.96,-1441.9 386.78,-1445.51 410.84,-1448.53"/>
<polygon fill="#63b8ff" stroke="#63b8ff" points="332.93,-1435.23 322.57,-1437.46 332.06,-1442.18 332.93,-1435.23"/>
</a>
</g>
</g>
<!-- Node10 -->
<g id="Node000010" class="node">
<title>Node10</title>
<g id="a_Node000010"><a xlink:href="structtracktion_1_1engine_1_1ReverseEffect.html" target="_top" xlink:title=" ">
<polygon fill="white" stroke="#666666" points="516,-1422 411,-1422 411,-1392 516,-1392 516,-1422"/>
<text text-anchor="start" x="419" y="-1410" font-family="Helvetica,sans-Serif" font-size="10.00">tracktion::engine::</text>
<text text-anchor="middle" x="463.5" y="-1399" font-family="Helvetica,sans-Serif" font-size="10.00">ReverseEffect</text>
</a>
</g>
</g>
<!-- Node3&#45;&gt;Node10 -->
<g id="edge9_Node000003_Node000010" class="edge">
<title>Node3&#45;&gt;Node10</title>
<g id="a_edge9_Node000003_Node000010"><a xlink:title=" ">
<path fill="none" stroke="#63b8ff" d="M332.76,-1423.26C357.96,-1420.1 386.78,-1416.49 410.84,-1413.47"/>
<polygon fill="#63b8ff" stroke="#63b8ff" points="332.06,-1419.82 322.57,-1424.54 332.93,-1426.77 332.06,-1419.82"/>
</a>
</g>
</g>
<!-- Node11 -->
<g id="Node000011" class="node">
<title>Node11</title>
<g id="a_Node000011"><a xlink:href="structtracktion_1_1engine_1_1StepVolumeEffect.html" target="_top" xlink:title=" ">
<polygon fill="white" stroke="#666666" points="516,-1374 411,-1374 411,-1344 516,-1344 516,-1374"/>
<text text-anchor="start" x="419" y="-1362" font-family="Helvetica,sans-Serif" font-size="10.00">tracktion::engine::</text>
<text text-anchor="middle" x="463.5" y="-1351" font-family="Helvetica,sans-Serif" font-size="10.00">StepVolumeEffect</text>
</a>
</g>
</g>
<!-- Node3&#45;&gt;Node11 -->
<g id="edge10_Node000003_Node000011" class="edge">
<title>Node3&#45;&gt;Node11</title>
<g id="a_edge10_Node000003_Node000011"><a xlink:title=" ">
<path fill="none" stroke="#63b8ff" d="M319.47,-1412.37C342.87,-1403.42 371.37,-1392.58 397,-1383 404.83,-1380.08 413.19,-1376.98 421.24,-1374.03"/>
<polygon fill="#63b8ff" stroke="#63b8ff" points="318.2,-1409.11 310.11,-1415.95 320.7,-1415.65 318.2,-1409.11"/>
</a>
</g>
</g>
<!-- Node12 -->
<g id="Node000012" class="node">
<title>Node12</title>
<g id="a_Node000012"><a xlink:href="structtracktion_1_1engine_1_1VolumeEffect.html" target="_top" xlink:title=" ">
<polygon fill="white" stroke="#666666" points="516,-1326 411,-1326 411,-1296 516,-1296 516,-1326"/>
<text text-anchor="start" x="419" y="-1314" font-family="Helvetica,sans-Serif" font-size="10.00">tracktion::engine::</text>
<text text-anchor="middle" x="463.5" y="-1303" font-family="Helvetica,sans-Serif" font-size="10.00">VolumeEffect</text>
</a>
</g>
</g>
<!-- Node3&#45;&gt;Node12 -->
<g id="edge11_Node000003_Node000012" class="edge">
<title>Node3&#45;&gt;Node12</title>
<g id="a_edge11_Node000003_Node000012"><a xlink:title=" ">
<path fill="none" stroke="#63b8ff" d="M295.03,-1409.15C319.32,-1387.96 358.65,-1356.01 397,-1335 402.95,-1331.74 409.43,-1328.76 415.92,-1326.09"/>
<polygon fill="#63b8ff" stroke="#63b8ff" points="292.57,-1406.65 287.4,-1415.9 297.21,-1411.9 292.57,-1406.65"/>
</a>
</g>
</g>
<!-- Node13 -->
<g id="Node000013" class="node">
<title>Node13</title>
<g id="a_Node000013"><a xlink:href="structtracktion_1_1engine_1_1WarpTimeEffect.html" target="_top" xlink:title=" ">
<polygon fill="white" stroke="#666666" points="516,-1278 411,-1278 411,-1248 516,-1248 516,-1278"/>
<text text-anchor="start" x="419" y="-1266" font-family="Helvetica,sans-Serif" font-size="10.00">tracktion::engine::</text>
<text text-anchor="middle" x="463.5" y="-1255" font-family="Helvetica,sans-Serif" font-size="10.00">WarpTimeEffect</text>
</a>
</g>
</g>
<!-- Node3&#45;&gt;Node13 -->
<g id="edge12_Node000003_Node000013" class="edge">
<title>Node3&#45;&gt;Node13</title>
<g id="a_edge12_Node000003_Node000013"><a xlink:title=" ">
<path fill="none" stroke="#63b8ff" d="M286.23,-1407.11C307.48,-1375.53 348.89,-1320.03 397,-1287 401.89,-1283.64 407.31,-1280.69 412.88,-1278.11"/>
<polygon fill="#63b8ff" stroke="#63b8ff" points="283.13,-1405.45 280.53,-1415.72 288.97,-1409.31 283.13,-1405.45"/>
</a>
</g>
</g>
<!-- Node21 -->
<g id="Node000021" class="node">
<title>Node21</title>
<g id="a_Node000021"><a xlink:href="classtracktion_1_1engine_1_1AirWindowsPlugin.html" target="_top" xlink:title=" ">
<polygon fill="white" stroke="#666666" points="516,-1230 411,-1230 411,-1200 516,-1200 516,-1230"/>
<text text-anchor="start" x="419" y="-1218" font-family="Helvetica,sans-Serif" font-size="10.00">tracktion::engine::</text>
<text text-anchor="middle" x="463.5" y="-1207" font-family="Helvetica,sans-Serif" font-size="10.00">AirWindowsPlugin</text>
</a>
</g>
</g>
<!-- Node20&#45;&gt;Node21 -->
<g id="edge20_Node000020_Node000021" class="edge">
<title>Node20&#45;&gt;Node21</title>
<g id="a_edge20_Node000020_Node000021"><a xlink:title=" ">
<path fill="none" stroke="#63b8ff" d="M332.54,-668.6C343.46,-672.34 353.67,-678.13 361,-687 432.54,-773.55 329.45,-1101.3 397,-1191 400.72,-1195.93 405.55,-1199.85 410.91,-1202.97"/>
<polygon fill="#63b8ff" stroke="#63b8ff" points="333.39,-665.2 322.81,-665.81 331.46,-671.93 333.39,-665.2"/>
</a>
</g>
</g>
<!-- Node22 -->
<g id="Node000022" class="node">
<title>Node22</title>
<g id="a_Node000022"><a xlink:href="classtracktion_1_1engine_1_1AuxReturnPlugin.html" target="_top" xlink:title=" ">
<polygon fill="white" stroke="#666666" points="516,-1182 411,-1182 411,-1152 516,-1152 516,-1182"/>
<text text-anchor="start" x="419" y="-1170" font-family="Helvetica,sans-Serif" font-size="10.00">tracktion::engine::</text>
<text text-anchor="middle" x="463.5" y="-1159" font-family="Helvetica,sans-Serif" font-size="10.00">AuxReturnPlugin</text>
</a>
</g>
</g>
<!-- Node20&#45;&gt;Node22 -->
<g id="edge21_Node000020_Node000022" class="edge">
<title>Node20&#45;&gt;Node22</title>
<g id="a_edge21_Node000020_Node000022"><a xlink:title=" ">
<path fill="none" stroke="#63b8ff" d="M332.49,-668.64C343.41,-672.38 353.64,-678.16 361,-687 426.05,-765.1 335.55,-1062.03 397,-1143 400.73,-1147.92 405.58,-1151.83 410.95,-1154.94"/>
<polygon fill="#63b8ff" stroke="#63b8ff" points="333.34,-665.24 322.76,-665.85 331.41,-671.97 333.34,-665.24"/>
</a>
</g>
</g>
<!-- Node23 -->
<g id="Node000023" class="node">
<title>Node23</title>
<g id="a_Node000023"><a xlink:href="classtracktion_1_1engine_1_1AuxSendPlugin.html" target="_top" xlink:title=" ">
<polygon fill="white" stroke="#666666" points="516,-1134 411,-1134 411,-1104 516,-1104 516,-1134"/>
<text text-anchor="start" x="419" y="-1122" font-family="Helvetica,sans-Serif" font-size="10.00">tracktion::engine::</text>
<text text-anchor="middle" x="463.5" y="-1111" font-family="Helvetica,sans-Serif" font-size="10.00">AuxSendPlugin</text>
</a>
</g>
</g>
<!-- Node20&#45;&gt;Node23 -->
<g id="edge22_Node000020_Node000023" class="edge">
<title>Node20&#45;&gt;Node23</title>
<g id="a_edge22_Node000020_Node000023"><a xlink:title=" ">
<path fill="none" stroke="#63b8ff" d="M332.42,-668.69C343.35,-672.43 353.6,-678.19 361,-687 419.57,-756.67 341.64,-1022.75 397,-1095 400.76,-1099.9 405.62,-1103.8 410.99,-1106.91"/>
<polygon fill="#63b8ff" stroke="#63b8ff" points="333.27,-665.3 322.7,-665.91 331.35,-672.03 333.27,-665.3"/>
</a>
</g>
</g>
<!-- Node24 -->
<g id="Node000024" class="node">
<title>Node24</title>
<g id="a_Node000024"><a xlink:href="classtracktion_1_1engine_1_1ChorusPlugin.html" target="_top" xlink:title=" ">
<polygon fill="white" stroke="#666666" points="516,-1086 411,-1086 411,-1056 516,-1056 516,-1086"/>
<text text-anchor="start" x="419" y="-1074" font-family="Helvetica,sans-Serif" font-size="10.00">tracktion::engine::</text>
<text text-anchor="middle" x="463.5" y="-1063" font-family="Helvetica,sans-Serif" font-size="10.00">ChorusPlugin</text>
</a>
</g>
</g>
<!-- Node20&#45;&gt;Node24 -->
<g id="edge23_Node000020_Node000024" class="edge">
<title>Node20&#45;&gt;Node24</title>
<g id="a_edge23_Node000020_Node000024"><a xlink:title=" ">
<path fill="none" stroke="#63b8ff" d="M332.34,-668.76C343.28,-672.49 353.54,-678.24 361,-687 465.19,-809.47 298.46,-919.93 397,-1047 400.71,-1051.79 405.47,-1055.62 410.73,-1058.68"/>
<polygon fill="#63b8ff" stroke="#63b8ff" points="333.19,-665.36 322.61,-665.98 331.27,-672.09 333.19,-665.36"/>
</a>
</g>
</g>
<!-- Node25 -->
<g id="Node000025" class="node">
<title>Node25</title>
<g id="a_Node000025"><a xlink:href="classtracktion_1_1engine_1_1CompressorPlugin.html" target="_top" xlink:title=" ">
<polygon fill="white" stroke="#666666" points="516,-1038 411,-1038 411,-1008 516,-1008 516,-1038"/>
<text text-anchor="start" x="419" y="-1026" font-family="Helvetica,sans-Serif" font-size="10.00">tracktion::engine::</text>
<text text-anchor="middle" x="463.5" y="-1015" font-family="Helvetica,sans-Serif" font-size="10.00">CompressorPlugin</text>
</a>
</g>
</g>
<!-- Node20&#45;&gt;Node25 -->
<g id="edge24_Node000020_Node000025" class="edge">
<title>Node20&#45;&gt;Node25</title>
<g id="a_edge24_Node000020_Node000025"><a xlink:title=" ">
<path fill="none" stroke="#63b8ff" d="M332.24,-668.85C343.18,-672.57 353.48,-678.29 361,-687 452.26,-792.63 310.62,-889.35 397,-999 400.75,-1003.76 405.53,-1007.57 410.8,-1010.63"/>
<polygon fill="#63b8ff" stroke="#63b8ff" points="333.09,-665.45 322.51,-666.07 331.16,-672.18 333.09,-665.45"/>
</a>
</g>
</g>
<!-- Node26 -->
<g id="Node000026" class="node">
<title>Node26</title>
<g id="a_Node000026"><a xlink:href="classtracktion_1_1engine_1_1DelayPlugin.html" target="_top" xlink:title=" ">
<polygon fill="white" stroke="#666666" points="516,-990 411,-990 411,-960 516,-960 516,-990"/>
<text text-anchor="start" x="419" y="-978" font-family="Helvetica,sans-Serif" font-size="10.00">tracktion::engine::</text>
<text text-anchor="middle" x="463.5" y="-967" font-family="Helvetica,sans-Serif" font-size="10.00">DelayPlugin</text>
</a>
</g>
</g>
<!-- Node20&#45;&gt;Node26 -->
<g id="edge25_Node000020_Node000026" class="edge">
<title>Node20&#45;&gt;Node26</title>
<g id="a_edge25_Node000020_Node000026"><a xlink:title=" ">
<path fill="none" stroke="#63b8ff" d="M332.46,-669.09C343.28,-672.81 353.47,-678.46 361,-687 439.34,-775.8 322.76,-858.74 397,-951 400.8,-955.72 405.61,-959.51 410.89,-962.55"/>
<polygon fill="#63b8ff" stroke="#63b8ff" points="333.42,-665.73 322.84,-666.31 331.47,-672.45 333.42,-665.73"/>
</a>
</g>
</g>
<!-- Node27 -->
<g id="Node000027" class="node">
<title>Node27</title>
<g id="a_Node000027"><a xlink:href="classtracktion_1_1engine_1_1EqualiserPlugin.html" target="_top" xlink:title=" ">
<polygon fill="white" stroke="#666666" points="516,-942 411,-942 411,-912 516,-912 516,-942"/>
<text text-anchor="start" x="419" y="-930" font-family="Helvetica,sans-Serif" font-size="10.00">tracktion::engine::</text>
<text text-anchor="middle" x="463.5" y="-919" font-family="Helvetica,sans-Serif" font-size="10.00">EqualiserPlugin</text>
</a>
</g>
</g>
<!-- Node20&#45;&gt;Node27 -->
<g id="edge26_Node000020_Node000027" class="edge">
<title>Node20&#45;&gt;Node27</title>
<g id="a_edge26_Node000020_Node000027"><a xlink:title=" ">
<path fill="none" stroke="#63b8ff" d="M332.26,-669.27C343.1,-672.97 353.35,-678.58 361,-687 426.46,-759.02 334.87,-828.09 397,-903 400.79,-907.57 405.53,-911.27 410.71,-914.26"/>
<polygon fill="#63b8ff" stroke="#63b8ff" points="333.21,-665.9 322.63,-666.49 331.27,-672.63 333.21,-665.9"/>
</a>
</g>
</g>
<!-- Node28 -->
<g id="Node000028" class="node">
<title>Node28</title>
<g id="a_Node000028"><a xlink:href="classtracktion_1_1engine_1_1ExternalPlugin.html" target="_top" xlink:title=" ">
<polygon fill="white" stroke="#666666" points="516,-894 411,-894 411,-864 516,-864 516,-894"/>
<text text-anchor="start" x="419" y="-882" font-family="Helvetica,sans-Serif" font-size="10.00">tracktion::engine::</text>
<text text-anchor="middle" x="463.5" y="-871" font-family="Helvetica,sans-Serif" font-size="10.00">ExternalPlugin</text>
</a>
</g>
</g>
<!-- Node20&#45;&gt;Node28 -->
<g id="edge27_Node000020_Node000028" class="edge">
<title>Node20&#45;&gt;Node28</title>
<g id="a_edge27_Node000020_Node000028"><a xlink:title=" ">
<path fill="none" stroke="#63b8ff" d="M332.64,-669.79C343.25,-673.46 353.32,-678.93 361,-687 413.64,-742.32 346.92,-797.36 397,-855 400.89,-859.48 405.69,-863.12 410.91,-866.09"/>
<polygon fill="#63b8ff" stroke="#63b8ff" points="333.38,-666.35 322.79,-666.89 331.4,-673.07 333.38,-666.35"/>
</a>
</g>
</g>
<!-- Node29 -->
<g id="Node000029" class="node">
<title>Node29</title>
<g id="a_Node000029"><a xlink:href="classtracktion_1_1engine_1_1FourOscPlugin.html" target="_top" xlink:title=" ">
<polygon fill="white" stroke="#666666" points="516,-846 411,-846 411,-816 516,-816 516,-846"/>
<text text-anchor="start" x="419" y="-834" font-family="Helvetica,sans-Serif" font-size="10.00">tracktion::engine::</text>
<text text-anchor="middle" x="463.5" y="-823" font-family="Helvetica,sans-Serif" font-size="10.00">FourOscPlugin</text>
</a>
</g>
</g>
<!-- Node20&#45;&gt;Node29 -->
<g id="edge28_Node000020_Node000029" class="edge">
<title>Node20&#45;&gt;Node29</title>
<g id="a_edge28_Node000020_Node000029"><a xlink:title=" ">
<path fill="none" stroke="#63b8ff" d="M332.49,-670.41C343.01,-674.04 353.09,-679.33 361,-687 400.98,-725.76 358.82,-766.47 397,-807 400.99,-811.23 405.78,-814.72 410.94,-817.6"/>
<polygon fill="#63b8ff" stroke="#63b8ff" points="333.32,-667.01 322.74,-667.52 331.33,-673.72 333.32,-667.01"/>
</a>
</g>
</g>
<!-- Node30 -->
<g id="Node000030" class="node">
<title>Node30</title>
<g id="a_Node000030"><a xlink:href="classtracktion_1_1engine_1_1FreezePointPlugin.html" target="_top" xlink:title=" ">
<polygon fill="white" stroke="#666666" points="516,-798 411,-798 411,-768 516,-768 516,-798"/>
<text text-anchor="start" x="419" y="-786" font-family="Helvetica,sans-Serif" font-size="10.00">tracktion::engine::</text>
<text text-anchor="middle" x="463.5" y="-775" font-family="Helvetica,sans-Serif" font-size="10.00">FreezePointPlugin</text>
</a>
</g>
</g>
<!-- Node20&#45;&gt;Node30 -->
<g id="edge29_Node000020_Node000030" class="edge">
<title>Node20&#45;&gt;Node30</title>
<g id="a_edge29_Node000020_Node000030"><a xlink:title=" ">
<path fill="none" stroke="#63b8ff" d="M332.5,-671.9C342.76,-675.41 352.74,-680.26 361,-687 388.73,-709.6 370.32,-735.16 397,-759 401.15,-762.71 405.93,-765.86 410.97,-768.54"/>
<polygon fill="#63b8ff" stroke="#63b8ff" points="333.21,-668.46 322.62,-668.95 331.2,-675.17 333.21,-668.46"/>
</a>
</g>
</g>
<!-- Node31 -->
<g id="Node000031" class="node">
<title>Node31</title>
<g id="a_Node000031"><a xlink:href="classtracktion_1_1engine_1_1ImpulseResponsePlugin.html" target="_top" xlink:title="ImpulseResponsePlugin that loads an impulse response and applies it the audio stream.">
<polygon fill="white" stroke="#666666" points="530,-750 397,-750 397,-720 530,-720 530,-750"/>
<text text-anchor="start" x="405" y="-738" font-family="Helvetica,sans-Serif" font-size="10.00">tracktion::engine::</text>
<text text-anchor="middle" x="463.5" y="-727" font-family="Helvetica,sans-Serif" font-size="10.00">ImpulseResponsePlugin</text>
</a>
</g>
</g>
<!-- Node20&#45;&gt;Node31 -->
<g id="edge30_Node000020_Node000031" class="edge">
<title>Node20&#45;&gt;Node31</title>
<g id="a_edge30_Node000020_Node000031"><a xlink:title=" ">
<path fill="none" stroke="#63b8ff" d="M332.58,-676.53C342.28,-679.48 352.05,-682.96 361,-687 378.52,-694.92 379.85,-702.3 397,-711 403.37,-714.23 410.29,-717.25 417.15,-719.98"/>
<polygon fill="#63b8ff" stroke="#63b8ff" points="333.51,-673.16 322.94,-673.75 331.58,-679.88 333.51,-673.16"/>
</a>
</g>
</g>
<!-- Node32 -->
<g id="Node000032" class="node">
<title>Node32</title>
<g id="a_Node000032"><a xlink:href="classtracktion_1_1engine_1_1InsertPlugin.html" target="_top" xlink:title=" ">
<polygon fill="white" stroke="#666666" points="516,-702 411,-702 411,-672 516,-672 516,-702"/>
<text text-anchor="start" x="419" y="-690" font-family="Helvetica,sans-Serif" font-size="10.00">tracktion::engine::</text>
<text text-anchor="middle" x="463.5" y="-679" font-family="Helvetica,sans-Serif" font-size="10.00">InsertPlugin</text>
</a>
</g>
</g>
<!-- Node20&#45;&gt;Node32 -->
<g id="edge31_Node000020_Node000032" class="edge">
<title>Node20&#45;&gt;Node32</title>
<g id="a_edge31_Node000020_Node000032"><a xlink:title=" ">
<path fill="none" stroke="#63b8ff" d="M332.76,-670.74C357.96,-673.9 386.78,-677.51 410.84,-680.53"/>
<polygon fill="#63b8ff" stroke="#63b8ff" points="332.93,-667.23 322.57,-669.46 332.06,-674.18 332.93,-667.23"/>
</a>
</g>
</g>
<!-- Node33 -->
<g id="Node000033" class="node">
<title>Node33</title>
<g id="a_Node000033"><a xlink:href="classtracktion_1_1engine_1_1LatencyPlugin.html" target="_top" xlink:title="A test plugin that introduces latency to the incoming signal.">
<polygon fill="white" stroke="#666666" points="516,-654 411,-654 411,-624 516,-624 516,-654"/>
<text text-anchor="start" x="419" y="-642" font-family="Helvetica,sans-Serif" font-size="10.00">tracktion::engine::</text>
<text text-anchor="middle" x="463.5" y="-631" font-family="Helvetica,sans-Serif" font-size="10.00">LatencyPlugin</text>
</a>
</g>
</g>
<!-- Node20&#45;&gt;Node33 -->
<g id="edge32_Node000020_Node000033" class="edge">
<title>Node20&#45;&gt;Node33</title>
<g id="a_edge32_Node000020_Node000033"><a xlink:title=" ">
<path fill="none" stroke="#63b8ff" d="M332.76,-655.26C357.96,-652.1 386.78,-648.49 410.84,-645.47"/>
<polygon fill="#63b8ff" stroke="#63b8ff" points="332.06,-651.82 322.57,-656.54 332.93,-658.77 332.06,-651.82"/>
</a>
</g>
</g>
<!-- Node34 -->
<g id="Node000034" class="node">
<title>Node34</title>
<g id="a_Node000034"><a xlink:href="classtracktion_1_1engine_1_1LevelMeterPlugin.html" target="_top" xlink:title=" ">
<polygon fill="white" stroke="#666666" points="516,-606 411,-606 411,-576 516,-576 516,-606"/>
<text text-anchor="start" x="419" y="-594" font-family="Helvetica,sans-Serif" font-size="10.00">tracktion::engine::</text>
<text text-anchor="middle" x="463.5" y="-583" font-family="Helvetica,sans-Serif" font-size="10.00">LevelMeterPlugin</text>
</a>
</g>
</g>
<!-- Node20&#45;&gt;Node34 -->
<g id="edge33_Node000020_Node000034" class="edge">
<title>Node20&#45;&gt;Node34</title>
<g id="a_edge33_Node000020_Node000034"><a xlink:title=" ">
<path fill="none" stroke="#63b8ff" d="M332.58,-649.47C342.28,-646.52 352.05,-643.04 361,-639 378.52,-631.08 379.85,-623.7 397,-615 403.37,-611.77 410.29,-608.75 417.15,-606.02"/>
<polygon fill="#63b8ff" stroke="#63b8ff" points="331.58,-646.12 322.94,-652.25 333.51,-652.84 331.58,-646.12"/>
</a>
</g>
</g>
<!-- Node35 -->
<g id="Node000035" class="node">
<title>Node35</title>
<g id="a_Node000035"><a xlink:href="classtracktion_1_1engine_1_1LowPassPlugin.html" target="_top" xlink:title=" ">
<polygon fill="white" stroke="#666666" points="516,-558 411,-558 411,-528 516,-528 516,-558"/>
<text text-anchor="start" x="419" y="-546" font-family="Helvetica,sans-Serif" font-size="10.00">tracktion::engine::</text>
<text text-anchor="middle" x="463.5" y="-535" font-family="Helvetica,sans-Serif" font-size="10.00">LowPassPlugin</text>
</a>
</g>
</g>
<!-- Node20&#45;&gt;Node35 -->
<g id="edge34_Node000020_Node000035" class="edge">
<title>Node20&#45;&gt;Node35</title>
<g id="a_edge34_Node000020_Node000035"><a xlink:title=" ">
<path fill="none" stroke="#63b8ff" d="M332.5,-654.1C342.76,-650.59 352.74,-645.74 361,-639 388.73,-616.4 370.32,-590.84 397,-567 401.15,-563.29 405.93,-560.14 410.97,-557.46"/>
<polygon fill="#63b8ff" stroke="#63b8ff" points="331.2,-650.83 322.62,-657.05 333.21,-657.54 331.2,-650.83"/>
</a>
</g>
</g>
<!-- Node36 -->
<g id="Node000036" class="node">
<title>Node36</title>
<g id="a_Node000036"><a xlink:href="classtracktion_1_1engine_1_1MidiModifierPlugin.html" target="_top" xlink:title=" ">
<polygon fill="white" stroke="#666666" points="517,-510 410,-510 410,-480 517,-480 517,-510"/>
<text text-anchor="start" x="418" y="-498" font-family="Helvetica,sans-Serif" font-size="10.00">tracktion::engine::</text>
<text text-anchor="middle" x="463.5" y="-487" font-family="Helvetica,sans-Serif" font-size="10.00">MidiModifierPlugin</text>
</a>
</g>
</g>
<!-- Node20&#45;&gt;Node36 -->
<g id="edge35_Node000020_Node000036" class="edge">
<title>Node20&#45;&gt;Node36</title>
<g id="a_edge35_Node000020_Node000036"><a xlink:title=" ">
<path fill="none" stroke="#63b8ff" d="M332.49,-655.59C343.01,-651.96 353.09,-646.67 361,-639 400.98,-600.24 358.82,-559.53 397,-519 400.74,-515.03 405.18,-511.72 409.98,-508.95"/>
<polygon fill="#63b8ff" stroke="#63b8ff" points="331.33,-652.28 322.74,-658.48 333.32,-658.99 331.33,-652.28"/>
</a>
</g>
</g>
<!-- Node37 -->
<g id="Node000037" class="node">
<title>Node37</title>
<g id="a_Node000037"><a xlink:href="classtracktion_1_1engine_1_1MidiPatchBayPlugin.html" target="_top" xlink:title=" ">
<polygon fill="white" stroke="#666666" points="520,-462 407,-462 407,-432 520,-432 520,-462"/>
<text text-anchor="start" x="415" y="-450" font-family="Helvetica,sans-Serif" font-size="10.00">tracktion::engine::</text>
<text text-anchor="middle" x="463.5" y="-439" font-family="Helvetica,sans-Serif" font-size="10.00">MidiPatchBayPlugin</text>
</a>
</g>
</g>
<!-- Node20&#45;&gt;Node37 -->
<g id="edge36_Node000020_Node000037" class="edge">
<title>Node20&#45;&gt;Node37</title>
<g id="a_edge36_Node000020_Node000037"><a xlink:title=" ">
<path fill="none" stroke="#63b8ff" d="M332.64,-656.21C343.25,-652.54 353.32,-647.07 361,-639 413.64,-583.68 346.92,-528.64 397,-471 400.02,-467.53 403.58,-464.55 407.47,-462.01"/>
<polygon fill="#63b8ff" stroke="#63b8ff" points="331.4,-652.93 322.79,-659.11 333.38,-659.65 331.4,-652.93"/>
</a>
</g>
</g>
<!-- Node38 -->
<g id="Node000038" class="node">
<title>Node38</title>
<g id="a_Node000038"><a xlink:href="classtracktion_1_1engine_1_1PatchBayPlugin.html" target="_top" xlink:title=" ">
<polygon fill="white" stroke="#666666" points="516,-414 411,-414 411,-384 516,-384 516,-414"/>
<text text-anchor="start" x="419" y="-402" font-family="Helvetica,sans-Serif" font-size="10.00">tracktion::engine::</text>
<text text-anchor="middle" x="463.5" y="-391" font-family="Helvetica,sans-Serif" font-size="10.00">PatchBayPlugin</text>
</a>
</g>
</g>
<!-- Node20&#45;&gt;Node38 -->
<g id="edge37_Node000020_Node000038" class="edge">
<title>Node20&#45;&gt;Node38</title>
<g id="a_edge37_Node000020_Node000038"><a xlink:title=" ">
<path fill="none" stroke="#63b8ff" d="M332.26,-656.73C343.1,-653.03 353.35,-647.42 361,-639 426.46,-566.98 334.87,-497.91 397,-423 400.79,-418.43 405.53,-414.73 410.71,-411.74"/>
<polygon fill="#63b8ff" stroke="#63b8ff" points="331.27,-653.37 322.63,-659.51 333.21,-660.1 331.27,-653.37"/>
</a>
</g>
</g>
<!-- Node39 -->
<g id="Node000039" class="node">
<title>Node39</title>
<g id="a_Node000039"><a xlink:href="classtracktion_1_1engine_1_1PhaserPlugin.html" target="_top" xlink:title=" ">
<polygon fill="white" stroke="#666666" points="516,-366 411,-366 411,-336 516,-336 516,-366"/>
<text text-anchor="start" x="419" y="-354" font-family="Helvetica,sans-Serif" font-size="10.00">tracktion::engine::</text>
<text text-anchor="middle" x="463.5" y="-343" font-family="Helvetica,sans-Serif" font-size="10.00">PhaserPlugin</text>
</a>
</g>
</g>
<!-- Node20&#45;&gt;Node39 -->
<g id="edge38_Node000020_Node000039" class="edge">
<title>Node20&#45;&gt;Node39</title>
<g id="a_edge38_Node000020_Node000039"><a xlink:title=" ">
<path fill="none" stroke="#63b8ff" d="M332.46,-656.91C343.28,-653.19 353.47,-647.54 361,-639 439.34,-550.2 322.76,-467.26 397,-375 400.8,-370.28 405.61,-366.49 410.89,-363.45"/>
<polygon fill="#63b8ff" stroke="#63b8ff" points="331.47,-653.55 322.84,-659.69 333.42,-660.27 331.47,-653.55"/>
</a>
</g>
</g>
<!-- Node40 -->
<g id="Node000040" class="node">
<title>Node40</title>
<g id="a_Node000040"><a xlink:href="classtracktion_1_1engine_1_1PitchShiftPlugin.html" target="_top" xlink:title=" ">
<polygon fill="white" stroke="#666666" points="516,-318 411,-318 411,-288 516,-288 516,-318"/>
<text text-anchor="start" x="419" y="-306" font-family="Helvetica,sans-Serif" font-size="10.00">tracktion::engine::</text>
<text text-anchor="middle" x="463.5" y="-295" font-family="Helvetica,sans-Serif" font-size="10.00">PitchShiftPlugin</text>
</a>
</g>
</g>
<!-- Node20&#45;&gt;Node40 -->
<g id="edge39_Node000020_Node000040" class="edge">
<title>Node20&#45;&gt;Node40</title>
<g id="a_edge39_Node000020_Node000040"><a xlink:title=" ">
<path fill="none" stroke="#63b8ff" d="M332.24,-657.15C343.18,-653.43 353.48,-647.71 361,-639 452.26,-533.37 310.62,-436.65 397,-327 400.75,-322.24 405.53,-318.43 410.8,-315.37"/>
<polygon fill="#63b8ff" stroke="#63b8ff" points="331.16,-653.82 322.51,-659.93 333.09,-660.55 331.16,-653.82"/>
</a>
</g>
</g>
<!-- Node41 -->
<g id="Node000041" class="node">
<title>Node41</title>
<g id="a_Node000041"><a xlink:href="classtracktion_1_1engine_1_1RackInstance.html" target="_top" xlink:title=" ">
<polygon fill="white" stroke="#666666" points="516,-270 411,-270 411,-240 516,-240 516,-270"/>
<text text-anchor="start" x="419" y="-258" font-family="Helvetica,sans-Serif" font-size="10.00">tracktion::engine::</text>
<text text-anchor="middle" x="463.5" y="-247" font-family="Helvetica,sans-Serif" font-size="10.00">RackInstance</text>
</a>
</g>
</g>
<!-- Node20&#45;&gt;Node41 -->
<g id="edge40_Node000020_Node000041" class="edge">
<title>Node20&#45;&gt;Node41</title>
<g id="a_edge40_Node000020_Node000041"><a xlink:title=" ">
<path fill="none" stroke="#63b8ff" d="M332.34,-657.24C343.28,-653.51 353.54,-647.76 361,-639 465.19,-516.53 298.46,-406.07 397,-279 400.71,-274.21 405.47,-270.38 410.73,-267.32"/>
<polygon fill="#63b8ff" stroke="#63b8ff" points="331.27,-653.91 322.61,-660.02 333.19,-660.64 331.27,-653.91"/>
</a>
</g>
</g>
<!-- Node42 -->
<g id="Node000042" class="node">
<title>Node42</title>
<g id="a_Node000042"><a xlink:href="classtracktion_1_1engine_1_1ReverbPlugin.html" target="_top" xlink:title=" ">
<polygon fill="white" stroke="#666666" points="516,-222 411,-222 411,-192 516,-192 516,-222"/>
<text text-anchor="start" x="419" y="-210" font-family="Helvetica,sans-Serif" font-size="10.00">tracktion::engine::</text>
<text text-anchor="middle" x="463.5" y="-199" font-family="Helvetica,sans-Serif" font-size="10.00">ReverbPlugin</text>
</a>
</g>
</g>
<!-- Node20&#45;&gt;Node42 -->
<g id="edge41_Node000020_Node000042" class="edge">
<title>Node20&#45;&gt;Node42</title>
<g id="a_edge41_Node000020_Node000042"><a xlink:title=" ">
<path fill="none" stroke="#63b8ff" d="M332.42,-657.31C343.35,-653.57 353.6,-647.81 361,-639 419.57,-569.33 341.64,-303.25 397,-231 400.76,-226.1 405.62,-222.2 410.99,-219.09"/>
<polygon fill="#63b8ff" stroke="#63b8ff" points="331.35,-653.97 322.7,-660.09 333.27,-660.7 331.35,-653.97"/>
</a>
</g>
</g>
<!-- Node43 -->
<g id="Node000043" class="node">
<title>Node43</title>
<g id="a_Node000043"><a xlink:href="classtracktion_1_1engine_1_1SamplerPlugin.html" target="_top" xlink:title=" ">
<polygon fill="white" stroke="#666666" points="516,-174 411,-174 411,-144 516,-144 516,-174"/>
<text text-anchor="start" x="419" y="-162" font-family="Helvetica,sans-Serif" font-size="10.00">tracktion::engine::</text>
<text text-anchor="middle" x="463.5" y="-151" font-family="Helvetica,sans-Serif" font-size="10.00">SamplerPlugin</text>
</a>
</g>
</g>
<!-- Node20&#45;&gt;Node43 -->
<g id="edge42_Node000020_Node000043" class="edge">
<title>Node20&#45;&gt;Node43</title>
<g id="a_edge42_Node000020_Node000043"><a xlink:title=" ">
<path fill="none" stroke="#63b8ff" d="M332.49,-657.36C343.41,-653.62 353.64,-647.84 361,-639 426.05,-560.9 335.55,-263.97 397,-183 400.73,-178.08 405.58,-174.17 410.95,-171.06"/>
<polygon fill="#63b8ff" stroke="#63b8ff" points="331.41,-654.03 322.76,-660.15 333.34,-660.76 331.41,-654.03"/>
</a>
</g>
</g>
<!-- Node44 -->
<g id="Node000044" class="node">
<title>Node44</title>
<g id="a_Node000044"><a xlink:href="classtracktion_1_1engine_1_1TextPlugin.html" target="_top" xlink:title=" ">
<polygon fill="white" stroke="#666666" points="516,-126 411,-126 411,-96 516,-96 516,-126"/>
<text text-anchor="start" x="419" y="-114" font-family="Helvetica,sans-Serif" font-size="10.00">tracktion::engine::</text>
<text text-anchor="middle" x="463.5" y="-103" font-family="Helvetica,sans-Serif" font-size="10.00">TextPlugin</text>
</a>
</g>
</g>
<!-- Node20&#45;&gt;Node44 -->
<g id="edge43_Node000020_Node000044" class="edge">
<title>Node20&#45;&gt;Node44</title>
<g id="a_edge43_Node000020_Node000044"><a xlink:title=" ">
<path fill="none" stroke="#63b8ff" d="M332.54,-657.4C343.46,-653.66 353.67,-647.87 361,-639 432.54,-552.45 329.45,-224.7 397,-135 400.72,-130.07 405.55,-126.15 410.91,-123.03"/>
<polygon fill="#63b8ff" stroke="#63b8ff" points="331.46,-654.07 322.81,-660.19 333.39,-660.8 331.46,-654.07"/>
</a>
</g>
</g>
<!-- Node45 -->
<g id="Node000045" class="node">
<title>Node45</title>
<g id="a_Node000045"><a xlink:href="classtracktion_1_1engine_1_1ToneGeneratorPlugin.html" target="_top" xlink:title=" ">
<polygon fill="white" stroke="#666666" points="522.5,-78 404.5,-78 404.5,-48 522.5,-48 522.5,-78"/>
<text text-anchor="start" x="412.5" y="-66" font-family="Helvetica,sans-Serif" font-size="10.00">tracktion::engine::</text>
<text text-anchor="middle" x="463.5" y="-55" font-family="Helvetica,sans-Serif" font-size="10.00">ToneGeneratorPlugin</text>
</a>
</g>
</g>
<!-- Node20&#45;&gt;Node45 -->
<g id="edge44_Node000020_Node000045" class="edge">
<title>Node20&#45;&gt;Node45</title>
<g id="a_edge44_Node000020_Node000045"><a xlink:title=" ">
<path fill="none" stroke="#63b8ff" d="M332.58,-657.44C343.5,-653.69 353.7,-647.89 361,-639 439.03,-544.01 323.36,-185.43 397,-87 399.54,-83.61 402.61,-80.69 406.02,-78.19"/>
<polygon fill="#63b8ff" stroke="#63b8ff" points="331.51,-654.11 322.86,-660.23 333.43,-660.84 331.51,-654.11"/>
</a>
</g>
</g>
<!-- Node46 -->
<g id="Node000046" class="node">
<title>Node46</title>
<g id="a_Node000046"><a xlink:href="classtracktion_1_1engine_1_1VCAPlugin.html" target="_top" xlink:title="The VCA plugin sits on a folder track to control the overall level of all the volume/pan plugins in i...">
<polygon fill="white" stroke="#666666" points="516,-30 411,-30 411,0 516,0 516,-30"/>
<text text-anchor="start" x="419" y="-18" font-family="Helvetica,sans-Serif" font-size="10.00">tracktion::engine::</text>
<text text-anchor="middle" x="463.5" y="-7" font-family="Helvetica,sans-Serif" font-size="10.00">VCAPlugin</text>
</a>
</g>
</g>
<!-- Node20&#45;&gt;Node46 -->
<g id="edge45_Node000020_Node000046" class="edge">
<title>Node20&#45;&gt;Node46</title>
<g id="a_edge45_Node000020_Node000046"><a xlink:title=" ">
<path fill="none" stroke="#63b8ff" d="M332.62,-657.47C343.53,-653.72 353.72,-647.91 361,-639 445.51,-535.56 317.26,-146.16 397,-39 400.69,-34.04 405.51,-30.11 410.86,-26.99"/>
<polygon fill="#63b8ff" stroke="#63b8ff" points="331.54,-654.14 322.89,-660.26 333.47,-660.86 331.54,-654.14"/>
</a>
</g>
</g>
</g>
</svg>
