<?xml version="1.0" encoding="UTF-8" standalone="no"?>
<!DOCTYPE svg PUBLIC "-//W3C//DTD SVG 1.1//EN"
 "http://www.w3.org/Graphics/SVG/1.1/DTD/svg11.dtd">
<!-- Generated by graphviz version 2.43.0 (0)
 -->
<!-- Title: tracktion::engine::FallbackReader Pages: 1 -->
<svg width="313pt" height="137pt"
 viewBox="0.00 0.00 313.00 137.00" xmlns="http://www.w3.org/2000/svg" xmlns:xlink="http://www.w3.org/1999/xlink">
<g id="graph0" class="graph" transform="scale(1 1) rotate(0) translate(4 133)">
<title>tracktion::engine::FallbackReader</title>
<!-- Node1 -->
<g id="node1" class="node">
<title>Node1</title>
<g id="a_node1"><a xlink:title=" ">
<polygon fill="#bfbfbf" stroke="black" points="0,-49.5 0,-79.5 105,-79.5 105,-49.5 0,-49.5"/>
<text text-anchor="start" x="8" y="-67.5" font-family="Helvetica,sans-Serif" font-size="10.00">tracktion::engine::</text>
<text text-anchor="middle" x="52.5" y="-56.5" font-family="Helvetica,sans-Serif" font-size="10.00">FallbackReader</text>
</a>
</g>
</g>
<!-- Node2 -->
<g id="node2" class="node">
<title>Node2</title>
<g id="a_node2"><a xlink:href="classtracktion_1_1engine_1_1BufferedFileReaderWrapper.html" target="_top" xlink:title=" ">
<polygon fill="none" stroke="black" points="147.5,-98.5 147.5,-128.5 298.5,-128.5 298.5,-98.5 147.5,-98.5"/>
<text text-anchor="start" x="155.5" y="-116.5" font-family="Helvetica,sans-Serif" font-size="10.00">tracktion::engine::</text>
<text text-anchor="middle" x="223" y="-105.5" font-family="Helvetica,sans-Serif" font-size="10.00">BufferedFileReaderWrapper</text>
</a>
</g>
</g>
<!-- Node1&#45;&gt;Node2 -->
<g id="edge1" class="edge">
<title>Node1&#45;&gt;Node2</title>
<path fill="none" stroke="midnightblue" d="M115.03,-82.39C133.16,-87.66 152.8,-93.38 170.24,-98.45"/>
<polygon fill="midnightblue" stroke="midnightblue" points="116.01,-79.03 105.43,-79.6 114.06,-85.75 116.01,-79.03"/>
</g>
<!-- Node3 -->
<g id="node3" class="node">
<title>Node3</title>
<g id="a_node3"><a xlink:href="classtracktion_1_1engine_1_1BufferingAudioReaderWrapper.html" target="_top" xlink:title="FallbackReader that wraps a BufferingAudioReader to avoid reading on the audio thread.">
<polygon fill="none" stroke="black" points="141,-49.5 141,-79.5 305,-79.5 305,-49.5 141,-49.5"/>
<text text-anchor="start" x="149" y="-67.5" font-family="Helvetica,sans-Serif" font-size="10.00">tracktion::engine::</text>
<text text-anchor="middle" x="223" y="-56.5" font-family="Helvetica,sans-Serif" font-size="10.00">BufferingAudioReaderWrapper</text>
</a>
</g>
</g>
<!-- Node1&#45;&gt;Node3 -->
<g id="edge2" class="edge">
<title>Node1&#45;&gt;Node3</title>
<path fill="none" stroke="midnightblue" d="M115.63,-64.5C123.84,-64.5 132.34,-64.5 140.8,-64.5"/>
<polygon fill="midnightblue" stroke="midnightblue" points="115.43,-61 105.43,-64.5 115.43,-68 115.43,-61"/>
</g>
<!-- Node4 -->
<g id="node4" class="node">
<title>Node4</title>
<g id="a_node4"><a xlink:href="structtracktion_1_1engine_1_1MemoryMappedFileReader.html" target="_top" xlink:title="FallbackReader that wraps a MemoryMappedFile which usually improves read speeds.">
<polygon fill="none" stroke="black" points="149,-0.5 149,-30.5 297,-30.5 297,-0.5 149,-0.5"/>
<text text-anchor="start" x="157" y="-18.5" font-family="Helvetica,sans-Serif" font-size="10.00">tracktion::engine::</text>
<text text-anchor="middle" x="223" y="-7.5" font-family="Helvetica,sans-Serif" font-size="10.00">MemoryMappedFileReader</text>
</a>
</g>
</g>
<!-- Node1&#45;&gt;Node4 -->
<g id="edge3" class="edge">
<title>Node1&#45;&gt;Node4</title>
<path fill="none" stroke="midnightblue" d="M115.03,-46.61C133.16,-41.34 152.8,-35.62 170.24,-30.55"/>
<polygon fill="midnightblue" stroke="midnightblue" points="114.06,-43.25 105.43,-49.4 116.01,-49.97 114.06,-43.25"/>
</g>
</g>
</svg>
