<?xml version="1.0" encoding="UTF-8" standalone="no"?>
<!DOCTYPE svg PUBLIC "-//W3C//DTD SVG 1.1//EN"
 "http://www.w3.org/Graphics/SVG/1.1/DTD/svg11.dtd">
<!-- Generated by graphviz version 2.40.1 (20161225.0304)
 -->
<!-- Title: tracktion_engine::PluginWindowState Pages: 1 -->
<svg width="286pt" height="106pt"
 viewBox="0.00 0.00 286.00 106.00" xmlns="http://www.w3.org/2000/svg" xmlns:xlink="http://www.w3.org/1999/xlink">
<g id="graph0" class="graph" transform="scale(1 1) rotate(0) translate(4 102)">
<title>tracktion_engine::PluginWindowState</title>
<!-- Node0 -->
<g id="node1" class="node">
<title>Node0</title>
<polygon fill="#bfbfbf" stroke="#000000" points="74,-67.5 74,-97.5 195,-97.5 195,-67.5 74,-67.5"/>
<text text-anchor="start" x="82" y="-85.5" font-family="Helvetica,sans-Serif" font-size="10.00" fill="#000000">tracktion_engine::Plugin</text>
<text text-anchor="middle" x="134.5" y="-74.5" font-family="Helvetica,sans-Serif" font-size="10.00" fill="#000000">WindowState</text>
</g>
<!-- Node1 -->
<g id="node2" class="node">
<title>Node1</title>
<g id="a_node2"><a xlink:href="structtracktion__engine_1_1Plugin_1_1WindowState.html" target="_top" xlink:title="tracktion_engine::Plugin\l::WindowState">
<polygon fill="none" stroke="#000000" points="0,-.5 0,-30.5 121,-30.5 121,-.5 0,-.5"/>
<text text-anchor="start" x="8" y="-18.5" font-family="Helvetica,sans-Serif" font-size="10.00" fill="#000000">tracktion_engine::Plugin</text>
<text text-anchor="middle" x="60.5" y="-7.5" font-family="Helvetica,sans-Serif" font-size="10.00" fill="#000000">::WindowState</text>
</a>
</g>
</g>
<!-- Node0&#45;&gt;Node1 -->
<g id="edge1" class="edge">
<title>Node0&#45;&gt;Node1</title>
<path fill="none" stroke="#191970" d="M110.1976,-60.4965C99.399,-50.7193 86.9582,-39.4554 77.2253,-30.6432"/>
<polygon fill="#191970" stroke="#191970" points="107.9461,-63.1794 117.7083,-67.2967 112.6444,-57.9903 107.9461,-63.1794"/>
</g>
<!-- Node2 -->
<g id="node3" class="node">
<title>Node2</title>
<g id="a_node3"><a xlink:href="structtracktion__engine_1_1RackType_1_1WindowState.html" target="_top" xlink:title="tracktion_engine::RackType\l::WindowState">
<polygon fill="none" stroke="#000000" points="139,-.5 139,-30.5 278,-30.5 278,-.5 139,-.5"/>
<text text-anchor="start" x="147" y="-18.5" font-family="Helvetica,sans-Serif" font-size="10.00" fill="#000000">tracktion_engine::RackType</text>
<text text-anchor="middle" x="208.5" y="-7.5" font-family="Helvetica,sans-Serif" font-size="10.00" fill="#000000">::WindowState</text>
</a>
</g>
</g>
<!-- Node0&#45;&gt;Node2 -->
<g id="edge2" class="edge">
<title>Node0&#45;&gt;Node2</title>
<path fill="none" stroke="#191970" d="M158.8024,-60.4965C169.601,-50.7193 182.0418,-39.4554 191.7747,-30.6432"/>
<polygon fill="#191970" stroke="#191970" points="156.3556,-57.9903 151.2917,-67.2967 161.0539,-63.1794 156.3556,-57.9903"/>
</g>
</g>
</svg>
