<?xml version="1.0" encoding="UTF-8" standalone="no"?>
<!DOCTYPE svg PUBLIC "-//W3C//DTD SVG 1.1//EN"
 "http://www.w3.org/Graphics/SVG/1.1/DTD/svg11.dtd">
<!-- Generated by graphviz version 2.43.0 (0)
 -->
<!-- Title: tracktion::engine::ValueTreeAllEventListener Pages: 1 -->
<svg width="512pt" height="1766pt"
 viewBox="0.00 0.00 512.00 1766.00" xmlns="http://www.w3.org/2000/svg" xmlns:xlink="http://www.w3.org/1999/xlink">
<g id="graph0" class="graph" transform="scale(1 1) rotate(0) translate(4 1762)">
<title>tracktion::engine::ValueTreeAllEventListener</title>
<!-- Node1 -->
<g id="Node000001" class="node">
<title>Node1</title>
<g id="a_Node000001"><a xlink:title=" ">
<polygon fill="#999999" stroke="#666666" points="143,-798 0,-798 0,-768 143,-768 143,-798"/>
<text text-anchor="start" x="8" y="-786" font-family="Helvetica,sans-Serif" font-size="10.00">tracktion::engine::</text>
<text text-anchor="middle" x="71.5" y="-775" font-family="Helvetica,sans-Serif" font-size="10.00">ValueTreeAllEventListener</text>
</a>
</g>
</g>
<!-- Node2 -->
<g id="Node000002" class="node">
<title>Node2</title>
<g id="a_Node000002"><a xlink:href="classtracktion_1_1engine_1_1BreakpointOscillatorModifier.html" target="_top" xlink:title=" ">
<polygon fill="white" stroke="#666666" points="335,-1542 179,-1542 179,-1512 335,-1512 335,-1542"/>
<text text-anchor="start" x="187" y="-1530" font-family="Helvetica,sans-Serif" font-size="10.00">tracktion::engine::</text>
<text text-anchor="middle" x="257" y="-1519" font-family="Helvetica,sans-Serif" font-size="10.00">BreakpointOscillatorModifier</text>
</a>
</g>
</g>
<!-- Node1&#45;&gt;Node2 -->
<g id="edge1_Node000001_Node000002" class="edge">
<title>Node1&#45;&gt;Node2</title>
<g id="a_edge1_Node000001_Node000002"><a xlink:title=" ">
<path fill="none" stroke="#8b1a1a" d="M72.76,-808.46C74.43,-923.68 86.88,-1395.33 179,-1503 181.91,-1506.4 185.3,-1509.33 189,-1511.85"/>
<polygon fill="#8b1a1a" stroke="#8b1a1a" points="76.25,-808.12 72.62,-798.16 69.25,-808.21 76.25,-808.12"/>
</a>
</g>
</g>
<!-- Node3 -->
<g id="Node000003" class="node">
<title>Node3</title>
<g id="a_Node000003"><a xlink:href="classtracktion_1_1engine_1_1ClipEffect.html" target="_top" xlink:title=" ">
<polygon fill="white" stroke="#666666" points="309.5,-1494 204.5,-1494 204.5,-1464 309.5,-1464 309.5,-1494"/>
<text text-anchor="start" x="212.5" y="-1482" font-family="Helvetica,sans-Serif" font-size="10.00">tracktion::engine::</text>
<text text-anchor="middle" x="257" y="-1471" font-family="Helvetica,sans-Serif" font-size="10.00">ClipEffect</text>
</a>
</g>
</g>
<!-- Node1&#45;&gt;Node3 -->
<g id="edge2_Node000001_Node000003" class="edge">
<title>Node1&#45;&gt;Node3</title>
<g id="a_edge2_Node000001_Node000003"><a xlink:title=" ">
<path fill="none" stroke="darkgreen" d="M79.07,-807.92C108.58,-919.83 228.42,-1374.38 251.97,-1463.72"/>
<polygon fill="darkgreen" stroke="darkgreen" points="82.44,-806.96 76.5,-798.18 75.67,-808.75 82.44,-806.96"/>
</a>
</g>
</g>
<!-- Node14 -->
<g id="Node000014" class="node">
<title>Node14</title>
<g id="a_Node000014"><a xlink:href="classtracktion_1_1engine_1_1EnvelopeFollowerModifier.html" target="_top" xlink:title=" ">
<polygon fill="white" stroke="#666666" points="328.5,-942 185.5,-942 185.5,-912 328.5,-912 328.5,-942"/>
<text text-anchor="start" x="193.5" y="-930" font-family="Helvetica,sans-Serif" font-size="10.00">tracktion::engine::</text>
<text text-anchor="middle" x="257" y="-919" font-family="Helvetica,sans-Serif" font-size="10.00">EnvelopeFollowerModifier</text>
</a>
</g>
</g>
<!-- Node1&#45;&gt;Node14 -->
<g id="edge13_Node000001_Node000014" class="edge">
<title>Node1&#45;&gt;Node14</title>
<g id="a_edge13_Node000001_Node000014"><a xlink:title=" ">
<path fill="none" stroke="#8b1a1a" d="M87.66,-806.79C106.11,-833.86 139.69,-877.61 179,-903 184.29,-906.42 190.1,-909.38 196.09,-911.93"/>
<polygon fill="#8b1a1a" stroke="#8b1a1a" points="90.46,-804.67 82,-798.29 84.64,-808.56 90.46,-804.67"/>
</a>
</g>
</g>
<!-- Node15 -->
<g id="Node000015" class="node">
<title>Node15</title>
<g id="a_Node000015"><a xlink:href="classtracktion_1_1engine_1_1LFOModifier.html" target="_top" xlink:title=" ">
<polygon fill="white" stroke="#666666" points="309.5,-894 204.5,-894 204.5,-864 309.5,-864 309.5,-894"/>
<text text-anchor="start" x="212.5" y="-882" font-family="Helvetica,sans-Serif" font-size="10.00">tracktion::engine::</text>
<text text-anchor="middle" x="257" y="-871" font-family="Helvetica,sans-Serif" font-size="10.00">LFOModifier</text>
</a>
</g>
</g>
<!-- Node1&#45;&gt;Node15 -->
<g id="edge14_Node000001_Node000015" class="edge">
<title>Node1&#45;&gt;Node15</title>
<g id="a_edge14_Node000001_Node000015"><a xlink:title=" ">
<path fill="none" stroke="#8b1a1a" d="M99.13,-804.24C119.9,-819.99 150.01,-841.06 179,-855 186.95,-858.82 195.65,-862.22 204.25,-865.16"/>
<polygon fill="#8b1a1a" stroke="#8b1a1a" points="101.16,-801.39 91.1,-798.07 96.89,-806.94 101.16,-801.39"/>
</a>
</g>
</g>
<!-- Node16 -->
<g id="Node000016" class="node">
<title>Node16</title>
<g id="a_Node000016"><a xlink:href="classtracktion_1_1engine_1_1MIDITrackerModifier.html" target="_top" xlink:title=" ">
<polygon fill="white" stroke="#666666" points="313.5,-846 200.5,-846 200.5,-816 313.5,-816 313.5,-846"/>
<text text-anchor="start" x="208.5" y="-834" font-family="Helvetica,sans-Serif" font-size="10.00">tracktion::engine::</text>
<text text-anchor="middle" x="257" y="-823" font-family="Helvetica,sans-Serif" font-size="10.00">MIDITrackerModifier</text>
</a>
</g>
</g>
<!-- Node1&#45;&gt;Node16 -->
<g id="edge15_Node000001_Node000016" class="edge">
<title>Node1&#45;&gt;Node16</title>
<g id="a_edge15_Node000001_Node000016"><a xlink:title=" ">
<path fill="none" stroke="#8b1a1a" d="M139.94,-800.64C159.76,-805.83 181.21,-811.44 200.22,-816.41"/>
<polygon fill="#8b1a1a" stroke="#8b1a1a" points="140.62,-797.2 130.06,-798.06 138.85,-803.97 140.62,-797.2"/>
</a>
</g>
</g>
<!-- Node17 -->
<g id="Node000017" class="node">
<title>Node17</title>
<g id="a_Node000017"><a xlink:href="classtracktion_1_1engine_1_1PatternGenerator.html" target="_top" xlink:title=" ">
<polygon fill="white" stroke="#666666" points="309.5,-798 204.5,-798 204.5,-768 309.5,-768 309.5,-798"/>
<text text-anchor="start" x="212.5" y="-786" font-family="Helvetica,sans-Serif" font-size="10.00">tracktion::engine::</text>
<text text-anchor="middle" x="257" y="-775" font-family="Helvetica,sans-Serif" font-size="10.00">PatternGenerator</text>
</a>
</g>
</g>
<!-- Node1&#45;&gt;Node17 -->
<g id="edge16_Node000001_Node000017" class="edge">
<title>Node1&#45;&gt;Node17</title>
<g id="a_edge16_Node000001_Node000017"><a xlink:title=" ">
<path fill="none" stroke="#8b1a1a" d="M153.32,-783C170.67,-783 188.56,-783 204.44,-783"/>
<polygon fill="#8b1a1a" stroke="#8b1a1a" points="153.18,-779.5 143.18,-783 153.18,-786.5 153.18,-779.5"/>
</a>
</g>
</g>
<!-- Node18 -->
<g id="Node000018" class="node">
<title>Node18</title>
<g id="a_Node000018"><a xlink:href="classtracktion_1_1engine_1_1PitchSetting.html" target="_top" xlink:title=" ">
<polygon fill="white" stroke="#666666" points="309.5,-750 204.5,-750 204.5,-720 309.5,-720 309.5,-750"/>
<text text-anchor="start" x="212.5" y="-738" font-family="Helvetica,sans-Serif" font-size="10.00">tracktion::engine::</text>
<text text-anchor="middle" x="257" y="-727" font-family="Helvetica,sans-Serif" font-size="10.00">PitchSetting</text>
</a>
</g>
</g>
<!-- Node1&#45;&gt;Node18 -->
<g id="edge17_Node000001_Node000018" class="edge">
<title>Node1&#45;&gt;Node18</title>
<g id="a_edge17_Node000001_Node000018"><a xlink:title=" ">
<path fill="none" stroke="#8b1a1a" d="M139.98,-765.35C161.2,-759.8 184.29,-753.76 204.25,-748.54"/>
<polygon fill="#8b1a1a" stroke="#8b1a1a" points="138.85,-762.03 130.06,-767.94 140.62,-768.8 138.85,-762.03"/>
</a>
</g>
</g>
<!-- Node19 -->
<g id="Node000019" class="node">
<title>Node19</title>
<g id="a_Node000019"><a xlink:href="classtracktion_1_1engine_1_1Plugin.html" target="_top" xlink:title=" ">
<polygon fill="white" stroke="#666666" points="309.5,-702 204.5,-702 204.5,-672 309.5,-672 309.5,-702"/>
<text text-anchor="start" x="212.5" y="-690" font-family="Helvetica,sans-Serif" font-size="10.00">tracktion::engine::</text>
<text text-anchor="middle" x="257" y="-679" font-family="Helvetica,sans-Serif" font-size="10.00">Plugin</text>
</a>
</g>
</g>
<!-- Node1&#45;&gt;Node19 -->
<g id="edge18_Node000001_Node000019" class="edge">
<title>Node1&#45;&gt;Node19</title>
<g id="a_edge18_Node000001_Node000019"><a xlink:title=" ">
<path fill="none" stroke="darkgreen" d="M99.13,-761.76C119.9,-746.01 150.01,-724.94 179,-711 186.95,-707.18 195.65,-703.78 204.25,-700.84"/>
<polygon fill="darkgreen" stroke="darkgreen" points="96.89,-759.06 91.1,-767.93 101.16,-764.61 96.89,-759.06"/>
</a>
</g>
</g>
<!-- Node47 -->
<g id="Node000047" class="node">
<title>Node47</title>
<g id="a_Node000047"><a xlink:href="classtracktion_1_1engine_1_1RandomModifier.html" target="_top" xlink:title=" ">
<polygon fill="white" stroke="#666666" points="309.5,-654 204.5,-654 204.5,-624 309.5,-624 309.5,-654"/>
<text text-anchor="start" x="212.5" y="-642" font-family="Helvetica,sans-Serif" font-size="10.00">tracktion::engine::</text>
<text text-anchor="middle" x="257" y="-631" font-family="Helvetica,sans-Serif" font-size="10.00">RandomModifier</text>
</a>
</g>
</g>
<!-- Node1&#45;&gt;Node47 -->
<g id="edge46_Node000001_Node000047" class="edge">
<title>Node1&#45;&gt;Node47</title>
<g id="a_edge46_Node000001_Node000047"><a xlink:title=" ">
<path fill="none" stroke="#8b1a1a" d="M87.66,-759.21C106.11,-732.14 139.69,-688.39 179,-663 186.65,-658.06 195.37,-654.08 204.14,-650.9"/>
<polygon fill="#8b1a1a" stroke="#8b1a1a" points="84.64,-757.44 82,-767.71 90.46,-761.33 84.64,-757.44"/>
</a>
</g>
</g>
<!-- Node48 -->
<g id="Node000048" class="node">
<title>Node48</title>
<g id="a_Node000048"><a xlink:href="classtracktion_1_1engine_1_1StepModifier.html" target="_top" xlink:title=" ">
<polygon fill="white" stroke="#666666" points="309.5,-606 204.5,-606 204.5,-576 309.5,-576 309.5,-606"/>
<text text-anchor="start" x="212.5" y="-594" font-family="Helvetica,sans-Serif" font-size="10.00">tracktion::engine::</text>
<text text-anchor="middle" x="257" y="-583" font-family="Helvetica,sans-Serif" font-size="10.00">StepModifier</text>
</a>
</g>
</g>
<!-- Node1&#45;&gt;Node48 -->
<g id="edge47_Node000001_Node000048" class="edge">
<title>Node1&#45;&gt;Node48</title>
<g id="a_edge47_Node000001_Node000048"><a xlink:title=" ">
<path fill="none" stroke="#8b1a1a" d="M81.57,-758.53C96.37,-721.94 129.14,-653.21 179,-615 186.45,-609.29 195.27,-604.93 204.24,-601.6"/>
<polygon fill="#8b1a1a" stroke="#8b1a1a" points="78.27,-757.35 77.88,-767.94 84.79,-759.91 78.27,-757.35"/>
</a>
</g>
</g>
<!-- Node49 -->
<g id="Node000049" class="node">
<title>Node49</title>
<g id="a_Node000049"><a xlink:href="classtracktion_1_1engine_1_1TimeSigSetting.html" target="_top" xlink:title=" ">
<polygon fill="white" stroke="#666666" points="309.5,-558 204.5,-558 204.5,-528 309.5,-528 309.5,-558"/>
<text text-anchor="start" x="212.5" y="-546" font-family="Helvetica,sans-Serif" font-size="10.00">tracktion::engine::</text>
<text text-anchor="middle" x="257" y="-535" font-family="Helvetica,sans-Serif" font-size="10.00">TimeSigSetting</text>
</a>
</g>
</g>
<!-- Node1&#45;&gt;Node49 -->
<g id="edge48_Node000001_Node000049" class="edge">
<title>Node1&#45;&gt;Node49</title>
<g id="a_edge48_Node000001_Node000049"><a xlink:title=" ">
<path fill="none" stroke="#8b1a1a" d="M77.92,-758.13C88.98,-713.31 118.4,-618.82 179,-567 186.24,-560.81 195.06,-556.22 204.12,-552.81"/>
<polygon fill="#8b1a1a" stroke="#8b1a1a" points="74.51,-757.37 75.61,-767.91 81.32,-758.98 74.51,-757.37"/>
</a>
</g>
</g>
<!-- Node4 -->
<g id="Node000004" class="node">
<title>Node4</title>
<g id="a_Node000004"><a xlink:href="structtracktion_1_1engine_1_1FadeInOutEffect.html" target="_top" xlink:title=" ">
<polygon fill="white" stroke="#666666" points="490,-1758 385,-1758 385,-1728 490,-1728 490,-1758"/>
<text text-anchor="start" x="393" y="-1746" font-family="Helvetica,sans-Serif" font-size="10.00">tracktion::engine::</text>
<text text-anchor="middle" x="437.5" y="-1735" font-family="Helvetica,sans-Serif" font-size="10.00">FadeInOutEffect</text>
</a>
</g>
</g>
<!-- Node3&#45;&gt;Node4 -->
<g id="edge3_Node000003_Node000004" class="edge">
<title>Node3&#45;&gt;Node4</title>
<g id="a_edge3_Node000003_Node000004"><a xlink:title=" ">
<path fill="none" stroke="#63b8ff" d="M319.43,-1490.9C325.29,-1494.05 330.65,-1498.01 335,-1503 398.95,-1576.37 308.87,-1644.09 371,-1719 374.79,-1723.57 379.53,-1727.27 384.71,-1730.26"/>
<polygon fill="#63b8ff" stroke="#63b8ff" points="320.44,-1487.52 309.89,-1486.59 317.56,-1493.9 320.44,-1487.52"/>
</a>
</g>
</g>
<!-- Node5 -->
<g id="Node000005" class="node">
<title>Node5</title>
<g id="a_Node000005"><a xlink:href="structtracktion_1_1engine_1_1InvertEffect.html" target="_top" xlink:title=" ">
<polygon fill="white" stroke="#666666" points="490,-1710 385,-1710 385,-1680 490,-1680 490,-1710"/>
<text text-anchor="start" x="393" y="-1698" font-family="Helvetica,sans-Serif" font-size="10.00">tracktion::engine::</text>
<text text-anchor="middle" x="437.5" y="-1687" font-family="Helvetica,sans-Serif" font-size="10.00">InvertEffect</text>
</a>
</g>
</g>
<!-- Node3&#45;&gt;Node5 -->
<g id="edge4_Node000003_Node000005" class="edge">
<title>Node3&#45;&gt;Node5</title>
<g id="a_edge4_Node000003_Node000005"><a xlink:title=" ">
<path fill="none" stroke="#63b8ff" d="M318.78,-1490.88C324.84,-1494.03 330.43,-1498 335,-1503 386.48,-1559.4 320.92,-1613.36 371,-1671 374.89,-1675.48 379.69,-1679.12 384.91,-1682.09"/>
<polygon fill="#63b8ff" stroke="#63b8ff" points="320.18,-1487.67 309.62,-1486.83 317.35,-1494.08 320.18,-1487.67"/>
</a>
</g>
</g>
<!-- Node6 -->
<g id="Node000006" class="node">
<title>Node6</title>
<g id="a_Node000006"><a xlink:href="structtracktion_1_1engine_1_1MakeMonoEffect.html" target="_top" xlink:title=" ">
<polygon fill="white" stroke="#666666" points="490,-1662 385,-1662 385,-1632 490,-1632 490,-1662"/>
<text text-anchor="start" x="393" y="-1650" font-family="Helvetica,sans-Serif" font-size="10.00">tracktion::engine::</text>
<text text-anchor="middle" x="437.5" y="-1639" font-family="Helvetica,sans-Serif" font-size="10.00">MakeMonoEffect</text>
</a>
</g>
</g>
<!-- Node3&#45;&gt;Node6 -->
<g id="edge5_Node000003_Node000006" class="edge">
<title>Node3&#45;&gt;Node6</title>
<g id="a_edge5_Node000003_Node000006"><a xlink:title=" ">
<path fill="none" stroke="#63b8ff" d="M319.07,-1491.59C324.94,-1494.62 330.41,-1498.36 335,-1503 374.16,-1542.58 332.82,-1582.47 371,-1623 374.99,-1627.23 379.78,-1630.72 384.94,-1633.6"/>
<polygon fill="#63b8ff" stroke="#63b8ff" points="320.13,-1488.24 309.56,-1487.41 317.31,-1494.64 320.13,-1488.24"/>
</a>
</g>
</g>
<!-- Node7 -->
<g id="Node000007" class="node">
<title>Node7</title>
<g id="a_Node000007"><a xlink:href="structtracktion_1_1engine_1_1NormaliseEffect.html" target="_top" xlink:title=" ">
<polygon fill="white" stroke="#666666" points="490,-1614 385,-1614 385,-1584 490,-1584 490,-1614"/>
<text text-anchor="start" x="393" y="-1602" font-family="Helvetica,sans-Serif" font-size="10.00">tracktion::engine::</text>
<text text-anchor="middle" x="437.5" y="-1591" font-family="Helvetica,sans-Serif" font-size="10.00">NormaliseEffect</text>
</a>
</g>
</g>
<!-- Node3&#45;&gt;Node7 -->
<g id="edge6_Node000003_Node000007" class="edge">
<title>Node3&#45;&gt;Node7</title>
<g id="a_edge6_Node000003_Node000007"><a xlink:title=" ">
<path fill="none" stroke="#63b8ff" d="M319.06,-1492.79C324.8,-1495.59 330.24,-1498.95 335,-1503 362.26,-1526.18 344.32,-1551.16 371,-1575 375.15,-1578.71 379.93,-1581.86 384.97,-1584.54"/>
<polygon fill="#63b8ff" stroke="#63b8ff" points="320.42,-1489.56 309.85,-1488.84 317.66,-1496 320.42,-1489.56"/>
</a>
</g>
</g>
<!-- Node8 -->
<g id="Node000008" class="node">
<title>Node8</title>
<g id="a_Node000008"><a xlink:href="structtracktion_1_1engine_1_1PitchShiftEffect.html" target="_top" xlink:title=" ">
<polygon fill="white" stroke="#666666" points="490,-1566 385,-1566 385,-1536 490,-1536 490,-1566"/>
<text text-anchor="start" x="393" y="-1554" font-family="Helvetica,sans-Serif" font-size="10.00">tracktion::engine::</text>
<text text-anchor="middle" x="437.5" y="-1543" font-family="Helvetica,sans-Serif" font-size="10.00">PitchShiftEffect</text>
</a>
</g>
</g>
<!-- Node3&#45;&gt;Node8 -->
<g id="edge7_Node000003_Node000008" class="edge">
<title>Node3&#45;&gt;Node8</title>
<g id="a_edge7_Node000003_Node000008"><a xlink:title=" ">
<path fill="none" stroke="#63b8ff" d="M319.41,-1496.37C324.76,-1498.42 330.02,-1500.63 335,-1503 352.36,-1511.28 353.85,-1518.3 371,-1527 377.37,-1530.23 384.29,-1533.25 391.15,-1535.98"/>
<polygon fill="#63b8ff" stroke="#63b8ff" points="320.32,-1492.98 309.73,-1492.88 317.95,-1499.57 320.32,-1492.98"/>
</a>
</g>
</g>
<!-- Node9 -->
<g id="Node000009" class="node">
<title>Node9</title>
<g id="a_Node000009"><a xlink:href="structtracktion_1_1engine_1_1PluginEffect.html" target="_top" xlink:title=" ">
<polygon fill="white" stroke="#666666" points="490,-1518 385,-1518 385,-1488 490,-1488 490,-1518"/>
<text text-anchor="start" x="393" y="-1506" font-family="Helvetica,sans-Serif" font-size="10.00">tracktion::engine::</text>
<text text-anchor="middle" x="437.5" y="-1495" font-family="Helvetica,sans-Serif" font-size="10.00">PluginEffect</text>
</a>
</g>
</g>
<!-- Node3&#45;&gt;Node9 -->
<g id="edge8_Node000003_Node000009" class="edge">
<title>Node3&#45;&gt;Node9</title>
<g id="a_edge8_Node000003_Node000009"><a xlink:title=" ">
<path fill="none" stroke="#63b8ff" d="M319.56,-1487.28C340.89,-1490.14 364.55,-1493.33 384.99,-1496.07"/>
<polygon fill="#63b8ff" stroke="#63b8ff" points="320.01,-1483.81 309.63,-1485.94 319.07,-1490.74 320.01,-1483.81"/>
</a>
</g>
</g>
<!-- Node10 -->
<g id="Node000010" class="node">
<title>Node10</title>
<g id="a_Node000010"><a xlink:href="structtracktion_1_1engine_1_1ReverseEffect.html" target="_top" xlink:title=" ">
<polygon fill="white" stroke="#666666" points="490,-1470 385,-1470 385,-1440 490,-1440 490,-1470"/>
<text text-anchor="start" x="393" y="-1458" font-family="Helvetica,sans-Serif" font-size="10.00">tracktion::engine::</text>
<text text-anchor="middle" x="437.5" y="-1447" font-family="Helvetica,sans-Serif" font-size="10.00">ReverseEffect</text>
</a>
</g>
</g>
<!-- Node3&#45;&gt;Node10 -->
<g id="edge9_Node000003_Node000010" class="edge">
<title>Node3&#45;&gt;Node10</title>
<g id="a_edge9_Node000003_Node000010"><a xlink:title=" ">
<path fill="none" stroke="#63b8ff" d="M319.56,-1470.72C340.89,-1467.86 364.55,-1464.67 384.99,-1461.93"/>
<polygon fill="#63b8ff" stroke="#63b8ff" points="319.07,-1467.26 309.63,-1472.06 320.01,-1474.19 319.07,-1467.26"/>
</a>
</g>
</g>
<!-- Node11 -->
<g id="Node000011" class="node">
<title>Node11</title>
<g id="a_Node000011"><a xlink:href="structtracktion_1_1engine_1_1StepVolumeEffect.html" target="_top" xlink:title=" ">
<polygon fill="white" stroke="#666666" points="490,-1422 385,-1422 385,-1392 490,-1392 490,-1422"/>
<text text-anchor="start" x="393" y="-1410" font-family="Helvetica,sans-Serif" font-size="10.00">tracktion::engine::</text>
<text text-anchor="middle" x="437.5" y="-1399" font-family="Helvetica,sans-Serif" font-size="10.00">StepVolumeEffect</text>
</a>
</g>
</g>
<!-- Node3&#45;&gt;Node11 -->
<g id="edge10_Node000003_Node000011" class="edge">
<title>Node3&#45;&gt;Node11</title>
<g id="a_edge10_Node000003_Node000011"><a xlink:title=" ">
<path fill="none" stroke="#63b8ff" d="M301.68,-1459.84C322.56,-1450.83 347.97,-1440.11 371,-1431 378.55,-1428.02 386.63,-1424.95 394.45,-1422.05"/>
<polygon fill="#63b8ff" stroke="#63b8ff" points="300.22,-1456.66 292.43,-1463.84 303,-1463.08 300.22,-1456.66"/>
</a>
</g>
</g>
<!-- Node12 -->
<g id="Node000012" class="node">
<title>Node12</title>
<g id="a_Node000012"><a xlink:href="structtracktion_1_1engine_1_1VolumeEffect.html" target="_top" xlink:title=" ">
<polygon fill="white" stroke="#666666" points="490,-1374 385,-1374 385,-1344 490,-1344 490,-1374"/>
<text text-anchor="start" x="393" y="-1362" font-family="Helvetica,sans-Serif" font-size="10.00">tracktion::engine::</text>
<text text-anchor="middle" x="437.5" y="-1351" font-family="Helvetica,sans-Serif" font-size="10.00">VolumeEffect</text>
</a>
</g>
</g>
<!-- Node3&#45;&gt;Node12 -->
<g id="edge11_Node000003_Node000012" class="edge">
<title>Node3&#45;&gt;Node12</title>
<g id="a_edge11_Node000003_Node000012"><a xlink:title=" ">
<path fill="none" stroke="#63b8ff" d="M279.7,-1456.42C301.21,-1435.1 335.94,-1403.43 371,-1383 376.65,-1379.71 382.83,-1376.73 389.07,-1374.1"/>
<polygon fill="#63b8ff" stroke="#63b8ff" points="276.96,-1454.21 272.4,-1463.77 281.93,-1459.15 276.96,-1454.21"/>
</a>
</g>
</g>
<!-- Node13 -->
<g id="Node000013" class="node">
<title>Node13</title>
<g id="a_Node000013"><a xlink:href="structtracktion_1_1engine_1_1WarpTimeEffect.html" target="_top" xlink:title=" ">
<polygon fill="white" stroke="#666666" points="490,-1326 385,-1326 385,-1296 490,-1296 490,-1326"/>
<text text-anchor="start" x="393" y="-1314" font-family="Helvetica,sans-Serif" font-size="10.00">tracktion::engine::</text>
<text text-anchor="middle" x="437.5" y="-1303" font-family="Helvetica,sans-Serif" font-size="10.00">WarpTimeEffect</text>
</a>
</g>
</g>
<!-- Node3&#45;&gt;Node13 -->
<g id="edge12_Node000003_Node000013" class="edge">
<title>Node3&#45;&gt;Node13</title>
<g id="a_edge12_Node000003_Node000013"><a xlink:title=" ">
<path fill="none" stroke="#63b8ff" d="M271.3,-1454.64C289.76,-1422.92 326.03,-1367.67 371,-1335 375.7,-1331.58 380.95,-1328.6 386.36,-1326.02"/>
<polygon fill="#63b8ff" stroke="#63b8ff" points="268.06,-1453.26 266.15,-1463.68 274.14,-1456.72 268.06,-1453.26"/>
</a>
</g>
</g>
<!-- Node20 -->
<g id="Node000020" class="node">
<title>Node20</title>
<g id="a_Node000020"><a xlink:href="classtracktion_1_1engine_1_1AirWindowsPlugin.html" target="_top" xlink:title=" ">
<polygon fill="white" stroke="#666666" points="490,-1278 385,-1278 385,-1248 490,-1248 490,-1278"/>
<text text-anchor="start" x="393" y="-1266" font-family="Helvetica,sans-Serif" font-size="10.00">tracktion::engine::</text>
<text text-anchor="middle" x="437.5" y="-1255" font-family="Helvetica,sans-Serif" font-size="10.00">AirWindowsPlugin</text>
</a>
</g>
</g>
<!-- Node19&#45;&gt;Node20 -->
<g id="edge19_Node000019_Node000020" class="edge">
<title>Node19&#45;&gt;Node20</title>
<g id="a_edge19_Node000019_Node000020"><a xlink:title=" ">
<path fill="none" stroke="#63b8ff" d="M319.01,-697.99C325.14,-701.29 330.69,-705.54 335,-711 407.88,-803.3 300.41,-1144.94 371,-1239 374.71,-1243.94 379.54,-1247.86 384.9,-1250.98"/>
<polygon fill="#63b8ff" stroke="#63b8ff" points="320.24,-694.71 309.68,-693.81 317.38,-701.1 320.24,-694.71"/>
</a>
</g>
</g>
<!-- Node21 -->
<g id="Node000021" class="node">
<title>Node21</title>
<g id="a_Node000021"><a xlink:href="classtracktion_1_1engine_1_1AuxReturnPlugin.html" target="_top" xlink:title=" ">
<polygon fill="white" stroke="#666666" points="490,-1230 385,-1230 385,-1200 490,-1200 490,-1230"/>
<text text-anchor="start" x="393" y="-1218" font-family="Helvetica,sans-Serif" font-size="10.00">tracktion::engine::</text>
<text text-anchor="middle" x="437.5" y="-1207" font-family="Helvetica,sans-Serif" font-size="10.00">AuxReturnPlugin</text>
</a>
</g>
</g>
<!-- Node19&#45;&gt;Node21 -->
<g id="edge20_Node000019_Node000021" class="edge">
<title>Node19&#45;&gt;Node21</title>
<g id="a_edge20_Node000019_Node000021"><a xlink:title=" ">
<path fill="none" stroke="#63b8ff" d="M318.98,-698.02C325.11,-701.31 330.67,-705.55 335,-711 401.57,-794.73 306.5,-1105.67 371,-1191 374.72,-1195.93 379.56,-1199.84 384.93,-1202.96"/>
<polygon fill="#63b8ff" stroke="#63b8ff" points="320.2,-694.73 309.64,-693.85 317.34,-701.12 320.2,-694.73"/>
</a>
</g>
</g>
<!-- Node22 -->
<g id="Node000022" class="node">
<title>Node22</title>
<g id="a_Node000022"><a xlink:href="classtracktion_1_1engine_1_1AuxSendPlugin.html" target="_top" xlink:title=" ">
<polygon fill="white" stroke="#666666" points="490,-1182 385,-1182 385,-1152 490,-1152 490,-1182"/>
<text text-anchor="start" x="393" y="-1170" font-family="Helvetica,sans-Serif" font-size="10.00">tracktion::engine::</text>
<text text-anchor="middle" x="437.5" y="-1159" font-family="Helvetica,sans-Serif" font-size="10.00">AuxSendPlugin</text>
</a>
</g>
</g>
<!-- Node19&#45;&gt;Node22 -->
<g id="edge21_Node000019_Node000022" class="edge">
<title>Node19&#45;&gt;Node22</title>
<g id="a_edge21_Node000019_Node000022"><a xlink:title=" ">
<path fill="none" stroke="#63b8ff" d="M318.93,-698.06C325.08,-701.34 330.64,-705.57 335,-711 395.27,-786.15 312.6,-1066.39 371,-1143 374.74,-1147.91 379.6,-1151.82 384.97,-1154.93"/>
<polygon fill="#63b8ff" stroke="#63b8ff" points="320.15,-694.77 309.59,-693.89 317.29,-701.16 320.15,-694.77"/>
</a>
</g>
</g>
<!-- Node23 -->
<g id="Node000023" class="node">
<title>Node23</title>
<g id="a_Node000023"><a xlink:href="classtracktion_1_1engine_1_1ChorusPlugin.html" target="_top" xlink:title=" ">
<polygon fill="white" stroke="#666666" points="490,-1134 385,-1134 385,-1104 490,-1104 490,-1134"/>
<text text-anchor="start" x="393" y="-1122" font-family="Helvetica,sans-Serif" font-size="10.00">tracktion::engine::</text>
<text text-anchor="middle" x="437.5" y="-1111" font-family="Helvetica,sans-Serif" font-size="10.00">ChorusPlugin</text>
</a>
</g>
</g>
<!-- Node19&#45;&gt;Node23 -->
<g id="edge22_Node000019_Node000023" class="edge">
<title>Node19&#45;&gt;Node23</title>
<g id="a_edge22_Node000019_Node000023"><a xlink:title=" ">
<path fill="none" stroke="#63b8ff" d="M318.88,-698.1C325.03,-701.38 330.62,-705.59 335,-711 388.96,-777.59 318.69,-1027.11 371,-1095 374.7,-1099.8 379.45,-1103.64 384.7,-1106.71"/>
<polygon fill="#63b8ff" stroke="#63b8ff" points="320.08,-694.81 309.53,-693.94 317.24,-701.2 320.08,-694.81"/>
</a>
</g>
</g>
<!-- Node24 -->
<g id="Node000024" class="node">
<title>Node24</title>
<g id="a_Node000024"><a xlink:href="classtracktion_1_1engine_1_1CompressorPlugin.html" target="_top" xlink:title=" ">
<polygon fill="white" stroke="#666666" points="490,-1086 385,-1086 385,-1056 490,-1056 490,-1086"/>
<text text-anchor="start" x="393" y="-1074" font-family="Helvetica,sans-Serif" font-size="10.00">tracktion::engine::</text>
<text text-anchor="middle" x="437.5" y="-1063" font-family="Helvetica,sans-Serif" font-size="10.00">CompressorPlugin</text>
</a>
</g>
</g>
<!-- Node19&#45;&gt;Node24 -->
<g id="edge23_Node000019_Node000024" class="edge">
<title>Node19&#45;&gt;Node24</title>
<g id="a_edge23_Node000019_Node000024"><a xlink:title=" ">
<path fill="none" stroke="#63b8ff" d="M319.06,-698.29C325.13,-701.54 330.64,-705.69 335,-711 430.33,-827.05 278.54,-928.64 371,-1047 374.73,-1051.77 379.5,-1055.6 384.76,-1058.66"/>
<polygon fill="#63b8ff" stroke="#63b8ff" points="320.4,-695.06 309.84,-694.15 317.53,-701.44 320.4,-695.06"/>
</a>
</g>
</g>
<!-- Node25 -->
<g id="Node000025" class="node">
<title>Node25</title>
<g id="a_Node000025"><a xlink:href="classtracktion_1_1engine_1_1DelayPlugin.html" target="_top" xlink:title=" ">
<polygon fill="white" stroke="#666666" points="490,-1038 385,-1038 385,-1008 490,-1008 490,-1038"/>
<text text-anchor="start" x="393" y="-1026" font-family="Helvetica,sans-Serif" font-size="10.00">tracktion::engine::</text>
<text text-anchor="middle" x="437.5" y="-1015" font-family="Helvetica,sans-Serif" font-size="10.00">DelayPlugin</text>
</a>
</g>
</g>
<!-- Node19&#45;&gt;Node25 -->
<g id="edge24_Node000019_Node000025" class="edge">
<title>Node19&#45;&gt;Node25</title>
<g id="a_edge24_Node000019_Node000025"><a xlink:title=" ">
<path fill="none" stroke="#63b8ff" d="M318.97,-698.37C325.05,-701.6 330.59,-705.73 335,-711 417.76,-809.95 290.7,-898.05 371,-999 374.77,-1003.74 379.57,-1007.54 384.84,-1010.59"/>
<polygon fill="#63b8ff" stroke="#63b8ff" points="320.29,-695.13 309.73,-694.24 317.43,-701.52 320.29,-695.13"/>
</a>
</g>
</g>
<!-- Node26 -->
<g id="Node000026" class="node">
<title>Node26</title>
<g id="a_Node000026"><a xlink:href="classtracktion_1_1engine_1_1EqualiserPlugin.html" target="_top" xlink:title=" ">
<polygon fill="white" stroke="#666666" points="490,-990 385,-990 385,-960 490,-960 490,-990"/>
<text text-anchor="start" x="393" y="-978" font-family="Helvetica,sans-Serif" font-size="10.00">tracktion::engine::</text>
<text text-anchor="middle" x="437.5" y="-967" font-family="Helvetica,sans-Serif" font-size="10.00">EqualiserPlugin</text>
</a>
</g>
</g>
<!-- Node19&#45;&gt;Node26 -->
<g id="edge25_Node000019_Node000026" class="edge">
<title>Node19&#45;&gt;Node26</title>
<g id="a_edge25_Node000019_Node000026"><a xlink:title=" ">
<path fill="none" stroke="#63b8ff" d="M318.84,-698.47C324.95,-701.69 330.53,-705.79 335,-711 405.21,-792.88 302.82,-867.42 371,-951 374.83,-955.69 379.66,-959.47 384.96,-962.5"/>
<polygon fill="#63b8ff" stroke="#63b8ff" points="320.15,-695.22 309.59,-694.36 317.31,-701.62 320.15,-695.22"/>
</a>
</g>
</g>
<!-- Node27 -->
<g id="Node000027" class="node">
<title>Node27</title>
<g id="a_Node000027"><a xlink:href="classtracktion_1_1engine_1_1ExternalPlugin.html" target="_top" xlink:title=" ">
<polygon fill="white" stroke="#666666" points="490,-942 385,-942 385,-912 490,-912 490,-942"/>
<text text-anchor="start" x="393" y="-930" font-family="Helvetica,sans-Serif" font-size="10.00">tracktion::engine::</text>
<text text-anchor="middle" x="437.5" y="-919" font-family="Helvetica,sans-Serif" font-size="10.00">ExternalPlugin</text>
</a>
</g>
</g>
<!-- Node19&#45;&gt;Node27 -->
<g id="edge26_Node000019_Node000027" class="edge">
<title>Node19&#45;&gt;Node27</title>
<g id="a_edge26_Node000019_Node000027"><a xlink:title=" ">
<path fill="none" stroke="#63b8ff" d="M318.91,-698.77C324.95,-701.93 330.5,-705.94 335,-711 392.7,-775.87 314.91,-836.73 371,-903 374.83,-907.53 379.6,-911.2 384.8,-914.19"/>
<polygon fill="#63b8ff" stroke="#63b8ff" points="320.33,-695.57 309.77,-694.7 317.48,-701.96 320.33,-695.57"/>
</a>
</g>
</g>
<!-- Node28 -->
<g id="Node000028" class="node">
<title>Node28</title>
<g id="a_Node000028"><a xlink:href="classtracktion_1_1engine_1_1FourOscPlugin.html" target="_top" xlink:title=" ">
<polygon fill="white" stroke="#666666" points="490,-894 385,-894 385,-864 490,-864 490,-894"/>
<text text-anchor="start" x="393" y="-882" font-family="Helvetica,sans-Serif" font-size="10.00">tracktion::engine::</text>
<text text-anchor="middle" x="437.5" y="-871" font-family="Helvetica,sans-Serif" font-size="10.00">FourOscPlugin</text>
</a>
</g>
</g>
<!-- Node19&#45;&gt;Node28 -->
<g id="edge27_Node000019_Node000028" class="edge">
<title>Node19&#45;&gt;Node28</title>
<g id="a_edge27_Node000019_Node000028"><a xlink:title=" ">
<path fill="none" stroke="#63b8ff" d="M319.28,-699.38C325.12,-702.45 330.52,-706.26 335,-711 380.3,-758.96 326.89,-805.94 371,-855 374.89,-859.32 379.62,-862.87 384.74,-865.78"/>
<polygon fill="#63b8ff" stroke="#63b8ff" points="320.38,-696.04 309.82,-695.16 317.53,-702.43 320.38,-696.04"/>
</a>
</g>
</g>
<!-- Node29 -->
<g id="Node000029" class="node">
<title>Node29</title>
<g id="a_Node000029"><a xlink:href="classtracktion_1_1engine_1_1FreezePointPlugin.html" target="_top" xlink:title=" ">
<polygon fill="white" stroke="#666666" points="490,-846 385,-846 385,-816 490,-816 490,-846"/>
<text text-anchor="start" x="393" y="-834" font-family="Helvetica,sans-Serif" font-size="10.00">tracktion::engine::</text>
<text text-anchor="middle" x="437.5" y="-823" font-family="Helvetica,sans-Serif" font-size="10.00">FreezePointPlugin</text>
</a>
</g>
</g>
<!-- Node19&#45;&gt;Node29 -->
<g id="edge28_Node000019_Node000029" class="edge">
<title>Node19&#45;&gt;Node29</title>
<g id="a_edge28_Node000019_Node000029"><a xlink:title=" ">
<path fill="none" stroke="#63b8ff" d="M319.01,-700.04C324.85,-702.98 330.32,-706.58 335,-711 368.12,-742.3 338.66,-774.9 371,-807 375.04,-811.01 379.8,-814.36 384.89,-817.15"/>
<polygon fill="#63b8ff" stroke="#63b8ff" points="320.16,-696.72 309.59,-695.94 317.37,-703.14 320.16,-696.72"/>
</a>
</g>
</g>
<!-- Node30 -->
<g id="Node000030" class="node">
<title>Node30</title>
<g id="a_Node000030"><a xlink:href="classtracktion_1_1engine_1_1ImpulseResponsePlugin.html" target="_top" xlink:title="ImpulseResponsePlugin that loads an impulse response and applies it the audio stream.">
<polygon fill="white" stroke="#666666" points="504,-798 371,-798 371,-768 504,-768 504,-798"/>
<text text-anchor="start" x="379" y="-786" font-family="Helvetica,sans-Serif" font-size="10.00">tracktion::engine::</text>
<text text-anchor="middle" x="437.5" y="-775" font-family="Helvetica,sans-Serif" font-size="10.00">ImpulseResponsePlugin</text>
</a>
</g>
</g>
<!-- Node19&#45;&gt;Node30 -->
<g id="edge29_Node000019_Node000030" class="edge">
<title>Node19&#45;&gt;Node30</title>
<g id="a_edge29_Node000019_Node000030"><a xlink:title=" ">
<path fill="none" stroke="#63b8ff" d="M319.28,-702.11C324.82,-704.64 330.16,-707.59 335,-711 356.78,-726.38 349.6,-743.09 371,-759 375.57,-762.4 380.67,-765.35 385.95,-767.92"/>
<polygon fill="#63b8ff" stroke="#63b8ff" points="320.39,-698.79 309.81,-698.23 317.73,-705.26 320.39,-698.79"/>
</a>
</g>
</g>
<!-- Node31 -->
<g id="Node000031" class="node">
<title>Node31</title>
<g id="a_Node000031"><a xlink:href="classtracktion_1_1engine_1_1InsertPlugin.html" target="_top" xlink:title=" ">
<polygon fill="white" stroke="#666666" points="490,-750 385,-750 385,-720 490,-720 490,-750"/>
<text text-anchor="start" x="393" y="-738" font-family="Helvetica,sans-Serif" font-size="10.00">tracktion::engine::</text>
<text text-anchor="middle" x="437.5" y="-727" font-family="Helvetica,sans-Serif" font-size="10.00">InsertPlugin</text>
</a>
</g>
</g>
<!-- Node19&#45;&gt;Node31 -->
<g id="edge30_Node000019_Node000031" class="edge">
<title>Node19&#45;&gt;Node31</title>
<g id="a_edge30_Node000019_Node000031"><a xlink:title=" ">
<path fill="none" stroke="#63b8ff" d="M319.56,-703.55C340.89,-709.29 364.55,-715.65 384.99,-721.15"/>
<polygon fill="#63b8ff" stroke="#63b8ff" points="320.2,-700.1 309.63,-700.88 318.38,-706.86 320.2,-700.1"/>
</a>
</g>
</g>
<!-- Node32 -->
<g id="Node000032" class="node">
<title>Node32</title>
<g id="a_Node000032"><a xlink:href="classtracktion_1_1engine_1_1LatencyPlugin.html" target="_top" xlink:title="A test plugin that introduces latency to the incoming signal.">
<polygon fill="white" stroke="#666666" points="490,-702 385,-702 385,-672 490,-672 490,-702"/>
<text text-anchor="start" x="393" y="-690" font-family="Helvetica,sans-Serif" font-size="10.00">tracktion::engine::</text>
<text text-anchor="middle" x="437.5" y="-679" font-family="Helvetica,sans-Serif" font-size="10.00">LatencyPlugin</text>
</a>
</g>
</g>
<!-- Node19&#45;&gt;Node32 -->
<g id="edge31_Node000019_Node000032" class="edge">
<title>Node19&#45;&gt;Node32</title>
<g id="a_edge31_Node000019_Node000032"><a xlink:title=" ">
<path fill="none" stroke="#63b8ff" d="M319.85,-687C341.1,-687 364.65,-687 384.99,-687"/>
<polygon fill="#63b8ff" stroke="#63b8ff" points="319.63,-683.5 309.63,-687 319.63,-690.5 319.63,-683.5"/>
</a>
</g>
</g>
<!-- Node33 -->
<g id="Node000033" class="node">
<title>Node33</title>
<g id="a_Node000033"><a xlink:href="classtracktion_1_1engine_1_1LevelMeterPlugin.html" target="_top" xlink:title=" ">
<polygon fill="white" stroke="#666666" points="490,-654 385,-654 385,-624 490,-624 490,-654"/>
<text text-anchor="start" x="393" y="-642" font-family="Helvetica,sans-Serif" font-size="10.00">tracktion::engine::</text>
<text text-anchor="middle" x="437.5" y="-631" font-family="Helvetica,sans-Serif" font-size="10.00">LevelMeterPlugin</text>
</a>
</g>
</g>
<!-- Node19&#45;&gt;Node33 -->
<g id="edge32_Node000019_Node000033" class="edge">
<title>Node19&#45;&gt;Node33</title>
<g id="a_edge32_Node000019_Node000033"><a xlink:title=" ">
<path fill="none" stroke="#63b8ff" d="M319.56,-670.45C340.89,-664.71 364.55,-658.35 384.99,-652.85"/>
<polygon fill="#63b8ff" stroke="#63b8ff" points="318.38,-667.14 309.63,-673.12 320.2,-673.9 318.38,-667.14"/>
</a>
</g>
</g>
<!-- Node34 -->
<g id="Node000034" class="node">
<title>Node34</title>
<g id="a_Node000034"><a xlink:href="classtracktion_1_1engine_1_1LowPassPlugin.html" target="_top" xlink:title=" ">
<polygon fill="white" stroke="#666666" points="490,-606 385,-606 385,-576 490,-576 490,-606"/>
<text text-anchor="start" x="393" y="-594" font-family="Helvetica,sans-Serif" font-size="10.00">tracktion::engine::</text>
<text text-anchor="middle" x="437.5" y="-583" font-family="Helvetica,sans-Serif" font-size="10.00">LowPassPlugin</text>
</a>
</g>
</g>
<!-- Node19&#45;&gt;Node34 -->
<g id="edge33_Node000019_Node000034" class="edge">
<title>Node19&#45;&gt;Node34</title>
<g id="a_edge33_Node000019_Node000034"><a xlink:title=" ">
<path fill="none" stroke="#63b8ff" d="M319.28,-671.89C324.82,-669.36 330.16,-666.41 335,-663 356.78,-647.62 349.6,-630.91 371,-615 375.57,-611.6 380.67,-608.65 385.95,-606.08"/>
<polygon fill="#63b8ff" stroke="#63b8ff" points="317.73,-668.74 309.81,-675.77 320.39,-675.21 317.73,-668.74"/>
</a>
</g>
</g>
<!-- Node35 -->
<g id="Node000035" class="node">
<title>Node35</title>
<g id="a_Node000035"><a xlink:href="classtracktion_1_1engine_1_1MidiModifierPlugin.html" target="_top" xlink:title=" ">
<polygon fill="white" stroke="#666666" points="491,-558 384,-558 384,-528 491,-528 491,-558"/>
<text text-anchor="start" x="392" y="-546" font-family="Helvetica,sans-Serif" font-size="10.00">tracktion::engine::</text>
<text text-anchor="middle" x="437.5" y="-535" font-family="Helvetica,sans-Serif" font-size="10.00">MidiModifierPlugin</text>
</a>
</g>
</g>
<!-- Node19&#45;&gt;Node35 -->
<g id="edge34_Node000019_Node000035" class="edge">
<title>Node19&#45;&gt;Node35</title>
<g id="a_edge34_Node000019_Node000035"><a xlink:title=" ">
<path fill="none" stroke="#63b8ff" d="M319.01,-673.96C324.85,-671.02 330.32,-667.42 335,-663 368.12,-631.7 338.66,-599.1 371,-567 374.78,-563.25 379.2,-560.07 383.92,-557.39"/>
<polygon fill="#63b8ff" stroke="#63b8ff" points="317.37,-670.86 309.59,-678.06 320.16,-677.28 317.37,-670.86"/>
</a>
</g>
</g>
<!-- Node36 -->
<g id="Node000036" class="node">
<title>Node36</title>
<g id="a_Node000036"><a xlink:href="classtracktion_1_1engine_1_1MidiPatchBayPlugin.html" target="_top" xlink:title=" ">
<polygon fill="white" stroke="#666666" points="494,-510 381,-510 381,-480 494,-480 494,-510"/>
<text text-anchor="start" x="389" y="-498" font-family="Helvetica,sans-Serif" font-size="10.00">tracktion::engine::</text>
<text text-anchor="middle" x="437.5" y="-487" font-family="Helvetica,sans-Serif" font-size="10.00">MidiPatchBayPlugin</text>
</a>
</g>
</g>
<!-- Node19&#45;&gt;Node36 -->
<g id="edge35_Node000019_Node000036" class="edge">
<title>Node19&#45;&gt;Node36</title>
<g id="a_edge35_Node000019_Node000036"><a xlink:title=" ">
<path fill="none" stroke="#63b8ff" d="M319.28,-674.62C325.12,-671.55 330.52,-667.74 335,-663 380.3,-615.04 326.89,-568.06 371,-519 374.08,-515.58 377.68,-512.64 381.59,-510.13"/>
<polygon fill="#63b8ff" stroke="#63b8ff" points="317.53,-671.57 309.82,-678.84 320.38,-677.96 317.53,-671.57"/>
</a>
</g>
</g>
<!-- Node37 -->
<g id="Node000037" class="node">
<title>Node37</title>
<g id="a_Node000037"><a xlink:href="classtracktion_1_1engine_1_1PatchBayPlugin.html" target="_top" xlink:title=" ">
<polygon fill="white" stroke="#666666" points="490,-462 385,-462 385,-432 490,-432 490,-462"/>
<text text-anchor="start" x="393" y="-450" font-family="Helvetica,sans-Serif" font-size="10.00">tracktion::engine::</text>
<text text-anchor="middle" x="437.5" y="-439" font-family="Helvetica,sans-Serif" font-size="10.00">PatchBayPlugin</text>
</a>
</g>
</g>
<!-- Node19&#45;&gt;Node37 -->
<g id="edge36_Node000019_Node000037" class="edge">
<title>Node19&#45;&gt;Node37</title>
<g id="a_edge36_Node000019_Node000037"><a xlink:title=" ">
<path fill="none" stroke="#63b8ff" d="M318.91,-675.23C324.95,-672.07 330.5,-668.06 335,-663 392.7,-598.13 314.91,-537.27 371,-471 374.83,-466.47 379.6,-462.8 384.8,-459.81"/>
<polygon fill="#63b8ff" stroke="#63b8ff" points="317.48,-672.04 309.77,-679.3 320.33,-678.43 317.48,-672.04"/>
</a>
</g>
</g>
<!-- Node38 -->
<g id="Node000038" class="node">
<title>Node38</title>
<g id="a_Node000038"><a xlink:href="classtracktion_1_1engine_1_1PhaserPlugin.html" target="_top" xlink:title=" ">
<polygon fill="white" stroke="#666666" points="490,-414 385,-414 385,-384 490,-384 490,-414"/>
<text text-anchor="start" x="393" y="-402" font-family="Helvetica,sans-Serif" font-size="10.00">tracktion::engine::</text>
<text text-anchor="middle" x="437.5" y="-391" font-family="Helvetica,sans-Serif" font-size="10.00">PhaserPlugin</text>
</a>
</g>
</g>
<!-- Node19&#45;&gt;Node38 -->
<g id="edge37_Node000019_Node000038" class="edge">
<title>Node19&#45;&gt;Node38</title>
<g id="a_edge37_Node000019_Node000038"><a xlink:title=" ">
<path fill="none" stroke="#63b8ff" d="M318.84,-675.53C324.95,-672.31 330.53,-668.21 335,-663 405.21,-581.12 302.82,-506.58 371,-423 374.83,-418.31 379.66,-414.53 384.96,-411.5"/>
<polygon fill="#63b8ff" stroke="#63b8ff" points="317.31,-672.38 309.59,-679.64 320.15,-678.78 317.31,-672.38"/>
</a>
</g>
</g>
<!-- Node39 -->
<g id="Node000039" class="node">
<title>Node39</title>
<g id="a_Node000039"><a xlink:href="classtracktion_1_1engine_1_1PitchShiftPlugin.html" target="_top" xlink:title=" ">
<polygon fill="white" stroke="#666666" points="490,-366 385,-366 385,-336 490,-336 490,-366"/>
<text text-anchor="start" x="393" y="-354" font-family="Helvetica,sans-Serif" font-size="10.00">tracktion::engine::</text>
<text text-anchor="middle" x="437.5" y="-343" font-family="Helvetica,sans-Serif" font-size="10.00">PitchShiftPlugin</text>
</a>
</g>
</g>
<!-- Node19&#45;&gt;Node39 -->
<g id="edge38_Node000019_Node000039" class="edge">
<title>Node19&#45;&gt;Node39</title>
<g id="a_edge38_Node000019_Node000039"><a xlink:title=" ">
<path fill="none" stroke="#63b8ff" d="M318.97,-675.63C325.05,-672.4 330.59,-668.27 335,-663 417.76,-564.05 290.7,-475.95 371,-375 374.77,-370.26 379.57,-366.46 384.84,-363.41"/>
<polygon fill="#63b8ff" stroke="#63b8ff" points="317.43,-672.48 309.73,-679.76 320.29,-678.87 317.43,-672.48"/>
</a>
</g>
</g>
<!-- Node40 -->
<g id="Node000040" class="node">
<title>Node40</title>
<g id="a_Node000040"><a xlink:href="classtracktion_1_1engine_1_1RackInstance.html" target="_top" xlink:title=" ">
<polygon fill="white" stroke="#666666" points="490,-318 385,-318 385,-288 490,-288 490,-318"/>
<text text-anchor="start" x="393" y="-306" font-family="Helvetica,sans-Serif" font-size="10.00">tracktion::engine::</text>
<text text-anchor="middle" x="437.5" y="-295" font-family="Helvetica,sans-Serif" font-size="10.00">RackInstance</text>
</a>
</g>
</g>
<!-- Node19&#45;&gt;Node40 -->
<g id="edge39_Node000019_Node000040" class="edge">
<title>Node19&#45;&gt;Node40</title>
<g id="a_edge39_Node000019_Node000040"><a xlink:title=" ">
<path fill="none" stroke="#63b8ff" d="M319.06,-675.71C325.13,-672.46 330.64,-668.31 335,-663 430.33,-546.95 278.54,-445.36 371,-327 374.73,-322.23 379.5,-318.4 384.76,-315.34"/>
<polygon fill="#63b8ff" stroke="#63b8ff" points="317.53,-672.56 309.84,-679.85 320.4,-678.94 317.53,-672.56"/>
</a>
</g>
</g>
<!-- Node41 -->
<g id="Node000041" class="node">
<title>Node41</title>
<g id="a_Node000041"><a xlink:href="classtracktion_1_1engine_1_1ReverbPlugin.html" target="_top" xlink:title=" ">
<polygon fill="white" stroke="#666666" points="490,-270 385,-270 385,-240 490,-240 490,-270"/>
<text text-anchor="start" x="393" y="-258" font-family="Helvetica,sans-Serif" font-size="10.00">tracktion::engine::</text>
<text text-anchor="middle" x="437.5" y="-247" font-family="Helvetica,sans-Serif" font-size="10.00">ReverbPlugin</text>
</a>
</g>
</g>
<!-- Node19&#45;&gt;Node41 -->
<g id="edge40_Node000019_Node000041" class="edge">
<title>Node19&#45;&gt;Node41</title>
<g id="a_edge40_Node000019_Node000041"><a xlink:title=" ">
<path fill="none" stroke="#63b8ff" d="M318.88,-675.9C325.03,-672.62 330.62,-668.41 335,-663 388.96,-596.41 318.69,-346.89 371,-279 374.7,-274.2 379.45,-270.36 384.7,-267.29"/>
<polygon fill="#63b8ff" stroke="#63b8ff" points="317.24,-672.8 309.53,-680.06 320.08,-679.19 317.24,-672.8"/>
</a>
</g>
</g>
<!-- Node42 -->
<g id="Node000042" class="node">
<title>Node42</title>
<g id="a_Node000042"><a xlink:href="classtracktion_1_1engine_1_1SamplerPlugin.html" target="_top" xlink:title=" ">
<polygon fill="white" stroke="#666666" points="490,-222 385,-222 385,-192 490,-192 490,-222"/>
<text text-anchor="start" x="393" y="-210" font-family="Helvetica,sans-Serif" font-size="10.00">tracktion::engine::</text>
<text text-anchor="middle" x="437.5" y="-199" font-family="Helvetica,sans-Serif" font-size="10.00">SamplerPlugin</text>
</a>
</g>
</g>
<!-- Node19&#45;&gt;Node42 -->
<g id="edge41_Node000019_Node000042" class="edge">
<title>Node19&#45;&gt;Node42</title>
<g id="a_edge41_Node000019_Node000042"><a xlink:title=" ">
<path fill="none" stroke="#63b8ff" d="M318.93,-675.94C325.08,-672.66 330.64,-668.43 335,-663 395.27,-587.85 312.6,-307.61 371,-231 374.74,-226.09 379.6,-222.18 384.97,-219.07"/>
<polygon fill="#63b8ff" stroke="#63b8ff" points="317.29,-672.84 309.59,-680.11 320.15,-679.23 317.29,-672.84"/>
</a>
</g>
</g>
<!-- Node43 -->
<g id="Node000043" class="node">
<title>Node43</title>
<g id="a_Node000043"><a xlink:href="classtracktion_1_1engine_1_1TextPlugin.html" target="_top" xlink:title=" ">
<polygon fill="white" stroke="#666666" points="490,-174 385,-174 385,-144 490,-144 490,-174"/>
<text text-anchor="start" x="393" y="-162" font-family="Helvetica,sans-Serif" font-size="10.00">tracktion::engine::</text>
<text text-anchor="middle" x="437.5" y="-151" font-family="Helvetica,sans-Serif" font-size="10.00">TextPlugin</text>
</a>
</g>
</g>
<!-- Node19&#45;&gt;Node43 -->
<g id="edge42_Node000019_Node000043" class="edge">
<title>Node19&#45;&gt;Node43</title>
<g id="a_edge42_Node000019_Node000043"><a xlink:title=" ">
<path fill="none" stroke="#63b8ff" d="M318.98,-675.98C325.11,-672.69 330.67,-668.45 335,-663 401.57,-579.27 306.5,-268.33 371,-183 374.72,-178.07 379.56,-174.16 384.93,-171.04"/>
<polygon fill="#63b8ff" stroke="#63b8ff" points="317.34,-672.88 309.64,-680.15 320.2,-679.27 317.34,-672.88"/>
</a>
</g>
</g>
<!-- Node44 -->
<g id="Node000044" class="node">
<title>Node44</title>
<g id="a_Node000044"><a xlink:href="classtracktion_1_1engine_1_1ToneGeneratorPlugin.html" target="_top" xlink:title=" ">
<polygon fill="white" stroke="#666666" points="496.5,-126 378.5,-126 378.5,-96 496.5,-96 496.5,-126"/>
<text text-anchor="start" x="386.5" y="-114" font-family="Helvetica,sans-Serif" font-size="10.00">tracktion::engine::</text>
<text text-anchor="middle" x="437.5" y="-103" font-family="Helvetica,sans-Serif" font-size="10.00">ToneGeneratorPlugin</text>
</a>
</g>
</g>
<!-- Node19&#45;&gt;Node44 -->
<g id="edge43_Node000019_Node000044" class="edge">
<title>Node19&#45;&gt;Node44</title>
<g id="a_edge43_Node000019_Node000044"><a xlink:title=" ">
<path fill="none" stroke="#63b8ff" d="M319.01,-676.01C325.14,-672.71 330.69,-668.46 335,-663 407.88,-570.7 300.41,-229.06 371,-135 373.54,-131.61 376.62,-128.7 380.03,-126.2"/>
<polygon fill="#63b8ff" stroke="#63b8ff" points="317.38,-672.9 309.68,-680.19 320.24,-679.29 317.38,-672.9"/>
</a>
</g>
</g>
<!-- Node45 -->
<g id="Node000045" class="node">
<title>Node45</title>
<g id="a_Node000045"><a xlink:href="classtracktion_1_1engine_1_1VCAPlugin.html" target="_top" xlink:title="The VCA plugin sits on a folder track to control the overall level of all the volume/pan plugins in i...">
<polygon fill="white" stroke="#666666" points="490,-78 385,-78 385,-48 490,-48 490,-78"/>
<text text-anchor="start" x="393" y="-66" font-family="Helvetica,sans-Serif" font-size="10.00">tracktion::engine::</text>
<text text-anchor="middle" x="437.5" y="-55" font-family="Helvetica,sans-Serif" font-size="10.00">VCAPlugin</text>
</a>
</g>
</g>
<!-- Node19&#45;&gt;Node45 -->
<g id="edge44_Node000019_Node000045" class="edge">
<title>Node19&#45;&gt;Node45</title>
<g id="a_edge44_Node000019_Node000045"><a xlink:title=" ">
<path fill="none" stroke="#63b8ff" d="M319.04,-676.03C325.17,-672.73 330.7,-668.48 335,-663 414.19,-562.12 294.31,-189.79 371,-87 374.69,-82.05 379.52,-78.12 384.87,-75"/>
<polygon fill="#63b8ff" stroke="#63b8ff" points="317.41,-672.93 309.72,-680.22 320.27,-679.31 317.41,-672.93"/>
</a>
</g>
</g>
<!-- Node46 -->
<g id="Node000046" class="node">
<title>Node46</title>
<g id="a_Node000046"><a xlink:href="classtracktion_1_1engine_1_1VolumeAndPanPlugin.html" target="_top" xlink:title="The built&#45;in Tracktion volume/pan plugin.">
<polygon fill="white" stroke="#666666" points="497,-30 378,-30 378,0 497,0 497,-30"/>
<text text-anchor="start" x="386" y="-18" font-family="Helvetica,sans-Serif" font-size="10.00">tracktion::engine::</text>
<text text-anchor="middle" x="437.5" y="-7" font-family="Helvetica,sans-Serif" font-size="10.00">VolumeAndPanPlugin</text>
</a>
</g>
</g>
<!-- Node19&#45;&gt;Node46 -->
<g id="edge45_Node000019_Node000046" class="edge">
<title>Node19&#45;&gt;Node46</title>
<g id="a_edge45_Node000019_Node000046"><a xlink:title=" ">
<path fill="none" stroke="#63b8ff" d="M319.07,-676.05C325.19,-672.75 330.71,-668.49 335,-663 420.5,-553.54 288.21,-150.52 371,-39 373.53,-35.6 376.59,-32.68 379.99,-30.17"/>
<polygon fill="#63b8ff" stroke="#63b8ff" points="317.43,-672.95 309.75,-680.24 320.3,-679.33 317.43,-672.95"/>
</a>
</g>
</g>
</g>
</svg>
