<?xml version="1.0" encoding="UTF-8" standalone="no"?>
<!DOCTYPE svg PUBLIC "-//W3C//DTD SVG 1.1//EN"
 "http://www.w3.org/Graphics/SVG/1.1/DTD/svg11.dtd">
<!-- Generated by graphviz version 2.40.1 (20161225.0304)
 -->
<!-- Title: tracktion_engine::InputDeviceInstance::InputDeviceDestination Pages: 1 -->
<svg width="570pt" height="149pt"
 viewBox="0.00 0.00 570.00 149.00" xmlns="http://www.w3.org/2000/svg" xmlns:xlink="http://www.w3.org/1999/xlink">
<g id="graph0" class="graph" transform="scale(1 1) rotate(0) translate(4 145)">
<title>tracktion_engine::InputDeviceInstance::InputDeviceDestination</title>
<!-- Node0 -->
<g id="node1" class="node">
<title>Node0</title>
<polygon fill="#bfbfbf" stroke="#000000" points="176,-55.5 176,-85.5 338,-85.5 338,-55.5 176,-55.5"/>
<text text-anchor="start" x="184" y="-73.5" font-family="Helvetica,sans-Serif" font-size="10.00" fill="#000000">tracktion_engine::InputDevice</text>
<text text-anchor="middle" x="257" y="-62.5" font-family="Helvetica,sans-Serif" font-size="10.00" fill="#000000">Instance::InputDeviceDestination</text>
</g>
<!-- Node2 -->
<g id="node3" class="node">
<title>Node2</title>
<g id="a_node3"><a xlink:href="structtracktion__engine_1_1InputDeviceInstance_1_1MidiInputDeviceDestination.html" target="_top" xlink:title="tracktion_engine::InputDevice\lInstance::MidiInputDeviceDestination">
<polygon fill="none" stroke="#000000" points="378,-110.5 378,-140.5 558,-140.5 558,-110.5 378,-110.5"/>
<text text-anchor="start" x="386" y="-128.5" font-family="Helvetica,sans-Serif" font-size="10.00" fill="#000000">tracktion_engine::InputDevice</text>
<text text-anchor="middle" x="468" y="-117.5" font-family="Helvetica,sans-Serif" font-size="10.00" fill="#000000">Instance::MidiInputDeviceDestination</text>
</a>
</g>
</g>
<!-- Node0&#45;&gt;Node2 -->
<g id="edge2" class="edge">
<title>Node0&#45;&gt;Node2</title>
<path fill="none" stroke="#191970" d="M324.6403,-88.1314C352.2753,-95.3348 383.906,-103.5798 410.413,-110.4892"/>
<polygon fill="#191970" stroke="#191970" points="325.2162,-84.6646 314.6567,-85.529 323.4505,-91.4382 325.2162,-84.6646"/>
</g>
<!-- Node3 -->
<g id="node4" class="node">
<title>Node3</title>
<g id="a_node4"><a xlink:href="structtracktion__engine_1_1InputDeviceInstance_1_1VirtualMidiInputDeviceDestination.html" target="_top" xlink:title="tracktion_engine::InputDevice\lInstance::VirtualMidiInputDevice\lDestination">
<polygon fill="none" stroke="#000000" points="389,-50 389,-91 547,-91 547,-50 389,-50"/>
<text text-anchor="start" x="397" y="-79" font-family="Helvetica,sans-Serif" font-size="10.00" fill="#000000">tracktion_engine::InputDevice</text>
<text text-anchor="start" x="397" y="-68" font-family="Helvetica,sans-Serif" font-size="10.00" fill="#000000">Instance::VirtualMidiInputDevice</text>
<text text-anchor="middle" x="468" y="-57" font-family="Helvetica,sans-Serif" font-size="10.00" fill="#000000">Destination</text>
</a>
</g>
</g>
<!-- Node0&#45;&gt;Node3 -->
<g id="edge3" class="edge">
<title>Node0&#45;&gt;Node3</title>
<path fill="none" stroke="#191970" d="M348.4826,-70.5C361.9275,-70.5 375.6816,-70.5 388.8504,-70.5"/>
<polygon fill="#191970" stroke="#191970" points="348.2763,-67.0001 338.2763,-70.5 348.2763,-74.0001 348.2763,-67.0001"/>
</g>
<!-- Node4 -->
<g id="node5" class="node">
<title>Node4</title>
<g id="a_node5"><a xlink:href="structtracktion__engine_1_1InputDeviceInstance_1_1WaveInputDeviceDestination.html" target="_top" xlink:title="tracktion_engine::InputDevice\lInstance::WaveInputDeviceDestination">
<polygon fill="none" stroke="#000000" points="374,-.5 374,-30.5 562,-30.5 562,-.5 374,-.5"/>
<text text-anchor="start" x="382" y="-18.5" font-family="Helvetica,sans-Serif" font-size="10.00" fill="#000000">tracktion_engine::InputDevice</text>
<text text-anchor="middle" x="468" y="-7.5" font-family="Helvetica,sans-Serif" font-size="10.00" fill="#000000">Instance::WaveInputDeviceDestination</text>
</a>
</g>
</g>
<!-- Node0&#45;&gt;Node4 -->
<g id="edge4" class="edge">
<title>Node0&#45;&gt;Node4</title>
<path fill="none" stroke="#191970" d="M324.6403,-52.8686C352.2753,-45.6652 383.906,-37.4202 410.413,-30.5108"/>
<polygon fill="#191970" stroke="#191970" points="323.4505,-49.5618 314.6567,-55.471 325.2162,-56.3354 323.4505,-49.5618"/>
</g>
<!-- Node1 -->
<g id="node2" class="node">
<title>Node1</title>
<g id="a_node2"><a xlink:href="classtracktion__engine_1_1Selectable.html" target="_top" xlink:title="Base class for things that can be selected, and whose properties can appear in the properties panel...">
<polygon fill="none" stroke="#000000" points="0,-61 0,-80 140,-80 140,-61 0,-61"/>
<text text-anchor="middle" x="70" y="-68" font-family="Helvetica,sans-Serif" font-size="10.00" fill="#000000">tracktion_engine::Selectable</text>
</a>
</g>
</g>
<!-- Node1&#45;&gt;Node0 -->
<g id="edge1" class="edge">
<title>Node1&#45;&gt;Node0</title>
<path fill="none" stroke="#191970" d="M150.3393,-70.5C158.7557,-70.5 167.3173,-70.5 175.744,-70.5"/>
<polygon fill="#191970" stroke="#191970" points="150.164,-67.0001 140.1639,-70.5 150.1639,-74.0001 150.164,-67.0001"/>
</g>
</g>
</svg>
