<?xml version="1.0" encoding="UTF-8" standalone="no"?>
<!DOCTYPE svg PUBLIC "-//W3C//DTD SVG 1.1//EN"
 "http://www.w3.org/Graphics/SVG/1.1/DTD/svg11.dtd">
<!-- Generated by graphviz version 2.43.0 (0)
 -->
<!-- Title: tracktion_engine::Modifier Pages: 1 -->
<svg width="739pt" height="264pt"
 viewBox="0.00 0.00 739.00 263.50" xmlns="http://www.w3.org/2000/svg" xmlns:xlink="http://www.w3.org/1999/xlink">
<g id="graph0" class="graph" transform="scale(1 1) rotate(0) translate(4 259.5)">
<title>tracktion_engine::Modifier</title>
<!-- Node1 -->
<g id="node1" class="node">
<title>Node1</title>
<g id="a_node1"><a xlink:title=" ">
<polygon fill="#bfbfbf" stroke="black" points="385,-115.5 385,-134.5 529,-134.5 529,-115.5 385,-115.5"/>
<text text-anchor="middle" x="457" y="-122.5" font-family="Helvetica,sans-Serif" font-size="10.00">tracktion_engine::Modifier</text>
</a>
</g>
</g>
<!-- Node6 -->
<g id="node6" class="node">
<title>Node6</title>
<g id="a_node6"><a xlink:href="classtracktion__engine_1_1BreakpointOscillatorModifier.html" target="_top" xlink:title=" ">
<polygon fill="none" stroke="black" points="569,-225 569,-255 727,-255 727,-225 569,-225"/>
<text text-anchor="start" x="577" y="-243" font-family="Helvetica,sans-Serif" font-size="10.00">tracktion_engine::Breakpoint</text>
<text text-anchor="middle" x="648" y="-232" font-family="Helvetica,sans-Serif" font-size="10.00">OscillatorModifier</text>
</a>
</g>
</g>
<!-- Node1&#45;&gt;Node6 -->
<g id="edge5" class="edge">
<title>Node1&#45;&gt;Node6</title>
<path fill="none" stroke="midnightblue" d="M473.63,-142.11C493.14,-162.49 528.43,-196.27 565,-216 571.27,-219.38 578.07,-222.34 584.98,-224.91"/>
<polygon fill="midnightblue" stroke="midnightblue" points="476.12,-139.65 466.73,-134.76 471.02,-144.45 476.12,-139.65"/>
</g>
<!-- Node7 -->
<g id="node7" class="node">
<title>Node7</title>
<g id="a_node7"><a xlink:href="classtracktion__engine_1_1EnvelopeFollowerModifier.html" target="_top" xlink:title=" ">
<polygon fill="none" stroke="black" points="573.5,-176 573.5,-206 722.5,-206 722.5,-176 573.5,-176"/>
<text text-anchor="start" x="581.5" y="-194" font-family="Helvetica,sans-Serif" font-size="10.00">tracktion_engine::Envelope</text>
<text text-anchor="middle" x="648" y="-183" font-family="Helvetica,sans-Serif" font-size="10.00">FollowerModifier</text>
</a>
</g>
</g>
<!-- Node1&#45;&gt;Node7 -->
<g id="edge6" class="edge">
<title>Node1&#45;&gt;Node7</title>
<path fill="none" stroke="midnightblue" d="M491.06,-138.36C512.1,-146.68 539.99,-157.41 565,-166 574.85,-169.39 585.45,-172.79 595.64,-175.95"/>
<polygon fill="midnightblue" stroke="midnightblue" points="492.21,-135.05 481.62,-134.6 489.62,-141.55 492.21,-135.05"/>
</g>
<!-- Node8 -->
<g id="node8" class="node">
<title>Node8</title>
<g id="a_node8"><a xlink:href="classtracktion__engine_1_1LFOModifier.html" target="_top" xlink:title=" ">
<polygon fill="none" stroke="black" points="566.5,-137.5 566.5,-156.5 729.5,-156.5 729.5,-137.5 566.5,-137.5"/>
<text text-anchor="middle" x="648" y="-144.5" font-family="Helvetica,sans-Serif" font-size="10.00">tracktion_engine::LFOModifier</text>
</a>
</g>
</g>
<!-- Node1&#45;&gt;Node8 -->
<g id="edge7" class="edge">
<title>Node1&#45;&gt;Node8</title>
<path fill="none" stroke="midnightblue" d="M539.25,-134.46C548.24,-135.5 557.39,-136.57 566.37,-137.61"/>
<polygon fill="midnightblue" stroke="midnightblue" points="539.52,-130.97 529.18,-133.29 538.71,-137.92 539.52,-130.97"/>
</g>
<!-- Node9 -->
<g id="node9" class="node">
<title>Node9</title>
<g id="a_node9"><a xlink:href="classtracktion__engine_1_1MIDITrackerModifier.html" target="_top" xlink:title=" ">
<polygon fill="none" stroke="black" points="567.5,-88 567.5,-118 728.5,-118 728.5,-88 567.5,-88"/>
<text text-anchor="start" x="575.5" y="-106" font-family="Helvetica,sans-Serif" font-size="10.00">tracktion_engine::MIDITracker</text>
<text text-anchor="middle" x="648" y="-95" font-family="Helvetica,sans-Serif" font-size="10.00">Modifier</text>
</a>
</g>
</g>
<!-- Node1&#45;&gt;Node9 -->
<g id="edge8" class="edge">
<title>Node1&#45;&gt;Node9</title>
<path fill="none" stroke="midnightblue" d="M539.21,-115.55C548.53,-114.46 558.03,-113.36 567.33,-112.27"/>
<polygon fill="midnightblue" stroke="midnightblue" points="538.71,-112.08 529.18,-116.71 539.52,-119.03 538.71,-112.08"/>
</g>
<!-- Node10 -->
<g id="node10" class="node">
<title>Node10</title>
<g id="a_node10"><a xlink:href="classtracktion__engine_1_1RandomModifier.html" target="_top" xlink:title=" ">
<polygon fill="none" stroke="black" points="575.5,-39 575.5,-69 720.5,-69 720.5,-39 575.5,-39"/>
<text text-anchor="start" x="583.5" y="-57" font-family="Helvetica,sans-Serif" font-size="10.00">tracktion_engine::Random</text>
<text text-anchor="middle" x="648" y="-46" font-family="Helvetica,sans-Serif" font-size="10.00">Modifier</text>
</a>
</g>
</g>
<!-- Node1&#45;&gt;Node10 -->
<g id="edge9" class="edge">
<title>Node1&#45;&gt;Node10</title>
<path fill="none" stroke="midnightblue" d="M486.95,-111.07C508.24,-101.12 538.05,-87.82 565,-78 573.64,-74.85 582.91,-71.82 591.99,-69.04"/>
<polygon fill="midnightblue" stroke="midnightblue" points="485.35,-107.95 477.8,-115.38 488.34,-114.28 485.35,-107.95"/>
</g>
<!-- Node11 -->
<g id="node11" class="node">
<title>Node11</title>
<g id="a_node11"><a xlink:href="classtracktion__engine_1_1StepModifier.html" target="_top" xlink:title=" ">
<polygon fill="none" stroke="black" points="565,-0.5 565,-19.5 731,-19.5 731,-0.5 565,-0.5"/>
<text text-anchor="middle" x="648" y="-7.5" font-family="Helvetica,sans-Serif" font-size="10.00">tracktion_engine::StepModifier</text>
</a>
</g>
</g>
<!-- Node1&#45;&gt;Node11 -->
<g id="edge10" class="edge">
<title>Node1&#45;&gt;Node11</title>
<path fill="none" stroke="midnightblue" d="M472.36,-107.56C491.28,-85.77 526.69,-48.92 565,-29 572.39,-25.16 580.55,-22.08 588.78,-19.63"/>
<polygon fill="midnightblue" stroke="midnightblue" points="469.53,-105.48 465.73,-115.37 474.87,-110.02 469.53,-105.48"/>
</g>
<!-- Node2 -->
<g id="node2" class="node">
<title>Node2</title>
<g id="a_node2"><a xlink:href="classtracktion__engine_1_1AutomatableEditItem.html" target="_top" xlink:title="Base class for elements that have some kind of automatable parameters.">
<polygon fill="none" stroke="black" points="182,-154 182,-184 349,-184 349,-154 182,-154"/>
<text text-anchor="start" x="190" y="-172" font-family="Helvetica,sans-Serif" font-size="10.00">tracktion_engine::Automatable</text>
<text text-anchor="middle" x="265.5" y="-161" font-family="Helvetica,sans-Serif" font-size="10.00">EditItem</text>
</a>
</g>
</g>
<!-- Node2&#45;&gt;Node1 -->
<g id="edge1" class="edge">
<title>Node2&#45;&gt;Node1</title>
<path fill="none" stroke="midnightblue" d="M341.09,-151.68C366.27,-145.84 393.44,-139.53 415.03,-134.51"/>
<polygon fill="midnightblue" stroke="midnightblue" points="340.13,-148.31 331.19,-153.98 341.72,-155.13 340.13,-148.31"/>
</g>
<!-- Node3 -->
<g id="node3" class="node">
<title>Node3</title>
<g id="a_node3"><a xlink:href="classtracktion__engine_1_1EditItem.html" target="_top" xlink:title="Base class for objects that live inside an edit &#45; e.g.">
<polygon fill="none" stroke="black" points="0,-159.5 0,-178.5 146,-178.5 146,-159.5 0,-159.5"/>
<text text-anchor="middle" x="73" y="-166.5" font-family="Helvetica,sans-Serif" font-size="10.00">tracktion_engine::EditItem</text>
</a>
</g>
</g>
<!-- Node3&#45;&gt;Node2 -->
<g id="edge2" class="edge">
<title>Node3&#45;&gt;Node2</title>
<path fill="none" stroke="midnightblue" d="M156.27,-169C164.74,-169 173.36,-169 181.83,-169"/>
<polygon fill="midnightblue" stroke="midnightblue" points="156.02,-165.5 146.02,-169 156.02,-172.5 156.02,-165.5"/>
</g>
<!-- Node4 -->
<g id="node4" class="node">
<title>Node4</title>
<g id="a_node4"><a xlink:href="classtracktion__engine_1_1Selectable.html" target="_top" xlink:title="Base class for things that can be selected, and whose properties can appear in the properties panel.">
<polygon fill="none" stroke="black" points="188,-115.5 188,-134.5 343,-134.5 343,-115.5 188,-115.5"/>
<text text-anchor="middle" x="265.5" y="-122.5" font-family="Helvetica,sans-Serif" font-size="10.00">tracktion_engine::Selectable</text>
</a>
</g>
</g>
<!-- Node4&#45;&gt;Node1 -->
<g id="edge3" class="edge">
<title>Node4&#45;&gt;Node1</title>
<path fill="none" stroke="midnightblue" d="M353.11,-125C363.68,-125 374.39,-125 384.7,-125"/>
<polygon fill="midnightblue" stroke="midnightblue" points="353.03,-121.5 343.03,-125 353.03,-128.5 353.03,-121.5"/>
</g>
<!-- Node5 -->
<g id="node5" class="node">
<title>Node5</title>
<g id="a_node5"><a xlink:href="structtracktion__engine_1_1AutomatableParameter_1_1ModifierSource.html" target="_top" xlink:title="Base class for things that can be used to modify parameters.">
<polygon fill="none" stroke="black" points="182,-66 182,-96 349,-96 349,-66 182,-66"/>
<text text-anchor="start" x="190" y="-84" font-family="Helvetica,sans-Serif" font-size="10.00">tracktion_engine::Automatable</text>
<text text-anchor="middle" x="265.5" y="-73" font-family="Helvetica,sans-Serif" font-size="10.00">Parameter::ModifierSource</text>
</a>
</g>
</g>
<!-- Node5&#45;&gt;Node1 -->
<g id="edge4" class="edge">
<title>Node5&#45;&gt;Node1</title>
<path fill="none" stroke="midnightblue" d="M341.09,-98.32C366.27,-104.16 393.44,-110.47 415.03,-115.49"/>
<polygon fill="midnightblue" stroke="midnightblue" points="341.72,-94.87 331.19,-96.02 340.13,-101.69 341.72,-94.87"/>
</g>
</g>
</svg>
