<?xml version="1.0" encoding="UTF-8" standalone="no"?>
<!DOCTYPE svg PUBLIC "-//W3C//DTD SVG 1.1//EN"
 "http://www.w3.org/Graphics/SVG/1.1/DTD/svg11.dtd">
<!-- Generated by graphviz version 2.40.1 (20161225.0304)
 -->
<!-- Title: tracktion_engine::TrackCompManager::TrackComp Pages: 1 -->
<svg width="304pt" height="106pt"
 viewBox="0.00 0.00 304.00 106.00" xmlns="http://www.w3.org/2000/svg" xmlns:xlink="http://www.w3.org/1999/xlink">
<g id="graph0" class="graph" transform="scale(1 1) rotate(0) translate(4 102)">
<title>tracktion_engine::TrackCompManager::TrackComp</title>
<!-- Node0 -->
<g id="node1" class="node">
<title>Node0</title>
<polygon fill="#bfbfbf" stroke="#000000" points="75.5,-.5 75.5,-30.5 220.5,-30.5 220.5,-.5 75.5,-.5"/>
<text text-anchor="start" x="83.5" y="-18.5" font-family="Helvetica,sans-Serif" font-size="10.00" fill="#000000">tracktion_engine::TrackComp</text>
<text text-anchor="middle" x="148" y="-7.5" font-family="Helvetica,sans-Serif" font-size="10.00" fill="#000000">Manager::TrackComp</text>
</g>
<!-- Node1 -->
<g id="node2" class="node">
<title>Node1</title>
<g id="a_node2"><a xlink:href="classtracktion__engine_1_1Selectable.html" target="_top" xlink:title="Base class for things that can be selected, and whose properties can appear in the properties panel...">
<polygon fill="none" stroke="#000000" points="0,-73 0,-92 140,-92 140,-73 0,-73"/>
<text text-anchor="middle" x="70" y="-80" font-family="Helvetica,sans-Serif" font-size="10.00" fill="#000000">tracktion_engine::Selectable</text>
</a>
</g>
</g>
<!-- Node1&#45;&gt;Node0 -->
<g id="edge1" class="edge">
<title>Node1&#45;&gt;Node0</title>
<path fill="none" stroke="#191970" d="M88.8583,-66.3012C101.5368,-55.4107 118.1296,-41.1579 130.512,-30.5218"/>
<polygon fill="#191970" stroke="#191970" points="86.4806,-63.7296 81.1755,-72.9005 91.0418,-69.0396 86.4806,-63.7296"/>
</g>
<!-- Node2 -->
<g id="node3" class="node">
<title>Node2</title>
<g id="a_node3"><a xlink:href="classtracktion__engine_1_1ValueTreeObjectList.html" target="_top" xlink:title="tracktion_engine::ValueTree\lObjectList\&lt; CompSection \&gt;">
<polygon fill="none" stroke="#000000" points="158,-67.5 158,-97.5 296,-97.5 296,-67.5 158,-67.5"/>
<text text-anchor="start" x="166" y="-85.5" font-family="Helvetica,sans-Serif" font-size="10.00" fill="#000000">tracktion_engine::ValueTree</text>
<text text-anchor="middle" x="227" y="-74.5" font-family="Helvetica,sans-Serif" font-size="10.00" fill="#000000">ObjectList&lt; CompSection &gt;</text>
</a>
</g>
</g>
<!-- Node2&#45;&gt;Node0 -->
<g id="edge2" class="edge">
<title>Node2&#45;&gt;Node0</title>
<path fill="none" stroke="#191970" d="M201.3908,-60.7808C189.7854,-50.9383 176.3468,-39.541 165.8554,-30.6432"/>
<polygon fill="#191970" stroke="#191970" points="199.1833,-63.4978 209.0737,-67.2967 203.711,-58.1593 199.1833,-63.4978"/>
</g>
</g>
</svg>
