<?xml version="1.0" encoding="UTF-8" standalone="no"?>
<!DOCTYPE svg PUBLIC "-//W3C//DTD SVG 1.1//EN"
 "http://www.w3.org/Graphics/SVG/1.1/DTD/svg11.dtd">
<!-- Generated by graphviz version 2.40.1 (20161225.0304)
 -->
<!-- Title: tracktion_engine::AutomatableParameter::Listener Pages: 1 -->
<svg width="278pt" height="106pt"
 viewBox="0.00 0.00 277.50 106.00" xmlns="http://www.w3.org/2000/svg" xmlns:xlink="http://www.w3.org/1999/xlink">
<g id="graph0" class="graph" transform="scale(1 1) rotate(0) translate(4 102)">
<title>tracktion_engine::AutomatableParameter::Listener</title>
<!-- Node0 -->
<g id="node1" class="node">
<title>Node0</title>
<polygon fill="#bfbfbf" stroke="#000000" points="62.5,-67.5 62.5,-97.5 211.5,-97.5 211.5,-67.5 62.5,-67.5"/>
<text text-anchor="start" x="70.5" y="-85.5" font-family="Helvetica,sans-Serif" font-size="10.00" fill="#000000">tracktion_engine::Automatable</text>
<text text-anchor="middle" x="137" y="-74.5" font-family="Helvetica,sans-Serif" font-size="10.00" fill="#000000">Parameter::Listener</text>
</g>
<!-- Node1 -->
<g id="node2" class="node">
<title>Node1</title>
<g id="a_node2"><a xlink:href="classtracktion__engine_1_1ExternalController.html" target="_top" xlink:title="Acts as a holder for a ControlSurface object. ">
<polygon fill="none" stroke="#000000" points="0,-.5 0,-30.5 130,-30.5 130,-.5 0,-.5"/>
<text text-anchor="start" x="8" y="-18.5" font-family="Helvetica,sans-Serif" font-size="10.00" fill="#000000">tracktion_engine::External</text>
<text text-anchor="middle" x="65" y="-7.5" font-family="Helvetica,sans-Serif" font-size="10.00" fill="#000000">Controller</text>
</a>
</g>
</g>
<!-- Node0&#45;&gt;Node1 -->
<g id="edge1" class="edge">
<title>Node0&#45;&gt;Node1</title>
<path fill="none" stroke="#8b1a1a" d="M113.048,-60.2113C102.6129,-50.5009 90.6512,-39.3698 81.2733,-30.6432"/>
<polygon fill="#8b1a1a" stroke="#8b1a1a" points="110.9571,-63.0466 120.6621,-67.2967 115.7257,-57.9221 110.9571,-63.0466"/>
</g>
<!-- Node2 -->
<g id="node3" class="node">
<title>Node2</title>
<g id="a_node3"><a xlink:href="structtracktion__engine_1_1PluginEffect.html" target="_top" xlink:title="tracktion_engine::Plugin\lEffect">
<polygon fill="none" stroke="#000000" points="148.5,-.5 148.5,-30.5 269.5,-30.5 269.5,-.5 148.5,-.5"/>
<text text-anchor="start" x="156.5" y="-18.5" font-family="Helvetica,sans-Serif" font-size="10.00" fill="#000000">tracktion_engine::Plugin</text>
<text text-anchor="middle" x="209" y="-7.5" font-family="Helvetica,sans-Serif" font-size="10.00" fill="#000000">Effect</text>
</a>
</g>
</g>
<!-- Node0&#45;&gt;Node2 -->
<g id="edge2" class="edge">
<title>Node0&#45;&gt;Node2</title>
<path fill="none" stroke="#191970" d="M160.952,-60.2113C171.3871,-50.5009 183.3488,-39.3698 192.7267,-30.6432"/>
<polygon fill="#191970" stroke="#191970" points="158.2743,-57.9221 153.3379,-67.2967 163.0429,-63.0466 158.2743,-57.9221"/>
</g>
</g>
</svg>
