<?xml version="1.0" encoding="UTF-8" standalone="no"?>
<!DOCTYPE svg PUBLIC "-//W3C//DTD SVG 1.1//EN"
 "http://www.w3.org/Graphics/SVG/1.1/DTD/svg11.dtd">
<!-- Generated by graphviz version 2.43.0 (0)
 -->
<!-- Title: tracktion::engine::AutomatableParameter::ModifierAssignment Pages: 1 -->
<svg width="335pt" height="361pt"
 viewBox="0.00 0.00 335.00 360.50" xmlns="http://www.w3.org/2000/svg" xmlns:xlink="http://www.w3.org/1999/xlink">
<g id="graph0" class="graph" transform="scale(1 1) rotate(0) translate(4 356.5)">
<title>tracktion::engine::AutomatableParameter::ModifierAssignment</title>
<!-- Node1 -->
<g id="Node000001" class="node">
<title>Node1</title>
<g id="a_Node000001"><a xlink:title="Connects a modifier source to an AutomatableParameter.">
<polygon fill="#999999" stroke="#666666" points="130,-185.5 0,-185.5 0,-144.5 130,-144.5 130,-185.5"/>
<text text-anchor="start" x="8" y="-173.5" font-family="Helvetica,sans-Serif" font-size="10.00">tracktion::engine::</text>
<text text-anchor="start" x="8" y="-162.5" font-family="Helvetica,sans-Serif" font-size="10.00">AutomatableParameter</text>
<text text-anchor="middle" x="65" y="-151.5" font-family="Helvetica,sans-Serif" font-size="10.00">::ModifierAssignment</text>
</a>
</g>
</g>
<!-- Node2 -->
<g id="Node000002" class="node">
<title>Node2</title>
<g id="a_Node000002"><a xlink:href="structtracktion_1_1engine_1_1BreakpointOscillatorModifier_1_1Assignment.html" target="_top" xlink:title=" ">
<polygon fill="white" stroke="#666666" points="324.5,-352.5 168.5,-352.5 168.5,-311.5 324.5,-311.5 324.5,-352.5"/>
<text text-anchor="start" x="176.5" y="-340.5" font-family="Helvetica,sans-Serif" font-size="10.00">tracktion::engine::</text>
<text text-anchor="start" x="176.5" y="-329.5" font-family="Helvetica,sans-Serif" font-size="10.00">BreakpointOscillatorModifier</text>
<text text-anchor="middle" x="246.5" y="-318.5" font-family="Helvetica,sans-Serif" font-size="10.00">::Assignment</text>
</a>
</g>
</g>
<!-- Node1&#45;&gt;Node2 -->
<g id="edge1_Node000001_Node000002" class="edge">
<title>Node1&#45;&gt;Node2</title>
<g id="a_edge1_Node000001_Node000002"><a xlink:title=" ">
<path fill="none" stroke="#63b8ff" d="M80.73,-194.83C97.45,-225.86 127.48,-273.92 166,-303 170.1,-306.1 174.57,-308.89 179.23,-311.41"/>
<polygon fill="#63b8ff" stroke="#63b8ff" points="83.72,-193 75.97,-185.78 77.53,-196.26 83.72,-193"/>
</a>
</g>
</g>
<!-- Node3 -->
<g id="Node000003" class="node">
<title>Node3</title>
<g id="a_Node000003"><a xlink:href="structtracktion_1_1engine_1_1EnvelopeFollowerModifier_1_1Assignment.html" target="_top" xlink:title=" ">
<polygon fill="white" stroke="#666666" points="318,-293.5 175,-293.5 175,-252.5 318,-252.5 318,-293.5"/>
<text text-anchor="start" x="183" y="-281.5" font-family="Helvetica,sans-Serif" font-size="10.00">tracktion::engine::</text>
<text text-anchor="start" x="183" y="-270.5" font-family="Helvetica,sans-Serif" font-size="10.00">EnvelopeFollowerModifier</text>
<text text-anchor="middle" x="246.5" y="-259.5" font-family="Helvetica,sans-Serif" font-size="10.00">::Assignment</text>
</a>
</g>
</g>
<!-- Node1&#45;&gt;Node3 -->
<g id="edge2_Node000001_Node000003" class="edge">
<title>Node1&#45;&gt;Node3</title>
<g id="a_edge2_Node000001_Node000003"><a xlink:title=" ">
<path fill="none" stroke="#63b8ff" d="M96.15,-192.44C115.16,-208.71 140.8,-228.85 166,-243 172.05,-246.39 178.55,-249.55 185.14,-252.45"/>
<polygon fill="#63b8ff" stroke="#63b8ff" points="98.27,-189.64 88.42,-185.73 93.68,-194.93 98.27,-189.64"/>
</a>
</g>
</g>
<!-- Node4 -->
<g id="Node000004" class="node">
<title>Node4</title>
<g id="a_Node000004"><a xlink:href="structtracktion_1_1engine_1_1LFOModifier_1_1Assignment.html" target="_top" xlink:title=" ">
<polygon fill="white" stroke="#666666" points="316,-234 177,-234 177,-204 316,-204 316,-234"/>
<text text-anchor="start" x="185" y="-222" font-family="Helvetica,sans-Serif" font-size="10.00">tracktion::engine::</text>
<text text-anchor="middle" x="246.5" y="-211" font-family="Helvetica,sans-Serif" font-size="10.00">LFOModifier::Assignment</text>
</a>
</g>
</g>
<!-- Node1&#45;&gt;Node4 -->
<g id="edge3_Node000001_Node000004" class="edge">
<title>Node1&#45;&gt;Node4</title>
<g id="a_edge3_Node000001_Node000004"><a xlink:title=" ">
<path fill="none" stroke="#63b8ff" d="M139.76,-187.19C158.55,-192.84 178.31,-198.79 195.59,-203.99"/>
<polygon fill="#63b8ff" stroke="#63b8ff" points="140.63,-183.8 130.04,-184.27 138.61,-190.5 140.63,-183.8"/>
</a>
</g>
</g>
<!-- Node5 -->
<g id="Node000005" class="node">
<title>Node5</title>
<g id="a_Node000005"><a xlink:href="structtracktion_1_1engine_1_1MIDITrackerModifier_1_1Assignment.html" target="_top" xlink:title=" ">
<polygon fill="white" stroke="#666666" points="303,-185.5 190,-185.5 190,-144.5 303,-144.5 303,-185.5"/>
<text text-anchor="start" x="198" y="-173.5" font-family="Helvetica,sans-Serif" font-size="10.00">tracktion::engine::</text>
<text text-anchor="start" x="198" y="-162.5" font-family="Helvetica,sans-Serif" font-size="10.00">MIDITrackerModifier</text>
<text text-anchor="middle" x="246.5" y="-151.5" font-family="Helvetica,sans-Serif" font-size="10.00">::Assignment</text>
</a>
</g>
</g>
<!-- Node1&#45;&gt;Node5 -->
<g id="edge4_Node000001_Node000005" class="edge">
<title>Node1&#45;&gt;Node5</title>
<g id="a_edge4_Node000001_Node000005"><a xlink:title=" ">
<path fill="none" stroke="#63b8ff" d="M140.25,-165C156.83,-165 174.14,-165 189.81,-165"/>
<polygon fill="#63b8ff" stroke="#63b8ff" points="140.04,-161.5 130.04,-165 140.04,-168.5 140.04,-161.5"/>
</a>
</g>
</g>
<!-- Node6 -->
<g id="Node000006" class="node">
<title>Node6</title>
<g id="a_Node000006"><a xlink:href="structtracktion_1_1engine_1_1MacroParameter_1_1Assignment.html" target="_top" xlink:title="An Assignment between a MacroParameter and an AutomatableParameter.">
<polygon fill="white" stroke="#666666" points="327,-126 166,-126 166,-96 327,-96 327,-126"/>
<text text-anchor="start" x="174" y="-114" font-family="Helvetica,sans-Serif" font-size="10.00">tracktion::engine::</text>
<text text-anchor="middle" x="246.5" y="-103" font-family="Helvetica,sans-Serif" font-size="10.00">MacroParameter::Assignment</text>
</a>
</g>
</g>
<!-- Node1&#45;&gt;Node6 -->
<g id="edge5_Node000001_Node000006" class="edge">
<title>Node1&#45;&gt;Node6</title>
<g id="a_edge5_Node000001_Node000006"><a xlink:title=" ">
<path fill="none" stroke="#63b8ff" d="M139.76,-142.81C158.55,-137.16 178.31,-131.21 195.59,-126.01"/>
<polygon fill="#63b8ff" stroke="#63b8ff" points="138.61,-139.5 130.04,-145.73 140.63,-146.2 138.61,-139.5"/>
</a>
</g>
</g>
<!-- Node7 -->
<g id="Node000007" class="node">
<title>Node7</title>
<g id="a_Node000007"><a xlink:href="structtracktion_1_1engine_1_1RandomModifier_1_1Assignment.html" target="_top" xlink:title=" ">
<polygon fill="white" stroke="#666666" points="327,-78 166,-78 166,-48 327,-48 327,-78"/>
<text text-anchor="start" x="174" y="-66" font-family="Helvetica,sans-Serif" font-size="10.00">tracktion::engine::</text>
<text text-anchor="middle" x="246.5" y="-55" font-family="Helvetica,sans-Serif" font-size="10.00">RandomModifier::Assignment</text>
</a>
</g>
</g>
<!-- Node1&#45;&gt;Node7 -->
<g id="edge6_Node000001_Node000007" class="edge">
<title>Node1&#45;&gt;Node7</title>
<g id="a_edge6_Node000001_Node000007"><a xlink:title=" ">
<path fill="none" stroke="#63b8ff" d="M95.06,-137.61C114.02,-120.99 140,-100.47 166,-87 172.53,-83.62 179.61,-80.63 186.77,-78.02"/>
<polygon fill="#63b8ff" stroke="#63b8ff" points="92.52,-135.19 87.39,-144.46 97.18,-140.41 92.52,-135.19"/>
</a>
</g>
</g>
<!-- Node8 -->
<g id="Node000008" class="node">
<title>Node8</title>
<g id="a_Node000008"><a xlink:href="structtracktion_1_1engine_1_1StepModifier_1_1Assignment.html" target="_top" xlink:title=" ">
<polygon fill="white" stroke="#666666" points="317.5,-30 175.5,-30 175.5,0 317.5,0 317.5,-30"/>
<text text-anchor="start" x="183.5" y="-18" font-family="Helvetica,sans-Serif" font-size="10.00">tracktion::engine::</text>
<text text-anchor="middle" x="246.5" y="-7" font-family="Helvetica,sans-Serif" font-size="10.00">StepModifier::Assignment</text>
</a>
</g>
</g>
<!-- Node1&#45;&gt;Node8 -->
<g id="edge7_Node000001_Node000008" class="edge">
<title>Node1&#45;&gt;Node8</title>
<g id="a_edge7_Node000001_Node000008"><a xlink:title=" ">
<path fill="none" stroke="#63b8ff" d="M82.14,-135.57C99.32,-106.89 129.1,-64.06 166,-39 171.01,-35.6 176.51,-32.67 182.22,-30.14"/>
<polygon fill="#63b8ff" stroke="#63b8ff" points="79.03,-133.94 77.01,-144.34 85.08,-137.48 79.03,-133.94"/>
</a>
</g>
</g>
</g>
</svg>
