<?xml version="1.0" encoding="UTF-8" standalone="no"?>
<!DOCTYPE svg PUBLIC "-//W3C//DTD SVG 1.1//EN"
 "http://www.w3.org/Graphics/SVG/1.1/DTD/svg11.dtd">
<!-- Generated by graphviz version 2.43.0 (0)
 -->
<!-- Title: tracktion::engine::WarpTimeEffect Pages: 1 -->
<svg width="151pt" height="173pt"
 viewBox="0.00 0.00 151.00 173.00" xmlns="http://www.w3.org/2000/svg" xmlns:xlink="http://www.w3.org/1999/xlink">
<g id="graph0" class="graph" transform="scale(1 1) rotate(0) translate(4 169)">
<title>tracktion::engine::WarpTimeEffect</title>
<!-- Node1 -->
<g id="node1" class="node">
<title>Node1</title>
<g id="a_node1"><a xlink:title=" ">
<polygon fill="#bfbfbf" stroke="black" points="19,-0.5 19,-30.5 124,-30.5 124,-0.5 19,-0.5"/>
<text text-anchor="start" x="27" y="-18.5" font-family="Helvetica,sans-Serif" font-size="10.00">tracktion::engine::</text>
<text text-anchor="middle" x="71.5" y="-7.5" font-family="Helvetica,sans-Serif" font-size="10.00">WarpTimeEffect</text>
</a>
</g>
</g>
<!-- Node2 -->
<g id="node2" class="node">
<title>Node2</title>
<g id="a_node2"><a xlink:href="classtracktion_1_1engine_1_1ClipEffect.html" target="_top" xlink:title=" ">
<polygon fill="none" stroke="black" points="19,-67.5 19,-97.5 124,-97.5 124,-67.5 19,-67.5"/>
<text text-anchor="start" x="27" y="-85.5" font-family="Helvetica,sans-Serif" font-size="10.00">tracktion::engine::</text>
<text text-anchor="middle" x="71.5" y="-74.5" font-family="Helvetica,sans-Serif" font-size="10.00">ClipEffect</text>
</a>
</g>
</g>
<!-- Node2&#45;&gt;Node1 -->
<g id="edge1" class="edge">
<title>Node2&#45;&gt;Node1</title>
<path fill="none" stroke="midnightblue" d="M71.5,-57.11C71.5,-48.15 71.5,-38.32 71.5,-30.58"/>
<polygon fill="midnightblue" stroke="midnightblue" points="68,-57.4 71.5,-67.4 75,-57.4 68,-57.4"/>
</g>
<!-- Node3 -->
<g id="node3" class="node">
<title>Node3</title>
<g id="a_node3"><a xlink:href="structtracktion_1_1engine_1_1ValueTreeAllEventListener.html" target="_top" xlink:title=" ">
<polygon fill="none" stroke="black" points="0,-134.5 0,-164.5 143,-164.5 143,-134.5 0,-134.5"/>
<text text-anchor="start" x="8" y="-152.5" font-family="Helvetica,sans-Serif" font-size="10.00">tracktion::engine::</text>
<text text-anchor="middle" x="71.5" y="-141.5" font-family="Helvetica,sans-Serif" font-size="10.00">ValueTreeAllEventListener</text>
</a>
</g>
</g>
<!-- Node3&#45;&gt;Node2 -->
<g id="edge2" class="edge">
<title>Node3&#45;&gt;Node2</title>
<path fill="none" stroke="darkgreen" d="M71.5,-124.11C71.5,-115.15 71.5,-105.32 71.5,-97.58"/>
<polygon fill="darkgreen" stroke="darkgreen" points="68,-124.4 71.5,-134.4 75,-124.4 68,-124.4"/>
</g>
</g>
</svg>
