<?xml version="1.0" encoding="UTF-8" standalone="no"?>
<!DOCTYPE svg PUBLIC "-//W3C//DTD SVG 1.1//EN"
 "http://www.w3.org/Graphics/SVG/1.1/DTD/svg11.dtd">
<!-- Generated by graphviz version 2.43.0 (0)
 -->
<!-- Title: tracktion_engine::Clipboard::ContentType Pages: 1 -->
<svg width="346pt" height="529pt"
 viewBox="0.00 0.00 346.00 529.00" xmlns="http://www.w3.org/2000/svg" xmlns:xlink="http://www.w3.org/1999/xlink">
<g id="graph0" class="graph" transform="scale(1 1) rotate(0) translate(4 525)">
<title>tracktion_engine::Clipboard::ContentType</title>
<!-- Node1 -->
<g id="node1" class="node">
<title>Node1</title>
<g id="a_node1"><a xlink:title=" ">
<polygon fill="#bfbfbf" stroke="black" points="0,-245.5 0,-275.5 151,-275.5 151,-245.5 0,-245.5"/>
<text text-anchor="start" x="8" y="-263.5" font-family="Helvetica,sans-Serif" font-size="10.00">tracktion_engine::Clipboard</text>
<text text-anchor="middle" x="75.5" y="-252.5" font-family="Helvetica,sans-Serif" font-size="10.00">::ContentType</text>
</a>
</g>
</g>
<!-- Node2 -->
<g id="node2" class="node">
<title>Node2</title>
<g id="a_node2"><a xlink:href="structtracktion__engine_1_1Clipboard_1_1AutomationPoints.html" target="_top" xlink:title=" ">
<polygon fill="none" stroke="black" points="187,-490.5 187,-520.5 338,-520.5 338,-490.5 187,-490.5"/>
<text text-anchor="start" x="195" y="-508.5" font-family="Helvetica,sans-Serif" font-size="10.00">tracktion_engine::Clipboard</text>
<text text-anchor="middle" x="262.5" y="-497.5" font-family="Helvetica,sans-Serif" font-size="10.00">::AutomationPoints</text>
</a>
</g>
</g>
<!-- Node1&#45;&gt;Node2 -->
<g id="edge1" class="edge">
<title>Node1&#45;&gt;Node2</title>
<path fill="none" stroke="midnightblue" d="M82.2,-285.56C93.86,-331.2 124.78,-428.08 187,-481.5 191.02,-484.95 195.55,-487.91 200.33,-490.44"/>
<polygon fill="midnightblue" stroke="midnightblue" points="85.54,-284.5 79.76,-275.62 78.74,-286.17 85.54,-284.5"/>
</g>
<!-- Node3 -->
<g id="node3" class="node">
<title>Node3</title>
<g id="a_node3"><a xlink:href="structtracktion__engine_1_1Clipboard_1_1Clips.html" target="_top" xlink:title=" ">
<polygon fill="none" stroke="black" points="187,-441.5 187,-471.5 338,-471.5 338,-441.5 187,-441.5"/>
<text text-anchor="start" x="195" y="-459.5" font-family="Helvetica,sans-Serif" font-size="10.00">tracktion_engine::Clipboard</text>
<text text-anchor="middle" x="262.5" y="-448.5" font-family="Helvetica,sans-Serif" font-size="10.00">::Clips</text>
</a>
</g>
</g>
<!-- Node1&#45;&gt;Node3 -->
<g id="edge2" class="edge">
<title>Node1&#45;&gt;Node3</title>
<path fill="none" stroke="midnightblue" d="M85.94,-285.22C101.42,-322.52 135.7,-393.04 187,-432.5 191.42,-435.9 196.33,-438.82 201.46,-441.34"/>
<polygon fill="midnightblue" stroke="midnightblue" points="89.06,-283.59 82.07,-275.63 82.56,-286.21 89.06,-283.59"/>
</g>
<!-- Node4 -->
<g id="node4" class="node">
<title>Node4</title>
<g id="a_node4"><a xlink:href="structtracktion__engine_1_1Clipboard_1_1MIDINotes.html" target="_top" xlink:title=" ">
<polygon fill="none" stroke="black" points="187,-392.5 187,-422.5 338,-422.5 338,-392.5 187,-392.5"/>
<text text-anchor="start" x="195" y="-410.5" font-family="Helvetica,sans-Serif" font-size="10.00">tracktion_engine::Clipboard</text>
<text text-anchor="middle" x="262.5" y="-399.5" font-family="Helvetica,sans-Serif" font-size="10.00">::MIDINotes</text>
</a>
</g>
</g>
<!-- Node1&#45;&gt;Node4 -->
<g id="edge3" class="edge">
<title>Node1&#45;&gt;Node4</title>
<path fill="none" stroke="midnightblue" d="M91.79,-284C110.91,-311.61 146.14,-357.01 187,-383.5 192.24,-386.9 198.01,-389.85 203.94,-392.41"/>
<polygon fill="midnightblue" stroke="midnightblue" points="94.67,-282.02 86.16,-275.71 88.88,-285.95 94.67,-282.02"/>
</g>
<!-- Node5 -->
<g id="node5" class="node">
<title>Node5</title>
<g id="a_node5"><a xlink:href="structtracktion__engine_1_1Clipboard_1_1Modifiers.html" target="_top" xlink:title=" ">
<polygon fill="none" stroke="black" points="187,-343.5 187,-373.5 338,-373.5 338,-343.5 187,-343.5"/>
<text text-anchor="start" x="195" y="-361.5" font-family="Helvetica,sans-Serif" font-size="10.00">tracktion_engine::Clipboard</text>
<text text-anchor="middle" x="262.5" y="-350.5" font-family="Helvetica,sans-Serif" font-size="10.00">::Modifiers</text>
</a>
</g>
</g>
<!-- Node1&#45;&gt;Node5 -->
<g id="edge4" class="edge">
<title>Node1&#45;&gt;Node5</title>
<path fill="none" stroke="midnightblue" d="M103.52,-281.72C125.13,-297.91 156.73,-319.85 187,-334.5 193.73,-337.76 201,-340.72 208.28,-343.37"/>
<polygon fill="midnightblue" stroke="midnightblue" points="105.54,-278.87 95.46,-275.61 101.31,-284.44 105.54,-278.87"/>
</g>
<!-- Node6 -->
<g id="node6" class="node">
<title>Node6</title>
<g id="a_node6"><a xlink:href="structtracktion__engine_1_1Clipboard_1_1Pitches.html" target="_top" xlink:title=" ">
<polygon fill="none" stroke="black" points="187,-294.5 187,-324.5 338,-324.5 338,-294.5 187,-294.5"/>
<text text-anchor="start" x="195" y="-312.5" font-family="Helvetica,sans-Serif" font-size="10.00">tracktion_engine::Clipboard</text>
<text text-anchor="middle" x="262.5" y="-301.5" font-family="Helvetica,sans-Serif" font-size="10.00">::Pitches</text>
</a>
</g>
</g>
<!-- Node1&#45;&gt;Node6 -->
<g id="edge5" class="edge">
<title>Node1&#45;&gt;Node6</title>
<path fill="none" stroke="midnightblue" d="M143.04,-278.12C163.28,-283.48 185.32,-289.32 204.84,-294.49"/>
<polygon fill="midnightblue" stroke="midnightblue" points="143.83,-274.71 133.26,-275.53 142.03,-281.48 143.83,-274.71"/>
</g>
<!-- Node7 -->
<g id="node7" class="node">
<title>Node7</title>
<g id="a_node7"><a xlink:href="structtracktion__engine_1_1Clipboard_1_1Plugins.html" target="_top" xlink:title=" ">
<polygon fill="none" stroke="black" points="187,-245.5 187,-275.5 338,-275.5 338,-245.5 187,-245.5"/>
<text text-anchor="start" x="195" y="-263.5" font-family="Helvetica,sans-Serif" font-size="10.00">tracktion_engine::Clipboard</text>
<text text-anchor="middle" x="262.5" y="-252.5" font-family="Helvetica,sans-Serif" font-size="10.00">::Plugins</text>
</a>
</g>
</g>
<!-- Node1&#45;&gt;Node7 -->
<g id="edge6" class="edge">
<title>Node1&#45;&gt;Node7</title>
<path fill="none" stroke="midnightblue" d="M161.47,-260.5C169.93,-260.5 178.47,-260.5 186.81,-260.5"/>
<polygon fill="midnightblue" stroke="midnightblue" points="161.21,-257 151.21,-260.5 161.21,-264 161.21,-257"/>
</g>
<!-- Node8 -->
<g id="node8" class="node">
<title>Node8</title>
<g id="a_node8"><a xlink:href="structtracktion__engine_1_1Clipboard_1_1ProjectItems.html" target="_top" xlink:title=" ">
<polygon fill="none" stroke="black" points="187,-196.5 187,-226.5 338,-226.5 338,-196.5 187,-196.5"/>
<text text-anchor="start" x="195" y="-214.5" font-family="Helvetica,sans-Serif" font-size="10.00">tracktion_engine::Clipboard</text>
<text text-anchor="middle" x="262.5" y="-203.5" font-family="Helvetica,sans-Serif" font-size="10.00">::ProjectItems</text>
</a>
</g>
</g>
<!-- Node1&#45;&gt;Node8 -->
<g id="edge7" class="edge">
<title>Node1&#45;&gt;Node8</title>
<path fill="none" stroke="midnightblue" d="M143.04,-242.88C163.28,-237.52 185.32,-231.68 204.84,-226.51"/>
<polygon fill="midnightblue" stroke="midnightblue" points="142.03,-239.52 133.26,-245.47 143.83,-246.29 142.03,-239.52"/>
</g>
<!-- Node9 -->
<g id="node9" class="node">
<title>Node9</title>
<g id="a_node9"><a xlink:href="structtracktion__engine_1_1Clipboard_1_1Takes.html" target="_top" xlink:title=" ">
<polygon fill="none" stroke="black" points="187,-147.5 187,-177.5 338,-177.5 338,-147.5 187,-147.5"/>
<text text-anchor="start" x="195" y="-165.5" font-family="Helvetica,sans-Serif" font-size="10.00">tracktion_engine::Clipboard</text>
<text text-anchor="middle" x="262.5" y="-154.5" font-family="Helvetica,sans-Serif" font-size="10.00">::Takes</text>
</a>
</g>
</g>
<!-- Node1&#45;&gt;Node9 -->
<g id="edge8" class="edge">
<title>Node1&#45;&gt;Node9</title>
<path fill="none" stroke="midnightblue" d="M104.01,-239.4C125.66,-223.53 157.08,-202.09 187,-187.5 194.48,-183.85 202.63,-180.52 210.69,-177.57"/>
<polygon fill="midnightblue" stroke="midnightblue" points="101.87,-236.63 95.92,-245.4 106.04,-242.25 101.87,-236.63"/>
</g>
<!-- Node10 -->
<g id="node10" class="node">
<title>Node10</title>
<g id="a_node10"><a xlink:href="structtracktion__engine_1_1Clipboard_1_1TempoChanges.html" target="_top" xlink:title=" ">
<polygon fill="none" stroke="black" points="187,-98.5 187,-128.5 338,-128.5 338,-98.5 187,-98.5"/>
<text text-anchor="start" x="195" y="-116.5" font-family="Helvetica,sans-Serif" font-size="10.00">tracktion_engine::Clipboard</text>
<text text-anchor="middle" x="262.5" y="-105.5" font-family="Helvetica,sans-Serif" font-size="10.00">::TempoChanges</text>
</a>
</g>
</g>
<!-- Node1&#45;&gt;Node10 -->
<g id="edge9" class="edge">
<title>Node1&#45;&gt;Node10</title>
<path fill="none" stroke="midnightblue" d="M92.14,-236.92C111.41,-209.59 146.61,-164.92 187,-138.5 192.82,-134.69 199.28,-131.41 205.89,-128.59"/>
<polygon fill="midnightblue" stroke="midnightblue" points="89.04,-235.26 86.23,-245.47 94.79,-239.24 89.04,-235.26"/>
</g>
<!-- Node11 -->
<g id="node11" class="node">
<title>Node11</title>
<g id="a_node11"><a xlink:href="structtracktion__engine_1_1Clipboard_1_1TimeSigs.html" target="_top" xlink:title=" ">
<polygon fill="none" stroke="black" points="187,-49.5 187,-79.5 338,-79.5 338,-49.5 187,-49.5"/>
<text text-anchor="start" x="195" y="-67.5" font-family="Helvetica,sans-Serif" font-size="10.00">tracktion_engine::Clipboard</text>
<text text-anchor="middle" x="262.5" y="-56.5" font-family="Helvetica,sans-Serif" font-size="10.00">::TimeSigs</text>
</a>
</g>
</g>
<!-- Node1&#45;&gt;Node11 -->
<g id="edge10" class="edge">
<title>Node1&#45;&gt;Node11</title>
<path fill="none" stroke="midnightblue" d="M86.15,-235.73C101.82,-198.67 136.22,-128.94 187,-89.5 191.96,-85.65 197.54,-82.38 203.36,-79.6"/>
<polygon fill="midnightblue" stroke="midnightblue" points="82.8,-234.68 82.23,-245.26 89.27,-237.34 82.8,-234.68"/>
</g>
<!-- Node12 -->
<g id="node12" class="node">
<title>Node12</title>
<g id="a_node12"><a xlink:href="structtracktion__engine_1_1Clipboard_1_1Tracks.html" target="_top" xlink:title=" ">
<polygon fill="none" stroke="black" points="187,-0.5 187,-30.5 338,-30.5 338,-0.5 187,-0.5"/>
<text text-anchor="start" x="195" y="-18.5" font-family="Helvetica,sans-Serif" font-size="10.00">tracktion_engine::Clipboard</text>
<text text-anchor="middle" x="262.5" y="-7.5" font-family="Helvetica,sans-Serif" font-size="10.00">::Tracks</text>
</a>
</g>
</g>
<!-- Node1&#45;&gt;Node12 -->
<g id="edge11" class="edge">
<title>Node1&#45;&gt;Node12</title>
<path fill="none" stroke="midnightblue" d="M82.29,-235.62C94.12,-190.3 125.28,-94.04 187,-40.5 191.43,-36.66 196.48,-33.4 201.8,-30.64"/>
<polygon fill="midnightblue" stroke="midnightblue" points="78.86,-234.94 79.82,-245.49 85.65,-236.64 78.86,-234.94"/>
</g>
</g>
</svg>
