<?xml version="1.0" encoding="UTF-8" standalone="no"?>
<!DOCTYPE svg PUBLIC "-//W3C//DTD SVG 1.1//EN"
 "http://www.w3.org/Graphics/SVG/1.1/DTD/svg11.dtd">
<!-- Generated by graphviz version 2.40.1 (20161225.0304)
 -->
<!-- Title: tracktion_engine::Modifier Pages: 1 -->
<svg width="673pt" height="264pt"
 viewBox="0.00 0.00 673.00 263.50" xmlns="http://www.w3.org/2000/svg" xmlns:xlink="http://www.w3.org/1999/xlink">
<g id="graph0" class="graph" transform="scale(1 1) rotate(0) translate(4 259.5)">
<title>tracktion_engine::Modifier</title>
<!-- Node0 -->
<g id="node1" class="node">
<title>Node0</title>
<polygon fill="#bfbfbf" stroke="#000000" points="352,-115.5 352,-134.5 480,-134.5 480,-115.5 352,-115.5"/>
<text text-anchor="middle" x="416" y="-122.5" font-family="Helvetica,sans-Serif" font-size="10.00" fill="#000000">tracktion_engine::Modifier</text>
</g>
<!-- Node5 -->
<g id="node6" class="node">
<title>Node5</title>
<g id="a_node6"><a xlink:href="classtracktion__engine_1_1BreakpointOscillatorModifier.html" target="_top" xlink:title="tracktion_engine::Breakpoint\lOscillatorModifier">
<polygon fill="none" stroke="#000000" points="520.5,-225 520.5,-255 660.5,-255 660.5,-225 520.5,-225"/>
<text text-anchor="start" x="528.5" y="-243" font-family="Helvetica,sans-Serif" font-size="10.00" fill="#000000">tracktion_engine::Breakpoint</text>
<text text-anchor="middle" x="590.5" y="-232" font-family="Helvetica,sans-Serif" font-size="10.00" fill="#000000">OscillatorModifier</text>
</a>
</g>
</g>
<!-- Node0&#45;&gt;Node5 -->
<g id="edge5" class="edge">
<title>Node0&#45;&gt;Node5</title>
<path fill="none" stroke="#191970" d="M430.7018,-142.271C448.8446,-162.5797 481.5443,-196.0434 516,-216 521.7617,-219.3372 528.0472,-222.2761 534.4449,-224.847"/>
<polygon fill="#191970" stroke="#191970" points="433.2875,-139.911 424.0652,-134.6955 428.0222,-144.5237 433.2875,-139.911"/>
</g>
<!-- Node6 -->
<g id="node7" class="node">
<title>Node6</title>
<g id="a_node7"><a xlink:href="classtracktion__engine_1_1EnvelopeFollowerModifier.html" target="_top" xlink:title="tracktion_engine::Envelope\lFollowerModifier">
<polygon fill="none" stroke="#000000" points="523.5,-176 523.5,-206 657.5,-206 657.5,-176 523.5,-176"/>
<text text-anchor="start" x="531.5" y="-194" font-family="Helvetica,sans-Serif" font-size="10.00" fill="#000000">tracktion_engine::Envelope</text>
<text text-anchor="middle" x="590.5" y="-183" font-family="Helvetica,sans-Serif" font-size="10.00" fill="#000000">FollowerModifier</text>
</a>
</g>
</g>
<!-- Node0&#45;&gt;Node6 -->
<g id="edge6" class="edge">
<title>Node0&#45;&gt;Node6</title>
<path fill="none" stroke="#191970" d="M447.4345,-138.5049C467.0281,-146.7686 492.834,-157.3746 516,-166 525.0776,-169.3799 534.8505,-172.808 544.2347,-175.9976"/>
<polygon fill="#191970" stroke="#191970" points="448.6511,-135.2192 438.0782,-134.5378 445.9185,-141.6638 448.6511,-135.2192"/>
</g>
<!-- Node7 -->
<g id="node8" class="node">
<title>Node7</title>
<g id="a_node8"><a xlink:href="classtracktion__engine_1_1LFOModifier.html" target="_top" xlink:title="tracktion_engine::LFOModifier">
<polygon fill="none" stroke="#000000" points="517,-137.5 517,-156.5 664,-156.5 664,-137.5 517,-137.5"/>
<text text-anchor="middle" x="590.5" y="-144.5" font-family="Helvetica,sans-Serif" font-size="10.00" fill="#000000">tracktion_engine::LFOModifier</text>
</a>
</g>
</g>
<!-- Node0&#45;&gt;Node7 -->
<g id="edge7" class="edge">
<title>Node0&#45;&gt;Node7</title>
<path fill="none" stroke="#191970" d="M490.597,-134.4048C499.2991,-135.5019 508.1728,-136.6206 516.8618,-137.7161"/>
<polygon fill="#191970" stroke="#191970" points="490.8409,-130.9079 480.4816,-133.1295 489.9652,-137.8529 490.8409,-130.9079"/>
</g>
<!-- Node8 -->
<g id="node9" class="node">
<title>Node8</title>
<g id="a_node9"><a xlink:href="classtracktion__engine_1_1MIDITrackerModifier.html" target="_top" xlink:title="tracktion_engine::MIDITracker\lModifier">
<polygon fill="none" stroke="#000000" points="516,-88 516,-118 665,-118 665,-88 516,-88"/>
<text text-anchor="start" x="524" y="-106" font-family="Helvetica,sans-Serif" font-size="10.00" fill="#000000">tracktion_engine::MIDITracker</text>
<text text-anchor="middle" x="590.5" y="-95" font-family="Helvetica,sans-Serif" font-size="10.00" fill="#000000">Modifier</text>
</a>
</g>
</g>
<!-- Node0&#45;&gt;Node8 -->
<g id="edge8" class="edge">
<title>Node0&#45;&gt;Node8</title>
<path fill="none" stroke="#191970" d="M490.6226,-115.592C499.0188,-114.5335 507.5743,-113.4548 515.9694,-112.3964"/>
<polygon fill="#191970" stroke="#191970" points="489.9652,-112.1471 480.4816,-116.8705 490.8409,-119.0921 489.9652,-112.1471"/>
</g>
<!-- Node9 -->
<g id="node10" class="node">
<title>Node9</title>
<g id="a_node10"><a xlink:href="classtracktion__engine_1_1RandomModifier.html" target="_top" xlink:title="tracktion_engine::Random\lModifier">
<polygon fill="none" stroke="#000000" points="525,-39 525,-69 656,-69 656,-39 525,-39"/>
<text text-anchor="start" x="533" y="-57" font-family="Helvetica,sans-Serif" font-size="10.00" fill="#000000">tracktion_engine::Random</text>
<text text-anchor="middle" x="590.5" y="-46" font-family="Helvetica,sans-Serif" font-size="10.00" fill="#000000">Modifier</text>
</a>
</g>
</g>
<!-- Node0&#45;&gt;Node9 -->
<g id="edge9" class="edge">
<title>Node0&#45;&gt;Node9</title>
<path fill="none" stroke="#191970" d="M443.5662,-110.8784C463.4194,-100.997 491.0011,-87.8548 516,-78 523.9643,-74.8604 532.5206,-71.8126 540.8951,-69.0015"/>
<polygon fill="#191970" stroke="#191970" points="441.8516,-107.8228 434.4861,-115.4386 444.9933,-114.0783 441.8516,-107.8228"/>
</g>
<!-- Node10 -->
<g id="node11" class="node">
<title>Node10</title>
<g id="a_node11"><a xlink:href="classtracktion__engine_1_1StepModifier.html" target="_top" xlink:title="tracktion_engine::StepModifier">
<polygon fill="none" stroke="#000000" points="516,-.5 516,-19.5 665,-19.5 665,-.5 516,-.5"/>
<text text-anchor="middle" x="590.5" y="-7.5" font-family="Helvetica,sans-Serif" font-size="10.00" fill="#000000">tracktion_engine::StepModifier</text>
</a>
</g>
</g>
<!-- Node0&#45;&gt;Node10 -->
<g id="edge10" class="edge">
<title>Node0&#45;&gt;Node10</title>
<path fill="none" stroke="#191970" d="M429.4669,-107.3718C447.0144,-85.6469 479.7643,-49.1429 516,-29 523,-25.1088 530.8111,-21.9979 538.6687,-19.5153"/>
<polygon fill="#191970" stroke="#191970" points="426.5568,-105.4098 423.1104,-115.4284 432.0523,-109.7457 426.5568,-105.4098"/>
</g>
<!-- Node1 -->
<g id="node2" class="node">
<title>Node1</title>
<g id="a_node2"><a xlink:href="classtracktion__engine_1_1AutomatableEditItem.html" target="_top" xlink:title="Base class for elements that have some kind of automatable parameters. ">
<polygon fill="none" stroke="#000000" points="167,-154 167,-184 316,-184 316,-154 167,-154"/>
<text text-anchor="start" x="175" y="-172" font-family="Helvetica,sans-Serif" font-size="10.00" fill="#000000">tracktion_engine::Automatable</text>
<text text-anchor="middle" x="241.5" y="-161" font-family="Helvetica,sans-Serif" font-size="10.00" fill="#000000">EditItem</text>
</a>
</g>
</g>
<!-- Node1&#45;&gt;Node0 -->
<g id="edge1" class="edge">
<title>Node1&#45;&gt;Node0</title>
<path fill="none" stroke="#191970" d="M310.8005,-151.5259C333.8118,-145.7237 358.5641,-139.4824 378.2746,-134.5124"/>
<polygon fill="#191970" stroke="#191970" points="309.9057,-148.1419 301.0649,-153.9808 311.6172,-154.9295 309.9057,-148.1419"/>
</g>
<!-- Node2 -->
<g id="node3" class="node">
<title>Node2</title>
<g id="a_node3"><a xlink:href="classtracktion__engine_1_1EditItem.html" target="_top" xlink:title="Base class for objects that live inside an edit &#45; e.g. ">
<polygon fill="none" stroke="#000000" points="0,-159.5 0,-178.5 131,-178.5 131,-159.5 0,-159.5"/>
<text text-anchor="middle" x="65.5" y="-166.5" font-family="Helvetica,sans-Serif" font-size="10.00" fill="#000000">tracktion_engine::EditItem</text>
</a>
</g>
</g>
<!-- Node2&#45;&gt;Node1 -->
<g id="edge2" class="edge">
<title>Node2&#45;&gt;Node1</title>
<path fill="none" stroke="#191970" d="M141.2406,-169C149.6868,-169 158.2866,-169 166.7206,-169"/>
<polygon fill="#191970" stroke="#191970" points="141.0359,-165.5001 131.0359,-169 141.0359,-172.5001 141.0359,-165.5001"/>
</g>
<!-- Node3 -->
<g id="node4" class="node">
<title>Node3</title>
<g id="a_node4"><a xlink:href="classtracktion__engine_1_1Selectable.html" target="_top" xlink:title="Base class for things that can be selected, and whose properties can appear in the properties panel...">
<polygon fill="none" stroke="#000000" points="171.5,-115.5 171.5,-134.5 311.5,-134.5 311.5,-115.5 171.5,-115.5"/>
<text text-anchor="middle" x="241.5" y="-122.5" font-family="Helvetica,sans-Serif" font-size="10.00" fill="#000000">tracktion_engine::Selectable</text>
</a>
</g>
</g>
<!-- Node3&#45;&gt;Node0 -->
<g id="edge3" class="edge">
<title>Node3&#45;&gt;Node0</title>
<path fill="none" stroke="#191970" d="M321.7478,-125C331.836,-125 342.0499,-125 351.8453,-125"/>
<polygon fill="#191970" stroke="#191970" points="321.7216,-121.5001 311.7215,-125 321.7215,-128.5001 321.7216,-121.5001"/>
</g>
<!-- Node4 -->
<g id="node5" class="node">
<title>Node4</title>
<g id="a_node5"><a xlink:href="structtracktion__engine_1_1AutomatableParameter_1_1ModifierSource.html" target="_top" xlink:title="Base class for things that can be used to modify parameters. ">
<polygon fill="none" stroke="#000000" points="167,-66 167,-96 316,-96 316,-66 167,-66"/>
<text text-anchor="start" x="175" y="-84" font-family="Helvetica,sans-Serif" font-size="10.00" fill="#000000">tracktion_engine::Automatable</text>
<text text-anchor="middle" x="241.5" y="-73" font-family="Helvetica,sans-Serif" font-size="10.00" fill="#000000">Parameter::ModifierSource</text>
</a>
</g>
</g>
<!-- Node4&#45;&gt;Node0 -->
<g id="edge4" class="edge">
<title>Node4&#45;&gt;Node0</title>
<path fill="none" stroke="#191970" d="M310.8005,-98.4741C333.8118,-104.2763 358.5641,-110.5176 378.2746,-115.4876"/>
<polygon fill="#191970" stroke="#191970" points="311.6172,-95.0705 301.0649,-96.0192 309.9057,-101.8581 311.6172,-95.0705"/>
</g>
</g>
</svg>
