<?xml version="1.0" encoding="UTF-8" standalone="no"?>
<!DOCTYPE svg PUBLIC "-//W3C//DTD SVG 1.1//EN"
 "http://www.w3.org/Graphics/SVG/1.1/DTD/svg11.dtd">
<!-- Generated by graphviz version 2.40.1 (20161225.0304)
 -->
<!-- Title: tracktion_engine::AutomatableParameter::ModifierAssignment Pages: 1 -->
<svg width="364pt" height="333pt"
 viewBox="0.00 0.00 364.00 333.00" xmlns="http://www.w3.org/2000/svg" xmlns:xlink="http://www.w3.org/1999/xlink">
<g id="graph0" class="graph" transform="scale(1 1) rotate(0) translate(4 329)">
<title>tracktion_engine::AutomatableParameter::ModifierAssignment</title>
<!-- Node0 -->
<g id="node1" class="node">
<title>Node0</title>
<polygon fill="#bfbfbf" stroke="#000000" points="0,-147.5 0,-177.5 154,-177.5 154,-147.5 0,-147.5"/>
<text text-anchor="start" x="8" y="-165.5" font-family="Helvetica,sans-Serif" font-size="10.00" fill="#000000">tracktion_engine::Automatable</text>
<text text-anchor="middle" x="77" y="-154.5" font-family="Helvetica,sans-Serif" font-size="10.00" fill="#000000">Parameter::ModifierAssignment</text>
</g>
<!-- Node1 -->
<g id="node2" class="node">
<title>Node1</title>
<g id="a_node2"><a xlink:href="structtracktion__engine_1_1BreakpointOscillatorModifier_1_1Assignment.html" target="_top" xlink:title="tracktion_engine::Breakpoint\lOscillatorModifier::Assignment">
<polygon fill="none" stroke="#000000" points="198,-294.5 198,-324.5 348,-324.5 348,-294.5 198,-294.5"/>
<text text-anchor="start" x="206" y="-312.5" font-family="Helvetica,sans-Serif" font-size="10.00" fill="#000000">tracktion_engine::Breakpoint</text>
<text text-anchor="middle" x="273" y="-301.5" font-family="Helvetica,sans-Serif" font-size="10.00" fill="#000000">OscillatorModifier::Assignment</text>
</a>
</g>
</g>
<!-- Node0&#45;&gt;Node1 -->
<g id="edge1" class="edge">
<title>Node0&#45;&gt;Node1</title>
<path fill="none" stroke="#191970" d="M92.6253,-186.2042C112.1658,-214.0109 148.1817,-259.5948 190,-285.5 195.4832,-288.8967 201.4661,-291.8294 207.6261,-294.3582"/>
<polygon fill="#191970" stroke="#191970" points="95.4265,-184.1008 86.8735,-177.8482 89.6605,-188.0699 95.4265,-184.1008"/>
</g>
<!-- Node2 -->
<g id="node3" class="node">
<title>Node2</title>
<g id="a_node3"><a xlink:href="structtracktion__engine_1_1EnvelopeFollowerModifier_1_1Assignment.html" target="_top" xlink:title="tracktion_engine::Envelope\lFollowerModifier::Assignment">
<polygon fill="none" stroke="#000000" points="200,-245.5 200,-275.5 346,-275.5 346,-245.5 200,-245.5"/>
<text text-anchor="start" x="208" y="-263.5" font-family="Helvetica,sans-Serif" font-size="10.00" fill="#000000">tracktion_engine::Envelope</text>
<text text-anchor="middle" x="273" y="-252.5" font-family="Helvetica,sans-Serif" font-size="10.00" fill="#000000">FollowerModifier::Assignment</text>
</a>
</g>
</g>
<!-- Node0&#45;&gt;Node2 -->
<g id="edge2" class="edge">
<title>Node0&#45;&gt;Node2</title>
<path fill="none" stroke="#191970" d="M104.5806,-183.943C126.6584,-200.25 158.9599,-222.2405 190,-236.5 197.2242,-239.8187 205.0147,-242.792 212.8273,-245.4205"/>
<polygon fill="#191970" stroke="#191970" points="106.4575,-180.9759 96.3559,-177.7809 102.2603,-186.578 106.4575,-180.9759"/>
</g>
<!-- Node3 -->
<g id="node4" class="node">
<title>Node3</title>
<g id="a_node4"><a xlink:href="structtracktion__engine_1_1LFOModifier_1_1Assignment.html" target="_top" xlink:title="tracktion_engine::LFOModifier\l::Assignment">
<polygon fill="none" stroke="#000000" points="199.5,-196.5 199.5,-226.5 346.5,-226.5 346.5,-196.5 199.5,-196.5"/>
<text text-anchor="start" x="207.5" y="-214.5" font-family="Helvetica,sans-Serif" font-size="10.00" fill="#000000">tracktion_engine::LFOModifier</text>
<text text-anchor="middle" x="273" y="-203.5" font-family="Helvetica,sans-Serif" font-size="10.00" fill="#000000">::Assignment</text>
</a>
</g>
</g>
<!-- Node0&#45;&gt;Node3 -->
<g id="edge3" class="edge">
<title>Node0&#45;&gt;Node3</title>
<path fill="none" stroke="#191970" d="M146.9072,-179.9768C168.51,-185.3775 192.1021,-191.2755 212.9753,-196.4938"/>
<polygon fill="#191970" stroke="#191970" points="147.6888,-176.5645 137.1385,-177.5346 145.991,-183.3555 147.6888,-176.5645"/>
</g>
<!-- Node4 -->
<g id="node5" class="node">
<title>Node4</title>
<g id="a_node5"><a xlink:href="structtracktion__engine_1_1MacroParameter_1_1Assignment.html" target="_top" xlink:title="An Assignment between a MacroParameter and an AutomatableParameter. ">
<polygon fill="none" stroke="#000000" points="190,-147.5 190,-177.5 356,-177.5 356,-147.5 190,-147.5"/>
<text text-anchor="start" x="198" y="-165.5" font-family="Helvetica,sans-Serif" font-size="10.00" fill="#000000">tracktion_engine::MacroParameter</text>
<text text-anchor="middle" x="273" y="-154.5" font-family="Helvetica,sans-Serif" font-size="10.00" fill="#000000">::Assignment</text>
</a>
</g>
</g>
<!-- Node0&#45;&gt;Node4 -->
<g id="edge4" class="edge">
<title>Node0&#45;&gt;Node4</title>
<path fill="none" stroke="#191970" d="M164.3955,-162.5C172.8249,-162.5 181.3602,-162.5 189.7479,-162.5"/>
<polygon fill="#191970" stroke="#191970" points="164.1831,-159.0001 154.183,-162.5 164.183,-166.0001 164.1831,-159.0001"/>
</g>
<!-- Node5 -->
<g id="node6" class="node">
<title>Node5</title>
<g id="a_node6"><a xlink:href="structtracktion__engine_1_1MIDITrackerModifier_1_1Assignment.html" target="_top" xlink:title="tracktion_engine::MIDITracker\lModifier::Assignment">
<polygon fill="none" stroke="#000000" points="198.5,-98.5 198.5,-128.5 347.5,-128.5 347.5,-98.5 198.5,-98.5"/>
<text text-anchor="start" x="206.5" y="-116.5" font-family="Helvetica,sans-Serif" font-size="10.00" fill="#000000">tracktion_engine::MIDITracker</text>
<text text-anchor="middle" x="273" y="-105.5" font-family="Helvetica,sans-Serif" font-size="10.00" fill="#000000">Modifier::Assignment</text>
</a>
</g>
</g>
<!-- Node0&#45;&gt;Node5 -->
<g id="edge5" class="edge">
<title>Node0&#45;&gt;Node5</title>
<path fill="none" stroke="#191970" d="M146.9072,-145.0232C168.51,-139.6225 192.1021,-133.7245 212.9753,-128.5062"/>
<polygon fill="#191970" stroke="#191970" points="145.991,-141.6445 137.1385,-147.4654 147.6888,-148.4355 145.991,-141.6445"/>
</g>
<!-- Node6 -->
<g id="node7" class="node">
<title>Node6</title>
<g id="a_node7"><a xlink:href="structtracktion__engine_1_1RandomModifier_1_1Assignment.html" target="_top" xlink:title="tracktion_engine::Random\lModifier::Assignment">
<polygon fill="none" stroke="#000000" points="207.5,-49.5 207.5,-79.5 338.5,-79.5 338.5,-49.5 207.5,-49.5"/>
<text text-anchor="start" x="215.5" y="-67.5" font-family="Helvetica,sans-Serif" font-size="10.00" fill="#000000">tracktion_engine::Random</text>
<text text-anchor="middle" x="273" y="-56.5" font-family="Helvetica,sans-Serif" font-size="10.00" fill="#000000">Modifier::Assignment</text>
</a>
</g>
</g>
<!-- Node0&#45;&gt;Node6 -->
<g id="edge6" class="edge">
<title>Node0&#45;&gt;Node6</title>
<path fill="none" stroke="#191970" d="M105.0732,-141.172C127.188,-125.1791 159.307,-103.6905 190,-89.5 198.0593,-85.7739 206.8124,-82.4374 215.5114,-79.5088"/>
<polygon fill="#191970" stroke="#191970" points="102.8179,-138.4855 96.8219,-147.2204 106.9564,-144.1311 102.8179,-138.4855"/>
</g>
<!-- Node7 -->
<g id="node8" class="node">
<title>Node7</title>
<g id="a_node8"><a xlink:href="structtracktion__engine_1_1StepModifier_1_1Assignment.html" target="_top" xlink:title="tracktion_engine::StepModifier\l::Assignment">
<polygon fill="none" stroke="#000000" points="198.5,-.5 198.5,-30.5 347.5,-30.5 347.5,-.5 198.5,-.5"/>
<text text-anchor="start" x="206.5" y="-18.5" font-family="Helvetica,sans-Serif" font-size="10.00" fill="#000000">tracktion_engine::StepModifier</text>
<text text-anchor="middle" x="273" y="-7.5" font-family="Helvetica,sans-Serif" font-size="10.00" fill="#000000">::Assignment</text>
</a>
</g>
</g>
<!-- Node0&#45;&gt;Node7 -->
<g id="edge7" class="edge">
<title>Node0&#45;&gt;Node7</title>
<path fill="none" stroke="#191970" d="M92.7191,-139.0713C112.3511,-111.5715 148.4564,-66.437 190,-40.5 196.1274,-36.6744 202.8751,-33.4045 209.7949,-30.6165"/>
<polygon fill="#191970" stroke="#191970" points="89.8033,-137.1335 86.9379,-147.3335 95.5387,-141.1466 89.8033,-137.1335"/>
</g>
</g>
</svg>
