<?xml version="1.0" encoding="UTF-8" standalone="no"?>
<!DOCTYPE svg PUBLIC "-//W3C//DTD SVG 1.1//EN"
 "http://www.w3.org/Graphics/SVG/1.1/DTD/svg11.dtd">
<!-- Generated by graphviz version 2.43.0 (0)
 -->
<!-- Title: tracktion::engine::ValueTreeAllEventListener Pages: 1 -->
<svg width="512pt" height="1803pt"
 viewBox="0.00 0.00 512.00 1803.00" xmlns="http://www.w3.org/2000/svg" xmlns:xlink="http://www.w3.org/1999/xlink">
<g id="graph0" class="graph" transform="scale(1 1) rotate(0) translate(4 1799)">
<title>tracktion::engine::ValueTreeAllEventListener</title>
<!-- Node1 -->
<g id="node1" class="node">
<title>Node1</title>
<g id="a_node1"><a xlink:title=" ">
<polygon fill="#bfbfbf" stroke="black" points="0,-784.5 0,-814.5 143,-814.5 143,-784.5 0,-784.5"/>
<text text-anchor="start" x="8" y="-802.5" font-family="Helvetica,sans-Serif" font-size="10.00">tracktion::engine::</text>
<text text-anchor="middle" x="71.5" y="-791.5" font-family="Helvetica,sans-Serif" font-size="10.00">ValueTreeAllEventListener</text>
</a>
</g>
</g>
<!-- Node2 -->
<g id="node2" class="node">
<title>Node2</title>
<g id="a_node2"><a xlink:href="classtracktion_1_1engine_1_1BreakpointOscillatorModifier.html" target="_top" xlink:title=" ">
<polygon fill="none" stroke="black" points="179,-1543.5 179,-1573.5 335,-1573.5 335,-1543.5 179,-1543.5"/>
<text text-anchor="start" x="187" y="-1561.5" font-family="Helvetica,sans-Serif" font-size="10.00">tracktion::engine::</text>
<text text-anchor="middle" x="257" y="-1550.5" font-family="Helvetica,sans-Serif" font-size="10.00">BreakpointOscillatorModifier</text>
</a>
</g>
</g>
<!-- Node1&#45;&gt;Node2 -->
<g id="edge1" class="edge">
<title>Node1&#45;&gt;Node2</title>
<path fill="none" stroke="#8b1a1a" d="M72.67,-824.76C73.96,-941.08 84.96,-1424.27 179,-1534.5 181.91,-1537.91 185.29,-1540.84 188.99,-1543.36"/>
<polygon fill="#8b1a1a" stroke="#8b1a1a" points="76.17,-824.63 72.57,-814.67 69.17,-824.7 76.17,-824.63"/>
</g>
<!-- Node3 -->
<g id="node3" class="node">
<title>Node3</title>
<g id="a_node3"><a xlink:href="classtracktion_1_1engine_1_1ClipEffect.html" target="_top" xlink:title=" ">
<polygon fill="none" stroke="black" points="204.5,-1494.5 204.5,-1524.5 309.5,-1524.5 309.5,-1494.5 204.5,-1494.5"/>
<text text-anchor="start" x="212.5" y="-1512.5" font-family="Helvetica,sans-Serif" font-size="10.00">tracktion::engine::</text>
<text text-anchor="middle" x="257" y="-1501.5" font-family="Helvetica,sans-Serif" font-size="10.00">ClipEffect</text>
</a>
</g>
</g>
<!-- Node1&#45;&gt;Node3 -->
<g id="edge2" class="edge">
<title>Node1&#45;&gt;Node3</title>
<path fill="none" stroke="darkgreen" d="M78.97,-824.54C108.37,-938.29 228.9,-1404.64 252.12,-1494.48"/>
<polygon fill="darkgreen" stroke="darkgreen" points="82.31,-823.46 76.42,-814.66 75.53,-825.22 82.31,-823.46"/>
</g>
<!-- Node14 -->
<g id="node14" class="node">
<title>Node14</title>
<g id="a_node14"><a xlink:href="classtracktion_1_1engine_1_1EnvelopeFollowerModifier.html" target="_top" xlink:title=" ">
<polygon fill="none" stroke="black" points="185.5,-931.5 185.5,-961.5 328.5,-961.5 328.5,-931.5 185.5,-931.5"/>
<text text-anchor="start" x="193.5" y="-949.5" font-family="Helvetica,sans-Serif" font-size="10.00">tracktion::engine::</text>
<text text-anchor="middle" x="257" y="-938.5" font-family="Helvetica,sans-Serif" font-size="10.00">EnvelopeFollowerModifier</text>
</a>
</g>
</g>
<!-- Node1&#45;&gt;Node14 -->
<g id="edge13" class="edge">
<title>Node1&#45;&gt;Node14</title>
<path fill="none" stroke="#8b1a1a" d="M87.23,-823.45C105.48,-851.17 139.08,-896.37 179,-922.5 184.27,-925.95 190.07,-928.93 196.05,-931.5"/>
<polygon fill="#8b1a1a" stroke="#8b1a1a" points="90,-821.28 81.65,-814.77 84.11,-825.07 90,-821.28"/>
</g>
<!-- Node15 -->
<g id="node15" class="node">
<title>Node15</title>
<g id="a_node15"><a xlink:href="classtracktion_1_1engine_1_1LFOModifier.html" target="_top" xlink:title=" ">
<polygon fill="none" stroke="black" points="204.5,-882.5 204.5,-912.5 309.5,-912.5 309.5,-882.5 204.5,-882.5"/>
<text text-anchor="start" x="212.5" y="-900.5" font-family="Helvetica,sans-Serif" font-size="10.00">tracktion::engine::</text>
<text text-anchor="middle" x="257" y="-889.5" font-family="Helvetica,sans-Serif" font-size="10.00">LFOModifier</text>
</a>
</g>
</g>
<!-- Node1&#45;&gt;Node15 -->
<g id="edge14" class="edge">
<title>Node1&#45;&gt;Node15</title>
<path fill="none" stroke="#8b1a1a" d="M98.65,-821.08C119.39,-837.32 149.67,-859.16 179,-873.5 186.93,-877.37 195.61,-880.8 204.21,-883.75"/>
<polygon fill="#8b1a1a" stroke="#8b1a1a" points="100.66,-818.2 90.65,-814.72 96.3,-823.68 100.66,-818.2"/>
</g>
<!-- Node16 -->
<g id="node16" class="node">
<title>Node16</title>
<g id="a_node16"><a xlink:href="classtracktion_1_1engine_1_1MIDITrackerModifier.html" target="_top" xlink:title=" ">
<polygon fill="none" stroke="black" points="200.5,-833.5 200.5,-863.5 313.5,-863.5 313.5,-833.5 200.5,-833.5"/>
<text text-anchor="start" x="208.5" y="-851.5" font-family="Helvetica,sans-Serif" font-size="10.00">tracktion::engine::</text>
<text text-anchor="middle" x="257" y="-840.5" font-family="Helvetica,sans-Serif" font-size="10.00">MIDITrackerModifier</text>
</a>
</g>
</g>
<!-- Node1&#45;&gt;Node16 -->
<g id="edge15" class="edge">
<title>Node1&#45;&gt;Node16</title>
<path fill="none" stroke="#8b1a1a" d="M138.59,-817.15C158.86,-822.56 180.94,-828.46 200.43,-833.66"/>
<polygon fill="#8b1a1a" stroke="#8b1a1a" points="139.37,-813.73 128.8,-814.53 137.56,-820.5 139.37,-813.73"/>
</g>
<!-- Node17 -->
<g id="node17" class="node">
<title>Node17</title>
<g id="a_node17"><a xlink:href="classtracktion_1_1engine_1_1PatternGenerator.html" target="_top" xlink:title=" ">
<polygon fill="none" stroke="black" points="204.5,-784.5 204.5,-814.5 309.5,-814.5 309.5,-784.5 204.5,-784.5"/>
<text text-anchor="start" x="212.5" y="-802.5" font-family="Helvetica,sans-Serif" font-size="10.00">tracktion::engine::</text>
<text text-anchor="middle" x="257" y="-791.5" font-family="Helvetica,sans-Serif" font-size="10.00">PatternGenerator</text>
</a>
</g>
</g>
<!-- Node1&#45;&gt;Node17 -->
<g id="edge16" class="edge">
<title>Node1&#45;&gt;Node17</title>
<path fill="none" stroke="#8b1a1a" d="M153.32,-799.5C170.67,-799.5 188.56,-799.5 204.44,-799.5"/>
<polygon fill="#8b1a1a" stroke="#8b1a1a" points="153.18,-796 143.18,-799.5 153.18,-803 153.18,-796"/>
</g>
<!-- Node18 -->
<g id="node18" class="node">
<title>Node18</title>
<g id="a_node18"><a xlink:href="classtracktion_1_1engine_1_1PitchSetting.html" target="_top" xlink:title=" ">
<polygon fill="none" stroke="black" points="204.5,-735.5 204.5,-765.5 309.5,-765.5 309.5,-735.5 204.5,-735.5"/>
<text text-anchor="start" x="212.5" y="-753.5" font-family="Helvetica,sans-Serif" font-size="10.00">tracktion::engine::</text>
<text text-anchor="middle" x="257" y="-742.5" font-family="Helvetica,sans-Serif" font-size="10.00">PitchSetting</text>
</a>
</g>
</g>
<!-- Node1&#45;&gt;Node18 -->
<g id="edge17" class="edge">
<title>Node1&#45;&gt;Node18</title>
<path fill="none" stroke="#8b1a1a" d="M138.6,-781.85C160.29,-776.06 184.05,-769.71 204.49,-764.25"/>
<polygon fill="#8b1a1a" stroke="#8b1a1a" points="137.56,-778.5 128.8,-784.47 139.37,-785.27 137.56,-778.5"/>
</g>
<!-- Node19 -->
<g id="node19" class="node">
<title>Node19</title>
<g id="a_node19"><a xlink:href="classtracktion_1_1engine_1_1Plugin.html" target="_top" xlink:title=" ">
<polygon fill="none" stroke="black" points="204.5,-686.5 204.5,-716.5 309.5,-716.5 309.5,-686.5 204.5,-686.5"/>
<text text-anchor="start" x="212.5" y="-704.5" font-family="Helvetica,sans-Serif" font-size="10.00">tracktion::engine::</text>
<text text-anchor="middle" x="257" y="-693.5" font-family="Helvetica,sans-Serif" font-size="10.00">Plugin</text>
</a>
</g>
</g>
<!-- Node1&#45;&gt;Node19 -->
<g id="edge18" class="edge">
<title>Node1&#45;&gt;Node19</title>
<path fill="none" stroke="darkgreen" d="M99.13,-778.04C119.9,-762.11 150.01,-740.77 179,-726.5 186.94,-722.59 195.64,-719.09 204.24,-716.04"/>
<polygon fill="darkgreen" stroke="darkgreen" points="96.84,-775.38 91.1,-784.28 101.14,-780.91 96.84,-775.38"/>
</g>
<!-- Node47 -->
<g id="node47" class="node">
<title>Node47</title>
<g id="a_node47"><a xlink:href="classtracktion_1_1engine_1_1RandomModifier.html" target="_top" xlink:title=" ">
<polygon fill="none" stroke="black" points="204.5,-637.5 204.5,-667.5 309.5,-667.5 309.5,-637.5 204.5,-637.5"/>
<text text-anchor="start" x="212.5" y="-655.5" font-family="Helvetica,sans-Serif" font-size="10.00">tracktion::engine::</text>
<text text-anchor="middle" x="257" y="-644.5" font-family="Helvetica,sans-Serif" font-size="10.00">RandomModifier</text>
</a>
</g>
</g>
<!-- Node1&#45;&gt;Node47 -->
<g id="edge46" class="edge">
<title>Node1&#45;&gt;Node47</title>
<path fill="none" stroke="#8b1a1a" d="M87.33,-775.83C105.67,-748.41 139.37,-703.67 179,-677.5 186.62,-672.47 195.34,-668.38 204.1,-665.08"/>
<polygon fill="#8b1a1a" stroke="#8b1a1a" points="84.26,-774.13 81.71,-784.41 90.12,-777.96 84.26,-774.13"/>
</g>
<!-- Node48 -->
<g id="node48" class="node">
<title>Node48</title>
<g id="a_node48"><a xlink:href="classtracktion_1_1engine_1_1StepModifier.html" target="_top" xlink:title=" ">
<polygon fill="none" stroke="black" points="204.5,-588.5 204.5,-618.5 309.5,-618.5 309.5,-588.5 204.5,-588.5"/>
<text text-anchor="start" x="212.5" y="-606.5" font-family="Helvetica,sans-Serif" font-size="10.00">tracktion::engine::</text>
<text text-anchor="middle" x="257" y="-595.5" font-family="Helvetica,sans-Serif" font-size="10.00">StepModifier</text>
</a>
</g>
</g>
<!-- Node1&#45;&gt;Node48 -->
<g id="edge47" class="edge">
<title>Node1&#45;&gt;Node48</title>
<path fill="none" stroke="#8b1a1a" d="M81.4,-774.94C96.06,-737.88 128.77,-667.8 179,-628.5 186.42,-622.7 195.23,-618.22 204.19,-614.77"/>
<polygon fill="#8b1a1a" stroke="#8b1a1a" points="78.06,-773.88 77.74,-784.47 84.59,-776.39 78.06,-773.88"/>
</g>
<!-- Node49 -->
<g id="node49" class="node">
<title>Node49</title>
<g id="a_node49"><a xlink:href="classtracktion_1_1engine_1_1TimeSigSetting.html" target="_top" xlink:title=" ">
<polygon fill="none" stroke="black" points="204.5,-539.5 204.5,-569.5 309.5,-569.5 309.5,-539.5 204.5,-539.5"/>
<text text-anchor="start" x="212.5" y="-557.5" font-family="Helvetica,sans-Serif" font-size="10.00">tracktion::engine::</text>
<text text-anchor="middle" x="257" y="-546.5" font-family="Helvetica,sans-Serif" font-size="10.00">TimeSigSetting</text>
</a>
</g>
</g>
<!-- Node1&#45;&gt;Node49 -->
<g id="edge48" class="edge">
<title>Node1&#45;&gt;Node49</title>
<path fill="none" stroke="#8b1a1a" d="M77.76,-774.58C88.64,-729.18 117.85,-632.81 179,-579.5 186.31,-573.13 195.27,-568.37 204.47,-564.83"/>
<polygon fill="#8b1a1a" stroke="#8b1a1a" points="74.32,-773.93 75.5,-784.46 81.14,-775.5 74.32,-773.93"/>
</g>
<!-- Node4 -->
<g id="node4" class="node">
<title>Node4</title>
<g id="a_node4"><a xlink:href="structtracktion_1_1engine_1_1FadeInOutEffect.html" target="_top" xlink:title=" ">
<polygon fill="none" stroke="black" points="385,-1764.5 385,-1794.5 490,-1794.5 490,-1764.5 385,-1764.5"/>
<text text-anchor="start" x="393" y="-1782.5" font-family="Helvetica,sans-Serif" font-size="10.00">tracktion::engine::</text>
<text text-anchor="middle" x="437.5" y="-1771.5" font-family="Helvetica,sans-Serif" font-size="10.00">FadeInOutEffect</text>
</a>
</g>
</g>
<!-- Node3&#45;&gt;Node4 -->
<g id="edge3" class="edge">
<title>Node3&#45;&gt;Node4</title>
<path fill="none" stroke="midnightblue" d="M318.8,-1521.84C324.92,-1525.12 330.51,-1529.27 335,-1534.5 399.81,-1610.02 307.61,-1678.78 371,-1755.5 374.78,-1760.07 379.51,-1763.78 384.69,-1766.77"/>
<polygon fill="midnightblue" stroke="midnightblue" points="320.1,-1518.58 309.54,-1517.62 317.19,-1524.95 320.1,-1518.58"/>
</g>
<!-- Node5 -->
<g id="node5" class="node">
<title>Node5</title>
<g id="a_node5"><a xlink:href="structtracktion_1_1engine_1_1InvertEffect.html" target="_top" xlink:title=" ">
<polygon fill="none" stroke="black" points="385,-1715.5 385,-1745.5 490,-1745.5 490,-1715.5 385,-1715.5"/>
<text text-anchor="start" x="393" y="-1733.5" font-family="Helvetica,sans-Serif" font-size="10.00">tracktion::engine::</text>
<text text-anchor="middle" x="437.5" y="-1722.5" font-family="Helvetica,sans-Serif" font-size="10.00">InvertEffect</text>
</a>
</g>
</g>
<!-- Node3&#45;&gt;Node5 -->
<g id="edge4" class="edge">
<title>Node3&#45;&gt;Node5</title>
<path fill="none" stroke="midnightblue" d="M318.83,-1522.18C324.88,-1525.4 330.46,-1529.44 335,-1534.5 387.18,-1592.62 319.92,-1647.42 371,-1706.5 374.88,-1710.99 379.68,-1714.64 384.89,-1717.61"/>
<polygon fill="midnightblue" stroke="midnightblue" points="320.23,-1518.97 309.68,-1518.01 317.33,-1525.34 320.23,-1518.97"/>
</g>
<!-- Node6 -->
<g id="node6" class="node">
<title>Node6</title>
<g id="a_node6"><a xlink:href="structtracktion_1_1engine_1_1MakeMonoEffect.html" target="_top" xlink:title=" ">
<polygon fill="none" stroke="black" points="385,-1666.5 385,-1696.5 490,-1696.5 490,-1666.5 385,-1666.5"/>
<text text-anchor="start" x="393" y="-1684.5" font-family="Helvetica,sans-Serif" font-size="10.00">tracktion::engine::</text>
<text text-anchor="middle" x="437.5" y="-1673.5" font-family="Helvetica,sans-Serif" font-size="10.00">MakeMonoEffect</text>
</a>
</g>
</g>
<!-- Node3&#45;&gt;Node6 -->
<g id="edge5" class="edge">
<title>Node3&#45;&gt;Node6</title>
<path fill="none" stroke="midnightblue" d="M319.12,-1522.89C324.98,-1525.99 330.44,-1529.8 335,-1534.5 374.68,-1575.36 332.08,-1615.91 371,-1657.5 374.97,-1661.74 379.76,-1665.24 384.91,-1668.12"/>
<polygon fill="midnightblue" stroke="midnightblue" points="320.18,-1519.52 309.62,-1518.58 317.29,-1525.9 320.18,-1519.52"/>
</g>
<!-- Node7 -->
<g id="node7" class="node">
<title>Node7</title>
<g id="a_node7"><a xlink:href="structtracktion_1_1engine_1_1NormaliseEffect.html" target="_top" xlink:title=" ">
<polygon fill="none" stroke="black" points="385,-1617.5 385,-1647.5 490,-1647.5 490,-1617.5 385,-1617.5"/>
<text text-anchor="start" x="393" y="-1635.5" font-family="Helvetica,sans-Serif" font-size="10.00">tracktion::engine::</text>
<text text-anchor="middle" x="437.5" y="-1624.5" font-family="Helvetica,sans-Serif" font-size="10.00">NormaliseEffect</text>
</a>
</g>
</g>
<!-- Node3&#45;&gt;Node7 -->
<g id="edge6" class="edge">
<title>Node3&#45;&gt;Node7</title>
<path fill="none" stroke="midnightblue" d="M318.87,-1523.94C324.69,-1526.84 330.2,-1530.32 335,-1534.5 362.59,-1558.51 343.86,-1583.98 371,-1608.5 375.13,-1612.23 379.9,-1615.4 384.93,-1618.08"/>
<polygon fill="midnightblue" stroke="midnightblue" points="320.09,-1520.65 309.52,-1519.84 317.27,-1527.06 320.09,-1520.65"/>
</g>
<!-- Node8 -->
<g id="node8" class="node">
<title>Node8</title>
<g id="a_node8"><a xlink:href="structtracktion_1_1engine_1_1PitchShiftEffect.html" target="_top" xlink:title=" ">
<polygon fill="none" stroke="black" points="385,-1568.5 385,-1598.5 490,-1598.5 490,-1568.5 385,-1568.5"/>
<text text-anchor="start" x="393" y="-1586.5" font-family="Helvetica,sans-Serif" font-size="10.00">tracktion::engine::</text>
<text text-anchor="middle" x="437.5" y="-1575.5" font-family="Helvetica,sans-Serif" font-size="10.00">PitchShiftEffect</text>
</a>
</g>
</g>
<!-- Node3&#45;&gt;Node8 -->
<g id="edge7" class="edge">
<title>Node3&#45;&gt;Node8</title>
<path fill="none" stroke="midnightblue" d="M319.45,-1527.63C324.79,-1529.75 330.04,-1532.04 335,-1534.5 352.45,-1543.16 353.71,-1550.52 371,-1559.5 377.23,-1562.74 384,-1565.74 390.75,-1568.45"/>
<polygon fill="midnightblue" stroke="midnightblue" points="320.37,-1524.23 309.78,-1523.99 317.91,-1530.79 320.37,-1524.23"/>
</g>
<!-- Node9 -->
<g id="node9" class="node">
<title>Node9</title>
<g id="a_node9"><a xlink:href="structtracktion_1_1engine_1_1PluginEffect.html" target="_top" xlink:title=" ">
<polygon fill="none" stroke="black" points="385,-1519.5 385,-1549.5 490,-1549.5 490,-1519.5 385,-1519.5"/>
<text text-anchor="start" x="393" y="-1537.5" font-family="Helvetica,sans-Serif" font-size="10.00">tracktion::engine::</text>
<text text-anchor="middle" x="437.5" y="-1526.5" font-family="Helvetica,sans-Serif" font-size="10.00">PluginEffect</text>
</a>
</g>
</g>
<!-- Node3&#45;&gt;Node9 -->
<g id="edge8" class="edge">
<title>Node3&#45;&gt;Node9</title>
<path fill="none" stroke="midnightblue" d="M319.56,-1518.12C340.89,-1521.11 364.55,-1524.42 384.99,-1527.29"/>
<polygon fill="midnightblue" stroke="midnightblue" points="320.02,-1514.65 309.63,-1516.73 319.05,-1521.58 320.02,-1514.65"/>
</g>
<!-- Node10 -->
<g id="node10" class="node">
<title>Node10</title>
<g id="a_node10"><a xlink:href="structtracktion_1_1engine_1_1ReverseEffect.html" target="_top" xlink:title=" ">
<polygon fill="none" stroke="black" points="385,-1470.5 385,-1500.5 490,-1500.5 490,-1470.5 385,-1470.5"/>
<text text-anchor="start" x="393" y="-1488.5" font-family="Helvetica,sans-Serif" font-size="10.00">tracktion::engine::</text>
<text text-anchor="middle" x="437.5" y="-1477.5" font-family="Helvetica,sans-Serif" font-size="10.00">ReverseEffect</text>
</a>
</g>
</g>
<!-- Node3&#45;&gt;Node10 -->
<g id="edge9" class="edge">
<title>Node3&#45;&gt;Node10</title>
<path fill="none" stroke="midnightblue" d="M319.56,-1501.22C340.89,-1498.36 364.55,-1495.17 384.99,-1492.43"/>
<polygon fill="midnightblue" stroke="midnightblue" points="319.07,-1497.76 309.63,-1502.56 320.01,-1504.69 319.07,-1497.76"/>
</g>
<!-- Node11 -->
<g id="node11" class="node">
<title>Node11</title>
<g id="a_node11"><a xlink:href="structtracktion_1_1engine_1_1StepVolumeEffect.html" target="_top" xlink:title=" ">
<polygon fill="none" stroke="black" points="385,-1421.5 385,-1451.5 490,-1451.5 490,-1421.5 385,-1421.5"/>
<text text-anchor="start" x="393" y="-1439.5" font-family="Helvetica,sans-Serif" font-size="10.00">tracktion::engine::</text>
<text text-anchor="middle" x="437.5" y="-1428.5" font-family="Helvetica,sans-Serif" font-size="10.00">StepVolumeEffect</text>
</a>
</g>
</g>
<!-- Node3&#45;&gt;Node11 -->
<g id="edge10" class="edge">
<title>Node3&#45;&gt;Node11</title>
<path fill="none" stroke="midnightblue" d="M301.74,-1490.48C322.63,-1481.5 348.03,-1470.76 371,-1461.5 379.13,-1458.22 387.87,-1454.81 396.23,-1451.6"/>
<polygon fill="midnightblue" stroke="midnightblue" points="300.28,-1487.29 292.48,-1494.46 303.05,-1493.72 300.28,-1487.29"/>
</g>
<!-- Node12 -->
<g id="node12" class="node">
<title>Node12</title>
<g id="a_node12"><a xlink:href="structtracktion_1_1engine_1_1VolumeEffect.html" target="_top" xlink:title=" ">
<polygon fill="none" stroke="black" points="385,-1372.5 385,-1402.5 490,-1402.5 490,-1372.5 385,-1372.5"/>
<text text-anchor="start" x="393" y="-1390.5" font-family="Helvetica,sans-Serif" font-size="10.00">tracktion::engine::</text>
<text text-anchor="middle" x="437.5" y="-1379.5" font-family="Helvetica,sans-Serif" font-size="10.00">VolumeEffect</text>
</a>
</g>
</g>
<!-- Node3&#45;&gt;Node12 -->
<g id="edge11" class="edge">
<title>Node3&#45;&gt;Node12</title>
<path fill="none" stroke="midnightblue" d="M279.43,-1487.06C300.94,-1465.58 335.83,-1433.44 371,-1412.5 377.17,-1408.83 383.98,-1405.52 390.8,-1402.6"/>
<polygon fill="midnightblue" stroke="midnightblue" points="276.94,-1484.6 272.41,-1494.18 281.92,-1489.52 276.94,-1484.6"/>
</g>
<!-- Node13 -->
<g id="node13" class="node">
<title>Node13</title>
<g id="a_node13"><a xlink:href="structtracktion_1_1engine_1_1WarpTimeEffect.html" target="_top" xlink:title=" ">
<polygon fill="none" stroke="black" points="385,-1323.5 385,-1353.5 490,-1353.5 490,-1323.5 385,-1323.5"/>
<text text-anchor="start" x="393" y="-1341.5" font-family="Helvetica,sans-Serif" font-size="10.00">tracktion::engine::</text>
<text text-anchor="middle" x="437.5" y="-1330.5" font-family="Helvetica,sans-Serif" font-size="10.00">WarpTimeEffect</text>
</a>
</g>
</g>
<!-- Node3&#45;&gt;Node13 -->
<g id="edge12" class="edge">
<title>Node3&#45;&gt;Node13</title>
<path fill="none" stroke="midnightblue" d="M270.99,-1485.38C289.35,-1453.4 325.75,-1397.08 371,-1363.5 376.08,-1359.73 381.8,-1356.46 387.69,-1353.64"/>
<polygon fill="midnightblue" stroke="midnightblue" points="267.73,-1484.04 265.89,-1494.48 273.84,-1487.47 267.73,-1484.04"/>
</g>
<!-- Node20 -->
<g id="node20" class="node">
<title>Node20</title>
<g id="a_node20"><a xlink:href="classtracktion_1_1engine_1_1AirWindowsPlugin.html" target="_top" xlink:title=" ">
<polygon fill="none" stroke="black" points="385,-1274.5 385,-1304.5 490,-1304.5 490,-1274.5 385,-1274.5"/>
<text text-anchor="start" x="393" y="-1292.5" font-family="Helvetica,sans-Serif" font-size="10.00">tracktion::engine::</text>
<text text-anchor="middle" x="437.5" y="-1281.5" font-family="Helvetica,sans-Serif" font-size="10.00">AirWindowsPlugin</text>
</a>
</g>
</g>
<!-- Node19&#45;&gt;Node20 -->
<g id="edge19" class="edge">
<title>Node19&#45;&gt;Node20</title>
<path fill="none" stroke="midnightblue" d="M319.05,-713.3C325.18,-716.67 330.71,-720.99 335,-726.5 408.77,-821.2 299.01,-1169.44 371,-1265.5 374.7,-1270.44 379.53,-1274.37 384.89,-1277.49"/>
<polygon fill="midnightblue" stroke="midnightblue" points="320.27,-710.01 309.73,-709 317.34,-716.37 320.27,-710.01"/>
</g>
<!-- Node21 -->
<g id="node21" class="node">
<title>Node21</title>
<g id="a_node21"><a xlink:href="classtracktion_1_1engine_1_1AuxReturnPlugin.html" target="_top" xlink:title=" ">
<polygon fill="none" stroke="black" points="385,-1225.5 385,-1255.5 490,-1255.5 490,-1225.5 385,-1225.5"/>
<text text-anchor="start" x="393" y="-1243.5" font-family="Helvetica,sans-Serif" font-size="10.00">tracktion::engine::</text>
<text text-anchor="middle" x="437.5" y="-1232.5" font-family="Helvetica,sans-Serif" font-size="10.00">AuxReturnPlugin</text>
</a>
</g>
</g>
<!-- Node19&#45;&gt;Node21 -->
<g id="edge20" class="edge">
<title>Node19&#45;&gt;Node21</title>
<path fill="none" stroke="midnightblue" d="M319.01,-713.33C325.15,-716.7 330.69,-721 335,-726.5 402.38,-812.41 305.23,-1129.35 371,-1216.5 374.72,-1221.43 379.56,-1225.35 384.92,-1228.46"/>
<polygon fill="midnightblue" stroke="midnightblue" points="320.23,-710.03 309.69,-709.03 317.31,-716.39 320.23,-710.03"/>
</g>
<!-- Node22 -->
<g id="node22" class="node">
<title>Node22</title>
<g id="a_node22"><a xlink:href="classtracktion_1_1engine_1_1AuxSendPlugin.html" target="_top" xlink:title=" ">
<polygon fill="none" stroke="black" points="385,-1176.5 385,-1206.5 490,-1206.5 490,-1176.5 385,-1176.5"/>
<text text-anchor="start" x="393" y="-1194.5" font-family="Helvetica,sans-Serif" font-size="10.00">tracktion::engine::</text>
<text text-anchor="middle" x="437.5" y="-1183.5" font-family="Helvetica,sans-Serif" font-size="10.00">AuxSendPlugin</text>
</a>
</g>
</g>
<!-- Node19&#45;&gt;Node22 -->
<g id="edge21" class="edge">
<title>Node19&#45;&gt;Node22</title>
<path fill="none" stroke="midnightblue" d="M318.97,-713.36C325.11,-716.72 330.67,-721.02 335,-726.5 395.99,-803.62 311.45,-1089.25 371,-1167.5 374.74,-1172.42 379.59,-1176.32 384.96,-1179.43"/>
<polygon fill="midnightblue" stroke="midnightblue" points="320.18,-710.07 309.64,-709.07 317.26,-716.43 320.18,-710.07"/>
</g>
<!-- Node23 -->
<g id="node23" class="node">
<title>Node23</title>
<g id="a_node23"><a xlink:href="classtracktion_1_1engine_1_1ChorusPlugin.html" target="_top" xlink:title=" ">
<polygon fill="none" stroke="black" points="385,-1127.5 385,-1157.5 490,-1157.5 490,-1127.5 385,-1127.5"/>
<text text-anchor="start" x="393" y="-1145.5" font-family="Helvetica,sans-Serif" font-size="10.00">tracktion::engine::</text>
<text text-anchor="middle" x="437.5" y="-1134.5" font-family="Helvetica,sans-Serif" font-size="10.00">ChorusPlugin</text>
</a>
</g>
</g>
<!-- Node19&#45;&gt;Node23 -->
<g id="edge22" class="edge">
<title>Node19&#45;&gt;Node23</title>
<path fill="none" stroke="midnightblue" d="M318.92,-713.4C325.07,-716.76 330.64,-721.04 335,-726.5 389.61,-794.84 317.67,-1049.16 371,-1118.5 374.69,-1123.3 379.44,-1127.14 384.69,-1130.21"/>
<polygon fill="midnightblue" stroke="midnightblue" points="320.12,-710.11 309.57,-709.12 317.2,-716.47 320.12,-710.11"/>
</g>
<!-- Node24 -->
<g id="node24" class="node">
<title>Node24</title>
<g id="a_node24"><a xlink:href="classtracktion_1_1engine_1_1CompressorPlugin.html" target="_top" xlink:title=" ">
<polygon fill="none" stroke="black" points="385,-1078.5 385,-1108.5 490,-1108.5 490,-1078.5 385,-1078.5"/>
<text text-anchor="start" x="393" y="-1096.5" font-family="Helvetica,sans-Serif" font-size="10.00">tracktion::engine::</text>
<text text-anchor="middle" x="437.5" y="-1085.5" font-family="Helvetica,sans-Serif" font-size="10.00">CompressorPlugin</text>
</a>
</g>
</g>
<!-- Node19&#45;&gt;Node24 -->
<g id="edge23" class="edge">
<title>Node19&#45;&gt;Node24</title>
<path fill="none" stroke="midnightblue" d="M319.1,-713.6C325.16,-716.92 330.66,-721.14 335,-726.5 431.47,-845.62 276.77,-948.6 371,-1069.5 374.72,-1074.28 379.49,-1078.1 384.75,-1081.17"/>
<polygon fill="midnightblue" stroke="midnightblue" points="320.43,-710.36 309.89,-709.34 317.5,-716.71 320.43,-710.36"/>
</g>
<!-- Node25 -->
<g id="node25" class="node">
<title>Node25</title>
<g id="a_node25"><a xlink:href="classtracktion_1_1engine_1_1DelayPlugin.html" target="_top" xlink:title=" ">
<polygon fill="none" stroke="black" points="385,-1029.5 385,-1059.5 490,-1059.5 490,-1029.5 385,-1029.5"/>
<text text-anchor="start" x="393" y="-1047.5" font-family="Helvetica,sans-Serif" font-size="10.00">tracktion::engine::</text>
<text text-anchor="middle" x="437.5" y="-1036.5" font-family="Helvetica,sans-Serif" font-size="10.00">DelayPlugin</text>
</a>
</g>
</g>
<!-- Node19&#45;&gt;Node25 -->
<g id="edge24" class="edge">
<title>Node19&#45;&gt;Node25</title>
<path fill="none" stroke="midnightblue" d="M319.01,-713.67C325.08,-716.98 330.62,-721.18 335,-726.5 418.73,-828.08 289.18,-917.37 371,-1020.5 374.76,-1025.24 379.56,-1029.05 384.83,-1032.1"/>
<polygon fill="midnightblue" stroke="midnightblue" points="320.33,-710.43 309.78,-709.42 317.4,-716.78 320.33,-710.43"/>
</g>
<!-- Node26 -->
<g id="node26" class="node">
<title>Node26</title>
<g id="a_node26"><a xlink:href="classtracktion_1_1engine_1_1EqualiserPlugin.html" target="_top" xlink:title=" ">
<polygon fill="none" stroke="black" points="385,-980.5 385,-1010.5 490,-1010.5 490,-980.5 385,-980.5"/>
<text text-anchor="start" x="393" y="-998.5" font-family="Helvetica,sans-Serif" font-size="10.00">tracktion::engine::</text>
<text text-anchor="middle" x="437.5" y="-987.5" font-family="Helvetica,sans-Serif" font-size="10.00">EqualiserPlugin</text>
</a>
</g>
</g>
<!-- Node19&#45;&gt;Node26 -->
<g id="edge25" class="edge">
<title>Node19&#45;&gt;Node26</title>
<path fill="none" stroke="midnightblue" d="M318.88,-713.77C324.98,-717.07 330.55,-721.23 335,-726.5 406.02,-810.58 301.56,-886.11 371,-971.5 374.82,-976.2 379.65,-979.98 384.94,-983.02"/>
<polygon fill="midnightblue" stroke="midnightblue" points="320.19,-710.52 309.64,-709.54 317.28,-716.89 320.19,-710.52"/>
</g>
<!-- Node27 -->
<g id="node27" class="node">
<title>Node27</title>
<g id="a_node27"><a xlink:href="classtracktion_1_1engine_1_1ExternalPlugin.html" target="_top" xlink:title=" ">
<polygon fill="none" stroke="black" points="385,-931.5 385,-961.5 490,-961.5 490,-931.5 385,-931.5"/>
<text text-anchor="start" x="393" y="-949.5" font-family="Helvetica,sans-Serif" font-size="10.00">tracktion::engine::</text>
<text text-anchor="middle" x="437.5" y="-938.5" font-family="Helvetica,sans-Serif" font-size="10.00">ExternalPlugin</text>
</a>
</g>
</g>
<!-- Node19&#45;&gt;Node27 -->
<g id="edge26" class="edge">
<title>Node19&#45;&gt;Node27</title>
<path fill="none" stroke="midnightblue" d="M318.95,-714.07C324.98,-717.31 330.52,-721.39 335,-726.5 393.35,-793.13 313.9,-854.79 371,-922.5 374.83,-927.04 379.59,-930.72 384.78,-933.7"/>
<polygon fill="midnightblue" stroke="midnightblue" points="320.37,-710.87 309.82,-709.88 317.45,-717.23 320.37,-710.87"/>
</g>
<!-- Node28 -->
<g id="node28" class="node">
<title>Node28</title>
<g id="a_node28"><a xlink:href="classtracktion_1_1engine_1_1FourOscPlugin.html" target="_top" xlink:title=" ">
<polygon fill="none" stroke="black" points="385,-882.5 385,-912.5 490,-912.5 490,-882.5 385,-882.5"/>
<text text-anchor="start" x="393" y="-900.5" font-family="Helvetica,sans-Serif" font-size="10.00">tracktion::engine::</text>
<text text-anchor="middle" x="437.5" y="-889.5" font-family="Helvetica,sans-Serif" font-size="10.00">FourOscPlugin</text>
</a>
</g>
</g>
<!-- Node19&#45;&gt;Node28 -->
<g id="edge27" class="edge">
<title>Node19&#45;&gt;Node28</title>
<path fill="none" stroke="midnightblue" d="M319.33,-714.69C325.16,-717.82 330.54,-721.7 335,-726.5 380.78,-775.78 326.15,-823.37 371,-873.5 374.88,-877.83 379.6,-881.38 384.72,-884.29"/>
<polygon fill="midnightblue" stroke="midnightblue" points="320.43,-711.34 309.88,-710.34 317.5,-717.7 320.43,-711.34"/>
</g>
<!-- Node29 -->
<g id="node29" class="node">
<title>Node29</title>
<g id="a_node29"><a xlink:href="classtracktion_1_1engine_1_1FreezePointPlugin.html" target="_top" xlink:title=" ">
<polygon fill="none" stroke="black" points="385,-833.5 385,-863.5 490,-863.5 490,-833.5 385,-833.5"/>
<text text-anchor="start" x="393" y="-851.5" font-family="Helvetica,sans-Serif" font-size="10.00">tracktion::engine::</text>
<text text-anchor="middle" x="437.5" y="-840.5" font-family="Helvetica,sans-Serif" font-size="10.00">FreezePointPlugin</text>
</a>
</g>
</g>
<!-- Node19&#45;&gt;Node29 -->
<g id="edge28" class="edge">
<title>Node19&#45;&gt;Node29</title>
<path fill="none" stroke="midnightblue" d="M319.06,-715.33C324.89,-718.35 330.35,-722.02 335,-726.5 368.43,-758.68 338.18,-791.7 371,-824.5 375.03,-828.52 379.78,-831.88 384.86,-834.67"/>
<polygon fill="midnightblue" stroke="midnightblue" points="320.21,-712.01 309.65,-711.11 317.34,-718.4 320.21,-712.01"/>
</g>
<!-- Node30 -->
<g id="node30" class="node">
<title>Node30</title>
<g id="a_node30"><a xlink:href="classtracktion_1_1engine_1_1ImpulseResponsePlugin.html" target="_top" xlink:title="ImpulseResponsePlugin that loads an impulse response and applies it the audio stream.">
<polygon fill="none" stroke="black" points="371,-784.5 371,-814.5 504,-814.5 504,-784.5 371,-784.5"/>
<text text-anchor="start" x="379" y="-802.5" font-family="Helvetica,sans-Serif" font-size="10.00">tracktion::engine::</text>
<text text-anchor="middle" x="437.5" y="-791.5" font-family="Helvetica,sans-Serif" font-size="10.00">ImpulseResponsePlugin</text>
</a>
</g>
</g>
<!-- Node19&#45;&gt;Node30 -->
<g id="edge29" class="edge">
<title>Node19&#45;&gt;Node30</title>
<path fill="none" stroke="midnightblue" d="M319.32,-717.4C324.86,-720.01 330.18,-723.02 335,-726.5 356.91,-742.32 349.39,-759.27 371,-775.5 375.55,-778.92 380.64,-781.89 385.91,-784.47"/>
<polygon fill="midnightblue" stroke="midnightblue" points="320.43,-714.07 309.86,-713.4 317.7,-720.52 320.43,-714.07"/>
</g>
<!-- Node31 -->
<g id="node31" class="node">
<title>Node31</title>
<g id="a_node31"><a xlink:href="classtracktion_1_1engine_1_1InsertPlugin.html" target="_top" xlink:title=" ">
<polygon fill="none" stroke="black" points="385,-735.5 385,-765.5 490,-765.5 490,-735.5 385,-735.5"/>
<text text-anchor="start" x="393" y="-753.5" font-family="Helvetica,sans-Serif" font-size="10.00">tracktion::engine::</text>
<text text-anchor="middle" x="437.5" y="-742.5" font-family="Helvetica,sans-Serif" font-size="10.00">InsertPlugin</text>
</a>
</g>
</g>
<!-- Node19&#45;&gt;Node31 -->
<g id="edge30" class="edge">
<title>Node19&#45;&gt;Node31</title>
<path fill="none" stroke="midnightblue" d="M319.27,-718.32C340.67,-724.19 364.46,-730.72 384.99,-736.36"/>
<polygon fill="midnightblue" stroke="midnightblue" points="320.2,-714.94 309.63,-715.67 318.35,-721.7 320.2,-714.94"/>
</g>
<!-- Node32 -->
<g id="node32" class="node">
<title>Node32</title>
<g id="a_node32"><a xlink:href="classtracktion_1_1engine_1_1LatencyPlugin.html" target="_top" xlink:title="A test plugin that introduces latency to the incomming signal.">
<polygon fill="none" stroke="black" points="385,-686.5 385,-716.5 490,-716.5 490,-686.5 385,-686.5"/>
<text text-anchor="start" x="393" y="-704.5" font-family="Helvetica,sans-Serif" font-size="10.00">tracktion::engine::</text>
<text text-anchor="middle" x="437.5" y="-693.5" font-family="Helvetica,sans-Serif" font-size="10.00">LatencyPlugin</text>
</a>
</g>
</g>
<!-- Node19&#45;&gt;Node32 -->
<g id="edge31" class="edge">
<title>Node19&#45;&gt;Node32</title>
<path fill="none" stroke="midnightblue" d="M319.85,-701.5C341.1,-701.5 364.65,-701.5 384.99,-701.5"/>
<polygon fill="midnightblue" stroke="midnightblue" points="319.63,-698 309.63,-701.5 319.63,-705 319.63,-698"/>
</g>
<!-- Node33 -->
<g id="node33" class="node">
<title>Node33</title>
<g id="a_node33"><a xlink:href="classtracktion_1_1engine_1_1LevelMeterPlugin.html" target="_top" xlink:title=" ">
<polygon fill="none" stroke="black" points="385,-637.5 385,-667.5 490,-667.5 490,-637.5 385,-637.5"/>
<text text-anchor="start" x="393" y="-655.5" font-family="Helvetica,sans-Serif" font-size="10.00">tracktion::engine::</text>
<text text-anchor="middle" x="437.5" y="-644.5" font-family="Helvetica,sans-Serif" font-size="10.00">LevelMeterPlugin</text>
</a>
</g>
</g>
<!-- Node19&#45;&gt;Node33 -->
<g id="edge32" class="edge">
<title>Node19&#45;&gt;Node33</title>
<path fill="none" stroke="midnightblue" d="M319.27,-684.68C340.67,-678.81 364.46,-672.28 384.99,-666.64"/>
<polygon fill="midnightblue" stroke="midnightblue" points="318.35,-681.3 309.63,-687.33 320.2,-688.06 318.35,-681.3"/>
</g>
<!-- Node34 -->
<g id="node34" class="node">
<title>Node34</title>
<g id="a_node34"><a xlink:href="classtracktion_1_1engine_1_1LowPassPlugin.html" target="_top" xlink:title=" ">
<polygon fill="none" stroke="black" points="385,-588.5 385,-618.5 490,-618.5 490,-588.5 385,-588.5"/>
<text text-anchor="start" x="393" y="-606.5" font-family="Helvetica,sans-Serif" font-size="10.00">tracktion::engine::</text>
<text text-anchor="middle" x="437.5" y="-595.5" font-family="Helvetica,sans-Serif" font-size="10.00">LowPassPlugin</text>
</a>
</g>
</g>
<!-- Node19&#45;&gt;Node34 -->
<g id="edge33" class="edge">
<title>Node19&#45;&gt;Node34</title>
<path fill="none" stroke="midnightblue" d="M319.32,-686.44C324.85,-683.9 330.18,-680.94 335,-677.5 357,-661.81 349.5,-644.87 371,-628.5 376.04,-624.67 381.73,-621.36 387.6,-618.52"/>
<polygon fill="midnightblue" stroke="midnightblue" points="317.77,-683.29 309.85,-690.33 320.43,-689.76 317.77,-683.29"/>
</g>
<!-- Node35 -->
<g id="node35" class="node">
<title>Node35</title>
<g id="a_node35"><a xlink:href="classtracktion_1_1engine_1_1MidiModifierPlugin.html" target="_top" xlink:title=" ">
<polygon fill="none" stroke="black" points="384,-539.5 384,-569.5 491,-569.5 491,-539.5 384,-539.5"/>
<text text-anchor="start" x="392" y="-557.5" font-family="Helvetica,sans-Serif" font-size="10.00">tracktion::engine::</text>
<text text-anchor="middle" x="437.5" y="-546.5" font-family="Helvetica,sans-Serif" font-size="10.00">MidiModifierPlugin</text>
</a>
</g>
</g>
<!-- Node19&#45;&gt;Node35 -->
<g id="edge34" class="edge">
<title>Node19&#45;&gt;Node35</title>
<path fill="none" stroke="midnightblue" d="M319.04,-688.5C324.87,-685.55 330.34,-681.93 335,-677.5 368.62,-645.52 338.4,-612.52 371,-579.5 374.85,-575.6 379.37,-572.3 384.2,-569.51"/>
<polygon fill="midnightblue" stroke="midnightblue" points="317.4,-685.39 309.63,-692.6 320.2,-691.81 317.4,-685.39"/>
</g>
<!-- Node36 -->
<g id="node36" class="node">
<title>Node36</title>
<g id="a_node36"><a xlink:href="classtracktion_1_1engine_1_1MidiPatchBayPlugin.html" target="_top" xlink:title=" ">
<polygon fill="none" stroke="black" points="381,-490.5 381,-520.5 494,-520.5 494,-490.5 381,-490.5"/>
<text text-anchor="start" x="389" y="-508.5" font-family="Helvetica,sans-Serif" font-size="10.00">tracktion::engine::</text>
<text text-anchor="middle" x="437.5" y="-497.5" font-family="Helvetica,sans-Serif" font-size="10.00">MidiPatchBayPlugin</text>
</a>
</g>
</g>
<!-- Node19&#45;&gt;Node36 -->
<g id="edge35" class="edge">
<title>Node19&#45;&gt;Node36</title>
<path fill="none" stroke="midnightblue" d="M319.31,-689.14C325.14,-686.07 330.53,-682.25 335,-677.5 381.07,-628.49 326.49,-580.93 371,-530.5 374.38,-526.67 378.42,-523.42 382.8,-520.67"/>
<polygon fill="midnightblue" stroke="midnightblue" points="317.55,-686.09 309.85,-693.36 320.41,-692.48 317.55,-686.09"/>
</g>
<!-- Node37 -->
<g id="node37" class="node">
<title>Node37</title>
<g id="a_node37"><a xlink:href="classtracktion_1_1engine_1_1PatchBayPlugin.html" target="_top" xlink:title=" ">
<polygon fill="none" stroke="black" points="385,-441.5 385,-471.5 490,-471.5 490,-441.5 385,-441.5"/>
<text text-anchor="start" x="393" y="-459.5" font-family="Helvetica,sans-Serif" font-size="10.00">tracktion::engine::</text>
<text text-anchor="middle" x="437.5" y="-448.5" font-family="Helvetica,sans-Serif" font-size="10.00">PatchBayPlugin</text>
</a>
</g>
</g>
<!-- Node19&#45;&gt;Node37 -->
<g id="edge36" class="edge">
<title>Node19&#45;&gt;Node37</title>
<path fill="none" stroke="midnightblue" d="M318.93,-689.75C324.96,-686.58 330.51,-682.57 335,-677.5 393.74,-611.22 314.36,-549.59 371,-481.5 374.81,-476.92 379.57,-473.17 384.76,-470.11"/>
<polygon fill="midnightblue" stroke="midnightblue" points="317.5,-686.55 309.79,-693.82 320.35,-692.95 317.5,-686.55"/>
</g>
<!-- Node38 -->
<g id="node38" class="node">
<title>Node38</title>
<g id="a_node38"><a xlink:href="classtracktion_1_1engine_1_1PhaserPlugin.html" target="_top" xlink:title=" ">
<polygon fill="none" stroke="black" points="385,-392.5 385,-422.5 490,-422.5 490,-392.5 385,-392.5"/>
<text text-anchor="start" x="393" y="-410.5" font-family="Helvetica,sans-Serif" font-size="10.00">tracktion::engine::</text>
<text text-anchor="middle" x="437.5" y="-399.5" font-family="Helvetica,sans-Serif" font-size="10.00">PhaserPlugin</text>
</a>
</g>
</g>
<!-- Node19&#45;&gt;Node38 -->
<g id="edge37" class="edge">
<title>Node19&#45;&gt;Node38</title>
<path fill="none" stroke="midnightblue" d="M318.85,-690.04C324.96,-686.82 330.54,-682.72 335,-677.5 406.51,-593.84 302.14,-518.35 371,-432.5 374.81,-427.75 379.63,-423.91 384.92,-420.79"/>
<polygon fill="midnightblue" stroke="midnightblue" points="317.32,-686.89 309.61,-694.15 320.17,-693.29 317.32,-686.89"/>
</g>
<!-- Node39 -->
<g id="node39" class="node">
<title>Node39</title>
<g id="a_node39"><a xlink:href="classtracktion_1_1engine_1_1PitchShiftPlugin.html" target="_top" xlink:title=" ">
<polygon fill="none" stroke="black" points="385,-343.5 385,-373.5 490,-373.5 490,-343.5 385,-343.5"/>
<text text-anchor="start" x="393" y="-361.5" font-family="Helvetica,sans-Serif" font-size="10.00">tracktion::engine::</text>
<text text-anchor="middle" x="437.5" y="-350.5" font-family="Helvetica,sans-Serif" font-size="10.00">PitchShiftPlugin</text>
</a>
</g>
</g>
<!-- Node19&#45;&gt;Node39 -->
<g id="edge38" class="edge">
<title>Node19&#45;&gt;Node39</title>
<path fill="none" stroke="midnightblue" d="M318.98,-690.14C325.06,-686.91 330.6,-682.77 335,-677.5 419.33,-576.41 289.87,-487.17 371,-383.5 374.75,-378.71 379.53,-374.83 384.81,-371.7"/>
<polygon fill="midnightblue" stroke="midnightblue" points="317.45,-687 309.75,-694.27 320.31,-693.38 317.45,-687"/>
</g>
<!-- Node40 -->
<g id="node40" class="node">
<title>Node40</title>
<g id="a_node40"><a xlink:href="classtracktion_1_1engine_1_1RackInstance.html" target="_top" xlink:title=" ">
<polygon fill="none" stroke="black" points="385,-294.5 385,-324.5 490,-324.5 490,-294.5 385,-294.5"/>
<text text-anchor="start" x="393" y="-312.5" font-family="Helvetica,sans-Serif" font-size="10.00">tracktion::engine::</text>
<text text-anchor="middle" x="437.5" y="-301.5" font-family="Helvetica,sans-Serif" font-size="10.00">RackInstance</text>
</a>
</g>
</g>
<!-- Node19&#45;&gt;Node40 -->
<g id="edge39" class="edge">
<title>Node19&#45;&gt;Node40</title>
<path fill="none" stroke="midnightblue" d="M319.07,-690.22C325.13,-686.97 330.65,-682.81 335,-677.5 432.17,-558.95 277.58,-456.02 371,-334.5 374.71,-329.68 379.47,-325.78 384.72,-322.64"/>
<polygon fill="midnightblue" stroke="midnightblue" points="317.54,-687.07 309.85,-694.36 320.41,-693.45 317.54,-687.07"/>
</g>
<!-- Node41 -->
<g id="node41" class="node">
<title>Node41</title>
<g id="a_node41"><a xlink:href="classtracktion_1_1engine_1_1ReverbPlugin.html" target="_top" xlink:title=" ">
<polygon fill="none" stroke="black" points="385,-245.5 385,-275.5 490,-275.5 490,-245.5 385,-245.5"/>
<text text-anchor="start" x="393" y="-263.5" font-family="Helvetica,sans-Serif" font-size="10.00">tracktion::engine::</text>
<text text-anchor="middle" x="437.5" y="-252.5" font-family="Helvetica,sans-Serif" font-size="10.00">ReverbPlugin</text>
</a>
</g>
</g>
<!-- Node19&#45;&gt;Node41 -->
<g id="edge40" class="edge">
<title>Node19&#45;&gt;Node41</title>
<path fill="none" stroke="midnightblue" d="M318.89,-690.41C325.04,-687.13 330.62,-682.91 335,-677.5 390.01,-609.49 318.14,-355.2 371,-285.5 374.75,-280.55 379.61,-276.59 384.98,-273.4"/>
<polygon fill="midnightblue" stroke="midnightblue" points="317.25,-687.31 309.54,-694.57 320.1,-693.7 317.25,-687.31"/>
</g>
<!-- Node42 -->
<g id="node42" class="node">
<title>Node42</title>
<g id="a_node42"><a xlink:href="classtracktion_1_1engine_1_1SamplerPlugin.html" target="_top" xlink:title=" ">
<polygon fill="none" stroke="black" points="385,-196.5 385,-226.5 490,-226.5 490,-196.5 385,-196.5"/>
<text text-anchor="start" x="393" y="-214.5" font-family="Helvetica,sans-Serif" font-size="10.00">tracktion::engine::</text>
<text text-anchor="middle" x="437.5" y="-203.5" font-family="Helvetica,sans-Serif" font-size="10.00">SamplerPlugin</text>
</a>
</g>
</g>
<!-- Node19&#45;&gt;Node42 -->
<g id="edge41" class="edge">
<title>Node19&#45;&gt;Node42</title>
<path fill="none" stroke="midnightblue" d="M318.94,-690.45C325.08,-687.16 330.65,-682.93 335,-677.5 396.45,-600.74 311.98,-315.14 371,-236.5 374.73,-231.54 379.57,-227.56 384.93,-224.37"/>
<polygon fill="midnightblue" stroke="midnightblue" points="317.3,-687.35 309.6,-694.62 320.16,-693.74 317.3,-687.35"/>
</g>
<!-- Node43 -->
<g id="node43" class="node">
<title>Node43</title>
<g id="a_node43"><a xlink:href="classtracktion_1_1engine_1_1TextPlugin.html" target="_top" xlink:title=" ">
<polygon fill="none" stroke="black" points="385,-147.5 385,-177.5 490,-177.5 490,-147.5 385,-147.5"/>
<text text-anchor="start" x="393" y="-165.5" font-family="Helvetica,sans-Serif" font-size="10.00">tracktion::engine::</text>
<text text-anchor="middle" x="437.5" y="-154.5" font-family="Helvetica,sans-Serif" font-size="10.00">TextPlugin</text>
</a>
</g>
</g>
<!-- Node19&#45;&gt;Node43 -->
<g id="edge42" class="edge">
<title>Node19&#45;&gt;Node43</title>
<path fill="none" stroke="midnightblue" d="M318.98,-690.48C325.12,-687.19 330.67,-682.95 335,-677.5 402.89,-591.99 305.82,-275.09 371,-187.5 374.71,-182.52 379.53,-178.53 384.89,-175.34"/>
<polygon fill="midnightblue" stroke="midnightblue" points="317.35,-687.38 309.65,-694.66 320.21,-693.77 317.35,-687.38"/>
</g>
<!-- Node44 -->
<g id="node44" class="node">
<title>Node44</title>
<g id="a_node44"><a xlink:href="classtracktion_1_1engine_1_1ToneGeneratorPlugin.html" target="_top" xlink:title=" ">
<polygon fill="none" stroke="black" points="378.5,-98.5 378.5,-128.5 496.5,-128.5 496.5,-98.5 378.5,-98.5"/>
<text text-anchor="start" x="386.5" y="-116.5" font-family="Helvetica,sans-Serif" font-size="10.00">tracktion::engine::</text>
<text text-anchor="middle" x="437.5" y="-105.5" font-family="Helvetica,sans-Serif" font-size="10.00">ToneGeneratorPlugin</text>
</a>
</g>
</g>
<!-- Node19&#45;&gt;Node44 -->
<g id="edge43" class="edge">
<title>Node19&#45;&gt;Node44</title>
<path fill="none" stroke="midnightblue" d="M319.02,-690.51C325.15,-687.22 330.69,-682.97 335,-677.5 409.33,-583.23 299.65,-235.04 371,-138.5 373.82,-134.68 377.3,-131.45 381.18,-128.71"/>
<polygon fill="midnightblue" stroke="midnightblue" points="317.38,-687.41 309.69,-694.69 320.25,-693.8 317.38,-687.41"/>
</g>
<!-- Node45 -->
<g id="node45" class="node">
<title>Node45</title>
<g id="a_node45"><a xlink:href="classtracktion_1_1engine_1_1VCAPlugin.html" target="_top" xlink:title="The VCA plugin sits on a folder track to control the overall level of all the volume/pan plugins in i...">
<polygon fill="none" stroke="black" points="385,-49.5 385,-79.5 490,-79.5 490,-49.5 385,-49.5"/>
<text text-anchor="start" x="393" y="-67.5" font-family="Helvetica,sans-Serif" font-size="10.00">tracktion::engine::</text>
<text text-anchor="middle" x="437.5" y="-56.5" font-family="Helvetica,sans-Serif" font-size="10.00">VCAPlugin</text>
</a>
</g>
</g>
<!-- Node19&#45;&gt;Node45 -->
<g id="edge44" class="edge">
<title>Node19&#45;&gt;Node45</title>
<path fill="none" stroke="midnightblue" d="M319.05,-690.54C325.17,-687.23 330.7,-682.98 335,-677.5 415.77,-574.48 293.49,-195 371,-89.5 374.68,-84.5 379.49,-80.5 384.83,-77.3"/>
<polygon fill="midnightblue" stroke="midnightblue" points="317.41,-687.43 309.72,-694.72 320.28,-693.82 317.41,-687.43"/>
</g>
<!-- Node46 -->
<g id="node46" class="node">
<title>Node46</title>
<g id="a_node46"><a xlink:href="classtracktion_1_1engine_1_1VolumeAndPanPlugin.html" target="_top" xlink:title="The built&#45;in Tracktion volume/pan plugin.">
<polygon fill="none" stroke="black" points="378,-0.5 378,-30.5 497,-30.5 497,-0.5 378,-0.5"/>
<text text-anchor="start" x="386" y="-18.5" font-family="Helvetica,sans-Serif" font-size="10.00">tracktion::engine::</text>
<text text-anchor="middle" x="437.5" y="-7.5" font-family="Helvetica,sans-Serif" font-size="10.00">VolumeAndPanPlugin</text>
</a>
</g>
</g>
<!-- Node19&#45;&gt;Node46 -->
<g id="edge45" class="edge">
<title>Node19&#45;&gt;Node46</title>
<path fill="none" stroke="midnightblue" d="M319.07,-690.56C325.19,-687.25 330.72,-682.99 335,-677.5 422.21,-565.72 287.32,-154.95 371,-40.5 373.8,-36.67 377.27,-33.42 381.14,-30.68"/>
<polygon fill="midnightblue" stroke="midnightblue" points="317.44,-687.45 309.75,-694.74 320.31,-693.84 317.44,-687.45"/>
</g>
</g>
</svg>
