<?xml version="1.0" encoding="UTF-8" standalone="no"?>
<!DOCTYPE svg PUBLIC "-//W3C//DTD SVG 1.1//EN"
 "http://www.w3.org/Graphics/SVG/1.1/DTD/svg11.dtd">
<!-- Generated by graphviz version 2.43.0 (0)
 -->
<!-- Title: tracktion::engine::Clipboard::ContentType Pages: 1 -->
<svg width="330pt" height="566pt"
 viewBox="0.00 0.00 330.00 566.00" xmlns="http://www.w3.org/2000/svg" xmlns:xlink="http://www.w3.org/1999/xlink">
<g id="graph0" class="graph" transform="scale(1 1) rotate(0) translate(4 562)">
<title>tracktion::engine::Clipboard::ContentType</title>
<!-- Node1 -->
<g id="Node000001" class="node">
<title>Node1</title>
<g id="a_Node000001"><a xlink:title=" ">
<polygon fill="#999999" stroke="#666666" points="130,-294 0,-294 0,-264 130,-264 130,-294"/>
<text text-anchor="start" x="8" y="-282" font-family="Helvetica,sans-Serif" font-size="10.00">tracktion::engine::</text>
<text text-anchor="middle" x="65" y="-271" font-family="Helvetica,sans-Serif" font-size="10.00">Clipboard::ContentType</text>
</a>
</g>
</g>
<!-- Node2 -->
<g id="Node000002" class="node">
<title>Node2</title>
<g id="a_Node000002"><a xlink:href="structtracktion_1_1engine_1_1Clipboard_1_1AutomationPoints.html" target="_top" xlink:title=" ">
<polygon fill="white" stroke="#666666" points="322,-558 166,-558 166,-528 322,-528 322,-558"/>
<text text-anchor="start" x="174" y="-546" font-family="Helvetica,sans-Serif" font-size="10.00">tracktion::engine::</text>
<text text-anchor="middle" x="244" y="-535" font-family="Helvetica,sans-Serif" font-size="10.00">Clipboard::AutomationPoints</text>
</a>
</g>
</g>
<!-- Node1&#45;&gt;Node2 -->
<g id="edge1_Node000001_Node000002" class="edge">
<title>Node1&#45;&gt;Node2</title>
<g id="a_edge1_Node000001_Node000002"><a xlink:title=" ">
<path fill="none" stroke="#63b8ff" d="M69.39,-304.15C77.26,-352.78 101.33,-460.06 166,-519 169.73,-522.4 173.93,-525.31 178.39,-527.81"/>
<polygon fill="#63b8ff" stroke="#63b8ff" points="72.83,-303.53 67.87,-294.17 65.91,-304.59 72.83,-303.53"/>
</a>
</g>
</g>
<!-- Node3 -->
<g id="Node000003" class="node">
<title>Node3</title>
<g id="a_Node000003"><a xlink:href="structtracktion_1_1engine_1_1Clipboard_1_1Clips.html" target="_top" xlink:title=" ">
<polygon fill="white" stroke="#666666" points="296.5,-510 191.5,-510 191.5,-480 296.5,-480 296.5,-510"/>
<text text-anchor="start" x="199.5" y="-498" font-family="Helvetica,sans-Serif" font-size="10.00">tracktion::engine::</text>
<text text-anchor="middle" x="244" y="-487" font-family="Helvetica,sans-Serif" font-size="10.00">Clipboard::Clips</text>
</a>
</g>
</g>
<!-- Node1&#45;&gt;Node3 -->
<g id="edge2_Node000001_Node000003" class="edge">
<title>Node1&#45;&gt;Node3</title>
<g id="a_edge2_Node000001_Node000003"><a xlink:title=" ">
<path fill="none" stroke="#63b8ff" d="M72.26,-303.97C83.8,-344.87 112.29,-426.09 166,-471 173.3,-477.11 182.16,-481.66 191.23,-485.06"/>
<polygon fill="#63b8ff" stroke="#63b8ff" points="75.62,-302.99 69.63,-294.26 68.86,-304.82 75.62,-302.99"/>
</a>
</g>
</g>
<!-- Node4 -->
<g id="Node000004" class="node">
<title>Node4</title>
<g id="a_Node000004"><a xlink:href="structtracktion_1_1engine_1_1Clipboard_1_1MIDIEvents.html" target="_top" xlink:title=" ">
<polygon fill="white" stroke="#666666" points="306.5,-462 181.5,-462 181.5,-432 306.5,-432 306.5,-462"/>
<text text-anchor="start" x="189.5" y="-450" font-family="Helvetica,sans-Serif" font-size="10.00">tracktion::engine::</text>
<text text-anchor="middle" x="244" y="-439" font-family="Helvetica,sans-Serif" font-size="10.00">Clipboard::MIDIEvents</text>
</a>
</g>
</g>
<!-- Node1&#45;&gt;Node4 -->
<g id="edge3_Node000001_Node000004" class="edge">
<title>Node1&#45;&gt;Node4</title>
<g id="a_edge3_Node000001_Node000004"><a xlink:title=" ">
<path fill="none" stroke="#63b8ff" d="M76.59,-303.22C91.81,-335.25 122.85,-391.35 166,-423 170.74,-426.48 176,-429.46 181.48,-432.02"/>
<polygon fill="#63b8ff" stroke="#63b8ff" points="79.75,-301.71 72.38,-294.1 73.39,-304.65 79.75,-301.71"/>
</a>
</g>
</g>
<!-- Node5 -->
<g id="Node000005" class="node">
<title>Node5</title>
<g id="a_Node000005"><a xlink:href="structtracktion_1_1engine_1_1Clipboard_1_1Modifiers.html" target="_top" xlink:title=" ">
<polygon fill="white" stroke="#666666" points="301,-414 187,-414 187,-384 301,-384 301,-414"/>
<text text-anchor="start" x="195" y="-402" font-family="Helvetica,sans-Serif" font-size="10.00">tracktion::engine::</text>
<text text-anchor="middle" x="244" y="-391" font-family="Helvetica,sans-Serif" font-size="10.00">Clipboard::Modifiers</text>
</a>
</g>
</g>
<!-- Node1&#45;&gt;Node5 -->
<g id="edge4_Node000001_Node000005" class="edge">
<title>Node1&#45;&gt;Node5</title>
<g id="a_edge4_Node000001_Node000005"><a xlink:title=" ">
<path fill="none" stroke="#63b8ff" d="M84.41,-302C102.91,-323.69 133.29,-355.68 166,-375 172.51,-378.85 179.7,-382.14 186.99,-384.94"/>
<polygon fill="#63b8ff" stroke="#63b8ff" points="87.02,-299.67 77.92,-294.24 81.65,-304.16 87.02,-299.67"/>
</a>
</g>
</g>
<!-- Node6 -->
<g id="Node000006" class="node">
<title>Node6</title>
<g id="a_Node000006"><a xlink:href="structtracktion_1_1engine_1_1Clipboard_1_1Pitches.html" target="_top" xlink:title=" ">
<polygon fill="white" stroke="#666666" points="296.5,-366 191.5,-366 191.5,-336 296.5,-336 296.5,-366"/>
<text text-anchor="start" x="199.5" y="-354" font-family="Helvetica,sans-Serif" font-size="10.00">tracktion::engine::</text>
<text text-anchor="middle" x="244" y="-343" font-family="Helvetica,sans-Serif" font-size="10.00">Clipboard::Pitches</text>
</a>
</g>
</g>
<!-- Node1&#45;&gt;Node6 -->
<g id="edge5_Node000001_Node000006" class="edge">
<title>Node1&#45;&gt;Node6</title>
<g id="a_edge5_Node000001_Node000006"><a xlink:title=" ">
<path fill="none" stroke="#63b8ff" d="M103.79,-298.74C122.27,-307.98 145,-318.74 166,-327 174.08,-330.18 182.76,-333.23 191.28,-336.02"/>
<polygon fill="#63b8ff" stroke="#63b8ff" points="105.32,-295.6 94.82,-294.21 102.17,-301.84 105.32,-295.6"/>
</a>
</g>
</g>
<!-- Node7 -->
<g id="Node000007" class="node">
<title>Node7</title>
<g id="a_Node000007"><a xlink:href="structtracktion_1_1engine_1_1Clipboard_1_1Plugins.html" target="_top" xlink:title=" ">
<polygon fill="white" stroke="#666666" points="296.5,-318 191.5,-318 191.5,-288 296.5,-288 296.5,-318"/>
<text text-anchor="start" x="199.5" y="-306" font-family="Helvetica,sans-Serif" font-size="10.00">tracktion::engine::</text>
<text text-anchor="middle" x="244" y="-295" font-family="Helvetica,sans-Serif" font-size="10.00">Clipboard::Plugins</text>
</a>
</g>
</g>
<!-- Node1&#45;&gt;Node7 -->
<g id="edge6_Node000001_Node000007" class="edge">
<title>Node1&#45;&gt;Node7</title>
<g id="a_edge6_Node000001_Node000007"><a xlink:title=" ">
<path fill="none" stroke="#63b8ff" d="M140.16,-289.06C157.35,-291.39 175.27,-293.82 191.25,-295.98"/>
<polygon fill="#63b8ff" stroke="#63b8ff" points="140.53,-285.57 130.15,-287.7 139.59,-292.51 140.53,-285.57"/>
</a>
</g>
</g>
<!-- Node8 -->
<g id="Node000008" class="node">
<title>Node8</title>
<g id="a_Node000008"><a xlink:href="structtracktion_1_1engine_1_1Clipboard_1_1ProjectItems.html" target="_top" xlink:title=" ">
<polygon fill="white" stroke="#666666" points="309.5,-270 178.5,-270 178.5,-240 309.5,-240 309.5,-270"/>
<text text-anchor="start" x="186.5" y="-258" font-family="Helvetica,sans-Serif" font-size="10.00">tracktion::engine::</text>
<text text-anchor="middle" x="244" y="-247" font-family="Helvetica,sans-Serif" font-size="10.00">Clipboard::ProjectItems</text>
</a>
</g>
</g>
<!-- Node1&#45;&gt;Node8 -->
<g id="edge7_Node000001_Node000008" class="edge">
<title>Node1&#45;&gt;Node8</title>
<g id="a_edge7_Node000001_Node000008"><a xlink:title=" ">
<path fill="none" stroke="#63b8ff" d="M140.23,-268.93C152.94,-267.21 166.05,-265.43 178.47,-263.75"/>
<polygon fill="#63b8ff" stroke="#63b8ff" points="139.59,-265.49 130.15,-270.3 140.53,-272.43 139.59,-265.49"/>
</a>
</g>
</g>
<!-- Node9 -->
<g id="Node000009" class="node">
<title>Node9</title>
<g id="a_Node000009"><a xlink:href="structtracktion_1_1engine_1_1Clipboard_1_1Scenes.html" target="_top" xlink:title=" ">
<polygon fill="white" stroke="#666666" points="296.5,-222 191.5,-222 191.5,-192 296.5,-192 296.5,-222"/>
<text text-anchor="start" x="199.5" y="-210" font-family="Helvetica,sans-Serif" font-size="10.00">tracktion::engine::</text>
<text text-anchor="middle" x="244" y="-199" font-family="Helvetica,sans-Serif" font-size="10.00">Clipboard::Scenes</text>
</a>
</g>
</g>
<!-- Node1&#45;&gt;Node9 -->
<g id="edge8_Node000001_Node000009" class="edge">
<title>Node1&#45;&gt;Node9</title>
<g id="a_edge8_Node000001_Node000009"><a xlink:title=" ">
<path fill="none" stroke="#63b8ff" d="M103.79,-259.26C122.27,-250.02 145,-239.26 166,-231 174.08,-227.82 182.76,-224.77 191.28,-221.98"/>
<polygon fill="#63b8ff" stroke="#63b8ff" points="102.17,-256.16 94.82,-263.79 105.32,-262.4 102.17,-256.16"/>
</a>
</g>
</g>
<!-- Node10 -->
<g id="Node000010" class="node">
<title>Node10</title>
<g id="a_Node000010"><a xlink:href="structtracktion_1_1engine_1_1Clipboard_1_1Takes.html" target="_top" xlink:title=" ">
<polygon fill="white" stroke="#666666" points="296.5,-174 191.5,-174 191.5,-144 296.5,-144 296.5,-174"/>
<text text-anchor="start" x="199.5" y="-162" font-family="Helvetica,sans-Serif" font-size="10.00">tracktion::engine::</text>
<text text-anchor="middle" x="244" y="-151" font-family="Helvetica,sans-Serif" font-size="10.00">Clipboard::Takes</text>
</a>
</g>
</g>
<!-- Node1&#45;&gt;Node10 -->
<g id="edge9_Node000001_Node000010" class="edge">
<title>Node1&#45;&gt;Node10</title>
<g id="a_edge9_Node000001_Node000010"><a xlink:title=" ">
<path fill="none" stroke="#63b8ff" d="M84.41,-256C102.91,-234.31 133.29,-202.32 166,-183 173.84,-178.37 182.66,-174.55 191.46,-171.41"/>
<polygon fill="#63b8ff" stroke="#63b8ff" points="81.65,-253.84 77.92,-263.76 87.02,-258.33 81.65,-253.84"/>
</a>
</g>
</g>
<!-- Node11 -->
<g id="Node000011" class="node">
<title>Node11</title>
<g id="a_Node000011"><a xlink:href="structtracktion_1_1engine_1_1Clipboard_1_1TempoChanges.html" target="_top" xlink:title=" ">
<polygon fill="white" stroke="#666666" points="315.5,-126 172.5,-126 172.5,-96 315.5,-96 315.5,-126"/>
<text text-anchor="start" x="180.5" y="-114" font-family="Helvetica,sans-Serif" font-size="10.00">tracktion::engine::</text>
<text text-anchor="middle" x="244" y="-103" font-family="Helvetica,sans-Serif" font-size="10.00">Clipboard::TempoChanges</text>
</a>
</g>
</g>
<!-- Node1&#45;&gt;Node11 -->
<g id="edge10_Node000001_Node000011" class="edge">
<title>Node1&#45;&gt;Node11</title>
<g id="a_edge10_Node000001_Node000011"><a xlink:title=" ">
<path fill="none" stroke="#63b8ff" d="M76.59,-254.78C91.81,-222.75 122.85,-166.65 166,-135 170.63,-131.6 175.75,-128.68 181.09,-126.16"/>
<polygon fill="#63b8ff" stroke="#63b8ff" points="73.39,-253.35 72.38,-263.9 79.75,-256.29 73.39,-253.35"/>
</a>
</g>
</g>
<!-- Node12 -->
<g id="Node000012" class="node">
<title>Node12</title>
<g id="a_Node000012"><a xlink:href="structtracktion_1_1engine_1_1Clipboard_1_1TimeSigs.html" target="_top" xlink:title=" ">
<polygon fill="white" stroke="#666666" points="301,-78 187,-78 187,-48 301,-48 301,-78"/>
<text text-anchor="start" x="195" y="-66" font-family="Helvetica,sans-Serif" font-size="10.00">tracktion::engine::</text>
<text text-anchor="middle" x="244" y="-55" font-family="Helvetica,sans-Serif" font-size="10.00">Clipboard::TimeSigs</text>
</a>
</g>
</g>
<!-- Node1&#45;&gt;Node12 -->
<g id="edge11_Node000001_Node000012" class="edge">
<title>Node1&#45;&gt;Node12</title>
<g id="a_edge11_Node000001_Node000012"><a xlink:title=" ">
<path fill="none" stroke="#63b8ff" d="M72.26,-254.03C83.8,-213.13 112.29,-131.91 166,-87 172.12,-81.88 179.34,-77.85 186.85,-74.68"/>
<polygon fill="#63b8ff" stroke="#63b8ff" points="68.86,-253.18 69.63,-263.74 75.62,-255.01 68.86,-253.18"/>
</a>
</g>
</g>
<!-- Node13 -->
<g id="Node000013" class="node">
<title>Node13</title>
<g id="a_Node000013"><a xlink:href="structtracktion_1_1engine_1_1Clipboard_1_1Tracks.html" target="_top" xlink:title=" ">
<polygon fill="white" stroke="#666666" points="296.5,-30 191.5,-30 191.5,0 296.5,0 296.5,-30"/>
<text text-anchor="start" x="199.5" y="-18" font-family="Helvetica,sans-Serif" font-size="10.00">tracktion::engine::</text>
<text text-anchor="middle" x="244" y="-7" font-family="Helvetica,sans-Serif" font-size="10.00">Clipboard::Tracks</text>
</a>
</g>
</g>
<!-- Node1&#45;&gt;Node13 -->
<g id="edge12_Node000001_Node000013" class="edge">
<title>Node1&#45;&gt;Node13</title>
<g id="a_edge12_Node000001_Node000013"><a xlink:title=" ">
<path fill="none" stroke="#63b8ff" d="M69.39,-253.85C77.26,-205.22 101.33,-97.94 166,-39 173.14,-32.49 182.03,-27.75 191.2,-24.29"/>
<polygon fill="#63b8ff" stroke="#63b8ff" points="65.91,-253.41 67.87,-263.83 72.83,-254.47 65.91,-253.41"/>
</a>
</g>
</g>
</g>
</svg>
