<?xml version="1.0" encoding="UTF-8" standalone="no"?>
<!DOCTYPE svg PUBLIC "-//W3C//DTD SVG 1.1//EN"
 "http://www.w3.org/Graphics/SVG/1.1/DTD/svg11.dtd">
<!-- Generated by graphviz version 2.40.1 (20161225.0304)
 -->
<!-- Title: tracktion_engine::StepVolumeEffect Pages: 1 -->
<svg width="304pt" height="162pt"
 viewBox="0.00 0.00 304.00 162.00" xmlns="http://www.w3.org/2000/svg" xmlns:xlink="http://www.w3.org/1999/xlink">
<g id="graph0" class="graph" transform="scale(1 1) rotate(0) translate(4 158)">
<title>tracktion_engine::StepVolumeEffect</title>
<!-- Node0 -->
<g id="node1" class="node">
<title>Node0</title>
<polygon fill="#bfbfbf" stroke="#000000" points="73.5,-.5 73.5,-30.5 220.5,-30.5 220.5,-.5 73.5,-.5"/>
<text text-anchor="start" x="81.5" y="-18.5" font-family="Helvetica,sans-Serif" font-size="10.00" fill="#000000">tracktion_engine::StepVolume</text>
<text text-anchor="middle" x="147" y="-7.5" font-family="Helvetica,sans-Serif" font-size="10.00" fill="#000000">Effect</text>
</g>
<!-- Node1 -->
<g id="node2" class="node">
<title>Node1</title>
<g id="a_node2"><a xlink:href="classtracktion__engine_1_1ClipEffect.html" target="_top" xlink:title="tracktion_engine::ClipEffect">
<polygon fill="none" stroke="#000000" points=".5,-67.5 .5,-86.5 137.5,-86.5 137.5,-67.5 .5,-67.5"/>
<text text-anchor="middle" x="69" y="-74.5" font-family="Helvetica,sans-Serif" font-size="10.00" fill="#000000">tracktion_engine::ClipEffect</text>
</a>
</g>
</g>
<!-- Node1&#45;&gt;Node0 -->
<g id="edge1" class="edge">
<title>Node1&#45;&gt;Node0</title>
<path fill="none" stroke="#191970" d="M89.2439,-61.0385C101.1797,-51.6276 116.1917,-39.7911 127.9191,-30.5446"/>
<polygon fill="#191970" stroke="#191970" points="86.8732,-58.4506 81.1875,-67.3906 91.2073,-63.9475 86.8732,-58.4506"/>
</g>
<!-- Node2 -->
<g id="node3" class="node">
<title>Node2</title>
<g id="a_node3"><a xlink:href="structtracktion__engine_1_1ValueTreeAllEventListener.html" target="_top" xlink:title="tracktion_engine::ValueTree\lAllEventListener">
<polygon fill="none" stroke="#000000" points="0,-123.5 0,-153.5 138,-153.5 138,-123.5 0,-123.5"/>
<text text-anchor="start" x="8" y="-141.5" font-family="Helvetica,sans-Serif" font-size="10.00" fill="#000000">tracktion_engine::ValueTree</text>
<text text-anchor="middle" x="69" y="-130.5" font-family="Helvetica,sans-Serif" font-size="10.00" fill="#000000">AllEventListener</text>
</a>
</g>
</g>
<!-- Node2&#45;&gt;Node1 -->
<g id="edge2" class="edge">
<title>Node2&#45;&gt;Node1</title>
<path fill="none" stroke="#006400" d="M69,-113.2849C69,-103.9858 69,-93.9883 69,-86.8469"/>
<polygon fill="#006400" stroke="#006400" points="65.5001,-113.2977 69,-123.2977 72.5001,-113.2978 65.5001,-113.2977"/>
</g>
<!-- Node3 -->
<g id="node4" class="node">
<title>Node3</title>
<g id="a_node4"><a xlink:href="classtracktion__engine_1_1Selectable.html" target="_top" xlink:title="Base class for things that can be selected, and whose properties can appear in the properties panel...">
<polygon fill="none" stroke="#000000" points="156,-67.5 156,-86.5 296,-86.5 296,-67.5 156,-67.5"/>
<text text-anchor="middle" x="226" y="-74.5" font-family="Helvetica,sans-Serif" font-size="10.00" fill="#000000">tracktion_engine::Selectable</text>
</a>
</g>
</g>
<!-- Node3&#45;&gt;Node0 -->
<g id="edge3" class="edge">
<title>Node3&#45;&gt;Node0</title>
<path fill="none" stroke="#191970" d="M205.4965,-61.0385C193.4078,-51.6276 178.2033,-39.7911 166.3256,-30.5446"/>
<polygon fill="#191970" stroke="#191970" points="203.6154,-64.0095 213.6563,-67.3906 207.9154,-58.4859 203.6154,-64.0095"/>
</g>
</g>
</svg>
