<?xml version="1.0" encoding="UTF-8" standalone="no"?>
<!DOCTYPE svg PUBLIC "-//W3C//DTD SVG 1.1//EN"
 "http://www.w3.org/Graphics/SVG/1.1/DTD/svg11.dtd">
<!-- Generated by graphviz version 2.43.0 (0)
 -->
<!-- Title: tracktion_engine::ValueTreeAllEventListener Pages: 1 -->
<svg width="574pt" height="1714pt"
 viewBox="0.00 0.00 574.00 1714.00" xmlns="http://www.w3.org/2000/svg" xmlns:xlink="http://www.w3.org/1999/xlink">
<g id="graph0" class="graph" transform="scale(1 1) rotate(0) translate(4 1710)">
<title>tracktion_engine::ValueTreeAllEventListener</title>
<!-- Node1 -->
<g id="node1" class="node">
<title>Node1</title>
<g id="a_node1"><a xlink:title=" ">
<polygon fill="#bfbfbf" stroke="black" points="0,-713.5 0,-743.5 152,-743.5 152,-713.5 0,-713.5"/>
<text text-anchor="start" x="8" y="-731.5" font-family="Helvetica,sans-Serif" font-size="10.00">tracktion_engine::ValueTree</text>
<text text-anchor="middle" x="76" y="-720.5" font-family="Helvetica,sans-Serif" font-size="10.00">AllEventListener</text>
</a>
</g>
</g>
<!-- Node2 -->
<g id="node2" class="node">
<title>Node2</title>
<g id="a_node2"><a xlink:href="classtracktion__engine_1_1BreakpointOscillatorModifier.html" target="_top" xlink:title=" ">
<polygon fill="none" stroke="black" points="192,-1449.5 192,-1479.5 350,-1479.5 350,-1449.5 192,-1449.5"/>
<text text-anchor="start" x="200" y="-1467.5" font-family="Helvetica,sans-Serif" font-size="10.00">tracktion_engine::Breakpoint</text>
<text text-anchor="middle" x="271" y="-1456.5" font-family="Helvetica,sans-Serif" font-size="10.00">OscillatorModifier</text>
</a>
</g>
</g>
<!-- Node1&#45;&gt;Node2 -->
<g id="edge1" class="edge">
<title>Node1&#45;&gt;Node2</title>
<path fill="none" stroke="#8b1a1a" d="M77.47,-754.04C80.08,-868.56 96.26,-1333.81 188,-1439.5 191.32,-1443.32 195.2,-1446.57 199.44,-1449.33"/>
<polygon fill="#8b1a1a" stroke="#8b1a1a" points="80.96,-753.71 77.25,-743.79 73.96,-753.86 80.96,-753.71"/>
</g>
<!-- Node3 -->
<g id="node3" class="node">
<title>Node3</title>
<g id="a_node3"><a xlink:href="classtracktion__engine_1_1ClipEffect.html" target="_top" xlink:title=" ">
<polygon fill="none" stroke="black" points="195.5,-1411 195.5,-1430 346.5,-1430 346.5,-1411 195.5,-1411"/>
<text text-anchor="middle" x="271" y="-1418" font-family="Helvetica,sans-Serif" font-size="10.00">tracktion_engine::ClipEffect</text>
</a>
</g>
</g>
<!-- Node1&#45;&gt;Node3 -->
<g id="edge2" class="edge">
<title>Node1&#45;&gt;Node3</title>
<path fill="none" stroke="darkgreen" d="M83.98,-753.52C115.86,-867.83 246.96,-1337.9 267.33,-1410.94"/>
<polygon fill="darkgreen" stroke="darkgreen" points="87.27,-752.29 81.21,-743.6 80.53,-754.17 87.27,-752.29"/>
</g>
<!-- Node14 -->
<g id="node14" class="node">
<title>Node14</title>
<g id="a_node14"><a xlink:href="classtracktion__engine_1_1EnvelopeFollowerModifier.html" target="_top" xlink:title=" ">
<polygon fill="none" stroke="black" points="196.5,-850.5 196.5,-880.5 345.5,-880.5 345.5,-850.5 196.5,-850.5"/>
<text text-anchor="start" x="204.5" y="-868.5" font-family="Helvetica,sans-Serif" font-size="10.00">tracktion_engine::Envelope</text>
<text text-anchor="middle" x="271" y="-857.5" font-family="Helvetica,sans-Serif" font-size="10.00">FollowerModifier</text>
</a>
</g>
</g>
<!-- Node1&#45;&gt;Node14 -->
<g id="edge13" class="edge">
<title>Node1&#45;&gt;Node14</title>
<path fill="none" stroke="#8b1a1a" d="M94.01,-751.49C113.88,-776.8 149.04,-816.99 188,-840.5 194.37,-844.34 201.38,-847.64 208.54,-850.46"/>
<polygon fill="#8b1a1a" stroke="#8b1a1a" points="96.75,-749.31 87.87,-743.53 91.2,-753.59 96.75,-749.31"/>
</g>
<!-- Node15 -->
<g id="node15" class="node">
<title>Node15</title>
<g id="a_node15"><a xlink:href="classtracktion__engine_1_1LFOModifier.html" target="_top" xlink:title=" ">
<polygon fill="none" stroke="black" points="189.5,-812 189.5,-831 352.5,-831 352.5,-812 189.5,-812"/>
<text text-anchor="middle" x="271" y="-819" font-family="Helvetica,sans-Serif" font-size="10.00">tracktion_engine::LFOModifier</text>
</a>
</g>
</g>
<!-- Node1&#45;&gt;Node15 -->
<g id="edge14" class="edge">
<title>Node1&#45;&gt;Node15</title>
<path fill="none" stroke="#8b1a1a" d="M103.05,-749.83C124.6,-766.47 156.66,-788.96 188,-802.5 196.85,-806.33 206.59,-809.44 216.17,-811.96"/>
<polygon fill="#8b1a1a" stroke="#8b1a1a" points="105.07,-746.97 95.05,-743.55 100.75,-752.48 105.07,-746.97"/>
</g>
<!-- Node16 -->
<g id="node16" class="node">
<title>Node16</title>
<g id="a_node16"><a xlink:href="classtracktion__engine_1_1MIDITrackerModifier.html" target="_top" xlink:title=" ">
<polygon fill="none" stroke="black" points="190.5,-762.5 190.5,-792.5 351.5,-792.5 351.5,-762.5 190.5,-762.5"/>
<text text-anchor="start" x="198.5" y="-780.5" font-family="Helvetica,sans-Serif" font-size="10.00">tracktion_engine::MIDITracker</text>
<text text-anchor="middle" x="271" y="-769.5" font-family="Helvetica,sans-Serif" font-size="10.00">Modifier</text>
</a>
</g>
</g>
<!-- Node1&#45;&gt;Node16 -->
<g id="edge15" class="edge">
<title>Node1&#45;&gt;Node16</title>
<path fill="none" stroke="#8b1a1a" d="M146.12,-746.05C167.32,-751.43 190.43,-757.3 210.89,-762.49"/>
<polygon fill="#8b1a1a" stroke="#8b1a1a" points="146.77,-742.6 136.22,-743.53 145.05,-749.39 146.77,-742.6"/>
</g>
<!-- Node17 -->
<g id="node17" class="node">
<title>Node17</title>
<g id="a_node17"><a xlink:href="classtracktion__engine_1_1PatternGenerator.html" target="_top" xlink:title=" ">
<polygon fill="none" stroke="black" points="201.5,-713.5 201.5,-743.5 340.5,-743.5 340.5,-713.5 201.5,-713.5"/>
<text text-anchor="start" x="209.5" y="-731.5" font-family="Helvetica,sans-Serif" font-size="10.00">tracktion_engine::Pattern</text>
<text text-anchor="middle" x="271" y="-720.5" font-family="Helvetica,sans-Serif" font-size="10.00">Generator</text>
</a>
</g>
</g>
<!-- Node1&#45;&gt;Node17 -->
<g id="edge16" class="edge">
<title>Node1&#45;&gt;Node17</title>
<path fill="none" stroke="#8b1a1a" d="M162.51,-728.5C175.5,-728.5 188.76,-728.5 201.33,-728.5"/>
<polygon fill="#8b1a1a" stroke="#8b1a1a" points="162.17,-725 152.17,-728.5 162.17,-732 162.17,-725"/>
</g>
<!-- Node18 -->
<g id="node18" class="node">
<title>Node18</title>
<g id="a_node18"><a xlink:href="classtracktion__engine_1_1PitchSetting.html" target="_top" xlink:title=" ">
<polygon fill="none" stroke="black" points="189.5,-675 189.5,-694 352.5,-694 352.5,-675 189.5,-675"/>
<text text-anchor="middle" x="271" y="-682" font-family="Helvetica,sans-Serif" font-size="10.00">tracktion_engine::PitchSetting</text>
</a>
</g>
</g>
<!-- Node1&#45;&gt;Node18 -->
<g id="edge17" class="edge">
<title>Node1&#45;&gt;Node18</title>
<path fill="none" stroke="#8b1a1a" d="M152.97,-711.18C178.61,-705.34 206.28,-699.03 228.28,-694.01"/>
<polygon fill="#8b1a1a" stroke="#8b1a1a" points="151.85,-707.85 142.88,-713.48 153.41,-714.67 151.85,-707.85"/>
</g>
<!-- Node19 -->
<g id="node19" class="node">
<title>Node19</title>
<g id="a_node19"><a xlink:href="classtracktion__engine_1_1Plugin.html" target="_top" xlink:title=" ">
<polygon fill="none" stroke="black" points="204,-637 204,-656 338,-656 338,-637 204,-637"/>
<text text-anchor="middle" x="271" y="-644" font-family="Helvetica,sans-Serif" font-size="10.00">tracktion_engine::Plugin</text>
</a>
</g>
</g>
<!-- Node1&#45;&gt;Node19 -->
<g id="edge18" class="edge">
<title>Node1&#45;&gt;Node19</title>
<path fill="none" stroke="darkgreen" d="M107.44,-708.03C129.11,-694.27 159.33,-676.68 188,-665.5 197.67,-661.73 208.28,-658.59 218.57,-656.02"/>
<polygon fill="darkgreen" stroke="darkgreen" points="105.51,-705.11 99.01,-713.47 109.31,-710.99 105.51,-705.11"/>
</g>
<!-- Node46 -->
<g id="node46" class="node">
<title>Node46</title>
<g id="a_node46"><a xlink:href="classtracktion__engine_1_1RandomModifier.html" target="_top" xlink:title=" ">
<polygon fill="none" stroke="black" points="198.5,-587.5 198.5,-617.5 343.5,-617.5 343.5,-587.5 198.5,-587.5"/>
<text text-anchor="start" x="206.5" y="-605.5" font-family="Helvetica,sans-Serif" font-size="10.00">tracktion_engine::Random</text>
<text text-anchor="middle" x="271" y="-594.5" font-family="Helvetica,sans-Serif" font-size="10.00">Modifier</text>
</a>
</g>
</g>
<!-- Node1&#45;&gt;Node46 -->
<g id="edge45" class="edge">
<title>Node1&#45;&gt;Node46</title>
<path fill="none" stroke="#8b1a1a" d="M96.44,-705.67C117.03,-682.85 151.53,-648.24 188,-627.5 194.73,-623.67 202.11,-620.37 209.59,-617.54"/>
<polygon fill="#8b1a1a" stroke="#8b1a1a" points="93.77,-703.4 89.76,-713.21 99.01,-708.05 93.77,-703.4"/>
</g>
<!-- Node47 -->
<g id="node47" class="node">
<title>Node47</title>
<g id="a_node47"><a xlink:href="classtracktion__engine_1_1StepModifier.html" target="_top" xlink:title=" ">
<polygon fill="none" stroke="black" points="188,-549 188,-568 354,-568 354,-549 188,-549"/>
<text text-anchor="middle" x="271" y="-556" font-family="Helvetica,sans-Serif" font-size="10.00">tracktion_engine::StepModifier</text>
</a>
</g>
</g>
<!-- Node1&#45;&gt;Node47 -->
<g id="edge46" class="edge">
<title>Node1&#45;&gt;Node47</title>
<path fill="none" stroke="#8b1a1a" d="M88.15,-704.32C104.91,-670.73 139.87,-610.48 188,-578.5 194.59,-574.12 202.05,-570.7 209.72,-568.03"/>
<polygon fill="#8b1a1a" stroke="#8b1a1a" points="84.94,-702.91 83.72,-713.43 91.24,-705.97 84.94,-702.91"/>
</g>
<!-- Node48 -->
<g id="node48" class="node">
<title>Node48</title>
<g id="a_node48"><a xlink:href="classtracktion__engine_1_1TimeSigSetting.html" target="_top" xlink:title=" ">
<polygon fill="none" stroke="black" points="199,-499.5 199,-529.5 343,-529.5 343,-499.5 199,-499.5"/>
<text text-anchor="start" x="207" y="-517.5" font-family="Helvetica,sans-Serif" font-size="10.00">tracktion_engine::TimeSig</text>
<text text-anchor="middle" x="271" y="-506.5" font-family="Helvetica,sans-Serif" font-size="10.00">Setting</text>
</a>
</g>
</g>
<!-- Node1&#45;&gt;Node48 -->
<g id="edge47" class="edge">
<title>Node1&#45;&gt;Node48</title>
<path fill="none" stroke="#8b1a1a" d="M84.83,-703.85C98.91,-663.49 132.34,-583.4 188,-539.5 192.91,-535.63 198.41,-532.36 204.19,-529.59"/>
<polygon fill="#8b1a1a" stroke="#8b1a1a" points="81.48,-702.85 81.59,-713.44 88.11,-705.09 81.48,-702.85"/>
</g>
<!-- Node4 -->
<g id="node4" class="node">
<title>Node4</title>
<g id="a_node4"><a xlink:href="structtracktion__engine_1_1FadeInOutEffect.html" target="_top" xlink:title=" ">
<polygon fill="none" stroke="black" points="410,-1675.5 410,-1705.5 546,-1705.5 546,-1675.5 410,-1675.5"/>
<text text-anchor="start" x="418" y="-1693.5" font-family="Helvetica,sans-Serif" font-size="10.00">tracktion_engine::FadeIn</text>
<text text-anchor="middle" x="478" y="-1682.5" font-family="Helvetica,sans-Serif" font-size="10.00">OutEffect</text>
</a>
</g>
</g>
<!-- Node3&#45;&gt;Node4 -->
<g id="edge3" class="edge">
<title>Node3&#45;&gt;Node4</title>
<path fill="none" stroke="midnightblue" d="M348.94,-1435.77C350.73,-1437.22 352.43,-1438.79 354,-1440.5 422.94,-1515.28 322.19,-1590.69 390,-1666.5 395.43,-1672.57 402.25,-1677.17 409.66,-1680.64"/>
<polygon fill="midnightblue" stroke="midnightblue" points="350.79,-1432.8 340.52,-1430.19 346.92,-1438.63 350.79,-1432.8"/>
</g>
<!-- Node5 -->
<g id="node5" class="node">
<title>Node5</title>
<g id="a_node5"><a xlink:href="structtracktion__engine_1_1InvertEffect.html" target="_top" xlink:title=" ">
<polygon fill="none" stroke="black" points="411.5,-1626.5 411.5,-1656.5 544.5,-1656.5 544.5,-1626.5 411.5,-1626.5"/>
<text text-anchor="start" x="419.5" y="-1644.5" font-family="Helvetica,sans-Serif" font-size="10.00">tracktion_engine::Invert</text>
<text text-anchor="middle" x="478" y="-1633.5" font-family="Helvetica,sans-Serif" font-size="10.00">Effect</text>
</a>
</g>
</g>
<!-- Node3&#45;&gt;Node5 -->
<g id="edge4" class="edge">
<title>Node3&#45;&gt;Node5</title>
<path fill="none" stroke="midnightblue" d="M348.71,-1435.75C350.58,-1437.21 352.35,-1438.78 354,-1440.5 409.66,-1498.35 335.21,-1558.82 390,-1617.5 395.88,-1623.8 403.25,-1628.5 411.2,-1632"/>
<polygon fill="midnightblue" stroke="midnightblue" points="350.25,-1432.59 339.94,-1430.17 346.49,-1438.49 350.25,-1432.59"/>
</g>
<!-- Node6 -->
<g id="node6" class="node">
<title>Node6</title>
<g id="a_node6"><a xlink:href="structtracktion__engine_1_1MakeMonoEffect.html" target="_top" xlink:title=" ">
<polygon fill="none" stroke="black" points="399,-1577.5 399,-1607.5 557,-1607.5 557,-1577.5 399,-1577.5"/>
<text text-anchor="start" x="407" y="-1595.5" font-family="Helvetica,sans-Serif" font-size="10.00">tracktion_engine::MakeMono</text>
<text text-anchor="middle" x="478" y="-1584.5" font-family="Helvetica,sans-Serif" font-size="10.00">Effect</text>
</a>
</g>
</g>
<!-- Node3&#45;&gt;Node6 -->
<g id="edge5" class="edge">
<title>Node3&#45;&gt;Node6</title>
<path fill="none" stroke="midnightblue" d="M347.79,-1435.37C349.98,-1436.92 352.06,-1438.63 354,-1440.5 396.51,-1481.55 348.11,-1526.82 390,-1568.5 393.44,-1571.93 397.33,-1574.87 401.5,-1577.41"/>
<polygon fill="midnightblue" stroke="midnightblue" points="349.22,-1432.15 338.82,-1430.1 345.67,-1438.19 349.22,-1432.15"/>
</g>
<!-- Node7 -->
<g id="node7" class="node">
<title>Node7</title>
<g id="a_node7"><a xlink:href="structtracktion__engine_1_1NormaliseEffect.html" target="_top" xlink:title=" ">
<polygon fill="none" stroke="black" points="400.5,-1528.5 400.5,-1558.5 555.5,-1558.5 555.5,-1528.5 400.5,-1528.5"/>
<text text-anchor="start" x="408.5" y="-1546.5" font-family="Helvetica,sans-Serif" font-size="10.00">tracktion_engine::Normalise</text>
<text text-anchor="middle" x="478" y="-1535.5" font-family="Helvetica,sans-Serif" font-size="10.00">Effect</text>
</a>
</g>
</g>
<!-- Node3&#45;&gt;Node7 -->
<g id="edge6" class="edge">
<title>Node3&#45;&gt;Node7</title>
<path fill="none" stroke="midnightblue" d="M345.68,-1434.71C348.61,-1436.43 351.4,-1438.35 354,-1440.5 383.73,-1465.1 360.64,-1494.46 390,-1519.5 394.05,-1522.96 398.56,-1525.92 403.34,-1528.46"/>
<polygon fill="midnightblue" stroke="midnightblue" points="347.03,-1431.47 336.52,-1430.12 343.9,-1437.73 347.03,-1431.47"/>
</g>
<!-- Node8 -->
<g id="node8" class="node">
<title>Node8</title>
<g id="a_node8"><a xlink:href="structtracktion__engine_1_1PitchShiftEffect.html" target="_top" xlink:title=" ">
<polygon fill="none" stroke="black" points="403,-1479.5 403,-1509.5 553,-1509.5 553,-1479.5 403,-1479.5"/>
<text text-anchor="start" x="411" y="-1497.5" font-family="Helvetica,sans-Serif" font-size="10.00">tracktion_engine::PitchShift</text>
<text text-anchor="middle" x="478" y="-1486.5" font-family="Helvetica,sans-Serif" font-size="10.00">Effect</text>
</a>
</g>
</g>
<!-- Node3&#45;&gt;Node8 -->
<g id="edge7" class="edge">
<title>Node3&#45;&gt;Node8</title>
<path fill="none" stroke="midnightblue" d="M336.02,-1433.06C342.24,-1435.18 348.33,-1437.64 354,-1440.5 372.6,-1449.88 371.55,-1460.85 390,-1470.5 396.53,-1473.91 403.59,-1476.88 410.77,-1479.46"/>
<polygon fill="midnightblue" stroke="midnightblue" points="336.78,-1429.63 326.19,-1430 334.7,-1436.31 336.78,-1429.63"/>
</g>
<!-- Node9 -->
<g id="node9" class="node">
<title>Node9</title>
<g id="a_node9"><a xlink:href="structtracktion__engine_1_1PluginEffect.html" target="_top" xlink:title=" ">
<polygon fill="none" stroke="black" points="411,-1430.5 411,-1460.5 545,-1460.5 545,-1430.5 411,-1430.5"/>
<text text-anchor="start" x="419" y="-1448.5" font-family="Helvetica,sans-Serif" font-size="10.00">tracktion_engine::Plugin</text>
<text text-anchor="middle" x="478" y="-1437.5" font-family="Helvetica,sans-Serif" font-size="10.00">Effect</text>
</a>
</g>
</g>
<!-- Node3&#45;&gt;Node9 -->
<g id="edge8" class="edge">
<title>Node3&#45;&gt;Node9</title>
<path fill="none" stroke="midnightblue" d="M356.57,-1430.81C374.71,-1433.03 393.63,-1435.33 410.95,-1437.44"/>
<polygon fill="midnightblue" stroke="midnightblue" points="356.94,-1427.33 346.59,-1429.6 356.09,-1434.28 356.94,-1427.33"/>
</g>
<!-- Node10 -->
<g id="node10" class="node">
<title>Node10</title>
<g id="a_node10"><a xlink:href="structtracktion__engine_1_1ReverseEffect.html" target="_top" xlink:title=" ">
<polygon fill="none" stroke="black" points="406,-1381.5 406,-1411.5 550,-1411.5 550,-1381.5 406,-1381.5"/>
<text text-anchor="start" x="414" y="-1399.5" font-family="Helvetica,sans-Serif" font-size="10.00">tracktion_engine::Reverse</text>
<text text-anchor="middle" x="478" y="-1388.5" font-family="Helvetica,sans-Serif" font-size="10.00">Effect</text>
</a>
</g>
</g>
<!-- Node3&#45;&gt;Node10 -->
<g id="edge9" class="edge">
<title>Node3&#45;&gt;Node10</title>
<path fill="none" stroke="midnightblue" d="M356.68,-1410.59C373.03,-1408.67 390.01,-1406.68 405.88,-1404.83"/>
<polygon fill="midnightblue" stroke="midnightblue" points="356.11,-1407.13 346.59,-1411.77 356.93,-1414.08 356.11,-1407.13"/>
</g>
<!-- Node11 -->
<g id="node11" class="node">
<title>Node11</title>
<g id="a_node11"><a xlink:href="structtracktion__engine_1_1StepVolumeEffect.html" target="_top" xlink:title=" ">
<polygon fill="none" stroke="black" points="396.5,-1332.5 396.5,-1362.5 559.5,-1362.5 559.5,-1332.5 396.5,-1332.5"/>
<text text-anchor="start" x="404.5" y="-1350.5" font-family="Helvetica,sans-Serif" font-size="10.00">tracktion_engine::StepVolume</text>
<text text-anchor="middle" x="478" y="-1339.5" font-family="Helvetica,sans-Serif" font-size="10.00">Effect</text>
</a>
</g>
</g>
<!-- Node3&#45;&gt;Node11 -->
<g id="edge10" class="edge">
<title>Node3&#45;&gt;Node11</title>
<path fill="none" stroke="midnightblue" d="M302.96,-1406.85C326.56,-1396.7 360.01,-1382.88 390,-1372.5 399.95,-1369.06 410.65,-1365.7 421.03,-1362.63"/>
<polygon fill="midnightblue" stroke="midnightblue" points="301.27,-1403.77 293.48,-1410.95 304.05,-1410.19 301.27,-1403.77"/>
</g>
<!-- Node12 -->
<g id="node12" class="node">
<title>Node12</title>
<g id="a_node12"><a xlink:href="structtracktion__engine_1_1VolumeEffect.html" target="_top" xlink:title=" ">
<polygon fill="none" stroke="black" points="407.5,-1283.5 407.5,-1313.5 548.5,-1313.5 548.5,-1283.5 407.5,-1283.5"/>
<text text-anchor="start" x="415.5" y="-1301.5" font-family="Helvetica,sans-Serif" font-size="10.00">tracktion_engine::Volume</text>
<text text-anchor="middle" x="478" y="-1290.5" font-family="Helvetica,sans-Serif" font-size="10.00">Effect</text>
</a>
</g>
</g>
<!-- Node3&#45;&gt;Node12 -->
<g id="edge11" class="edge">
<title>Node3&#45;&gt;Node12</title>
<path fill="none" stroke="midnightblue" d="M288.07,-1403.55C309.41,-1381.98 349.2,-1344.94 390,-1323.5 397.23,-1319.7 405.12,-1316.41 413.09,-1313.58"/>
<polygon fill="midnightblue" stroke="midnightblue" points="285.29,-1401.39 280.83,-1411 290.31,-1406.27 285.29,-1401.39"/>
</g>
<!-- Node13 -->
<g id="node13" class="node">
<title>Node13</title>
<g id="a_node13"><a xlink:href="structtracktion__engine_1_1WarpTimeEffect.html" target="_top" xlink:title=" ">
<polygon fill="none" stroke="black" points="401,-1234.5 401,-1264.5 555,-1264.5 555,-1234.5 401,-1234.5"/>
<text text-anchor="start" x="409" y="-1252.5" font-family="Helvetica,sans-Serif" font-size="10.00">tracktion_engine::WarpTime</text>
<text text-anchor="middle" x="478" y="-1241.5" font-family="Helvetica,sans-Serif" font-size="10.00">Effect</text>
</a>
</g>
</g>
<!-- Node3&#45;&gt;Node13 -->
<g id="edge12" class="edge">
<title>Node3&#45;&gt;Node13</title>
<path fill="none" stroke="midnightblue" d="M281.83,-1402.08C299.36,-1371.02 339.02,-1308.3 390,-1274.5 395.76,-1270.68 402.12,-1267.43 408.68,-1264.68"/>
<polygon fill="midnightblue" stroke="midnightblue" points="278.69,-1400.53 276.93,-1410.98 284.82,-1403.91 278.69,-1400.53"/>
</g>
<!-- Node20 -->
<g id="node20" class="node">
<title>Node20</title>
<g id="a_node20"><a xlink:href="classtracktion__engine_1_1AirWindowsPlugin.html" target="_top" xlink:title=" ">
<polygon fill="none" stroke="black" points="397,-1185.5 397,-1215.5 559,-1215.5 559,-1185.5 397,-1185.5"/>
<text text-anchor="start" x="405" y="-1203.5" font-family="Helvetica,sans-Serif" font-size="10.00">tracktion_engine::AirWindows</text>
<text text-anchor="middle" x="478" y="-1192.5" font-family="Helvetica,sans-Serif" font-size="10.00">Plugin</text>
</a>
</g>
</g>
<!-- Node19&#45;&gt;Node20 -->
<g id="edge19" class="edge">
<title>Node19&#45;&gt;Node20</title>
<path fill="none" stroke="midnightblue" d="M347.21,-659.09C349.67,-660.98 351.95,-663.1 354,-665.5 427.92,-752.07 317.89,-1088.41 390,-1176.5 392.78,-1179.89 395.99,-1182.83 399.51,-1185.38"/>
<polygon fill="midnightblue" stroke="midnightblue" points="348.55,-655.81 338.2,-653.56 344.89,-661.77 348.55,-655.81"/>
</g>
<!-- Node21 -->
<g id="node21" class="node">
<title>Node21</title>
<g id="a_node21"><a xlink:href="classtracktion__engine_1_1AuxReturnPlugin.html" target="_top" xlink:title=" ">
<polygon fill="none" stroke="black" points="400.5,-1136.5 400.5,-1166.5 555.5,-1166.5 555.5,-1136.5 400.5,-1136.5"/>
<text text-anchor="start" x="408.5" y="-1154.5" font-family="Helvetica,sans-Serif" font-size="10.00">tracktion_engine::AuxReturn</text>
<text text-anchor="middle" x="478" y="-1143.5" font-family="Helvetica,sans-Serif" font-size="10.00">Plugin</text>
</a>
</g>
</g>
<!-- Node19&#45;&gt;Node21 -->
<g id="edge20" class="edge">
<title>Node19&#45;&gt;Node21</title>
<path fill="none" stroke="midnightblue" d="M347.18,-659.11C349.65,-660.99 351.95,-663.11 354,-665.5 421.16,-743.57 324.47,-1048.06 390,-1127.5 392.99,-1131.13 396.48,-1134.23 400.3,-1136.89"/>
<polygon fill="midnightblue" stroke="midnightblue" points="348.52,-655.82 338.16,-653.59 344.87,-661.79 348.52,-655.82"/>
</g>
<!-- Node22 -->
<g id="node22" class="node">
<title>Node22</title>
<g id="a_node22"><a xlink:href="classtracktion__engine_1_1AuxSendPlugin.html" target="_top" xlink:title=" ">
<polygon fill="none" stroke="black" points="404.5,-1087.5 404.5,-1117.5 551.5,-1117.5 551.5,-1087.5 404.5,-1087.5"/>
<text text-anchor="start" x="412.5" y="-1105.5" font-family="Helvetica,sans-Serif" font-size="10.00">tracktion_engine::AuxSend</text>
<text text-anchor="middle" x="478" y="-1094.5" font-family="Helvetica,sans-Serif" font-size="10.00">Plugin</text>
</a>
</g>
</g>
<!-- Node19&#45;&gt;Node22 -->
<g id="edge21" class="edge">
<title>Node19&#45;&gt;Node22</title>
<path fill="none" stroke="midnightblue" d="M347.16,-659.13C349.63,-661.01 351.93,-663.12 354,-665.5 414.4,-735.06 331.05,-1007.7 390,-1078.5 394.01,-1083.32 398.89,-1087.21 404.27,-1090.36"/>
<polygon fill="midnightblue" stroke="midnightblue" points="348.47,-655.84 338.11,-653.63 344.84,-661.82 348.47,-655.84"/>
</g>
<!-- Node23 -->
<g id="node23" class="node">
<title>Node23</title>
<g id="a_node23"><a xlink:href="classtracktion__engine_1_1ChorusPlugin.html" target="_top" xlink:title=" ">
<polygon fill="none" stroke="black" points="409,-1038.5 409,-1068.5 547,-1068.5 547,-1038.5 409,-1038.5"/>
<text text-anchor="start" x="417" y="-1056.5" font-family="Helvetica,sans-Serif" font-size="10.00">tracktion_engine::Chorus</text>
<text text-anchor="middle" x="478" y="-1045.5" font-family="Helvetica,sans-Serif" font-size="10.00">Plugin</text>
</a>
</g>
</g>
<!-- Node19&#45;&gt;Node23 -->
<g id="edge22" class="edge">
<title>Node19&#45;&gt;Node23</title>
<path fill="none" stroke="midnightblue" d="M347.12,-659.16C349.61,-661.03 351.92,-663.13 354,-665.5 407.65,-726.56 337.63,-967.34 390,-1029.5 395.15,-1035.61 401.7,-1040.24 408.89,-1043.73"/>
<polygon fill="midnightblue" stroke="midnightblue" points="348.42,-655.86 338.05,-653.69 344.8,-661.85 348.42,-655.86"/>
</g>
<!-- Node24 -->
<g id="node24" class="node">
<title>Node24</title>
<g id="a_node24"><a xlink:href="classtracktion__engine_1_1CompressorPlugin.html" target="_top" xlink:title=" ">
<polygon fill="none" stroke="black" points="396.5,-989.5 396.5,-1019.5 559.5,-1019.5 559.5,-989.5 396.5,-989.5"/>
<text text-anchor="start" x="404.5" y="-1007.5" font-family="Helvetica,sans-Serif" font-size="10.00">tracktion_engine::Compressor</text>
<text text-anchor="middle" x="478" y="-996.5" font-family="Helvetica,sans-Serif" font-size="10.00">Plugin</text>
</a>
</g>
</g>
<!-- Node19&#45;&gt;Node24 -->
<g id="edge23" class="edge">
<title>Node19&#45;&gt;Node24</title>
<path fill="none" stroke="midnightblue" d="M347.24,-659.32C349.68,-661.15 351.95,-663.2 354,-665.5 447.53,-770.3 299.23,-872.3 390,-979.5 393.25,-983.34 397.05,-986.61 401.2,-989.39"/>
<polygon fill="midnightblue" stroke="midnightblue" points="348.73,-656.14 338.37,-653.95 345.1,-662.12 348.73,-656.14"/>
</g>
<!-- Node25 -->
<g id="node25" class="node">
<title>Node25</title>
<g id="a_node25"><a xlink:href="classtracktion__engine_1_1DelayPlugin.html" target="_top" xlink:title=" ">
<polygon fill="none" stroke="black" points="396.5,-951 396.5,-970 559.5,-970 559.5,-951 396.5,-951"/>
<text text-anchor="middle" x="478" y="-958" font-family="Helvetica,sans-Serif" font-size="10.00">tracktion_engine::DelayPlugin</text>
</a>
</g>
</g>
<!-- Node19&#45;&gt;Node25 -->
<g id="edge24" class="edge">
<title>Node19&#45;&gt;Node25</title>
<path fill="none" stroke="midnightblue" d="M347.19,-659.37C349.64,-661.18 351.93,-663.22 354,-665.5 437.08,-757.15 306.34,-850.38 390,-941.5 393.45,-945.26 397.46,-948.36 401.82,-950.92"/>
<polygon fill="midnightblue" stroke="midnightblue" points="348.66,-656.17 338.29,-654.02 345.06,-662.17 348.66,-656.17"/>
</g>
<!-- Node26 -->
<g id="node26" class="node">
<title>Node26</title>
<g id="a_node26"><a xlink:href="classtracktion__engine_1_1EqualiserPlugin.html" target="_top" xlink:title=" ">
<polygon fill="none" stroke="black" points="403.5,-901.5 403.5,-931.5 552.5,-931.5 552.5,-901.5 403.5,-901.5"/>
<text text-anchor="start" x="411.5" y="-919.5" font-family="Helvetica,sans-Serif" font-size="10.00">tracktion_engine::Equaliser</text>
<text text-anchor="middle" x="478" y="-908.5" font-family="Helvetica,sans-Serif" font-size="10.00">Plugin</text>
</a>
</g>
</g>
<!-- Node19&#45;&gt;Node26 -->
<g id="edge25" class="edge">
<title>Node19&#45;&gt;Node26</title>
<path fill="none" stroke="midnightblue" d="M347.11,-659.44C349.59,-661.23 351.9,-663.24 354,-665.5 423.64,-740.23 321.92,-816.34 390,-892.5 393.86,-896.82 398.43,-900.4 403.41,-903.35"/>
<polygon fill="midnightblue" stroke="midnightblue" points="348.54,-656.22 338.15,-654.14 344.98,-662.24 348.54,-656.22"/>
</g>
<!-- Node27 -->
<g id="node27" class="node">
<title>Node27</title>
<g id="a_node27"><a xlink:href="classtracktion__engine_1_1ExternalPlugin.html" target="_top" xlink:title=" ">
<polygon fill="none" stroke="black" points="405.5,-852.5 405.5,-882.5 550.5,-882.5 550.5,-852.5 405.5,-852.5"/>
<text text-anchor="start" x="413.5" y="-870.5" font-family="Helvetica,sans-Serif" font-size="10.00">tracktion_engine::External</text>
<text text-anchor="middle" x="478" y="-859.5" font-family="Helvetica,sans-Serif" font-size="10.00">Plugin</text>
</a>
</g>
</g>
<!-- Node19&#45;&gt;Node27 -->
<g id="edge26" class="edge">
<title>Node19&#45;&gt;Node27</title>
<path fill="none" stroke="midnightblue" d="M347.16,-659.67C349.6,-661.4 351.9,-663.34 354,-665.5 410.26,-723.37 334.95,-784.48 390,-843.5 394.38,-848.2 399.59,-852.01 405.25,-855.09"/>
<polygon fill="midnightblue" stroke="midnightblue" points="348.75,-656.54 338.34,-654.52 345.22,-662.59 348.75,-656.54"/>
</g>
<!-- Node28 -->
<g id="node28" class="node">
<title>Node28</title>
<g id="a_node28"><a xlink:href="classtracktion__engine_1_1FourOscPlugin.html" target="_top" xlink:title=" ">
<polygon fill="none" stroke="black" points="406.5,-803.5 406.5,-833.5 549.5,-833.5 549.5,-803.5 406.5,-803.5"/>
<text text-anchor="start" x="414.5" y="-821.5" font-family="Helvetica,sans-Serif" font-size="10.00">tracktion_engine::FourOsc</text>
<text text-anchor="middle" x="478" y="-810.5" font-family="Helvetica,sans-Serif" font-size="10.00">Plugin</text>
</a>
</g>
</g>
<!-- Node19&#45;&gt;Node28 -->
<g id="edge27" class="edge">
<title>Node19&#45;&gt;Node28</title>
<path fill="none" stroke="midnightblue" d="M346.97,-659.87C349.46,-661.55 351.82,-663.42 354,-665.5 397.01,-706.64 347.85,-752.47 390,-794.5 394.77,-799.26 400.39,-803.09 406.45,-806.18"/>
<polygon fill="midnightblue" stroke="midnightblue" points="348.44,-656.68 338.01,-654.87 345.03,-662.8 348.44,-656.68"/>
</g>
<!-- Node29 -->
<g id="node29" class="node">
<title>Node29</title>
<g id="a_node29"><a xlink:href="classtracktion__engine_1_1FreezePointPlugin.html" target="_top" xlink:title=" ">
<polygon fill="none" stroke="black" points="409.5,-754.5 409.5,-784.5 546.5,-784.5 546.5,-754.5 409.5,-754.5"/>
<text text-anchor="start" x="417.5" y="-772.5" font-family="Helvetica,sans-Serif" font-size="10.00">tracktion_engine::Freeze</text>
<text text-anchor="middle" x="478" y="-761.5" font-family="Helvetica,sans-Serif" font-size="10.00">PointPlugin</text>
</a>
</g>
</g>
<!-- Node19&#45;&gt;Node29 -->
<g id="edge28" class="edge">
<title>Node19&#45;&gt;Node29</title>
<path fill="none" stroke="midnightblue" d="M347.43,-660.81C349.73,-662.24 351.93,-663.8 354,-665.5 384.12,-690.25 360.39,-720.13 390,-745.5 395.71,-750.39 402.34,-754.3 409.34,-757.41"/>
<polygon fill="midnightblue" stroke="midnightblue" points="348.64,-657.5 338.16,-655.97 345.4,-663.7 348.64,-657.5"/>
</g>
<!-- Node30 -->
<g id="node30" class="node">
<title>Node30</title>
<g id="a_node30"><a xlink:href="classtracktion__engine_1_1InsertPlugin.html" target="_top" xlink:title=" ">
<polygon fill="none" stroke="black" points="412,-705.5 412,-735.5 544,-735.5 544,-705.5 412,-705.5"/>
<text text-anchor="start" x="420" y="-723.5" font-family="Helvetica,sans-Serif" font-size="10.00">tracktion_engine::Insert</text>
<text text-anchor="middle" x="478" y="-712.5" font-family="Helvetica,sans-Serif" font-size="10.00">Plugin</text>
</a>
</g>
</g>
<!-- Node19&#45;&gt;Node30 -->
<g id="edge29" class="edge">
<title>Node19&#45;&gt;Node30</title>
<path fill="none" stroke="midnightblue" d="M338.82,-659.07C344.07,-660.93 349.19,-663.06 354,-665.5 372.83,-675.05 371.37,-686.56 390,-696.5 396.77,-700.11 404.14,-703.22 411.63,-705.89"/>
<polygon fill="midnightblue" stroke="midnightblue" points="339.87,-655.74 329.28,-656.01 337.73,-662.4 339.87,-655.74"/>
</g>
<!-- Node31 -->
<g id="node31" class="node">
<title>Node31</title>
<g id="a_node31"><a xlink:href="classtracktion__engine_1_1LatencyPlugin.html" target="_top" xlink:title="A test plugin that introduces latency to the incomming signal.">
<polygon fill="none" stroke="black" points="406.5,-656.5 406.5,-686.5 549.5,-686.5 549.5,-656.5 406.5,-656.5"/>
<text text-anchor="start" x="414.5" y="-674.5" font-family="Helvetica,sans-Serif" font-size="10.00">tracktion_engine::Latency</text>
<text text-anchor="middle" x="478" y="-663.5" font-family="Helvetica,sans-Serif" font-size="10.00">Plugin</text>
</a>
</g>
</g>
<!-- Node19&#45;&gt;Node31 -->
<g id="edge30" class="edge">
<title>Node19&#45;&gt;Node31</title>
<path fill="none" stroke="midnightblue" d="M348.38,-655.81C367.37,-658.13 387.65,-660.6 406.36,-662.89"/>
<polygon fill="midnightblue" stroke="midnightblue" points="348.62,-652.32 338.27,-654.58 347.78,-659.27 348.62,-652.32"/>
</g>
<!-- Node32 -->
<g id="node32" class="node">
<title>Node32</title>
<g id="a_node32"><a xlink:href="classtracktion__engine_1_1LevelMeterPlugin.html" target="_top" xlink:title=" ">
<polygon fill="none" stroke="black" points="398.5,-607.5 398.5,-637.5 557.5,-637.5 557.5,-607.5 398.5,-607.5"/>
<text text-anchor="start" x="406.5" y="-625.5" font-family="Helvetica,sans-Serif" font-size="10.00">tracktion_engine::LevelMeter</text>
<text text-anchor="middle" x="478" y="-614.5" font-family="Helvetica,sans-Serif" font-size="10.00">Plugin</text>
</a>
</g>
</g>
<!-- Node19&#45;&gt;Node32 -->
<g id="edge31" class="edge">
<title>Node19&#45;&gt;Node32</title>
<path fill="none" stroke="midnightblue" d="M348.32,-637.56C364.68,-635.65 382,-633.62 398.44,-631.7"/>
<polygon fill="midnightblue" stroke="midnightblue" points="347.8,-634.1 338.27,-638.74 348.61,-641.05 347.8,-634.1"/>
</g>
<!-- Node33 -->
<g id="node33" class="node">
<title>Node33</title>
<g id="a_node33"><a xlink:href="classtracktion__engine_1_1LowPassPlugin.html" target="_top" xlink:title=" ">
<polygon fill="none" stroke="black" points="405,-558.5 405,-588.5 551,-588.5 551,-558.5 405,-558.5"/>
<text text-anchor="start" x="413" y="-576.5" font-family="Helvetica,sans-Serif" font-size="10.00">tracktion_engine::LowPass</text>
<text text-anchor="middle" x="478" y="-565.5" font-family="Helvetica,sans-Serif" font-size="10.00">Plugin</text>
</a>
</g>
</g>
<!-- Node19&#45;&gt;Node33 -->
<g id="edge32" class="edge">
<title>Node19&#45;&gt;Node33</title>
<path fill="none" stroke="midnightblue" d="M338.47,-633.84C343.83,-632 349.07,-629.9 354,-627.5 372.47,-618.51 371.77,-607.97 390,-598.5 397.25,-594.73 405.15,-591.47 413.13,-588.65"/>
<polygon fill="midnightblue" stroke="midnightblue" points="337.23,-630.56 328.73,-636.89 339.32,-637.24 337.23,-630.56"/>
</g>
<!-- Node34 -->
<g id="node34" class="node">
<title>Node34</title>
<g id="a_node34"><a xlink:href="classtracktion__engine_1_1MidiModifierPlugin.html" target="_top" xlink:title=" ">
<polygon fill="none" stroke="black" points="395.5,-509.5 395.5,-539.5 560.5,-539.5 560.5,-509.5 395.5,-509.5"/>
<text text-anchor="start" x="403.5" y="-527.5" font-family="Helvetica,sans-Serif" font-size="10.00">tracktion_engine::MidiModifier</text>
<text text-anchor="middle" x="478" y="-516.5" font-family="Helvetica,sans-Serif" font-size="10.00">Plugin</text>
</a>
</g>
</g>
<!-- Node19&#45;&gt;Node34 -->
<g id="edge33" class="edge">
<title>Node19&#45;&gt;Node34</title>
<path fill="none" stroke="midnightblue" d="M347.41,-632.16C349.71,-630.74 351.92,-629.19 354,-627.5 383.62,-603.4 361.02,-574.36 390,-549.5 394.53,-545.61 399.64,-542.33 405.04,-539.55"/>
<polygon fill="midnightblue" stroke="midnightblue" points="345.38,-629.27 338.12,-636.99 348.61,-635.48 345.38,-629.27"/>
</g>
<!-- Node35 -->
<g id="node35" class="node">
<title>Node35</title>
<g id="a_node35"><a xlink:href="classtracktion__engine_1_1MidiPatchBayPlugin.html" target="_top" xlink:title=" ">
<polygon fill="none" stroke="black" points="402,-460.5 402,-490.5 554,-490.5 554,-460.5 402,-460.5"/>
<text text-anchor="start" x="410" y="-478.5" font-family="Helvetica,sans-Serif" font-size="10.00">tracktion_engine::MidiPatch</text>
<text text-anchor="middle" x="478" y="-467.5" font-family="Helvetica,sans-Serif" font-size="10.00">BayPlugin</text>
</a>
</g>
</g>
<!-- Node19&#45;&gt;Node35 -->
<g id="edge34" class="edge">
<title>Node19&#45;&gt;Node35</title>
<path fill="none" stroke="midnightblue" d="M347.12,-633.01C349.56,-631.36 351.87,-629.53 354,-627.5 396.48,-587.03 348.59,-542.06 390,-500.5 393.88,-496.6 398.33,-493.31 403.11,-490.51"/>
<polygon fill="midnightblue" stroke="midnightblue" points="345.38,-629.97 338.39,-637.93 348.82,-636.07 345.38,-629.97"/>
</g>
<!-- Node36 -->
<g id="node36" class="node">
<title>Node36</title>
<g id="a_node36"><a xlink:href="classtracktion__engine_1_1PatchBayPlugin.html" target="_top" xlink:title=" ">
<polygon fill="none" stroke="black" points="403.5,-411.5 403.5,-441.5 552.5,-441.5 552.5,-411.5 403.5,-411.5"/>
<text text-anchor="start" x="411.5" y="-429.5" font-family="Helvetica,sans-Serif" font-size="10.00">tracktion_engine::PatchBay</text>
<text text-anchor="middle" x="478" y="-418.5" font-family="Helvetica,sans-Serif" font-size="10.00">Plugin</text>
</a>
</g>
</g>
<!-- Node19&#45;&gt;Node36 -->
<g id="edge35" class="edge">
<title>Node19&#45;&gt;Node36</title>
<path fill="none" stroke="midnightblue" d="M347.15,-633.32C349.6,-631.59 351.9,-629.66 354,-627.5 409.72,-570.32 335.79,-510.12 390,-451.5 393.84,-447.35 398.32,-443.87 403.19,-440.95"/>
<polygon fill="midnightblue" stroke="midnightblue" points="345.21,-630.41 338.33,-638.47 348.74,-636.45 345.21,-630.41"/>
</g>
<!-- Node37 -->
<g id="node37" class="node">
<title>Node37</title>
<g id="a_node37"><a xlink:href="classtracktion__engine_1_1PhaserPlugin.html" target="_top" xlink:title=" ">
<polygon fill="none" stroke="black" points="409.5,-362.5 409.5,-392.5 546.5,-392.5 546.5,-362.5 409.5,-362.5"/>
<text text-anchor="start" x="417.5" y="-380.5" font-family="Helvetica,sans-Serif" font-size="10.00">tracktion_engine::Phaser</text>
<text text-anchor="middle" x="478" y="-369.5" font-family="Helvetica,sans-Serif" font-size="10.00">Plugin</text>
</a>
</g>
</g>
<!-- Node19&#45;&gt;Node37 -->
<g id="edge36" class="edge">
<title>Node19&#45;&gt;Node37</title>
<path fill="none" stroke="midnightblue" d="M347.11,-633.56C349.58,-631.76 351.9,-629.75 354,-627.5 423.1,-553.46 322.86,-478.31 390,-402.5 395.31,-396.5 401.96,-391.9 409.21,-388.38"/>
<polygon fill="midnightblue" stroke="midnightblue" points="344.98,-630.75 338.15,-638.85 348.54,-636.78 344.98,-630.75"/>
</g>
<!-- Node38 -->
<g id="node38" class="node">
<title>Node38</title>
<g id="a_node38"><a xlink:href="classtracktion__engine_1_1PitchShiftPlugin.html" target="_top" xlink:title=" ">
<polygon fill="none" stroke="black" points="403,-313.5 403,-343.5 553,-343.5 553,-313.5 403,-313.5"/>
<text text-anchor="start" x="411" y="-331.5" font-family="Helvetica,sans-Serif" font-size="10.00">tracktion_engine::PitchShift</text>
<text text-anchor="middle" x="478" y="-320.5" font-family="Helvetica,sans-Serif" font-size="10.00">Plugin</text>
</a>
</g>
</g>
<!-- Node19&#45;&gt;Node38 -->
<g id="edge37" class="edge">
<title>Node19&#45;&gt;Node38</title>
<path fill="none" stroke="midnightblue" d="M347.19,-633.63C349.64,-631.82 351.93,-629.78 354,-627.5 436.53,-536.54 309.86,-446.58 390,-353.5 393.69,-349.21 398.06,-345.64 402.86,-342.66"/>
<polygon fill="midnightblue" stroke="midnightblue" points="345.05,-630.83 338.28,-638.98 348.66,-636.83 345.05,-630.83"/>
</g>
<!-- Node39 -->
<g id="node39" class="node">
<title>Node39</title>
<g id="a_node39"><a xlink:href="classtracktion__engine_1_1RackInstance.html" target="_top" xlink:title=" ">
<polygon fill="none" stroke="black" points="393,-275 393,-294 563,-294 563,-275 393,-275"/>
<text text-anchor="middle" x="478" y="-282" font-family="Helvetica,sans-Serif" font-size="10.00">tracktion_engine::RackInstance</text>
</a>
</g>
</g>
<!-- Node19&#45;&gt;Node39 -->
<g id="edge38" class="edge">
<title>Node19&#45;&gt;Node39</title>
<path fill="none" stroke="midnightblue" d="M347.25,-633.68C349.68,-631.86 351.95,-629.8 354,-627.5 450.01,-519.58 293.9,-412.34 390,-304.5 393.71,-300.33 398.1,-296.95 402.9,-294.2"/>
<polygon fill="midnightblue" stroke="midnightblue" points="345.11,-630.88 338.38,-639.07 348.75,-636.87 345.11,-630.88"/>
</g>
<!-- Node40 -->
<g id="node40" class="node">
<title>Node40</title>
<g id="a_node40"><a xlink:href="classtracktion__engine_1_1ReverbPlugin.html" target="_top" xlink:title=" ">
<polygon fill="none" stroke="black" points="408.5,-225.5 408.5,-255.5 547.5,-255.5 547.5,-225.5 408.5,-225.5"/>
<text text-anchor="start" x="416.5" y="-243.5" font-family="Helvetica,sans-Serif" font-size="10.00">tracktion_engine::Reverb</text>
<text text-anchor="middle" x="478" y="-232.5" font-family="Helvetica,sans-Serif" font-size="10.00">Plugin</text>
</a>
</g>
</g>
<!-- Node19&#45;&gt;Node40 -->
<g id="edge39" class="edge">
<title>Node19&#45;&gt;Node40</title>
<path fill="none" stroke="midnightblue" d="M347.12,-633.84C349.61,-631.97 351.92,-629.87 354,-627.5 407.37,-566.78 338.23,-327.59 390,-265.5 395.03,-259.47 401.42,-254.83 408.44,-251.29"/>
<polygon fill="midnightblue" stroke="midnightblue" points="344.8,-631.15 338.05,-639.31 348.42,-637.14 344.8,-631.15"/>
</g>
<!-- Node41 -->
<g id="node41" class="node">
<title>Node41</title>
<g id="a_node41"><a xlink:href="classtracktion__engine_1_1SamplerPlugin.html" target="_top" xlink:title=" ">
<polygon fill="none" stroke="black" points="405.5,-176.5 405.5,-206.5 550.5,-206.5 550.5,-176.5 405.5,-176.5"/>
<text text-anchor="start" x="413.5" y="-194.5" font-family="Helvetica,sans-Serif" font-size="10.00">tracktion_engine::Sampler</text>
<text text-anchor="middle" x="478" y="-183.5" font-family="Helvetica,sans-Serif" font-size="10.00">Plugin</text>
</a>
</g>
</g>
<!-- Node19&#45;&gt;Node41 -->
<g id="edge40" class="edge">
<title>Node19&#45;&gt;Node41</title>
<path fill="none" stroke="midnightblue" d="M347.15,-633.87C349.63,-631.99 351.93,-629.88 354,-627.5 414.13,-558.29 331.7,-287.26 390,-216.5 394.3,-211.28 399.61,-207.12 405.46,-203.79"/>
<polygon fill="midnightblue" stroke="midnightblue" points="344.84,-631.18 338.11,-639.36 348.47,-637.16 344.84,-631.18"/>
</g>
<!-- Node42 -->
<g id="node42" class="node">
<title>Node42</title>
<g id="a_node42"><a xlink:href="classtracktion__engine_1_1TextPlugin.html" target="_top" xlink:title=" ">
<polygon fill="none" stroke="black" points="400.5,-138 400.5,-157 555.5,-157 555.5,-138 400.5,-138"/>
<text text-anchor="middle" x="478" y="-145" font-family="Helvetica,sans-Serif" font-size="10.00">tracktion_engine::TextPlugin</text>
</a>
</g>
</g>
<!-- Node19&#45;&gt;Node42 -->
<g id="edge41" class="edge">
<title>Node19&#45;&gt;Node42</title>
<path fill="none" stroke="midnightblue" d="M347.18,-633.89C349.65,-632.01 351.94,-629.89 354,-627.5 420.88,-549.78 323.05,-245.16 390,-167.5 393.64,-163.27 397.98,-159.84 402.75,-157.06"/>
<polygon fill="midnightblue" stroke="midnightblue" points="344.86,-631.2 338.16,-639.41 348.51,-637.18 344.86,-631.2"/>
</g>
<!-- Node43 -->
<g id="node43" class="node">
<title>Node43</title>
<g id="a_node43"><a xlink:href="classtracktion__engine_1_1ToneGeneratorPlugin.html" target="_top" xlink:title=" ">
<polygon fill="none" stroke="black" points="390,-88.5 390,-118.5 566,-118.5 566,-88.5 390,-88.5"/>
<text text-anchor="start" x="398" y="-106.5" font-family="Helvetica,sans-Serif" font-size="10.00">tracktion_engine::ToneGenerator</text>
<text text-anchor="middle" x="478" y="-95.5" font-family="Helvetica,sans-Serif" font-size="10.00">Plugin</text>
</a>
</g>
</g>
<!-- Node19&#45;&gt;Node43 -->
<g id="edge42" class="edge">
<title>Node19&#45;&gt;Node43</title>
<path fill="none" stroke="midnightblue" d="M347.2,-633.91C349.67,-632.02 351.95,-629.89 354,-627.5 426.26,-543.01 319.96,-214.84 390,-128.5 393.07,-124.72 396.67,-121.48 400.63,-118.72"/>
<polygon fill="midnightblue" stroke="midnightblue" points="344.88,-631.22 338.19,-639.43 348.54,-637.19 344.88,-631.22"/>
</g>
<!-- Node44 -->
<g id="node44" class="node">
<title>Node44</title>
<g id="a_node44"><a xlink:href="classtracktion__engine_1_1VCAPlugin.html" target="_top" xlink:title="The VCA plugin sits on a folder track to control the overall level of all the volume/pan plugins in i...">
<polygon fill="none" stroke="black" points="400.5,-50 400.5,-69 555.5,-69 555.5,-50 400.5,-50"/>
<text text-anchor="middle" x="478" y="-57" font-family="Helvetica,sans-Serif" font-size="10.00">tracktion_engine::VCAPlugin</text>
</a>
</g>
</g>
<!-- Node19&#45;&gt;Node44 -->
<g id="edge43" class="edge">
<title>Node19&#45;&gt;Node44</title>
<path fill="none" stroke="midnightblue" d="M347.22,-633.92C349.68,-632.03 351.96,-629.9 354,-627.5 433.03,-534.5 310.89,-172.43 390,-79.5 393.62,-75.25 397.94,-71.8 402.69,-69.01"/>
<polygon fill="midnightblue" stroke="midnightblue" points="344.9,-631.24 338.22,-639.46 348.57,-637.2 344.9,-631.24"/>
</g>
<!-- Node45 -->
<g id="node45" class="node">
<title>Node45</title>
<g id="a_node45"><a xlink:href="classtracktion__engine_1_1VolumeAndPanPlugin.html" target="_top" xlink:title="The built&#45;in Tracktion volume/pan plugin.">
<polygon fill="none" stroke="black" points="407.5,-0.5 407.5,-30.5 548.5,-30.5 548.5,-0.5 407.5,-0.5"/>
<text text-anchor="start" x="415.5" y="-18.5" font-family="Helvetica,sans-Serif" font-size="10.00">tracktion_engine::Volume</text>
<text text-anchor="middle" x="478" y="-7.5" font-family="Helvetica,sans-Serif" font-size="10.00">AndPanPlugin</text>
</a>
</g>
</g>
<!-- Node19&#45;&gt;Node45 -->
<g id="edge44" class="edge">
<title>Node19&#45;&gt;Node45</title>
<path fill="none" stroke="midnightblue" d="M347.23,-633.93C349.69,-632.04 351.96,-629.91 354,-627.5 438.41,-527.73 308.22,-142.44 390,-40.5 394.72,-34.62 400.73,-30.06 407.38,-26.54"/>
<polygon fill="midnightblue" stroke="midnightblue" points="344.92,-631.25 338.24,-639.48 348.59,-637.21 344.92,-631.25"/>
</g>
</g>
</svg>
