<?xml version="1.0" encoding="UTF-8" standalone="no"?>
<!DOCTYPE svg PUBLIC "-//W3C//DTD SVG 1.1//EN"
 "http://www.w3.org/Graphics/SVG/1.1/DTD/svg11.dtd">
<!-- Generated by graphviz version 2.43.0 (0)
 -->
<!-- Title: tracktion::engine::Clipboard::ContentType Pages: 1 -->
<svg width="330pt" height="578pt"
 viewBox="0.00 0.00 330.00 578.00" xmlns="http://www.w3.org/2000/svg" xmlns:xlink="http://www.w3.org/1999/xlink">
<g id="graph0" class="graph" transform="scale(1 1) rotate(0) translate(4 574)">
<title>tracktion::engine::Clipboard::ContentType</title>
<!-- Node1 -->
<g id="node1" class="node">
<title>Node1</title>
<g id="a_node1"><a xlink:title=" ">
<polygon fill="#bfbfbf" stroke="black" points="0,-269.5 0,-299.5 130,-299.5 130,-269.5 0,-269.5"/>
<text text-anchor="start" x="8" y="-287.5" font-family="Helvetica,sans-Serif" font-size="10.00">tracktion::engine::</text>
<text text-anchor="middle" x="65" y="-276.5" font-family="Helvetica,sans-Serif" font-size="10.00">Clipboard::ContentType</text>
</a>
</g>
</g>
<!-- Node2 -->
<g id="node2" class="node">
<title>Node2</title>
<g id="a_node2"><a xlink:href="structtracktion_1_1engine_1_1Clipboard_1_1AutomationPoints.html" target="_top" xlink:title=" ">
<polygon fill="none" stroke="black" points="166,-539.5 166,-569.5 322,-569.5 322,-539.5 166,-539.5"/>
<text text-anchor="start" x="174" y="-557.5" font-family="Helvetica,sans-Serif" font-size="10.00">tracktion::engine::</text>
<text text-anchor="middle" x="244" y="-546.5" font-family="Helvetica,sans-Serif" font-size="10.00">Clipboard::AutomationPoints</text>
</a>
</g>
</g>
<!-- Node1&#45;&gt;Node2 -->
<g id="edge1" class="edge">
<title>Node1&#45;&gt;Node2</title>
<path fill="none" stroke="midnightblue" d="M69.13,-309.91C76.61,-359.56 100.06,-469.87 166,-530.5 169.71,-533.91 173.9,-536.84 178.36,-539.35"/>
<polygon fill="midnightblue" stroke="midnightblue" points="72.56,-309.15 67.7,-299.74 65.63,-310.13 72.56,-309.15"/>
</g>
<!-- Node3 -->
<g id="node3" class="node">
<title>Node3</title>
<g id="a_node3"><a xlink:href="structtracktion_1_1engine_1_1Clipboard_1_1Clips.html" target="_top" xlink:title=" ">
<polygon fill="none" stroke="black" points="191.5,-490.5 191.5,-520.5 296.5,-520.5 296.5,-490.5 191.5,-490.5"/>
<text text-anchor="start" x="199.5" y="-508.5" font-family="Helvetica,sans-Serif" font-size="10.00">tracktion::engine::</text>
<text text-anchor="middle" x="244" y="-497.5" font-family="Helvetica,sans-Serif" font-size="10.00">Clipboard::Clips</text>
</a>
</g>
</g>
<!-- Node1&#45;&gt;Node3 -->
<g id="edge2" class="edge">
<title>Node1&#45;&gt;Node3</title>
<path fill="none" stroke="midnightblue" d="M71.9,-309.49C83.05,-351.25 111.16,-435.15 166,-481.5 173.27,-487.65 182.11,-492.22 191.18,-495.62"/>
<polygon fill="midnightblue" stroke="midnightblue" points="75.24,-308.42 69.37,-299.6 68.46,-310.16 75.24,-308.42"/>
</g>
<!-- Node4 -->
<g id="node4" class="node">
<title>Node4</title>
<g id="a_node4"><a xlink:href="structtracktion_1_1engine_1_1Clipboard_1_1MIDIEvents.html" target="_top" xlink:title=" ">
<polygon fill="none" stroke="black" points="181.5,-441.5 181.5,-471.5 306.5,-471.5 306.5,-441.5 181.5,-441.5"/>
<text text-anchor="start" x="189.5" y="-459.5" font-family="Helvetica,sans-Serif" font-size="10.00">tracktion::engine::</text>
<text text-anchor="middle" x="244" y="-448.5" font-family="Helvetica,sans-Serif" font-size="10.00">Clipboard::MIDIEvents</text>
</a>
</g>
</g>
<!-- Node1&#45;&gt;Node4 -->
<g id="edge3" class="edge">
<title>Node1&#45;&gt;Node4</title>
<path fill="none" stroke="midnightblue" d="M76.18,-308.88C91.11,-341.72 122.02,-399.8 166,-432.5 170.72,-436.01 175.96,-439.01 181.43,-441.58"/>
<polygon fill="midnightblue" stroke="midnightblue" points="79.3,-307.29 72.06,-299.56 72.9,-310.12 79.3,-307.29"/>
</g>
<!-- Node5 -->
<g id="node5" class="node">
<title>Node5</title>
<g id="a_node5"><a xlink:href="structtracktion_1_1engine_1_1Clipboard_1_1Modifiers.html" target="_top" xlink:title=" ">
<polygon fill="none" stroke="black" points="187,-392.5 187,-422.5 301,-422.5 301,-392.5 187,-392.5"/>
<text text-anchor="start" x="195" y="-410.5" font-family="Helvetica,sans-Serif" font-size="10.00">tracktion::engine::</text>
<text text-anchor="middle" x="244" y="-399.5" font-family="Helvetica,sans-Serif" font-size="10.00">Clipboard::Modifiers</text>
</a>
</g>
</g>
<!-- Node1&#45;&gt;Node5 -->
<g id="edge4" class="edge">
<title>Node1&#45;&gt;Node5</title>
<path fill="none" stroke="midnightblue" d="M83.64,-307.49C101.96,-329.89 132.58,-363.41 166,-383.5 172.48,-387.4 179.65,-390.72 186.94,-393.53"/>
<polygon fill="midnightblue" stroke="midnightblue" points="86.23,-305.12 77.24,-299.51 80.76,-309.5 86.23,-305.12"/>
</g>
<!-- Node6 -->
<g id="node6" class="node">
<title>Node6</title>
<g id="a_node6"><a xlink:href="structtracktion_1_1engine_1_1Clipboard_1_1Pitches.html" target="_top" xlink:title=" ">
<polygon fill="none" stroke="black" points="191.5,-343.5 191.5,-373.5 296.5,-373.5 296.5,-343.5 191.5,-343.5"/>
<text text-anchor="start" x="199.5" y="-361.5" font-family="Helvetica,sans-Serif" font-size="10.00">tracktion::engine::</text>
<text text-anchor="middle" x="244" y="-350.5" font-family="Helvetica,sans-Serif" font-size="10.00">Clipboard::Pitches</text>
</a>
</g>
</g>
<!-- Node1&#45;&gt;Node6 -->
<g id="edge5" class="edge">
<title>Node1&#45;&gt;Node6</title>
<path fill="none" stroke="midnightblue" d="M102.1,-304.32C120.83,-314.15 144.28,-325.75 166,-334.5 174.05,-337.74 182.72,-340.82 191.24,-343.63"/>
<polygon fill="midnightblue" stroke="midnightblue" points="103.51,-301.11 93.04,-299.51 100.23,-307.29 103.51,-301.11"/>
</g>
<!-- Node7 -->
<g id="node7" class="node">
<title>Node7</title>
<g id="a_node7"><a xlink:href="structtracktion_1_1engine_1_1Clipboard_1_1Plugins.html" target="_top" xlink:title=" ">
<polygon fill="none" stroke="black" points="191.5,-294.5 191.5,-324.5 296.5,-324.5 296.5,-294.5 191.5,-294.5"/>
<text text-anchor="start" x="199.5" y="-312.5" font-family="Helvetica,sans-Serif" font-size="10.00">tracktion::engine::</text>
<text text-anchor="middle" x="244" y="-301.5" font-family="Helvetica,sans-Serif" font-size="10.00">Clipboard::Plugins</text>
</a>
</g>
</g>
<!-- Node1&#45;&gt;Node7 -->
<g id="edge6" class="edge">
<title>Node1&#45;&gt;Node7</title>
<path fill="none" stroke="midnightblue" d="M140.16,-294.97C157.35,-297.4 175.27,-299.93 191.25,-302.19"/>
<polygon fill="midnightblue" stroke="midnightblue" points="140.54,-291.49 130.15,-293.56 139.56,-298.43 140.54,-291.49"/>
</g>
<!-- Node8 -->
<g id="node8" class="node">
<title>Node8</title>
<g id="a_node8"><a xlink:href="structtracktion_1_1engine_1_1Clipboard_1_1ProjectItems.html" target="_top" xlink:title=" ">
<polygon fill="none" stroke="black" points="178.5,-245.5 178.5,-275.5 309.5,-275.5 309.5,-245.5 178.5,-245.5"/>
<text text-anchor="start" x="186.5" y="-263.5" font-family="Helvetica,sans-Serif" font-size="10.00">tracktion::engine::</text>
<text text-anchor="middle" x="244" y="-252.5" font-family="Helvetica,sans-Serif" font-size="10.00">Clipboard::ProjectItems</text>
</a>
</g>
</g>
<!-- Node1&#45;&gt;Node8 -->
<g id="edge7" class="edge">
<title>Node1&#45;&gt;Node8</title>
<path fill="none" stroke="midnightblue" d="M140.23,-274.43C152.94,-272.71 166.05,-270.93 178.47,-269.25"/>
<polygon fill="midnightblue" stroke="midnightblue" points="139.59,-270.99 130.15,-275.8 140.53,-277.93 139.59,-270.99"/>
</g>
<!-- Node9 -->
<g id="node9" class="node">
<title>Node9</title>
<g id="a_node9"><a xlink:href="structtracktion_1_1engine_1_1Clipboard_1_1Scenes.html" target="_top" xlink:title=" ">
<polygon fill="none" stroke="black" points="191.5,-196.5 191.5,-226.5 296.5,-226.5 296.5,-196.5 191.5,-196.5"/>
<text text-anchor="start" x="199.5" y="-214.5" font-family="Helvetica,sans-Serif" font-size="10.00">tracktion::engine::</text>
<text text-anchor="middle" x="244" y="-203.5" font-family="Helvetica,sans-Serif" font-size="10.00">Clipboard::Scenes</text>
</a>
</g>
</g>
<!-- Node1&#45;&gt;Node9 -->
<g id="edge8" class="edge">
<title>Node1&#45;&gt;Node9</title>
<path fill="none" stroke="midnightblue" d="M103.83,-264.87C122.32,-255.65 145.05,-244.89 166,-236.5 174.74,-233 184.18,-229.62 193.36,-226.54"/>
<polygon fill="midnightblue" stroke="midnightblue" points="102.22,-261.76 94.86,-269.38 105.36,-268.01 102.22,-261.76"/>
</g>
<!-- Node10 -->
<g id="node10" class="node">
<title>Node10</title>
<g id="a_node10"><a xlink:href="structtracktion_1_1engine_1_1Clipboard_1_1Takes.html" target="_top" xlink:title=" ">
<polygon fill="none" stroke="black" points="191.5,-147.5 191.5,-177.5 296.5,-177.5 296.5,-147.5 191.5,-147.5"/>
<text text-anchor="start" x="199.5" y="-165.5" font-family="Helvetica,sans-Serif" font-size="10.00">tracktion::engine::</text>
<text text-anchor="middle" x="244" y="-154.5" font-family="Helvetica,sans-Serif" font-size="10.00">Clipboard::Takes</text>
</a>
</g>
</g>
<!-- Node1&#45;&gt;Node10 -->
<g id="edge9" class="edge">
<title>Node1&#45;&gt;Node10</title>
<path fill="none" stroke="midnightblue" d="M84.41,-261.34C102.91,-239.48 133.3,-207.19 166,-187.5 173.83,-182.79 182.64,-178.86 191.44,-175.61"/>
<polygon fill="midnightblue" stroke="midnightblue" points="81.61,-259.23 77.92,-269.16 87,-263.7 81.61,-259.23"/>
</g>
<!-- Node11 -->
<g id="node11" class="node">
<title>Node11</title>
<g id="a_node11"><a xlink:href="structtracktion_1_1engine_1_1Clipboard_1_1TempoChanges.html" target="_top" xlink:title=" ">
<polygon fill="none" stroke="black" points="172.5,-98.5 172.5,-128.5 315.5,-128.5 315.5,-98.5 172.5,-98.5"/>
<text text-anchor="start" x="180.5" y="-116.5" font-family="Helvetica,sans-Serif" font-size="10.00">tracktion::engine::</text>
<text text-anchor="middle" x="244" y="-105.5" font-family="Helvetica,sans-Serif" font-size="10.00">Clipboard::TempoChanges</text>
</a>
</g>
</g>
<!-- Node1&#45;&gt;Node11 -->
<g id="edge10" class="edge">
<title>Node1&#45;&gt;Node11</title>
<path fill="none" stroke="midnightblue" d="M76.56,-260.02C91.74,-227.63 122.74,-170.85 166,-138.5 171.18,-134.63 176.98,-131.34 183.02,-128.55"/>
<polygon fill="midnightblue" stroke="midnightblue" points="73.32,-258.69 72.36,-269.24 79.69,-261.59 73.32,-258.69"/>
</g>
<!-- Node12 -->
<g id="node12" class="node">
<title>Node12</title>
<g id="a_node12"><a xlink:href="structtracktion_1_1engine_1_1Clipboard_1_1TimeSigs.html" target="_top" xlink:title=" ">
<polygon fill="none" stroke="black" points="187,-49.5 187,-79.5 301,-79.5 301,-49.5 187,-49.5"/>
<text text-anchor="start" x="195" y="-67.5" font-family="Helvetica,sans-Serif" font-size="10.00">tracktion::engine::</text>
<text text-anchor="middle" x="244" y="-56.5" font-family="Helvetica,sans-Serif" font-size="10.00">Clipboard::TimeSigs</text>
</a>
</g>
</g>
<!-- Node1&#45;&gt;Node12 -->
<g id="edge11" class="edge">
<title>Node1&#45;&gt;Node12</title>
<path fill="none" stroke="midnightblue" d="M72.12,-259.52C83.52,-218.19 111.91,-135.57 166,-89.5 172.1,-84.31 179.3,-80.19 186.81,-76.92"/>
<polygon fill="midnightblue" stroke="midnightblue" points="68.7,-258.76 69.52,-269.33 75.47,-260.56 68.7,-258.76"/>
</g>
<!-- Node13 -->
<g id="node13" class="node">
<title>Node13</title>
<g id="a_node13"><a xlink:href="structtracktion_1_1engine_1_1Clipboard_1_1Tracks.html" target="_top" xlink:title=" ">
<polygon fill="none" stroke="black" points="191.5,-0.5 191.5,-30.5 296.5,-30.5 296.5,-0.5 191.5,-0.5"/>
<text text-anchor="start" x="199.5" y="-18.5" font-family="Helvetica,sans-Serif" font-size="10.00">tracktion::engine::</text>
<text text-anchor="middle" x="244" y="-7.5" font-family="Helvetica,sans-Serif" font-size="10.00">Clipboard::Tracks</text>
</a>
</g>
</g>
<!-- Node1&#45;&gt;Node13 -->
<g id="edge12" class="edge">
<title>Node1&#45;&gt;Node13</title>
<path fill="none" stroke="midnightblue" d="M69.26,-259.36C76.96,-210.22 100.79,-101 166,-40.5 173.11,-33.9 181.98,-29.05 191.15,-25.47"/>
<polygon fill="midnightblue" stroke="midnightblue" points="65.77,-259.02 67.78,-269.43 72.7,-260.04 65.77,-259.02"/>
</g>
</g>
</svg>
