<?xml version="1.0" encoding="UTF-8" standalone="no"?>
<!DOCTYPE svg PUBLIC "-//W3C//DTD SVG 1.1//EN"
 "http://www.w3.org/Graphics/SVG/1.1/DTD/svg11.dtd">
<!-- Generated by graphviz version 2.43.0 (0)
 -->
<!-- Title: tracktion::engine::InputDeviceInstance::MidiInputDestination Pages: 1 -->
<svg width="133pt" height="192pt"
 viewBox="0.00 0.00 133.00 192.00" xmlns="http://www.w3.org/2000/svg" xmlns:xlink="http://www.w3.org/1999/xlink">
<g id="graph0" class="graph" transform="scale(1 1) rotate(0) translate(4 188)">
<title>tracktion::engine::InputDeviceInstance::MidiInputDestination</title>
<!-- Node1 -->
<g id="Node000001" class="node">
<title>Node1</title>
<g id="a_Node000001"><a xlink:title=" ">
<polygon fill="#999999" stroke="#666666" points="125,-41 0,-41 0,0 125,0 125,-41"/>
<text text-anchor="start" x="8" y="-29" font-family="Helvetica,sans-Serif" font-size="10.00">tracktion::engine::</text>
<text text-anchor="start" x="8" y="-18" font-family="Helvetica,sans-Serif" font-size="10.00">InputDeviceInstance</text>
<text text-anchor="middle" x="62.5" y="-7" font-family="Helvetica,sans-Serif" font-size="10.00">::MidiInputDestination</text>
</a>
</g>
</g>
<!-- Node2 -->
<g id="Node000002" class="node">
<title>Node2</title>
<g id="a_Node000002"><a xlink:href="structtracktion_1_1engine_1_1InputDeviceInstance_1_1Destination.html" target="_top" xlink:title=" ">
<polygon fill="white" stroke="#666666" points="120.5,-118 4.5,-118 4.5,-77 120.5,-77 120.5,-118"/>
<text text-anchor="start" x="12.5" y="-106" font-family="Helvetica,sans-Serif" font-size="10.00">tracktion::engine::</text>
<text text-anchor="start" x="12.5" y="-95" font-family="Helvetica,sans-Serif" font-size="10.00">InputDeviceInstance</text>
<text text-anchor="middle" x="62.5" y="-84" font-family="Helvetica,sans-Serif" font-size="10.00">::Destination</text>
</a>
</g>
</g>
<!-- Node2&#45;&gt;Node1 -->
<g id="edge1_Node000001_Node000002" class="edge">
<title>Node2&#45;&gt;Node1</title>
<g id="a_edge1_Node000001_Node000002"><a xlink:title=" ">
<path fill="none" stroke="#63b8ff" d="M62.5,-66.69C62.5,-58.08 62.5,-48.9 62.5,-41.07"/>
<polygon fill="#63b8ff" stroke="#63b8ff" points="59,-66.79 62.5,-76.79 66,-66.79 59,-66.79"/>
</a>
</g>
</g>
<!-- Node3 -->
<g id="Node000003" class="node">
<title>Node3</title>
<g id="a_Node000003"><a xlink:href="classtracktion_1_1engine_1_1Selectable.html" target="_top" xlink:title="Base class for things that can be selected, and whose properties can appear in the properties panel.">
<polygon fill="white" stroke="#666666" points="115,-184 10,-184 10,-154 115,-154 115,-184"/>
<text text-anchor="start" x="18" y="-172" font-family="Helvetica,sans-Serif" font-size="10.00">tracktion::engine::</text>
<text text-anchor="middle" x="62.5" y="-161" font-family="Helvetica,sans-Serif" font-size="10.00">Selectable</text>
</a>
</g>
</g>
<!-- Node3&#45;&gt;Node2 -->
<g id="edge2_Node000002_Node000003" class="edge">
<title>Node3&#45;&gt;Node2</title>
<g id="a_edge2_Node000002_Node000003"><a xlink:title=" ">
<path fill="none" stroke="#63b8ff" d="M62.5,-143.91C62.5,-135.47 62.5,-126.1 62.5,-118.07"/>
<polygon fill="#63b8ff" stroke="#63b8ff" points="59,-143.94 62.5,-153.94 66,-143.94 59,-143.94"/>
</a>
</g>
</g>
</g>
</svg>
