<?xml version="1.0" encoding="UTF-8" standalone="no"?>
<!DOCTYPE svg PUBLIC "-//W3C//DTD SVG 1.1//EN"
 "http://www.w3.org/Graphics/SVG/1.1/DTD/svg11.dtd">
<!-- Generated by graphviz version 2.43.0 (0)
 -->
<!-- Title: tracktion::engine::Modifier Pages: 1 -->
<svg width="612pt" height="284pt"
 viewBox="0.00 0.00 612.00 284.00" xmlns="http://www.w3.org/2000/svg" xmlns:xlink="http://www.w3.org/1999/xlink">
<g id="graph0" class="graph" transform="scale(1 1) rotate(0) translate(4 280)">
<title>tracktion::engine::Modifier</title>
<!-- Node1 -->
<g id="node1" class="node">
<title>Node1</title>
<g id="a_node1"><a xlink:title="Bass class for parameter Modifiers.">
<polygon fill="#bfbfbf" stroke="black" points="307,-122.5 307,-152.5 412,-152.5 412,-122.5 307,-122.5"/>
<text text-anchor="start" x="315" y="-140.5" font-family="Helvetica,sans-Serif" font-size="10.00">tracktion::engine::</text>
<text text-anchor="middle" x="359.5" y="-129.5" font-family="Helvetica,sans-Serif" font-size="10.00">Modifier</text>
</a>
</g>
</g>
<!-- Node6 -->
<g id="node6" class="node">
<title>Node6</title>
<g id="a_node6"><a xlink:href="classtracktion_1_1engine_1_1BreakpointOscillatorModifier.html" target="_top" xlink:title=" ">
<polygon fill="none" stroke="black" points="448,-245.5 448,-275.5 604,-275.5 604,-245.5 448,-245.5"/>
<text text-anchor="start" x="456" y="-263.5" font-family="Helvetica,sans-Serif" font-size="10.00">tracktion::engine::</text>
<text text-anchor="middle" x="526" y="-252.5" font-family="Helvetica,sans-Serif" font-size="10.00">BreakpointOscillatorModifier</text>
</a>
</g>
</g>
<!-- Node1&#45;&gt;Node6 -->
<g id="edge5" class="edge">
<title>Node1&#45;&gt;Node6</title>
<path fill="none" stroke="midnightblue" d="M375.51,-160.87C391.08,-183.33 417.4,-216.69 448,-236.5 453.29,-239.92 459.1,-242.89 465.08,-245.44"/>
<polygon fill="midnightblue" stroke="midnightblue" points="378.39,-158.89 369.89,-152.56 372.59,-162.81 378.39,-158.89"/>
</g>
<!-- Node7 -->
<g id="node7" class="node">
<title>Node7</title>
<g id="a_node7"><a xlink:href="classtracktion_1_1engine_1_1EnvelopeFollowerModifier.html" target="_top" xlink:title=" ">
<polygon fill="none" stroke="black" points="454.5,-196.5 454.5,-226.5 597.5,-226.5 597.5,-196.5 454.5,-196.5"/>
<text text-anchor="start" x="462.5" y="-214.5" font-family="Helvetica,sans-Serif" font-size="10.00">tracktion::engine::</text>
<text text-anchor="middle" x="526" y="-203.5" font-family="Helvetica,sans-Serif" font-size="10.00">EnvelopeFollowerModifier</text>
</a>
</g>
</g>
<!-- Node1&#45;&gt;Node7 -->
<g id="edge6" class="edge">
<title>Node1&#45;&gt;Node7</title>
<path fill="none" stroke="midnightblue" d="M393.36,-157.92C409.44,-167.4 429.33,-178.34 448,-186.5 456.24,-190.1 465.18,-193.47 473.94,-196.49"/>
<polygon fill="midnightblue" stroke="midnightblue" points="394.74,-154.67 384.36,-152.55 391.15,-160.68 394.74,-154.67"/>
</g>
<!-- Node8 -->
<g id="node8" class="node">
<title>Node8</title>
<g id="a_node8"><a xlink:href="classtracktion_1_1engine_1_1LFOModifier.html" target="_top" xlink:title=" ">
<polygon fill="none" stroke="black" points="473.5,-147.5 473.5,-177.5 578.5,-177.5 578.5,-147.5 473.5,-147.5"/>
<text text-anchor="start" x="481.5" y="-165.5" font-family="Helvetica,sans-Serif" font-size="10.00">tracktion::engine::</text>
<text text-anchor="middle" x="526" y="-154.5" font-family="Helvetica,sans-Serif" font-size="10.00">LFOModifier</text>
</a>
</g>
</g>
<!-- Node1&#45;&gt;Node8 -->
<g id="edge7" class="edge">
<title>Node1&#45;&gt;Node8</title>
<path fill="none" stroke="midnightblue" d="M422.37,-146.9C439.15,-149.45 457.14,-152.19 473.3,-154.64"/>
<polygon fill="midnightblue" stroke="midnightblue" points="422.51,-143.38 412.1,-145.34 421.46,-150.3 422.51,-143.38"/>
</g>
<!-- Node9 -->
<g id="node9" class="node">
<title>Node9</title>
<g id="a_node9"><a xlink:href="classtracktion_1_1engine_1_1MIDITrackerModifier.html" target="_top" xlink:title=" ">
<polygon fill="none" stroke="black" points="469.5,-98.5 469.5,-128.5 582.5,-128.5 582.5,-98.5 469.5,-98.5"/>
<text text-anchor="start" x="477.5" y="-116.5" font-family="Helvetica,sans-Serif" font-size="10.00">tracktion::engine::</text>
<text text-anchor="middle" x="526" y="-105.5" font-family="Helvetica,sans-Serif" font-size="10.00">MIDITrackerModifier</text>
</a>
</g>
</g>
<!-- Node1&#45;&gt;Node9 -->
<g id="edge8" class="edge">
<title>Node1&#45;&gt;Node9</title>
<path fill="none" stroke="midnightblue" d="M422.1,-128.51C437.59,-126.25 454.13,-123.84 469.31,-121.63"/>
<polygon fill="midnightblue" stroke="midnightblue" points="421.49,-125.06 412.1,-129.97 422.5,-131.99 421.49,-125.06"/>
</g>
<!-- Node10 -->
<g id="node10" class="node">
<title>Node10</title>
<g id="a_node10"><a xlink:href="classtracktion_1_1engine_1_1RandomModifier.html" target="_top" xlink:title=" ">
<polygon fill="none" stroke="black" points="473.5,-49.5 473.5,-79.5 578.5,-79.5 578.5,-49.5 473.5,-49.5"/>
<text text-anchor="start" x="481.5" y="-67.5" font-family="Helvetica,sans-Serif" font-size="10.00">tracktion::engine::</text>
<text text-anchor="middle" x="526" y="-56.5" font-family="Helvetica,sans-Serif" font-size="10.00">RandomModifier</text>
</a>
</g>
</g>
<!-- Node1&#45;&gt;Node10 -->
<g id="edge9" class="edge">
<title>Node1&#45;&gt;Node10</title>
<path fill="none" stroke="midnightblue" d="M393.31,-116.98C409.39,-107.48 429.28,-96.55 448,-88.5 455.97,-85.07 464.6,-81.89 473.1,-79.05"/>
<polygon fill="midnightblue" stroke="midnightblue" points="391.1,-114.22 384.32,-122.37 394.7,-120.23 391.1,-114.22"/>
</g>
<!-- Node11 -->
<g id="node11" class="node">
<title>Node11</title>
<g id="a_node11"><a xlink:href="classtracktion_1_1engine_1_1StepModifier.html" target="_top" xlink:title=" ">
<polygon fill="none" stroke="black" points="473.5,-0.5 473.5,-30.5 578.5,-30.5 578.5,-0.5 473.5,-0.5"/>
<text text-anchor="start" x="481.5" y="-18.5" font-family="Helvetica,sans-Serif" font-size="10.00">tracktion::engine::</text>
<text text-anchor="middle" x="526" y="-7.5" font-family="Helvetica,sans-Serif" font-size="10.00">StepModifier</text>
</a>
</g>
</g>
<!-- Node1&#45;&gt;Node11 -->
<g id="edge10" class="edge">
<title>Node1&#45;&gt;Node11</title>
<path fill="none" stroke="midnightblue" d="M376.03,-113.7C391.7,-91.49 417.83,-58.93 448,-39.5 455.65,-34.57 464.38,-30.6 473.15,-27.42"/>
<polygon fill="midnightblue" stroke="midnightblue" points="372.95,-112.01 370.17,-122.23 378.72,-115.97 372.95,-112.01"/>
</g>
<!-- Node2 -->
<g id="node2" class="node">
<title>Node2</title>
<g id="a_node2"><a xlink:href="classtracktion_1_1engine_1_1AutomatableEditItem.html" target="_top" xlink:title="Base class for elements that have some kind of automatable parameters.">
<polygon fill="none" stroke="black" points="145.5,-171.5 145.5,-201.5 266.5,-201.5 266.5,-171.5 145.5,-171.5"/>
<text text-anchor="start" x="153.5" y="-189.5" font-family="Helvetica,sans-Serif" font-size="10.00">tracktion::engine::</text>
<text text-anchor="middle" x="206" y="-178.5" font-family="Helvetica,sans-Serif" font-size="10.00">AutomatableEditItem</text>
</a>
</g>
</g>
<!-- Node2&#45;&gt;Node1 -->
<g id="edge1" class="edge">
<title>Node2&#45;&gt;Node1</title>
<path fill="none" stroke="midnightblue" d="M263.45,-168.24C279.43,-163.07 296.64,-157.51 311.96,-152.55"/>
<polygon fill="midnightblue" stroke="midnightblue" points="262.13,-164.99 253.69,-171.4 264.28,-171.65 262.13,-164.99"/>
</g>
<!-- Node3 -->
<g id="node3" class="node">
<title>Node3</title>
<g id="a_node3"><a xlink:href="classtracktion_1_1engine_1_1EditItem.html" target="_top" xlink:title="Base class for objects that live inside an edit &#45; e.g.">
<polygon fill="none" stroke="black" points="0,-171.5 0,-201.5 105,-201.5 105,-171.5 0,-171.5"/>
<text text-anchor="start" x="8" y="-189.5" font-family="Helvetica,sans-Serif" font-size="10.00">tracktion::engine::</text>
<text text-anchor="middle" x="52.5" y="-178.5" font-family="Helvetica,sans-Serif" font-size="10.00">EditItem</text>
</a>
</g>
</g>
<!-- Node3&#45;&gt;Node2 -->
<g id="edge2" class="edge">
<title>Node3&#45;&gt;Node2</title>
<path fill="none" stroke="midnightblue" d="M115.4,-186.5C125.32,-186.5 135.57,-186.5 145.44,-186.5"/>
<polygon fill="midnightblue" stroke="midnightblue" points="115.21,-183 105.21,-186.5 115.21,-190 115.21,-183"/>
</g>
<!-- Node4 -->
<g id="node4" class="node">
<title>Node4</title>
<g id="a_node4"><a xlink:href="classtracktion_1_1engine_1_1Selectable.html" target="_top" xlink:title="Base class for things that can be selected, and whose properties can appear in the properties panel.">
<polygon fill="none" stroke="black" points="153.5,-122.5 153.5,-152.5 258.5,-152.5 258.5,-122.5 153.5,-122.5"/>
<text text-anchor="start" x="161.5" y="-140.5" font-family="Helvetica,sans-Serif" font-size="10.00">tracktion::engine::</text>
<text text-anchor="middle" x="206" y="-129.5" font-family="Helvetica,sans-Serif" font-size="10.00">Selectable</text>
</a>
</g>
</g>
<!-- Node4&#45;&gt;Node1 -->
<g id="edge3" class="edge">
<title>Node4&#45;&gt;Node1</title>
<path fill="none" stroke="midnightblue" d="M269.08,-137.5C281.6,-137.5 294.64,-137.5 306.76,-137.5"/>
<polygon fill="midnightblue" stroke="midnightblue" points="268.71,-134 258.71,-137.5 268.71,-141 268.71,-134"/>
</g>
<!-- Node5 -->
<g id="node5" class="node">
<title>Node5</title>
<g id="a_node5"><a xlink:href="structtracktion_1_1engine_1_1AutomatableParameter_1_1ModifierSource.html" target="_top" xlink:title="Base class for things that can be used to modify parameters.">
<polygon fill="none" stroke="black" points="141,-62 141,-103 271,-103 271,-62 141,-62"/>
<text text-anchor="start" x="149" y="-91" font-family="Helvetica,sans-Serif" font-size="10.00">tracktion::engine::</text>
<text text-anchor="start" x="149" y="-80" font-family="Helvetica,sans-Serif" font-size="10.00">AutomatableParameter</text>
<text text-anchor="middle" x="206" y="-69" font-family="Helvetica,sans-Serif" font-size="10.00">::ModifierSource</text>
</a>
</g>
</g>
<!-- Node5&#45;&gt;Node1 -->
<g id="edge4" class="edge">
<title>Node5&#45;&gt;Node1</title>
<path fill="none" stroke="midnightblue" d="M273.47,-106.63C288.25,-112 303.51,-117.54 316.96,-122.42"/>
<polygon fill="midnightblue" stroke="midnightblue" points="274.44,-103.26 263.84,-103.14 272.05,-109.84 274.44,-103.26"/>
</g>
</g>
</svg>
