<?xml version="1.0" encoding="UTF-8" standalone="no"?>
<!DOCTYPE svg PUBLIC "-//W3C//DTD SVG 1.1//EN"
 "http://www.w3.org/Graphics/SVG/1.1/DTD/svg11.dtd">
<!-- Generated by graphviz version 2.43.0 (0)
 -->
<!-- Title: tracktion_engine::RenderManager::Job::Listener Pages: 1 -->
<svg width="428pt" height="162pt"
 viewBox="0.00 0.00 428.00 162.00" xmlns="http://www.w3.org/2000/svg" xmlns:xlink="http://www.w3.org/1999/xlink">
<g id="graph0" class="graph" transform="scale(1 1) rotate(0) translate(4 158)">
<title>tracktion_engine::RenderManager::Job::Listener</title>
<!-- Node1 -->
<g id="node1" class="node">
<title>Node1</title>
<g id="a_node1"><a xlink:title=" ">
<polygon fill="#bfbfbf" stroke="black" points="181.5,-123.5 181.5,-153.5 320.5,-153.5 320.5,-123.5 181.5,-123.5"/>
<text text-anchor="start" x="189.5" y="-141.5" font-family="Helvetica,sans-Serif" font-size="10.00">tracktion_engine::Render</text>
<text text-anchor="middle" x="251" y="-130.5" font-family="Helvetica,sans-Serif" font-size="10.00">Manager::Job::Listener</text>
</a>
</g>
</g>
<!-- Node2 -->
<g id="node2" class="node">
<title>Node2</title>
<g id="a_node2"><a xlink:href="classtracktion__engine_1_1AudioClipBase.html" target="_top" xlink:title="Base class for Clips that produce some kind of audio e.g.">
<polygon fill="none" stroke="black" points="72.5,-62 72.5,-81 247.5,-81 247.5,-62 72.5,-62"/>
<text text-anchor="middle" x="160" y="-69" font-family="Helvetica,sans-Serif" font-size="10.00">tracktion_engine::AudioClipBase</text>
</a>
</g>
</g>
<!-- Node1&#45;&gt;Node2 -->
<g id="edge1" class="edge">
<title>Node1&#45;&gt;Node2</title>
<path fill="none" stroke="midnightblue" d="M222.73,-117.31C205.64,-105.1 184.75,-90.18 171.91,-81.01"/>
<polygon fill="midnightblue" stroke="midnightblue" points="221.08,-120.43 231.25,-123.4 225.15,-114.74 221.08,-120.43"/>
</g>
<!-- Node5 -->
<g id="node5" class="node">
<title>Node5</title>
<g id="a_node5"><a xlink:href="classtracktion__engine_1_1WarpTimeManager.html" target="_top" xlink:title="A WarpTimeManager contains a list of WarpMarkers and some source material and maps times from a linea...">
<polygon fill="none" stroke="black" points="266,-56.5 266,-86.5 420,-86.5 420,-56.5 266,-56.5"/>
<text text-anchor="start" x="274" y="-74.5" font-family="Helvetica,sans-Serif" font-size="10.00">tracktion_engine::WarpTime</text>
<text text-anchor="middle" x="343" y="-63.5" font-family="Helvetica,sans-Serif" font-size="10.00">Manager</text>
</a>
</g>
</g>
<!-- Node1&#45;&gt;Node5 -->
<g id="edge4" class="edge">
<title>Node1&#45;&gt;Node5</title>
<path fill="none" stroke="midnightblue" d="M279.38,-117.45C293.53,-107.45 310.31,-95.6 323.08,-86.58"/>
<polygon fill="midnightblue" stroke="midnightblue" points="277.11,-114.77 270.96,-123.4 281.15,-120.48 277.11,-114.77"/>
</g>
<!-- Node3 -->
<g id="node3" class="node">
<title>Node3</title>
<g id="a_node3"><a xlink:href="classtracktion__engine_1_1EditClip.html" target="_top" xlink:title="This is the main source of an Edit clip and is responsible for managing its properties.">
<polygon fill="none" stroke="black" points="0,-0.5 0,-19.5 142,-19.5 142,-0.5 0,-0.5"/>
<text text-anchor="middle" x="71" y="-7.5" font-family="Helvetica,sans-Serif" font-size="10.00">tracktion_engine::EditClip</text>
</a>
</g>
</g>
<!-- Node2&#45;&gt;Node3 -->
<g id="edge2" class="edge">
<title>Node2&#45;&gt;Node3</title>
<path fill="none" stroke="midnightblue" d="M138.48,-56.11C121.36,-44.67 97.99,-29.05 83.73,-19.51"/>
<polygon fill="midnightblue" stroke="midnightblue" points="136.99,-59.33 147.25,-61.98 140.88,-53.51 136.99,-59.33"/>
</g>
<!-- Node4 -->
<g id="node4" class="node">
<title>Node4</title>
<g id="a_node4"><a xlink:href="classtracktion__engine_1_1WaveAudioClip.html" target="_top" xlink:title="An audio clip that uses an audio file as its source.">
<polygon fill="none" stroke="black" points="160,-0.5 160,-19.5 338,-19.5 338,-0.5 160,-0.5"/>
<text text-anchor="middle" x="249" y="-7.5" font-family="Helvetica,sans-Serif" font-size="10.00">tracktion_engine::WaveAudioClip</text>
</a>
</g>
</g>
<!-- Node2&#45;&gt;Node4 -->
<g id="edge3" class="edge">
<title>Node2&#45;&gt;Node4</title>
<path fill="none" stroke="midnightblue" d="M181.52,-56.11C198.64,-44.67 222.01,-29.05 236.27,-19.51"/>
<polygon fill="midnightblue" stroke="midnightblue" points="179.12,-53.51 172.75,-61.98 183.01,-59.33 179.12,-53.51"/>
</g>
</g>
</svg>
