<?xml version="1.0" encoding="UTF-8" standalone="no"?>
<!DOCTYPE svg PUBLIC "-//W3C//DTD SVG 1.1//EN"
 "http://www.w3.org/Graphics/SVG/1.1/DTD/svg11.dtd">
<!-- Generated by graphviz version 2.43.0 (0)
 -->
<!-- Title: tracktion::engine::TrackCompManager::TrackComp Pages: 1 -->
<svg width="330pt" height="98pt"
 viewBox="0.00 0.00 330.00 97.50" xmlns="http://www.w3.org/2000/svg" xmlns:xlink="http://www.w3.org/1999/xlink">
<g id="graph0" class="graph" transform="scale(1 1) rotate(0) translate(4 93.5)">
<title>tracktion::engine::TrackCompManager::TrackComp</title>
<!-- Node1 -->
<g id="Node000001" class="node">
<title>Node1</title>
<g id="a_Node000001"><a xlink:title=" ">
<polygon fill="#999999" stroke="#666666" points="322,-62.5 149,-62.5 149,-32.5 322,-32.5 322,-62.5"/>
<text text-anchor="start" x="157" y="-50.5" font-family="Helvetica,sans-Serif" font-size="10.00">tracktion::engine::</text>
<text text-anchor="middle" x="235.5" y="-39.5" font-family="Helvetica,sans-Serif" font-size="10.00">TrackCompManager::TrackComp</text>
</a>
</g>
</g>
<!-- Node2 -->
<g id="Node000002" class="node">
<title>Node2</title>
<g id="a_Node000002"><a xlink:href="classtracktion_1_1engine_1_1Selectable.html" target="_top" xlink:title="Base class for things that can be selected, and whose properties can appear in the properties panel.">
<polygon fill="white" stroke="#666666" points="109,-89.5 4,-89.5 4,-59.5 109,-59.5 109,-89.5"/>
<text text-anchor="start" x="12" y="-77.5" font-family="Helvetica,sans-Serif" font-size="10.00">tracktion::engine::</text>
<text text-anchor="middle" x="56.5" y="-66.5" font-family="Helvetica,sans-Serif" font-size="10.00">Selectable</text>
</a>
</g>
</g>
<!-- Node2&#45;&gt;Node1 -->
<g id="edge1_Node000001_Node000002" class="edge">
<title>Node2&#45;&gt;Node1</title>
<g id="a_edge1_Node000001_Node000002"><a xlink:title=" ">
<path fill="none" stroke="#63b8ff" d="M119.32,-65.07C128.86,-63.62 138.85,-62.09 148.8,-60.57"/>
<polygon fill="#63b8ff" stroke="#63b8ff" points="118.53,-61.65 109.17,-66.62 119.59,-68.57 118.53,-61.65"/>
</a>
</g>
</g>
<!-- Node3 -->
<g id="Node000003" class="node">
<title>Node3</title>
<g id="a_Node000003"><a xlink:href="classtracktion_1_1engine_1_1ValueTreeObjectList.html" target="_top" xlink:title=" ">
<polygon fill="white" stroke="#666666" points="113,-41 0,-41 0,0 113,0 113,-41"/>
<text text-anchor="start" x="8" y="-29" font-family="Helvetica,sans-Serif" font-size="10.00">tracktion::engine::</text>
<text text-anchor="start" x="8" y="-18" font-family="Helvetica,sans-Serif" font-size="10.00">ValueTreeObjectList</text>
<text text-anchor="middle" x="56.5" y="-7" font-family="Helvetica,sans-Serif" font-size="10.00">&lt; CompSection &gt;</text>
</a>
</g>
</g>
<!-- Node3&#45;&gt;Node1 -->
<g id="edge2_Node000001_Node000003" class="edge">
<title>Node3&#45;&gt;Node1</title>
<g id="a_edge2_Node000001_Node000003"><a xlink:title=" ">
<path fill="none" stroke="#63b8ff" d="M123.05,-30.5C131.42,-31.78 140.08,-33.1 148.71,-34.41"/>
<polygon fill="#63b8ff" stroke="#63b8ff" points="123.43,-27.02 113.02,-28.97 122.38,-33.94 123.43,-27.02"/>
</a>
</g>
</g>
</g>
</svg>
