<?xml version="1.0" encoding="UTF-8" standalone="no"?>
<!DOCTYPE svg PUBLIC "-//W3C//DTD SVG 1.1//EN"
 "http://www.w3.org/Graphics/SVG/1.1/DTD/svg11.dtd">
<!-- Generated by graphviz version 2.43.0 (0)
 -->
<!-- Title: tracktion::engine::FallbackReader Pages: 1 -->
<svg width="313pt" height="134pt"
 viewBox="0.00 0.00 313.00 134.00" xmlns="http://www.w3.org/2000/svg" xmlns:xlink="http://www.w3.org/1999/xlink">
<g id="graph0" class="graph" transform="scale(1 1) rotate(0) translate(4 130)">
<title>tracktion::engine::FallbackReader</title>
<!-- Node1 -->
<g id="Node000001" class="node">
<title>Node1</title>
<g id="a_Node000001"><a xlink:title=" ">
<polygon fill="#999999" stroke="#666666" points="105,-78 0,-78 0,-48 105,-48 105,-78"/>
<text text-anchor="start" x="8" y="-66" font-family="Helvetica,sans-Serif" font-size="10.00">tracktion::engine::</text>
<text text-anchor="middle" x="52.5" y="-55" font-family="Helvetica,sans-Serif" font-size="10.00">FallbackReader</text>
</a>
</g>
</g>
<!-- Node2 -->
<g id="Node000002" class="node">
<title>Node2</title>
<g id="a_Node000002"><a xlink:href="classtracktion_1_1engine_1_1BufferedFileReaderWrapper.html" target="_top" xlink:title=" ">
<polygon fill="white" stroke="#666666" points="298.5,-126 147.5,-126 147.5,-96 298.5,-96 298.5,-126"/>
<text text-anchor="start" x="155.5" y="-114" font-family="Helvetica,sans-Serif" font-size="10.00">tracktion::engine::</text>
<text text-anchor="middle" x="223" y="-103" font-family="Helvetica,sans-Serif" font-size="10.00">BufferedFileReaderWrapper</text>
</a>
</g>
</g>
<!-- Node1&#45;&gt;Node2 -->
<g id="edge1_Node000001_Node000002" class="edge">
<title>Node1&#45;&gt;Node2</title>
<g id="a_edge1_Node000001_Node000002"><a xlink:title=" ">
<path fill="none" stroke="#63b8ff" d="M115.1,-80.55C132.8,-85.59 151.95,-91.04 169.08,-95.92"/>
<polygon fill="#63b8ff" stroke="#63b8ff" points="116.01,-77.17 105.43,-77.79 114.09,-83.9 116.01,-77.17"/>
</a>
</g>
</g>
<!-- Node3 -->
<g id="Node000003" class="node">
<title>Node3</title>
<g id="a_Node000003"><a xlink:href="classtracktion_1_1engine_1_1BufferingAudioReaderWrapper.html" target="_top" xlink:title="FallbackReader that wraps a BufferingAudioReader to avoid reading on the audio thread.">
<polygon fill="white" stroke="#666666" points="305,-78 141,-78 141,-48 305,-48 305,-78"/>
<text text-anchor="start" x="149" y="-66" font-family="Helvetica,sans-Serif" font-size="10.00">tracktion::engine::</text>
<text text-anchor="middle" x="223" y="-55" font-family="Helvetica,sans-Serif" font-size="10.00">BufferingAudioReaderWrapper</text>
</a>
</g>
</g>
<!-- Node1&#45;&gt;Node3 -->
<g id="edge2_Node000001_Node000003" class="edge">
<title>Node1&#45;&gt;Node3</title>
<g id="a_edge2_Node000001_Node000003"><a xlink:title=" ">
<path fill="none" stroke="#63b8ff" d="M115.63,-63C123.84,-63 132.34,-63 140.8,-63"/>
<polygon fill="#63b8ff" stroke="#63b8ff" points="115.43,-59.5 105.43,-63 115.43,-66.5 115.43,-59.5"/>
</a>
</g>
</g>
<!-- Node4 -->
<g id="Node000004" class="node">
<title>Node4</title>
<g id="a_Node000004"><a xlink:href="structtracktion_1_1engine_1_1MemoryMappedFileReader.html" target="_top" xlink:title="FallbackReader that wraps a MemoryMappedFile which usually improves read speeds.">
<polygon fill="white" stroke="#666666" points="297,-30 149,-30 149,0 297,0 297,-30"/>
<text text-anchor="start" x="157" y="-18" font-family="Helvetica,sans-Serif" font-size="10.00">tracktion::engine::</text>
<text text-anchor="middle" x="223" y="-7" font-family="Helvetica,sans-Serif" font-size="10.00">MemoryMappedFileReader</text>
</a>
</g>
</g>
<!-- Node1&#45;&gt;Node4 -->
<g id="edge3_Node000001_Node000004" class="edge">
<title>Node1&#45;&gt;Node4</title>
<g id="a_edge3_Node000001_Node000004"><a xlink:title=" ">
<path fill="none" stroke="#63b8ff" d="M115.1,-45.45C132.8,-40.41 151.95,-34.96 169.08,-30.08"/>
<polygon fill="#63b8ff" stroke="#63b8ff" points="114.09,-42.1 105.43,-48.21 116.01,-48.83 114.09,-42.1"/>
</a>
</g>
</g>
</g>
</svg>
