<?xml version="1.0" encoding="UTF-8" standalone="no"?>
<!DOCTYPE svg PUBLIC "-//W3C//DTD SVG 1.1//EN"
 "http://www.w3.org/Graphics/SVG/1.1/DTD/svg11.dtd">
<!-- Generated by graphviz version 2.43.0 (0)
 -->
<!-- Title: tracktion::engine::Clipboard::ContentType Pages: 1 -->
<svg width="330pt" height="529pt"
 viewBox="0.00 0.00 330.00 529.00" xmlns="http://www.w3.org/2000/svg" xmlns:xlink="http://www.w3.org/1999/xlink">
<g id="graph0" class="graph" transform="scale(1 1) rotate(0) translate(4 525)">
<title>tracktion::engine::Clipboard::ContentType</title>
<!-- Node1 -->
<g id="node1" class="node">
<title>Node1</title>
<g id="a_node1"><a xlink:title=" ">
<polygon fill="#bfbfbf" stroke="black" points="0,-245.5 0,-275.5 130,-275.5 130,-245.5 0,-245.5"/>
<text text-anchor="start" x="8" y="-263.5" font-family="Helvetica,sans-Serif" font-size="10.00">tracktion::engine::</text>
<text text-anchor="middle" x="65" y="-252.5" font-family="Helvetica,sans-Serif" font-size="10.00">Clipboard::ContentType</text>
</a>
</g>
</g>
<!-- Node2 -->
<g id="node2" class="node">
<title>Node2</title>
<g id="a_node2"><a xlink:href="structtracktion_1_1engine_1_1Clipboard_1_1AutomationPoints.html" target="_top" xlink:title=" ">
<polygon fill="none" stroke="black" points="166,-490.5 166,-520.5 322,-520.5 322,-490.5 166,-490.5"/>
<text text-anchor="start" x="174" y="-508.5" font-family="Helvetica,sans-Serif" font-size="10.00">tracktion::engine::</text>
<text text-anchor="middle" x="244" y="-497.5" font-family="Helvetica,sans-Serif" font-size="10.00">Clipboard::AutomationPoints</text>
</a>
</g>
</g>
<!-- Node1&#45;&gt;Node2 -->
<g id="edge1" class="edge">
<title>Node1&#45;&gt;Node2</title>
<path fill="none" stroke="midnightblue" d="M70.39,-285.58C79.69,-331.25 105.69,-428.17 166,-481.5 169.88,-484.93 174.25,-487.87 178.88,-490.39"/>
<polygon fill="midnightblue" stroke="midnightblue" points="73.8,-284.79 68.46,-275.63 66.93,-286.11 73.8,-284.79"/>
</g>
<!-- Node3 -->
<g id="node3" class="node">
<title>Node3</title>
<g id="a_node3"><a xlink:href="structtracktion_1_1engine_1_1Clipboard_1_1Clips.html" target="_top" xlink:title=" ">
<polygon fill="none" stroke="black" points="191.5,-441.5 191.5,-471.5 296.5,-471.5 296.5,-441.5 191.5,-441.5"/>
<text text-anchor="start" x="199.5" y="-459.5" font-family="Helvetica,sans-Serif" font-size="10.00">tracktion::engine::</text>
<text text-anchor="middle" x="244" y="-448.5" font-family="Helvetica,sans-Serif" font-size="10.00">Clipboard::Clips</text>
</a>
</g>
</g>
<!-- Node1&#45;&gt;Node3 -->
<g id="edge2" class="edge">
<title>Node1&#45;&gt;Node3</title>
<path fill="none" stroke="midnightblue" d="M73.84,-285.26C86.92,-322.63 116.75,-393.23 166,-432.5 173.44,-438.44 182.37,-442.91 191.46,-446.28"/>
<polygon fill="midnightblue" stroke="midnightblue" points="77.11,-284.01 70.59,-275.66 70.48,-286.25 77.11,-284.01"/>
</g>
<!-- Node4 -->
<g id="node4" class="node">
<title>Node4</title>
<g id="a_node4"><a xlink:href="structtracktion_1_1engine_1_1Clipboard_1_1MIDIEvents.html" target="_top" xlink:title=" ">
<polygon fill="none" stroke="black" points="181.5,-392.5 181.5,-422.5 306.5,-422.5 306.5,-392.5 181.5,-392.5"/>
<text text-anchor="start" x="189.5" y="-410.5" font-family="Helvetica,sans-Serif" font-size="10.00">tracktion::engine::</text>
<text text-anchor="middle" x="244" y="-399.5" font-family="Helvetica,sans-Serif" font-size="10.00">Clipboard::MIDIEvents</text>
</a>
</g>
</g>
<!-- Node1&#45;&gt;Node4 -->
<g id="edge3" class="edge">
<title>Node1&#45;&gt;Node4</title>
<path fill="none" stroke="midnightblue" d="M79.48,-284.47C96.28,-312.22 127.51,-357.44 166,-383.5 171.1,-386.95 176.72,-389.93 182.54,-392.49"/>
<polygon fill="midnightblue" stroke="midnightblue" points="82.45,-282.62 74.35,-275.78 76.42,-286.18 82.45,-282.62"/>
</g>
<!-- Node5 -->
<g id="node5" class="node">
<title>Node5</title>
<g id="a_node5"><a xlink:href="structtracktion_1_1engine_1_1Clipboard_1_1Modifiers.html" target="_top" xlink:title=" ">
<polygon fill="none" stroke="black" points="187,-343.5 187,-373.5 301,-373.5 301,-343.5 187,-343.5"/>
<text text-anchor="start" x="195" y="-361.5" font-family="Helvetica,sans-Serif" font-size="10.00">tracktion::engine::</text>
<text text-anchor="middle" x="244" y="-350.5" font-family="Helvetica,sans-Serif" font-size="10.00">Clipboard::Modifiers</text>
</a>
</g>
</g>
<!-- Node1&#45;&gt;Node5 -->
<g id="edge4" class="edge">
<title>Node1&#45;&gt;Node5</title>
<path fill="none" stroke="midnightblue" d="M90.6,-282.39C109.95,-298.66 138.19,-320.39 166,-334.5 172.62,-337.86 179.8,-340.85 187.02,-343.5"/>
<polygon fill="midnightblue" stroke="midnightblue" points="92.75,-279.63 82.88,-275.79 88.2,-284.95 92.75,-279.63"/>
</g>
<!-- Node6 -->
<g id="node6" class="node">
<title>Node6</title>
<g id="a_node6"><a xlink:href="structtracktion_1_1engine_1_1Clipboard_1_1Pitches.html" target="_top" xlink:title=" ">
<polygon fill="none" stroke="black" points="191.5,-294.5 191.5,-324.5 296.5,-324.5 296.5,-294.5 191.5,-294.5"/>
<text text-anchor="start" x="199.5" y="-312.5" font-family="Helvetica,sans-Serif" font-size="10.00">tracktion::engine::</text>
<text text-anchor="middle" x="244" y="-301.5" font-family="Helvetica,sans-Serif" font-size="10.00">Clipboard::Pitches</text>
</a>
</g>
</g>
<!-- Node1&#45;&gt;Node6 -->
<g id="edge5" class="edge">
<title>Node1&#45;&gt;Node6</title>
<path fill="none" stroke="midnightblue" d="M130.25,-278.29C150.34,-283.85 172.24,-289.91 191.35,-295.2"/>
<polygon fill="midnightblue" stroke="midnightblue" points="131.12,-274.9 120.55,-275.6 129.25,-281.64 131.12,-274.9"/>
</g>
<!-- Node7 -->
<g id="node7" class="node">
<title>Node7</title>
<g id="a_node7"><a xlink:href="structtracktion_1_1engine_1_1Clipboard_1_1Plugins.html" target="_top" xlink:title=" ">
<polygon fill="none" stroke="black" points="191.5,-245.5 191.5,-275.5 296.5,-275.5 296.5,-245.5 191.5,-245.5"/>
<text text-anchor="start" x="199.5" y="-263.5" font-family="Helvetica,sans-Serif" font-size="10.00">tracktion::engine::</text>
<text text-anchor="middle" x="244" y="-252.5" font-family="Helvetica,sans-Serif" font-size="10.00">Clipboard::Plugins</text>
</a>
</g>
</g>
<!-- Node1&#45;&gt;Node7 -->
<g id="edge6" class="edge">
<title>Node1&#45;&gt;Node7</title>
<path fill="none" stroke="midnightblue" d="M140.16,-260.5C157.35,-260.5 175.27,-260.5 191.25,-260.5"/>
<polygon fill="midnightblue" stroke="midnightblue" points="140.15,-257 130.15,-260.5 140.15,-264 140.15,-257"/>
</g>
<!-- Node8 -->
<g id="node8" class="node">
<title>Node8</title>
<g id="a_node8"><a xlink:href="structtracktion_1_1engine_1_1Clipboard_1_1ProjectItems.html" target="_top" xlink:title=" ">
<polygon fill="none" stroke="black" points="178.5,-196.5 178.5,-226.5 309.5,-226.5 309.5,-196.5 178.5,-196.5"/>
<text text-anchor="start" x="186.5" y="-214.5" font-family="Helvetica,sans-Serif" font-size="10.00">tracktion::engine::</text>
<text text-anchor="middle" x="244" y="-203.5" font-family="Helvetica,sans-Serif" font-size="10.00">Clipboard::ProjectItems</text>
</a>
</g>
</g>
<!-- Node1&#45;&gt;Node8 -->
<g id="edge7" class="edge">
<title>Node1&#45;&gt;Node8</title>
<path fill="none" stroke="midnightblue" d="M130.37,-242.68C149.49,-237.39 170.22,-231.65 188.63,-226.55"/>
<polygon fill="midnightblue" stroke="midnightblue" points="129.25,-239.36 120.55,-245.4 131.12,-246.1 129.25,-239.36"/>
</g>
<!-- Node9 -->
<g id="node9" class="node">
<title>Node9</title>
<g id="a_node9"><a xlink:href="structtracktion_1_1engine_1_1Clipboard_1_1Takes.html" target="_top" xlink:title=" ">
<polygon fill="none" stroke="black" points="191.5,-147.5 191.5,-177.5 296.5,-177.5 296.5,-147.5 191.5,-147.5"/>
<text text-anchor="start" x="199.5" y="-165.5" font-family="Helvetica,sans-Serif" font-size="10.00">tracktion::engine::</text>
<text text-anchor="middle" x="244" y="-154.5" font-family="Helvetica,sans-Serif" font-size="10.00">Clipboard::Takes</text>
</a>
</g>
</g>
<!-- Node1&#45;&gt;Node9 -->
<g id="edge8" class="edge">
<title>Node1&#45;&gt;Node9</title>
<path fill="none" stroke="midnightblue" d="M91.05,-238.73C110.44,-222.77 138.53,-201.53 166,-187.5 173.89,-183.47 182.55,-179.91 191.14,-176.83"/>
<polygon fill="midnightblue" stroke="midnightblue" points="88.73,-236.11 83.3,-245.21 93.22,-241.48 88.73,-236.11"/>
</g>
<!-- Node10 -->
<g id="node10" class="node">
<title>Node10</title>
<g id="a_node10"><a xlink:href="structtracktion_1_1engine_1_1Clipboard_1_1TempoChanges.html" target="_top" xlink:title=" ">
<polygon fill="none" stroke="black" points="172.5,-98.5 172.5,-128.5 315.5,-128.5 315.5,-98.5 172.5,-98.5"/>
<text text-anchor="start" x="180.5" y="-116.5" font-family="Helvetica,sans-Serif" font-size="10.00">tracktion::engine::</text>
<text text-anchor="middle" x="244" y="-105.5" font-family="Helvetica,sans-Serif" font-size="10.00">Clipboard::TempoChanges</text>
</a>
</g>
</g>
<!-- Node1&#45;&gt;Node10 -->
<g id="edge9" class="edge">
<title>Node1&#45;&gt;Node10</title>
<path fill="none" stroke="midnightblue" d="M79.58,-236.8C96.47,-209.36 127.8,-164.58 166,-138.5 171.57,-134.7 177.76,-131.44 184.14,-128.66"/>
<polygon fill="midnightblue" stroke="midnightblue" points="76.57,-235.02 74.42,-245.39 82.57,-238.63 76.57,-235.02"/>
</g>
<!-- Node11 -->
<g id="node11" class="node">
<title>Node11</title>
<g id="a_node11"><a xlink:href="structtracktion_1_1engine_1_1Clipboard_1_1TimeSigs.html" target="_top" xlink:title=" ">
<polygon fill="none" stroke="black" points="187,-49.5 187,-79.5 301,-79.5 301,-49.5 187,-49.5"/>
<text text-anchor="start" x="195" y="-67.5" font-family="Helvetica,sans-Serif" font-size="10.00">tracktion::engine::</text>
<text text-anchor="middle" x="244" y="-56.5" font-family="Helvetica,sans-Serif" font-size="10.00">Clipboard::TimeSigs</text>
</a>
</g>
</g>
<!-- Node1&#45;&gt;Node11 -->
<g id="edge10" class="edge">
<title>Node1&#45;&gt;Node11</title>
<path fill="none" stroke="midnightblue" d="M73.94,-235.95C87.15,-198.89 117.15,-128.83 166,-89.5 172.13,-84.56 179.26,-80.59 186.67,-77.4"/>
<polygon fill="midnightblue" stroke="midnightblue" points="70.6,-234.88 70.65,-245.48 77.22,-237.16 70.6,-234.88"/>
</g>
<!-- Node12 -->
<g id="node12" class="node">
<title>Node12</title>
<g id="a_node12"><a xlink:href="structtracktion_1_1engine_1_1Clipboard_1_1Tracks.html" target="_top" xlink:title=" ">
<polygon fill="none" stroke="black" points="191.5,-0.5 191.5,-30.5 296.5,-30.5 296.5,-0.5 191.5,-0.5"/>
<text text-anchor="start" x="199.5" y="-18.5" font-family="Helvetica,sans-Serif" font-size="10.00">tracktion::engine::</text>
<text text-anchor="middle" x="244" y="-7.5" font-family="Helvetica,sans-Serif" font-size="10.00">Clipboard::Tracks</text>
</a>
</g>
</g>
<!-- Node1&#45;&gt;Node12 -->
<g id="edge11" class="edge">
<title>Node1&#45;&gt;Node12</title>
<path fill="none" stroke="midnightblue" d="M70.48,-235.6C79.94,-190.25 106.18,-93.93 166,-40.5 173.23,-34.04 182.16,-29.25 191.34,-25.69"/>
<polygon fill="midnightblue" stroke="midnightblue" points="67.04,-234.99 68.52,-245.48 73.9,-236.35 67.04,-234.99"/>
</g>
</g>
</svg>
