<?xml version="1.0" encoding="UTF-8" standalone="no"?>
<!DOCTYPE svg PUBLIC "-//W3C//DTD SVG 1.1//EN"
 "http://www.w3.org/Graphics/SVG/1.1/DTD/svg11.dtd">
<!-- Generated by graphviz version 2.40.1 (20161225.0304)
 -->
<!-- Title: tracktion_engine::VSTXML::Base Pages: 1 -->
<svg width="294pt" height="106pt"
 viewBox="0.00 0.00 294.00 106.00" xmlns="http://www.w3.org/2000/svg" xmlns:xlink="http://www.w3.org/1999/xlink">
<g id="graph0" class="graph" transform="scale(1 1) rotate(0) translate(4 102)">
<title>tracktion_engine::VSTXML::Base</title>
<!-- Node0 -->
<g id="node1" class="node">
<title>Node0</title>
<polygon fill="#bfbfbf" stroke="#000000" points="76,-67.5 76,-97.5 210,-97.5 210,-67.5 76,-67.5"/>
<text text-anchor="start" x="84" y="-85.5" font-family="Helvetica,sans-Serif" font-size="10.00" fill="#000000">tracktion_engine::VSTXML</text>
<text text-anchor="middle" x="143" y="-74.5" font-family="Helvetica,sans-Serif" font-size="10.00" fill="#000000">::Base</text>
</g>
<!-- Node1 -->
<g id="node2" class="node">
<title>Node1</title>
<g id="a_node2"><a xlink:href="structtracktion__engine_1_1VSTXML_1_1Group.html" target="_top" xlink:title="tracktion_engine::VSTXML\l::Group">
<polygon fill="none" stroke="#000000" points="0,-.5 0,-30.5 134,-30.5 134,-.5 0,-.5"/>
<text text-anchor="start" x="8" y="-18.5" font-family="Helvetica,sans-Serif" font-size="10.00" fill="#000000">tracktion_engine::VSTXML</text>
<text text-anchor="middle" x="67" y="-7.5" font-family="Helvetica,sans-Serif" font-size="10.00" fill="#000000">::Group</text>
</a>
</g>
</g>
<!-- Node0&#45;&gt;Node1 -->
<g id="edge1" class="edge">
<title>Node0&#45;&gt;Node1</title>
<path fill="none" stroke="#191970" d="M118.0408,-60.4965C106.9503,-50.7193 94.1733,-39.4554 84.1773,-30.6432"/>
<polygon fill="#191970" stroke="#191970" points="115.9386,-63.3091 125.7544,-67.2967 120.5677,-58.0582 115.9386,-63.3091"/>
</g>
<!-- Node2 -->
<g id="node3" class="node">
<title>Node2</title>
<g id="a_node3"><a xlink:href="structtracktion__engine_1_1VSTXML_1_1Param.html" target="_top" xlink:title="tracktion_engine::VSTXML\l::Param">
<polygon fill="none" stroke="#000000" points="152,-.5 152,-30.5 286,-30.5 286,-.5 152,-.5"/>
<text text-anchor="start" x="160" y="-18.5" font-family="Helvetica,sans-Serif" font-size="10.00" fill="#000000">tracktion_engine::VSTXML</text>
<text text-anchor="middle" x="219" y="-7.5" font-family="Helvetica,sans-Serif" font-size="10.00" fill="#000000">::Param</text>
</a>
</g>
</g>
<!-- Node0&#45;&gt;Node2 -->
<g id="edge2" class="edge">
<title>Node0&#45;&gt;Node2</title>
<path fill="none" stroke="#191970" d="M167.9592,-60.4965C179.0497,-50.7193 191.8267,-39.4554 201.8227,-30.6432"/>
<polygon fill="#191970" stroke="#191970" points="165.4323,-58.0582 160.2456,-67.2967 170.0614,-63.3091 165.4323,-58.0582"/>
</g>
</g>
</svg>
