<?xml version="1.0" encoding="UTF-8" standalone="no"?>
<!DOCTYPE svg PUBLIC "-//W3C//DTD SVG 1.1//EN"
 "http://www.w3.org/Graphics/SVG/1.1/DTD/svg11.dtd">
<!-- Generated by graphviz version 2.43.0 (0)
 -->
<!-- Title: tracktion_engine::InputDeviceInstance::MidiInputDeviceDestination Pages: 1 -->
<svg width="208pt" height="162pt"
 viewBox="0.00 0.00 208.00 162.00" xmlns="http://www.w3.org/2000/svg" xmlns:xlink="http://www.w3.org/1999/xlink">
<g id="graph0" class="graph" transform="scale(1 1) rotate(0) translate(4 158)">
<title>tracktion_engine::InputDeviceInstance::MidiInputDeviceDestination</title>
<!-- Node1 -->
<g id="node1" class="node">
<title>Node1</title>
<g id="a_node1"><a xlink:title=" ">
<polygon fill="#bfbfbf" stroke="black" points="0,-0.5 0,-30.5 200,-30.5 200,-0.5 0,-0.5"/>
<text text-anchor="start" x="8" y="-18.5" font-family="Helvetica,sans-Serif" font-size="10.00">tracktion_engine::InputDevice</text>
<text text-anchor="middle" x="100" y="-7.5" font-family="Helvetica,sans-Serif" font-size="10.00">Instance::MidiInputDeviceDestination</text>
</a>
</g>
</g>
<!-- Node2 -->
<g id="node2" class="node">
<title>Node2</title>
<g id="a_node2"><a xlink:href="structtracktion__engine_1_1InputDeviceInstance_1_1InputDeviceDestination.html" target="_top" xlink:title=" ">
<polygon fill="none" stroke="black" points="10.5,-67.5 10.5,-97.5 189.5,-97.5 189.5,-67.5 10.5,-67.5"/>
<text text-anchor="start" x="18.5" y="-85.5" font-family="Helvetica,sans-Serif" font-size="10.00">tracktion_engine::InputDevice</text>
<text text-anchor="middle" x="100" y="-74.5" font-family="Helvetica,sans-Serif" font-size="10.00">Instance::InputDeviceDestination</text>
</a>
</g>
</g>
<!-- Node2&#45;&gt;Node1 -->
<g id="edge1" class="edge">
<title>Node2&#45;&gt;Node1</title>
<path fill="none" stroke="midnightblue" d="M100,-57.11C100,-48.15 100,-38.32 100,-30.58"/>
<polygon fill="midnightblue" stroke="midnightblue" points="96.5,-57.4 100,-67.4 103.5,-57.4 96.5,-57.4"/>
</g>
<!-- Node3 -->
<g id="node3" class="node">
<title>Node3</title>
<g id="a_node3"><a xlink:href="classtracktion__engine_1_1Selectable.html" target="_top" xlink:title="Base class for things that can be selected, and whose properties can appear in the properties panel.">
<polygon fill="none" stroke="black" points="22.5,-134.5 22.5,-153.5 177.5,-153.5 177.5,-134.5 22.5,-134.5"/>
<text text-anchor="middle" x="100" y="-141.5" font-family="Helvetica,sans-Serif" font-size="10.00">tracktion_engine::Selectable</text>
</a>
</g>
</g>
<!-- Node3&#45;&gt;Node2 -->
<g id="edge2" class="edge">
<title>Node3&#45;&gt;Node2</title>
<path fill="none" stroke="midnightblue" d="M100,-124.23C100,-115.59 100,-105.5 100,-97.52"/>
<polygon fill="midnightblue" stroke="midnightblue" points="96.5,-124.48 100,-134.48 103.5,-124.48 96.5,-124.48"/>
</g>
</g>
</svg>
