<?xml version="1.0" encoding="UTF-8" standalone="no"?>
<!DOCTYPE svg PUBLIC "-//W3C//DTD SVG 1.1//EN"
 "http://www.w3.org/Graphics/SVG/1.1/DTD/svg11.dtd">
<!-- Generated by graphviz version 2.40.1 (20161225.0304)
 -->
<!-- Title: tracktion_engine::AutomatableParameter::ModifierSource Pages: 1 -->
<svg width="544pt" height="264pt"
 viewBox="0.00 0.00 544.00 263.50" xmlns="http://www.w3.org/2000/svg" xmlns:xlink="http://www.w3.org/1999/xlink">
<g id="graph0" class="graph" transform="scale(1 1) rotate(0) translate(4 259.5)">
<title>tracktion_engine::AutomatableParameter::ModifierSource</title>
<!-- Node0 -->
<g id="node1" class="node">
<title>Node0</title>
<polygon fill="#bfbfbf" stroke="#000000" points="0,-129 0,-159 149,-159 149,-129 0,-129"/>
<text text-anchor="start" x="8" y="-147" font-family="Helvetica,sans-Serif" font-size="10.00" fill="#000000">tracktion_engine::Automatable</text>
<text text-anchor="middle" x="74.5" y="-136" font-family="Helvetica,sans-Serif" font-size="10.00" fill="#000000">Parameter::ModifierSource</text>
</g>
<!-- Node1 -->
<g id="node2" class="node">
<title>Node1</title>
<g id="a_node2"><a xlink:href="classtracktion__engine_1_1MacroParameter.html" target="_top" xlink:title="A MacroParameter is an AutomatableParameter which is a collection of Mappings. ">
<polygon fill="none" stroke="#000000" points="185,-153.5 185,-172.5 351,-172.5 351,-153.5 185,-153.5"/>
<text text-anchor="middle" x="268" y="-160.5" font-family="Helvetica,sans-Serif" font-size="10.00" fill="#000000">tracktion_engine::MacroParameter</text>
</a>
</g>
</g>
<!-- Node0&#45;&gt;Node1 -->
<g id="edge1" class="edge">
<title>Node0&#45;&gt;Node1</title>
<path fill="none" stroke="#191970" d="M159.0091,-152.2981C167.5701,-153.1387 176.261,-153.992 184.8079,-154.8313"/>
<polygon fill="#191970" stroke="#191970" points="159.3296,-148.8128 149.0354,-151.3187 158.6455,-155.7793 159.3296,-148.8128"/>
</g>
<!-- Node2 -->
<g id="node3" class="node">
<title>Node2</title>
<g id="a_node3"><a xlink:href="structtracktion__engine_1_1Modifier.html" target="_top" xlink:title="tracktion_engine::Modifier">
<polygon fill="none" stroke="#000000" points="204,-115.5 204,-134.5 332,-134.5 332,-115.5 204,-115.5"/>
<text text-anchor="middle" x="268" y="-122.5" font-family="Helvetica,sans-Serif" font-size="10.00" fill="#000000">tracktion_engine::Modifier</text>
</a>
</g>
</g>
<!-- Node0&#45;&gt;Node2 -->
<g id="edge2" class="edge">
<title>Node0&#45;&gt;Node2</title>
<path fill="none" stroke="#191970" d="M159.3137,-135.672C174.2754,-134.2029 189.6237,-132.6959 203.898,-131.2943"/>
<polygon fill="#191970" stroke="#191970" points="158.6455,-132.2207 149.0354,-136.6813 159.3296,-139.1872 158.6455,-132.2207"/>
</g>
<!-- Node3 -->
<g id="node4" class="node">
<title>Node3</title>
<g id="a_node4"><a xlink:href="classtracktion__engine_1_1BreakpointOscillatorModifier.html" target="_top" xlink:title="tracktion_engine::Breakpoint\lOscillatorModifier">
<polygon fill="none" stroke="#000000" points="391.5,-225 391.5,-255 531.5,-255 531.5,-225 391.5,-225"/>
<text text-anchor="start" x="399.5" y="-243" font-family="Helvetica,sans-Serif" font-size="10.00" fill="#000000">tracktion_engine::Breakpoint</text>
<text text-anchor="middle" x="461.5" y="-232" font-family="Helvetica,sans-Serif" font-size="10.00" fill="#000000">OscillatorModifier</text>
</a>
</g>
</g>
<!-- Node2&#45;&gt;Node3 -->
<g id="edge3" class="edge">
<title>Node2&#45;&gt;Node3</title>
<path fill="none" stroke="#191970" d="M341.4853,-137.807C344.8394,-139.617 348.0362,-141.6707 351,-144 379.1294,-166.1074 359.854,-192.6956 387,-216 391.0211,-219.452 395.546,-222.4093 400.3279,-224.9423"/>
<polygon fill="#191970" stroke="#191970" points="342.8379,-134.5765 332.2916,-133.5632 339.9042,-140.9321 342.8379,-134.5765"/>
</g>
<!-- Node4 -->
<g id="node5" class="node">
<title>Node4</title>
<g id="a_node5"><a xlink:href="classtracktion__engine_1_1EnvelopeFollowerModifier.html" target="_top" xlink:title="tracktion_engine::Envelope\lFollowerModifier">
<polygon fill="none" stroke="#000000" points="394.5,-176 394.5,-206 528.5,-206 528.5,-176 394.5,-176"/>
<text text-anchor="start" x="402.5" y="-194" font-family="Helvetica,sans-Serif" font-size="10.00" fill="#000000">tracktion_engine::Envelope</text>
<text text-anchor="middle" x="461.5" y="-183" font-family="Helvetica,sans-Serif" font-size="10.00" fill="#000000">FollowerModifier</text>
</a>
</g>
</g>
<!-- Node2&#45;&gt;Node4 -->
<g id="edge4" class="edge">
<title>Node2&#45;&gt;Node4</title>
<path fill="none" stroke="#191970" d="M331.3484,-137.2422C338.0794,-139.2089 344.7452,-141.4523 351,-144 368.3659,-151.0733 370.0043,-158.0784 387,-166 394.7903,-169.631 403.2583,-172.989 411.5985,-175.9883"/>
<polygon fill="#191970" stroke="#191970" points="332.0488,-133.8055 321.4806,-134.5555 330.2099,-140.5597 332.0488,-133.8055"/>
</g>
<!-- Node5 -->
<g id="node6" class="node">
<title>Node5</title>
<g id="a_node6"><a xlink:href="classtracktion__engine_1_1LFOModifier.html" target="_top" xlink:title="tracktion_engine::LFOModifier">
<polygon fill="none" stroke="#000000" points="388,-137.5 388,-156.5 535,-156.5 535,-137.5 388,-137.5"/>
<text text-anchor="middle" x="461.5" y="-144.5" font-family="Helvetica,sans-Serif" font-size="10.00" fill="#000000">tracktion_engine::LFOModifier</text>
</a>
</g>
</g>
<!-- Node2&#45;&gt;Node5 -->
<g id="edge5" class="edge">
<title>Node2&#45;&gt;Node5</title>
<path fill="none" stroke="#191970" d="M342.3462,-133.4528C357.2543,-135.1478 372.9133,-136.9281 387.7993,-138.6206"/>
<polygon fill="#191970" stroke="#191970" points="342.4953,-129.9473 332.1639,-132.2951 341.7045,-136.9025 342.4953,-129.9473"/>
</g>
<!-- Node6 -->
<g id="node7" class="node">
<title>Node6</title>
<g id="a_node7"><a xlink:href="classtracktion__engine_1_1MIDITrackerModifier.html" target="_top" xlink:title="tracktion_engine::MIDITracker\lModifier">
<polygon fill="none" stroke="#000000" points="387,-88 387,-118 536,-118 536,-88 387,-88"/>
<text text-anchor="start" x="395" y="-106" font-family="Helvetica,sans-Serif" font-size="10.00" fill="#000000">tracktion_engine::MIDITracker</text>
<text text-anchor="middle" x="461.5" y="-95" font-family="Helvetica,sans-Serif" font-size="10.00" fill="#000000">Modifier</text>
</a>
</g>
</g>
<!-- Node2&#45;&gt;Node6 -->
<g id="edge6" class="edge">
<title>Node2&#45;&gt;Node6</title>
<path fill="none" stroke="#191970" d="M342.1551,-116.5689C356.7808,-114.9061 372.1361,-113.1602 386.7803,-111.4953"/>
<polygon fill="#191970" stroke="#191970" points="341.7045,-113.0975 332.1639,-117.7049 342.4953,-120.0527 341.7045,-113.0975"/>
</g>
<!-- Node7 -->
<g id="node8" class="node">
<title>Node7</title>
<g id="a_node8"><a xlink:href="classtracktion__engine_1_1RandomModifier.html" target="_top" xlink:title="tracktion_engine::Random\lModifier">
<polygon fill="none" stroke="#000000" points="396,-39 396,-69 527,-69 527,-39 396,-39"/>
<text text-anchor="start" x="404" y="-57" font-family="Helvetica,sans-Serif" font-size="10.00" fill="#000000">tracktion_engine::Random</text>
<text text-anchor="middle" x="461.5" y="-46" font-family="Helvetica,sans-Serif" font-size="10.00" fill="#000000">Modifier</text>
</a>
</g>
</g>
<!-- Node2&#45;&gt;Node7 -->
<g id="edge7" class="edge">
<title>Node2&#45;&gt;Node7</title>
<path fill="none" stroke="#191970" d="M301.6376,-111.5314C325.3871,-102.1366 358.0139,-89.4598 387,-79 396.2397,-75.6658 406.1751,-72.2296 415.684,-69.0124"/>
<polygon fill="#191970" stroke="#191970" points="300.0429,-108.3987 292.0393,-115.3408 302.6252,-114.905 300.0429,-108.3987"/>
</g>
<!-- Node8 -->
<g id="node9" class="node">
<title>Node8</title>
<g id="a_node9"><a xlink:href="classtracktion__engine_1_1StepModifier.html" target="_top" xlink:title="tracktion_engine::StepModifier">
<polygon fill="none" stroke="#000000" points="387,-.5 387,-19.5 536,-19.5 536,-.5 387,-.5"/>
<text text-anchor="middle" x="461.5" y="-7.5" font-family="Helvetica,sans-Serif" font-size="10.00" fill="#000000">tracktion_engine::StepModifier</text>
</a>
</g>
</g>
<!-- Node2&#45;&gt;Node8 -->
<g id="edge8" class="edge">
<title>Node2&#45;&gt;Node8</title>
<path fill="none" stroke="#191970" d="M284.2929,-108.2697C305.8776,-87.043 346.0253,-50.7105 387,-30 395.4859,-25.7108 404.9953,-22.2624 414.3078,-19.5183"/>
<polygon fill="#191970" stroke="#191970" points="281.8092,-105.8036 277.2133,-115.3497 286.7591,-110.7532 281.8092,-105.8036"/>
</g>
</g>
</svg>
