<?xml version="1.0" encoding="UTF-8" standalone="no"?>
<!DOCTYPE svg PUBLIC "-//W3C//DTD SVG 1.1//EN"
 "http://www.w3.org/Graphics/SVG/1.1/DTD/svg11.dtd">
<!-- Generated by graphviz version 2.43.0 (0)
 -->
<!-- Title: tracktion::engine::AutomatableParameter::ModifierSource Pages: 1 -->
<svg width="471pt" height="284pt"
 viewBox="0.00 0.00 471.00 284.00" xmlns="http://www.w3.org/2000/svg" xmlns:xlink="http://www.w3.org/1999/xlink">
<g id="graph0" class="graph" transform="scale(1 1) rotate(0) translate(4 280)">
<title>tracktion::engine::AutomatableParameter::ModifierSource</title>
<!-- Node1 -->
<g id="node1" class="node">
<title>Node1</title>
<g id="a_node1"><a xlink:title="Base class for things that can be used to modify parameters.">
<polygon fill="#bfbfbf" stroke="black" points="0,-141 0,-182 130,-182 130,-141 0,-141"/>
<text text-anchor="start" x="8" y="-170" font-family="Helvetica,sans-Serif" font-size="10.00">tracktion::engine::</text>
<text text-anchor="start" x="8" y="-159" font-family="Helvetica,sans-Serif" font-size="10.00">AutomatableParameter</text>
<text text-anchor="middle" x="65" y="-148" font-family="Helvetica,sans-Serif" font-size="10.00">::ModifierSource</text>
</a>
</g>
</g>
<!-- Node2 -->
<g id="node2" class="node">
<title>Node2</title>
<g id="a_node2"><a xlink:href="classtracktion_1_1engine_1_1MacroParameter.html" target="_top" xlink:title="A MacroParameter is an AutomatableParameter which is a collection of Mappings.">
<polygon fill="none" stroke="black" points="166,-171.5 166,-201.5 271,-201.5 271,-171.5 166,-171.5"/>
<text text-anchor="start" x="174" y="-189.5" font-family="Helvetica,sans-Serif" font-size="10.00">tracktion::engine::</text>
<text text-anchor="middle" x="218.5" y="-178.5" font-family="Helvetica,sans-Serif" font-size="10.00">MacroParameter</text>
</a>
</g>
</g>
<!-- Node1&#45;&gt;Node2 -->
<g id="edge1" class="edge">
<title>Node1&#45;&gt;Node2</title>
<path fill="none" stroke="midnightblue" d="M140.25,-173.75C148.8,-175.16 157.37,-176.58 165.54,-177.93"/>
<polygon fill="midnightblue" stroke="midnightblue" points="140.69,-170.28 130.25,-172.1 139.55,-177.18 140.69,-170.28"/>
</g>
<!-- Node3 -->
<g id="node3" class="node">
<title>Node3</title>
<g id="a_node3"><a xlink:href="structtracktion_1_1engine_1_1Modifier.html" target="_top" xlink:title="Bass class for parameter Modifiers.">
<polygon fill="none" stroke="black" points="166,-122.5 166,-152.5 271,-152.5 271,-122.5 166,-122.5"/>
<text text-anchor="start" x="174" y="-140.5" font-family="Helvetica,sans-Serif" font-size="10.00">tracktion::engine::</text>
<text text-anchor="middle" x="218.5" y="-129.5" font-family="Helvetica,sans-Serif" font-size="10.00">Modifier</text>
</a>
</g>
</g>
<!-- Node1&#45;&gt;Node3 -->
<g id="edge2" class="edge">
<title>Node1&#45;&gt;Node3</title>
<path fill="none" stroke="midnightblue" d="M140.25,-149.74C148.8,-148.38 157.37,-147.03 165.54,-145.73"/>
<polygon fill="midnightblue" stroke="midnightblue" points="139.58,-146.3 130.25,-151.32 140.67,-153.21 139.58,-146.3"/>
</g>
<!-- Node4 -->
<g id="node4" class="node">
<title>Node4</title>
<g id="a_node4"><a xlink:href="classtracktion_1_1engine_1_1BreakpointOscillatorModifier.html" target="_top" xlink:title=" ">
<polygon fill="none" stroke="black" points="307,-245.5 307,-275.5 463,-275.5 463,-245.5 307,-245.5"/>
<text text-anchor="start" x="315" y="-263.5" font-family="Helvetica,sans-Serif" font-size="10.00">tracktion::engine::</text>
<text text-anchor="middle" x="385" y="-252.5" font-family="Helvetica,sans-Serif" font-size="10.00">BreakpointOscillatorModifier</text>
</a>
</g>
</g>
<!-- Node3&#45;&gt;Node4 -->
<g id="edge3" class="edge">
<title>Node3&#45;&gt;Node4</title>
<path fill="none" stroke="midnightblue" d="M266.46,-158.44C268.06,-159.72 269.58,-161.08 271,-162.5 296.87,-188.35 279.27,-212.66 307,-236.5 311.03,-239.97 315.57,-242.94 320.36,-245.48"/>
<polygon fill="midnightblue" stroke="midnightblue" points="268.21,-155.39 258,-152.55 264.21,-161.13 268.21,-155.39"/>
</g>
<!-- Node5 -->
<g id="node5" class="node">
<title>Node5</title>
<g id="a_node5"><a xlink:href="classtracktion_1_1engine_1_1EnvelopeFollowerModifier.html" target="_top" xlink:title=" ">
<polygon fill="none" stroke="black" points="313.5,-196.5 313.5,-226.5 456.5,-226.5 456.5,-196.5 313.5,-196.5"/>
<text text-anchor="start" x="321.5" y="-214.5" font-family="Helvetica,sans-Serif" font-size="10.00">tracktion::engine::</text>
<text text-anchor="middle" x="385" y="-203.5" font-family="Helvetica,sans-Serif" font-size="10.00">EnvelopeFollowerModifier</text>
</a>
</g>
</g>
<!-- Node3&#45;&gt;Node5 -->
<g id="edge4" class="edge">
<title>Node3&#45;&gt;Node5</title>
<path fill="none" stroke="midnightblue" d="M261.65,-157.29C264.84,-158.99 267.99,-160.74 271,-162.5 287.81,-172.34 289.5,-178.95 307,-187.5 313.79,-190.82 321.15,-193.81 328.52,-196.45"/>
<polygon fill="midnightblue" stroke="midnightblue" points="263.08,-154.09 252.59,-152.62 259.88,-160.31 263.08,-154.09"/>
</g>
<!-- Node6 -->
<g id="node6" class="node">
<title>Node6</title>
<g id="a_node6"><a xlink:href="classtracktion_1_1engine_1_1LFOModifier.html" target="_top" xlink:title=" ">
<polygon fill="none" stroke="black" points="332.5,-147.5 332.5,-177.5 437.5,-177.5 437.5,-147.5 332.5,-147.5"/>
<text text-anchor="start" x="340.5" y="-165.5" font-family="Helvetica,sans-Serif" font-size="10.00">tracktion::engine::</text>
<text text-anchor="middle" x="385" y="-154.5" font-family="Helvetica,sans-Serif" font-size="10.00">LFOModifier</text>
</a>
</g>
</g>
<!-- Node3&#45;&gt;Node6 -->
<g id="edge5" class="edge">
<title>Node3&#45;&gt;Node6</title>
<path fill="none" stroke="midnightblue" d="M281.37,-146.9C298.15,-149.45 316.14,-152.19 332.3,-154.64"/>
<polygon fill="midnightblue" stroke="midnightblue" points="281.51,-143.38 271.1,-145.34 280.46,-150.3 281.51,-143.38"/>
</g>
<!-- Node7 -->
<g id="node7" class="node">
<title>Node7</title>
<g id="a_node7"><a xlink:href="classtracktion_1_1engine_1_1MIDITrackerModifier.html" target="_top" xlink:title=" ">
<polygon fill="none" stroke="black" points="328.5,-98.5 328.5,-128.5 441.5,-128.5 441.5,-98.5 328.5,-98.5"/>
<text text-anchor="start" x="336.5" y="-116.5" font-family="Helvetica,sans-Serif" font-size="10.00">tracktion::engine::</text>
<text text-anchor="middle" x="385" y="-105.5" font-family="Helvetica,sans-Serif" font-size="10.00">MIDITrackerModifier</text>
</a>
</g>
</g>
<!-- Node3&#45;&gt;Node7 -->
<g id="edge6" class="edge">
<title>Node3&#45;&gt;Node7</title>
<path fill="none" stroke="midnightblue" d="M281.1,-128.51C296.59,-126.25 313.13,-123.84 328.31,-121.63"/>
<polygon fill="midnightblue" stroke="midnightblue" points="280.49,-125.06 271.1,-129.97 281.5,-131.99 280.49,-125.06"/>
</g>
<!-- Node8 -->
<g id="node8" class="node">
<title>Node8</title>
<g id="a_node8"><a xlink:href="classtracktion_1_1engine_1_1RandomModifier.html" target="_top" xlink:title=" ">
<polygon fill="none" stroke="black" points="332.5,-49.5 332.5,-79.5 437.5,-79.5 437.5,-49.5 332.5,-49.5"/>
<text text-anchor="start" x="340.5" y="-67.5" font-family="Helvetica,sans-Serif" font-size="10.00">tracktion::engine::</text>
<text text-anchor="middle" x="385" y="-56.5" font-family="Helvetica,sans-Serif" font-size="10.00">RandomModifier</text>
</a>
</g>
</g>
<!-- Node3&#45;&gt;Node8 -->
<g id="edge7" class="edge">
<title>Node3&#45;&gt;Node8</title>
<path fill="none" stroke="midnightblue" d="M253.1,-117.13C269.07,-107.96 288.65,-97.43 307,-89.5 315.26,-85.93 324.2,-82.59 332.97,-79.57"/>
<polygon fill="midnightblue" stroke="midnightblue" points="251.02,-114.29 244.14,-122.35 254.55,-120.34 251.02,-114.29"/>
</g>
<!-- Node9 -->
<g id="node9" class="node">
<title>Node9</title>
<g id="a_node9"><a xlink:href="classtracktion_1_1engine_1_1StepModifier.html" target="_top" xlink:title=" ">
<polygon fill="none" stroke="black" points="332.5,-0.5 332.5,-30.5 437.5,-30.5 437.5,-0.5 332.5,-0.5"/>
<text text-anchor="start" x="340.5" y="-18.5" font-family="Helvetica,sans-Serif" font-size="10.00">tracktion::engine::</text>
<text text-anchor="middle" x="385" y="-7.5" font-family="Helvetica,sans-Serif" font-size="10.00">StepModifier</text>
</a>
</g>
</g>
<!-- Node3&#45;&gt;Node9 -->
<g id="edge8" class="edge">
<title>Node3&#45;&gt;Node9</title>
<path fill="none" stroke="midnightblue" d="M235.14,-114.03C250.88,-92.1 277.06,-59.92 307,-40.5 314.66,-35.53 323.4,-31.47 332.17,-28.18"/>
<polygon fill="midnightblue" stroke="midnightblue" points="232.11,-112.25 229.24,-122.45 237.84,-116.26 232.11,-112.25"/>
</g>
</g>
</svg>
