<?xml version="1.0" encoding="UTF-8" standalone="no"?>
<!DOCTYPE svg PUBLIC "-//W3C//DTD SVG 1.1//EN"
 "http://www.w3.org/Graphics/SVG/1.1/DTD/svg11.dtd">
<!-- Generated by graphviz version 2.43.0 (0)
 -->
<!-- Title: tracktion_engine::AutomatableParameter::ModifierAssignment Pages: 1 -->
<svg width="399pt" height="333pt"
 viewBox="0.00 0.00 399.00 333.00" xmlns="http://www.w3.org/2000/svg" xmlns:xlink="http://www.w3.org/1999/xlink">
<g id="graph0" class="graph" transform="scale(1 1) rotate(0) translate(4 329)">
<title>tracktion_engine::AutomatableParameter::ModifierAssignment</title>
<!-- Node1 -->
<g id="node1" class="node">
<title>Node1</title>
<g id="a_node1"><a xlink:title="Connects a modifier source to an AutomatableParameter.">
<polygon fill="#bfbfbf" stroke="black" points="0,-147.5 0,-177.5 170,-177.5 170,-147.5 0,-147.5"/>
<text text-anchor="start" x="8" y="-165.5" font-family="Helvetica,sans-Serif" font-size="10.00">tracktion_engine::Automatable</text>
<text text-anchor="middle" x="85" y="-154.5" font-family="Helvetica,sans-Serif" font-size="10.00">Parameter::ModifierAssignment</text>
</a>
</g>
</g>
<!-- Node2 -->
<g id="node2" class="node">
<title>Node2</title>
<g id="a_node2"><a xlink:href="structtracktion__engine_1_1BreakpointOscillatorModifier_1_1Assignment.html" target="_top" xlink:title=" ">
<polygon fill="none" stroke="black" points="215,-294.5 215,-324.5 382,-324.5 382,-294.5 215,-294.5"/>
<text text-anchor="start" x="223" y="-312.5" font-family="Helvetica,sans-Serif" font-size="10.00">tracktion_engine::Breakpoint</text>
<text text-anchor="middle" x="298.5" y="-301.5" font-family="Helvetica,sans-Serif" font-size="10.00">OscillatorModifier::Assignment</text>
</a>
</g>
</g>
<!-- Node1&#45;&gt;Node2 -->
<g id="edge1" class="edge">
<title>Node1&#45;&gt;Node2</title>
<path fill="none" stroke="midnightblue" d="M102.49,-185.91C123.39,-213.82 162.03,-259.91 206,-285.5 211.82,-288.89 218.12,-291.81 224.6,-294.32"/>
<polygon fill="midnightblue" stroke="midnightblue" points="105.08,-183.53 96.34,-177.54 99.44,-187.67 105.08,-183.53"/>
</g>
<!-- Node3 -->
<g id="node3" class="node">
<title>Node3</title>
<g id="a_node3"><a xlink:href="structtracktion__engine_1_1EnvelopeFollowerModifier_1_1Assignment.html" target="_top" xlink:title=" ">
<polygon fill="none" stroke="black" points="218,-245.5 218,-275.5 379,-275.5 379,-245.5 218,-245.5"/>
<text text-anchor="start" x="226" y="-263.5" font-family="Helvetica,sans-Serif" font-size="10.00">tracktion_engine::Envelope</text>
<text text-anchor="middle" x="298.5" y="-252.5" font-family="Helvetica,sans-Serif" font-size="10.00">FollowerModifier::Assignment</text>
</a>
</g>
</g>
<!-- Node1&#45;&gt;Node3 -->
<g id="edge2" class="edge">
<title>Node1&#45;&gt;Node3</title>
<path fill="none" stroke="midnightblue" d="M114.66,-183.55C138.17,-199.98 172.88,-222.32 206,-236.5 213.85,-239.86 222.29,-242.85 230.75,-245.47"/>
<polygon fill="midnightblue" stroke="midnightblue" points="116.4,-180.5 106.22,-177.58 112.35,-186.21 116.4,-180.5"/>
</g>
<!-- Node4 -->
<g id="node4" class="node">
<title>Node4</title>
<g id="a_node4"><a xlink:href="structtracktion__engine_1_1LFOModifier_1_1Assignment.html" target="_top" xlink:title=" ">
<polygon fill="none" stroke="black" points="217,-196.5 217,-226.5 380,-226.5 380,-196.5 217,-196.5"/>
<text text-anchor="start" x="225" y="-214.5" font-family="Helvetica,sans-Serif" font-size="10.00">tracktion_engine::LFOModifier</text>
<text text-anchor="middle" x="298.5" y="-203.5" font-family="Helvetica,sans-Serif" font-size="10.00">::Assignment</text>
</a>
</g>
</g>
<!-- Node1&#45;&gt;Node4 -->
<g id="edge3" class="edge">
<title>Node1&#45;&gt;Node4</title>
<path fill="none" stroke="midnightblue" d="M160.81,-179.83C184.29,-185.27 210,-191.23 232.73,-196.49"/>
<polygon fill="midnightblue" stroke="midnightblue" points="161.43,-176.38 150.89,-177.53 159.85,-183.2 161.43,-176.38"/>
</g>
<!-- Node5 -->
<g id="node5" class="node">
<title>Node5</title>
<g id="a_node5"><a xlink:href="structtracktion__engine_1_1MacroParameter_1_1Assignment.html" target="_top" xlink:title="An Assignment between a MacroParameter and an AutomatableParameter.">
<polygon fill="none" stroke="black" points="206,-147.5 206,-177.5 391,-177.5 391,-147.5 206,-147.5"/>
<text text-anchor="start" x="214" y="-165.5" font-family="Helvetica,sans-Serif" font-size="10.00">tracktion_engine::MacroParameter</text>
<text text-anchor="middle" x="298.5" y="-154.5" font-family="Helvetica,sans-Serif" font-size="10.00">::Assignment</text>
</a>
</g>
</g>
<!-- Node1&#45;&gt;Node5 -->
<g id="edge4" class="edge">
<title>Node1&#45;&gt;Node5</title>
<path fill="none" stroke="midnightblue" d="M180.47,-162.5C188.94,-162.5 197.5,-162.5 205.95,-162.5"/>
<polygon fill="midnightblue" stroke="midnightblue" points="180.2,-159 170.2,-162.5 180.2,-166 180.2,-159"/>
</g>
<!-- Node6 -->
<g id="node6" class="node">
<title>Node6</title>
<g id="a_node6"><a xlink:href="structtracktion__engine_1_1MIDITrackerModifier_1_1Assignment.html" target="_top" xlink:title=" ">
<polygon fill="none" stroke="black" points="218,-98.5 218,-128.5 379,-128.5 379,-98.5 218,-98.5"/>
<text text-anchor="start" x="226" y="-116.5" font-family="Helvetica,sans-Serif" font-size="10.00">tracktion_engine::MIDITracker</text>
<text text-anchor="middle" x="298.5" y="-105.5" font-family="Helvetica,sans-Serif" font-size="10.00">Modifier::Assignment</text>
</a>
</g>
</g>
<!-- Node1&#45;&gt;Node6 -->
<g id="edge5" class="edge">
<title>Node1&#45;&gt;Node6</title>
<path fill="none" stroke="midnightblue" d="M160.81,-145.17C184.29,-139.73 210,-133.77 232.73,-128.51"/>
<polygon fill="midnightblue" stroke="midnightblue" points="159.85,-141.8 150.89,-147.47 161.43,-148.62 159.85,-141.8"/>
</g>
<!-- Node7 -->
<g id="node7" class="node">
<title>Node7</title>
<g id="a_node7"><a xlink:href="structtracktion__engine_1_1RandomModifier_1_1Assignment.html" target="_top" xlink:title=" ">
<polygon fill="none" stroke="black" points="226,-49.5 226,-79.5 371,-79.5 371,-49.5 226,-49.5"/>
<text text-anchor="start" x="234" y="-67.5" font-family="Helvetica,sans-Serif" font-size="10.00">tracktion_engine::Random</text>
<text text-anchor="middle" x="298.5" y="-56.5" font-family="Helvetica,sans-Serif" font-size="10.00">Modifier::Assignment</text>
</a>
</g>
</g>
<!-- Node1&#45;&gt;Node7 -->
<g id="edge6" class="edge">
<title>Node1&#45;&gt;Node7</title>
<path fill="none" stroke="midnightblue" d="M115.17,-141.55C138.72,-125.44 173.23,-103.61 206,-89.5 214.62,-85.79 223.94,-82.49 233.22,-79.6"/>
<polygon fill="midnightblue" stroke="midnightblue" points="112.93,-138.84 106.7,-147.42 116.91,-144.6 112.93,-138.84"/>
</g>
<!-- Node8 -->
<g id="node8" class="node">
<title>Node8</title>
<g id="a_node8"><a xlink:href="structtracktion__engine_1_1StepModifier_1_1Assignment.html" target="_top" xlink:title=" ">
<polygon fill="none" stroke="black" points="215.5,-0.5 215.5,-30.5 381.5,-30.5 381.5,-0.5 215.5,-0.5"/>
<text text-anchor="start" x="223.5" y="-18.5" font-family="Helvetica,sans-Serif" font-size="10.00">tracktion_engine::StepModifier</text>
<text text-anchor="middle" x="298.5" y="-7.5" font-family="Helvetica,sans-Serif" font-size="10.00">::Assignment</text>
</a>
</g>
</g>
<!-- Node1&#45;&gt;Node8 -->
<g id="edge7" class="edge">
<title>Node1&#45;&gt;Node8</title>
<path fill="none" stroke="midnightblue" d="M102.91,-138.92C123.97,-111.27 162.52,-65.99 206,-40.5 212.54,-36.67 219.68,-33.41 226.99,-30.64"/>
<polygon fill="midnightblue" stroke="midnightblue" points="99.88,-137.12 96.7,-147.23 105.49,-141.31 99.88,-137.12"/>
</g>
</g>
</svg>
