<?xml version="1.0" encoding="UTF-8" standalone="no"?>
<!DOCTYPE svg PUBLIC "-//W3C//DTD SVG 1.1//EN"
 "http://www.w3.org/Graphics/SVG/1.1/DTD/svg11.dtd">
<!-- Generated by graphviz version 2.40.1 (20161225.0304)
 -->
<!-- Title: tracktion_engine::InputDeviceInstance::VirtualMidiInputDeviceDestination Pages: 1 -->
<svg width="170pt" height="173pt"
 viewBox="0.00 0.00 170.00 173.00" xmlns="http://www.w3.org/2000/svg" xmlns:xlink="http://www.w3.org/1999/xlink">
<g id="graph0" class="graph" transform="scale(1 1) rotate(0) translate(4 169)">
<title>tracktion_engine::InputDeviceInstance::VirtualMidiInputDeviceDestination</title>
<!-- Node0 -->
<g id="node1" class="node">
<title>Node0</title>
<polygon fill="#bfbfbf" stroke="#000000" points="2,-.5 2,-41.5 160,-41.5 160,-.5 2,-.5"/>
<text text-anchor="start" x="10" y="-29.5" font-family="Helvetica,sans-Serif" font-size="10.00" fill="#000000">tracktion_engine::InputDevice</text>
<text text-anchor="start" x="10" y="-18.5" font-family="Helvetica,sans-Serif" font-size="10.00" fill="#000000">Instance::VirtualMidiInputDevice</text>
<text text-anchor="middle" x="81" y="-7.5" font-family="Helvetica,sans-Serif" font-size="10.00" fill="#000000">Destination</text>
</g>
<!-- Node1 -->
<g id="node2" class="node">
<title>Node1</title>
<g id="a_node2"><a xlink:href="structtracktion__engine_1_1InputDeviceInstance_1_1InputDeviceDestination.html" target="_top" xlink:title="tracktion_engine::InputDevice\lInstance::InputDeviceDestination">
<polygon fill="none" stroke="#000000" points="0,-78.5 0,-108.5 162,-108.5 162,-78.5 0,-78.5"/>
<text text-anchor="start" x="8" y="-96.5" font-family="Helvetica,sans-Serif" font-size="10.00" fill="#000000">tracktion_engine::InputDevice</text>
<text text-anchor="middle" x="81" y="-85.5" font-family="Helvetica,sans-Serif" font-size="10.00" fill="#000000">Instance::InputDeviceDestination</text>
</a>
</g>
</g>
<!-- Node1&#45;&gt;Node0 -->
<g id="edge1" class="edge">
<title>Node1&#45;&gt;Node0</title>
<path fill="none" stroke="#191970" d="M81,-68.4016C81,-59.6173 81,-49.8652 81,-41.5015"/>
<polygon fill="#191970" stroke="#191970" points="77.5001,-68.4779 81,-78.478 84.5001,-68.478 77.5001,-68.4779"/>
</g>
<!-- Node2 -->
<g id="node3" class="node">
<title>Node2</title>
<g id="a_node3"><a xlink:href="classtracktion__engine_1_1Selectable.html" target="_top" xlink:title="Base class for things that can be selected, and whose properties can appear in the properties panel...">
<polygon fill="none" stroke="#000000" points="11,-145.5 11,-164.5 151,-164.5 151,-145.5 11,-145.5"/>
<text text-anchor="middle" x="81" y="-152.5" font-family="Helvetica,sans-Serif" font-size="10.00" fill="#000000">tracktion_engine::Selectable</text>
</a>
</g>
</g>
<!-- Node2&#45;&gt;Node1 -->
<g id="edge2" class="edge">
<title>Node2&#45;&gt;Node1</title>
<path fill="none" stroke="#191970" d="M81,-135.3693C81,-126.681 81,-116.6241 81,-108.5446"/>
<polygon fill="#191970" stroke="#191970" points="77.5001,-135.3906 81,-145.3906 84.5001,-135.3907 77.5001,-135.3906"/>
</g>
</g>
</svg>
