<?xml version="1.0" encoding="UTF-8" standalone="no"?>
<!DOCTYPE svg PUBLIC "-//W3C//DTD SVG 1.1//EN"
 "http://www.w3.org/Graphics/SVG/1.1/DTD/svg11.dtd">
<!-- Generated by graphviz version 2.43.0 (0)
 -->
<!-- Title: tracktion::engine::InputDeviceInstance::Destination Pages: 1 -->
<svg width="458pt" height="170pt"
 viewBox="0.00 0.00 458.00 170.00" xmlns="http://www.w3.org/2000/svg" xmlns:xlink="http://www.w3.org/1999/xlink">
<g id="graph0" class="graph" transform="scale(1 1) rotate(0) translate(4 166)">
<title>tracktion::engine::InputDeviceInstance::Destination</title>
<!-- Node1 -->
<g id="node1" class="node">
<title>Node1</title>
<g id="a_node1"><a xlink:title=" ">
<polygon fill="#bfbfbf" stroke="black" points="141,-60.5 141,-101.5 257,-101.5 257,-60.5 141,-60.5"/>
<text text-anchor="start" x="149" y="-89.5" font-family="Helvetica,sans-Serif" font-size="10.00">tracktion::engine::</text>
<text text-anchor="start" x="149" y="-78.5" font-family="Helvetica,sans-Serif" font-size="10.00">InputDeviceInstance</text>
<text text-anchor="middle" x="199" y="-67.5" font-family="Helvetica,sans-Serif" font-size="10.00">::Destination</text>
</a>
</g>
</g>
<!-- Node3 -->
<g id="node3" class="node">
<title>Node3</title>
<g id="a_node3"><a xlink:href="structtracktion_1_1engine_1_1InputDeviceInstance_1_1MidiInputDestination.html" target="_top" xlink:title=" ">
<polygon fill="none" stroke="black" points="309,-120.5 309,-161.5 434,-161.5 434,-120.5 309,-120.5"/>
<text text-anchor="start" x="317" y="-149.5" font-family="Helvetica,sans-Serif" font-size="10.00">tracktion::engine::</text>
<text text-anchor="start" x="317" y="-138.5" font-family="Helvetica,sans-Serif" font-size="10.00">InputDeviceInstance</text>
<text text-anchor="middle" x="371.5" y="-127.5" font-family="Helvetica,sans-Serif" font-size="10.00">::MidiInputDestination</text>
</a>
</g>
</g>
<!-- Node1&#45;&gt;Node3 -->
<g id="edge2" class="edge">
<title>Node1&#45;&gt;Node3</title>
<path fill="none" stroke="midnightblue" d="M266.95,-104.56C281.91,-109.82 297.66,-115.37 312.24,-120.5"/>
<polygon fill="midnightblue" stroke="midnightblue" points="267.84,-101.16 257.25,-101.15 265.52,-107.77 267.84,-101.16"/>
</g>
<!-- Node4 -->
<g id="node4" class="node">
<title>Node4</title>
<g id="a_node4"><a xlink:href="structtracktion_1_1engine_1_1InputDeviceInstance_1_1VirtualMidiInputDestination.html" target="_top" xlink:title=" ">
<polygon fill="none" stroke="black" points="293,-60.5 293,-101.5 450,-101.5 450,-60.5 293,-60.5"/>
<text text-anchor="start" x="301" y="-89.5" font-family="Helvetica,sans-Serif" font-size="10.00">tracktion::engine::</text>
<text text-anchor="start" x="301" y="-78.5" font-family="Helvetica,sans-Serif" font-size="10.00">InputDeviceInstance</text>
<text text-anchor="middle" x="371.5" y="-67.5" font-family="Helvetica,sans-Serif" font-size="10.00">::VirtualMidiInputDestination</text>
</a>
</g>
</g>
<!-- Node1&#45;&gt;Node4 -->
<g id="edge3" class="edge">
<title>Node1&#45;&gt;Node4</title>
<path fill="none" stroke="midnightblue" d="M267.31,-81C275.68,-81 284.29,-81 292.8,-81"/>
<polygon fill="midnightblue" stroke="midnightblue" points="267.25,-77.5 257.25,-81 267.25,-84.5 267.25,-77.5"/>
</g>
<!-- Node5 -->
<g id="node5" class="node">
<title>Node5</title>
<g id="a_node5"><a xlink:href="structtracktion_1_1engine_1_1InputDeviceInstance_1_1WaveInputDestination.html" target="_top" xlink:title=" ">
<polygon fill="none" stroke="black" points="306,-0.5 306,-41.5 437,-41.5 437,-0.5 306,-0.5"/>
<text text-anchor="start" x="314" y="-29.5" font-family="Helvetica,sans-Serif" font-size="10.00">tracktion::engine::</text>
<text text-anchor="start" x="314" y="-18.5" font-family="Helvetica,sans-Serif" font-size="10.00">InputDeviceInstance</text>
<text text-anchor="middle" x="371.5" y="-7.5" font-family="Helvetica,sans-Serif" font-size="10.00">::WaveInputDestination</text>
</a>
</g>
</g>
<!-- Node1&#45;&gt;Node5 -->
<g id="edge4" class="edge">
<title>Node1&#45;&gt;Node5</title>
<path fill="none" stroke="midnightblue" d="M266.95,-57.44C281.91,-52.18 297.66,-46.63 312.24,-41.5"/>
<polygon fill="midnightblue" stroke="midnightblue" points="265.52,-54.23 257.25,-60.85 267.84,-60.84 265.52,-54.23"/>
</g>
<!-- Node2 -->
<g id="node2" class="node">
<title>Node2</title>
<g id="a_node2"><a xlink:href="classtracktion_1_1engine_1_1Selectable.html" target="_top" xlink:title="Base class for things that can be selected, and whose properties can appear in the properties panel.">
<polygon fill="none" stroke="black" points="0,-66 0,-96 105,-96 105,-66 0,-66"/>
<text text-anchor="start" x="8" y="-84" font-family="Helvetica,sans-Serif" font-size="10.00">tracktion::engine::</text>
<text text-anchor="middle" x="52.5" y="-73" font-family="Helvetica,sans-Serif" font-size="10.00">Selectable</text>
</a>
</g>
</g>
<!-- Node2&#45;&gt;Node1 -->
<g id="edge1" class="edge">
<title>Node2&#45;&gt;Node1</title>
<path fill="none" stroke="midnightblue" d="M115.39,-81C123.8,-81 132.4,-81 140.72,-81"/>
<polygon fill="midnightblue" stroke="midnightblue" points="115.26,-77.5 105.26,-81 115.26,-84.5 115.26,-77.5"/>
</g>
</g>
</svg>
