<?xml version="1.0" encoding="UTF-8" standalone="no"?>
<!DOCTYPE svg PUBLIC "-//W3C//DTD SVG 1.1//EN"
 "http://www.w3.org/Graphics/SVG/1.1/DTD/svg11.dtd">
<!-- Generated by graphviz version 2.43.0 (0)
 -->
<!-- Title: tracktion::engine::InputDeviceInstance::Consumer Pages: 1 -->
<svg width="316pt" height="137pt"
 viewBox="0.00 0.00 316.00 137.00" xmlns="http://www.w3.org/2000/svg" xmlns:xlink="http://www.w3.org/1999/xlink">
<g id="graph0" class="graph" transform="scale(1 1) rotate(0) translate(4 133)">
<title>tracktion::engine::InputDeviceInstance::Consumer</title>
<!-- Node1 -->
<g id="node1" class="node">
<title>Node1</title>
<g id="a_node1"><a xlink:title="Base class for classes that want to listen to an InputDevice and get a callback for each block of inp...">
<polygon fill="#bfbfbf" stroke="black" points="0,-44 0,-85 116,-85 116,-44 0,-44"/>
<text text-anchor="start" x="8" y="-73" font-family="Helvetica,sans-Serif" font-size="10.00">tracktion::engine::</text>
<text text-anchor="start" x="8" y="-62" font-family="Helvetica,sans-Serif" font-size="10.00">InputDeviceInstance</text>
<text text-anchor="middle" x="58" y="-51" font-family="Helvetica,sans-Serif" font-size="10.00">::Consumer</text>
</a>
</g>
</g>
<!-- Node2 -->
<g id="node2" class="node">
<title>Node2</title>
<g id="a_node2"><a xlink:href="classtracktion_1_1engine_1_1HostedMidiInputDeviceNode.html" target="_top" xlink:title="A Node that intercepts MIDI from a plugin callback and inserts it in to the playback graph.">
<polygon fill="none" stroke="black" points="152,-98.5 152,-128.5 308,-128.5 308,-98.5 152,-98.5"/>
<text text-anchor="start" x="160" y="-116.5" font-family="Helvetica,sans-Serif" font-size="10.00">tracktion::engine::</text>
<text text-anchor="middle" x="230" y="-105.5" font-family="Helvetica,sans-Serif" font-size="10.00">HostedMidiInputDeviceNode</text>
</a>
</g>
</g>
<!-- Node1&#45;&gt;Node2 -->
<g id="edge1" class="edge">
<title>Node1&#45;&gt;Node2</title>
<path fill="none" stroke="midnightblue" d="M125.93,-83.79C142.88,-88.68 160.84,-93.85 176.94,-98.49"/>
<polygon fill="midnightblue" stroke="midnightblue" points="126.66,-80.36 116.08,-80.95 124.72,-87.09 126.66,-80.36"/>
</g>
<!-- Node3 -->
<g id="node3" class="node">
<title>Node3</title>
<g id="a_node3"><a xlink:href="classtracktion_1_1engine_1_1MidiInputDeviceNode.html" target="_top" xlink:title="A Node that intercepts incoming live MIDI and inserts it in to the playback graph.">
<polygon fill="none" stroke="black" points="169,-49.5 169,-79.5 291,-79.5 291,-49.5 169,-49.5"/>
<text text-anchor="start" x="177" y="-67.5" font-family="Helvetica,sans-Serif" font-size="10.00">tracktion::engine::</text>
<text text-anchor="middle" x="230" y="-56.5" font-family="Helvetica,sans-Serif" font-size="10.00">MidiInputDeviceNode</text>
</a>
</g>
</g>
<!-- Node1&#45;&gt;Node3 -->
<g id="edge2" class="edge">
<title>Node1&#45;&gt;Node3</title>
<path fill="none" stroke="midnightblue" d="M126.2,-64.5C140.29,-64.5 155.06,-64.5 168.87,-64.5"/>
<polygon fill="midnightblue" stroke="midnightblue" points="126.08,-61 116.08,-64.5 126.08,-68 126.08,-61"/>
</g>
<!-- Node4 -->
<g id="node4" class="node">
<title>Node4</title>
<g id="a_node4"><a xlink:href="classtracktion_1_1engine_1_1WaveInputDeviceNode.html" target="_top" xlink:title="A Node that intercepts incoming live audio and inserts it in to the playback graph.">
<polygon fill="none" stroke="black" points="166,-0.5 166,-30.5 294,-30.5 294,-0.5 166,-0.5"/>
<text text-anchor="start" x="174" y="-18.5" font-family="Helvetica,sans-Serif" font-size="10.00">tracktion::engine::</text>
<text text-anchor="middle" x="230" y="-7.5" font-family="Helvetica,sans-Serif" font-size="10.00">WaveInputDeviceNode</text>
</a>
</g>
</g>
<!-- Node1&#45;&gt;Node4 -->
<g id="edge3" class="edge">
<title>Node1&#45;&gt;Node4</title>
<path fill="none" stroke="midnightblue" d="M125.93,-45.21C142.88,-40.32 160.84,-35.15 176.94,-30.51"/>
<polygon fill="midnightblue" stroke="midnightblue" points="124.72,-41.91 116.08,-48.05 126.66,-48.64 124.72,-41.91"/>
</g>
</g>
</svg>
