<?xml version="1.0" encoding="UTF-8" standalone="no"?>
<!DOCTYPE svg PUBLIC "-//W3C//DTD SVG 1.1//EN"
 "http://www.w3.org/Graphics/SVG/1.1/DTD/svg11.dtd">
<!-- Generated by graphviz version 2.43.0 (0)
 -->
<!-- Title: tracktion_engine::AutomatableParameter::Listener Pages: 1 -->
<svg width="306pt" height="106pt"
 viewBox="0.00 0.00 305.50 106.00" xmlns="http://www.w3.org/2000/svg" xmlns:xlink="http://www.w3.org/1999/xlink">
<g id="graph0" class="graph" transform="scale(1 1) rotate(0) translate(4 102)">
<title>tracktion_engine::AutomatableParameter::Listener</title>
<!-- Node1 -->
<g id="node1" class="node">
<title>Node1</title>
<g id="a_node1"><a xlink:title=" ">
<polygon fill="#bfbfbf" stroke="black" points="68,-67.5 68,-97.5 235,-97.5 235,-67.5 68,-67.5"/>
<text text-anchor="start" x="76" y="-85.5" font-family="Helvetica,sans-Serif" font-size="10.00">tracktion_engine::Automatable</text>
<text text-anchor="middle" x="151.5" y="-74.5" font-family="Helvetica,sans-Serif" font-size="10.00">Parameter::Listener</text>
</a>
</g>
</g>
<!-- Node2 -->
<g id="node2" class="node">
<title>Node2</title>
<g id="a_node2"><a xlink:href="classtracktion__engine_1_1ExternalController.html" target="_top" xlink:title="Acts as a holder for a ControlSurface object.">
<polygon fill="none" stroke="black" points="0,-0.5 0,-30.5 145,-30.5 145,-0.5 0,-0.5"/>
<text text-anchor="start" x="8" y="-18.5" font-family="Helvetica,sans-Serif" font-size="10.00">tracktion_engine::External</text>
<text text-anchor="middle" x="72.5" y="-7.5" font-family="Helvetica,sans-Serif" font-size="10.00">Controller</text>
</a>
</g>
</g>
<!-- Node1&#45;&gt;Node2 -->
<g id="edge1" class="edge">
<title>Node1&#45;&gt;Node2</title>
<path fill="none" stroke="#8b1a1a" d="M126.44,-60.88C114.44,-51.01 100.37,-39.43 89.61,-30.58"/>
<polygon fill="#8b1a1a" stroke="#8b1a1a" points="124.41,-63.75 134.36,-67.4 128.86,-58.34 124.41,-63.75"/>
</g>
<!-- Node3 -->
<g id="node3" class="node">
<title>Node3</title>
<g id="a_node3"><a xlink:href="structtracktion__engine_1_1PluginEffect.html" target="_top" xlink:title=" ">
<polygon fill="none" stroke="black" points="163.5,-0.5 163.5,-30.5 297.5,-30.5 297.5,-0.5 163.5,-0.5"/>
<text text-anchor="start" x="171.5" y="-18.5" font-family="Helvetica,sans-Serif" font-size="10.00">tracktion_engine::Plugin</text>
<text text-anchor="middle" x="230.5" y="-7.5" font-family="Helvetica,sans-Serif" font-size="10.00">Effect</text>
</a>
</g>
</g>
<!-- Node1&#45;&gt;Node3 -->
<g id="edge2" class="edge">
<title>Node1&#45;&gt;Node3</title>
<path fill="none" stroke="midnightblue" d="M176.56,-60.88C188.56,-51.01 202.63,-39.43 213.39,-30.58"/>
<polygon fill="midnightblue" stroke="midnightblue" points="174.14,-58.34 168.64,-67.4 178.59,-63.75 174.14,-58.34"/>
</g>
</g>
</svg>
