<?xml version="1.0" encoding="UTF-8" standalone="no"?>
<!DOCTYPE svg PUBLIC "-//W3C//DTD SVG 1.1//EN"
 "http://www.w3.org/Graphics/SVG/1.1/DTD/svg11.dtd">
<!-- Generated by graphviz version 2.40.1 (20161225.0304)
 -->
<!-- Title: tracktion_engine::Clipboard::ContentType Pages: 1 -->
<svg width="314pt" height="529pt"
 viewBox="0.00 0.00 314.00 529.00" xmlns="http://www.w3.org/2000/svg" xmlns:xlink="http://www.w3.org/1999/xlink">
<g id="graph0" class="graph" transform="scale(1 1) rotate(0) translate(4 525)">
<title>tracktion_engine::Clipboard::ContentType</title>
<!-- Node0 -->
<g id="node1" class="node">
<title>Node0</title>
<polygon fill="#bfbfbf" stroke="#000000" points="0,-245.5 0,-275.5 135,-275.5 135,-245.5 0,-245.5"/>
<text text-anchor="start" x="8" y="-263.5" font-family="Helvetica,sans-Serif" font-size="10.00" fill="#000000">tracktion_engine::Clipboard</text>
<text text-anchor="middle" x="67.5" y="-252.5" font-family="Helvetica,sans-Serif" font-size="10.00" fill="#000000">::ContentType</text>
</g>
<!-- Node1 -->
<g id="node2" class="node">
<title>Node1</title>
<g id="a_node2"><a xlink:href="structtracktion__engine_1_1Clipboard_1_1AutomationPoints.html" target="_top" xlink:title="tracktion_engine::Clipboard\l::AutomationPoints">
<polygon fill="none" stroke="#000000" points="171,-490.5 171,-520.5 306,-520.5 306,-490.5 171,-490.5"/>
<text text-anchor="start" x="179" y="-508.5" font-family="Helvetica,sans-Serif" font-size="10.00" fill="#000000">tracktion_engine::Clipboard</text>
<text text-anchor="middle" x="238.5" y="-497.5" font-family="Helvetica,sans-Serif" font-size="10.00" fill="#000000">::AutomationPoints</text>
</a>
</g>
</g>
<!-- Node0&#45;&gt;Node1 -->
<g id="edge1" class="edge">
<title>Node0&#45;&gt;Node1</title>
<path fill="none" stroke="#191970" d="M72.5896,-285.693C83.0483,-331.1465 111.1808,-427.1848 171,-481.5 174.7753,-484.9279 179.0727,-487.8734 183.6281,-490.4031"/>
<polygon fill="#191970" stroke="#191970" points="75.9764,-284.7975 70.4078,-275.7841 69.1401,-286.3028 75.9764,-284.7975"/>
</g>
<!-- Node2 -->
<g id="node3" class="node">
<title>Node2</title>
<g id="a_node3"><a xlink:href="structtracktion__engine_1_1Clipboard_1_1Clips.html" target="_top" xlink:title="tracktion_engine::Clipboard\l::Clips">
<polygon fill="none" stroke="#000000" points="171,-441.5 171,-471.5 306,-471.5 306,-441.5 171,-441.5"/>
<text text-anchor="start" x="179" y="-459.5" font-family="Helvetica,sans-Serif" font-size="10.00" fill="#000000">tracktion_engine::Clipboard</text>
<text text-anchor="middle" x="238.5" y="-448.5" font-family="Helvetica,sans-Serif" font-size="10.00" fill="#000000">::Clips</text>
</a>
</g>
</g>
<!-- Node0&#45;&gt;Node2 -->
<g id="edge2" class="edge">
<title>Node0&#45;&gt;Node2</title>
<path fill="none" stroke="#191970" d="M76.0526,-285.0261C90.1752,-322.0823 121.7985,-392.2749 171,-432.5 175.1405,-435.8851 179.7944,-438.8101 184.6725,-441.3341"/>
<polygon fill="#191970" stroke="#191970" points="79.2835,-283.6716 72.5333,-275.5054 72.7177,-286.0987 79.2835,-283.6716"/>
</g>
<!-- Node3 -->
<g id="node4" class="node">
<title>Node3</title>
<g id="a_node4"><a xlink:href="structtracktion__engine_1_1Clipboard_1_1MIDINotes.html" target="_top" xlink:title="tracktion_engine::Clipboard\l::MIDINotes">
<polygon fill="none" stroke="#000000" points="171,-392.5 171,-422.5 306,-422.5 306,-392.5 171,-392.5"/>
<text text-anchor="start" x="179" y="-410.5" font-family="Helvetica,sans-Serif" font-size="10.00" fill="#000000">tracktion_engine::Clipboard</text>
<text text-anchor="middle" x="238.5" y="-399.5" font-family="Helvetica,sans-Serif" font-size="10.00" fill="#000000">::MIDINotes</text>
</a>
</g>
</g>
<!-- Node0&#45;&gt;Node3 -->
<g id="edge3" class="edge">
<title>Node0&#45;&gt;Node3</title>
<path fill="none" stroke="#191970" d="M81.8379,-284.1934C99.5893,-311.6745 132.267,-356.6331 171,-383.5 175.9054,-386.9026 181.3443,-389.873 186.9442,-392.4536"/>
<polygon fill="#191970" stroke="#191970" points="84.7046,-282.178 76.4029,-275.5952 78.7876,-285.9182 84.7046,-282.178"/>
</g>
<!-- Node4 -->
<g id="node5" class="node">
<title>Node4</title>
<g id="a_node5"><a xlink:href="structtracktion__engine_1_1Clipboard_1_1Modifiers.html" target="_top" xlink:title="tracktion_engine::Clipboard\l::Modifiers">
<polygon fill="none" stroke="#000000" points="171,-343.5 171,-373.5 306,-373.5 306,-343.5 171,-343.5"/>
<text text-anchor="start" x="179" y="-361.5" font-family="Helvetica,sans-Serif" font-size="10.00" fill="#000000">tracktion_engine::Clipboard</text>
<text text-anchor="middle" x="238.5" y="-350.5" font-family="Helvetica,sans-Serif" font-size="10.00" fill="#000000">::Modifiers</text>
</a>
</g>
</g>
<!-- Node0&#45;&gt;Node4 -->
<g id="edge4" class="edge">
<title>Node0&#45;&gt;Node4</title>
<path fill="none" stroke="#191970" d="M92.9792,-281.8052C113.166,-297.8991 142.6037,-319.6746 171,-334.5 177.2844,-337.781 184.1167,-340.7908 190.9412,-343.4874"/>
<polygon fill="#191970" stroke="#191970" points="95.1667,-279.073 85.1891,-275.5097 90.7669,-284.5174 95.1667,-279.073"/>
</g>
<!-- Node5 -->
<g id="node6" class="node">
<title>Node5</title>
<g id="a_node6"><a xlink:href="structtracktion__engine_1_1Clipboard_1_1Pitches.html" target="_top" xlink:title="tracktion_engine::Clipboard\l::Pitches">
<polygon fill="none" stroke="#000000" points="171,-294.5 171,-324.5 306,-324.5 306,-294.5 171,-294.5"/>
<text text-anchor="start" x="179" y="-312.5" font-family="Helvetica,sans-Serif" font-size="10.00" fill="#000000">tracktion_engine::Clipboard</text>
<text text-anchor="middle" x="238.5" y="-301.5" font-family="Helvetica,sans-Serif" font-size="10.00" fill="#000000">::Pitches</text>
</a>
</g>
</g>
<!-- Node0&#45;&gt;Node5 -->
<g id="edge5" class="edge">
<title>Node0&#45;&gt;Node5</title>
<path fill="none" stroke="#191970" d="M129.9467,-278.3941C148.3391,-283.6644 168.2697,-289.3755 185.9731,-294.4484"/>
<polygon fill="#191970" stroke="#191970" points="130.7782,-274.9916 120.2009,-275.6014 128.8499,-281.7207 130.7782,-274.9916"/>
</g>
<!-- Node6 -->
<g id="node7" class="node">
<title>Node6</title>
<g id="a_node7"><a xlink:href="structtracktion__engine_1_1Clipboard_1_1Plugins.html" target="_top" xlink:title="tracktion_engine::Clipboard\l::Plugins">
<polygon fill="none" stroke="#000000" points="171,-245.5 171,-275.5 306,-275.5 306,-245.5 171,-245.5"/>
<text text-anchor="start" x="179" y="-263.5" font-family="Helvetica,sans-Serif" font-size="10.00" fill="#000000">tracktion_engine::Clipboard</text>
<text text-anchor="middle" x="238.5" y="-252.5" font-family="Helvetica,sans-Serif" font-size="10.00" fill="#000000">::Plugins</text>
</a>
</g>
</g>
<!-- Node0&#45;&gt;Node6 -->
<g id="edge6" class="edge">
<title>Node0&#45;&gt;Node6</title>
<path fill="none" stroke="#191970" d="M145.0998,-260.5C153.692,-260.5 162.3915,-260.5 170.8472,-260.5"/>
<polygon fill="#191970" stroke="#191970" points="145.0838,-257.0001 135.0837,-260.5 145.0837,-264.0001 145.0838,-257.0001"/>
</g>
<!-- Node7 -->
<g id="node8" class="node">
<title>Node7</title>
<g id="a_node8"><a xlink:href="structtracktion__engine_1_1Clipboard_1_1ProjectItems.html" target="_top" xlink:title="tracktion_engine::Clipboard\l::ProjectItems">
<polygon fill="none" stroke="#000000" points="171,-196.5 171,-226.5 306,-226.5 306,-196.5 171,-196.5"/>
<text text-anchor="start" x="179" y="-214.5" font-family="Helvetica,sans-Serif" font-size="10.00" fill="#000000">tracktion_engine::Clipboard</text>
<text text-anchor="middle" x="238.5" y="-203.5" font-family="Helvetica,sans-Serif" font-size="10.00" fill="#000000">::ProjectItems</text>
</a>
</g>
</g>
<!-- Node0&#45;&gt;Node7 -->
<g id="edge7" class="edge">
<title>Node0&#45;&gt;Node7</title>
<path fill="none" stroke="#191970" d="M129.9467,-242.6059C148.3391,-237.3356 168.2697,-231.6245 185.9731,-226.5516"/>
<polygon fill="#191970" stroke="#191970" points="128.8499,-239.2793 120.2009,-245.3986 130.7782,-246.0084 128.8499,-239.2793"/>
</g>
<!-- Node8 -->
<g id="node9" class="node">
<title>Node8</title>
<g id="a_node9"><a xlink:href="structtracktion__engine_1_1Clipboard_1_1Takes.html" target="_top" xlink:title="tracktion_engine::Clipboard\l::Takes">
<polygon fill="none" stroke="#000000" points="171,-147.5 171,-177.5 306,-177.5 306,-147.5 171,-147.5"/>
<text text-anchor="start" x="179" y="-165.5" font-family="Helvetica,sans-Serif" font-size="10.00" fill="#000000">tracktion_engine::Clipboard</text>
<text text-anchor="middle" x="238.5" y="-154.5" font-family="Helvetica,sans-Serif" font-size="10.00" fill="#000000">::Takes</text>
</a>
</g>
</g>
<!-- Node0&#45;&gt;Node8 -->
<g id="edge8" class="edge">
<title>Node0&#45;&gt;Node8</title>
<path fill="none" stroke="#191970" d="M94.09,-238.8231C114.2934,-223.0965 143.2482,-202.1068 171,-187.5 177.8562,-183.8913 185.3507,-180.5642 192.7721,-177.594"/>
<polygon fill="#191970" stroke="#191970" points="91.6805,-236.2659 85.9963,-245.2069 96.0155,-241.7621 91.6805,-236.2659"/>
</g>
<!-- Node9 -->
<g id="node10" class="node">
<title>Node9</title>
<g id="a_node10"><a xlink:href="structtracktion__engine_1_1Clipboard_1_1TempoChanges.html" target="_top" xlink:title="tracktion_engine::Clipboard\l::TempoChanges">
<polygon fill="none" stroke="#000000" points="171,-98.5 171,-128.5 306,-128.5 306,-98.5 171,-98.5"/>
<text text-anchor="start" x="179" y="-116.5" font-family="Helvetica,sans-Serif" font-size="10.00" fill="#000000">tracktion_engine::Clipboard</text>
<text text-anchor="middle" x="238.5" y="-105.5" font-family="Helvetica,sans-Serif" font-size="10.00" fill="#000000">::TempoChanges</text>
</a>
</g>
</g>
<!-- Node0&#45;&gt;Node9 -->
<g id="edge9" class="edge">
<title>Node0&#45;&gt;Node9</title>
<path fill="none" stroke="#191970" d="M82.2302,-236.6563C100.1461,-209.449 132.777,-165.2706 171,-138.5 176.425,-134.7004 182.4969,-131.4026 188.7153,-128.5616"/>
<polygon fill="#191970" stroke="#191970" points="79.2099,-234.8819 76.7317,-245.1828 85.0927,-238.6756 79.2099,-234.8819"/>
</g>
<!-- Node10 -->
<g id="node11" class="node">
<title>Node10</title>
<g id="a_node11"><a xlink:href="structtracktion__engine_1_1Clipboard_1_1TimeSigs.html" target="_top" xlink:title="tracktion_engine::Clipboard\l::TimeSigs">
<polygon fill="none" stroke="#000000" points="171,-49.5 171,-79.5 306,-79.5 306,-49.5 171,-49.5"/>
<text text-anchor="start" x="179" y="-67.5" font-family="Helvetica,sans-Serif" font-size="10.00" fill="#000000">tracktion_engine::Clipboard</text>
<text text-anchor="middle" x="238.5" y="-56.5" font-family="Helvetica,sans-Serif" font-size="10.00" fill="#000000">::TimeSigs</text>
</a>
</g>
</g>
<!-- Node0&#45;&gt;Node10 -->
<g id="edge10" class="edge">
<title>Node0&#45;&gt;Node10</title>
<path fill="none" stroke="#191970" d="M76.2647,-235.9189C90.577,-199.1104 122.3418,-129.7094 171,-89.5 175.6239,-85.679 180.8869,-82.4119 186.3868,-79.6254"/>
<polygon fill="#191970" stroke="#191970" points="72.9485,-234.7935 72.6911,-245.3852 79.4974,-237.2658 72.9485,-234.7935"/>
</g>
<!-- Node11 -->
<g id="node12" class="node">
<title>Node11</title>
<g id="a_node12"><a xlink:href="structtracktion__engine_1_1Clipboard_1_1Tracks.html" target="_top" xlink:title="tracktion_engine::Clipboard\l::Tracks">
<polygon fill="none" stroke="#000000" points="171,-.5 171,-30.5 306,-30.5 306,-.5 171,-.5"/>
<text text-anchor="start" x="179" y="-18.5" font-family="Helvetica,sans-Serif" font-size="10.00" fill="#000000">tracktion_engine::Clipboard</text>
<text text-anchor="middle" x="238.5" y="-7.5" font-family="Helvetica,sans-Serif" font-size="10.00" fill="#000000">::Tracks</text>
</a>
</g>
</g>
<!-- Node0&#45;&gt;Node11 -->
<g id="edge11" class="edge">
<title>Node0&#45;&gt;Node11</title>
<path fill="none" stroke="#191970" d="M72.693,-235.4954C83.3186,-190.3677 111.7106,-94.9509 171,-40.5 175.2339,-36.6116 180.1256,-33.3135 185.3021,-30.5189"/>
<polygon fill="#191970" stroke="#191970" points="69.2604,-234.8071 70.4733,-245.3322 76.0887,-236.3479 69.2604,-234.8071"/>
</g>
</g>
</svg>
