<?xml version="1.0" encoding="UTF-8" standalone="no"?>
<!DOCTYPE svg PUBLIC "-//W3C//DTD SVG 1.1//EN"
 "http://www.w3.org/Graphics/SVG/1.1/DTD/svg11.dtd">
<!-- Generated by graphviz version 2.40.1 (20161225.0304)
 -->
<!-- Title: tracktion_engine::RenderManager::Job::Listener Pages: 1 -->
<svg width="390pt" height="162pt"
 viewBox="0.00 0.00 389.50 162.00" xmlns="http://www.w3.org/2000/svg" xmlns:xlink="http://www.w3.org/1999/xlink">
<g id="graph0" class="graph" transform="scale(1 1) rotate(0) translate(4 158)">
<title>tracktion_engine::RenderManager::Job::Listener</title>
<!-- Node0 -->
<g id="node1" class="node">
<title>Node0</title>
<polygon fill="#bfbfbf" stroke="#000000" points="165.5,-123.5 165.5,-153.5 290.5,-153.5 290.5,-123.5 165.5,-123.5"/>
<text text-anchor="start" x="173.5" y="-141.5" font-family="Helvetica,sans-Serif" font-size="10.00" fill="#000000">tracktion_engine::Render</text>
<text text-anchor="middle" x="228" y="-130.5" font-family="Helvetica,sans-Serif" font-size="10.00" fill="#000000">Manager::Job::Listener</text>
</g>
<!-- Node1 -->
<g id="node2" class="node">
<title>Node1</title>
<g id="a_node2"><a xlink:href="classtracktion__engine_1_1AudioClipBase.html" target="_top" xlink:title="Base class for Clips that produce some kind of audio e.g. ">
<polygon fill="none" stroke="#000000" points="66,-62 66,-81 224,-81 224,-62 66,-62"/>
<text text-anchor="middle" x="145" y="-69" font-family="Helvetica,sans-Serif" font-size="10.00" fill="#000000">tracktion_engine::AudioClipBase</text>
</a>
</g>
</g>
<!-- Node0&#45;&gt;Node1 -->
<g id="edge1" class="edge">
<title>Node0&#45;&gt;Node1</title>
<path fill="none" stroke="#191970" d="M201.213,-116.8767C186.2481,-104.7967 168.3512,-90.3498 156.8368,-81.055"/>
<polygon fill="#191970" stroke="#191970" points="199.1864,-119.7389 209.166,-123.2967 203.5832,-114.292 199.1864,-119.7389"/>
</g>
<!-- Node4 -->
<g id="node5" class="node">
<title>Node4</title>
<g id="a_node5"><a xlink:href="classtracktion__engine_1_1WarpTimeManager.html" target="_top" xlink:title="tracktion_engine::WarpTime\lManager">
<polygon fill="none" stroke="#000000" points="242.5,-56.5 242.5,-86.5 381.5,-86.5 381.5,-56.5 242.5,-56.5"/>
<text text-anchor="start" x="250.5" y="-74.5" font-family="Helvetica,sans-Serif" font-size="10.00" fill="#000000">tracktion_engine::WarpTime</text>
<text text-anchor="middle" x="312" y="-63.5" font-family="Helvetica,sans-Serif" font-size="10.00" fill="#000000">Manager</text>
</a>
</g>
</g>
<!-- Node0&#45;&gt;Node4 -->
<g id="edge4" class="edge">
<title>Node0&#45;&gt;Node4</title>
<path fill="none" stroke="#191970" d="M255.23,-116.7808C267.5699,-106.9383 281.8591,-95.541 293.0145,-86.6432"/>
<polygon fill="#191970" stroke="#191970" points="252.6962,-114.3248 247.0609,-123.2967 257.0612,-119.7973 252.6962,-114.3248"/>
</g>
<!-- Node2 -->
<g id="node3" class="node">
<title>Node2</title>
<g id="a_node3"><a xlink:href="classtracktion__engine_1_1EditClip.html" target="_top" xlink:title="This is the main source of an Edit clip and is responsible for managing its properties and creating a...">
<polygon fill="none" stroke="#000000" points="0,-.5 0,-19.5 128,-19.5 128,-.5 0,-.5"/>
<text text-anchor="middle" x="64" y="-7.5" font-family="Helvetica,sans-Serif" font-size="10.00" fill="#000000">tracktion_engine::EditClip</text>
</a>
</g>
</g>
<!-- Node1&#45;&gt;Node2 -->
<g id="edge2" class="edge">
<title>Node1&#45;&gt;Node2</title>
<path fill="none" stroke="#191970" d="M124.1232,-55.6491C109.0729,-44.222 89.2548,-29.1749 76.5674,-19.5419"/>
<polygon fill="#191970" stroke="#191970" points="122.2628,-58.6311 132.3438,-61.8906 126.4958,-53.0559 122.2628,-58.6311"/>
</g>
<!-- Node3 -->
<g id="node4" class="node">
<title>Node3</title>
<g id="a_node4"><a xlink:href="classtracktion__engine_1_1WaveAudioClip.html" target="_top" xlink:title="tracktion_engine::WaveAudioClip">
<polygon fill="none" stroke="#000000" points="146.5,-.5 146.5,-19.5 307.5,-19.5 307.5,-.5 146.5,-.5"/>
<text text-anchor="middle" x="227" y="-7.5" font-family="Helvetica,sans-Serif" font-size="10.00" fill="#000000">tracktion_engine::WaveAudioClip</text>
</a>
</g>
</g>
<!-- Node1&#45;&gt;Node3 -->
<g id="edge3" class="edge">
<title>Node1&#45;&gt;Node3</title>
<path fill="none" stroke="#191970" d="M166.1345,-55.6491C181.3707,-44.222 201.4334,-29.1749 214.2775,-19.5419"/>
<polygon fill="#191970" stroke="#191970" points="163.7125,-53.0906 157.8125,-61.8906 167.9125,-58.6906 163.7125,-53.0906"/>
</g>
</g>
</svg>
