<?xml version="1.0" encoding="UTF-8" standalone="no"?>
<!DOCTYPE svg PUBLIC "-//W3C//DTD SVG 1.1//EN"
 "http://www.w3.org/Graphics/SVG/1.1/DTD/svg11.dtd">
<!-- Generated by graphviz version 2.43.0 (0)
 -->
<!-- Title: tracktion_engine::ValueTreeAllEventListener Pages: 1 -->
<svg width="574pt" height="1763pt"
 viewBox="0.00 0.00 574.00 1763.00" xmlns="http://www.w3.org/2000/svg" xmlns:xlink="http://www.w3.org/1999/xlink">
<g id="graph0" class="graph" transform="scale(1 1) rotate(0) translate(4 1759)">
<title>tracktion_engine::ValueTreeAllEventListener</title>
<!-- Node1 -->
<g id="node1" class="node">
<title>Node1</title>
<g id="a_node1"><a xlink:title=" ">
<polygon fill="#bfbfbf" stroke="black" points="0,-738.5 0,-768.5 152,-768.5 152,-738.5 0,-738.5"/>
<text text-anchor="start" x="8" y="-756.5" font-family="Helvetica,sans-Serif" font-size="10.00">tracktion_engine::ValueTree</text>
<text text-anchor="middle" x="76" y="-745.5" font-family="Helvetica,sans-Serif" font-size="10.00">AllEventListener</text>
</a>
</g>
</g>
<!-- Node2 -->
<g id="node2" class="node">
<title>Node2</title>
<g id="a_node2"><a xlink:href="classtracktion__engine_1_1BreakpointOscillatorModifier.html" target="_top" xlink:title=" ">
<polygon fill="none" stroke="black" points="192,-1498.5 192,-1528.5 350,-1528.5 350,-1498.5 192,-1498.5"/>
<text text-anchor="start" x="200" y="-1516.5" font-family="Helvetica,sans-Serif" font-size="10.00">tracktion_engine::Breakpoint</text>
<text text-anchor="middle" x="271" y="-1505.5" font-family="Helvetica,sans-Serif" font-size="10.00">OscillatorModifier</text>
</a>
</g>
</g>
<!-- Node1&#45;&gt;Node2 -->
<g id="edge1" class="edge">
<title>Node1&#45;&gt;Node2</title>
<path fill="none" stroke="#8b1a1a" d="M77.32,-778.78C79.3,-895.2 93.21,-1378.75 188,-1488.5 191.31,-1492.33 195.18,-1495.58 199.42,-1498.35"/>
<polygon fill="#8b1a1a" stroke="#8b1a1a" points="80.82,-778.63 77.16,-768.68 73.82,-778.73 80.82,-778.63"/>
</g>
<!-- Node3 -->
<g id="node3" class="node">
<title>Node3</title>
<g id="a_node3"><a xlink:href="classtracktion__engine_1_1ClipEffect.html" target="_top" xlink:title=" ">
<polygon fill="none" stroke="black" points="195.5,-1460 195.5,-1479 346.5,-1479 346.5,-1460 195.5,-1460"/>
<text text-anchor="middle" x="271" y="-1467" font-family="Helvetica,sans-Serif" font-size="10.00">tracktion_engine::ClipEffect</text>
</a>
</g>
</g>
<!-- Node1&#45;&gt;Node3 -->
<g id="edge2" class="edge">
<title>Node1&#45;&gt;Node3</title>
<path fill="none" stroke="darkgreen" d="M83.77,-778.63C115.29,-895.54 246.9,-1383.79 267.33,-1459.59"/>
<polygon fill="darkgreen" stroke="darkgreen" points="87.1,-777.53 81.12,-768.79 80.34,-779.35 87.1,-777.53"/>
</g>
<!-- Node14 -->
<g id="node14" class="node">
<title>Node14</title>
<g id="a_node14"><a xlink:href="classtracktion__engine_1_1EnvelopeFollowerModifier.html" target="_top" xlink:title=" ">
<polygon fill="none" stroke="black" points="196.5,-875.5 196.5,-905.5 345.5,-905.5 345.5,-875.5 196.5,-875.5"/>
<text text-anchor="start" x="204.5" y="-893.5" font-family="Helvetica,sans-Serif" font-size="10.00">tracktion_engine::Envelope</text>
<text text-anchor="middle" x="271" y="-882.5" font-family="Helvetica,sans-Serif" font-size="10.00">FollowerModifier</text>
</a>
</g>
</g>
<!-- Node1&#45;&gt;Node14 -->
<g id="edge13" class="edge">
<title>Node1&#45;&gt;Node14</title>
<path fill="none" stroke="#8b1a1a" d="M94.01,-776.49C113.88,-801.8 149.04,-841.99 188,-865.5 194.37,-869.34 201.38,-872.64 208.54,-875.46"/>
<polygon fill="#8b1a1a" stroke="#8b1a1a" points="96.75,-774.31 87.87,-768.53 91.2,-778.59 96.75,-774.31"/>
</g>
<!-- Node15 -->
<g id="node15" class="node">
<title>Node15</title>
<g id="a_node15"><a xlink:href="classtracktion__engine_1_1LFOModifier.html" target="_top" xlink:title=" ">
<polygon fill="none" stroke="black" points="189.5,-837 189.5,-856 352.5,-856 352.5,-837 189.5,-837"/>
<text text-anchor="middle" x="271" y="-844" font-family="Helvetica,sans-Serif" font-size="10.00">tracktion_engine::LFOModifier</text>
</a>
</g>
</g>
<!-- Node1&#45;&gt;Node15 -->
<g id="edge14" class="edge">
<title>Node1&#45;&gt;Node15</title>
<path fill="none" stroke="#8b1a1a" d="M103.05,-774.83C124.6,-791.47 156.66,-813.96 188,-827.5 196.85,-831.33 206.59,-834.44 216.17,-836.96"/>
<polygon fill="#8b1a1a" stroke="#8b1a1a" points="105.07,-771.97 95.05,-768.55 100.75,-777.48 105.07,-771.97"/>
</g>
<!-- Node16 -->
<g id="node16" class="node">
<title>Node16</title>
<g id="a_node16"><a xlink:href="classtracktion__engine_1_1MIDITrackerModifier.html" target="_top" xlink:title=" ">
<polygon fill="none" stroke="black" points="190.5,-787.5 190.5,-817.5 351.5,-817.5 351.5,-787.5 190.5,-787.5"/>
<text text-anchor="start" x="198.5" y="-805.5" font-family="Helvetica,sans-Serif" font-size="10.00">tracktion_engine::MIDITracker</text>
<text text-anchor="middle" x="271" y="-794.5" font-family="Helvetica,sans-Serif" font-size="10.00">Modifier</text>
</a>
</g>
</g>
<!-- Node1&#45;&gt;Node16 -->
<g id="edge15" class="edge">
<title>Node1&#45;&gt;Node16</title>
<path fill="none" stroke="#8b1a1a" d="M146.12,-771.05C167.32,-776.43 190.43,-782.3 210.89,-787.49"/>
<polygon fill="#8b1a1a" stroke="#8b1a1a" points="146.77,-767.6 136.22,-768.53 145.05,-774.39 146.77,-767.6"/>
</g>
<!-- Node17 -->
<g id="node17" class="node">
<title>Node17</title>
<g id="a_node17"><a xlink:href="classtracktion__engine_1_1PatternGenerator.html" target="_top" xlink:title=" ">
<polygon fill="none" stroke="black" points="201.5,-738.5 201.5,-768.5 340.5,-768.5 340.5,-738.5 201.5,-738.5"/>
<text text-anchor="start" x="209.5" y="-756.5" font-family="Helvetica,sans-Serif" font-size="10.00">tracktion_engine::Pattern</text>
<text text-anchor="middle" x="271" y="-745.5" font-family="Helvetica,sans-Serif" font-size="10.00">Generator</text>
</a>
</g>
</g>
<!-- Node1&#45;&gt;Node17 -->
<g id="edge16" class="edge">
<title>Node1&#45;&gt;Node17</title>
<path fill="none" stroke="#8b1a1a" d="M162.51,-753.5C175.5,-753.5 188.76,-753.5 201.33,-753.5"/>
<polygon fill="#8b1a1a" stroke="#8b1a1a" points="162.17,-750 152.17,-753.5 162.17,-757 162.17,-750"/>
</g>
<!-- Node18 -->
<g id="node18" class="node">
<title>Node18</title>
<g id="a_node18"><a xlink:href="classtracktion__engine_1_1PitchSetting.html" target="_top" xlink:title=" ">
<polygon fill="none" stroke="black" points="189.5,-700 189.5,-719 352.5,-719 352.5,-700 189.5,-700"/>
<text text-anchor="middle" x="271" y="-707" font-family="Helvetica,sans-Serif" font-size="10.00">tracktion_engine::PitchSetting</text>
</a>
</g>
</g>
<!-- Node1&#45;&gt;Node18 -->
<g id="edge17" class="edge">
<title>Node1&#45;&gt;Node18</title>
<path fill="none" stroke="#8b1a1a" d="M152.97,-736.18C178.61,-730.34 206.28,-724.03 228.28,-719.01"/>
<polygon fill="#8b1a1a" stroke="#8b1a1a" points="151.85,-732.85 142.88,-738.48 153.41,-739.67 151.85,-732.85"/>
</g>
<!-- Node19 -->
<g id="node19" class="node">
<title>Node19</title>
<g id="a_node19"><a xlink:href="classtracktion__engine_1_1Plugin.html" target="_top" xlink:title=" ">
<polygon fill="none" stroke="black" points="204,-662 204,-681 338,-681 338,-662 204,-662"/>
<text text-anchor="middle" x="271" y="-669" font-family="Helvetica,sans-Serif" font-size="10.00">tracktion_engine::Plugin</text>
</a>
</g>
</g>
<!-- Node1&#45;&gt;Node19 -->
<g id="edge18" class="edge">
<title>Node1&#45;&gt;Node19</title>
<path fill="none" stroke="darkgreen" d="M107.44,-733.03C129.11,-719.27 159.33,-701.68 188,-690.5 197.67,-686.73 208.28,-683.59 218.57,-681.02"/>
<polygon fill="darkgreen" stroke="darkgreen" points="105.51,-730.11 99.01,-738.47 109.31,-735.99 105.51,-730.11"/>
</g>
<!-- Node47 -->
<g id="node47" class="node">
<title>Node47</title>
<g id="a_node47"><a xlink:href="classtracktion__engine_1_1RandomModifier.html" target="_top" xlink:title=" ">
<polygon fill="none" stroke="black" points="198.5,-612.5 198.5,-642.5 343.5,-642.5 343.5,-612.5 198.5,-612.5"/>
<text text-anchor="start" x="206.5" y="-630.5" font-family="Helvetica,sans-Serif" font-size="10.00">tracktion_engine::Random</text>
<text text-anchor="middle" x="271" y="-619.5" font-family="Helvetica,sans-Serif" font-size="10.00">Modifier</text>
</a>
</g>
</g>
<!-- Node1&#45;&gt;Node47 -->
<g id="edge46" class="edge">
<title>Node1&#45;&gt;Node47</title>
<path fill="none" stroke="#8b1a1a" d="M96.44,-730.67C117.03,-707.85 151.53,-673.24 188,-652.5 194.73,-648.67 202.11,-645.37 209.59,-642.54"/>
<polygon fill="#8b1a1a" stroke="#8b1a1a" points="93.77,-728.4 89.76,-738.21 99.01,-733.05 93.77,-728.4"/>
</g>
<!-- Node48 -->
<g id="node48" class="node">
<title>Node48</title>
<g id="a_node48"><a xlink:href="classtracktion__engine_1_1StepModifier.html" target="_top" xlink:title=" ">
<polygon fill="none" stroke="black" points="188,-574 188,-593 354,-593 354,-574 188,-574"/>
<text text-anchor="middle" x="271" y="-581" font-family="Helvetica,sans-Serif" font-size="10.00">tracktion_engine::StepModifier</text>
</a>
</g>
</g>
<!-- Node1&#45;&gt;Node48 -->
<g id="edge47" class="edge">
<title>Node1&#45;&gt;Node48</title>
<path fill="none" stroke="#8b1a1a" d="M88.15,-729.32C104.91,-695.73 139.87,-635.48 188,-603.5 194.59,-599.12 202.05,-595.7 209.72,-593.03"/>
<polygon fill="#8b1a1a" stroke="#8b1a1a" points="84.94,-727.91 83.72,-738.43 91.24,-730.97 84.94,-727.91"/>
</g>
<!-- Node49 -->
<g id="node49" class="node">
<title>Node49</title>
<g id="a_node49"><a xlink:href="classtracktion__engine_1_1TimeSigSetting.html" target="_top" xlink:title=" ">
<polygon fill="none" stroke="black" points="199,-524.5 199,-554.5 343,-554.5 343,-524.5 199,-524.5"/>
<text text-anchor="start" x="207" y="-542.5" font-family="Helvetica,sans-Serif" font-size="10.00">tracktion_engine::TimeSig</text>
<text text-anchor="middle" x="271" y="-531.5" font-family="Helvetica,sans-Serif" font-size="10.00">Setting</text>
</a>
</g>
</g>
<!-- Node1&#45;&gt;Node49 -->
<g id="edge48" class="edge">
<title>Node1&#45;&gt;Node49</title>
<path fill="none" stroke="#8b1a1a" d="M84.83,-728.85C98.91,-688.49 132.34,-608.4 188,-564.5 192.91,-560.63 198.41,-557.36 204.19,-554.59"/>
<polygon fill="#8b1a1a" stroke="#8b1a1a" points="81.48,-727.85 81.59,-738.44 88.11,-730.09 81.48,-727.85"/>
</g>
<!-- Node4 -->
<g id="node4" class="node">
<title>Node4</title>
<g id="a_node4"><a xlink:href="structtracktion__engine_1_1FadeInOutEffect.html" target="_top" xlink:title=" ">
<polygon fill="none" stroke="black" points="410,-1724.5 410,-1754.5 546,-1754.5 546,-1724.5 410,-1724.5"/>
<text text-anchor="start" x="418" y="-1742.5" font-family="Helvetica,sans-Serif" font-size="10.00">tracktion_engine::FadeIn</text>
<text text-anchor="middle" x="478" y="-1731.5" font-family="Helvetica,sans-Serif" font-size="10.00">OutEffect</text>
</a>
</g>
</g>
<!-- Node3&#45;&gt;Node4 -->
<g id="edge3" class="edge">
<title>Node3&#45;&gt;Node4</title>
<path fill="none" stroke="midnightblue" d="M348.94,-1484.77C350.73,-1486.22 352.43,-1487.79 354,-1489.5 422.94,-1564.28 322.19,-1639.69 390,-1715.5 395.43,-1721.57 402.25,-1726.17 409.66,-1729.64"/>
<polygon fill="midnightblue" stroke="midnightblue" points="350.79,-1481.8 340.52,-1479.19 346.92,-1487.63 350.79,-1481.8"/>
</g>
<!-- Node5 -->
<g id="node5" class="node">
<title>Node5</title>
<g id="a_node5"><a xlink:href="structtracktion__engine_1_1InvertEffect.html" target="_top" xlink:title=" ">
<polygon fill="none" stroke="black" points="411.5,-1675.5 411.5,-1705.5 544.5,-1705.5 544.5,-1675.5 411.5,-1675.5"/>
<text text-anchor="start" x="419.5" y="-1693.5" font-family="Helvetica,sans-Serif" font-size="10.00">tracktion_engine::Invert</text>
<text text-anchor="middle" x="478" y="-1682.5" font-family="Helvetica,sans-Serif" font-size="10.00">Effect</text>
</a>
</g>
</g>
<!-- Node3&#45;&gt;Node5 -->
<g id="edge4" class="edge">
<title>Node3&#45;&gt;Node5</title>
<path fill="none" stroke="midnightblue" d="M348.71,-1484.75C350.58,-1486.21 352.35,-1487.78 354,-1489.5 409.66,-1547.35 335.21,-1607.82 390,-1666.5 395.88,-1672.8 403.25,-1677.5 411.2,-1681"/>
<polygon fill="midnightblue" stroke="midnightblue" points="350.25,-1481.59 339.94,-1479.17 346.49,-1487.49 350.25,-1481.59"/>
</g>
<!-- Node6 -->
<g id="node6" class="node">
<title>Node6</title>
<g id="a_node6"><a xlink:href="structtracktion__engine_1_1MakeMonoEffect.html" target="_top" xlink:title=" ">
<polygon fill="none" stroke="black" points="399,-1626.5 399,-1656.5 557,-1656.5 557,-1626.5 399,-1626.5"/>
<text text-anchor="start" x="407" y="-1644.5" font-family="Helvetica,sans-Serif" font-size="10.00">tracktion_engine::MakeMono</text>
<text text-anchor="middle" x="478" y="-1633.5" font-family="Helvetica,sans-Serif" font-size="10.00">Effect</text>
</a>
</g>
</g>
<!-- Node3&#45;&gt;Node6 -->
<g id="edge5" class="edge">
<title>Node3&#45;&gt;Node6</title>
<path fill="none" stroke="midnightblue" d="M347.79,-1484.37C349.98,-1485.92 352.06,-1487.63 354,-1489.5 396.51,-1530.55 348.11,-1575.82 390,-1617.5 393.44,-1620.93 397.33,-1623.87 401.5,-1626.41"/>
<polygon fill="midnightblue" stroke="midnightblue" points="349.22,-1481.15 338.82,-1479.1 345.67,-1487.19 349.22,-1481.15"/>
</g>
<!-- Node7 -->
<g id="node7" class="node">
<title>Node7</title>
<g id="a_node7"><a xlink:href="structtracktion__engine_1_1NormaliseEffect.html" target="_top" xlink:title=" ">
<polygon fill="none" stroke="black" points="400.5,-1577.5 400.5,-1607.5 555.5,-1607.5 555.5,-1577.5 400.5,-1577.5"/>
<text text-anchor="start" x="408.5" y="-1595.5" font-family="Helvetica,sans-Serif" font-size="10.00">tracktion_engine::Normalise</text>
<text text-anchor="middle" x="478" y="-1584.5" font-family="Helvetica,sans-Serif" font-size="10.00">Effect</text>
</a>
</g>
</g>
<!-- Node3&#45;&gt;Node7 -->
<g id="edge6" class="edge">
<title>Node3&#45;&gt;Node7</title>
<path fill="none" stroke="midnightblue" d="M345.68,-1483.71C348.61,-1485.43 351.4,-1487.35 354,-1489.5 383.73,-1514.1 360.64,-1543.46 390,-1568.5 394.05,-1571.96 398.56,-1574.92 403.34,-1577.46"/>
<polygon fill="midnightblue" stroke="midnightblue" points="347.03,-1480.47 336.52,-1479.12 343.9,-1486.73 347.03,-1480.47"/>
</g>
<!-- Node8 -->
<g id="node8" class="node">
<title>Node8</title>
<g id="a_node8"><a xlink:href="structtracktion__engine_1_1PitchShiftEffect.html" target="_top" xlink:title=" ">
<polygon fill="none" stroke="black" points="403,-1528.5 403,-1558.5 553,-1558.5 553,-1528.5 403,-1528.5"/>
<text text-anchor="start" x="411" y="-1546.5" font-family="Helvetica,sans-Serif" font-size="10.00">tracktion_engine::PitchShift</text>
<text text-anchor="middle" x="478" y="-1535.5" font-family="Helvetica,sans-Serif" font-size="10.00">Effect</text>
</a>
</g>
</g>
<!-- Node3&#45;&gt;Node8 -->
<g id="edge7" class="edge">
<title>Node3&#45;&gt;Node8</title>
<path fill="none" stroke="midnightblue" d="M336.02,-1482.06C342.24,-1484.18 348.33,-1486.64 354,-1489.5 372.6,-1498.88 371.55,-1509.85 390,-1519.5 396.53,-1522.91 403.59,-1525.88 410.77,-1528.46"/>
<polygon fill="midnightblue" stroke="midnightblue" points="336.78,-1478.63 326.19,-1479 334.7,-1485.31 336.78,-1478.63"/>
</g>
<!-- Node9 -->
<g id="node9" class="node">
<title>Node9</title>
<g id="a_node9"><a xlink:href="structtracktion__engine_1_1PluginEffect.html" target="_top" xlink:title=" ">
<polygon fill="none" stroke="black" points="411,-1479.5 411,-1509.5 545,-1509.5 545,-1479.5 411,-1479.5"/>
<text text-anchor="start" x="419" y="-1497.5" font-family="Helvetica,sans-Serif" font-size="10.00">tracktion_engine::Plugin</text>
<text text-anchor="middle" x="478" y="-1486.5" font-family="Helvetica,sans-Serif" font-size="10.00">Effect</text>
</a>
</g>
</g>
<!-- Node3&#45;&gt;Node9 -->
<g id="edge8" class="edge">
<title>Node3&#45;&gt;Node9</title>
<path fill="none" stroke="midnightblue" d="M356.57,-1479.81C374.71,-1482.03 393.63,-1484.33 410.95,-1486.44"/>
<polygon fill="midnightblue" stroke="midnightblue" points="356.94,-1476.33 346.59,-1478.6 356.09,-1483.28 356.94,-1476.33"/>
</g>
<!-- Node10 -->
<g id="node10" class="node">
<title>Node10</title>
<g id="a_node10"><a xlink:href="structtracktion__engine_1_1ReverseEffect.html" target="_top" xlink:title=" ">
<polygon fill="none" stroke="black" points="406,-1430.5 406,-1460.5 550,-1460.5 550,-1430.5 406,-1430.5"/>
<text text-anchor="start" x="414" y="-1448.5" font-family="Helvetica,sans-Serif" font-size="10.00">tracktion_engine::Reverse</text>
<text text-anchor="middle" x="478" y="-1437.5" font-family="Helvetica,sans-Serif" font-size="10.00">Effect</text>
</a>
</g>
</g>
<!-- Node3&#45;&gt;Node10 -->
<g id="edge9" class="edge">
<title>Node3&#45;&gt;Node10</title>
<path fill="none" stroke="midnightblue" d="M356.68,-1459.59C373.03,-1457.67 390.01,-1455.68 405.88,-1453.83"/>
<polygon fill="midnightblue" stroke="midnightblue" points="356.11,-1456.13 346.59,-1460.77 356.93,-1463.08 356.11,-1456.13"/>
</g>
<!-- Node11 -->
<g id="node11" class="node">
<title>Node11</title>
<g id="a_node11"><a xlink:href="structtracktion__engine_1_1StepVolumeEffect.html" target="_top" xlink:title=" ">
<polygon fill="none" stroke="black" points="396.5,-1381.5 396.5,-1411.5 559.5,-1411.5 559.5,-1381.5 396.5,-1381.5"/>
<text text-anchor="start" x="404.5" y="-1399.5" font-family="Helvetica,sans-Serif" font-size="10.00">tracktion_engine::StepVolume</text>
<text text-anchor="middle" x="478" y="-1388.5" font-family="Helvetica,sans-Serif" font-size="10.00">Effect</text>
</a>
</g>
</g>
<!-- Node3&#45;&gt;Node11 -->
<g id="edge10" class="edge">
<title>Node3&#45;&gt;Node11</title>
<path fill="none" stroke="midnightblue" d="M302.96,-1455.85C326.56,-1445.7 360.01,-1431.88 390,-1421.5 399.95,-1418.06 410.65,-1414.7 421.03,-1411.63"/>
<polygon fill="midnightblue" stroke="midnightblue" points="301.27,-1452.77 293.48,-1459.95 304.05,-1459.19 301.27,-1452.77"/>
</g>
<!-- Node12 -->
<g id="node12" class="node">
<title>Node12</title>
<g id="a_node12"><a xlink:href="structtracktion__engine_1_1VolumeEffect.html" target="_top" xlink:title=" ">
<polygon fill="none" stroke="black" points="407.5,-1332.5 407.5,-1362.5 548.5,-1362.5 548.5,-1332.5 407.5,-1332.5"/>
<text text-anchor="start" x="415.5" y="-1350.5" font-family="Helvetica,sans-Serif" font-size="10.00">tracktion_engine::Volume</text>
<text text-anchor="middle" x="478" y="-1339.5" font-family="Helvetica,sans-Serif" font-size="10.00">Effect</text>
</a>
</g>
</g>
<!-- Node3&#45;&gt;Node12 -->
<g id="edge11" class="edge">
<title>Node3&#45;&gt;Node12</title>
<path fill="none" stroke="midnightblue" d="M288.07,-1452.55C309.41,-1430.98 349.2,-1393.94 390,-1372.5 397.23,-1368.7 405.12,-1365.41 413.09,-1362.58"/>
<polygon fill="midnightblue" stroke="midnightblue" points="285.29,-1450.39 280.83,-1460 290.31,-1455.27 285.29,-1450.39"/>
</g>
<!-- Node13 -->
<g id="node13" class="node">
<title>Node13</title>
<g id="a_node13"><a xlink:href="structtracktion__engine_1_1WarpTimeEffect.html" target="_top" xlink:title=" ">
<polygon fill="none" stroke="black" points="401,-1283.5 401,-1313.5 555,-1313.5 555,-1283.5 401,-1283.5"/>
<text text-anchor="start" x="409" y="-1301.5" font-family="Helvetica,sans-Serif" font-size="10.00">tracktion_engine::WarpTime</text>
<text text-anchor="middle" x="478" y="-1290.5" font-family="Helvetica,sans-Serif" font-size="10.00">Effect</text>
</a>
</g>
</g>
<!-- Node3&#45;&gt;Node13 -->
<g id="edge12" class="edge">
<title>Node3&#45;&gt;Node13</title>
<path fill="none" stroke="midnightblue" d="M281.83,-1451.08C299.36,-1420.02 339.02,-1357.3 390,-1323.5 395.76,-1319.68 402.12,-1316.43 408.68,-1313.68"/>
<polygon fill="midnightblue" stroke="midnightblue" points="278.69,-1449.53 276.93,-1459.98 284.82,-1452.91 278.69,-1449.53"/>
</g>
<!-- Node20 -->
<g id="node20" class="node">
<title>Node20</title>
<g id="a_node20"><a xlink:href="classtracktion__engine_1_1AirWindowsPlugin.html" target="_top" xlink:title=" ">
<polygon fill="none" stroke="black" points="397,-1234.5 397,-1264.5 559,-1264.5 559,-1234.5 397,-1234.5"/>
<text text-anchor="start" x="405" y="-1252.5" font-family="Helvetica,sans-Serif" font-size="10.00">tracktion_engine::AirWindows</text>
<text text-anchor="middle" x="478" y="-1241.5" font-family="Helvetica,sans-Serif" font-size="10.00">Plugin</text>
</a>
</g>
</g>
<!-- Node19&#45;&gt;Node20 -->
<g id="edge19" class="edge">
<title>Node19&#45;&gt;Node20</title>
<path fill="none" stroke="midnightblue" d="M347.21,-684.08C349.68,-685.97 351.96,-688.1 354,-690.5 431.23,-781.24 314.67,-1133.18 390,-1225.5 392.77,-1228.9 395.98,-1231.84 399.49,-1234.39"/>
<polygon fill="midnightblue" stroke="midnightblue" points="348.56,-680.8 338.21,-678.55 344.9,-686.77 348.56,-680.8"/>
</g>
<!-- Node21 -->
<g id="node21" class="node">
<title>Node21</title>
<g id="a_node21"><a xlink:href="classtracktion__engine_1_1AuxReturnPlugin.html" target="_top" xlink:title=" ">
<polygon fill="none" stroke="black" points="400.5,-1185.5 400.5,-1215.5 555.5,-1215.5 555.5,-1185.5 400.5,-1185.5"/>
<text text-anchor="start" x="408.5" y="-1203.5" font-family="Helvetica,sans-Serif" font-size="10.00">tracktion_engine::AuxReturn</text>
<text text-anchor="middle" x="478" y="-1192.5" font-family="Helvetica,sans-Serif" font-size="10.00">Plugin</text>
</a>
</g>
</g>
<!-- Node19&#45;&gt;Node21 -->
<g id="edge20" class="edge">
<title>Node19&#45;&gt;Node21</title>
<path fill="none" stroke="midnightblue" d="M347.19,-684.1C349.66,-685.98 351.95,-688.11 354,-690.5 424.47,-772.73 321.25,-1092.82 390,-1176.5 392.98,-1180.13 396.46,-1183.24 400.28,-1185.9"/>
<polygon fill="midnightblue" stroke="midnightblue" points="348.53,-680.81 338.18,-678.58 344.88,-686.78 348.53,-680.81"/>
</g>
<!-- Node22 -->
<g id="node22" class="node">
<title>Node22</title>
<g id="a_node22"><a xlink:href="classtracktion__engine_1_1AuxSendPlugin.html" target="_top" xlink:title=" ">
<polygon fill="none" stroke="black" points="404.5,-1136.5 404.5,-1166.5 551.5,-1166.5 551.5,-1136.5 404.5,-1136.5"/>
<text text-anchor="start" x="412.5" y="-1154.5" font-family="Helvetica,sans-Serif" font-size="10.00">tracktion_engine::AuxSend</text>
<text text-anchor="middle" x="478" y="-1143.5" font-family="Helvetica,sans-Serif" font-size="10.00">Plugin</text>
</a>
</g>
</g>
<!-- Node19&#45;&gt;Node22 -->
<g id="edge21" class="edge">
<title>Node19&#45;&gt;Node22</title>
<path fill="none" stroke="midnightblue" d="M347.17,-684.12C349.64,-686 351.94,-688.12 354,-690.5 417.71,-764.23 327.83,-1052.47 390,-1127.5 394,-1132.33 398.87,-1136.23 404.25,-1139.38"/>
<polygon fill="midnightblue" stroke="midnightblue" points="348.5,-680.83 338.14,-678.61 344.85,-686.81 348.5,-680.83"/>
</g>
<!-- Node23 -->
<g id="node23" class="node">
<title>Node23</title>
<g id="a_node23"><a xlink:href="classtracktion__engine_1_1ChorusPlugin.html" target="_top" xlink:title=" ">
<polygon fill="none" stroke="black" points="409,-1087.5 409,-1117.5 547,-1117.5 547,-1087.5 409,-1087.5"/>
<text text-anchor="start" x="417" y="-1105.5" font-family="Helvetica,sans-Serif" font-size="10.00">tracktion_engine::Chorus</text>
<text text-anchor="middle" x="478" y="-1094.5" font-family="Helvetica,sans-Serif" font-size="10.00">Plugin</text>
</a>
</g>
</g>
<!-- Node19&#45;&gt;Node23 -->
<g id="edge22" class="edge">
<title>Node19&#45;&gt;Node23</title>
<path fill="none" stroke="midnightblue" d="M347.14,-684.15C349.62,-686.02 351.93,-688.13 354,-690.5 410.96,-755.73 334.41,-1012.11 390,-1078.5 395.13,-1084.63 401.67,-1089.26 408.85,-1092.76"/>
<polygon fill="midnightblue" stroke="midnightblue" points="348.45,-680.85 338.08,-678.66 344.82,-686.83 348.45,-680.85"/>
</g>
<!-- Node24 -->
<g id="node24" class="node">
<title>Node24</title>
<g id="a_node24"><a xlink:href="classtracktion__engine_1_1CompressorPlugin.html" target="_top" xlink:title=" ">
<polygon fill="none" stroke="black" points="396.5,-1038.5 396.5,-1068.5 559.5,-1068.5 559.5,-1038.5 396.5,-1038.5"/>
<text text-anchor="start" x="404.5" y="-1056.5" font-family="Helvetica,sans-Serif" font-size="10.00">tracktion_engine::Compressor</text>
<text text-anchor="middle" x="478" y="-1045.5" font-family="Helvetica,sans-Serif" font-size="10.00">Plugin</text>
</a>
</g>
</g>
<!-- Node19&#45;&gt;Node24 -->
<g id="edge23" class="edge">
<title>Node19&#45;&gt;Node24</title>
<path fill="none" stroke="midnightblue" d="M347.1,-684.18C349.59,-686.04 351.91,-688.14 354,-690.5 454.14,-803.62 292.85,-912.81 390,-1028.5 393.23,-1032.35 397.02,-1035.63 401.17,-1038.42"/>
<polygon fill="midnightblue" stroke="midnightblue" points="348.39,-680.87 338.01,-678.72 344.78,-686.87 348.39,-680.87"/>
</g>
<!-- Node25 -->
<g id="node25" class="node">
<title>Node25</title>
<g id="a_node25"><a xlink:href="classtracktion__engine_1_1DelayPlugin.html" target="_top" xlink:title=" ">
<polygon fill="none" stroke="black" points="396.5,-1000 396.5,-1019 559.5,-1019 559.5,-1000 396.5,-1000"/>
<text text-anchor="middle" x="478" y="-1007" font-family="Helvetica,sans-Serif" font-size="10.00">tracktion_engine::DelayPlugin</text>
</a>
</g>
</g>
<!-- Node19&#45;&gt;Node25 -->
<g id="edge24" class="edge">
<title>Node19&#45;&gt;Node25</title>
<path fill="none" stroke="midnightblue" d="M347.22,-684.34C349.67,-686.16 351.94,-688.21 354,-690.5 443.68,-790.46 299.69,-891.11 390,-990.5 393.43,-994.28 397.42,-997.39 401.77,-999.96"/>
<polygon fill="midnightblue" stroke="midnightblue" points="348.71,-681.15 338.34,-678.97 345.09,-687.14 348.71,-681.15"/>
</g>
<!-- Node26 -->
<g id="node26" class="node">
<title>Node26</title>
<g id="a_node26"><a xlink:href="classtracktion__engine_1_1EqualiserPlugin.html" target="_top" xlink:title=" ">
<polygon fill="none" stroke="black" points="403.5,-950.5 403.5,-980.5 552.5,-980.5 552.5,-950.5 403.5,-950.5"/>
<text text-anchor="start" x="411.5" y="-968.5" font-family="Helvetica,sans-Serif" font-size="10.00">tracktion_engine::Equaliser</text>
<text text-anchor="middle" x="478" y="-957.5" font-family="Helvetica,sans-Serif" font-size="10.00">Plugin</text>
</a>
</g>
</g>
<!-- Node19&#45;&gt;Node26 -->
<g id="edge25" class="edge">
<title>Node19&#45;&gt;Node26</title>
<path fill="none" stroke="midnightblue" d="M347.16,-684.4C349.62,-686.2 351.92,-688.23 354,-690.5 430.22,-773.51 315.52,-856.93 390,-941.5 393.83,-945.85 398.37,-949.44 403.34,-952.41"/>
<polygon fill="midnightblue" stroke="midnightblue" points="348.61,-681.19 338.23,-679.07 345.02,-687.2 348.61,-681.19"/>
</g>
<!-- Node27 -->
<g id="node27" class="node">
<title>Node27</title>
<g id="a_node27"><a xlink:href="classtracktion__engine_1_1ExternalPlugin.html" target="_top" xlink:title=" ">
<polygon fill="none" stroke="black" points="405.5,-901.5 405.5,-931.5 550.5,-931.5 550.5,-901.5 405.5,-901.5"/>
<text text-anchor="start" x="413.5" y="-919.5" font-family="Helvetica,sans-Serif" font-size="10.00">tracktion_engine::External</text>
<text text-anchor="middle" x="478" y="-908.5" font-family="Helvetica,sans-Serif" font-size="10.00">Plugin</text>
</a>
</g>
</g>
<!-- Node19&#45;&gt;Node27 -->
<g id="edge26" class="edge">
<title>Node19&#45;&gt;Node27</title>
<path fill="none" stroke="midnightblue" d="M347.06,-684.49C349.55,-686.27 351.88,-688.27 354,-690.5 416.81,-756.62 328.58,-825.1 390,-892.5 394.33,-897.25 399.5,-901.09 405.14,-904.2"/>
<polygon fill="midnightblue" stroke="midnightblue" points="348.46,-681.25 338.06,-679.23 344.93,-687.3 348.46,-681.25"/>
</g>
<!-- Node28 -->
<g id="node28" class="node">
<title>Node28</title>
<g id="a_node28"><a xlink:href="classtracktion__engine_1_1FourOscPlugin.html" target="_top" xlink:title=" ">
<polygon fill="none" stroke="black" points="406.5,-852.5 406.5,-882.5 549.5,-882.5 549.5,-852.5 406.5,-852.5"/>
<text text-anchor="start" x="414.5" y="-870.5" font-family="Helvetica,sans-Serif" font-size="10.00">tracktion_engine::FourOsc</text>
<text text-anchor="middle" x="478" y="-859.5" font-family="Helvetica,sans-Serif" font-size="10.00">Plugin</text>
</a>
</g>
</g>
<!-- Node19&#45;&gt;Node28 -->
<g id="edge27" class="edge">
<title>Node19&#45;&gt;Node28</title>
<path fill="none" stroke="midnightblue" d="M347.07,-684.75C349.54,-686.46 351.87,-688.37 354,-690.5 403.48,-739.81 341.55,-793.17 390,-843.5 394.67,-848.35 400.23,-852.25 406.24,-855.38"/>
<polygon fill="midnightblue" stroke="midnightblue" points="348.61,-681.6 338.2,-679.67 345.14,-687.68 348.61,-681.6"/>
</g>
<!-- Node29 -->
<g id="node29" class="node">
<title>Node29</title>
<g id="a_node29"><a xlink:href="classtracktion__engine_1_1FreezePointPlugin.html" target="_top" xlink:title=" ">
<polygon fill="none" stroke="black" points="409.5,-803.5 409.5,-833.5 546.5,-833.5 546.5,-803.5 409.5,-803.5"/>
<text text-anchor="start" x="417.5" y="-821.5" font-family="Helvetica,sans-Serif" font-size="10.00">tracktion_engine::Freeze</text>
<text text-anchor="middle" x="478" y="-810.5" font-family="Helvetica,sans-Serif" font-size="10.00">PointPlugin</text>
</a>
</g>
</g>
<!-- Node19&#45;&gt;Node29 -->
<g id="edge28" class="edge">
<title>Node19&#45;&gt;Node29</title>
<path fill="none" stroke="midnightblue" d="M346.98,-685.15C349.46,-686.75 351.81,-688.53 354,-690.5 390.36,-723.21 354.32,-761.04 390,-794.5 395.6,-799.75 402.24,-803.87 409.33,-807.1"/>
<polygon fill="midnightblue" stroke="midnightblue" points="348.59,-682.04 338.13,-680.34 345.25,-688.19 348.59,-682.04"/>
</g>
<!-- Node30 -->
<g id="node30" class="node">
<title>Node30</title>
<g id="a_node30"><a xlink:href="classtracktion__engine_1_1ImpulseResponsePlugin.html" target="_top" xlink:title="ImpulseResponsePlugin that loads an impulse response and applies it the audio stream.">
<polygon fill="none" stroke="black" points="406.5,-754.5 406.5,-784.5 549.5,-784.5 549.5,-754.5 406.5,-754.5"/>
<text text-anchor="start" x="414.5" y="-772.5" font-family="Helvetica,sans-Serif" font-size="10.00">tracktion_engine::Impulse</text>
<text text-anchor="middle" x="478" y="-761.5" font-family="Helvetica,sans-Serif" font-size="10.00">ResponsePlugin</text>
</a>
</g>
</g>
<!-- Node19&#45;&gt;Node30 -->
<g id="edge29" class="edge">
<title>Node19&#45;&gt;Node30</title>
<path fill="none" stroke="midnightblue" d="M345.28,-685.29C348.32,-686.84 351.24,-688.58 354,-690.5 377.96,-707.22 366.4,-728.28 390,-745.5 394.94,-749.1 400.39,-752.16 406.08,-754.76"/>
<polygon fill="midnightblue" stroke="midnightblue" points="346.44,-681.97 335.88,-681.11 343.6,-688.37 346.44,-681.97"/>
</g>
<!-- Node31 -->
<g id="node31" class="node">
<title>Node31</title>
<g id="a_node31"><a xlink:href="classtracktion__engine_1_1InsertPlugin.html" target="_top" xlink:title=" ">
<polygon fill="none" stroke="black" points="412,-705.5 412,-735.5 544,-735.5 544,-705.5 412,-705.5"/>
<text text-anchor="start" x="420" y="-723.5" font-family="Helvetica,sans-Serif" font-size="10.00">tracktion_engine::Insert</text>
<text text-anchor="middle" x="478" y="-712.5" font-family="Helvetica,sans-Serif" font-size="10.00">Plugin</text>
</a>
</g>
</g>
<!-- Node19&#45;&gt;Node31 -->
<g id="edge30" class="edge">
<title>Node19&#45;&gt;Node31</title>
<path fill="none" stroke="midnightblue" d="M323.64,-683.37C333.71,-685.71 344.19,-688.17 354,-690.5 374.21,-695.31 396.26,-700.65 416.03,-705.48"/>
<polygon fill="midnightblue" stroke="midnightblue" points="324.27,-679.92 313.74,-681.07 322.69,-686.74 324.27,-679.92"/>
</g>
<!-- Node32 -->
<g id="node32" class="node">
<title>Node32</title>
<g id="a_node32"><a xlink:href="classtracktion__engine_1_1LatencyPlugin.html" target="_top" xlink:title="A test plugin that introduces latency to the incomming signal.">
<polygon fill="none" stroke="black" points="406.5,-656.5 406.5,-686.5 549.5,-686.5 549.5,-656.5 406.5,-656.5"/>
<text text-anchor="start" x="414.5" y="-674.5" font-family="Helvetica,sans-Serif" font-size="10.00">tracktion_engine::Latency</text>
<text text-anchor="middle" x="478" y="-663.5" font-family="Helvetica,sans-Serif" font-size="10.00">Plugin</text>
</a>
</g>
</g>
<!-- Node19&#45;&gt;Node32 -->
<g id="edge31" class="edge">
<title>Node19&#45;&gt;Node32</title>
<path fill="none" stroke="midnightblue" d="M348.38,-671.5C367.37,-671.5 387.65,-671.5 406.36,-671.5"/>
<polygon fill="midnightblue" stroke="midnightblue" points="348.27,-668 338.27,-671.5 348.27,-675 348.27,-668"/>
</g>
<!-- Node33 -->
<g id="node33" class="node">
<title>Node33</title>
<g id="a_node33"><a xlink:href="classtracktion__engine_1_1LevelMeterPlugin.html" target="_top" xlink:title=" ">
<polygon fill="none" stroke="black" points="398.5,-607.5 398.5,-637.5 557.5,-637.5 557.5,-607.5 398.5,-607.5"/>
<text text-anchor="start" x="406.5" y="-625.5" font-family="Helvetica,sans-Serif" font-size="10.00">tracktion_engine::LevelMeter</text>
<text text-anchor="middle" x="478" y="-614.5" font-family="Helvetica,sans-Serif" font-size="10.00">Plugin</text>
</a>
</g>
</g>
<!-- Node19&#45;&gt;Node33 -->
<g id="edge32" class="edge">
<title>Node19&#45;&gt;Node33</title>
<path fill="none" stroke="midnightblue" d="M323.64,-659.63C333.71,-657.29 344.19,-654.83 354,-652.5 374.21,-647.69 396.26,-642.35 416.03,-637.52"/>
<polygon fill="midnightblue" stroke="midnightblue" points="322.69,-656.26 313.74,-661.93 324.27,-663.08 322.69,-656.26"/>
</g>
<!-- Node34 -->
<g id="node34" class="node">
<title>Node34</title>
<g id="a_node34"><a xlink:href="classtracktion__engine_1_1LowPassPlugin.html" target="_top" xlink:title=" ">
<polygon fill="none" stroke="black" points="405,-558.5 405,-588.5 551,-588.5 551,-558.5 405,-558.5"/>
<text text-anchor="start" x="413" y="-576.5" font-family="Helvetica,sans-Serif" font-size="10.00">tracktion_engine::LowPass</text>
<text text-anchor="middle" x="478" y="-565.5" font-family="Helvetica,sans-Serif" font-size="10.00">Plugin</text>
</a>
</g>
</g>
<!-- Node19&#45;&gt;Node34 -->
<g id="edge33" class="edge">
<title>Node19&#45;&gt;Node34</title>
<path fill="none" stroke="midnightblue" d="M344.77,-657.93C347.99,-656.32 351.09,-654.51 354,-652.5 377.72,-636.09 366.72,-615.52 390,-598.5 395.33,-594.6 401.25,-591.31 407.43,-588.54"/>
<polygon fill="midnightblue" stroke="midnightblue" points="343.2,-654.8 335.43,-662 346,-661.22 343.2,-654.8"/>
</g>
<!-- Node35 -->
<g id="node35" class="node">
<title>Node35</title>
<g id="a_node35"><a xlink:href="classtracktion__engine_1_1MidiModifierPlugin.html" target="_top" xlink:title=" ">
<polygon fill="none" stroke="black" points="395.5,-509.5 395.5,-539.5 560.5,-539.5 560.5,-509.5 395.5,-509.5"/>
<text text-anchor="start" x="403.5" y="-527.5" font-family="Helvetica,sans-Serif" font-size="10.00">tracktion_engine::MidiModifier</text>
<text text-anchor="middle" x="478" y="-516.5" font-family="Helvetica,sans-Serif" font-size="10.00">Plugin</text>
</a>
</g>
</g>
<!-- Node19&#45;&gt;Node35 -->
<g id="edge34" class="edge">
<title>Node19&#45;&gt;Node35</title>
<path fill="none" stroke="midnightblue" d="M346.97,-657.84C349.45,-656.24 351.81,-654.47 354,-652.5 390.1,-620.12 354.76,-582.81 390,-549.5 394.11,-545.61 398.79,-542.33 403.79,-539.55"/>
<polygon fill="midnightblue" stroke="midnightblue" points="345.24,-654.8 338.12,-662.64 348.58,-660.95 345.24,-654.8"/>
</g>
<!-- Node36 -->
<g id="node36" class="node">
<title>Node36</title>
<g id="a_node36"><a xlink:href="classtracktion__engine_1_1MidiPatchBayPlugin.html" target="_top" xlink:title=" ">
<polygon fill="none" stroke="black" points="402,-460.5 402,-490.5 554,-490.5 554,-460.5 402,-460.5"/>
<text text-anchor="start" x="410" y="-478.5" font-family="Helvetica,sans-Serif" font-size="10.00">tracktion_engine::MidiPatch</text>
<text text-anchor="middle" x="478" y="-467.5" font-family="Helvetica,sans-Serif" font-size="10.00">BayPlugin</text>
</a>
</g>
</g>
<!-- Node19&#45;&gt;Node36 -->
<g id="edge35" class="edge">
<title>Node19&#45;&gt;Node36</title>
<path fill="none" stroke="midnightblue" d="M347.07,-658.24C349.54,-656.53 351.86,-654.63 354,-652.5 403.21,-603.53 342.08,-550.74 390,-500.5 393.69,-496.63 397.93,-493.35 402.52,-490.57"/>
<polygon fill="midnightblue" stroke="midnightblue" points="345.13,-655.32 338.19,-663.32 348.61,-661.4 345.13,-655.32"/>
</g>
<!-- Node37 -->
<g id="node37" class="node">
<title>Node37</title>
<g id="a_node37"><a xlink:href="classtracktion__engine_1_1PatchBayPlugin.html" target="_top" xlink:title=" ">
<polygon fill="none" stroke="black" points="403.5,-411.5 403.5,-441.5 552.5,-441.5 552.5,-411.5 403.5,-411.5"/>
<text text-anchor="start" x="411.5" y="-429.5" font-family="Helvetica,sans-Serif" font-size="10.00">tracktion_engine::PatchBay</text>
<text text-anchor="middle" x="478" y="-418.5" font-family="Helvetica,sans-Serif" font-size="10.00">Plugin</text>
</a>
</g>
</g>
<!-- Node19&#45;&gt;Node37 -->
<g id="edge36" class="edge">
<title>Node19&#45;&gt;Node37</title>
<path fill="none" stroke="midnightblue" d="M347.06,-658.51C349.55,-656.73 351.88,-654.73 354,-652.5 416.53,-586.73 329.2,-518.88 390,-451.5 393.9,-447.18 398.48,-443.59 403.48,-440.61"/>
<polygon fill="midnightblue" stroke="midnightblue" points="344.92,-655.7 338.06,-663.77 348.46,-661.75 344.92,-655.7"/>
</g>
<!-- Node38 -->
<g id="node38" class="node">
<title>Node38</title>
<g id="a_node38"><a xlink:href="classtracktion__engine_1_1PhaserPlugin.html" target="_top" xlink:title=" ">
<polygon fill="none" stroke="black" points="409.5,-362.5 409.5,-392.5 546.5,-392.5 546.5,-362.5 409.5,-362.5"/>
<text text-anchor="start" x="417.5" y="-380.5" font-family="Helvetica,sans-Serif" font-size="10.00">tracktion_engine::Phaser</text>
<text text-anchor="middle" x="478" y="-369.5" font-family="Helvetica,sans-Serif" font-size="10.00">Plugin</text>
</a>
</g>
</g>
<!-- Node19&#45;&gt;Node38 -->
<g id="edge37" class="edge">
<title>Node19&#45;&gt;Node38</title>
<path fill="none" stroke="midnightblue" d="M347.15,-658.6C349.62,-656.79 351.91,-654.77 354,-652.5 429.95,-569.83 316.23,-487.12 390,-402.5 395.27,-396.46 401.89,-391.83 409.11,-388.3"/>
<polygon fill="midnightblue" stroke="midnightblue" points="345.02,-655.8 338.22,-663.92 348.6,-661.81 345.02,-655.8"/>
</g>
<!-- Node39 -->
<g id="node39" class="node">
<title>Node39</title>
<g id="a_node39"><a xlink:href="classtracktion__engine_1_1PitchShiftPlugin.html" target="_top" xlink:title=" ">
<polygon fill="none" stroke="black" points="403,-313.5 403,-343.5 553,-343.5 553,-313.5 403,-313.5"/>
<text text-anchor="start" x="411" y="-331.5" font-family="Helvetica,sans-Serif" font-size="10.00">tracktion_engine::PitchShift</text>
<text text-anchor="middle" x="478" y="-320.5" font-family="Helvetica,sans-Serif" font-size="10.00">Plugin</text>
</a>
</g>
</g>
<!-- Node19&#45;&gt;Node39 -->
<g id="edge38" class="edge">
<title>Node19&#45;&gt;Node39</title>
<path fill="none" stroke="midnightblue" d="M347.22,-658.66C349.66,-656.84 351.94,-654.79 354,-652.5 443.41,-552.89 303.22,-455.41 390,-353.5 393.67,-349.19 398.02,-345.6 402.8,-342.61"/>
<polygon fill="midnightblue" stroke="midnightblue" points="345.09,-655.86 338.34,-664.03 348.71,-661.85 345.09,-655.86"/>
</g>
<!-- Node40 -->
<g id="node40" class="node">
<title>Node40</title>
<g id="a_node40"><a xlink:href="classtracktion__engine_1_1RackInstance.html" target="_top" xlink:title=" ">
<polygon fill="none" stroke="black" points="393,-275 393,-294 563,-294 563,-275 393,-275"/>
<text text-anchor="middle" x="478" y="-282" font-family="Helvetica,sans-Serif" font-size="10.00">tracktion_engine::RackInstance</text>
</a>
</g>
</g>
<!-- Node19&#45;&gt;Node40 -->
<g id="edge39" class="edge">
<title>Node19&#45;&gt;Node40</title>
<path fill="none" stroke="midnightblue" d="M347.11,-658.83C349.6,-656.96 351.91,-654.86 354,-652.5 456.89,-535.92 287.01,-420.99 390,-304.5 393.7,-300.32 398.07,-296.92 402.87,-294.16"/>
<polygon fill="midnightblue" stroke="midnightblue" points="344.79,-656.14 338.03,-664.29 348.4,-662.13 344.79,-656.14"/>
</g>
<!-- Node41 -->
<g id="node41" class="node">
<title>Node41</title>
<g id="a_node41"><a xlink:href="classtracktion__engine_1_1ReverbPlugin.html" target="_top" xlink:title=" ">
<polygon fill="none" stroke="black" points="408.5,-225.5 408.5,-255.5 547.5,-255.5 547.5,-225.5 408.5,-225.5"/>
<text text-anchor="start" x="416.5" y="-243.5" font-family="Helvetica,sans-Serif" font-size="10.00">tracktion_engine::Reverb</text>
<text text-anchor="middle" x="478" y="-232.5" font-family="Helvetica,sans-Serif" font-size="10.00">Plugin</text>
</a>
</g>
</g>
<!-- Node19&#45;&gt;Node41 -->
<g id="edge40" class="edge">
<title>Node19&#45;&gt;Node41</title>
<path fill="none" stroke="midnightblue" d="M347.14,-658.85C349.62,-656.98 351.93,-654.87 354,-652.5 410.82,-587.45 334.9,-332.01 390,-265.5 395.01,-259.45 401.39,-254.81 408.4,-251.26"/>
<polygon fill="midnightblue" stroke="midnightblue" points="344.82,-656.16 338.08,-664.34 348.45,-662.15 344.82,-656.16"/>
</g>
<!-- Node42 -->
<g id="node42" class="node">
<title>Node42</title>
<g id="a_node42"><a xlink:href="classtracktion__engine_1_1SamplerPlugin.html" target="_top" xlink:title=" ">
<polygon fill="none" stroke="black" points="405.5,-176.5 405.5,-206.5 550.5,-206.5 550.5,-176.5 405.5,-176.5"/>
<text text-anchor="start" x="413.5" y="-194.5" font-family="Helvetica,sans-Serif" font-size="10.00">tracktion_engine::Sampler</text>
<text text-anchor="middle" x="478" y="-183.5" font-family="Helvetica,sans-Serif" font-size="10.00">Plugin</text>
</a>
</g>
</g>
<!-- Node19&#45;&gt;Node42 -->
<g id="edge41" class="edge">
<title>Node19&#45;&gt;Node42</title>
<path fill="none" stroke="midnightblue" d="M347.17,-658.88C349.64,-657 351.94,-654.88 354,-652.5 417.57,-578.95 328.37,-291.68 390,-216.5 394.28,-211.27 399.58,-207.1 405.44,-203.77"/>
<polygon fill="midnightblue" stroke="midnightblue" points="344.85,-656.19 338.14,-664.39 348.5,-662.17 344.85,-656.19"/>
</g>
<!-- Node43 -->
<g id="node43" class="node">
<title>Node43</title>
<g id="a_node43"><a xlink:href="classtracktion__engine_1_1TextPlugin.html" target="_top" xlink:title=" ">
<polygon fill="none" stroke="black" points="400.5,-138 400.5,-157 555.5,-157 555.5,-138 400.5,-138"/>
<text text-anchor="middle" x="478" y="-145" font-family="Helvetica,sans-Serif" font-size="10.00">tracktion_engine::TextPlugin</text>
</a>
</g>
</g>
<!-- Node19&#45;&gt;Node43 -->
<g id="edge42" class="edge">
<title>Node19&#45;&gt;Node43</title>
<path fill="none" stroke="midnightblue" d="M347.19,-658.9C349.66,-657.02 351.95,-654.89 354,-652.5 424.33,-570.44 319.6,-249.5 390,-167.5 393.63,-163.27 397.97,-159.83 402.73,-157.05"/>
<polygon fill="midnightblue" stroke="midnightblue" points="344.88,-656.22 338.18,-664.42 348.53,-662.18 344.88,-656.22"/>
</g>
<!-- Node44 -->
<g id="node44" class="node">
<title>Node44</title>
<g id="a_node44"><a xlink:href="classtracktion__engine_1_1ToneGeneratorPlugin.html" target="_top" xlink:title=" ">
<polygon fill="none" stroke="black" points="390,-88.5 390,-118.5 566,-118.5 566,-88.5 390,-88.5"/>
<text text-anchor="start" x="398" y="-106.5" font-family="Helvetica,sans-Serif" font-size="10.00">tracktion_engine::ToneGenerator</text>
<text text-anchor="middle" x="478" y="-95.5" font-family="Helvetica,sans-Serif" font-size="10.00">Plugin</text>
</a>
</g>
</g>
<!-- Node19&#45;&gt;Node44 -->
<g id="edge43" class="edge">
<title>Node19&#45;&gt;Node44</title>
<path fill="none" stroke="midnightblue" d="M347.21,-658.92C349.67,-657.03 351.96,-654.9 354,-652.5 429.71,-563.67 316.63,-219.27 390,-128.5 393.06,-124.71 396.66,-121.47 400.62,-118.71"/>
<polygon fill="midnightblue" stroke="midnightblue" points="344.89,-656.23 338.21,-664.45 348.56,-662.19 344.89,-656.23"/>
</g>
<!-- Node45 -->
<g id="node45" class="node">
<title>Node45</title>
<g id="a_node45"><a xlink:href="classtracktion__engine_1_1VCAPlugin.html" target="_top" xlink:title="The VCA plugin sits on a folder track to control the overall level of all the volume/pan plugins in i...">
<polygon fill="none" stroke="black" points="400.5,-50 400.5,-69 555.5,-69 555.5,-50 400.5,-50"/>
<text text-anchor="middle" x="478" y="-57" font-family="Helvetica,sans-Serif" font-size="10.00">tracktion_engine::VCAPlugin</text>
</a>
</g>
</g>
<!-- Node19&#45;&gt;Node45 -->
<g id="edge44" class="edge">
<title>Node19&#45;&gt;Node45</title>
<path fill="none" stroke="midnightblue" d="M347.23,-658.93C349.69,-657.04 351.96,-654.9 354,-652.5 436.48,-555.16 307.44,-176.77 390,-79.5 393.61,-75.25 397.93,-71.79 402.68,-69"/>
<polygon fill="midnightblue" stroke="midnightblue" points="344.91,-656.25 338.24,-664.47 348.59,-662.2 344.91,-656.25"/>
</g>
<!-- Node46 -->
<g id="node46" class="node">
<title>Node46</title>
<g id="a_node46"><a xlink:href="classtracktion__engine_1_1VolumeAndPanPlugin.html" target="_top" xlink:title="The built&#45;in Tracktion volume/pan plugin.">
<polygon fill="none" stroke="black" points="407.5,-0.5 407.5,-30.5 548.5,-30.5 548.5,-0.5 407.5,-0.5"/>
<text text-anchor="start" x="415.5" y="-18.5" font-family="Helvetica,sans-Serif" font-size="10.00">tracktion_engine::Volume</text>
<text text-anchor="middle" x="478" y="-7.5" font-family="Helvetica,sans-Serif" font-size="10.00">AndPanPlugin</text>
</a>
</g>
</g>
<!-- Node19&#45;&gt;Node46 -->
<g id="edge45" class="edge">
<title>Node19&#45;&gt;Node46</title>
<path fill="none" stroke="midnightblue" d="M347.24,-658.94C349.7,-657.05 351.97,-654.91 354,-652.5 441.86,-548.38 304.88,-146.87 390,-40.5 394.71,-34.61 400.72,-30.05 407.36,-26.53"/>
<polygon fill="midnightblue" stroke="midnightblue" points="344.92,-656.26 338.26,-664.49 348.6,-662.21 344.92,-656.26"/>
</g>
</g>
</svg>
