<?xml version="1.0" encoding="UTF-8" standalone="no"?>
<!DOCTYPE svg PUBLIC "-//W3C//DTD SVG 1.1//EN"
 "http://www.w3.org/Graphics/SVG/1.1/DTD/svg11.dtd">
<!-- Generated by graphviz version 2.43.0 (0)
 -->
<!-- Title: engine::InputDeviceInstance::Destination Pages: 1 -->
<svg width="499pt" height="134pt"
 viewBox="0.00 0.00 499.00 134.00" xmlns="http://www.w3.org/2000/svg" xmlns:xlink="http://www.w3.org/1999/xlink">
<g id="graph0" class="graph" transform="scale(1 1) rotate(0) translate(4 130)">
<title>engine::InputDeviceInstance::Destination</title>
<!-- Node1 -->
<g id="Node000001" class="node">
<title>Node1</title>
<g id="a_Node000001"><a xlink:title=" ">
<polygon fill="#999999" stroke="#666666" points="298,-78 143,-78 143,-48 298,-48 298,-78"/>
<text text-anchor="start" x="151" y="-66" font-family="Helvetica,sans-Serif" font-size="10.00">engine::InputDeviceInstance</text>
<text text-anchor="middle" x="220.5" y="-55" font-family="Helvetica,sans-Serif" font-size="10.00">::Destination</text>
</a>
</g>
</g>
<!-- Node3 -->
<g id="Node000003" class="node">
<title>Node3</title>
<g id="a_Node000003"><a xlink:href="structengine_1_1InputDeviceInstance_1_1MidiInputDestination.html" target="_top" xlink:title=" ">
<polygon fill="white" stroke="#666666" points="490,-126 335,-126 335,-96 490,-96 490,-126"/>
<text text-anchor="start" x="343" y="-114" font-family="Helvetica,sans-Serif" font-size="10.00">engine::InputDeviceInstance</text>
<text text-anchor="middle" x="412.5" y="-103" font-family="Helvetica,sans-Serif" font-size="10.00">::MidiInputDestination</text>
</a>
</g>
</g>
<!-- Node1&#45;&gt;Node3 -->
<g id="edge2_Node000001_Node000003" class="edge">
<title>Node1&#45;&gt;Node3</title>
<g id="a_edge2_Node000001_Node000003"><a xlink:title=" ">
<path fill="none" stroke="#63b8ff" d="M290.81,-80.51C310.92,-85.59 332.68,-91.09 352.12,-96"/>
<polygon fill="#63b8ff" stroke="#63b8ff" points="291.65,-77.11 281.1,-78.06 289.93,-83.9 291.65,-77.11"/>
</a>
</g>
</g>
<!-- Node4 -->
<g id="Node000004" class="node">
<title>Node4</title>
<g id="a_Node000004"><a xlink:href="structengine_1_1InputDeviceInstance_1_1VirtualMidiInputDestination.html" target="_top" xlink:title=" ">
<polygon fill="white" stroke="#666666" points="491,-78 334,-78 334,-48 491,-48 491,-78"/>
<text text-anchor="start" x="342" y="-66" font-family="Helvetica,sans-Serif" font-size="10.00">engine::InputDeviceInstance</text>
<text text-anchor="middle" x="412.5" y="-55" font-family="Helvetica,sans-Serif" font-size="10.00">::VirtualMidiInputDestination</text>
</a>
</g>
</g>
<!-- Node1&#45;&gt;Node4 -->
<g id="edge3_Node000001_Node000004" class="edge">
<title>Node1&#45;&gt;Node4</title>
<g id="a_edge3_Node000001_Node000004"><a xlink:title=" ">
<path fill="none" stroke="#63b8ff" d="M308.49,-63C316.95,-63 325.5,-63 333.86,-63"/>
<polygon fill="#63b8ff" stroke="#63b8ff" points="308.23,-59.5 298.23,-63 308.23,-66.5 308.23,-59.5"/>
</a>
</g>
</g>
<!-- Node5 -->
<g id="Node000005" class="node">
<title>Node5</title>
<g id="a_Node000005"><a xlink:href="structengine_1_1InputDeviceInstance_1_1WaveInputDestination.html" target="_top" xlink:title=" ">
<polygon fill="white" stroke="#666666" points="490,-30 335,-30 335,0 490,0 490,-30"/>
<text text-anchor="start" x="343" y="-18" font-family="Helvetica,sans-Serif" font-size="10.00">engine::InputDeviceInstance</text>
<text text-anchor="middle" x="412.5" y="-7" font-family="Helvetica,sans-Serif" font-size="10.00">::WaveInputDestination</text>
</a>
</g>
</g>
<!-- Node1&#45;&gt;Node5 -->
<g id="edge4_Node000001_Node000005" class="edge">
<title>Node1&#45;&gt;Node5</title>
<g id="a_edge4_Node000001_Node000005"><a xlink:title=" ">
<path fill="none" stroke="#63b8ff" d="M290.81,-45.49C310.92,-40.41 332.68,-34.91 352.12,-30"/>
<polygon fill="#63b8ff" stroke="#63b8ff" points="289.93,-42.1 281.1,-47.94 291.65,-48.89 289.93,-42.1"/>
</a>
</g>
</g>
<!-- Node2 -->
<g id="Node000002" class="node">
<title>Node2</title>
<g id="a_Node000002"><a xlink:href="classengine_1_1Selectable.html" target="_top" xlink:title="Base class for things that can be selected, and whose properties can appear in the properties panel.">
<polygon fill="white" stroke="#666666" points="107,-72.5 0,-72.5 0,-53.5 107,-53.5 107,-72.5"/>
<text text-anchor="middle" x="53.5" y="-60.5" font-family="Helvetica,sans-Serif" font-size="10.00">engine::Selectable</text>
</a>
</g>
</g>
<!-- Node2&#45;&gt;Node1 -->
<g id="edge1_Node000001_Node000002" class="edge">
<title>Node2&#45;&gt;Node1</title>
<g id="a_edge1_Node000001_Node000002"><a xlink:title=" ">
<path fill="none" stroke="#63b8ff" d="M117.25,-63C125.66,-63 134.37,-63 142.98,-63"/>
<polygon fill="#63b8ff" stroke="#63b8ff" points="117.16,-59.5 107.16,-63 117.16,-66.5 117.16,-59.5"/>
</a>
</g>
</g>
</g>
</svg>
