<?xml version="1.0" encoding="UTF-8" standalone="no"?>
<!DOCTYPE svg PUBLIC "-//W3C//DTD SVG 1.1//EN"
 "http://www.w3.org/Graphics/SVG/1.1/DTD/svg11.dtd">
<!-- Generated by graphviz version 2.43.0 (0)
 -->
<!-- Title: tracktion_engine::StepVolumeEffect Pages: 1 -->
<svg width="333pt" height="162pt"
 viewBox="0.00 0.00 332.50 162.00" xmlns="http://www.w3.org/2000/svg" xmlns:xlink="http://www.w3.org/1999/xlink">
<g id="graph0" class="graph" transform="scale(1 1) rotate(0) translate(4 158)">
<title>tracktion_engine::StepVolumeEffect</title>
<!-- Node1 -->
<g id="node1" class="node">
<title>Node1</title>
<g id="a_node1"><a xlink:title=" ">
<polygon fill="#bfbfbf" stroke="black" points="79.5,-0.5 79.5,-30.5 242.5,-30.5 242.5,-0.5 79.5,-0.5"/>
<text text-anchor="start" x="87.5" y="-18.5" font-family="Helvetica,sans-Serif" font-size="10.00">tracktion_engine::StepVolume</text>
<text text-anchor="middle" x="161" y="-7.5" font-family="Helvetica,sans-Serif" font-size="10.00">Effect</text>
</a>
</g>
</g>
<!-- Node2 -->
<g id="node2" class="node">
<title>Node2</title>
<g id="a_node2"><a xlink:href="classtracktion__engine_1_1ClipEffect.html" target="_top" xlink:title=" ">
<polygon fill="none" stroke="black" points="0.5,-67.5 0.5,-86.5 151.5,-86.5 151.5,-67.5 0.5,-67.5"/>
<text text-anchor="middle" x="76" y="-74.5" font-family="Helvetica,sans-Serif" font-size="10.00">tracktion_engine::ClipEffect</text>
</a>
</g>
</g>
<!-- Node2&#45;&gt;Node1 -->
<g id="edge1" class="edge">
<title>Node2&#45;&gt;Node1</title>
<path fill="none" stroke="midnightblue" d="M96.37,-61.74C109.88,-52.28 127.53,-39.93 140.97,-30.52"/>
<polygon fill="midnightblue" stroke="midnightblue" points="94.36,-58.87 88.18,-67.48 98.38,-64.61 94.36,-58.87"/>
</g>
<!-- Node3 -->
<g id="node3" class="node">
<title>Node3</title>
<g id="a_node3"><a xlink:href="structtracktion__engine_1_1ValueTreeAllEventListener.html" target="_top" xlink:title=" ">
<polygon fill="none" stroke="black" points="0,-123.5 0,-153.5 152,-153.5 152,-123.5 0,-123.5"/>
<text text-anchor="start" x="8" y="-141.5" font-family="Helvetica,sans-Serif" font-size="10.00">tracktion_engine::ValueTree</text>
<text text-anchor="middle" x="76" y="-130.5" font-family="Helvetica,sans-Serif" font-size="10.00">AllEventListener</text>
</a>
</g>
</g>
<!-- Node3&#45;&gt;Node2 -->
<g id="edge2" class="edge">
<title>Node3&#45;&gt;Node2</title>
<path fill="none" stroke="darkgreen" d="M76,-113.29C76,-103.86 76,-93.65 76,-86.66"/>
<polygon fill="darkgreen" stroke="darkgreen" points="72.5,-113.4 76,-123.4 79.5,-113.4 72.5,-113.4"/>
</g>
<!-- Node4 -->
<g id="node4" class="node">
<title>Node4</title>
<g id="a_node4"><a xlink:href="classtracktion__engine_1_1Selectable.html" target="_top" xlink:title="Base class for things that can be selected, and whose properties can appear in the properties panel.">
<polygon fill="none" stroke="black" points="169.5,-67.5 169.5,-86.5 324.5,-86.5 324.5,-67.5 169.5,-67.5"/>
<text text-anchor="middle" x="247" y="-74.5" font-family="Helvetica,sans-Serif" font-size="10.00">tracktion_engine::Selectable</text>
</a>
</g>
</g>
<!-- Node4&#45;&gt;Node1 -->
<g id="edge3" class="edge">
<title>Node4&#45;&gt;Node1</title>
<path fill="none" stroke="midnightblue" d="M226.39,-61.74C212.72,-52.28 194.87,-39.93 181.27,-30.52"/>
<polygon fill="midnightblue" stroke="midnightblue" points="224.46,-64.66 234.68,-67.48 228.45,-58.91 224.46,-64.66"/>
</g>
</g>
</svg>
