<?xml version="1.0" encoding="UTF-8" standalone="no"?>
<!DOCTYPE svg PUBLIC "-//W3C//DTD SVG 1.1//EN"
 "http://www.w3.org/Graphics/SVG/1.1/DTD/svg11.dtd">
<!-- Generated by graphviz version 2.43.0 (0)
 -->
<!-- Title: tracktion::engine::AutomatableParameter::ModifierAssignment Pages: 1 -->
<svg width="335pt" height="368pt"
 viewBox="0.00 0.00 335.00 367.50" xmlns="http://www.w3.org/2000/svg" xmlns:xlink="http://www.w3.org/1999/xlink">
<g id="graph0" class="graph" transform="scale(1 1) rotate(0) translate(4 363.5)">
<title>tracktion::engine::AutomatableParameter::ModifierAssignment</title>
<!-- Node1 -->
<g id="node1" class="node">
<title>Node1</title>
<g id="a_node1"><a xlink:title="Connects a modifier source to an AutomatableParameter.">
<polygon fill="#bfbfbf" stroke="black" points="0,-148 0,-189 130,-189 130,-148 0,-148"/>
<text text-anchor="start" x="8" y="-177" font-family="Helvetica,sans-Serif" font-size="10.00">tracktion::engine::</text>
<text text-anchor="start" x="8" y="-166" font-family="Helvetica,sans-Serif" font-size="10.00">AutomatableParameter</text>
<text text-anchor="middle" x="65" y="-155" font-family="Helvetica,sans-Serif" font-size="10.00">::ModifierAssignment</text>
</a>
</g>
</g>
<!-- Node2 -->
<g id="node2" class="node">
<title>Node2</title>
<g id="a_node2"><a xlink:href="structtracktion_1_1engine_1_1BreakpointOscillatorModifier_1_1Assignment.html" target="_top" xlink:title=" ">
<polygon fill="none" stroke="black" points="168.5,-318 168.5,-359 324.5,-359 324.5,-318 168.5,-318"/>
<text text-anchor="start" x="176.5" y="-347" font-family="Helvetica,sans-Serif" font-size="10.00">tracktion::engine::</text>
<text text-anchor="start" x="176.5" y="-336" font-family="Helvetica,sans-Serif" font-size="10.00">BreakpointOscillatorModifier</text>
<text text-anchor="middle" x="246.5" y="-325" font-family="Helvetica,sans-Serif" font-size="10.00">::Assignment</text>
</a>
</g>
</g>
<!-- Node1&#45;&gt;Node2 -->
<g id="edge1" class="edge">
<title>Node1&#45;&gt;Node2</title>
<path fill="none" stroke="midnightblue" d="M80.41,-198.16C97.04,-229.56 127.17,-278.63 166,-308.5 170.56,-312.01 175.58,-315.14 180.8,-317.94"/>
<polygon fill="midnightblue" stroke="midnightblue" points="83.39,-196.3 75.69,-189.02 77.17,-199.51 83.39,-196.3"/>
</g>
<!-- Node3 -->
<g id="node3" class="node">
<title>Node3</title>
<g id="a_node3"><a xlink:href="structtracktion_1_1engine_1_1EnvelopeFollowerModifier_1_1Assignment.html" target="_top" xlink:title=" ">
<polygon fill="none" stroke="black" points="175,-258 175,-299 318,-299 318,-258 175,-258"/>
<text text-anchor="start" x="183" y="-287" font-family="Helvetica,sans-Serif" font-size="10.00">tracktion::engine::</text>
<text text-anchor="start" x="183" y="-276" font-family="Helvetica,sans-Serif" font-size="10.00">EnvelopeFollowerModifier</text>
<text text-anchor="middle" x="246.5" y="-265" font-family="Helvetica,sans-Serif" font-size="10.00">::Assignment</text>
</a>
</g>
</g>
<!-- Node1&#45;&gt;Node3 -->
<g id="edge2" class="edge">
<title>Node1&#45;&gt;Node3</title>
<path fill="none" stroke="midnightblue" d="M95.02,-195.8C114.09,-212.65 140.19,-233.8 166,-248.5 171.9,-251.86 178.24,-254.98 184.68,-257.84"/>
<polygon fill="midnightblue" stroke="midnightblue" points="97.34,-193.18 87.56,-189.1 92.67,-198.38 97.34,-193.18"/>
</g>
<!-- Node4 -->
<g id="node4" class="node">
<title>Node4</title>
<g id="a_node4"><a xlink:href="structtracktion_1_1engine_1_1LFOModifier_1_1Assignment.html" target="_top" xlink:title=" ">
<polygon fill="none" stroke="black" points="177,-208.5 177,-238.5 316,-238.5 316,-208.5 177,-208.5"/>
<text text-anchor="start" x="185" y="-226.5" font-family="Helvetica,sans-Serif" font-size="10.00">tracktion::engine::</text>
<text text-anchor="middle" x="246.5" y="-215.5" font-family="Helvetica,sans-Serif" font-size="10.00">LFOModifier::Assignment</text>
</a>
</g>
</g>
<!-- Node1&#45;&gt;Node4 -->
<g id="edge3" class="edge">
<title>Node1&#45;&gt;Node4</title>
<path fill="none" stroke="midnightblue" d="M139.64,-191.06C158.77,-196.93 178.92,-203.1 196.44,-208.47"/>
<polygon fill="midnightblue" stroke="midnightblue" points="140.63,-187.71 130.04,-188.12 138.58,-194.4 140.63,-187.71"/>
</g>
<!-- Node5 -->
<g id="node5" class="node">
<title>Node5</title>
<g id="a_node5"><a xlink:href="structtracktion_1_1engine_1_1MIDITrackerModifier_1_1Assignment.html" target="_top" xlink:title=" ">
<polygon fill="none" stroke="black" points="190,-148 190,-189 303,-189 303,-148 190,-148"/>
<text text-anchor="start" x="198" y="-177" font-family="Helvetica,sans-Serif" font-size="10.00">tracktion::engine::</text>
<text text-anchor="start" x="198" y="-166" font-family="Helvetica,sans-Serif" font-size="10.00">MIDITrackerModifier</text>
<text text-anchor="middle" x="246.5" y="-155" font-family="Helvetica,sans-Serif" font-size="10.00">::Assignment</text>
</a>
</g>
</g>
<!-- Node1&#45;&gt;Node5 -->
<g id="edge4" class="edge">
<title>Node1&#45;&gt;Node5</title>
<path fill="none" stroke="midnightblue" d="M140.25,-168.5C156.83,-168.5 174.14,-168.5 189.81,-168.5"/>
<polygon fill="midnightblue" stroke="midnightblue" points="140.04,-165 130.04,-168.5 140.04,-172 140.04,-165"/>
</g>
<!-- Node6 -->
<g id="node6" class="node">
<title>Node6</title>
<g id="a_node6"><a xlink:href="structtracktion_1_1engine_1_1MacroParameter_1_1Assignment.html" target="_top" xlink:title="An Assignment between a MacroParameter and an AutomatableParameter.">
<polygon fill="none" stroke="black" points="166,-98.5 166,-128.5 327,-128.5 327,-98.5 166,-98.5"/>
<text text-anchor="start" x="174" y="-116.5" font-family="Helvetica,sans-Serif" font-size="10.00">tracktion::engine::</text>
<text text-anchor="middle" x="246.5" y="-105.5" font-family="Helvetica,sans-Serif" font-size="10.00">MacroParameter::Assignment</text>
</a>
</g>
</g>
<!-- Node1&#45;&gt;Node6 -->
<g id="edge5" class="edge">
<title>Node1&#45;&gt;Node6</title>
<path fill="none" stroke="midnightblue" d="M139.64,-145.94C158.77,-140.07 178.92,-133.9 196.44,-128.53"/>
<polygon fill="midnightblue" stroke="midnightblue" points="138.58,-142.6 130.04,-148.88 140.63,-149.29 138.58,-142.6"/>
</g>
<!-- Node7 -->
<g id="node7" class="node">
<title>Node7</title>
<g id="a_node7"><a xlink:href="structtracktion_1_1engine_1_1RandomModifier_1_1Assignment.html" target="_top" xlink:title=" ">
<polygon fill="none" stroke="black" points="166,-49.5 166,-79.5 327,-79.5 327,-49.5 166,-49.5"/>
<text text-anchor="start" x="174" y="-67.5" font-family="Helvetica,sans-Serif" font-size="10.00">tracktion::engine::</text>
<text text-anchor="middle" x="246.5" y="-56.5" font-family="Helvetica,sans-Serif" font-size="10.00">RandomModifier::Assignment</text>
</a>
</g>
</g>
<!-- Node1&#45;&gt;Node7 -->
<g id="edge6" class="edge">
<title>Node1&#45;&gt;Node7</title>
<path fill="none" stroke="midnightblue" d="M95.06,-140.84C114.01,-124.05 139.99,-103.26 166,-89.5 173.03,-85.78 180.71,-82.5 188.44,-79.65"/>
<polygon fill="midnightblue" stroke="midnightblue" points="92.47,-138.47 87.38,-147.77 97.15,-143.67 92.47,-138.47"/>
</g>
<!-- Node8 -->
<g id="node8" class="node">
<title>Node8</title>
<g id="a_node8"><a xlink:href="structtracktion_1_1engine_1_1StepModifier_1_1Assignment.html" target="_top" xlink:title=" ">
<polygon fill="none" stroke="black" points="175.5,-0.5 175.5,-30.5 317.5,-30.5 317.5,-0.5 175.5,-0.5"/>
<text text-anchor="start" x="183.5" y="-18.5" font-family="Helvetica,sans-Serif" font-size="10.00">tracktion::engine::</text>
<text text-anchor="middle" x="246.5" y="-7.5" font-family="Helvetica,sans-Serif" font-size="10.00">StepModifier::Assignment</text>
</a>
</g>
</g>
<!-- Node1&#45;&gt;Node8 -->
<g id="edge7" class="edge">
<title>Node1&#45;&gt;Node8</title>
<path fill="none" stroke="midnightblue" d="M82.09,-138.69C99.23,-109.62 128.98,-66.16 166,-40.5 171.59,-36.63 177.81,-33.33 184.23,-30.54"/>
<polygon fill="midnightblue" stroke="midnightblue" points="78.93,-137.17 76.97,-147.58 84.99,-140.66 78.93,-137.17"/>
</g>
</g>
</svg>
