<?xml version="1.0" encoding="UTF-8" standalone="no"?>
<!DOCTYPE svg PUBLIC "-//W3C//DTD SVG 1.1//EN"
 "http://www.w3.org/Graphics/SVG/1.1/DTD/svg11.dtd">
<!-- Generated by graphviz version 2.40.1 (20161225.0304)
 -->
<!-- Title: tracktion_engine::ValueTreeAllEventListener Pages: 1 -->
<svg width="525pt" height="1714pt"
 viewBox="0.00 0.00 525.00 1714.00" xmlns="http://www.w3.org/2000/svg" xmlns:xlink="http://www.w3.org/1999/xlink">
<g id="graph0" class="graph" transform="scale(1 1) rotate(0) translate(4 1710)">
<title>tracktion_engine::ValueTreeAllEventListener</title>
<!-- Node0 -->
<g id="node1" class="node">
<title>Node0</title>
<polygon fill="#bfbfbf" stroke="#000000" points="0,-713.5 0,-743.5 138,-743.5 138,-713.5 0,-713.5"/>
<text text-anchor="start" x="8" y="-731.5" font-family="Helvetica,sans-Serif" font-size="10.00" fill="#000000">tracktion_engine::ValueTree</text>
<text text-anchor="middle" x="69" y="-720.5" font-family="Helvetica,sans-Serif" font-size="10.00" fill="#000000">AllEventListener</text>
</g>
<!-- Node1 -->
<g id="node2" class="node">
<title>Node1</title>
<g id="a_node2"><a xlink:href="classtracktion__engine_1_1BreakpointOscillatorModifier.html" target="_top" xlink:title="tracktion_engine::Breakpoint\lOscillatorModifier">
<polygon fill="none" stroke="#000000" points="178.5,-1449.5 178.5,-1479.5 318.5,-1479.5 318.5,-1449.5 178.5,-1449.5"/>
<text text-anchor="start" x="186.5" y="-1467.5" font-family="Helvetica,sans-Serif" font-size="10.00" fill="#000000">tracktion_engine::Breakpoint</text>
<text text-anchor="middle" x="248.5" y="-1456.5" font-family="Helvetica,sans-Serif" font-size="10.00" fill="#000000">OscillatorModifier</text>
</a>
</g>
</g>
<!-- Node0&#45;&gt;Node1 -->
<g id="edge1" class="edge">
<title>Node0&#45;&gt;Node1</title>
<path fill="none" stroke="#8b1a1a" d="M69.3065,-753.9666C71.1824,-868.1839 84.2948,-1332.3097 174,-1439.5 177.2396,-1443.3711 181.0991,-1446.6455 185.3315,-1449.4147"/>
<polygon fill="#8b1a1a" stroke="#8b1a1a" points="72.8029,-753.6932 69.1541,-743.7465 65.8037,-753.7976 72.8029,-753.6932"/>
</g>
<!-- Node2 -->
<g id="node3" class="node">
<title>Node2</title>
<g id="a_node3"><a xlink:href="classtracktion__engine_1_1ClipEffect.html" target="_top" xlink:title="tracktion_engine::ClipEffect">
<polygon fill="none" stroke="#000000" points="180,-1411 180,-1430 317,-1430 317,-1411 180,-1411"/>
<text text-anchor="middle" x="248.5" y="-1418" font-family="Helvetica,sans-Serif" font-size="10.00" fill="#000000">tracktion_engine::ClipEffect</text>
</a>
</g>
</g>
<!-- Node0&#45;&gt;Node2 -->
<g id="edge2" class="edge">
<title>Node0&#45;&gt;Node2</title>
<path fill="none" stroke="#006400" d="M75.4907,-753.5228C105.1405,-867.8273 227.0752,-1337.9042 246.021,-1410.9432"/>
<polygon fill="#006400" stroke="#006400" points="78.8148,-752.3978 72.916,-743.597 72.0391,-754.1554 78.8148,-752.3978"/>
</g>
<!-- Node13 -->
<g id="node14" class="node">
<title>Node13</title>
<g id="a_node14"><a xlink:href="classtracktion__engine_1_1EnvelopeFollowerModifier.html" target="_top" xlink:title="tracktion_engine::Envelope\lFollowerModifier">
<polygon fill="none" stroke="#000000" points="181.5,-850.5 181.5,-880.5 315.5,-880.5 315.5,-850.5 181.5,-850.5"/>
<text text-anchor="start" x="189.5" y="-868.5" font-family="Helvetica,sans-Serif" font-size="10.00" fill="#000000">tracktion_engine::Envelope</text>
<text text-anchor="middle" x="248.5" y="-857.5" font-family="Helvetica,sans-Serif" font-size="10.00" fill="#000000">FollowerModifier</text>
</a>
</g>
</g>
<!-- Node0&#45;&gt;Node13 -->
<g id="edge13" class="edge">
<title>Node0&#45;&gt;Node13</title>
<path fill="none" stroke="#8b1a1a" d="M85.4801,-752.0754C104.2325,-777.2778 137.083,-816.8007 174,-840.5 179.97,-844.3325 186.5885,-847.6395 193.3458,-850.4765"/>
<polygon fill="#8b1a1a" stroke="#8b1a1a" points="88.1714,-749.8257 79.4516,-743.8077 82.5153,-753.9499 88.1714,-749.8257"/>
</g>
<!-- Node14 -->
<g id="node15" class="node">
<title>Node14</title>
<g id="a_node15"><a xlink:href="classtracktion__engine_1_1LFOModifier.html" target="_top" xlink:title="tracktion_engine::LFOModifier">
<polygon fill="none" stroke="#000000" points="175,-812 175,-831 322,-831 322,-812 175,-812"/>
<text text-anchor="middle" x="248.5" y="-819" font-family="Helvetica,sans-Serif" font-size="10.00" fill="#000000">tracktion_engine::LFOModifier</text>
</a>
</g>
</g>
<!-- Node0&#45;&gt;Node14 -->
<g id="edge14" class="edge">
<title>Node0&#45;&gt;Node14</title>
<path fill="none" stroke="#8b1a1a" d="M94.1618,-750.2333C114.4769,-766.7512 144.4492,-788.8825 174,-802.5 182.2435,-806.2987 191.3641,-809.42 200.3142,-811.9556"/>
<polygon fill="#8b1a1a" stroke="#8b1a1a" points="96.2771,-747.4408 86.3412,-743.7626 91.8147,-752.8341 96.2771,-747.4408"/>
</g>
<!-- Node15 -->
<g id="node16" class="node">
<title>Node15</title>
<g id="a_node16"><a xlink:href="classtracktion__engine_1_1MIDITrackerModifier.html" target="_top" xlink:title="tracktion_engine::MIDITracker\lModifier">
<polygon fill="none" stroke="#000000" points="174,-762.5 174,-792.5 323,-792.5 323,-762.5 174,-762.5"/>
<text text-anchor="start" x="182" y="-780.5" font-family="Helvetica,sans-Serif" font-size="10.00" fill="#000000">tracktion_engine::MIDITracker</text>
<text text-anchor="middle" x="248.5" y="-769.5" font-family="Helvetica,sans-Serif" font-size="10.00" fill="#000000">Modifier</text>
</a>
</g>
</g>
<!-- Node0&#45;&gt;Node15 -->
<g id="edge15" class="edge">
<title>Node0&#45;&gt;Node15</title>
<path fill="none" stroke="#8b1a1a" d="M134.0174,-746.2485C153.4716,-751.5591 174.6075,-757.3288 193.3621,-762.4484"/>
<polygon fill="#8b1a1a" stroke="#8b1a1a" points="134.8893,-742.8585 124.3206,-743.6014 133.0459,-749.6114 134.8893,-742.8585"/>
</g>
<!-- Node16 -->
<g id="node17" class="node">
<title>Node16</title>
<g id="a_node17"><a xlink:href="classtracktion__engine_1_1PatternGenerator.html" target="_top" xlink:title="tracktion_engine::Pattern\lGenerator">
<polygon fill="none" stroke="#000000" points="186,-713.5 186,-743.5 311,-743.5 311,-713.5 186,-713.5"/>
<text text-anchor="start" x="194" y="-731.5" font-family="Helvetica,sans-Serif" font-size="10.00" fill="#000000">tracktion_engine::Pattern</text>
<text text-anchor="middle" x="248.5" y="-720.5" font-family="Helvetica,sans-Serif" font-size="10.00" fill="#000000">Generator</text>
</a>
</g>
</g>
<!-- Node0&#45;&gt;Node16 -->
<g id="edge16" class="edge">
<title>Node0&#45;&gt;Node16</title>
<path fill="none" stroke="#8b1a1a" d="M148.1791,-728.5C160.7934,-728.5 173.6902,-728.5 185.854,-728.5"/>
<polygon fill="#8b1a1a" stroke="#8b1a1a" points="148.1427,-725.0001 138.1426,-728.5 148.1426,-732.0001 148.1427,-725.0001"/>
</g>
<!-- Node17 -->
<g id="node18" class="node">
<title>Node17</title>
<g id="a_node18"><a xlink:href="classtracktion__engine_1_1PitchSetting.html" target="_top" xlink:title="tracktion_engine::PitchSetting">
<polygon fill="none" stroke="#000000" points="175,-675 175,-694 322,-694 322,-675 175,-675"/>
<text text-anchor="middle" x="248.5" y="-682" font-family="Helvetica,sans-Serif" font-size="10.00" fill="#000000">tracktion_engine::PitchSetting</text>
</a>
</g>
</g>
<!-- Node0&#45;&gt;Node17 -->
<g id="edge17" class="edge">
<title>Node0&#45;&gt;Node17</title>
<path fill="none" stroke="#8b1a1a" d="M140.2862,-711.0259C163.9568,-705.2237 189.4183,-698.9824 209.6937,-694.0124"/>
<polygon fill="#8b1a1a" stroke="#8b1a1a" points="139.1508,-707.7006 130.2717,-713.4808 140.8174,-714.4993 139.1508,-707.7006"/>
</g>
<!-- Node18 -->
<g id="node19" class="node">
<title>Node18</title>
<g id="a_node19"><a xlink:href="classtracktion__engine_1_1Plugin.html" target="_top" xlink:title="tracktion_engine::Plugin">
<polygon fill="none" stroke="#000000" points="188,-637 188,-656 309,-656 309,-637 188,-637"/>
<text text-anchor="middle" x="248.5" y="-644" font-family="Helvetica,sans-Serif" font-size="10.00" fill="#000000">tracktion_engine::Plugin</text>
</a>
</g>
</g>
<!-- Node0&#45;&gt;Node18 -->
<g id="edge18" class="edge">
<title>Node0&#45;&gt;Node18</title>
<path fill="none" stroke="#006400" d="M98.6532,-707.5118C119.0359,-693.9036 147.1658,-676.6896 174,-665.5 182.8703,-661.8012 192.6441,-658.68 202.1116,-656.1042"/>
<polygon fill="#006400" stroke="#006400" points="96.4533,-704.7748 90.1426,-713.2851 100.383,-710.5677 96.4533,-704.7748"/>
</g>
<!-- Node45 -->
<g id="node46" class="node">
<title>Node45</title>
<g id="a_node46"><a xlink:href="classtracktion__engine_1_1RandomModifier.html" target="_top" xlink:title="tracktion_engine::Random\lModifier">
<polygon fill="none" stroke="#000000" points="183,-587.5 183,-617.5 314,-617.5 314,-587.5 183,-587.5"/>
<text text-anchor="start" x="191" y="-605.5" font-family="Helvetica,sans-Serif" font-size="10.00" fill="#000000">tracktion_engine::Random</text>
<text text-anchor="middle" x="248.5" y="-594.5" font-family="Helvetica,sans-Serif" font-size="10.00" fill="#000000">Modifier</text>
</a>
</g>
</g>
<!-- Node0&#45;&gt;Node45 -->
<g id="edge45" class="edge">
<title>Node0&#45;&gt;Node45</title>
<path fill="none" stroke="#8b1a1a" d="M87.5082,-705.5251C106.9008,-682.8187 139.3229,-648.5169 174,-627.5 180.1836,-623.7523 187.0001,-620.4848 193.9223,-617.6593"/>
<polygon fill="#8b1a1a" stroke="#8b1a1a" points="84.7157,-703.4081 80.973,-713.3199 90.0799,-707.9055 84.7157,-703.4081"/>
</g>
<!-- Node46 -->
<g id="node47" class="node">
<title>Node46</title>
<g id="a_node47"><a xlink:href="classtracktion__engine_1_1StepModifier.html" target="_top" xlink:title="tracktion_engine::StepModifier">
<polygon fill="none" stroke="#000000" points="174,-549 174,-568 323,-568 323,-549 174,-549"/>
<text text-anchor="middle" x="248.5" y="-556" font-family="Helvetica,sans-Serif" font-size="10.00" fill="#000000">tracktion_engine::StepModifier</text>
</a>
</g>
</g>
<!-- Node0&#45;&gt;Node46 -->
<g id="edge46" class="edge">
<title>Node0&#45;&gt;Node46</title>
<path fill="none" stroke="#8b1a1a" d="M79.5342,-703.9592C95.1893,-670.4554 127.7955,-610.8738 174,-578.5 180.2516,-574.1197 187.4127,-570.6985 194.7683,-568.0265"/>
<polygon fill="#8b1a1a" stroke="#8b1a1a" points="76.346,-702.5151 75.3969,-713.0673 82.7193,-705.4102 76.346,-702.5151"/>
</g>
<!-- Node47 -->
<g id="node48" class="node">
<title>Node47</title>
<g id="a_node48"><a xlink:href="classtracktion__engine_1_1TimeSigSetting.html" target="_top" xlink:title="tracktion_engine::TimeSig\lSetting">
<polygon fill="none" stroke="#000000" points="183.5,-499.5 183.5,-529.5 313.5,-529.5 313.5,-499.5 183.5,-499.5"/>
<text text-anchor="start" x="191.5" y="-517.5" font-family="Helvetica,sans-Serif" font-size="10.00" fill="#000000">tracktion_engine::TimeSig</text>
<text text-anchor="middle" x="248.5" y="-506.5" font-family="Helvetica,sans-Serif" font-size="10.00" fill="#000000">Setting</text>
</a>
</g>
</g>
<!-- Node0&#45;&gt;Node47 -->
<g id="edge47" class="edge">
<title>Node0&#45;&gt;Node47</title>
<path fill="none" stroke="#8b1a1a" d="M76.2548,-703.7339C89.2737,-663.535 120.3706,-584.0996 174,-539.5 178.6154,-535.6617 183.845,-532.4043 189.3415,-529.6415"/>
<polygon fill="#8b1a1a" stroke="#8b1a1a" points="72.9105,-702.7019 73.263,-713.2909 79.5908,-704.7932 72.9105,-702.7019"/>
</g>
<!-- Node3 -->
<g id="node4" class="node">
<title>Node3</title>
<g id="a_node4"><a xlink:href="structtracktion__engine_1_1FadeInOutEffect.html" target="_top" xlink:title="tracktion_engine::FadeIn\lOutEffect">
<polygon fill="none" stroke="#000000" points="376,-1675.5 376,-1705.5 500,-1705.5 500,-1675.5 376,-1675.5"/>
<text text-anchor="start" x="384" y="-1693.5" font-family="Helvetica,sans-Serif" font-size="10.00" fill="#000000">tracktion_engine::FadeIn</text>
<text text-anchor="middle" x="438" y="-1682.5" font-family="Helvetica,sans-Serif" font-size="10.00" fill="#000000">OutEffect</text>
</a>
</g>
</g>
<!-- Node2&#45;&gt;Node3 -->
<g id="edge3" class="edge">
<title>Node2&#45;&gt;Node3</title>
<path fill="none" stroke="#191970" d="M317.9286,-1435.7061C319.7353,-1437.1677 321.4343,-1438.7618 323,-1440.5 391.0734,-1516.0718 292.1699,-1589.8265 359,-1666.5 363.615,-1671.7948 369.3577,-1675.9419 375.6271,-1679.1868"/>
<polygon fill="#191970" stroke="#191970" points="319.6777,-1432.6677 309.3961,-1430.1107 315.8391,-1438.5213 319.6777,-1432.6677"/>
</g>
<!-- Node4 -->
<g id="node5" class="node">
<title>Node4</title>
<g id="a_node5"><a xlink:href="structtracktion__engine_1_1InvertEffect.html" target="_top" xlink:title="tracktion_engine::Invert\lEffect">
<polygon fill="none" stroke="#000000" points="378.5,-1626.5 378.5,-1656.5 497.5,-1656.5 497.5,-1626.5 378.5,-1626.5"/>
<text text-anchor="start" x="386.5" y="-1644.5" font-family="Helvetica,sans-Serif" font-size="10.00" fill="#000000">tracktion_engine::Invert</text>
<text text-anchor="middle" x="438" y="-1633.5" font-family="Helvetica,sans-Serif" font-size="10.00" fill="#000000">Effect</text>
</a>
</g>
</g>
<!-- Node2&#45;&gt;Node4 -->
<g id="edge4" class="edge">
<title>Node2&#45;&gt;Node4</title>
<path fill="none" stroke="#191970" d="M317.7048,-1435.6942C319.5863,-1437.158 321.3603,-1438.756 323,-1440.5 377.989,-1498.9863 304.9735,-1558.1234 359,-1617.5 364.3058,-1623.3312 370.9782,-1627.7646 378.1852,-1631.1317"/>
<polygon fill="#191970" stroke="#191970" points="319.1732,-1432.4818 308.85,-1430.0984 315.4337,-1438.3993 319.1732,-1432.4818"/>
</g>
<!-- Node5 -->
<g id="node6" class="node">
<title>Node5</title>
<g id="a_node6"><a xlink:href="structtracktion__engine_1_1MakeMonoEffect.html" target="_top" xlink:title="tracktion_engine::MakeMono\lEffect">
<polygon fill="none" stroke="#000000" points="367,-1577.5 367,-1607.5 509,-1607.5 509,-1577.5 367,-1577.5"/>
<text text-anchor="start" x="375" y="-1595.5" font-family="Helvetica,sans-Serif" font-size="10.00" fill="#000000">tracktion_engine::MakeMono</text>
<text text-anchor="middle" x="438" y="-1584.5" font-family="Helvetica,sans-Serif" font-size="10.00" fill="#000000">Effect</text>
</a>
</g>
</g>
<!-- Node2&#45;&gt;Node5 -->
<g id="edge5" class="edge">
<title>Node2&#45;&gt;Node5</title>
<path fill="none" stroke="#191970" d="M316.8087,-1435.3239C319.0069,-1436.8855 321.0829,-1438.6056 323,-1440.5 365.035,-1482.038 317.649,-1526.2811 359,-1568.5 362.3099,-1571.8794 366.0792,-1574.7863 370.1345,-1577.2865"/>
<polygon fill="#191970" stroke="#191970" points="318.201,-1432.0835 307.8024,-1430.0536 314.6656,-1438.1251 318.201,-1432.0835"/>
</g>
<!-- Node6 -->
<g id="node7" class="node">
<title>Node6</title>
<g id="a_node7"><a xlink:href="structtracktion__engine_1_1NormaliseEffect.html" target="_top" xlink:title="tracktion_engine::Normalise\lEffect">
<polygon fill="none" stroke="#000000" points="369,-1528.5 369,-1558.5 507,-1558.5 507,-1528.5 369,-1528.5"/>
<text text-anchor="start" x="377" y="-1546.5" font-family="Helvetica,sans-Serif" font-size="10.00" fill="#000000">tracktion_engine::Normalise</text>
<text text-anchor="middle" x="438" y="-1535.5" font-family="Helvetica,sans-Serif" font-size="10.00" fill="#000000">Effect</text>
</a>
</g>
</g>
<!-- Node2&#45;&gt;Node6 -->
<g id="edge6" class="edge">
<title>Node2&#45;&gt;Node6</title>
<path fill="none" stroke="#191970" d="M314.7669,-1434.6795C317.679,-1436.4042 320.4452,-1438.3361 323,-1440.5 352.443,-1465.4379 329.9682,-1494.0846 359,-1519.5 362.8827,-1522.8991 367.2356,-1525.8167 371.8498,-1528.3212"/>
<polygon fill="#191970" stroke="#191970" points="316.1655,-1431.4653 305.6587,-1430.1023 313.0223,-1437.7199 316.1655,-1431.4653"/>
</g>
<!-- Node7 -->
<g id="node8" class="node">
<title>Node7</title>
<g id="a_node8"><a xlink:href="structtracktion__engine_1_1PitchShiftEffect.html" target="_top" xlink:title="tracktion_engine::PitchShift\lEffect">
<polygon fill="none" stroke="#000000" points="369.5,-1479.5 369.5,-1509.5 506.5,-1509.5 506.5,-1479.5 369.5,-1479.5"/>
<text text-anchor="start" x="377.5" y="-1497.5" font-family="Helvetica,sans-Serif" font-size="10.00" fill="#000000">tracktion_engine::PitchShift</text>
<text text-anchor="middle" x="438" y="-1486.5" font-family="Helvetica,sans-Serif" font-size="10.00" fill="#000000">Effect</text>
</a>
</g>
</g>
<!-- Node2&#45;&gt;Node7 -->
<g id="edge7" class="edge">
<title>Node2&#45;&gt;Node7</title>
<path fill="none" stroke="#191970" d="M306.3131,-1433.3199C312.0839,-1435.3935 317.7452,-1437.7743 323,-1440.5 341.4881,-1450.09 340.671,-1460.6093 359,-1470.5 365.1812,-1473.8355 371.8905,-1476.7734 378.6992,-1479.3437"/>
<polygon fill="#191970" stroke="#191970" points="307.1434,-1429.9087 296.5505,-1430.1135 304.959,-1436.5592 307.1434,-1429.9087"/>
</g>
<!-- Node8 -->
<g id="node9" class="node">
<title>Node8</title>
<g id="a_node9"><a xlink:href="structtracktion__engine_1_1PluginEffect.html" target="_top" xlink:title="tracktion_engine::Plugin\lEffect">
<polygon fill="none" stroke="#000000" points="377.5,-1430.5 377.5,-1460.5 498.5,-1460.5 498.5,-1430.5 377.5,-1430.5"/>
<text text-anchor="start" x="385.5" y="-1448.5" font-family="Helvetica,sans-Serif" font-size="10.00" fill="#000000">tracktion_engine::Plugin</text>
<text text-anchor="middle" x="438" y="-1437.5" font-family="Helvetica,sans-Serif" font-size="10.00" fill="#000000">Effect</text>
</a>
</g>
</g>
<!-- Node2&#45;&gt;Node8 -->
<g id="edge8" class="edge">
<title>Node2&#45;&gt;Node8</title>
<path fill="none" stroke="#191970" d="M327.4656,-1430.9176C344.1523,-1433.119 361.5111,-1435.4091 377.3926,-1437.5043"/>
<polygon fill="#191970" stroke="#191970" points="327.5537,-1427.399 317.1818,-1429.5609 326.6381,-1434.3389 327.5537,-1427.399"/>
</g>
<!-- Node9 -->
<g id="node10" class="node">
<title>Node9</title>
<g id="a_node10"><a xlink:href="structtracktion__engine_1_1ReverseEffect.html" target="_top" xlink:title="tracktion_engine::Reverse\lEffect">
<polygon fill="none" stroke="#000000" points="372.5,-1381.5 372.5,-1411.5 503.5,-1411.5 503.5,-1381.5 372.5,-1381.5"/>
<text text-anchor="start" x="380.5" y="-1399.5" font-family="Helvetica,sans-Serif" font-size="10.00" fill="#000000">tracktion_engine::Reverse</text>
<text text-anchor="middle" x="438" y="-1388.5" font-family="Helvetica,sans-Serif" font-size="10.00" fill="#000000">Effect</text>
</a>
</g>
</g>
<!-- Node2&#45;&gt;Node9 -->
<g id="edge9" class="edge">
<title>Node2&#45;&gt;Node9</title>
<path fill="none" stroke="#191970" d="M327.4351,-1410.5029C342.3979,-1408.6079 357.9023,-1406.6443 372.3982,-1404.8084"/>
<polygon fill="#191970" stroke="#191970" points="326.6627,-1407.0727 317.1818,-1411.8015 327.5423,-1414.0172 326.6627,-1407.0727"/>
</g>
<!-- Node10 -->
<g id="node11" class="node">
<title>Node10</title>
<g id="a_node11"><a xlink:href="structtracktion__engine_1_1StepVolumeEffect.html" target="_top" xlink:title="tracktion_engine::StepVolume\lEffect">
<polygon fill="none" stroke="#000000" points="364.5,-1332.5 364.5,-1362.5 511.5,-1362.5 511.5,-1332.5 364.5,-1332.5"/>
<text text-anchor="start" x="372.5" y="-1350.5" font-family="Helvetica,sans-Serif" font-size="10.00" fill="#000000">tracktion_engine::StepVolume</text>
<text text-anchor="middle" x="438" y="-1339.5" font-family="Helvetica,sans-Serif" font-size="10.00" fill="#000000">Effect</text>
</a>
</g>
</g>
<!-- Node2&#45;&gt;Node10 -->
<g id="edge10" class="edge">
<title>Node2&#45;&gt;Node10</title>
<path fill="none" stroke="#191970" d="M278.1792,-1406.6129C300.2331,-1396.5386 331.1863,-1382.9101 359,-1372.5 368.1616,-1369.071 378.03,-1365.6997 387.5834,-1362.5975"/>
<polygon fill="#191970" stroke="#191970" points="276.6342,-1403.471 269.0121,-1410.8299 279.5597,-1409.8304 276.6342,-1403.471"/>
</g>
<!-- Node11 -->
<g id="node12" class="node">
<title>Node11</title>
<g id="a_node12"><a xlink:href="structtracktion__engine_1_1VolumeEffect.html" target="_top" xlink:title="tracktion_engine::Volume\lEffect">
<polygon fill="none" stroke="#000000" points="374.5,-1283.5 374.5,-1313.5 501.5,-1313.5 501.5,-1283.5 374.5,-1283.5"/>
<text text-anchor="start" x="382.5" y="-1301.5" font-family="Helvetica,sans-Serif" font-size="10.00" fill="#000000">tracktion_engine::Volume</text>
<text text-anchor="middle" x="438" y="-1290.5" font-family="Helvetica,sans-Serif" font-size="10.00" fill="#000000">Effect</text>
</a>
</g>
</g>
<!-- Node2&#45;&gt;Node11 -->
<g id="edge11" class="edge">
<title>Node2&#45;&gt;Node11</title>
<path fill="none" stroke="#191970" d="M263.715,-1403.3295C283.6318,-1381.8257 320.553,-1345.1805 359,-1323.5 365.7665,-1319.6843 373.1935,-1316.366 380.7013,-1313.505"/>
<polygon fill="#191970" stroke="#191970" points="261.0886,-1401.0154 256.9465,-1410.767 266.2657,-1405.7268 261.0886,-1401.0154"/>
</g>
<!-- Node12 -->
<g id="node13" class="node">
<title>Node12</title>
<g id="a_node13"><a xlink:href="structtracktion__engine_1_1WarpTimeEffect.html" target="_top" xlink:title="tracktion_engine::WarpTime\lEffect">
<polygon fill="none" stroke="#000000" points="368.5,-1234.5 368.5,-1264.5 507.5,-1264.5 507.5,-1234.5 368.5,-1234.5"/>
<text text-anchor="start" x="376.5" y="-1252.5" font-family="Helvetica,sans-Serif" font-size="10.00" fill="#000000">tracktion_engine::WarpTime</text>
<text text-anchor="middle" x="438" y="-1241.5" font-family="Helvetica,sans-Serif" font-size="10.00" fill="#000000">Effect</text>
</a>
</g>
</g>
<!-- Node2&#45;&gt;Node12 -->
<g id="edge12" class="edge">
<title>Node2&#45;&gt;Node12</title>
<path fill="none" stroke="#191970" d="M257.939,-1401.3582C274.2612,-1370.2049 310.703,-1308.5951 359,-1274.5 364.406,-1270.6836 370.42,-1267.4316 376.6489,-1264.6643"/>
<polygon fill="#191970" stroke="#191970" points="254.6142,-1400.1736 253.1869,-1410.6719 260.8494,-1403.3551 254.6142,-1400.1736"/>
</g>
<!-- Node19 -->
<g id="node20" class="node">
<title>Node19</title>
<g id="a_node20"><a xlink:href="classtracktion__engine_1_1AirWindowsPlugin.html" target="_top" xlink:title="tracktion_engine::AirWindows\lPlugin">
<polygon fill="none" stroke="#000000" points="365,-1185.5 365,-1215.5 511,-1215.5 511,-1185.5 365,-1185.5"/>
<text text-anchor="start" x="373" y="-1203.5" font-family="Helvetica,sans-Serif" font-size="10.00" fill="#000000">tracktion_engine::AirWindows</text>
<text text-anchor="middle" x="438" y="-1192.5" font-family="Helvetica,sans-Serif" font-size="10.00" fill="#000000">Plugin</text>
</a>
</g>
</g>
<!-- Node18&#45;&gt;Node19 -->
<g id="edge19" class="edge">
<title>Node18&#45;&gt;Node19</title>
<path fill="none" stroke="#191970" d="M317.4403,-660.0236C319.4499,-661.6636 321.3157,-663.4828 323,-665.5 395.9616,-752.8812 288.0329,-1087.4914 359,-1176.5 361.6808,-1179.8624 364.8182,-1182.7663 368.2684,-1185.273"/>
<polygon fill="#191970" stroke="#191970" points="319.3438,-657.0865 309.0574,-654.5486 315.516,-662.9472 319.3438,-657.0865"/>
</g>
<!-- Node20 -->
<g id="node21" class="node">
<title>Node20</title>
<g id="a_node21"><a xlink:href="classtracktion__engine_1_1AuxReturnPlugin.html" target="_top" xlink:title="tracktion_engine::AuxReturn\lPlugin">
<polygon fill="none" stroke="#000000" points="368,-1136.5 368,-1166.5 508,-1166.5 508,-1136.5 368,-1136.5"/>
<text text-anchor="start" x="376" y="-1154.5" font-family="Helvetica,sans-Serif" font-size="10.00" fill="#000000">tracktion_engine::AuxReturn</text>
<text text-anchor="middle" x="438" y="-1143.5" font-family="Helvetica,sans-Serif" font-size="10.00" fill="#000000">Plugin</text>
</a>
</g>
</g>
<!-- Node18&#45;&gt;Node20 -->
<g id="edge20" class="edge">
<title>Node18&#45;&gt;Node20</title>
<path fill="none" stroke="#191970" d="M317.4212,-660.0397C319.436,-661.6751 321.3082,-663.4891 323,-665.5 389.2949,-744.2999 294.5038,-1047.2212 359,-1127.5 361.7831,-1130.9641 365.0506,-1133.9412 368.6443,-1136.4984"/>
<polygon fill="#191970" stroke="#191970" points="319.3139,-657.0955 309.0225,-654.5778 315.4976,-662.9638 319.3139,-657.0955"/>
</g>
<!-- Node21 -->
<g id="node22" class="node">
<title>Node21</title>
<g id="a_node22"><a xlink:href="classtracktion__engine_1_1AuxSendPlugin.html" target="_top" xlink:title="tracktion_engine::AuxSend\lPlugin">
<polygon fill="none" stroke="#000000" points="371,-1087.5 371,-1117.5 505,-1117.5 505,-1087.5 371,-1087.5"/>
<text text-anchor="start" x="379" y="-1105.5" font-family="Helvetica,sans-Serif" font-size="10.00" fill="#000000">tracktion_engine::AuxSend</text>
<text text-anchor="middle" x="438" y="-1094.5" font-family="Helvetica,sans-Serif" font-size="10.00" fill="#000000">Plugin</text>
</a>
</g>
</g>
<!-- Node18&#45;&gt;Node21 -->
<g id="edge21" class="edge">
<title>Node18&#45;&gt;Node21</title>
<path fill="none" stroke="#191970" d="M317.9523,-660.5143C319.7637,-662.024 321.4556,-663.6813 323,-665.5 382.6316,-735.7227 300.9715,-1006.9469 359,-1078.5 362.3407,-1082.6193 366.366,-1086.0492 370.8082,-1088.9029"/>
<polygon fill="#191970" stroke="#191970" points="319.6013,-657.4082 309.3328,-654.7987 315.7328,-663.2421 319.6013,-657.4082"/>
</g>
<!-- Node22 -->
<g id="node23" class="node">
<title>Node22</title>
<g id="a_node23"><a xlink:href="classtracktion__engine_1_1ChorusPlugin.html" target="_top" xlink:title="tracktion_engine::Chorus\lPlugin">
<polygon fill="none" stroke="#000000" points="375.5,-1038.5 375.5,-1068.5 500.5,-1068.5 500.5,-1038.5 375.5,-1038.5"/>
<text text-anchor="start" x="383.5" y="-1056.5" font-family="Helvetica,sans-Serif" font-size="10.00" fill="#000000">tracktion_engine::Chorus</text>
<text text-anchor="middle" x="438" y="-1045.5" font-family="Helvetica,sans-Serif" font-size="10.00" fill="#000000">Plugin</text>
</a>
</g>
</g>
<!-- Node18&#45;&gt;Node22 -->
<g id="edge22" class="edge">
<title>Node18&#45;&gt;Node22</title>
<path fill="none" stroke="#191970" d="M317.9249,-660.5377C319.744,-662.0407 321.4451,-663.6903 323,-665.5 428.9461,-788.8023 255.869,-903.8336 359,-1029.5 363.4558,-1034.9295 369.1002,-1039.1597 375.3148,-1042.451"/>
<polygon fill="#191970" stroke="#191970" points="319.5561,-657.4211 309.2794,-654.8443 315.7062,-663.2674 319.5561,-657.4211"/>
</g>
<!-- Node23 -->
<g id="node24" class="node">
<title>Node23</title>
<g id="a_node24"><a xlink:href="classtracktion__engine_1_1CompressorPlugin.html" target="_top" xlink:title="tracktion_engine::Compressor\lPlugin">
<polygon fill="none" stroke="#000000" points="364.5,-989.5 364.5,-1019.5 511.5,-1019.5 511.5,-989.5 364.5,-989.5"/>
<text text-anchor="start" x="372.5" y="-1007.5" font-family="Helvetica,sans-Serif" font-size="10.00" fill="#000000">tracktion_engine::Compressor</text>
<text text-anchor="middle" x="438" y="-996.5" font-family="Helvetica,sans-Serif" font-size="10.00" fill="#000000">Plugin</text>
</a>
</g>
</g>
<!-- Node18&#45;&gt;Node23 -->
<g id="edge23" class="edge">
<title>Node18&#45;&gt;Node23</title>
<path fill="none" stroke="#191970" d="M317.8885,-660.5692C319.7179,-662.0633 321.431,-663.7025 323,-665.5 415.3718,-771.3262 269.6691,-871.0946 359,-979.5 362.202,-983.3857 366.0051,-986.6761 370.1851,-989.4616"/>
<polygon fill="#191970" stroke="#191970" points="319.4959,-657.4389 309.2083,-654.9059 315.6709,-663.3015 319.4959,-657.4389"/>
</g>
<!-- Node24 -->
<g id="node25" class="node">
<title>Node24</title>
<g id="a_node25"><a xlink:href="classtracktion__engine_1_1DelayPlugin.html" target="_top" xlink:title="tracktion_engine::DelayPlugin">
<polygon fill="none" stroke="#000000" points="365,-951 365,-970 511,-970 511,-951 365,-951"/>
<text text-anchor="middle" x="438" y="-958" font-family="Helvetica,sans-Serif" font-size="10.00" fill="#000000">tracktion_engine::DelayPlugin</text>
</a>
</g>
</g>
<!-- Node18&#45;&gt;Node24 -->
<g id="edge24" class="edge">
<title>Node18&#45;&gt;Node24</title>
<path fill="none" stroke="#191970" d="M317.8523,-660.6011C319.692,-662.0861 321.4171,-663.7147 323,-665.5 405.0702,-758.0613 276.2983,-849.5025 359,-941.5 362.395,-945.2766 366.3974,-948.3668 370.7693,-950.8889"/>
<polygon fill="#191970" stroke="#191970" points="319.436,-657.4572 309.1377,-654.968 315.636,-663.336 319.436,-657.4572"/>
</g>
<!-- Node25 -->
<g id="node26" class="node">
<title>Node25</title>
<g id="a_node26"><a xlink:href="classtracktion__engine_1_1EqualiserPlugin.html" target="_top" xlink:title="tracktion_engine::Equaliser\lPlugin">
<polygon fill="none" stroke="#000000" points="371,-901.5 371,-931.5 505,-931.5 505,-901.5 371,-901.5"/>
<text text-anchor="start" x="379" y="-919.5" font-family="Helvetica,sans-Serif" font-size="10.00" fill="#000000">tracktion_engine::Equaliser</text>
<text text-anchor="middle" x="438" y="-908.5" font-family="Helvetica,sans-Serif" font-size="10.00" fill="#000000">Plugin</text>
</a>
</g>
</g>
<!-- Node18&#45;&gt;Node25 -->
<g id="edge25" class="edge">
<title>Node18&#45;&gt;Node25</title>
<path fill="none" stroke="#191970" d="M317.7888,-660.6581C319.6465,-662.1271 321.3926,-663.7367 323,-665.5 391.8167,-740.9906 291.9079,-815.4727 359,-892.5 362.3893,-896.3912 366.3876,-899.6626 370.7567,-902.4116"/>
<polygon fill="#191970" stroke="#191970" points="319.3306,-657.4909 309.0138,-655.0794 315.575,-663.3982 319.3306,-657.4909"/>
</g>
<!-- Node26 -->
<g id="node27" class="node">
<title>Node26</title>
<g id="a_node27"><a xlink:href="classtracktion__engine_1_1ExternalPlugin.html" target="_top" xlink:title="tracktion_engine::External\lPlugin">
<polygon fill="none" stroke="#000000" points="373,-852.5 373,-882.5 503,-882.5 503,-852.5 373,-852.5"/>
<text text-anchor="start" x="381" y="-870.5" font-family="Helvetica,sans-Serif" font-size="10.00" fill="#000000">tracktion_engine::External</text>
<text text-anchor="middle" x="438" y="-859.5" font-family="Helvetica,sans-Serif" font-size="10.00" fill="#000000">Plugin</text>
</a>
</g>
</g>
<!-- Node18&#45;&gt;Node26 -->
<g id="edge26" class="edge">
<title>Node18&#45;&gt;Node26</title>
<path fill="none" stroke="#191970" d="M317.8213,-660.846C319.6586,-662.2629 321.3931,-663.8104 323,-665.5 378.6236,-723.9858 304.7131,-783.7715 359,-843.5 362.9529,-847.8491 367.6659,-851.4207 372.7943,-854.3523"/>
<polygon fill="#191970" stroke="#191970" points="319.5177,-657.7786 309.1855,-655.4343 315.8006,-663.7102 319.5177,-657.7786"/>
</g>
<!-- Node27 -->
<g id="node28" class="node">
<title>Node27</title>
<g id="a_node28"><a xlink:href="classtracktion__engine_1_1FourOscPlugin.html" target="_top" xlink:title="tracktion_engine::FourOsc\lPlugin">
<polygon fill="none" stroke="#000000" points="372.5,-803.5 372.5,-833.5 503.5,-833.5 503.5,-803.5 372.5,-803.5"/>
<text text-anchor="start" x="380.5" y="-821.5" font-family="Helvetica,sans-Serif" font-size="10.00" fill="#000000">tracktion_engine::FourOsc</text>
<text text-anchor="middle" x="438" y="-810.5" font-family="Helvetica,sans-Serif" font-size="10.00" fill="#000000">Plugin</text>
</a>
</g>
</g>
<!-- Node18&#45;&gt;Node27 -->
<g id="edge27" class="edge">
<title>Node18&#45;&gt;Node27</title>
<path fill="none" stroke="#191970" d="M317.7956,-661.0968C319.6293,-662.4433 321.3716,-663.9077 323,-665.5 365.5593,-707.1151 317.3925,-751.9333 359,-794.5 362.9077,-798.4978 367.4582,-801.8345 372.365,-804.6187"/>
<polygon fill="#191970" stroke="#191970" points="319.6063,-658.1015 309.2391,-655.9169 315.9811,-664.0898 319.6063,-658.1015"/>
</g>
<!-- Node28 -->
<g id="node29" class="node">
<title>Node28</title>
<g id="a_node29"><a xlink:href="classtracktion__engine_1_1FreezePointPlugin.html" target="_top" xlink:title="tracktion_engine::Freeze\lPointPlugin">
<polygon fill="none" stroke="#000000" points="376,-754.5 376,-784.5 500,-784.5 500,-754.5 376,-754.5"/>
<text text-anchor="start" x="384" y="-772.5" font-family="Helvetica,sans-Serif" font-size="10.00" fill="#000000">tracktion_engine::Freeze</text>
<text text-anchor="middle" x="438" y="-761.5" font-family="Helvetica,sans-Serif" font-size="10.00" fill="#000000">PointPlugin</text>
</a>
</g>
</g>
<!-- Node18&#45;&gt;Node28 -->
<g id="edge28" class="edge">
<title>Node18&#45;&gt;Node28</title>
<path fill="none" stroke="#191970" d="M316.6029,-660.8585C318.845,-662.2665 320.9881,-663.8094 323,-665.5 352.8504,-690.5828 329.7244,-719.7486 359,-745.5 363.9509,-749.8549 369.6734,-753.4197 375.7302,-756.3377"/>
<polygon fill="#191970" stroke="#191970" points="318.0087,-657.6429 307.5313,-656.0699 314.7409,-663.8334 318.0087,-657.6429"/>
</g>
<!-- Node29 -->
<g id="node30" class="node">
<title>Node29</title>
<g id="a_node30"><a xlink:href="classtracktion__engine_1_1InsertPlugin.html" target="_top" xlink:title="tracktion_engine::Insert\lPlugin">
<polygon fill="none" stroke="#000000" points="378.5,-705.5 378.5,-735.5 497.5,-735.5 497.5,-705.5 378.5,-705.5"/>
<text text-anchor="start" x="386.5" y="-723.5" font-family="Helvetica,sans-Serif" font-size="10.00" fill="#000000">tracktion_engine::Insert</text>
<text text-anchor="middle" x="438" y="-712.5" font-family="Helvetica,sans-Serif" font-size="10.00" fill="#000000">Plugin</text>
</a>
</g>
</g>
<!-- Node18&#45;&gt;Node29 -->
<g id="edge29" class="edge">
<title>Node18&#45;&gt;Node29</title>
<path fill="none" stroke="#191970" d="M308.8617,-659.3013C313.7526,-661.1136 318.5276,-663.1698 323,-665.5 341.7255,-675.2561 340.4998,-686.323 359,-696.5 365.1541,-699.8854 371.8466,-702.8541 378.6459,-705.4415"/>
<polygon fill="#191970" stroke="#191970" points="309.9567,-655.9769 299.3627,-656.1086 307.7265,-662.6122 309.9567,-655.9769"/>
</g>
<!-- Node30 -->
<g id="node31" class="node">
<title>Node30</title>
<g id="a_node31"><a xlink:href="classtracktion__engine_1_1LatencyPlugin.html" target="_top" xlink:title="A test plugin that introduces latency to the incomming signal. ">
<polygon fill="none" stroke="#000000" points="374,-656.5 374,-686.5 502,-686.5 502,-656.5 374,-656.5"/>
<text text-anchor="start" x="382" y="-674.5" font-family="Helvetica,sans-Serif" font-size="10.00" fill="#000000">tracktion_engine::Latency</text>
<text text-anchor="middle" x="438" y="-663.5" font-family="Helvetica,sans-Serif" font-size="10.00" fill="#000000">Plugin</text>
</a>
</g>
</g>
<!-- Node18&#45;&gt;Node30 -->
<g id="edge30" class="edge">
<title>Node18&#45;&gt;Node30</title>
<path fill="none" stroke="#191970" d="M319.5432,-655.8725C337.3089,-658.2162 356.263,-660.7168 373.6818,-663.0148"/>
<polygon fill="#191970" stroke="#191970" points="319.6128,-652.3514 309.2409,-654.5133 318.6972,-659.2913 319.6128,-652.3514"/>
</g>
<!-- Node31 -->
<g id="node32" class="node">
<title>Node31</title>
<g id="a_node32"><a xlink:href="classtracktion__engine_1_1LevelMeterPlugin.html" target="_top" xlink:title="tracktion_engine::LevelMeter\lPlugin">
<polygon fill="none" stroke="#000000" points="367,-607.5 367,-637.5 509,-637.5 509,-607.5 367,-607.5"/>
<text text-anchor="start" x="375" y="-625.5" font-family="Helvetica,sans-Serif" font-size="10.00" fill="#000000">tracktion_engine::LevelMeter</text>
<text text-anchor="middle" x="438" y="-614.5" font-family="Helvetica,sans-Serif" font-size="10.00" fill="#000000">Plugin</text>
</a>
</g>
</g>
<!-- Node18&#45;&gt;Node31 -->
<g id="edge31" class="edge">
<title>Node18&#45;&gt;Node31</title>
<path fill="none" stroke="#191970" d="M319.2733,-637.5366C334.7695,-635.5741 351.1815,-633.4955 366.6983,-631.5303"/>
<polygon fill="#191970" stroke="#191970" points="318.7219,-634.0784 309.2409,-638.8072 319.6015,-641.0229 318.7219,-634.0784"/>
</g>
<!-- Node32 -->
<g id="node33" class="node">
<title>Node32</title>
<g id="a_node33"><a xlink:href="classtracktion__engine_1_1LowPassPlugin.html" target="_top" xlink:title="tracktion_engine::LowPass\lPlugin">
<polygon fill="none" stroke="#000000" points="371,-558.5 371,-588.5 505,-588.5 505,-558.5 371,-558.5"/>
<text text-anchor="start" x="379" y="-576.5" font-family="Helvetica,sans-Serif" font-size="10.00" fill="#000000">tracktion_engine::LowPass</text>
<text text-anchor="middle" x="438" y="-565.5" font-family="Helvetica,sans-Serif" font-size="10.00" fill="#000000">Plugin</text>
</a>
</g>
</g>
<!-- Node18&#45;&gt;Node32 -->
<g id="edge32" class="edge">
<title>Node18&#45;&gt;Node32</title>
<path fill="none" stroke="#191970" d="M308.3044,-633.7095C313.3784,-631.8899 318.3445,-629.8293 323,-627.5 341.3741,-618.3068 340.8942,-608.211 359,-598.5 365.9725,-594.7603 373.5955,-591.4736 381.2676,-588.6178"/>
<polygon fill="#191970" stroke="#191970" points="306.8883,-630.4899 298.4672,-636.9192 309.0596,-637.1447 306.8883,-630.4899"/>
</g>
<!-- Node33 -->
<g id="node34" class="node">
<title>Node33</title>
<g id="a_node34"><a xlink:href="classtracktion__engine_1_1MidiModifierPlugin.html" target="_top" xlink:title="tracktion_engine::MidiModifier\lPlugin">
<polygon fill="none" stroke="#000000" points="365,-509.5 365,-539.5 511,-539.5 511,-509.5 365,-509.5"/>
<text text-anchor="start" x="373" y="-527.5" font-family="Helvetica,sans-Serif" font-size="10.00" fill="#000000">tracktion_engine::MidiModifier</text>
<text text-anchor="middle" x="438" y="-516.5" font-family="Helvetica,sans-Serif" font-size="10.00" fill="#000000">Plugin</text>
</a>
</g>
</g>
<!-- Node18&#45;&gt;Node33 -->
<g id="edge33" class="edge">
<title>Node18&#45;&gt;Node33</title>
<path fill="none" stroke="#191970" d="M316.5823,-632.1169C318.8302,-630.7157 320.98,-629.1809 323,-627.5 352.3482,-603.0774 330.3568,-574.7457 359,-549.5 363.4247,-545.6001 368.4585,-542.3081 373.7928,-539.5294"/>
<polygon fill="#191970" stroke="#191970" points="314.7229,-629.1399 307.4937,-636.8852 317.9751,-635.3385 314.7229,-629.1399"/>
</g>
<!-- Node34 -->
<g id="node35" class="node">
<title>Node34</title>
<g id="a_node35"><a xlink:href="classtracktion__engine_1_1MidiPatchBayPlugin.html" target="_top" xlink:title="tracktion_engine::MidiPatch\lBayPlugin">
<polygon fill="none" stroke="#000000" points="369.5,-460.5 369.5,-490.5 506.5,-490.5 506.5,-460.5 369.5,-460.5"/>
<text text-anchor="start" x="377.5" y="-478.5" font-family="Helvetica,sans-Serif" font-size="10.00" fill="#000000">tracktion_engine::MidiPatch</text>
<text text-anchor="middle" x="438" y="-467.5" font-family="Helvetica,sans-Serif" font-size="10.00" fill="#000000">BayPlugin</text>
</a>
</g>
</g>
<!-- Node18&#45;&gt;Node34 -->
<g id="edge34" class="edge">
<title>Node18&#45;&gt;Node34</title>
<path fill="none" stroke="#191970" d="M317.7871,-631.8946C319.6233,-630.5505 321.3684,-629.089 323,-627.5 365.031,-586.5687 318.1477,-542.6078 359,-500.5 362.7063,-496.6798 366.9915,-493.4416 371.6109,-490.697"/>
<polygon fill="#191970" stroke="#191970" points="315.9738,-628.9008 309.2224,-637.0659 319.592,-634.8932 315.9738,-628.9008"/>
</g>
<!-- Node35 -->
<g id="node36" class="node">
<title>Node35</title>
<g id="a_node36"><a xlink:href="classtracktion__engine_1_1PatchBayPlugin.html" target="_top" xlink:title="tracktion_engine::PatchBay\lPlugin">
<polygon fill="none" stroke="#000000" points="369.5,-411.5 369.5,-441.5 506.5,-441.5 506.5,-411.5 369.5,-411.5"/>
<text text-anchor="start" x="377.5" y="-429.5" font-family="Helvetica,sans-Serif" font-size="10.00" fill="#000000">tracktion_engine::PatchBay</text>
<text text-anchor="middle" x="438" y="-418.5" font-family="Helvetica,sans-Serif" font-size="10.00" fill="#000000">Plugin</text>
</a>
</g>
</g>
<!-- Node18&#45;&gt;Node35 -->
<g id="edge35" class="edge">
<title>Node18&#45;&gt;Node35</title>
<path fill="none" stroke="#191970" d="M317.8165,-632.1494C319.6551,-630.7338 321.3912,-629.1878 323,-627.5 378.0871,-569.7062 305.5755,-510.8341 359,-451.5 362.4653,-447.6514 366.5183,-444.3908 370.925,-441.629"/>
<polygon fill="#191970" stroke="#191970" points="315.7962,-629.2848 309.176,-637.5566 319.5096,-635.2186 315.7962,-629.2848"/>
</g>
<!-- Node36 -->
<g id="node37" class="node">
<title>Node36</title>
<g id="a_node37"><a xlink:href="classtracktion__engine_1_1PhaserPlugin.html" target="_top" xlink:title="tracktion_engine::Phaser\lPlugin">
<polygon fill="none" stroke="#000000" points="375.5,-362.5 375.5,-392.5 500.5,-392.5 500.5,-362.5 375.5,-362.5"/>
<text text-anchor="start" x="383.5" y="-380.5" font-family="Helvetica,sans-Serif" font-size="10.00" fill="#000000">tracktion_engine::Phaser</text>
<text text-anchor="middle" x="438" y="-369.5" font-family="Helvetica,sans-Serif" font-size="10.00" fill="#000000">Plugin</text>
</a>
</g>
</g>
<!-- Node18&#45;&gt;Node36 -->
<g id="edge36" class="edge">
<title>Node18&#45;&gt;Node36</title>
<path fill="none" stroke="#191970" d="M317.7857,-632.339C319.6442,-630.8709 321.3914,-629.2622 323,-627.5 391.2767,-552.705 292.8737,-479.2027 359,-402.5 363.5087,-397.2701 369.1041,-393.1225 375.22,-389.8352"/>
<polygon fill="#191970" stroke="#191970" points="315.5719,-629.5987 309.0077,-637.915 319.3253,-635.5074 315.5719,-629.5987"/>
</g>
<!-- Node37 -->
<g id="node38" class="node">
<title>Node37</title>
<g id="a_node38"><a xlink:href="classtracktion__engine_1_1PitchShiftPlugin.html" target="_top" xlink:title="tracktion_engine::PitchShift\lPlugin">
<polygon fill="none" stroke="#000000" points="369.5,-313.5 369.5,-343.5 506.5,-343.5 506.5,-313.5 369.5,-313.5"/>
<text text-anchor="start" x="377.5" y="-331.5" font-family="Helvetica,sans-Serif" font-size="10.00" fill="#000000">tracktion_engine::PitchShift</text>
<text text-anchor="middle" x="438" y="-320.5" font-family="Helvetica,sans-Serif" font-size="10.00" fill="#000000">Plugin</text>
</a>
</g>
</g>
<!-- Node18&#45;&gt;Node37 -->
<g id="edge37" class="edge">
<title>Node18&#45;&gt;Node37</title>
<path fill="none" stroke="#191970" d="M317.8501,-632.397C319.6904,-630.9125 321.4162,-629.2845 323,-627.5 404.5284,-535.6363 280.1118,-447.6407 359,-353.5 362.2339,-349.6409 366.0602,-346.3697 370.2564,-343.5978"/>
<polygon fill="#191970" stroke="#191970" points="315.6339,-629.6619 309.1335,-638.0283 319.4324,-635.5417 315.6339,-629.6619"/>
</g>
<!-- Node38 -->
<g id="node39" class="node">
<title>Node38</title>
<g id="a_node39"><a xlink:href="classtracktion__engine_1_1RackInstance.html" target="_top" xlink:title="tracktion_engine::RackInstance">
<polygon fill="none" stroke="#000000" points="360.5,-275 360.5,-294 515.5,-294 515.5,-275 360.5,-275"/>
<text text-anchor="middle" x="438" y="-282" font-family="Helvetica,sans-Serif" font-size="10.00" fill="#000000">tracktion_engine::RackInstance</text>
</a>
</g>
</g>
<!-- Node18&#45;&gt;Node38 -->
<g id="edge38" class="edge">
<title>Node18&#45;&gt;Node38</title>
<path fill="none" stroke="#191970" d="M317.8958,-632.4372C319.7232,-630.9413 321.4338,-629.3 323,-627.5 417.8138,-518.5297 264.0906,-413.3871 359,-304.5 362.7185,-300.2339 367.2036,-296.8127 372.1251,-294.0765"/>
<polygon fill="#191970" stroke="#191970" points="315.678,-629.7055 309.2226,-638.1066 319.508,-635.5647 315.678,-629.7055"/>
</g>
<!-- Node39 -->
<g id="node40" class="node">
<title>Node39</title>
<g id="a_node40"><a xlink:href="classtracktion__engine_1_1ReverbPlugin.html" target="_top" xlink:title="tracktion_engine::Reverb\lPlugin">
<polygon fill="none" stroke="#000000" points="375.5,-225.5 375.5,-255.5 500.5,-255.5 500.5,-225.5 375.5,-225.5"/>
<text text-anchor="start" x="383.5" y="-243.5" font-family="Helvetica,sans-Serif" font-size="10.00" fill="#000000">tracktion_engine::Reverb</text>
<text text-anchor="middle" x="438" y="-232.5" font-family="Helvetica,sans-Serif" font-size="10.00" fill="#000000">Plugin</text>
</a>
</g>
</g>
<!-- Node18&#45;&gt;Node39 -->
<g id="edge39" class="edge">
<title>Node18&#45;&gt;Node39</title>
<path fill="none" stroke="#191970" d="M317.9236,-632.4612C319.7431,-630.9585 321.4446,-629.3093 323,-627.5 428.4028,-504.8971 257.1195,-391.0452 359,-265.5 363.4417,-260.0265 369.0774,-255.7325 375.2872,-252.3668"/>
<polygon fill="#191970" stroke="#191970" points="315.7049,-629.7315 309.2769,-638.1535 319.554,-635.5783 315.7049,-629.7315"/>
</g>
<!-- Node40 -->
<g id="node41" class="node">
<title>Node40</title>
<g id="a_node41"><a xlink:href="classtracktion__engine_1_1SamplerPlugin.html" target="_top" xlink:title="tracktion_engine::Sampler\lPlugin">
<polygon fill="none" stroke="#000000" points="373,-176.5 373,-206.5 503,-206.5 503,-176.5 373,-176.5"/>
<text text-anchor="start" x="381" y="-194.5" font-family="Helvetica,sans-Serif" font-size="10.00" fill="#000000">tracktion_engine::Sampler</text>
<text text-anchor="middle" x="438" y="-183.5" font-family="Helvetica,sans-Serif" font-size="10.00" fill="#000000">Plugin</text>
</a>
</g>
</g>
<!-- Node18&#45;&gt;Node40 -->
<g id="edge40" class="edge">
<title>Node18&#45;&gt;Node40</title>
<path fill="none" stroke="#191970" d="M317.9513,-632.4849C319.763,-630.9754 321.4552,-629.3184 323,-627.5 382.3597,-557.6272 301.6474,-288.0294 359,-216.5 362.8696,-211.6739 367.6681,-207.7638 372.9743,-204.598"/>
<polygon fill="#191970" stroke="#191970" points="315.7318,-629.757 309.3309,-638.1997 319.5997,-635.5914 315.7318,-629.757"/>
</g>
<!-- Node41 -->
<g id="node42" class="node">
<title>Node41</title>
<g id="a_node42"><a xlink:href="classtracktion__engine_1_1TextPlugin.html" target="_top" xlink:title="tracktion_engine::TextPlugin">
<polygon fill="none" stroke="#000000" points="368,-138 368,-157 508,-157 508,-138 368,-138"/>
<text text-anchor="middle" x="438" y="-145" font-family="Helvetica,sans-Serif" font-size="10.00" fill="#000000">tracktion_engine::TextPlugin</text>
</a>
</g>
</g>
<!-- Node18&#45;&gt;Node41 -->
<g id="edge41" class="edge">
<title>Node18&#45;&gt;Node41</title>
<path fill="none" stroke="#191970" d="M317.4203,-632.9596C319.4354,-631.3243 321.3079,-629.5106 323,-627.5 389.0229,-549.0502 292.9083,-245.8918 359,-167.5 362.5566,-163.2815 366.863,-159.8842 371.6083,-157.1557"/>
<polygon fill="#191970" stroke="#191970" points="315.4967,-630.0355 309.0209,-638.4209 319.3125,-635.9041 315.4967,-630.0355"/>
</g>
<!-- Node42 -->
<g id="node43" class="node">
<title>Node42</title>
<g id="a_node43"><a xlink:href="classtracktion__engine_1_1ToneGeneratorPlugin.html" target="_top" xlink:title="tracktion_engine::ToneGenerator\lPlugin">
<polygon fill="none" stroke="#000000" points="359,-88.5 359,-118.5 517,-118.5 517,-88.5 359,-88.5"/>
<text text-anchor="start" x="367" y="-106.5" font-family="Helvetica,sans-Serif" font-size="10.00" fill="#000000">tracktion_engine::ToneGenerator</text>
<text text-anchor="middle" x="438" y="-95.5" font-family="Helvetica,sans-Serif" font-size="10.00" fill="#000000">Plugin</text>
</a>
</g>
</g>
<!-- Node18&#45;&gt;Node42 -->
<g id="edge42" class="edge">
<title>Node18&#45;&gt;Node42</title>
<path fill="none" stroke="#191970" d="M317.436,-632.9727C319.4467,-631.3338 321.314,-629.5157 323,-627.5 394.3287,-542.2207 290.1206,-215.7695 359,-128.5 362.0303,-124.6607 365.6491,-121.4002 369.6468,-118.6325"/>
<polygon fill="#191970" stroke="#191970" points="315.5118,-630.049 309.0495,-638.4448 319.337,-635.9115 315.5118,-630.049"/>
</g>
<!-- Node43 -->
<g id="node44" class="node">
<title>Node43</title>
<g id="a_node44"><a xlink:href="classtracktion__engine_1_1VCAPlugin.html" target="_top" xlink:title="The VCA plugin sits on a folder track to control the overall level of all the volume/pan plugins in i...">
<polygon fill="none" stroke="#000000" points="367,-50 367,-69 509,-69 509,-50 367,-50"/>
<text text-anchor="middle" x="438" y="-57" font-family="Helvetica,sans-Serif" font-size="10.00" fill="#000000">tracktion_engine::VCAPlugin</text>
</a>
</g>
</g>
<!-- Node18&#45;&gt;Node43 -->
<g id="edge43" class="edge">
<title>Node18&#45;&gt;Node43</title>
<path fill="none" stroke="#191970" d="M317.4526,-632.9865C319.4587,-631.3438 321.3205,-629.5211 323,-627.5 400.9973,-533.6371 280.9203,-173.2944 359,-79.5 362.5302,-75.2593 366.8182,-71.8466 371.5513,-69.1079"/>
<polygon fill="#191970" stroke="#191970" points="315.5277,-630.0633 309.0796,-638.47 319.3629,-635.9192 315.5277,-630.0633"/>
</g>
<!-- Node44 -->
<g id="node45" class="node">
<title>Node44</title>
<g id="a_node45"><a xlink:href="classtracktion__engine_1_1VolumeAndPanPlugin.html" target="_top" xlink:title="The built&#45;in Tracktion volume/pan plugin. ">
<polygon fill="none" stroke="#000000" points="374.5,-.5 374.5,-30.5 501.5,-30.5 501.5,-.5 374.5,-.5"/>
<text text-anchor="start" x="382.5" y="-18.5" font-family="Helvetica,sans-Serif" font-size="10.00" fill="#000000">tracktion_engine::Volume</text>
<text text-anchor="middle" x="438" y="-7.5" font-family="Helvetica,sans-Serif" font-size="10.00" fill="#000000">AndPanPlugin</text>
</a>
</g>
</g>
<!-- Node18&#45;&gt;Node44 -->
<g id="edge44" class="edge">
<title>Node18&#45;&gt;Node44</title>
<path fill="none" stroke="#191970" d="M317.4638,-632.9958C319.4668,-631.3505 321.3249,-629.5248 323,-627.5 406.3065,-526.8035 278.5851,-143.5204 359,-40.5 363.1603,-35.1702 368.4558,-30.9548 374.3294,-27.6242"/>
<polygon fill="#191970" stroke="#191970" points="315.5386,-630.0729 309.1001,-638.487 319.3804,-635.9244 315.5386,-630.0729"/>
</g>
</g>
</svg>
