<?xml version="1.0" encoding="UTF-8" standalone="no"?>
<!DOCTYPE svg PUBLIC "-//W3C//DTD SVG 1.1//EN"
 "http://www.w3.org/Graphics/SVG/1.1/DTD/svg11.dtd">
<!-- Generated by graphviz version 2.43.0 (0)
 -->
<!-- Title: tracktion::engine::AutomatableParameter::ModifierAssignment Pages: 1 -->
<svg width="335pt" height="368pt"
 viewBox="0.00 0.00 335.00 367.50" xmlns="http://www.w3.org/2000/svg" xmlns:xlink="http://www.w3.org/1999/xlink">
<g id="graph0" class="graph" transform="scale(1 1) rotate(0) translate(4 363.5)">
<title>tracktion::engine::AutomatableParameter::ModifierAssignment</title>
<!-- Node1 -->
<g id="node1" class="node">
<title>Node1</title>
<g id="a_node1"><a xlink:title="Connects a modifier source to an AutomatableParameter.">
<polygon fill="#bfbfbf" stroke="black" points="0,-154 0,-195 130,-195 130,-154 0,-154"/>
<text text-anchor="start" x="8" y="-183" font-family="Helvetica,sans-Serif" font-size="10.00">tracktion::engine::</text>
<text text-anchor="start" x="8" y="-172" font-family="Helvetica,sans-Serif" font-size="10.00">AutomatableParameter</text>
<text text-anchor="middle" x="65" y="-161" font-family="Helvetica,sans-Serif" font-size="10.00">::ModifierAssignment</text>
</a>
</g>
</g>
<!-- Node2 -->
<g id="node2" class="node">
<title>Node2</title>
<g id="a_node2"><a xlink:href="structtracktion_1_1engine_1_1BreakpointOscillatorModifier_1_1Assignment.html" target="_top" xlink:title=" ">
<polygon fill="none" stroke="black" points="168.5,-318 168.5,-359 324.5,-359 324.5,-318 168.5,-318"/>
<text text-anchor="start" x="176.5" y="-347" font-family="Helvetica,sans-Serif" font-size="10.00">tracktion::engine::</text>
<text text-anchor="start" x="176.5" y="-336" font-family="Helvetica,sans-Serif" font-size="10.00">BreakpointOscillatorModifier</text>
<text text-anchor="middle" x="246.5" y="-325" font-family="Helvetica,sans-Serif" font-size="10.00">::Assignment</text>
</a>
</g>
</g>
<!-- Node1&#45;&gt;Node2 -->
<g id="edge1" class="edge">
<title>Node1&#45;&gt;Node2</title>
<path fill="none" stroke="midnightblue" d="M81.28,-203.87C98.28,-233.95 128.38,-280.18 166,-308.5 170.6,-311.96 175.64,-315.06 180.88,-317.84"/>
<polygon fill="midnightblue" stroke="midnightblue" points="84.33,-202.15 76.43,-195.09 78.2,-205.54 84.33,-202.15"/>
</g>
<!-- Node3 -->
<g id="node3" class="node">
<title>Node3</title>
<g id="a_node3"><a xlink:href="structtracktion_1_1engine_1_1EnvelopeFollowerModifier_1_1Assignment.html" target="_top" xlink:title=" ">
<polygon fill="none" stroke="black" points="175,-258 175,-299 318,-299 318,-258 175,-258"/>
<text text-anchor="start" x="183" y="-287" font-family="Helvetica,sans-Serif" font-size="10.00">tracktion::engine::</text>
<text text-anchor="start" x="183" y="-276" font-family="Helvetica,sans-Serif" font-size="10.00">EnvelopeFollowerModifier</text>
<text text-anchor="middle" x="246.5" y="-265" font-family="Helvetica,sans-Serif" font-size="10.00">::Assignment</text>
</a>
</g>
</g>
<!-- Node1&#45;&gt;Node3 -->
<g id="edge2" class="edge">
<title>Node1&#45;&gt;Node3</title>
<path fill="none" stroke="midnightblue" d="M97.77,-201.56C116.71,-216.76 141.72,-235.27 166,-248.5 172.22,-251.89 178.9,-255.06 185.65,-257.98"/>
<polygon fill="midnightblue" stroke="midnightblue" points="99.75,-198.66 89.79,-195.06 95.33,-204.09 99.75,-198.66"/>
</g>
<!-- Node4 -->
<g id="node4" class="node">
<title>Node4</title>
<g id="a_node4"><a xlink:href="structtracktion_1_1engine_1_1LFOModifier_1_1Assignment.html" target="_top" xlink:title=" ">
<polygon fill="none" stroke="black" points="177,-208.5 177,-238.5 316,-238.5 316,-208.5 177,-208.5"/>
<text text-anchor="start" x="185" y="-226.5" font-family="Helvetica,sans-Serif" font-size="10.00">tracktion::engine::</text>
<text text-anchor="middle" x="246.5" y="-215.5" font-family="Helvetica,sans-Serif" font-size="10.00">LFOModifier::Assignment</text>
</a>
</g>
</g>
<!-- Node1&#45;&gt;Node4 -->
<g id="edge3" class="edge">
<title>Node1&#45;&gt;Node4</title>
<path fill="none" stroke="midnightblue" d="M139.88,-194.67C156.78,-199.28 174.45,-204.11 190.4,-208.46"/>
<polygon fill="midnightblue" stroke="midnightblue" points="140.61,-191.24 130.04,-191.98 138.77,-197.99 140.61,-191.24"/>
</g>
<!-- Node5 -->
<g id="node5" class="node">
<title>Node5</title>
<g id="a_node5"><a xlink:href="structtracktion_1_1engine_1_1MacroParameter_1_1Assignment.html" target="_top" xlink:title="An Assignment between a MacroParameter and an AutomatableParameter.">
<polygon fill="none" stroke="black" points="166,-159.5 166,-189.5 327,-189.5 327,-159.5 166,-159.5"/>
<text text-anchor="start" x="174" y="-177.5" font-family="Helvetica,sans-Serif" font-size="10.00">tracktion::engine::</text>
<text text-anchor="middle" x="246.5" y="-166.5" font-family="Helvetica,sans-Serif" font-size="10.00">MacroParameter::Assignment</text>
</a>
</g>
</g>
<!-- Node1&#45;&gt;Node5 -->
<g id="edge4" class="edge">
<title>Node1&#45;&gt;Node5</title>
<path fill="none" stroke="midnightblue" d="M140.22,-174.5C148.66,-174.5 157.28,-174.5 165.79,-174.5"/>
<polygon fill="midnightblue" stroke="midnightblue" points="140.04,-171 130.04,-174.5 140.04,-178 140.04,-171"/>
</g>
<!-- Node6 -->
<g id="node6" class="node">
<title>Node6</title>
<g id="a_node6"><a xlink:href="structtracktion_1_1engine_1_1MIDITrackerModifier_1_1Assignment.html" target="_top" xlink:title=" ">
<polygon fill="none" stroke="black" points="190,-99 190,-140 303,-140 303,-99 190,-99"/>
<text text-anchor="start" x="198" y="-128" font-family="Helvetica,sans-Serif" font-size="10.00">tracktion::engine::</text>
<text text-anchor="start" x="198" y="-117" font-family="Helvetica,sans-Serif" font-size="10.00">MIDITrackerModifier</text>
<text text-anchor="middle" x="246.5" y="-106" font-family="Helvetica,sans-Serif" font-size="10.00">::Assignment</text>
</a>
</g>
</g>
<!-- Node1&#45;&gt;Node6 -->
<g id="edge5" class="edge">
<title>Node1&#45;&gt;Node6</title>
<path fill="none" stroke="midnightblue" d="M139.78,-151.89C156.5,-146.77 173.99,-141.41 189.81,-136.56"/>
<polygon fill="midnightblue" stroke="midnightblue" points="138.58,-148.6 130.04,-154.88 140.63,-155.29 138.58,-148.6"/>
</g>
<!-- Node7 -->
<g id="node7" class="node">
<title>Node7</title>
<g id="a_node7"><a xlink:href="structtracktion_1_1engine_1_1RandomModifier_1_1Assignment.html" target="_top" xlink:title=" ">
<polygon fill="none" stroke="black" points="166,-49.5 166,-79.5 327,-79.5 327,-49.5 166,-49.5"/>
<text text-anchor="start" x="174" y="-67.5" font-family="Helvetica,sans-Serif" font-size="10.00">tracktion::engine::</text>
<text text-anchor="middle" x="246.5" y="-56.5" font-family="Helvetica,sans-Serif" font-size="10.00">RandomModifier::Assignment</text>
</a>
</g>
</g>
<!-- Node1&#45;&gt;Node7 -->
<g id="edge6" class="edge">
<title>Node1&#45;&gt;Node7</title>
<path fill="none" stroke="midnightblue" d="M92.36,-146.9C111.33,-128.42 138.35,-104.77 166,-89.5 172.84,-85.72 180.33,-82.43 187.89,-79.58"/>
<polygon fill="midnightblue" stroke="midnightblue" points="89.88,-144.43 85.25,-153.96 94.81,-149.4 89.88,-144.43"/>
</g>
<!-- Node8 -->
<g id="node8" class="node">
<title>Node8</title>
<g id="a_node8"><a xlink:href="structtracktion_1_1engine_1_1StepModifier_1_1Assignment.html" target="_top" xlink:title=" ">
<polygon fill="none" stroke="black" points="175.5,-0.5 175.5,-30.5 317.5,-30.5 317.5,-0.5 175.5,-0.5"/>
<text text-anchor="start" x="183.5" y="-18.5" font-family="Helvetica,sans-Serif" font-size="10.00">tracktion::engine::</text>
<text text-anchor="middle" x="246.5" y="-7.5" font-family="Helvetica,sans-Serif" font-size="10.00">StepModifier::Assignment</text>
</a>
</g>
</g>
<!-- Node1&#45;&gt;Node8 -->
<g id="edge7" class="edge">
<title>Node1&#45;&gt;Node8</title>
<path fill="none" stroke="midnightblue" d="M80.97,-144.7C97.71,-114.27 127.6,-67.75 166,-40.5 171.43,-36.65 177.47,-33.37 183.74,-30.59"/>
<polygon fill="midnightblue" stroke="midnightblue" points="77.84,-143.12 76.2,-153.59 84.01,-146.43 77.84,-143.12"/>
</g>
</g>
</svg>
