<?xml version="1.0" encoding="UTF-8" standalone="no"?>
<!DOCTYPE svg PUBLIC "-//W3C//DTD SVG 1.1//EN"
 "http://www.w3.org/Graphics/SVG/1.1/DTD/svg11.dtd">
<!-- Generated by graphviz version 2.43.0 (0)
 -->
<!-- Title: tracktion::engine::AutomatableParameter::ModifierSource Pages: 1 -->
<svg width="471pt" height="278pt"
 viewBox="0.00 0.00 471.00 278.00" xmlns="http://www.w3.org/2000/svg" xmlns:xlink="http://www.w3.org/1999/xlink">
<g id="graph0" class="graph" transform="scale(1 1) rotate(0) translate(4 274)">
<title>tracktion::engine::AutomatableParameter::ModifierSource</title>
<!-- Node1 -->
<g id="Node000001" class="node">
<title>Node1</title>
<g id="a_Node000001"><a xlink:title="Base class for things that can be used to modify parameters.">
<polygon fill="#999999" stroke="#666666" points="130,-179.5 0,-179.5 0,-138.5 130,-138.5 130,-179.5"/>
<text text-anchor="start" x="8" y="-167.5" font-family="Helvetica,sans-Serif" font-size="10.00">tracktion::engine::</text>
<text text-anchor="start" x="8" y="-156.5" font-family="Helvetica,sans-Serif" font-size="10.00">AutomatableParameter</text>
<text text-anchor="middle" x="65" y="-145.5" font-family="Helvetica,sans-Serif" font-size="10.00">::ModifierSource</text>
</a>
</g>
</g>
<!-- Node2 -->
<g id="Node000002" class="node">
<title>Node2</title>
<g id="a_Node000002"><a xlink:href="classtracktion_1_1engine_1_1MacroParameter.html" target="_top" xlink:title="A MacroParameter is an AutomatableParameter which is a collection of Mappings.">
<polygon fill="white" stroke="#666666" points="271,-198 166,-198 166,-168 271,-168 271,-198"/>
<text text-anchor="start" x="174" y="-186" font-family="Helvetica,sans-Serif" font-size="10.00">tracktion::engine::</text>
<text text-anchor="middle" x="218.5" y="-175" font-family="Helvetica,sans-Serif" font-size="10.00">MacroParameter</text>
</a>
</g>
</g>
<!-- Node1&#45;&gt;Node2 -->
<g id="edge1_Node000001_Node000002" class="edge">
<title>Node1&#45;&gt;Node2</title>
<g id="a_edge1_Node000001_Node000002"><a xlink:title=" ">
<path fill="none" stroke="#63b8ff" d="M140.25,-170.76C148.8,-172.12 157.37,-173.47 165.54,-174.77"/>
<polygon fill="#63b8ff" stroke="#63b8ff" points="140.67,-167.29 130.25,-169.18 139.58,-174.2 140.67,-167.29"/>
</a>
</g>
</g>
<!-- Node3 -->
<g id="Node000003" class="node">
<title>Node3</title>
<g id="a_Node000003"><a xlink:href="structtracktion_1_1engine_1_1Modifier.html" target="_top" xlink:title="Bass class for parameter Modifiers.">
<polygon fill="white" stroke="#666666" points="271,-150 166,-150 166,-120 271,-120 271,-150"/>
<text text-anchor="start" x="174" y="-138" font-family="Helvetica,sans-Serif" font-size="10.00">tracktion::engine::</text>
<text text-anchor="middle" x="218.5" y="-127" font-family="Helvetica,sans-Serif" font-size="10.00">Modifier</text>
</a>
</g>
</g>
<!-- Node1&#45;&gt;Node3 -->
<g id="edge2_Node000001_Node000003" class="edge">
<title>Node1&#45;&gt;Node3</title>
<g id="a_edge2_Node000001_Node000003"><a xlink:title=" ">
<path fill="none" stroke="#63b8ff" d="M140.25,-147.24C148.8,-145.88 157.37,-144.53 165.54,-143.23"/>
<polygon fill="#63b8ff" stroke="#63b8ff" points="139.58,-143.8 130.25,-148.82 140.67,-150.71 139.58,-143.8"/>
</a>
</g>
</g>
<!-- Node4 -->
<g id="Node000004" class="node">
<title>Node4</title>
<g id="a_Node000004"><a xlink:href="classtracktion_1_1engine_1_1BreakpointOscillatorModifier.html" target="_top" xlink:title=" ">
<polygon fill="white" stroke="#666666" points="463,-270 307,-270 307,-240 463,-240 463,-270"/>
<text text-anchor="start" x="315" y="-258" font-family="Helvetica,sans-Serif" font-size="10.00">tracktion::engine::</text>
<text text-anchor="middle" x="385" y="-247" font-family="Helvetica,sans-Serif" font-size="10.00">BreakpointOscillatorModifier</text>
</a>
</g>
</g>
<!-- Node3&#45;&gt;Node4 -->
<g id="edge3_Node000003_Node000004" class="edge">
<title>Node3&#45;&gt;Node4</title>
<g id="a_edge3_Node000003_Node000004"><a xlink:title=" ">
<path fill="none" stroke="#63b8ff" d="M267.6,-155.96C268.78,-156.93 269.92,-157.95 271,-159 296.64,-183.95 279.74,-207.82 307,-231 311.05,-234.45 315.6,-237.4 320.4,-239.93"/>
<polygon fill="#63b8ff" stroke="#63b8ff" points="269.46,-152.99 259.27,-150.09 265.42,-158.71 269.46,-152.99"/>
</a>
</g>
</g>
<!-- Node5 -->
<g id="Node000005" class="node">
<title>Node5</title>
<g id="a_Node000005"><a xlink:href="classtracktion_1_1engine_1_1EnvelopeFollowerModifier.html" target="_top" xlink:title=" ">
<polygon fill="white" stroke="#666666" points="456.5,-222 313.5,-222 313.5,-192 456.5,-192 456.5,-222"/>
<text text-anchor="start" x="321.5" y="-210" font-family="Helvetica,sans-Serif" font-size="10.00">tracktion::engine::</text>
<text text-anchor="middle" x="385" y="-199" font-family="Helvetica,sans-Serif" font-size="10.00">EnvelopeFollowerModifier</text>
</a>
</g>
</g>
<!-- Node3&#45;&gt;Node5 -->
<g id="edge4_Node000003_Node000005" class="edge">
<title>Node3&#45;&gt;Node5</title>
<g id="a_edge4_Node000003_Node000005"><a xlink:title=" ">
<path fill="none" stroke="#63b8ff" d="M262.74,-154.56C265.56,-156.01 268.33,-157.5 271,-159 287.76,-168.42 289.64,-174.72 307,-183 313.95,-186.32 321.47,-189.31 328.99,-191.98"/>
<polygon fill="#63b8ff" stroke="#63b8ff" points="264.18,-151.36 253.67,-150.03 261.05,-157.63 264.18,-151.36"/>
</a>
</g>
</g>
<!-- Node6 -->
<g id="Node000006" class="node">
<title>Node6</title>
<g id="a_Node000006"><a xlink:href="classtracktion_1_1engine_1_1LFOModifier.html" target="_top" xlink:title=" ">
<polygon fill="white" stroke="#666666" points="437.5,-174 332.5,-174 332.5,-144 437.5,-144 437.5,-174"/>
<text text-anchor="start" x="340.5" y="-162" font-family="Helvetica,sans-Serif" font-size="10.00">tracktion::engine::</text>
<text text-anchor="middle" x="385" y="-151" font-family="Helvetica,sans-Serif" font-size="10.00">LFOModifier</text>
</a>
</g>
</g>
<!-- Node3&#45;&gt;Node6 -->
<g id="edge5_Node000003_Node000006" class="edge">
<title>Node3&#45;&gt;Node6</title>
<g id="a_edge5_Node000003_Node000006"><a xlink:title=" ">
<path fill="none" stroke="#63b8ff" d="M281.37,-144.03C298.15,-146.47 316.14,-149.1 332.3,-151.46"/>
<polygon fill="#63b8ff" stroke="#63b8ff" points="281.5,-140.51 271.1,-142.53 280.49,-147.44 281.5,-140.51"/>
</a>
</g>
</g>
<!-- Node7 -->
<g id="Node000007" class="node">
<title>Node7</title>
<g id="a_Node000007"><a xlink:href="classtracktion_1_1engine_1_1MIDITrackerModifier.html" target="_top" xlink:title=" ">
<polygon fill="white" stroke="#666666" points="441.5,-126 328.5,-126 328.5,-96 441.5,-96 441.5,-126"/>
<text text-anchor="start" x="336.5" y="-114" font-family="Helvetica,sans-Serif" font-size="10.00">tracktion::engine::</text>
<text text-anchor="middle" x="385" y="-103" font-family="Helvetica,sans-Serif" font-size="10.00">MIDITrackerModifier</text>
</a>
</g>
</g>
<!-- Node3&#45;&gt;Node7 -->
<g id="edge6_Node000003_Node000007" class="edge">
<title>Node3&#45;&gt;Node7</title>
<g id="a_edge6_Node000003_Node000007"><a xlink:title=" ">
<path fill="none" stroke="#63b8ff" d="M281.1,-126.01C296.59,-123.75 313.13,-121.34 328.31,-119.13"/>
<polygon fill="#63b8ff" stroke="#63b8ff" points="280.49,-122.56 271.1,-127.47 281.5,-129.49 280.49,-122.56"/>
</a>
</g>
</g>
<!-- Node8 -->
<g id="Node000008" class="node">
<title>Node8</title>
<g id="a_Node000008"><a xlink:href="classtracktion_1_1engine_1_1RandomModifier.html" target="_top" xlink:title=" ">
<polygon fill="white" stroke="#666666" points="437.5,-78 332.5,-78 332.5,-48 437.5,-48 437.5,-78"/>
<text text-anchor="start" x="340.5" y="-66" font-family="Helvetica,sans-Serif" font-size="10.00">tracktion::engine::</text>
<text text-anchor="middle" x="385" y="-55" font-family="Helvetica,sans-Serif" font-size="10.00">RandomModifier</text>
</a>
</g>
</g>
<!-- Node3&#45;&gt;Node8 -->
<g id="edge7_Node000003_Node000008" class="edge">
<title>Node3&#45;&gt;Node8</title>
<g id="a_edge7_Node000003_Node000008"><a xlink:title=" ">
<path fill="none" stroke="#63b8ff" d="M252.71,-114.74C268.74,-105.49 288.47,-94.88 307,-87 314.99,-83.6 323.63,-80.44 332.13,-77.61"/>
<polygon fill="#63b8ff" stroke="#63b8ff" points="250.6,-111.92 243.74,-119.99 254.13,-117.96 250.6,-111.92"/>
</a>
</g>
</g>
<!-- Node9 -->
<g id="Node000009" class="node">
<title>Node9</title>
<g id="a_Node000009"><a xlink:href="classtracktion_1_1engine_1_1StepModifier.html" target="_top" xlink:title=" ">
<polygon fill="white" stroke="#666666" points="437.5,-30 332.5,-30 332.5,0 437.5,0 437.5,-30"/>
<text text-anchor="start" x="340.5" y="-18" font-family="Helvetica,sans-Serif" font-size="10.00">tracktion::engine::</text>
<text text-anchor="middle" x="385" y="-7" font-family="Helvetica,sans-Serif" font-size="10.00">StepModifier</text>
</a>
</g>
</g>
<!-- Node3&#45;&gt;Node9 -->
<g id="edge8_Node000003_Node000009" class="edge">
<title>Node3&#45;&gt;Node9</title>
<g id="a_edge8_Node000003_Node000009"><a xlink:title=" ">
<path fill="none" stroke="#63b8ff" d="M235.4,-111.33C251.18,-89.59 277.24,-57.95 307,-39 314.68,-34.11 323.42,-30.16 332.19,-26.98"/>
<polygon fill="#63b8ff" stroke="#63b8ff" points="232.4,-109.51 229.49,-119.7 238.12,-113.55 232.4,-109.51"/>
</a>
</g>
</g>
</g>
</svg>
