<?xml version="1.0" encoding="UTF-8" standalone="no"?>
<!DOCTYPE svg PUBLIC "-//W3C//DTD SVG 1.1//EN"
 "http://www.w3.org/Graphics/SVG/1.1/DTD/svg11.dtd">
<!-- Generated by graphviz version 2.43.0 (0)
 -->
<!-- Title: tracktion_engine::TrackCompManager::TrackComp Pages: 1 -->
<svg width="334pt" height="106pt"
 viewBox="0.00 0.00 333.50 106.00" xmlns="http://www.w3.org/2000/svg" xmlns:xlink="http://www.w3.org/1999/xlink">
<g id="graph0" class="graph" transform="scale(1 1) rotate(0) translate(4 102)">
<title>tracktion_engine::TrackCompManager::TrackComp</title>
<!-- Node1 -->
<g id="node1" class="node">
<title>Node1</title>
<g id="a_node1"><a xlink:title=" ">
<polygon fill="#bfbfbf" stroke="black" points="84.5,-0.5 84.5,-30.5 242.5,-30.5 242.5,-0.5 84.5,-0.5"/>
<text text-anchor="start" x="92.5" y="-18.5" font-family="Helvetica,sans-Serif" font-size="10.00">tracktion_engine::TrackComp</text>
<text text-anchor="middle" x="163.5" y="-7.5" font-family="Helvetica,sans-Serif" font-size="10.00">Manager::TrackComp</text>
</a>
</g>
</g>
<!-- Node2 -->
<g id="node2" class="node">
<title>Node2</title>
<g id="a_node2"><a xlink:href="classtracktion__engine_1_1Selectable.html" target="_top" xlink:title="Base class for things that can be selected, and whose properties can appear in the properties panel.">
<polygon fill="none" stroke="black" points="0,-73 0,-92 155,-92 155,-73 0,-73"/>
<text text-anchor="middle" x="77.5" y="-80" font-family="Helvetica,sans-Serif" font-size="10.00">tracktion_engine::Selectable</text>
</a>
</g>
</g>
<!-- Node2&#45;&gt;Node1 -->
<g id="edge1" class="edge">
<title>Node2&#45;&gt;Node1</title>
<path fill="none" stroke="midnightblue" d="M97.29,-66.54C111.6,-55.73 130.82,-41.2 144.86,-30.59"/>
<polygon fill="midnightblue" stroke="midnightblue" points="94.97,-63.91 89.1,-72.73 99.19,-69.5 94.97,-63.91"/>
</g>
<!-- Node3 -->
<g id="node3" class="node">
<title>Node3</title>
<g id="a_node3"><a xlink:href="classtracktion__engine_1_1ValueTreeObjectList.html" target="_top" xlink:title=" ">
<polygon fill="none" stroke="black" points="173.5,-67.5 173.5,-97.5 325.5,-97.5 325.5,-67.5 173.5,-67.5"/>
<text text-anchor="start" x="181.5" y="-85.5" font-family="Helvetica,sans-Serif" font-size="10.00">tracktion_engine::ValueTree</text>
<text text-anchor="middle" x="249.5" y="-74.5" font-family="Helvetica,sans-Serif" font-size="10.00">ObjectList&lt; CompSection &gt;</text>
</a>
</g>
</g>
<!-- Node3&#45;&gt;Node1 -->
<g id="edge2" class="edge">
<title>Node3&#45;&gt;Node1</title>
<path fill="none" stroke="midnightblue" d="M222.6,-61.17C209.45,-51.23 193.95,-39.51 182.12,-30.58"/>
<polygon fill="midnightblue" stroke="midnightblue" points="220.75,-64.16 230.84,-67.4 224.97,-58.57 220.75,-64.16"/>
</g>
</g>
</svg>
