<?xml version="1.0" encoding="UTF-8" standalone="no"?>
<!DOCTYPE svg PUBLIC "-//W3C//DTD SVG 1.1//EN"
 "http://www.w3.org/Graphics/SVG/1.1/DTD/svg11.dtd">
<!-- Generated by graphviz version 2.43.0 (0)
 -->
<!-- Title: tracktion::engine::InputDeviceInstance::InputDeviceDestination Pages: 1 -->
<svg width="513pt" height="170pt"
 viewBox="0.00 0.00 513.00 170.00" xmlns="http://www.w3.org/2000/svg" xmlns:xlink="http://www.w3.org/1999/xlink">
<g id="graph0" class="graph" transform="scale(1 1) rotate(0) translate(4 166)">
<title>tracktion::engine::InputDeviceInstance::InputDeviceDestination</title>
<!-- Node1 -->
<g id="node1" class="node">
<title>Node1</title>
<g id="a_node1"><a xlink:title=" ">
<polygon fill="#bfbfbf" stroke="black" points="141,-60.5 141,-101.5 278,-101.5 278,-60.5 141,-60.5"/>
<text text-anchor="start" x="149" y="-89.5" font-family="Helvetica,sans-Serif" font-size="10.00">tracktion::engine::</text>
<text text-anchor="start" x="149" y="-78.5" font-family="Helvetica,sans-Serif" font-size="10.00">InputDeviceInstance</text>
<text text-anchor="middle" x="209.5" y="-67.5" font-family="Helvetica,sans-Serif" font-size="10.00">::InputDeviceDestination</text>
</a>
</g>
</g>
<!-- Node3 -->
<g id="node3" class="node">
<title>Node3</title>
<g id="a_node3"><a xlink:href="structtracktion_1_1engine_1_1InputDeviceInstance_1_1MidiInputDeviceDestination.html" target="_top" xlink:title=" ">
<polygon fill="none" stroke="black" points="330.5,-120.5 330.5,-161.5 488.5,-161.5 488.5,-120.5 330.5,-120.5"/>
<text text-anchor="start" x="338.5" y="-149.5" font-family="Helvetica,sans-Serif" font-size="10.00">tracktion::engine::</text>
<text text-anchor="start" x="338.5" y="-138.5" font-family="Helvetica,sans-Serif" font-size="10.00">InputDeviceInstance</text>
<text text-anchor="middle" x="409.5" y="-127.5" font-family="Helvetica,sans-Serif" font-size="10.00">::MidiInputDeviceDestination</text>
</a>
</g>
</g>
<!-- Node1&#45;&gt;Node3 -->
<g id="edge2" class="edge">
<title>Node1&#45;&gt;Node3</title>
<path fill="none" stroke="midnightblue" d="M287.67,-104.38C305.11,-109.67 323.51,-115.25 340.55,-120.41"/>
<polygon fill="midnightblue" stroke="midnightblue" points="288.67,-101.03 278.09,-101.48 286.64,-107.73 288.67,-101.03"/>
</g>
<!-- Node4 -->
<g id="node4" class="node">
<title>Node4</title>
<g id="a_node4"><a xlink:href="structtracktion_1_1engine_1_1InputDeviceInstance_1_1VirtualMidiInputDeviceDestination.html" target="_top" xlink:title=" ">
<polygon fill="none" stroke="black" points="314,-60.5 314,-101.5 505,-101.5 505,-60.5 314,-60.5"/>
<text text-anchor="start" x="322" y="-89.5" font-family="Helvetica,sans-Serif" font-size="10.00">tracktion::engine::</text>
<text text-anchor="start" x="322" y="-78.5" font-family="Helvetica,sans-Serif" font-size="10.00">InputDeviceInstance</text>
<text text-anchor="middle" x="409.5" y="-67.5" font-family="Helvetica,sans-Serif" font-size="10.00">::VirtualMidiInputDeviceDestination</text>
</a>
</g>
</g>
<!-- Node1&#45;&gt;Node4 -->
<g id="edge3" class="edge">
<title>Node1&#45;&gt;Node4</title>
<path fill="none" stroke="midnightblue" d="M288.23,-81C296.66,-81 305.29,-81 313.89,-81"/>
<polygon fill="midnightblue" stroke="midnightblue" points="288.09,-77.5 278.09,-81 288.09,-84.5 288.09,-77.5"/>
</g>
<!-- Node5 -->
<g id="node5" class="node">
<title>Node5</title>
<g id="a_node5"><a xlink:href="structtracktion_1_1engine_1_1InputDeviceInstance_1_1WaveInputDeviceDestination.html" target="_top" xlink:title=" ">
<polygon fill="none" stroke="black" points="327.5,-0.5 327.5,-41.5 491.5,-41.5 491.5,-0.5 327.5,-0.5"/>
<text text-anchor="start" x="335.5" y="-29.5" font-family="Helvetica,sans-Serif" font-size="10.00">tracktion::engine::</text>
<text text-anchor="start" x="335.5" y="-18.5" font-family="Helvetica,sans-Serif" font-size="10.00">InputDeviceInstance</text>
<text text-anchor="middle" x="409.5" y="-7.5" font-family="Helvetica,sans-Serif" font-size="10.00">::WaveInputDeviceDestination</text>
</a>
</g>
</g>
<!-- Node1&#45;&gt;Node5 -->
<g id="edge4" class="edge">
<title>Node1&#45;&gt;Node5</title>
<path fill="none" stroke="midnightblue" d="M287.67,-57.62C305.11,-52.33 323.51,-46.75 340.55,-41.59"/>
<polygon fill="midnightblue" stroke="midnightblue" points="286.64,-54.27 278.09,-60.52 288.67,-60.97 286.64,-54.27"/>
</g>
<!-- Node2 -->
<g id="node2" class="node">
<title>Node2</title>
<g id="a_node2"><a xlink:href="classtracktion_1_1engine_1_1Selectable.html" target="_top" xlink:title="Base class for things that can be selected, and whose properties can appear in the properties panel.">
<polygon fill="none" stroke="black" points="0,-66 0,-96 105,-96 105,-66 0,-66"/>
<text text-anchor="start" x="8" y="-84" font-family="Helvetica,sans-Serif" font-size="10.00">tracktion::engine::</text>
<text text-anchor="middle" x="52.5" y="-73" font-family="Helvetica,sans-Serif" font-size="10.00">Selectable</text>
</a>
</g>
</g>
<!-- Node2&#45;&gt;Node1 -->
<g id="edge1" class="edge">
<title>Node2&#45;&gt;Node1</title>
<path fill="none" stroke="midnightblue" d="M115.23,-81C123.65,-81 132.32,-81 140.84,-81"/>
<polygon fill="midnightblue" stroke="midnightblue" points="115.11,-77.5 105.11,-81 115.11,-84.5 115.11,-77.5"/>
</g>
</g>
</svg>
