<?xml version="1.0" encoding="UTF-8" standalone="no"?>
<!DOCTYPE svg PUBLIC "-//W3C//DTD SVG 1.1//EN"
 "http://www.w3.org/Graphics/SVG/1.1/DTD/svg11.dtd">
<!-- Generated by graphviz version 2.43.0 (0)
 -->
<!-- Title: tracktion::engine::RenderManager::Job::Listener Pages: 1 -->
<svg width="415pt" height="134pt"
 viewBox="0.00 0.00 415.00 134.00" xmlns="http://www.w3.org/2000/svg" xmlns:xlink="http://www.w3.org/1999/xlink">
<g id="graph0" class="graph" transform="scale(1 1) rotate(0) translate(4 130)">
<title>tracktion::engine::RenderManager::Job::Listener</title>
<!-- Node1 -->
<g id="Node000001" class="node">
<title>Node1</title>
<g id="a_Node000001"><a xlink:title=" ">
<polygon fill="#999999" stroke="#666666" points="121,-59.5 0,-59.5 0,-18.5 121,-18.5 121,-59.5"/>
<text text-anchor="start" x="8" y="-47.5" font-family="Helvetica,sans-Serif" font-size="10.00">tracktion::engine::</text>
<text text-anchor="start" x="8" y="-36.5" font-family="Helvetica,sans-Serif" font-size="10.00">RenderManager::Job::</text>
<text text-anchor="middle" x="60.5" y="-25.5" font-family="Helvetica,sans-Serif" font-size="10.00">Listener</text>
</a>
</g>
</g>
<!-- Node2 -->
<g id="Node000002" class="node">
<title>Node2</title>
<g id="a_Node000002"><a xlink:href="classtracktion_1_1engine_1_1AudioClipBase.html" target="_top" xlink:title="Base class for Clips that produce some kind of audio e.g.">
<polygon fill="white" stroke="#666666" points="264,-78 159,-78 159,-48 264,-48 264,-78"/>
<text text-anchor="start" x="167" y="-66" font-family="Helvetica,sans-Serif" font-size="10.00">tracktion::engine::</text>
<text text-anchor="middle" x="211.5" y="-55" font-family="Helvetica,sans-Serif" font-size="10.00">AudioClipBase</text>
</a>
</g>
</g>
<!-- Node1&#45;&gt;Node2 -->
<g id="edge1_Node000001_Node000002" class="edge">
<title>Node1&#45;&gt;Node2</title>
<g id="a_edge1_Node000001_Node000002"><a xlink:title=" ">
<path fill="none" stroke="#63b8ff" d="M131.28,-50.24C140.58,-51.74 149.98,-53.25 158.9,-54.69"/>
<polygon fill="#63b8ff" stroke="#63b8ff" points="131.67,-46.76 121.25,-48.62 130.56,-53.67 131.67,-46.76"/>
</a>
</g>
</g>
<!-- Node6 -->
<g id="Node000006" class="node">
<title>Node6</title>
<g id="a_Node000006"><a xlink:href="classtracktion_1_1engine_1_1WarpTimeManager.html" target="_top" xlink:title="A WarpTimeManager contains a list of WarpMarkers and some source material and maps times from a linea...">
<polygon fill="white" stroke="#666666" points="266,-30 157,-30 157,0 266,0 266,-30"/>
<text text-anchor="start" x="165" y="-18" font-family="Helvetica,sans-Serif" font-size="10.00">tracktion::engine::</text>
<text text-anchor="middle" x="211.5" y="-7" font-family="Helvetica,sans-Serif" font-size="10.00">WarpTimeManager</text>
</a>
</g>
</g>
<!-- Node1&#45;&gt;Node6 -->
<g id="edge5_Node000001_Node000006" class="edge">
<title>Node1&#45;&gt;Node6</title>
<g id="a_edge5_Node000001_Node000006"><a xlink:title=" ">
<path fill="none" stroke="#63b8ff" d="M131.17,-27.78C139.69,-26.41 148.29,-25.02 156.52,-23.69"/>
<polygon fill="#63b8ff" stroke="#63b8ff" points="130.56,-24.33 121.25,-29.38 131.67,-31.24 130.56,-24.33"/>
</a>
</g>
</g>
<!-- Node3 -->
<g id="Node000003" class="node">
<title>Node3</title>
<g id="a_Node000003"><a xlink:href="classtracktion_1_1engine_1_1ContainerClip.html" target="_top" xlink:title="A clip that can contain multiple other clips and mix their output together.">
<polygon fill="white" stroke="#666666" points="407,-126 302,-126 302,-96 407,-96 407,-126"/>
<text text-anchor="start" x="310" y="-114" font-family="Helvetica,sans-Serif" font-size="10.00">tracktion::engine::</text>
<text text-anchor="middle" x="354.5" y="-103" font-family="Helvetica,sans-Serif" font-size="10.00">ContainerClip</text>
</a>
</g>
</g>
<!-- Node2&#45;&gt;Node3 -->
<g id="edge2_Node000002_Node000003" class="edge">
<title>Node2&#45;&gt;Node3</title>
<g id="a_edge2_Node000002_Node000003"><a xlink:title=" ">
<path fill="none" stroke="#63b8ff" d="M266.39,-81.35C280.61,-86.19 295.79,-91.36 309.43,-96"/>
<polygon fill="#63b8ff" stroke="#63b8ff" points="267.32,-77.97 256.73,-78.06 265.06,-84.59 267.32,-77.97"/>
</a>
</g>
</g>
<!-- Node4 -->
<g id="Node000004" class="node">
<title>Node4</title>
<g id="a_Node000004"><a xlink:href="classtracktion_1_1engine_1_1EditClip.html" target="_top" xlink:title="This is the main source of an Edit clip and is responsible for managing its properties.">
<polygon fill="white" stroke="#666666" points="407,-78 302,-78 302,-48 407,-48 407,-78"/>
<text text-anchor="start" x="310" y="-66" font-family="Helvetica,sans-Serif" font-size="10.00">tracktion::engine::</text>
<text text-anchor="middle" x="354.5" y="-55" font-family="Helvetica,sans-Serif" font-size="10.00">EditClip</text>
</a>
</g>
</g>
<!-- Node2&#45;&gt;Node4 -->
<g id="edge3_Node000002_Node000004" class="edge">
<title>Node2&#45;&gt;Node4</title>
<g id="a_edge3_Node000002_Node000004"><a xlink:title=" ">
<path fill="none" stroke="#63b8ff" d="M274.41,-63C283.56,-63 292.9,-63 301.8,-63"/>
<polygon fill="#63b8ff" stroke="#63b8ff" points="274.2,-59.5 264.2,-63 274.2,-66.5 274.2,-59.5"/>
</a>
</g>
</g>
<!-- Node5 -->
<g id="Node000005" class="node">
<title>Node5</title>
<g id="a_Node000005"><a xlink:href="classtracktion_1_1engine_1_1WaveAudioClip.html" target="_top" xlink:title="An audio clip that uses an audio file as its source.">
<polygon fill="white" stroke="#666666" points="407,-30 302,-30 302,0 407,0 407,-30"/>
<text text-anchor="start" x="310" y="-18" font-family="Helvetica,sans-Serif" font-size="10.00">tracktion::engine::</text>
<text text-anchor="middle" x="354.5" y="-7" font-family="Helvetica,sans-Serif" font-size="10.00">WaveAudioClip</text>
</a>
</g>
</g>
<!-- Node2&#45;&gt;Node5 -->
<g id="edge4_Node000002_Node000005" class="edge">
<title>Node2&#45;&gt;Node5</title>
<g id="a_edge4_Node000002_Node000005"><a xlink:title=" ">
<path fill="none" stroke="#63b8ff" d="M266.39,-44.65C280.61,-39.81 295.79,-34.64 309.43,-30"/>
<polygon fill="#63b8ff" stroke="#63b8ff" points="265.06,-41.41 256.73,-47.94 267.32,-48.03 265.06,-41.41"/>
</a>
</g>
</g>
</g>
</svg>
