<?xml version="1.0" encoding="UTF-8" standalone="no"?>
<!DOCTYPE svg PUBLIC "-//W3C//DTD SVG 1.1//EN"
 "http://www.w3.org/Graphics/SVG/1.1/DTD/svg11.dtd">
<!-- Generated by graphviz version 2.43.0 (0)
 -->
<!-- Title: tracktion::engine::Modifier Pages: 1 -->
<svg width="612pt" height="278pt"
 viewBox="0.00 0.00 612.00 278.00" xmlns="http://www.w3.org/2000/svg" xmlns:xlink="http://www.w3.org/1999/xlink">
<g id="graph0" class="graph" transform="scale(1 1) rotate(0) translate(4 274)">
<title>tracktion::engine::Modifier</title>
<!-- Node1 -->
<g id="Node000001" class="node">
<title>Node1</title>
<g id="a_Node000001"><a xlink:title="Bass class for parameter Modifiers.">
<polygon fill="#999999" stroke="#666666" points="412,-150 307,-150 307,-120 412,-120 412,-150"/>
<text text-anchor="start" x="315" y="-138" font-family="Helvetica,sans-Serif" font-size="10.00">tracktion::engine::</text>
<text text-anchor="middle" x="359.5" y="-127" font-family="Helvetica,sans-Serif" font-size="10.00">Modifier</text>
</a>
</g>
</g>
<!-- Node6 -->
<g id="Node000006" class="node">
<title>Node6</title>
<g id="a_Node000006"><a xlink:href="classtracktion_1_1engine_1_1BreakpointOscillatorModifier.html" target="_top" xlink:title=" ">
<polygon fill="white" stroke="#666666" points="604,-270 448,-270 448,-240 604,-240 604,-270"/>
<text text-anchor="start" x="456" y="-258" font-family="Helvetica,sans-Serif" font-size="10.00">tracktion::engine::</text>
<text text-anchor="middle" x="526" y="-247" font-family="Helvetica,sans-Serif" font-size="10.00">BreakpointOscillatorModifier</text>
</a>
</g>
</g>
<!-- Node1&#45;&gt;Node6 -->
<g id="edge5_Node000001_Node000006" class="edge">
<title>Node1&#45;&gt;Node6</title>
<g id="a_edge5_Node000001_Node000006"><a xlink:title=" ">
<path fill="none" stroke="#63b8ff" d="M376.4,-158.67C392.18,-180.41 418.24,-212.05 448,-231 453.32,-234.38 459.14,-237.32 465.13,-239.86"/>
<polygon fill="#63b8ff" stroke="#63b8ff" points="379.12,-156.45 370.49,-150.3 373.4,-160.49 379.12,-156.45"/>
</a>
</g>
</g>
<!-- Node7 -->
<g id="Node000007" class="node">
<title>Node7</title>
<g id="a_Node000007"><a xlink:href="classtracktion_1_1engine_1_1EnvelopeFollowerModifier.html" target="_top" xlink:title=" ">
<polygon fill="white" stroke="#666666" points="597.5,-222 454.5,-222 454.5,-192 597.5,-192 597.5,-222"/>
<text text-anchor="start" x="462.5" y="-210" font-family="Helvetica,sans-Serif" font-size="10.00">tracktion::engine::</text>
<text text-anchor="middle" x="526" y="-199" font-family="Helvetica,sans-Serif" font-size="10.00">EnvelopeFollowerModifier</text>
</a>
</g>
</g>
<!-- Node1&#45;&gt;Node7 -->
<g id="edge6_Node000001_Node000007" class="edge">
<title>Node1&#45;&gt;Node7</title>
<g id="a_edge6_Node000001_Node000007"><a xlink:title=" ">
<path fill="none" stroke="#63b8ff" d="M393.71,-155.26C409.74,-164.51 429.47,-175.12 448,-183 455.6,-186.23 463.79,-189.25 471.89,-191.98"/>
<polygon fill="#63b8ff" stroke="#63b8ff" points="395.13,-152.04 384.74,-150.01 391.6,-158.08 395.13,-152.04"/>
</a>
</g>
</g>
<!-- Node8 -->
<g id="Node000008" class="node">
<title>Node8</title>
<g id="a_Node000008"><a xlink:href="classtracktion_1_1engine_1_1LFOModifier.html" target="_top" xlink:title=" ">
<polygon fill="white" stroke="#666666" points="578.5,-174 473.5,-174 473.5,-144 578.5,-144 578.5,-174"/>
<text text-anchor="start" x="481.5" y="-162" font-family="Helvetica,sans-Serif" font-size="10.00">tracktion::engine::</text>
<text text-anchor="middle" x="526" y="-151" font-family="Helvetica,sans-Serif" font-size="10.00">LFOModifier</text>
</a>
</g>
</g>
<!-- Node1&#45;&gt;Node8 -->
<g id="edge7_Node000001_Node000008" class="edge">
<title>Node1&#45;&gt;Node8</title>
<g id="a_edge7_Node000001_Node000008"><a xlink:title=" ">
<path fill="none" stroke="#63b8ff" d="M422.37,-144.03C439.15,-146.47 457.14,-149.1 473.3,-151.46"/>
<polygon fill="#63b8ff" stroke="#63b8ff" points="422.5,-140.51 412.1,-142.53 421.49,-147.44 422.5,-140.51"/>
</a>
</g>
</g>
<!-- Node9 -->
<g id="Node000009" class="node">
<title>Node9</title>
<g id="a_Node000009"><a xlink:href="classtracktion_1_1engine_1_1MIDITrackerModifier.html" target="_top" xlink:title=" ">
<polygon fill="white" stroke="#666666" points="582.5,-126 469.5,-126 469.5,-96 582.5,-96 582.5,-126"/>
<text text-anchor="start" x="477.5" y="-114" font-family="Helvetica,sans-Serif" font-size="10.00">tracktion::engine::</text>
<text text-anchor="middle" x="526" y="-103" font-family="Helvetica,sans-Serif" font-size="10.00">MIDITrackerModifier</text>
</a>
</g>
</g>
<!-- Node1&#45;&gt;Node9 -->
<g id="edge8_Node000001_Node000009" class="edge">
<title>Node1&#45;&gt;Node9</title>
<g id="a_edge8_Node000001_Node000009"><a xlink:title=" ">
<path fill="none" stroke="#63b8ff" d="M422.1,-126.01C437.59,-123.75 454.13,-121.34 469.31,-119.13"/>
<polygon fill="#63b8ff" stroke="#63b8ff" points="421.49,-122.56 412.1,-127.47 422.5,-129.49 421.49,-122.56"/>
</a>
</g>
</g>
<!-- Node10 -->
<g id="Node000010" class="node">
<title>Node10</title>
<g id="a_Node000010"><a xlink:href="classtracktion_1_1engine_1_1RandomModifier.html" target="_top" xlink:title=" ">
<polygon fill="white" stroke="#666666" points="578.5,-78 473.5,-78 473.5,-48 578.5,-48 578.5,-78"/>
<text text-anchor="start" x="481.5" y="-66" font-family="Helvetica,sans-Serif" font-size="10.00">tracktion::engine::</text>
<text text-anchor="middle" x="526" y="-55" font-family="Helvetica,sans-Serif" font-size="10.00">RandomModifier</text>
</a>
</g>
</g>
<!-- Node1&#45;&gt;Node10 -->
<g id="edge9_Node000001_Node000010" class="edge">
<title>Node1&#45;&gt;Node10</title>
<g id="a_edge9_Node000001_Node000010"><a xlink:title=" ">
<path fill="none" stroke="#63b8ff" d="M393.71,-114.74C409.74,-105.49 429.47,-94.88 448,-87 455.99,-83.6 464.63,-80.44 473.13,-77.61"/>
<polygon fill="#63b8ff" stroke="#63b8ff" points="391.6,-111.92 384.74,-119.99 395.13,-117.96 391.6,-111.92"/>
</a>
</g>
</g>
<!-- Node11 -->
<g id="Node000011" class="node">
<title>Node11</title>
<g id="a_Node000011"><a xlink:href="classtracktion_1_1engine_1_1StepModifier.html" target="_top" xlink:title=" ">
<polygon fill="white" stroke="#666666" points="578.5,-30 473.5,-30 473.5,0 578.5,0 578.5,-30"/>
<text text-anchor="start" x="481.5" y="-18" font-family="Helvetica,sans-Serif" font-size="10.00">tracktion::engine::</text>
<text text-anchor="middle" x="526" y="-7" font-family="Helvetica,sans-Serif" font-size="10.00">StepModifier</text>
</a>
</g>
</g>
<!-- Node1&#45;&gt;Node11 -->
<g id="edge10_Node000001_Node000011" class="edge">
<title>Node1&#45;&gt;Node11</title>
<g id="a_edge10_Node000001_Node000011"><a xlink:title=" ">
<path fill="none" stroke="#63b8ff" d="M376.4,-111.33C392.18,-89.59 418.24,-57.95 448,-39 455.68,-34.11 464.42,-30.16 473.19,-26.98"/>
<polygon fill="#63b8ff" stroke="#63b8ff" points="373.4,-109.51 370.49,-119.7 379.12,-113.55 373.4,-109.51"/>
</a>
</g>
</g>
<!-- Node2 -->
<g id="Node000002" class="node">
<title>Node2</title>
<g id="a_Node000002"><a xlink:href="classtracktion_1_1engine_1_1AutomatableEditItem.html" target="_top" xlink:title="Base class for elements that have some kind of automatable parameters.">
<polygon fill="white" stroke="#666666" points="266.5,-198 145.5,-198 145.5,-168 266.5,-168 266.5,-198"/>
<text text-anchor="start" x="153.5" y="-186" font-family="Helvetica,sans-Serif" font-size="10.00">tracktion::engine::</text>
<text text-anchor="middle" x="206" y="-175" font-family="Helvetica,sans-Serif" font-size="10.00">AutomatableEditItem</text>
</a>
</g>
</g>
<!-- Node2&#45;&gt;Node1 -->
<g id="edge1_Node000001_Node000002" class="edge">
<title>Node2&#45;&gt;Node1</title>
<g id="a_edge1_Node000001_Node000002"><a xlink:title=" ">
<path fill="none" stroke="#63b8ff" d="M264.46,-164.79C279.87,-159.91 296.36,-154.69 311.15,-150"/>
<polygon fill="#63b8ff" stroke="#63b8ff" points="263,-161.59 254.52,-167.94 265.11,-168.26 263,-161.59"/>
</a>
</g>
</g>
<!-- Node3 -->
<g id="Node000003" class="node">
<title>Node3</title>
<g id="a_Node000003"><a xlink:href="classtracktion_1_1engine_1_1EditItem.html" target="_top" xlink:title="Base class for objects that live inside an edit &#45; e.g.">
<polygon fill="white" stroke="#666666" points="105,-198 0,-198 0,-168 105,-168 105,-198"/>
<text text-anchor="start" x="8" y="-186" font-family="Helvetica,sans-Serif" font-size="10.00">tracktion::engine::</text>
<text text-anchor="middle" x="52.5" y="-175" font-family="Helvetica,sans-Serif" font-size="10.00">EditItem</text>
</a>
</g>
</g>
<!-- Node3&#45;&gt;Node2 -->
<g id="edge2_Node000002_Node000003" class="edge">
<title>Node3&#45;&gt;Node2</title>
<g id="a_edge2_Node000002_Node000003"><a xlink:title=" ">
<path fill="none" stroke="#63b8ff" d="M115.4,-183C125.32,-183 135.57,-183 145.44,-183"/>
<polygon fill="#63b8ff" stroke="#63b8ff" points="115.21,-179.5 105.21,-183 115.21,-186.5 115.21,-179.5"/>
</a>
</g>
</g>
<!-- Node4 -->
<g id="Node000004" class="node">
<title>Node4</title>
<g id="a_Node000004"><a xlink:href="classtracktion_1_1engine_1_1Selectable.html" target="_top" xlink:title="Base class for things that can be selected, and whose properties can appear in the properties panel.">
<polygon fill="white" stroke="#666666" points="258.5,-150 153.5,-150 153.5,-120 258.5,-120 258.5,-150"/>
<text text-anchor="start" x="161.5" y="-138" font-family="Helvetica,sans-Serif" font-size="10.00">tracktion::engine::</text>
<text text-anchor="middle" x="206" y="-127" font-family="Helvetica,sans-Serif" font-size="10.00">Selectable</text>
</a>
</g>
</g>
<!-- Node4&#45;&gt;Node1 -->
<g id="edge3_Node000001_Node000004" class="edge">
<title>Node4&#45;&gt;Node1</title>
<g id="a_edge3_Node000001_Node000004"><a xlink:title=" ">
<path fill="none" stroke="#63b8ff" d="M269.08,-135C281.6,-135 294.64,-135 306.76,-135"/>
<polygon fill="#63b8ff" stroke="#63b8ff" points="268.71,-131.5 258.71,-135 268.71,-138.5 268.71,-131.5"/>
</a>
</g>
</g>
<!-- Node5 -->
<g id="Node000005" class="node">
<title>Node5</title>
<g id="a_Node000005"><a xlink:href="structtracktion_1_1engine_1_1AutomatableParameter_1_1ModifierSource.html" target="_top" xlink:title="Base class for things that can be used to modify parameters.">
<polygon fill="white" stroke="#666666" points="271,-101.5 141,-101.5 141,-60.5 271,-60.5 271,-101.5"/>
<text text-anchor="start" x="149" y="-89.5" font-family="Helvetica,sans-Serif" font-size="10.00">tracktion::engine::</text>
<text text-anchor="start" x="149" y="-78.5" font-family="Helvetica,sans-Serif" font-size="10.00">AutomatableParameter</text>
<text text-anchor="middle" x="206" y="-67.5" font-family="Helvetica,sans-Serif" font-size="10.00">::ModifierSource</text>
</a>
</g>
</g>
<!-- Node5&#45;&gt;Node1 -->
<g id="edge4_Node000001_Node000005" class="edge">
<title>Node5&#45;&gt;Node1</title>
<g id="a_edge4_Node000001_Node000005"><a xlink:title=" ">
<path fill="none" stroke="#63b8ff" d="M274.42,-105.03C288.56,-110.07 303.1,-115.26 316.03,-119.86"/>
<polygon fill="#63b8ff" stroke="#63b8ff" points="275.3,-101.63 264.71,-101.57 272.95,-108.22 275.3,-101.63"/>
</a>
</g>
</g>
</g>
</svg>
